<?xml version="1.0"?>
<svg xmlns="http://www.w3.org/2000/svg" version="1.2" baseProfile="tiny" width="800" height="1148" viewBox="0 0 800 1148" stroke-linecap="round" stroke-linejoin="round">
<g id="4200507">
<path d="M 753.26 146.31 757.91 205.29 759.24 218.45 764.18 285.19 769.96 340.6 776.92 423.42 780.79 466.46 787.01 528.95 799 640.62 785.18 640.47 785.91 649.11 790.02 752.34 781.57 750.35 775.11 746.01 771.2 744.23 766.71 743.11 762.87 741 759.39 736.93 756.03 735.9 757.12 732.88 752.39 731.43 750.47 728.43 743.08 729.97 737.05 733.1 730.32 737.37 727.38 740.14 717.73 737.1 707.34 736.59 706.19 742.77 708.58 747.68 707.87 749.77 705.41 751.33 701.07 750.91 697.41 751.47 691.44 755.81 685.28 753.92 686.18 758.04 684.17 762.77 683.63 766.55 681.9 771.08 678.29 770.77 674.06 767.13 672.03 764.08 670.95 758.65 665.96 759.24 661.45 761.97 653.61 765.63 650.41 764.51 647.93 756.87 648.72 754.09 642.96 753 637.42 745.99 636.83 743.78 634.44 741.84 631.5 741.5 629.26 743.73 628.77 747.74 624.31 746.71 620.34 747.82 617.61 747.47 612.74 748.47 612.57 750.89 616.1 756.26 617.14 767.19 613.81 772.28 610.73 773.32 606.88 768.18 599.47 766.6 594.04 768.51 592.93 770.22 595.15 773.14 595.77 778.66 595.33 782.58 596.81 785.28 595.92 788.91 592.35 790.2 590.55 787.72 583.68 781.45 581.23 782.08 575.66 786.89 569.03 781.23 567.16 777.68 562.74 774.37 559.32 770.4 557.4 769.86 553.99 772.57 548.18 778.98 547.11 781.84 546.91 786.88 549.13 791.87 549.3 795.87 548.07 803.14 548.9 807.97 547.48 809.97 544.14 810 540.16 808.9 531.67 804.36 528.92 805.08 522.81 811.59 515.72 812.92 515.34 814.61 518.07 825.23 516.3 825.27 511.76 822.73 507.11 823.01 511.69 832.27 516.42 836.51 517.41 840.25 517.09 842.81 513.46 843.44 499.76 844.22 497.71 841.42 492.51 838.52 489.43 833.02 487.46 830.95 486.82 824.06 484.29 824.32 482.65 826.68 477.87 829.84 466.04 833.78 470.13 836.45 470.94 839.79 463.85 845.93 463.35 849.14 461.05 853.36 460.37 860.06 454.61 860.83 454.73 861.85 459.47 864.84 460.61 868.73 458.66 873.57 454.85 875.78 448.17 876.54 445.35 878.59 443.77 883.76 444.37 892.86 447.71 896.55 458.66 902.51 461.12 905.14 460.35 907.92 456.75 912.73 450.1 919.97 444.87 927.82 442.97 931.59 438 936.68 426.22 942.02 416.42 944.65 407.7 948.29 404.21 950.3 401.55 955.86 400.06 961.33 399.28 973.31 395.08 979.43 389.66 982.21 374.38 983.42 367.02 982.63 347.79 978.54 336.83 978.09 330.4 982.39 321.62 987.47 311.8 994.91 310.21 996.91 309.47 1002.16 309.77 1006.96 311.51 1010.08 316.06 1013 322.29 1015.14 334.53 1018.02 341.02 1023.67 340.56 1031.48 338.6 1033.97 330.33 1038.42 310.88 1041.51 304.05 1041.75 288.05 1041.18 283.81 1041.8 270.32 1025.81 261.5 1021.01 252.98 1018.02 245.17 1016.38 236.24 1016.55 227.21 1018.43 218.68 1023.29 211.26 1028.52 196.63 1044.39 189.2 1053.5 181.13 1066.33 173.3 1077.7 159.36 1095.11 150.92 1104.12 144.92 1111.52 129.09 1125.49 121.57 1131.71 102.67 1142.25 93.13 1145.03 82.47 1147 71.06 1146.8 59.6 1143.98 51.18 1141.44 41.35 1137.54 34.26 1130.85 26.97 1120.8 21.72 1111.58 14.14 1095.05 9.21 1078.87 5.59 1063.89 2.58 1046 1 1027.67 2.46 1009.34 4.61 1002.39 7.6 995.54 12.61 978.57 20.67 960.8 26.16 953.4 37.45 939.34 43.14 934.11 56.86 920.68 63.78 913.51 87.65 895.39 100.25 885.12 109.8 876.96 122.1 864.88 128.5 857.93 133.99 851.26 141.12 839.08 148.96 821.43 150.4 809.69 150.93 801.2 149.22 793.8 147.5 789.65 147.26 785.18 156.62 795.27 161.3 800.86 165.57 804.23 171.34 807.39 180.21 810.74 188.89 812.67 210.36 815.58 220.09 815.82 232.84 815.61 243.38 816.35 261.17 820.19 266.83 821.64 272.95 822.38 277.46 822.12 282.74 819.29 285.38 812.89 290.43 793.51 292.47 780.08 294.45 764.11 296.81 749.33 299.57 739.08 299.36 734.87 297.7 725.59 295.53 719.5 289.71 706.36 284.18 695.38 280.88 683.31 279.65 673.47 278.49 657.42 277.5 650.55 278.43 642.42 280.47 638.16 283.17 636.38 298.28 633.36 312.53 633.47 322.19 636.23 336.96 642.54 356.16 649.63 366.23 652.3 378.71 656.54 387.47 658.07 398.05 658.99 402.41 658.63 405.82 656.71 408.51 651.13 410.25 644.94 410.51 639.57 409.22 632.46 406.19 626.34 400.04 616.9 391 606.6 378.12 589.55 369.05 576.25 361.56 566.16 355.98 560.73 351.19 553.05 342.16 536.7 340.11 529.86 337.13 512.87 336.28 511.78 334.94 497.65 335.17 491.85 336.16 487.88 337.86 485 340.41 482.94 344.24 481.73 349.6 481.37 358.27 481.94 371.04 484.4 380.51 487.39 393.89 492.2 401.99 494.76 415.78 497.77 439.68 501.93 454.59 505.18 464.31 506.93 472.38 507.84 484.92 508.14 493.78 507.73 502.67 506.91 512.49 505.33 519.05 503.6 524.76 501.43 529.31 498.88 532.63 495.33 533.64 491.9 533.62 487.71 532.68 483.12 530.81 478.52 527.9 473.95 523.84 469.41 518.61 465.12 508.26 459.52 499.01 456.19 488.05 453.13 476.41 450.42 453.23 445.91 445.05 444.02 432.99 439.43 421.27 433.4 414.38 428.26 410.89 423.95 408.51 419.76 406.4 413.6 405.97 409.26 406.26 402.83 407.5 396.66 411.01 389.94 417.28 384.54 427.06 378.16 444.92 369.59 454.32 362.97 484.79 338.27 491.62 332.57 499.18 325.72 505.39 319.13 507.86 314.61 508.1 308.72 505.71 304.17 496.57 295.66 486.55 288.64 476.5 282 458.47 274 448.06 268.87 438.37 266.15 429.4 264.97 410.52 261.64 398.81 256.38 391.4 251.59 373.9 236.4 365.15 226.94 355.31 213.97 350.17 205.2 349.44 200.84 350.03 189.98 352.34 181.84 357.4 170.08 371.21 151.2 396.8 124.8 414.4 105.35 430.39 90.48 448.96 72.19 460.77 58.34 474.11 45.73 482.92 39.74 495.07 30.83 516.09 19.06 524.45 15.34 537.62 9.93 554.44 4.95 569.71 2.11 579.66 1 581.86 1.22 592.12 4.75 595.58 7 596.81 10.66 597.1 13.54 595.05 21.76 589.5 33.67 579.66 49.2 574.85 55.14 571.75 59.97 567.61 64.4 564.01 69.25 553.07 79.76 548.94 84.83 547.04 89.8 546.25 94.78 547.16 99.04 550.04 101.95 554.6 104.14 559.47 105.08 565.75 105.16 570.92 104.61 579.66 102.91 596.25 101.31 633.5 97.4 647.13 98 659.34 100.95 672.75 105.33 688.76 110.95 703.41 117.41 733.36 134.4 753.26 146.31 Z"/>
</g>
</svg>