<?xml version="1.0"?>
<svg xmlns="http://www.w3.org/2000/svg" version="1.2" baseProfile="tiny" width="800" height="1000" viewBox="0 0 800 1000" stroke-linecap="round" stroke-linejoin="round">
<g id="4200754">
<path d="M 366.43 21.38 368.75 24.08 369.31 29.52 371.44 31 376.75 43.88 383.06 50.11 389.08 53.68 395.23 58.62 402.52 62.57 407.02 63.92 413.51 67.95 415.93 70.85 421.22 73.19 425.09 76.06 427.37 76.63 429.52 78.93 435.52 82.2 438.44 87.18 442.42 91.13 450.98 97.61 453.76 102.48 454.25 107.82 458.57 110.92 458.68 114.86 462.87 123.69 465.3 126.15 465.5 129.15 460.64 139.59 460.04 142.55 452.22 159.11 483.05 263.73 481.59 269.3 477.99 271.34 475.05 271.51 493.06 306.62 566.11 307.29 546.49 333.84 608.9 358.94 600.43 360.1 593.91 362.91 589.67 363.98 626.75 407.32 607.04 419.88 616.74 430.89 618.71 432.63 619.56 437.68 618.53 441.71 656.67 484.14 662.77 491.71 668.82 497.77 662.81 498.5 653.7 505.1 651.95 507.77 648.13 510.8 654.94 514.41 672.7 525.02 681.74 531.41 684.7 536.32 685.8 541.88 686.02 551.16 685.14 559.57 684.12 564.94 679.71 581.47 675.21 599.85 672.75 612.77 670.89 627.01 670.22 635.28 670.08 648.33 671.12 653.19 674.06 657.17 676.31 658.6 682.27 658.15 694.09 654.2 702.13 649.93 714.02 641.63 723.41 633.07 732.99 622.81 735.91 623.34 737.29 626.18 736.54 628.17 738.71 630.59 741.84 636.6 741.52 639.8 746.71 651.87 746.58 655.66 748.81 661.26 750.43 662.55 752.25 666.64 753.36 675.17 755.68 680.11 755.74 682.6 764.95 690.69 770.38 716.15 788.75 720.48 791.74 722.33 797.3 732.57 799 741.91 798.54 753.47 797.17 757.15 795.19 757.11 790.65 756.59 780.67 757.01 769.4 757.88 748.98 762.88 741.82 764.97 734.66 768.55 719.26 776.8 711.51 781.9 700.39 791.58 694.26 798.79 689.13 806.79 685.79 813 681.57 822.06 679.45 830.48 677.7 848.28 678.67 857.3 680.14 865.7 686.37 883.27 692.89 898.71 697.77 909.3 707.24 931.18 712.18 949.12 712.96 958.5 710.34 968.25 707.22 977.03 704.58 983.15 700.62 987.43 692.48 992.88 684.43 997.27 676.95 999 665.77 998.9 639.5 997.92 623.13 995.63 615.31 992.41 609.79 988.73 605.46 983.97 602.02 978.24 598.96 970.56 593.23 953.78 591.66 944.68 588.19 934.61 585.03 926.49 580.67 917.93 576.5 907.77 572.4 895.32 567.42 884.64 563.74 873.61 562.17 864.85 561.1 842.99 562.1 830.77 564.3 819.17 565.29 806.5 567.11 796.4 570.11 785.77 572.62 774.24 574.53 752.02 575.05 729.53 574.77 720.33 573.44 708.82 571.96 698.91 567.71 690.98 561.36 683.32 553.82 676.64 544 671.48 534.89 668.17 511.42 665.58 498.75 666.01 487.58 667.41 477.52 669.24 469.06 672.04 449.63 681.81 439.39 686.12 430.84 690.07 422.89 694.45 413.55 700.09 405.92 706.68 398.18 712.66 390.34 717.75 381.8 724 375.05 728.11 364.41 733.49 343.47 743.15 337.11 746.55 306.36 758.33 298.07 758.11 287.02 758.35 276.51 757.27 267 753.25 258.58 748.26 245.71 736.03 241.17 729.86 237.31 721.39 235.75 713.08 235.41 707.68 235.85 699.8 237.91 694.04 246.62 685.23 267.59 674.13 279.73 668.92 292.91 663.56 301.65 658.46 309.5 653.28 319.22 646.4 334.6 634.63 343.83 627.93 354.63 618.84 367.59 603.81 382.52 584.91 388.34 576.65 394.46 568.73 397.51 562.17 398.88 546.85 397.8 536.23 395.24 527.22 385.75 512.67 377.87 505.07 367.04 497.79 347.77 483.56 328.51 469.87 316.48 462.07 303.84 452.32 291.81 444.87 282.3 439.88 268.98 433.5 253.57 427.31 244.67 424.44 225.09 419.8 211.61 417.22 195.34 415.73 182.46 415.18 145.16 415.67 128.59 416.38 86.29 415.74 65.64 415.06 49.06 412.41 37.76 407.96 29.66 404.29 20.63 398.06 13.2 391.02 5.72 381.6 2.16 371.97 1 363.22 1.44 354.63 6.54 343.01 12.17 334.83 21.58 326.81 31.82 321.62 43.75 316.16 57.08 312.01 69.63 309.64 83.6 305.88 94.65 303.52 107.91 302.91 127.05 301.74 140.71 301.13 159.27 302.52 175.85 306.59 184.96 310.78 205.04 318.27 216.54 321.75 238.62 327.46 253.9 330.29 272.99 335.31 290.05 336.62 299.62 335.59 307.37 332.09 312.71 326.04 315.47 321.33 317.5 313.09 318.04 306.36 316.29 285.93 313.82 278.95 305.42 263.38 299.68 256.86 290.77 251.25 277.14 243.19 269.24 239.43 245.21 226.66 231.11 221.78 215.93 218.07 203.42 216.83 193.84 215.55 187.15 215.15 177.88 215.65 164.05 218.74 148.03 223.52 134.39 229.62 115.88 215.43 105.45 209.09 96.55 202.96 90.03 197.58 85.37 192.42 82.35 187.09 81.16 180.06 81.86 174.77 83.28 170.74 85.34 168.22 91.02 167.09 96.55 168.3 110.82 173.29 118.85 174.64 128.32 172.8 137.87 168.39 149.27 161.59 156.48 157.87 161.98 155.85 170.21 154.13 182.68 152.8 188.79 151.83 192.16 149.79 194.14 144.03 194.76 137.7 195.09 128.36 196.18 124.03 198.03 121.87 200.69 120.73 204.09 120.74 208.11 122.16 213.96 125.99 222.88 133.12 233.98 140.08 250.53 149.42 266.28 160.5 268.34 160.33 270.81 157.69 271.7 151.31 270.93 146.46 268.01 138.65 263.62 131.02 255.13 117.92 246.98 104.67 242.02 95.43 239.2 89.21 236.12 80.34 235.33 76.41 235.5 67.65 236.98 62.27 240.51 54 243.16 50.79 248.09 49.79 250.78 51.54 255.15 58.58 256.98 64.59 258.19 70.96 260.06 76.25 262.3 79.5 267.95 84.28 271.95 86.43 283.11 90.85 289.15 94.63 297.5 104.6 300.82 107.06 304.24 107.48 309.29 104.69 312.54 101.1 315.08 99.95 319.48 99.69 325.27 100.45 330.71 99.8 333.06 97.3 333.56 93.39 332.82 86.17 329.95 79.96 324.56 75.28 320.81 69.25 316.3 64.33 307.15 59.29 298.17 51.11 287.63 46.83 284.87 44.2 284.15 41.26 285.21 37.85 287.55 34.43 293.45 28.71 295.57 25.34 296.9 18.15 298.97 14.52 304.71 9.44 311.72 6.19 317.21 2.77 322.9 1 326.88 2.04 338.19 8.37 343.11 8.51 345.47 9.44 348.92 15.71 358.4 23.22 361.06 23.15 366.43 21.38 Z"/>
</g>
</svg>