<?xml version="1.0"?>
<svg xmlns="http://www.w3.org/2000/svg" version="1.2" baseProfile="tiny" width="800" height="1188" viewBox="0 0 800 1188" stroke-linecap="round" stroke-linejoin="round">
<g id="4200200">
<path d="M 715.47 138.47 719.84 145.8 723 147.86 732.44 149.37 746.91 156.58 750.75 157.38 755.81 157.57 757.14 162.54 757.24 169.3 757.95 170.34 766.19 173.53 771.68 173.47 774.87 174.95 775.01 176.74 773.03 181.38 772.58 184.39 773.99 195.54 775.18 200.55 778.03 203.48 785.29 205.38 788.54 210.07 790.72 225.17 792.29 227.63 797.44 231.83 796.86 238.78 799 241.05 790.33 247.29 786.71 250.94 782.56 257.53 779.77 259.2 773.3 260.98 768.39 265.35 764.68 270.59 758.94 273.14 743.2 275.93 738.34 274.67 730.52 274.41 727.25 275.86 724.42 279.77 723.76 284.18 721.95 289.15 719.78 292.91 715.75 296.86 709.39 298.45 703.32 296.82 700.44 296.95 695.38 298.95 689.11 302.46 678.95 306.96 673.52 308.02 669.17 311.4 666.11 312.96 660.25 319.1 654.23 324.03 647.63 327.78 638.17 330.08 635.04 332.49 630.28 345.13 625.78 349.87 621.48 356.38 611.75 368.4 609.96 369.72 601.59 368.9 599.09 370.32 593.75 377.87 592.79 381.18 592.73 389.09 593.47 393.63 593.04 397 585.01 404.89 583.3 408.95 583.49 415.92 582.3 418.27 568.4 426.65 565.49 427.37 563.63 429.83 563.51 436.27 558.94 445.23 554.6 449.68 549.44 453.22 543.25 464.85 543.41 469.66 542.82 473.63 540.44 477.5 535.93 479.41 526.63 480.12 521.66 479.3 515.37 481.13 514.37 484.67 511.97 489.8 510.58 497.19 507.24 499.4 495.41 501.78 492.95 503.88 492.01 507.43 494.63 511.76 495.68 519.09 497.62 521.45 501.91 528.28 504.06 530.33 508.98 532.67 509.81 536.26 508.71 540.48 504.83 546.04 503.57 550.97 502.23 553.44 498.56 557.62 491.41 567.12 487.35 575.08 484.49 582.15 480.98 589.07 480.2 593.12 480.28 597.11 478.88 609.68 478.28 612.46 475.6 617.33 471.21 623.02 469.7 626.23 469.34 631.78 473.75 640.12 475.44 645.38 474.03 652.73 475.6 656.15 478.4 657.86 494.82 663.74 498.92 667.95 501.06 674.26 500.72 679.89 502.61 682.98 512.16 685.39 521.93 684.39 528.56 682.46 532.79 684.5 533.81 687.56 537.87 692.96 541.24 694.21 546.45 693.57 550.28 691.52 554.01 687.73 562.18 680.93 570.95 671.47 573.51 667.96 578.86 661.95 580.2 659.55 579.61 654.92 575.06 650.64 575.2 646.34 579.07 644.52 584.62 645.47 590.2 644.95 593.84 643.7 598.12 640.6 600.77 639.81 607.25 640.81 611.93 639.82 614.65 638.4 625.01 627.1 631.93 623.07 638.56 618.65 649.5 612.87 656.5 611.96 662.45 613.63 672.02 614.36 682.36 610.57 686.99 607.72 690.56 603.03 691.17 596.37 692.98 591.98 695.39 588.61 698.77 586.16 703.63 585.84 706.15 587.01 726.6 593.22 732.84 594.8 740.48 599.14 742.14 600.71 733.86 602.75 732.28 604.21 732.2 608.44 723.81 612.29 717.53 615.69 708.68 619.89 705.29 620.1 702.73 624.3 700.77 624.87 697.45 631.22 698.23 635.59 695.67 637.9 692.29 637.86 685.38 635.04 682.04 638.03 678.29 638.64 675.83 641.72 675.16 644.26 671.25 645.27 666.88 648.16 660.01 653.68 661.29 664.18 660.51 667.38 658.37 670.14 658.13 674.28 660.62 678.42 659.72 682.17 655.92 683.43 650.09 682.1 644.29 677.04 641.81 676.07 636.29 676.83 630.24 679.8 626.16 684.73 628.26 688.7 628.45 690.6 624.9 693.5 623.03 697.86 627.56 704.03 631.04 706.63 633.5 709.5 637.44 711.66 639.04 713.88 641.15 719.5 638.95 721.04 637.9 724.5 640.1 727.05 642.48 731.91 644.64 739.78 643.19 742.88 636.86 743.02 629.5 737.84 627.03 736.57 621.1 735.92 617.75 734.69 615.32 736.28 613.28 741.79 610.4 747.34 610.3 749.81 615.55 747.92 619.29 748.58 621.5 751.04 622.94 754.12 630.37 759.04 634.57 762.83 638.57 764.93 645.54 767.23 650.52 772.15 655.23 770.98 656.79 773.87 654.59 776.07 654.49 778.79 655.77 780.99 656.28 785.66 657.68 788.4 661.9 794.36 665.95 793.68 673.35 787.12 679.34 787.69 682.06 789.9 683.18 792.9 687.54 795.86 693.74 801.3 696.13 804.67 703.21 809.37 706.31 810.05 711.35 812.6 715.37 815.46 722.47 816.96 732.16 824.04 736.45 826.05 738.26 828.02 742.02 830.14 750.04 835.52 754.43 837.93 764.4 841.37 769.55 844.6 773.16 849.64 777.67 857.7 780.58 859.78 781.87 863.73 779.15 868.43 774.93 869.93 772.13 874.01 771.96 883.24 770.91 887.77 772 892.91 770.5 897.13 771.79 903.25 772.14 908.95 769.54 919.26 767.16 920.99 764.85 920.79 764.54 917.72 762.16 914.66 754.02 915.61 749.9 918.27 748.43 923 745.81 928.38 745.81 931.17 747.51 935.46 747.56 937.81 745.2 945.88 745.85 948.26 744.95 953.21 740.32 958.91 738.34 962.31 734.77 966.05 734.33 968.3 735.33 972.05 734.33 975.43 732.17 978.19 731.6 980.62 728.9 985.57 730.8 990.51 730.67 992.8 727.61 997.85 727.08 1003.62 727.08 1011.83 727.93 1014.58 730.74 1018.48 729.94 1023.01 731.02 1024.55 737.24 1027.57 739.44 1030.66 738.92 1033.52 737.44 1034.82 734.62 1033.93 730.54 1036.18 727.11 1036.81 724.88 1039.2 723.88 1043.24 721.41 1044.96 717.42 1045.61 710.19 1058.04 704.65 1064.87 708.01 1068.64 707.17 1072.23 704.28 1076.21 703.34 1079.07 703.22 1086.77 702.16 1093.82 700.28 1097.95 700.76 1100.39 706.13 1107.39 707.73 1112.9 708.08 1118.28 707.27 1124.5 705.7 1130.69 705.98 1137.92 707.43 1140.8 712.99 1147.99 716.3 1148.44 721.84 1150.29 734.58 1156.01 735.48 1160.44 732.34 1159.38 726.55 1162.45 722.55 1163.64 711.78 1165.28 706 1168.5 704.18 1170.34 698.71 1171.08 691.22 1174.25 686.54 1178.52 682.54 1179.3 679.54 1181.63 677.21 1185.88 674.54 1187 670.64 1186.94 663.91 1185.23 658.9 1185.68 652.21 1179.72 640.98 1172.62 637.28 1169.06 633.52 1167.44 628.53 1162.05 626.49 1161.28 625.58 1157.88 620.54 1152.69 615.2 1145.06 614.32 1140.28 610.41 1135.71 608.89 1131.98 608.22 1123.03 603.09 1117.97 601.12 1111.42 597.78 1107.44 591.14 1103.36 586.76 1103.18 580.14 1098.57 570.09 1093.45 566.54 1092.43 565.64 1091.07 565.53 1086.73 563.69 1084.01 557.35 1082.33 548.22 1077.83 543.9 1073.65 539.86 1073.65 529.13 1072.56 519.89 1070.71 516.72 1069.3 514.62 1067.08 513.09 1063.95 512.41 1058.98 509.97 1054.57 502.25 1049.21 499.24 1042.15 497.29 1040.09 492.16 1040.8 492.14 1038.78 489.48 1038.32 486.61 1040.01 485.81 1043.44 482.99 1045.37 478.59 1045.97 475.91 1043.69 474.32 1037.94 470.5 1035.1 467.63 1032.17 464.56 1030.28 461.26 1026.19 458.19 1024.74 455.93 1022.07 452.8 1020.13 447.17 1013.53 444.1 1011.75 438.34 1010.89 430.72 1006.98 426.96 1007.26 424.32 1005.38 427.67 1000.51 424.1 997.39 425.84 993.86 428.63 991.91 429.05 990.35 426.28 987.03 424.14 985.84 423 983.59 420.32 982.89 420.22 979.67 414.39 978.65 411.83 977.26 410.2 973.15 407.25 970.6 406.52 966.85 401.72 965.83 400.76 962.27 401.89 960.53 406.93 959.23 407.93 956.46 404.5 956.67 395.47 952.77 390.05 953.1 386.16 955.93 384.07 953.94 381.11 953.11 380.72 951.07 388.2 940.4 391.6 937.68 394.61 937.35 396.96 935.99 396.13 932.39 388.04 923.2 383.43 919.94 383.37 918.06 388.73 914.08 391.28 910.7 393.03 910.46 394.64 907.97 391.78 902.21 381.92 898.05 371.57 889.95 360.04 882.45 354.71 879.56 352.8 880.31 353.02 884.69 351.84 886.25 349.5 885.8 348.24 883.85 349.44 872.36 350.46 870.11 355.42 867.36 359.92 866.77 360.91 864.17 357.16 860.66 348.55 856.71 345.56 852.16 340.74 849.17 337.85 846.12 338.34 840.33 336.96 836.25 333.51 834.82 328.43 838.03 325.75 837.67 322.94 834.36 322.29 831.77 322.86 828.06 326.37 826.78 328.86 824.86 329.46 821.99 326.08 818.85 323.29 817.28 316.92 815.75 312.84 813.35 311.14 811.53 311.37 808.58 315.54 803.24 314.87 799.28 312.78 797.35 312.76 794.85 314.41 791.18 312.81 789.2 309.95 788.02 303.94 787.7 299.14 783.84 300.01 780.59 298.74 778.72 297.66 773.78 299.04 771.4 298.65 769.63 300.61 764 301.52 759.69 305.22 757.94 306.49 754.49 309.72 749.24 311.91 747.44 309.57 744.86 306.06 744.34 304.02 742.47 303.07 739.8 305.97 736.42 305.16 734.63 305.36 731.03 306.79 728.38 305.75 726.31 303.6 726.33 299.76 728.52 295.36 727.36 291.56 730.57 286.1 732.83 282.85 733.09 280.08 732.12 278.12 732.91 276.3 735.63 273.36 734.32 263.95 732.27 262.38 732.67 257.83 736.93 255.21 734.13 251.64 737.06 250.96 740.98 249.89 742.09 243.62 741.06 242.81 744.42 235.39 744.96 232.34 746.07 230.25 750.05 228.52 751.18 219.67 750.66 218.56 748.7 214.52 747.26 212.48 745.28 210.14 745.85 205.91 744.67 204.29 743.08 194.37 742.64 191.08 743.33 185.6 742.06 184.88 740.17 182.39 739.56 176.8 740.22 174.16 739.37 173.72 736.61 169.69 735.53 167.51 736.75 160.1 736.91 157.14 734.89 154.3 734.22 150.75 736.27 146.67 736.98 142.96 739.27 137.27 737.82 129.53 737.64 126.76 739.04 124 741.85 119.86 744.54 111.85 746.57 110.39 747.52 102.04 747.9 99.6 747.55 98.82 744.82 94.46 743.71 93.11 739.08 87.98 735.29 88.43 731.29 87.09 728.26 88.83 724.7 85.99 715.95 87.27 709.2 92.25 704.45 95.07 702.41 97.43 696.89 100.22 694.13 103.29 688.15 104.77 683.7 107.33 680.78 109.04 680.21 114.53 674.93 114.26 672.07 104.84 673.23 94.59 676.38 88.77 676.17 82.63 672.86 81.53 669.42 82.16 668.05 86.12 665.24 88 662.39 90.08 655.13 88.67 647.04 88.78 641.88 90.39 633.77 89.61 618.42 91.01 611.9 93.56 606.44 94.66 600.96 96.97 597.73 102.25 596.17 104.75 593.85 111.58 592.57 114.34 590.86 113.96 586.49 111.58 584.97 107.44 583.98 100.53 580.4 96.24 576.83 96.27 575.45 100.73 571.31 99.98 568.55 97.77 567.17 86.96 563.03 89.49 560.52 93.86 558.89 96.05 556.13 92.25 549.51 90.87 548.93 85.35 549.12 77.82 555 74.5 556.8 73.42 559.01 69.56 560.02 65.55 553.71 65.13 548.03 63.05 545.33 55.7 545.92 54.23 542.48 49.6 539.27 48.28 537.2 42.9 535.79 45.03 530.39 47.08 528.17 46.61 524.92 50.33 520.78 51.88 516.52 50.67 512.14 47.88 509.43 45.83 508.99 44.33 502.64 38.05 501.2 37.38 496.1 34.8 495.16 33.98 492.3 30.78 491.5 30.95 488.75 33.27 485.09 35.69 483.02 36.1 478.42 34.23 476.25 30.27 475.09 26.79 477.56 23.38 475.15 22.53 472.73 22.72 467.29 21.28 466.56 17.18 468.46 11.29 469.62 2.18 467.84 1 459.72 3.52 457.37 2.22 450.91 2.39 447.9 5.1 444.68 8.49 443.14 10.55 436.37 15.02 432.91 22.26 432.07 20.1 425.74 19.08 420.4 18.85 419.31 20.89 414.33 24.33 410.22 26.25 406.93 26.31 403.5 30.58 398.57 35.32 396.23 39.04 393.14 44.94 387.01 47.86 385.21 49.32 379.85 53.73 376.81 55.89 376.33 61.73 379.38 66.26 380.39 70.99 380.18 78.61 381 91.66 379.52 93.29 378.93 99.81 371.92 105.41 368.58 109.89 364.87 112.92 360.36 113.21 345.36 116.4 341.58 116.96 339.76 115.78 332.6 116.1 329.72 118.31 327.15 125.09 325.85 138.71 314.92 144.08 311.94 152.58 309.36 159.61 309 162.12 309.66 167 313.36 172.82 313.33 178.15 311.5 177.15 306.8 179.92 300.25 187.73 292.94 188.26 290.92 189.19 281.4 189.45 273.68 192.82 269.49 193.39 261.56 192.91 256.21 194.22 251.98 201.85 249.26 212.3 239.49 217.36 233.73 225.62 228.04 231.79 226.83 233.87 227.21 238.74 230.08 242.35 228.16 242.72 224.2 240.9 219.84 240.99 215.51 242.74 212.39 244.11 207.85 242.38 200.67 236.41 191.14 233.96 188.76 225.82 184.78 224.42 181.8 225.51 180.15 228.6 178.46 231.62 174.91 233.08 167.23 230.7 159.66 230.41 155.81 231.83 153.25 237.76 152.48 241.08 145.98 244.41 143.76 245.91 139.52 253.37 133.34 257.76 126.93 258.62 123.98 257.99 115.73 261.37 110.91 267.32 107.85 272.6 103.28 273.76 98.39 271.96 91.91 270.7 89.31 271.2 86.51 274.73 80.12 277.98 77.08 282.88 71.47 285.55 69.93 293.53 69.07 297.53 64.47 297.88 62.46 295.38 58.64 295.41 54.23 296.68 52.5 298.99 46.13 302.79 43.8 306.61 44.22 310.4 45.69 315.47 45.53 323.32 38.78 329.9 30.89 333.38 24.39 335.63 14.69 339.14 10.89 342.27 9.13 346.94 8.03 354.31 9.18 359.63 8.96 363.58 9.79 366.61 9.09 371.28 5.7 375.05 1.55 377.77 1 386.41 3.62 389.45 6.99 393.02 16.76 394.01 20.44 396.92 24.17 402.99 25.83 407.47 26.5 417.16 29.08 422.01 31.77 426.3 36.21 428.93 37.54 430.79 44.84 429.02 50.55 507.67 38.36 514.14 36.7 517.57 38.11 525.46 47.81 527.41 52.66 530.49 54.28 541.8 52.75 546.64 52.97 550.7 55.33 556.74 59.83 563.22 65.98 569.43 69.27 575.2 69.98 583.34 68.55 585.38 69.19 589.09 74.1 599.56 76.75 606.83 76.52 611.4 75.27 614.07 75.46 622.05 79.43 628.86 80.25 631.04 81.49 633.63 85.08 635.07 85.45 639.35 82.94 642.5 81.97 645.94 83.43 646.96 87.44 643.65 91.79 643.63 100.07 644.57 101.58 647.85 102.46 650.91 104.3 656.96 112.77 658.33 117.41 664.12 120.3 675.53 121.96 684.14 125.07 687.26 128.98 688.68 131.75 692.06 133.22 701.75 133.16 704.26 133.57 712.49 137.68 715.47 138.47 Z"/>
</g>
</svg>