<?xml version="1.0"?>
<svg xmlns="http://www.w3.org/2000/svg" version="1.2" baseProfile="tiny" width="800" height="839" viewBox="0 0 800 839" stroke-linecap="round" stroke-linejoin="round">
<g id="4200606">
<path d="M 531.31 659.89 527.28 657.5 521.66 653.64 516.15 651.94 512.93 651.76 511.05 651.16 501.86 645.21 501.5 642.82 499.94 642.52 498.68 643.77 495.03 644.55 492.75 644.31 492.03 646.95 488.86 651.5 487.18 652.58 484.25 653.42 481.07 652.04 472.63 652.28 469.69 654.2 464.72 655.04 462.86 654.2 463.94 652.16 468.37 649.23 469.09 647.79 466.94 645.33 464.9 641.62 463.82 637.78 462.62 637.42 459.63 639.94 452.38 639.88 449.74 640.18 447.77 641.02 446.33 643.12 443.72 644.93 441.24 645.63 434.71 646.23 430.94 646.83 429.14 645.39 428.72 641.86 427.04 641.2 422.85 640.9 422.07 638.44 420.63 637.9 416.32 637.48 415.06 642.52 414.05 644.61 415.18 650.9 414.94 654.2 414.16 655.94 410.63 660.49 409.01 664.39 407.52 665.83 406.86 667.68 403.92 668.64 399.73 674.09 396.73 675.99 393.14 677.39 390.5 679.01 389.25 679.01 386.67 676.97 383.26 675.35 380.86 673.56 374.45 672.9 371.46 672.12 367.6 670.13 365.53 670.56 362.53 672.66 360.32 671.1 358.76 668.04 351.91 666.32 346.78 667.62 344.2 667.98 339.35 669.48 337.2 667.2 332.58 668.4 329.11 670.32 324.62 668.46 314.73 667.5 310.36 665.53 308.38 663.67 303.83 662.47 302.57 662.59 301.2 664.69 304.01 668.94 304.01 670.98 297.84 676.07 295.51 677.33 294.67 679.07 294.43 682.3 293.65 683.98 289.46 685.6 285.68 689.37 279.69 689.85 278.55 691.17 277.96 695.19 278.08 699.02 277.18 701.48 275.5 702.98 271.97 702.74 268.79 703.52 266.16 706.09 264.57 708.34 260.46 707.65 257.23 706.15 254.12 705.31 251.18 706.03 250.04 709.21 240.88 711.85 236.57 715.5 233.93 715.74 229.74 718.14 224.24 717.4 220.49 715.97 217.7 716.28 214.1 720.89 214.76 723.47 214.2 726.54 215 728.26 213.2 730.9 208.47 733.48 206.86 735.51 200.75 737.19 196.73 736.41 193.44 736.83 190.56 739.95 190.56 746.3 188.35 751.63 186.07 753.13 183.5 753.67 181.04 754.81 178.52 757.03 177.03 759.96 174.99 761.4 171.46 765.12 170.56 767.51 167.26 769.19 164.81 772.91 161.09 773.45 153.31 775.12 150.25 776.56 149.41 782.67 148.63 785.19 143.78 789.44 139.53 788.37 135.7 789.38 133.66 792.68 132.76 796.16 133.6 798.85 132.82 801.61 130.13 806.4 128.87 807.06 123.84 804.66 118.92 812.69 114.74 816.12 111.86 819.35 110.54 820.24 104.55 822.04 101.43 825.52 96.49 828.66 94.43 831.57 91.49 832.05 83.46 832.17 74 835.23 71.33 837.03 66.46 838 62.9 833.13 59.62 830.77 57.19 827.83 50.25 823.04 50.39 817.58 49.73 814.01 49.77 811.26 51.44 807.07 53.33 804.14 53.58 801.95 52.65 800.69 48.29 796.49 47.04 794.82 47.17 793.21 49.07 791.51 49.92 789.35 50.01 784.41 51.31 781.71 53.66 779.1 57.23 776.53 58.73 774.7 58.62 771.62 57.02 768.68 56.77 764.06 57.44 754.15 57.94 751.88 59.79 747.76 60.25 745.12 58.87 741.33 55.04 736.33 48.96 734.57 41.48 731.71 40.39 730.41 40.11 728.6 38.51 725.75 37.2 725.33 28.95 726.01 25.17 723.95 22.5 721.77 19.21 716.3 18.58 713.63 18.36 709.9 17.02 705.8 18.09 702.32 17.1 700.85 9.43 700.75 7.27 700.03 5.47 697.57 4.02 694.41 1 691.89 2.76 687.35 4.02 681.22 5.28 672.56 9.23 667.27 9.99 664.33 11.33 661.3 12.52 656.11 14.1 652.98 15.11 648.28 14.86 645.59 11.67 640.72 8.48 638.11 7.38 636.35 5.96 631.64 6.96 628.11 6.88 624.84 5.86 620.58 6.29 616.24 6.54 609.21 6.88 607.78 9.48 604.92 10.41 599.63 10.49 595.77 11.67 591.73 10.75 585.58 11.33 581.9 13.93 574.34 15.53 571.23 18.05 567.45 21.16 561.99 22.5 556.53 22.33 550.9 20.41 544.35 20.32 540.14 20.65 536.28 19.98 533.09 18.89 530.99 14.52 525.02 14.35 519.39 15.19 517.21 16.33 516.48 18.82 515.81 19.24 514.97 18.99 510.86 21.92 506 23.6 504.24 27.71 503.07 31.31 498.29 32.15 490.58 32.57 484.29 33.82 480.52 32.73 477.75 32.82 475.91 34.75 473.14 34.66 469.12 38.73 464.77 42.46 461.74 43.57 458.98 43.54 457.38 45.22 452.43 44.38 450 44.72 447.32 47.15 444.13 48.57 440.86 51 433.99 51.57 430.81 55.05 422.81 57.62 410.37 56.76 408 54.22 405.66 54.59 403.52 57.6 399.45 60.59 397.71 66.61 391.98 67.6 389.31 68.85 387.97 72.96 387.13 74.05 386.04 72.39 378.51 72.62 375.81 72.04 368.6 71.95 364.41 74.38 353.34 75.89 349.57 77.99 348.15 79.58 348.48 81.34 350.49 84.39 350.9 86.03 350.41 88.04 348.15 95.42 342.7 98.18 338.67 101.03 332.22 101.62 329.37 101.37 326.94 99.77 326.01 98.6 323.16 99.44 315.11 102.14 310.97 102.29 309.67 99.69 304.97 96.17 301.37 93.74 301.53 91.65 300.61 91.31 299.27 92.57 296 93.91 290.47 95.33 287.2 97.76 285.69 98.94 281.41 100.23 280.07 105.23 279.84 106.66 279.28 107.28 277.51 104.06 272.82 99.96 264.93 101.11 261.19 103.1 260.69 105.72 261.46 106.9 263.31 110.33 264.48 112.6 263.47 114.02 262.05 114.19 258.95 115.78 255.93 120.25 252.54 125.42 252.32 130.19 253.83 132.88 255.93 133.71 259.11 133.14 262.18 134.87 263.12 136.65 261.06 138.75 259.82 142.69 258.63 144.88 256.22 146.41 256.07 148.72 257.9 149.61 257.75 153.74 250.98 155.94 245.17 156.59 239.08 157.26 237.9 157.35 233.38 160.28 230.7 163.38 225.67 164.72 224.58 170.08 222.4 171.59 220.05 171.59 214.1 172.01 209.99 172.81 208.51 175.78 206.38 177.62 200.52 179.22 198.59 182.49 196.91 187.51 195.32 189.69 195.07 192.04 193.89 197.74 193.05 200.59 191.21 201.26 189.53 202.09 182.99 202.5 181.95 206.37 177.04 207.54 174.11 207.63 167.99 208.88 164.3 210.73 160.95 219.27 152.14 220.54 151.24 224.8 151.05 226.73 150.3 231.51 145.27 233.77 142.34 234.49 140.66 236.7 138.14 237.63 136.38 239.05 130.35 239.89 129.09 242.74 128.5 244.58 127.33 249.78 120.62 250.11 115.01 252.12 113.25 255.56 113.25 258.07 114.34 260.56 113.89 262.1 111.28 261.68 106.58 260.23 104.08 254.05 100.08 248.02 99.5 246.92 99.66 239.56 98.28 238.59 96.8 237.04 86.92 236.96 82.69 235.78 80.55 233.92 80.28 231 81.48 230.61 78.69 231.84 69.23 233.85 61.52 233.94 58.59 233.35 56.07 231.01 53.14 229.08 49.53 228.24 45.26 228.83 42.24 229.83 39.81 229.66 37.54 228.12 33.22 230.45 35.77 233.86 34.81 235.39 33.67 238 34.07 242.09 35.71 243.9 35.26 248.44 36.22 250.66 35.2 251.22 31.63 251.96 29.87 255.82 24.81 258.77 24.08 260.02 23.05 263.88 22.66 266.94 23.28 268.59 21.69 269.78 17.26 273.69 13.92 276.02 9.26 277.89 8.13 280.16 5.74 284.98 3.7 289.07 5.23 294.97 4.38 296.53 5.98 417.85 4.33 505.74 3.13 569.37 2.27 662.7 1 661.22 6.32 660.86 8.82 661.83 13.19 663.46 14.99 667.14 17.65 670.68 19.25 672.65 21.5 676.66 23.51 677.72 25.52 677.25 29.29 677.74 30.61 675.27 33.84 675.12 37.32 673.21 38.33 673.33 40.36 670.43 43.87 668.61 44.35 667.83 46.02 668.76 47.11 666.82 49.13 665.67 52.56 663.98 54.48 662.46 53.61 659.58 53.8 658.37 55.47 656.91 55.86 653.48 53.89 652.11 52.5 649.74 52.49 646.05 54.08 647.11 57.86 641.84 60.33 639.88 63.42 637.84 64.05 636.43 67.86 632.64 69.99 634.31 72.5 630.72 74.16 626.22 73.25 624.76 75.22 624.95 76.76 628.61 78.55 628.48 80.86 625.68 82.81 621.92 84.05 622.33 88 620.47 89.46 619.56 94.05 620.23 95.39 618.86 96.53 616.41 97.43 612.09 99.79 609.77 100.48 607.79 101.82 606.85 104.4 604.9 105.15 603.71 106.76 603.09 109.37 601.99 111.26 603.79 115 602.87 118.69 598.46 121.38 601.58 126.83 602.7 127.35 606.9 132.82 610.67 133.58 613.29 133.18 616.48 133.62 621.19 136.84 625.53 138.81 625.13 141.04 622.14 144.93 622.84 148.36 626.07 151.68 626.95 156.33 631.29 160.57 635.23 160.87 637.68 161.44 639.99 162.66 642.91 162.8 643.85 164.44 644.09 168.01 643.11 169.58 639.34 171.62 639.45 173.14 640.9 175.13 644.95 179.32 648.99 182.27 652.62 183.74 653.88 182.12 656.14 181.3 660.85 181.26 665.76 183.32 667.26 183.48 670.77 185.34 671.78 186.74 673.98 188.13 675.39 190.19 675.75 191.99 677.6 196.17 678.45 201.31 679.92 203.82 679.06 206.2 675.57 210.08 675.43 213.75 676.42 217.38 680.56 217.66 681.65 219 682.64 222.36 685.26 223.48 689.8 224.62 691.98 225.71 692.73 226.81 691.07 231.45 689.81 233.28 690.23 234.42 692.81 234.34 695.33 231.1 696.89 230.01 699.02 230.14 700.33 232.08 700.61 234.94 702.59 235.39 705.44 234.17 712.06 234.31 714.82 234.01 718.55 232.36 724.54 228.05 725.92 228.21 726.66 231.26 728.23 233.33 729.82 231.69 731.47 232.26 732.71 230.94 734.74 230.38 737.06 231.51 739.74 230.55 742.12 234.1 743.54 232.36 746.05 232.38 748.5 234.67 752.7 235.48 756.62 236.61 764.07 237.35 767.15 236.44 767.56 235.14 769.94 232.99 771.79 233.24 773.15 235.67 770.48 237.43 770.92 239.44 770.21 242.36 771.44 242.9 769.05 245.47 769.21 247.38 765.4 245.93 764.29 247.69 766.18 248.66 765.34 251.23 767.44 254.07 766.34 257.02 767.64 258.96 769.19 258.28 771.54 254.84 774.22 255.33 774.92 256.8 772.58 258.3 771.55 260.52 773.42 262.9 773.75 266.04 775.17 269.29 775.92 273.89 779.13 273.04 782.29 273.27 781.28 275.48 781.4 277.36 783.33 278.92 785.68 279.33 785.62 276.23 789.17 274.5 790.61 276.29 790.33 279.31 793.24 281.99 796.42 280.81 797.86 279.32 799 280.07 797.34 282.21 792.7 285.82 790.32 288.71 787.15 291.5 784.71 292.64 779.29 294.46 774.33 295.56 772.09 296.65 764.36 304.27 763.03 304.99 758.43 305.77 755.66 304.77 754.95 303.71 750.3 300.48 749.06 298.63 745.4 298.65 742.91 297.92 741.13 295.72 740.08 295.67 737.56 297.82 733.03 300.05 730.47 300.97 729.08 305.83 729 309.09 729.52 311.47 729.17 317.44 727.7 319.85 725.88 319.89 724.35 318.71 723.42 316.8 722.01 315.87 716.57 314.28 715.1 312.16 714.69 310.45 715.17 308.19 714.85 306.17 713.44 303.26 712.59 302.78 709.09 303.55 707.88 306.49 708.03 308.72 707.07 311.43 708.01 313.44 710.99 315.62 711.83 318.61 710.75 323.55 708.7 326.39 706.92 327.85 704.4 328.99 702.65 328.96 699.12 326.82 695.53 322.55 693.35 321 683.53 317.78 681.54 316.34 678.86 312.06 675.16 304.46 674.22 303.69 670.15 303.79 666.8 304.45 665.23 303.01 665.06 298.52 660.88 293.77 659.2 292.86 652.5 292.33 647.15 293.87 644.74 293.52 642.66 293.94 638.79 296.14 636.76 298.99 633.51 301.87 629.6 304.17 622.88 310.09 619.98 310.95 617.91 310.36 611.12 307.33 606.18 305.51 603.78 305.24 601.09 307.49 599.77 312.57 598.32 315.03 597.91 317.69 595.82 318.3 588.09 317.6 585.31 315.7 582.62 314.87 579.17 317.44 578.07 320.18 578.28 322.37 581.2 325.35 584.15 325.12 585.61 325.61 588.76 330.96 591.71 334.47 593.44 339.98 596.31 343.1 597.12 345.75 595.37 347.43 595.61 350.16 599.24 354.74 599.21 356.17 600.56 360.31 600.49 361.81 599.34 364.11 597.59 369.86 599.77 372.51 599.59 373.59 597.41 375.92 597.56 381.4 596.5 384.18 594.59 386.23 593.05 389.06 591.88 394.07 589.28 397.57 589.01 398.84 591.11 402.41 594.13 405.57 596.33 406.39 598.52 408.58 599.55 411.29 599.19 414.23 597.97 415.82 604.65 424.36 606.47 428.34 606.32 431.4 605.07 433.54 604.59 438.76 606.33 440.25 608.69 440.07 609.36 441.27 608.99 445.91 609.16 448.72 610.92 452.94 606.9 457.95 603.22 459.37 601.44 460.78 594.49 467.25 591.34 469.48 588.64 470.45 585.98 472.59 580.57 474.18 578.85 476.44 577.57 479.48 575.07 481.23 570.43 483.56 567.43 484.15 564.88 486.03 558.33 488.41 557.05 490.74 557.05 492.86 558.23 493.75 560.42 492.93 564.51 492.75 565.42 493.86 564.72 495.48 565.65 499.27 564.37 500.49 563.98 502.09 562.09 505.28 560.19 509.89 559.78 511.76 557.66 512.94 556.61 515.22 558.06 516.47 556.34 518.37 549.74 523.02 547.35 523.91 547.36 526.03 546.54 529.47 545.11 530.82 544.59 532.6 539.57 536.35 537.13 540.94 534.42 542.64 533.06 545.89 530.82 547.22 530.4 548.3 530.66 551.42 530.61 559.55 529.87 563.95 530.19 567.85 529.62 574.81 531.25 577.13 535.1 578.82 535.03 581.09 532.58 582.65 531.44 584.19 531.39 586.13 530.43 588.71 530.55 590.08 531.99 592.36 534.02 597.39 535.82 599.07 538.69 600.81 540.85 601.47 541.93 603.27 541.27 606.02 538.99 609.68 541.57 611.78 545.1 610.64 547.08 610.64 550.43 609.68 552.11 610.46 549.72 616.57 547.38 618.37 545.28 619.09 538.22 622.86 537.14 623.7 536.66 625.86 537.62 627.89 540.49 628.85 543.55 628.43 545.04 629.21 545.1 632.81 546.48 636.22 548.7 637.9 550.02 640.36 549.3 642.4 549.27 647.11 550.49 650.19 549.72 652.94 544.74 653.3 536.84 654.2 533.36 656.18 531.71 657.72 531.31 659.89 Z"/>
</g>
</svg>