<?xml version="1.0"?>
<svg xmlns="http://www.w3.org/2000/svg" version="1.2" baseProfile="tiny" width="800" height="598" viewBox="0 0 800 598" stroke-linecap="round" stroke-linejoin="round">
<g id="4200556">
<path d="M 680.37 199.14 683.79 206.01 687.35 209.11 690.38 214.87 685.57 221.77 679.51 235.1 673.22 253.91 674.46 258.2 677.23 262.26 678.93 263.06 681.84 267.6 683.03 273.24 685.51 274.53 687.14 278.11 687.48 281.64 690.05 286.07 694.28 289.01 697.92 297.01 697.84 299.34 699.98 302.76 699 306.6 701.14 310.91 703.05 312.08 710.92 323.63 716.56 326.64 724.42 335.05 726.98 331.76 736.75 330.69 740.01 328.68 742.71 329.14 752.73 328.48 754.73 330.25 760.99 332.93 762.84 337.12 766.92 341.17 770.34 343.41 774.96 344.85 785.62 346.3 791.81 346.06 765.72 369.66 773.01 377.42 777.29 379.82 778.39 382.76 778.46 392.91 780.93 398.79 784.02 403.02 785.67 407.39 786.02 413.07 787.74 418.42 793.08 422.45 799 423.17 797.75 430.71 793.67 444.84 777.79 456.65 771.92 458.97 761.28 461.71 750.92 463.17 742.02 463.05 734.07 461.48 726.78 459.22 718.35 454.63 709.23 446.78 698.93 436.34 683.85 419.59 678.4 414.19 671.66 410.1 655.67 402.41 644.38 398.36 636.79 397.03 623.94 396.44 619.07 397.55 613.16 400.07 606.33 409.63 597.84 418.93 596.43 425.38 597.93 431.19 607.24 441.69 610.7 446.91 615.54 451.83 622.46 456.47 628.93 461.91 638.31 467.18 641.51 469.66 646.03 474.67 653.39 486.4 656.6 490.07 661.2 493.06 666.25 495.34 671.18 496.68 681.07 497.63 690.86 496.59 702.94 494.18 709.99 493.57 721.86 493.26 727.85 491.9 738.64 488.7 744.81 488.95 752.43 491.65 763.44 496.22 770.85 499.82 775.35 503.46 785.72 513.27 788.39 516.97 791.02 523.53 792.25 532.18 792.04 539.6 790.41 543.95 786.83 545.94 779.98 548.46 764.72 550.76 745.65 551.05 735.55 552.93 725.61 560.21 721.88 563.56 705.28 588.64 700.72 593.32 697.01 595.43 691.24 597 686.07 596.93 676.44 595.37 669.35 593.22 664.68 591.11 651.34 584.15 649.15 580.39 647.83 574.18 644.87 571.61 637.14 567.1 622.71 557.28 617.37 554.84 609.7 552.26 601.58 550.73 582.05 550.38 570.46 548.9 560.1 544.94 557.09 542.42 554.72 537.15 554.99 532.21 557.43 526.51 563.63 520.5 573.05 516.9 579.77 507.41 580.81 502.01 579.77 496.02 575.44 492.15 569.19 489.95 554.51 487.14 543.16 486.83 523.12 487.42 508.75 487.01 494.93 487.45 485.64 488.85 479.43 490.58 457.54 501.39 452.94 504.06 446.41 510.07 443.06 514.33 441.43 517.75 440.3 524.85 440.37 532.35 442.23 551.3 442.06 561.44 440.94 566.71 435.04 561.1 429.55 556.64 421.42 550.87 412.01 545.04 402.39 539.93 396.96 538.77 391.63 540.55 388.83 543.94 386.86 548.8 387.31 553.94 389.51 558.92 391.45 572.81 393.85 582.5 393.54 585.11 390.16 588.76 386.18 590.04 381.92 590.12 374.14 588.29 368.73 583.65 365.21 581.49 353.33 577.27 346.74 576.69 334.19 578.62 325.05 578.89 313.32 578.63 306.21 579.28 300.75 579.04 291.18 577.06 287.68 575.18 283.03 574.79 274.46 578.08 272.84 580.02 266.72 579.53 261.33 577.02 259.73 575.22 257.77 569.89 259.12 566.11 268.07 559.37 277.14 554.05 281.66 549.82 283.86 543.5 282.88 541.16 265.25 528.91 259.84 526 256.04 519.5 252.35 515.12 247.48 504.95 245.54 491.34 243.59 487.05 240.22 482.11 236.65 479 230.5 476.47 219.32 473.97 203.73 473.17 194.59 473.76 185.76 473.83 169.37 471.63 158.03 467.7 153.49 463.33 153.7 461.1 159.67 455.91 166.4 454.01 180.24 448.04 186.97 445.6 195.02 441.79 198.61 437.13 203.39 427.63 205.05 417.2 206.95 412.87 219.61 408.38 230.41 406.87 235.2 406.91 239.35 408.04 246.35 408.42 253.17 407.5 258.94 404.77 262.95 400.13 262.79 396.01 261.61 394.11 250.43 388.71 242.32 386.9 237.32 386.82 232.79 385.68 221.68 380.19 216.23 375.95 209.33 367.45 205.92 361.2 202.56 349.63 203.36 346.3 202.09 339.43 198.45 330.49 194.76 323.48 188.32 317.31 180.67 312.82 175.59 312.18 168.06 314.07 160.58 319.15 143.05 332.55 138.15 335.38 133.61 339.87 133.11 346.15 139.85 370.13 143.42 383.59 145.31 395.13 143.93 401.22 141.88 403.06 134.89 404.08 127.42 402.27 121.81 398.98 114.23 399.7 107.88 402.36 99.21 404.92 93.21 404.14 88.64 401.93 84.31 397.18 81.72 389.86 82.36 384.81 84.81 379.79 89.77 372.36 98.88 366.3 109.67 358.53 111.78 355.72 114.93 348.29 114.95 344.92 113.24 334.83 106.94 325.36 98.62 315.21 89.02 309.16 85.44 308.68 79.92 310.12 75.49 312.28 69.42 318.54 60.21 333.95 57.16 337.25 51.62 339.76 49 339.66 45.01 337.53 42.01 332.02 39.88 326.01 36.07 318.22 28.48 306.91 23.38 302.24 12.36 295.87 4.88 292.23 5.38 287.81 7.69 285.73 4.36 283.95 3.67 278.85 1.47 274.79 1 268.93 5.3 266.21 6.86 260.26 10.76 257.6 10.28 251.52 16.61 248.18 19.52 248.76 21.94 245.32 26.98 243.01 31.12 242.26 28.62 237.05 33.35 232.79 38.33 233.77 42.77 231.89 46.5 232.55 55.69 229.21 59.66 227.12 67.43 226.29 70.97 219.74 73.31 212.02 73.27 196.45 74.71 191.27 79.03 181.79 80.66 179.92 86.82 175.74 93.25 175.24 104.22 177.51 107.26 177.02 111.89 174.31 114.41 170.65 125.92 161.6 135.1 153.39 142.36 152.35 145.86 151.06 147.93 145.05 150.33 135.15 154.37 121.42 153.88 115.3 152.31 105.63 152.49 103.3 157.98 97.62 163.46 89.11 164.63 85.13 164.95 79.47 163.17 65.4 163.93 62.17 176.7 57.3 188.73 56.31 205.52 54.08 209.61 53.06 213 50.16 216.88 48.67 220.73 45.46 222.77 39.85 222.72 31.48 225.94 23.92 231.87 16.93 238.97 10.87 247.61 4.14 252.42 2.14 258.97 1 274.62 4.49 283.35 4.73 292.07 11.36 300.11 18.65 313.58 25.44 321.08 31.86 324.39 37.63 326.4 46.9 330.84 58.6 336.08 62.38 339.48 66.4 343.53 67.73 361.99 66.6 376.42 67.89 384.3 72 391.13 76.6 396.98 79.7 399.62 82.36 400.76 86.47 399.99 95.22 401.06 113.74 403.75 119.29 407.43 125.18 411.56 128.79 417 135.8 428.03 151.26 432.15 158.79 440.82 159.39 447.31 158.52 453.22 158.52 457.23 159.33 460.2 161.3 461.21 169.22 462.27 171.23 468.31 176.93 477.22 186.87 492.19 196.81 494.69 196.92 501.04 200.41 503.26 207.8 506 214.25 508.76 224.84 507.11 228.02 680.37 199.14 Z"/>
</g>
</svg>