<?xml version="1.0"?>
<svg xmlns="http://www.w3.org/2000/svg" version="1.2" baseProfile="tiny" width="800" height="504" viewBox="0 0 800 504" stroke-linecap="round" stroke-linejoin="round">
<g id="4200051">
<path d="M 709.89 160.36 709.59 163.06 710.56 168.07 711.74 170.44 713.72 172.46 715.47 173.34 720.15 174.7 726.6 176.16 730.71 177.4 735.08 179.3 742.03 182.97 750.08 186.45 755.16 187.4 763.31 189.73 766.39 190.2 771.24 192.02 778.35 196.15 780.82 197.36 786.76 203.98 789.5 207.74 792.05 212.89 796.63 220.47 798.65 225.26 799 227.71 798.54 230.91 797.12 233.2 795.71 234.45 791.71 235.35 788.85 236.99 785.41 233.58 780.82 230.72 774.7 222.52 772.45 219.77 768.93 216.29 763.68 212.82 758.55 210.46 751.49 208.15 745.92 206.78 738.37 205.4 732.39 204.61 727.02 204.15 723.4 204.18 707.61 205.18 706.57 205.04 695.32 206.02 689.27 207.08 684.98 208.83 681.42 212.16 679.43 215.39 677.46 219.47 675.75 224.49 675.53 227.33 676.12 229.88 678.06 233.23 683.37 239.31 692.81 248.56 698.53 252.57 700.97 253.67 711.33 257.21 714.57 258.72 716.86 260.27 720.17 263.62 722.44 266.72 724.25 269.82 725.6 272.83 727.33 278.68 728 282.42 727.79 287.16 726.69 291.4 725.85 292.95 723.44 295.1 721.65 295.85 718.84 296.29 714.89 295.81 708.24 294.45 704.48 294.33 699.58 294.84 696.2 295.71 692.84 297.12 686.18 300.46 683.09 301.8 679.77 302.82 657.44 308 646.39 310.81 631.04 315.2 624.94 317.23 619.11 320.14 612.59 325.02 609.15 328.22 606.65 331.32 604.39 336.35 603.77 339.55 604.05 343.5 606.36 350.55 609.64 358.31 611.11 361.04 613.76 364.35 615.88 366.25 625.48 373.15 630.64 377.83 632.45 379.09 636.31 380.89 643.16 383.6 648.25 386.46 653.88 390.47 661.18 394.6 666.68 396.47 668.99 397.64 676.15 402.84 679.76 405.04 683.24 408.07 686.08 412.59 687.71 414.65 696.99 423.4 702.71 429 706.9 432.82 709.89 436.03 712.37 439.37 713.75 441.79 713.71 444.02 711.3 448.61 707.29 457 704.4 462.34 702.25 465.34 700.18 467.65 696.56 470.22 692.21 472.08 688.94 474.02 676.55 483.67 674 485.28 669.33 487.46 665.31 489 660.2 490.47 654.99 490.86 651.15 490.37 638.54 486.21 634.82 485.13 631.39 484.63 624.2 484.52 617.11 485.08 611.27 484.71 608.89 485.19 604.47 487.02 600.16 489.39 592.12 493.19 588.04 496.03 584.83 500.37 582.09 501.77 577.22 503 573.67 502.24 571.84 501.04 570.2 499.17 569.36 497.24 569 494.37 569.09 488.54 569.41 485.97 570.46 481.56 571.42 478.68 573.28 474.61 574.67 472.42 584.83 462.23 587.68 459.67 596.69 452.33 600.19 449.2 603.23 445.66 605.22 442.01 605.97 439.98 606.36 436.97 605.67 434.91 602.42 430.81 598.66 427.57 594.78 424.96 589.85 423.42 584.83 422.89 569.12 422.94 567.58 423.05 557.5 424.62 553.03 425.16 550.21 425.12 542.75 424.09 539.16 423.76 532.44 423.58 527.07 424.48 519.61 428.55 512.79 431.54 506.31 433.87 502.03 435.1 498.2 435.62 494.63 435.55 489.25 434.88 475.82 432.48 464.07 431.31 447.87 429.02 442.01 427.97 436.02 426.64 430.18 426.3 426.7 426.71 425.15 427.55 423.41 430.32 422.37 433.61 422.48 437.58 423.91 441.66 426.68 445 431.51 447.98 437.05 450.46 442.5 452.6 445.23 454.04 447.68 456.26 448.5 460.19 448.12 462.65 447.12 465.03 445.63 466.4 443.6 467.07 439.45 467.73 432.49 467.45 429.88 467.15 424.84 466.03 417.63 463.53 411.53 460.34 404.56 456.29 398.82 453.14 387.47 447.33 378.51 445.68 374.21 445.3 368.68 445.54 363.72 447.52 359.19 449.92 355.62 452.34 351.41 456.4 341.07 465.1 336.27 469.45 330.83 473.48 326.75 475.06 322.13 475.95 317.03 475.74 312.57 474.67 310.25 473.4 309.11 472.17 307.76 469.33 307.39 467.47 307.43 462.77 308.3 457.37 309.65 451.49 311.26 446.19 313.15 441.14 315.39 436.58 318.1 432.45 323.42 426 326.01 422.37 327.25 419.6 327.63 417.71 327.73 409.38 326.69 402.13 324.66 397.19 321.91 394.26 317.9 392.17 315.72 391.7 310.26 391.91 306.45 392.5 302.36 393.5 299.4 394.55 295.87 396.36 287.14 401.73 281.31 404.43 277.99 405.38 271.05 406.71 265.55 407.03 261.68 406.15 258.36 404.86 254.72 402.9 251.98 401.01 246.88 396.82 243.5 393.44 238.66 387.61 235.69 383.66 232.59 379.09 231.2 377.85 227.12 372.92 224.19 370.5 220.37 368.54 216.81 367.51 213.1 366.81 207 366.21 204.2 366.31 200.2 366.93 192.86 369.03 186.63 372.42 181.12 374.26 177.07 374.61 173.57 374.11 170.19 372.84 166.92 370.97 163.92 368.73 161.38 366.22 159.46 363.49 158 360.53 155.63 354.83 153.39 350.71 151.3 347.85 149.23 345.79 147.07 344.44 144.52 343.54 140.82 343.02 136 343.5 132.71 344.44 126.58 347.32 123.87 349.56 120.95 352.62 115.02 359.48 104.63 371.97 101.53 375.14 97.09 378.27 93.07 379.95 90.23 380.7 82.62 382.28 76.72 382.99 69.96 383.15 62.03 382.38 58.57 381.58 56.68 380.6 52.16 377.46 44.27 373.34 39.46 371.16 31.22 367.89 24.78 365.72 12.38 362.37 9.88 361.03 7.57 358.65 5.36 355.11 2.69 348.51 1.54 343.86 1 339.44 1.36 334.49 2.58 331.03 4.67 327.87 7.62 324.82 11.39 321.69 22.85 313.08 25.78 310.11 27.47 307.59 28.8 304.9 30.33 300.45 30.64 295.95 30.12 292.9 28.74 289.63 26.33 286.58 23.26 284.02 28.88 284.44 32.62 284.16 36.37 282.98 38.14 281.67 39.01 280.22 39.97 275.56 41.52 272.97 44.25 270.89 44.91 269.05 45.03 264.32 46.02 261.56 47.63 258.75 49.98 253.85 51.77 252.38 53.4 251.83 59.79 251.07 63.01 251.63 65.44 253.88 66.71 255.74 68.69 257.12 74.88 258.97 78.38 259.26 79.93 259.99 88.99 257.07 94.56 255.78 99.41 253.34 102.18 250.79 107.41 248.52 110.87 247.91 117.68 244.85 119.14 243.67 120.19 241.82 126.1 239.52 127.91 237.66 132.45 233.72 134.86 230.81 137.45 225.98 137.72 223.92 139.75 220.24 140.2 215.03 140.25 211.59 141.43 208.6 143.78 204.67 145.97 201.55 149.1 194.93 149.23 192.4 151.61 186.9 152.37 182.31 155.36 180.29 160.61 175.75 163.78 173.6 165.19 171.18 164.93 169.5 163.09 166.79 162.88 163.96 163.98 162.63 164.55 160.11 163.4 155.39 162.36 153.66 160.14 151.79 158.39 148.48 157.37 145.69 158.91 141.68 162.91 136.58 163.56 134.8 164.66 127.28 165.73 123.3 167.14 121.71 176.12 116.82 179.04 115.48 180.19 113.4 181.6 112.04 185.34 110.75 192.47 109.5 193.07 108.04 192.54 102.41 192.52 97.54 192.02 94.74 192.15 92.39 192.8 91.48 198.5 88.9 200.02 86.03 203.67 77.29 205.58 76.07 208.49 76.08 210.85 76.8 214.3 80.21 217.32 80.33 218.91 78.43 219.78 75.66 222.52 73.81 227.48 73.03 235.61 72.66 242.31 71.75 247.07 71.49 251.67 71.88 253.02 72.8 254.09 74.67 257.1 76.39 261.85 76.13 265.27 75.27 270.47 74.8 272.32 74.36 278.48 71.96 282.95 70.63 285.62 69.35 287.14 67.18 287.21 63.3 288.55 61.92 289.9 61.71 292.81 62.19 295.94 61.41 300.35 57.84 304.45 57.32 305.11 54.95 308.82 53.54 309.71 52.57 310.06 50.72 308.72 46.78 307.28 44.26 309.33 42.47 309.89 40.46 310.47 35.57 312.58 31.9 314.62 30.55 319.08 26.07 320.37 23.77 320.11 21.06 320.97 14.33 322.27 11.91 324.1 10.94 330.19 11.99 332.31 12.85 338.16 14.2 342.07 13.99 345.88 15.69 348.23 17.67 354.29 20.96 356.34 22.83 355.63 25.85 356.94 26.9 359.07 27.12 362.11 28.39 363.78 28.31 365.91 24.57 372.21 20.73 374.57 20.64 376.91 21.23 380.81 21.28 384.35 20.77 385.54 20.12 388.78 17.23 391.51 15.93 393.71 16.88 396.8 20.77 400.45 22.6 402.69 22.57 406.28 20.97 409.1 17.83 411.19 16.78 413.28 16.68 415.91 17.17 418.21 16.86 420.35 15.32 421.64 13.35 423.86 11.19 426.96 10.38 430.72 11.28 432.89 10.63 435.26 8.8 440.37 7.47 444.08 7.05 446.92 6.16 451.12 1.73 453.86 1 457.73 3.18 460.97 4.29 462.7 5.64 463.04 7.99 462 11.68 463.33 14.08 469.08 17.6 472.13 20.28 474.43 23 477.85 29.56 479.29 30.7 483.81 31.15 487.1 32.11 489 34.01 489.74 36.81 490.26 42.39 491.22 45.89 495.68 52.51 495.94 56.06 497.49 58.99 499.48 60.41 502.96 64.89 504.4 66.06 508.78 64.76 514.5 66.7 516.61 68.51 518.41 70.81 518.79 73.79 521.12 77.07 523.29 78.88 525.67 81.69 527.88 85.66 531.02 84.26 539.34 84.12 541.24 84.45 544.46 87.22 548.83 89.25 551.32 88.74 553.94 87.06 557.57 86.8 561.09 85.25 566.6 84.77 569.64 86.63 572.45 87.24 576.04 86.95 578.72 85.43 586.2 86.03 588.2 87.26 591.14 88.18 591.67 89.41 594.14 90.64 595.08 92.05 601.79 93.45 604.65 93.4 609.73 93.84 611.94 93.66 615.27 94.13 617.27 94.94 620.12 93.52 620.94 91.79 622.54 90.66 624.6 88.29 627.74 85.49 630.27 83.85 633.35 85.03 638.19 86.25 639.47 87.85 638.39 89.92 640.49 90.92 643.56 91.23 644.95 92.07 649.02 92.83 650.69 91.94 654.6 92.89 657.33 94.95 658.85 96.7 660.45 97.5 667.75 98.39 669.22 99.08 670.83 101.32 671.85 101 674.52 98.63 677.73 96.56 679.4 94.74 681.13 95.9 682.8 98.49 686.59 102.73 687.09 104.17 688.72 105.45 691.72 107.03 692.21 109.31 693.15 111 696.12 112.92 696.88 114.08 695.53 115.69 692.56 116.65 690.57 116.86 689.59 118.02 690.63 120.92 693.17 123.12 693.8 124.79 692.2 127.23 688.86 133.89 683.51 139.78 683.26 141.46 687.37 142.65 691.4 145.09 694.41 145.37 697.62 144.16 700.04 144.79 700.21 145.99 699.02 147.97 699.04 149.74 699.99 151.76 702.71 155.02 705.04 157.19 709.89 160.36 Z"/>
</g>
</svg>