<?xml version="1.0"?>
<svg xmlns="http://www.w3.org/2000/svg" version="1.2" baseProfile="tiny" width="800" height="1018" viewBox="0 0 800 1018" stroke-linecap="round" stroke-linejoin="round">
<g id="4200309">
<path d="M 652.44 309.85 650.37 312.84 643.28 319.68 637.8 330.74 632.48 334.62 624.07 338.64 621.35 343.77 620.24 350.99 616.53 354.61 610.12 359.39 605.65 365.47 603.2 374.46 601.38 383.41 599.66 388.67 595.9 392.25 587.92 395.16 586.08 396.6 589.29 400.81 597.06 408.52 606.91 414.42 607.88 416.87 615.11 422.79 612.22 427.23 614.63 433.02 619.41 439.56 611.07 449.43 610.36 453.07 610.98 459.4 602.29 466.1 600.36 474.45 597.11 479.56 606.31 479.56 607.41 487.31 612.43 488.26 619.43 486.9 624.84 489.99 631.12 490.45 633.67 482.41 638.42 479.81 640.71 481.59 645.28 480.89 655.62 481.25 659.55 482.79 662.74 486.87 665.11 492.19 669.47 497.19 673.61 498.82 675.84 505.87 680.76 511.03 687.02 520 692.8 525.36 694.06 546.97 702.89 556.01 709.02 566.38 707.06 570.25 700.72 574.61 687.55 581.77 683.03 582.04 678.84 587.11 676.94 596 677.76 603.11 681.06 605.82 692.1 612.74 697.38 614.14 700.42 612.37 707.02 615.36 712.64 622.85 713.84 623.4 718.84 615.98 724.38 615.25 736.02 619.41 741.55 626.69 745.91 629.97 746.99 634.23 744.42 639.55 746.68 647.68 745.34 653.84 741.34 659.43 744.32 664.61 745.76 675.81 750.27 684.81 754.61 689.58 753.5 704.26 752.42 707.8 753.22 710.62 752.91 720.63 752.09 723.69 754.54 727.27 755.14 734.67 754.5 740.9 752.86 745.47 747.94 751.01 743.57 754.54 742.93 758.17 744.16 761.09 749.17 765.25 753.81 771.4 764.14 780.28 769.93 790.82 771.09 794.53 770.71 806.24 767.72 814.72 769.77 818.35 771.57 825.55 773.93 831.07 777.22 834.32 783.67 837.17 789.29 845.71 789.5 848.3 792.33 849.86 795.32 854.09 795.21 855.98 791.01 858.33 790.88 866.13 792.12 868.86 790.28 873.83 795.56 881.79 794.22 883.83 794.39 887.93 798.72 893.31 799 895.33 796.9 902.78 798.79 908.75 797.34 914.53 797.89 916.63 794.4 924.34 794.22 932.04 795.4 939.13 798.76 948.02 798.98 951.36 796.23 956.49 795.15 967.16 793.2 973.66 781.14 976.7 770.3 977.37 753.99 979.94 746.3 979.5 737.24 976.7 731.77 973.73 728.06 974.07 720.04 976.54 703.45 974.1 693.85 973.53 690.88 974.28 686.53 977.81 682.32 978.38 669.88 976.69 660.84 976.44 658.15 977.78 651.75 983.93 641.22 987.4 634.64 988.35 626.82 986.81 618.01 983.14 603.97 982.68 597.96 984.02 591.64 981.7 591.49 974.15 588.85 969.75 580.52 966.67 574.17 966.54 567.16 967.01 552.01 956.65 546.44 954.48 537.81 953.43 531.51 950.2 528.4 946.12 529.42 940.83 528.65 938.03 524.57 933.52 518.2 932.77 513.77 934.31 510.09 939.61 509.06 944.13 508.6 953.18 506.23 957.54 495.99 963.1 489.19 963.55 484.22 968.73 480.79 976.76 477.99 979.31 465.84 984.51 450.36 988.36 443.42 987.6 442.03 983.5 439.51 980.71 434.43 977.64 432.21 970.9 428.54 967.31 423.48 967.59 420.16 970.34 411.98 970.41 407.09 967.78 404.68 962.96 399.35 958.87 390.67 957.2 381.61 956.39 371.59 952.99 368.07 952.76 355.94 955 348.1 954.78 332.24 956.63 327.8 960.28 323.99 971.64 319.29 975.34 311.86 977.38 306.98 979.64 296.92 986.11 283.58 988.53 276.92 994.51 270.89 1001.12 265.35 1005.42 262.68 1009.99 258.59 1012.47 250.97 1015.68 245.67 1017 237.79 1012.25 229.71 1009.41 218.81 1003.55 212.05 1004.7 203.84 1004.37 197.77 1001.48 194.92 998.46 195.69 989.21 188.84 983.62 186.77 980.35 183.86 960.27 179.55 954.03 169.89 951.51 166.1 947.61 164.52 940.95 162.65 926.11 163.25 922.11 165.88 915.94 165.69 913.56 161.46 911.59 154.16 911.66 143.21 907.43 142.26 906.04 142.13 897.04 140.36 890.44 133.64 890.19 128.53 889.12 109.29 879.54 96.74 877.52 92.54 874.79 86.74 865.04 90.78 861.16 95.34 852.01 97.26 841.29 100.27 834.9 104.94 828.34 111.53 807.74 117.86 799.21 118.22 796.78 111.8 791.93 110.24 787.75 110.56 782.89 112.49 776.97 112.04 772.92 107.55 768.99 103.38 762.24 100.25 755.38 96.3 744.11 92.16 737.27 91.91 732.88 94.86 728.75 97.53 721.88 97.7 714.62 99.17 699.49 102.46 691.61 105.85 688.61 108.79 683.8 108.91 680 104.84 668.77 103.6 663.08 100.4 659.74 92.13 659.24 87.89 657.35 81.06 658.9 76.73 658.15 73.75 659.31 67.56 652.79 63.21 651.26 63.55 646.11 57.52 643.12 59.9 636.46 60.48 631.53 59.79 626.24 63.88 624.64 62.94 621.72 64.06 617.13 66.76 615.78 66.6 609.53 68.19 607.92 71.34 600.57 73.65 598.04 76.53 592.36 80.14 587.48 85.17 585.49 88.45 582.03 89.74 578.44 92.96 576.51 96.46 571.2 102.6 564.9 102.25 560.58 107.72 557.47 116.31 557.14 118.58 553.92 118.1 544.85 122.35 541.94 119.18 536.03 120.46 532.34 120.09 527.23 123.13 514.71 127.73 511.69 130.04 507.37 130.14 499.34 132.59 494.43 134.19 488.64 132.54 484.39 133.94 472.86 135.68 467.97 137.68 466.32 140.39 459.8 143.48 448.18 144.03 442.63 142.88 437.04 142.83 431.25 139.48 427.65 139.06 421.89 140.36 412.11 143.11 406.36 140.33 397.33 137.78 394.83 136.38 391.02 137.56 388.19 136.33 385.46 136.03 379.81 133.83 365.99 130.58 357.73 128.73 346.6 123.85 346.65 123.52 342.43 132.81 337.35 134.08 333.15 142.53 327.25 141.88 322.83 145.56 317.66 147.9 309.51 148.06 306.38 145.24 303.02 139.18 300.33 133.25 293.41 132.76 290.32 128.55 289.07 120.03 290.61 117.68 289.29 117.01 285.57 118.96 282.94 124.22 282.59 130.46 278.48 133.63 274.21 133.96 269.05 129.75 262.87 125.23 258.47 125.4 254.06 130.95 250.39 148.08 243.48 151.67 237.4 153.53 232.22 158.14 232.26 160.47 236.66 162.14 244.2 164.12 249.14 167.19 252.87 171.46 253.63 177.48 252.41 179.35 248.65 177.53 242.29 182.8 233.51 182.17 229.51 177.73 229.81 175.74 227.29 176.15 224.01 165.35 212.59 165.96 211.12 158.63 204.83 157.05 201.74 156.7 193.92 158.31 189.93 158.77 184.04 154.03 182.32 151.1 174.58 150.94 169.43 148.35 166.88 143.3 165.86 140.15 164.02 131 161 119.57 162.51 112.7 161.65 107.76 162.83 98.91 162.13 93.72 163.33 88 161.96 82.43 158.73 75.41 157.86 65.31 155.18 59.21 152.63 51.21 152.14 45.97 145.71 38.52 141.11 34.02 135.04 26.42 129.88 19.06 126.97 8.02 123.58 2.66 117.7 1.33 113.16 1 106.88 5.26 95.66 3.36 86.08 3.98 81.89 3.87 70.33 8.7 62.9 7.63 57.98 8.77 54.28 13.72 50.49 18.14 46.57 26.18 44.46 31.88 45.39 37.82 42.41 43.1 25.94 49.38 18.84 56.24 19.09 60.72 21.64 71.32 22.68 75.87 24.37 80.25 24.21 87.86 21.2 94.81 21.59 101.15 18.71 112.29 18.57 116.66 16.23 122.38 5.04 125.04 3.4 129.63 3.49 138.39 1.33 145.06 2.52 158.01 2.65 171.51 5.43 175.25 7.46 179.27 14.88 173.25 25.84 173.08 31.52 177.52 34.96 182.04 34.6 187.17 35.7 192.25 38.82 196.07 43.39 200.53 46.41 210.15 49.69 217.98 59.27 224.74 68.88 230.04 73.12 235.44 73.4 241.11 75.11 242.18 77.2 241.8 82.15 244.45 87.55 249.37 89.06 254.64 92.94 259.57 95.35 267.5 97.89 269.08 100.27 268.27 104.75 271.55 110.47 280.99 119.22 285.55 121.68 291.8 119.31 295.09 119.52 299.89 121.61 302.55 119.87 309.8 117.45 314.35 117.59 317.82 116.13 326.82 110.06 332.76 105 337.08 100.35 341.12 99.75 345 97.54 350.05 92.07 362.85 83.97 370.06 80.73 377.01 79.49 387.89 76.09 394.37 75.35 401.13 72.85 407.61 67.94 412.72 63.02 419.12 60.55 422.58 58.31 434.39 56.33 438.17 54.61 443.28 49.58 451.21 48.44 455.93 46.23 459.43 42.74 465.75 38.6 479.27 34.27 488.66 34.49 499.58 36.39 512.85 33.45 522.69 29.45 528.52 26.12 535.82 19.51 546.2 13.16 563.47 11.63 568.28 5.84 573.27 2.78 579.72 1 587.37 1.56 591.71 3.25 588.81 3.42 578.69 7.09 572.27 12.49 569.09 17.42 558.78 21.78 553.58 25.15 547.54 31.47 541.42 35.2 537.09 39.17 534.84 46.14 536.5 49.11 539.18 49.87 546.36 49.76 549 51.25 551.84 68.69 555.01 79.95 555.26 100.85 554.55 109.04 555.34 150.82 555.72 157.83 556.82 162.39 562.55 175.22 564.83 182.73 570.57 191.09 572.01 199.95 571.75 202.82 567.7 209.74 564.58 216.41 559.43 222.91 555.63 233.12 548.38 243.67 547.79 248.31 551.67 254.31 560.44 258.19 564.07 259.03 566.44 265.79 570.23 273.13 570.91 275.91 569.39 284.86 571.84 289.33 576.56 294.06 580.28 301.32 589.9 302 613.1 299.8 617.91 299.89 632.51 297.35 637.41 297.35 643.06 298.87 647.45 301.32 651.08 305.2 652.44 309.85 Z"/>
</g>
</svg>