<?xml version="1.0"?>
<svg xmlns="http://www.w3.org/2000/svg" version="1.2" baseProfile="tiny" width="800" height="533" viewBox="0 0 800 533" stroke-linecap="round" stroke-linejoin="round">
<g id="4200101">
<path d="M 791.78 217.13 792.01 219.1 791.54 219.9 791.19 221.49 791.74 223.86 791.22 224.16 790.62 225.33 790.44 226.64 792.44 227.53 794.67 227.22 795.1 227.6 797.1 228.16 798.28 228.23 799 229.05 797.7 229.7 795.7 229.96 793.97 230.74 792.36 232.35 792.62 233.25 792.54 235.01 792.16 235.84 792.97 237.98 793.18 240.58 792.45 241.2 792.61 241.82 793.4 242.27 792.74 243.04 793.19 243.89 792.96 244.98 794.02 245.67 794.86 246.75 795.14 247.75 794.59 248.11 794.3 249.17 793.52 250.2 793.59 251.16 794.82 252.01 794.69 253.59 795.82 254.87 794.84 256.5 794.91 258.01 793.56 260.53 793.94 261.54 795.32 263.02 794.99 263.69 795.13 264.75 794.12 265.85 794.01 266.47 794.76 268.75 794.72 269.51 795.8 271.93 795.79 274.16 795.55 277.21 794.97 277.73 792.98 278.87 791.55 280.47 790.31 281.21 789.11 282.93 789.25 284.19 787.12 285.41 785.82 287.15 784.68 287.92 782.61 287.93 781.71 288.72 782.11 289.94 784.02 291.49 785.04 292.88 786.66 293.33 788.12 293.39 788.81 293.94 790.64 294.52 791.09 295.02 790.18 296.03 790.91 296.57 792.66 296.88 794.5 296.99 793.43 298.87 793.21 300.21 791.84 300.46 790 301.38 789.64 302.12 787.06 302.61 785.05 303.43 783.13 303.39 781.95 303.95 780.43 303.54 776.98 303.84 776.65 304.51 777.84 305.75 777.12 307.34 775.7 307.67 775.22 309.13 774.01 309.32 771.93 307.81 770.15 308.01 768.86 309.03 769.42 310.04 768.75 310.39 768.45 311.66 767.74 312.31 767.71 314.02 766.21 316.15 766.21 317.16 765.47 318.03 765.09 319.4 762.59 321.67 762.69 322.84 760.83 324.9 760.9 325.32 763.51 328.07 763.63 328.64 763.1 330.1 762.85 333.2 762.49 334.64 761.74 335.7 760.48 336.8 759.13 337.45 758.37 338.94 757.35 340.05 757.25 341.76 756.47 342.47 755.1 344.98 755.36 345.66 756.91 345.7 756.47 346.87 756.62 347.98 756.37 348.89 755.37 350.15 755.93 353.56 753.78 355.53 752.57 357.71 751.39 358.83 750.07 360.98 748.83 362.21 748.18 364.24 746.98 369.63 745.85 371.37 746.66 373.85 749.14 375.82 749.6 377.21 749.3 378.7 750.38 380.07 749.96 381.27 748.05 381.8 747.91 382.76 748.25 383.84 747.19 385.19 747.14 386.49 746.02 388.7 745.31 389.52 743.98 392.01 743.52 393.29 742.3 394.2 741.8 396.12 741.2 396.99 741.26 398.26 739.89 399.25 739.91 399.73 739.03 400.44 738.7 401.27 737.59 401.91 736.62 402.09 736.07 403.03 737.47 404.45 737.49 405.32 736.45 406.24 735.74 406.06 732.75 407.33 732.63 407.94 733.74 409.07 735.1 409.83 735.07 410.66 732.05 411.45 731.58 411.29 730.37 409.16 729.29 409.07 728.57 409.42 726.67 411.74 725.37 411.99 724.14 411.86 724.17 412.6 723.39 413.2 721.49 412.88 721.13 413.3 721.22 414.8 720.65 416.35 720.79 417.1 721.61 418.35 723.05 419.53 723.72 421.96 724.24 422.15 725.95 421.5 726.26 422.9 725.71 424.1 725.28 426.79 726.2 428.38 726.97 428.89 728.17 430.27 729.74 431.67 730.99 432.28 731.85 432.03 732.84 429.82 733.28 429.66 734.94 430.05 736.29 430.86 737.08 432.2 738.13 433.24 737.68 433.86 735.67 434.01 734.25 434.93 733.61 435.72 731.98 436.24 730.62 435.51 728.11 435.18 726.71 435.48 726.73 436.23 726.25 437.76 725.21 438.89 725.67 439.79 727.29 439.84 727.83 440.25 728.22 442.07 727.88 443.9 726.51 445.34 725.22 446.13 724 445.82 721.39 446.08 719.4 444.66 718.33 444.44 716.73 445 712.37 447.57 705.13 452.5 703.99 453.6 701.86 456.12 700.56 456.79 698.93 456.98 697.83 458.21 694.47 460.46 692.88 461.31 691.76 461.61 690.83 461.15 689.88 458.38 689.38 454.17 689.39 451.9 690.77 448.08 692.44 445.47 692.25 444.06 691.22 443.34 690.29 443.22 688.56 443.5 687.21 443.94 684.13 445.48 682.32 446.81 680.76 447.63 679.03 447.87 676.37 447.32 674.5 446.57 673.66 445.75 673.72 444.44 675.42 442.73 676.51 442.33 678.02 442.24 678.84 441.23 680.14 440.09 681.72 439.33 684.08 439.12 686.48 438.48 688.15 437.68 690.97 435.25 691.2 433.96 690.11 431.92 687.85 430.05 686.7 429.7 684.72 430 681.98 431.51 679.73 432.53 678.01 433.11 676 435.52 674.97 437.55 673.47 439.37 672.55 439.82 669.94 440.5 668.4 440.36 666.65 439.42 665.79 439.71 665.22 441.1 665.15 442.12 665.6 443.29 668.07 446.88 668.85 449.2 668.49 449.97 667.14 450.79 666.3 450.94 664.35 450.82 663.23 450.37 659.16 448.14 655.92 447.01 654.35 447.03 653.49 447.38 652.8 448.72 652.82 450.97 652.44 454.91 651.78 458.13 652.14 460.48 651.78 462.5 651.11 463.46 649.8 464.6 649.07 464.92 646.72 464.25 644.81 464.09 641.65 464.65 639.63 464.73 637.97 464.05 637.89 462.94 638.24 460.03 639.12 456.5 639.17 455.68 640.01 452.66 639.41 450.93 637.37 450.45 634.18 450.87 630.97 451.81 630.07 452.36 628.33 453.89 627.06 455.64 625.89 456.9 625.05 458.27 624.34 458.89 621.75 460.41 620.44 460.92 618.64 461.19 616.89 460.34 614.85 461.24 613.26 461.19 612.24 460.91 610.74 459.89 610.11 459.18 609.09 457.3 608.95 455.81 610.18 450.87 610.16 448.71 609.49 446.46 608.75 445.56 605.48 444.01 605.13 442.09 603.29 439.92 602.02 439.18 599.58 438.67 597.74 438.05 594.29 436.44 592.27 435.81 588.38 434.15 586.58 434.13 584.88 435.14 584.51 435.92 584.02 438.14 583.65 440.79 583.28 442.32 582.41 444.7 583.97 445.28 587.34 448.91 588.16 450.91 591.08 455.14 591.43 456.28 591.11 459.65 590.69 460.83 588.95 461.97 589.36 462.63 590.78 462.61 591.12 463.4 590.44 464.09 592.29 465.72 592.6 466.63 592.09 467.17 590.85 467.62 590.27 468.17 590.66 469.46 591.93 471.65 592.36 472.82 594.29 474.63 595.25 474.64 596.66 475.48 598.41 475.76 600.8 476.59 602.03 478.24 603.11 481.5 603.93 482.3 605.03 482.44 607.26 485.09 607.52 485.75 606.65 487.26 607.19 488.44 608.19 488.75 608.87 489.51 609.99 491.83 611.39 491.58 612.25 492.93 613.1 493.66 612.69 495.97 612.26 496.76 612.14 498.47 610.4 501.09 610.8 502.8 610.21 505.12 609.28 505.68 609.12 507.04 610.28 510.28 610.49 511.54 610.41 513.91 610.08 515.03 610.43 516.17 611.19 516.52 611.43 517.96 612.14 519.02 613.43 519.96 615.49 522.42 615.66 523.03 615.19 524.61 615.4 526.1 616.55 526.94 619.23 529.49 620.96 527.06 622.54 526.45 627.57 527.91 626.32 527.73 623.73 528.65 622.96 529.14 620.21 530.36 618.05 530.36 616.08 530.55 614.67 531.04 612.61 531.26 609.85 531.16 608.92 530.86 607.5 529.89 607.05 529.21 606.95 526.82 605.36 524.53 604.31 523.74 601.97 522.75 597.8 522.58 596.69 522.69 593.91 523.64 591.6 524.56 590.28 525.43 589.24 525.58 587.37 525.38 585.64 525.68 584.42 526.22 582.59 527.63 581.73 529.02 580.49 530 579.08 530.24 577.86 531.05 577.09 532 572.33 530.77 569.54 530.25 567.72 529.32 566.46 528.92 563.78 528.81 562.13 529.36 559.33 529.58 557.03 529.6 553.85 529.01 549.04 528.72 545.66 527.93 543.37 527.15 540.2 525.19 537.36 522.47 535.65 519.66 534.68 518.72 531.86 517.54 529.88 517.19 527.94 515.9 525.97 515.69 524.13 515.01 522.34 513.22 521.62 511.28 520.88 508.61 519.98 507.57 518.86 507.05 521.95 504.37 523.28 502.55 524.57 500.21 524.99 499.15 525.59 496.26 527.27 495.84 527.8 494.52 528.9 493.51 530.36 490.81 530.43 487.81 531.11 486.14 529.94 484.64 526.77 484.31 524.27 483.47 522.23 482.95 519.28 481.63 517.68 480.12 517.34 477.7 519.82 472.06 520.61 469.28 520.72 467.52 520.44 465.65 519.72 463.29 518.23 459.72 517.81 456.38 518.71 454.55 520.35 453.51 522.73 452.88 526.34 452.12 528.07 450.73 528.72 449.22 528.74 448.38 528.3 446.41 527.09 444.8 523.69 442.39 522.22 440.9 521.52 439.78 519.81 436.5 519 433.54 517.44 431.11 516.35 430.13 515.1 429.42 513.47 429 512.61 429.04 511.02 429.66 508.51 429.9 506.47 429.33 504.74 428.11 503.22 426.33 499.73 423.88 496.54 421.01 494.22 420.03 492.24 419.91 488.16 420.48 484.67 420.77 482.81 421.12 479.22 422.47 474.32 424.67 472.62 425.22 468.15 426.23 466.88 425.63 465.77 426.07 463.41 426.3 458.72 425.1 460.04 427.41 460.77 427.99 462.79 427.45 463.05 429.66 465.12 431.67 465.84 432.67 465.88 434.61 462.99 437.89 460.63 439.5 457.72 439.38 457.14 439.93 455.69 440.28 455.11 441.18 451.78 442.59 450.81 442.71 449.53 443.36 447.75 444.73 447.5 445.55 446.87 445.72 446.09 444.88 444.88 444.38 443.48 444.91 442.72 445.67 441.03 445.46 439.86 446.59 439.82 447.6 439.24 448.88 437.86 450.31 436.75 450.45 435.22 451.4 399.05 442.36 351.28 386.39 310.37 401.96 260.8 420.21 259.22 420.14 258.2 421.42 257.95 423.36 257.49 423.8 255.61 424.18 253.18 425.14 251.39 426.38 249.76 426.76 247.24 426.11 244.5 424.46 240.13 422.85 239.55 422.51 239.39 421.58 238.74 420.99 237.73 420.73 236.68 420.94 235.86 421.68 235.13 423.06 234.23 423.91 231.12 425.26 229.59 424.79 228.37 423.5 227.36 421.79 228.23 420.68 227.14 418.69 226.96 417.61 226.33 417.36 224.94 417.43 222.95 418.04 220.58 417.96 218.97 417.34 217.64 417.28 215.32 418.56 214.82 420.2 213.54 421.37 210.62 422 208.18 421.82 204.82 420.88 203.93 420.91 202.93 421.56 201.47 423.13 198.52 425.8 197.4 426.33 196.75 427.33 197.48 429.48 197.32 430.13 196.54 430.67 195.88 431.7 195.78 435.7 194.89 436.23 193.24 438.52 190.49 439.1 187.65 439.42 183.32 439.38 180.43 438.76 177.5 437.97 175.91 438.23 174.82 439.12 174.47 440.39 174.3 442.45 173.92 444.44 172.68 446.81 172.78 450.77 172.65 451.38 168.29 452.72 165.58 453.34 162.33 454.84 160.68 454.92 158.84 454.55 157.72 454.59 155.82 455.85 153.98 455.45 153.39 455.05 153.28 453.22 150.27 447.41 148.51 445.91 148.01 444.51 148.08 441.69 147.51 440.31 145.3 437.83 144.95 436.37 145.28 435.1 144.41 434.11 141.27 434.34 139.52 433.75 136 433.43 131.53 432.23 130.58 430.91 130.04 428.76 129.4 427.79 127.91 426.27 126.71 425.41 124.89 423.69 124.82 422.4 126 419.74 126.08 417.7 125.13 415.6 124.81 413.97 122.05 412.53 120.15 411.75 118.68 411.4 118.43 410.93 119.34 410.28 121.53 409.33 122.52 407.36 123.34 406.59 123.75 405.64 124.72 405.15 125.67 404.02 126.59 404 127.44 403.36 128.09 401.27 127.67 399.9 126.06 396.93 126.21 395.86 127.47 396.18 128.48 394.97 129.39 394.35 131.23 394.07 131.47 393.67 133.06 393.57 135.08 392.45 136.01 391.61 138.38 391.08 140.19 389.5 142.92 387.87 143.56 387.76 144.75 388.35 146.55 389.6 148.53 389.63 151.84 388.57 153.91 388.11 155.29 387.34 155.46 385.8 154.19 383.27 154.34 381.15 155.12 380.27 156.55 379.67 157.47 377.95 157.34 377.01 156.29 375.68 156.26 373.66 155.09 373.37 153.34 372.54 150.94 372.13 150.16 371.83 147.78 370.15 147.2 369.06 146.72 366.22 146.75 364.01 145.88 360.18 145.26 360.17 143.09 356.73 141.14 354.8 141.33 353.89 139.68 352.38 138.32 352.05 136.92 351.3 136.18 348.7 134.89 346.97 132.21 345.1 131.49 344.74 129.47 342.63 125.41 340.82 123.49 339.48 122.17 338.29 121.02 337.89 119.64 337.97 118.63 337.59 116.55 336.43 116.44 335.63 116.68 333.49 116.26 332.89 115.85 330.16 116.92 328.29 116.8 326.83 115.75 325.51 114.93 323.5 115.11 322.27 114.77 320.54 114.21 319.6 115.85 318.22 116.29 317.32 116.27 315.97 117.3 314.09 119.06 312.5 119.09 311.81 118.46 309.59 117.67 308.14 115.71 307.35 116.43 304.9 115.69 303.73 115.16 301.94 113.99 300.91 113.07 299.75 112.26 297.83 112.35 297.08 113.35 294.7 113.66 293.42 113.6 291.58 112.28 287.73 111.09 286.52 108.92 285.29 105.68 283.06 102.54 280.78 101.08 279.38 99.65 278.54 96.75 277.77 93.41 277.53 89.52 277.85 87.2 278.29 84.73 279.6 83.07 280.78 81.73 281.42 80.35 282.44 79.32 283.9 78.39 283.2 77.03 283.22 73.69 284.51 71.97 284.84 68.07 285.27 63.47 285.34 61.06 285.04 56.56 284.15 52.52 283.57 47.19 283.36 44.82 282.95 43.71 282.59 41.31 280.79 41.27 278.67 42.29 274.45 41.79 271.17 41.22 269.36 39.76 266.99 38.25 263.96 36.79 261.82 33.89 259.17 31.01 257.28 32.84 256.07 34.33 254.23 34.52 253.09 33.58 246.68 33.35 245.55 33.37 243.22 32.99 241.45 33.17 239.87 34.26 237.47 33.95 235.4 32.62 232.6 31.99 230.39 30.29 229.02 26.9 230.13 25.78 230.05 24.5 229.33 24.41 227.89 25.36 224.74 24.44 224.06 22.62 223.7 22.35 222.44 21.21 221.72 18.82 220.59 18.37 219.32 17.59 219.17 16.73 218.1 18.12 217.45 18.6 216.31 17.44 215.58 15.77 215.59 13.76 214.68 12.07 213.67 10.99 212.47 11.34 211.2 10.89 209.07 10.79 206.29 9.52 205.74 8.97 206.38 8.08 206.25 7.97 203.84 7.44 203.33 7.88 202.29 7.51 201.18 7.92 199.7 8.62 199.23 7.28 198.47 5.7 197.06 6.81 195.86 6.34 194.09 5.37 194.71 4.46 194.61 4.1 193.97 6 192.67 6.98 191.24 3.68 191.02 3.5 190.01 2.78 189.87 2.65 189.05 3.12 188.29 3.64 186.6 4.89 186.16 5.13 185.21 7.79 183.6 7.86 182.55 8.94 182.4 8.64 180.31 10.17 180.6 10.84 178.94 10.94 177.77 13.15 174.52 12.36 173.39 12.24 172.23 13.22 170.94 12.35 170.03 12.96 168.26 13.34 166.35 13.05 165.19 13.89 163.88 12.89 162.82 14 161.97 14.29 161.35 16.38 160.1 16.88 160.8 17.77 161.05 18.18 162.29 19.28 162.36 19.79 161.49 20.59 160.89 21.73 161.13 24.4 157.65 27.39 155.47 27.03 153.96 28.36 151.8 27.41 151.59 26.59 151.93 24.69 150.83 24.44 149.52 22.82 148.05 21.12 148.61 19.66 148.5 18.36 149.1 17.73 148.9 16.43 147.25 16.44 146.32 15.65 144.95 14.24 144.66 14.04 143.87 14.77 141.79 15.11 138.82 15.11 134.68 14.85 133.62 14.82 131.25 14.46 130.6 12.12 130.41 11.71 130.18 11.7 128.73 12.18 127.65 12.9 124.22 12.75 122.02 10.84 119.56 8.26 119.43 7.24 118.47 6.63 116.34 5.97 115.86 3.71 116.52 3.18 116.1 3.36 115.33 4.74 114.47 5.5 113.63 6.11 112.19 5.38 111.44 6.15 110.6 6.02 109.37 6.5 108.15 6.53 105.32 6.76 103.09 6.72 101.34 5.76 99.29 4.06 97.89 3.16 97.43 2.66 96.25 2.62 94.56 1.47 94.25 1 93.58 1.8 91.99 1.95 90.87 2.74 90.24 2.14 88.92 2.82 87.03 2.91 86.2 2.45 85.13 2.84 83.99 3.51 83.31 3.08 82.71 3.46 81.98 2.35 80.12 3.17 78.49 5.22 77.99 5.28 76.63 6.11 75.25 6.24 74.43 5.73 73.16 5.76 71.9 6.45 70.11 8.3 68.64 9.35 67.36 9.87 65.42 10.5 64.81 12.24 63.82 12.13 62.31 14.79 60.99 16.41 60.68 17.85 60.14 18.57 58.83 19.99 57.83 22.34 57.34 26.13 56.03 26.87 54.92 28.67 54.75 30.06 54.28 30.56 54.52 32.92 54.6 33.52 54.82 36.2 54.27 36.8 54.36 38.31 53.49 39.24 53.35 39.43 52.68 41.19 52 42.39 50.93 42.3 50.38 44.26 48.9 46.02 47.98 46.42 48.27 47.77 47.71 48.17 47.17 49.34 47.41 51.17 47.07 52.96 47.44 55.07 45.65 55.35 44.35 56.47 43.49 57.35 41.96 58.9 40.25 60.53 38.86 61.88 38.46 62 37.56 62.7 36.77 62.99 35.79 64.05 35.09 64.87 33.89 65.29 31.95 69.46 27.15 73.22 27.34 79.18 30.29 81.82 30.98 85.72 30.79 92.98 27.77 103.97 27.5 110.35 25.79 115.65 22.02 120.33 17.46 125.15 14.54 138.5 9.88 140.19 8.28 141.68 1.08 143.83 1 147.29 10.91 155.57 16.57 165.78 20.66 179.5 28.07 183.34 32.11 185.52 31.74 187.49 27.99 199.05 18 203.79 17.79 210.35 20.09 212.68 21.89 219.53 30.06 221.47 31.02 223.54 31.72 225.55 31.85 226.95 32.72 228.04 32.75 233.57 31.4 235.27 28.34 237.37 23.81 240.09 21.81 243.11 22.02 247.03 22.16 250.37 25.93 252.54 33.57 254.94 35.49 257.14 36.12 258.51 35.31 260.55 32.27 262.81 31.09 266.64 31.8 267.68 32.54 269.42 34.19 272.97 33.47 274.75 34.08 274.78 31.58 275.87 29.56 280.65 30.62 283.42 30.87 284.83 30.52 287.63 29.52 291.4 28.33 294.41 28.23 298.04 28.4 299.36 28.73 300.69 29.35 303.5 31.06 304.61 31.06 307.89 30.7 309.86 30.89 310.97 31.66 313.84 34.82 316.86 37.93 319.63 41.01 321.34 42.74 322.64 44.33 323.7 45.31 331.17 53.24 333.4 55.38 335.67 57.28 339.18 59.58 342.06 60.98 346.68 63.02 348.39 63.64 356.11 66.66 358.82 67.53 361.67 67.8 364.56 67.72 367.6 66.99 371.36 65.21 372.26 64.44 374.1 62.39 377.48 60.09 381.25 57.74 384.7 55.69 385.62 55.38 386.38 55.59 388.75 57.91 393.43 57.85 398.91 58.89 400.35 59.45 406.97 62.84 415.53 67.17 419.78 69.45 421.91 70.47 425.3 71.68 426.87 72.12 430.51 72.22 432.58 72.45 437.43 75.22 441.19 77.67 443.07 76.47 444.36 76.4 446.54 76.61 451.13 77.57 452.34 77.39 453.93 76.27 454.79 73.8 457.19 73.65 461.17 73.72 464.48 73.22 468.14 71.88 470.32 70.86 473.12 69.77 478.25 67.57 482.56 65.96 488.29 63.25 488.68 61.47 489.76 61.28 491.35 60.26 493.97 57.59 499.37 51.79 507.14 43.81 507.94 42.9 509.85 41.22 510.64 40.89 517.12 39.38 517.82 39.57 521.01 41.99 522.39 43.3 528.82 51.2 530.45 53.12 533.34 56.83 534.81 57.52 537.56 58.06 538.83 58.63 539.69 59.6 544.35 64.31 547.34 67.49 549.27 70.24 551.45 74.07 552.42 74.31 558.09 75.29 560.54 75.56 563 76.05 565.21 76.22 567.27 76.72 570.08 77.7 572.18 78.64 574.34 80.12 577.1 82.76 580.07 85.18 582.43 86.39 584.63 87.11 587.24 87.37 591.2 87.01 593.66 87.32 593.96 86.64 594.86 86.06 596.72 85.92 598.17 85.02 601.88 83.18 604.08 81.74 607.49 81.91 610.26 85.86 610.31 87.57 609.76 88.78 609.46 90.48 610.42 91.69 614.52 94.21 616.33 95.42 619.64 95.78 622.55 95.68 630.17 95.94 633.48 95.85 635.48 95.03 640.79 92.47 642.45 92.15 643.24 91.71 645.16 91.44 647.63 91.51 649.52 93.61 654.98 98.17 662.57 101.59 667.07 103.35 670.81 106.59 671.94 109.76 673.4 113.37 673.05 118.56 674.4 122.62 673.5 124.64 673.54 125.81 674.81 127.92 674.96 128.93 674.31 132.4 673.84 133.37 671.13 137.11 671.13 137.85 671.79 138.5 672.95 140.61 673.5 142.72 673.25 143.58 673.11 145.69 673.76 147.41 675.11 149.12 675.73 150.32 677.22 151.79 677.66 152.6 677.59 154.55 678.28 156.01 678.79 158.48 680.1 159.15 683.15 157.92 687.49 151.38 688.25 151.02 689.23 151.51 690.28 157.74 698.94 169.25 700.52 179.09 702.2 180.48 705.03 181.49 716.4 180.56 726.73 175.18 728.76 175.44 734.86 183.74 735.98 185.01 736.7 187.15 737.29 188.03 738.17 188.37 739.11 188 740.54 185.91 741.67 184.91 742.83 184.51 746.23 184.89 751.94 188.21 757.66 194.5 759.48 196.91 766.31 196.39 768.47 200.41 769.94 201.12 776.83 203.9 782.7 204.68 787.55 207.44 788.09 208.98 787.68 210.74 786.94 212.95 786.36 217.19 790.12 216.88 791.78 217.13 Z"/>
</g>
</svg>