<?xml version="1.0"?>
<svg xmlns="http://www.w3.org/2000/svg" version="1.2" baseProfile="tiny" width="800" height="850" viewBox="0 0 800 850" stroke-linecap="round" stroke-linejoin="round">
<g id="4200408">
<path d="M 792.04 257.88 791.63 264.28 779.37 281.08 742.68 331.36 743.18 334.14 743.08 335.13 742.55 336.36 741.09 336.36 739.51 337.15 737.65 336.94 734.97 339.21 735.27 342.13 736.11 343.14 734.74 344.05 734.26 344.87 734.11 346.03 733.23 346.61 733 347.42 731.22 349.73 730.51 350.33 728.17 351.4 726.35 352.81 725.32 353.18 721.99 353.33 719.47 352.9 717.88 353.32 717.21 354.3 716.11 355.04 715.57 356.4 716.25 357.3 715.81 358.44 716.07 359.99 715.46 360.9 714.23 361.62 713.58 362.52 712.64 363.29 711.26 365.05 710.1 367.49 709.15 367.79 708.15 367.68 706.94 368.4 705.07 368.94 703.54 370.36 703.04 370.27 701.11 371.78 699.08 372.63 697.9 372.72 697.43 373.29 697.28 374.66 696.2 375.89 696.2 376.91 696.98 382.67 696.68 383.75 695.24 384.86 694.81 386.6 695.35 387.77 697 389.53 697.04 390.4 696.4 392.36 696.91 392.81 697.72 394.45 696.06 395.91 695.34 398 694.54 400.95 695.6 402.26 697.02 402.92 697.69 403.88 698.01 405.41 698.59 406.31 700.42 407.53 702.93 408.09 705.88 410.46 706.93 411.95 706.95 413.6 707.36 416.26 708.13 417.53 710.28 419.07 711.16 419.29 713.52 418.68 715.8 418.66 717.35 418.4 719.38 418.62 721.73 419.34 723.84 419.79 726.19 420.83 726.96 421.57 728.8 422.32 730.94 423.87 732.55 426.87 733.77 427.35 734.87 427.47 736.45 428.31 739.13 429.13 740.4 430.1 741.06 431.98 742.23 433.53 744.75 434.36 745.59 434.81 747.26 434.99 748.01 435.83 750.21 436.61 751.59 436.11 753.71 435.8 755.67 436.4 757.16 437.47 757.39 440.84 757.31 444.09 757.96 446.42 759.36 447.36 761.56 448.19 764.58 449.71 766.87 450.31 767.79 451.1 767.44 452.68 766.48 454.87 765.98 455.39 764.8 455.91 762.84 457.2 762.17 458.35 761.83 459.75 762.17 460.5 764.36 462.42 766.02 463.25 767.41 464.7 768.67 466.71 768.65 467.55 768.19 468.33 767.28 471.57 766.45 472.58 764.61 473.92 762.63 476 761.03 478.54 759.73 479.99 758.75 480.71 756.33 482.92 750.72 489.34 750.18 490.09 727.7 484.78 626.46 461.36 603.61 509.69 593.81 529.75 590.25 552.16 582.58 606.51 582.74 607.6 582.2 609.2 581.91 611.64 582.02 613.86 581.6 614.42 580.23 615.29 579.69 616.01 576.73 617.58 576.91 620.72 575.46 623.28 576.33 623.73 576.84 624.94 576.86 626.17 577.18 626.59 576.79 627.87 576.43 630.78 576.56 631.31 577.82 632.08 579.47 633.59 580.47 634.9 582.48 635.89 583.28 636.54 583.96 637.97 585.09 639 585.14 640.19 586.14 643.58 586.16 644.96 586.51 646.14 588.42 647.5 590.15 649.88 591.67 651.01 591.94 651.76 593.4 652.63 593.88 653.3 598.32 654.91 599.69 656.38 599.9 658 600.97 657.42 601.53 657.56 602.07 658.57 601.82 659.1 602.62 659.88 604.37 660.33 605.49 659.93 608.71 661.52 608.86 662.35 609.95 662.44 610.25 663.24 612.25 664.41 611.98 665.71 613.71 665.96 613.67 666.75 615.53 666.96 616.4 667.37 617.58 667.51 617.82 668.21 618.9 669.1 618.94 670.11 619.48 670.37 621.07 669.66 622.06 669.87 622.24 668.99 623.07 668.49 624.9 668.76 626.52 667.81 627.79 668.4 628.56 668.31 628.7 667.01 630.24 665.23 631.19 665.18 630.94 666.18 631.92 666.99 631.92 668.32 632.35 669.44 632.26 670.92 632.92 672.3 634.01 673.09 634.64 674.14 633.8 674.91 634.7 675.62 635.47 674.76 635.73 676.02 636.27 676.67 637.31 677.06 637.82 677.9 637.33 678.4 637.32 679.83 635.18 681.93 635.83 683.07 635.52 683.89 636.66 684.83 636.83 685.83 635.61 687.27 635.74 687.69 637.32 688.15 638.58 688.1 639.34 690.66 638.84 691.01 642.71 692.72 643.77 693.99 644.36 695.15 645.33 695.64 646.01 696.69 647.79 696.96 649.49 696.61 649.87 698.14 651.36 698.61 651.95 702.39 652.63 703.08 652.61 703.74 651.49 705.16 651.38 706.24 651.9 707.43 651.43 708.63 651.65 709.15 653.57 710.18 653.89 711.85 654.28 712.14 655.79 712.29 657.46 711.79 659.12 712.51 660.38 712.49 661.51 713.62 661.45 714.48 659.72 715.65 657.7 715.93 656.24 716.32 655.31 717.16 655.18 718.64 654.85 719.17 653.64 719.97 653.8 722.17 654.62 722.81 657.07 722.89 658.23 723.4 658.51 725.56 659.04 726.47 660.17 727.14 662.8 726.28 665.25 726.37 665.15 727.22 664.51 727.95 664.98 729.13 667.38 730.13 669.1 731.81 670.91 732.39 673.29 732.16 673.7 732.81 673.77 734.03 674.83 734.25 675.27 734.7 675.18 736.01 675.72 736.63 677.86 736.9 678.72 737.2 682.05 740.3 683.18 740.51 685.52 742.78 687.3 743.82 688.21 745.01 687.9 745.87 687 746.32 687.57 748.35 689.05 749.48 690.34 752.13 692.5 752.58 693.97 753.05 695.29 753.84 696.28 753.97 697.28 753.61 698.08 753.72 700.07 755.68 701.85 755.85 709.12 754.76 710.41 753.42 710.49 752.77 709.86 750.74 711.35 750.07 712.08 748.98 712.96 748.8 715.15 750.27 716.15 750.32 717.37 751.28 719.31 751.84 719.89 753.75 719.28 755.18 719.9 756.23 722.04 757.81 722.14 758.33 723.54 759.51 724.16 760.81 725.94 762.44 707.07 778.02 706.97 778.85 705.35 782.57 705.09 783.49 705.62 784.84 708.02 786.82 707.97 787.94 706.87 789.53 706.12 791.27 707.75 792.63 709.1 794.11 709.19 795.41 709.73 796.2 710.95 797.07 711.98 798.34 712.47 799.29 712.33 800.81 713.11 802.83 713.1 803.77 711.35 805.64 710.32 807.6 710.47 809.26 712.54 810.92 712.41 811.87 711.34 813.57 711.25 814.32 711.75 815.86 711.45 816.8 711.85 817.76 712.86 818.48 712.91 819.96 711.45 820.26 710.98 821.14 711.27 823.52 710.88 824.85 712.05 824.96 713.02 826.35 713.43 828.72 714.21 830.13 714.18 831.33 714.63 833.16 715.64 833.74 715.35 834.98 715.99 835.52 716.78 836.89 717.24 837.17 718.63 836.62 721.11 837.89 721.8 839.16 722.54 839.04 722.53 839.96 723.13 840.06 724.89 841.8 726.15 842.78 727.48 844.1 727.87 845.16 727.39 845.91 726.48 846.03 724.96 845.76 721.82 845.82 720.69 846.25 719.59 847.37 718.48 849 717.36 848.95 716.33 848.47 716.46 847.61 715.01 845.95 713.02 844.77 711.03 843.07 707.15 839.24 706.31 838.18 705.59 836.5 704.19 834.84 703.31 832.9 703.08 830.39 702.65 829.6 701.45 829.26 698.42 829.06 696.74 829.58 693.23 830.99 692.31 831.15 691.03 831.9 690.02 832.85 689.05 833.1 687.86 832.92 687.35 832.45 687.17 830.69 687.81 827.97 688.74 826.45 690 825.56 692.26 824.94 693.18 824.44 694.92 822.85 696.83 821.49 699.21 819.53 700.01 818.5 700.26 817.38 700.07 816.13 698.79 815.02 697.62 815.34 694.95 816.67 692.95 818.27 687.77 821.05 685.87 821.87 684.72 821.94 683.72 821.57 682.87 820.52 682.81 816.34 682.7 815.6 681.66 813.26 679.42 809.11 678.68 808.27 677.63 807.71 675.11 807.49 673.84 807 673.04 807.95 673.1 808.86 673.76 810.08 674.45 812.8 675.28 814.52 676.86 816.42 677.69 818.08 677.03 819.3 675.85 819.8 673.8 819.94 672.06 820.78 670.93 822.14 668.85 826.05 666.55 828.08 665.61 829.15 664.42 831.02 661.72 833.77 659.96 834.8 658.58 835.11 657.63 834.94 655.17 832.87 654.2 831.18 653.27 827.1 650.95 824.37 650.92 823.69 651.65 822.74 652.97 822.37 656.41 822.11 656.93 821.87 658.89 818.99 662.03 814.98 661.95 813.71 661.37 813.03 660.35 812.79 659.27 813.15 654.12 813.96 652.42 813.84 649.64 812.39 648.51 812.37 648.26 813.37 649.38 814.75 649.75 817.21 649.56 817.9 648.13 821.27 647.61 821.61 646.16 821.56 642.89 820.27 641.62 820.2 640.81 821.2 641 824.65 640.65 826.64 639.99 828.2 639.22 829.04 638.54 829.19 635.9 826.48 633.8 825.83 633.26 825.36 632.96 823.42 633.12 820.62 633.58 819.77 634.71 816.71 635.03 814.57 634.24 814.36 630.29 816.83 629.45 816.88 628.46 815.77 626.79 814.43 624.42 813.72 623.46 813.16 622.88 813.35 621.32 814.51 620.24 814.46 616.58 811.19 615.2 809.83 613.37 808.28 612.13 808.05 611.56 809.24 610.76 812.11 610.23 812.74 608.93 813.38 606.91 813.86 605.34 813.36 605.18 812.68 607.97 811.4 608.12 810.73 606.59 809.12 605.43 808.89 604.47 809.34 603.47 810.33 602.79 810.16 602.81 809.02 600.64 809.43 600.13 810.2 600.19 811.49 598.93 812.89 598.31 814.03 596.24 815.16 594.53 817.16 592.91 817.88 591.84 817.74 590.07 818.38 588.93 819.65 588.62 820.62 587.38 820.32 585.4 822.07 581.79 822.31 580.54 822.68 578.79 822.11 577.9 822.97 577.01 824.22 575.83 824.96 572.86 825.47 570.95 825.53 570.14 824.99 567.26 825.14 566.21 824.56 565.71 823.9 563.94 823.1 562.4 823.11 561.24 823.53 558.07 822.78 555.95 823.15 554.8 822.4 553.29 822.34 552.8 821.57 552.03 821.2 550.78 821.11 548.77 820.11 548.07 820.08 547.44 819.1 546.04 818.99 544.45 818.23 543.74 817.42 541.77 816.81 540.02 816.5 538.66 816.66 536.84 816.13 536.29 815.5 535.05 815.49 533.71 814.95 533.23 813.99 530.71 813.19 528.84 812.93 527.62 812.47 521.96 812.92 520.17 812.08 517.83 811.78 516.06 811.8 515.24 812.17 512.34 814.5 510.11 815.5 508.96 817.29 507.79 818.1 506.79 818.32 504.06 817.45 503.05 817.63 500.9 818.65 499.5 819.58 496.28 819.9 495.62 819.82 494.23 818.89 493.63 818.03 492.7 817.32 491.55 816.93 490.21 816.9 487.51 814.85 485.52 814.29 483.18 815.17 481.79 815.41 480.02 815.32 478.74 816.14 477.27 816.43 476.79 817.6 476.07 818.01 473.33 817.4 473.17 813.71 471.73 811.41 471.37 810.5 469.84 809.43 468.83 808.41 469.28 807.35 469.99 806.79 470.32 805.99 469.86 805.61 468.31 805.4 466.96 804.92 465.4 804.71 461.94 802.59 461.45 802.67 460.4 804.3 459.71 804.95 458.95 805.03 453.22 802.52 451.28 801.4 449.82 801.1 448.54 801.09 446.23 800.26 445.34 800.19 444.89 798.42 443.95 795.91 446.19 792.99 448.2 791.9 448.95 790.6 448.08 788.09 447.98 785.69 447.66 781.95 447.28 780.57 446.31 779.83 446.14 778.82 447.11 777.54 448.71 773.84 449.97 773.26 450.81 772.1 451.11 769.4 451.57 768.32 453.04 766.43 454.43 763.96 454.69 762.66 454.65 760.43 453.04 758.5 453.32 757.82 453.12 756.76 454.2 754.04 454.16 752.56 453.26 749.74 453.58 748.6 453.12 745.65 452.6 744.36 451.71 743.38 451.31 742.37 451.57 740.96 451.36 739.83 450.66 738.36 450.51 737.29 451.01 734.53 452.16 733.75 454.57 733.58 455.43 733.31 455.77 732.75 455.89 730.66 456.45 729.48 456.38 728.21 453.57 726.13 452.44 724.6 451.31 722.52 450.82 721.95 449.27 720.88 448.69 720.22 449.87 718 449.58 714.99 450.42 713.09 450.8 710.88 451.1 710.47 452.64 709.77 453.33 708.32 453.55 706.96 454.11 706.05 456.44 704.29 460.02 703.23 461.41 702.47 462.2 700.75 461.77 699.32 462 698 460.99 697.09 427.52 696.14 426.37 694.84 425.55 694.73 424.59 693.94 424.35 692.96 425.54 690.8 424.25 688.58 423.52 688.37 423.22 687.4 423.84 685.48 422.68 684.27 422.85 683.31 421.92 682.83 421.11 681.8 419.92 680.84 419.94 678.14 418.17 676.87 417.59 675.35 418.04 674.51 418.13 673.14 417.37 671.22 417.56 670.64 417.33 669.44 416.65 668.83 416.5 668.06 417.65 666.58 418.54 665.94 418.29 665.03 417.63 664.04 418.14 663.09 418.95 662.46 417.9 661.38 418.4 660.26 418.36 659.54 418.99 658.05 418.35 656.07 417.11 655.02 417.13 652.61 417.72 650.85 418.16 650.21 419.16 649.57 419.86 648.43 421.56 647.83 422.21 646.77 424.15 644.2 424.64 643.03 423.94 642.02 423.17 640.28 421.16 637.64 420.86 636.46 420.9 635.03 421.91 633.91 423.35 632.86 424.91 632.33 426.23 632.11 428.5 631.27 430.4 631 432.28 630.29 433.12 629.15 434.26 628.64 435.28 629.55 436.61 630.19 437.73 629.96 439.7 628.96 440.78 629.81 442.53 630.28 444.82 629.35 445.99 629.4 446.12 628.59 444.54 627.76 442.98 627.26 443.3 625.95 441.76 626.07 438.08 624.85 435.49 624.27 434.64 624.29 432.88 625.27 431.41 625.6 429.19 625.03 428 623.81 426.72 623.06 425.2 622.72 421.83 622.36 420.32 621.51 419.46 622.79 417.93 622.87 416.56 621.37 415.63 620.8 414.31 620.61 412.98 620.81 411.79 620.65 410.62 620.13 408.98 619.85 406.85 620.66 405.61 620.67 404.58 621.07 401.17 620.57 398.18 621.19 395.92 621.07 394.51 620.37 392.94 619.96 391.18 618.66 390.21 618.28 388.7 618.09 387.78 617.59 387.67 616.27 386.16 615.5 385.28 614.22 384.14 614.48 382.54 615.79 381.49 615.89 379.15 615.53 379.05 614.85 377.83 614.67 377.25 613.94 376.48 613.76 375.19 614.39 374.87 615.99 372.5 615.27 368.68 612.4 367.54 610.5 367.4 609.92 366.37 608.78 365.54 609.47 365.43 611.98 364.97 613.92 364.53 614.91 365.09 615.73 363.94 616.22 362.34 617.63 361.65 617.98 359.34 617.91 358.75 618.7 356.96 617.52 356.39 617.72 356.1 618.66 355.29 617.84 354.05 618.32 353.39 619.2 352.83 619.03 352.52 617.88 351.13 618.21 350.41 618.01 350.58 616.96 349.88 616.09 348.39 616.06 345.89 616.38 345.13 616.81 343.59 617.09 342.13 617.82 340.85 618.11 338.85 617.39 338.2 617.64 337.41 616.84 335.65 617.18 334.97 616.88 334.71 614.71 333.68 615.03 333.39 614.46 332.16 614.3 330.1 614.8 329.59 614.06 327.29 613.94 326.88 614.27 328 615.07 328.15 615.76 326.43 616.18 325.72 615.16 325.01 615.9 324.39 615.6 324.17 614.77 324.48 613.93 324.02 612.87 325.35 613.26 326.4 612.14 325.17 612.18 325.59 610.56 325.34 609.78 326.52 609.34 325.62 607.69 325.59 606.58 325.9 604.81 325.24 604.13 327.06 602.7 327.51 601.26 326.53 599.27 327.57 598.43 327.82 596.56 328.33 596.24 328.71 594.72 329.51 593.73 330.84 593.12 331.77 592.07 332.08 590.17 331.34 588.28 331.9 587.56 333.6 587.65 334.05 588.14 334.96 588.21 336.59 587.52 337.18 586.79 337.93 587 337.69 587.73 338.49 587.89 340.64 587 341.54 586.24 342.75 587.07 344.08 587.21 344.56 586.47 345.95 586.28 349.05 586.22 349.98 585.68 351.95 585.47 354.41 584.65 355.62 583.97 355.67 582.85 354.99 581.7 356.33 580.47 357.23 580.01 356.59 577.62 356.74 576.32 357.92 575.92 357.68 574.68 356.18 573.75 355.49 574 354.83 573.42 353.68 572.99 353.47 571.35 352.84 569.96 353.39 569.53 352.63 568.89 352.51 567.64 353.29 566.31 352.88 565.56 351.75 564.78 351.14 563.3 349.28 561.24 350.04 559.7 350.2 556.9 350.89 554.41 350.96 551.85 350.45 549.3 349.39 546.4 348.79 545.83 350.35 542.7 351.87 540.79 353.94 539.1 354 538.56 324.74 547.37 325.7 545.72 325.93 543.75 325.5 542.86 324.79 540.46 325.99 539.16 326.11 537.32 325.68 536.44 324.34 536.26 323.42 535.47 323.22 533.79 323.51 532.86 323.38 531.45 321.65 530.82 320.88 529.22 320.88 528.19 320.48 527.5 318.9 526.67 318.13 525.83 317.57 523.87 317.09 521.56 317.78 520.93 318.74 518.83 320.1 516.95 320.13 514.41 319.21 512.96 319.35 512.38 321.29 510.4 322.52 508.1 322.15 507.09 322.35 505.07 321.73 504.16 321.38 502.78 323.77 500.01 325.01 496.83 325.08 495.92 324.62 492.26 323.53 490.38 323.12 489.31 322.48 488.76 320.73 487.95 319.78 486.43 319.7 485.54 319.08 484.38 319.08 483.38 317.94 482.43 317.01 482.86 316.01 482.25 314.39 482.42 311.72 483.18 311.53 484.34 309.07 486.34 308.43 487.31 306.66 488.99 306.08 490.2 305.87 491.3 304.98 492.45 304.37 492.52 302.96 491.98 301.46 491.98 300.7 490.48 299.15 487.98 298.83 486.69 297.73 485.51 297.32 484.25 295.75 484.16 293.01 485.09 291.07 484.89 286.79 484.18 283.45 484.58 282.83 484.54 281.7 483.8 280.27 483.45 279.86 483.7 279.26 485.12 278.16 486.62 277.26 486.7 274.49 485.33 272.57 484.61 268.95 485.2 267.92 484.82 267.87 484.03 268.6 482.47 270.88 480.58 271.54 479.56 271.71 478.68 271.4 477.47 270.22 475.31 269.32 474.68 267.83 474.59 266.79 473.37 266.9 471.92 267.81 471.39 268.76 469.81 269.81 469.77 272.23 468.96 274.13 467.68 275.35 466.4 277.02 465.46 277.24 464.9 276.65 463.32 277.09 462.67 280.13 461.94 281.1 461.33 282.85 458.86 283.59 456.77 286.06 454.03 287.06 451.11 287.14 449.63 286.12 446.19 286.59 445.62 285.62 444.5 286.24 442.09 286.74 440.8 286.95 439.31 287.89 438.52 289.44 438.91 290.62 438.59 295.11 438.93 296.54 438.27 297.14 436.74 299.16 436.14 299.85 435.14 301.11 434.44 302.45 435.18 305.01 432.81 306.45 432.81 307.42 432.47 308.14 431.2 308.74 431 311.12 430.91 311.92 431.19 313.53 430.73 315.05 431.22 316.74 431.2 318.05 430.16 320.32 430.33 322.12 430.03 323.06 429.08 324.89 429.41 327.22 428.12 328.22 428.34 328.21 430.59 328.76 432.08 329.65 432.37 332.43 431.38 334.35 430.5 336.29 429.91 338.1 429.54 343.68 427.96 344.64 427.44 321.6 401.43 312.41 390.68 311.04 390.45 309.21 389.59 306.71 387.39 306.02 386.27 305.62 383.33 304.9 382.36 304.02 382.17 301.52 382.8 300.66 382.45 297.26 380.34 296 381.01 294.76 380.34 293.08 380.5 291.57 380.15 290.95 380.78 288.35 381.11 287.2 380.75 286.06 379.08 284.96 378.97 283.98 378.53 283.73 377.95 281.74 377.11 281.05 377.84 280.2 379.59 278.52 378.48 276.98 377.95 275.18 376.73 272.41 376.19 271.79 375.66 269.43 375.29 268.65 374.81 267.53 374.66 265.04 376.13 264.87 376.73 262.8 376.58 261.71 377.04 260.33 377.04 258.99 376.65 258.13 376.86 257.41 377.72 257.08 379.65 256.37 380.13 255.5 379.52 254.63 378.37 253.97 378 252.51 376.06 251.84 375.79 251.27 376.59 250.97 377.77 248.61 377.42 247.43 376.88 247.23 376.14 245.89 375.64 245.62 374.39 244.54 374.19 243.54 374.5 242.61 373.98 242.13 373.1 240.62 369.37 239.47 368.85 238.54 367.22 237.93 366.62 234.54 366.15 233.61 365.39 233.48 363.99 231.67 362.83 230.55 361.74 229.16 362.48 228.26 362.42 226.2 360.5 226.04 359.52 225.47 358.92 223.42 359.31 222.42 358.54 222.63 355.88 221.96 354.62 221.29 354.01 219.27 353.78 217.9 353.99 214.96 355.13 214.48 356.21 212.84 356.97 211.99 357.59 210.12 359.67 206.27 362.07 205.83 362.96 204.97 366 204.92 368.42 204.56 369.78 202.86 371.6 202.11 372.86 200.08 375.6 199.7 376.56 199.04 376.94 196.62 376.07 195.5 375.12 195.14 374.37 194.42 374.13 193.82 373.27 193.93 372.15 193.63 371.44 193.58 369.85 191.47 366.64 190.71 366.46 189.07 366.79 187.91 366.76 185.3 366.03 184.01 365.22 180.41 364.11 180.07 362.66 181.19 360.12 182.39 356.21 182.34 354.7 181.35 351.79 180.73 347.95 180.78 346.72 181.27 344.94 180.49 343.79 180.09 344.98 177.91 345.05 177.17 346.63 177.1 348.46 175.69 348.71 174.36 349.48 173.56 348.78 170.67 349.24 170.05 349.81 169.14 349.88 167.09 348.64 165.92 347.61 165.59 346.7 166.21 345.97 167.64 345.4 168.55 345.75 169.61 345.63 171 344.62 170.48 343.85 169.25 343.03 167.54 341.22 167.4 339.86 167.92 338.89 170.54 337.93 171.89 335.91 172.74 333.97 172.43 332.76 171.72 331.47 170 332.36 168.73 331.93 169.6 329.93 169.13 328.93 169.35 327.66 170.28 325.11 171.69 323 172.9 322.01 175.49 320.97 176.57 319.69 178.57 318.06 179.77 316.36 180.57 315.53 182.7 314.18 184.2 313.5 184.59 312.48 184.14 311.61 184.06 310.28 183.4 310.03 183.85 308.9 185.13 306.49 185.01 305.02 183.71 304.8 183.78 304.09 185.07 303.56 187.41 300.98 189.17 301.21 189.57 300.25 190.92 301.03 191.49 300.5 191.6 299.52 192.91 299.07 192.69 298.2 193.64 297.69 195.73 297.54 196.62 296.94 196.9 296.15 199.74 295.17 200.18 294.51 200.95 294.56 201.05 293.26 202.68 292.77 203.95 292.61 205.71 292.06 206.7 292.18 209.59 291.86 210.18 291.16 211.18 290.76 212.02 290.83 213.53 290.33 192.22 276.38 191.3 273.99 191.6 272.63 191.21 271.8 190.58 271.47 190.17 270.58 189.29 269.91 188.36 268.63 187.05 267.57 186.44 266.5 186.1 263.78 184.49 261.3 184.18 259.96 182.6 259.31 181.75 258.13 181.57 256.94 180.36 255.62 180.2 255.06 180.91 254.26 180.66 253.05 180.08 251.99 177.9 251.13 177.07 250.14 176.82 249.29 178.27 246.67 178.33 245.78 177.99 244.22 177.24 243.39 175.16 243.07 174.4 242.7 173.23 241.42 172.58 241.16 169.71 241.35 167.95 241.74 166.99 242.32 163.84 241.39 162.23 240.17 161.26 238.26 158.48 236.74 157.89 236.08 157.46 234.86 157.35 233.52 155.87 231.4 154.53 231.18 153.65 231.5 152.24 231.31 151.61 229.86 149.3 228.61 147.53 228.29 144.84 227.06 141.94 226.58 140.5 226.46 138.49 225.5 137.57 225.31 135.91 226.09 135.13 225.84 134.34 224.79 134.45 224.04 132.98 221.96 133.56 221.27 133.06 220.66 133.54 219.3 132.49 218.82 130.9 219.18 129.69 219.16 128.09 218.16 126.91 217.87 126.03 217.29 124.28 218.25 124.82 219.85 124.63 221.77 124.17 222.73 123.12 223.39 122.25 225.61 121.03 229.47 120.71 230.04 119.36 230.49 116.19 228.98 112.48 228.04 111.18 227.32 109.82 225.65 108.39 222.59 107.5 221.82 106.29 221.61 104.44 221.91 100.15 222.88 99.49 223.48 99.3 225.65 100.65 228.12 100.74 232.08 99.77 233.11 98.73 232.4 94.87 231.45 88.22 231.28 87.68 231.53 86.81 232.77 85.81 233.56 84.54 233.62 82.99 233.09 81.52 232.29 79.34 231.5 77.13 231.31 75.94 231.36 74.1 231.11 72.27 230.52 70.43 229.49 69.12 229.41 68.32 230.54 68.02 232.74 67.26 233.65 65.58 235.17 65.12 236.66 63.63 239.05 63.99 240.06 65.28 241.03 66.18 242.2 66.93 243.93 66.89 244.7 65.81 245.26 64.95 245.12 61.2 241.78 59.63 241.34 58.05 243.17 56.39 243.7 54.69 243.7 54.02 244.49 53.96 246.06 53.35 246.63 51.53 246.31 49.82 245.4 48.5 243.81 48.27 241.2 47.92 239.75 48.15 234.62 48.42 232.52 48.21 230.49 48.38 229.03 48.99 226.54 49.22 224 48.97 221 49.57 219.55 51.06 218.37 53.21 218 53.47 217.14 53.25 216.37 51.7 215.51 51.81 214.94 53.28 213.94 53.1 212.65 52.06 211.77 51.97 211.28 52.71 210.29 54.3 209.69 56.2 210.19 57.44 210.19 58.56 210.83 59.4 211.74 61.46 213.12 62.59 212.78 62.98 211.34 62.9 210.18 61.12 209.13 59.34 205.13 59.7 203.97 60.96 203.47 62.33 202.27 62.28 200.33 61.64 198.94 61.07 198.49 58.37 198.76 57.44 199.04 56.49 200.05 56.25 201.01 54.36 204.36 53.38 205.57 51.49 207.27 50.02 206.83 48.94 205.39 47.71 204.97 46.5 206.07 45.22 206.91 43.02 207.77 40.6 207.94 39.1 208.28 37.71 208.84 36.27 209.97 36.06 210.79 36.33 211.97 35.06 213.66 33.93 214.37 25.67 213.36 24.36 213.31 23.96 210.95 23.13 210.39 23.06 208.6 23.72 207.8 23.39 206.61 22.27 206.06 20.74 205.88 19.78 204.85 18.09 205.19 16.56 204.04 15.52 203.74 14.89 204 12.6 202.79 11.66 203.66 10.71 203.49 10.06 203.88 8.94 202.52 7.31 202.39 5.5 198.8 5.37 197.16 3.22 196.55 3.13 195.71 1.87 195.36 1 194.42 1.21 193.16 2.23 192.7 2.2 191.75 1.06 191.94 1.17 189.94 1.54 189.08 2.57 188.3 3.28 189.37 5.9 189.8 6.58 190.77 8.42 190.68 9.57 191.29 11.17 190.49 13.74 190.41 14.92 190.58 15.64 191.07 16.89 190.88 17.31 190.26 19.29 189.7 20.5 189.9 23.52 189.31 25.43 190.79 26.93 190.87 29.52 189.97 29.17 189.24 30.52 188.42 30.16 186.87 30.4 186.46 31.85 186.61 32.8 186.27 33.53 186.46 34.27 188.26 35.8 188.43 36.55 188.08 37.42 188.72 38.34 188.41 38.37 187.06 38.75 186.25 40.02 186.05 40.65 185.48 40.66 184.63 41.43 184.56 44.21 184.99 44.65 184.64 45.68 184.76 47.07 183.87 49.76 183.91 50.27 183.39 51.34 181.61 51.61 179.96 53.04 179.98 53.01 179.39 51.55 177.84 50.73 178.1 50.36 176.45 51.52 175.15 52.43 174.94 54.13 174.09 54.51 173.53 53.96 171.14 54.63 170.56 54.88 169.16 55.45 168.39 55.42 167.28 56.87 165.83 58.49 164.65 60.24 163.61 61.98 163.05 64.16 163.3 64.95 162.21 64.93 161.47 64.05 161.37 62.55 161.66 60.43 161.55 59.26 161.06 57.12 158.92 57.01 158.51 57.6 157.25 59.17 157.33 59.97 158.66 60.05 159.42 60.91 159.5 61.35 158.98 60.32 155.54 59.35 155.73 59.18 154.43 59.7 152.67 59.13 151.71 57.66 151.8 55.4 152.92 54.71 153 53.79 151.91 54.13 150.64 54.09 149.42 55.6 149.04 55.79 147.75 54.99 147.09 54.19 147.03 53.53 146.36 54.57 145.24 56.81 145.55 57.36 145.36 57.3 144.47 58.75 143.96 59.87 144.81 61.17 143.9 61.77 143.85 64.08 141.82 64.59 140.5 63.92 138.49 64.39 136.87 63.82 135.37 63.16 135.12 62.23 133.79 63.58 132.49 64.31 131.46 63.93 130.99 61.36 131.14 60.78 130.16 61.91 129.74 63.57 127.71 64.91 127.04 65.57 126.44 66.15 125.25 67.26 123.85 68.63 123.61 69.51 123.08 70.74 121.45 72.54 119.87 74.04 120.59 74.61 120.4 75.07 118.61 74.14 116.25 74.41 115.68 77 115.09 77.1 114.45 78.25 113.67 79.61 113.69 81.19 111.99 80.96 111.05 82.18 108.21 83.58 106.23 85.44 105.43 86.24 104.04 87.1 103.52 86.24 101.21 86.57 99.84 86.35 98.3 87.73 97.51 86.04 96.15 86.3 94.91 85.53 94.51 86.17 92.94 88.77 91.88 89.6 90.75 89.21 89.66 88.13 88.65 88.18 87.99 87.24 86.11 87.22 85.36 86.65 83.73 85.68 83.64 84.62 82.54 85.89 81.2 86.65 81.21 87.73 80.61 87.68 78.81 88.25 78.02 88.3 76.31 88.72 75.72 89.99 75.09 91.11 75.37 92.34 74.31 92.16 73.05 90.85 72.14 88.9 71.64 87.91 70.33 87.95 68.41 87.13 67 87.24 66.28 88.22 65.44 92.11 64.78 92.08 63.97 93.61 63.09 95.36 62.89 96.34 61.6 97.21 60.99 97.79 60.04 99.68 58.51 99.95 57.27 101.5 56.77 102.81 56.01 103.67 56.01 105.07 55.56 105.03 52.35 105.32 50.64 105.69 49.9 105.62 48.95 106.13 48.66 105.52 47.3 105.59 46.11 106.36 43.61 106.94 42.84 106.74 41.93 107.5 41.52 107.31 39.6 107.95 37.86 107.15 36.82 106.5 34.87 104.47 33.11 103.49 32.56 102.82 30.82 101.54 31.45 102.99 29.61 104.74 27.68 107.22 25.89 112.03 24.9 118.95 24.01 119.63 24.23 120.32 25.04 124.01 28.74 124.58 29.56 124.27 30.43 123.48 30.99 124.06 33.87 124.06 34.85 123.57 36.22 125.69 36.25 127.59 36.51 132.18 37.42 140.26 39.22 146.84 40.55 154.74 42.45 159.38 42.77 163.06 42.7 165.23 42.38 168.53 41.71 172.84 40.23 178.49 38.8 182.81 37.45 185.34 36.85 187.84 36 190.06 35.46 195.03 33.97 208.83 30.13 214.98 27.91 228.76 22.73 230.36 22.32 235.68 20.42 246.04 16.49 251.21 15.46 256.26 15.32 259.57 15.78 264.27 16.69 271.16 18.37 275.35 19.08 281.11 19.23 283.72 19.37 286.94 19.79 290.47 20.63 292.96 21.86 294.92 23.22 297.9 26.05 298.86 27.19 302.62 29.51 306.45 30.27 311.58 30.25 313.41 30.52 316.46 30.58 318.81 30.26 321.28 29.08 324.42 26.88 327.8 24.34 333.35 19.76 342.36 13.19 344.87 11.12 353.1 5.28 355.92 3.44 358.17 2.45 362.73 1.26 365.61 1.02 369.13 1 372.35 1.69 376.11 2.8 378.6 3.8 381.26 5.5 386.03 9.6 392.68 15.62 402.63 20.95 405.47 23.16 408.46 26.64 412.09 30.44 415.2 34.09 420.28 38.89 422.07 40.36 424.56 41.32 427.22 41.54 430.04 41.37 433.43 40.85 436.31 40.68 438.83 40.9 442.89 41.78 447.2 42.84 450.12 43.72 452.99 44.17 455.6 44.04 457.52 43.64 459.21 42.81 465.06 38.97 469.35 36.61 471.87 35.74 474.04 35.34 477 35.01 481.48 35.03 485.54 35.71 488.72 36.82 493.9 38.39 497.38 39.35 507.54 42.37 510.81 43.09 516.04 43.84 519.57 44.6 524.49 45.08 527.45 44.72 530.23 43.88 537.37 42.21 540.11 41.42 542.5 41.33 544.81 41.74 547.82 42.85 556.02 46.08 558.07 46.5 563.94 45.92 568.6 45.58 573.51 44.93 579.09 46.46 581.49 47.58 584.24 47.99 589.87 46.82 593.61 46.16 597.16 45.34 604.05 43.87 606.99 43.3 609.16 42.61 611.34 41.6 613.2 40.15 616.03 37.39 619.04 34.7 621.52 32.9 623.55 31.09 625.59 30.01 628.21 29.55 630.8 29.78 634.5 30.79 638.22 32.32 643.22 34.25 646.25 35.82 648.22 37.04 651.5 40.65 653.34 43.15 657.71 49.46 662.69 56.1 667.54 61.6 670.86 64.45 675.62 69.96 677.28 71.7 677.92 73.69 678.65 76.67 668.73 79.12 670.29 81.81 669.75 86.96 666.44 93.81 665.1 96.73 664.73 100.55 666.11 102.63 668.45 102.97 674.57 98.91 677.75 96.55 683.09 94.78 685.31 94.21 696.01 97.3 697.96 98.97 707.51 112.85 710.92 119.1 719.37 129.82 715.97 139.27 715.58 147.42 716.23 150.78 717.84 152.92 725.54 158.16 732.32 165.92 740.94 170.33 745.13 174.33 748.65 201.2 752.08 209.41 757.47 213.81 768.77 219.47 779.04 220.73 785.4 224.1 793.05 225.75 795.6 227.57 799 230.24 794.31 238.3 794.19 242.83 792.07 248.56 790.36 252.25 790.07 256.26 792.04 257.88 Z"/>
</g>
</svg>