<?xml version="1.0"?>
<svg xmlns="http://www.w3.org/2000/svg" version="1.2" baseProfile="tiny" width="800" height="610" viewBox="0 0 800 610" stroke-linecap="round" stroke-linejoin="round">
<g id="4200804">
<path d="M 766.68 342.95 697.54 366.9 714.93 435.71 683.58 424.31 641.9 417.66 651.39 452.69 547.23 474.01 548.89 480.79 452.62 500.49 440.51 504.49 438.03 502.81 432.7 502.9 426.3 501.42 422.1 500.22 417.74 495.57 414.53 494.07 411.85 493.76 408.66 490.66 406.88 487.71 403.74 486.77 389.49 497.94 334.3 540.01 293.65 570.58 269.82 589.01 243.86 609 242.24 604.81 240.73 602.37 236.69 597.39 234.76 594.19 230.44 592.37 227.52 592.05 226.25 594.05 222.51 592 222.26 589.95 203.08 568.04 228.14 512.71 194.66 495.51 193.58 496.7 171.87 485.58 130.97 549.04 129.87 549.26 121.75 553.51 114.77 558.7 114.42 562.73 114.97 569.22 116.08 579.53 116.73 581.74 115.78 585.55 112.98 585.27 106.26 579.15 102.6 576.12 98.56 573.56 91.7 570.71 89.02 567.83 87.67 565.57 88.61 562.15 92.53 555.41 94.2 551.47 97.22 546.25 99.68 540.8 100.71 537.66 101.04 525.26 101 520.48 101.8 517.29 109.72 511.07 113.92 505.9 116.92 503.17 119.75 501.31 120.62 498.94 120.57 496.21 119.52 490.85 117.44 483.87 114.41 479.83 109.2 477.98 104.31 478.89 102.67 480.13 97.36 482.08 89.63 483.98 86.52 485.34 82.89 487.39 81.09 494.53 79.16 505.61 77.98 508.27 76.49 509.86 73.47 511.75 70.6 511.73 60.29 507.39 57.26 504.72 54.71 503.54 52.49 500.87 48.53 497.24 45.1 497.07 42.45 498.11 38.86 498.61 36.02 498.34 33.7 497.38 28.66 493.57 26.47 490.49 24.43 486.6 22.78 480.75 22.62 478.32 25.16 476.59 26.49 476.82 30.94 479.21 37.99 484.87 44.85 488.92 47.72 489.95 50.17 490.04 56.77 489.38 60.34 488.59 63.55 487.47 68.11 484.44 70.16 482.18 75.62 470.99 79.19 466.87 81.27 465.53 83.29 464.97 91.12 463.49 99.01 461.72 102.24 460.65 105.38 458.34 106.19 455.44 105.87 453.13 104.7 450.4 103.15 448.64 94.13 442.86 93.2 442.47 84.5 441.51 79.73 440.21 77.31 438.31 74.7 435.15 72.86 431.96 68.52 427.86 62.49 419.61 60.22 416.84 57.04 414.92 52.6 413.59 50.49 412.42 49.03 412.75 45.95 414.82 41.01 418.72 34.94 422.64 30.49 424.45 24.11 424.96 20.96 424.62 16.63 423.19 14.21 421.63 12.93 418.96 10.47 410.16 10.83 408.43 12.65 406.42 15.98 404.46 22.16 399.87 31.28 390.62 34.67 386.9 35.83 384.83 36 381.15 34.93 379.45 32.61 378.5 28.47 379.35 19.17 380.07 12.69 379.8 8.07 379.09 4.15 378.12 1.47 376.01 1 374.8 1.16 370.58 2.13 368.63 5.13 364.78 8.94 361.74 11.26 360.56 13.77 360.11 16.8 359.88 26.97 360.1 32.19 359.63 36.23 358.59 38.63 357.02 42.03 352.63 45.74 351.11 49.44 350.15 52.98 349.97 56.25 351.26 60.3 359.47 62.23 361.48 65.2 362.5 77.45 365.42 80.59 367 81.3 368.73 83.2 368.97 95.34 359.93 97.14 357.62 99.63 355.8 101.83 354.76 108.56 354.33 115.02 353.07 117.81 352.27 121.31 350.18 124.71 346.41 124.44 343.33 123.47 342.15 120.46 340.38 117.63 339.95 103.29 341.36 100.05 340.62 94.66 337.92 86.52 334.32 83.08 332.16 67.44 323.85 61.39 322.5 57.22 321.31 51 318.74 49.72 316.94 49.47 312.02 49.7 304.38 49.4 301.49 50.29 296.35 51.35 294.68 53.79 294.03 57 294.6 63.3 297.45 69.38 299.68 75.9 301.39 88.85 303.85 92.4 304.84 98.88 309.41 100.7 310.95 103.09 311.5 111.5 305.23 114.69 303.56 116.64 301.26 117.94 298.02 118.21 293.79 117.85 289.65 117.73 282.56 118.13 278.27 124.13 268.06 126.29 265.3 128.88 264.7 129.51 262.84 129.42 260.38 127.96 257.72 123.2 252.42 119.12 247.12 116.93 242.42 115.73 240.92 115.2 238.5 117.44 236.46 123.65 237.82 126.17 237.57 130.01 236.55 134.41 237.48 147.55 241.94 152.07 244.46 153.46 245.78 157.98 251.38 159.12 255.01 158.71 257.72 156.66 260.23 151.01 265.28 149.54 266.09 149 268.52 151.49 270.72 157.09 270.93 165.44 272.14 168.9 273.03 176.39 277.96 180.57 281.44 187.86 285.43 192.05 285.95 194.01 284.12 194.54 282.11 193.95 280.64 191.18 276.27 188.96 271.83 186.73 265.87 186.72 263.62 187.53 261.8 189.98 259.11 190.19 257.78 193.62 258.28 199.39 260.93 202.22 263.17 205.07 268.13 206.45 273.45 208.05 275.95 210.77 277.59 212.62 277.1 212.51 271.47 210.25 264.35 209.79 260.33 211.82 251.65 212.02 248.41 213.98 236.57 215.63 235.09 217.23 234.92 223.26 236.95 226.37 237.36 228.51 238.55 230.55 241.15 229.94 243.37 230.24 244.87 231.96 246.74 235.79 246.91 243.21 245.14 246.35 244.84 249.27 245.85 253.56 245.54 256.1 244.39 257.25 243.16 259.98 238.58 263.87 237.72 265.33 238.38 270.16 239.09 273.29 239.11 276.38 238.29 279.02 238.21 282.25 239.87 283.71 241.64 284.19 243.62 286.44 246.77 289.55 248.49 293.14 247.56 297.44 243.54 300.4 240.03 302.77 233.2 303.38 230.4 306.34 225.69 308.34 224.56 310.92 224.73 313.87 226.69 317.71 232.17 319.34 233.2 321.24 233.14 322.07 230.86 320.98 225.76 321.09 224.23 322.95 222.62 326.15 223.01 330.21 225.32 333.96 224.86 336.52 222.45 337.15 218.96 336.68 216.37 338.21 213.79 340.66 213.18 348.18 213.92 350.32 213.43 355.96 210 358.08 208.36 359.94 205.79 362.99 205.08 364.17 205.66 367.98 209.22 370.32 210.45 374.14 210.75 376.28 210.41 380.41 211.21 383.2 210.37 384.44 208.91 384.54 207.22 382.35 204.06 380.73 202.98 380.08 200.59 377.33 197.7 373.88 197.34 369.85 197.41 367.16 196.43 363.77 196.07 357.07 194.9 349.92 190.94 347.57 188.63 346.15 188.6 345.35 185.31 346.93 183.63 351.5 183.19 356.58 183.34 358.97 182.75 360.32 181.23 363.02 180.74 363.92 179.8 363.09 177.24 357.67 172.08 356.63 170.6 352.47 168.21 350.31 166.33 348.15 161.37 346.4 159.12 345.16 156.39 346.79 154.17 349.67 153.54 354.13 154.1 359.26 154.12 361.18 153.03 364.91 152.94 366.66 153.55 375.63 159.73 377.96 159.67 381.2 157.94 381.86 154.8 380.23 151.72 380.48 149.87 382.57 148.42 386.87 148.82 390.45 150.94 392.53 151.09 394.29 148.57 393.58 141.49 394.33 136.23 394.18 134.34 393 131.93 387.75 127.55 386.88 126.07 386.92 123.45 387.69 122.19 393.65 117.07 395.97 116.3 398.07 117.69 402.78 121.83 403.53 123.05 408.2 128.68 413.51 132.2 418.77 133.32 421.86 133.18 424.02 131.32 423.39 128.5 419.97 123.38 419.15 120.06 419.92 116.43 421.99 115.82 423.78 116.33 425.56 118.31 426.38 121.66 428.51 122.28 430.67 121.55 433.38 117.55 435.03 115.77 437.46 114.44 442.13 114.13 445.42 112.24 446.9 110.19 448.35 106.93 448.94 103.57 449.89 102.56 451.79 97.66 451.4 95.05 446.56 90.51 443.01 88.71 442.67 86.66 444.45 85.53 449.5 85.89 453.12 84.39 454.44 83.15 455.73 79.18 455.29 76.95 456.42 74.16 459.7 73.71 460.55 74.52 462.94 80.14 466.04 83.97 466.13 86.36 465.22 91.57 464.59 93.27 464.99 95.07 466.77 96.67 468.46 96.18 472.12 92.26 476.34 90.08 478.57 90.1 481.34 89.45 484.32 87.95 485.4 84.98 484.99 81.64 483.91 79.42 481.94 79.1 479.62 76.67 478.24 74.18 477.82 71.79 478.47 70.54 481.31 69.99 484.66 71.43 487.07 70.13 485.78 65.9 486.05 63.13 487.16 61.6 490.37 60.83 495.13 63.4 497.69 62.77 497.71 60.57 495.86 56.02 497.89 53.02 502.21 51.21 509.77 50.15 512.24 49.39 513.34 51.47 511.44 54.47 505.48 60.99 501.39 65.79 501.88 68.1 503.65 69.43 506.66 70.31 508.16 69.06 509.81 69.34 511.74 72.62 512.51 77.57 514.44 83.93 514.71 86.27 516.55 87.89 520.94 89.53 526.3 89.55 528.93 89.9 535.34 91.38 536.33 90.62 535.63 86.77 537.44 83.9 539.26 83.3 540.82 83.8 547.59 84.22 549.45 83.4 548.58 81.59 542.59 77.44 541.21 76.84 540.82 75.31 545.85 69.9 547.2 68.84 551.16 68.26 552.35 67.51 552.22 64.93 548.7 62.76 547.78 60.87 545.34 58.8 544.85 57.53 545.51 55.13 548.26 50.27 551.33 47.73 557.34 46.72 563.18 44.41 567.66 43.69 570.2 45.7 572.51 46.27 576.81 46.5 577.57 50.64 576.44 52.76 577.15 54.13 581.46 57.08 587.03 59.64 590.51 60.24 592.22 59.88 594.71 57.79 599.77 50.6 599.51 49.68 592.9 45.86 591.42 43.44 592.31 41.94 596.01 42.04 599.45 40.88 603.59 33.27 607.63 28.07 609.86 27.35 613.96 30.5 616.47 31.57 618.99 32.06 619.92 33.42 621.24 33.38 622.45 37.06 625.51 36.36 626.6 37.2 628.45 37.1 631.26 33.69 633.94 34.31 635.88 33.33 636.53 31.59 638.18 30.73 638.84 26.78 640.27 25.88 642.68 27.56 645.2 28.2 647.91 27.06 651.37 27.34 654.03 25.68 656.41 25.43 658.97 26.95 662.76 27.76 671.69 28.12 674.21 27.06 675.73 23.55 676.55 19.66 678.83 17.75 679.41 16.33 678.98 12.78 680.68 12.15 683.14 12.6 683.69 13.93 683.48 16.94 684.14 18.16 687.92 17.6 692.93 19.26 696.52 19.84 699.01 20.66 700.87 20.15 705.49 16.03 704.84 14.88 701.26 15.12 700.17 14.47 699.63 10.1 702.24 1.09 704 1 704.31 5.01 707.04 9.55 711.53 14.27 712.82 14.86 714.48 13.94 715.04 12.1 715.15 9.12 718.5 7.73 719.45 8.6 722.01 14.95 726.18 18.32 728.65 18.93 731.27 16.97 731.08 14.16 731.46 11.98 734.52 11.36 735.87 14.12 737.3 15.3 739.83 15.92 743.2 15.37 748.92 17.57 753.07 20.05 757.7 23.2 762.78 28.43 766.57 34.33 766.4 42.03 763.83 48.03 764.96 50.06 766.92 51.6 771.37 57.58 779.84 63.37 784.35 64.59 785.64 65.64 786.19 68.74 783.34 72.74 783.54 74.46 786.06 78.61 787.54 83.41 787.25 85.81 787.7 87.53 789.2 89 790.65 91.71 791.57 94.58 794.59 99.71 794.91 102.7 796.5 106.2 796.51 114.69 797.39 117.17 797.37 121.51 798.31 123.77 797.6 125.4 799 128.12 797.96 129.18 798.44 130.59 797.82 132.45 798.27 134.37 795.62 137.03 794.87 138.7 794.99 141.06 794.41 143.65 794.79 145.48 793.64 147.54 794.15 151.13 793 156.09 790.01 159.94 788.5 160.94 786.38 164.74 786.27 166.31 785.16 167.75 784.43 170.24 782.59 169.76 781.54 170.74 781.47 175.13 778.89 178.17 778.07 180.11 775.98 181.15 774.81 182.72 773.08 183.01 769.76 187.21 767.66 189.4 763.49 192.57 759.26 193.35 755.78 194.41 754.06 195.68 751.93 198.93 751.71 200.52 752.53 203.94 754.32 206.78 753.09 209.53 753.34 211.12 752.29 215.02 749.99 216.9 749.17 219.32 749.57 220.15 753.87 222.13 755.82 225.17 755.08 226.29 751.54 226.81 750.9 227.56 752.61 230.48 752.14 232.6 747.39 233.73 746.86 234.72 748.3 240.54 748.1 242.22 743.38 242.38 738.95 243.03 737.44 243.72 737.18 245.07 738.47 249.43 739.58 251.28 744.59 256.03 748.78 261.14 750.66 262.92 754.56 265.12 756 265.51 764.81 266.52 768.18 268.7 768.28 269.72 764.19 271.61 761.43 275.35 761.13 279.45 760.22 282.47 757.64 284.5 755.04 284.21 752.88 282.78 751.56 280.87 745.45 274.12 743.7 274.23 740.93 277.29 739.79 283.19 736.38 288 734.02 290.38 734.79 292.57 736.8 292.43 740.11 293.59 741.33 296.31 740.83 301.22 738.25 305.59 737.69 307.16 739.01 309 741.25 309.26 745.98 308.8 752.31 307.25 759.27 305.16 762.75 305.13 765.81 308.55 767.68 312.79 767.81 315.91 766.08 319.27 765.8 322.9 766.75 325.29 771.3 327.02 774.83 329.63 773.68 331.9 771.27 331.56 767.62 332.05 762.46 331.45 759.13 332.08 759.7 335.51 762.05 338.69 766.68 342.95 Z"/>
</g>
</svg>