<?xml version="1.0"?>
<svg xmlns="http://www.w3.org/2000/svg" version="1.2" baseProfile="tiny" width="800" height="449" viewBox="0 0 800 449" stroke-linecap="round" stroke-linejoin="round">
<g id="4200903">
<path d="M 750.02 39.61 749.43 41.2 749.88 42.4 748.94 43.43 747.14 43.43 745.3 45.19 745.19 46.84 747.03 50.44 746.99 51.72 747.67 52.32 749.17 52.36 751.61 54.01 754.01 54.42 756 55.66 757.35 55.55 758.78 53.26 761.26 51.04 762.54 51.57 763.06 52.43 763.55 55.4 765.2 55.85 769.07 57.27 770.53 58.14 771.7 58.32 773.28 57.46 774.78 55.06 777.78 53.71 779.32 52.43 781.79 53.2 783.23 55.66 782.81 56.86 781.43 57.35 781.31 58.93 783.15 61.61 782.66 64.78 782.89 68.42 783.6 69.28 786.19 69.81 789.61 71.12 792.62 75.17 793.55 75.7 796.45 75.29 797.57 75.66 798.74 78.25 799 80.2 798.89 82.98 798.14 86.47 796.9 88.76 795.09 91.01 792.8 93.26 792.24 97.91 791.68 99.19 791.83 100.95 791.04 103.58 792.84 105.6 793.25 106.51 793.22 108.27 790.63 110.11 790.21 111.35 790.59 112.85 790.1 114.42 788.97 115.62 786.12 116.19 785.37 116.71 783.94 118.63 782.55 119.15 782.14 119.9 782.51 123.2 784.65 125.27 784.58 126.24 782.85 126.62 782.06 128.61 783.72 129.02 785.22 130.22 785.29 131.08 784.28 131.91 783.64 133.86 780.22 134.84 779.55 135.96 779.17 138.36 779.25 142.6 777.29 145.53 776.99 146.51 776.81 149.54 777.07 151.65 775.72 154.35 775.23 157.16 774.06 158.33 771.89 158.85 771.42 159.51 772.15 161.37 771.1 163.43 768.66 164.59 767.87 166.17 766.44 166.54 764.86 166.51 764 168.23 764.23 170.6 762.54 172.58 761.9 173.71 762.09 175.29 760.88 180.31 760.06 182.08 758.02 185.28 758.03 187.37 759.01 188.72 758.9 192.55 757.28 193.6 754.97 195.73 753.79 197.84 752.13 197.69 749.17 198.96 746.61 201.07 745.75 202.3 745.15 205.16 742.22 207.59 741.36 209.28 742.22 212.1 741.66 215.02 742.45 217.13 744.17 218.1 744.96 220.05 747.03 220.69 747.44 223.09 749.47 226.99 750.52 228.08 751.04 231.76 750.44 233.37 749.28 234.99 747.89 236.04 744.88 239.83 745.67 241.14 746.43 244.29 746.09 245.87 747.49 247.65 748.79 249.1 749.05 250.07 747.96 251.84 746.95 252.32 745.62 253.79 742.78 255.85 742.78 256.3 744.96 256.53 745.9 257.58 745.79 259.41 746.46 260.5 745.86 262.53 743.68 264.37 742.93 265.91 742.71 267.44 740.87 268.42 740.68 270.48 739.85 272.17 735.57 273.04 734.93 273.52 734.9 274.87 735.61 276.83 736.36 277.73 737.04 279.57 740.83 280.58 743.42 280.5 744.74 281.93 745.07 283.88 743.61 285.57 743.35 287.07 742.41 288.68 740.79 289.91 739.29 289.98 737.07 291.11 734.03 297.42 734.22 303.24 733.47 304.93 732.3 305.08 730.8 304.21 728.96 304.55 727.83 305.64 727.21 307.74 724.97 308 724 307.74 721.33 308.79 717.98 308.68 716.28 309.25 717.01 312.92 716.55 315.14 717.38 318.14 717.98 322.09 718.77 323.4 718.92 324.98 718.32 325.73 714.07 327.45 712.16 328.69 711.37 329.71 710.69 331.85 709.41 334.4 708.32 335.87 706.52 336.69 704.08 336.47 702.46 336.58 700.36 337.18 698.33 336.58 696.83 336.99 695.66 338.79 694.42 339.43 693.37 339.4 691.23 340.52 689.01 342.25 687.21 344.54 685.55 345.18 684.9 345.04 683.82 343.71 682.1 343.86 680.22 343.45 678.11 345.03 675.03 343.3 673.64 343.6 672.55 345.07 671.84 351.64 670.47 353.37 670.48 355.47 672.96 357.34 673.26 358.28 672.4 362.6 671.56 363.9 669.69 365.61 667.78 366.51 666.12 368.01 665.6 369.51 666.05 370.9 669.28 371.91 670.3 373.3 670.52 374.92 668.49 377.32 668.04 378.75 668.04 381.53 668.64 383.03 668.98 385.13 673.68 385.77 674.96 386.37 677.4 385.58 678.68 384.68 679.77 384.61 681.16 386.07 682.32 386.52 686.42 389.11 687.06 391.51 688.18 393.96 687.62 395.08 686.23 395.68 685.82 396.88 684.46 398.58 683.13 399.35 682.15 398.34 678.43 398.88 675.86 397.91 672.83 399.2 671.4 400.7 670.22 401.41 668.76 404.34 666.29 406.44 665.54 409.22 664.51 410.22 662.58 409.83 660.15 410.08 659.37 410.72 657.51 411.19 655.08 414.36 654.62 415.47 654.26 417.72 652.87 418.36 650.01 417.75 648.87 418.04 646.3 417 644.65 416.75 643.69 417.47 641.55 418.07 640.08 416.47 638.99 416.79 636.61 415.64 634.09 412.64 632.66 408.51 631.8 406.67 630.75 405.5 628.57 404.15 624.66 402.01 621.88 399.83 619.96 399.34 619.06 399.87 618.19 403.47 617.52 404.3 615.6 404.75 614.3 403.37 612.4 403.53 610.36 404.56 609.7 406.25 608.64 408.05 606.97 409.11 605.8 408.52 603.04 409.13 601.96 411.36 599.99 413.11 598.9 412.55 597.63 412.5 597.24 411.8 597.55 410.61 597.3 407.06 589.08 408.61 581.57 398.39 579.14 399.29 577.16 398.17 576.51 399.15 577.46 399.99 576.31 400.78 575.79 399.65 574.23 399.19 573.18 397.89 572.21 397.75 570.84 396.89 570.11 399.68 568.27 400.6 566.95 401.89 563.8 402.68 563.14 404.25 561.06 405.42 558.1 407.59 557.1 407.96 554.08 407.91 552.68 407.12 552.43 405.79 553.86 404.91 554.59 403.99 553.88 403.41 552.99 401.23 551.61 400.85 551.06 398.58 548.78 396.47 548.5 395.15 548.96 394.26 550.31 393.26 551.92 389.88 433.18 448 398.54 392.34 390.98 358.96 379.73 309.29 293.31 342.21 290.64 340.31 289.91 338.91 289.08 338.42 288.34 335 285.31 332.75 282.56 332.14 280.26 330.9 279.36 329.98 279.89 324.85 278.87 323.34 278.79 322.32 277.67 320.93 276.29 318.28 276.11 316.52 274.46 313.71 274.23 310.85 273.57 310.33 273.06 308.33 273.61 306.66 273.01 303.98 273.45 303.05 272.55 302.64 271.78 303.56 270.99 306.46 268.5 310.47 265.8 311.51 263.73 311.99 262.15 313.93 261.95 316.41 262.18 317.91 264.27 321 264.36 323.5 262.67 325.08 260.22 326.37 257.65 325.96 255.96 324.73 253.04 324.74 251.54 326.95 248.84 327.34 247.3 327.79 243.39 326.7 241.63 326.7 240.06 327.06 239.92 324.53 238.61 322.62 236.37 322.31 236 321.85 232.53 321.61 230.34 320.87 228.31 319.74 224.49 319.74 222.49 319.09 220.29 319.24 219.3 319.62 217.07 321.12 214.73 322.4 212.01 322.49 210.93 323.11 209.01 325.27 206.99 326.27 203.71 326.18 202.4 325.25 201.49 324.14 198.9 325.01 196.94 325.03 193.95 326.41 193.12 328.08 191.98 329.12 188.51 331.72 186.18 332.7 185.01 330.73 181.46 328.73 179.6 327.31 178.18 325.19 177.69 322.88 176.36 321.42 175.07 321.42 172.58 322.26 171.07 323.37 167.39 328.02 163.93 328.82 161.22 331.22 159.49 331.93 155.72 331.48 152.3 331.66 150.26 332.02 147.59 334.06 146.39 335.56 143.78 337.6 141.29 339.11 139.96 340.22 136.76 342.44 135.56 344.04 134.68 344.52 131.13 343.5 130.1 344.48 131.3 346.43 131.08 347.54 129.57 348.07 126.15 349.67 124.69 351.89 123.8 354.41 122.74 356.63 121.4 358.63 120.47 361.87 120.16 364.62 120.29 366.21 121.72 369.27 121.94 373.44 122.47 374.46 124.02 375.44 124.6 376.95 124.6 378.72 125.18 383.11 126.33 384.62 126.2 386.21 124.78 389.01 122.65 390.56 120.78 393.8 120.65 394.95 121.45 397.26 121.27 398.94 117.89 405.16 115.16 404.51 112.48 403.15 109.69 400.14 107.5 398.86 104.59 399.08 102.47 399.01 100.86 398.16 99.37 396.62 95.81 396.47 93.98 395.45 93.2 394.52 92.08 393.98 90.68 392.34 90.34 391.03 90.24 387.64 89.88 386.46 89.01 385.34 88.32 385.25 86.32 385.92 84.41 387.47 82.74 386.81 79.98 383.93 78.9 382.44 77.68 381.42 76.56 379.62 76.21 377.09 75.24 375.45 75.22 374.12 74.13 371.64 73.46 367.15 70.56 361.16 69.46 359.2 68.23 357.88 67.77 356.58 67.82 353.57 65.67 350.5 64.81 349.6 62.1 347.57 59.08 344.46 58.33 344.28 54.95 345.8 52.31 346.73 50.86 346.71 48.08 345.78 46.47 344.61 44.02 342.05 43.56 340.94 43.36 338.98 42.22 337.42 39.65 335.73 38.92 334.84 38.9 333.05 38.22 332.38 36.16 331.51 36.11 330.15 34.86 327.98 32.11 327.38 28.82 325.33 27.93 323.9 26.8 321.23 26.43 319.3 25 318.27 24.23 316.54 22.68 314.2 23.01 312.23 23.78 311.04 24.86 310.23 26.67 305.85 27.54 304.45 28.47 301.82 27.76 299.82 25.91 297.75 23.56 295.72 22.4 295.4 19.57 295.85 16.37 294.98 13.23 294.7 7.48 292.38 6.23 291.59 4.31 289.53 3.53 288.16 1.33 282.24 1 280.15 1.6 275.39 3 272.91 6.08 269.75 7.4 268.77 8.42 267.18 9.93 266.29 12.52 261.27 12.59 260.02 10.94 257.59 11.07 256.59 12.51 255.46 13.8 252.17 15.62 248.71 16.08 246.7 15.6 244.13 14.55 242.88 12.49 242.16 11.94 240.89 12.47 238.28 12.07 234.7 11.17 233.49 7.92 231.67 7.2 230.3 6.64 224.1 7.14 222.87 10.52 222.38 11.22 221.25 10.77 219.95 9.58 218.39 9.62 216.83 10.34 214.62 11.26 213.66 12.89 212.98 13.08 207.46 12.71 204.86 13.06 202.97 13.76 201.81 15.7 199.49 19 197.47 20.93 195.23 22.05 192.82 22.02 190.19 23.49 188.52 24.34 187.1 26.13 185.85 27.39 186.21 28.88 186.09 30.29 184.62 30.73 183.64 30.3 181.01 29.84 179.77 30.75 177.3 32.26 176.57 32.68 175.92 32.69 173.93 31.97 173.18 31.49 171.77 31.27 169.35 31.83 167.73 36.21 163.38 36.64 162.55 36.44 161.1 36.6 159.18 37.36 156.78 37.55 155.32 37.25 153.35 38.5 151.69 38.59 150.49 37.31 147.78 37.31 145.78 37.82 145.17 40.32 144.55 42.94 144.34 44.83 141.34 45.12 139.35 44.81 137.86 43.75 136.11 43.3 134.47 43.92 133.24 47.41 132.8 47.8 131.95 47.18 131.3 44.11 129.59 44.46 128.53 46.35 128.82 48.67 128.82 50.28 129.53 53.42 129.16 55.5 128.5 56.81 127.72 58.5 127.7 58.99 126.8 60.24 125.79 60.45 124.68 62.12 123.83 62.97 122.75 64.34 121.78 66.2 119.18 68.81 117.31 69.69 115.38 71.84 113.96 74.25 112.78 75.04 110.39 75.92 109.76 79.71 110.2 81.32 109.81 83.12 108.14 83.31 107.37 82.57 106.04 82.73 104.94 84.04 104.44 84.96 104.74 89.37 104.67 90.05 104.91 90.96 108.45 90.61 109.97 92.33 111.73 93.18 111.73 94.81 110.73 95.71 110.81 97.3 112.22 97.91 113.47 99.18 113.83 100.98 112.17 102.36 112.26 102.57 113.92 103.46 114.7 105.33 114.86 106.33 114.03 107.33 113.85 108.55 115.59 108.66 117.07 107.83 118.88 108.34 119.74 109.63 120.31 110.18 121.25 111.58 122.19 112.27 123.68 113.72 123.17 114.95 124.05 117.08 122.75 118.4 122.55 122.54 123.11 124.39 123.69 125.62 123 128.56 122.22 130.64 122.79 131.81 123.84 132.95 122.91 134.53 122.83 135.86 121.94 137.03 122.08 138.94 121.59 143.11 122.08 144.54 121.53 145.96 120.11 147.11 119.65 148.03 117.97 148.88 117.68 150.2 118.19 152.06 116.08 152.98 116.03 153.98 117.69 154.53 119.67 156.97 121.12 159.64 121.68 161.21 121.58 161.75 123.35 163.51 124.25 164.86 126.05 167.03 126.57 168.59 126.6 170.26 127.74 172.44 128 177.02 130.3 177.84 130.35 181.75 129.25 181.6 127.97 182.03 126.78 183.69 126.35 185 124.68 186.33 124.69 187.62 123.46 189.17 123.21 191.21 121.37 192.81 120.57 193.35 119.04 195.49 117.05 196.06 115.76 195.94 114.24 196.59 111.57 197.31 109.7 201.86 107.54 205.47 107.43 207.17 107.75 213.16 106.71 216.14 108.47 220.41 108.36 224.75 109.47 226.98 110.28 230.73 108.62 232.22 107.35 232.83 105.16 233.52 104.62 236.78 104.05 240.94 104.14 243.3 103.99 244.87 104.31 245.99 105.42 248.17 106.05 251.61 108.48 253.87 108.5 255.19 110.66 257.85 112.98 260.73 116.66 262.86 117.3 264.69 116.95 265.44 117.65 265.28 119.49 267.8 121.05 268.85 122.67 270.28 123.78 271.19 125 276.27 125.33 278.12 124.99 279.33 124.17 281.46 125.34 283.66 124.06 286.73 123.38 287.73 122.78 290.43 123.94 293.1 124.83 294.91 127.34 296.73 128.4 299.42 128.48 300.29 128.08 301.03 126.89 302.08 126.21 304.02 125.89 305.86 126.38 308.53 124.28 308.95 121.75 307.8 118.28 307.97 117.75 309.74 116.13 310.34 114.13 309.78 112.23 311.58 111.17 313.65 109.52 313.94 107.59 314.83 105.31 314.51 103.82 314.85 102.81 316.69 101.89 320.25 100.88 323.52 101.64 325.07 100.22 325.05 96.8 326.09 95.58 327.19 95.2 328.24 93.8 331.18 93.37 333.47 93.89 337.18 92.53 339.9 92.65 343.71 91.85 344.13 91.22 344.79 88.6 345.7 88.03 347.47 88.56 347.95 89.27 347.81 92.84 348.04 94.26 349.12 94.83 350.67 94.95 352.34 93.78 354.79 92.87 356.77 93.42 358.92 91.55 360.03 91.45 359.55 86.29 360.55 85.23 363.12 83.29 363.8 82.1 363.24 80.09 363.43 79.22 365.85 76.44 365.59 74.48 365.76 73.2 365.61 70.87 366.27 66.82 368.14 64.79 368.7 62.68 368.52 59.68 369.29 58.24 372.16 57.66 374.12 58.03 376.48 57.5 378.2 55.46 379.48 55.09 380.92 53.55 383.09 48.97 385.18 48.58 386.97 49.02 388.18 47.81 387.82 45.41 388.05 44.12 389.95 42.25 391.88 41.37 392.78 40.22 392.61 36.47 393.87 35.11 394.59 33.82 394.09 32.29 392.4 31.13 392.28 29.42 394.26 26.83 397.2 24.85 400.11 24.67 401.45 22.28 401.81 20.78 402.67 20.64 405.3 22.11 407.02 21.58 409.54 21.57 410.39 21.85 410.95 22.86 412.08 23.36 412.88 23.07 412.87 20.81 414.3 18.62 414.9 16.34 416.11 14.84 418.13 14.15 421.67 13.59 423.34 12.36 423.62 10.22 426.18 7.13 427.19 6.9 432.34 8.14 434.2 9.06 436.95 10.02 437.41 10.56 437.73 12.29 439.49 13.87 444.4 15.53 446.93 16.63 448.54 16.9 450.29 16.31 451.61 14.31 452.21 13.88 457.06 12.12 458.28 11.08 460.56 7.24 462.1 2.81 463.97 1.79 469.45 2.19 471.54 3.23 472.39 3.24 474.52 1.16 476.2 1 481.36 2.47 482 3.01 482.3 5.68 482.21 8.2 480.93 10 480.59 11.41 479.75 11.76 477.55 11.74 475.28 13.6 472.55 14.37 470.28 16.56 467.76 21.67 466.44 22.24 466.77 25.24 467.33 26.23 467 27.85 468.76 30.16 470.71 30.84 473.22 30.62 474.06 31.3 475.85 31.29 478.44 30.92 480.13 31.14 481.46 33.6 480.68 34.09 479.51 35.74 478.35 38.22 479 39.24 479.31 41.23 480.27 41.09 480.66 39.51 481.89 39.32 482.18 40.31 484.18 41.1 485.05 40.99 487.26 39.85 488.58 37.58 490.16 37.9 490.12 41.59 489.39 42.86 489.46 44.67 487.39 45.6 486.15 47.23 485.22 49.57 485.31 51.86 485.77 53.75 486.48 55.09 488.94 57.31 489.96 57.72 492.17 57.62 492.56 58.36 493.76 58.87 494.05 59.74 493.02 61.23 493.03 62.44 495.53 64.24 495.66 65.69 496.92 67.99 500.33 69.76 501.42 71.46 501.08 76.61 502.2 78.08 501.56 78.6 499.69 78.47 498.1 79.43 497.37 81.22 497.7 82.2 498.95 82.83 498.47 84.54 499.62 84.98 500.78 86.08 501.61 87.73 503.45 87.2 504.68 85.77 506.29 85.17 509.88 83.05 512.34 82.51 513.79 81.41 515.47 81.1 516.79 80.43 518.61 78.51 519.88 78.15 521.52 79 525.24 80.07 526.73 81.21 529.61 82.69 531.08 83.2 532.45 84.38 533.22 83.85 532.7 82.38 532.67 80.9 533.8 79.21 534.17 77.91 535.94 76.23 539.46 74.12 540.51 74.22 542.61 73.54 545.02 73.44 545.67 72.89 546.83 70.74 550.09 67.91 552.28 65.19 552.33 63.3 550.61 60.84 548.89 60.26 548.27 58.88 550.23 56.7 552.13 56.26 554.99 55.95 557.9 56.37 559.09 55.88 560.15 54.37 562.83 49.33 563.06 46.94 564.4 45.99 565.23 44.47 566.77 43.59 568.29 43.34 570.4 41.36 571.72 38.92 574.3 35.74 575.78 34.59 578.84 32.82 579.67 30.75 579.82 28.87 580.42 27.88 582.38 26.96 583.32 25.9 585.25 24.76 587.32 24.32 588.31 23.72 590.9 21.38 594.63 18.91 596.91 15.12 597.88 14.7 600.19 14.45 603.39 15.42 606.33 15.23 634.91 25.15 636.1 24.04 636.7 22.69 638.19 20.51 640.19 18.58 641.74 17.76 644.24 16.84 645.63 17.51 646.89 17.19 648.54 17.41 650.18 16.3 651.75 13.57 652.55 13.35 655.27 13.35 656.91 12.76 660.79 12.12 662.88 13.07 664.9 13.28 666.31 12.64 670.91 11.64 672 11.73 674.19 11.25 674.89 21.79 750.02 39.61 Z"/>
</g>
</svg>