<?xml version="1.0"?>
<svg xmlns="http://www.w3.org/2000/svg" version="1.2" baseProfile="tiny" width="800" height="699" viewBox="0 0 800 699" stroke-linecap="round" stroke-linejoin="round">
<g id="4200705">
<path d="M 461.73 58.91 461.55 60.46 460.66 63.92 459.95 69.08 460.03 73.52 459.49 76.78 459.55 77.97 460.16 78.67 460.46 80.1 459.98 81.12 458.51 82.69 457.32 85 456.59 85.87 453.68 90.3 451.06 91.78 449.87 93.18 449.61 95.09 450.05 96.04 451.56 97.7 454.7 99.63 456.62 101.94 456.81 102.89 456.51 104.51 455.36 107.16 455.44 108.18 456.33 111.16 456.94 111.83 458.6 112.16 459.27 113.41 458.87 116.31 457.8 118.26 457.63 119.64 458.47 124.13 459.21 125.33 461.52 125.72 463.27 128.14 467.68 130.57 469.1 132.28 470.5 133.17 473.27 133.91 474.45 134.51 476.57 136.85 478.02 138.78 479.53 139.81 483.06 140.31 484.47 141.1 486.03 142.75 488.72 145.2 489.85 146.57 490.92 148.68 491.97 149.96 492.6 152.16 492.29 156.17 492.28 159.03 492.79 163.94 492.59 167.05 492.72 168.63 493.84 171.76 494.44 176.14 496.52 177.17 496.58 178.82 498.09 182.04 498.69 184 498.89 187.04 499.84 188.12 502.85 189.43 504.9 189.94 506.5 190.69 507.83 192.78 508.38 193.07 512 193.57 516.9 196.33 519.88 198.44 522.12 199.15 523.43 199.86 524.71 201.72 527.73 202.91 531.54 203.86 532.94 204.79 534.7 205.27 537.8 204.77 539.59 205.32 541.36 204.76 543.08 204.7 543.86 205.4 544.76 207.15 547.79 210 550.23 211.07 551.68 211.06 552.65 210.58 556.01 210.85 557.42 212.13 560.27 213.3 562.82 213.52 568.37 212.48 571.12 210.91 572.74 209.45 574.32 209.07 575.89 209.31 579.44 210.94 580.83 211.29 584.4 210.9 586.26 211.07 587.14 211.54 589.69 211.84 592.1 211.71 594.08 211.9 595.42 212.52 596.97 212.67 597.94 211.78 598.23 208.71 599.03 207.71 600.95 206.76 602.59 206.4 604.25 206.5 605.8 206.98 606.78 207.74 607.92 209.28 608.87 210.01 612.65 212.03 616.23 212.46 618.8 212.39 620.1 211.76 620.77 210.49 620.97 209.2 623 208.39 624.24 208.24 626.81 208.99 627.86 210.58 629.18 211.06 631.45 210.48 632.9 209.11 633.86 208.93 635.87 209.5 637.45 208.81 638.73 209.38 641.51 208.98 642.96 209.4 644.37 211.15 646.55 212.19 648.14 213.69 649.83 214.24 652.02 214.36 654.44 212.69 655.49 212.51 656.86 213.11 659.91 212.33 663.28 210.22 666.27 207.79 668.6 205.08 669.74 202.67 671.92 201.23 673.38 200.85 675.58 199.58 677.3 198.9 679.57 195.7 679.09 192.44 680.17 195.98 681.19 197.48 683.73 200.02 686.07 200.81 687.32 204.18 688.08 204.75 691.45 205.96 692.36 206.49 693.53 208.23 693.83 210.92 693.87 213.78 694.29 215.35 694.12 217.62 694.97 219.53 698.85 222.26 702.1 222.33 704.32 221.5 706.02 221.77 708.26 223.83 711.36 224.68 714.71 225.99 718.08 227.09 722.17 226.5 723.15 226.9 724.97 229.3 725.88 229.39 727.98 228.35 729.61 228.37 731.9 230.02 733.49 230.47 737.5 229.39 739.73 229.15 741.31 229.53 743.43 230.61 746.3 230.61 748.65 231.42 750.03 231.48 751.49 230.8 752.83 230.59 754.99 229.75 758.8 229.45 759.63 229.68 761.64 231.72 763.72 232.16 765.12 234.09 766.56 238.69 767.05 241.21 768.53 242.91 769.96 245.05 771.82 248.98 775.64 251.64 776.3 252.66 777.82 256.35 779.24 257.54 781.98 258.68 783.12 260.02 783.74 261.74 789.54 270.74 791.64 275.75 792.56 276.85 794.85 278.21 795.78 279.22 796.75 281.05 798.3 282.93 799 285.6 798.73 288.2 797.77 292.49 796.88 294 796.76 295.37 797.69 297.25 798.12 299.66 797.01 304.2 796.03 306.49 793.95 308.34 791.87 309.81 791.09 310.77 789.78 313.36 788.28 314.86 786.08 316.49 779.24 319.85 775.99 323.73 775.51 326.09 774.85 326.94 775.12 328.25 777.51 330.84 779.21 332 780.04 333.98 780.57 336.26 781.44 336.83 785.39 337.43 789.97 337.85 791.18 338.57 791.6 340.69 791.22 341.75 788.53 344.1 784.13 349.48 780.5 351.19 779.66 352.28 779.85 353.65 783.45 358.73 783.57 359.6 782.28 362.89 779.85 364.3 779.32 365.58 780.27 367.59 778.83 372.33 778.03 373.73 775.46 375.78 774.17 377.97 774.63 380.13 774.4 382.18 773.22 386.99 773.98 390.29 772.62 393.39 773.19 394.57 774.25 395.52 774.97 398.05 778.15 401.2 778.57 401.88 778.57 405.63 777.58 408.02 775.88 409.6 775.52 410.32 774.95 411.95 772.81 413.4 772.75 416.52 773.21 419.12 772.46 423.37 771.42 425.51 770.38 430.28 769.28 431.47 766.4 433.66 764.41 436.39 762.66 440 762.56 441.65 763.87 444.79 763.92 445.63 762.97 447.87 761.73 448.96 760.49 450.95 756.51 451.85 754.92 452.04 752.84 453.58 751.69 456.07 749.86 457.09 748.35 458.44 746.52 462.59 745.66 467.65 744.39 470.33 739.59 474.21 734.13 477.88 731.45 478.55 728.27 478.58 725.93 477.83 724.64 476.66 720.79 479.72 718.22 482.06 715.89 484.89 714.23 485.91 713.53 487.42 712.84 492.14 711.62 493.78 708.57 494.67 706.59 496.1 705.42 497.57 702.84 499.15 699.21 499.91 697.91 500.54 696.69 503.12 696.79 505.51 697.34 508.02 697.88 509.24 699.52 511.4 700.42 514.33 701.96 515.07 703.45 516.34 706.43 518.25 708.96 521.16 709.41 522.7 709.48 526.01 710.21 527.8 708.74 529.43 708.34 530.73 708.81 532.71 708.64 533.98 707.79 534.93 707.57 536.22 708.52 538.18 708.64 539.32 707.45 541.26 706.45 544.44 704.07 546.83 702.03 547.57 701.21 549.19 699.15 550.23 698.58 550.94 698.18 552.89 696.32 557.06 695.75 558.88 696.39 560.59 695.99 561.61 694.1 563.2 691.96 563.36 690.23 563 688.2 564.25 687.99 565.67 684.96 569.11 679.57 570.83 676.36 571.08 674.28 570.09 673.46 570.11 671.55 571.27 669.31 571.23 667.71 571.57 664.53 573.13 661.03 576.2 659.86 577.76 659.56 578.71 658.3 584.89 659.37 587.13 660.39 590.09 660.5 592.29 660.09 592.86 657.96 593.24 657.2 594.11 655.46 597.19 654.39 597.95 652.99 598.29 651.77 597.88 648.14 597.37 643.2 597.6 640.55 598.89 639.1 598.52 637.18 599.39 633.92 602.88 631.56 603.11 628.91 602.12 626.32 601.74 622.51 600.53 619.46 600.62 616.32 600.4 610.82 600.24 608.87 600.81 606.79 602.27 605.19 603.97 604.66 604.98 604.29 609.36 603.43 610.79 601.32 612.38 601.34 614.03 602.23 617.34 601.82 618.98 600.8 620.78 599.36 622.64 598.59 623.15 593.84 624.76 591.64 625.03 591 625.5 590.63 627.31 590.71 630.92 589.99 632.69 588.02 634.01 586.59 633.96 584.72 632.91 581.29 632.67 579.72 633.68 578.6 635.69 576.81 638.01 574.69 639.12 570.54 640.5 567.84 641.86 565.94 643.15 562.6 642.35 561.72 641.44 557.81 640.39 554.82 642.73 553.58 643.34 551.72 643.38 549.5 644.78 548.04 644.84 545.53 642.98 543.88 644.63 540.94 646.22 538.9 646.74 534.35 649.43 533.02 649.66 531.18 650.87 529.49 651.52 526.91 652.96 522.83 656.17 522.58 657.12 523.21 658.07 521.02 661.22 519.12 664.73 517.78 666.31 517.21 667.54 518.52 669.35 517.26 671.85 516.37 672.93 515.88 674.34 513.33 676.77 512.19 677.17 510.2 678.99 510.01 680.85 508.72 681.93 506.97 684 506.2 686.77 505.2 689.2 505.38 693.4 502.95 693.03 501.89 692.25 501.27 691.12 500.18 690.84 497.57 691.41 495.32 690.4 493.4 690.62 492.36 691.46 491.93 692.83 489.67 693.53 487.67 693.07 486.15 693.19 484.89 693.88 482.48 696.53 481.02 697.52 479.29 698 473.19 697.8 472.25 697.41 472 696.43 473.19 694.61 472.97 690.39 472.64 689.19 469.82 683.84 465.21 679.55 463.45 678.6 461.98 678.18 459.33 676.73 457.72 675.58 456.92 673.84 457.55 671.59 459.37 669.52 460.34 667.2 458.12 665.06 457.27 662.89 455.15 663.09 454.96 662.44 455.75 659.75 454.48 659.11 452.59 658.95 451.1 657.41 451.01 655.67 450.55 654.58 449.7 654.47 447.36 656.15 443.05 657.07 441.28 657.75 438.5 658.28 437.69 657.91 437.23 655.85 438.38 653.16 443.13 650.48 445.34 647.71 447.21 646.06 447.68 642.41 448.51 641.1 449.69 637.52 449.14 636.32 445.59 635.21 443.87 633.97 442.51 632.32 441.45 630.23 441.88 627.38 443.37 625.27 444.52 622.92 445.84 620.91 445.55 620.16 443.65 619.96 442.6 617.1 441.34 615.81 438.03 614.28 436.22 612.39 434.15 611.22 432.92 609.39 432.61 608.28 433.5 605.29 433.44 604.36 432.43 601.78 430.69 601.15 427.52 601.86 425.18 601.04 423.49 598.45 421.44 597.7 419.16 598.81 415.66 597.53 415.03 596.85 414.81 595.34 413.57 595.02 411.63 596.37 410.12 595.64 409.26 596.1 408.23 597.45 406.91 598 402.99 598.15 401.63 598.87 399.94 601.88 397.27 604.25 395.27 605.55 392.23 606.72 391.24 607.96 390.36 610.7 388.56 612.28 384.73 614.21 380.59 614.13 378.68 613.67 376.62 612.42 372.89 608.47 371.62 607.39 369.58 604.81 368.06 601.49 366.68 597.73 366.21 595.68 362.34 592.73 360.53 590.83 359.95 589.19 359.05 587.95 358.4 585.07 358.61 582.94 353.26 579.58 350.98 578.83 346.37 578.78 345.03 578.51 342.47 577.31 341.5 576 340.57 572.44 339.4 569.49 339.37 567.19 339.01 565.31 339.14 560.88 339.94 558.9 339.16 557.72 338.05 557.44 336.11 557.96 333.49 560.19 331.86 562.4 330.12 563.86 328.28 564.57 326 564.91 321.99 566.56 320.53 567.44 319.28 569 318.2 569.49 315.87 568.68 310.99 569.13 308.89 568.77 307.4 568.83 306.47 568.15 305.33 568 303.97 568.5 302.01 567.26 300.82 566.98 299.4 567.47 296.75 566.47 294.69 566.4 293.93 565.91 292.94 564.07 291.21 563.65 290.13 564.95 287.77 565.4 286.17 564.84 284.16 565.01 283.04 565.48 281.39 567.09 280.38 566.62 280.4 565.64 281.36 561.72 280.71 561.2 282.2 559.48 282.34 557.93 281.37 555.07 280.53 554.1 278.26 553.12 275.63 552.28 275.07 551.41 275.11 549.2 272.73 546.98 272.29 545.84 272.2 544.14 271.51 543.01 269.59 541.26 268.13 539.52 264.81 538.51 263.4 537.78 261.08 537.14 258.17 536.62 255.22 534.48 253.83 532.44 252.82 530.07 251.81 529.1 248.2 528.17 246.55 524.81 245.49 523.6 240.18 522.83 237.37 521.42 233.98 518.18 233.26 516.41 232.03 514.34 229.51 512.69 226.08 511.89 224.8 511.23 222.27 509.26 220.51 508.98 218.28 509.51 215.94 512.36 214.47 512.98 211.58 513.3 209.72 512.78 208.13 510.7 205.33 508.39 199.37 504.91 198.62 504.13 197.27 503.64 195.01 503.39 192.13 501.51 191.01 501.43 188.25 502.07 185.85 501.64 186.25 500.49 187.5 500.25 191.31 498.87 194.39 497.45 196.15 495.8 197.91 493.39 199.9 488.43 200.72 487.08 201.8 486.43 200.45 485.75 198.59 486.97 196.76 486.95 194.73 486.07 193.07 484 189.02 480.11 185.39 478.37 184.64 476.64 182.3 477.03 180.68 476.36 180.98 474.54 177.37 474.31 176.87 473.39 177.92 471.92 178.51 469.98 180.34 468.1 181.08 467.69 183.43 467.48 184.54 466.96 186.97 465.23 189.98 461.17 191.29 458.11 191.12 457.35 188.44 454.93 180.15 449.26 178.93 447.94 176.47 447.69 174.22 446.1 174.03 445.05 172.8 444.48 165.46 440.34 164.33 440.34 162.63 442.4 161.52 443.25 159.12 443.86 157 445.13 155.69 445.27 154.4 445.98 151.76 446.84 147.47 446.34 144.04 444.76 142.33 443.13 140.94 442.93 136.8 444.43 135.17 445.64 133.6 445.8 132.31 445.21 131.07 442.47 129.04 441.16 128.03 441.24 124.97 442.32 121.7 444.3 119.93 445.1 117.84 445.3 116.43 444.66 116.21 443.69 114.53 440.34 113.32 438.5 112.48 435.06 112.27 431.95 111.58 428.23 111.51 426.67 107.39 425.13 106.66 425.1 103.87 426.22 102.42 426.21 100.93 425.5 98.58 425.03 95.51 424.96 92.72 424.31 92.18 423.42 93.28 421.9 94.63 420.89 95.92 418.87 96.22 415.59 93.34 411 91.8 407.31 89.88 403.65 89.54 401.91 88.89 401.19 88.06 399.02 87.87 396.81 85.82 385.5 85.49 384.17 83.12 378.5 83.43 376.67 84.57 375.01 85.14 372.65 85.66 369.19 86.04 368.29 87.79 365.92 90.22 364.18 91.24 363.09 92.82 363.42 93.87 362.57 97.2 361.46 100.04 356.46 101.39 356.8 102.37 356.42 102.46 352.02 101.98 349.29 101.99 347.65 103.23 345.54 104.52 345.12 107.14 345.09 108.49 344.15 111.3 342.95 113.04 341.28 114.2 338.81 115.82 336.92 115.93 336.23 113.25 334.01 113.26 332.6 114.09 330.66 113.79 330 112.14 328.7 108.33 322.78 106.81 321.35 105.3 320.58 100.45 316.34 99.3 314.97 98.52 312.97 97.65 309.39 96.82 308.29 96.05 305.72 96.19 304.52 97.78 301.3 98.02 300.14 97.26 298.12 96.02 295.75 93.06 292.28 92.3 291.01 93.04 289.02 93.14 285.06 92.02 283.01 90.53 281.87 88.46 282.16 86.59 281.45 84.86 279.29 81.62 279.45 78.4 278.84 77.72 278.38 75.65 276.06 73.52 274.16 71.83 273.35 70.65 271.34 70.27 269.75 72.5 267.81 72.37 267.01 70.61 266.41 70.68 264.92 70.02 263.48 70.45 262.31 68.98 259.84 67.17 258.06 67.79 257.33 67.65 256.06 68.18 253.39 67.59 252.11 65 251.33 63.11 248.71 61.91 247.88 58.24 246.74 56.61 246.73 55.41 244.39 54.51 243.34 53.14 240.24 51.76 238.85 51.19 237.09 49.78 236.03 48.91 234.83 47.63 233.97 45.85 234 44.53 231.85 43.08 230.53 40.91 229.74 38.82 228.1 38.14 226.92 39.03 226.01 36.82 223.99 35.4 223.44 33.51 222.04 32.3 220.4 32.66 219.03 31.84 217.88 31.13 215.3 29.94 214.37 29.43 211.83 26.91 212.49 26.08 214.64 24.68 214.8 23.68 213.33 21.33 214.24 20.53 214.07 19.79 212.46 17.47 212.23 14.74 211.38 14.26 209.06 16.26 206.82 15.92 206.19 13.9 204.19 13.24 202.4 11.89 200.06 11.09 196.9 10.1 194.57 8.88 192.38 7.05 190.55 6.6 189.37 6.71 187.58 7.19 186.16 6.85 183.67 9.39 179.97 10.11 177.38 9.58 176.71 7.67 176.89 6.77 176.47 5.29 175.02 2.21 173.68 1.68 172.36 1.5 169.98 1.78 167.89 3.94 164.83 5.46 163.78 5.78 162.97 4.64 162.35 3.89 157.41 2.32 154.28 1 152.77 1.2 151.81 3.7 148.02 4.33 146.3 5.32 145.76 8.57 147.03 9.31 146.83 9.62 145.02 10.36 143.46 10.41 141.39 9.09 138.48 6.71 135.66 3.93 133.45 3.84 132.87 5.58 129.84 7.44 128.27 7.88 125.42 8.46 124.61 11.09 124.51 12.08 123.18 13.18 121 12.95 119.15 9.59 116.4 9.25 115.42 11.15 112.56 11.23 107.25 10.97 106.86 7.99 105.99 7.56 105.31 8.7 104.48 10.18 103.96 10.76 103.27 10.07 102.34 9.91 99.18 9.37 97.66 9.37 94.71 9.75 93.79 11.97 91.04 15.5 88.87 16.74 88.66 19.8 87.11 20.87 87.32 21.41 88.85 22.76 89.2 23.59 88.35 24.49 86.46 26 85.28 27.24 83.61 27.88 81.4 27.12 79.99 27.57 78.93 29.08 79.52 31.92 79.61 33.03 79.14 33.31 77.28 33.16 75.13 32.13 72.07 31.4 71.27 30.63 68.35 31.14 66.17 30.04 63.09 29.21 61.96 29.72 60.09 30.26 59.9 33.68 60.28 34.85 59.62 35.54 58.52 37.62 57.28 40.71 56.33 44.56 55.67 47.54 56.12 49.76 56.82 50.87 56.67 51.76 55.49 52 52.04 51.66 47.33 53.95 45.19 55.55 44.5 58.18 44.45 59.62 43.84 60.96 42.57 62.08 42.02 62.08 40.19 63 38.94 66.3 36.13 67.17 35.03 66.91 31.98 65.94 30.54 66.62 29.69 69.63 28.89 71.85 27.85 76.78 27.13 77.91 26.54 78.52 25.21 79.71 24.87 81.16 22.77 81.69 22.48 81.54 18.78 82.82 18.72 83.35 17.97 86.3 19.76 90.24 20.39 94.09 20.65 95.92 20.14 99.51 20.76 102.92 21.83 103.95 23.12 103.86 24.96 103.29 25.92 102.77 28.05 102.93 29.3 105.45 35.37 107.06 36.62 110.96 37.85 113.76 37.58 115.2 37.22 118.43 35.43 120.43 35.24 122.14 35.56 124.3 36.39 126.61 36.11 128.4 37.01 129.04 38.87 129.08 42.73 133.71 45.15 135.29 46.49 135.96 47.58 137.69 47.27 138.28 48.58 137.87 49.48 136.26 49.23 137.39 51.06 139.42 50.35 140.53 50.73 140.94 53.2 142.44 55.2 144.25 57.01 144.93 56.85 145.77 55.61 146.99 54.64 147.92 53.17 146.24 51.2 146.25 48.87 147.34 48.26 148.27 48.71 149.83 48.58 152.02 49.87 152.53 51.52 153.52 52.28 156.78 52.73 157.54 54.28 159.64 56.36 160.05 57.7 161.68 58.18 162.56 58.91 163.94 59.08 164.52 57.73 166.75 56.21 167.92 55.68 168.74 54.53 172.79 55.12 175.62 55.98 176.86 57.08 178.97 57.29 181.68 55.29 181.53 51.99 182.88 51.55 183.72 52.13 185.35 52.06 185.44 50.46 186.29 46.69 188.02 46.16 190.01 46.7 192.04 46.85 193.71 45.41 195.63 44.22 195.77 42.19 196.95 42.38 197.66 41.63 197.65 40.13 199.3 37.49 202.4 35.81 203.08 34.9 202.9 33.88 201.91 33.68 201.94 32.22 202.86 30.75 204.69 29.42 205.75 27.94 206.6 26.03 207.61 25.72 208.32 21.39 209.22 20.1 210.07 17.88 212.71 14.67 212.62 13.73 213.91 12.3 213.98 11.18 215.19 9.61 216.29 9.68 217.73 10.45 218.61 10.31 218.77 8.22 220.38 7.11 222.37 6.75 222.62 7.5 224.97 9.09 228.01 9.15 229.1 9.4 231.53 8.17 232.08 7.61 234.93 7.33 235.42 8.45 237.72 9.96 239.45 9.96 240.26 10.68 241.83 10.99 242.03 11.96 240.33 13.05 240.4 13.55 242.16 14.44 245.49 15.47 247.69 14.98 249.59 14.86 250.42 14.35 250.75 12.98 251.9 13.65 254.34 12.67 257.19 12.04 258.56 12.41 261.21 12.31 262.96 13.3 264.71 13.61 267.4 13.35 267.82 11.99 269.7 10.46 269.95 8.98 269.54 7.64 268.75 7.42 269.23 5.73 270.5 5.28 271.87 5.31 272.52 3.96 273.82 2.66 274.96 2.46 277.96 2.74 279.76 2.37 281.51 1.57 283.77 1 286.05 1.05 287.63 2.35 290.7 4.04 291.47 5.03 295.73 7.56 296.68 9.31 298.93 10.53 299.83 11.68 301.74 12.59 303.15 14.31 305.43 14.32 307.83 13.86 308.62 15.17 310.84 16.44 312.54 16.23 316.21 14.98 317.94 15.1 320.45 13.92 322.31 13.61 324.73 14.2 327.46 14.23 330.58 13.28 332.08 12.39 338.9 11.11 343.39 11.12 345.17 12.7 345.79 13.6 351.58 18.96 355.03 20.98 357 22.4 358.24 24.07 361.71 27.7 364.98 29.23 367.7 29.64 370.97 30.53 371.88 31.08 373.96 33.74 376.14 35.07 380.04 34.65 381.35 35.07 383.17 37.73 385.11 39.73 386.32 41.42 389.02 43.43 392.27 44.46 394.01 46.66 395.79 51.31 397.29 54.01 399.85 55.53 401.24 55.74 404.72 55.51 405.18 53.36 407.74 53.65 409.25 55.53 408.88 57.68 408.28 58.26 410.97 59.67 409.27 61.41 409.43 62.44 410.23 63.32 410.68 65.67 413.16 68.62 417.4 69.74 419.89 69.28 421.27 70.33 422.23 70.58 424.55 69.53 428.04 69.71 430.81 68.56 432.72 68.58 434.27 67.7 438.64 66.29 442.14 63.62 444.14 60.92 445.63 59.41 448.29 58.7 449.95 57.51 451.48 56.83 452 56.16 453.35 55.81 455.66 55.74 457.77 56.01 459 56.59 461.73 58.91 Z"/>
</g>
</svg>