<?xml version="1.0"?>
<svg xmlns="http://www.w3.org/2000/svg" version="1.2" baseProfile="tiny" width="800" height="718" viewBox="0 0 800 718" stroke-linecap="round" stroke-linejoin="round">
<g id="4201109">
<path d="M 734.74 101.71 733.87 102.27 733.24 103.93 733.36 108.2 736.68 112.73 737.51 114.33 738.02 116.75 737.76 119.69 737.83 122.88 739.3 127.85 739.42 132.13 738.4 136.28 736.04 140.42 734.13 143.29 732.92 145.66 730.94 151.4 730.5 154.19 731.19 158.86 730.3 161.93 730.24 164.86 729.54 168.88 727.56 171.05 727.3 172.14 727.11 177.48 726.78 180.77 727.56 184 727.62 186.49 726.86 189.17 727.94 192.74 728.77 194.08 731.19 196.06 733.62 199.76 733.81 201.81 733.04 205.38 731.84 207.75 730.94 211.7 729.92 213.99 729.34 216.23 726.35 220.25 725.39 226.82 724.43 231.48 723.09 234.92 725.39 236.84 726.49 239.24 727.86 241.1 729.5 241.65 735.32 241.73 736.07 242.85 735.26 245.48 736.28 248.6 736.44 251.43 736.92 253.46 739.42 257.61 741.45 259.27 744.32 260.84 750.59 260.32 751.58 260.64 752.8 262.8 753.01 264.17 753.84 265.17 759.52 267.33 764.14 268.67 767.05 272.47 768.09 275.35 767.74 277.35 766.34 280.48 765.96 282.2 765.45 289.73 765.64 293.24 766.85 295.47 766.94 297.81 765.8 299.2 763.09 301.15 761.3 303.13 760.32 305.18 760.25 308.94 759.6 310.57 758.15 311.87 758.06 313.09 759.01 314.36 762.32 317.55 763.02 318.51 762.83 320.17 761.4 322.39 760.14 325.57 760.1 327.67 760.6 330.38 760.49 334.52 765.77 338.16 767.62 340.39 770.1 342.18 772.81 345.88 773.87 346.6 776.33 347.35 778.52 350.47 781.08 351.43 782.61 353.67 784.01 354.75 785.96 357.03 788.78 358.88 790.3 360.97 790.62 364.36 791.17 365.03 796.13 365.09 797.85 365.79 799 367.58 798.87 368.79 797.02 371.08 795.92 374.15 798.24 377.47 798.67 379.27 797.98 381.85 795.57 383.61 787.8 383.57 786.56 384.38 785.92 385.76 784.52 386.59 782.22 386.33 778.84 387.04 776.93 386.08 774.06 385.89 771.95 387.16 771.44 387.93 771.76 390.29 772.4 392.27 775.34 392.59 775.97 393.61 774.76 395.71 772.59 397.63 771.64 399.93 770.87 402.67 770.81 404.77 769.53 406.82 769.59 407.52 771.25 410.33 771.89 413.9 771.95 416.26 771.59 420.08 769.72 423.85 768.13 426.34 766.85 427.43 766.47 428.7 767.17 429.91 768.51 430.87 771.13 431.45 773.74 431.51 775.14 431.89 776.23 433.68 775.59 439.04 775.12 440.71 773.09 445.85 773.14 449.14 773.99 450.62 776.67 452.82 776.74 454.22 775.14 455.95 774.31 458.5 772.46 459.9 768.13 460.22 765.8 461.12 764.43 463.09 763.85 464.63 761.75 467.5 759.83 468.45 756.52 469.09 750.32 468.7 748.56 468.33 747.09 469.44 746.94 470.67 747.56 472.15 750 475.25 750.18 476.42 748.2 481.56 747.18 482.91 744.42 483.29 741.73 484.79 739.86 488.29 739.25 490.31 736.93 491.87 730.8 492.95 727.29 495.45 724.47 497.74 720.96 499.15 719.43 501 718.6 504.13 717.19 506.37 717.28 509.62 718.74 512.36 719.38 514.17 718.6 516.46 711.7 522.46 709.6 525.59 709.15 527.89 708.38 528.28 703.08 525.53 701.42 525.72 699.51 526.74 697.01 527.38 696.47 528.76 697.04 530 702.12 534.35 703.4 537.22 703.62 541.44 703.34 545.94 702.65 548.09 701.17 549.36 699.38 551.91 700.78 555.17 705.12 556.83 707.3 557.22 710.3 556.64 711.85 556.76 713.01 557.51 714.67 559.85 715.5 562.29 717.48 564.57 719.15 565.76 721.03 566.48 728.24 571.49 729.37 573.12 729.52 574.9 729.25 578.97 728.11 583.47 726.77 584.88 723.26 585.96 718.28 588.58 714.13 589.35 709.98 588.96 707.93 588.26 704.1 585.77 702.12 585.52 699.19 587.43 698.04 589.03 698.29 590.11 700.21 592.16 703.53 597.21 703.98 598.48 708.13 603.02 711.06 603.15 713.04 603.98 713.75 605.89 713.55 607.43 712.21 612.09 711.39 616.49 710.85 616.75 708.41 615.36 707.45 615.25 704.64 616.19 700.88 618.04 700.15 619.76 698.55 621.61 694.01 625.44 689.61 626.85 688.07 628.64 688.27 631.32 689.99 633.11 690.56 634.32 690.45 637.73 690.69 640.01 690.56 645.05 689.87 646.98 685.62 650.68 683.99 653.58 683.91 654.89 685.12 658.49 687.79 661.99 687.76 663.28 684.9 665.89 683.47 667.68 680.32 668.72 679.07 670.17 679.3 671.32 543.71 714.78 543.99 716.26 542.38 717 541.38 715.94 539.07 715.96 537.56 714.08 537.29 712.82 535.76 711.21 532.39 711.05 532.15 709.43 532.81 708.27 531.12 706.74 530.08 707.07 527.71 706.98 526.25 707.39 525.21 708.41 523.01 708.35 518.43 709.68 517.14 709.29 516.16 708.25 515.51 710.12 513.44 711.78 512.47 711.91 510.59 713.29 510.1 712.78 506.03 712.83 503.47 713.39 501.99 712.75 500.45 710.94 498.24 711.17 493.09 710.51 492.3 708.58 492.7 706.12 492.11 702.8 489.86 703.31 488.58 702.53 486.62 704.39 484.31 704.89 483.67 706.33 481.82 708.25 479.4 710.19 478.24 709.89 477.06 708.36 473.12 707.41 471.04 708.24 469.85 708.05 466.26 705.85 465.74 704.13 464.02 701.81 462.6 701.01 460.79 701.43 457.32 700.97 456.49 702.28 454.59 702.91 453.11 703.96 452.58 705.84 450.14 707.06 448.64 708.48 445.98 709.23 442.81 708.42 438.64 709.13 437.93 709.8 434.41 709.07 432.6 708.18 429.6 708.28 428.24 707.38 428.24 705.18 429.14 702.44 429.66 699.69 430.7 697.15 432.43 695.42 434.17 694.6 435.31 692.15 434.89 689.12 432.61 686.2 431.98 684.65 431.97 682.78 432.5 681.56 431.93 678.75 430.93 676.89 429.59 675.95 428.11 674.11 427.24 671.87 427.76 668.23 427.41 666.4 426.27 664.13 423.82 662.55 423.26 661.61 423.04 655.18 421.57 651.33 419.66 649.53 416.7 645.27 414.64 641.94 413.55 639.75 413.27 637.47 413.83 634.62 415.88 630.99 416.39 627.45 415.8 626.39 413.32 625.67 412.54 623.69 412.73 619.04 411.45 615.75 410.08 614.47 408.26 614.57 406.07 613.93 403.88 612.38 403.79 610.55 404.15 607.54 403.6 605.35 402.51 604.07 400.5 602.61 398.65 602.7 396.49 604.53 394.48 611.74 392.84 614.43 393.33 616.53 392.57 618 388.78 619.6 387.09 621.05 385.08 624.97 381.71 624.79 376.15 625.23 374.3 624.95 374.03 626.26 372.91 627.62 370.78 628.99 368.06 631.38 366.96 632.8 366.56 636.64 366 637.62 361.75 638.96 360.26 640.08 355.67 641.22 355.53 642.76 354.28 644.1 353.71 646.45 352.67 647.7 351.17 647.31 350.13 647.98 347.86 645.34 345.18 641.63 343.49 642.73 342.6 644.46 339.98 644.63 339.58 645.31 337.63 645.95 336.29 646.92 334.39 647.07 331.45 645.78 327.26 645.97 326.53 645.38 322.88 640.59 321.33 638.03 319.98 636.42 319.24 633.56 315.59 629.37 313.95 626.81 312.4 622.98 311.12 620.52 309.34 618.79 309 617.47 307 616.33 302.92 615.6 296.84 614 295.37 611.28 293.46 610.54 291.45 610.95 289.24 609.99 287.58 607.28 286.46 606.36 284.5 605.95 282.91 607.14 279.81 608.07 277.73 607.66 275.38 606.05 272.67 605.13 269.85 605.02 268 604.61 266.36 603.56 263.94 604.5 261.41 603.79 258.15 603.83 255.83 602.79 250.29 600.69 244.46 600.92 239.9 600.78 239.17 600.41 237.05 597.66 235.36 596.49 230.78 594.26 226.45 593.85 222.96 592.59 221.62 592.59 218.06 593.26 215.19 592.82 211.73 589.7 209.49 588.37 207.74 588.08 205.67 587.21 203.98 585.62 201.81 584.44 199.88 582.2 198.99 580.72 194.95 579.44 192.26 576.86 190.17 576.13 187.87 576.54 185.61 576.43 182.85 573.4 182.69 570.73 181.87 568.95 179 567.31 176.77 567.11 172.41 565.69 168.99 565.58 162.12 567.42 159.24 568.66 155.34 569.09 148.32 569.48 146.45 569.96 139.57 572.74 138.23 572.69 136.17 571.39 132.71 570.21 128.31 569.68 126.15 568.98 123.84 567.36 120.17 568.11 119.26 567.81 117.53 565.94 110.31 562.82 104.49 560.15 103.24 558.99 101.69 555.68 100.48 554.61 96.43 552.38 93.42 552.77 91.05 552.17 89.63 549.25 88.36 547.73 86.48 546.53 83.94 546.13 81.43 544.9 80.77 544.12 78.56 543.17 75.34 542.98 73.75 542.55 71.58 541.05 69.01 538.17 68.58 536.85 66.5 535.48 65.61 533.8 63.31 533.09 61.81 530.83 59.64 530.1 58.25 531.52 56.13 532.18 53.3 531.38 51.32 529.08 50.36 528.78 48.04 529.24 45.87 530.4 44.94 531.56 42.93 535.58 41.5 536.76 38.65 537.01 28.49 539.04 24.65 538.4 22.65 537.29 20.69 536.71 19.64 537.38 17.73 542.3 16.11 543.35 12.67 541.84 11.24 540.71 9.75 540.33 7.64 540.42 5.66 542.08 6.26 536.23 6.33 533.82 5.31 529.99 2.14 526.75 1.35 524.98 1 520.76 1.72 519.35 3.37 517.86 5.78 515.14 7.04 513.32 6.97 509.79 7.38 508.35 6.71 506.94 8.42 502.35 9.3 498.31 10.41 497.33 10.78 495.18 11.82 493.28 11.83 491.7 10.15 490.4 9.12 487.64 9.68 486.04 10.49 481.84 11.63 480.09 10.97 477.3 12.95 474.84 13.82 473.13 14.18 470.87 15.86 468.76 22.84 466.43 24.54 464.22 25.93 459.65 27.1 456.68 27.97 452.15 26.29 449.25 25.64 443.85 25.59 441.32 26.62 439.41 27.92 438.65 30.15 437.51 33.06 436.79 35.18 435.44 35.45 434.35 35.53 430.25 36.48 427.59 37.57 425.99 37.9 423.99 38.97 423.02 40.14 420.81 41.76 418.67 43.74 414.44 45.35 412.44 46.28 412.05 48.93 412.64 50.74 410.3 52.77 404.97 53.84 403.47 55.78 403.13 56.64 401.52 56.28 398.62 57.53 395.99 60.19 393.57 62.25 393.68 64.11 394.57 65.89 394.5 67.48 393.88 70.89 391.22 69.7 384.27 70.48 381.12 71.35 378.85 73.51 375.9 75.14 374.93 75.75 373.06 74.99 372.12 75.69 368.42 77.08 364.02 76.87 358.98 78.06 356.07 79 352.75 81.09 350.26 82.64 348.97 82.87 346.73 85.26 344.55 86.62 344.07 89.67 341.16 90.27 339.47 91.34 338.17 92.84 335.17 91.27 333 91.95 331.52 93.56 329.63 95.84 325.42 98.46 321.64 97.71 320.5 98.01 319.36 102.9 315.51 106 313.78 108.02 313.01 110.23 311.55 111.82 311.28 117.29 308.04 119.72 307.43 123.25 305.52 125.23 303.54 128.24 305.77 129.99 305.7 132.65 304.01 134.88 303.97 136.37 303.24 139.96 300.44 144.65 301.69 145.7 302.78 149.71 303.74 151.98 302.19 155.22 300.56 160.2 298.91 162.75 297.58 164.89 294.79 166.23 292.39 168.12 291.17 172.23 291.45 174.47 292.72 176.19 292.78 178.55 291.2 179.42 289.07 179.32 284.74 179.76 282.57 180.52 282.01 183.17 281.68 188.86 279.75 189.79 279.14 191.52 276.91 192.73 274.75 193.23 272.78 192.16 268.81 192.14 266.83 194.67 264.92 195.69 263.21 196.14 257.96 196.78 256.74 198.7 254.7 201.19 252.96 203.53 252.28 210.12 252.46 213.89 252.73 217.55 252.62 222.12 254.07 225.22 254.53 228.4 255.71 231.23 255.44 235.14 251.25 237.45 250.2 239.17 250.66 242.36 249.11 248.28 248.83 252.64 249.44 254.1 249.93 255.78 249.52 257.06 248.61 259.15 244.92 260.06 243.88 262.61 243.42 263.11 242.74 262.97 240.1 261.74 236.55 260.47 233.86 261.97 226.44 262.34 225.31 263.75 223.44 267.93 219.75 271.75 217.89 273.67 217.48 276.35 217.52 278.65 216.13 279.63 216.11 282.13 217.29 285.97 217 292.44 214.93 296.08 210.81 296.33 209.1 298.76 207.6 300.83 208.03 303.39 207.84 305.67 205.93 306.15 204.71 305.37 202.65 306.06 200.48 308.29 195.47 308.77 193.13 309.45 192.28 311.93 191.03 312.91 189.09 315.35 188.2 318.21 185.34 319.4 181.52 320.83 179.2 320.68 177.83 319.55 175.47 319.82 173.92 320.83 172.79 321.04 171.27 320.48 168.89 320.95 167.34 322.72 165.38 321.85 163.22 321.76 159.26 321.22 157.41 318.18 153.93 314.61 151.63 312.82 150.11 310.97 149.22 309.9 145.7 307.93 143.11 307.28 141.65 306.62 138.64 306.5 135.78 307.96 132.68 309.53 131.93 313.88 131.01 316.98 129.12 318.38 127.35 320.75 125.64 324.41 124.57 325.87 122.6 326.7 116.94 327.54 115.12 329.53 113.9 332.32 110.51 335.4 107.7 340.02 104.04 341.57 105.44 344.37 106.33 348.18 106.3 351.4 105.5 357.96 101.09 363.71 96.44 365.23 93.22 366.26 87.15 368.46 82.18 370.26 80.56 372.46 79.33 373.84 76.35 376.34 74.5 378.24 74.27 383.01 73.19 384.5 70.81 385.99 69.5 387.12 66.82 387.06 65.8 385.49 62.04 385.61 60.06 387.72 55.73 390.1 52.45 393.56 49.83 394.87 48.4 396.12 42.68 397.37 40.11 398.27 35.01 397.71 31.89 397.79 28.15 400.35 26.41 401.03 24.46 406.1 21.43 409.53 20.8 414.3 20.67 420.22 21.37 426.52 22.58 430.02 22.46 431.61 21.88 432.25 20.86 435.24 17.75 437.02 17.11 439.63 17.62 442.56 19.46 444.53 22.58 449.49 23.79 455.07 24.42 458.5 25.22 460.42 25.96 466.22 27.1 472.15 27.89 476 28.95 479.69 29.58 483.6 31.11 484.87 32.39 485.45 34.1 484.55 36.78 482.2 40.6 481.25 43.14 480.48 48.3 480.99 53.07 481.82 55.05 483.22 56.64 484.75 57.72 486.53 60.59 486.46 65.42 487.35 68.35 489.96 71.53 492.64 72.93 497.27 75.95 498.94 77.45 500.4 79.56 502.37 84.77 505.49 86.62 510.84 91.14 512.98 91.94 518.41 92.1 525.85 90.82 529.74 91.71 532.54 93.11 535.34 93.37 536.42 91.4 539.6 86.81 540.94 85.86 542.59 85.53 544.25 83.82 544.68 81.23 546.57 78.41 547.68 74.65 548.64 73.44 551.82 70.83 555.25 68.8 557.86 66.63 559.15 66.04 563.02 63.39 566.01 58.74 568.24 52.12 568.68 48.49 568.68 45.75 569.95 43.97 572.98 41.48 577.08 41.81 578.67 42.7 584.53 47.15 585.99 49.38 587.58 50.21 589.24 49.45 591.52 45.84 594.05 43.02 596.68 42.63 598.97 43.4 602.92 42.76 605.86 41.25 607.17 41.24 609.37 42.91 612.7 42.68 616.09 44.86 616.15 47.66 613.04 49.7 611.06 53.52 610.55 55.43 610.74 56.58 611.83 58.36 613.67 58.8 615.45 60.39 616.47 63.13 617.36 64.28 619.72 65.87 622.77 69.5 626.42 72.84 627.87 73.46 629.5 73.35 631.14 71.96 632.04 67.75 633.27 65.77 634.44 62.98 637.42 61.4 640.74 61.38 642.06 60.47 645.46 60.52 649.04 60.3 651.63 61.05 651.66 64.19 653.13 65.86 654.75 66.82 654.38 69.81 655.19 74.97 655.35 78.95 656.71 80.77 658.51 81.85 663.28 82.82 665.78 86.55 666.64 87.45 668.59 87.26 670.46 87.72 671.2 90.55 673.22 92.05 674.43 93.8 676.83 96.55 678.34 97.23 679.35 96.84 680.06 95.58 680.85 92.38 683.06 89.69 685.06 83.21 687.22 81.72 687.94 80.38 688.05 78.2 689.3 76.12 690.51 75.37 693.45 74.6 695.11 73.66 697.21 73.26 700.44 69.99 701.51 67.5 703.75 63.92 704.15 62.12 705.05 60.94 707.86 60.74 708.21 59.27 707.8 58.3 704.76 54.89 704.04 52.32 704.15 50.26 705.58 49.27 706.87 47.71 707.75 44.24 709.31 42.19 711.66 41.03 713.04 39.16 713.09 36 710.39 33.43 709.51 31.54 709.86 29.17 711.92 26.27 714.12 22.66 715.92 21.13 717.02 19.59 717.37 18.14 717.02 14.89 717.2 11.19 716.98 9.7 716.89 5.04 717.48 3.8 719.28 2.51 720.44 1.02 722.16 1 724.4 3.81 725.63 4.65 728.66 5.57 730.02 8.16 731.03 12.25 731.08 14.45 731.52 16.34 732.39 17.08 737.18 17.35 737.84 18.53 740.61 22 740.96 23.15 740.48 26.71 739.6 28.9 736.88 31.59 736.76 33.15 737.31 34.22 739.12 39.62 739.91 43.01 739.86 44.81 739.29 46.65 740.58 51.24 740.51 52.33 739.43 54.49 738.16 55.7 736 60.86 736.44 63.08 736.5 66.9 735.74 70.91 734.34 74.35 734.4 77.59 734.91 80.46 734.98 83.13 734.6 89.62 735.93 94.72 735.55 98.41 734.74 101.71 Z"/>
</g>
</svg>