<?xml version="1.0"?>
<svg xmlns="http://www.w3.org/2000/svg" version="1.2" baseProfile="tiny" width="800" height="506" viewBox="0 0 800 506" stroke-linecap="round" stroke-linejoin="round">
<g id="4201703">
<path d="M 724.14 209.96 729.7 209.66 736.55 211.94 741.28 220.5 741.95 227.82 741.26 229.41 742.38 234.15 744.84 237.9 742.38 242.63 739.16 245.44 734.82 247.53 732.85 245.71 729.8 245.56 728.34 247.99 728.37 250.57 730.65 251.02 731.12 253.79 735.02 255.49 739.65 262.4 739.1 263.93 735.58 265.41 732.43 273.39 731.93 278.93 732.84 281.01 735.73 284.56 736.4 293.06 739.1 300.81 745.98 306.04 754.57 309.96 755.64 311.5 754.26 314.36 756.19 315.47 759.25 314.99 760.18 316.07 759.86 319.7 763.27 319.59 764.6 317.84 771.35 319.87 772.26 321.53 769.99 322.99 769.57 326.04 771.93 329.88 777.78 335.66 779.15 337.72 775.15 339.83 775.65 341.99 778.85 345.14 781.7 349.09 782.21 350.95 778.53 354.38 779.46 356.12 785.76 357.87 788.34 359.28 792.37 363.39 799 365.71 796.9 370.97 797.79 376.04 796.3 380.8 797.73 382.74 796.7 388.33 789.51 391.04 783.08 389.74 777.77 390.1 776.45 390.77 772.87 398.41 773.2 404.07 774.09 407.88 767.93 410.3 769.33 413.59 768.18 415.6 766.21 414 764.79 415.29 761.23 416.18 755.7 419.03 751.65 418.11 751.19 421.94 747.21 426.93 747.88 429.85 744 433.95 743.62 438.35 746.73 440.16 749.12 445.19 748.43 451.19 751.35 455.7 748.14 457.39 744.55 461.77 745.15 465.41 748.6 465.95 746.84 469.28 743.99 472.32 739.85 474.33 736.52 476.72 734.36 479.46 730.87 479.35 729.16 481.01 727.16 485.58 724.53 488.61 720.55 490.81 719.99 492 719.94 497.85 719 500.69 715.57 505 664.1 498.8 659.5 489.69 658.41 483.94 658.58 476.86 657.87 475.16 650.31 468.07 645.07 469.2 629.67 466.63 625.46 461.7 624.95 458.61 621.97 456.04 615.92 448.19 615.88 445.31 609.41 441.69 608.5 439.36 608.54 433.31 606.79 427.97 601.8 425.49 598.56 421.72 596.46 420.14 591.97 418.08 588.85 413.43 580.76 411.67 577.66 412.57 573.38 411.64 570.94 413.17 568.02 411.49 566.54 414.29 562.98 412.33 560.24 413.48 557.83 412.63 558.29 410.7 553.96 408.74 551.51 402.24 552.83 399.62 551.4 394.78 546.91 393.52 545.73 392.51 546.56 389.35 541.95 385.21 536.66 384.2 528.23 375.93 525.82 370.99 520.55 368.69 519.66 365.35 517.38 361.89 516.3 362.37 513.52 366.55 511.47 366.06 510.69 362.39 507.78 361.35 505.97 363.19 503.13 362.93 496.14 358.1 490.75 356.84 485.64 354.19 473.34 353.97 469.86 353.08 467.83 349.8 461.14 347.77 457.06 345.8 458.16 342.95 454.57 341.23 458.08 336.92 456.18 333.43 452.23 331.89 446.49 328.45 445.25 326.74 445.14 317.74 439.91 318.41 430.42 321.64 423.86 325.38 410.13 335.27 401.73 342.09 398.62 346.98 399.53 352.46 401.87 357.25 413.26 371.33 419.14 381.97 424.34 390.23 427.04 396.87 428.75 402.23 428.63 405.54 427.14 413.14 427.08 417.59 427.88 420.87 430.95 426.45 431.23 428.52 430.65 440.64 432.38 450.32 433.15 456.88 436.32 460.88 440.24 463.85 437.42 466.84 437.64 468.8 440.1 471.42 440.19 473.82 436.03 474.45 433.2 475.62 430.64 475.37 426.39 476.97 422.42 476.8 412.85 477.21 410.98 476.36 398.91 464.16 396.76 460.84 393.76 454.23 390.48 454.13 383.7 457.91 374.02 462.44 369.63 463.79 363.71 464.32 358.41 463.16 354.94 461.04 347.23 460.79 341.44 458.29 337.3 457.14 333.24 455.12 329.35 455.69 327.04 459.26 324.19 460.75 320.34 461.57 315.13 459.88 312.72 455.59 310.93 454.91 304.1 454 299.47 454.34 296.68 453.9 292.49 452.12 283.19 446.72 274.9 448.02 269.45 448.41 263.62 451.93 259.43 453.08 251.14 452.36 248.68 451.51 242.84 447.29 240.96 446.55 236.51 446.98 230.4 450.91 227.21 452.28 219.14 452.89 209.59 450.72 202.81 450.82 200.06 451.59 186.23 457.33 177.8 458.44 170.76 456.8 165.42 457.28 158.62 460.99 156.12 461.48 150.14 459.69 142.94 462.51 134.91 468.12 131.68 468.54 125.37 466.4 121.97 464.71 107.53 462.44 100.84 463.09 95.4 461.69 91.21 458.17 88.08 457.21 79.03 453.16 74.2 452.43 68.48 448.9 65.09 445.25 61.14 443.66 57.43 443.41 51.99 440.19 48.75 436.86 38.79 432.75 30.2 430.34 19.79 428.17 15.31 428.42 10.3 427.79 5.96 426.68 1.91 426.5 1 418.01 1.77 412.89 4.33 409.18 7.45 402.55 7.21 394.71 9.12 391.35 18.33 383.37 22.66 378.97 27.45 371.65 29.87 357.78 36.77 334.82 40.34 324.35 39.11 314.98 39.61 307.14 37.74 292.78 35.58 290.35 28.88 286.67 28.88 283.7 31.43 275.97 31.41 270.86 34.11 262.85 41.46 250.47 45.04 239.39 45.73 234.97 44.7 219.8 43.82 214.53 43.99 212.1 42.82 205.14 42.29 193.53 40.7 188.79 39.85 178.12 37.08 168.06 36.14 161.44 33.93 157.38 28.56 151.45 26.96 147.67 27.45 141.63 21.45 137.26 18.3 132.27 19.98 122.53 19.59 119.75 21.67 116.83 26.83 112.11 28.32 108.64 31.21 106.71 32.27 101.84 31.46 93.69 32.56 91.95 36.66 90.36 40.8 90.26 42.97 92.58 49.24 96.34 52.22 99.62 56.95 98.51 61.67 93.69 66.82 93.11 75.55 93.98 78.82 93.93 82.05 92.67 83.74 90.84 86 83.94 93.33 78.25 98.24 73.05 101.66 68.56 106 65.28 107.88 62.58 108.95 57.55 112.63 55.38 115.5 52.81 115.69 50.19 111.49 46.91 111.21 43.48 114.92 40.44 118.38 38.75 119.49 35.33 121.57 32.82 119.69 30.89 121.85 27.52 126.96 25.44 128.84 25.4 133.71 27.04 139.88 25.73 141.13 23.95 139.11 20.81 138.91 19.03 141.04 16.09 143.63 10.49 148.66 5.83 150.68 3.09 155.35 1.85 167.54 1 186.71 2.42 197.62 6.51 203.24 8.08 205.05 9.93 207.42 15.36 208.62 16.28 218.46 18.33 229.02 21.99 232.96 24.68 238.66 32.96 240.39 36.48 241.07 41.12 242.24 43.65 248.34 48.84 250.91 51.61 254.51 54.18 258.66 55.95 261.47 59 267.25 63.99 272.5 69.99 277.21 74.16 279.02 76.93 279.42 80.22 280.79 81.79 285.52 84.32 292.07 88.75 298.27 90.4 300.82 89.7 308.39 86.04 310.61 84.18 317.71 75.26 321.3 73.34 328.69 73.51 333.28 75.13 336.45 77.46 338.63 77.86 341.25 76.61 344.55 73.9 346.55 73.32 353.31 73.93 360.5 77.61 368.09 75.76 372.47 75.8 374.03 78.82 375.17 86.36 377.53 90.67 382.47 93.69 388.33 94.37 389.73 95.66 390.06 99.8 395.44 103.58 397.89 104.54 404.75 104.1 412.42 105.55 413.19 107.23 414.35 113.7 417.28 118.69 416.9 121.63 409.58 124.89 412.32 129.4 415.98 132.29 422.84 135.67 432.2 138.75 435.1 140.29 441.12 139.24 454.64 140.48 461.17 140.82 470.05 138.06 473.23 138.83 481.7 136.01 486.87 142.02 490.29 144.4 491.47 148.96 490.09 154.14 490.49 158.25 494.4 158.76 502.16 163.09 505.08 163.3 507.27 167.64 508.47 168.6 513.27 169.17 517.87 171.25 523.58 176.4 526.98 180.73 532.06 184.3 537.76 191.18 543.05 196.67 545.06 199.64 548.65 202.82 550.54 205.62 555.11 208.52 566.37 217.1 573.2 220.32 576.31 222.64 588.98 230.96 601.07 237.95 606.36 240.5 614.54 243.16 618.52 244.08 621.61 243.75 628.42 241.65 637.63 241.51 650.69 238.41 656.7 236.76 665.89 235.75 683.37 235.06 694.61 234.97 703.39 233.2 714.02 229.15 719.69 226.22 723.21 223.45 726.09 218.3 726.45 213.97 725.93 211.66 724.14 209.96 Z"/>
</g>
</svg>