<?xml version="1.0"?>
<svg xmlns="http://www.w3.org/2000/svg" version="1.2" baseProfile="tiny" width="800" height="843" viewBox="0 0 800 843" stroke-linecap="round" stroke-linejoin="round">
<g id="4201505">
<path d="M 795.96 425.01 799 428.2 794.72 432.82 793.85 438.6 793.93 442.68 796.46 455.59 797.78 458.23 795.39 465.75 798.01 473.38 796.73 481.76 796.5 487.41 795.61 490.64 795.39 494.99 795.87 500 796.91 502.92 794.55 503.32 787.45 501.47 784.1 497.82 779.79 498.18 778.34 499.53 772.39 498.89 765.26 496.08 760.93 496.06 753 498.06 747.69 500.38 743.33 501.58 739.93 499.67 738.69 496.57 736.4 494.21 733.81 493.88 730.42 495.24 724.23 496.38 720.31 499.76 714.91 502.88 704.68 504.56 700.8 505.64 698.15 507.47 695.78 510.75 692.83 511.67 691.85 513.49 692.86 519.82 692.14 524.85 693.74 531.83 693.3 533.87 688.93 536.64 687.59 541.04 688.19 544.7 685.49 548.45 685.82 551.44 685.25 558.47 681.83 561.22 680.36 564.35 672.19 577.21 663.71 581.32 660.98 583.07 654.82 585.13 638.64 589.33 633.81 590.15 626.92 593.57 625.95 595.9 628.11 602.85 630.15 604.34 633.13 609.29 634.63 617.53 631.78 622.31 631.44 627.74 633.75 630.66 635.75 635.61 640.26 639.21 643.27 639.21 644.52 641.03 643.26 655.85 645.72 658.28 646.44 661.18 646.41 665.86 650.15 672.81 651.46 673.38 652.21 679.76 655.34 684.04 658.07 690 658.58 693.28 653.53 698.12 649.57 699.03 645.77 698.96 637.5 701.98 629.02 710.01 626.14 713.84 626.08 716.88 627.59 721.85 628.91 724.04 627.31 730.21 628.41 732.99 632.48 733.25 638.25 735.28 643.84 739.17 649.54 739.89 653.13 742.13 651.17 748.03 651.34 753.94 650.6 762.63 650.96 766.24 648.7 771.3 648.45 773.64 644.56 777.21 640.58 785.88 642.31 791.96 641.66 794.95 633.27 799.36 631.13 806.19 632.18 813.03 629.58 817.81 630.17 823.32 629.76 827.49 632.25 833.78 631.4 838.49 626.85 835.17 622.69 834.87 617.62 835.61 607.45 838.44 592.11 839.22 588.73 839.12 583.77 840.45 581.2 842 577.95 840.31 573.41 840.53 572.44 835.94 569.95 833.89 573.25 831.94 574.18 830.17 569.39 829.5 567.19 827.25 566.82 823.67 565.38 822.1 562.21 820.89 562.16 818.01 557.85 814.3 555.46 813.27 556.57 809.46 554.79 806.78 554.63 803.14 550.97 803.17 548.46 801.05 550.1 795.77 547.82 791.94 545.2 791.95 543.05 790.3 540.23 785.96 536.03 783.06 529.62 779.66 525.04 778.11 520.38 779.61 518.78 781.77 515.65 780.64 512.09 781.71 504.85 780.97 500.25 779.31 494.59 775.61 490.92 775.07 480.34 772.5 478.33 770.3 474.71 764.05 474.35 760.63 472.48 756.65 471.44 751.72 465.09 751.53 459.23 745.1 454.15 741.82 446.54 738.52 442.85 738.31 439.19 745.81 437.48 750.87 431.98 749.82 427.91 751.07 422.09 754.96 413.79 756.49 327.18 774.07 323.36 767.21 320.25 764.12 317.86 759.86 317.45 757.52 315.28 753.73 310.41 750.8 308.64 748.38 307.88 742 298.38 737.33 295.49 738.79 293.82 741.32 289.65 743.5 284.41 744.36 280.27 741.29 276.94 743.76 271.79 749.2 270.31 751.47 267.91 752.87 263.04 753.68 258.86 757.19 255.56 756.71 250.01 753.1 247.68 753.14 244.58 756.12 242.3 761.32 239.46 760.55 231.91 763.51 228.92 766.4 223.41 767 220.38 763.68 217.27 762.23 216.2 757.82 212.39 755.05 210.91 752.33 210.78 749.48 209.5 747.57 205.95 746.56 204.31 744.51 194.89 743.88 192.34 742.91 184.44 741.84 177.44 736.54 183.66 726.35 184.35 720.13 187.13 711.44 186.11 706.59 184.54 705.67 175.17 705.05 173.14 706.51 170.78 710.28 168.24 711.16 158.08 711.79 147 713.67 140.51 718.12 135.86 717.64 131.12 718.33 126.64 717.91 121.56 716.12 120.71 714.61 115.07 711.05 104.29 711.78 100.32 708.04 97.08 710.1 91.98 711.36 88.94 715.05 85.6 716.18 80.36 714.21 76.93 715.55 70 716.95 67.42 718.97 61.4 718.9 57.15 716.93 55.47 713.05 52.42 711.61 51.53 707.81 49.21 704.52 44.75 703.29 41.85 699.82 43.41 695.39 42.24 691.04 37.86 686.23 35.2 679.98 35.57 676.57 33.09 672.99 33.64 669.06 32.92 664.5 33.87 660.89 29.49 650.52 26.62 647.11 22.6 640.84 21.6 638.42 22.01 633.12 24.12 625.23 23.26 617.52 20.16 616.62 20.1 614.57 18.4 611.52 18.79 605.64 15.67 601.29 14.49 598.17 14.88 595.89 20.13 588.31 19.93 585.87 22.12 581.06 22.18 577.07 18.98 574.86 15.52 569.38 9.1 557.18 8.51 553.37 9.89 543.05 11.72 537.81 11.59 534.53 8.23 531.37 7.61 526.1 3.81 523.03 1.3 519.29 1 514.66 3.68 512.15 8.11 509.93 9.53 507.43 9.85 502.46 11.29 500.45 14.61 498.26 17.83 497.39 17.44 495.13 14.71 494.27 13.15 491.99 8.84 488.36 7.96 484.71 6.47 482.44 5.24 475.5 6.7 472.77 8.96 470.88 15.12 463.85 15.89 461.37 15.99 453.89 17.11 449.93 20.45 446.04 21.01 443.18 22.83 440.31 24.08 435.92 24.11 432.74 25.8 430.34 29.06 429.7 32.72 430.07 38.74 428.78 44.24 428.99 49.32 427.52 56.49 423.49 58.46 420.44 62.89 415.28 66.41 409.57 65.52 404.63 65.75 400.95 64.37 394.93 66.12 387.62 57.39 380.65 56.43 378.82 57.23 376.59 59.63 374.14 61.38 369.27 59.14 364.26 59.38 359.55 58.46 357.27 59.45 350.9 62.94 345.97 63.26 338.84 62.6 336.14 57.38 329.44 55.49 329.04 55.22 326.4 58.8 322.93 59.34 319.41 64.37 317.05 68.5 314.18 71 314.29 74.07 311.28 74.88 307.39 74.99 302 74 299.26 70.59 294.35 66.78 290.88 65.4 282.05 66.19 274.99 67.29 273.09 72.23 269.81 73.56 260.74 74.51 258.17 76.56 256.7 77.43 253.04 74.59 249.43 67.24 246.88 65.72 244.03 62.64 243.15 58.91 243.62 56.76 239.03 55.61 234.55 51.46 233.17 48.42 229.8 48.73 227.64 47.53 224.44 49.69 217.39 48.82 213.26 49.27 209.57 44.74 204.63 41.75 198.48 38.09 198.45 36.12 200.24 33.74 200.68 31.74 198.66 30.15 199.16 27.19 203.23 20.36 200.7 17.55 197.98 14.93 194.31 15.71 191.43 13.82 188.76 16.93 181.37 21.07 179.32 25.74 174.72 28.94 173.97 32.13 170.89 31.13 167.43 31.93 165.68 34.84 165.67 39.33 163.92 39.73 157.97 42.96 152.98 46.16 151.33 49.99 146.17 52.47 144.06 53.14 141.33 55.05 138.48 61.88 135.1 63.79 135.73 66.1 132.87 67.44 128.82 66.54 127.15 68.68 123.4 76.54 117.41 78.43 117.15 84.04 112.25 92.4 107.34 95.52 106.61 100.36 103.85 100.62 102.21 105.56 99.08 107.02 98.79 109.99 95.79 110.42 89.55 112.09 84.18 113.52 83.23 115.39 78.57 115.14 74.64 117.77 72.7 123.1 75 126.83 79.32 129.57 79.81 132.38 78.73 133.75 75.98 135.59 74.8 136.25 72.3 140.43 68.42 148.25 64.48 152.91 60.73 154.1 57.68 159.25 55.14 163.06 49.77 168.2 51.5 169.83 48.2 172.59 45.98 181.59 44.49 181.49 46.97 184.4 49.28 185.63 54.39 187.19 58.03 191.9 61.07 194.98 59.41 201.44 60.31 204.75 62.99 206.3 58.73 214.8 55.15 218.04 55.57 218.29 52.96 221.41 48.75 225.75 44.86 228.2 40.69 236.76 36.97 246.67 35.34 251.1 31.67 250.95 24.35 251.98 19.91 255.49 16.43 255.89 14.26 253.96 12.31 255.2 10.05 258.23 11.16 259.09 9.38 263.84 5.44 266.68 3.97 271.05 4.94 271.68 8.4 279.55 11.09 284.57 11.53 286.71 9.87 289.46 3.46 293.33 6.22 299.66 2.63 306.8 2.5 310.83 1.23 317.54 1 317.11 2.62 320.93 7.64 321.85 10.54 324.34 11.87 333.21 14.31 335.26 13.27 338.2 9.55 342.16 10.51 345.44 18.21 345.27 20.21 347.23 21.23 352.66 29.69 354.38 35.82 359.02 38.7 360.27 37.63 361.81 42.98 359.26 42.88 359.83 48.5 358.22 51.99 354 51.48 351.69 53.84 349.32 53.13 345.91 56.88 347.86 63.01 346.62 70.15 345.44 73.56 347.22 76.53 352.41 76.73 355.94 74.71 359.58 70.37 361.38 71.04 363.55 76.46 368.27 73.45 370.46 75.61 369.89 77.75 370.6 83.67 374.63 81.9 379.74 81.09 382.31 81.74 383.11 83.55 381.03 90.27 387.25 89.21 391.95 84.77 393.13 82.2 397.55 79.76 400.04 79.52 406.74 81.09 410.97 79.34 414.47 75.88 418.44 76.6 420.3 75.4 420.18 71.93 423.32 71.52 423.33 76.29 424.68 79.01 427.35 77.94 429.64 79.21 428.94 80.95 429.37 85.44 431.39 89.99 432.47 95.67 431.61 99.52 429.08 100.04 425.54 99.51 421.11 102.69 417.65 112.98 417.34 115.76 421.09 121.56 423.14 121.78 434.28 116.86 440.95 112.55 444.75 111.07 446.69 111.16 449.69 114.61 450.81 119.18 457.39 119.6 461.03 124.92 462.57 125.62 460.44 128.78 465 135.06 470.08 139.33 471.3 144.38 474.63 144.96 478.17 150.41 473.09 151.24 468.85 152.68 469.32 154.12 472.36 154.51 474.51 156.25 473.9 158.92 477.79 158.87 481.98 161.85 484.71 160.31 486.92 161.33 488.6 158.87 492.15 158.49 496.56 159.65 501.28 159.07 500.28 161.55 501.16 162.94 504.64 163.85 503.12 165.76 506.54 170.57 506.24 172.89 507.12 177.15 506.72 180.68 509.41 180.75 514.48 185.95 519.28 188.13 524.34 187.35 526.49 183.63 528.91 183.34 531.56 181.68 528.09 177.45 527.54 172.35 531.82 171.42 533.49 166.21 535.81 162.54 537.64 161.33 541.26 161.97 541.87 168.21 541.89 180.2 543.4 183.49 552.86 190.76 554.16 192.35 553.46 199.68 549.97 201.66 545.85 201.41 541.98 199.99 539.3 201.02 534.31 205.59 532.17 211.83 532.54 214.9 535.58 219.3 536.16 222.81 536.05 230.83 534.5 232.47 530.39 234.72 525.38 239.59 517.93 245.15 514.2 248.41 514.26 251.17 519.94 253.55 526.26 257.2 533.49 257.95 543.56 260.21 547.57 265.73 555.91 272.92 556.23 274.93 553.66 277.67 546.64 281.92 533.85 290.68 530.23 293.48 518.68 304.42 517.52 307.56 517.94 311.03 526.28 319.39 530.24 324.43 536.45 329.88 540.57 336.12 543.54 338.32 548.05 343.16 551.79 345.28 558.18 347.22 561.69 348.96 570.48 352.04 573.46 353.57 582.47 355.29 586.37 355.69 594.19 359.17 595.13 360.75 595.58 369.74 596.03 371.22 594.77 374.86 594.82 377.49 591.82 381.13 591.93 384.13 589.96 391.9 587.54 398.81 585.84 402.22 581.46 406.32 578.1 407.38 572.26 407.56 564.97 405.81 560.02 401.69 560.35 406.75 567.87 418.46 573.86 425.16 574.87 428.41 578.68 434.81 582.19 436.45 583.26 439.02 585.39 438.89 592.3 433.71 595.32 433.52 599.53 434.63 602.44 434.51 608.51 431.98 609.57 432.12 621.55 438.24 620.23 440.99 620.54 442.92 622.93 443.09 626.97 441.25 630.35 440.97 637.09 437.83 642.73 435.78 646.6 436.61 651.81 442.24 658.11 442.54 664.99 444.34 666.18 448.47 668.03 449.11 679.51 449.38 683.91 447.14 686.1 445.15 695.14 441.97 697.89 436.91 699.06 436.6 708.87 437.44 713.38 437.02 718.9 438.13 728.1 438.15 731.46 438.73 734.82 437.45 743.03 438.18 749.42 438.05 752.14 437.37 758.67 436.97 769.13 432.82 778.07 429.63 783.48 426.7 790.87 426.12 795.96 425.01 Z"/>
</g>
</svg>