<?xml version="1.0"?>
<svg xmlns="http://www.w3.org/2000/svg" version="1.2" baseProfile="tiny" width="800" height="598" viewBox="0 0 800 598" stroke-linecap="round" stroke-linejoin="round">
<g id="4201000">
<path d="M 207.58 5.1 209.7 6.87 211.35 8.97 212.3 11.22 212.66 13.32 212.45 16.42 211.39 19.49 210.48 21.34 209.32 23.08 207.3 25.12 199.42 31.06 196.83 33.21 194.8 35.32 193.36 37.49 192.52 39.87 192.27 43.29 192.64 46.33 193.43 49.53 195.27 54.08 196.79 56.52 198.38 58.16 200.1 59.08 208.63 61.39 213.06 62.89 218.73 65.14 222.04 66.64 227.46 69.48 230.57 71.65 231.87 72.32 234.25 72.87 239.7 73.4 244.35 73.29 248.41 72.8 253.64 71.71 255.59 71.19 258.36 70.04 261.41 67.88 263.55 65.7 270.69 57.09 274.77 52.36 276.78 50.26 278.65 48.71 282.86 46.73 285.13 46.08 288.44 45.76 290.98 46.11 292.74 46.73 294.22 47.66 295.64 49.08 297.09 51.05 298.63 53.89 300.26 57.82 301.26 59.85 302.58 61.74 304.32 63.47 306.39 65.01 308.64 66.29 310.96 67.17 313.37 67.52 316.15 67.28 319.95 66.01 324.23 63.67 329.28 62.22 332.03 61.8 333.95 61.73 338.15 62.14 340.7 62.62 343.15 63.33 345.78 64.68 347.79 66.35 350.6 69.75 351.55 70.6 353.69 73.75 355.73 76.47 359.06 80.49 361.38 82.82 364.89 85.71 366.77 87 369.28 88.36 371.56 89.25 374.22 89.86 378 89.63 382.78 88.71 385.07 88.06 389.07 86.2 395.07 82.5 397.5 81.26 399.54 80.53 402.35 79.84 404.97 79.44 408.73 79.29 410.23 79.61 412.98 81.06 414.87 83.07 416.27 86.48 416.99 91.47 416.92 97.21 416.66 98.51 415.8 100.42 414.03 102.92 410.37 107.36 408.5 110.21 406.96 113.36 405.66 116.83 404.55 120.48 403.62 124.53 403.03 128.26 403 131.5 403.25 132.78 404.18 134.73 404.97 135.58 406.56 136.45 409.63 137.19 413.14 137.34 416.32 136.72 419.12 135.63 422.86 132.86 426.16 129.86 433.27 123.87 436.17 121.07 438.63 119.4 441.74 117.75 445.15 116.38 448.96 116.22 451.91 116.48 458.08 117.62 465.88 121.62 469.83 123.79 474.62 126.58 478.82 128.78 483.78 130.5 487.25 131.27 489.04 131.48 493.83 131.68 496.68 131.22 498.08 130.76 499.1 129.81 499.79 128.17 500.05 126.48 499.48 123.77 497.8 122.24 495.92 121.25 492.18 119.77 488.37 118.06 485.04 116.01 483.14 113.71 482.16 110.9 482.08 108.17 482.79 105.9 483.99 103.99 485.06 103.41 487.45 103.13 491.47 103.36 495.59 104.28 499.62 105 510.76 106.58 518.84 107.39 528.07 109.04 531.78 109.5 534.24 109.55 536.87 109.19 539.81 108.35 544.27 106.74 548.96 104.68 554.09 101.88 557.78 101.26 562.4 101.38 564.87 101.61 570.01 102.32 571.94 102.34 575.02 101.97 581.95 100.89 583.01 100.82 593.82 100.78 597.27 101.15 600.66 102.2 603.33 104.01 605.91 106.23 608.15 109.06 608.62 110.48 608.36 112.55 607.84 113.95 606.47 116.47 604.38 118.91 601.97 121.06 595.77 126.12 593.82 127.88 586.82 134.9 585.87 136.41 584.59 139.22 583.93 141.2 583.21 144.24 582.99 146.01 582.93 150.03 583.17 152 583.76 153.33 584.88 154.62 586.14 155.45 588.58 155.97 591.93 155.12 593.82 154.16 596.02 151.17 598.83 149.22 604.36 146.6 607.32 144.96 610.36 143.7 612 143.37 616.02 143.63 620.89 143.24 625.83 143.31 628.2 143.66 630.76 144.4 639.43 147.27 642.07 147.61 645.66 147.34 649.17 146.33 651.93 145.27 655.14 143.76 656.9 142.65 665.42 136.01 667.67 134.67 670.66 133.39 673.15 131.62 674.57 130.03 676.05 127.96 678.04 124.28 680.8 118.5 682.45 115.33 683.3 114.55 688 111.45 689.52 111.89 690.03 112.57 689.59 115.34 690.31 117.84 692.59 120.62 693.08 121.86 693.11 124.56 693.6 125.65 694.76 126.27 696.15 126.22 699.54 123.46 702.6 123.21 703.74 122.68 705.71 118.06 706.39 117.46 708.38 117.79 711.16 119.75 713.15 120.56 716.53 124.53 717.99 126.76 719.38 129.26 719.03 131.89 719.29 134.43 719.66 134.74 722.25 135.14 724.57 137.32 724.44 139.67 723.92 140.35 721.15 142.33 719.74 144.54 719.46 149.31 718.79 151 717.73 151.49 714.59 151.2 713.4 151.79 711.82 154.18 710.93 156.14 711.78 158.97 713.18 161.44 712.05 161.96 712.13 163.35 708.84 164.74 708.3 165.46 708.59 167.36 709.76 168.38 710.64 169.88 711.04 171.87 712.66 172.95 715.65 172.88 716.13 172.5 716.48 170.47 717.53 169.17 719.65 167.85 720.22 167.99 724.73 171.33 726.1 173.16 727.02 173.4 729.3 173.27 732.81 173.39 733.92 172.71 734.46 170.85 733.46 167.16 733.62 166.36 734.61 165.8 737.14 166.64 742.6 164.05 745.41 162.48 746.6 162.17 747.78 162.67 749.1 164.73 750.08 166.74 749.76 167.95 748.54 169.85 749.76 171.04 751.45 174.23 749.09 176.29 747.16 176.96 747.92 179 749.8 178.99 750.65 177.65 752.48 178.44 755.46 181.77 756.71 186.45 757.37 187.91 758.01 188.29 761.68 184.62 763.2 182.37 767.09 179.89 768.43 178.04 768.81 174.51 769.79 174.31 770.82 174.84 771.76 176.1 771.7 177.15 770.21 178.73 770.8 179.36 774.17 179.83 775.85 180.35 778.85 182.06 779.93 184.9 781.88 186.2 784.98 187.38 785.57 187.89 786.44 190.06 787.56 191.03 791.11 191.64 792.78 191.1 792.81 189.04 791.85 188.27 791.82 187.21 792.45 186.16 794.03 187.14 795.52 188.62 798.97 192.49 799 193.3 797.47 194.75 796.61 196.7 795 198.68 793.07 198.73 791.31 197.9 788.45 199.02 789.06 201.39 789.24 203.51 788.64 205.17 788.45 206.99 789.05 207.94 788.79 209.17 787.33 210.91 784.49 213.83 781.05 215.49 779.68 215.87 779.85 217.18 779.29 217.98 779.6 218.83 779.43 220.31 778.61 221.73 776.94 225.37 776.8 226.06 777.32 228.14 775.98 230.71 776.31 232.44 777.96 234.18 778.25 235.33 776.88 235.92 775.34 236.08 774.25 238.06 772.65 239.71 772.84 242.24 772.12 242.81 771.06 242.47 770.52 246.33 771.59 247.77 773.25 247.73 774.04 248.36 775.06 250.73 775.27 251.83 774.88 252.74 775.2 253.62 776.85 255.22 777.39 256.86 777.32 259.54 777.04 261.63 777.2 263.22 777.93 264.51 777.74 267.54 775.66 269.78 775.09 271.04 775.02 272.4 775.77 275.34 775.2 276.36 771.77 279.31 770.92 280.94 770 281.75 770.45 282.48 770.05 283.63 769.87 285.88 768.89 287.39 767.8 287.95 767.18 289.73 767.58 291.11 765.64 292.26 764.7 294.61 765.05 297.29 766.11 298.91 766.94 300.76 765.09 301.6 765.08 302.51 763.45 303.35 762.39 305.45 762.1 307.27 762.27 308.59 761.84 309.63 760.23 311.04 760.13 311.79 757.84 313.5 757.74 314.91 756.3 315.6 755.55 317.31 754.42 318.89 752.86 319.56 753.02 320.4 751.82 321.86 751.42 322.86 749.43 324.35 747.89 326.15 746.32 326.53 742.53 329.04 742.32 329.84 740.82 331.59 740.05 333.72 739.37 334.23 737.78 337.12 737.03 337.92 732.95 341.22 730.15 343.28 729.53 344.01 727.13 345.37 724.55 346.04 721.05 347.45 718.67 347.44 717.17 346.17 714.93 346.16 711.13 347.49 708.59 349.05 706.16 351.13 704.62 350.45 701.98 349.76 701.18 348.47 699.68 348.11 692.22 349.92 689.61 349.58 688.82 348.54 687.69 345.91 686.25 344.42 681.74 342.29 679.46 342.16 675.29 342.9 672.64 342.36 671.07 342.77 669.78 343.56 667.79 343.81 668.25 344.75 671.16 346.77 672.27 348.02 673.19 349.77 674.21 349.84 674.48 351.72 675.71 352.17 677.95 353.79 679.65 354.73 679.69 356.86 678.43 358.19 678.54 359.6 681.06 362.69 682.03 363.33 681.94 364.4 682.51 366.08 684.31 367.1 683.86 368.53 682.41 371.7 682.98 372.81 684.33 374.13 685.83 376.99 685.43 377.88 683.26 379.46 681.2 380.18 680.27 381.7 680.67 382.59 679.2 383.64 679.29 385.54 679.69 386.4 678.93 387.59 678.89 389 680.31 390.02 682.4 390.57 682.88 392.61 683.68 393.57 683.26 394.33 683.87 395.77 683.38 397.41 683.9 398.11 683.87 400.64 683.31 401.63 683.89 403.73 683.87 404.73 685.11 404.86 685.35 406.36 683.34 408.07 683.17 408.63 701.41 435.67 735.29 485.87 732.36 484.63 729.73 483.83 726.12 483.08 723.37 482.87 722.05 481.64 720.52 481.68 718.26 483.05 716.14 484.71 711.18 485.77 708.88 484.93 708.47 484.04 707.2 483.41 705.41 483.65 704.54 483 702.08 483.57 701.59 483.98 699.57 484.31 698.44 485.3 696.56 485.76 695.52 486.55 694.58 486.54 693.75 487.75 691.6 489.61 691.48 490.61 689.74 492.59 689.06 492.89 686.42 492.82 684.86 493.36 683.38 493.2 681.77 494.02 681.42 495.53 680.18 495.45 677.24 494.21 674.58 495.16 674.13 494.49 672.36 495.81 671.81 496.79 670.82 496.73 669.08 498.1 667.8 497.3 665.83 496.72 664.31 496.78 663.89 495.23 663.04 495.39 661.16 494.43 658.26 491.34 656.5 490.28 653.61 490.32 651.75 489.75 649.76 489.58 647.66 490.49 646.38 492.17 644.16 492.58 641.94 492.26 638.11 494.18 636.59 494.2 635.16 494.64 633.98 494.53 632.12 495.96 629.94 495.78 628.17 494.61 625.68 494.18 623.49 492.13 621.62 490.87 617.78 489.5 616.49 489.86 616.29 492.35 612.9 492.73 610.78 492.5 609.59 492.87 609.63 494.07 610.47 495.36 610.51 496.65 608.9 498.16 607.44 498.23 606.03 495.59 604.1 495.95 602.86 497.41 601.67 498.28 599.48 497.43 598.61 497.48 598.2 498.75 599.43 499.8 599.6 500.62 598.74 501.84 594.89 501.48 594.27 501.72 594.83 505.24 594.43 505.71 592.19 506.67 590.59 505.6 589.52 503.34 588.27 502.8 586.47 502.54 585.06 501.97 584.03 503.1 584.5 504.45 584.05 507 586.22 508.12 586.4 508.9 583.2 511.68 581.75 513.46 581.07 514.85 579.31 515.95 579.18 517.73 575.99 516.78 575.06 517.4 577.38 520.53 576.71 521.46 575.59 520.42 574.15 518.44 572.66 517.14 571.23 516.76 570.5 517.44 570.5 520.93 569.76 521.23 566.69 520.95 565 520.28 564.57 518.86 562.98 519.09 560.3 520.67 559.72 521.27 558.92 523.15 557.56 524.04 558.01 525.18 559.24 525.62 560.46 526.97 560.19 528.71 559.07 529.6 557.26 529.8 555.87 529.22 554.8 527.99 553.38 528.29 549.76 530.11 549.4 531.37 553.66 534.34 553.8 535.42 553.14 536.25 551.45 537.08 547.91 537.14 546.72 538.23 546.67 539.68 547.54 543.17 547.07 544.82 546.04 545.74 543.42 546.09 542.96 546.91 542.56 549.31 541.87 550.85 540.78 551.75 537.4 552.95 534.13 553.73 533.33 554.36 532.77 555.76 532.95 560.42 532.17 562.52 530.85 563.69 527.72 567.97 524.91 570.92 522.45 572.75 519.19 574.38 517.07 575.91 515.58 577.99 514.61 580.7 513.06 583.7 511.86 584.87 509.47 586.58 507.97 588.07 506.94 590.31 505.13 592.59 503.6 593.82 501.51 595.07 498.53 595.62 493.2 596.11 489.07 596.06 479.54 594.13 478.64 597 478.18 595.99 475.58 593.22 470.59 590.84 465.89 589.8 462.3 589.3 457.23 589.47 449.1 589.5 438.19 587.57 434.45 586.76 426.76 583.62 424.31 581.28 423.01 577.52 422.27 573.87 422.33 568.87 423.28 563.5 426.98 553.82 428.81 543.79 428.69 538.64 427.46 535.69 422.56 528.47 418.47 523.48 416.47 521.55 411.8 518.69 406.19 515.72 403.67 514.08 400.74 512.56 393.94 509.96 390.66 509.03 387 508.24 381.87 507.5 378.97 507.39 372.01 507.55 368.78 507.88 359.6 509.62 353.69 511.14 346.08 513.73 335.05 517.92 332.77 518.63 327.01 519.03 321.23 519.06 319.31 518.76 315.77 517.5 314.28 516.61 311.16 513.28 310.48 511.84 310.09 509.88 310.22 508.07 311.25 505.74 313.64 501.44 314.59 499.36 314.94 497.74 313.63 491.85 312.81 489.18 311.12 480.03 310.79 477.32 310.09 474.25 308.5 464.24 307.94 462.21 306.88 460.27 304.39 457.47 303.51 456.22 302.27 455.65 299.9 455.72 296.17 455.18 290.05 454.93 283.63 455.37 280.45 455.69 272.53 457.05 269.71 457.09 263.77 456.83 261.11 456.61 258.69 456.13 253.51 454.56 251.2 453.39 249.54 451.92 248.63 451.5 225.61 432.25 207.04 416.48 205.6 415.44 203.4 413.25 200.71 410.86 198.46 408.28 193.86 403.98 191.29 401.91 188.85 400.2 186.75 399.1 181.28 396.85 178.81 396.26 176.2 396.22 173.25 396.5 168.05 398.47 165.24 399.36 162.3 399.94 155.19 400.38 148.32 400.24 144.79 400.03 142.25 399.69 138.92 398.43 134.54 395.11 129.73 390.78 127.78 388.59 123.35 385.06 121.53 383.99 120.31 383.67 114.35 383.19 105.85 386.13 101.5 391.39 94.03 400.66 89.66 403.09 86.35 404.49 84.18 404.66 78.73 403.81 75.94 403.05 73.62 401.51 71.67 399.36 70.17 397.24 67.1 391.3 65.58 387.98 64.13 384.16 63.56 378.26 64.06 375.4 64.49 371.09 64.24 365.11 61.41 361.2 59.01 359.48 50.94 355.44 44.33 351.8 40.01 349.96 35.58 348.78 29.06 347.43 21.48 346.46 13.43 345.97 10.47 345.38 7.26 344.15 4.7 342.26 2.67 340.21 1.56 337.11 1.14 333.17 1 329.22 1.22 324.08 2.28 318.46 4.5 309.16 7.48 310.12 8.44 311.02 10.53 311.66 12.42 310.85 13.16 311.25 14.13 314.01 15.7 315.01 19.86 315.58 21.32 315.34 23.2 316.04 24.1 316.06 24.98 315.22 27.02 314.81 28.03 313.25 30.88 312.66 32.43 312.9 33.73 311.36 36.29 309.49 37.63 307.98 41.19 306.28 42.66 303.34 43.43 302.66 45.94 301.39 47.68 300.91 47.39 299.34 49.41 299.25 50.04 298.44 53.48 298.73 58.97 297.54 64.1 295.83 66.23 295.93 67.92 295.7 69.25 294.8 69.57 292.97 70.78 292.63 71.17 291.9 72.63 291.18 74.05 288.99 73.96 287.34 74.31 286.59 76.33 284.65 77.5 284.04 81.55 280.23 82.92 278.05 85.25 276.6 87.75 276.69 89.67 277.36 92.1 277.36 93.62 276.91 94.91 275.89 97.22 275.84 99.24 274.69 100.92 274.79 103.22 274.53 105.62 275.44 106.36 276.23 113.8 282.53 132.47 224.17 132.62 222.84 133.53 221.92 133.44 220.53 134.14 218.74 135.44 218.08 135.66 216.6 136.4 215.59 136.26 212.82 137.12 211.26 136.1 209.83 136.6 208.18 136.73 206.5 136 205.44 136.28 202.18 137.71 200.95 138.78 198.64 141.18 190.5 141.21 189.36 143.17 183.6 142.35 182.3 140.41 177.39 140.37 173.95 139.66 170.46 139.81 169.3 141.58 167.32 143.4 167.13 144.04 166.45 146.35 165.52 147.95 164.54 149.06 165.14 150.36 164.26 151.94 162.66 151.85 161.53 152.59 160.37 154.98 159.28 157.02 159.44 158.34 157.97 160.17 157.86 162.68 157.03 163.55 156.08 162.48 153.74 163.48 152.34 163.22 150.44 165.05 148.89 166.11 148.63 167.16 146.43 169.38 145.88 170.61 145.96 170.89 143.84 171.6 142.61 175.86 142.86 175.94 141.35 175.58 140.47 177.3 138.43 177.77 136.49 177.92 134.21 176.24 133.4 175.21 132.08 175.3 128.37 174.64 125.03 172.22 123.65 168.67 123.08 167.78 122.46 165.86 118.58 165.26 116.72 165.57 116 169.55 115.9 171.78 115.1 173.69 113.77 174.19 112.18 173.85 111.54 171.7 110.08 170.51 108.87 169.6 105.27 168.6 103.52 166.24 101.54 166.79 97.66 166.06 95.97 163.41 94.05 161.02 92.71 159.65 92.43 158.12 92.61 153.98 93.8 150.39 93.95 148.41 93.56 147.04 92.66 146.16 90.91 145.92 87.71 146.65 85.8 148.88 82.22 149.8 79.05 149.58 76.47 149.07 75.4 147.34 73.8 145.46 72.97 141.43 71.61 138.36 71.52 136.26 71.25 134.15 70.61 132.65 67.96 130.82 60.65 129.6 56.99 132.08 58.3 134.79 58.7 137.36 58.47 140.35 57.83 143.65 56.87 149.86 54.51 153.33 52.88 156.14 51.26 158.83 48.97 161.42 45.45 162.44 43 162.85 40.94 162.94 38.2 162.29 33.57 161.07 28.79 160.53 25.45 160.45 22.77 160.83 19.24 161.79 16.3 163.26 13.47 165.76 10.24 167.97 8.22 171.94 5.04 174.06 3.54 176.96 2.16 179.86 1.4 182.64 1.04 184.97 1 189.44 1.43 193.43 1.35 197.24 1.68 200.48 2.23 203.94 3.24 207.58 5.1 Z"/>
</g>
</svg>