<?xml version="1.0"?>
<svg xmlns="http://www.w3.org/2000/svg" version="1.2" baseProfile="tiny" width="800" height="573" viewBox="0 0 800 573" stroke-linecap="round" stroke-linejoin="round">
<g id="4201802">
<path d="M 693.43 29.72 742.83 207.99 776.49 330.99 799 413.29 704.03 423.31 589.1 460.05 438.69 499.82 398.88 510.11 396.67 511.88 394.28 511.35 391.54 512.56 385.38 510.79 382.66 507.44 377.77 505.66 373.71 506.85 368.78 506.89 362.52 506.04 361.1 504.78 353.16 504.98 350.49 504.11 345.19 503.99 338.63 502.79 334.1 500.92 325.78 496.43 326.22 493.5 320.54 479.52 316.8 471.42 312.69 466.56 309.24 466.24 307.36 464.47 298.73 459.56 291.68 457.77 268.57 450.75 265.73 449.43 260.23 449.79 256.41 452.55 253.69 456.37 251.64 461.34 250.95 468.87 246.92 474.17 241.69 477.4 230.01 481.68 219.19 480.85 212.47 478.97 204.57 480 192.21 486.54 184.71 491.54 176.89 496.09 165.19 508.87 162.11 510.48 156.83 511.61 149.5 510.47 146.51 511.36 141.67 514.87 137.56 516.29 131.26 516.87 124.98 515.8 120.61 517.85 120.45 522.72 125.59 527.56 126.27 532.79 124.74 535.51 118.71 542.31 115.81 546.28 105.9 556.98 96.67 564.67 92.45 568.96 88.13 571.28 82.24 572 78.43 570.59 73.85 564.48 72.7 561.02 67.91 558.71 60.42 560.9 49.38 562.03 38.59 559.3 36.45 555.81 36.85 549.44 34.42 542.3 29.79 537.54 11.24 530.88 8.07 528.96 6.3 525.08 7.89 516.77 5.98 510.82 1 501.39 1.41 495.11 3.11 491.47 8.07 485.04 11.11 479.53 11.77 476.39 13.37 462.17 13.27 457.66 14.15 453.08 18.12 445.25 21.35 437.25 25.94 428.25 34.01 417.5 38.16 412.78 39.68 409.98 41.1 404.41 45.49 398.11 46.73 393.34 45.79 389.28 40.23 386.63 37.81 384.31 32.95 376.59 30.76 373.92 29.57 365.63 26.62 360.73 27.68 356.71 30.45 354.34 43.83 351.64 47.6 349.15 49.16 340.8 51.88 334.99 53.02 330.99 60.12 328.91 65.73 329.84 76.24 329.03 81.34 326.88 84.02 322.5 84.7 318.01 84.51 312.56 91.5 299.41 97.34 295.41 102.24 290.38 107.4 280.24 107.53 272.96 109.64 270.18 112.92 269.36 128.63 259.88 129.98 257.22 129.77 249.34 131.7 244.75 140.77 235.82 141.25 232.01 140.42 226.87 140.49 217.93 141.57 214.18 147.6 205.64 150.43 204.04 159.89 204.96 161.91 203.47 172.91 189.88 177.76 182.51 182.85 177.15 188.22 162.86 191.76 160.12 202.45 157.52 209.91 153.29 216.7 147.7 223.33 140.76 226.79 139 231.71 135.18 237.83 133.98 249.32 128.89 256.4 124.92 262.12 122.65 265.37 122.5 272.24 124.35 279.42 122.55 283.97 118.08 286.43 113.83 288.46 108.21 289.22 103.22 292.41 98.8 296.11 97.16 304.94 97.45 310.43 98.88 328.22 95.73 334.7 92.84 338.89 86.91 344.45 81.97 351.76 79.96 354.91 78.06 359.59 70.61 363.69 66.48 373.48 59.43 378.64 61.88 385.62 62.17 391.37 61.19 400.63 66.17 407.5 68.59 414.2 72.63 418.71 71.5 425.19 68.78 428.66 66.67 430.93 62.78 435.64 59.13 440.76 53.5 446.43 48.42 457.77 46.36 466.32 40.86 470.46 38.94 476.78 37.2 480.78 34.05 484.01 24.39 487.79 21.29 501.27 19.72 507.93 19.9 518.24 18 521.24 18.19 529.75 21.08 537.45 21.77 544.83 23.2 549.36 26.67 551.41 30.77 555.57 33.01 562.52 32.95 565.34 30.61 569.64 30.37 572.76 33.43 574.65 39.16 578.96 41.76 581.11 44.14 582.29 47.62 588.19 48.27 601.35 45 611.68 40.58 614.06 38.41 616.98 31.58 621.2 27.17 626.98 26.79 635.68 22.07 637.69 18.35 638.09 10.66 638.96 6.81 642.09 2.31 645.85 1 651.27 1.63 654.74 5.47 655.4 7.85 654.52 12.35 657.17 15.82 662.53 18.57 669.86 19.46 674.6 21.3 687.47 30.12 693.43 29.72 Z"/>
</g>
</svg>