<?xml version="1.0"?>
<svg xmlns="http://www.w3.org/2000/svg" version="1.2" baseProfile="tiny" width="800" height="940" viewBox="0 0 800 940" stroke-linecap="round" stroke-linejoin="round">
<g id="4201653">
<path d="M 608.69 96.61 616.05 96.14 625.71 97.36 628.48 99.24 629.66 104.58 631.63 107.89 636.72 107.58 640.98 109.12 642.17 180.98 647.16 289.92 713.28 286.52 718.55 403.22 728.27 537.05 731.86 570.48 738.28 664.09 799 665.81 797.08 672.44 793.21 682.85 792.55 691.3 789.12 699.62 783.65 707.79 775.79 715.87 771.95 718 762.8 717.59 757.05 714.76 752.98 715.95 751.42 730.91 746.81 732.78 739.13 731.35 728.44 733.08 724.41 736.93 718.3 744.63 712.35 754.77 711.93 759.49 715.98 768.69 717.8 771.42 721.22 772.36 724.39 770.26 729.44 769.04 733.02 770.95 735.73 776.38 735.68 781.69 732.09 785.86 723.93 791.12 711.69 791.94 705.54 794.59 705.08 798.09 709.18 800.32 719.93 802.22 729.28 802.17 742.73 800.77 748.2 801.41 752.19 804.41 754.08 807.45 754.81 813.58 753.69 816.82 750.78 817.19 744.13 820.49 735.35 821.02 731.4 823.79 729.88 826.8 729.81 830.98 728.35 836.58 728.4 841.93 726.17 848.62 721.93 853.7 714.4 855.67 704.71 859.02 515.88 825.57 510.05 831.03 508.85 835.5 505.45 836.64 507.15 839.56 503.65 840.77 498.93 844.55 497.73 848.05 493.49 851.21 494.35 856.36 493.79 862.35 489.85 867.21 482.23 871.23 480.35 874.13 477.33 874.72 472.18 873.08 464.5 873.21 460.23 877.81 453.14 882.56 453.66 885.86 452.03 890.48 448 894.95 443.49 894.65 438.99 898.62 428.19 900.96 422.89 902.84 418.68 906.16 408.51 906.41 405.53 910.33 397.17 909.94 390.74 913.07 381.25 911.3 375.39 908.94 371.74 910.46 366.33 911.01 363.67 915.75 357.42 920.25 355.49 922.65 344.47 930.12 341.04 930.31 333.93 934.57 329.58 933.71 325.76 935.3 316.22 937.33 302.33 937.13 294.82 939 288.67 933.32 286.18 936.54 278.3 934.98 269.79 936.11 267.08 933.49 268.28 927.65 263.87 922.9 256.16 916.71 255.71 910.38 253.68 909.07 245.88 910.25 242.81 909.69 238.69 906.55 234.68 900.58 226.93 893.91 225.42 889.49 215.99 879.63 209.63 877.34 205.43 874.71 200.74 869.65 197.09 870.35 195.03 875.45 191.16 875.1 182.93 870.7 176.19 861.94 173.6 859.94 164.25 856.6 152.87 856.72 150.02 854.61 149.56 849.84 146.74 846.65 140.69 844.91 139.11 841.77 140.07 836.75 139.17 832.9 132.66 826.02 141.97 822.9 152.1 818.66 159.56 816.56 181.53 818.08 187 816.3 189.81 812.81 190.25 809.22 187.36 804.35 181.9 800.13 169.83 792.94 149.23 782.86 139.69 777.24 123.25 765.88 114.67 759.55 99.52 749.23 85.37 740.4 70.36 729.2 55.35 720.59 45.07 713.76 30.59 705.71 17.84 699.56 1 688.49 1.61 685.66 6.86 681.53 14.58 678.44 31.68 676.7 44.81 673.11 47.91 671.02 51.34 666.4 54.57 658.93 58.55 654.9 65.6 650.94 71.19 650.77 75.81 651.83 89.17 656.22 102.1 661.43 118.9 665.75 123.94 668.6 130.57 669.42 135.63 668.9 138.65 667.31 141.92 663.32 143.51 659.06 143.91 653.23 139.69 635.32 139.5 628.11 140.74 619.53 145.39 611.65 149.59 602.53 152.32 595.01 158.4 573.57 160.61 567.87 168.05 561.54 172.57 559.35 182.03 557.06 193.9 553.02 198.1 550 205.42 547.27 216.55 545.55 225.53 545.27 229.41 546.14 233.76 549.25 240.13 557.36 246.11 570.11 252.93 582.54 257.79 587.29 265.26 590.76 276.7 590.63 295.21 585.16 300.13 585.14 309.45 588.24 316.5 588.45 323.38 586.4 337.2 583.17 342.71 579.49 342.52 575.48 335.31 568.8 321.41 559.6 312.11 554.02 306.75 548.74 302.45 541.87 298.93 533.79 295.43 528.27 294.23 523.68 290.22 516.31 283.53 506.76 276.83 494.27 267.78 472.72 258.09 457.43 256.03 451.48 253.3 440.34 251.3 428.97 246.96 408.51 241.85 393.14 236.72 387.82 230.26 382.61 223.63 379.38 218.06 377.65 204.75 374.61 202.12 372.74 199.84 367.63 200.9 361.32 203.8 357.31 212.9 350.57 235.41 335.35 243.89 331.78 249.97 329.94 260.96 328.88 268.35 329.02 278.51 331.73 305.39 337.61 316.69 341.36 328.2 346.12 335.39 351.32 345.98 365.51 357.1 386.13 360.17 391.22 366.03 405.88 371.79 424.98 374.44 430.92 382.89 440.23 386.54 442.69 389.82 443.13 394.82 440.3 415.13 419.53 419.51 415.92 428.55 411.05 432.61 405.98 433.02 399.78 430.86 395.76 419.74 384.1 409.49 369.09 406.55 362.83 403.74 354.47 396.22 335.34 392.1 326.07 390.57 318.69 390.53 310.39 393.61 303.48 402.08 295.75 406.7 293.34 418.62 289.25 428.07 286.69 438.9 282.24 448.99 277.24 457.59 268.96 462.86 267.05 468.81 267.43 473.59 270.01 479.08 275.12 483.46 277.61 486.34 276.51 493.71 271.08 497.06 265.8 496 261.13 483.46 252.64 470.84 247.33 461.11 245.25 453.9 242.36 441.27 236.21 435.97 233 426.2 224.85 423.53 223.58 418.47 218.77 414.08 218.12 409.97 219.8 407.65 225.51 409.06 229.78 410.07 238.76 409.65 247.36 408.12 251.83 405.35 254.5 398.82 255.74 389.61 254.16 377.06 253.44 368.16 251.99 341.94 244.07 334.83 240.71 323.81 237.23 317.05 234.04 313.22 230.49 309.66 225.48 307.23 215.72 307.12 190.71 306.11 185.19 303.08 177.37 299.65 170.82 297.01 168.33 290.61 159.8 287.44 154.52 286.35 149.1 287.94 142.46 290.47 135.49 293.91 129.29 299.91 113.83 305.39 92.44 306.48 84.39 305.01 78.49 307.33 75.89 321.65 68.44 334.27 64.62 347.49 62.43 352.2 62.1 359.56 58.16 360.65 55.03 359.97 50.1 354.66 43.1 352.54 37.78 352.23 34.16 356.02 29.53 360.92 26.07 366.31 23.88 375.24 21.9 380.9 20.01 396.98 17.07 405.46 13.54 412.55 7.67 425.28 3.47 436.49 1 444.54 1.14 452.38 2.62 459.18 4.88 462.36 7.32 467.65 15.58 478.56 31.5 483.46 47.35 486.75 55.28 488.21 64.26 490.23 70.86 494.24 79.13 509.57 100.19 514.48 105.7 529.71 120.55 537.28 126.1 542.1 131.4 551.49 132.73 556.65 135.56 562.38 135.64 565.18 133.38 569.48 126.22 575.23 121.83 593 111.46 603.34 103.28 608.69 96.61 Z"/>
</g>
</svg>