<?xml version="1.0"?>
<svg xmlns="http://www.w3.org/2000/svg" version="1.2" baseProfile="tiny" width="800" height="651" viewBox="0 0 800 651" stroke-linecap="round" stroke-linejoin="round">
<g id="4201950">
<path d="M 210.72 650 208.55 648.32 160.69 613.03 90.94 561.48 1 495.01 3.87 494.53 14.48 491.52 33.41 483.97 55.63 471.13 70.97 458.51 78.18 450.56 82.24 441.09 87.04 427.71 93.55 408.24 96.8 404.45 108.81 394.59 116.67 386.9 120.93 379.26 124.21 370.29 126.03 367.96 130.42 365.32 138.17 363.24 142.19 360.29 147.63 361.41 154.61 361.85 160.07 363.13 162.83 362 164.39 359.02 167.47 356.74 168.97 354.89 169.71 351.7 172.31 348.3 173.88 347.14 174.56 345.02 181.3 341.96 184.31 341.76 192.75 338.98 198.45 335.68 202.84 335.06 208.83 333.09 214.73 329.85 223.25 328.35 227.05 325.86 229.93 323.09 233.95 320.73 238.85 318.52 249.31 311.64 256.49 307.9 264.21 302.39 267.84 297.87 274.82 295.01 279.23 292.68 284.39 291.08 288.15 286.98 290.85 285.74 294.67 281.28 296.69 279.83 301.14 278.16 304.35 277.61 307.82 275.39 314.64 275.27 321.3 273.4 327.5 270.81 333.8 269.11 335.59 267.82 340.95 261.12 348.11 260.64 351.53 258.72 352.48 257 355.07 255.01 353.95 250.82 353.74 242.67 352.1 239.75 352.13 236.96 354.01 232.16 377.84 213.53 449.97 159.47 507.16 116.3 529.84 101.04 538.52 94.81 549.04 87.86 569.49 72.98 575.5 70.16 583.62 69.16 587.44 67.36 591.26 64.39 592.8 62.46 599.34 55.92 602.18 53.85 607.95 47.58 611.57 44.05 615.89 40.86 619.38 38.9 625.14 36.5 628.61 35.59 636.84 34.45 642.7 32.53 651.34 24.85 656.16 19.24 661.27 14.45 661.63 9.44 663.18 7.69 663.18 6.02 660.86 3.09 660.13 1 748.11 14.44 785.28 48.28 799 61.1 795.41 65 792.83 66.11 791.75 67.86 789.14 69.52 787.3 71.87 784.41 72.91 783.86 75.29 781.75 76.05 779.85 79.19 776.7 80.91 776.29 82.42 772.86 84.3 771 86.61 769.57 86.28 766.3 90.43 764.71 90.52 763.41 92.94 757.41 98.18 751.28 104.45 748.74 105.83 747.58 108.01 745.94 108.04 745.24 109.96 741.61 111.6 740.74 113.87 736.14 117.36 734.23 120.27 730.77 122.37 728.5 125.36 723.36 129.25 722.29 130.67 713.14 138.22 706.93 144.99 704.18 146.36 703.42 147.87 697.73 153.53 695.2 154.27 692.84 157.93 690.34 159.36 686.42 163.43 684.45 164.82 682.4 167.99 679.99 168.56 679.3 170.66 676.97 171.27 676.05 173.21 672.94 176.75 671.83 177.04 667.43 182.19 664.91 182.53 663.88 185.4 661.15 187.23 659.3 189.89 656.89 191.43 652.7 196.23 650 196.68 648.94 199.19 645.39 203.36 642.97 204.68 639.88 208.51 638.09 208.97 636.99 210.93 634.6 212.41 632.91 215.34 630.97 216.18 629.59 218.32 626.79 219.65 624.53 223.41 622.27 224.55 614.93 231.95 613.48 232.52 611.9 235.01 608.85 237.44 607.96 239.1 604.9 240.77 603.39 243.2 600.78 244.96 597.57 248.39 594.13 249.83 589.55 254.13 582.14 262.04 577.46 265.04 577.51 266.43 570.72 273.3 566.07 276.71 565.73 278.16 561.95 280.25 561.32 282.16 558.66 285.11 555.9 286.87 550.96 293.34 548.79 293.85 546.62 297.56 541.58 301.14 537.25 306.74 534.13 308.62 533.16 310.66 530.81 313.19 528.91 313.91 527.91 316.19 525.04 319.51 516.91 326.8 513.75 328.46 510.96 332.56 502.92 340.12 500.38 343.47 497.03 345.01 494.32 349.32 490.88 352.89 488.75 354.16 488.95 356.38 487.08 357.32 485.94 359.81 484.51 360.6 480.49 366.12 474.43 371.75 472.71 371.96 467.44 378.91 465.4 380.22 462.72 383.28 461.25 383.37 459.48 386.07 456.13 388.53 452.91 393.51 448.15 397.13 446.44 399.63 442.29 403.1 439.96 406.34 437.7 408.03 437.52 409.54 434.06 412.15 431.54 412.73 430.35 414.13 430.34 416.26 427.91 416.35 427.16 417.91 423.74 421.18 423.05 422.91 418.21 426.58 416.91 429.51 415.23 429.74 411.37 434.49 410.07 434.66 409.31 437.04 406.88 438.65 406.27 440.08 400.35 444.84 397.29 444.59 398.36 448.67 395.35 452.24 393.22 452.47 392.14 454.88 390.26 456.06 389.88 458.11 387.67 458.9 383.38 462.47 383.28 463.63 379.53 464.96 379.25 469.7 376.03 471.6 375.82 473.51 373.94 474.69 372.07 477.21 369.57 477.7 368.7 479.69 362.04 485.67 358.28 490.23 356.16 492 354.59 494.53 350.63 499.14 347.47 501.93 347.37 503.97 344.59 507.49 340.28 511.63 334.75 518.53 332.72 519.27 331.86 521.03 329.05 523.7 326.82 523.3 327.16 525.85 319.09 534.55 316.69 536.68 315.34 539.22 313.47 539.95 312.23 542.41 309.13 543.4 306.87 546.91 304.3 548.06 300.57 552.77 299.43 552.98 290.23 563.62 289.63 565.04 286.19 566 286.34 568.52 282.94 571 278.35 576.93 271.87 582.14 271.87 584.26 268.92 584.36 268.32 588.01 265.46 591.94 263.37 592.68 262.77 594.51 260.67 596.04 252.12 604.63 251.02 606.62 248.32 608.41 246.96 611.01 241.01 617.49 234.58 623.97 229.67 629.84 217.56 642.38 210.72 650 Z"/>
</g>
</svg>