<?xml version="1.0"?>
<svg xmlns="http://www.w3.org/2000/svg" version="1.2" baseProfile="tiny" width="800" height="534" viewBox="0 0 800 534" stroke-linecap="round" stroke-linejoin="round">
<g id="4201901">
<path d="M 622.16 46.75 627.23 47.3 629.2 47.09 632.29 48.05 636.91 51.54 642.47 51.9 644.97 54.43 648.8 56.69 650.94 57.28 656.14 56.56 660.04 58.34 662.23 58.12 665.02 58.86 670.28 58.29 672.73 59.17 676.28 61.49 679.58 62.21 681.38 63.98 681.37 67.44 682.76 70.78 688.34 72.82 690.38 75.21 691.51 78.19 691.68 82.13 688.85 85.09 688.86 86.34 691.78 88.59 692.7 90.97 695.8 95.09 697.05 99.46 701.9 106.09 703.86 109.35 704.48 113.35 706.82 116.58 709.98 119.1 715.17 124.42 719.68 128.24 722.61 132.04 725.04 139.83 728.16 142.49 735.04 144.69 740.13 145.26 743.86 144.99 747.65 146.14 750.76 148.58 752.06 152.28 754.58 153.33 756.83 155.47 759.4 157.19 762.3 158.36 765.23 161.11 769.19 161.96 773.07 163.36 777.82 164.1 783.46 166.19 793.13 169.02 797.57 169.54 799 170.62 798.76 172.89 796.03 176.17 792.94 176.4 790.66 177.41 787.34 180.83 781.31 185.49 777.62 189.43 772.06 192.45 768.94 195.59 766.02 199.75 762.73 203.54 761.33 204.41 758.14 205.03 753.2 208.12 748.96 210.39 747.15 215.74 746 217.53 742.37 220.31 741.61 223.55 743.37 227.2 743.19 229.98 741.56 233.85 738.78 235.93 737.73 239.31 735.48 240.42 732.09 243.74 730.56 245.91 731.08 251.9 730.01 256.59 729.14 257.93 728.9 262.39 729.19 264.79 725.76 266.4 722.39 269.55 720.97 271.55 720.56 274.75 718.45 277.51 718.77 280.52 722.96 286.99 721.63 289.13 720.09 287.78 716.61 288.08 716.91 290.98 718.65 292.62 718.41 293.67 716.12 294.93 718.41 296.61 715.65 299.03 716.95 301.53 716.06 302.86 716.83 306.83 714.25 312.6 709.03 315.7 709 318.04 706.47 317.82 702.59 316.75 700.67 317.3 697.33 319.35 695.93 320.86 695.51 324.23 694.07 326.2 693.57 329.48 687.5 331.54 689.03 333.83 689.45 336.47 688.66 338.29 685.52 342.99 681.42 344.77 676.24 345.13 670.4 348.77 668.55 350.73 667.23 354.01 661.31 357.22 660.14 359.86 656.03 359.46 653.16 360.66 653.77 364.99 652.58 367.14 649.3 369.02 647.02 371.21 644.34 372.54 641.96 372.9 640.12 373.99 641.3 377.16 641.39 379.03 639.28 379.9 637.04 378.19 634.76 378.73 633.34 381.87 631.72 383.15 628.36 382.72 626.07 385.25 622.47 387.61 618.08 388.78 617.25 389.7 615.47 394.7 615.32 397.25 614.46 399.69 611.95 401.04 610.42 402.85 607.53 404.88 607.26 405.91 609.54 409.3 608.61 411.24 603.09 413.41 598.82 412.98 597.28 414.21 599.46 416.66 600.51 419.87 599.37 421.26 595.27 423.21 592.95 425.48 592.16 428.63 586.89 432.25 583.87 431.43 580.14 431.84 577.74 430.21 575.42 429.61 572.78 431.65 572.1 436.34 574.42 438.69 575.92 441.3 575.93 447.82 573.27 449.99 571.27 452.49 569.53 452.14 568.61 450.64 566.71 450.42 564.91 452.06 560.92 456.97 559.75 459.4 559.4 462.62 558.47 463.44 554.49 464.43 553.15 465.92 552.23 470.11 547.17 471.48 544.46 471.77 544.85 469.22 542.68 468.27 540.64 469.08 537.6 469.18 534.7 470.05 531.94 474.03 530.95 476.36 529.1 478.22 524.99 478 522.66 477.13 521.49 478.19 522.45 479.8 525.3 479.99 526.33 482.36 525.8 484.61 523.84 484.01 523.11 486.53 517.96 484.18 514.39 486.17 513.87 487.89 515.8 489.05 514.25 490.88 513.99 492.88 514.85 494.48 517.26 494.67 517.96 496.4 516 499.29 513.49 496.95 511.86 498.53 508.3 499.47 509.08 495.88 507.11 494.84 505.27 495.05 503.14 497 504.95 500.09 504.07 501.98 502.22 503.53 500.26 502.02 497.72 503.53 497.91 505.97 495.6 506.41 496.29 509.52 493.53 508.89 493.74 506.98 484.86 510.88 482.88 514.2 482.98 517.39 480.95 517.9 479.76 519.35 480.38 522.89 478.87 525.19 476.26 524.8 473.72 523.54 471.74 523.73 469.95 526.4 468.24 527.07 466.38 525.24 465.05 525.74 461.11 530.86 458.34 533 456.49 532.48 455.3 530.77 454.16 527.64 454.72 524.67 450.26 524.04 445.1 524.02 437.92 525.15 436.97 523.82 437.55 522.32 435.68 519.53 432.73 516.41 429.84 511.08 428.62 509.72 425.79 508.29 421.8 509.91 413.93 512.56 412.01 511.63 411.68 508.72 412.9 504.75 410.75 504.28 408.04 505.24 401.79 504.08 399.45 505.49 395.24 507.12 394.46 508.27 397.3 511.91 396.73 516.84 395.01 517.55 390.72 516.74 387.96 517.37 383.31 519.4 382.28 515.55 379.1 511.91 378.04 509.6 373.02 509.01 370 509.02 363.08 507.85 361.35 506.37 358.01 502.19 354.68 500.08 350.54 499.98 346.57 501.09 344.19 502.62 342.06 503.22 340.87 501 340.89 496.94 339.41 496.47 334.91 497.58 333.74 499.94 333.56 503.68 329.91 503.76 328.02 500.21 324.08 494.94 321.03 492.24 314.46 487.46 308.34 481.59 307.75 485.46 309.11 485.79 308.25 489.05 307.16 489.47 306.61 492.86 304.54 494.51 300.83 496.42 299.12 498.09 298.44 499.89 296.68 501.33 293 502.77 290.58 502.39 287.87 502.75 284.84 502.3 282.63 504.15 279.06 505.11 276.85 506.94 273.27 507.69 265.43 510.35 264.39 509.25 261.07 508.53 258.98 509.61 257.56 511.33 253.64 509.92 252.46 510.52 251.87 513.1 246.59 513.63 243.28 512.91 241.01 513.35 238.63 513.01 236.28 511.16 234.09 511.38 227.56 513.61 225.29 516.07 223.64 516.64 221.21 518.87 219.21 517.65 216.22 517.76 212.36 516.67 210.59 514.56 208.93 513.65 206.92 514.24 202.15 511.56 198.95 509.01 196.83 508.93 192.94 509.76 184.11 510.56 185.72 512.49 185.02 513.81 182.11 514.22 177.5 516.1 173.01 516.82 169.18 516.5 166.44 516.78 163.33 515.94 160 513.68 157.97 511.03 158.47 506.41 159.91 503.86 159.98 501.24 159.22 498.25 159.92 495.93 161.66 492.84 161.95 490.34 159.81 488.68 151.17 487.69 144.61 488.5 136.42 488.34 126.14 486.14 122.74 486.14 122.61 484.23 120.69 479.15 120.02 475.1 120.12 470.7 122.11 466.29 121.8 465.09 122.63 461.79 121.55 458.38 122.75 454.12 122.59 452.97 120.11 449.89 120.01 447.54 120.78 446.38 117.76 441.83 118.82 438.99 118.1 437.43 118.18 432.97 120.58 431.62 120.64 430.54 118.93 428.13 117.31 427.23 117.2 425.76 113.98 420.87 110.3 419.25 108.41 417.39 107.06 414.23 106.03 410.11 104.86 408.04 106.57 403.19 106.79 396.5 106.13 394.38 102.82 388.35 96.91 383.28 94.25 379.76 91.39 377.39 90.69 375.72 91.05 373.64 93.55 371.63 96.37 368.46 97.31 365.85 97.67 362.28 97.32 358.06 95.93 356.01 96.4 354.26 96.57 348.54 96.12 346.93 96.73 344.9 97.36 336.51 94.89 333.78 92.31 328.64 91.48 322.24 89.78 319.28 92.07 316.08 92.83 312.56 91.54 307.92 93.01 304.87 92.39 302.44 89.9 300.56 86.74 296.4 80.08 294.02 76.91 294.44 74.05 298.68 73.37 298.37 70.16 294.09 66.38 292.38 64.65 293.39 61.62 292.59 55.31 288.64 53.42 287.08 52.96 283.02 54.04 277.94 56.44 275.04 59.02 274.89 66.55 270.79 70.18 268.3 71.3 266.09 67.79 260.16 62.74 255 62.02 242.64 58.72 239.58 55.14 234.45 52.33 231.51 51.05 227.47 48.68 226.54 46.19 223.68 44.84 220.64 43.01 218.31 40.77 217.43 34.85 217.22 32.24 217.62 30.93 216.6 28.21 218.09 26.76 222.69 23.17 222.42 20.07 220.66 16.07 221.43 13.2 220.89 12.57 216.46 7.31 216.46 9.16 213.54 10.27 208.77 15.24 204.94 14.88 201.32 15.29 199.24 20.06 193.6 17.33 189.86 15.95 186.55 17.6 184.01 13.47 180.63 12.91 179.23 7.28 175.86 2.84 171.45 1 169.05 2.06 168.22 6.62 166.56 8.77 164.51 9.75 161.5 10.79 156.39 12.19 151.25 14.75 147.78 18.41 145.04 20.54 142.98 21.17 138.84 22.72 135.92 27.53 133.62 30.57 131.4 33.71 125.08 37.76 121.17 38.95 119.46 43.29 117.84 51.66 116.97 56.32 117.16 58.9 115.52 64.51 114.99 68.2 113.87 70.27 112.15 72.57 111.24 77.5 110.42 79.91 108.02 83.88 102.33 85.74 101.07 90.25 104.22 91.77 103.48 93.52 98.19 94.92 97.69 98.31 98.41 100.48 97.43 102.57 90.53 103.74 89.56 109.5 89.46 111.96 90.96 115.4 92.16 116.5 91.98 123.01 89.12 124.44 86.93 127.11 78.23 125.39 75.12 126.2 72.22 195.5 60.19 198.44 61.33 201.89 61.76 203.26 62.54 204.93 66.01 210.42 69.92 212.32 70.89 218.37 72.44 222.78 71.43 226.17 69.94 228.83 70.62 232.72 74.77 237.1 78.03 238.29 79.96 238.06 81.48 239.78 83.38 243.92 84.42 247.19 88.89 252.2 94.48 256.32 95.61 259.19 95.48 262.94 93.88 265.53 93.93 267.35 94.68 270.64 94.94 272.33 93.48 274.28 90.41 277.68 87.69 281.81 85.96 282.19 83.14 283.23 81.08 285.14 79.28 289.07 76.77 293.53 72.53 300.98 69.52 304.73 69.77 307.77 72.64 310.42 72.65 314.21 71.14 320.84 70.83 323.4 71.04 326.58 70.53 331.25 68.39 334.9 66.07 337.81 63.26 339.83 62.2 346.03 56.43 346.3 52.79 347.79 51 353.05 46.36 354.66 44.58 356.37 44.11 361.79 44.36 366.97 43.93 370.54 43.11 374.14 41.73 376.22 40.32 379.7 36.94 382.78 35.09 388.63 32.32 397.57 25.61 398.72 23.66 400.65 17.53 408.72 10.42 416.59 5.83 428.24 1 431.39 2.68 434.61 5.72 437.37 12.78 439 16.26 443.44 20.92 447.49 24.52 449.43 27.97 451.27 30.09 453.49 31.58 457.35 32.04 461.17 35.2 465.04 37.06 466.5 40.52 468.53 43.78 471.82 46.03 473.89 48.96 475.68 54 477.25 56.51 478.55 60.02 479.84 60.7 482.36 60.04 486.42 61.05 489.13 63.16 490.23 63.3 493.92 61.21 496.91 61.35 499.67 63.38 501.7 64.08 505.93 64.3 507.68 65.62 510.93 66.7 513.54 66.25 515.74 64.53 520.98 63.83 524.14 62.22 530.41 59.91 533.35 58.48 534.6 58.86 536.52 61.57 540.16 64.37 542.91 65.77 545.08 65.31 548.93 66.16 558.21 63.01 560.08 62.78 566.81 64.33 573.07 62.52 580.32 61.02 585.42 59.17 592.31 57.25 600.38 55.45 606.03 53.69 613.02 52.53 618.29 48.79 622.16 46.75 Z"/>
</g>
</svg>