<?xml version="1.0"?>
<svg xmlns="http://www.w3.org/2000/svg" version="1.2" baseProfile="tiny" width="800" height="675" viewBox="0 0 800 675" stroke-linecap="round" stroke-linejoin="round">
<g id="4201604">
<path d="M 718.09 71.28 721.63 68.37 725.39 67.39 726.42 65.75 730.49 64.8 735.31 70.85 735.53 77.07 733.47 79.82 727.59 85.06 723.07 87.2 715.75 89.52 706.89 93.94 704.02 98.11 701.66 107.03 698.22 113.31 696.69 118.17 697.64 123.94 702.27 124.27 703.96 122.2 705.1 117.4 707.3 116.7 717.45 116.83 718.89 118.09 717.74 122.33 719.5 124.41 722.61 124.4 729.76 119.3 732.69 109.3 735.32 105.6 741.58 106.49 751.56 115.55 757.02 122.59 758.59 126.4 751.11 139.34 746.25 144.56 740.05 148.62 732.68 151.2 724.56 153.32 719.73 153.74 710.64 152.55 702.25 147.2 697.04 145.3 691.99 146.87 690.99 150.11 687.61 154.01 685.2 167.14 686.07 169.88 689.3 171.18 699.22 171.43 708.69 169.45 711.78 167.67 717.42 168.76 719.27 171.61 725.07 175.75 727.95 180.23 728.48 186.25 730.65 188.64 743.62 190.23 748.59 189.19 752.82 190.39 756.27 192.86 757.59 196.55 754.9 201.91 747.91 207.56 746.64 209.41 746.42 216.07 745.65 217.51 745.83 225.31 748.17 231.02 751.32 233.65 754.02 239.61 757.46 241.81 766.98 242.69 781.34 247.43 786.57 257.17 787.88 260.98 788.4 267.09 786.85 269.79 784.4 277.2 785.54 280.58 791.85 287.65 796.29 290.2 799 293.4 796.9 295.91 792.95 294.72 784.61 293.7 777.23 290.61 770.81 290.05 764.73 292.55 759.64 297.84 755.18 300.59 752.58 300.93 748.1 299.75 738.6 294.69 730.47 291.44 727.79 291.58 722.61 295.69 718.63 300.44 711.57 311.04 710.3 313.67 709.4 323.12 711.63 328.37 575.3 436.98 473.09 518.42 321.87 642.7 321.04 656.25 317.66 656.52 313.98 658.2 308.99 659.21 304.21 659.14 295.8 661.9 291.26 661.71 285.97 662.86 280.66 665.17 274.79 666.05 268.47 665.9 263.02 664.4 251.31 657.35 246.87 652.96 244.92 652.6 240.09 657.38 235.65 666.79 229.75 672.4 226.14 674 219.05 673.74 213.36 670.92 199.73 661.64 196.91 655.71 195.02 654.69 185.7 653.58 181.13 652.07 174.64 647.95 170.2 646.15 163.59 647.45 159.64 649.64 157.06 648.93 154.39 645.83 152.56 639.73 152.66 632.41 154.34 629.91 160.46 627.59 170.92 625.24 178.11 622.7 179.01 620.4 177.69 618.16 171.4 612.28 165 610.23 161.42 607.6 160.36 603.85 161.99 599.01 161.69 595.11 155.55 590.79 151.38 588.68 149.03 586.27 146.83 588.01 144.63 597.32 138.75 605.13 136.56 609.82 133.82 613.55 129.47 613.55 126.98 609 124.93 606.99 123.93 603.66 120.52 597.38 117.76 596.22 105.86 600.02 99.33 597.41 95.5 593.84 89.72 586.61 86.37 586.82 82.2 591.94 78.53 593.71 75.1 593.14 71.48 591.09 70.52 588.63 71.49 579.19 68.6 575.88 59.62 571.25 54.05 567.1 53.57 563.69 54.63 558.3 57.24 555.66 58.79 556.64 60.6 561.97 66.57 562.36 71.47 560.92 73.54 558.7 71.21 550.9 66.95 544.42 60.92 538.26 58.45 534.07 52.06 531.3 38.16 522.99 36.52 520.79 35.5 515.95 36.39 512.04 41.13 508.28 44.02 504.64 43.58 503.04 39.02 498.19 36.2 492.72 30.62 492.98 17.3 503.02 9.03 506.54 3.98 506.63 1.08 504.48 1 501.73 4.14 497.91 5.88 489.4 5.35 485.08 2.74 477.83 1.97 470.45 3.04 468.42 10.27 464.81 11.83 462.16 12.51 457.37 11.71 446.73 11.61 439.7 154.5 429.62 253.53 421.56 244.98 419.04 242.36 417.74 239.92 413.73 243.04 407.72 244.25 400.37 249.8 397.38 250.95 395.46 250.51 392.46 243.79 385.8 240.8 381.89 238.31 375.83 235.68 372.79 230.89 370.55 222.77 365.01 218.59 361.28 216.58 356.56 217.69 351.74 218.99 350.81 228.5 348.43 232.58 349.17 235.41 351.4 236.73 353.91 238.82 362.91 240.84 363.46 244.47 359.16 246.6 354.24 247.57 344.75 244.41 339.62 233.26 331.8 231.96 327.93 233.03 325.21 238.64 322.2 252.09 318.81 255.32 316.39 255.12 313.61 251.64 309.17 247.77 307.57 235.92 307.61 230.49 303.17 223.52 294.8 222.17 291.06 226.34 282.04 228.46 278.86 229.99 274.58 227.8 270.78 224.2 268.21 217.01 261.06 209.58 256.43 208.54 252.64 211.05 251.08 221.08 250.11 231.28 247.67 234.79 247.29 238.08 248.79 240.39 253.44 246.31 253.9 254.36 248.28 261.22 244.36 261.4 240.7 258.89 237.39 250.11 232.23 247.59 231.82 241.42 232.42 232.83 229.15 227.91 228.7 222.27 227.12 220.7 224.29 220.24 218.09 222.11 214.88 230.75 209.95 238.52 206.8 240.97 207.81 247.49 206.86 250.56 205.64 252.41 202.69 252.26 196.68 250.36 191.92 253 186.25 259.34 183 262.13 180.42 261.24 175.45 259.67 172.15 255.3 171.11 245.45 172.08 237.56 173.8 231.9 174.37 230.24 173.24 228.99 167.81 226.14 160.59 226.84 153.08 233.45 145.06 233.73 141.11 234.98 138.94 242.28 135.25 247.26 133.96 258.95 129.65 262.73 129.14 264.71 126.03 263.6 124.01 258.77 123.45 251.25 120.42 243.71 118.01 241.58 119.8 237.3 130.97 234.97 133.5 232.54 133.95 229.49 132.19 223.6 123.8 209.09 119.34 207.09 116.5 206.62 111.4 204.84 105.15 205.97 103.5 214.99 103.1 220.19 102.24 222.97 97.24 220.62 93.96 212.54 92.32 209.16 90.93 202.83 86.94 202.07 83.81 203.98 80.65 206.5 80.28 213.84 80.89 217.97 78.59 212.37 59.87 208.93 54.62 207.02 55.41 204.66 59.27 200.19 63.88 195.54 65.85 190.74 61.57 186.76 55.07 189.75 50.08 192.89 48.6 191.67 46.85 185.23 44.43 182.61 42.67 180.13 38.81 179.87 36.01 181.26 32.14 186.19 26.72 191.66 22.86 198.35 19.97 201.47 21.74 206.99 22.2 213.56 30.31 219.1 34.46 222.33 35.5 224.87 33.64 223.26 26.55 224.89 23.64 227.63 21.68 227.37 20 402.49 61.69 401.41 58.01 403.35 50.63 406.33 43.82 418.93 35.49 425.03 29.23 432.24 26.07 436.94 23.41 441.78 21.61 448.13 20.48 456.31 17.11 462.59 10.89 465.72 5.18 469.47 1.98 473.19 1 481.75 1.68 500.16 6.24 505.84 8.96 509.94 10.11 517.5 10.07 519.61 11.2 529.71 19.44 537.46 21.61 546.43 20.46 554.71 21.07 556.49 22.66 561.12 30.24 566.13 36.89 568.76 39.17 575.38 42.2 580.2 42.22 586.76 41.12 593.54 43.33 598.82 42.83 609.32 38.89 612.95 39.59 617.23 44.65 622.79 47.6 627.6 48.74 630.54 50.86 635.05 56 646.47 63.7 650.58 67.31 659.08 76.22 666.52 83 671.84 86.53 674.39 86.87 680.98 84.31 700.88 78.63 711.79 74.93 718.09 71.28 Z"/>
</g>
</svg>