<?xml version="1.0"?>
<svg xmlns="http://www.w3.org/2000/svg" version="1.2" baseProfile="tiny" width="800" height="636" viewBox="0 0 800 636" stroke-linecap="round" stroke-linejoin="round">
<g id="4201273">
<path d="M 764.62 422.1 768.38 427.16 773.37 431.68 781.49 436.15 789.91 439.74 792.64 443.97 793.42 450.17 790.24 454.7 786.54 458.81 784.23 462.4 784.07 465.37 790.1 471.35 793.34 475.94 798.01 481.62 799 485.3 797.68 486.35 788.16 487.29 783.41 485.64 775.79 485.48 767.88 482.3 758.63 479.46 755.24 477.34 744.11 468.06 739.27 460.77 734.78 457.1 727.11 452.9 721.09 451.27 716.35 451.87 713.21 453.45 708.97 460.38 706.91 464.82 706.13 469.08 706.3 472.93 704.86 482.95 702.98 487.42 698.27 491.33 693.1 493.46 689.15 493.32 680.76 490.06 664.44 479.74 660.72 476.94 657.96 472.14 655.69 470.64 651.15 470.88 648.22 472.21 645.12 474.83 642.79 478.51 642.25 481.21 641.79 492.89 641.18 495.26 635.58 499.87 633.6 500.62 648.81 552.78 596.99 558.04 594.26 553.27 592.5 544.7 592.36 541.81 590.9 540.69 563.09 572.96 532.23 534.71 496.41 574.08 485.61 569.59 480.93 565.07 476.65 564.19 474.48 562.61 470.94 562.82 469 561.11 454.85 577.84 438.1 571.65 423.11 601.01 420.27 605.59 416.32 605.07 413.68 603.51 408.29 601.92 405.32 599.53 403.45 596.72 399.58 595.09 397.02 595.62 392.06 592.8 388.96 591.91 384.34 595.6 382.18 598.62 380.21 610.23 376.69 617.64 366.51 629.39 363.92 631.6 356.51 635 351.49 634.8 347 632.31 338.81 623.27 333.6 615.8 327.46 609.24 321.97 604.78 319.79 603.79 314.79 603.05 309.31 604.45 306.25 607.02 300.4 613.11 292.27 620.38 289.31 623.37 286.89 627.25 279.79 621.64 274.05 618.41 271.82 615.59 270.91 612.84 263.6 605.33 262.9 603.36 259.62 601.9 254.2 600.96 249.79 598.63 242.19 595.35 239.55 593.2 236.33 592.47 232.93 587.79 225.33 584 222.62 579.59 217.89 574 214.45 567.87 209.58 563.65 208.38 559.1 204.38 553.22 203.12 550.56 198.11 547.36 194.94 544.1 190.49 541.96 190.13 539.45 188.17 537.15 182.45 536.94 175.93 533.79 173.46 530.48 171.25 530.28 168.34 531.38 165.04 530.53 163.81 536.39 161.95 539.09 157.59 539.52 152.31 537.35 149.81 537.1 145.71 538.25 141.68 542.54 136.12 546.62 132.27 546.81 122.9 548.68 117.1 550.56 111.65 551.03 106.3 549.86 105.34 548.42 103.65 542.71 103.93 539.94 101.74 536.68 97.33 536.37 92.97 539.84 95.57 532.89 94.57 523.77 93.16 520.87 90.2 519.39 85.9 515.38 86.32 510.04 85.62 504.66 83.05 504.31 80.95 506.99 78.98 506.93 78.3 502.07 78.61 499.61 76.34 495.22 77.01 492.47 86.38 493.15 98.96 488.41 99.44 487.35 98.38 483.36 97.54 476.17 95.84 473.7 91.31 470.92 87.57 467.99 89.36 465.09 89.66 460.86 85.22 458.45 81.06 452.92 80.74 450.98 85.07 450.09 86.73 447.61 91.74 443.64 92.62 441.57 92.17 438.98 87.37 434.11 86.3 430.01 94.69 421.26 93.85 415.78 90.99 410.95 84.36 407.25 74.8 404.52 72.06 402.67 69.71 399.68 65.69 396.01 69.39 391.78 69.69 383.95 67.82 380.39 65.27 379.31 61.2 378.87 58.37 376.55 57.76 374.67 59.44 369.32 60.92 367.68 62.05 362.72 60.68 361.31 58.07 361.24 53.76 365.37 52.04 366.22 48.03 366.26 43.96 365.31 39.42 362.12 34.62 355.76 30.18 353.4 20.71 346.9 15.16 344.11 13.29 342.22 13.88 340.32 17.84 339.73 21.33 340 24.87 341.29 29.85 344.6 33.19 345.79 33.93 344.25 35.69 335.94 37.65 333.44 37.57 331.75 32.62 326 28.13 322.93 26.84 313.41 24.57 310.3 22.66 309.72 10.9 309.38 9.15 310.51 6.21 309.53 3.01 305.07 1 303.4 2.17 295.14 3.98 293.02 3.95 290.54 1.54 287.54 2.81 285.69 5.65 285.91 7.85 283.29 10.24 283.14 13.64 280.98 14.57 278.66 10.5 275.24 11.06 271.77 15.06 269.51 18.42 264.85 19.17 262.02 17.2 257.87 16.82 254.76 14.75 251.14 13.58 246.78 15.17 241.81 14.22 237.07 16.16 232.92 14.21 231.15 14.74 228.32 16.84 223.86 12.3 221.76 11.17 217.47 15.46 212.73 20.84 213.65 22.37 212.7 20.27 200.19 18.15 198.03 20.1 195.9 19.69 193.57 22.02 192.59 25.5 183.71 25.27 181.63 26.81 180.06 26.95 176.37 28.1 173.59 27.42 168.94 22.72 168.17 23.83 164.93 21.57 162.56 26.72 157.95 28.8 157.16 29.16 155.17 25.11 153.27 26.34 151.07 29.05 148.87 27.6 145.28 28.09 139.68 33.13 133.21 33.33 130.03 35.1 126.13 37.22 124.01 39.95 123.74 40.65 121.94 37 117.17 39.62 115.26 42.24 109.66 42.3 107.17 40.76 103.63 41.17 98.01 42.52 95.29 47.22 94.81 49.05 93.59 49.13 90.97 52.97 89.59 53.52 87.34 51.62 84.05 53.89 81.32 54.37 78.99 56.66 77.63 63.48 75.1 65.81 71.83 65.64 69.11 68.68 67.4 69.46 64.12 70.92 62.71 75.77 62.35 78.33 59.85 77.82 57.59 79.13 54.71 83.23 50.6 85.91 44.89 86.7 39.89 89.32 37.29 91.56 33.38 91.31 31.77 95.83 25.78 102.38 19.2 108.63 13.37 110.67 10.46 114.05 7.35 119.35 1 143.22 17.2 144.36 24.33 148.75 29.07 151.19 36.29 151.65 39.11 157.91 55.63 158.61 58.57 167.45 72.01 175.82 75.76 184.05 77.08 190.05 77.39 200.35 79.29 210.94 86.96 212.88 87.31 215.85 90.28 217.44 94.09 219.74 95.46 224.55 96.52 231.03 101.06 232.33 103.28 231.83 106.78 232.58 107.94 237.59 109.46 236.56 112.72 239.42 116.31 240.75 119.34 244.49 120.2 246.53 123.74 248.54 124.84 262.54 124.24 269.28 124.48 280.98 123.72 289.44 123.41 295.1 124.34 301.62 128.25 300.93 132.19 302.31 134.24 304.6 134.33 317.36 132.18 322.83 132.47 325.93 130.44 329.16 129.38 335.24 130.27 336.1 136.63 337.25 138.8 345.81 138.92 347.51 136.34 344.39 129.61 343.37 125.24 345.18 122.42 349.34 123.19 353.07 125.06 356.56 129.44 356.27 133.14 357.65 139.67 359.35 143.54 361.16 145.31 359.53 150.84 360.15 153.45 362.42 156.43 365.88 159.23 365.66 163.7 368.41 167.71 371.61 167.43 370.55 160.46 371.84 154.02 374.8 154.66 376.81 156.45 384.65 165 390.16 167.96 391.89 168.04 394.99 166.43 400.15 158.08 401.45 154.18 404.93 152.85 408.93 152.58 411.61 153.25 420.27 157.57 428.67 162.46 435 163.95 437.4 163.56 439.19 159.76 437.05 153.13 436.18 151.92 435.44 146.57 433.1 144.12 432.53 141.24 435.25 139.63 440.24 138.96 450.3 141.35 453.2 144.14 455.12 148.59 457.91 152.32 459.58 163.95 459.9 168.71 461.28 171.24 464.1 172.23 469.23 171.56 472.61 171.7 492.47 170.25 494.98 168.85 494.65 165.42 491.94 162.96 496.46 159.9 496.03 157.23 497.21 156.24 501.51 155.78 505.9 156.47 507.7 158.65 513.69 161.67 517.65 163.19 521.36 166.4 529.77 174.82 532.13 175.55 547.5 178.16 553.96 191.04 578.11 229.15 608.16 271.75 620.92 297.81 624.11 297.92 626.26 292.88 629.18 290.5 627 288.36 627.56 283.35 628.56 280.88 629.01 275.94 629.99 274.02 627.67 265.92 631.42 260.34 657.59 302.74 669.98 318.63 681.04 337.28 696.75 369.08 712.27 394.04 728.04 403.89 742.61 414.7 757.58 424.89 764.62 422.1 Z"/>
</g>
</svg>