<?xml version="1.0"?>
<svg xmlns="http://www.w3.org/2000/svg" version="1.2" baseProfile="tiny" width="800" height="970" viewBox="0 0 800 970" stroke-linecap="round" stroke-linejoin="round">
<g id="4201307">
<path d="M 762.65 231.39 754.58 246.12 752.41 248.93 749.84 251.11 747.62 252.5 741.39 255.76 733.15 257.9 682.6 260.71 687.02 270.95 688.94 274.3 692.69 279.57 697.39 284.38 700.35 286.66 708.25 291.96 711.91 294.15 721.84 299.31 727.96 303.4 732.45 308.34 740.82 394.11 735.69 394.24 727.86 394.84 725.83 395.16 724.31 396.89 724.37 398.65 720.85 400.68 717.36 404.53 714.12 407.18 707.69 411.97 707.33 412.83 703.88 414.68 701.9 418.15 699.86 418.32 696.47 420.19 693.86 420.52 692.64 417.8 691.01 417.83 688.95 420.24 687.56 419.97 686.01 420.6 683.54 420.57 682.16 421.6 679.82 421.68 677.89 422.42 674.15 422.63 668.25 423.67 665.68 424.78 662.39 425.59 661.36 426.57 660.87 429.72 659.16 430.32 654.98 429.88 651.56 430.86 648.79 432.71 641.07 433.41 639.88 434.56 637.16 436.13 634.88 439.33 631.68 439.99 629.89 442.32 627.66 443.63 626.85 446.78 625.92 447.37 620.76 447.32 616.91 448.62 640.22 494.72 641.03 496.17 702.14 607.47 761.1 729.45 781.35 771.96 799 808.96 797.8 812.38 795.94 815.95 791.87 826.31 788.36 833.93 786.97 834.73 784.8 837.12 783.99 839.24 783.75 843.5 783.86 846.71 779.6 857.18 772.83 872.75 771.44 875.6 765.58 889.94 765.03 890.74 762.56 897.02 761.29 900.87 759.32 905.06 758.8 907.56 757.78 909.69 755.36 913.05 752.44 910.37 747.41 908.7 742.22 908.9 740.12 908.26 733.91 904.81 727.77 903.59 722.44 903.31 714.82 902.62 711.74 901.24 706.4 894.51 703.93 891 702.04 889.2 699.18 887.54 693.34 885.57 688.09 884.37 683.72 884.13 680.53 884.67 676.4 886.83 671.68 890.07 668.66 892.75 663.42 895.82 661.52 898.58 661.11 901.99 660.8 908.87 659.54 914.64 657.76 925.16 656.74 928.26 655.21 930.24 652.09 931.35 646.57 931.6 643.96 932.26 642.47 933.11 636.19 939.83 633.82 942.6 632.67 944.77 632.24 946.68 632.41 950.33 632.84 951.62 632.77 954.93 631.88 956.76 629.09 960.55 625.68 963.31 622.75 964.52 620.8 964.89 608.49 964.97 603.98 964.65 600.46 965.03 595.99 967.4 593.49 968.28 588.94 968.97 584.71 969 580.65 968.46 574.16 966.45 572.19 965.54 567.95 962.71 564.28 959.09 558.73 950.02 556.81 946.1 555.32 941.66 554.74 937.71 554.46 932.51 553.26 920.5 553.1 916.79 553.52 911.79 554.25 899.65 554.29 893.73 553.59 888.08 552.23 883.98 548.91 878.44 546.23 874.5 539.73 868.78 536.06 866.1 530.67 861.22 526.69 856.45 524.55 854.66 519.39 848.57 518.83 847.48 518.03 845.79 515.9 842.82 514.86 839.94 513.39 837.36 508.76 827.2 507.08 822.61 503.24 814.09 501.53 811.11 499.89 807.03 497.84 804.11 494.18 801.28 491.72 797.31 489.9 791.22 488.83 788.92 486.93 786.26 484.97 784.51 479.13 781.16 471.15 775.83 465.43 773.93 458.41 771.23 453.44 769.06 447.65 765.74 445.12 763.96 442.6 761.66 439.09 759.81 432.97 758.64 429.19 758.5 425.96 758.76 423.65 759.55 420.28 759.37 414.71 757.44 409.35 754.53 405.12 751.49 402.64 749.03 400.53 747.61 395.78 745.5 389.61 744.88 382.2 743.38 377.16 740.92 374.92 739.5 369.83 735.68 366.13 731.33 363.89 727.59 361.07 725.39 355.83 720.22 351.68 717.46 342.72 714.25 336.02 711.31 331.52 710.12 326.21 709.04 323.53 707.61 319.19 704.1 315.07 702.81 312.07 703.31 309.23 704.61 306.12 705.08 303.18 704.94 298.23 703.16 295.16 703.22 293.52 704.36 292.43 705.91 292.32 708.28 293.27 710.92 294.99 714.36 295.28 719.23 293.52 722.08 290.91 722.65 288.63 722.15 286.77 720.2 285.27 717.91 283.42 715.94 280.89 714.22 274.66 712.5 268.71 710.49 259.1 709.07 256.51 710.26 254.45 712.7 254.37 714.64 256.96 720.89 256.9 723.82 255.97 725.27 252.21 727.38 250.24 727.34 245.3 726.28 241.85 726.23 239.8 727.51 237.06 731.49 232.47 739.31 232.62 741.44 234.34 743.51 238.74 744.47 241.15 745.45 244.44 747.92 246.31 750.08 246.98 752.05 246.71 753.57 244.73 755.32 237.95 757.39 231.47 759.04 229.5 759.01 224.75 757.29 222.65 755.2 221.76 753.06 220.96 748.05 219.36 744.46 216.71 742 214.23 741.45 212.5 742.99 211.85 745.52 211.83 750.21 210.85 753.7 209.53 755.76 203.27 761.27 201.43 762.16 198.16 762.54 194.92 762.15 192.9 760.34 190.63 756.46 189.2 751.97 187.63 749.52 186.29 748.71 183.34 748.45 180.38 749.69 176.14 752.69 173.24 755.71 171.72 761.08 171.13 766.31 170.92 770.89 166.53 773.32 163.96 776.31 163.14 781.19 162.98 784.32 162.51 785.94 159.4 789.23 157.28 790.41 153.23 790.67 151.88 790.23 149.98 788.41 150.12 784.73 152.52 780.07 153 777.89 152.8 776.22 151.84 774.41 148.66 771.88 145.99 771.34 142.35 771.31 140.4 772.92 139.8 775.5 139.94 777.95 141.13 783.69 141 785.84 139.48 787.47 136.06 787.17 134.6 785.76 133.79 781.39 133.42 776.01 132.3 775 128.68 774.92 121.62 777.03 118.54 777.01 114.14 775.21 109.26 771.48 107.16 768.69 104.72 763.85 102.93 761.42 100.35 758.67 91.3 751.12 81.69 741.9 77.62 737.09 76.54 735.07 76.11 733.08 76.14 728.21 75.7 726.15 70.47 719.72 68.84 717.06 68.13 715.1 68.24 711.29 67.88 709.98 66.38 707.97 64.05 706.42 61.99 706.49 60.52 707.34 57.7 710.29 56.73 712.07 55.41 712.76 53.44 712.64 51.45 711.08 51.21 709.1 49.2 706 47.38 704.86 44.33 704.8 40.7 705.86 36.4 706.42 34.9 705.97 34.17 704.77 34.01 702.71 32.82 700.17 30.06 696.04 27.14 692.62 24.8 688.66 25.26 685.68 27.12 682.2 27.33 679.01 25.56 676.91 20.46 674.23 16.67 671.51 13.83 670.02 12.62 667.61 12.74 664.72 13.32 661.93 13.05 659.83 11.81 658 8.53 656.21 5 656.05 4.12 654.03 1.57 652.8 1 650.77 4.06 649.87 8.66 651.57 10.75 651.71 13.41 650.92 16.96 648.4 20.63 648.14 22.6 648.72 28.06 652.81 28.45 653.35 31.54 653.44 34.49 651.2 34.46 649.77 33.17 647.52 31.49 646.47 28.33 646.63 26.25 646.13 22.94 643.62 21.63 641.9 22.35 638.43 24.33 636.57 25.73 636.21 28.18 636.9 29.71 640.28 30.82 641.29 32.58 641.42 34.65 640.3 35.31 638.65 34.72 636 32.42 636.1 30.82 634.51 30.12 630.27 27.19 628.87 25.09 629.1 23.64 630.13 22.37 632.35 20.95 633.72 18.56 635.06 11.61 635.59 10.01 635.02 9.06 633.89 9.12 631.87 12.11 627.9 13.9 623.3 14.55 619.25 15.65 616.6 19.42 614.48 23.21 610.92 23.76 609.4 26.85 606.73 29.75 604.89 33.52 601.22 37.5 596.15 39.47 594 42.16 592.16 45 590.67 49.32 589.39 50.99 589.38 57.62 590.49 61.54 590.81 66.91 591.6 71.59 593.77 77 595.57 81.59 596.22 85.57 595.09 87.98 593.06 88.6 590.96 85.9 589.35 83.38 586.26 81.78 581.99 81.43 578.64 81.76 577.19 83.7 574.35 87.17 570.67 89.85 566.27 92.76 558.83 93.05 554.4 91.71 549.98 88.97 545.96 84.69 540.78 83.64 538.99 82.83 535.82 84.03 531.82 85.46 529.94 88.54 528.55 91.27 528.99 92.72 530.69 92.63 533.47 91.68 535.71 91.23 538.82 91.92 540.33 94.57 543.36 97.61 544.87 101.12 544.52 103.17 541.74 104.02 539.54 105.56 538.11 107.4 537.42 109.67 537.32 111.92 537.94 113.02 540.66 114.95 541.65 117.05 541.45 118.35 538.8 119.85 537.16 122.05 536.01 123.23 533.47 121.77 529.6 119.15 526.45 114.25 524.43 108.94 523.58 105.99 521.9 103.92 519.47 102.13 515.7 101.01 512.46 101.02 510.57 102.13 507.44 104.74 504.16 108.46 502.57 110.57 502.49 113.62 503.34 115.09 504.26 118.59 504.02 120.27 503.24 121.33 501.61 124.05 500.25 124.97 499.05 124.52 496.97 125.23 496 127.63 494.6 131.55 490.81 133.18 490.85 136.51 492.29 137.77 493.41 138.33 495.82 137.16 499.07 138.58 501.43 140.25 502.37 143.49 502.65 144.49 501.87 145.86 499.21 147.64 499.3 149.78 504.45 150.91 505.67 152.73 506.14 158.06 503.92 161.57 501.45 161.77 500.03 160.98 498.57 158.59 496.69 154.31 494.31 153.88 493.35 154.43 491.22 158.69 483.75 162.13 481.57 170.16 478.63 172.44 478.34 175.21 478.65 177.08 479.76 178.65 482.34 178.93 484.58 181.7 485.37 184.95 484.68 185.58 487.49 184.13 488.89 181.83 489.86 183.15 491.38 190.1 494.84 192.53 494.64 195.02 493.7 203.18 489.69 205.2 487.8 206.77 485.23 207.38 480.71 207.95 479.6 211.51 477.59 213.17 477.32 215.79 478.75 215.94 480.27 218.2 483.98 218.64 487.57 217.93 489.04 218.24 490.83 221.15 495.11 222.54 497.84 229.21 502.06 231.38 502.24 234.1 500.23 235.93 499.44 238.46 499.5 240.45 500.33 241.15 503.63 242.09 505.94 244.09 507.62 250.1 513.37 250.93 510.53 252.8 509.22 259.09 506.11 259.2 503.71 258.41 503.36 257.79 500.75 256.29 499.4 256.22 496.15 258.37 494.69 264.27 493.94 265.49 493.1 269.23 485.94 269.24 483.86 266.29 477.65 266.27 474.53 269.52 469.44 272.77 464.9 275.24 461.04 277.85 458.68 278.95 457.18 282.99 458.37 286.86 452.46 289.35 449.53 292.12 447.8 293.94 445.47 294.76 443.41 311.44 427.9 315.2 428.28 315.2 426.22 316.95 422.94 317.88 422.31 319.19 419.86 322.54 416.18 324.47 413.58 325.61 411.22 326.16 408.59 326.36 404.64 326.98 402.87 326.72 401.25 325.69 400.14 320.12 397.94 318.55 397.11 315.41 397.21 312.96 400.23 310.68 400.84 309.66 399.57 306.02 400.81 303.6 403.72 298.08 403.74 291.75 401.48 286.25 398.13 283.75 397.03 282.43 394.7 281.17 394.03 275.7 393.63 271.28 394.13 262.31 394.73 261.13 393.47 261.69 391.47 264.95 386.43 265.92 383.23 265.84 380.33 265.1 374.25 265.03 369.23 264.5 365.35 264.63 358.87 265.26 355.45 264.5 353.95 262.46 353.01 260.29 352.77 259.71 351.61 262.16 348.39 265.53 345.08 269.33 342.44 271.13 340.78 274.34 340.1 276.65 340.96 278.88 340.95 283.88 340.14 291.13 340.32 299.83 336.35 302.7 335.52 307.28 331 310.59 328.59 311.61 326.94 311.57 324.48 310.66 319.78 310.49 316.28 311.77 313.07 312.41 309.74 313.99 304.77 314.35 302.76 314.19 299.08 313.22 297.13 313.35 294.89 314.9 293.89 317.52 294.06 320.5 291.94 321.24 289.95 321.28 288 319.9 285.99 317.04 284.08 314.74 281.06 314.02 279.54 314.09 277.79 315.18 276.55 315.87 274.63 317.7 271.71 318.53 269.06 320.61 264.25 323.82 262.38 325.52 262 326.27 260.93 326.09 258.21 328.18 256.18 330.53 256.07 332.47 254.75 333.3 252.94 335.44 250.99 337.22 250.59 343.45 250.43 350.2 249.42 355.23 248.2 361.61 247.52 364.87 246.81 371.83 243.79 375.52 243.31 377.81 240.61 378.95 240.1 382.23 237.29 383.71 237.92 386.02 236.36 387.92 234.08 391.37 232.15 394.6 233.15 396.63 231 397.45 226.68 401.76 224.33 403.29 224.04 404.35 222.15 404.07 221.23 406.04 218.08 405.86 217.36 409.99 217.66 412.51 218.77 415.03 217.99 418.23 216.19 420.03 217.06 421.86 216.79 425.77 218.16 428.71 219.52 431.63 219.58 433.4 218.92 434.72 217.23 436.01 213.6 435.51 210.09 436.98 208.26 435.89 206.5 439.87 206.33 440.98 204.78 443.05 204.97 445.25 204.33 445.53 206.37 446.28 207.24 448.88 207.94 449.14 208.79 447.77 210.65 447.84 211.56 449.79 212.72 450.9 214.06 452.42 214.41 454.57 212.46 455.61 213.2 455.02 214.88 454.68 218.02 456.68 220.82 458.43 220.2 458.66 218.4 460.62 215.96 462.79 215.03 464.58 215.74 463.92 218.01 462.02 221.86 461.68 224.58 462.03 226.26 463.45 227.32 464.84 227.13 470.24 223.43 472.51 223.99 472.83 227.45 472.38 229.11 470.31 231.19 471.01 233.25 475.96 232.67 479.13 231.47 480.05 230.34 482 225.65 483.87 226.28 483.54 229.48 484.22 231.69 487.01 231.94 489.46 230.92 492.11 230.61 493.41 229.83 494.38 227.65 496.2 226.7 498.54 226.66 501.14 227.59 502.89 228.86 504.63 229.34 505.89 227.6 505.91 223.96 507.12 221.34 508.5 220.34 512.36 219.6 515.69 218.12 521.03 214.91 523.55 214.67 525.16 215.69 525.8 218.9 527.25 221.33 528.84 222.27 532.14 223.17 535.24 222.05 538.48 217.15 541.36 213.4 543.94 211.98 547.76 210.91 549.5 210.1 550.59 208.56 550.41 207.01 546 203.06 545.56 200.23 546.88 197.74 552.07 191.5 561.86 183.49 564.15 182.17 569.63 179.95 571.17 178.63 573.1 175.98 574.67 170.92 574.69 167.69 573.72 163.62 572.37 160.98 571.96 158.76 563.35 142.54 551.12 123.55 543.58 114.18 533.43 106.12 511.89 91.74 512.32 85.51 494.76 62.06 486.12 50.19 477.77 44.47 468.39 40.82 466.56 36.14 466.82 29.6 469.44 24.26 509.95 8.43 523.03 1 532.91 11.99 546.64 23.31 565.96 41.42 572.74 49.41 575.79 51.97 579.8 58.71 582.1 66.42 583 75.74 581.73 85.48 579.12 90.59 569.54 99.61 565.81 105.27 564.58 111.51 568.01 120.6 572.01 125.12 583.97 133.6 593.04 136.05 605.59 139.73 615.28 143.89 618.28 146.04 623.03 151.25 626.05 159.07 629.67 173.86 631.04 175.82 634 178.08 643.2 181.12 652.53 182.16 666.49 188.72 675.15 190.63 682.15 191.72 686.75 193.12 692.8 196.55 706.67 205.03 736.36 216.91 756.92 227.86 762.65 231.39 Z"/>
</g>
</svg>