<?xml version="1.0"?>
<svg xmlns="http://www.w3.org/2000/svg" version="1.2" baseProfile="tiny" width="800" height="542" viewBox="0 0 800 542" stroke-linecap="round" stroke-linejoin="round">
<g id="4201406">
<path d="M 592.26 294.48 584.46 287.2 563.36 267.97 513.39 260.34 513.81 261.52 515.12 263.19 515.12 264.14 514.24 265.13 514.04 267.98 511.14 270.7 508.4 273.89 503.49 278.25 500.16 279.34 495.49 279.99 493.52 280.51 490.25 281.87 488.27 282.99 485.81 284.8 483.76 286.8 480.48 290.37 478.86 291.54 475.15 295.25 474.28 296.35 472.11 298.04 469.94 299.06 465.33 299.63 461.92 301.23 450.3 309.69 444.33 313.64 439.4 317.17 426.52 325.85 394.04 350.37 353.08 381.08 339.54 391.67 338.47 394.4 338.46 395.98 339.39 397.64 339.51 402.27 340.14 404.65 338.67 405.78 338.13 406.75 336.19 407.85 332.12 408.12 329.08 411.93 328.06 412.66 324.48 413.62 320.96 415.09 317.18 416.16 313.31 416.23 311.33 417.49 309.51 417.8 306.99 418.75 305.84 419.57 303.67 422.1 302.14 422.81 300 425.14 297.07 426.05 294.56 427.37 290.6 429 288.54 431.57 284.16 434.7 280.08 436.82 274.14 440.73 271.35 441.99 269.07 443.33 267.44 444.9 265.28 446.32 260.44 447.17 257.09 449.01 253.68 450.13 251.2 450.48 247.96 452.35 243.16 453.94 241.45 454.05 237.63 455.79 237.24 456.99 236.35 457.65 234.87 459.58 234.45 461.39 233.6 462.45 231.85 463.74 230.96 465.44 229.4 466.07 226.3 465.35 222.33 465.1 219.24 464.46 216.96 466.14 212.56 467.32 210.06 468.82 209.03 470.14 207.17 475.24 204.75 479.58 200.28 483.95 193.47 489.55 191.62 491.7 187.92 502.76 185.2 510.37 182.89 515.75 178.79 520.26 170.09 527.43 157.47 534.73 146.72 539.02 140.69 540.73 139.06 541 66.07 488.27 45.93 473.72 1 442.88 22.27 425.76 81.47 379.05 104 361.28 97.83 354.1 92.24 350.45 91.13 350.49 89.05 351.34 81.61 346.73 77.88 346.88 76.3 347.24 75.27 348.39 73.95 349.12 70.42 347.77 61.26 342.27 61.84 340.95 65.52 335.77 65.93 333.58 63.57 330.99 56.88 324.27 54.21 321.37 52.09 316.25 48.75 306.47 47.92 303.66 46.71 300.46 46.78 299.8 49.08 299.48 50.03 298.79 50.74 297.19 51.04 294.28 49.11 293.01 48.06 291.8 45.68 287.61 43.62 284.61 43.48 283.2 47.5 278.56 48.16 277.42 49.61 273.38 51.27 270.12 51.02 268.11 50.4 267 48.55 264.98 48.07 264.01 48.16 262.1 49.58 258.14 50.14 257.71 54.06 256.94 60.73 254.66 62.75 254.34 72.17 253.4 75.76 252.95 78.32 252.03 85.07 244.77 87.08 245.05 90.27 248.43 92.71 250.27 96.32 251.91 98.76 252.23 99.64 252 100.83 249.82 101.02 247.06 102.03 238.91 101.99 236.97 102.75 234.96 104.28 234.22 106.98 233.42 110.4 233.05 112.16 233.08 113.14 233.66 114.04 235.47 116.27 240.77 117.32 244.32 117.89 247.13 119 248.77 120.94 249.1 122.51 248.63 127.14 245.94 133.18 241.2 134.46 239.35 136.23 237.4 138.01 234.18 138.14 232.12 135.41 229.65 133.73 229.05 131.35 229.26 125.69 232.74 121.19 234.64 118.78 234.83 117.97 234.4 117.25 232.16 118.11 229.41 118.9 225.08 120.4 221.86 123.24 219.34 127.08 217.59 132.33 216.17 134.35 215.87 137.94 216.12 144.25 218.64 153.04 221.03 156.83 221.89 159.42 222.26 172.34 222.71 177.3 223.39 182.37 223.44 185.3 222.73 187.03 221.73 191.31 218.31 202.47 211.05 206.63 208.19 210.44 205.26 212.67 203.75 215.32 201.53 216.85 200.02 221.04 195.41 223.39 193.11 224.88 192.02 226.37 191.43 228.81 191.11 233.87 190.97 238.61 191.03 243.21 191.55 247.73 192.9 252.04 195.4 257.91 199.29 260.21 200.01 260.39 198.68 258.42 195.17 257.61 193.09 257.32 190.49 258.17 187.67 259.08 186.8 260.83 186.2 266.96 184.96 269.12 184.22 271.09 183.18 272.64 181.94 273.51 180.54 273.66 178.92 271.6 173.59 270.68 170.46 269.6 163.54 268.45 157.31 267.59 149.45 266.55 146.09 264.33 142.82 263.82 140.52 266.06 139.43 267.96 140.66 268.95 142.65 272.4 142.49 273.83 142.01 274.41 141.24 275.43 138.53 276.64 139.39 278.43 139.54 278.73 140.6 280.12 140.73 281.68 139.63 281.61 137.97 284.39 138.79 286.34 138.5 287.22 137.26 288.18 136.8 288.86 135.56 288.77 132.74 289.58 132.19 289.56 130.99 290.66 130.05 292.5 129.57 296.32 130.85 315.38 123.04 317.57 121.34 319.52 118.16 320.7 117.31 322.77 117.89 322.95 119.13 325.9 128.47 334 126.15 355.56 123.57 357.97 123.35 360.78 123.96 375 132.23 379.48 134.93 380.27 135.77 384.75 142.18 386.27 144.79 387.75 152.83 387.86 154.28 388.67 156.63 390.09 157.63 390.31 159.28 391.85 160.39 392.7 164.24 397.72 163.86 402.47 163.81 406.86 164.17 410.18 164.65 414.12 165.66 418.06 167.01 421.55 168.53 425.58 171.69 426.9 173.39 427.73 175.36 429.56 180.71 431.31 182.44 434.38 183.93 437.94 184.77 441.15 184.84 446.05 184.48 455.5 182.62 457.49 182.38 481.7 117.94 495.26 89.29 540.97 1 543.01 1.86 572.44 15.31 642.66 48.29 652.01 52.64 704.39 76.02 758.85 101.18 799 119.73 798.06 121.11 796.52 122.53 794.66 123.53 794.16 124.66 792.54 125.29 792.38 126.06 790.9 127.66 790.01 127.73 787.93 130.02 786.46 132.1 782.79 136.13 780 137.74 776.71 138.86 772.15 142.08 766.54 143.81 765.49 144.5 764.81 145.9 761.94 145.34 760.81 145.47 758.83 146.98 757.78 150.84 756.52 152.41 755.18 153.28 746.46 160.05 744.95 160.6 742.45 160.8 740.49 161.67 739.48 162.55 736.65 167.31 731.91 172.58 729.7 174.65 727.93 176.65 724.51 179.69 721.18 181.97 717.52 185.16 715.72 187.2 711.75 190.2 702.12 199.02 695.37 204.29 693.54 206.12 689.95 208.65 689.46 209.39 686.84 211.6 685.03 213.42 681.54 216.16 679.86 217.21 679.31 218.1 676.88 219.8 676.05 220.87 674.04 222.22 671.82 224.69 670.17 225.76 659.57 234.43 659.4 234.87 656.41 237.23 644.09 247.93 641.75 249.55 639.56 251.74 635.45 255.27 629.34 260.79 627.82 261.46 627.44 262.65 625.64 263.27 623.74 266.09 622.32 267.56 618.99 270.33 618.59 271.2 616.94 271.86 616.51 272.98 615.02 273.89 613.49 275.77 611.45 276.97 610.51 278.28 608.62 280.02 607.58 280.27 607.16 281.44 606.1 281.87 605.49 282.91 603.87 283.59 603.77 284.33 601.89 285.26 601.18 286.71 599.63 287.3 596.59 290.94 595.71 291.32 592.26 294.48 Z"/>
</g>
</svg>