<?xml version="1.0"?>
<svg xmlns="http://www.w3.org/2000/svg" version="1.2" baseProfile="tiny" width="800" height="715" viewBox="0 0 800 715" stroke-linecap="round" stroke-linejoin="round">
<g id="4201208">
<path d="M 799 561.07 798.15 563.3 796.3 564.67 792.74 564.94 789.93 569.54 788.08 569.81 783.49 566.45 781.71 566.52 776.78 571.25 775.61 575.84 780.62 577.07 781.44 579.2 781.71 583.38 786.92 590.71 787.47 595.71 785 599.41 784.52 601.95 785.62 604.76 785.69 609.48 786.3 612.77 785.89 615.58 782.6 621.61 781.26 626.54 777.14 626.36 771.29 628.33 767.32 628.81 764.37 627.72 759.24 627.37 751.83 625.8 747.31 624.29 739.23 627.37 734.36 627.17 732.72 628.26 727.19 628.37 722.16 629.43 715.38 629.43 711.82 630.12 708.05 631.62 704.49 631.28 699.07 632.79 695.51 633.13 693.45 631.14 691.12 631.14 688.25 632.38 684.68 635.19 678.93 638.68 677.08 638 675.64 634.78 673.17 632.65 667.76 633.61 665.09 632.92 662.55 631.49 658.92 628.61 656.45 627.72 652 629.29 647.54 627.58 644.94 627.92 641.99 626.96 640.83 627.78 641.51 631.42 640.62 635.94 637.81 636.96 629.59 636.42 628.01 638.41 623.42 639.02 618.35 641.29 617.53 644.16 614.1 644.64 610.27 641.9 609.51 640.53 609.1 636.35 609.51 633.2 608.62 619.01 606.63 616.4 602.77 615.56 601.22 613.9 594.99 612.5 592.04 606.06 591.15 601.4 590.19 599.07 588.07 597.9 585.12 598.52 582.86 598.18 580.53 599.07 576.67 603.34 572.1 602.56 570.32 600.92 569.09 601.67 567.03 604.96 561.75 610.86 554.15 617.37 552.43 618.19 551.06 620.31 546.06 621.21 544.49 620.59 543.05 618.53 542.09 615.59 538.66 609.42 535.58 608.8 528.38 609.42 524.13 608.8 520.91 607.5 519.48 603.46 516.51 598.94 514.38 594.95 512.78 593.66 509.32 593.66 507 594.55 503.99 598.93 500.01 599.75 497.34 601.95 495.08 602.84 491.31 601.74 490.97 603.18 492.41 605.37 496.38 608.32 496.86 609.21 494.74 611.75 495.77 614.76 495.22 617.03 493.44 617.09 490.06 615.93 487.29 616.08 485.65 615.39 482.02 609.8 480.73 608.87 475.21 609.97 470.34 612.43 466.45 612.64 464.73 613.74 460.27 618.88 455.95 613.74 453.9 612.3 451.64 612.5 448.76 613.69 441.57 612.5 435.74 611.06 430.94 608.18 430.05 610.72 425.12 614.15 421.08 615.59 421.63 620.04 421.42 622.23 424.57 624.12 424.3 626.35 422.17 628.47 419.16 629.7 416.83 629.98 415.1 631.55 414.16 634.22 415.25 635.87 417.65 636.69 418.34 639.44 416.83 640.6 412.72 640.81 413.88 643.48 407.24 646.77 403.54 649.92 403.06 651.29 403.74 653.83 403.12 656.71 401.48 660 397.71 664.45 395.18 665.55 393.74 668.77 391.82 671.44 389.21 672.67 384.21 671.58 380.1 672.81 376.33 671.03 370.44 666.85 366.33 666.1 363.2 666.7 359.13 666.23 350.84 665.89 348.24 668.01 347.19 672.72 345.63 675.84 344.28 677.16 337.04 681.21 330.02 684.33 327.46 686.87 325.38 688.05 317.59 690.26 314.21 691.98 313 693.94 312.06 699.2 310.34 701.53 306.82 703.42 303.22 703.58 300.27 706.39 297.53 707.69 292.6 708.52 286.64 712.49 280.74 714 279.72 708.24 278.28 704.82 277.73 701.8 278.14 698.58 277.39 694.4 275.26 690.22 274.44 689.81 264.5 693.1 260.19 693.44 258.47 694.54 256.28 697.62 254.77 698.72 252.58 698.72 249.98 695.36 244.84 694.13 241.48 695.22 238.81 693.51 238.67 690.36 237.78 689.12 229.76 684.32 228.12 683.09 227.23 679.18 225.31 678.29 216.68 677.75 203.65 678.11 194.95 678.71 185.7 677.68 179.25 677.34 172.68 673.15 171.93 671.37 173.16 667.12 172.82 665.89 170.49 664.66 167.61 664.18 164.46 664.52 162.54 663.29 160.83 664.66 160.42 669.66 155.69 679.6 154.32 679.94 150.21 678.29 146.71 674.59 142.53 673.98 140.82 675.42 140 678.84 138.56 680.28 131.98 681.93 125.61 682.27 123.48 681.86 121.43 680.28 117.04 680.97 115.19 683.78 111.9 685.22 109.99 684.53 106.22 681.45 101.63 680.01 99.16 676.72 95.73 677.47 88.74 676.16 85.95 676.17 79.9 675.28 75.72 676.58 73.74 677.68 70.65 677.95 62.98 675.76 60.79 675.9 59.69 674.66 57.77 668.22 51.33 664.66 49.32 662.41 42.75 661.23 37.49 661.43 31.05 654.03 28.92 652.18 26.8 646.84 21.59 643 17.34 643.2 15.42 642.66 12.2 640.43 9.64 637.17 10.25 634.29 8.88 628.53 7.42 626.14 12.93 619.21 15.46 617.29 17.59 614.34 18.68 611.39 17.72 604.67 15.81 602.69 12.1 595.56 11.35 591.17 7.58 590 6.14 586.44 2.99 584.66 1.55 580.82 2.58 575.47 1 570.33 2.58 567.24 7.92 562.79 9.02 557.58 10.6 555.31 15.26 551.48 20.67 549.14 23.69 549.42 25.84 545.56 30.06 541.67 33.03 539.76 33.22 532.76 31.43 530.29 31.42 526.47 35.13 520.63 36.64 517.4 38.84 508.22 38.49 505.34 39.66 503.28 42.74 499.65 42.33 495.33 43.91 492.18 46.79 492.24 49.39 491.56 50.83 488.68 55.29 486.55 57.21 482.78 55.88 479.4 56.73 478.19 60.7 477.23 62.83 475.11 63.72 469.96 66.18 465.03 65.71 461.19 66.05 455.64 66.6 453.85 70.16 448.51 70.02 440.76 70.71 436.37 71.94 434.32 78.18 432.53 79.35 428.97 81.2 427.46 81.06 425.88 78.32 423.69 75.3 422.94 76.74 419.3 79.89 418.62 80.03 416.83 76.12 413.06 75.44 407.03 76.19 405.66 78.73 404.7 81.33 401.2 82.7 400.24 87.91 399.22 89.97 397.02 90.86 394.14 90.18 391.4 90.93 389.14 95.66 385.78 95.73 382.56 94.97 380.91 91.68 377.21 93.12 372.41 92.85 369.19 93.88 366.86 94.9 358.36 99.09 354.24 102.38 350.13 104.64 345.95 106.01 339.57 106.21 334.5 105.73 330.94 103.61 326.21 101.55 325.52 96.28 326.27 94.56 325.31 89.08 317.91 82.84 315.51 78.11 314.55 76.81 312.97 76.4 306.32 77.28 300.54 73.93 295.63 74.14 292.75 76.67 291.86 77.43 289.67 74.8 285.17 70.3 283.77 67.49 286.1 62 288.57 59.26 292.96 56.38 294.53 54.26 294.19 51.59 292.61 44.53 290.01 41.51 289.19 40.62 283.77 39.66 282.19 37.33 281.23 32.8 285.28 30.2 289.46 27.73 289.67 24.1 287.4 19.71 286.65 15.26 283.63 12.52 283.56 11.28 282.47 11.35 280.14 7.99 273.56 8.2 270.54 11.56 267.32 14.85 267.32 16.56 265.44 15.74 263.25 16.82 260.35 22.8 259.72 24.06 254.76 28.41 248.33 32.48 245.46 42.23 242.83 45.78 244.04 48.31 241.62 52.16 239.24 54.33 234.51 58.12 233.24 60.74 234.82 63.15 233.75 65.76 229.62 70.04 224.1 71.51 221.69 71.34 219 68.74 214.07 69.33 212.38 72.63 210.69 74.65 210.38 77.17 211.46 79.32 213.56 81.69 212.78 82.31 211.01 82.12 207.58 83.84 206.19 86.84 207.07 92.48 203.27 98.42 198.35 102.18 195.97 106.86 193.61 115.58 188.54 120.73 185.93 123.2 186.56 129.03 185.04 130.9 183.2 131.69 181.28 136.71 179.03 139.92 175.92 140.23 174.63 138.11 170.38 137.51 166.05 140.18 161.39 148.08 152.13 153.42 148.58 158.4 144.87 162.67 142.96 170.73 138.74 177.7 138.49 180.34 141.52 182.34 142.72 184.96 147.71 187.3 151.09 190.91 151.57 193.91 154.95 195.49 154.66 198.14 151.56 199.75 151.46 201.84 152.73 203.47 155.66 205.14 161.73 204.61 164.86 205.42 166.38 207.4 167.4 210.09 167.53 212.14 166.82 215.6 162.26 219.91 159.24 221.89 155.22 223.1 150.41 222.28 146.59 223.63 144.52 227.57 143.56 229.08 140.26 235.05 136.23 239.24 135.19 241.35 132.33 247.21 130.89 248.35 128.18 248.15 126.29 246.44 123.46 249.24 121.34 252.15 121.05 258.68 116.82 258.74 113.71 260.44 112.03 266.3 109.34 269.37 105.21 274.08 102.3 274.85 100.52 274.14 97.22 274.85 94.37 280.65 89.65 279.4 85.05 279.71 83.71 282.94 80.72 284.93 76.68 285.32 72.2 287.39 69.56 291.67 70.79 294.08 69.33 296.91 63.17 298.13 62.04 300.65 61.97 302.79 60.97 305.78 57.77 308.18 56.28 311.13 55.41 313.59 52.28 315.29 51.26 318.19 51.92 321.18 53.81 322.91 52.82 325.28 49.13 325.01 47.34 323.35 46.74 322.98 43.67 326.09 40.72 330.56 35.56 332.44 31.16 334.46 29.54 335.5 27.18 335.94 22.96 337.94 21.92 341.43 18.85 345.22 17.36 347.58 14.48 347.77 13.12 350.61 9.42 354.04 3.71 352.67 1 357.82 4.84 362.19 7.37 365.4 8.32 367.73 5.79 371.21 5.25 372.65 6.96 379.07 11.47 380.85 14.61 383.11 16.39 385.98 17.14 388.78 16.73 390.97 18.03 394.73 18.99 397.67 17.65 402.59 16.39 407.1 17.89 408.53 19.81 416.26 23.29 418.99 27.33 420.5 34.1 423.23 34.78 428.49 30.54 435.19 28.28 438.42 26.12 442.64 25.69 446.47 29.86 451.12 29.1 452.43 29.39 461.92 28.83 469.09 29.04 471.49 30.4 478.25 27.19 485.54 27.39 487.41 25.48 488.57 21.17 489.6 19.53 491.65 21.04 493.77 26.23 493.9 32.11 492.13 36.97 492.06 39.97 490.56 43.12 491.24 45.85 493.02 48.93 490.21 53.03 487.96 58.5 487.89 63.76 486.45 65.2 489.94 69.85 488.78 74.5 489.8 77.1 492.06 79.9 491.38 81.88 488.85 84.07 488.16 86.32 488.64 88.72 492.13 90.36 492.4 92.89 488.5 100.54 489.22 103.3 489.67 107.93 487.89 112.17 483.99 112.37 481.53 117.63 481.19 122.35 481.53 126.73 483.24 132.26 487.75 135.55 486.93 136.43 483.93 135.55 482.83 138.07 482.56 140.67 479.28 143.61 479.48 145.05 482.01 145.87 483.86 147.71 485.5 151.34 488.44 154.69 492.4 161.04 494.25 162.41 496.02 165.97 498.62 168.02 497.19 170.89 497.39 174.17 495.68 177.04 495.61 179.5 493.22 182.92 493.43 187.91 490.97 190.99 489.53 195.43 491.72 197.41 497.05 199.33 497.8 203.22 500.53 207.05 502.52 208.69 506.21 214.91 507.78 215.73 511.27 215.19 514.75 216.14 515.5 218.33 517.69 220.66 523.36 224.98 529.63 231.65 534.37 235.9 537.72 237.54 538.95 240 540.32 244.93 543.73 250.53 545.02 254.97 548.12 257.74 550.64 257.5 559.52 265.23 564.72 267.14 567.93 268.72 569.09 270.36 568.41 273.64 569.57 276.17 573.19 276.37 574.76 275.35 576.6 271.64 579.75 268.78 583.24 267.07 588.5 267.21 590.42 265.57 591.65 262.49 592.47 258.8 596.09 255.59 603.27 251.83 607.98 251.08 611.2 252.79 613.72 253.2 620.96 252.34 628.2 252.33 637.17 254.02 639.08 256.41 645.51 268.24 651.25 271.49 656.31 276.58 664.58 288.61 665.96 292.04 669.09 295.99 672.1 296.88 675.65 294.15 678.45 293.74 681.67 297.63 682.49 304.88 689.32 306.59 690.48 307.61 693.83 312.4 700.12 314.45 704.15 317.12 708.53 322.86 711.37 325.41 712.24 327.65 712.16 329.87 709.49 333.15 702.3 337.72 700.33 339.27 694.72 346.58 692.12 349.04 686.04 358 684.95 358.95 679.82 371.05 678.8 375.16 679.82 379.53 677.82 381.96 676.93 384.42 676.33 389.31 678.52 397.31 679.38 403.46 678.83 405.64 736.47 422.67 736.81 423.83 735.74 426.67 735.94 430.04 734.22 437.14 734.79 441.02 732.77 445.96 730.25 450.68 727.5 453.8 725.78 457.03 727.21 460.22 727.78 462.87 731.25 466.41 736.79 470.9 738.95 472.07 738.79 475.07 740.97 478.04 744.81 480.99 746.29 484.34 748.95 484.46 750.32 486.71 757.05 491.02 759.35 493.76 766.67 491.06 768.43 490.08 770.92 490.57 771.15 488.87 776.38 488.2 777.87 486.12 781.88 488.08 781.43 490.87 780.2 492.86 781.12 496.05 782.52 496.62 786.12 500.26 786.88 503.36 786.36 504.72 787.63 506.56 790.57 507.81 794.42 512.01 794.47 515.58 796.09 518.74 795.47 521.1 793.38 525.05 792.8 531.37 793.25 533.85 797.17 537.97 796.22 548.4 798.92 552.32 798.81 554.43 797.53 558.66 799 561.07 Z"/>
</g>
</svg>