<?xml version="1.0"?>
<svg xmlns="http://www.w3.org/2000/svg" version="1.2" baseProfile="tiny" width="800" height="797" viewBox="0 0 800 797" stroke-linecap="round" stroke-linejoin="round">
<g id="4201257">
<path d="M 516.26 115.87 518.39 117.84 518.88 119.27 521.25 120.45 519.73 122.83 522.54 126.33 521.56 129.44 521.58 130.69 522.49 133.07 524.1 135.98 524.13 138.4 525.14 139.94 524.65 142.07 524.97 144.18 524.04 146.65 525.58 148.07 527.36 152.23 529.64 152.41 531.29 153.68 532.32 152.98 535.72 153.48 538.12 153.35 543.94 155 549.56 156.01 558.81 157 562.98 158.45 565.66 158.07 571.04 159.93 573.42 161.77 573.8 164.72 566.29 166.18 564.15 167.32 561.89 169.39 562.61 171.17 563.38 174.58 563.26 177.01 564.77 179.01 567.95 180.74 573.82 183.06 574.33 184.55 573.76 188.69 572.71 190.65 572.2 194.03 570.38 197.24 571.4 202.1 571.56 204.84 572.5 209.55 574.8 213.84 574.96 216.03 576.22 216.71 581.29 218.3 583.46 222.05 584.18 222.7 586.99 222.03 591.74 223.02 595.61 222.2 599.25 223.07 600.8 224.3 602.36 224.81 606.78 224.87 610.8 222.64 616.5 220.87 619.19 219.28 620.79 217.07 622.61 215.68 624.92 214.91 626.72 212.4 629.26 210.82 634.87 208.42 636.8 208.25 640.06 209.73 643.94 208.94 647.46 210.08 649.77 212.67 652.71 213.23 658.66 215.27 662.15 217.34 662.49 218.54 661.55 222.22 661.93 223.88 663.04 224.94 664.98 229.12 664.27 231.9 665.65 234.04 667.71 234.8 670.35 234.53 669.42 239.33 669.55 243.24 667.27 249.57 666.12 250.69 666.56 252.96 666.13 255.87 665.07 257.82 665.25 258.96 663.52 261.69 660.73 262.9 656.08 263.96 655.1 265.09 653.94 268.23 652.5 271.09 652.24 272.54 652.64 278.47 651.94 280.03 649.42 283.33 650.6 285.81 652.14 286.53 655.45 287.24 657.21 288.62 659.8 288.38 661.26 287.73 665.24 288.6 670.64 290.63 673.57 291.31 677.61 291.42 681.51 293.53 688.41 294.54 693.06 295 694.64 300.37 694.17 304.14 696.9 305.87 697.57 307.03 701.41 307.51 702.42 308.24 702.42 310.86 702.95 312.53 702.38 316.06 701.88 316.87 696.97 319.21 695.24 321.34 696.81 323.95 698.16 325.45 698.49 327.37 697.97 328.23 694.43 328.31 693.65 330.88 692.29 333.46 692.12 335.06 693.72 338.87 694.89 340.58 695.65 347.16 698.53 350.7 700.28 351.9 706.55 353.82 709.89 355.7 711.02 357.51 711.42 361.87 711.94 362.79 714.25 363.9 714.88 365.03 712.86 367.54 713 371.09 714.04 373.17 715.97 374.66 717.18 378.38 717.49 383.23 715.44 386.06 716.29 388.12 716.64 391.73 716.48 395.7 719.1 398.41 719.28 399.81 718.12 401.4 716.46 402.33 713.6 404.69 712.95 407 711.12 409.52 714.2 412.55 715.94 413.49 721.32 411.94 723.16 412.45 725.87 415.3 725.68 416.66 724.61 418.41 721.09 421.78 719.98 425.15 720.21 427.56 721.27 431.37 724.23 433.59 724.76 434.97 727.58 436.45 729.95 438.55 732.47 440.07 735.59 440.97 737.38 442.46 736.26 444.77 735.63 447.84 738.44 451.63 739.41 453.82 741.27 454.04 744.4 452.86 746.87 452.42 747.65 454.38 749.06 455.48 752.15 456.03 752.33 457.03 751.34 459.06 747.81 461.24 746.91 462.59 750.07 463.53 751.96 463.63 752.22 464.8 751.13 468.03 752.7 470.51 753.06 476.72 752.46 478.49 754.98 481.61 755.88 484.32 755.94 488.81 757.56 490.37 761.74 491.63 764.65 491.73 767.79 492.67 769.41 497.28 767.97 500.73 767.25 503.73 767.88 505.08 769.99 506.31 770.43 507.12 770.05 509.22 770.39 510.58 775.68 511.47 777.76 510.83 781.49 510.8 784.6 512.06 787.3 515.42 788.22 519.74 790.16 520.56 792.06 522.88 793.08 524.77 797.54 526.09 799 527.69 797.86 530.43 792.45 530.56 789.28 531.32 788.19 533 783.66 533.1 783.3 534.43 784.02 539.59 783.53 545.94 782.45 551.5 781.23 552.27 776.73 553.77 772.87 556.47 772.12 556.34 768.14 553.69 764.82 553.15 759.68 553.47 757.02 554.16 752.53 558.9 751.07 561.59 750.38 564.97 746.98 566.79 744.07 567.19 742.64 567.99 740.58 572.45 740.1 575.07 735.42 574.93 732.53 576.03 731.98 578.19 730.22 579.86 729.47 582.7 726.08 587.27 725.9 588.5 728.01 589.96 728.31 592.91 727.84 594.37 726.41 595.78 724.23 596.91 723.11 599.05 722.37 603.7 722.69 610.9 721.18 612.74 720.69 614.67 720.97 616.71 720.18 618.33 720.07 620.23 722.06 623.9 720.14 624.65 717.27 626.55 715.6 629.46 710.85 633.66 708.39 634.13 706.31 633.58 705.81 634.23 707.05 637.24 707.56 639.54 706.48 640.81 699.28 640.78 696.34 640.34 693.56 640.89 692.42 641.8 690.94 644.02 690.1 646.52 688.97 648.56 686.26 651.84 682.21 654.6 680.24 654.39 679.19 657 677.59 657.9 677.87 659.99 675.69 662.58 674.1 663.6 670.02 659.71 668.48 657.84 666.42 656.96 661.25 655.97 656.05 654.22 653.98 654.53 649.44 657.44 646.75 658.64 643.04 659.08 636.59 659.23 632.84 660.18 629.53 659.29 627.75 659.5 624.41 660.55 618.94 660.7 613.23 661.6 610.34 662.75 605.69 666.22 599.75 669.39 596.58 670.01 594.24 672.29 588.45 677.3 585.9 678.51 584.82 678.15 583.04 676.09 578.29 674.94 575.52 674.76 570.42 673.59 568.98 671.63 566.7 670.16 563.38 669.85 556.75 669.96 552.08 670.25 544.85 671.36 541.27 670.7 539.68 673.27 537.76 681.1 537.13 682.63 534.2 687.39 532.17 693.51 529.17 695.44 528.45 696.64 526.84 697.53 525.6 701.23 521.5 703.69 519.46 703.9 518.68 705.7 516.77 705.91 516.24 708 513.1 712.04 511.02 716.32 508.34 717.3 506.1 720.41 504.81 720.89 504.04 722.18 502.26 723.58 500.78 721.9 499.11 721.51 494.05 726.34 492.19 728.67 489.64 728.92 488.47 728.3 486.4 729.63 485.31 729.58 483.76 726.98 482 726.1 478.09 726.76 474.15 726.77 467.54 728.94 465.63 729.35 462.74 731.34 459.07 732.22 457.08 732.27 454.58 733.23 451.85 735.13 450.38 736.62 449.31 739.13 447.09 741.83 444.6 743.44 441.72 743.46 438.5 741.9 436.07 740.36 433.22 740.3 432.05 739.86 430.29 738.08 423.35 737.6 421.05 737.24 418.64 735.93 416.81 733.67 414.18 731.49 413.96 729.6 412.52 727.26 408.74 727.45 404.45 725.71 400.89 725.02 398.52 722.1 393.86 720.22 388.86 719.54 386.26 721.25 383.78 720.21 379.66 719.81 376.36 721.11 368.14 721.97 366.76 719.72 360.14 718.8 359.47 717.59 358.82 714.64 357.18 713.08 356.51 710.38 355.43 709.37 354.62 706.63 353.42 706.67 352.6 708.94 353.05 711.89 350.73 712.98 350.61 714.32 348.17 715.56 343.53 716.43 342.27 718.03 340.23 718.32 339.97 716.56 337.61 716.1 335.6 717.05 336.29 719.03 335.49 720.79 335.45 722.83 332.26 724.96 330.75 724.11 326.56 726.55 324.5 727.04 324.01 729.21 323.32 729.77 320.15 730.28 316.52 730.2 314.73 730.83 311.68 730.97 309.37 731.76 306.81 734.09 305.24 734.53 301.63 734.9 296.44 734.21 292.31 734.25 287.59 733.09 284.69 732.98 277.99 731.87 276.31 730.98 272.18 727.79 269.41 724.08 268.21 724.02 267.06 725.33 262.16 727.44 256.08 732.63 253.99 732.77 252.19 731.72 248.27 730.56 247.15 731.27 246.4 735.83 244.97 737.98 242.12 739.79 238.92 739.17 237.41 739.54 233.98 741.51 232.85 742.87 232.14 744.82 229.81 746.2 229.22 748.53 229.42 752.07 229.18 753.15 226.65 758.59 224.59 761.83 224.51 763.71 225.4 767.41 224.52 769.62 221.77 770.24 219 770.48 217.62 771.06 217.15 775.76 216.32 777.56 214.33 778.7 209.37 779.8 201.66 783.24 200.13 785.66 198.33 787.24 195.46 789.03 192.13 789.99 188.83 788.44 186.05 789.28 180.59 793.98 175.52 793.63 167.79 793.99 165.85 795.5 164.42 796 160.6 795.87 156.66 794.84 153.46 792.79 149.8 791.44 145.4 791.2 141.38 792.27 143.8 790.18 143.66 788.44 139.63 785.15 136.82 784.02 133.3 779.38 129.29 777.51 128.44 776.39 129.11 774.68 130.8 773.64 131.59 771.39 131.12 768.4 132.57 763.9 132.16 760.98 129.63 758.56 126.66 756.64 123.42 753.81 122.45 748.48 119.99 746.66 117.44 742.77 116.8 740.57 114.22 739.17 110.82 738.16 109.29 736.49 107.86 731.76 107.21 730.75 103.79 728.56 103.34 725.52 102.48 723.73 99.3 722.08 99.05 718.53 98.49 715.71 99.19 713.36 98.87 712.59 96.07 709.78 95.71 708.11 96.07 704.58 95.97 701.58 96.33 699.96 97.99 697.89 98.4 695.73 101.42 693.66 102.77 691.06 103.17 687.53 104.39 683.68 104.06 678.81 108.9 674.05 109.72 672.17 109.62 670.24 108.4 667.99 109.24 666.05 109.78 662.88 109.3 660.15 110.68 655.99 112.66 654.94 113.01 654.12 112.57 651.42 113.99 647.58 117.76 643.28 117.72 642.65 115.71 640.37 114.84 638.41 114.82 635.98 113.89 633.76 113.19 630.53 114.11 629.38 116.21 629.45 118.14 628.43 119.78 624.67 122.85 622.53 123.65 619.46 127.1 617.22 129.51 614.63 131.44 613.49 132.78 611.59 135.18 611.26 138.23 611.57 139.24 611.21 139.16 608.17 139.57 607.62 143.57 605.56 146.38 602.73 151.72 599.36 154.3 598.57 155.7 598.73 159.54 597.12 160.99 595.13 160.59 593.34 155.81 590.43 153.73 586.91 151.37 584.48 150.37 580.57 148.8 578.77 148.45 576.87 147.72 576.3 145.69 576.59 143.53 577.69 141.23 578.01 139.56 577.36 134.55 577.88 129.06 576.13 127.62 573.97 126.98 571.65 127.7 567.96 127.63 566.24 126.17 565.29 121.66 564.45 119.11 563.09 117.81 562.96 116.13 563.79 114.87 563.57 111.87 561.12 109.13 559.41 107.35 557.56 106.23 555.38 104.72 553.69 104.4 551.64 103.25 551.1 101.54 551.46 96.55 549.81 94.08 547.98 93.83 546.91 94.89 544.54 97.57 541.81 99.95 537.87 101.82 535.62 105.25 533.05 105.87 532.28 107.21 528.58 108.97 525.97 109.76 521.84 109.62 517.57 112.13 513.34 114.71 510.04 114.41 508.31 112.12 505.31 112.62 501.32 113.89 498.36 114.84 497.42 114.85 495.47 112.2 493.11 111.89 491.09 110.5 487.88 108.55 486.14 103.82 483.21 101.48 482.07 100.29 480.29 98.94 476.44 98.81 474.68 99.48 473.83 104.38 471.45 105.22 469.6 103.64 467.52 103.75 466.22 102.5 464.75 100.32 459.36 101.08 456.72 100.6 454.92 98.14 451.41 96.14 449.76 93.23 448.53 90.8 445.69 89.81 442.9 89.45 440.35 88.5 438.26 87.45 434.78 88.1 431.02 87.67 427.61 85.43 424.11 85.47 420.84 83.53 418.38 81.75 410.49 80.51 406.29 81.14 404.71 82.24 404.49 84.24 406.26 85.82 407.14 88.28 406.24 90.35 400.03 91.41 398.11 91.45 396.67 88.43 392.1 87.24 388.73 85.48 385.89 83.31 384.47 79.58 383.59 76.15 384 76.35 382.23 79.75 381.68 82.37 380.23 82.87 378.88 82.6 377.17 80.89 375.8 79.8 373.82 80.34 371.21 79.44 369.37 78.06 368.82 75.77 366.57 74.51 362.99 76.27 363.12 81.93 360.75 82.65 359.06 82.64 357.18 81.68 355.55 78.74 352.83 76.55 352.54 72.99 349.6 74.48 348.76 74.99 347.34 76.77 346.11 74.38 345.31 71.48 343.23 68.61 342.54 66.51 340.79 62.68 336.93 60.21 334.71 57.25 331.27 48.84 324.86 46.84 325.85 45.57 324.74 43.35 323.74 39.28 320.63 33.48 318.52 30.21 318.19 30.13 317.53 27.25 314.8 24.02 313.14 19.2 310.05 15.52 308.06 13.05 307.64 11.77 305.54 8.42 304.4 10.34 303.47 13.1 300.6 13.55 297.99 10.99 295.67 10.64 294.42 1 280.96 2.2 281.37 9.88 282.62 15.62 282.95 23.36 285.18 25.47 285.94 30.65 290.08 33.75 292.87 34.53 294.06 39.2 296.77 41.56 298.68 44.28 301.92 50.71 304.01 56.49 306.21 60.49 306.59 63.98 307.86 66.13 309.14 69.69 315.14 72.72 317.46 73.94 319.27 75.18 323.05 76.51 324.02 79.28 325.16 82.78 327.59 85.8 330.13 93.4 334.26 95.21 336.22 96.02 339.25 98.79 342.55 103.95 345.47 105.27 345.97 107.9 345.92 109.46 343.88 109.69 341.03 109.37 337.57 107.68 335.28 106.93 333.27 107.23 331.85 108.13 321.29 107.49 318.06 106.28 315.01 105.14 313.31 104.77 311.45 105.58 307.16 108.68 301.4 110.88 299.35 112.29 297.36 114.53 295.55 112.81 292.09 110.48 291.85 106.89 292.2 107.41 290.4 106.16 288.92 108.28 288 108.27 286.88 105.6 284.78 100.53 285.43 98.88 284.25 99.28 281.36 98.84 280.49 96.79 279.45 95.36 279.45 92.66 278.49 89.84 276.37 88.33 270.41 85.57 268.12 83.71 263.81 79.76 259.89 78.51 257.73 78.53 255.67 75.73 253.86 73.39 253.3 71.77 251.88 71.34 249.64 72.18 247.7 72.17 246.06 73.67 243.29 73.02 240.83 73.07 238.74 70.36 236.97 73.31 235.12 76.75 231.62 79.49 231.47 81.87 228.38 82.99 228.09 83.11 224.19 83.41 223.47 85.66 221.87 86.08 220.39 84.81 217.91 84 215.46 82.52 214 82.22 212.76 79.46 211.09 78.69 209.7 80.76 206.91 79.51 206.07 76.82 207.71 75.14 207.44 75.41 205.39 77.94 202.51 79.36 202.42 82.93 204.22 83.16 202.51 77.62 198.69 75.31 195.05 70.81 190.53 68.99 186.35 65.98 182.69 65.74 181.19 69.85 180.09 72.27 178.92 75.72 178.91 76.61 179.48 77.37 181.86 79.93 183.13 79.29 180.79 80.1 178.85 81.71 177.19 80.73 175.45 81.36 173.2 80.29 172.24 77.82 171.69 74.97 170.03 74.36 168.54 70.75 166.17 72.77 164.27 79.11 163.08 81.31 161.81 82.56 160.51 83.23 158.68 82.73 157.39 84.09 154.45 82.01 151.46 82.13 150.02 81.36 148.82 82.53 146.19 82.48 145.09 81.28 141.24 78.4 139.89 77.4 137.86 75.9 137.28 75.55 136.22 76.12 134.45 75.71 132.89 76.99 131.97 79.26 129.23 79.45 127.03 78.47 125.03 78.69 123.83 80.57 122.39 83.09 121.53 84.22 119.94 85.53 119.02 84.59 116.69 84.72 114.03 85.26 112.61 84.43 111.1 85.01 108.43 84.37 107.32 85.35 104.23 85.42 101.48 83.8 95.51 84.85 93.36 85.05 88.64 82.88 84.01 81.07 81.45 80.59 80.15 80.87 77.78 80.07 75.78 77.93 67.72 80.42 67.83 83.08 68.51 86.16 68.89 88.91 68.75 95.31 70.08 100.58 71.55 106.7 74.07 108.69 76.12 112.03 78.1 114.31 78.24 116.73 79.22 118.81 81.46 122.33 83.63 125.3 84.07 130.85 86.56 132.78 87.15 135.35 89.31 138.69 90.17 142.8 89.77 151.67 91.16 153.76 92.19 157.64 93.51 159.61 93.25 164.55 89.81 168.97 88.08 172.64 89.18 174.18 88.88 178.35 86.6 181.64 86.31 185.96 87.31 191.14 86.63 199.63 83.11 201.32 82.64 205.49 82.58 211.35 83.91 216.31 83.54 218.26 82.69 222.02 80.29 224.75 80.02 225.91 80.47 229.49 83.06 231.01 83.58 236.1 84.03 238.67 83.32 242.25 81.16 245.6 80.92 250.69 80.12 256.4 83.44 258.97 84.53 260.69 84.8 263.53 84.59 267.73 85.15 268.83 85.57 270.31 88.2 273.51 89.23 275.87 88.73 277.62 87.81 279.04 85.63 281.43 85.28 283.92 86.51 286.47 87.22 290.02 88.75 294.76 88.91 296.89 90.21 300.14 90.92 303.78 90.6 306.48 89.77 312.43 86.99 316.59 84.67 318.6 84.73 320.44 88.78 321.77 90.82 329.18 98.31 330.33 98.83 336.21 98.57 338.64 98.68 341.25 97.7 342.82 97.85 344.57 97.14 347.12 96.75 347.06 95.28 345.55 93.67 345.42 92.46 347.15 90.63 344.75 88.81 342.8 86.35 342.33 82.33 341.26 76.4 341.62 68.96 341.44 67.69 339.56 64.26 339.06 62.26 339.1 59.52 340.02 54.86 340.09 52.83 339.05 49.55 337.38 45.47 334.19 40.4 330.58 33.87 323.58 25.24 322.15 22.3 321.59 18.94 323.5 15.94 328.66 11.75 337.09 5.69 341.12 3.39 346.95 1.41 350.16 1 350.23 6.52 350.99 7.57 354.51 9.68 356.94 10.63 358.1 12.77 355.95 15.41 358.16 16.46 357.48 18.21 359.98 19.42 364.1 20.67 365.34 22.68 367.48 23.23 375.03 23.36 378.17 24.99 381.48 25.76 385.78 28.72 387.52 28.88 388.63 27.75 390.42 28.39 390.9 30.64 392.16 30.94 393.87 28.38 394.53 28.08 395.93 30.21 396.48 32.26 399.71 33.67 401.19 36.7 406.37 41.77 409.62 42.39 412.45 44.93 411.94 46.87 412.67 47.49 415.43 48.26 416.3 51.23 415.49 52.84 417 56.83 419.65 58.03 419.37 59.21 420.85 59.73 422.53 59.02 424.72 60.23 425.63 58.51 427.43 59.54 428.92 58.6 431.55 59.17 433.46 58.62 438.43 59.7 440.34 62.55 443.1 63.82 444.39 64.79 446.38 67.1 449.44 68.62 450.52 71.9 450.49 75.61 451.05 77.03 455.02 79.26 455.05 81.02 458.77 85.84 460.6 87.42 460.91 89.31 463.5 92.34 472.96 93.91 476.17 93.22 480.82 97.57 481.25 98.61 481.15 102.96 481.82 106.48 484.64 112.07 516.26 115.87 Z"/>
</g>
</svg>