<?xml version="1.0"?>
<svg xmlns="http://www.w3.org/2000/svg" version="1.2" baseProfile="tiny" width="800" height="831" viewBox="0 0 800 831" stroke-linecap="round" stroke-linejoin="round">
<g id="4202875">
<path d="M 514.06 13.61 517.58 13.15 525.79 10.49 529.14 9.84 533.88 8.38 535.84 8.75 539.74 11.11 543.51 12.38 547.11 13.11 556.41 17.09 557.21 18.18 557 20.78 554.24 22.96 550.91 26.49 546.41 33.65 545.47 38.68 545.7 41.2 547.44 42.58 551.26 42.75 553.61 43.57 558.75 46.49 563.35 47.46 568.05 48 579.44 52.21 582.96 54.41 586.29 54.12 589.47 52.08 591.67 51.34 594.07 51.5 597.62 53.06 598.2 54.46 597.39 57.13 598.32 59.2 598.31 61.07 596.76 64.04 595.6 68.54 596.58 72.02 596.91 75.21 600.22 77.99 605.33 80.01 606.52 80.14 612.65 78.79 614.44 78.77 616.48 79.68 617.83 81.64 619.46 82.9 625.51 85.62 626.85 87.02 627.73 89.14 627.46 90.95 627.75 96.5 627.01 99.65 625.59 101.83 620.84 104.86 611.73 106.43 609.38 105.95 602.2 106.5 597.14 107.86 595.25 108.82 594.54 112.38 592.02 115.27 588.63 114.93 586.71 115.44 582.91 118.09 582.53 120.24 583.42 123.56 586.28 128.2 587.66 129.4 590.05 129.86 594.05 131.42 596.63 133.07 598.15 134.84 600.16 138.86 602.82 142.69 604.47 144.3 606.7 145.35 608.73 145.48 613.38 144.74 618.12 143.56 624.42 144.48 625.5 145.36 627.64 149.09 632.47 148.03 636.18 147.85 641.27 145.73 643.04 146.84 646.7 146.69 647.84 145.73 648.05 143.68 649.78 139.45 652.56 139.01 655.41 139.25 657.56 140.27 660.35 140.3 663.39 143.2 664.1 145.8 662.66 148.41 662.53 152 663.95 157.49 666.08 161.03 665.77 163.31 664.28 167.9 659.53 170.34 654.49 174 653.6 175.49 654.26 180.03 655.11 181.44 658.95 183.52 660.51 184.87 663.07 189.4 663.97 191.85 665.65 194.34 669.5 202.16 669.88 204.75 669.08 207.48 668.92 209.89 669.44 212.03 669.4 215.89 668.98 217.57 667.19 219.7 665.71 220.52 661.81 221.07 656.54 222.64 654.87 224.79 655.35 227.5 657.79 232.88 659.69 235.76 661.68 237.19 666.94 239.95 674.58 244.4 675.98 246.03 677.09 249.82 680.3 252.52 681.58 256.39 681.44 264.78 682.15 268.41 683.87 271.24 685.7 272.78 688.18 273.79 694.78 271.5 697.25 271.43 702.07 272.28 702.85 275.24 704.49 279.56 705.25 284.24 704.41 287.97 703.51 294.9 704.22 299.45 706.98 305 710.86 310.31 714.08 313.08 720.32 317.03 725.99 318.77 735.78 319.28 743.13 322.32 746.94 324.44 751.11 327.44 752.29 328.77 753.45 331.59 754.83 337.73 756.5 344.06 756.44 347.4 755.53 351.39 751.45 357.17 747.33 361.68 740.57 365.46 735.61 370.2 725.16 380.92 720.71 387.01 718.58 388.98 712.97 395.08 708.78 400.19 706.5 404.16 705.32 408.72 705.86 419.82 706.54 422.8 707.97 425.46 709.69 427.45 714.03 430.65 717.31 431.39 724.05 430.01 732.38 426.93 735.03 425.64 743.1 422.25 746.69 421.01 750.8 420.66 759.72 424.63 766.21 427.34 771.87 429.26 775.52 429.91 778.43 429.99 782.39 427.68 788.22 424.72 791.83 424.71 796.5 427.09 797.53 428.53 799 432.97 798.36 435.4 796.44 437.02 790.62 439.32 780.4 444.67 776.92 446.05 764.98 452.23 762.93 453.5 759.61 456.58 758.03 458.73 755.82 463.11 752.87 467.03 750.41 469.46 747.99 470.31 743.84 470.43 737.02 469.67 730.8 470.27 727.6 471.92 725.08 474.78 724.41 477.33 725.02 479.99 727.13 482.77 731.2 490.72 733.01 493.21 735.7 499.41 736.58 502.13 736 507.86 737.55 510.5 737.87 512.16 737.32 518.55 736 523.71 735.12 525.2 730.84 529.3 728.39 533.74 728.1 536.14 728.49 539.02 730.28 544.64 731.48 549.29 732.86 553.25 732.67 555.58 730.77 558.76 727.75 562.01 726.17 564.58 723.5 567.55 721.49 572.3 718.88 576.03 714.41 583.25 708.37 589.36 705.11 591.8 701.43 593.16 694.87 594.45 692.58 595.3 687.96 598.23 685.73 600.71 685.3 603.03 685.8 604.93 687.53 607.46 692.39 611.96 702.13 619.55 707.29 624.58 714.99 633.35 718.82 636.29 726.11 638.84 728.37 640.52 733.61 645.09 736.41 649.4 736.24 651.75 735.2 654.1 734.91 657.28 736.26 660.58 740.14 666.88 740.44 668.51 739.27 670.41 736.07 674.24 728.82 679.55 724.69 681.59 717.99 683.37 714.17 685.29 713.16 686.19 712.51 688.36 712.99 696.09 711.72 701.25 710.54 703.61 706.92 706.98 703.76 714.17 701.41 717.24 701.12 719.29 701.5 723.63 700.71 725.9 698.54 729.8 696.27 732.43 694.51 733.58 686.66 736.33 682.7 737.12 678.2 737.62 671.6 737.81 666.95 736.24 663.3 733.08 660.25 729.12 656.58 720.27 655.38 715.97 652.64 711.51 648.7 702.53 645.16 697.65 636.35 691.15 634.86 690.73 627.97 690.54 621.88 689.93 619.91 690.13 615.67 691.57 606.81 695.21 604.78 697.01 601.85 700.29 599.88 703.51 599.14 705.52 599.3 707.97 600.29 710.24 603.98 716.19 605.42 717.8 611.24 721.72 616.81 727.58 619.51 731.07 626.08 735.24 628.42 737.18 632.07 740.95 636.37 746.07 639.72 748.85 645.35 754.17 647.82 756.15 650.07 759.79 650.25 763.92 648.18 770.27 644.15 779.73 639.92 787.96 638.03 790.95 634.8 793.84 632.14 795.09 628.89 795.69 626.1 795.53 620.42 793.54 613.83 790.7 608.95 788.83 593.83 785.47 590.54 784.59 585.39 782.58 580.5 781.14 576.03 781.04 573.17 781.48 570.32 782.44 565.57 784.61 563.81 785.91 561.21 789.62 558.39 795.07 557.93 799.71 558.37 803.69 560.25 813.62 560.68 820.14 560.09 825.15 558.2 828.26 554.92 830 550.1 829.99 547.48 828.32 543.74 824.73 538.47 818.59 536.38 815.43 534.21 812.99 531.66 807.33 531.46 802.54 529.63 796.6 526.54 790.69 526.53 787.51 527.64 784.05 527.09 781.98 524.43 776.53 521.48 774.24 517.96 772.96 514.38 770.41 511.2 768.66 509.34 768.14 506.4 768.19 507.44 764.88 506.3 757.18 504.39 753.74 503.08 750.12 502.8 747.41 503.56 744.7 506.87 739.31 508.29 733.5 510.55 730.21 514.94 727.06 516.06 725.57 515.42 719.22 514.02 715.63 511.5 713.09 505.57 712.08 501.37 713.25 499.76 713.11 498.96 706.92 497.61 705.68 494.28 706.23 490.5 712.06 489.53 713.15 487.34 712.9 484.27 710.56 483 710.43 479.86 711.6 478.87 712.49 475.48 710.96 475.11 709.01 475.89 706.64 474.64 705.4 470.91 705.9 466.48 702.76 465.31 700.56 466.75 696.59 466 691.37 464.19 690.91 460.65 693.99 457.89 693 454.79 693.46 450.63 693.32 449.83 693.88 449.31 696.51 445.02 699.91 441.78 701.08 441.15 701.95 440.82 706.08 441.97 709.54 444.69 711.7 446.93 717.4 449.88 720.63 454.25 723.97 456.63 725.07 457.09 726.22 460.96 729.6 463.42 732.64 463.04 733.68 457.14 736.53 452.18 740.88 447.98 743.08 445.38 744.88 442.49 747.6 441.06 744.59 438.82 743.34 432.89 741.84 430.63 740.24 427.2 736.33 425.55 735.09 423.11 734.3 423.41 731.54 421.26 728.91 419.24 724.98 419.34 722.61 417.59 717.06 414.94 714.13 412.13 712.32 410.03 712.37 409.57 710.83 410.84 705.53 413.19 702.23 413.69 698.61 415.6 693.13 415.8 690.13 415.23 688.32 413.76 686.33 412.32 685.71 407.65 686.78 402.99 689.69 400.79 691.51 395.98 694.43 393.03 697.1 391.61 697.58 389.63 695.65 387.54 692.06 386.19 691.92 384.04 693.66 382.64 697.72 374.63 702.35 370.85 704.07 367.21 706.63 363.98 705.35 360.71 704.8 358.37 705.68 354.72 709.17 352.75 710.4 349.6 711 345.18 709.9 338.87 709.75 336.3 709.46 334.6 707.69 329.01 704.78 327.74 702.75 330.54 700.01 330.45 694.69 329.82 692.95 327.76 693.04 325.82 694.08 323.6 694.18 321.03 692.99 320.69 690.33 319.37 687 318.85 684.36 311.78 682.17 309.17 678.41 307.97 673.75 305.96 671.61 303.83 671 301.06 673.24 300.04 676.25 297.22 677.14 294.44 678.64 289.82 683.5 289.29 687.05 287.04 690.28 284.98 691.16 281.74 690.42 278.59 691.18 276.18 688.99 272.68 689.63 271.5 682.61 271.18 678.49 271.59 677.11 274.23 676.48 277.46 677.47 280.39 675.7 281.43 674.19 281.55 671.83 279.59 667.86 276.79 663.34 274 662.23 272.74 659.29 271.52 658.42 271.21 653.21 270.12 651.75 267.16 649.18 263.23 647.27 261.11 645.2 258.8 645.86 257.84 647.22 255.78 646.43 255.68 644.9 251.2 641.44 249.53 641.19 244.21 641.82 242 642.56 239.54 642.3 238.85 639.09 239.48 637.48 241.5 635.97 241.41 635.06 238.69 633.81 238.99 631.08 238.52 628.52 240.45 626.69 244.59 627.82 247.85 628.16 249.3 627.29 249.72 623.76 252.67 619.38 258.08 614.34 263.21 612.5 261.74 611.52 259.07 611.14 256.14 609.23 254.99 609.05 251.59 607.24 250.53 605.35 250.73 603.93 254.37 600.5 252.95 598.77 254.74 596.34 255.37 594.63 254.65 593 253.04 592.63 246.28 593.51 244.94 592.83 244.8 589.73 241.62 589.02 238.9 585.61 235.44 585.65 230.63 583.08 228.93 582.73 226.61 581.25 224.09 581.6 218.86 581.3 216.45 579.85 214.68 577.33 216.68 575.16 216.72 572.58 213.37 571.45 210.56 567.84 208.26 567.88 209.12 565.56 212.21 566.26 217.37 566.55 219.64 566.13 221.06 564.45 222.06 561.2 225.52 556.83 225.95 555.62 224.02 553.86 221.08 553.85 219.97 552.65 222.32 550.63 225.51 548.81 228.15 548.74 230.28 547.05 231.36 544.92 233.17 542.72 230 542.21 227.35 539.06 227.53 536.7 228.48 533.86 231.42 530.11 231.01 525.88 229.38 522.35 227.97 520.18 225.79 518.03 222.62 516.13 219.33 514.63 215.63 513.64 213.77 510.82 210.55 514.75 213.35 519.07 212.28 520.44 212.69 522.27 209.12 524.7 207.48 527.35 205.56 528.25 205.24 529.42 202.27 529.54 201.42 528.74 196.64 530.07 196.67 533.07 195.74 534.09 190.39 531.15 186.68 530.1 184.83 532.67 182.31 531.51 179.67 531.01 177.64 531.75 173.44 532.38 171.91 533.12 165.57 531.03 162.09 532.25 161.09 531.84 157.76 527.49 157.35 526.13 151.96 526.41 149.18 526.09 147.86 523.94 146.02 522.13 142.77 522.65 141.82 523.86 140.12 524.35 139.51 526.13 137.28 528.98 133.43 532.79 132.88 535.52 129.81 536.23 129.13 538.88 127.3 539.26 121.46 542.08 119.62 543.27 117.42 543.86 115.79 546.54 112.45 548.63 109.78 552.3 110.46 554.73 106.28 557.54 105.01 555.67 100.59 554.72 96.28 556.25 95.18 558.06 93.61 557.91 93.07 556.67 93.86 554.75 92.62 553.19 90.94 552.43 88.82 552.84 87.16 554.59 81.47 551.82 81.06 550.43 78.51 548.42 78.14 545.69 76.27 543.44 74.11 542.13 71.73 541.42 67.32 541.9 66.84 540.65 63.63 539.54 58.15 539.69 52.7 543.4 50.37 544.28 44.67 542.66 43.42 540.17 40.99 538.87 39.15 537.18 38.89 533.57 39.13 531.26 38.31 529.36 39.73 527.58 40.14 522.43 40.4 520.61 37.79 518.59 37.02 517.37 38.45 515.89 39.42 512.96 38.3 511.54 35.92 511.08 33.17 511.61 31.62 510.49 30.56 508.59 30.9 504.96 30.57 503.41 27.24 500.73 24.39 495.26 22.99 494.17 23.61 492.28 27.3 489.49 28.19 485.9 28.24 479.18 26.97 476.42 22.74 472.67 20.9 470.18 17.92 464.01 15.5 462.59 14.35 459.1 14.28 454.27 14.73 452.67 16.49 451.09 16 447.55 13.1 443.76 12.63 442.38 12.17 437.69 12.75 435.51 14.29 434.25 15.17 431.54 15.06 429.96 13.01 427.14 9.92 424.06 8.49 423.58 4.85 423.57 4.33 420.25 6.78 414.76 8.49 412.12 7.96 410.67 4.92 409.03 3.78 405.7 1.75 404.66 1 402.71 1.95 401.96 2.11 398.54 3.92 397.65 3.13 395.3 3.93 393.58 3.22 390.39 2.71 385.04 4.18 381.86 5.65 380.68 6.01 378.98 9.47 378.3 14.42 376.68 22.5 375.12 31.24 374.05 38.91 373.51 50.14 372.97 56.66 371.74 61.11 370.14 71.57 365.16 77.58 363.13 83.31 362.27 102.75 360.88 112.76 360.07 116.49 359.27 120.65 357.5 124.28 355.09 129.27 350.32 131.54 348.69 134.81 347.39 139.5 347.15 137.54 343.54 137.5 341.05 136.82 338.36 132.76 337.68 129.48 336.52 128.11 335.48 125.17 334.55 123.63 333.57 120.43 332.49 118.49 332.31 115.64 329.39 114.3 326.87 108.99 324.02 106.99 322.31 103.34 313.05 101.26 312.4 95.86 312.96 93.82 313.75 93.91 309.23 94.35 303.49 94.97 302.71 99.92 300.59 100.98 298.48 102.78 297.61 108.45 298.93 111.32 297.25 113.95 296.33 116.38 296.04 118.82 294.89 120.23 293.43 125.37 290.45 126.38 289.36 128.95 288.35 132.24 288.73 134.46 288.29 140.39 281.1 141.19 277.16 143.77 274.04 144.18 270.36 143.37 268.03 139.87 266.12 133.23 263 130.25 261.26 129.32 259.25 128.26 254.37 126.72 250.77 127.47 248.74 131.22 246 133.45 245.45 136.61 243.42 137.43 242.4 137.58 237.73 136.88 236.58 133.12 235.44 131.58 233.92 129.79 229.46 130.21 228.08 131.89 226.94 134.68 226.53 137.02 227.05 139.51 226.27 141.43 222.92 143.7 221.76 149.29 223 151.1 222.86 153.37 221.3 157.96 216.4 158.69 214.64 161.91 211.64 163.06 211.08 168.04 212.15 170.19 210.79 171.3 208.9 171.13 207.08 166.29 204.47 166.62 202.74 168.18 201.37 169.89 200.91 172.89 201.5 173.88 203.28 175.28 203.68 177.58 202.59 181.24 204 183.59 204.14 184.9 202.53 183.08 199.68 181.82 199.05 182.41 196.6 185.64 195.11 187.55 192.33 189.72 191.68 193.96 192.45 197.39 189.91 197.98 186.3 197.79 181.51 198.57 180.36 201.78 178.67 204.3 175.46 206.63 174.32 210.14 174.28 211.83 176.51 215.69 175.12 218.82 175.47 222.43 174.81 225.59 176.95 228.89 176.16 231.43 175.08 233.15 170.52 234.31 169.61 237.05 169.01 238.57 167.33 244.08 164.2 247.69 159.11 250.44 159.67 252.17 156.93 253.16 156.57 255.76 157.96 259.65 157.29 265.07 155.93 267.12 154.58 269.34 154.22 273.15 156.35 275.89 156.69 278.82 158.12 280.31 158.1 282.14 159.16 285.37 157.94 288.96 156.06 290.72 156.19 293.82 157.54 297.75 157.96 300.13 157.35 303.78 157.11 308.75 158.37 312.35 158.96 314.09 160.38 317.9 160.53 323.32 161.45 325.38 162.85 328.35 162.8 330.28 160.83 332.96 160.2 335.95 157.58 337.65 155.07 339.05 151.67 340.98 150.38 341.44 148.99 340.83 145.76 344.71 142.15 346.14 139.36 346.21 137.39 347.16 136.13 349.5 134.8 349.82 131.94 350.75 130.74 352.96 129.6 354.35 127.65 356.59 126.07 360.73 124.94 362.18 122.7 361.45 121.17 362.33 118.92 364.6 116.34 366.3 111.61 368.89 110.39 370.83 111.59 371.67 114.68 375.61 113.97 378.93 114.06 381.56 108.4 382.53 108.03 385.18 104.85 387.2 103.25 389.33 102.8 391.07 101.57 392.34 99.21 396.29 96.71 395.06 95.24 395.52 94.13 399.66 92.16 402.46 90.07 404.43 87.76 406.54 86.7 406.62 83.05 408.28 82.04 407.03 80.11 403.66 78.06 404.03 75.81 401.86 75.33 401.38 74.31 403.74 73.84 408.25 73.78 412.82 75.26 420.55 81.68 424.75 84.2 426.34 83.62 428.68 81.06 430.17 77.91 435.68 73.55 436.46 71.24 435.55 69.52 431.73 67.96 430.54 66.26 430.4 63.61 431.3 59 433.8 55.84 434.15 53.19 429.12 49.27 428.24 48.12 428.11 42.28 429.69 37.68 433.01 34.65 433.07 32.41 431.72 31.55 428.07 31.7 422.44 31.39 415.93 32.42 413.82 30.17 413.77 29.07 416.2 25.56 416.73 23.67 416.25 22.37 411.98 21.8 410.1 19.2 408.89 11.02 410.17 10.41 412 11.14 415.93 11.51 418.48 12.6 423.45 16.94 426.35 17.01 428.68 16.36 430.19 15.26 432.81 14.55 436.18 13.09 442.78 6.14 445.71 6.12 446.29 8.13 449.1 8.77 451.86 8.04 456.59 7.52 459.99 6.57 463.96 4.95 465.4 1.73 466.2 1 472.25 2.22 472.72 3.58 471.78 6.67 471.88 9.23 473.17 11.49 472.98 14.65 470.9 16.14 469.73 17.99 473.04 22.47 475.66 29.38 475.91 32.46 477.95 35.69 480.56 38.62 480.23 40.45 476.26 48.72 473.56 56.31 474.43 57.63 476.1 57.61 482.67 59.55 488.96 60.94 495.15 59.39 499.83 57.45 501.58 57.39 505.74 56.39 509.41 57.74 511.88 59.54 515.1 60.05 518.53 58.3 521.83 58.6 522.89 57.2 522.31 48.88 523.19 44.63 523.4 40.39 522.98 34.06 521.96 30.48 518.79 28.12 512.52 26.06 510.63 23.78 509.05 19.5 509.27 15.61 510.77 14.52 514.06 13.61 Z"/>
</g>
</svg>