<?xml version="1.0"?>
<svg xmlns="http://www.w3.org/2000/svg" version="1.2" baseProfile="tiny" width="800" height="1005" viewBox="0 0 800 1005" stroke-linecap="round" stroke-linejoin="round">
<g id="4202099">
<path d="M 648.4 226.56 636.19 236.17 669.33 290.45 663.37 294.87 660.77 298.02 673.11 383.36 632.48 486.62 698.01 508.07 693.04 508.65 690.94 511.12 691.48 516.2 688.99 518.92 681.77 522.08 679.44 525.21 678.82 531.37 676.22 536.3 675.72 541.66 671.22 544.87 667.38 540.83 658.44 543.61 657.49 547.66 659.11 551.25 665.87 552.6 660.94 560.65 653.69 567.26 653.29 569.6 656.93 573.81 662.74 578.3 654.3 583.08 654.28 585.99 656.84 593.93 653.81 594.76 648.95 593.26 612.33 554.42 581.07 580.39 593.3 578.8 612.09 578.37 615.96 579.9 618.33 585.86 618.77 592.36 617.7 599.84 612.99 600.29 602.84 605.13 588.21 613.36 574.85 618.43 565.09 621.55 553.92 625.94 539.76 632.47 533.59 636.79 529.84 640.44 528.96 643.32 529.91 651.5 531.27 656.83 531.5 665.19 530.04 672.51 528.23 677.78 527.53 683.82 529.5 688.29 531.51 689.88 537.57 691.92 544.03 692.37 555.25 688.3 572.69 685.62 577.95 685.59 592.96 687.86 596.89 686.24 599.49 681.42 599.47 676 600.47 671.9 604.43 662.39 608.33 660.67 614.63 661.51 617.23 662.84 617.87 666.15 625.3 675.49 630.6 675.63 637.31 676.96 641.76 679.29 649.66 685.42 651.53 688.47 650.36 695.19 644.79 703.22 638.43 710.94 637.5 713.26 638.77 719.95 647.45 731.01 652.5 736.24 656.41 739.12 660.87 745.46 662.62 749.96 662.21 755.86 668.13 768.34 670.86 772.99 675.71 789.03 677.67 797.62 680.01 805.23 685.68 818.47 684.64 821.01 679.89 822.33 667.89 817.2 660.91 813.12 651.6 802.7 644.29 790.42 638.31 786.33 618.79 786.1 612.12 787.61 602.07 790.88 599.6 792.44 596.86 796.25 590.22 801.99 583.18 806.13 577.8 811.28 572.49 817.31 570.15 822.35 571.11 824.84 588.24 838.83 599 850.62 600.23 853.08 600.89 859.54 600.16 861.72 600.43 871.03 602.87 880.96 610.27 903.24 612.74 906.68 626.34 912.07 635.59 910.57 648.89 910.66 651.28 910.03 668.61 907.55 676.47 904.8 680.93 900.85 683.4 895.78 686.55 883.39 686.96 876.33 689.54 870.69 690.84 865.75 693.36 860.83 698.58 847.34 700.84 839.61 703.25 836.71 710 832.96 714.48 832.05 730.63 837.84 734.79 840.19 743.67 849.57 745.99 852.76 752.85 858.77 757.06 863.58 763.56 867.58 771.5 870.18 783.93 876.78 789.21 878.66 794.7 882.04 796.48 886.87 793.54 889.14 790.52 894.38 788.01 902.1 790.05 910.14 792.67 916.78 795.82 929.16 799 938.81 798.44 943.96 794.18 949.7 789.22 952.26 781.31 954.41 768.94 955.24 764.04 955.18 749.57 952.09 732.75 951.32 728.08 952.32 701.89 962.06 692.02 966.37 688.77 968.85 686.44 973.58 686.59 975.48 693.99 991.46 695.48 998.07 694.64 1001.75 690.69 1004 687.27 1002.75 677 1001.37 669.99 999.39 663 996.43 656.04 991.82 652.11 990.23 647.4 989.88 637.57 990.85 631.85 995.45 630.9 997.08 623.55 993.41 618.56 989.62 616.46 991.39 607.45 987.4 600.6 982.49 598.14 979.93 593.24 977.2 590.17 972.57 587.16 970.45 580.16 967.46 577.01 963.7 571.19 961.91 568.4 959.98 564.91 960.56 556.89 964.66 544.72 964.35 538.99 961.17 532.04 961.71 526.89 960.93 519.08 955.17 514.08 949.62 512.46 946.31 508.93 946.46 506.92 948.65 500.3 949.44 494.43 945.76 492.15 936.93 490.64 935.42 482.94 932.16 474.1 931.24 474.07 927.2 478.1 923.85 477.06 921.42 469.74 920.97 467.24 919.48 462.42 912.42 456.74 908.33 459.13 901.64 457.69 894.58 447.22 895.41 446.26 891.83 449.26 886.23 450.27 880.4 449.42 877.23 442.6 871.11 438.32 872.33 436.43 870.92 435.32 865.56 432.01 861.84 432.72 857.03 430.52 854.86 429.52 851.42 426.25 847.84 422.66 846.05 423.6 843.02 423.43 833.67 419.74 830.13 416.44 822.01 417.91 814.56 415.56 802.83 406.8 787.23 402.1 782.83 401.24 778.55 396.75 774 398.11 766.37 371.47 771.53 320.8 781.61 311.21 748.47 114.72 571.5 1 469.07 113.25 368.93 132.46 386.98 192.27 333.25 199.88 338.23 206.1 344.65 254.37 316.52 298.19 310.47 296.95 306.27 297.18 298.91 300.28 294.13 301.74 289.91 304.81 285.08 306.32 279.79 299.78 268.75 337.86 267.29 415.57 260.81 408.08 254.12 402.57 247.52 398.56 241.48 394.71 233.07 393.57 225.95 396.73 222.06 411.95 213.2 422.94 207.31 439.45 200.92 457.67 192.28 468.53 186.12 472.88 176.67 474.82 171 478.74 162.53 484.75 153.3 489.97 150.31 498.97 146.67 506.7 144.38 513.75 140.24 514.41 138.62 511.36 135.49 482.34 126.88 476.66 124.76 467.59 122.48 456.54 118.3 447.24 116.95 442.01 116.97 516.78 1 556.47 21.33 558.45 19.15 619.67 50.59 573.84 151.7 608.92 191.74 609.36 195.5 616.2 199.24 618.53 195.6 623.87 196.16 631.76 199.5 635.29 205.35 642.68 214.45 645.44 218.91 648.4 226.56 Z"/>
</g>
</svg>