<?xml version="1.0"?>
<svg xmlns="http://www.w3.org/2000/svg" version="1.2" baseProfile="tiny" width="800" height="751" viewBox="0 0 800 751" stroke-linecap="round" stroke-linejoin="round">
<g id="4202008">
<path d="M 419.82 223.27 423.61 223.23 421.67 228.7 418.05 230.62 408.78 228.57 416.13 222.73 419.82 223.27 Z M 384.22 42.37 397.13 45.12 407.5 48.24 409.32 47.57 412.54 51.07 412.47 53.62 406.46 59.45 402.92 60.34 401.05 64.83 391.23 66.39 388.46 74.09 387.2 80.83 386.61 104.05 387.88 115.2 389.56 118.77 392.87 121.64 388.61 122.93 384.07 126.8 382.94 129.18 378.62 130.07 377.92 125.38 373.29 123.86 363.68 126.99 358.68 123.33 351.27 125.84 346.44 130.19 340.13 139.49 337.02 149.17 336.4 153.14 336.58 163.99 342.32 188.54 345.44 207.92 349.29 218.55 355.87 229.64 359.77 232.53 370.19 242.1 374.81 248.78 378.12 255.68 383.61 274.14 389.17 281.46 399.41 293.33 403.9 296.9 409.53 303.23 416.91 309.02 434.12 325.93 446.44 336.5 453.76 341.74 465.21 348.72 474.92 353.47 485.98 357.85 493.32 360.04 502.82 362.02 516.53 363.18 525.97 362.8 538.41 360.96 551.41 356.71 557.25 352.5 562.26 353.45 564.12 358.5 567.24 361.47 572.17 363.72 575.26 360.99 577.66 352.85 575.3 347.33 567.57 344.23 564.73 342.2 561.62 336.12 561.05 330.73 556.94 321.18 562.4 313.88 561.68 310.9 565.59 303.71 564.34 299.5 568.48 290.46 571.13 292.96 576.37 290.27 578.48 290.73 583.7 287.87 587.73 284.26 590.86 283.73 592.49 279.32 597.45 274.66 603.14 274.82 604.07 280.36 605.86 282.98 605.31 288.5 608.78 291.15 612.93 291.77 617.69 294.85 622.26 296.17 623.78 299.04 639.06 302.43 652.05 302.57 658.45 301.39 663.2 299.5 662.91 295.58 664.22 285.8 662.99 272.44 666.18 267.86 672.25 267.78 675.06 270.88 678.13 271.76 691.46 272.17 698 270.72 704.07 272.44 709.6 277.98 717.18 280.74 718.33 285.1 713.23 286.63 708.67 286.22 705.01 288.64 703.16 297.5 703.44 306.36 702.51 319.91 703.45 327.37 706.05 332.17 705.61 342.75 706.65 351.22 709 360.32 713.69 373.46 717.05 379.82 722.36 387.76 728.93 394.99 733.38 398.65 739.43 399.07 741.03 401.82 747.89 403.23 756.77 398.29 759.92 397.3 761.57 394.09 758.04 391.87 758.09 389.78 764.29 386.8 769.49 388.13 778.87 382.95 787.76 385.63 791.46 384.46 798.15 384.44 799 388.62 795.51 388.43 794.91 392.74 792.3 393.56 794.05 402.05 790.22 410.6 783.17 414.43 781.93 418.86 779.57 421.57 781.29 425.75 784.86 428.84 778.03 433.77 776.25 437.81 767.94 440.69 763.06 441.44 760.28 443.47 758.67 447.56 754.15 449.85 750.95 455.48 752.32 457.96 750.39 461.56 749.8 471.82 750.46 478.97 752.35 482.42 758.67 483.39 762.34 485.8 764.59 491.1 769.2 490.6 771.48 495.69 765.9 498.06 759.7 491.74 757.02 490.11 748.17 491.13 743.69 492.91 741.8 490.73 737.28 489.47 734.13 486.77 730.66 488.89 725.85 493.81 717.93 507.39 714.9 515.01 712.93 522.59 712.91 529.56 711.13 530.32 711.37 554.08 709.93 561.71 710.76 567.8 710.08 573.39 710.54 586.78 712.22 593.07 719.04 594.92 720.5 599.11 723.76 602.46 720.15 604.85 720.6 606.8 713.9 610.89 708.72 618.79 694.83 628.12 684.12 628.71 681.71 632.57 675.46 632.47 671.19 637.45 670.2 651.85 668.18 663.9 667.87 672.94 668.49 690.8 671.92 694.49 671.06 700.07 674.24 700.77 676.18 705.44 679.87 706.1 677.21 711.06 671.32 712.68 667.01 716.6 665.52 720.36 657.9 725.39 653.58 734.79 661.08 746.03 658.68 750 655.86 747.6 645.67 743.81 641.85 741.2 636.62 731.99 617.5 726.61 612.27 725.82 599 725.52 593.7 722.71 588.19 718.32 579.88 717.02 576.27 715.19 567.36 703.99 563.18 696.18 559.94 691.92 555.04 683.18 551.59 679.46 542.91 675.28 536.1 666.75 522.15 657.08 516.77 659.33 507.4 660.71 503.88 660.22 495.76 657.91 493.74 647.83 491.55 641.01 486.78 633.54 478.43 625.79 473.49 616.93 472.1 609.02 471.81 601.78 460.99 590.93 459.09 580.42 462.19 574.43 466.95 569.36 471.26 558.18 471.33 550.61 467.23 546.25 456.63 543.87 448.2 544.94 439.87 547.73 431.43 547.76 426.97 545.8 416.34 542.74 411.5 540.72 403.84 532.54 405.74 526.24 406.19 519.79 404.71 514.27 405.46 505.56 404.09 501.49 403.65 489.95 401.8 484.7 401.07 473.55 401.57 463.34 397.99 460.17 397.83 450.53 402.33 443.91 408.55 439.71 411.02 434.15 411.03 431.28 401.03 421.45 395.8 418.52 388.88 417.42 382.49 414.49 380.2 416.58 377.48 424.5 374.97 427.44 368.18 431.11 357.87 433.52 350.3 439.95 343.36 442.57 339.63 440 337.74 434.48 333.19 429.38 311.87 417.74 299.35 415.66 288.65 411.42 283.91 411.31 268.47 414.76 266.64 413.27 268.4 409.53 274.55 407.56 274.5 402.24 287.34 401.13 288.44 396.89 283.36 392.94 274.69 391.02 267.47 393.26 258.31 398.8 254.01 392.53 251.4 385.24 251.33 382.27 253.71 374.79 255.35 373.25 258.3 364.18 263.18 357.95 265.57 352.62 260.69 346.09 261.33 338.61 264.16 334.85 263.93 330.47 265.73 327.4 263.93 323.01 255.47 319.84 252.45 319.53 237.36 320.35 232.53 316.42 224.82 313.2 220.17 313.02 217.39 310.54 216.21 305.24 201.01 301.21 192.12 298.14 181.88 293.54 176.62 290.1 157.95 275.9 151.82 270.62 145.6 264.09 130.84 246.08 121.84 233.97 111.42 221.16 102.38 214.46 75.13 203.77 64.44 200.12 50.37 196.1 22.32 183.88 14.42 177.1 9.92 171.64 5.49 163.85 1 131.48 10 126.29 27.02 123.81 36.86 120.87 42.18 121.5 52.66 113.37 55.41 108.4 55.68 98.88 60.37 94.88 67.94 95.76 68.31 89.6 69.72 84.93 71.73 82.94 77.17 81.04 88.51 78.29 95.11 74.02 111.71 66.27 120.28 61.4 123.83 60.85 133.81 61.71 138.68 60.58 143.6 63.52 149 71.33 150.76 76.88 154.82 82.13 158.13 84.27 167.53 85.19 170.65 82.48 171.31 79.82 176.39 80.15 180.4 73.67 192.77 74.23 197.46 71.91 208.54 58.03 212.79 55.23 219.89 52.47 223.2 48.84 226.19 47.74 231.42 42.1 242.27 35.33 243.39 32.03 252.02 30.92 254.53 28.85 259.97 27.83 266.16 30.91 268.36 27.81 273.54 24.49 278.01 23.32 277.56 15.42 283.01 12.37 285.54 8.79 292.89 9.24 297.19 10.46 302.25 13.69 308.48 14.32 310.77 12.54 310.51 7.05 316.08 1.57 321.75 1 331.36 2.9 339.29 2.99 346.64 4.68 351.31 3.95 353.84 5.81 353.64 8.74 355.31 17.65 358.62 30.47 362.14 34.58 368.86 38.34 374.96 40.58 384.22 42.37 Z" fill-rule="evenodd"/>
</g>
</svg>