<?xml version="1.0"?>
<svg xmlns="http://www.w3.org/2000/svg" version="1.2" baseProfile="tiny" width="800" height="773" viewBox="0 0 800 773" stroke-linecap="round" stroke-linejoin="round">
<g id="4202081">
<path d="M 695.1 20.1 696.72 27.25 704.09 89.39 711.83 155.15 726.95 281.72 730.07 316.19 732.98 346.18 733.66 368.58 736.66 369.02 738.74 372.99 737.79 375.34 738.23 378.78 734.67 379.9 733.13 383.72 735.98 386.44 736.96 391.28 736.81 395.72 740.75 398.46 744.43 402.67 741.76 408.29 743.57 411.54 745.79 417.34 745.74 419.71 747.45 421.18 751.81 421.85 752.88 422.84 755.12 427.75 757.61 431.92 760.7 432.77 766.39 431.93 769.93 433 772.28 441.27 774.44 443.26 777.45 442.22 779.5 442.53 783.74 445.68 786.67 450.19 787.68 456.87 787.07 463.28 785.83 467.26 783.97 468.65 779.35 470.38 775.02 470.48 772.51 472.42 773.24 475.71 776.44 482.17 776.65 485.57 773.25 487.48 763.85 483.12 761.07 483.01 759.53 487.3 760.13 488.8 763.93 491.82 767.25 495.3 769.44 499.74 772.15 503.59 772.73 505.67 777.08 509.96 783.92 511.05 788.25 510.03 794.16 506.14 795.53 503.7 797.45 497.78 799 500.27 798.86 502.46 797.33 505.44 793.88 515.79 794.08 520.41 792.41 524.04 789.8 524.18 784.13 521.7 779.6 521.69 776.45 522.9 773.06 527.46 767.94 529.57 764.87 527.47 763.32 522.53 760.62 520.54 752.74 520.88 746.68 520.64 742.91 522.07 741.16 524.28 740.68 526.99 741.7 533.68 743.32 536.86 751.54 541.7 753.19 545.82 752.9 548.06 750.58 551.33 748.77 552 740.39 548.9 737.07 550.45 736.88 553.39 734.66 556.39 729.46 561.64 727.02 566.71 725.14 568.72 721.61 569.38 719.62 568.44 715.38 565.06 710.03 563.09 703.13 559.79 700.97 560.52 699.8 563.88 702.09 569.03 707.58 572.03 712.54 574.01 714.28 576.13 714.66 578.78 713.75 580.77 707.69 584.9 703.61 586.1 699.19 585.75 692.42 582.29 689.31 581.19 681.36 579.35 677.4 577.86 674 575.15 669.14 567.05 665.79 564.43 662.12 566.16 655.94 569.83 654.22 573.56 655 577.76 655.28 582.9 654.02 587.36 654.99 592.07 659.15 592.52 661.63 593.75 661.77 596.77 659.89 599.37 653.42 606.17 650.46 611.45 648.78 616.54 648.19 622.54 648.62 626.52 647.35 629.99 643.93 634.02 642.29 634.37 634.76 629.48 627.27 623.87 625.24 617.62 622.21 616.69 617.99 617.79 614.96 616.67 608.84 610.83 608.04 609.34 601.91 601.87 600.05 598.99 596.51 597.14 592.35 603.06 588.47 606.65 588.17 609.4 589.37 610.47 598.48 614.1 601.18 618.95 601.14 624.84 598.58 630.83 595.74 635.33 591.02 640.04 586.52 640.66 573.13 637.47 569.1 635.98 562.71 632.68 556.21 626.18 551.61 623.62 547.25 619.99 548.13 618.21 553.06 616.29 556.71 614.07 558.26 610.3 556.03 605.64 552.48 603.3 549.24 602.57 545.4 603.73 539.33 609.62 528.78 622.65 525.94 625.35 523.13 626.48 518.57 624.4 515.01 620.21 512.36 619.08 508.9 619.76 503.59 624.14 498.4 624.9 497.22 624.41 496.56 621.17 496.99 614.77 493.82 607.64 493.7 600.76 490.15 595.52 485.16 596.71 482.35 598.36 480.27 602.12 475.91 607.23 474.34 607.46 471.67 605.48 468.03 599.05 466.05 597.21 460.52 593.69 458.05 593.25 449.89 593.01 445.82 592.17 441.63 589.65 436.7 587.43 434.23 587.27 431.57 588.72 428.21 591.92 429.35 594.22 433.99 596.81 437.12 601.83 437.84 605.81 435.31 619.52 434.07 622.93 431.94 626.35 426.79 630.74 420.88 631.33 415.22 629.09 405.92 628.66 401.46 626.69 392.02 624.41 387.91 624.5 384.67 626.46 381.88 629.84 381.47 634.22 383.75 642 384.42 646.9 383.93 650.14 382.4 652.83 382.61 657.19 386 661.76 390.47 665.07 396 666.5 405.39 672.01 411.66 677.46 413.18 679.84 412.99 685.27 411.33 687.32 407.75 689.4 404.34 689.8 398.4 688.57 391.88 690.28 389.97 691.23 376.23 696.11 371.26 697.4 369.17 698.87 364.07 700.97 360.91 703.61 359.7 706.19 360.54 708.91 363.82 710.08 367.06 712.14 371.66 716.75 380.6 722.7 387.9 732.44 389.18 737.54 388.71 739.51 385.03 743.93 381.76 746.87 376.38 749.38 371.47 749.74 360.56 748.58 348.81 746.49 329.91 745.85 318.36 746.63 316.34 747.35 314.08 751.13 309.7 747.12 302.7 745.29 291.43 746.38 281.12 751.91 274.48 758.74 265.82 767.05 255.09 771.9 245.49 772 234.73 771.17 230.36 768.04 227.73 763.39 225.9 754.5 225.7 745.02 231.62 739.26 240.06 734.32 253.31 732.67 259.09 730.59 260.49 724.75 258.19 719.54 250.43 715.82 242.94 709.87 224.14 694.09 215.52 682.6 211.65 672.57 207.24 659.28 207.78 650.89 204.71 642.84 201.65 636.35 197.65 631.27 186.33 625.34 181.41 623 168.3 618.14 164.61 616.44 160.31 611.44 156.43 603.48 155 598.18 154.7 592.86 159.08 592.04 163.45 593.41 171.71 603.06 175.67 609.01 181.21 614.77 185.55 617.01 199.59 618.18 206.24 617.1 213.84 614.16 217.53 608.89 218.91 601.49 216.36 592.53 212.91 583.34 208.67 574.54 204.07 564.23 203.17 560.41 202.85 547.86 205.39 541.05 205.22 537.02 203.77 533.71 197.63 532.08 191.72 532.88 185.86 535.33 180.31 538.11 174.13 539.43 167.25 538.62 160.9 533.56 157.03 526.78 151.41 519.06 145.87 510.07 142.54 500.81 139.18 495.48 133.93 497.41 130.89 486.03 130.64 479.6 127.18 468.53 126.06 462.37 126.44 456.35 129.49 451.44 135.37 444.6 147.12 435.55 155.91 430.32 165.62 423.11 180.08 417.28 201.59 413.87 209.49 412.21 212.67 408.72 212.95 404.59 207.37 398.84 200.16 394.42 191.68 391.71 179.98 390.85 171.01 387.17 146.98 386.74 137.48 388.54 133.04 396.14 132.49 407.36 134.45 413.64 133.26 418.76 128.15 420.88 117.96 421.55 106.82 421.43 96.13 424.3 86.05 424.32 71.08 423.94 59.6 421.69 51.24 416.39 41.02 403.19 35.04 392.61 30.75 389.31 19.44 382.64 13.71 379.94 7.64 379.38 2.12 378.08 1 375.12 2.11 371.47 4.61 366.67 8.17 364.17 12.93 363.14 21.06 365.42 38.15 377.44 47.85 382.81 55.73 384.91 64.99 384.54 74.08 380.99 87.33 374.68 97.77 368.85 110.4 362.14 118.02 357.51 124.89 350.8 128.78 341.93 133.29 333.52 135.34 332.29 138.71 328.25 141.57 322.92 141.62 317.04 140.39 314.4 160.97 303.22 165.42 299.48 167.54 298.39 171.42 297.91 175.84 295.34 177.81 289.99 181.79 283.94 183.83 278.35 180.1 271.96 178.79 268.16 179.1 265.05 183.02 259.73 186.81 253.31 191.58 251.46 195.51 251.12 205.55 251.92 214.69 256.05 219.25 256.94 225.96 256.96 228.3 255.22 229.11 251.92 229.07 242.78 230.76 235.21 233.4 232.21 238.17 232.53 241.71 230.72 242.98 227.15 240.13 214.81 243.9 209.93 244.04 206.96 241.34 202.18 241.45 199.5 244.37 196.05 249.52 192.16 256.23 188.71 260.14 184.11 263.63 181.88 269.42 179.77 272.86 179.26 275.52 177.16 277.41 172.46 279.06 169.99 282.19 168.49 283.47 171.78 289.68 178.04 291.74 178.78 296.28 178.16 298.54 177.22 301.55 177.47 309.19 176.02 312.95 174.75 318.75 168.55 321.57 168.07 329.53 164.24 330.86 162.56 332.44 157.74 333.96 157.13 343.45 157.1 347.06 159.28 353.54 160.26 359.32 162.26 365.27 161.36 370.32 159.61 375.4 156.69 380.54 159.45 388.25 166.97 391.24 167.97 396.81 171.55 404.97 175.73 409.78 177.23 412.68 176.19 420.14 170.25 423.38 172.23 423.51 176.74 422.68 178.6 423.65 183.51 424.1 190.1 425.77 198.29 426.86 200.76 430.36 205.69 431.72 208.66 431.54 211.13 429.61 211.93 425.68 210.33 419.62 208.76 412.95 205.59 408.99 202.8 403.83 200.46 393.95 199.93 385.6 202.59 380.8 205.12 377.45 208.67 377.2 211.02 378.51 214.16 380.59 214.78 386.16 218.94 391.65 220.61 404.17 222.55 413.46 221.23 418.97 222.53 427.24 228.47 434.77 236.43 439.39 230.87 442.91 225.08 446.33 223.74 448.52 223.7 452.27 225.13 453.85 226.9 458.14 235.08 462.7 240.43 468.68 242.58 471.55 245.15 474.52 246.2 477.82 246.29 479.33 244.08 475.63 232.21 474.14 223.66 474.19 218.28 478.22 210.02 479.69 204.21 477.55 197.95 473.36 193.49 469.47 190.97 464.28 186.81 461.14 179.56 460.04 175.48 459.17 169.55 458.63 158.76 457.7 151.03 457.73 142.21 458.28 136.8 460.45 129.5 463.83 128.51 470.84 128.41 476.83 127.88 481.64 128.62 489.3 131.8 492.05 134.9 492.69 136.97 492.16 139.91 490.21 142.2 480.42 148.77 478.59 152.16 479.66 154.68 481.66 154.94 489.79 154.59 501.89 154.68 521.71 151.65 528.83 151.88 535.08 153.14 546.83 153.01 550.81 149.48 552.73 146.69 555.45 144.35 555.32 142.3 552.54 137.21 548.85 135.51 544.48 135.92 540.62 137.23 537.48 137.58 533.98 135.45 535.35 128.83 540.1 118.03 540.44 115.04 539.37 113.27 537.86 107.07 539.79 101.52 543.18 97.72 549.16 92.03 555.81 88.75 557.22 86.61 562.05 86.08 566.19 89.89 569.13 94.89 569.44 96.58 573.78 102.54 577.35 104.59 579.66 104.17 580.49 101.58 580.42 90.59 580.9 87.99 583.78 85.15 586.49 80.89 586.72 72.98 586.23 67.49 583.59 63.54 579.56 61.94 573.27 58.35 568.02 54.37 563.77 49.64 566.01 47.29 569.6 45.73 578.89 40.24 582.28 35.78 580.13 31.58 582.45 30.94 588.96 34.74 591.37 36.95 592.8 40.44 595.03 42.78 600.85 54.05 600.44 57.14 601.01 60.32 603.44 61.26 605.67 60.56 610.42 53.51 610.5 50.69 609.55 46.93 614.43 42.11 615.15 39.88 614.24 37.78 610.84 33.4 608.02 33.54 601.84 31.88 597.24 32.55 593.91 31.88 591.75 27.05 592.15 23.82 593.55 19.99 596.16 18.41 599.4 19.68 602.68 22.27 608.03 25.44 612.63 27.01 616.74 26.8 620.87 24.08 626.66 22.56 630.16 20.17 631.17 12.96 630.31 8.83 627.54 6.37 624.97 5.35 623.57 3.62 626.45 1.86 631.69 3.98 637.95 5.02 640.71 4.95 650.28 2.66 655.87 1 657.5 2.63 658.07 6.64 656.07 12.52 651.95 17.4 648.36 19.46 643.6 20.67 640.8 22.89 640.51 25.99 645.76 28.98 647.52 31.48 646.73 34.98 647.5 37.41 650.6 39.36 654.42 38.33 657.69 33.93 659.03 29.15 660.98 27.72 662.14 25.31 664.09 12.07 665.32 7.51 668.73 3.88 671.67 3.94 675.11 6.76 676.5 9.18 683.03 15.23 687.43 18.54 692.88 20.38 695.1 20.1 Z"/>
</g>
</svg>