<?xml version="1.0"?>
<svg xmlns="http://www.w3.org/2000/svg" version="1.2" baseProfile="tiny" width="800" height="2192" viewBox="0 0 800 2192" stroke-linecap="round" stroke-linejoin="round">
<g id="4202404">
<path d="M 697.39 673.24 699.1 673.91 702.94 677.23 704.01 678.73 707.66 681.63 709.71 686.68 711.24 688.68 714.77 690.39 716.48 693.9 719.1 696.99 722.08 697.98 717.65 697.99 715.24 696.6 707.33 696.9 705.66 698.1 701.35 697.79 699.08 695.85 696.85 695.02 691.78 695.49 689.66 692.82 687.38 691.72 680.95 692.51 671.9 692.27 664.83 691.3 661.34 689 656.32 687.9 654.06 688.78 652.73 690.42 649.11 692.5 644.83 700.31 641.7 702.38 637.74 703.47 620.35 710.96 617.56 712.95 618.7 715.71 621.84 719.66 623.29 722.52 625.65 723.6 629.19 726.3 634.57 732.36 635.66 737.45 637.36 740.89 636.63 744.79 633.68 746.83 632.57 748.54 630.84 754.05 628.2 758.47 624.18 762.01 622.9 767.38 633.29 772.33 634.34 776.75 633.43 779.44 633.79 781.12 637.18 784.16 639.22 788.04 638.72 789.96 635.46 796.3 635.2 798.17 639.2 808.9 639.96 811.98 635.07 814.66 635.24 819.85 637.77 822.02 639.02 825.12 641.17 827.61 641.27 831.12 643.16 833.58 645.51 834.61 648.15 836.96 654.63 839.41 657.31 841.02 659.66 843.58 661.66 846.98 661.2 848.56 658.62 851.15 657.09 856.26 656.61 859.4 654.71 864.17 654.4 867.47 651.89 869.37 645.4 869.68 643.25 870.38 641.89 874.23 641.54 880.93 642.95 886.75 642.76 891.52 643.69 893.67 647.12 894.67 652.97 897.91 654.36 899.1 655.84 902.91 662.27 905.24 664.53 906.82 670.75 907.1 671.93 908.4 674.43 914.9 675.82 916.96 676.48 921.51 678.57 926.1 677.02 929.31 677.09 931.98 681.04 936.6 681.47 939.25 680.65 941.09 680.67 944.15 682.01 947.51 686.75 953.21 685.94 956.45 682.36 959.29 678.72 960.36 675.33 966.46 674.78 970.03 673.69 972.45 671.74 974.12 670.44 977.12 671.5 982.2 670.22 985.9 667.67 989.43 667.08 991.94 667.05 998.67 667.91 1004.64 670.45 1011.99 668.31 1015.61 668.45 1016.97 671.28 1020.35 675.9 1023.98 678.44 1028.09 680.78 1034.4 680.3 1036.2 677.82 1037.89 672.78 1039.3 666.29 1041.93 665.92 1043.65 667.58 1047.21 674.14 1050.61 680.1 1055.86 680.04 1056.91 673.81 1059.76 672.79 1061.13 673.36 1066.27 672.9 1069.17 670.52 1075.17 668.82 1077.45 665.54 1079.06 662.43 1082.17 662.93 1087.26 662.83 1095.27 665.12 1100.03 664.91 1104.72 663.06 1108.21 662.18 1111.32 662.68 1115.42 663.53 1117.08 780.23 1212.81 784.15 1213.45 790.28 1212.64 791.66 1213.73 790.83 1215.49 792.5 1217.96 795.46 1218.64 794.63 1221.72 798.34 1228.06 797.74 1232.15 799 1234.08 798.22 1239.92 796.06 1241.72 790.64 1244.52 786.84 1248.13 780.95 1250.48 779.26 1251.89 778.45 1254.74 774.74 1259.76 774.1 1263.51 776.97 1266.02 777.74 1272.72 776.88 1275.28 772.5 1278.78 768.16 1287.45 764.56 1289.44 762.58 1292.28 760.29 1293.37 757.64 1292.94 754.62 1294.01 751.69 1298.41 747.69 1301.68 746.47 1304.18 743.65 1304.15 740.92 1301.84 735.81 1302.47 727.52 1302.75 724.84 1305.04 723.29 1309.82 723.43 1311.76 724.91 1313.53 724.56 1316.07 722.31 1319.05 720.88 1323.22 716.83 1338.62 716.92 1342.88 720.79 1342.38 723.3 1344.04 725.37 1347.83 731.19 1354.78 729.96 1358.9 728.7 1359.56 721.42 1359.75 719.89 1360.57 720.25 1365.06 716.32 1371.11 713.06 1369.73 710.41 1366.76 706.96 1365.9 702.28 1368.76 696.68 1371.46 694.83 1373.25 694.54 1376.81 692.64 1379.22 690.83 1379.66 688.86 1378.3 680.65 1374.46 679.36 1371.17 676.05 1370.14 669.73 1374.83 670.09 1377.93 669.16 1379.8 667.11 1380.28 663.54 1379.78 661.14 1384.2 659.76 1385.69 655.85 1386.49 648.99 1392.24 643.79 1395.69 640.78 1398.16 642.07 1401.92 638.02 1404.84 634.92 1408.92 632.86 1410.79 626.92 1412.72 622.88 1413.39 620.5 1414.65 619.4 1417.48 618.86 1425.99 616.22 1433.74 612.82 1437.56 607.74 1441.15 607.91 1443.36 609.49 1445.35 612.56 1447.15 615.36 1450.04 618.12 1456.07 620.13 1461.59 622.41 1463.24 628.79 1462.72 630.57 1463.52 636.79 1468.8 640.99 1475.6 644.23 1478.54 648.35 1480.34 649.97 1482.31 649.47 1488.41 650.36 1490.59 653.49 1494.19 656.78 1499.69 659.85 1506.53 662.01 1510.03 665.47 1512.32 670.04 1511.77 672.07 1515.27 672.2 1517.77 670.88 1523.56 674.12 1527.32 676.46 1534.2 676.01 1536.48 674.2 1538.41 672.67 1541.88 672.27 1547.5 671.38 1550.9 666.83 1552.44 665.04 1553.9 664.93 1556.54 671.9 1565.17 673.59 1570.29 673.28 1572.81 664.48 1580.89 658.64 1583.47 654.74 1586.8 652.7 1589.72 652.97 1592.09 651.21 1593.49 646.82 1594.34 642.67 1597.12 638.05 1598.63 637.11 1602.33 636.09 1603.47 632.24 1604.93 630.41 1607.15 625.42 1607.76 622.31 1607.34 617.22 1604.05 611.65 1603.77 612.81 1605.37 613.98 1612.19 615.94 1620.78 616 1623.36 614.07 1629.11 611.78 1633.4 608.12 1638.51 602.78 1643.53 604.74 1645.01 610 1646.91 610.81 1649.78 611.8 1656.62 612.25 1668.71 616.86 1674.72 620.32 1676.11 622.71 1677.8 622.82 1679.59 621.38 1681.49 615.14 1686.19 613.86 1688.36 607.58 1692.74 603.41 1693.64 599.34 1698.98 599.59 1703.75 601.23 1706.32 602.59 1711.02 603.76 1712.79 606.81 1715.48 607.42 1719.35 607.07 1721.26 610.01 1726.38 612.54 1732.25 612.72 1734.11 611.28 1739.07 612.1 1743.5 615.15 1745.51 617.64 1745.75 623.36 1747.62 623.61 1750.57 624.9 1755.47 625.13 1759.34 624.18 1763.33 621.82 1768.93 621.51 1770.76 622.08 1775.45 619.55 1778.01 614.71 1780.21 611.85 1785.51 604.28 1789.2 600.08 1790.07 592.91 1790.46 591.69 1792.18 589.16 1793.68 585.16 1797.2 589.08 1801.09 591.31 1806.6 591.03 1807.85 586.15 1812.7 585.04 1812.68 580.39 1810.51 576.78 1809.91 573.3 1811.95 572.62 1814.93 574.11 1817.23 577.44 1820.01 579.47 1825.66 579.3 1830.51 575.25 1836.25 575.25 1837.91 577.98 1840.5 582.91 1843.64 586.1 1848.63 586.37 1854.03 584.21 1858.67 579.75 1863.34 577.1 1864.77 579.26 1866.27 580.01 1868.34 583.22 1870.1 585.62 1877.56 588.44 1880.83 589.87 1881.69 595.06 1883.25 603.11 1888.54 604.96 1890.26 608.68 1891.65 610.78 1893.4 612.12 1896.38 614.88 1900.14 616.15 1903.56 615.41 1905.88 612.89 1908.27 611.79 1910.43 607.8 1913.92 599.49 1917.75 595.74 1920.86 593.45 1931.71 596.69 1936.48 597.52 1943.66 594.54 1947.52 594.95 1948.83 599.54 1951.79 600.98 1954.4 600.17 1955.96 599.94 1960.04 600.55 1966.37 600.24 1978.25 601.53 1979.92 601.23 1985.08 599.6 1986.82 596.92 1988 593 1991.79 590.45 1995.23 595.83 2000.47 595.37 2005.29 595.78 2008.57 597.09 2010.7 600.12 2012.68 601.74 2011.98 606.72 2012.43 608.25 2014.76 606.2 2018.23 605.82 2020.64 607.96 2030.51 607.44 2037.8 605.93 2039.92 606.14 2043.62 603.87 2046.39 603.2 2049.39 599.55 2051.3 596.44 2049.01 595.42 2052.55 593.93 2053.66 589.2 2053.68 586.32 2057.61 582.88 2058.66 578.45 2059.15 575.15 2060.63 572.21 2060.8 569.57 2061.73 566.68 2064.82 565.42 2068.02 563.09 2069.87 565.67 2074.64 564.97 2077.78 563.03 2079.16 564.01 2082.05 566.44 2084.39 570.92 2090.31 570.27 2092.43 570.35 2095.75 566.71 2096.79 562.47 2098.82 555.62 2103.18 549.84 2109.17 541.69 2113.19 539.5 2117.92 536.31 2123.62 531.74 2125.78 529.1 2131.63 526.8 2134.07 524.18 2135.66 519.75 2139.58 516.98 2143.13 514.02 2143.15 508.26 2142.42 504.87 2142.65 500.58 2145.72 493.96 2146.47 488.15 2148.2 483.59 2146.56 480.99 2144.24 475.63 2141.19 467.79 2137.76 464.31 2134.41 461.9 2129.11 458.59 2126.46 456.32 2126.25 453.88 2122.16 452.52 2121.07 449.18 2120.19 445.54 2121.18 438.6 2124.91 434.64 2123.77 432.14 2124.36 430.01 2122.94 424.84 2121.45 422.47 2121.75 417.31 2117.43 415.44 2117.14 411.19 2121.21 409.92 2124.02 409.48 2129.09 403.31 2137.18 401.17 2139.3 395.2 2139.3 388.64 2140.14 386.46 2141.39 384.3 2145.64 379.2 2147.49 375.82 2147.31 373.75 2146.02 369.7 2148.38 366.98 2151.33 360.81 2154.06 355.18 2157.05 351.05 2156.9 347.7 2154.58 343.25 2153.62 339.13 2151.86 334.02 2151.97 326.21 2154.13 320.32 2153.2 318.48 2149.34 314.74 2148 307.58 2146.84 305.1 2149.57 304.54 2151.43 301.33 2152.63 295.92 2155.55 296.18 2162.15 294.3 2164.7 288.65 2167.02 283.91 2171.2 284.46 2175.21 286.1 2180.22 284.69 2183.81 278.86 2184.98 273.99 2186.51 270.93 2190.12 266.3 2191 258.8 2187.1 254.1 2179.14 254.64 2176.19 253.29 2173.78 251.5 2172.65 247.92 2168.86 245.11 2168.4 241.45 2168.78 238.23 2170.53 225.43 2168.03 224.24 2166.87 226.68 2161.47 225.95 2159.3 226.38 2155.12 224.96 2149.34 222.78 2147.23 215.34 2145.99 209.27 2146.18 205.61 2144.54 205.97 2140.49 203.09 2138.13 198.12 2136.57 200.15 2135.78 204.63 2136.86 209.09 2132.07 209.25 2130.66 207.33 2127.4 204.37 2124.39 203.39 2122.54 201.41 2105.48 199.8 2102.6 195.29 2101.46 193.46 2099.52 194.36 2095.13 196.22 2093.13 197.29 2090.23 198.7 2081.87 197.49 2079.01 194.81 2076.47 189.99 2073.78 187.1 2072.84 186.39 2071.54 187.17 2069.31 189.4 2067.51 194.91 2066.42 199.16 2064.23 199.69 2062.71 198.34 2059.63 198.08 2057.34 196.15 2054.95 196.61 2046.45 194.8 2043.89 197.94 2042.47 206.56 2042.39 210.09 2038.47 210.54 2036.42 210.1 2029.79 210.9 2027.83 219.41 2022.24 223.16 2016.89 225.04 2015.91 226.65 2016.56 228.68 2019.5 232.3 2020.81 233.86 2023.25 235.73 2023.31 238.58 2025.13 239.26 2026.42 242.93 2028.62 245.98 2028.11 249.76 2028.75 251.66 2028.07 253.22 2026.15 253.68 2020.82 254.62 2019.68 252.59 2017.93 251.99 2016.23 253.23 2011.61 255.36 2007.35 258.13 2004.13 261.25 2001.72 261.55 2000.29 259.48 1997.01 260.97 1993.81 261.67 1988.81 265.01 1985.45 267.4 1979.05 267.28 1973.67 268.91 1972.35 272.35 1971.49 272.27 1965.91 270.09 1961.88 272.25 1955.4 272.2 1952.57 273.86 1948.59 272.51 1943.1 275.14 1938.82 278.22 1931.86 281.13 1927.85 285.82 1924.87 291.12 1924.45 296.79 1920.34 295.61 1918.03 295.33 1911.88 293.95 1909.18 290.36 1905.76 289.37 1902.22 289.3 1897.89 291.19 1895.14 290.58 1890.22 292.42 1887.15 297.58 1882.34 299.89 1879.65 300.62 1876.84 300.43 1873.86 299.43 1870.03 296.48 1864.91 294.44 1863.44 294.36 1856.95 292.96 1853.63 288.75 1849.95 287.03 1847.19 285.97 1841.72 283.39 1836.32 281.12 1835.22 277.01 1831.86 275.55 1829.35 275.66 1826.94 277.25 1824.5 282.11 1820.65 284.23 1818.18 287.69 1815.8 290.22 1812.56 289.64 1809.49 282.51 1802.76 279.68 1802.42 288.21 1797.03 291.2 1794.14 297.18 1792.56 298.85 1790.94 300.48 1786.05 302.17 1784.2 302.84 1781.69 304.81 1780.33 306.85 1774.82 310.47 1770.46 310.92 1767.83 307.62 1763.9 306 1761.16 301.21 1760.99 299.1 1757.81 293.72 1755.68 292.16 1754.43 291.45 1750.36 291.17 1744.99 291.89 1739.48 286.45 1735.04 283.79 1733.85 282.46 1732.17 282.08 1729.11 284.79 1723.6 285.68 1717.54 287.83 1714.54 290.71 1713.08 286.76 1712.14 281.26 1708.54 279.47 1706.28 279.84 1703.57 277.86 1700.82 274.44 1694.08 269.09 1690.96 254.47 1690.91 252.11 1690.5 249.63 1689.1 244.08 1688.48 240.26 1687.43 237.13 1683.42 232.66 1684.28 225.82 1683.41 222.18 1682.56 220.14 1680.86 215.27 1678.86 213.9 1675.71 215.53 1671.7 215.42 1665.86 214.49 1661.03 209.1 1657.36 208.36 1655.94 205.93 1654.83 199.61 1654.07 195.18 1652.71 189.65 1652.95 188.61 1652.39 186.13 1647.3 183.67 1643.73 184.12 1640.57 182.44 1637.43 179.17 1634.1 171.76 1628.19 170.37 1624.29 171.97 1619.72 171.8 1616.28 169.03 1609.9 165 1602.4 163.95 1597.36 163.37 1591.95 166.24 1587 169.38 1580.79 169.46 1578.58 168.5 1575.92 166.41 1572.9 162.68 1569.24 162.55 1566.31 165.52 1560.84 168.6 1557.37 168.93 1555.84 167.76 1550.06 165.71 1544.76 165.82 1541.52 166.78 1538.1 170.63 1534.31 174.43 1528.13 177.45 1519.36 180.61 1514.85 182.77 1505.85 182.9 1504 180.93 1501.17 179.3 1493.85 177.7 1489.88 175.26 1487.41 173.95 1482.97 174.51 1479.97 173.83 1467.43 173.25 1465.19 174.25 1461.73 172.69 1460.76 166.48 1458.57 163.96 1454.81 161.44 1453.42 155.64 1448.49 157.12 1444.65 159.54 1443 164.62 1441.79 171.01 1438.27 174.91 1433.27 172.57 1428.47 168.58 1423.93 164.71 1417.21 163.43 1413.79 163.62 1411.87 166.47 1406.26 167.18 1402.93 166.13 1399.21 160.56 1397.85 158.96 1396.85 154.77 1395.99 153.17 1390.52 152.2 1385.66 152.91 1381.49 154.18 1379.17 158.03 1376.27 158.93 1374.3 159.49 1370.48 160.71 1368.58 164.46 1364.67 169.32 1361.06 178.34 1357.7 177.73 1356.07 173.88 1355.6 162.34 1355.93 155.81 1352.75 153.67 1350.35 148.1 1346.47 143.53 1343.97 137.73 1341.94 137.05 1340.27 136.25 1333.84 135.22 1331.32 134.94 1328.17 131.03 1324.49 130.1 1319.53 130.91 1312.53 128.9 1309.45 123.95 1307.01 120.51 1304.37 117.77 1299.26 116.95 1294.18 114.41 1291.56 110.35 1290.36 105.08 1284.97 104.4 1275.92 105.57 1270.05 107.54 1267.24 113.89 1266.01 115.36 1264.61 115.74 1261.59 113.08 1256.87 114.68 1244.4 118.19 1235.48 118.54 1230.57 120.3 1227.92 123.13 1227.92 126.26 1231.15 129.18 1230.61 132.78 1230.95 135.33 1230.34 139.83 1230.22 146.92 1229.47 153.28 1230.65 156.08 1229.26 156.89 1222.44 160.81 1217.22 160.46 1214.61 158.2 1211.87 153.11 1206.85 151.63 1204.58 151.38 1202.36 152.45 1196.4 152.23 1189.46 154.18 1188.05 166 1187.26 173.39 1188.25 183.42 1190.66 191.85 1189.64 206.62 1191.68 208.94 1189.25 206.85 1186.8 200.57 1181.04 196.69 1176.41 193.63 1171.96 187.19 1164.21 182.35 1157.87 174.86 1149.92 163.56 1144.14 159.02 1142.43 152.16 1140.39 135.07 1134.49 128.95 1131.51 119.59 1127.68 111.12 1123.47 102.81 1120.32 99.01 1119.16 94.97 1116.59 91.53 1115.14 87.38 1114.93 84.68 1115.5 81.22 1117.75 75.95 1124.15 69.41 1125.5 67.36 1123.3 66.34 1119.87 66.96 1117.58 66.37 1115.67 63.57 1112.6 63.25 1110.27 64.92 1108.62 66.78 1108.54 70.25 1111.4 72.67 1109.97 76.8 1106.4 77.12 1105.08 83.5 1100.16 87.47 1098.73 87.99 1100.97 89.92 1101.91 93.45 1100.61 97.76 1098.28 100.45 1097.5 102.8 1095.07 104.31 1091.5 105.9 1090.06 110.87 1087.49 114.46 1084.73 115.7 1081.01 110.83 1078.85 104.19 1074.71 103.92 1070.25 101.61 1067.67 96.53 1064.52 93.75 1061.67 89.61 1060.76 84.57 1057.45 79.57 1053.04 77.49 1050.35 72.85 1047.96 69.35 1047.54 62.54 1045.06 60.52 1043.53 55.9 1038.63 50.25 1035.1 45.06 1030.22 40.04 1028.01 37.45 1026.31 34.37 1022.94 29.97 1021.29 27.89 1015.18 26.43 1012.24 23.04 1008.57 23.11 1006.74 25.33 1002.6 26.23 998.85 26.16 994.84 28.75 990.18 30.69 987.56 33.8 985.57 29.84 984.23 23.88 979.77 22.32 978.03 14.92 973.8 13.04 971.33 12.36 967.71 13.18 963.39 13 960.75 11.52 959.83 5.08 957.34 2.91 953.77 2.16 950.1 1 947.56 1.75 938.91 2.62 935.47 3.89 935.93 8.33 940.96 12.19 942.59 15.09 942.14 12.97 945.83 13.59 950.03 13.1 951.63 10.4 951.77 11.07 954.58 12.42 955.22 18.34 955.52 20.18 954.52 23.06 955.63 29.35 954.13 38.72 958.05 44.9 960.11 48.06 958.78 51.89 958 53.54 956.71 54.8 954.24 57.65 953.18 60.75 949.44 61.83 949.28 64.48 945.52 65.91 944.5 70.31 943.1 71.68 941.84 70.86 939.11 72.03 937.03 71.96 935.13 73.39 934.11 75.89 934.46 78.49 935.87 79.74 938.15 84.02 938.67 85.75 936.97 90.97 937.18 92.77 938.02 98.36 938.97 101.98 935.45 106.26 935.85 109.54 937.19 110.15 935.07 113.36 934.07 120.27 934.69 124.69 933.08 125.17 934.95 127.51 935.96 128.73 935.16 132.39 935.51 135.37 937.35 137.53 936.34 141.84 937.18 142.83 939.59 142.38 941.85 144 942.31 147.01 940.26 147.52 938.07 152.35 938.52 154.19 940.89 156.83 942.38 160.19 945.21 159.04 948.74 160.55 949.16 311.5 926.46 311.04 918.28 312.03 912.4 313.14 908.96 317.3 900.21 318.59 891.51 320.08 886.82 319.98 885.48 317.45 880.85 316.75 876.95 320.14 874.66 327.05 873.05 327.84 870.4 324.55 867.57 320 860.84 319.49 853.37 316.44 849.96 312.39 847.37 312.57 845.64 314.2 843.54 312.35 838.27 309.62 834.75 309.14 832.61 309.9 827.66 310.24 822.26 310.93 820.31 315.16 815.27 320.59 810.56 324.43 805.76 330.22 801.62 332.01 799.73 334.96 793.69 338.91 787.75 339.73 785.22 338.88 780.77 335.37 773.92 337.71 771.87 339.24 768.72 342.64 765.45 343.57 761.75 343.47 752.78 339.29 743.58 339.02 739.19 342.24 737.55 342.89 736.47 343.08 730 346.65 726.1 346.34 722.7 344.4 718.97 339.25 711.99 336.61 712.69 334.19 712.27 331.58 710.08 329.31 703.21 327.05 700.72 325.18 694.94 325.53 689.61 321.9 684.1 320.76 680.91 319.52 670.87 321.6 662.98 325.56 657.09 326.49 653.24 326.25 646.64 325.59 638.18 326.42 632.06 328.67 629.53 329.19 625.91 327.41 623.8 322.19 621.35 319.26 621 313.87 616.46 313.58 614.54 316.31 611.99 315.37 608.81 315.52 605.77 316.68 602.34 317.96 600.63 318.55 596.72 315.55 594.62 312.69 594.57 311.87 592.8 312.39 590.46 314.73 586.37 316.12 584.88 319.23 583.36 323.27 583.57 322.33 579.1 322.34 574.24 322.9 571.69 326.32 570.16 331.4 570.42 335.61 571.08 338 573.22 339.52 572.75 344.84 566.64 350.04 562.16 352.94 558.37 359.15 555.33 366.02 553.38 371.2 555.03 375.18 555.13 378.31 551.72 381.36 551.35 385.16 552.33 391.27 547.64 397.36 544.12 400.73 541.76 403.5 540.53 402.63 538.27 399.69 535.39 400.43 531.64 399.51 531.14 393.6 533.49 391.61 535.56 389.17 536.34 385.38 535.53 380.66 535.63 379.79 535.13 378.54 530.16 376.38 526.36 376.18 521.56 375.6 518.77 372.34 516.87 370.51 514.99 369.95 511.83 376.57 506.06 379.89 501.7 380.64 498.39 380.45 494.13 378.04 490.96 377.23 487.82 378.9 485.64 379.16 483.8 376.35 473.69 379.75 472.45 382.34 467.43 382.53 464.99 381.85 460.26 378.46 452.04 372.23 442.33 370.32 441.39 367.51 442.03 363.47 446.97 361.08 452.35 352.94 462.14 350.08 464.91 348.1 465.19 345.22 461.03 342.31 455.72 342.32 453.46 343.45 450.04 345.11 447.56 345.01 444.53 342.74 440.25 344.7 437.66 343.59 430.71 341.16 427.4 339.29 423.59 333.3 421.62 331.51 422.34 328.12 422.27 329.24 419.24 329.6 415.67 333.05 412.79 333.23 409.69 331.5 405.19 329.81 402.64 327.9 402.12 323.17 404.1 320.73 405.67 315.89 403.92 309.1 404.71 305.68 408.11 303.31 409.05 298.21 408.83 295.04 406 290.65 405.08 290.22 400.7 292.44 392.69 292.89 384.69 292.53 381.1 293.08 379.24 295.83 376.25 296.02 374.62 294.25 369.54 294.7 368.29 297.79 366.98 297.68 365.33 293.89 363.98 291.42 361.43 291.64 356.7 291.2 351.19 288.93 346.12 289.03 343.27 292.5 338.73 299.69 335.67 298.7 331.96 301.39 328.42 304.78 326.66 317.04 322.6 320.08 322.57 324.56 319.51 326.75 319.58 330.91 322.23 332.18 321.72 330.27 318.26 329.22 314.38 327.29 311.91 328.97 311.04 330.6 312.23 332.46 311.98 333.71 310.34 334.1 306.64 333.43 303.53 329.85 299.7 329.66 292.83 327.59 290.27 317.35 285.74 314.6 286.51 312.26 283.08 311.67 280.24 312.01 277.65 313.71 272.89 314.13 269.18 310.71 264.33 307.93 262.72 305.4 259.34 305.84 255.1 307.7 250.95 308.54 247.15 308.43 244.04 307.16 238.33 307.71 235.16 306.75 232.19 301.55 228.02 298.83 222.74 297.58 216.99 298.07 210.02 296.34 207.31 296.74 205.22 298.54 202.21 300.93 195.8 301.17 191.68 300.73 189.92 295.63 184.68 291.1 181.23 290.34 177.54 290.64 170.96 289 168.61 287.65 165.18 288.44 162.67 294.07 158.31 297.25 154.35 298.85 150.54 299.73 146.87 301.3 145.87 304.91 145.28 313.16 143.15 315.47 138.67 314.86 136.72 312.79 134.33 311.71 131.43 312.73 125.48 313.64 122.81 313.42 116.3 310.93 110.64 308.12 106.78 305.18 103.56 304.96 101.97 306.37 98.24 301.85 95.63 298.38 93.01 297.46 91.16 296.73 87.24 297.54 77.46 295.89 74.82 293.68 73.35 292.69 68.87 293.8 64.67 297.02 61.17 299.27 58.02 300.21 54.82 302.02 52.61 302.3 49.5 301.02 44.61 300.82 38.92 305.17 35.38 307.32 34.86 312.14 34.74 319.26 36.13 323.52 35.88 330.44 34.64 331.93 33.36 332.87 26.68 334.3 23.16 335.86 21.56 339.44 19.43 341.95 15.53 343.08 14.68 348.73 14.35 351.29 13.76 352.87 12.39 356.17 7.56 358.2 5.82 368.76 1 369.14 2.32 368.85 15 372.17 20.52 373.86 24.94 374.71 31.91 373.54 39.31 371.87 44.1 368.32 47.53 368.24 50.99 371.06 55.43 373.17 56.82 377.34 60.97 381.66 70.3 385.56 75.52 382.47 87.09 383.49 92.31 383.35 95.35 381.98 98.96 379.96 100.41 375.15 101.19 371.9 103.19 370.98 106 372.63 109.79 370.86 114.89 368.12 118.87 369.67 120.93 369.8 124.24 373.07 125.61 374.27 128.25 378.46 129.43 381.39 131.68 384.98 132.61 379.68 134.95 376.8 138.98 376.31 141.48 377.24 145.02 376.59 146.08 375.73 152.9 373.95 155.47 372.6 159.1 373.09 160.44 372.57 166.64 371.1 167.83 371.94 176.07 373.59 177.89 378.46 178.39 381.75 177.7 385.21 174.81 388.22 173.4 394.45 167.99 396.54 167.9 399.81 168.91 398.77 171.61 398.94 178.84 400.22 181.91 397.71 185.05 397.95 187.3 396.82 193.34 401.54 194.31 403.43 192.03 408.2 192.02 411.11 192.5 413.89 193.93 414.53 197.07 415.99 198.37 420.81 197.2 425.56 191.64 428.73 186.93 429.72 183.59 433.5 181.9 437.07 181.69 439.21 182.41 447.49 189.32 452.56 188.11 458.6 188.38 462.75 189.89 464.86 187.39 468.8 186.57 470.51 183.94 473.29 182.83 475.13 179.39 476.8 178.7 482.35 178.9 482.97 177.99 486.08 178.22 490.13 177.69 491.98 176.4 495.64 177.3 498.06 176.49 500.79 176.65 509.34 174.62 511.7 175.28 513.08 171.5 514.95 171.29 516.7 173.46 520.57 175.39 524.02 175.84 530.22 175.51 532.63 174.65 540.42 173.57 541.86 172.79 542.53 167.89 541.3 165.15 537.72 164.46 537.53 160.71 538.78 157.05 538.14 154.1 540.18 152.3 543.31 152.44 545.42 150.37 548.08 150.38 549.66 149.4 555.9 148.07 556.28 150.4 554.85 151.41 555.98 154.2 555.69 157.48 557.74 158.11 557.28 159.79 560.65 161.84 558.75 163.35 558.31 168.99 561.67 172 564.88 172.65 567.76 171.44 568.4 172.6 573.16 175.62 578.69 175.29 582.05 172.61 587.21 171.44 590.25 171.77 592.55 171.29 594.73 175.49 599.03 171.96 601.09 172.94 602.32 176.02 604.66 177.99 604.86 179.89 608.31 182.97 609.47 185.07 612.64 185.75 615.97 181.25 619.37 180.75 621.37 174.82 621.04 170.9 623.86 168.02 628.03 169.19 631.02 169.01 634.16 168.03 635.15 165.19 640.15 162.78 642.31 159.29 646 159.56 649.61 159 652.64 157.72 654.32 158.1 655.34 163.79 652.72 162.36 651.01 163.3 650.73 165.82 652.24 166.33 654.62 165.17 656.14 166.64 658.19 166.2 659.11 167.75 661.3 168.63 663.1 170.91 664.96 171.98 667.01 174.91 668.34 178.63 666.6 180.1 666.86 181.65 671.61 181.78 673.39 183.49 673.74 185.32 681.98 190.47 686.25 190.33 686.47 191.81 692.02 192.97 693.81 196.3 695.21 197.63 692.55 204.05 690.09 205.03 689.93 207.12 692.51 206.88 693.34 204.52 696.7 203.12 697.59 205.5 700.64 207.1 702.51 206.94 702.94 204.53 706.12 203.98 709.61 207.13 715.15 205.44 773.36 302.71 768.49 302.35 766.39 305.62 766.38 308.93 764.64 309.16 762.2 306.48 759.62 305.68 750.29 304.76 744.02 305.5 739.53 308.16 737.01 313.4 734.72 315.72 733.78 320.76 732.54 323.61 728.33 327.22 721.16 330.77 718.24 333.03 716.39 337.46 713.62 339.91 712.71 341.84 712.67 346.87 711.73 351.02 705.17 357.26 703.64 358.03 702.49 362.48 699.85 365.9 698.2 366.45 694.43 365.81 690.05 366.52 687.73 368.14 684.41 371.93 681.45 373.11 674.49 374.73 669.53 377.21 665.01 381.85 663.95 384.4 660.27 386.1 655.26 387.51 653.15 388.95 652.62 392.85 650.06 395.81 648.24 396.51 644.62 402.26 642.76 406.57 641.74 411.61 643.01 413.82 647.25 415.7 649.24 417.89 649.08 419.77 646.78 422.92 641.9 426.65 641.53 429.12 644.91 433.85 644.98 437.31 646.72 440.13 645.17 447.56 646.18 449.39 654.42 451.92 657.88 458.24 659.03 464.49 658.71 466.53 659.4 469.9 661.09 471.96 667.62 475.27 672.96 480.22 678.31 484.4 681.04 487.75 679.81 495.11 681.99 501.61 681.13 503.81 680.08 509.51 680.2 515.82 671.59 519.22 669.09 521.53 663.11 525.37 662.35 528.6 657.49 531.94 654.5 532.92 646.08 536.4 643.38 539.27 641.73 542.02 639.11 544.95 639.08 548.1 644.14 559.84 645.78 564.5 648.27 566.02 651.03 565.81 652.2 567.09 650.28 573.39 650.06 577.01 651.58 578.98 653.41 584.76 655.73 588.12 659.57 591.32 666.42 599.01 665.24 602.35 664.57 606.34 664.87 609.66 666.8 610.88 669.31 615.53 669.12 621.03 668.57 623.54 671.16 624.91 670.41 630.11 671.44 643.64 672.43 645.63 675.45 647.55 681.37 649.36 684.19 652.76 685.5 657 688.34 661.23 689.74 665.43 694.43 672.06 697.39 673.24 Z"/>
</g>
</svg>