<?xml version="1.0"?>
<svg xmlns="http://www.w3.org/2000/svg" version="1.2" baseProfile="tiny" width="800" height="1004" viewBox="0 0 800 1004" stroke-linecap="round" stroke-linejoin="round">
<g id="4202057">
<path d="M 796.61 827.56 793.17 826.43 795.7 820.4 799 821.53 796.61 827.56 Z M 680.28 737.44 678.6 740.07 676.69 738.69 672.16 738.18 672.49 734.38 676.04 732.72 678.42 733.01 680.28 737.44 Z M 702.09 577.86 702.57 579.5 700.49 581.57 693.94 581.07 689.23 578.63 686.36 576.34 689.39 574.06 690.76 567.98 694.11 568.06 694.03 573.2 696.02 575.28 702.09 577.86 Z M 783.44 536.23 781.92 537.37 778.09 537.51 769.62 540.86 766.5 538.57 762.91 537.14 758.2 536.35 753.48 537.85 747.89 535.49 749.58 529.91 753.73 527.34 757.09 526.13 767.56 523.85 772.58 531 776.01 533.93 782.33 535.08 783.44 536.23 Z M 708.25 523.6 709.58 528.64 713.47 529.1 712.44 534.51 705.67 542.01 703.93 542.74 697.38 543.1 689.3 540.17 686.02 537.32 680.19 534.94 679.07 531.91 680.3 526.51 682.04 525.23 687.47 524.96 690.44 523.5 692.29 519.47 696.38 515.07 696.9 510.77 699.88 504.17 704.48 504.09 705.2 507.11 705.39 514.35 706.21 519.75 708.25 523.6 Z M 620.65 492 624.46 496.8 620.81 499.16 618.48 504.05 610.75 513.87 607.68 516.73 599.84 527.45 595.41 531.67 593.53 534.29 585.45 542.06 572.33 553.78 558.9 567.87 552.97 575.13 544.64 586.2 540.61 592.11 536.41 596.92 526.4 611.89 515.49 629.03 511.47 636.72 507.21 642.09 501.71 651.9 494.8 662.03 491.5 668.36 485.55 678.12 484.23 679.53 473.02 698.7 464.81 710.92 463.15 715.14 457.74 722.49 456.17 727.71 445.7 742.56 442.94 749.4 437.39 757.63 434.24 764.12 429.9 771.44 424.84 781.57 419.64 789.95 416.89 796.11 412.26 803.74 407.45 813.97 403.3 820.63 397.24 833.26 395.54 835.39 392.96 842.43 388.94 850.69 383.21 860.81 377.74 873.1 374.9 877.59 371.69 885.03 368.24 891.76 367.25 894.86 364.59 899.11 357.63 915.03 354.29 920.59 351.55 927.34 349.18 931.22 345.36 939.56 340.25 952.29 336.57 959.73 332.73 968.95 331.03 971.79 317.09 1003 286.45 938.82 251.3 865.07 148.95 653.44 42.87 460.35 41.47 457.84 1 377.86 7.69 375.6 16.65 375.7 18.25 374.66 19.67 369.19 23.53 366.93 26.64 362.88 32.2 361.75 36.16 356.19 40.88 353.46 42.95 351.48 56.34 350.26 61.14 347.05 67.08 345.36 74.34 346.11 77.31 345.07 78.16 339.61 79.95 337.91 85.65 336.5 90.13 334.57 100.36 332.78 106.87 332.4 110.21 331.13 114.27 330.99 116.67 329.2 120.96 329.24 123.65 328.16 126.05 328.63 129.63 324.44 132.46 324.39 134.58 329.1 139.11 328.54 145 325.28 148.53 325 151.97 318.97 157.96 315.77 158.6 314.28 169.74 305.97 175.38 301.37 181.43 294.68 187.54 291.17 187.44 288.11 190.08 285.12 193.59 284.56 207.19 283.52 216.1 283.28 201.56 134.49 193.78 125.93 183.16 118.83 165.91 109.86 159.56 106.07 145.84 96.88 140.72 92.93 132.55 84.58 126.03 75.44 122.71 69.63 115.03 51.86 202.78 46.98 217.09 43.28 227.9 37.61 231.75 35.2 236.21 31.41 239.99 26.55 253.99 1 263.33 7.72 293.87 26 315.72 35.13 327.76 36.47 357.08 35.23 391.32 43.39 401.48 50.13 412.36 59.24 427.72 78.81 433.81 90.25 437.24 106.23 443.71 126.51 458.6 159.66 461.79 164.09 473.84 185.25 485.84 204.14 489.16 218.18 490.95 231.33 491.25 246.32 488.49 259.09 485.55 267.32 464.7 327.3 451.29 366.07 448.13 384.31 448.43 398.85 451.81 416.06 459.16 429.58 465.63 437.84 470.07 444.39 498.92 471.64 528.33 496.05 540.49 503.22 546.76 506.09 554.12 507.66 563.57 507.71 581.5 504.81 588.98 501.18 593.08 500.51 601.02 502.88 608.43 501.45 621.56 494.99 620.65 492 Z" fill-rule="evenodd"/>
</g>
</svg>