<?xml version="1.0"?>
<svg xmlns="http://www.w3.org/2000/svg" version="1.2" baseProfile="tiny" width="800" height="1751" viewBox="0 0 800 1751" stroke-linecap="round" stroke-linejoin="round">
<g id="4202131">
<path d="M 772.47 489.92 766.49 490.98 761.36 490.92 758.35 491.31 752.56 490.28 746.65 492.04 741.04 490.18 739.35 490.6 736.61 496.01 735.7 501.67 728.83 510.47 728.45 512.93 729.93 518.43 733.06 526.03 734.92 527.88 735.97 530.84 735.28 533.28 731.18 541.81 727.1 544.79 725.46 548.56 725.75 552.47 726.79 558.44 728.28 562.12 731.93 566.03 732.83 567.75 732.47 569.92 728.16 576.65 726.31 578.48 723.81 578.94 713.97 579.18 703.6 580.45 702.42 581.12 698.06 589.66 697.49 594.15 696.58 597.32 693.33 604.69 691.96 606.23 687.41 609.03 686.1 612.36 687.26 616.25 686.39 620.11 684.8 622.07 677.73 629.07 675.17 632.08 674.13 638.76 674.76 640.67 677.61 645.33 679.05 648.46 679.15 650.99 678.12 656.14 678.86 659.07 684.51 667.23 686.05 670.04 687.05 674.64 688.64 678.02 693.22 684.57 694.89 689.25 696.58 692.52 699.95 695.4 701.77 697.82 704.25 702.79 707.65 706.32 708.77 709.05 708.75 711.44 707.48 716.86 707.86 722.32 706.98 726.92 703.94 730.45 698.01 734.18 694.75 736.76 694.02 739.8 695.5 742.9 698.69 747.47 699.68 751.51 699.6 756.81 699.02 761.11 700.2 764.6 700.05 767.83 698.71 770.74 695.43 774.72 690.05 777.91 684.26 783.37 680.43 788.29 678.99 792.29 675.83 807.57 674.19 809.88 670.81 811.74 665.17 812.96 663.08 814.05 659.39 817.73 655.61 824.3 650.47 826.48 639.97 831.79 636.98 834.26 633.93 839.71 630.61 844.59 628.78 852.34 627.69 863.48 627.13 872.03 628.26 877.06 631.96 881.09 632.87 883.01 635.66 891.94 636.82 894.13 637.34 898.23 636.97 899.99 634.6 903.65 633.68 906.81 632.62 913 630.78 916.11 627.76 918.31 625.75 920.73 625.04 927.43 625.25 934.55 624.45 939.78 621.41 941.45 619.15 941.86 614.26 943.85 607.14 947.25 601.64 950.48 599.09 952.5 592.05 954.1 588.15 957.41 583.63 964.68 581.93 969.45 579.68 973.4 577.06 976.92 571.46 982.83 568.5 988.22 567.28 994.17 567.42 995.81 569.66 1002.8 569.48 1005.29 570.2 1010.27 574.51 1019.35 579.41 1022.16 579.75 1024.98 578 1030.52 576.12 1034.74 576.8 1035.76 580.62 1036.74 582.36 1037.84 585.27 1041.68 585.27 1044.1 583.83 1047.55 579.21 1054.8 579.08 1056.38 581.33 1059.98 580.97 1063.76 577.05 1073.43 573 1079.97 569.39 1083.83 568.26 1086.06 567.46 1095.64 565.95 1096.72 563.46 1101.15 562.41 1104.22 557.2 1110.97 550.67 1117.63 549.99 1119.69 549.81 1124.48 548.34 1133.61 546.74 1139.97 544.16 1154.79 544.75 1160 547 1165.15 551.95 1170.57 552.96 1173.38 553.74 1178.81 555.85 1180.74 561.18 1186.87 566.9 1195.61 572.72 1203.79 580.92 1210.75 585.18 1217.67 587.18 1219.68 601.11 1228.15 609.78 1229.68 618.13 1230.22 622.57 1231.48 625.39 1234.06 631.56 1242.65 637.44 1250.04 643.03 1260.8 644.37 1266.82 647.92 1272.49 648.82 1279.22 650.8 1281.37 653.92 1280.59 657.42 1281.47 660.43 1289.49 663.62 1290.42 665.99 1296.03 669.22 1299.4 672.06 1303.45 676.13 1308.05 684.15 1314.17 694.58 1323.5 696.9 1327.88 702.17 1333.22 706.25 1334.84 713.1 1334.22 714.69 1334.68 718.8 1337.44 721.41 1341.06 725.7 1344.76 727.16 1347.75 727.66 1358.11 732.11 1358.33 735.2 1363.24 739.58 1369.37 741.04 1373.81 743.35 1374.17 747.96 1373.68 748.64 1375.02 748.3 1378.01 751.3 1383.62 754.99 1385.26 756.96 1387.05 759.41 1391.64 764.27 1395.02 766.75 1397.66 768.52 1401.12 769.55 1405.65 768.3 1410.45 764.96 1417.18 761.7 1421.78 755.62 1427.27 751.48 1430.16 753.27 1433.68 752.69 1436.92 747.83 1442.2 740.82 1443.9 737.08 1443.54 735.3 1440.76 732.35 1439.96 727.6 1440.61 716.39 1443.16 710.66 1445.77 709.58 1449.01 715.27 1458.97 715.46 1463.69 714.79 1468.97 710.55 1474.9 710.27 1478.54 709.02 1480.05 703.06 1485.16 699.22 1485.8 693.36 1484.72 681.95 1485.62 677.44 1484.91 675.64 1483.87 673.26 1481.03 660.11 1471.89 656.26 1468.48 645.31 1461.79 641.69 1460.08 633.83 1457.71 630.68 1458.47 627.27 1461.23 624.37 1464.61 619.3 1467.03 613.55 1470.65 607.21 1471.75 603.83 1470.7 602.26 1471.03 597.92 1473.51 593.27 1476.78 591.61 1479.06 588.77 1487.43 587.47 1494.46 588.05 1498.57 589.46 1499.99 593.25 1500.99 594.12 1501.86 593.77 1504.7 590.54 1507.32 585.81 1513.04 582.77 1515.92 581.21 1522.21 582.12 1524.9 586.3 1525.65 590.09 1527.4 593.3 1530 600.5 1533.76 607.18 1535.46 608.62 1537.67 608.93 1539.75 608.38 1543.92 610.5 1545.2 613.52 1544.74 620.51 1547.35 625.42 1548.03 631.79 1550.45 634.81 1552.67 639.13 1556.94 641.4 1558.35 645.09 1559.2 651.03 1558.68 653.74 1557.54 658.92 1553.57 661.03 1552.62 664.26 1552.74 668.75 1554.43 669.82 1556.28 670.48 1559.95 670.89 1566.38 673.34 1569.35 682.71 1572.87 685.45 1574.47 688.15 1577.81 688.89 1581.22 686.97 1586.55 687.16 1588.17 689.14 1590.43 693.37 1591.35 696.04 1590.43 705.42 1582.09 718.71 1568.11 720.78 1567.05 722.3 1567.81 723.49 1573.88 723.54 1577.67 724.47 1582.31 726.79 1587.18 729.53 1594.7 731.38 1603.06 729.34 1603.26 724.89 1601.3 721.3 1602 718.97 1601.07 713.19 1600 713.04 1597.61 708.2 1596.18 703.63 1596.64 702.52 1599.82 699.07 1599.29 693.07 1599.12 687.02 1597.99 685.21 1595.63 678.23 1592.9 677.05 1591.59 670.19 1589.07 667.55 1588.5 663.98 1586.83 658.6 1588.27 658.34 1589.2 654.23 1590.17 652.47 1591.16 646.87 1590.98 644.77 1592.43 642.31 1596.25 639.38 1598.86 636.27 1604.12 632.33 1607.31 631.98 1608.94 626.5 1613.98 625.98 1615.92 626.58 1618.43 624.36 1623.19 621.62 1626.83 621.64 1629.43 620.73 1631.22 617.49 1631.64 615.34 1632.9 612.96 1636.07 609.85 1637.92 605.76 1637.87 601.99 1639.24 600.53 1637.56 597.92 1636.49 595.39 1636.65 592.42 1635.91 589.82 1632.74 585.67 1632.27 581.19 1633.87 578.28 1636.29 576.78 1636.31 575.1 1632.53 572.72 1631.17 568.35 1630.38 563.46 1630.12 556.81 1628.53 553.2 1628.65 552.72 1631.4 550.6 1633.32 547.71 1634.09 545.14 1635.85 544.82 1637.36 539.85 1640.26 540.13 1641.84 538.33 1644.27 538.66 1645.85 535.95 1649 534.86 1651.27 526.12 1659.36 524.15 1660.28 517.52 1670.84 516.06 1671.82 511.47 1671.43 510.61 1668.65 507.75 1667.84 507.63 1670.32 510.27 1678.75 506.67 1679.91 504.67 1679.02 501.54 1679.57 498.75 1682.44 498.56 1683.92 495.49 1683.5 495.3 1686.82 492.33 1686.67 488.24 1685.32 481.57 1686.74 479.97 1688.87 475.68 1689.5 471.16 1691.03 470.22 1693.46 470.24 1697.63 468.06 1697.89 466.44 1695.71 463.13 1695.35 460.73 1697.3 459.03 1700.68 458.15 1705.2 456.62 1704.83 455.23 1701.06 450.06 1701.7 447.95 1700.93 445.17 1701.75 441.27 1703.77 437.34 1703.5 431.86 1704.92 429.75 1703.93 421.11 1705.13 418.49 1704.4 418.04 1705.77 414.31 1706.64 413.52 1705.58 409.05 1707.99 406.23 1708.65 405.44 1711.12 403.51 1710.54 403.22 1713.32 399.5 1714.93 397.37 1716.57 395.65 1716.67 391.38 1722.77 392.18 1724.36 389.35 1728.28 388.02 1732.11 388.31 1733.76 386.72 1735.66 386.97 1738.29 386.28 1740.79 384.36 1742.62 384.57 1744.38 382.9 1746.67 381.26 1747.62 377.2 1747.18 375.87 1745.81 372.85 1748.61 370.04 1750 367.23 1749.28 364.48 1746.75 361.7 1745.52 356.13 1742.09 352.74 1739.37 348.02 1733.35 345.24 1731.02 343.35 1728.52 340.06 1725.54 337.98 1724.44 335.6 1725.73 330.71 1724.4 325.52 1720.19 320.5 1718.35 315.32 1717.33 311.22 1717.66 310.11 1719.16 313.08 1721.96 317.59 1721.8 321.04 1722.79 321.32 1724.74 317.46 1725.53 316.16 1726.39 314.41 1729.97 311.64 1730.89 308.69 1729.95 306.87 1725.88 305.32 1724.99 296.02 1724.16 294.51 1724.42 293.57 1726.99 293.99 1732.05 293.39 1734.29 291.17 1736.5 289.55 1736.85 286.66 1735.31 283.27 1728.18 278.84 1723.68 274.8 1720.85 273.64 1719.14 268.49 1715.29 266.89 1713.45 266.77 1711.69 270.68 1709.26 273.1 1706.28 272.94 1703.35 271.69 1702.49 267.33 1701.39 264.07 1697.4 262.41 1688.63 260.94 1686.22 259.07 1685.77 255.96 1686.54 249.67 1686.84 247.11 1686 248.73 1681.97 247.36 1677.85 246.2 1676.06 243.63 1674.3 238.95 1672.48 236.67 1670.33 232.8 1663.69 233.38 1661.65 242.66 1661.3 247.2 1659.03 250.59 1653.59 251.07 1650.59 254.58 1644.11 254.76 1642.2 247.73 1640.01 244.04 1639.56 242.01 1635.95 237.18 1631.02 234.12 1629.12 230.97 1627.9 226.37 1625.1 223.83 1624.52 222.69 1622.91 222.86 1618.05 225.41 1613.19 228.13 1608.89 228.93 1605.07 226.55 1603.35 227.31 1600.57 229.58 1600.85 232.93 1602.81 237.85 1600.18 237.38 1594.48 238.85 1588.83 236.58 1583.51 236.57 1580.92 238.89 1577.69 240.75 1576.31 244.42 1572.13 247.93 1566.63 252.23 1561.33 253.33 1556.55 253.4 1550.39 255.32 1547.22 257.34 1545.51 259.57 1544.83 261.68 1543.11 265.11 1538.02 265.7 1536.34 264.86 1533.05 265.49 1529.46 264.57 1528.21 264.54 1523.01 266.08 1522.39 269.99 1522.55 273.14 1520.5 272.67 1518.25 273.68 1516.98 275.98 1516.93 276.76 1518.72 280.05 1520.64 281.42 1519.4 282.53 1513.84 284.76 1512.62 286.14 1508.89 285.8 1504.79 287.53 1501.45 287.59 1497.31 285.54 1496.04 283.36 1493.29 282.27 1489.23 285.3 1489.26 284.67 1485.67 287.67 1485.7 291.8 1484.68 291.64 1481.44 294.17 1480.06 292.5 1477.91 290.85 1473.8 287.8 1471.41 288.1 1467.9 286.19 1463.14 286.69 1459.91 280.17 1455.3 283.28 1450.77 282.46 1445.09 281.37 1441.58 279.56 1439.94 277.91 1436.23 277.18 1430.08 276.22 1428.38 272.47 1425.28 263.51 1413.63 217.56 1351.14 188.32 1239.46 177.69 1231.19 172.04 1226.06 170.61 1223.29 170.92 1218.73 171.83 1214.45 172.25 1207.69 172.1 1203.59 170.08 1197.14 167.35 1194.41 158.84 1189.22 154.12 1185.05 151.32 1182.02 146.96 1179.42 142.98 1178.53 140.57 1178.62 135.46 1180.43 132.76 1180.14 130.49 1178.6 128.68 1174.77 128.38 1170.97 129.15 1167.34 132.57 1160.93 137.34 1156.4 138.97 1153.19 140.15 1142.96 140.41 1138.79 142.7 1133.82 144.17 1129.01 143.69 1122.37 144.29 1119.37 145.54 1117.29 148.11 1110.32 149.93 1106.99 151.63 1095.1 153.09 1091.86 153.3 1089.2 148.12 1084.72 149.38 1081.24 153.32 1078.14 159.36 1076.51 162.89 1074.67 164.69 1072.9 168.91 1069.98 173.03 1068.02 178.35 1066.5 185.32 1062.81 192.02 1058.95 197.78 1054.83 205.89 1051.63 209.76 1048.32 212.22 1043.36 215.66 1040.37 220.46 1038.28 221.65 1035.39 222.18 1029.51 224.95 1023.91 227.71 1021.27 227.79 1017.96 223.48 1013.38 217.56 1010.7 216.19 1009.47 215.31 1003.52 213.63 996.82 210.5 994.58 194.65 991.45 190.62 991.42 183.57 989.11 179.56 988.52 173.11 988.64 167.16 990.26 163.79 989.15 157.78 985.19 152.33 983.57 147.03 980.31 138.61 973.68 132.64 969.42 127.8 965.44 121.3 954.84 121.11 953.51 122.09 948.22 119.5 942.97 120.23 940.47 124.31 938.34 127.35 938.39 127.81 935.66 124.64 927.54 123.27 925.58 121.16 924.96 112.93 924.45 103.66 922.08 100.9 919.97 99.26 917.28 98.82 914.76 98.72 908.21 94.78 900.62 89.98 898.49 80.82 899.43 77.31 899.42 72.47 898.01 70.4 896.64 63.94 893.83 62.74 891.08 62.9 884.56 62.49 875.54 61.67 873.5 59.1 871.08 48.43 867.78 47.13 864.18 48.18 861.15 52.79 852.99 53.65 848.26 51.98 838.54 49.37 833.27 47.1 825.5 45.21 820.76 43.8 815.34 42.67 805.87 42.51 802.43 43.3 799.9 45.58 795.88 49.78 793.32 53.23 790.31 58.2 788.44 64.65 787.72 67.26 783.82 69.95 780.74 71.65 777.16 71.18 775.12 65.73 771.61 64.84 769.75 64.43 766.4 65.23 763.3 69.07 760.62 72.54 760.19 73.54 759.08 71.72 752.88 69.73 749.49 70.03 745.37 71.64 743.86 77.51 734.23 76.96 731.08 77.5 727.09 78.35 725.92 83.41 724.66 85.35 722.22 84.89 719.3 83.22 716.78 79.84 709.26 73.8 708.18 71.44 706.7 66.24 700.89 62.53 696.16 52.28 689.47 50.56 687.82 46.12 680.82 41.58 675.42 40.71 671.19 40.77 661.33 39.67 655.75 32.9 634.37 29.22 628.27 25.53 625.9 22.8 619.31 20.95 618.08 14.65 616.95 7.5 617.34 2.29 616.63 1.33 615.58 1.24 612.87 2.22 608.82 1.3 605.64 1 600.68 2.39 593.69 6.7 582.05 7.29 577.91 9.63 574.59 15.73 574.15 18.26 571.25 22.76 569.77 26.47 570.6 32.51 570.62 36.85 573.45 39.76 573.21 38.66 568.73 41.32 564.51 41.42 562.34 40.5 557.46 40.69 555.1 43.7 550.14 51.26 542.53 59.66 536.74 60.52 535.69 59.74 533.07 57.59 531.1 47.84 523.58 46.7 523.44 37.39 524.92 35.23 521.82 34.54 518 35.68 515.92 42.3 507.39 45.59 502.23 49.79 497.42 56.73 491.04 59.77 490.4 59.94 489.02 57.48 487.32 55.35 483.03 59.59 474.93 63.51 471.48 65.07 468.09 63.88 464.74 59.63 461.72 59.96 457.95 61.49 453.66 65.92 453.16 71.19 451.28 74.73 447.69 75.37 443.64 76.94 440.47 76.4 436.09 78.87 430.57 80.28 428.85 84.2 427.58 83.55 432.03 84.29 433.9 85.97 434.86 91.26 436.37 97.92 434.53 104.98 428.72 109.9 422.16 110.05 418.04 112.66 415.68 116.85 409.7 119.53 405.33 124.43 391.89 123.84 388.18 122.55 385.7 122.43 381.07 125.28 379.24 124.24 375.15 121.31 373.53 119.94 370.77 119.54 367.1 114.15 365.9 115.75 364.03 114.98 361.34 117.32 357.39 115.37 353.75 115.69 350.8 112.19 348.27 111.3 346.86 111.31 344.04 110.15 342.88 110.34 340.7 108.61 336.86 107.35 330.98 101.27 329.36 92.3 323.46 90.59 321.72 88.15 316.98 84.45 316.19 82.69 312.17 81.02 311.51 79.07 313.31 72.69 316.49 68.01 313.8 64.2 304.36 62.28 302.15 62.98 299.37 60 297.96 60.53 294.96 58.21 292.54 56.26 289.2 53.57 287.22 49.98 281.65 59.47 275.05 66.34 268.26 69.46 266.9 76.56 264.94 81.38 260.26 88.97 256.17 99.15 251.1 103.07 248.4 81.08 239.26 85.42 239.45 90.48 238.7 93.7 236.64 98.56 234.96 105.31 235.31 106.46 233.01 109.8 229.11 114.49 224.32 115.33 221.81 117.19 220.69 117.46 218.73 119.92 216.28 122.6 215.13 125.18 212.82 128.86 212 129.34 210.95 128.11 206.58 128.71 201.7 131.18 195.72 134.9 190.83 137.72 190.11 145.9 184.85 149.02 183.79 150.6 182.51 153.15 178.22 153.09 175.79 155.18 172.5 155.43 169.73 153.9 165.75 156.16 163.99 155.79 162.17 159.1 162.42 160.29 161.8 162.13 158.25 162.18 155.72 167.29 151.68 170.94 151.87 172.5 148.77 175.41 146.17 178.65 144.02 182.71 144.36 184.46 142.98 183.51 140.39 185.21 137.65 188.34 135.18 192.35 132.73 192.65 130.16 188.76 130.19 187.94 128.51 189.77 123.1 191.5 121.72 188.78 118.63 190.97 116.07 190.8 114.11 195.64 108.81 195.74 107.23 228.15 101.35 273.93 92.92 316.95 85.13 334.39 81.84 340.25 80.05 348.62 75.03 366.54 63.99 378.94 56.63 393.97 47.38 423.93 29.11 432.83 24.13 437.86 22.66 446.22 21.69 452.15 21.35 487.68 18.26 490.54 17.67 495.52 15.01 498.01 12.48 507.06 1 622.21 34.85 619.6 37.89 616.02 46.52 615.41 49.16 616.67 53.93 621.88 59.52 622.75 61.85 623.62 67.31 628.17 68.43 633.37 67.33 636.06 67.71 641.97 70.03 642.95 72.19 638.85 80.52 638.25 83.74 639.43 92.66 642.05 101.51 643.17 102.8 647.07 103.06 653.86 102.74 655.38 104.52 655.53 108.37 654.97 112.52 655.8 119.1 657.1 124.63 659.88 129.07 659.63 131.16 658.13 133.78 653.14 137.94 651.88 139.85 652.58 143.85 653.97 146.21 654.6 148.96 654.47 152.46 659.39 159.36 664.08 162.29 671.8 162.49 676.85 160.94 678.43 161.16 685.46 167.51 686.28 169.17 687.76 179.17 686.45 187.14 683.76 191.87 684.01 193.24 688.75 197.7 690.76 200.14 693.27 204.81 693.94 207.35 694.12 212.75 695.94 215.9 709.16 226.15 713.89 230.15 717.53 232.03 720.02 232.2 726.7 231.33 730.85 231.61 733.51 233.25 735.37 235.94 736.5 239.63 737.22 249.19 739.05 250.28 742.42 250.87 748.37 252.63 751.48 254.53 754.22 257.07 758.75 269.6 758.94 272.52 756.94 278.46 756.54 282.24 756.75 287.59 756.11 290.09 747.01 299.04 745.43 302.75 741.16 311.31 738.35 315.88 737.8 321.01 737.6 333.14 736.94 338.6 737.15 341.61 739.35 347.65 742.98 354.74 743.87 361.11 745.41 362.93 748.52 363.57 756.65 363.67 760.04 364.43 765.4 368.23 767.46 369.1 778.96 370.3 783.6 372.38 793.69 381.15 796.73 384.49 799 388.04 798.52 391.72 797.39 392.79 789.85 403.4 787.73 407.49 787.02 411.75 788.45 418.27 794.57 430.73 792.76 433.98 787.35 437.75 786.18 439.6 786.24 443.22 788.35 447.91 786.56 451.58 778.93 459.11 773.91 461.31 772.66 462.86 772.49 469.19 773.08 472.96 772.87 478.79 773.3 483.08 774.32 487.73 772.47 489.92 Z"/>
</g>
</svg>