<?xml version="1.0"?>
<svg xmlns="http://www.w3.org/2000/svg" version="1.2" baseProfile="tiny" width="800" height="559" viewBox="0 0 800 559" stroke-linecap="round" stroke-linejoin="round">
<g id="4202701">
<path d="M 275.18 1.59 278.65 2.68 280.66 4.32 280.41 7.14 282.97 8.29 287.2 8.16 292.4 9.02 293.92 10.5 294.91 14.53 294.61 17.45 295.12 18.96 293.42 22.73 294.24 23.54 303.19 25.28 305.44 24.06 307.99 23.8 309.95 24.12 312.45 26.76 313.7 27.55 314.64 29.23 314.26 31.29 317.55 36.85 322.78 39.56 324.32 42.02 324.82 49.8 325.52 51.25 325.16 54.32 324.47 55.78 321.49 58.75 321 60.35 322.58 61.92 324.64 62.76 326.52 62.88 329.39 64.21 333.41 63.61 337.56 62.37 342.29 61.87 345.06 63.08 346.59 64.93 348.97 63.45 351.79 62.61 353.73 62.66 357.04 63.54 362.45 64.45 364.64 64.32 369.68 65.11 372.65 64.87 373.83 64.29 379.37 60.32 382.61 59.33 385.49 56.87 387.94 56.14 391.36 57.49 393.44 58.95 395.74 59.92 397.79 59.89 402.52 58.99 405.7 57.47 408.72 56.51 413.65 55.66 421.8 56.05 424.67 56.93 426.26 58 428.18 60.82 431.6 64.65 432.32 65.82 432.92 70.35 434.01 74.82 435.42 77.5 436.11 82.56 436.41 87.4 437.26 94.51 438.49 100.24 439.42 109.25 438.63 114.21 436.86 118.78 436.45 121.05 439.68 124.49 442.89 126 446.26 128.14 447.1 129.24 447.51 131.69 446.72 134.13 446.93 136.33 446.39 138.17 446.85 139.87 449.29 142.53 450.14 143.97 454.4 146.16 459.5 149.56 462.09 151.57 466.75 151.46 469.95 152.65 472.27 152.66 475.37 153.25 476.71 154.6 480.17 157.14 481.45 158.63 486.18 161.45 490.97 162.02 493.96 163.21 497.66 162.76 501.6 160.27 502.97 156.99 503.93 156.65 505.9 157.35 507.18 157.17 510.13 154.55 512.26 153.71 516.1 153.76 518.98 152.93 521.35 153.26 522.86 155.96 524 156.85 528.12 159.04 531.59 158.73 535.27 158.94 536.76 158.63 538.18 157.38 540.91 152.89 541.67 152.21 544.93 153.17 547.64 152.67 549.51 151.34 550.31 149.91 552.3 143.79 553.36 143.9 553.69 147.42 557.21 151.88 560.79 152.71 564.36 151.85 568.54 152.81 570.69 154.93 572.73 155.68 575.56 155.92 579.32 158.25 580.95 158.51 584.25 157.85 586.71 158.62 589.88 160.83 594.72 161.86 597.14 163.81 597.87 166.68 600.69 169.02 601.9 170.83 603.63 176.38 605.39 180.14 607.42 183.44 607.79 187.39 609.62 189.47 610.82 190.09 613.58 190.53 616.24 192.13 616.22 193.62 615.35 195.47 613.39 197.73 613.86 202.16 615.15 204.47 617.07 204.63 619 205.46 619.69 206.45 650.3 243.56 652.32 241.66 653.53 239.49 653.16 235.16 651.79 231.36 649.46 228.61 646.45 226.32 643.61 225.76 640.15 225.46 639.14 224.14 639.46 223.15 641.14 222.1 642.43 220.48 643.09 218.03 642.49 212.96 643.48 208.52 643.42 203.7 643.65 201.81 644.54 200.16 645.79 199.54 650.76 198.93 654 195.5 655.43 193.57 656.22 191.76 657.12 188.18 657.33 184.43 655.87 182.99 653.54 181.78 653.27 180.21 655.41 177.39 658.38 176.37 659.42 174.62 656.94 168.91 657.83 161.79 658.91 160.86 660.67 161.19 661.55 162.62 663.98 163.62 667.2 162.24 672.47 164.66 677.88 165.04 681.7 164.9 686.54 165.92 688.85 164.49 689.95 163.03 693.18 157.53 694.76 157.31 696.53 158.05 697.02 160.5 698.02 160.93 700.31 160.38 703.26 157.56 703.2 154.1 704.83 148.86 702.34 147.89 698.59 148.87 695.11 146.3 693.57 146.09 690.31 146.86 688.13 146.64 685.61 143.96 681.85 142.3 679.59 140.92 679.05 139.97 679.86 136.68 679.23 134.05 699.18 133.95 702.16 136.16 705.01 136.45 706.81 135.46 710.44 132.14 711.57 129.07 714.09 124.1 714.86 119.68 716.06 114.57 716.3 112.18 717.53 110.84 764.35 102.52 767.02 105.52 770.75 108.58 772.4 111.15 772.31 113.57 774.09 117.04 776.19 119.45 775.04 121.9 772.15 125.9 774.59 126.86 784.22 133.93 787.76 135.8 788.57 137.37 790.11 138.27 793.3 138.78 794.17 139.7 796.81 140.65 798.76 144.21 799 146.1 798.34 147.41 795.23 149.56 794.22 151.77 789.8 155.4 785.96 157.98 784.13 160.71 783.63 162.85 784.05 165.24 783.49 166.46 781.69 167.55 779.37 168.36 776.38 170.11 773.98 174.06 770.56 177.81 770.71 182.18 768.05 186.84 768.05 188.72 767.22 189.92 764.11 192.05 758.52 192.58 753.95 195.02 752.45 196.19 751.27 199.08 752.11 201.71 751.48 202.5 746.95 204.85 742.1 211.51 743.13 212.84 743.2 214.48 742.13 215.9 740.38 216.69 738.87 218.61 736.91 220.17 735.25 220.31 731.4 219.73 725.46 223.42 721.44 225.15 720.94 226.04 720.09 231.17 719.45 232.09 717.03 233.55 714.04 236.19 710.57 238.1 708.77 240.33 708.72 243.09 709.46 245.73 708.59 250.95 707.82 254.16 707.96 257.73 707.68 259.93 708.1 262.09 707.89 264.65 708.88 267.01 708.84 268.46 706.64 273.85 705.19 275.13 703.63 278.31 702.76 281.3 703.74 285.7 703.03 287.1 700.38 290.76 700.12 291.89 701.03 295.07 700.95 296.79 700 298.33 697.79 299.78 696.82 303.45 698.91 306.29 700.71 308.01 701.24 310 701.01 311.56 701.49 313.76 702.78 315.38 705.59 316.85 706.23 318.79 703.7 323.3 706.1 326.16 708.35 329.8 709.86 331.61 709.64 332.43 706.3 334.02 704.18 334.3 702.12 335.27 699.28 335.01 697.23 335.97 692.05 339.61 693.2 341.41 692.36 345.96 691.48 347.9 688.43 349.3 685.52 351.55 683.52 352.03 679.79 351.87 674.41 353.2 671.14 354.69 668.85 356.46 665.23 360.3 663.92 362.04 662.67 364.62 660.06 366.3 658.77 367.62 659.05 368.98 664.48 373.6 666.45 376.82 669.74 380.63 670.03 384.79 669.99 390.89 670.58 397.47 671.32 399.13 672.69 400.66 673.48 402.7 669.11 405.13 667.26 405.53 665.45 406.72 663.81 408.63 659.52 412.2 655.56 414.8 653.46 417.67 652.74 423.04 651.6 424.03 648.94 425.27 647.13 428.32 646.08 431.43 645.21 432.73 640.94 436.07 638.63 435.35 636.48 436.16 634.3 437.81 633.61 439.33 630.16 441.04 627.83 443.15 623.15 446.7 620.84 448.23 619.72 449.44 616.05 447.33 614.34 448 612.89 447.69 608.97 448.82 606.48 448.48 604.35 447.56 599.8 446.6 597.65 445.11 593.15 444.87 588.47 443.72 587.65 442.66 585.94 442.2 583.72 443.01 582.38 444.96 580.57 448.8 579.1 449.92 574.27 449.85 572.81 450.37 570.61 452.68 564.18 454.24 561.35 453.57 557.75 454.76 556.17 454.27 554.55 456.5 552.04 457.52 549.78 457.7 543.47 459.5 540.96 459.59 537.36 458.79 535.21 460.56 530.55 471 529.24 471.92 524.83 471.93 523.24 473.3 520.62 472.95 512.92 467.61 513.52 464.19 512.23 462.07 512.22 460.36 513.93 459.26 515.67 457.46 516.07 455.65 514.22 453.28 512.68 449.04 510.79 446.54 508.82 446.56 506.81 449.2 504.94 450.79 498.88 453.71 494.49 456.17 488.39 460.26 486.62 460.82 482.06 459.46 479.92 459.28 477.85 460.31 476.66 462.39 473.57 463.94 470.76 464.72 468.3 463.78 465.12 464.71 462.48 464.61 457.54 463.95 455.95 462.25 454.33 461.86 450.92 463.31 448.06 463.5 444.54 465.94 441.42 465.94 436.33 464.73 435.04 463.96 432.23 461.19 428.15 460.78 422.47 462.81 418.76 462.46 415.52 461.32 412.85 463.76 410.73 467.88 411.14 469.26 410.61 470.97 408.01 473.77 405.87 474.71 404.66 474.51 401.37 472.62 397.84 472.04 395.56 472.11 393.07 470.06 390.51 469.4 387.25 468.07 382.8 469.85 381.17 469.55 378.01 465.5 374.21 462.91 372.79 461.19 370.69 460.4 368.01 462.1 366.35 464.28 365.08 464.91 362.41 467.62 361.31 469.28 359.5 473.71 358.65 475.13 357.59 479.79 354.73 480.99 349.03 479.16 345.4 480.63 343.29 479.17 343.54 475.31 342.33 472.93 340.74 472.67 334.42 473.66 332.67 474.84 330.88 476.86 328.35 477.94 325.04 478.79 323.46 480.07 321.91 483.67 318.74 484.19 316.89 485.71 315.93 485.85 313.5 483.99 310.24 482.99 308.18 485.18 306.84 485.53 302.1 483.72 299.02 484.33 297.23 490 294.53 492.15 292.46 491.59 290.16 493.57 289.64 495.22 285.96 496.82 283.72 499.81 283.23 502.5 282.33 503.09 279.31 502.97 274.79 505.67 271.75 507.8 270.35 508.12 268.3 506.5 264.48 504.34 260.38 505.79 259.32 507.63 256.19 509.19 253.73 511.22 251.82 510.51 249.41 511.21 247.47 510.88 246.24 511.73 244.64 510.37 241.82 509.04 239.55 509.84 235.47 510.07 230.98 511.68 229.6 512.98 226.68 513.61 223.73 516.61 220.47 518.38 218.85 515.29 217.84 514.56 215.89 515.12 213.95 514.94 212.92 513.68 212.85 511.1 210.5 510.56 210.27 509.22 208.47 507.48 206.89 506.93 205.5 507.37 204.34 509.05 201.74 509.47 198.59 508.33 195.79 508.55 193.34 507.1 191.63 507.6 188.32 512.02 184.42 513.02 182.16 513.13 180.72 514.19 177.51 514.6 175.91 515.87 173.15 515.95 171.91 514.38 170.39 513.86 168.55 515.17 166.7 515.55 164.63 514.98 162.02 513.02 160.73 512.9 157.74 514.26 156.55 514.42 153.49 513.72 147.97 511.49 143.98 511.33 139.7 512.18 137.48 513.12 135.86 514.46 131.99 515.17 127.42 516.98 125.79 518.9 124.4 523.31 121.26 524.61 119.45 526.2 118.33 528.07 117.58 532.17 115.68 535.1 114.54 535.7 111.04 536.42 108 537.96 106.12 538.03 103.75 539.24 101.02 539.9 100.23 541.24 97.81 540.39 96.94 541 96.61 543.27 95.15 543.6 91.61 542.39 90.18 542.53 86.92 544.4 85.02 545.96 80.95 553.43 78.02 558 76.14 555.07 75.69 553.08 74.44 550.92 73.75 548.7 70.56 545.71 67.08 544.1 64.14 540.41 60.68 534.61 57.65 532.41 54.05 531.4 52.71 529.75 50.24 528.23 48.72 528.3 46.43 525.85 43.04 523.21 41.72 522.84 40.24 521.56 38.14 520.7 36.3 516.54 34.13 515.44 32.27 516.89 30.17 515.75 26.74 515.35 22.84 513.38 20.71 511.29 17.76 511.49 16.77 510.08 17.44 509.23 17.52 507.22 14.41 505.21 14.86 504.29 13.4 503.52 12.84 501.45 11.8 499.71 12.03 498.32 14.12 496.02 14.28 492.01 12.67 489.53 12.14 487.85 9.39 485.36 8.95 483.21 9.21 481.31 7 481.1 5.59 479.61 3.32 478.82 2.29 477.11 1 476.67 1.77 475.35 1.21 474.03 1.3 471.25 3.82 470.03 5.67 469.83 5.77 467.77 11.56 461.21 14.04 459.32 13.8 458.55 14.57 454.76 16.83 453.11 19.55 452.57 21.18 450.68 23.54 449.32 25.33 447.84 26.29 446.28 29.74 443.53 32.45 439.31 31.88 437.22 32.5 435.66 35.17 433.16 40.33 430.64 38.74 428.37 39.34 426.42 40.96 424.52 41.05 420.48 41.72 418.78 43.25 417.32 42.94 415.44 43.26 413.79 44.33 412.99 43.05 410.54 43.75 408.2 41.18 406.58 42.19 404.6 42.7 402.33 41.62 400.06 40.19 398.18 40.62 396.44 42.83 394.16 43.49 391.2 43.1 388.05 44.02 386.92 46.7 382.06 47.4 378.26 48.86 377.83 51.42 375.65 52.6 373.88 54.36 372.66 56.01 369.45 57.11 368.41 57.62 366.77 60.94 364.24 61.12 362.4 62.9 360.39 63.57 358.89 68.4 357.99 69.87 355.94 70.51 353.31 71.92 352.61 74.13 352.83 75.01 349.81 75.94 348.97 80.04 347.59 80.49 346.65 80.07 342.57 77.66 343.59 76.47 343.12 77.56 339.41 76.77 337.68 77.89 335.81 77.13 331.31 77.24 330.33 78.15 330.13 83.57 327.49 87.5 327.01 88.29 326.56 88.24 324.1 85.22 321.64 86.02 319.61 87.77 318.28 91.04 317.71 93.27 318.1 93.88 320.2 95.58 322.97 98.69 324.99 99.75 324.64 100.27 322.87 101.75 322.22 105.31 317.91 105.97 315.99 103.55 312.07 103.22 310.32 103.8 307.42 105.89 305.79 113.02 304.14 113.59 301.89 112.11 300.53 111.95 298.87 113.26 296.65 113.86 292.51 115.05 289.81 114.32 287.95 112.76 286.88 111.7 285.16 111.89 283.56 115.98 279.14 120.23 279.39 123.51 278.21 127.08 273.85 128.41 272.82 130.01 273.15 128.35 275.45 129.46 279.07 130.5 280.07 133.13 280.73 137.06 278.91 137.58 277.46 137.63 274.79 138.13 271.86 140.49 265.94 141.09 263.12 144.34 259.96 147.1 258.88 151.04 258.62 153.24 259.78 154.47 262.25 156.26 263.34 157.79 263.27 158.73 262.19 160.56 253.4 162.62 250.84 166.89 248.56 170.53 248.75 174.57 250.31 177.41 250.84 179.03 250.63 179.63 248.97 178.44 247.02 176.56 242.96 175.45 239.51 174.05 239.68 173.07 238.04 171.82 237.45 170.41 238.52 169.38 237.36 167.61 236.48 162.31 239.01 156.3 236.74 155.12 236.57 154.11 235.35 152.7 231.92 150.48 232.06 149.61 230.89 150.05 228.18 148.18 228.38 145.55 227.5 143.87 226.04 141.64 226.19 140.72 223.52 139.21 223.8 137.23 223.3 137.77 221.72 138.78 221.02 142.08 220.16 147.8 221.51 148.68 221.03 148.22 218.79 147.14 216.9 146.72 214.27 148.08 212.89 145.52 212.19 145.04 210.07 148.23 210.27 148.63 207.38 149.27 206.63 152.36 206.4 152.98 205.88 152.53 203.51 150.8 203.38 150.78 200.61 151.19 199.2 148.57 198.71 148.95 195.57 151.3 195.95 152.98 195.49 152.57 193.31 151.71 192.61 153.03 190.65 156.84 190.61 156.76 189.25 153.42 187.94 152.33 186.61 153.12 185.07 152.59 182.61 150.84 180.5 150.18 178.61 149.14 173.45 149.41 172.97 147.11 170.61 146.96 169.39 148.2 167.18 145.16 164.06 145.1 162.63 143.48 160.08 142.07 159.18 141.13 153.5 141.23 150.99 139.97 148.35 140.47 147.48 137.98 143.46 135.58 142.23 135.51 140.18 133.28 137.49 133.92 133.79 132.57 132.1 132.23 129.34 130.74 128.08 128.33 127.63 126.53 126.14 124.54 125.9 119.86 122.81 116.23 121.6 112.86 119.01 111.94 117.19 109.19 113.46 112.38 109.09 114.97 107.39 117.25 107.05 119.9 107.8 121.39 107.39 122.68 105.18 122.38 102.7 120.89 99.28 122.79 97.15 123.95 96.85 125.6 97.47 127 98.93 127.94 100.92 129.75 102.32 133.35 103.05 134.41 104.15 136.26 110.28 135.71 112.17 136.37 113.1 139.88 114.44 141.55 115.66 143.27 117.56 144.89 120 147.05 118.14 148.67 117.93 150.29 116.97 152.81 114.14 153.93 113.49 157 113.08 159.65 109.78 162.43 107.46 165.43 106.55 166.02 105.48 165.8 103.65 164.56 102.7 162.34 103.2 159.22 102.83 158.49 101.4 162.2 96.88 162.64 95.34 164.88 92.27 168.48 89.97 169.82 88.12 169.96 86.11 168.64 84.56 167.62 81.87 165.32 78.85 162.28 75.98 161.59 72.43 159.59 70.69 159.36 69.12 159.85 66.98 163.19 59.8 165.44 58.39 171.97 60.13 174.52 61.03 176.6 60.87 180.74 61.61 182.32 63.75 184.12 63.97 186.1 62.44 188.49 59.56 190.39 56.27 191.95 55.72 193.88 56.11 196.96 54.17 199.15 53.63 202.14 50.83 203.6 48.42 210.13 47.87 212.05 47.33 214.4 47.28 216.84 46.22 219.85 43.58 221.4 42.71 226.48 42.21 229.53 42.88 232.58 40.49 233.85 38.82 234.8 35.86 237.09 33.2 240.01 30.46 242.83 28.85 244.32 26.24 246.28 23.82 251.6 19.65 256.05 16.91 256.81 15.91 255.54 13.06 255.99 10.35 255.34 8.51 255.04 5.23 258.21 5.25 261.21 4.62 263.86 5.99 266.54 5.56 269.31 1.51 270.51 1 272.78 1.82 275.18 1.59 Z"/>
</g>
</svg>