<?xml version="1.0"?>
<svg xmlns="http://www.w3.org/2000/svg" version="1.2" baseProfile="tiny" width="800" height="467" viewBox="0 0 800 467" stroke-linecap="round" stroke-linejoin="round">
<g id="4202156">
<path d="M 480.45 49.07 483.87 52.3 487.61 52.79 494.69 52.12 498.41 55.49 503.68 57.57 510.21 60.87 515.74 60.95 516.79 63.71 516.3 67.46 518.75 69.76 523.56 69.39 532.67 73.28 546.42 78.23 549.21 78.37 558.83 75.75 568.21 79.63 573.24 79.91 586.32 82.43 592.73 85.67 597.79 86.41 600.67 87.64 611.58 88.24 624.61 91.59 631.13 92.18 635.84 93.61 642.63 94.44 648.18 95.71 652.35 95.3 656.14 97.36 659.72 100.35 664.13 100.71 671.5 105.65 675.4 106.11 676.97 104.62 681.53 104.74 686.37 106.53 689.49 106.39 698.26 108.79 702.07 109.4 710.7 112.11 714.84 113.84 724.94 114.78 728.22 117.28 732.85 117.28 736.51 118.95 741.23 122.37 743.52 121.84 799 135.58 795.01 136.29 795.58 138.33 794.07 141.04 790.74 143.24 788.07 148.35 790.86 151.41 791.79 153.95 785.15 161.69 783.09 164.86 784.45 167.79 787.45 171.27 787.82 175.18 780.55 179.62 778.81 179.15 778.01 175.21 776.18 171.95 765.36 164.84 763.43 164.85 757.63 168.94 755.44 173.02 751.95 176.94 750.58 179.75 747.22 182.56 742.05 185.34 739.71 187.41 741.58 190.54 745.53 192.21 752.59 191.95 756.11 194.97 760.87 196.98 759.38 203.66 760.56 204.59 765.49 204.55 768 205.93 768.54 208.72 770.99 210.01 769.83 215.04 766.99 220.76 767.48 223.51 765.07 231.56 765.84 236.36 764.42 239.19 761.45 240.6 756.56 245.26 757.25 250.49 755.13 251.94 751.79 252.11 749.85 253.59 745.45 251.99 742.54 246.09 733.71 248.75 732.66 250.93 733.58 255.33 736.42 255.43 739.54 258.82 741.85 260.18 744.45 259.98 753.03 267.99 753.01 270.33 750.69 271.62 745.76 271.32 743.99 272.68 741.6 279.48 739.83 281.58 729.06 272.15 726.75 271.81 725.74 265.73 720.11 261.86 716.81 260.34 709.05 255.13 705.87 251.39 703.9 251.12 702.58 248.68 699.36 248.01 696.61 249.4 693.45 253.28 693.12 257.36 696.54 258.55 697.79 261.1 698.05 273.87 694.23 278.03 690.06 279.03 692.8 281.11 696.48 282.21 695.69 284.85 703.1 286.21 707.74 286.13 709.91 289.06 709.52 293.04 705.93 296.59 705.61 298.74 711.6 298.36 713.12 295.5 716.28 296.3 719.52 299.7 722.76 305.75 725.31 305.43 730.09 296.92 726.22 293.1 726 291.33 730.68 290.5 736.76 295.6 737.12 298.93 735.96 302.12 737.13 305.79 735.68 311.57 732.38 315.77 735.32 317.51 737.49 316.88 741.04 321.8 740.4 324.9 737.27 330.13 731.64 336.78 729.78 339.67 733.39 341.7 737.57 342.49 739.48 344.81 740.98 349.45 742.47 348.86 743.54 341.95 745.79 338.26 751.32 334.34 753.81 333.59 760.75 335.1 762.84 336.95 769.44 337.54 773.32 339.59 774.82 342.45 774.76 346.54 773.54 349.82 768.42 352.57 760.82 351.73 760.73 357.33 762.95 360.38 764.51 365.91 764.22 370.22 761.45 372.18 759.63 375.51 752.89 378.03 749.72 377.41 748.16 373.41 745.74 373.07 743.6 374.53 737.46 382.21 738.41 391.04 739.27 392.96 738.45 397.6 739.65 399.02 743.86 399.3 754.25 395.57 755.98 396.58 755.01 404.66 753.29 407.15 751.85 414.14 748.71 418.78 746.72 422.91 747.17 426.47 749.14 426.63 757.57 423.47 760.43 424.33 763.52 422.1 767.89 422.92 769.61 429.05 764.79 431.24 759.44 431.99 756.2 431.57 751.39 432.1 746.37 434.58 736.11 435.28 732.98 433.3 729.25 433.68 727.68 439.22 729.68 444.77 730.09 448.05 645.11 466 641.55 458.8 637.04 455.68 626.41 451.93 618.5 448.48 616.03 446.94 613.77 443.83 610.71 443.12 605.97 439.71 601.85 438.11 596.57 433.86 592.21 428.48 587.74 428.74 582.37 426.81 574.3 425.94 566.94 422.09 563.71 422.55 557.12 428.26 555.17 427.99 552.18 425.42 547.74 422.78 540.05 421.9 526.01 417.45 519.28 413.86 515.8 410.74 514.16 410.37 501.96 411.71 491.56 414.25 487.85 415.83 479.22 422.34 462.61 420.65 456.25 420.85 412.69 442.35 376.3 400.92 135.7 444.85 115.82 443.42 108.33 441.91 85.95 440.82 63.32 437.46 44.4 434.17 26.12 428.94 15.74 424.01 6.91 413.81 4.96 405.77 7.8 395.58 21.14 374.37 30.02 358.7 36.86 348.45 47.52 339.69 56.4 331.44 66.45 329.15 75.56 327.44 84.28 327.15 88.71 324.33 89.36 320.45 85.34 316.17 78.2 312.35 70.65 309.16 62.22 306.2 48.97 304.62 24.65 299.68 16.21 294.11 9.84 288.94 2.69 279.32 1 271.27 2.52 265.78 8.57 261.45 16.29 262.63 32.15 268.54 47.93 273.91 63.64 276.47 81.78 277.93 114.79 276.83 132.57 279.14 148.03 286.04 158.21 291.04 166.12 294.48 177.05 293.99 183.19 291.35 190.67 284.74 192.86 275.11 193.17 265.31 188.44 257.43 179.44 251.73 166.55 247.39 152.05 240.2 137.53 235.68 131.65 230.58 119.75 214.81 110.86 194.19 106.68 186.65 105.33 185.41 107.87 181.16 110.14 180.34 123.14 179.46 144.42 180.19 157.64 182.54 169.92 183.84 175.45 183.44 181.5 180.61 185.19 177.31 189.33 172.32 189.86 170.11 188.41 164.38 180.2 153.42 170.14 146.72 164.96 141.52 161.31 139.21 157.62 137.89 156.67 134.83 158.03 131.92 161.59 128.96 167.33 126.59 169.69 124.94 175.28 123.49 190.75 117.99 192.89 116.93 200.24 115.01 206.92 116.38 210.75 115.93 214.79 113.6 216.65 111.29 216.87 105.17 215.16 102.5 208.1 96.36 197.53 90.17 191.31 88.56 186.28 84.83 182.47 79.69 182.22 74.78 183.95 71.76 184.5 68.11 183.75 62.59 181.18 53.83 181.63 48.91 184.78 45.1 188.42 42.9 193.05 42.8 203.68 45.37 208.7 47.58 219.17 48.07 225.54 50.59 232.19 49.92 237.99 44.98 240.38 41.13 241.78 37.29 244.63 21.86 243.82 17.39 240.3 11.74 235.07 8.82 233.79 6.23 237.56 2.63 240.56 1 243.35 1.18 248.89 3.69 253.61 6.51 258.19 7.46 267.38 7.73 270.15 8.22 276.39 12.19 278.61 14.26 282.7 21.5 285.71 23.72 287.48 23.46 292.38 17.71 294.73 13.48 297.89 11.62 303.51 10.28 307.5 16.18 307.64 23.93 311.21 31.95 310.72 39.15 311.46 42.8 312.8 43.35 318.64 42.49 324.62 37.57 328.51 36.8 331.49 38.07 335.49 42.79 340.63 45.13 343.79 43.86 346.99 40.82 358.87 26.15 365.69 19.52 370.02 18.22 373.67 19.04 377.66 21.67 380.18 26.92 378.43 31.16 374.32 33.67 368.77 35.82 367.78 37.82 372.69 41.91 377.86 44.79 385.19 52.11 392.38 55.82 396.91 57.49 411.99 61.09 417.04 60.39 422.36 55.09 425.56 50.03 428.44 43.28 428.48 36.65 425.44 31.19 415.19 27.11 413.84 25.91 414.18 22.81 418.54 18.78 423.23 12.11 427.21 14.2 429.3 17.43 436.21 25.84 437.11 27.52 444 34.09 447.41 35.35 452.16 34.11 455.57 35.16 457.85 42.19 466.28 48.51 474.76 54.01 476.6 53.61 480.45 49.07 Z"/>
</g>
</svg>