<?xml version="1.0"?>
<svg xmlns="http://www.w3.org/2000/svg" version="1.2" baseProfile="tiny" width="800" height="1155" viewBox="0 0 800 1155" stroke-linecap="round" stroke-linejoin="round">
<g id="4202503">
<path d="M 799 22.92 797.78 24.1 796.18 24.57 789.91 25.74 785.12 27.26 782.36 28.94 780.57 27.68 778.78 27.77 778.29 28.33 776.28 27.93 774.77 27.95 773.87 27.31 771.71 27.41 770.8 27.76 769.75 30.06 769.76 31.57 771.29 34.94 768.07 35.05 767.77 36.13 768.16 37.03 765.81 38.13 764.46 38.38 763.01 39.44 762.7 40.56 760.61 41.82 760.5 42.55 764.39 43.01 765.01 43.6 763.17 45.5 762.13 47.44 762.22 48.53 764.01 47.9 764.21 48.86 762.84 50.53 763.83 51.78 764 52.85 760.09 52.59 760.09 53.63 763.89 54.72 764.42 55.58 763.82 56.3 761.05 56.85 758.55 58.41 758.99 59.62 760.99 62.24 761.71 64.49 762.82 65.48 763.5 67.54 761.97 67.92 760.17 68.97 758.12 69.71 757.12 71.95 755.76 73.76 753.96 73.46 750 71.1 749.56 71.6 748.1 69.96 745.15 70.5 742.8 72.27 740.55 72.41 739.01 73.22 740.26 75.51 741.36 76.27 740.5 77.34 739.84 79.13 737.1 81.69 737.22 83.62 738.2 83.72 738.34 84.76 736.2 84.24 734.76 82.68 731.49 83.49 730.05 82.68 728.63 82.72 726.87 83.35 725.85 83.32 723.98 85.78 724.63 86.92 722.93 86.91 719.57 87.55 718.69 88.4 718.83 89.63 721.28 90.42 722.65 90.43 723.8 91.5 721.45 91.82 720.64 92.43 720.52 94.26 721 95.47 720.4 95.93 719.39 98.52 722.93 98.9 724.6 99.48 725.64 98.79 727.05 99.89 724.94 100.98 724.7 101.66 722.63 102.56 719.54 104.84 714.9 106.4 715.78 106.76 717.7 108.3 718.94 109.92 716.94 110.95 719.62 113.35 720.26 114.79 720.31 117 717.96 117.84 715.3 119.18 714.91 119.74 711.01 121.27 707.15 121.71 704.24 122.93 705.3 123.45 705.7 124.47 707.06 125.13 710.45 124.84 712.84 125.24 712.61 126.27 715.11 126.61 717.1 128.04 714.92 129.06 713.81 128.92 711.02 129.87 709.56 129.93 707.5 131.09 709.62 131.79 708.7 133.66 707.2 134.97 705.77 139.26 701.6 139.76 697.74 142.44 694.53 143.69 691.96 146.28 690.49 148.74 688.91 150.42 687.76 150.17 686.58 151.3 684.27 151.61 682.78 152.44 681.69 153.49 678.9 158.02 677.12 158.66 675.87 160.48 672.93 161.58 672.64 162.43 673.65 163.16 675.04 162.85 677.5 163.6 677.71 165.43 677.29 166.86 676.38 167.65 676.86 168.47 676.58 170.99 677.46 171.7 679.63 171.21 680.66 171.32 681.22 172.74 680.2 173.19 678.07 174.93 676.66 177.2 676.97 177.89 675.02 179.39 672.89 181.92 669.98 184.41 670.7 186.84 671.91 187.1 673.96 189.25 674.41 190.88 673.84 191.77 673.46 193.57 672.66 195.17 672.83 197.48 672.56 198.4 670.99 201.01 670.91 201.91 669.83 204.15 669.52 205.5 673.55 206.53 673.94 207.9 674.71 208.61 676.01 208.35 675.94 209.74 678.09 210.03 682.39 209.69 683.15 210.27 682 211.4 680.59 212.11 679.54 211.95 678.66 214.58 679.36 214.7 679.85 218.05 678.77 221.62 677.78 221.95 676.1 219.02 674.45 219.81 672.56 222.5 671 222.95 670.74 223.57 668.63 224.84 667.42 226.24 665.7 227.68 665.77 228.39 663.73 230.48 663.48 231.22 666.1 232.46 667.28 232.42 666.54 234.45 666.38 237.1 664.62 238.21 664.25 240.08 665.18 240.48 668.25 240.97 671.36 242.76 673.56 243.41 675.11 243.57 674.97 244.91 671.84 245.29 669.67 245.92 667.85 247.46 667.09 248.99 665.78 250.76 663.73 251.49 660.25 253.94 659.48 255.06 658.69 257.03 655.58 257.12 654.47 258.87 655.41 260.59 655.5 262.48 653.15 265.01 649.48 265.05 649.21 265.86 649.85 267.27 647.99 268.18 639.19 271.83 635.42 273.65 630.52 277.56 631.37 277.92 633.99 277.94 635.08 278.88 638.19 278.49 640.81 278.95 640.83 280.46 646.39 281.72 648.6 281.84 650.75 281.4 653.78 281.46 655.43 281.01 657.41 282.04 659.36 282.09 664.69 281.75 665.91 281.88 665.73 283.01 664.08 282.68 663.36 283.2 663.07 285.25 661.31 286.32 660.3 287.67 656.82 288.31 655.82 289.42 652 291.02 654.23 291.79 650.06 293.96 649.63 294.59 654.35 294.9 658.77 294.94 664.1 295.37 665.8 296.47 665.21 298.41 661.68 300.79 661.2 301.45 662.66 302.41 665.87 303.15 668.58 304.63 669.83 306.36 671.15 307.34 672.61 307.57 671.69 308.9 669.93 308.95 668.25 310.02 665.3 313.76 664.09 314.25 661.27 316.27 660.24 316.61 659.21 316.26 658.42 316.98 659.43 320 659.33 321.21 656.42 320.26 655.17 321.34 653.54 320.56 652.91 319.62 650.52 319.43 649.73 319.96 647.88 319.06 646.96 319.36 646.71 320.3 648.06 324.06 645.22 327 644.36 329.61 642.75 331.5 643.67 331.55 648.34 330.02 646.76 331.77 647.71 332.1 647.89 333.29 645.13 334.62 645.1 336.6 643.06 338.07 638.92 337.7 638.28 336.79 636.75 337 635.98 337.91 636.2 339.05 637.18 339.33 638.24 338.72 639.95 339.51 641.99 339.94 642.57 341.38 641.99 342.59 640.79 342.21 639.95 342.58 639.46 344.67 637.29 347.46 636.16 348.6 635.36 350.16 635.26 351.28 638.16 349.82 639.36 348.79 641.35 348.55 642.65 347.21 643.78 346.67 644.95 347.07 648.03 345.26 649.21 345.84 649.86 348 647.85 350.62 647.74 351.69 650.62 350.44 654.95 349.09 655.26 347.87 656.69 347.06 658.28 346.99 659.7 347.94 660.56 346.88 661.79 344.07 663.44 341.6 661.11 342.63 660.48 341.98 658.37 342.3 655.51 343.07 655.04 341.93 656.43 341.53 658.04 340.46 660.45 340.01 661.25 339.38 661.67 338.06 662.9 338.39 663.58 337.23 665.89 336.17 665.84 337.89 664.83 339.88 666.11 340.61 666.42 341.67 669.17 340.84 670.19 340.16 674.97 338.37 676.24 337.7 677.31 337.89 678.54 338.92 682.21 339.8 683.32 342.47 682.94 345.34 683.74 346.26 683.8 349.28 688.25 345.34 689.38 344.59 690.48 344.52 691.45 345.11 692.32 347.14 692.84 344.8 693.67 342.44 695.25 341.78 698.08 342.56 699.42 342.07 698.76 337.31 701.48 336.29 702.13 334.14 701.07 333.48 700.06 330.82 699.99 329.52 704.1 329.08 704.71 328.25 704.9 326.62 706.22 325.61 706.92 326.65 707.23 330.66 708.08 331.6 708.34 333.84 707.2 336.53 705.25 337.85 704.85 338.98 703.68 339.55 703.21 340.93 703.22 342.65 702.27 344.23 701.59 347.49 699.63 348 698.41 349.22 697.54 350.74 697.02 352.49 697.56 354.11 697.13 355.86 698.48 357.01 697.68 359.21 696.43 359.21 695.44 358.52 693.95 358.62 690.79 357.75 689.24 358.55 688.17 362.79 689.07 366.47 688.7 367.91 687.47 369.41 685.47 369.98 684.97 370.7 684.45 373.28 682.21 377.97 682.77 379.44 681.95 381.5 681.89 382.9 681.34 384.04 682.84 386.89 682.35 388.53 682.86 390.03 684 391.24 684.31 392.4 683.07 393.42 683.31 395.12 685.32 396.83 686.52 400.63 686.18 401.4 687.64 402.23 688.56 403.27 688.24 404.92 690.42 405.51 692.68 405.61 693.13 406.6 693.24 408.84 693.7 410.23 691.73 411.83 690.98 415.03 689.28 415.57 688.37 417.09 689 417.76 689.12 419.39 688.08 420.48 686.98 423.15 685.87 424.65 684.94 427.35 685.73 427.98 690.07 427.88 690.76 428.1 689.7 429.63 689.2 431.65 686.89 431.38 685.15 431.76 682.19 428.47 680.33 428.55 679.16 429.51 678.06 427.8 677.07 427.59 674.31 428.67 674.23 427.84 673.27 426.32 672.6 426.91 671.34 426.68 670.82 427.7 669.79 427.9 669.29 429.18 669.63 430.63 667.43 430.52 666.48 430.99 667.25 432.78 669.69 433.74 669.81 435.28 668.63 435.59 666.58 437.01 666.32 439.12 665.71 440.5 664.2 442.46 663.62 443.74 665.45 444.63 667.06 444.35 670.34 445.86 670.37 446.84 668.44 448.51 668.08 449.7 666.64 451.49 666.52 453.6 667.44 455.11 663.66 456.01 666.44 460.32 667.13 461.76 665.56 463.77 666.18 464.87 666.32 467.65 668.68 469.82 667.75 470.84 665.65 470.94 664.19 471.76 661.93 474.32 661.68 474.97 663.57 477.11 664.05 478.91 662.58 480.02 662.71 481.09 663.93 483.23 664.96 483.97 663.15 484.6 661.91 486.34 661.86 487.84 660.8 487.68 659.18 488.44 659 489.23 660.58 493.22 656.58 492.21 654.95 490.29 654.23 490.24 653.21 491.62 653.91 493.84 655.39 495.57 655.54 499.16 653.93 500.7 651.3 501.1 650.58 501.59 650.86 503.18 650.26 503.9 647.94 504.1 645.98 505.24 648.59 507.08 644.4 510.06 640.35 512.44 640.64 513.1 642.55 511.93 643.74 511.76 647.21 510.33 649.13 509.74 656.48 508.84 658.48 509.76 660.16 510.01 661.52 508.51 664.1 507.43 665.79 507.43 666.43 508.02 666.74 509.48 668.46 509.85 669.54 511.23 672.89 511.73 674.85 511.65 674.61 513.56 673.43 515.17 672.93 517.06 671.45 518.93 670.01 519.8 668.57 521.72 668.5 522.55 667.5 523.63 665.41 524.89 664.09 524.98 663.24 526.15 661.11 525.53 658.36 525.22 656.69 524.66 654.24 524.69 652.78 524.37 649.66 525.18 646.41 524.93 645.77 525.35 645.46 528.12 643.24 528.84 640.68 528.13 639.87 528.77 638.05 529.3 636.42 528.94 634.69 529.04 633.44 529.56 631.24 529.47 627.75 530.9 628.21 532.79 626.14 534.25 624.06 535.25 623.66 536.47 626.69 537.97 629.3 538.96 630.32 539.71 630.05 540.48 627.41 542.14 627.5 546.71 626.76 548.08 625.53 548.48 624.71 550.94 623.46 552.16 625.45 552.48 630.54 553.98 629.55 555.31 629.6 559.3 630.01 560.98 629.17 562.34 625.8 565.29 622.85 566.26 622.55 566.88 620.34 568.31 619.56 569.41 614.92 571.55 611.92 573.33 610.75 574.9 613.91 576.05 614.68 576.84 616.45 577.76 616.32 580.41 617.43 583.2 616.77 586.29 617.95 586.46 618.73 585.01 621.49 583.07 623.17 583.37 623.55 583.88 626.38 585.6 625.69 587.34 623.32 588.98 624.23 590.82 626.06 592.1 627.77 592.4 628.22 594.95 627.63 596.31 627.59 599.26 627.95 601.7 628.38 601.86 631.61 600.23 632.93 600.14 633.08 602.73 635.2 601.1 638.63 599.17 641.34 597.98 642.63 597.94 646.41 595.3 648.06 596.27 647.41 597.78 646.1 599.38 644.28 600.23 643.63 601.37 643.69 603.36 639.91 606 638.39 606.69 638 607.49 640.38 608.29 640.95 608.97 643.67 608.81 644.65 609 645.29 609.93 643.35 611.22 642.15 613.45 641.27 613.93 639.74 615.62 638.31 615.21 635.98 614.09 632.75 613.59 633 615.49 633.69 616.31 632.68 619.06 633.46 620.72 632.98 621.91 633.19 623.2 632.17 624.17 631.64 625.76 629.34 627.54 629.4 629.57 626.62 633.04 625.98 634.49 625.12 635.35 624.31 637.26 624.68 637.63 628 636.26 629.2 636.4 629.89 637.29 630.95 637.17 632.25 635.99 633.46 637.26 634.29 637.17 637.19 634.95 638.86 634.26 642.87 633.9 643.78 636.11 643.85 637.36 643.46 639.92 642.28 642.03 640.21 642.27 637.98 643.12 637.59 643.75 635.57 644.05 634.17 644.71 633.55 645.62 633.31 647.29 632.2 647.37 631.71 644.07 630.44 644 629.89 644.69 626.77 645.89 624.53 647.93 621.73 649.48 619.74 650.81 619.1 651.82 617.26 652.56 616.45 653.93 615.51 654.33 614.75 655.46 615.24 656.76 613.74 657.77 611.97 658.48 611.75 659.39 612.19 661.01 610.2 661.26 609.27 662.19 606.86 662.76 604.4 662.19 603.05 660.69 602.31 660.67 601.7 662.17 601.84 663.67 601.16 664.5 599.29 664.53 598.67 665.93 599.98 667.04 598.65 667.77 594.47 667.63 594.13 667.11 592.26 667.39 593.26 668.73 595.75 670.36 592.55 671.61 592.92 672.52 597.27 673.8 597.94 676.8 599.88 675.91 600.54 676.22 601.38 679.78 603.47 683.39 605.68 684.62 606.56 685.78 608.24 685.75 608.88 686.61 611.04 687.22 611.65 688.52 611.69 690.18 613.72 694.69 611.19 695.85 610.4 697.3 610.32 699.29 612.64 701.43 612.57 703.48 612.83 705.68 609.88 709.94 608.29 710.7 607.84 712.81 606.27 714.36 611.75 714.46 612.53 714 614.33 713.82 617.97 713.82 620.18 714.66 622.57 715.18 623.77 716.4 624.71 716.53 627.26 715.49 628.15 717.29 629.92 718.74 630.11 721.49 629.45 724.54 628.27 725.75 628.29 727.76 629.31 728.44 630.43 727.88 630.92 726.78 632.89 724.32 634.96 723.02 637.76 719.4 640.12 718.74 641.25 718.15 642.75 718.22 645.48 719.26 648.03 719.23 648.77 718.05 648.89 716.77 647.49 713.9 648.06 713.31 649.21 714.26 652.11 714.9 653.27 714.34 654.77 714.26 657.65 714.63 658.55 713.31 656.71 710.01 658.31 709.18 659.07 707.55 661.48 706.91 662.29 704.46 662.09 702.22 663.69 703.82 663.84 706.32 664.28 707.43 665.68 709.22 666.4 709.67 666.28 711.65 666.94 712.72 666.82 713.71 663.37 716.81 662.5 718.05 659.68 718.35 659.88 719.17 658.82 719.58 657.93 718.48 656.67 718.03 654.2 718.22 653.29 718.67 649.76 718.54 647.16 720.13 646.49 721.7 646.69 723.07 647.87 724.59 647.8 726.56 644.68 728.97 645.4 731.76 642.67 732.09 640.68 730.89 639.33 730.83 638.09 731.61 637.93 733.83 637.33 735.08 637.01 737.91 634.95 740.96 635.3 742.38 638.71 742.46 637.91 743.33 633.87 744.11 633.11 745.28 633.25 746.6 636.6 749.62 638.97 750.48 637.81 751.23 636.15 753.05 636.12 753.77 637.21 754.91 638.33 755.48 639.46 756.78 641.18 758.18 639.53 758.43 634.5 758.37 632.55 757.63 631.31 755.92 629.86 752.27 629.44 752.25 626.8 754.48 625.27 756.67 624.8 758.62 623.26 759.21 622.43 760.46 621.78 763.15 621.23 764.01 619.47 764.26 618.32 765.29 618.47 766.98 620.29 771.2 620.06 772.3 618.98 772.71 617.46 774.05 615.8 773.64 615.14 774.52 613.84 775.24 611.6 774.63 610.18 773.52 608.5 774.89 607.86 776.67 608 777.6 611.23 781.37 612.05 784.71 609.18 785.14 608.24 785.92 606.04 786.21 602.59 787.06 602.37 788.03 603.85 789.91 603.95 790.7 605.23 794.18 607.77 796.09 608.11 797.57 610.92 799.32 612.7 803.42 614 805.47 614.76 802.98 615.64 802.66 617.19 804.02 618.04 803.96 619.3 804.75 618.35 807.21 618.43 809.55 620.38 811.52 621.37 814.54 620.55 816.47 620.73 817.89 623.19 821.2 625.48 823.05 626.45 823.56 626.21 824.71 626.71 825.89 627.73 826.89 630.39 827.49 630.75 826.02 632.57 824.64 633.07 823.9 634.68 823.6 632.2 827.75 630.95 828.01 630.07 829.84 628.76 829.51 627.24 830.55 625.76 830.87 623.67 831.88 623.62 833.36 621.41 836.82 621.46 837.97 618.8 838.06 618.28 839.85 618.95 843.28 618.72 845.13 620.38 846.99 621.14 848.35 618.83 849.4 614.61 849.82 613.58 850.69 611.77 849.52 610.09 849.8 608.75 849.52 607.33 847.51 602.46 848.7 600.68 850.11 599.65 850.29 598.36 851.23 597.61 852.45 597.28 853.96 596 854.11 594.53 854.97 593.34 856.81 593.71 858.08 592.04 858.96 592.05 860.65 590.25 862.39 589.19 864.06 586.88 865.56 585.76 865.35 583.13 864.29 582.7 863.22 580.27 862.18 578.01 863.1 576.25 864.65 575.4 863.58 573.98 863.34 571.76 860.54 569.32 859.87 567.69 860.53 566.83 862.08 566.33 863.86 566.3 865.42 565.31 867.26 564.24 867.56 562.54 866.87 563.34 864.78 563.37 863.49 561.65 862.54 561.18 860.74 558.89 860.65 557.92 861.42 557.68 862.6 556.57 862.85 555.53 864.04 554.76 863.35 555.44 862.33 554.6 860.76 553.83 860.78 551.43 861.98 550.54 860.14 547.59 859.71 546.67 860.46 543.87 861.56 543.08 861.55 541.05 860.31 539.8 860.73 539.13 864.34 540.22 867.01 540.48 868.29 541.57 869.41 541.81 871.05 540.77 871.15 539.2 868.65 536.65 866.2 535.45 865.8 534.04 867.11 533.25 868.57 532.02 870.04 530.64 872.46 525.05 873.5 524.48 873.86 525.07 875.36 527.29 877.02 526.18 877.49 525.55 879.32 527.3 880.77 526.27 881.24 524.39 881.46 524.33 882.52 523.63 883.05 523.43 884.39 522.21 885.42 521.94 887.07 519.71 889.31 516.99 890.51 514.34 894.59 515.25 895.07 515.63 897.85 515.4 899.81 514.48 900.19 512.97 902.13 510.8 904.34 510.15 905.48 508.8 905.07 508.07 903.5 506.35 904.57 505.24 907.26 504.34 908.42 501.96 908.89 502.74 910.29 499.4 911.08 498.68 912.66 499 913.55 497.72 914.29 496.27 916.16 494.53 916.83 492.12 915.82 490.26 916.47 487.96 918.36 488.15 919.61 489.36 920.89 487.44 922.32 487 923.5 484.21 926.35 482.74 927.47 484.6 927.65 485.09 928.1 482.9 929.06 480.77 929.04 477.76 930.35 476.7 932.31 475.24 932.6 472.92 932.27 471.38 931.42 468.29 930.89 465 931.34 463.19 930.28 460.49 930.92 459.2 932.64 459.94 938.88 459.28 940.26 459.54 942.03 458.26 942.52 455.54 942.14 452.74 941.07 451.78 941.51 451.68 942.58 446.8 941.87 446.2 942.03 444.7 943.77 444.61 944.66 442.01 944.59 440.51 946.57 438.09 946.1 436.39 946.77 433.36 949.75 432.49 951.09 432.47 952.51 433.17 954.29 432.69 957.37 430.5 957.04 428.74 954.4 426.64 953.87 425.79 954.06 422.77 953.44 419.02 953.44 417.37 954.8 417.84 957.54 416.67 957.99 415.29 957.62 414.32 958.06 413.03 959.33 413.08 960.27 413.94 962.58 408.92 963.81 408.11 964.54 409.15 967.65 407.62 969.16 407.43 971.82 408.29 972.17 408.52 974.69 408.02 975.9 408.21 978.54 406.31 979.18 403.13 981.55 404.64 981.84 405.53 982.54 407.65 983.01 409.7 983.78 409.67 985.38 410.25 987.18 408.56 988.26 408.77 990.31 407.37 990.55 405.76 989.92 404.68 990.76 404.76 993.08 403.67 994.23 404.07 995.79 403.45 997.47 402.23 997.44 402.1 998.52 401.17 999.48 398.56 999.87 397.38 1002.01 397.34 1003.31 394.63 1004.95 393.35 1006.08 393.7 1006.59 395.63 1007.3 396.29 1008.62 398.22 1010.2 399.33 1013.35 399.94 1013.82 397.76 1014.92 397.53 1016.24 400.89 1016.69 403.5 1015.03 404.39 1015.94 406.63 1013.61 406.41 1012.04 407.46 1010.49 407.72 1009.37 409.49 1007.55 410.29 1007.96 410.49 1009.78 410 1011.13 409.2 1011.85 410.16 1013.46 409.82 1015.08 410.23 1015.73 410.24 1017.56 411.52 1018.17 412.04 1020.02 410.67 1022.73 410.43 1024.81 411.21 1025.32 411.58 1027.73 411.33 1029.08 413.78 1034.5 415.27 1035.21 415 1036 413.34 1036.21 411.99 1037.15 412.63 1038.29 414.13 1039.33 415.3 1039.42 415.01 1040.89 412.68 1041.93 412.89 1043.41 412.23 1045.06 415.41 1048.11 417.4 1048.62 417.19 1049.72 415.07 1051.03 413.67 1050.98 413.07 1052.14 410.46 1052.31 409.17 1053.83 409.26 1056.29 412.16 1057.51 413.89 1057.27 416.49 1057.59 416.66 1059.55 414.07 1060.31 412.94 1061.42 411.83 1063.5 411.48 1065.42 410.15 1066.52 409.11 1068.16 406.69 1068.31 406.08 1069.79 404.02 1069.62 403.05 1068.2 401.55 1068.43 400.41 1069.59 400.13 1072.08 402.27 1072.64 403.09 1074 403.1 1074.96 401.65 1076.84 404.1 1077.31 405.75 1077.99 407.77 1077.92 409.44 1079.12 411.35 1078.95 413.55 1080.11 412.15 1081.27 409.65 1082.34 406.65 1082.63 404.66 1082.56 403.09 1082.16 401.56 1082.56 400.86 1083.95 399.31 1085.47 400.09 1088.65 398.65 1090.17 397.52 1089.62 393.61 1089.15 392.43 1088.41 389.41 1088.24 388.61 1089.05 386.97 1088.78 385.36 1089.6 382.99 1089.47 379.69 1090.5 375.09 1089.89 374.28 1089.1 373.28 1089.8 371.23 1089.54 368.23 1090.71 367.61 1092.4 368.74 1094.22 368.88 1095.24 367.2 1096.19 362.35 1096.88 359.86 1098.17 359.55 1099.79 361.04 1102.1 362.55 1103.55 364.84 1104.48 367.23 1106.63 369.44 1107.4 368.21 1110.3 366.23 1110.91 366.09 1111.82 364.68 1113.56 363.56 1114.16 363.38 1115.23 360.41 1117.97 358.95 1117.88 358.2 1118.57 357.04 1118.55 355.85 1119.57 353.72 1119.82 353.81 1121.35 351.91 1122.89 349.78 1123.84 347.81 1124.34 346.06 1124.31 342.75 1126.88 341.69 1127.2 341.1 1126.57 338.89 1126.07 337.14 1126.52 335.08 1126.39 333.54 1125.8 331.41 1126.43 328.87 1128.35 327.84 1130.09 327.78 1132.39 329.57 1132.44 329.26 1133.32 328.01 1134.73 327.93 1135.65 325.3 1136.12 324.5 1136.6 322.7 1136.14 321.28 1136.38 317.6 1136.38 317.38 1137.02 315.54 1138.75 315.51 1140.09 314.78 1141.64 312.76 1143.25 311.53 1142.41 308.86 1142.5 307.77 1142.03 304.89 1144.13 302.83 1144.57 301.7 1145.34 299.77 1145.74 297.85 1146.68 296.57 1146.38 293.45 1147 291.18 1149.19 290.09 1150.95 287.63 1150.44 287.91 1152.17 286.16 1152.94 284.63 1154 288.93 1148.13 288.15 1147.93 288.65 1147.06 292.92 1146.66 295.95 1144.32 298.41 1144.59 300.21 1143.75 304.17 1143.16 305.62 1142.17 309.31 1140.41 309.37 1138.24 310.92 1136.82 311.11 1136.18 312.75 1135.12 313.69 1133.47 314.39 1131.06 313.93 1129.98 314.24 1128.37 312.63 1124.96 310.79 1124.54 309.27 1122.15 310.58 1120.52 309.22 1119.34 307.57 1120.24 306.87 1118.43 302.75 1116.11 301.59 1113.99 300.43 1110.04 301.48 1109.06 301.7 1107.42 301.27 1106.04 300.38 1105.01 301.09 1104.51 299.95 1103.23 300.37 1101.45 299.49 1101.14 299.41 1099.49 298.51 1098.18 296.83 1096.73 295.74 1097.29 294.43 1096.07 293.76 1096.58 292.15 1096.04 291.75 1094.82 290.23 1093.79 287.75 1093.25 287.55 1095.16 285.47 1096.1 284.75 1095.77 281.98 1095.6 280.63 1095.83 276.31 1094.78 272.35 1092.99 271.41 1089.62 272.27 1087.49 272.81 1082.72 273.93 1078.46 276.09 1077.62 275.56 1077.03 275.96 1075.88 274.96 1074.91 273.82 1075.77 271.92 1075.59 269.08 1072.88 269 1071.45 268.25 1070.31 266.46 1069.26 267.21 1068.53 268.79 1067.85 268.48 1066.46 267.04 1064.96 267.98 1063 270.06 1061.69 272.06 1060.87 272.42 1059.79 271.66 1057.6 270.36 1054.67 271.11 1053.06 272.76 1052.46 273.75 1050.29 275.7 1047.67 277.16 1044.88 277.33 1043.54 274.99 1039.16 275.17 1036.49 274.69 1035.28 272.35 1034.19 270.45 1033.61 268.01 1032.29 267.12 1031.4 269.13 1027.73 269.46 1026.23 268.76 1025.36 267.63 1021.24 264.41 1021.56 264.87 1022.81 264.35 1026.19 262.15 1027.39 261.12 1027.35 259.12 1029.3 257.29 1030.71 255.66 1032.33 251.23 1032.55 249.02 1031.63 247.8 1029.62 249.12 1026.84 248.89 1025.77 246.56 1023.44 245.47 1023.41 242.51 1021.18 239.25 1018.1 237.07 1015.09 236.52 1012.99 236.7 1009.14 236.21 1006.74 234.78 1002.71 234.74 1001.27 233.24 999.4 232.29 996.99 232.89 995.57 232.75 993.99 231.8 991.97 230.82 987.7 229.75 984.98 228.53 979.4 227.51 976.45 225.63 973.72 224.07 973.19 220.64 973.07 218.48 973.57 212.93 973.65 210.9 972.92 209.5 970.73 208.47 966.1 207.72 965.53 205.93 965.87 204.31 968.2 201.86 970.29 196.69 970.96 192.18 970.98 190.39 970.35 188.64 969.1 187.41 967.82 185.19 963.58 184.65 961.85 184.29 957.8 184.85 954.16 185.4 952.85 186.9 950.43 188.27 946.9 189.23 941.64 190.69 938.81 192.52 936.82 195.27 934.67 197.32 931.98 201.74 927.84 203.12 926.89 204.1 925.28 206.88 921.47 211.15 918.97 212.44 917.43 215.04 913.23 215.82 912.48 219.22 910.31 220.57 909.24 223.21 907.67 226.78 906.11 229.22 906.01 230.78 905.22 235.08 902.01 235.75 900.6 235.2 898.44 233.44 896.03 230.54 894.33 227.76 893.32 224.14 893.37 221.56 893.15 217.47 892.07 216.04 890.66 214.14 889.52 212.75 887.61 211.85 885.77 211.51 882.69 210.05 879.99 208.36 878.71 203.43 876.67 197.71 876.89 195.91 876.84 192.48 876.18 191.05 874.94 190.71 872.82 191.57 870.46 192.84 868.75 195.75 866.27 198.06 865.22 200.22 865.36 203.04 863.58 205.47 862.52 207.36 860.43 207.3 858.25 206.12 856.01 204.74 854.56 199.04 849.06 196.8 848.32 192.99 846.67 190.19 846.09 187.25 846.2 186.08 846.92 184 849.04 180.62 851.24 178.48 853.14 173.44 855.78 171.62 856.33 163.39 858 160.27 859.18 154.87 862.07 152.28 862.75 148.79 862.37 147.72 861.61 144.97 858.21 144.23 856.53 141.19 851.76 140.7 850.71 136.79 847 136.46 845.89 136.41 842.39 137.91 835.7 139.24 832.04 145.73 827.37 148.08 826.2 149.38 824.52 150.07 822.7 149.9 821.46 145.4 815.74 144.84 811.37 144.43 810.14 144.08 807.31 144.84 805.58 146.47 803.44 146.91 802.34 145.45 797.37 147.94 790.23 147.84 788.96 148.11 783.13 150.48 778.6 151.32 776.22 151.42 773.91 151.11 772.55 149.92 770.8 149.2 769.11 147.26 768.11 144.36 769.24 141.72 770.95 137.4 774.03 136.25 775.03 134 777.76 133.4 779.16 133.67 782.97 133.49 784.78 132.32 787.43 131.48 788.63 128.79 790.2 125.56 791.22 124.07 791.93 118.21 794.01 115.05 795.47 114.04 796.55 112.48 800.22 112.83 802.07 115.79 803.04 118.52 804.41 120.31 806.02 120.68 807.14 120.66 808.82 119.09 811.79 118.18 812.93 113.93 817.01 110.89 821.54 108.61 824.37 105.16 827.85 103.7 829.83 102.79 832.07 102.68 833.17 103.09 835.73 103.78 837.64 104.45 842.35 106.13 844.39 107.77 845.33 109.41 845.29 112.19 846 114.6 847.99 114.99 848.63 114.43 850.12 111.26 852.2 108.54 852.68 100.34 852.88 94.7 852.26 91.86 851.67 89.6 850.22 86.92 847.14 85.85 844.74 84.87 843.34 84.19 840.9 83.75 838.23 82.28 834.95 80.01 833.22 78.75 832.6 73.48 829.37 67.13 828.5 65.83 827.76 63.92 825.52 63 823.92 62.9 822.62 63.17 818 62.95 816.14 62.14 814.62 58.5 809.06 55.18 799.76 54.63 797.02 51.94 790.87 50.63 789.86 46.99 788.4 43.38 787.88 36.14 789.96 35.19 790.45 37.16 787.72 32.08 792.02 29.43 791.38 28.17 790.79 27.64 789.67 27.89 788.36 29.03 785.32 29.43 782.45 30.35 780.38 30.74 778.57 31.75 777.83 34.82 777.62 39.85 779.43 41.6 779.86 43.43 779.87 46.26 778.9 47.77 778.05 51.28 775.29 55.46 770.63 57.91 769.23 60.27 768.24 62.99 766.52 63.87 764.84 63.79 762.75 62.97 761.43 61.27 760.42 56.8 758.94 54.21 757.84 50.49 756.9 49.05 756.77 47.83 755.82 47.34 753.73 46.61 752 45.5 750.9 44.13 746.13 42.6 742.55 42.06 740.81 41.44 737.45 41.34 734.89 41.51 732.96 41.4 730.03 42.39 726.63 47.19 719.98 48.68 718.43 50.23 717.64 51.63 716.16 52.6 714.57 53.28 712.8 53.39 709 54.27 705.47 54 703.06 52.41 701.8 48.16 700.84 44.66 699.61 42.91 699.38 40.95 700.34 40.58 701.68 39.88 708.85 39.83 711.24 40.2 714.69 40.73 715.37 41.02 717.62 41.01 720.3 40.59 722.34 39.75 723.56 38 724.42 35.96 724.07 31.37 722.01 29.43 720.53 27.18 717.94 26.04 715.53 25.68 713.5 24.53 711.62 22.98 709.95 20.16 708.38 16.99 707.37 12.82 705.42 7.94 702.19 6.83 701.65 4.54 699.98 1.55 697.47 1 695.47 1.22 694.11 2.26 692.32 4.03 690.91 6.47 689.85 7.32 689.01 9.81 688.16 13.12 687.47 16.4 686.36 19.14 685.06 20.05 684.33 22.25 683.57 25.55 683.6 35.7 684.75 39.83 684.71 41.37 685.63 43.13 686.21 45.14 686.02 46.57 685.47 49.09 682.81 49.23 681.85 48.71 679.4 50.01 675.02 53.43 672.19 56.21 670.99 59.9 670.93 61.87 671.55 63.14 672.72 63.67 673.9 63.28 675.92 61.97 678.36 58.8 682.31 58.08 683.91 57.22 690.8 57.49 692.48 57.48 695.28 58.07 697.62 59.13 699.19 61.34 701.71 61.96 705.98 63.24 708.11 65.64 710.73 67.95 711.82 69.36 711.65 71.1 709.88 71.81 709.73 72.48 706.7 71.58 701.14 70.85 698.33 69.71 696.24 69.56 695.2 70.95 692.24 71.99 691.62 73.38 691.5 83.12 693.83 87.48 695.65 90.53 697.78 93.53 698.85 95.82 698.72 97.06 698.11 98.69 695.89 99.26 692.83 100.26 690.48 99.62 687.6 103.28 685.09 105.14 684.27 107.7 684.14 111.03 684.93 112.51 686.66 112.76 689.35 112.25 691.35 111.04 693.63 109.84 695.3 108.18 699.4 109 702.33 110.38 703.23 113.39 702.99 117.04 701.28 120.38 698.99 124.5 695.1 127.3 693.2 132.03 691.03 135.77 690.22 145.86 687.31 148.42 685.97 150.64 685.45 151.75 684.85 155.89 683.71 158.59 682.3 160.41 681.95 164.37 682.53 167.23 683.15 171.31 683.17 173.6 682.6 174.47 681.15 174.55 679.29 173.94 677.84 172.14 675.4 170.1 674.15 165.29 672.47 162.26 672.09 159.98 672.47 156.27 672.24 153.82 672.58 151.19 671.73 148.68 671.94 145.54 672.95 141.78 673.41 139.94 673.15 138.83 672.02 138.28 670.11 139.69 666.93 141.15 665.21 142.44 663.2 144.06 660.09 145.21 658.5 146.79 657.36 151.96 656.83 153.69 656.22 155.09 654.87 155.11 653.81 153.77 652.08 152.68 649.96 152.15 649.58 149.09 648.91 144.95 648.7 143.26 649.37 140.6 649.39 139.36 649.07 136.59 649.05 135.43 648.75 133.71 647.51 132.9 645.57 133.28 640.46 133.84 638.2 133.83 635.45 133.57 633.51 134.24 631.83 134.96 630.98 135.89 628.49 136.08 627.27 135.82 624.73 134.45 622.42 130.08 619.94 127.02 618.54 125.26 617.96 122.48 617.8 120.04 618.38 116.5 619.73 112.28 621.59 110.58 621.57 108.95 620.92 107.86 620.05 105.81 617.3 105.87 615.99 105.33 614.05 104.91 609.14 103.85 606.62 99.91 604.01 98.11 603.35 94.13 602.66 87.47 602.76 85.74 603.03 83.86 603.69 81.6 604.09 76.08 604.67 70.56 604.37 65.46 603.58 61.43 603.37 55.46 603.25 52.75 602.69 50.82 602.05 50.3 600.66 50.76 597.66 50.68 596.17 51.74 593.88 51.99 592.29 51.71 591.14 51.44 587.37 50.79 584.25 51.1 583.16 50.38 580.3 49.78 577.01 49.42 573.83 49.4 570.95 50.5 566.9 51.42 565.41 54.07 562.67 55.55 560.68 57.27 560.08 59.55 560.57 61.36 561.61 64.82 565.16 69.43 571.93 71.9 574.45 74.08 576.18 75.82 576.97 77.07 577.08 78.49 576.5 78.99 575.23 79.12 568.61 80.18 566.46 81.52 565.46 83.5 565.44 92.04 564.77 92.96 564.61 95.3 562.49 100.26 560.84 103.98 559.95 105.88 559.86 107.71 560.26 109.7 562.01 111.5 564.99 113.18 568.89 114.75 571.35 115.92 572.57 120.57 575.74 124.33 577.81 128.54 580.61 131.61 582.94 132.86 582.95 133.67 582.28 133.99 580.59 134.06 575.7 133.67 572.65 134.07 569.54 134.92 565.77 135.15 563.54 134.94 561.43 134.16 559.52 131.83 554.64 131.49 552.96 131.97 550.37 129.94 546.02 129.6 544.03 128.73 543.24 126.89 542.76 126.25 542.24 121.52 540.19 120.96 538.69 121.14 535.83 121.91 534.85 124.25 534.16 128.84 534.65 131.51 535.1 133.49 535.02 135.44 533.97 137.94 530.8 139.48 529.68 140.96 529.28 142.49 527.4 145.85 527.6 147.71 526.98 150.03 525.08 150.93 523.15 150.78 521.9 149.26 518.69 149.14 517.37 150.23 511.93 151.05 509.83 150.9 507.22 150.06 506.17 145.09 503.83 144.24 502.91 145.34 501.2 146.82 500.07 146.89 498.88 144.38 496.76 144.46 495.97 145.87 494.64 148.52 494.59 149.64 493.94 150.13 491.05 149.57 489.97 147.31 489.21 144.62 487.23 146.31 484.53 146.32 483.45 145.4 482.81 143.8 483.01 139.97 485.68 137.52 487.97 136.18 488.51 134.78 488.35 133.77 486.14 133.48 484.75 132.74 483.42 130.24 483.01 129.37 482.23 129.14 479.85 129.82 476.23 130.81 473.27 131.59 472.2 133.15 471.31 137.87 471.36 138.73 470.21 138.56 469.28 137.01 466.19 136.53 464.77 135.76 461.04 136.29 459.53 138.02 458.11 139.49 457.83 138.87 456.53 135.26 456.16 134.53 455.77 131.52 455.89 130.66 455.11 131.31 454.03 135.07 451.75 135.3 450.91 134.43 448.22 134.65 447.19 136.35 445.13 137.76 444.05 138.67 441.18 139.82 440.51 142.96 439.8 142.93 438 141.3 436.27 140.28 434.09 139.25 432.94 138.39 432.77 134.59 434.03 133.93 433.38 133.79 431.37 134.57 428.56 134.51 426.74 135.48 425.52 138.43 422.94 139.16 421.69 139.16 419.17 137.11 416.62 137.22 415.77 139.33 414.63 143 413.15 144.47 412.33 145.69 410.83 146.56 409.09 146.09 407.95 144.29 407 141.01 406.69 138.22 407.18 136.76 408.11 136.04 406.89 137.18 404.03 137.3 402.7 135.93 401.32 134.57 400.65 135.22 399.47 137.84 398.55 138.49 397.66 137.19 396.23 135.26 395.68 133.7 394.21 133.72 392.9 134.73 391.39 134.62 390.3 133.61 388.77 132.18 387.27 131.92 386.2 132.23 383.78 129.67 379.65 129.15 377.88 130.43 377 133.69 375.55 134.9 372.86 134.38 371.38 132.55 370.16 131.36 368.88 129.86 365.64 129.7 364.6 131.29 360.79 131.51 359.5 135.04 358.56 138.06 358.35 139.34 357.01 141.44 355.98 142.54 355.01 143.07 352.24 142.89 351.15 143.86 348.86 147.78 347.71 149.15 346.42 149.84 344.37 151.03 343.6 151.8 342.33 151.28 338.05 150.79 337.27 149.25 336.87 148.86 336.19 150.01 334.95 150.85 334.77 151.78 335.69 153.24 335.46 154.05 333.26 154.5 332.89 154.15 330.85 155.21 329.81 157.15 328.7 157.95 327.63 158.05 325.31 158.48 324.02 158.1 321.45 156.66 319.56 156.45 318.78 158.28 316.53 160.21 315.08 163.97 313.36 165.1 312.36 164.86 309.4 165.31 306.33 166.12 305.05 167.25 304.47 170.64 304.46 172.25 303.99 172.79 303.28 172.27 302.19 169.83 300.62 169.67 300.22 173.81 294.56 175.47 293.64 179.11 290.57 179.73 288.62 181.06 287.08 183.9 286.42 185.15 285.48 185.48 283.53 188.3 282.64 189.82 281.74 191 279.95 192.49 279.88 196.21 282.09 197.51 282.19 199.08 281.81 200.17 282.58 201.55 282.41 204.27 280.49 207.25 279.8 208.73 278.8 212.12 279.06 215.03 278.39 216.94 278.18 218.95 277.57 220.59 277.49 222.69 276.58 222.83 276.11 225.05 274.27 225.11 272.86 227.02 271.21 228.21 266.99 227.94 264.29 228.23 261.33 228.03 259.48 229.43 257.75 230.78 256.66 233.39 256.03 235.75 254.79 236.68 253.96 237.15 252.72 236.62 251.49 236.99 249.1 239.64 246.8 243.23 245.35 244.98 243.88 245.62 242.94 246.42 239.69 246.9 239.01 248.85 238.75 251.24 240.02 253.83 239.71 256.89 242.19 259.79 243.57 261.93 243.66 262.71 243.12 264.83 240.51 267.38 237.85 268.05 237.47 269.89 238.29 272.04 238.08 273.36 237.24 274.33 235.71 274.96 235.68 276.27 238.41 277.06 239.07 278.67 239.08 280.65 239.52 281.43 240.66 282.43 241.02 284.25 240.85 285.22 241.49 287.29 244.1 287.74 245.13 288.92 249.62 289.79 250.58 291.98 251.51 294.52 251.06 300.01 249.36 303.32 249.79 305 249.09 307.8 247.54 310.63 247.51 314.61 246.9 316.5 246.95 318.44 247.68 321 249.75 322.06 251.25 323.03 251.94 327.2 253.51 330.17 254.79 332.05 256.07 332.75 257.45 333.22 259.56 334.11 260.84 335.17 260.63 337.47 258.93 338.9 259.12 341.86 260.53 344.12 261.27 345.65 262.26 346.64 262.37 350.19 259 351.66 258.36 357.9 257.93 360.46 256.51 361.08 255.79 361.46 254.24 360.91 253.41 358.78 251.88 357.09 249.85 357.03 247.61 357.88 245.6 360.69 243.31 361.3 242.1 361.73 239.75 361.62 237.11 362.23 235.51 362.16 234.23 361.55 233.02 361.85 231.67 362.95 230.15 363.89 228.16 367.8 226.13 368.83 225.01 369.54 222.64 370.87 221.59 371.12 219.81 368.73 215.77 367.73 212.45 368.02 210.54 369.59 207.16 370.65 202.96 371.22 201.62 371.31 198.43 371.07 194.71 370.38 194.25 363.79 191.41 363.59 190.69 365.01 189.09 365.22 185.34 365.67 184.15 365.36 181.64 365.54 173.83 366.29 168.35 366.4 164.07 365.46 159.94 364.38 157.88 362.89 155.95 363.24 154.91 364.32 154.02 366.68 153.31 369.64 153.02 371.95 153.08 376.19 154.16 380.05 156.03 382.28 156.84 384.29 156.57 386.58 152.53 388.32 150.58 388.86 149.32 389.61 145.99 389.67 144.64 390.84 140.75 390.66 139.45 390.89 136.84 391.82 135.74 393.25 134.97 396.03 135.61 397.91 136.86 399.65 137.07 402.26 136.85 403.87 136.02 405.07 134.48 405.94 133.93 408.63 133.87 410.61 133.41 412.45 132.64 413.22 131.73 414.14 128.31 415.19 126.75 417.86 124.26 420.55 120.9 420.83 119.23 419.95 115.8 420.07 113.05 420.98 110.94 421.27 109.16 421.75 108.66 430.34 107.52 436.72 106.13 438.09 105.44 440.35 102.95 441.56 100.58 442.26 98.39 443.52 98.4 444.77 99.59 446.95 99.53 448.67 100.44 450.28 99.81 453.85 98.98 457.89 98.42 462.79 98.22 468.62 98.94 470.37 99.4 472.03 100.99 473.89 101.37 478.15 100.21 481.01 99.1 483 99.37 484.82 99.17 486.62 99.37 488.18 100.91 489.91 104.62 493.51 106.34 495.47 108.05 496.62 108.18 499.56 107.55 501.66 106.06 502.77 104.37 504.05 103.08 506.85 98.99 509.08 98.06 512.12 98.36 518.92 100.31 521.65 100.65 523.2 100.37 526.06 98.61 528.64 97.55 529.86 97.64 531.08 97.07 531.98 95.88 534.86 94.04 538.4 93.15 540.95 92.27 542.62 90.38 542.57 89.23 541.62 85.19 540.5 83.42 542.01 82.34 544.87 82.44 546.23 81.14 548.38 77.47 549.68 76.53 551.71 75.64 554.19 76.04 556.76 74.6 558.84 75.06 559.95 76.45 563.12 77.56 565.89 77.98 568.46 77.38 569.87 76.36 571.99 72.71 572.26 71.76 570.36 68.47 570.12 67.06 571.43 63.82 571.79 59.65 572.36 58.06 576.17 51.2 579.11 47.25 580.14 44.81 578.8 43.28 576.34 41.72 573.51 40.51 570.64 40.91 569.7 40.59 569.84 39.61 571 37.86 571.82 35.24 575.21 34.78 577.65 34.23 579.36 33.56 583.61 32.62 586.75 31.34 588.22 30.99 590.59 29.6 592.28 27.66 594.32 24.61 596.47 23.04 597.35 21.66 597.22 18.43 597.58 17.17 597.28 14.8 597.99 12.8 599.76 9.28 601.73 6.14 602.23 4.98 602.66 1.6 604 1.1 606.69 1.66 609.07 1.25 612.39 1 616.7 1.52 619.57 2.9 625.09 4.04 628.2 4.05 629.53 4.71 631.46 4.62 632.17 5.32 631.78 7.99 632.86 12.17 633.69 14.18 634.47 15.11 639.09 18.09 642.38 20.66 644.39 22.46 646.11 23.28 648.11 23.41 655.96 22.17 659.44 22.08 662.46 20.63 669.76 18.75 671.93 20.34 674.57 20.8 677.38 22.48 680.98 23.17 684.66 24.55 688.86 22.46 690.3 22.07 692.42 20.43 696.46 20 698.04 19.51 700.94 19.56 702.77 19.94 707.74 21.71 711.21 22.61 714.25 24.51 716.58 27.03 718.98 27.92 721.99 27.53 729.33 26.04 732.24 25.64 735.32 24.44 738.22 23.65 743.31 19.46 745.63 18.62 747.56 18.87 748.58 19.42 750.07 20.91 752.56 22.78 754.85 23.18 755.29 22.04 754.41 20.75 753.65 18.66 754.04 15.06 752.99 12.27 753.59 11.07 755.6 10.88 759.86 11.7 765.73 11.79 768.81 12.54 771.17 13.57 772.57 13.85 776 13.06 778.61 11.3 782.73 8.03 784.65 7.32 787.25 7.73 787.97 8.96 790.49 9.51 791.68 10.21 792.64 11.72 791.9 14.91 792.25 17.3 793.02 18.78 794.18 19.57 796.58 20.56 799 22.92 Z"/>
</g>
</svg>