<?xml version="1.0"?>
<svg xmlns="http://www.w3.org/2000/svg" version="1.2" baseProfile="tiny" width="800" height="1043" viewBox="0 0 800 1043" stroke-linecap="round" stroke-linejoin="round">
<g id="4202206">
<path d="M 775.58 351.87 771.97 359.53 772.9 362.22 776.74 362.91 778.42 365.77 778.89 368.59 778.4 372.03 776.17 374.61 774.4 378.65 772.4 381.65 767.55 385.76 763.66 386.8 762.3 388.17 766.28 391.65 768.37 393.04 769.72 395.03 772.32 400.19 774.4 406.11 779.41 410.68 780.41 412.39 780.98 415.58 780.5 418.3 779.05 421.3 778.53 423.45 779.98 426.48 782.07 428.21 784.49 432.77 786.43 434.52 789.88 435.19 795.46 437.12 797.18 439.08 797.24 441.28 799 447.73 798.45 449.52 795.7 450.88 792.76 450.46 782.46 451.93 779.47 453.67 779.04 456.01 780.59 458.34 781.77 464.19 783.53 468.19 788.1 470.92 788.65 472.49 789.13 479.43 792.08 481.96 796.27 484.04 798.03 486.05 798.4 490.36 798.04 500.74 791.92 505.06 789.05 508.04 788.33 510.36 788.33 513.76 789.01 517.51 788.95 519.75 785.1 524.14 783.92 526.78 780.89 530.29 779.74 533.5 781.53 542.62 784.28 545.41 790.31 548.23 793.04 551.16 796.31 552.5 796.95 555.04 793.98 556.95 792.99 558.89 792.01 563.54 792.07 566.63 792.95 571.47 790.7 571.4 788.34 572.03 784.32 574.42 782.8 579.04 782.59 581.18 780.92 583.65 774.28 588.88 771.98 590.03 770.97 591.66 765.87 592.66 762.37 598.33 758.83 598.16 756.92 598.97 756.09 601.18 753.32 603.06 752.16 605.13 748.9 605.8 746.63 607.65 743.92 610.96 742.56 611.74 740.33 615.13 738.91 619.85 736.29 622.22 734.04 622.72 730.79 621.07 728.42 620.99 724.82 619.59 721.19 619.34 714.74 618.19 710.56 616.78 699.29 617.62 694.54 620.49 688.3 626.47 686.89 629.11 687.26 630.7 691.04 635.78 693.07 639.1 693.41 644.8 696.93 652.52 699.95 655.95 699.78 657.14 697.41 658.14 694.29 661.02 690.97 661.95 687.11 660.85 682.35 661.51 681.39 662.45 680.53 665.41 679.01 666.9 673.85 668.45 670.92 668.72 669.09 670.52 669.27 673.82 668.75 676.14 665.39 677.9 664.42 681.4 661.84 682.23 659.07 686.48 655.51 687.86 652.61 687.87 649.83 689.15 646.87 688.67 644.36 690.69 643.29 693.09 645.62 698.46 647.29 703.69 648.58 705.14 651.93 707.4 654.15 710.7 654.61 713.27 653.92 715.15 648.11 721.2 648.7 726.75 647.83 728.26 644.45 730.35 638.93 732.35 636.18 732.86 627.58 733.09 623.3 736.11 622.63 738.75 623.47 739.78 623.92 742.41 621.06 743.76 620.03 745.03 619.95 748.72 618.74 752.58 613.56 760.05 610.86 763.44 605.22 767.5 600.7 772.89 597.91 774.69 589.19 778.1 579.28 781.35 576.66 782.81 572.79 785.97 568.09 785.19 565.24 786.16 563.03 785.94 557.29 786.48 552.92 785.71 548.26 784.02 545.59 784.53 541.47 784.53 540.5 785.39 538.15 789.34 536.35 791.31 532.09 793.63 532.11 796.44 534.14 801.42 533.2 808.33 533.52 812.05 535.32 814.92 537.09 821.09 529.85 828.23 527.73 829.55 524.22 832.97 520.53 837.92 520.6 841.36 522.08 845.86 522.37 848.26 524.05 853.97 522.81 857.3 521.02 858.41 513.86 861.17 510.94 863.34 509.4 866 508.66 873.92 509.05 876.62 505.68 883.64 505.43 885.75 505.79 890.17 508.07 895.62 507.63 897.26 505.24 898.22 503.31 900.04 499.48 904.93 496.41 907.46 489.48 912.6 482.96 915.32 479.25 916.14 477.38 915.83 472.04 913.68 470.04 916.01 463.65 920.63 460.56 922.36 459.33 925.29 458.84 931.79 459.27 934.38 461.45 938.01 461.98 941.07 460.07 945.15 456.99 946.37 456.16 947.52 455.46 951.8 453.03 953.88 450.26 954.87 446.16 955.08 438.34 953.57 423.88 952.5 414.68 953.13 411.15 954.07 409.63 956.14 405.84 959.65 403.88 963.87 402.28 966.08 402.42 967.43 403.95 969.79 403 971.14 398.35 972.12 394.68 970.88 393.26 970.92 389.41 972.48 387.77 975.03 389.19 976.48 387.62 978.37 386.79 980.95 384.17 982.22 381.37 984.52 381.59 987.1 384.76 989.58 384.62 991.54 382.45 993.48 379.67 995.12 378.86 998.91 377.44 1000.95 374.17 1003.42 371.59 1006.8 367.88 1010.72 362.36 1015.01 360.65 1020.21 359.38 1021.59 356.94 1022.54 354.47 1022.58 347.89 1021.92 344 1022.36 340.43 1025.99 336.87 1026.83 334.62 1024.36 329.89 1021.52 328.26 1019.78 325.13 1019.85 322.04 1021.05 321.2 1022.36 321.82 1028.5 321.02 1032.17 318.84 1033.63 317.71 1036.24 313.82 1039.8 312.25 1042 309.73 1041.08 307.88 1039.36 295.98 1035.47 289.18 1035.13 286.62 1033.29 284.5 1032.85 280.4 1033.08 278.15 1031.38 276.64 1031.12 268.59 1031.63 265 1032.88 259.51 1031.99 256.71 1032.69 252.89 1032.7 250.78 1032.16 245.59 1032.05 238.79 1032.88 237.14 1032.45 233.58 1026.85 232.02 1025.25 228.79 1023.97 225.5 1021.54 222.67 1017.17 221.32 1013.1 219.61 1010.61 216.33 1007.68 212.94 1004.02 208.53 996.97 205.42 995.65 202.19 992.56 200.13 991.11 198.24 990.65 194.3 991.87 186.22 990.88 181.73 987.71 176.97 985.49 172.66 982.69 171.67 980.68 170.94 977.36 167.77 976 164.85 974.03 162.07 973.1 162.07 970.7 163.38 967.72 162.36 964.63 159.59 959.22 159.22 956 158.15 953.29 158.83 950.78 157.34 947.19 155.77 946.04 153.21 945.75 152.07 940.2 153.32 936.68 153.58 934.25 151.48 931.64 148.66 929.92 146.57 926.94 144.95 925.68 139.88 923.69 135.74 923.47 131.54 924.71 124.75 925.96 123.98 925.19 122.93 920.43 121.08 918.78 118.28 918.88 113.94 917.65 113.25 916.09 110.57 913.81 107.43 914.18 103.48 912.95 102.67 908.53 96.22 903.91 93.91 903.07 87.38 902.13 83.12 902.11 79.64 899.98 79.01 896.92 75.96 893.05 70.23 891.31 67.17 889.65 63.68 890.55 61.8 889.77 60.86 887.68 60.12 882.78 57.85 880.44 53.49 879.67 48.5 880.68 44.77 879.4 43.8 875.76 42.73 873.83 40.21 872.45 32.71 870.79 26.81 869.78 20.83 869.37 19.63 868.06 19.22 864.46 19.64 861.96 21.05 857.83 21.5 855.13 21.21 852.88 17.68 847.19 17.26 843.97 20.03 839.84 19.39 833.8 17.86 831.92 14.23 831.32 11.06 829.51 9.65 827.42 6.36 825.57 5.57 820.63 4.45 817.67 4.24 814.12 2.17 810.65 3.21 808.49 3.3 806.67 2.3 804.77 2.66 801.08 4.68 797.68 4.09 794.98 1.91 790.75 1.04 786.37 1 782.48 1.82 778.26 3.95 773.6 4.63 769.68 7.76 763.37 11.66 760.37 12.16 759.44 8.86 752.82 8.85 750.46 10.56 745.28 12.98 744.8 15.77 745.09 17.57 745.81 20.59 750.04 21.98 750.82 25.12 748.75 27.21 748.23 31.55 746.24 38.82 744.67 42.43 745.4 44.15 745.25 52.19 738.7 52.83 736.78 52.51 733.79 53.03 730.57 58.27 727.26 69.04 716.18 74.85 712.47 76.73 710.38 76.83 706.19 78.61 701.75 78.4 699.4 75.71 694.61 72.18 692.76 68.6 692.51 65.39 691.57 63.92 690.4 63.48 687.97 64.94 680.89 67.08 676.76 68 672.94 69.2 670.56 71 668.52 71.45 665.34 70.61 661.62 68.05 658.93 66.14 654.7 65.83 653 66.53 650.98 71.92 643.23 74.41 641.91 80.03 641.31 89.14 638.7 99.08 632.83 103.33 629.3 106.34 624.88 109.73 620.95 110.8 618.33 109.52 615.85 105.78 611.75 104.21 607.03 102.58 604.61 104.15 600.72 105.83 598.93 111.11 595.81 113.95 592.97 115.93 591.76 118.42 588.93 121.25 587.14 124.81 587.29 129.14 585.7 130.81 584.45 130.98 582.19 130.13 579.44 130.05 577.09 128.82 567.5 128.14 566.02 125.9 563.94 124.65 560.87 123.92 557.58 121.74 552.56 122.31 549.66 121.7 545.69 121.99 543.66 123.46 540.94 128.06 539.42 132.41 537.06 136.34 534.14 137.69 532.69 138.7 529.84 141.08 526.29 146.5 522.82 148.24 520.43 151.39 514.74 155.9 510.98 158.69 510.21 165.91 505.37 173.13 506.48 174.71 506.35 177.28 507.5 183.55 508.43 185.65 508.1 188.03 506.72 193.24 505.97 198.7 506.07 201.38 505.81 205.38 504.71 208.4 503.3 210.59 498.97 218.28 495.35 225.02 492.85 228.47 490.88 229.98 489 231.4 486.11 231 482.91 229.44 477.68 232.38 472.31 237.88 468.1 247.99 463.44 252.39 461.71 262.83 456.36 265.37 455.92 267.36 456.4 273.68 455.54 279.92 455.17 283.66 454.03 286.55 452.07 291.48 449.59 292.41 446.82 292.99 442.01 294.85 437.88 294.49 435.09 295.61 432.61 299.32 429.93 303.59 429.35 306.74 426.57 311.61 424.58 314.85 420.12 317.56 418.92 322.74 420.15 326.78 420.56 331.2 422.19 334.01 422.85 339.67 423.1 343.23 421.77 348.85 422.23 353.89 422.24 378.86 397.26 377.45 396.67 374.42 396.55 371.06 395.47 365.08 391.5 362.43 391.04 361.27 388.86 359.13 383.42 358.99 380.33 359.92 377.62 361.8 374.43 362.32 372.39 362.32 368.89 363.58 363.09 362.58 355.35 363.21 353.41 367.65 347.66 368.65 343.06 368.59 337.57 370.05 332.62 370.08 329.72 369.21 325.73 367.55 323.19 367.98 318.68 369.77 313.42 369.37 308.67 369.69 304.95 368.24 298.43 368.19 295.13 371.65 289.96 372.76 286.74 372.33 284.18 370.17 280.61 361.97 277.48 360.76 274.81 360.56 272.99 362.27 270.22 363.43 267.39 364.85 265.29 367.88 262.95 369.39 259.65 371.17 257.04 371.54 254.16 371.69 247.89 372.69 245.64 372.95 242.24 372.06 239.84 362.54 235.34 360.77 234.93 357.6 230.97 353.4 226.59 350.69 225.86 347.59 221.54 344.82 220.55 342.15 220.18 335.98 217.78 327.4 215.48 310.57 208.36 308.33 206.42 305.65 202.77 305.76 199.53 305.08 195.71 304.14 192.94 302.36 191.27 300.53 191.01 297.13 192.21 291.95 192.68 289.86 192.31 285.57 186.01 281.48 183.11 277.99 179.35 277.77 175.63 280.14 165.7 278.72 158.96 278.46 149.97 276.48 143.64 277.33 138.42 280.72 134.84 283.18 131.58 287.61 127.54 292.06 124.45 292.58 122.83 291.8 118.07 289.94 110.97 287.98 109.32 282.91 107.51 280.19 105.27 274.8 102.91 271.72 103.85 268.37 103.44 266.07 102.44 261 96.48 258.65 95.33 255.35 92.25 255.14 90.21 253.21 85.08 252.95 82.37 251.9 81.11 247.14 78.86 245 76.93 243.12 71.75 241.97 70.45 236.36 68.71 233.95 65.41 233.51 63.96 234.31 58.07 233.35 53.38 230.66 48.99 229.94 45.66 234.81 40.12 237.65 37.51 238.94 35.43 239.25 27.45 238.19 24.74 238.65 18.89 239.42 17.27 241.6 15.35 244.28 14.14 247.37 11.23 249.43 7.39 250.39 2.88 252.04 1 255.35 1.69 264.38 7.42 266.47 7.8 273.97 5.69 277.13 3.12 282.48 2.62 284.28 3.08 289.13 6.15 297.87 11.16 302.44 14.31 308.2 15.15 314.33 14.41 316.48 13.67 323.41 6.88 326.27 5.03 329.62 4.8 333.56 5.02 345.23 11.39 348.89 8.85 353.36 7.37 357.23 5.65 361.62 2.85 366.85 2.46 370.29 2.83 371.35 3.74 372.67 6.42 377.27 13.13 379.97 16.7 382.31 20.47 384.66 23.47 387.85 26.85 393.66 31.47 397.9 34.08 406.13 36.66 410.05 38.93 413.71 40.01 423.79 38.12 433.69 37.57 438.56 38.16 442.16 39.02 449.37 41.89 458.68 44.85 463.03 47.05 465.11 49.12 469.8 52.51 471.76 53.09 480.17 51.4 482.76 49.99 483.75 50.42 485.62 56.1 487.81 59.66 490.85 63.09 496.27 67.51 500.16 72.94 506.74 76.28 510.39 76.55 515.86 74.44 518.43 74.55 520.51 76.05 522.5 80.25 524.33 80.82 527.13 80.74 528.79 81.41 531.39 81.25 534.29 80.29 538.01 81.58 546.54 83.01 548.37 84.19 550.9 87.45 552.59 90.96 552.96 94.11 551.92 98.05 552.07 99.09 555.42 101.98 559.7 104.2 561.03 107.41 564.39 109.45 566.07 112.47 567.02 116.29 570.56 117.21 571.6 117.98 573.08 121.88 575.26 124.1 575.91 126.33 580.46 129.19 585.26 129.25 588.52 130.74 593.42 131.29 595.5 132.83 596.69 135.29 596.39 137.12 597.83 141.4 598.8 142.53 600.88 142.99 601.42 146.53 605.5 147.64 608.61 149.76 608.15 153.18 610.73 158.34 613.27 161.68 613.73 164.95 614.66 167.75 617.03 169.55 619.39 170.02 625 172.03 630.74 173.69 635.08 173.3 638.22 170.63 642.21 168.09 644.13 167.92 648.86 170.15 654.17 170.06 657.54 171.09 661.86 175.19 661.55 178.38 662.98 179.57 663.92 182.51 663.94 186 663.4 187.7 663.36 192.32 664.21 194.54 665.9 195.69 669.94 197 672.02 198.31 673.02 201.04 671.86 203.08 672.52 204.58 678.6 207.73 678.98 209.23 681.02 209.81 683.33 209.65 684.98 210.35 687.83 213.46 696.41 219.58 700.41 223.08 701.41 224.43 701.22 229 699.41 235.08 697.92 242.21 697.99 246.2 700.37 250.7 701.53 257.47 702.41 259.39 702.14 262.43 704.45 266.05 704.72 270.13 706.12 271.86 711.15 270.94 713.56 269.92 721.3 270.13 727.55 271.58 732.64 273.58 734.35 273.63 741.49 270 742.74 270.14 748.81 275.13 755.35 277.97 757.01 281.32 758.16 285.4 759.79 288.85 759.98 291.33 761.49 294.66 761.79 302.3 765.3 305.11 766.64 308.96 769.55 309.9 772.09 311.44 774.97 311.9 778.67 311.06 781.63 311.02 783.4 313.4 783.98 321.71 783.51 325.83 782.74 327.64 783.05 330.45 779.9 332.56 777.09 335.25 775.27 344.34 775.7 349.35 775.58 351.87 Z"/>
</g>
</svg>