<?xml version="1.0"?>
<svg xmlns="http://www.w3.org/2000/svg" version="1.2" baseProfile="tiny" width="800" height="877" viewBox="0 0 800 877" stroke-linecap="round" stroke-linejoin="round">
<g id="4202909">
<path d="M 538.82 18.98 537.84 21.89 535.73 24.35 532.3 29.19 533.34 32.6 530.48 36.1 528.62 41.84 528.41 45.49 529.48 47.6 534.2 50.39 537.05 52.54 538.55 55.34 540.16 56.46 542.37 59.01 542.34 62.68 542.83 71.48 543.81 75.5 545.98 76.28 549.67 78.36 552.19 79.09 558.35 79.59 566.01 81.02 567.19 83.91 566.42 86.4 567.67 87.82 568.09 89.58 569.58 89.42 576.23 91.46 578.15 92.77 580.22 93.42 581.53 94.82 582.01 97.64 580.98 100.21 578.86 103.45 577.41 104.13 573.81 104.59 571.5 105.87 571.04 107.01 571.84 108.84 573.75 110.21 571.45 112.56 570.3 114.83 569.07 119.28 568.12 120.33 565.73 121.12 563.17 121.13 557.2 119.97 550.41 119.86 545.93 120.92 545.79 122.27 548.11 123.92 549.09 125.88 548.33 128.55 548.57 130.41 547.67 135.28 544.53 136.09 544.48 139.47 549.78 143.75 549.3 155.53 553.02 155.18 555.02 156.94 558.36 156.5 559.66 158.55 561.5 159.74 563.4 159.56 566.53 163.38 570.88 162.76 573.69 163.98 575.15 174.47 576.96 177.27 576.35 179.5 575.98 183.51 576.62 184.59 581.35 186.77 581.98 189.84 582.95 191.29 585.94 192.95 586.42 195.01 590.38 196.06 590.54 199.61 593.83 202.05 595 203.78 596.59 207.71 600.19 210.29 603.2 214.08 603.93 218.78 607.61 223.49 609.55 228.07 610.41 232.02 613.06 237.03 616.29 238.14 625.74 240.22 629.17 243.96 630.91 245.12 635.36 247.2 636.55 248.52 638.02 251.64 639.9 253.84 640.15 260.76 645.21 259.82 647.88 257.03 655.23 257.66 657.25 257.03 659.4 257.27 661.17 258.29 667.03 259.4 673.04 258.94 678.17 258 681.06 259.69 684.06 260.23 688 259.9 692.73 263.35 696.11 266.16 699.75 270.54 702.05 272.05 705.73 275.2 709.02 277.37 711.35 281.94 711.4 284.88 709.9 287.13 709.14 290.44 713.2 292 715.06 293.53 717.76 294.72 721.81 295.16 724.59 293.94 727.26 295.48 729.53 296.19 729.83 297.29 731.8 298.93 735.15 300.93 736.73 302.9 737.46 309.6 738.68 311.79 740.38 313.17 744.83 314.86 747.52 315.03 750.97 316.16 753.28 317.35 758.95 317.36 760.94 318.56 762.06 320.46 767.26 324.38 769.08 324.82 771.73 324.48 779.26 328.24 781.73 328.53 785.92 327.53 788.54 329.69 790.84 330.95 791.81 333.55 794.32 335.95 797.24 335.92 799 336.62 797.3 336.03 794.41 336.34 792.63 337.17 787.25 342.25 781.7 346.7 777.21 351.02 775.58 353.2 772.44 355.06 770.03 359.39 769.61 361.33 770.31 363.1 770.85 369.15 770.86 372.5 770.41 374.06 768.6 376.13 768.84 380.12 767.69 386.39 766.62 387.5 766.41 393.01 767.08 396.62 767.07 400.54 765.46 402.69 763.83 403.59 759.97 404.35 758.06 405.97 756.29 408.34 753.36 410.47 750.83 413.34 748.94 414.61 744.75 419.85 743.12 423.33 744.19 425.71 745.56 426.92 747.53 427.16 746.54 430.18 746.55 433.06 748.59 434.9 753.32 440.01 752.34 442.09 749.76 445.23 742.38 451.7 740.2 454.73 738.74 455.92 734.91 457.12 731.55 458.99 725.19 464.75 723.08 465.28 719.95 464.19 709.53 468.26 706.45 469.81 702.64 472.39 699.86 475.5 694.05 476.46 685.53 479.23 681.02 479.02 680.27 479.34 677.02 483.63 671.06 488.64 668.42 490.06 663.85 493.32 663.79 497.42 660.81 499.07 658.61 501.93 657.53 504.44 655.92 506.12 652.35 508.8 646.77 514.53 642.93 519.27 641.73 520 638.34 520.85 636.75 521.87 633.18 526.89 628.5 530.95 625.79 531.7 622.17 534.93 618.92 537.33 616.45 541.81 613.76 540.96 611.51 538.69 603.64 536.93 601.32 537.3 598.61 538.65 597.69 539.98 594.43 540.35 591.48 543.78 589.61 544.89 585.6 544.13 583.23 548.26 579.27 551.84 574.38 554.8 571.75 558.7 567.4 558.91 564.38 562.04 558.4 562.79 551.36 559.35 549.78 559.69 546.83 561.83 546.1 562.98 543.48 563.07 542.09 565.01 538.59 567.2 537.3 569.44 538.01 572.55 540.47 575.14 541.51 575.45 544.76 578.56 543.84 582.14 537.43 589.05 535.63 589.9 533.32 594.3 531.22 596.36 528.31 597.71 525.95 599.39 524.35 602.38 520.86 603.87 519.56 603.65 516.63 604.41 514.93 603.75 512.86 601.63 509.83 601.87 508.11 603.48 505.43 604.3 500.63 604.45 498.78 606.75 496.43 608.56 494.61 613.45 491.03 618.46 484.91 627.86 484 630.11 484.06 633.32 482.96 632.21 477.47 628.76 469.87 629.43 467.82 628.06 465.76 627.55 461.94 628.51 457.98 628.72 453.37 629.88 448.83 629.33 443.89 631.41 441.23 631.88 437.9 635.45 437.08 639.52 435.8 640.93 434.29 646.37 433.41 648.1 428.98 653.98 425.58 655.63 423.97 655.49 414.7 651.88 411.11 649.38 409.24 648.86 405.64 649.56 402.34 649.78 398.84 652.41 397.15 654.6 392.48 656.24 389.46 658.55 388.41 661.02 386.91 663.15 384.38 665.51 383.61 667.17 382.32 672.92 382.12 675.83 376.8 677.06 369.53 675.75 367.69 676.36 364.01 676.42 361.67 677.52 359.72 685.71 359.14 686.22 354.17 686.74 351.01 685.94 349.82 686.28 347.34 688.28 345.56 688.23 342.85 686.86 339.5 688.49 337.52 689.88 334.75 692.86 332.37 693.51 330.19 692.71 325.82 691.99 319.11 691.32 317.76 691.86 316.14 695.55 313.96 697.77 314.87 699.62 316.03 704.29 314.18 706.6 313.04 710.99 312.16 712.77 311.18 717.1 309.39 720.91 309.96 725.51 309.63 726.71 307.02 728.35 303.41 729.66 300.83 731.71 296.68 732.47 293.89 735.82 292.23 736.08 290.74 734.83 288.4 734.45 284.85 736.44 280.62 737.83 279.19 738.68 276.99 742.3 272.18 745.34 269.42 748.52 265.42 749.87 261.7 749.55 260.55 749.99 257.29 752.51 251.96 755.2 248.82 757.2 246.82 757 241.61 757.86 237.85 757.77 233.28 766.35 232.09 767.52 229.56 768.5 224.63 768.23 221.51 770.52 217.13 772.62 215.22 775.15 214.51 780.05 214.63 783.48 213.62 785.95 212.63 786.36 209.6 785.73 207.6 788.19 205.98 791.18 205.29 794.45 201.32 794.58 197.37 796.83 195.93 798.23 193.22 797.84 189.33 799.65 187.67 801.94 186.79 805.76 187.25 809.05 188.52 812.85 183.82 813.91 180.24 815.32 179.27 817.33 174.91 823.04 171.68 823.91 168.3 822.64 167.15 823 162.75 826.66 158.78 829.33 155.62 834.06 153.45 833.45 149.8 835.3 147.17 838.55 143.94 838.67 140.78 839.52 136.06 839.44 130.23 844.09 128.47 845.24 124.97 846.17 120 849.94 117.98 850.74 114.5 849.83 110.49 849.41 108.11 848.38 106.11 846.84 101.08 845.19 98.82 845.36 94.33 845.06 92.01 847.06 91.59 849.97 88.02 852.02 86.61 854.15 81.65 853.28 80.28 855.69 79.01 856.35 74.8 856.27 73.18 854.98 70.1 855.64 66.47 854.73 62.07 854.36 59.25 852.16 57.68 851.57 53.49 851.44 51.72 852.02 46.7 855.53 42.21 861.65 40.31 863.04 37.46 866.03 34.99 866.72 34.12 867.61 32.44 871.16 27.38 873.18 25.13 874.74 20.67 876 17.96 875.91 17.05 873.56 15.47 871.79 14.61 869.87 13.94 862.29 13.98 855.25 13.64 850.45 9.85 846.06 7.58 842.34 1.32 837.01 1 835.44 2.48 833.92 5.5 831.98 6.94 829.01 8.45 827 12.62 822.57 15.26 820.53 19.03 818.81 25.23 817.27 29.52 817.46 31.84 816.9 35.19 814.31 38.71 812.69 39.72 810.46 40.69 805.2 39.36 803.13 45.33 798.93 47.7 797.82 50.97 798.13 53.34 797 55.78 796.69 59.64 794.85 59.89 793.9 58.15 791.82 55.56 787.62 52.79 784.31 55.71 779.12 54.97 776.87 51.72 775.18 50.25 773.31 49.69 770.78 49.95 768.98 49.34 766.67 47.26 764.7 44.86 761.42 45.97 757.19 48.52 755.51 49.62 753.74 49.71 751.75 48.66 748.08 48.96 746.78 52.02 742.56 52.84 740.95 51.71 735.87 52.71 732.42 54.5 728.75 56.18 727.28 58.71 721.06 58.76 719.39 57.61 716.67 57.86 713.71 57.38 711.21 57.7 708.68 57.54 704.57 58.42 700.86 59.43 694.83 58.57 691.79 58.63 688.61 60.71 686.04 64.7 683.84 68.15 680.78 70.94 679.11 71.68 678.04 72.66 672.12 73.24 671.1 77.87 669.1 84.72 664.84 89.15 665.51 91.07 665.35 93.33 663.56 95.06 661.34 97.09 660.43 98.32 658.78 98.24 656.9 97.05 655.37 102.63 647.68 107.86 644.97 108.59 644.06 107.62 641.03 108.98 637.7 110.7 636.35 115.97 633.52 122.41 632.91 126 630.46 126.96 629.07 126.96 626.91 130.02 621.54 129.85 616.49 133.79 612.16 136.57 607.61 140.01 605.59 142.68 604.66 144.76 603.4 145.4 601.99 144.92 599.23 145.5 596.76 147.61 593.62 152.03 590.64 157.13 586.46 158.29 583.91 161.87 581.43 162.63 579.91 162.36 577.73 160.11 573.63 157.07 572.53 156.07 571.47 152.39 570.88 150.61 569.85 149.68 568.03 145.6 565.87 134.5 557.71 131.68 556.61 135.02 551.99 136.34 549.18 133.92 546.39 131.86 542.39 131.97 539.59 130.07 536.64 125.77 533.1 122.69 529.64 68.72 539.24 67.31 540.78 67.04 543.54 65.65 549.44 64.76 554.54 61.86 560.27 60.55 563.81 56.37 567.64 54.29 568.79 51.01 568.45 47.57 565.9 24.58 566.01 23.63 562.36 19.46 556.51 17.07 554.38 11.93 554.88 8.92 553.39 7.38 552.08 7.3 550.56 9.95 548.51 14.78 547.44 16.7 545.21 17.22 543.55 16.74 541.54 10.2 538.69 6.2 535.73 4.67 533.24 4.44 531.36 5.54 529.98 7.62 528.7 11.37 528.84 14.73 527.93 15.96 528.15 17 530.14 15.56 533.38 15.62 534.77 17.26 535.48 20.99 535.55 24.5 533.52 27.33 529.42 28.79 527.91 30.3 524.8 31.21 519.83 33.24 518.79 34.89 516.72 29.22 512.45 27.72 510.72 23.09 508.32 19.09 506.74 15.44 506.12 12.36 505.17 11.47 504.25 10.64 499.55 10.87 497.88 14.31 496.65 17.78 495.92 20.28 495.95 22.81 496.98 26.09 497.65 29.54 499.43 31.05 499.04 31.96 497.67 34.76 496.55 37.25 493.01 40.5 490.22 42.3 489.71 45.33 489.73 47.52 490.42 51.91 490.66 53.01 491.44 53.08 493.87 59.6 495.71 65.54 495.12 70.47 492.71 71.65 493.05 75.73 496.35 76.78 497.91 77.71 501.08 79.38 503.62 83.65 507.14 87.61 507.8 89.54 507.12 93.93 502.69 97.61 501.54 104.03 500.51 108.37 501.49 111.42 503.02 114.37 503.22 119.07 502.96 122.54 501.83 124.94 500.19 124.26 497.29 122.97 494.56 123.08 493.03 126.41 491.12 128.5 489.26 132.72 484.64 138.91 479.97 141.08 479.85 142.24 483.02 148.09 487.64 148.78 489.96 146.13 494.25 146.14 495.43 147.55 496.96 149.8 497.14 155.18 496.15 156.98 496.26 157.7 497.99 156.24 501.22 157.66 502.71 161.51 503.35 165.04 503.08 165.31 501.61 162.17 499.19 161.03 497.77 160.91 496.14 162.43 494.89 166.52 494.24 164.92 491.86 164.34 489.31 160.61 487.87 160.29 484.91 159.43 481.97 158.29 480.38 158.79 478.72 160.14 478.97 163.59 476.48 163.56 474.2 162.72 468.9 163.89 466.73 160.81 462.96 161.05 459.62 159.55 456.53 159.59 454.03 158.68 448.03 158.01 446.62 155.98 444.69 154.4 439.98 156.44 436.3 156.47 433.74 154.13 429.82 152.47 425.97 152.49 423.42 154.89 420.91 160.69 417.24 164.44 411.78 167.11 410.12 169.63 410.03 175.49 407.99 181.06 403.85 188.76 398.94 191.78 395.23 198.79 390.66 200.59 388.7 205.94 387.79 212.27 387.9 219.05 386.72 224.08 384.49 226.3 381.27 228.47 376.1 228.54 373.88 229.35 372.72 231.83 372.39 235.16 369.64 252.29 338.85 252.08 336.87 253.26 336.7 254.7 334.13 253.83 333.61 253.9 330.81 252.97 329.37 252.24 326.21 250.4 323.52 250.01 321.24 251.42 315.18 250.75 313.51 247.96 310.94 246.11 306.69 247.62 304.86 247.69 301.97 249.44 300.84 250.02 298.95 251.27 298.67 256.22 295.91 257.32 293.6 262.57 293.04 267.52 291.23 267.38 290.21 264.95 287.26 262.3 286.03 259.74 285.46 256.74 283.62 254.9 280.39 250.99 277.88 250.54 274.65 248.36 270.21 248.19 268.62 249.54 266.14 252.51 262.4 253.08 259.12 252.47 255.33 251.52 252.11 252.64 249.98 251.63 245.17 252.8 243.07 255.47 240.79 256.46 238.32 259.77 237.68 262.49 236.57 266.24 235.61 268.88 233.05 271.64 232.44 275.31 230.01 276.13 227.62 280.33 222.97 282.48 221.69 287.5 216.14 289.4 215.02 293.09 214.17 295.67 214.42 297.7 215.42 301.04 214.4 302.08 212.41 301.7 210.29 299.44 207.56 296.22 205.04 295.18 203.73 294.13 198.71 291.75 194.8 289.44 194.63 290.06 192.13 289.96 188.06 290.88 185.7 293.28 184.16 297.49 183.72 300.05 185.8 301.08 185.85 301.95 183.68 305.66 180.86 306.52 179.67 305.64 175.72 305.74 174.12 306.95 173.11 311.18 172.64 311.2 171.28 309.87 166.14 308.06 164.72 308.35 163.4 311.33 161.66 316.65 160.78 322.63 158.08 325.24 155.76 326.62 153.59 326.28 151.32 322.19 145.49 321.89 141.15 320.75 135.86 316.47 131.1 315.63 128.84 314.64 123.66 313.44 122.42 309.23 121.62 306.81 120.12 306.35 117.55 307.17 115.67 307.02 111.93 305.58 104.87 305.66 101.8 309.73 99.92 313.42 97.56 317.84 95.31 319.48 93.98 322.67 90.24 326.9 86.94 329.39 84.13 331.33 79.87 333.21 76.85 333.8 74.06 334.61 73.15 340.34 74.51 345.21 74.84 357.13 76.44 366 75.22 367.65 75.16 374.7 77.68 379.59 74.92 381.22 73.27 383.18 69.76 383.82 64.76 385.82 59.18 388.69 54.78 389.97 51.67 392.08 48.72 394.57 46.68 396.71 45.63 400.66 45.29 403.75 43.88 407.49 44.22 411.64 43.64 415.84 43.85 419.5 43.19 422.67 44.97 425.68 45.54 429.97 44.66 435.23 42.77 436.37 43.21 437.08 45.17 439.69 46.05 441.4 44.94 444.39 44.86 447.32 41.68 448.34 39.3 450.96 37.3 453.28 31.69 457.65 28.06 459.59 25.45 462.19 20.8 464.89 17.47 465.37 15.96 468.35 13.47 473.54 12.44 478.02 12.3 482.35 14.47 485.47 13.45 489.37 11.31 491.37 9.61 492.31 5.88 493.91 4.32 497.64 3.86 500 4.7 502.23 4.29 504.45 4.59 509.09 1.32 511.51 1 517.01 2.13 519.86 3.14 524.07 6.45 527.79 11.28 529.53 17.85 530.53 18.88 534.16 19.66 538.82 18.98 Z"/>
</g>
</svg>