<?xml version="1.0"?>
<svg xmlns="http://www.w3.org/2000/svg" version="1.2" baseProfile="tiny" width="800" height="766" viewBox="0 0 800 766" stroke-linecap="round" stroke-linejoin="round">
<g id="4202107">
<path d="M 799 637.07 796.11 636.69 795.2 633.46 795.85 631.94 799 635.21 799 637.07 Z M 562.38 571.65 561 574.01 557.78 575.52 555.59 574.81 555.23 573.29 552.62 572.2 554.88 567.98 557.18 567.6 562.38 571.65 Z M 570.15 309.9 572.47 310.22 573.36 312.68 577.61 311.66 578.43 313.01 576.5 315.08 577.23 317.76 575.78 321.32 573.03 322.41 573.82 317.88 572.35 314.82 570.19 314.29 567.64 310.93 567.25 308.55 570.15 309.9 Z M 600.48 90.48 598.17 93.58 597.59 98.2 593.97 106.63 592.15 111.61 585.92 126.98 581.65 138.03 579.46 144.36 574.89 155.89 570.52 168.72 566.13 180.67 563.61 188.49 561.74 193.25 559.92 199.68 557.59 205.2 556.68 209.45 553.9 216.39 552.52 222.23 550.39 227.59 548.39 235.25 545.43 244.28 544.32 249.3 541.57 257.06 540.95 260.88 538.22 269.85 538.3 270.59 535.64 283.62 536.34 303.14 535.56 309.19 533.69 314.75 530.47 318.65 528.15 322.19 525.82 326.8 523.1 334.36 523.67 338.44 524.5 339.9 529.07 340.4 528.76 346 529.88 349.12 528.84 351.61 526.47 350.99 524.97 352.24 523.17 357.84 522.62 364.07 521.19 369.1 518.33 387.73 517 393.34 516.32 398.18 514.05 406.07 511.67 418.25 510.73 420.45 509.47 429.57 508.66 432.58 508.36 439.42 507.06 449.48 505.64 456.78 502.22 471.75 501.17 483.42 500.46 498.81 500.18 500.24 500.67 508.3 501.39 510.63 505.93 513.18 505.73 517.64 504.8 519.6 506.44 526.72 505.22 533.77 505.88 542.84 507.34 547.73 509.17 552.1 512.41 557.22 515.49 560.85 519.09 559.09 521.23 559.89 523.07 563.69 529.48 573.81 534.14 578.61 535.76 579.68 535.37 581.99 537.45 582.54 539.48 584.77 538.89 589.04 536.53 588.19 535.04 588.83 532.13 597.46 530.84 607.74 530.64 612.28 530.91 623.43 529.93 630.07 529.22 642.55 528.86 664.01 528.58 671.37 523.78 672.7 487.02 681.79 472.73 685.27 445.96 693.43 443.79 693.95 349.79 725.09 348.04 724.19 342.68 719.41 338.64 717.81 329.9 718.25 321.86 720.29 314.78 722.47 312.19 723.7 307.15 730.52 304.28 731.74 297.33 733.65 294.06 733.65 291.88 735.7 289.43 743.33 286.71 747.28 279.62 749.05 277.17 751.92 275.94 755.73 274.58 758.05 272.26 759.82 261.77 760.91 253.73 758.32 248.01 754.64 241.74 754.5 237.24 755.05 232.88 757.37 225.93 759.96 217.76 762.41 214.22 764.59 212.17 765 210.26 763.23 203.32 759.28 190.37 754.78 188.6 753.41 186.01 747.83 184.92 746.87 183.42 741.69 183.42 737.06 184.65 733.79 190.31 727.35 190.62 726.06 189.51 721.57 191.07 717.28 176.51 687.52 148.64 639.01 148.01 637.16 146.95 630.39 142.81 626.15 134.35 621.31 129.1 618.79 126.18 617.88 114.99 621.01 111.66 620.2 101.58 619.5 97.65 620 93.92 619.5 89.28 618.08 84.14 618.89 82.13 618.18 74.57 617.88 72.35 617.38 68.01 618.79 66.3 621.21 58.54 626.25 49.87 628.67 47.95 629.88 41.2 632 38.98 634.62 37.97 641.68 35.87 643.69 30.76 646.19 26.59 649.35 21.7 630.99 16.98 625.28 15.51 621.58 14.78 617.43 13.58 614.76 9.79 612.17 9.16 610.92 8.79 605.19 8.02 601.6 4.7 594.98 1.23 592.02 1 584.12 1.18 573.13 1.76 569.75 1.64 563.51 5.41 552.66 8.55 552.18 9.98 550.59 15.68 548.97 16.91 545.41 15.31 538.73 13.3 536.14 10.13 528.92 11.01 525.74 11.25 520.81 14.91 517.41 19.17 514.4 22.69 514.09 25.13 512.3 27.18 507.3 32.63 500.82 34.57 499.79 36.85 493.53 37.46 488.33 44.11 482.63 46.46 477.42 55.66 477.53 84 476.21 82.88 472.26 82.34 467.51 81.39 464.36 81.86 461.81 84.3 457.78 84.48 455.13 83.78 451.84 84.57 449.52 87.01 445.91 91.09 437.86 91.61 434.25 94.14 428.38 95.38 427.63 106.95 429.99 112.1 430.43 114.41 433.32 117.62 439.16 118.26 442.26 117.34 447.78 117.66 449.36 120.01 451.87 125.12 454.52 127.49 454.52 129.07 451.37 131.14 450.47 138.6 451.37 142.18 454.48 144.98 457.57 146.83 458.25 151.14 458.33 156.26 459.83 168.58 459.71 172.37 458.79 173.77 456.16 174.76 450.65 176.56 448.26 178.47 447.22 184.93 446.98 189.95 445.9 194.24 443.79 199.7 439.36 203.43 439.34 207.54 441.62 209.93 443.57 216.15 445.61 221.02 448.52 225.12 446.16 225.28 445.13 223.53 441.74 223.95 436.05 223.37 430.53 224.9 424.19 224.98 421.3 220.98 416.15 221.46 411.16 218.92 408.35 212.94 407.81 210.47 406.06 209.83 404.42 209.51 397.36 210.16 393.04 216.61 390.49 219.22 390.32 220.91 388.5 220.08 385.31 216.67 382.27 208.54 378.32 202.08 372.93 201.48 370.66 203.19 368.39 208.22 365.39 210.01 362.92 212.07 358.81 214.5 356.44 215.41 354.31 215.26 351.93 211.79 349.36 210.79 347.39 209.07 340.78 208.97 334.9 209.75 331.97 211.9 330.23 216.21 329.34 217.39 328.18 217.89 324.29 218.76 322.5 223.89 317.69 225.78 316.47 230.46 314.79 234.49 314.72 232.5 308.92 232.3 304.19 234.49 303.39 239.34 306.32 243.33 305.13 248.19 302.11 256.4 300.16 261.99 301.44 266.94 301.74 269.97 300.54 266.82 153.72 265.79 152.24 265.25 148.83 265.61 139.92 267.45 136.13 272.59 132.9 275.38 122.65 277.65 119.7 282.48 116.71 284.07 114.02 284.21 108.31 283.73 104.54 281.84 100.41 282.22 91.32 280.13 88.43 280.15 84.78 279.39 76.54 277.19 67.61 274.65 62.49 271.03 58.49 267.67 52.6 267.23 49.72 272.2 29.82 277.76 1 278.53 2.48 285.57 10.8 288.48 13.24 293.91 19.74 301.27 26.41 306.27 30.06 315.14 37.87 318.8 43.24 323.33 50.81 325.18 56.4 326.13 64.11 326.09 72.19 325.08 88.76 324.52 95.58 324.74 100.65 326.37 117.03 326.75 124.13 327.55 129.51 329.58 135.58 332.2 140.93 339.77 153.3 344.77 158.25 350.56 162.1 353.25 163.35 362.11 166.09 367.64 166.82 373.41 166.78 379.62 165.84 383.03 164.64 389.13 161.4 393.94 160.89 400.08 161.33 416.88 161.22 419.54 160.7 423.54 159.06 428.19 155.29 432 150.12 433.21 147.62 433.31 143.11 432.72 141.35 432.48 136.36 433.07 133.76 434.64 130.8 437.89 127.02 446.45 117.85 448.49 116.7 452.04 115.79 459.57 115.45 463.82 113.93 465.92 111.24 467.31 107 469.73 92.64 471.45 84.76 471.88 75.38 472.43 70.73 475.04 66.96 482.19 62.78 486.31 59.12 492.74 54.69 498.37 51.75 502.73 51.01 508.69 51.33 515.86 52.97 523.82 55.66 527.72 57.94 530.31 60.38 533.68 65.18 540.96 74.35 545.16 76.24 555.55 77.18 562.82 77.57 571.2 79.24 579.68 83.94 582.55 84.82 589.63 84.54 596.49 86.81 600.48 90.48 Z" fill-rule="evenodd"/>
</g>
</svg>