<?xml version="1.0"?>
<svg xmlns="http://www.w3.org/2000/svg" version="1.2" baseProfile="tiny" width="800" height="1140" viewBox="0 0 800 1140" stroke-linecap="round" stroke-linejoin="round">
<g id="4202578">
<path d="M 740.89 165.12 654.15 350.35 617.07 429.83 624.06 432.18 642.71 442.76 648.66 447.4 655.69 445.7 661.54 447.01 669.05 455.11 683.79 464.56 689.86 475.13 694.3 477.95 700.82 486.54 702.42 498.22 706.69 504.51 704.03 511.35 698.15 513.97 690.07 520.12 686.73 525.87 678.12 531.39 672.2 529.46 663.88 536.39 656.12 533.28 651.7 539.94 654.02 543.77 653.25 551.39 655.06 563.59 657.35 566.92 664.96 567.68 667.26 579.25 658.29 590.07 665.74 598.51 666.48 605.85 660.3 615.1 665.65 623.76 671.27 627.24 670.83 633.19 676.44 636.44 682.8 643.3 692.49 647.31 718.89 649.93 722.47 655.81 724.32 663.78 735.83 668.48 744.39 674.1 754.54 675.19 762.12 678.57 759.54 687.48 759.5 692.99 763.35 704.37 766.77 706.33 776.57 707.86 772.79 717.19 773.95 722.59 771.42 724.62 767.45 737.41 770.83 741.67 779.91 745.31 783.86 749.72 792.98 768.22 783.74 775.96 783.56 784.52 781.47 787.32 768.28 791.75 767.76 794.89 779.2 801.44 780.58 808.77 786.6 813.71 785.88 819.24 782.21 821.51 781.33 826.05 785.92 829.35 782.81 835.92 789.5 838.79 789.96 844.53 780.73 851.61 781.31 854.77 787.7 864.12 794.12 870.02 794.6 876.04 799 885.37 795.97 890.35 786.28 892.86 782.75 898.22 781.73 903.46 784.25 915.58 781.37 922.03 777.34 926.2 775.4 931.63 777.41 937.72 772.75 944.33 761.97 950.46 755.46 961.06 752.05 963.47 745.4 954.48 741.99 955.89 739.45 965.51 733.96 968.52 734.27 973.87 727.75 977.89 727.84 985.24 735.64 985.39 739.18 987.64 744.41 985.82 747.64 987.51 749.51 993.36 755.8 991.59 765.64 995.05 757.05 1000.72 755.52 1007.74 761.38 1018.75 744.64 1021.17 740.13 1024.37 740.35 1029.65 736.94 1032.76 728.91 1028.95 721.86 1030.8 719.16 1033.47 722.02 1039.3 735.35 1043.46 739.67 1045.77 742.39 1051.26 738.56 1059.22 730.23 1060.3 715.03 1057.75 705.76 1057.66 700.26 1059.94 691.08 1053.89 677.97 1054.53 677 1058.94 681.69 1063.77 683.15 1074.23 687.03 1082.66 686.46 1086.46 678.47 1100.25 529.34 1113.71 508.23 1112.9 443.6 1119.24 279.82 1139 274.12 1134.18 269.45 1124.38 269.42 1118.81 275.19 1116.31 280.51 1117.82 289.41 1113.31 305.97 1115.76 316.64 1111.93 319.44 1101.46 318.98 1089.31 315.61 1081.38 315.9 1073.2 320.46 1063.48 318.76 1050.28 319.42 1039.38 318.57 1029.71 315.19 1025.83 306.45 1026.8 301.89 1022.91 285.09 1018.74 283.73 1015.76 284.78 1008.13 278.55 1006.12 272.72 1006.37 267.76 1001.56 264.78 1002.78 262.15 1009.61 258.08 1013.23 248.51 1014.08 240.08 1010.05 225.13 1013.26 215.37 1017.33 206.84 1022.21 190.18 1029.12 181.31 1035.24 174.77 1036.48 167.02 1034.08 160.18 1037.01 157.8 1035.39 156.84 1028.43 153.8 1027.48 140.44 1035.08 133.61 1034.94 126.33 1027.46 125.01 1014.51 128.31 1009.18 133.29 1005.06 137.86 995.75 137.64 989.9 135.16 982.98 138.28 979 139.25 962.78 137.18 958.05 132.05 953.78 120.25 966.26 105.94 964.72 98.18 955.76 92.3 944.99 89.74 937.68 88.02 933.73 82.45 930.79 73.37 931.67 68.7 927.97 68.88 919.03 73.81 915.59 75.65 909.43 71.32 901.28 74.41 898.42 79.11 886.43 79.54 880.26 66.78 856.57 67.28 848.16 73.07 846.56 81.13 850.45 93.56 850.22 106.44 847.15 106.29 841.25 102.65 834.18 98.08 831.21 97 822.75 87.5 812.3 97.4 806.36 98.4 800.52 103.2 796.26 111.37 799.63 117.8 799.42 125.72 805.27 130.5 795.67 126.01 786.75 128.4 782.86 135.02 782.41 131.77 777.62 139.62 771.51 140.05 768.81 132.57 764.79 131.49 762.24 143.15 752.02 141.74 741.41 149.32 739.72 148.85 733.11 158.01 728.95 158.4 725.37 151.57 719.39 150.24 713.95 159.95 710.21 151.25 701.01 153.04 693.89 164.59 687.08 172.27 688.02 183.24 673.56 182.22 666.6 184.01 656.27 181.79 640.36 182.06 634.37 190.64 629.43 190.86 627.36 185.06 619.38 184.56 614.89 186.52 606.52 197.05 599.74 202.8 584.86 213.19 575.59 213.23 568.63 205.88 563.15 205.31 557.92 210.89 548.26 224.59 545.02 232.28 548.42 247.33 545.17 256.8 536.94 259.73 531.44 258.27 527.44 117.88 420.84 108.17 407.74 102.2 396.94 92.15 385.68 90.95 376.96 91.59 364.98 94 362.18 96.84 349.85 97.08 339.88 102.66 325.52 108.64 321.69 118.28 310.93 109.93 278.77 107.68 274.45 100.01 271.45 98.17 265.47 91.59 259.38 85.12 255.91 74.06 253.59 68.16 250.91 51.63 232.21 50.26 228.49 41.16 223.03 32.76 214.57 27.6 200.39 24.61 196.43 23.63 182.29 17.7 173.3 7.96 166 2.15 155.14 3.36 152.16 1 143.58 7.19 136.29 7.29 125.12 17.34 128 21.96 127.21 28.29 116.87 36.54 108.91 53.55 108.8 67.66 113.61 80.56 113.72 91.4 112.33 94.91 107.28 111.44 94.51 118.35 91.89 118.83 86.68 114.97 85.17 117.65 72.62 125.47 72.44 129.58 59.94 134.02 58.74 142.4 60.73 146.97 66.43 154.21 68.82 159.61 64.46 164.71 56.39 164.45 53.01 154.84 44.12 155.04 40.87 162.8 36.52 170.6 35.16 182.28 29.74 190.89 37.23 193.61 41.49 202.04 40.59 204.99 36.57 216.53 35.72 219.97 34.15 225.77 26.9 234.73 25.35 249.12 32.67 255.31 33.35 257.64 24.89 262.43 22.95 277.21 23.45 287.47 20.49 295.44 21.62 310.23 18.8 315.16 14.6 325.64 12.21 346.37 5.28 351.46 1 378.01 1.88 391.28 6.6 398.87 10.9 406.66 12.5 411.19 17.22 423.18 26.33 443.08 37.41 446.27 47.28 450.11 54.49 457.95 65.41 477.18 86.56 486.06 97.7 493.05 98.79 499.24 105.81 505.05 115.53 517.72 119.88 530.74 117.39 541.71 106.07 545.33 103.87 555.3 91.84 563.15 87.92 565.29 82.19 570.61 79.33 576.08 81.08 584.07 76.98 584.21 65.79 588.78 65.32 595.18 61.38 600.8 62.39 609.77 67.82 623.35 65.15 630.86 67.55 636.72 66.35 645.48 67.71 651.87 66.54 655.88 73.25 660.67 74.08 667.01 71.93 671.3 67.76 687.9 60.78 697.82 60.44 699.64 65.27 705.41 73.49 714.21 81.82 729.8 88.8 733 91.09 737.79 100.12 745.66 107.53 751.44 116.71 763.3 127.51 765.43 137.36 768.65 140.33 740.89 165.12 Z"/>
</g>
</svg>