<?xml version="1.0"?>
<svg xmlns="http://www.w3.org/2000/svg" version="1.2" baseProfile="tiny" width="800" height="474" viewBox="0 0 800 474" stroke-linecap="round" stroke-linejoin="round">
<g id="4202453">
<path d="M 493.01 406.62 494.06 407.62 497 405.66 500.21 405.76 502.45 404.19 506.26 403.19 510.04 399.8 510.59 398.08 515.41 395.86 518.82 396.79 518.69 398.05 515.79 400.12 514.59 402.39 515.37 405.03 514.64 406.71 512.4 408.7 511.49 412.28 505.9 417.78 504.51 419.64 503.93 422.75 497.53 427.5 494.54 426.35 493.15 419.57 490.83 418.58 489.54 416.83 490.22 414.44 488.61 413.86 484.14 413.86 479.02 416.52 477.01 418.59 472.94 420.6 469.83 416.77 471.04 415.71 471.07 413.44 472.47 407.98 474.4 403.51 477.3 401.98 480.8 398.47 486.2 396.87 492.63 393.87 493.5 399.61 492.54 402.68 493.01 406.62 Z M 796.07 305.28 792.92 305.28 791.87 302.85 789.15 300.8 786.84 297.81 788.51 294.08 792.29 290.72 794.59 291.28 799 298.93 799 302.29 796.07 305.28 Z M 770.28 293.34 772.17 297.45 778.87 297.63 781.18 299.68 781.18 301.55 778.46 303.79 772.17 304.91 764.63 307.53 757.71 312.01 756.04 317.05 755.41 327.13 752.48 331.24 747.66 331.99 742.84 330.87 741.16 326.95 741.58 320.04 748.07 304.74 748.27 298.21 751.62 295.4 758.75 292.6 760.84 290.36 762.31 283.08 762.3 278.6 765.24 276.73 768.38 278.6 771.74 282.33 771.95 285.69 770.28 293.34 Z M 29.81 430.61 31.75 426.14 32.42 422.14 37.55 412.9 36.57 409.31 33.98 405.27 28.84 401.93 27.43 397.13 25.28 394.35 19.14 393.62 13.76 391.44 10.06 388.18 8.62 386.19 7.42 382.14 5.16 378.33 1 373.39 3.19 372.1 3.53 368.68 5.2 366.98 5.73 364.1 5.02 360.94 7.75 357.41 9.68 353.17 12.82 348.99 16.36 346.38 21.02 341.36 26.7 338.03 27.41 335.53 31.63 331.78 36.42 329.12 39.79 325.46 41 323.28 47.52 322.94 57.5 321.37 64.48 320.98 71.87 318.92 74.95 318.81 79.49 316.95 81.64 314.98 87.47 313.12 94.19 313.96 96.49 313.54 98.42 311.24 98.87 307.32 102.39 304.38 104.02 301.93 105.31 298.39 105.67 292.57 106.36 291.75 110.92 290.5 113.82 286.7 117.97 285.13 122.49 284.74 125.64 283.09 126.45 279.24 128.63 276.59 132.03 268.81 132.61 264.88 139.08 260.42 143.23 258.94 145.7 260.37 148.97 260.91 153.07 260.36 155.38 260.98 158.27 263.39 161.21 263.73 164.02 266.61 167.08 268.22 172.2 268.95 174.2 268.66 177.1 266.47 184.64 267.82 187.95 266.81 189.22 265.63 189.51 263.4 191.37 261.58 198.81 258.32 199.92 251.87 200.81 250.3 203.61 249.79 206.4 247.4 207.28 242.48 211.11 236.95 215.32 233.66 217.35 229.68 217.28 225.73 220.09 224.46 229.48 228.3 231.89 227.61 239 218.81 241.97 217.05 243.99 214.84 245.81 211.57 248.83 204.36 248.35 202.85 243.79 199.03 242.92 195.9 242.95 191.78 242.24 189.85 237.55 183.76 239.19 179.14 239.68 175.3 245.18 171.22 247.14 169.11 250.2 167.28 251.42 163.79 253.61 159.94 253.05 156.84 254.26 154.09 253.44 150.06 257.65 144.32 260.77 142.28 264.69 135.71 265.67 131.33 267.52 129.39 266.47 121.28 264.17 117.16 262.22 115.16 260.49 112.19 262.33 108.55 266.34 105.01 270.93 102.07 272.42 98.38 272.92 94.83 275.12 89.67 278.08 86.67 283.88 83.31 285.53 80.46 283.65 72.12 284.15 70.36 286.01 69.38 290.41 68.4 292.97 66.77 297.15 61.1 303.03 58.04 305.7 53.67 306.52 51.41 309.32 46.93 310.2 42.28 312.2 35.69 313 34.36 317.01 30.82 318.57 26.84 323.22 23.14 327.68 20.23 328.26 18.29 327.48 14.03 327.41 8.43 328.69 1 331.3 8.66 330.42 9.41 331.14 12.83 332.49 15.61 334.21 16.13 337.29 15.16 339.94 13.31 341.98 13.5 342.5 16.36 337.7 20.51 338.4 21.39 335.28 23.61 333.81 26.02 334.12 28.17 335.72 28.28 336.34 30.38 334.96 32.76 337.38 33.97 334.64 35.59 330.04 34.72 325.57 35.73 324.15 37.82 325.2 40.99 323.15 41.88 321.44 41.04 319.43 48.36 317.08 50.64 314.52 56.53 313.94 58.85 311.65 62.44 308.58 64.61 308.14 69.1 311.05 69.15 311.75 70.32 310.55 73.14 310.64 77.78 310.02 82.06 307.09 88.68 303.47 90.51 305.4 95.86 307.58 99.83 310.63 104 311.89 106.83 314.62 109.74 316.03 112.34 319.38 116.52 328.54 127.19 333.59 132.26 344.54 141.74 355.6 149.04 360.04 151.32 364.1 152.74 364.16 150.72 366.46 148.01 369.02 149.95 369.87 153 371.72 153.89 373.87 153.14 379.62 149.28 382.83 148.6 383.2 150.73 382.14 152.28 387.76 156.08 394.49 158.81 404.21 161.58 408.97 162.34 415.11 162.8 423.85 162.59 428.61 162 432.72 160.97 433.75 159.53 438.03 157.01 440.64 156.22 442.68 154.65 443.97 150.06 445.94 150.75 449.44 145.18 452.77 142.49 457.05 135.26 456.1 131.99 454.54 131.78 454.22 128.55 452.13 125.32 450.03 124.04 447.87 124.25 446.24 122.64 443.99 117.83 443.83 116.46 445.5 112.96 448.64 109.16 449.56 105.92 453.33 103.22 454.13 107.06 453.38 108.41 453.67 114.03 458.15 116.2 457.47 118.27 458.75 122.98 458.62 129.08 460.4 130.02 463.12 129.28 465.75 130.21 468.74 128.49 469.46 130.41 467.75 131.53 465.03 138.06 461.4 140.67 460.13 143.49 460.45 145.71 462.88 149.1 465.5 151.11 468.28 152.3 471.47 151.95 477.05 148.98 483.74 146.83 487.77 145.96 490.79 145.89 496.25 142.58 500.23 142.09 501.63 143.07 504.55 141.45 508.44 140.17 510.71 141.96 510.61 146.62 507.53 150.7 505.1 150.86 502.91 152.05 500.7 151.86 495.62 154 494.77 155.31 488.67 158.4 485.21 158.62 483.71 161.54 479.63 163.41 474.99 169.84 475.97 171.64 471.99 177.19 472.12 178.61 470.03 183.11 468.14 186.04 466.15 187.55 462.29 186.92 459.13 188.59 456.14 187.4 454.11 187.4 452.16 186.21 448.85 185.98 445.37 181.92 440.53 183 437.5 185.14 433.31 189.66 429.89 194.57 427.13 200.13 425.37 207.11 425.68 210.82 427.74 214 430.99 214.63 431.78 216.89 429.06 219.35 427.22 222.03 425.91 221.98 421.77 228.4 419.64 228.74 414.97 230.86 413.81 227.61 410.4 228.25 408.88 226.54 406.41 228 400.86 229.57 398.06 227.52 393.13 229.63 391.3 231.56 386 230.68 382.92 232.52 379.82 235.99 377.85 235.8 376.3 238.46 375.12 242.41 372.14 247.87 371.55 249.92 371.24 255.37 369.7 258.28 369.19 260.99 366.85 266.75 366.11 274.48 364.65 280.26 364.77 281.97 363.53 286.98 363.17 291.91 363.4 306.68 363.95 310.03 364.2 315.73 365.18 320.9 365.65 328.97 367.16 335.97 367.16 337.83 369.39 342.22 370.17 346.14 372.35 353.02 374.78 359.59 378.14 366.1 378.66 368.33 380.94 371.36 382.95 375.3 384.73 376.6 388.77 380.95 391.55 382.67 395.04 380.67 396.92 382.58 394.44 384.53 395.09 386.72 399.04 390.23 402.97 392.35 407.42 394.06 410.21 393.77 418.2 391.29 421.78 388.03 421.96 386.82 424.6 382.43 428.6 380.29 431.74 377.1 446.4 379.11 451.92 378.31 455.75 380.45 459.62 380.5 461.92 381.82 463.4 380.74 466.99 381.2 467.34 388.56 465.67 390.56 463.48 395.03 464.1 396.04 461.91 398.17 461.73 404.42 459.08 406.9 457.95 409.7 453.79 412.12 449.88 416.38 446.97 416.69 444.6 418.02 441.14 417.06 438.66 417.27 437.41 419.52 432.22 423.54 431.65 426.15 428.11 428.33 425.61 427.59 423.74 424.54 424.2 421.83 418.7 421.2 416.24 420.08 414.97 423.98 413.02 424.2 411.23 428.23 408.94 429.8 405.88 429.62 402.24 431.99 396.6 431.57 391.54 435.96 389.83 438.16 389.67 440.26 386.94 444.23 384.44 449.08 382.01 451.66 378.55 453.88 374.67 453.89 371.91 454.81 371.43 452.72 368.4 450.98 368.78 448.74 367.38 445.35 364.46 444.74 360.31 445.12 358.4 444.25 354.1 444.92 352.38 448.31 350.27 450.01 347.94 448.45 346.47 448.99 342.71 454.92 340.39 453.5 335.02 457.11 332.31 457.44 330.28 454.29 327.7 452.88 326.85 450.58 324.84 449.62 320.28 449.92 317.11 451.05 314.79 453.31 312.04 459.47 310.79 460.45 311.36 462.62 313.73 464.41 311.73 468 311.62 470.42 309.8 472.72 306.48 473 305.41 468.05 299.48 469.47 298.57 469.12 298.99 465.69 298.6 461.68 299.35 460.5 297.19 459.13 296.01 452.37 297.88 451.67 302.73 447.96 304.8 442.85 306.25 442.76 309.71 440.68 313.52 439.48 315.55 439.93 318.62 438.41 322.51 432.49 325.27 430.91 329.94 431.04 334.1 428.38 336.54 424.23 338.58 422.17 346.34 417 348.88 416.65 354.1 411.35 356.91 410.18 358.52 407.24 360.56 398.29 363.6 391.61 365.63 389.86 368 384.77 361.95 373 357.06 365.46 350.37 356.69 342.83 348.05 331.05 336.7 319.53 327.85 313.82 323.18 310.47 321.04 307.83 318.15 302.52 314.64 294.84 311.03 287.51 308.36 272.24 304.37 270.32 302.11 264.54 300.96 252.2 299.73 245.29 298.52 236.43 297.95 227.72 298.17 213.63 299.77 202.2 301.94 183.14 307.93 179.16 312.2 175.95 314.69 175.12 318.16 173.3 319.94 170.41 320.1 159.49 325.63 159.06 327.66 156.14 332.76 144.95 339.42 140.85 342.79 140.1 345.47 141.29 349.67 140.05 349.99 140.42 353.4 139.14 354.93 138.19 357.9 135.72 360.82 132.57 363.2 131.27 365.52 123.95 368.78 118.24 373.15 114.54 371.19 114.15 368.22 109.65 367.67 105.23 369.95 100.12 375.07 98.58 377.27 95.84 378.8 93.82 380.99 89.91 380.18 86.16 382.49 83.23 380.78 76.33 385.22 71.48 387.79 70.02 389.18 65.44 391.01 62.33 391.15 58.33 394.48 56.21 397.89 49.6 407.4 43.54 417.65 40.86 418.41 37.11 421.04 34.07 425.31 34.49 427.38 33.04 429.37 29.81 430.61 Z" fill-rule="evenodd"/>
</g>
</svg>