<?xml version="1.0"?>
<svg xmlns="http://www.w3.org/2000/svg" version="1.2" baseProfile="tiny" width="800" height="700" viewBox="0 0 800 700" stroke-linecap="round" stroke-linejoin="round">
<g id="4202438">
<path d="M 588.69 149.37 583.31 149.42 579.01 148.85 576.6 148.32 574.05 148.72 570.86 150.23 569.04 151.95 569.1 154.59 569.79 155.9 573.69 157.94 574.59 158.66 577.85 162.21 581.25 164.9 582.06 166.59 579.75 171.29 579.15 175.02 578.07 177.74 577.21 182.51 578.89 186.02 580.05 191.79 579.28 196.59 578.51 199.16 579.44 202.05 581.9 205.53 584.78 208.1 587.7 208.66 593.2 207.66 599.23 207.89 601.31 207.78 603.59 207.19 609.74 205.12 612.61 204.34 614.41 204.59 618.62 206.3 620.71 206.77 625.08 206.55 629.22 205.41 630.58 205.59 638.8 214.44 641.14 217.12 643.09 218.56 646.83 220.14 648.42 220.16 650.66 218.95 651.45 217.51 651.56 210.67 651.44 208.76 652.35 206.79 653.19 206.17 654.54 206.26 655.56 207.29 659.73 213.14 661.3 214.45 664.41 215.59 669.56 216.28 670.87 216.71 673.71 219.55 674.78 221.79 675.47 224.02 678.21 226.56 680.19 227.57 681.07 228.94 680.55 230.72 680.15 236.19 680.52 237.09 683.27 240.45 685.48 243.47 686.24 245.52 686.27 246.7 685.38 249.43 684.5 251.12 684.23 252.71 685.2 254.72 687.76 257.7 689.51 261.63 690.03 265.01 689.47 268.16 688.47 270.98 687.92 275.81 688.61 284.23 688.4 286.71 687.59 290.15 687.91 292.1 690.2 293.61 695.98 295.73 712.05 299.73 717.93 299.18 720.3 296.97 723.75 292.71 727.39 290.26 730.45 288.57 735.54 286.12 737.19 285.56 740.71 285.12 747.74 285.36 749.87 286.42 750.63 287.74 753.55 294.46 753.5 296.82 750.8 301.41 748.45 309.21 747.19 315.12 747.17 316.23 747.92 318.42 749.12 319.73 751.97 321.29 755.01 323.39 757.94 324.9 760.33 325.7 762.99 326.18 767.22 326.03 771.83 325.53 774.74 324.91 777.96 326.09 779.55 327.16 780.6 328.96 782.82 334.58 782.79 339.74 782.46 345.15 781.22 346.91 779.52 347.61 777.84 347.7 771.54 346.93 769.8 345.99 768.53 343.91 767.06 340.3 765.95 336.38 764.94 335.23 762.16 334.23 759.03 334.46 756.45 335.44 755.34 336.54 753.5 339.38 750.68 342.31 747.99 343.74 739.71 346.85 738.33 348.21 735.25 354.37 731.35 359.63 731.15 363 731.61 365.5 732.55 367.14 734.66 368.9 735.69 369.3 739.29 369.87 743.27 370.88 748.28 370.6 750.95 371.57 753.11 373.58 756.69 376.31 759.33 379.14 761.52 382.34 763.2 385.39 764.29 388.27 765.03 390.92 764.91 392.97 763.99 396.11 763.46 401.84 763.98 405.23 764.7 406.8 767.99 409.99 770.55 413.43 774.34 415.97 778.13 416.26 783.32 417.69 787.85 419.89 792.89 423.18 797.91 427.29 798.27 428.04 798.12 430.77 799 433.72 798.52 435.65 794.7 438.59 792.48 440.86 792.69 443.6 789.63 446.13 789.34 446.93 790.13 450.12 789.95 452.59 788.81 456.92 787.73 459.72 784.99 464.19 781.36 468.41 779.01 469.57 776.5 469.86 774.93 471.02 773.96 473.73 775.7 477.12 777.19 480.92 777.06 482.47 774.88 483.9 771.45 483.71 769.87 483.02 768.21 481.54 765.32 477.89 764.04 474.62 763.83 471.54 764.38 468.69 765.96 462.8 767.17 461.13 769.83 459.41 772.13 456.16 775.47 451.95 777.83 448.59 778.31 446.47 777.52 445.11 774.29 444.94 769.64 445.48 766.43 446.05 762.3 446.07 757.36 445.38 750.1 446.03 749.05 446.39 745.5 449.41 742.69 452.24 740.62 453.79 738.38 456.8 737.37 458.57 738.93 460.04 737.59 461.95 737.75 462.94 736.35 463.8 737.23 464.64 736.54 466.74 736.7 468.25 735.65 468.13 735.9 471.47 734.1 474.3 734.51 477.1 733.34 478.69 732.39 482.39 731.08 484.34 727.68 485.77 726.01 487.72 725.97 490.73 725.22 491.95 723.87 493.11 722.2 493.54 722.21 494.48 719.41 497.01 719.04 497.91 716.53 499.32 716.27 501.05 715.27 502.16 714.25 504.94 714.02 507.41 714.85 508.34 716.47 508.15 716.17 509.39 715.19 510.58 712.96 514.87 711.12 517.34 709.28 518.71 707.34 519.23 706.62 520.28 706.83 522.09 705.47 526.69 703.62 529.42 701.81 533.11 702.01 534.48 699.73 534.88 697.14 536.44 696.64 539 695.55 540.62 697.28 540.85 697.61 542.18 695.92 546.69 691.96 550.49 689.8 551.06 687.55 553.62 686.49 557.01 684.95 558.53 682.96 561.15 680.4 562.79 679.52 563.89 676.73 568.84 674.37 572.19 672.67 572.27 671.85 573.01 671.01 575.33 671.38 577.45 670.42 578.38 670.9 579.25 669.18 583 668.92 585.82 669.13 587.46 670.26 588.92 670.34 592.43 671.98 596.28 671.88 598.17 669.95 599.53 667.67 601.55 666.17 603.42 662.73 608.66 662.43 611 663.16 614.89 663.76 616.72 662.68 617.6 659.49 618.02 657.33 618.03 655.91 617.26 653.92 617.4 653.38 618.54 648.97 618.44 644.24 619.23 641.82 621.04 636.7 624.18 633.3 625.42 628.76 627.4 623.63 631.42 621.81 633.2 620.38 636.27 619.82 639.02 617.88 639.91 616.04 639.05 613.2 638.39 610.79 638.34 609.09 638.75 605.42 640.61 604.83 641.82 603.51 646.96 599.78 651.98 599.48 653.58 600.89 656.04 601.14 658.67 599.82 660.8 595.86 664.75 592.53 667.26 590.6 667.57 587.76 666.7 584.78 666.13 582.84 665.24 579.49 662.82 576.08 661.43 570.08 659.62 567.89 660.21 565.23 662.01 563.86 663.6 561.71 664.73 558.82 667.41 556.7 668.27 551.27 671.91 546.04 673.94 542.46 674.19 540.66 674.96 535.16 680.38 527.82 687.02 525.55 688.8 523.23 691.36 514.07 699 510.8 698.03 506.06 697.09 503.86 695.99 500.79 693.89 499.07 692.22 496.38 690.32 492.54 688.78 489.63 688.67 487.36 688.13 486.33 686.89 486.62 684.1 489.17 679.74 493.61 674.35 494.26 672.36 494.32 669.26 493.7 667.11 491.04 665.49 490 663.23 487.28 660.09 485.62 659.5 481.23 660.03 479.13 659.93 474.45 658.43 472.53 657.32 472.12 656.58 472.84 653.48 473.62 651.72 474.24 648.72 473.68 646.02 472.02 643.63 467.1 638.9 462.17 637.8 457.86 634.19 455.4 631.77 452.85 630.4 451.84 628.54 452.58 624.95 451.68 621.5 449.26 616.55 447.52 614.96 444.67 613.68 441.91 613 441.29 612.3 441.13 610.32 441.56 608.78 443.54 604.7 445.49 601.78 446.86 601.06 449.09 600.66 450.7 599.7 452.42 599.26 453.83 598.37 453.74 597 452.67 596.4 449.09 595.21 440.45 591 439.27 590.29 435.32 589.82 434.39 588.69 433.54 584.44 431.83 582.29 430.28 581.45 424.81 580.22 420.85 579.73 418.08 579.87 415.98 580.71 414.21 582.69 412.61 583.72 411.62 583.81 410.45 582.8 409.99 580.22 410.09 576.84 410.78 575.34 412.75 573.62 415.46 571.83 416.4 570.74 417.69 567.73 417.03 564.81 416.08 563.98 413.16 563.51 409.57 562.31 405.4 562.27 403.42 560.95 400.28 560.01 396 559.72 391.08 559.82 389.33 558.97 388.13 556.64 385.32 556.12 376.33 556.37 374.03 556.63 369.2 557.78 364.75 560.52 362.41 561.16 360.62 561.18 357.78 560.62 355.33 561.19 352.79 561.23 347.85 560.39 344.61 560.51 343.01 561.06 341.22 562.67 338.34 563.43 332.06 563.79 327.89 563.46 324.01 563.99 322.31 563.73 319.48 564.05 317.86 564.85 315.16 568.98 312.12 570.98 309.59 571.86 308.15 571.9 305.62 571.22 302.31 569.78 297.77 568.83 294.69 569.01 292.5 568.58 290.51 566.3 290.3 564.61 284.54 562.28 279.97 559.48 278.45 557.92 276.48 555.08 273.6 551.83 272.96 549.63 273.79 544.1 275.19 542.57 274.95 540.86 272.85 540.06 269.75 540.71 266.57 538.97 266.42 537.12 264.14 534.47 260.9 532.77 257.97 531.99 255.31 532.32 253.99 533.44 252.98 535.96 252.19 536.9 250.53 537.1 248.65 535.52 246.95 535.85 244.79 534.91 243.97 533.26 242.25 528.64 240.07 525.32 238.5 523.42 236.07 521.16 233.11 519.52 229.45 518.49 226.28 518.02 224.57 518.06 221.85 517.67 218.15 516.14 216.86 514.43 217 510.68 218.09 505.15 219.98 501.94 225.06 497.87 228.23 494.27 227.98 493.62 223.74 491.7 219.88 489.11 217.31 488.02 216.55 486.99 216.3 483.7 214.58 481.71 206.94 476.03 204.19 474.55 202.71 474.06 199.72 474.28 197.52 474.01 197.31 472.9 198.36 471.28 198.73 469.88 196.6 466.33 194.58 464.54 194.81 463 197.01 460.99 198.98 458.29 199.77 456.19 199.45 453.33 197.73 451.8 194.47 451.51 192.06 451.57 190.06 450.67 189.12 449.19 189.61 447.99 191.31 447.43 191.79 445.92 191.26 444.67 189.5 443.1 185.35 443.23 182.15 441.67 181.19 443.46 178.54 444.91 177.43 446.39 177.28 449.98 178.23 451.4 177.6 453.23 176.47 454.61 175.46 455.12 171.18 456.25 167.17 456.05 166.04 456.31 164.68 457.71 163.8 460.04 163 463.41 161.41 465.48 158.7 466.79 154.65 466.83 151.79 468.9 150.29 469.61 146.82 469.32 144.35 470.35 141.63 469.75 139.7 470.2 138.2 471.33 137.03 471.57 133.63 470.02 131.18 469.96 129.11 470.36 126.9 471.67 126.25 472.91 122.31 488.18 120.24 485.94 116.85 485.32 111.88 483.05 110.41 482.18 109.54 480.01 108.3 478.63 107.69 476.21 106.13 476.34 105.59 480.55 107.94 481.16 107.83 482.57 107.05 483.19 104.38 482.44 104.73 484.71 104.03 485.93 101.99 485.76 100.14 488.14 98.4 487.89 96.75 489.7 92.25 490.88 91.09 492.14 89.5 492.12 89.5 489.16 90.37 487.02 90.65 484.63 90 481.19 87.5 478.5 87.48 477.17 86.82 476.53 84.22 475.83 83.24 475.2 80.29 474.15 79.63 472.3 77.92 473.06 77.88 474.14 76.91 475.98 74.41 476.42 73.34 476.14 70.37 476.26 66.93 476.67 62.38 479.2 58.79 477.02 54.95 475.33 51.22 475.36 47.39 476.94 45.78 478.5 44.76 480.19 43.08 482.15 36.82 481.81 34.9 481.15 31.86 479.5 29.89 478.79 27.06 478.45 25 477.31 23.68 475.86 23.19 473.81 22.54 472.79 20.35 470.93 18.01 469.78 16.54 466.42 15.29 465.19 15.09 464.11 17.9 460.9 19.7 458.46 20.01 456.5 19.2 453.93 17.47 451.16 15.13 448.09 14.11 445.5 13.44 444.69 11.14 443.77 8.17 443.34 7.5 442.71 6.97 440.91 5 436.27 3.98 435.27 1.63 433.89 1.73 432.42 3.61 429.9 5.9 427.94 6.44 427.07 6.16 425.67 4.95 424.66 3.09 424.32 1.74 423.01 2 420.26 1.49 414.33 1.12 411.83 1.29 409.47 1 408.17 2.73 405.86 5.15 404.58 8.41 402.07 10.01 401.16 11.42 400.94 13.45 401.23 16.49 401.08 17.77 400.39 20.6 395.87 22.43 394.15 25.29 393.34 29.21 393.4 30.69 392.65 32.63 390.5 35.05 389.04 37.36 388.78 39.53 389.78 40.47 389.78 43.8 387.69 47.49 387.15 50.16 386.23 52.28 385.04 53.7 385.27 56.16 387 59 386.97 60.71 385.55 61.54 384.31 63.27 383.27 65.15 382.86 67.91 384.01 68.85 383.01 71.15 383.62 73.18 385.59 76.37 387.34 78.02 387.25 79.8 385.66 81.04 383.62 82.76 381.66 83.11 379.68 82.67 378.38 82.67 376.35 83.29 374.57 84.42 373.15 86.33 372.24 86.7 371.25 86.09 369.37 86.39 366.72 85.6 365.42 85.6 362.76 86.04 361.11 88.55 357.84 89.16 355.14 91.16 353.3 94.57 353.05 96.03 352.62 97.1 350.8 99.63 349.99 100.86 348.75 102.2 348.02 104.69 348.26 106.3 347.73 109.71 345.33 113.05 344.32 114.19 343.6 114.16 338.01 118.06 334.5 118.87 332.86 118.69 331.61 117.22 327.14 116.28 325.67 115.75 323.42 116.32 322.48 118.74 321.48 118.95 319.91 118.15 317.34 118.66 314.95 121.11 312.17 119.7 310.2 119.81 308.58 121.1 303.58 123.65 300 123.55 298.9 122.51 296.41 123.68 294.63 124.19 289.43 123.09 286.78 123.64 284.48 123.63 279.97 122.96 278.2 121.85 276.74 120.5 273.91 121.06 272.36 120.26 270.21 120.38 267.71 119.81 265.54 118.57 264.05 114.48 263.24 113.2 262.02 114.08 259.12 114.04 256.68 114.51 254.06 114.38 253.16 115.8 247.48 117.56 244.48 119.8 242.28 118.45 239.67 117.13 238.57 113.76 238.64 114.36 237.6 117.3 236.21 120.3 234.43 121.57 233.41 123.35 233.19 125.66 230.68 126.16 229.13 125.89 227.06 123.65 227.68 122.65 231.4 121.95 231.41 121.38 228.67 121.81 227.1 123.82 226.59 125.36 224.33 126.82 222.88 128.67 221.84 129.74 221.98 130.36 221 129 220.32 124.63 214.4 123.76 212.55 123.3 209.21 121.22 208.07 120.35 205.68 120.32 203.61 120.74 201.4 122.71 198.2 128.12 194.07 133.46 193.25 133.9 191.81 133.67 190.67 132.37 189.62 130.96 189.63 128.5 190.67 127.11 190.93 126.15 190.51 124.52 188.64 123.89 187.41 124.5 184.81 126.91 181.73 128.1 181.17 127.37 180.01 128.85 178.75 129.79 178.48 129.73 176.69 130.56 176.8 132.3 174.47 132.27 173.66 130.67 173.01 131.6 172.15 132.47 170.43 132.15 169.28 133.13 168.62 134.91 169.26 135.44 168.44 135.11 167.05 136.44 165.82 135.39 165.06 136.68 163.37 142.37 160.67 143.93 158.7 144.97 158.19 145.28 156.12 145.93 155.34 144.05 153.04 143.79 152.05 145.54 149.79 146.81 149.42 150.86 149.88 152.38 148.53 153.85 146.54 156.43 145.47 156.76 143.56 158.21 140.12 159.3 138.04 160.46 137.08 160.43 135.3 163.05 135.27 164.46 135.98 166.49 136.44 169.05 136.55 172 137.25 173.68 137.21 174.61 136.69 177.09 137.09 177.84 137.59 177.92 139.12 180.89 140.03 181.73 138.16 183.6 138.31 184.09 140.33 185.83 140.58 186.56 138.39 186.81 135.05 187.64 133.08 186.48 131.28 186.58 129.98 188.25 128.01 186.93 127.28 186.83 126.35 188.34 126.13 187.12 124.05 187.07 122.6 185.11 120.67 183.23 120.56 181.01 117.99 181.08 117.29 184.08 113.19 186.31 111.48 187.04 109.79 189.4 108.13 190.92 107.4 193.05 104.79 192.81 97.87 192.45 92.8 192.47 87.89 193.93 82.79 193.37 79.86 188.37 76.89 186.63 75.4 186.31 72.31 187.62 65.15 187.5 63.47 188.96 60.48 191.57 58.03 192.17 57.06 194 57.63 197.56 55.94 200.05 53.69 202.04 50.3 202.53 48.57 201.9 45.16 200.91 43 199.7 41.31 197.84 39.43 193.09 36.18 187.64 33.6 183.34 30.66 180.47 26.87 176.85 23.5 172.26 18.31 169.79 14.49 168.34 11.03 167.3 4.03 168.44 1.66 170.64 1.05 173.87 1 176.87 1.45 179.75 3.05 185.27 10.44 188.66 15.3 189.84 16.71 193.02 18.93 194.8 19.42 197.91 19.83 204 19.94 205.87 19.71 207.32 18.91 210.06 16.62 214.26 11.62 218.52 7.22 220.36 6.07 224.75 3.96 226.73 4 227.41 5.39 228.04 7.99 229.2 10.83 230.44 13.04 232.08 15.07 237.25 17.16 238.71 18.32 242.03 22.27 247.29 25.87 252.37 29.99 257.4 34.84 258.61 37.9 259.32 41.73 258.26 43.08 256.45 44.62 253.71 45.96 251.04 46.56 248.1 46.06 243.7 43.95 241.46 42.14 240.04 40.6 238.49 37.94 237.08 36.96 234.54 36.87 231.45 37.47 228.16 38.43 223.7 41.28 221.24 43.32 217.65 46.67 215.47 49.41 214.17 52.35 212.75 56.61 212.68 58.34 213.16 59.89 215.59 61.89 218.81 63.76 223.18 64.76 226.96 64.69 235.35 63.98 240.53 63.88 242.13 63.99 246.2 64.79 249.67 66.98 250.68 68.48 251.95 76.33 254.44 81.52 255.09 83.35 258.17 88.91 259.41 91.44 262.85 97.58 264.41 99.73 265.86 100.96 269.1 102.86 271.63 103.61 280.63 107.15 283.26 107.57 288.22 106.06 291.94 105.82 294.78 105.19 299.09 103.39 304.88 99.85 306.52 98.33 307.84 96.34 308.92 91.82 307.92 90.29 306.45 88.86 304.61 86.23 302.63 80.57 301.47 76.39 300.94 72.89 299.46 66.71 299.44 64.5 300.15 59.18 301.49 56.36 306.09 54.58 310.64 52.15 318.04 49.17 321.01 48.22 324.02 47.86 325.81 48.39 327.85 50.21 328.54 53.3 328.57 55.07 327.76 57.1 324.62 60.12 322.82 62.29 317.7 69.12 317.39 71.61 318.04 73.37 322.27 76.24 324.67 77.06 326.75 77.22 332.73 75.48 338.26 74.36 342.3 74.16 345.82 74.27 346.97 74.54 349.97 77.86 354.62 81.74 358.99 86.69 363.81 91.43 364.32 93.1 364.87 97.97 366.14 99.77 368.88 102 370.41 103.58 374.12 109.3 375.9 111.62 378.73 114.14 382.24 115.61 384.61 116.84 386.57 118.79 387.97 121.26 389.88 123.92 391.51 125.4 393.4 126.46 397.97 127.22 400.38 128.06 403.7 129.82 413.6 133.28 416.06 133.95 418.19 133.59 422.22 130.32 423.09 129.28 424.04 126.96 424.15 125.81 421.98 121.27 420.74 118.26 419.86 114.86 418.95 112.36 416.82 109.24 414.22 106.32 412.39 105 409.62 104.22 395.51 101.03 392.8 99.64 390.13 97.88 388.45 96.07 388.01 93.33 388.52 91.32 390.19 88.72 391.9 85.59 392.71 83.14 394.72 81.78 396.87 82.18 405.18 88.24 408.8 90.47 410.69 91.24 414.58 91.95 419.35 92.07 421.41 91.81 423.91 90.91 430.87 87.11 432.45 86.8 433.9 87.72 434.75 90.64 435.44 94.04 435.78 97.72 436.21 98.66 440.98 104.07 443.98 106.88 446.49 108.49 453.9 112.38 455.78 112.76 458.07 111.58 459.33 109.78 457.71 106.38 457.98 104.52 460.4 102.05 461.83 99.63 462.5 97.81 462.57 96.19 461.32 91.12 461.55 86.08 461.58 79.98 462.47 77.21 463.35 76.34 465.43 75.57 466.65 75.76 472.48 77.94 473.41 78.61 473.5 79.97 472.6 81.85 474.2 85.5 474.59 87.99 472.79 92.85 472.87 95.58 474.8 101.09 475.07 103.89 474.73 107.42 473.74 113.23 474.04 115.6 474.84 117.87 477.04 121.26 480.73 126.46 481.59 128.71 485.48 131.55 495.21 135.35 496.57 136.83 497.85 140.3 498.75 141.36 502.3 142.36 505.72 143.88 507.61 145.66 510.33 149.41 511.33 151.76 511.63 153.61 510.72 155.41 505.57 160.15 502.9 163.19 502.16 164.4 502.18 167.11 504.64 170.82 506.34 172.61 510.51 175.23 512.31 176.72 518.91 180.22 523.48 183.37 524.94 184.17 528.08 184.1 529.02 183.18 528.88 182.16 527.59 179.9 526.68 176.88 527.25 173.61 526.89 171.96 525.69 168.9 525.87 166.01 528.34 162.67 529.44 160.3 531.63 154.71 531.92 153.6 530.7 146.93 530.95 145.85 532.6 142.8 533.1 142.42 536.29 141.61 539.35 140.01 542.15 137.16 544.31 132.97 545.57 131.73 548.62 130.17 552.91 128.27 560.71 125.96 563.36 125.67 566.86 125.6 575.6 124.46 577.8 124.76 581.77 125.81 584.21 126.78 586.4 128.13 591.77 130.7 596.71 132.89 599.68 134.52 601.13 136.7 601.85 143.88 600.7 147.22 598.12 149.72 596.34 149.98 591.24 149.38 588.69 149.37 Z"/>
</g>
</svg>