<?xml version="1.0"?>
<svg xmlns="http://www.w3.org/2000/svg" version="1.2" baseProfile="tiny" width="800" height="1155" viewBox="0 0 800 1155" stroke-linecap="round" stroke-linejoin="round">
<g id="4202537">
<path d="M 726.82 828.38 724.03 835.53 720.7 839.51 707.06 845.79 703.72 849.04 694 864.5 697.33 871.65 693.55 879.35 688.02 881.72 684.83 887.14 689.75 890.4 696.48 890.25 705.7 895.19 709.21 898.77 721.94 898.81 725.03 901.06 729.7 894.35 737.44 901.06 736.2 907.56 732.31 913.03 726.7 914.4 728.66 917.88 737.25 923.77 742.84 924.74 741.9 929.28 735.08 939.53 743.85 947.42 743.96 950.41 737.3 956.67 735.12 963.25 739.34 967.27 741.01 972.32 739.9 978.13 734.64 980.74 738.97 984.59 746.2 977.15 752.37 977.19 752.54 980.72 748.83 988.37 748.77 991.81 754.49 995.49 749.62 1000.2 746.41 999.09 742.99 992.96 740.17 995.88 743.02 999.24 742.59 1004.18 744.57 1008.03 750.53 1014.2 751.29 1022.36 753.72 1024.87 759.55 1023.44 762.19 1028.5 764.37 1042.09 770.31 1035.42 773.12 1039.83 784.64 1044.36 780.63 1050.56 786.07 1053.8 786.41 1063.1 715.87 1075.64 709.54 1076.58 699.73 1085.96 691.7 1096.81 684.12 1109.95 669.5 1127.89 662.72 1139.13 655.33 1148.78 650.17 1150.49 455.28 1052.95 291.57 1039.77 287.89 1110.49 274.49 1116 252.99 1125.75 238.49 1139.92 234.06 1149.4 229.47 1153.57 224.24 1154 207.92 1149.91 197.82 1145.47 187.22 1142.9 179.58 1139.83 170.38 1127.67 167.82 1120.06 172.74 1095.93 175.53 1088.61 171.67 1079.77 171.54 1069.64 188.89 1055.19 191.69 1047.37 188.76 1037.39 183.88 1029.97 172.03 1023.81 162.75 1021.42 145.07 1024.87 123.33 1020.7 109.38 1016.76 92.03 1007.5 79.19 991.05 75.4 983.84 57.58 965.69 51.6 962.2 39.49 959.34 1 938.32 2.36 935.13 17.48 928.28 20.25 928.95 29.92 926.42 41.48 926.14 52.04 919.99 57.83 921.6 60.96 919.22 68.54 921.86 75.94 919.75 80.68 916.48 89.67 915.59 92.42 911.48 100.21 907.84 100.05 902.32 105.19 902.83 127.96 902.01 138.16 897.79 146.17 891.84 150.37 886.9 154.93 875.79 155.82 868.66 154.3 863.31 155.61 858.29 164.31 851.18 181.95 841.53 189.74 839.52 200.78 838.41 203.92 836.31 206.73 829.65 207.56 821.98 206.38 816.8 202.87 812.14 187.16 798.59 182.87 792.8 175.69 777.1 168.2 759.1 161.83 751.52 161.09 741.95 167.49 730.96 172.74 727.3 190.44 724.75 204.2 724.55 215.59 725.26 223.77 722.21 234.45 719.95 242.78 719.31 262.29 724.41 286.33 727.14 295.17 723.84 317.71 717.05 322.65 704.29 316.37 695.26 312.33 691.15 309.02 691.37 299.86 682.48 298.24 677 299.71 672.94 308.13 668.66 303.74 667.09 303.05 661.96 291.09 662.85 286.12 658.5 283.84 653.65 288.38 651.96 288.87 646.05 279.36 643.35 278.51 637.3 275.23 632.63 279.71 624.51 276.28 617.86 268.9 615.16 269.77 607.26 265.24 603.91 261.11 598.43 255.01 599.29 249.86 596.14 248.23 591.93 248.35 577.93 246.26 573.18 251.11 572.39 256.15 576.16 259.83 569.42 255.46 556.92 249.74 555.72 244.39 560.1 238.65 558.36 238.26 552.52 228.32 550.18 220.81 552.6 213.96 551.69 206.1 547.61 203.89 538.38 199.66 535.59 195.41 527.93 197.8 523.54 196.83 519.31 198.51 514.51 194.06 506.91 185.04 506.26 174.49 499.74 157.57 500.97 147.23 495.66 140.32 473.22 141.67 467.23 137.39 461.14 139.74 451.12 136.23 446.47 133.99 438.02 131.81 435.55 130.9 425.65 134.93 419.93 141.56 414.93 142.51 407.69 141.05 402.17 141.99 396.3 139.6 387.01 142.63 379.78 141.52 372.56 143.74 368.24 141.5 348.9 148.9 339.86 156.57 324.56 161.39 317.21 168.26 313.46 180.49 309.9 186.08 309.91 193.71 303.04 201.65 289.83 214.08 277.23 226.08 260.52 229.98 258.9 238.94 263.79 249.2 263.89 260.19 266.99 265.3 271.71 272.95 282.34 282.83 290.74 287.05 295.62 294.4 297.58 300.82 300.73 309.85 301.15 321.57 304.49 327.84 307.2 342.17 309.62 359.31 307.78 388.67 313.8 399.15 317.89 407.22 319.3 412.51 321.93 419.13 318.79 433.23 323.14 441.1 332.18 446.84 336.68 458.79 340.8 478.83 349.32 481.71 339.46 481.21 334.01 478.19 328.62 480.7 325.71 480.33 318.65 488.54 316.43 487.74 312.81 481.52 310.92 483.42 298.53 481.56 295.57 484.48 285.17 481.13 273.22 480.38 265.35 488.02 260.38 488.97 253.78 497.28 244.18 494.12 239.64 494.96 234.53 489.72 219.65 486.44 215.49 484.51 208.36 477.82 198.26 473.53 194.35 463.92 182.9 461.95 175.48 464.42 162.44 461.4 158.02 457.69 146.96 450.19 135.08 435.52 128.66 445.52 122.02 451.47 121.77 461.17 123.76 469.92 123.33 487.07 115.4 501.42 112.12 524.41 105.01 525.13 101.79 524.58 80.89 531.13 68.35 533.14 57.85 534.04 46.96 535.89 40.21 541.67 35.53 550.05 34.15 565.55 38.33 580.8 41.58 603.69 41.8 618.68 40.1 633.24 37.07 641.92 24.97 646.66 22.13 647.18 1 653.63 10.04 657.24 12.57 673.43 19.77 680.37 23.98 683.43 30.77 680.09 36.75 667.72 40.16 664.79 43.43 666.44 49.9 670.97 56.21 684.26 64.68 685.86 70.08 685.32 85.18 683.58 95.67 678.8 107.51 680.51 113.7 706.77 134.91 723.51 148.83 726.98 153.43 728.72 161.26 729.6 181.79 729.78 198.58 720.36 235.86 719.51 246.28 722.67 263.06 734.42 316.23 740.58 320.32 746.23 316.95 748.53 326.1 740.48 330.39 745.12 336.35 750.36 336.17 753.39 339.2 748.3 349.72 753.5 352.76 749.91 357.51 747.48 364.79 740.88 370.11 734.88 368.56 730.81 374.64 730.33 379.12 724.13 379.48 720.51 385.63 715.89 387.74 709.99 385.56 708.78 390.46 702.65 402.3 710.84 401.19 721.79 406.8 735.64 412.24 744.54 417.03 749.59 424.43 759.95 427.03 759.68 432.86 764.31 444.12 769.82 447.55 778.75 456.04 786.02 460.51 792.41 466.7 798.31 475.44 799 495.32 792.25 504.59 790.85 509.21 781.73 517.7 776.98 523.48 769.37 538.7 762.18 541.41 749.58 542.43 728.72 555.51 732.68 577.7 729.64 590.72 723.12 600.91 719.71 613.06 713.63 624.16 699.76 636.33 694.96 644.59 690.54 647.62 665.57 667.98 655.28 677.55 650.81 688.72 646.58 696.55 642.41 709.66 641.31 729.3 648.72 741.94 653.07 743.33 656.49 747.56 664.89 740.6 669.54 740.98 676.52 748.43 676.5 755.66 673.64 762.23 673.95 769.29 679.65 781.52 692.27 793.2 699.22 802.82 709.61 814.59 726.82 828.38 Z"/>
</g>
</svg>