<?xml version="1.0"?>
<svg xmlns="http://www.w3.org/2000/svg" version="1.2" baseProfile="tiny" width="800" height="955" viewBox="0 0 800 955" stroke-linecap="round" stroke-linejoin="round">
<g id="4202859">
<path d="M 527.2 4.55 540.2 2.72 542.74 3.27 549.17 8.76 558.51 10.43 560.83 12.9 561.94 17.43 568.46 21.28 577.34 21.78 586.03 23.17 591.23 26.18 599.48 33.3 601.4 36.26 606.75 37.47 616.93 34.36 622.01 30.51 627.3 29.11 631.24 31.42 638.17 41.11 640.89 42.49 658.06 44.37 666.5 42.11 673.08 41.57 676.75 45.58 679.22 60.91 684.65 68.02 686.12 74.45 685.48 86.44 681.52 93.13 682.29 99.48 685.6 103.5 696.15 108.76 702.25 114.23 713.74 117.63 719.39 117.35 726.51 118.97 732.47 118.68 736.97 114.53 799 157.49 794.73 163.03 787.46 174.81 774.09 188.39 767.31 193.06 757.78 198.07 754.98 200.49 751.12 208.57 746.5 212.72 732.58 222.94 725.55 229.69 719.31 231.15 714.05 234.99 709.8 245.59 702.41 260.01 698.48 261.51 693.63 261.21 690.19 267.07 688.89 272.4 683.88 280.03 674.17 285.45 661.03 290.02 660.24 291.65 664.3 297.96 662.66 300.83 652.03 302.29 643.75 304.55 639.3 311.93 637.61 317.99 628.91 322.93 627.3 325.4 624.8 333.57 626.64 340.99 623.71 345.43 623.37 357.06 628.59 366.53 623.94 382.95 624.11 385.99 627.85 392.31 628.25 397.3 626.21 405.21 627.73 411.93 629.71 413.92 636.35 415.82 648.81 414.64 650.94 415.1 658.49 420.98 659.15 427.7 658.03 434.93 662.42 445.53 663.63 454.42 662.42 465.16 664.2 471.62 660.25 487.35 653.6 494.83 652.68 498.1 654.99 500.04 662.27 500.89 667.32 506.92 671.83 510.58 673.81 515 678.17 520.07 676.11 525.66 676.85 529.14 680.94 536.64 678.82 540.44 679.25 546.16 682.79 557.41 680.63 568.82 676.14 574.09 671.56 576.59 669.93 579.05 672 583.47 684.1 589.4 687.75 592.93 696.6 607.09 699.18 617.76 697.15 624.5 694.54 629.14 694.41 635.56 697.11 642.04 696.57 647.93 691.2 650.78 683.96 646.51 680.88 645.96 671.72 647.75 659.45 656.21 651.92 664.76 636.41 679.29 625.08 683.32 623.12 689.61 623.84 697.55 622.99 709.34 617.98 715.57 617.6 727.03 616.22 741.17 615.43 744.19 603.83 755.03 599.72 764.77 601.2 771.76 593.29 774.48 584.63 774.53 577.39 769.03 573.66 768.04 563.21 768.58 550.59 772.41 542.62 776.84 522.38 793.07 512.31 795 509.04 798.82 508.55 803.1 510.31 813.75 509.48 816.45 504.73 822.06 504.3 844.36 499.8 851.05 493.15 856.56 484.83 861.53 475.15 871.94 472.72 872.82 453.34 875.02 442.03 873.79 435 874.11 428.27 872.61 419.59 868.07 416.38 868.79 409.83 873.3 407.66 881.27 403.33 883.95 394.56 893.05 389.04 897.65 381.99 901.12 375.66 908.44 375.56 913.54 372.72 918.42 367.61 924.54 364.57 931.93 364.92 933.55 358.19 942.51 350.54 946.15 339.09 945.09 328.76 949.76 328.23 952.91 325.22 954 315.03 951.98 312.34 945.89 308.23 941.18 307.5 937.88 299.06 940.63 291.53 937.06 285.98 937.29 279.53 932.26 279.47 928.14 284.21 916.8 287.1 911.73 284.28 907.63 289.17 903.5 288.92 899.58 293.55 895.34 290.09 891.17 280.5 886.51 275.88 883.21 274.51 880.15 276.85 878 275 874.76 274.17 869.13 270.15 869.12 261.01 873.5 256.23 876.66 243.92 878.32 237.77 877.4 230.25 872.78 229.88 865.46 231.11 861.72 242.08 857.83 245.98 854.06 250.08 848.18 249.91 844.08 241.51 839.98 238.7 833.83 239.82 825.22 231.62 820.71 229.4 823.58 232.65 829.73 232.43 836.08 222.18 839.7 219.32 839.43 216.84 834.74 212.08 828.57 209.45 819.65 205.32 817.89 200.27 817.97 192.66 810.76 190.77 812.8 192 817.89 202.37 823.75 206.82 827.66 208.24 833.82 208.73 841.95 204.4 847.58 195.43 849.58 186.37 848.06 178.02 848.64 163.21 846.78 157.56 848.39 153.51 852.75 153.06 855.19 158.44 860.39 159.63 862.88 157.85 867.6 152.63 872 146.19 872.42 140.19 876.4 135.86 876.64 128.14 875.1 119.91 874.35 114.24 875.87 110.15 880.79 106.68 882.33 103.15 880.7 100.61 877.46 96.27 876.56 92.17 878.32 85.73 878.02 79.29 871.3 78.21 866.47 81.44 861.89 85.15 860.04 89.47 860.3 94.91 857.24 98.13 853.21 102.99 851.19 108.58 847.06 111.42 842.03 110.92 829.37 115.91 823.67 114.53 820.91 108.72 822.66 97.78 818.22 90.85 823.92 87.43 825.68 76.77 827.56 65.08 827.78 48.83 824.48 42.67 821.15 39.99 815.83 42.58 806.55 49.64 804.73 57.39 797.64 59.46 794.24 60.62 788.89 63.58 784.91 67.06 782.71 65.54 775.37 67.94 767.89 70.7 764.8 77.86 760.45 79.07 755.4 77.83 749.27 79.46 744.74 76.94 742.07 72.33 746.54 69.99 756.91 64.26 762.05 59.25 773.72 52.03 776.86 48.07 775.45 42.12 769.05 39.65 762.04 40.21 757.15 39.11 754.03 34.47 750.22 30.01 748.37 27.4 743.37 16.67 741.15 14.77 739.35 15.03 734.56 17.7 730.35 16.62 727.85 12.2 726.96 8.19 729.5 5.72 728.34 3.9 715.64 1 709.62 3.57 705.33 9.11 690.74 14.06 686.16 19.26 684.43 20.41 677.02 18.63 670.87 18.91 667.67 21.51 664.35 22.34 655.2 20.03 648.61 21.54 643.36 24.29 639.76 29.35 637.43 36.7 635.96 41.55 631.82 46.56 632.91 52.78 632.15 58.05 630.37 58.66 625.83 54.02 616.56 46.36 592.93 46.03 585.35 44.03 578.97 39.9 572.62 37.21 563.39 38.78 561.38 45.21 560.41 62.4 562.33 70.8 560.38 76.18 557.27 85.4 561.44 90.83 561.84 99.51 558.52 102.75 552.83 106.85 548.25 114.92 543.06 125.09 540.29 131.74 536.94 145.25 532.25 160.31 525.12 166.17 523.18 169.57 519.82 172.04 512.16 177.11 508.17 180.36 500.04 180.68 495.28 179.04 487.37 180.49 480.73 182.84 477.77 198.65 471.97 206.54 465.99 213.85 462.06 215.64 458.06 212.55 450.98 204.24 438.74 201.7 437.32 187.66 434.11 177.54 430.78 173.95 428.35 164.63 416.39 161.65 407.38 156.87 396.05 156.11 383.93 154.39 376.87 154.94 370.68 157.56 367.49 160.64 366.92 164.47 368.83 168.84 368.93 179.23 367.22 184.54 360.71 188.11 351.86 188.17 348.56 183.5 345.13 178.17 344.17 169.17 345.45 163.94 345.22 150.62 340.55 140.25 337.86 138.23 335.34 135.06 325.83 122.87 305.83 121.2 300.41 120.55 290.2 125.67 277.07 121.43 260.92 113.82 253.55 112.55 250.03 112.8 244.88 117.14 230.47 121.79 224.35 125.89 221.13 134.93 217.52 139.67 213.79 144.96 207.87 145.89 204.2 142.65 193.87 144.85 189.09 153.49 184.73 171.66 172.35 178.87 164.88 182.17 160.5 184.83 154.72 186.91 146.24 186.28 139.79 188.93 134.52 197.84 125.46 201.81 126.09 203.27 129.24 207.82 133.09 215.52 134.26 229.86 134.27 234.62 133.78 243.3 130.73 251.9 126.36 268.18 123.37 273.39 120.73 281.96 117.99 306.35 107.27 318.17 104.8 323.23 102.99 331.4 98.49 342.61 88.08 348.21 80.22 351.86 69.61 353.73 66.26 357.3 63.61 366.87 62.06 369.8 60.25 372.46 54.7 376.13 51.42 385.11 51.24 396.08 48.5 402.12 42.32 413.72 37.32 418.94 34 428.72 30.31 432.25 27.3 435.03 22.05 437.63 20.03 447.5 15.99 455.4 13.9 467.16 7.17 477.67 2.93 491.79 1 496.41 1.94 500.58 4.9 504.6 5.69 511.51 4.18 522.12 5.64 527.2 4.55 Z"/>
</g>
</svg>