<?xml version="1.0"?>
<svg xmlns="http://www.w3.org/2000/svg" version="1.2" baseProfile="tiny" width="800" height="836" viewBox="0 0 800 836" stroke-linecap="round" stroke-linejoin="round">
<g id="4202800">
<path d="M 760.03 189.58 762.33 186.42 763.56 186.03 765.11 187.6 766.95 187.26 768.49 185.87 771.32 185.89 773.64 190.66 777.15 194.5 776.81 197.36 777.48 200.56 775.81 206.04 776.74 208.52 776.5 210.19 778.85 212.81 782.08 213.88 782.96 217.36 784.63 220.92 787.53 220.55 789.92 221.24 791.1 223.44 796.8 225.42 799 228.23 798.32 231.07 796.73 232.21 796 234.2 794.97 241.24 791.13 243.78 790.28 245.26 789.67 250.74 790.74 257.59 793.7 260.28 796.34 264.09 797.1 266.22 797.02 270.41 796.4 273.42 794.01 275.75 792.08 275.67 788.87 277.9 784.97 279.73 784.55 282.46 781.77 285.15 781.98 287.2 783.45 287.51 787.49 292.71 788.01 294.81 787.76 300.34 785.05 304.16 784.29 309.11 785 310.88 784.82 314.53 786.55 318.42 785.2 322.19 783.33 324.09 782.71 325.82 783.46 327.25 790.23 332.66 788.87 338.33 789.94 343 789.76 345.85 790.45 349.69 787.72 354.12 784.29 358.12 782.76 360.49 777.2 363.62 773.25 364.76 768.99 364.59 764.31 365.59 761.48 365.31 758.95 365.81 757.64 367.66 757.61 370.13 756.64 373.54 755.23 375.77 754.8 377.99 752.21 381.01 751.34 384.08 751.26 389.88 750.67 391.81 745.89 397.27 744.13 398.73 743 400.85 743.95 406.23 745.11 407.99 745.79 410.83 749.14 413.64 750.35 415.42 752.47 416.08 752.77 417.83 750.27 418.51 747.69 420.2 746.57 421.77 746.33 425.63 745.23 427.56 741.79 429.29 739.71 431.23 739.94 434.82 741.9 437.73 744.84 440.11 745.32 444.2 747.93 446.65 748.03 449.2 746.61 453.26 745.53 461.27 746 464.23 750.98 473.69 753.66 477.95 756.14 479.66 756.1 482.75 754.4 486.49 754.55 488.38 750.48 494.26 750.18 496.03 751.09 498.45 753.51 501.83 753.21 506.39 754.52 508.76 754.57 510.35 752.01 516.04 749.11 520.78 744.37 522.53 743.89 523.34 744.12 532.39 744.73 534.97 742.9 538.01 742.07 541.58 740.99 543.55 741.54 546.47 739.23 547.04 737.47 553.98 735.52 554.98 735.21 556.63 737.72 558.09 736.77 561.68 735.63 569.27 734.99 570.98 731.46 572.4 727.49 575.88 726.45 579.39 725.78 583.92 723.83 585.47 721.14 588.78 720.27 593.65 713.68 601.27 711.56 605.24 710.73 608.29 708.22 612.7 709.08 615.86 708.83 619.49 706.93 622.04 707.12 627.12 708.8 630.88 710.08 635.47 711.94 637.41 711.02 638.29 712.87 641.32 714.01 647.74 715.63 649.6 715.82 652.27 715.19 654.48 713.77 655.69 714.6 659.85 717.08 659.62 720.25 660.87 720.91 663.56 722.57 665.75 723.53 669.25 725.15 670.75 726.47 674.69 723.23 677.1 725.12 679.29 729.1 680.75 731.82 682.99 733.41 685 733.5 687.44 735.85 688.65 740.25 687.58 741.73 688.76 740.25 692.15 740.9 694.77 738.47 697.7 736.97 698.69 737.95 701.01 734.68 704.05 732.09 705.61 732.11 709.02 734.12 710.33 733.88 711.7 731.59 713.49 728.54 713.63 727.18 716.58 725.59 717.6 725.03 719.45 722.45 723.25 720.61 724.63 716.65 725.53 716.55 727.72 714.81 729.54 711.06 731.74 708.41 734.7 703.87 735.14 702.71 735.95 700.04 739.77 694.77 741.97 692.99 742.12 687.78 740.6 685.31 740.74 682.44 741.69 676.39 742.95 673.66 744.81 670.34 745.74 669.78 748 666.98 754.49 667.25 756.35 666.9 760.78 666.25 762.88 663.42 767.37 662.8 770.47 659.94 774.6 658.57 775.57 658.87 778.22 658.64 788.45 656.81 792.17 655.28 798.34 655.78 805.18 655.1 808.32 653.15 810.42 651.95 814.86 653.41 821.89 652.51 823.53 650.5 823.76 651.28 829.35 652.22 829.76 654.05 832.77 653.73 835 649.65 834.09 645.78 832.22 644.68 830.92 643.38 827.05 641.28 826.55 634.91 827.82 630.51 824.44 626.98 823.05 620.74 823.25 618.31 822.35 615.91 819.61 618.68 814.11 620.38 811.84 623.08 810.28 624.81 806.47 626.58 803.98 629.51 798.74 630.21 796.8 630.58 792.13 630.11 789.73 627.45 785.79 627.98 782.36 625.31 777.39 621.18 768.45 622.21 764.65 622.54 761.05 621.54 755.94 620.08 754.44 618.31 754.47 614.34 757.08 612.01 757.24 607.04 753.77 603.81 749.81 601.34 743.03 597.51 743.43 594.97 742.9 590.7 739.57 585.44 738.73 583.44 737.5 581.57 735.33 579.57 731.06 578.73 727.02 576.67 724.42 576.73 722.82 578.67 720.42 579.27 717.25 579.6 712.05 582.44 708.71 584.64 707.55 584.64 706.41 582.7 704.01 584.37 701.41 584.94 699.37 583.77 696.74 581.38 694.1 580.79 692.66 581.54 687.47 582.44 685.37 581.76 683.78 579.87 683.1 568.27 683.24 566.97 682.64 562.95 682.53 558.66 681.68 556.31 681.84 552.04 678.67 546.98 680.03 545.15 681.1 542.71 684.03 541.32 684.57 532.84 684.64 531.47 685.02 525.24 683.08 522.68 683.29 517.27 679.8 515.44 674.23 514.33 673.26 515.41 670.31 512.82 668.01 508.01 667.15 503.04 667.32 498.38 665.55 494.04 665.1 491.87 666.84 491.96 670.53 489.84 673.48 488.39 674.34 484.23 675.07 479.24 674.17 475.87 674.81 474.78 676.02 468.48 675.13 468.45 676.84 465.11 678.21 459.23 679.23 458.14 675.9 459.51 665.2 459.97 659.77 461.43 657.18 470.36 643.18 472.96 642.26 477.46 642.23 479.79 641.71 481.86 640.06 482.37 636.35 481.7 635.36 470.83 625.86 465.43 619.99 462.56 619.11 461.1 619.48 457.41 618.04 456.01 615.95 455.9 613.75 451.29 609.94 449.79 606.64 448.38 606.06 446.03 606.83 445.58 609.26 438.58 608.74 436.04 610.1 433.73 612.45 427.98 612.97 422.57 614.6 420.05 612.57 417.08 608.16 410.28 606.53 407.95 605.7 402.01 605.63 398.55 607.7 395.35 611.03 392.68 614.93 390.98 616.57 389.58 619.57 385.42 622.21 377.15 623.9 371.58 623.31 366.78 621.67 357.09 619.4 353.92 618.2 350.99 616.16 344.19 615.23 341.69 613.03 338.15 603 336.42 601.66 333.66 602.66 331.69 606.06 329.72 606.9 325.52 606.3 320.9 603.9 319.66 602.46 317.49 597.34 311.92 596.16 309.99 594.93 309.06 592.69 308.64 589.21 305.24 586.98 304.84 582.46 305.51 580.15 305.18 576.4 301.83 573.34 296.09 573.88 290.38 576.06 287.81 575.21 287.29 569.12 289.49 566.48 270.16 508.52 221.34 490.8 166.17 443.25 80.13 434.91 1 411.22 5.9 410.08 8.08 407.35 10.05 406.84 10.76 404.61 10.59 400.34 13.15 398.43 16.37 400.4 18.71 400.75 21.98 399 25.12 399.08 27.07 397.64 28.89 397.58 29.55 395.81 32.88 394.76 36.25 392.71 41.92 391.83 43.27 392.57 43.57 394.7 42.35 395.89 42.16 397.74 44.98 398.22 45.57 401.1 49.31 398.3 52 398.2 53.25 401.41 55.62 402.2 57.71 401.87 57.8 400.29 62.57 395.41 62.56 393.24 64.74 390.45 67.48 389.91 69.77 387.46 72.74 385.47 72.81 382.38 74.61 380.38 77.23 384.24 79.12 381.72 81.55 381.84 85.17 381.03 89.13 382.63 90.16 384.07 90.62 387.96 92.39 388.46 93.49 389.98 90.93 392.64 95.33 393.38 95.6 391.85 99.31 390.28 101.43 387.33 102.2 385.06 106.4 382.67 110.77 383.03 113.14 382.45 115.45 383.65 119.51 384.23 121.81 383.19 124.66 380.24 124.46 377.81 126.58 376.42 131.04 376.24 132.56 377.94 136.03 379.77 140.18 381.42 139.46 383.14 140.57 384.43 140.59 387.11 142.73 385.99 144.67 382.61 148.72 382.12 149.4 381.4 153.91 380.5 158 377.93 159.25 375.62 162.18 375.27 166.85 373.39 174.08 368.39 176.11 368.19 179.02 370.47 186.05 367.42 188.52 367.99 192.24 367.97 193.85 367.32 197.07 368.77 199.66 367.51 202.94 367.5 204.55 369.52 208.7 368.95 210.78 369.52 211.55 371.42 210.52 375 211.12 377.93 216.07 379.05 220.68 379.35 227.08 376.25 230.56 375.34 233.16 376.66 233.69 380.57 236.82 380.53 244.73 384.92 247.86 384.38 253.49 382.28 258.3 381.06 259.63 382.15 259.65 384.74 261.44 389.37 263.76 389.63 265.29 391.16 266.09 394.23 267.71 395.33 269.21 398.42 270.52 402.56 276.24 399.73 280.53 401.06 283.83 401.23 285.42 402.7 289.38 403.35 291.52 404.29 292.51 406.28 293.57 413.72 293.38 421.1 296.04 423.59 301.73 426.93 304.48 427.7 306.94 429.79 309.06 430.49 311.83 432.3 313.85 435.13 315.45 435.89 317.36 433.32 324.2 429.87 325.66 428.76 328.23 428.21 331.6 429.24 337.64 426.01 340.54 423.82 344.87 423.22 354.15 424.74 355.09 427.61 353.97 430.22 354.17 431.63 356.21 432.68 356.56 436.15 358.4 438.66 356.32 442.26 359.02 445.99 360.04 448.64 361.19 449.52 361.73 452 360.14 453.65 362.57 455.32 364.26 460.93 363.4 462.1 362.9 465.04 361.85 466.59 363.73 468.85 361.57 473.1 363.19 473.6 366.57 471.8 382.8 465.92 384.69 463.69 385.57 459.58 385.66 449.87 386.92 443.21 387.08 440.71 388.16 437.84 387.93 434.27 386.09 431.45 382.97 429.95 380.89 427.89 378.06 424.1 377.05 421.33 375.35 419.7 369.28 416.86 364.66 415.04 358.25 409.16 347.59 402.36 346.29 400.97 342.99 395.94 342.59 392.91 343.94 389.64 344.45 377.69 344.24 373.98 343.04 372.48 340.53 370.93 336.57 369.28 333.35 366.19 331.07 362.69 325.95 357.46 318.2 351.83 307.84 351.04 307.31 350.53 305.41 344.93 305.2 341.41 304.57 340.27 300.07 338.18 297.24 333.62 297.09 331.99 298.57 327.21 298.87 323.13 298.44 320.86 296.51 315.6 295.26 306.25 294.66 303.73 295.9 300.53 298.8 300.72 310.11 296.53 310.82 295.86 310.72 291.55 309.27 288.19 307.25 285.68 305.11 284.56 304.67 282.79 306.37 274.58 309.74 269.28 310.84 259.6 309.53 257.83 308.87 255.29 309.36 251.59 310.83 249.55 310.45 247.11 308.5 243.58 305.75 240.6 301.73 237.82 299.63 234.73 298.25 231.41 294.83 228.6 293.39 226.88 293.98 221.33 292.2 218.4 289.68 217.34 306.4 205.61 304.05 203.47 303.93 202.4 306.36 197.66 308.79 197.11 309.1 194.74 311.32 192.38 313.99 183.92 315.7 183.63 316.05 181.49 319.22 177.93 324.69 172.85 327.47 168.87 329.81 158.32 331.28 154.42 333.32 146.7 333.42 144.51 328.2 141.61 324.61 138.58 322.5 135.37 320.87 128.48 319.33 126.47 318.16 121.88 314.64 117.31 314.07 112.83 317.91 106.47 320 98.14 319.07 94.66 316.46 90.87 317.77 88.1 316.13 84.4 313.98 83.03 311.73 80.51 306.56 79.93 303.42 78.86 302.15 74.7 297.27 69.26 296.39 66.26 294.82 66.31 293.23 65.02 293.02 63.57 296.11 56.44 294.84 53.53 398.11 1 396.32 4.2 397.65 6.98 398.96 11.55 397.58 13.98 397.16 17.67 399.04 20.6 399.33 22.48 402.45 24.85 404.09 27.24 404.47 29.01 403.12 33.48 405.07 34.13 404.96 37.46 407.84 39.11 411.26 40.23 417.59 40.12 420.57 42.13 426.66 43.65 426.91 49.82 430.33 50.65 430.95 51.42 431.74 58.24 431.36 61.37 430.34 62.28 430.35 64.32 432.08 65.86 431.94 67.71 433.28 69.65 435.41 69.81 438.38 71.07 440.51 70.04 444.83 69.44 449.44 70.23 451.08 68.92 454.13 65.04 459.1 63.59 463.09 61.48 462.06 57.25 465.87 58.39 467.04 60.54 465.03 64.17 465.94 68.34 465.46 69.97 465.81 72.82 469.66 72.86 469.67 74.89 472.64 73.29 473.73 70.79 477.69 74.7 476.47 75.54 476.5 78.53 473.76 81.08 474.07 83.92 476.91 84.61 479.69 81.59 482.12 82.63 483.22 84.03 482.53 86.37 484.41 89.49 480.23 97.34 478.32 99.95 478.38 102.9 479.61 104.59 481.65 105.28 480.74 109.27 482.29 112.75 485.01 116.19 484.87 118.54 489.64 117.02 492.36 116.66 494.23 117.62 498.49 118.37 500.33 117.72 503.01 111.43 506.75 98.68 509.35 94.12 512.03 92.07 517.17 90.45 520.98 87.71 523.6 88.61 527.67 88.92 531.97 91.78 534.05 95.98 535.82 97.13 540.66 96.38 543.87 94.33 548.23 93.99 553.56 92.84 556.47 90.54 558.37 89.78 558.71 86.72 559.77 83.4 561.08 82.23 563.07 82.21 566.48 84.01 569.84 88.7 572.08 90.05 573.63 92.36 577.48 93.39 578.61 92.97 582.16 95.31 586.01 100.27 585.5 101.49 587.78 103.22 589.27 100.37 591.24 100.5 593.15 104.34 593.45 106.76 596.15 106.36 602.01 111.06 601.06 112.36 602.39 113.99 604.06 114.31 607.01 118.59 608.74 120.13 610.18 122.85 612.25 120.16 615.4 118.87 620.02 117.67 628.18 119.71 630.61 117.94 632.75 119.92 634.97 120.01 637.08 119.03 639.58 120.37 644.03 119.27 647.89 117.23 652.54 117.47 654.07 115.16 656.49 116.1 659.97 118.88 663.36 117.64 666.28 118.9 668.21 118.36 673.14 115.24 674.48 112.78 676.87 111.07 680.94 112.8 682.12 114.25 682.11 116.68 683.22 119.65 682.5 120.48 684.03 122.46 685.9 122.67 687.2 124.48 686.57 126.63 688.56 130.55 689.24 132.94 691.27 135.89 695.68 139.14 699.07 137.16 702.39 136.63 703.22 134.29 706.44 133.3 706.44 132.31 711.28 131.43 715.84 131.18 720.64 127.52 731.26 123.7 738.76 123.06 742.14 123.74 735.92 131.43 737.19 134.27 742.17 135.83 747.33 138.69 749.69 141.85 750.79 149.91 750.29 152.94 747.81 155.97 747.4 157.34 748.83 160.96 748.36 165.15 746.46 166.85 743.34 170.81 741.46 172.13 740.75 175.69 743.27 180.19 747.1 185.55 752.05 188.08 756.74 191.68 759.12 191.56 760.03 189.58 Z"/>
</g>
</svg>