<?xml version="1.0"?>
<svg xmlns="http://www.w3.org/2000/svg" version="1.2" baseProfile="tiny" width="800" height="499" viewBox="0 0 800 499" stroke-linecap="round" stroke-linejoin="round">
<g id="4202602">
<path d="M 480.73 1.41 480.73 3.31 481.08 4.28 481.18 6.31 481.63 6.91 481.26 7.35 480.31 7.68 479.57 8.22 479.85 8.65 481.76 9.21 481.93 9.46 481.87 12.87 480.66 14.71 480.87 15.33 483.03 17.1 483.18 18.28 482.47 19.68 481.84 20.54 480.15 20.6 479.78 21.12 479.5 22.95 478.3 23.96 477.19 25.9 477.24 26.28 479.03 27.69 480.56 29.5 481.4 31.37 481.37 32.69 480.9 33.7 480.7 34.86 480.22 34.99 478.13 34.18 477.5 34.52 477.1 35.62 475.49 38.05 475.36 38.67 476.21 39.64 477.22 41.65 477.7 44.82 478.43 45.22 478.23 45.74 477.25 46.41 475.86 48.37 475.68 49.71 475.8 51.24 476.14 52.09 478.11 52.95 479.06 53.88 479.65 54.15 480.87 54.03 481.21 54.46 480.75 56.12 479.12 58.5 479.33 60.09 479.02 61.01 478.95 62.16 479.24 62.92 480.42 64.09 481.2 65.5 481.84 66.99 482.35 69.02 483.22 70.52 483.64 71.67 484.94 72.95 485.15 73.36 483.87 74.79 484.18 76.28 485.93 76.83 487.42 76.97 487.89 78 488.41 78.12 489.92 77.53 490.56 78.48 491.46 78.37 491.99 76.99 493.61 76.57 493.93 78.2 494.7 78.8 495.15 80.45 495.68 81.19 495.45 82.07 496.22 83.12 497.44 84.02 498.35 84.38 499.77 85.67 499.19 86.25 499.63 87.01 500.97 88.07 502.36 88.57 503.3 89.42 504.14 90.8 505.29 90.77 506.11 91.33 506.66 92.1 507.57 92.78 507.93 93.91 508.82 94.8 509.7 96.79 510.28 97.46 511.05 98.97 512.09 98.97 514.45 99.71 515.22 100.24 516.43 101.92 518.09 102.42 518.47 103.24 518.13 104.96 518.22 105.76 517.82 106.24 518.99 107.38 519.93 108.97 519.65 109.71 520.07 110.64 520.03 111.59 521.16 111.98 521.24 112.49 519.81 113.74 520.05 114.76 520.81 116.04 521.9 116.57 523.26 117.78 524.59 119.27 525.03 119.57 527.09 119.96 529.17 119.86 530.29 121.24 531.48 121.7 532.81 121.52 533.77 122.25 534.49 123.56 534.42 126.1 533.95 127.38 534.44 128.2 536.33 130.42 537.13 131.94 537.62 133.24 537.46 133.98 536.44 136.05 536.35 136.82 536.85 138.47 537.38 139.18 537.94 141.47 538.44 142.76 539.17 143.64 542.29 146.35 543.26 146.85 544.23 147.77 546.67 151.57 547.74 152.4 547.93 152.82 547.4 154.07 547.39 154.98 549.11 156.4 549.04 156.84 548 158.05 547.26 159.64 546.14 160.71 544.34 161.48 543.47 162.08 541.79 162.1 540.96 162.37 540.16 163.73 540.16 164.77 540.47 166.53 540.41 169.35 539.78 169.6 538.91 169.38 537.09 172.59 534.95 173.3 534.28 173.84 533.27 173.63 532.61 174.33 531.05 175.45 529.93 176.97 529.69 177.55 529.36 179.77 528.99 181.28 528.25 182.35 528.06 183.52 529.58 187.16 529.79 188.02 531.1 195.27 531.23 196.69 531.76 198.08 532.18 198.54 532.39 199.66 533.63 202.01 534.61 204.38 536.46 207.32 536.27 209.43 535.44 210.72 534.57 211.37 533.87 212.34 534.21 212.92 536.01 213.34 537.98 213.38 539.48 213.68 540.44 214.14 541.37 214.15 543.16 213.42 543.63 213.44 546.27 214.43 546.31 215.43 546.76 217.82 546.9 219.82 547.43 222.02 548.21 223.21 549.29 225.35 549.43 225.97 550.33 226.39 551.67 226.26 552.81 225.74 554.91 224.48 556.87 223.78 557.52 223.73 558.83 224.57 559.62 226.33 560.45 226.71 561.46 226.61 562.5 225.83 565.16 224.87 566.05 224.99 567.15 226.04 569.35 227.05 572.1 227.37 573.79 226.82 574.62 226.37 575.46 226.28 576.82 225.46 578.36 225.07 579.08 224.53 580.16 223.2 580.89 223.21 585.6 225.86 586.39 226.23 586.51 226.9 587.96 227.92 589.53 228.08 590.32 228.93 595.63 232.57 597.36 234.12 597.46 234.61 596.63 236.57 594.69 239.18 593.13 240.29 592.42 240.62 590.91 240.76 590.44 241.02 589.26 242.22 588.88 243.47 588.21 244.42 588.53 245 590.85 245.15 590.66 246.32 591.69 246.75 593.2 246.5 593.68 247.61 596.01 248.73 598.61 251.22 599.67 252.55 600.98 253.12 602.15 253.12 603.34 252.35 604.21 252.78 603.52 253.2 602.99 254.06 601.71 257.25 600.58 258.79 599.45 259.85 597.47 260.76 595.04 261.65 594.23 261.8 593.97 262.54 595.51 262.81 597.29 262.4 598 262.46 599.85 263.67 601.3 263.82 602.17 264.14 602.65 264.64 606.47 266.87 608.27 268.35 609.29 269.69 610.48 270.02 612.34 269.81 613.28 269.42 614.78 267.59 616.21 267.25 617.34 267.43 618.97 268.7 619.79 269.12 621.99 269.63 623.61 270.69 624.39 272.02 624.86 273.16 627.03 275.24 628.83 276.14 632.24 276.63 632.92 277.41 633.98 279.57 636.3 280.16 636.95 280.78 637.59 282.31 638.48 283.61 640.38 284.99 642.25 285.32 643.73 285.73 644.64 286.2 646.77 286.85 647.71 287.97 648.94 289.08 649.38 289.81 649.44 290.9 649.72 291.63 651.25 293.06 651.22 294.48 651.58 295.04 653.27 295.58 654.72 296.2 655.27 296.82 655.89 298.66 655.79 299.66 654.84 300.76 655.26 301.09 654.64 303.61 654.63 304.24 655.28 304.54 656.34 303.5 657.05 303.2 658.35 303.1 659.37 303.46 660.89 303.17 661.58 302.33 662.69 302.6 663.32 303.78 663.81 304.1 665.13 304.14 666.84 304.79 667.75 304.47 668.51 304.65 669.77 305.44 670.64 305.12 671.37 305.22 671.96 305.66 672.92 305.62 674.27 305.85 677.4 305.56 678.9 306.08 679.59 305.77 680.39 304.77 681.33 304.2 683.9 303.14 685.36 302.92 686.55 302.47 687.66 301.53 688.71 300.11 690.39 298.68 691.64 298.35 692.34 298.53 692.85 299.29 692.33 300.55 692.25 303.4 692.48 304.6 692.5 306.08 693.25 307.97 693.85 310.26 694.47 311.1 696.11 311.87 696.97 312.04 699.93 312.07 701.4 312.55 704.83 314.71 704.69 316.08 705.11 317.93 705.68 318.72 706.06 319.78 707.22 320.99 709.7 322.89 710 324.2 710.89 326.61 711.86 328.74 713.17 330.4 713.99 331.09 716.38 333.63 717.7 334.43 718.93 334.73 721.59 334.78 724.04 333.54 725.2 332.53 725.76 330.77 726.4 329.97 728.35 329.22 729.63 328.39 731.35 326.86 732.43 324.94 733.3 324.47 735.82 324.37 736.67 324.02 737.32 323.16 737.88 322.86 738.85 323.33 740.09 322.47 740.89 322.67 741.03 323.64 741.43 324.07 743.68 324.9 745.14 324.18 746.45 324.66 747.54 326.33 749.04 326.85 751.07 326.4 752.19 326.8 752.84 328.46 752.88 329.05 752.31 330.97 752.51 331.69 753.3 332.86 754.63 333.61 755.79 334.82 757.91 335.8 758.72 336.63 759.39 338.46 760.61 338.6 760.8 339.08 759.95 340.36 759.21 341.88 758.25 343.23 757.98 345.06 758.66 346.4 759.53 347.46 760.63 348.25 762.92 348.96 763.26 349.73 762.51 352.03 761.98 352.87 761.68 355.21 760.47 356.28 759.06 358.05 756.01 359.77 755.27 361.5 755.57 362.82 756.09 363.06 757.87 362.72 759.01 362.28 761.77 361.69 763.28 360.61 763.82 360.68 764.12 361.38 764.17 362.5 765.13 363.49 766.34 363.59 767.16 364 766.65 365.72 766.77 366.14 768.13 366.01 768.68 367.41 770.1 368.78 769.48 370.27 768.31 371.6 767.91 373.04 768.42 374.16 769.45 374.89 771.15 375.83 772.1 376.1 773.23 376.71 776.18 379.46 777.99 382.89 778.2 383.66 778.34 386.37 777.58 387.54 777.74 388.16 778.35 388.41 782.26 388.55 783.37 388.24 784.3 387.6 785.85 385.9 786.66 385.46 787.64 385.38 788.92 385.68 790.37 385.23 790.65 384.35 791.32 383.81 792.55 383.67 793.99 384.32 795.66 383.95 796.36 384.13 796.76 384.86 797.44 385.35 799 385.59 798.25 387.95 797.88 389.92 798.28 390.43 797.96 391.43 797.09 391.95 795.93 393.53 795.47 394.74 795.05 396.43 795.68 400.14 793.86 401.57 793.01 401.9 792.06 401.93 791.06 401.46 789.96 401.4 788.54 402.69 787.87 404.1 788.06 405.65 787.6 406.52 786.56 406.69 785.99 407.5 784.91 410.35 783.94 411.6 782.52 411.29 782.02 411.5 781.16 412.57 780.1 414.83 779.24 415.97 778.61 417.16 778.04 417.67 777.86 418.75 777.27 419.6 776.77 421.02 776.72 423.21 776.58 423.8 775.44 424.52 773.89 424.91 772.7 425.51 769.6 423.93 768.22 423.44 766.41 423.4 763.93 424.31 763.02 425.03 760.96 426.13 759.78 426.54 756.91 427.08 754.56 427.18 751.14 427.42 749.17 427.65 746.94 428.37 746.18 428.98 745.62 429.82 745.23 431.3 744.09 434.34 743.52 435.46 742.1 436.46 737.53 438.39 737.02 438.98 735.03 440.3 734.56 441.13 734.66 441.96 735.72 445.12 736.67 446.71 738 447.03 738.57 447.64 739.25 450.21 738.96 451.11 737.94 451.99 733.98 454.42 731.95 456.67 730.74 457.32 729.54 457.37 728.7 457.14 727.15 456.27 725.66 455.75 725.18 455.83 723.61 456.86 719.3 458.26 717.7 458.49 715.11 457.97 713.28 457.87 712.27 458.03 711.51 458.43 710.76 459.19 709.04 460.25 706.11 460.84 703.93 461.58 702.72 461.64 701.86 460.98 701.13 460.07 699.64 458.83 697.24 457.8 693.43 456.8 691.06 456.51 689.95 456.56 686.87 457.69 686.1 458.16 684.4 459.54 681.78 460.61 680.48 461.5 679.21 463.18 678.19 465.21 677.73 467.09 677.61 469.84 677.45 470.52 676.7 471.61 675.44 472.03 673.34 471.42 672.08 471.19 669.94 471.23 668.37 471.12 664.15 471.35 663 471.31 662.54 471.74 661.77 475.92 661.09 477.87 659.91 480.53 658.72 482.7 658 483.61 656.69 483.96 653.86 484.93 652.71 485.42 650.18 487.06 648.26 488.56 646.22 489.15 645.11 488.98 643.63 488.02 642.85 487.89 640.5 488.82 638.78 489.01 635.09 488.56 632.45 488.86 629.24 490.32 625.98 491.31 623.89 493.13 622.73 494.3 621.71 494.83 619.91 495.45 618.66 495.53 615.93 496.89 614.33 497.37 611.02 498 608.77 498 606.51 497.71 604.7 496.73 602.65 494.79 601.3 493.14 600.2 491.24 599.67 490.55 598.69 488.39 598.36 487.34 599.56 485.57 600.49 483.31 601.32 482.17 601.35 481.53 600.87 480.88 599.44 480.38 597.52 479.43 596.88 478.81 596.1 477.44 595.93 476.18 596.16 475.44 596.14 473.59 595.61 473.09 593.96 472.65 593.05 472.71 591.6 473.27 590.53 474.05 587.74 474.97 585.2 475.07 583.82 475.35 582.79 475.84 580.87 477.3 580.25 478.24 580.76 479.97 580.55 480.85 578.95 482.2 578.27 482.29 577.04 481.35 574.95 480.77 572.4 477.71 571.93 476.81 571.14 476.21 569.79 475.75 567.94 474.87 567.37 474.45 566.6 473.43 566.55 472.23 566.27 471.57 563.68 469.98 562.93 469.68 562.11 469.69 559.71 469.38 559.21 469.05 558.58 467.94 557.72 467.8 554.71 467.61 551.67 466.94 550.28 467.11 548.08 468.75 546.9 469.1 546.07 468.85 545.56 467.78 545.41 466.55 544.64 465.51 543.12 464.85 541.33 463.78 540.16 463.35 538.18 462.1 537.13 461.68 536.25 461.78 534.71 462.68 533.62 463.02 529.89 463.28 527.72 462.94 526.69 462.97 525.66 463.28 524.39 464.12 522.85 465.73 521.83 466.41 519.95 466.84 516.29 467.21 511.25 467.22 508.8 467.13 508.24 466.99 507.67 466.3 506.37 465.49 505.04 465.71 503 467.01 501.45 468.38 500.34 468.64 499.14 467.65 496.25 466.93 493.66 466.05 491.58 465.59 489.17 464.15 488.59 462.98 487.66 462.1 485.74 461.24 483.99 459.91 482.03 457.96 480.7 455.39 480.15 454.79 479.36 454.4 478.39 454.4 477.24 453.69 476.15 453.84 474.96 452.59 474.32 452.29 473.9 451.65 471.82 451.19 471.13 450.47 470.98 449.28 470.49 448.46 469.97 448.15 468.17 447.7 463.24 444.43 462.52 444.02 459.01 442.87 456.85 442.02 454.89 441.85 453.51 441.48 449.45 440.82 447.86 440.38 445.41 440.35 443.71 439.82 442.47 439.9 439.25 441.17 437.58 441.3 436.46 441.1 434.5 441.56 433.22 441.73 432.35 441.64 431.58 439.66 430.03 439.13 428.69 439.05 425.33 438.01 422.88 437.59 422.07 437.58 420.89 438.22 420.28 439.24 418.93 439.86 417.63 439.14 416.39 438.77 415.52 438.77 412.49 439.51 410.31 439.55 409.35 439.33 408.39 438.65 407.5 437.31 407.08 437.05 405.34 436.58 402.76 435.66 400.6 435.18 398.01 434.95 396.88 434.57 395.92 433.2 394.94 432.64 392.68 432.54 391.78 432.26 390.31 431.49 388.6 430.89 386.67 429.89 385.83 429 384.14 427.74 380.93 426.09 381.15 424.85 381.01 424.43 379.91 424.02 379.53 423.57 379.46 422.34 378.93 421.68 378.09 421.4 375.89 421.47 374.46 422.3 373.62 423.18 372.83 423.51 371.64 423.48 369.24 422.66 366.37 422.22 363.81 422.19 362.28 422.49 361.42 422.94 360.53 423.97 360.63 424.82 361.11 425.62 360.91 426.32 360.11 427.06 358.66 428.93 358.29 429.64 357.5 430.01 355.87 429.39 353.83 428.2 352.14 427.58 350.93 427.32 348.92 427.42 347.8 427.77 346.82 427.6 346.02 427.14 345.36 427.17 344.08 428.09 343.49 428.3 342.75 428.05 342.02 427.03 340.26 426.29 339.36 424.87 338.72 424.15 338.71 423.48 337.29 421.51 336.79 420.16 336.84 418.76 336.51 417.65 336.75 416.9 337.65 415.73 337.5 414.83 336.36 414.19 334.54 413.61 332.16 413.9 330.41 415.42 328.7 415.97 324.8 415.39 321.9 414.36 318.56 412.89 317.25 412.22 315.04 410.38 312.45 407.83 310.91 406.92 308.06 404.39 307.36 403.37 306.48 402.46 305.27 401.72 303.9 401.36 302.77 401.53 302.09 401.28 301.43 400.47 296.45 398.02 295.35 397.4 293.41 396.76 290.79 396.64 288.77 395.79 286.96 395.22 285.94 394.75 283.78 392.79 283.5 392.16 283.44 390.7 283.92 387.54 283.52 386.53 282.95 385.73 281.37 384.69 278.3 383.78 276.06 382.85 275.59 382.45 275.45 380.65 275.56 378.07 275.33 376.77 274.7 375.22 274.86 373.4 273.89 372.57 273.34 371.7 272.92 370.39 271.69 368.11 270.7 367.44 269.99 366.64 269.26 365.26 268.22 364.61 266.78 362.83 265.56 362.27 264.58 361.55 263.64 361.52 262.63 361.05 260.84 359.9 260.4 359.34 260.28 358.21 259.54 357.52 258.66 356.32 256.64 354.88 255.53 353.77 255.15 353.17 255.17 352.51 254.56 351.96 252.6 352.02 249.23 350.26 248.13 349.57 243.59 346.02 242.59 345.33 241.65 344.32 240.49 342.8 239.12 340.65 238.11 339.43 236.05 337.55 233.38 336.04 232.6 335.95 229.53 336.04 228.46 335.89 227.97 334.92 227.86 333.13 228.19 330.71 227.78 329.61 227.08 329.3 225.2 329.39 222.84 329.8 221.79 330.27 220.44 330.13 219.05 330.62 218.57 331.97 216.77 333.68 214.97 334.83 213.86 335.36 213.37 336.19 212.45 336.84 211.27 337.37 208.59 338.37 206.1 339.07 204.87 339.82 203.84 340.9 202.22 341.02 200.53 340.25 198.32 339.85 197.92 339.32 197.27 339.33 195.96 339.87 195.23 339.64 193.79 340.22 191.49 340.11 189.71 337.96 188.01 337.32 187.73 336.83 186.28 336.05 183.62 336.62 182.01 336.63 179.69 338.31 178.56 338.63 177.6 339.6 176.18 340.09 175.55 340.11 174.87 340.64 173.92 340.63 172.54 341.29 170.56 341.83 170.37 342.62 169.62 342.63 168.32 343.6 167.25 344.05 167.25 345.28 165.89 345.98 165.89 346.9 164.81 348 163.46 348.29 161.53 347.84 160.18 348.09 159.13 349.29 159.21 350.14 159.73 350.78 160.55 352.67 160.61 353.83 159.98 355.19 158.67 355.64 154.85 356 152.44 356.68 151.68 356.6 151.25 355.47 152.32 352.82 152.78 349.96 152.32 349.19 151.09 349.13 148.88 349.95 145.35 351.63 141.96 354.17 140.67 355.44 140.09 356.33 138.14 358.49 136.48 359.53 134.94 359.45 133.42 358.53 132.41 357.52 131.72 356.15 131.43 355.13 131.42 354.25 132.26 352.22 133.09 349.59 133.85 348.24 134.24 347.16 134.45 345.8 134.14 344.5 133.75 343.93 132.45 343.28 132.15 342.88 132.58 341.14 133 340.39 133.19 339.41 133.2 336.99 132.89 335.82 131.32 335.44 130.17 335.55 125.14 338.21 124.09 338.45 123.15 338.18 122.65 337.43 122.24 335.94 122.41 333.44 122.88 331.6 123.38 328.85 123.64 328.26 125.06 326.16 126.94 323.76 128.24 322.26 129.78 321.2 131.15 320.85 132.56 321.03 133.34 321.65 138.25 324.02 139.65 325.05 143.08 328.18 145.12 330.49 146.12 331.95 147.2 334.86 147.35 336.73 148.28 336.95 152.18 335.73 155.12 335.07 156.06 334.22 156.78 332.39 157.01 330.68 157.14 328.68 157.1 325.4 156.95 323.69 157.07 323.04 158.07 321.49 158.87 320.96 160 320.61 160.76 320.1 160.61 319.34 159.97 317.96 161.33 315.99 162.42 314.05 162.08 313.47 161.04 313.68 159 314.48 151.96 317.69 149.37 319.22 148.88 319.38 146.6 320.78 145.78 320.83 143.82 320.46 139.61 319.05 138.13 317.64 135.79 314.68 133.47 312.88 132.18 311.39 131.68 310.38 131.43 309.35 129.54 305.2 128.29 303.64 127.06 303.44 125.03 303.77 123.73 304.85 120.96 306.68 120.08 307.76 118.08 311.12 117.46 312.93 114.22 315.28 112.83 315.95 110.39 318.55 110.84 320.41 112.01 322.92 111.54 324.21 108.82 326.04 108.29 326.81 107.11 327.07 104.78 326.67 101.13 325.28 100.36 325.31 98.54 326.71 97.84 327.04 95.45 327.4 94.44 326.92 93.74 325.79 93.02 325.61 92.03 325.82 89.6 326.02 89 325.35 90.88 319.85 92.62 316.63 94.62 314.23 96.01 313.46 97.61 312.84 97.89 312.05 97.59 310.34 97.81 309.68 98.76 308.52 100.2 307.09 100.49 305.5 100.57 303.25 100.25 302.03 99.23 300.35 98.74 299.25 98.75 297.98 99.03 297.05 98.39 295.47 98.47 294.22 99.07 292.58 99.45 290.54 98.69 288.13 97.92 287.53 97.03 286.69 97.61 285.68 98.88 283.97 100.07 283.08 101.66 281.47 103.69 279.75 104.29 279.54 108.43 279.17 111.25 279.56 113.61 279.55 115.44 279.23 118.09 278.92 119.93 279.02 120.39 279.79 120.11 281 118.76 282.92 116.86 285.32 115.55 287.17 114.03 288.15 113.34 289.1 112.44 292.47 112.12 294.09 112.24 295.85 112.97 297.71 114.62 299.79 115.57 300.64 116.47 301.03 118.43 301.14 119.67 300.32 119.75 299.44 118.89 297.27 117.9 295.34 118.45 293.79 119.35 293.13 120.78 292.97 122.12 292.3 124.19 289.9 125.76 287.35 126.38 285.75 127.03 283.28 127.13 281.87 126.68 280.05 126.84 279.6 128.59 278.15 128.47 276.59 129.73 275.3 131.91 273.62 132.19 272.52 131.68 270.84 131.77 269.28 131.56 268.85 128.7 266.51 125.83 264.63 123.24 263.38 120.28 262.56 118.12 262.4 115.96 260.95 114.5 258.99 112.62 257.17 112.21 256.28 111.91 254.34 112.22 251.07 112.74 249.28 112.81 248.11 112.39 246.6 111.76 244.96 110.8 243.22 109.56 241.39 108.05 239.78 106.01 238.23 104.78 237.08 103.25 236.53 100.39 236.68 98.12 236.11 96.07 235.78 95.48 235.55 94.28 234.55 93.74 233.62 93.48 232.19 93.6 230.27 95.82 227.27 97.58 223.75 98.36 222.98 103.09 221.21 104.62 220.39 106.23 218.72 107.28 217.1 107.91 216.47 109.38 215.91 111.17 215.78 112.76 216.35 113.33 217.01 113.97 219.25 114.8 221.3 115.53 222.49 116.52 223.02 120.11 223.47 121.07 223.41 122.04 223.01 122.75 222.01 122.94 218.93 122.96 215.98 121.69 212.78 121.09 211.75 120.19 211.14 118.35 210.47 116.69 210.82 114.06 211.11 111.64 211.19 110.13 210.92 108.77 210.46 107.09 209.6 105.36 208.4 103.73 207.51 103.05 206.77 102.62 205.52 102.63 204.88 103.35 201.51 104.69 197.07 106.23 194.45 106.26 193.1 104.59 189.27 104.16 188.52 102.95 187.91 98.93 187.78 96.92 188.03 95.98 188.35 93.08 189.74 91.33 190.71 89.26 192.11 87.29 194.54 85.94 195.79 82.59 196.11 73.42 193.82 70.12 192.62 68.81 191.76 68.63 190.65 69.09 188.68 69.21 187.27 68.82 182.47 69.13 179.71 69.71 178.1 70.02 176.31 69.73 174.38 68.73 172.14 67.27 170.44 66.71 169.29 66.87 168.39 67.37 167.42 67.88 165.86 67.86 165.19 67.42 164.02 66.16 162.3 64.6 160.38 64.39 159.87 64.62 156.75 64.91 155.74 64.41 154.96 63.28 154.38 61.71 152.93 61.32 151.66 60.71 150.38 59.09 148.76 58.35 148.52 55.41 148.13 53.64 147.48 52.74 146.72 50.36 143.39 49.78 142.8 49 142.75 48.53 143.1 48.01 144.23 48.08 145.32 48.01 149.22 47.56 150.04 46.29 150.73 45.38 150.72 43.24 149.82 42.13 148.99 40.8 147.47 36.11 142.42 35.33 142.32 32.97 142.97 30.48 143.09 29.29 142.83 26.89 141.85 25.86 141.71 24.22 142.15 20.71 143.34 19.41 143.67 18.22 143.73 14.79 143.6 11.65 144.17 9.98 143.85 8.34 142.39 6.93 140.4 6.41 138.76 6.84 137.29 7.28 134.55 6.62 131.26 5.66 129.26 6.16 126.54 6.77 124.99 7.11 122.86 8.43 120.18 7.97 119.22 6.03 117.68 4.17 115.66 3.65 115.25 1.43 114.08 1.03 113.34 1 111.83 2.04 110.85 3.86 109.99 5.31 109.76 6.69 110.06 9.14 110.39 12.21 110.36 12.09 111.41 13.15 111.93 13.53 112.38 13.99 113.83 15.11 114.85 17.79 116.3 18.41 117.28 20.16 118.97 20.59 119.64 20.5 120.17 18.71 121.64 18.41 122.15 18.46 123.18 19.32 123.54 20.37 122.86 23.24 122.52 24.79 121.85 26.08 122.03 27.25 123.57 28.22 124.28 29.03 124.54 30.82 124.37 31.7 124.01 31.94 123.4 29.59 122.37 29.45 121.45 31.16 120.82 33.34 119.51 33.41 118.01 34.07 117.94 34.9 118.39 35.85 119.22 38.21 120.4 38.87 121.66 38.65 123.32 37.08 124.86 36.04 125.62 35.81 126.8 36.26 128.33 37.25 128.4 37.49 127.27 38.55 124.79 40.46 122.54 41.32 122.78 40.86 124.01 41.05 124.99 41.54 125.51 44.43 125.3 45.47 124.84 46.75 124.55 46.73 124.12 45.99 122.8 45.37 122.07 46.08 121.88 48.42 122.92 49.46 122.88 49.84 121.5 49.05 119.54 48.46 117.66 48.77 116.35 50.12 115.78 51.36 116.25 52.49 117.23 52.64 118.57 54.22 119.64 54.66 117.92 54.29 116.29 54.62 114.61 54.71 113.07 54.53 112.56 55.06 112.04 55.78 112.56 55.89 113.63 56.6 113.89 57.71 113.44 59.54 113.35 59.75 112.84 59.26 110.84 59.15 109.73 59.93 109.47 60.51 110.3 61.98 110.51 63.16 110.05 65.25 109.66 65.37 108.98 64.04 108.28 62 107.01 61.15 105.81 61.52 105.25 62.79 105.8 65.25 106.5 66.76 106.54 66.57 105.11 66.58 103.81 66.91 102.53 66.74 100.95 66.96 100.54 68.11 99.55 69.85 98.96 69.97 98.37 68.83 97.5 68.24 96.52 69.77 96.54 71.28 96.25 72.6 96.54 74.04 95.24 74.38 94.63 74.09 93.77 73.49 93.14 73.26 91.99 74.02 91.39 74.55 91.97 75.48 92.5 75.31 93.39 76.14 93.38 76.98 94.78 78.44 95.28 78.81 96.84 78.59 99.2 79.62 99.39 79.85 100.37 80.72 100.49 81.19 99.58 82.77 99.86 83.49 101.26 84.3 101.96 85.48 102.11 85.99 101.55 85.42 99.69 85.45 97.72 85.76 95.72 87.04 95.25 87.33 95.68 87.48 96.79 88.53 96.81 90.1 98.01 91.8 97.95 91.56 96.77 91.67 95.86 92.54 93.48 93.45 92.87 95.07 93.33 95.55 94.18 96.17 94.15 95.77 92.83 96.06 90.94 96.56 90.5 98.72 90.22 98.78 89.62 100.37 89.62 100.78 91.16 101.2 91.9 102.62 92.12 103.13 91.86 102.43 90.95 102.26 89.71 102.7 88.72 102.3 86.73 102.45 85.55 103.03 85.2 104.9 84.51 106.68 84.24 108.38 85 109.4 85.02 110.45 84.1 109.12 83.72 109.61 83.33 110.97 83.47 112.18 83.78 115.04 82.5 115.58 81.95 117.04 81.93 117.63 83.26 118.82 83.52 120.13 84.05 120.34 84.84 119.33 85.58 119.39 86.66 118.85 87.55 119.32 89.44 118.47 89.47 117.93 90.13 118.79 90.61 120.74 90.67 122.85 92.02 122.41 92.7 122.54 93.42 123.53 93.59 124.04 94.33 123.23 95.36 123.5 95.77 124.46 95.95 124.52 96.41 125.2 97.22 124.5 97.98 124.77 98.61 126.36 97.66 127.44 96.24 128.34 95.52 128.86 95.46 129.83 96.1 134.13 95.66 135.56 96.09 137.83 95.63 140.41 94.57 141.33 95.23 141.31 95.8 142.06 96.1 143.1 97.79 143.72 97.35 144.38 96.28 143.71 95.67 143.74 95.02 142.27 93.97 142.79 92.88 143.85 92.69 144.45 92.98 145.84 92.95 146.29 93.48 146.61 95.06 147.98 97.48 148.53 97.65 150.13 96.96 150.19 95.94 149.81 94.64 150.67 92.74 151.08 92.3 152.73 92.65 153.51 92.57 154.77 91.84 152.79 91.43 152.48 91.02 152.51 89.95 153.86 88.77 154.52 88.81 155.59 88.34 158.11 87.75 158.67 88.04 158.89 90.1 159.51 90.58 159.86 89.54 160.34 89.22 161.46 87.44 161.24 87.02 160.12 86.46 161.28 85.69 161.13 84.68 161.6 84.04 161.35 83.49 162.41 82.81 164.13 82.13 164.28 81.52 163.91 79.97 164.39 79.01 165.07 78.8 165.85 79.86 166.87 80.6 167.42 80.36 167.62 79.48 168.71 79.2 170.27 77.46 170.81 77.36 173.9 78.36 174.74 79.2 176.04 79.23 176.17 78.34 176.83 76.88 176.97 75.41 178.01 75.67 178.61 76.23 179.38 76.21 180.02 75.1 179.89 74.19 179.19 73 179.92 71.51 180.63 71.1 181.23 71.48 181.83 71.21 181.89 70.28 182.93 69.7 183.35 69 183.56 67.39 183.78 67.11 185.03 67.18 185.67 66.7 186.83 66.35 186.59 64.97 187.04 64.26 188.41 63.9 188.44 63.22 188.97 62.84 191.58 61.87 192.82 61.83 194.85 62.83 195.42 62.95 196.2 63.63 196.47 64.48 197.13 64.27 197.2 63.69 196.5 62.61 197.44 62.25 197.87 63.5 198.43 62.73 198.62 61.85 199.26 62.33 199.34 63.15 200.77 63.67 202.02 64.62 205.43 66.05 206.77 66.39 208.47 67.05 209.36 67.17 211.34 66.87 213.91 67.65 215.04 68.55 215.47 69.61 216.45 70.63 217.49 71.12 219.34 71.55 219.84 72.44 221.08 73.42 222.98 74.37 224.85 74.64 226.68 74.67 228.6 75.26 229.64 75.3 230.44 74.87 233.53 74.25 234.73 73.66 236.44 72.45 238.13 71.88 239.78 70.53 241 70.2 241.44 69.8 242.1 68.54 243.68 67.86 244.23 68.49 246.4 68.36 247.82 68.8 249.62 69.72 251.15 70.27 253.78 70.55 255.11 70.54 257.27 70.25 258.45 69.72 260.83 69.06 261.4 68.62 261.71 67.48 263.36 65.37 263.94 65.17 265.76 65.2 266.2 64.35 267.24 63.95 268.31 64.19 269.23 62.79 270.11 62.84 271.19 62.52 271.65 61.85 272.48 62.08 273.03 61.04 274.01 60.33 274.83 60.38 275.54 60 275.98 60.84 276.89 60.18 277.56 60.4 278.2 60.06 278.28 57.88 279.79 55.8 279.81 55.25 279.35 53.26 280.2 52.7 281.24 52.5 283.11 51.81 285.12 51.41 286.21 50.49 286.08 49.69 286.6 48.17 287.96 47.44 288.97 46.61 290.22 46.14 290.92 45.48 291.56 44.41 292.98 43.35 294.71 43.05 295.35 42.7 297.5 41.1 300.13 37.78 303.41 34.66 303.45 33.07 304.49 31.85 305.94 29.85 307.09 28.96 307.65 28.22 307.75 27.09 309.47 26.41 310.44 26.3 311.26 25.86 313.84 26.2 315.01 25.74 316.33 26.27 317.25 27.22 317.91 27.49 320.05 27.44 320.26 26.85 320.63 27.05 320.19 28.68 320.66 31.93 319.49 33.38 318.44 34.12 316.78 34.99 316.62 36.45 316.31 37.14 314.63 37.24 314.37 37.79 315.12 39.85 315.07 40.79 314.3 41.53 311.18 45.24 310.15 46.04 307.86 49.26 305.41 51.61 304.5 52.96 301.1 56.86 299.66 57.44 296.99 57.82 296.06 58.79 295.17 61.23 294.94 64.4 294.69 65.15 293.42 66.92 292.72 68.17 292.72 68.74 293.33 70.89 294.36 72.19 296.06 73.62 296.51 74.68 296.48 76.13 296.98 76.95 297.34 78.14 296.93 79.49 297.35 81.9 296.44 82.99 296.23 84.53 297.61 86.46 299.52 87.89 300.98 88.23 301.89 87.83 303.59 88.07 305.47 88.9 308.08 89.03 309.11 89.52 310.19 89.34 311.77 88.25 312.7 87.21 314.51 86.09 314.97 85.95 317.08 86.35 318.51 85.99 320.13 85.37 321.31 85.41 325.01 84.31 325.71 83.12 326.98 81.75 328.3 79.67 331.94 77.31 333.79 76 334.5 75.22 334.79 73.3 335.25 72.64 336.25 72.18 337.96 72.3 339.69 71.92 342.82 70.32 344.97 70.71 346.91 70.39 347.82 69.9 349.87 67.58 351.31 67.21 353.23 67.4 353.56 67.15 353.84 66.09 353.46 64.7 353.74 63.88 354.53 63.61 356.83 63.98 358.82 63.59 359.57 63.57 361.38 64.29 363.15 63.2 364.9 63.23 365.5 63.06 367.2 61.69 368.05 61.23 368.7 60.49 370.81 58.75 371.12 56.67 373.31 55.82 374.21 55.86 373.4 53.94 373.53 53.58 374.58 52.95 374.56 52.22 373.79 51.4 373.78 50.86 375.05 50.26 375.04 49.23 374.12 48.5 374.03 47.94 374.81 46.52 375.97 46.01 376.42 45.47 375.84 43 376.74 42.05 377.75 41.76 379.1 41.78 380.36 41.6 380.83 41.88 380.73 42.52 379.83 43.92 380.34 44.05 381.72 43.45 384.81 43.72 386.05 45.17 386.47 45.34 387.31 44.82 388.62 44.34 389.66 44.25 391.3 43.6 392.21 42.59 393.69 41.39 395.05 40.51 395.33 39.64 394.59 38.05 393.5 36.63 393.71 36.08 394.79 36.04 396.06 35.73 397.31 35.13 398.6 32.96 400.36 32.1 402.32 32.12 403.48 32.27 404.68 31.74 406.16 31.38 406.22 31.11 405.19 30.12 407.42 28.26 409.37 27.48 409.69 26.97 409.5 25.9 410.39 25.58 411.48 24.89 413.62 24.4 415.37 24.17 416.24 24.36 418.71 25.37 419.38 25.32 419.87 24.55 421.47 23.28 421.38 22.4 422.03 21.94 423.42 21.44 424.52 21.24 424.53 20.74 423.44 20.03 422.8 20.21 421.29 19.82 421.98 18.67 421.48 18.21 421.32 17.47 421.85 17.04 423 17.31 424.64 19.44 426.15 19.44 427.14 19.66 428.54 19.39 429.63 18.05 429.83 17.01 430.61 16.15 432.47 15.74 434.42 16.31 435.24 16.12 436.25 15.51 437.84 15.76 441.09 14.75 442.11 15.48 442.64 15.37 444.02 14.33 447.12 13.42 448.1 11.37 448.85 10.11 449.4 9.54 451.41 9.21 451.78 8.68 452.12 7.29 454.11 7.24 455.73 7.61 456.3 7.52 457.34 6.78 457.81 6.72 458.79 7.32 459.72 7.29 461.2 6.42 462.6 6.78 463.22 6.53 462.63 5.35 463.23 5.07 465.06 5.62 465.62 5.46 465.57 4.51 466.55 3.63 468.62 2.67 469.89 2.5 471.96 1.99 474.14 2.35 475.67 2.49 476.42 1.59 478.42 1.42 479.34 1 480.73 1.41 Z"/>
</g>
</svg>