<?xml version="1.0"?>
<svg xmlns="http://www.w3.org/2000/svg" version="1.2" baseProfile="tiny" width="800" height="689" viewBox="0 0 800 689" stroke-linecap="round" stroke-linejoin="round">
<g id="4202305">
<path d="M 642.05 13.88 643.17 23.5 642.96 30.04 642.06 42.53 641.95 52.05 641.56 59.32 641.22 61.23 638.8 64.52 630.67 71.22 627.59 74.35 625.17 78.1 624.04 82.82 624.56 88.21 625.97 98.42 625.93 107.05 625.66 110.81 623.93 119.49 621.02 136.15 620.5 141.49 620.56 146.1 621 150.1 622.65 158.8 623.69 162.77 626.25 169.04 629.96 176.45 630.74 178.91 631.1 183.2 630.72 186.23 627.71 205.28 627.1 210.41 627.16 212.87 627.75 217.35 629.08 223.37 635.45 254.48 638.51 255.17 642.86 254.51 647.82 255.47 658.23 252.81 660.3 252.44 671.04 252.42 672.75 251.74 675.77 246.78 677.31 245.92 692.38 244.02 699.37 243.26 706.97 243.72 711.88 244.67 714.24 244.59 716.42 243.7 718.38 243.71 729.45 247.63 731.52 249.23 732.15 250.61 730.45 251.75 717.15 271.81 716.36 275.01 714.13 285.87 714.35 287.47 716.17 292.92 722.18 313.65 721.15 315.56 719.75 316.79 718.63 316.47 714.17 317.3 713.71 316.78 709.31 317.35 709.81 318.77 705.2 324.26 703.75 326.44 703.23 328.82 701.81 332.63 700.43 341.53 700.32 345.99 700.87 351.9 703.22 359.87 704.35 362.48 708.07 368.8 711.33 373.3 715.9 379 725.04 387.29 731.25 392.31 739.24 398.06 744.83 401.05 751.96 405.67 766.51 413.28 772.01 414.42 772.34 422.95 776.91 438.32 781.91 449.94 781.85 453.77 780.88 458.39 776.81 468.16 772.3 474.31 754 502.89 753.4 506.43 753.56 515.04 754.53 522.74 758.41 534.75 769.32 549.11 782.62 562.64 791.19 574.46 796.23 590.29 797.55 595.66 799 606.58 795.53 607.19 791.98 608.2 783.6 610.21 770.33 613.19 752.92 618.94 724.73 625.68 705.75 629.26 680.78 636.75 650.18 642.86 640.94 644.9 630.94 645.77 628.72 646.35 624.74 648.48 619.7 652.6 620.07 656.69 615.8 662.4 614.09 663.67 602.08 670.92 597.91 670.54 573.99 685.27 571.79 680.47 569.6 680.46 564.12 684.89 561.41 685.64 557.95 687.72 556.87 688 554.97 685.09 552.21 683.41 550.75 680.85 549.42 677.59 549 675.15 549.24 669.46 547.7 668.09 544.42 667.82 541.93 665.86 540.13 662.31 539.55 658.62 537.74 656.97 531.34 653.18 528.23 650.88 525.98 650.5 523.46 651.32 520.83 654 519.99 656.85 518.71 659.66 518.18 662.57 519.24 664.11 519.03 666.97 517.65 667.77 516.17 669.57 515.22 671.85 513.68 672.7 510.71 672.75 507.53 677.84 507.8 679.32 506.58 680.28 503.93 680.44 501.6 679.06 498.58 671.85 495.5 668.88 493.5 665.01 492.1 663.97 488.66 663.37 486.49 660.98 485.76 657.15 483.95 653.14 482.46 648.63 480.82 646.83 480.4 644.39 481.09 640.47 483.58 637.18 484.21 633.52 484.42 628.8 484.21 626.58 482.52 623.91 479.12 623.4 476.38 621.94 472.71 622.02 471.33 620.96 467.52 620.32 463.86 620.85 460.68 620.11 456.6 619.69 454.69 616.56 451.41 615.5 448.44 615.5 447.54 618.52 446.16 620.38 443.56 621.81 441.28 621.33 437.38 626.99 434.46 631.73 432.44 632.32 429.68 629.81 427.29 628.96 421.36 629.18 418.39 628.75 414.59 629.34 413.3 630.92 410.07 631.83 407.05 630.55 403.23 632.09 397.72 632.25 395.07 632.78 393.96 631.56 390.14 632.3 387.86 632.41 381.82 632.09 380.12 632.73 374.08 636.12 371.86 639.04 370.64 641.63 368.52 642.11 364.65 641.47 361.68 642.38 359.77 644.12 358.61 648.21 357.39 649.85 353.89 651.86 353.52 653.56 354.26 656.32 351.61 658.49 350.6 660.56 348.59 662.15 346.54 666.2 346.33 668.05 345.2 666.18 346.19 662.9 346.27 661.27 344.18 658.24 344.92 650.17 341.89 646.98 341.54 645.06 341.98 640.17 343.6 637.11 344.09 635.29 342.83 632.84 342.79 630.08 339.81 626.83 337.54 625.86 336.55 624.44 336.95 623.39 336.37 620.99 333.58 618.17 332.5 617.73 331.79 615.26 332.74 613.72 333.09 611.56 329.98 610.05 328.83 611.65 324.78 612.17 324.61 613.49 322.68 613.11 321.32 613.87 315.66 615.96 313.88 613.84 308.67 610.5 307.61 608.76 305.55 608.67 304.41 606.07 301.44 603.8 299.75 601.5 299.87 599.18 298.21 598.27 293.91 594.79 291.23 592.06 290.79 590.01 289.68 587.54 291.01 585.04 293.14 582.63 295.09 578.98 296.66 575.15 296.21 572.14 297.54 566.65 297.39 564.04 298.22 561.85 297.96 560.95 253.36 547.77 253.78 546.09 253.12 541.32 251.43 535.13 251.88 531.35 252.58 529.45 254.12 527.57 253.33 524.18 254.12 521.01 258.09 511.65 258.94 510.91 263.64 503.98 265.65 502.07 269.99 496.41 271.52 495.22 277.08 491.68 279.14 489.15 279.21 487.42 278.53 485.69 276.34 483.72 272.95 479.27 269.83 477.21 264.97 475.62 262.37 471.92 261.48 471.13 256.19 469.8 255.55 464.2 253.07 461.18 250.9 461.5 248.15 463.62 245.82 462.93 243.4 459.87 242.33 457.21 235.93 447.9 232.02 443.97 227.58 441.45 222.6 432.3 221.12 430.45 214.19 429.14 208.58 429.15 202.98 429.81 201.03 429.5 198.54 428.17 194.89 428.76 189.34 431.66 186.54 434.15 185.9 437.01 184.95 439.39 183.47 440.66 179.4 440.55 176.7 441.87 174.26 444.08 172.84 446.95 171.62 447.75 168.82 447.59 167.92 445.63 168.45 443.09 167.55 441.82 165.07 440.6 161.05 439.12 154.17 433.15 152.22 433.33 149.82 431.18 148.83 427.75 146.19 423.41 145.13 419.6 144.18 417.7 141.59 416.43 137.92 413.14 133.07 407.98 128.68 404.63 126.99 402.83 126.41 401.14 123.71 400.4 121.01 400.82 119.8 400.19 116.94 395.38 115.41 394.11 113.29 391.14 112.71 388.13 108.59 386.65 106.89 385.11 108 381.68 109.91 379.3 109.75 375.43 111.6 372.79 111.65 370.88 112.98 368.66 112.82 366.12 113.93 363.9 111.92 362.31 110.54 359.56 109.11 358.51 106.05 353.59 103.77 350.99 102.5 348.19 101.08 346.76 99.12 346.13 98.96 345.02 101.5 342.74 101.71 340.73 102.56 338.77 104.88 339.46 105.52 338.77 102.03 336.24 100.71 331.95 100.44 328.57 100.71 324.92 102.61 320.84 105.62 320.68 107 317.4 106.65 313.82 106.1 311.69 109.11 305.77 108.9 303.81 106.21 302.54 105.84 300.69 106.36 298.94 108.32 297.25 108.85 295.72 107.1 293.55 106.31 291.54 107.21 287.94 104.51 284.34 105.62 283.23 105.68 279.16 107.42 274.93 109.59 271.75 108.22 269.37 107.69 267.26 108.85 264.82 108.9 262.5 110.28 258.74 110.17 254.19 108.53 250.17 106.95 249.01 106.15 250.28 105.25 253.61 103.81 255.09 98.17 254.93 92.93 257.42 91.08 256.36 85.53 256.2 78.19 256.63 77.17 256.41 73.58 256.99 70.61 253.77 67.35 254.11 64.85 255.78 59.67 257.52 55.6 260.8 53.48 260.27 52.32 255.04 50.2 251.92 44.23 249.22 43.11 247.74 39.62 246.57 35.82 247.55 33.54 248.58 30.63 247.84 28.94 246.84 26.77 247.15 24.55 246.57 22.81 245.2 21.43 242.76 16.46 239.27 15.35 237.95 12.65 238.37 10.86 240.33 8.37 239.59 4.98 237.63 1 234.66 3.76 231.78 4.65 230.12 4.81 228.13 5.52 227.04 8.5 225.5 11.01 223.53 14.31 223.85 16.62 223.15 19.65 222.76 21.43 223.24 22.71 222.03 24.97 218.58 27.43 217.26 30.48 216.45 31.34 215.78 39.79 212.95 40.81 210.8 44.85 208.74 47.17 209 50.84 206.48 52.81 204.6 52.62 203.14 53.01 199.19 54.96 196.57 55.19 193.03 57.27 190.54 59.57 188.92 59.66 186.06 57.02 182.69 55.28 181.56 55.33 179.84 56.33 179.1 60.49 173.8 64.9 168.79 67.43 170.33 70.03 169.08 72.31 167.38 73.13 166.1 73.43 162.85 75.34 160.14 75.28 156.12 75.72 151.62 76.28 150.82 81.2 147.85 86.01 141.02 88.61 140.26 92.91 137.4 96.35 135.71 97.5 133.04 98.9 132.21 99.79 129.71 99.33 127.09 101.13 124.32 102.17 121.41 105.97 120.58 105.6 118.68 107.33 116.9 107.76 114.31 110.58 112.74 116.35 112.29 119.46 109.58 119.41 106.82 120.17 103.82 123.4 101.47 124.59 101.34 126.07 103.45 129.07 101.2 130.65 102.76 133.35 103.23 137.16 101.76 141.8 98.67 143.74 96.88 148.51 94.91 151.18 94.39 154.97 93.15 160.39 92.64 162.26 91.71 164.89 91.49 168.28 90.01 173.46 90.47 177.81 86.65 180.51 86.72 182.84 84.53 184.64 82.24 185.83 81.52 188.33 81.04 190.52 82.49 195.24 82 197.17 81.02 200.3 83.08 201.36 85.16 204.38 89.92 208.68 92.92 214.85 92.96 216.91 92.34 218.74 91.08 220.24 89.39 220.72 86.6 222.14 84.9 221.94 83.76 220.56 82.86 218.89 77.66 222.62 74.71 227.36 72.58 231.78 72.78 237.8 70.83 242.26 71.97 247.98 74.42 250.85 76.06 254.22 78.4 258.08 80.04 262.59 80.21 265.99 78.84 268.68 76.03 270.78 72.88 272.68 71.83 274.96 71.72 278.59 70.55 280.69 69.25 283.83 66.7 285.56 65.69 286.67 67.51 289.64 71.32 295.07 73.28 297.82 73.16 300.61 69.63 304.85 66.47 310.62 63.97 312.95 64.78 317.71 64.81 319.48 62.98 320.45 62.77 323.54 63.43 326.32 63.34 328.02 64.57 334.2 66.48 336.21 69.96 336.05 74.82 338.95 77.3 344.98 78.98 348.41 81.19 350.75 80.08 357.27 80.77 359.69 81.45 362.88 83.86 366.55 85.52 368.55 87.72 370.75 87.76 375.03 89.49 382.04 87.55 385.03 87.72 386.01 88.56 386.01 93.75 387.44 97.2 391.16 98.68 392.55 99.59 394.35 101.65 396.02 104.7 399.55 106.37 400.86 106.26 405.51 101.82 408.79 99.71 410.5 97.85 412.71 97.75 415.51 98.43 417.2 97.74 419.55 96.04 421.92 95.27 425.36 93.39 428.19 93.63 432.29 94.92 434 95.02 436.28 91.39 439.76 83.54 441.34 81.02 444 78.48 449.48 74.42 449.93 72 453.04 66.5 456.27 67.67 459.51 68.13 463.66 67.75 465.83 68.92 468.65 69.25 470.62 68.57 472.93 68.63 475.58 70.79 478.4 70.73 483.21 69.85 487.95 69.9 494.72 69.4 500.91 67.22 503.01 67.29 504.3 68.49 503.27 69.88 503.61 72.97 504.3 74.52 502.45 77.82 500.55 80.04 500.11 83.38 501.32 85.2 503.58 86.54 505.59 87.09 510.77 87.64 512.47 86.51 516.77 86.8 519.46 86.35 522.38 82.77 525.09 81.95 528.35 83.23 530.67 82.93 532.67 78.62 534.51 75.95 535.4 75.34 538.66 74.81 542.37 73.03 543.87 71.55 547.1 63.6 546.8 60.64 546.16 59.86 546.3 55.74 547.5 53.76 549.01 52.81 550.17 50.85 553.31 47.43 551.78 46.64 546.41 42.78 546.62 40.7 543.76 35.96 541.31 33.42 537.92 28.31 537.65 24.53 538.26 23.09 536.56 20.18 536.56 16.02 539.48 13.16 541.9 11.97 545.64 9.11 546.9 8.84 548.77 9.97 550.46 9.7 552.34 7.82 556.53 6.02 557.67 4.61 559.46 1 560.89 2.09 565.07 4.23 566.16 4.13 568.06 2.63 571.59 4.61 576.46 5.44 577.81 8.31 579.98 10.28 583.57 12.47 586.05 13.19 589.16 15.06 590.52 17.24 599.63 20.96 606.32 20.2 612.81 21.78 642.05 13.88 Z"/>
</g>
</svg>