<?xml version="1.0"?>
<svg xmlns="http://www.w3.org/2000/svg" version="1.2" baseProfile="tiny" width="800" height="1091" viewBox="0 0 800 1091" stroke-linecap="round" stroke-linejoin="round">
<g id="4203105">
<path d="M 799 165.71 787.09 239.69 790.24 255.28 732.56 248.29 730.98 254.04 703.17 346.85 723.17 351.86 713.81 383.15 701.27 425.39 692.01 456.91 657.41 576.44 656.33 635.11 652.55 633.24 642.8 631.69 635.59 631.2 631.81 630.14 623.93 630.63 616.11 638.42 615.54 640.04 617.5 642.94 621.55 645.78 622.26 648.52 624.4 652.2 624.71 654.17 628.53 657.16 629.51 659.06 634.8 663.49 634.23 674.01 634.47 682.63 635.75 685.12 639.39 688.74 643.36 690.95 644.9 690.55 648.31 692.38 654.79 692.01 661.13 690.38 668.53 682.9 671.83 680.55 674.16 680.82 676.12 682.94 676.66 688.66 674.74 696.05 666.02 703.71 663.6 709.97 663.74 716.28 663.24 720.18 665.05 725.58 668.73 729.16 670.92 732.86 671.57 736.36 668.56 738.97 660.88 740.38 656.06 740.81 648.16 740.73 640.18 739.58 638.05 739.65 630.12 738.16 619.45 736.55 613.26 734.47 610.32 734.28 606.46 735.85 602.77 739.77 597.98 743.08 592.29 745.26 588.43 747.35 587.72 751.47 592.19 757.75 596.42 765.37 596.28 767.95 593.84 773.67 593.7 776.24 594.85 778.69 595.42 782.48 594.53 786.03 595.38 787.82 594.92 792.77 596.1 794.36 596.57 799.24 599.52 806.91 600.22 811.22 597.64 817.29 592.55 822.1 586.28 824.74 581.81 824.17 571.39 821.66 564.96 817.37 559.26 814.6 554.43 813.52 552.46 814.64 547.6 819.49 546.99 823.42 544.38 829.51 545.55 835.45 550.71 840.84 550.42 845.62 549.65 847.65 546.16 852.56 543.7 854.65 541.13 854.82 537.14 852.26 531.52 846.49 528.09 842.28 521.83 838.34 518.32 834.3 513.01 835.21 506.93 839.13 505.05 841.76 502.85 842.79 494.16 843.66 490.1 843.69 488.83 846.02 492.54 856.47 496.04 860.89 496.57 863.63 494.71 871.35 492.33 877.65 494.39 880.22 496.63 881.16 499.35 883.99 505.48 886.05 507.83 888.04 510.25 892.71 512.34 899.05 513.87 906.64 511.33 908.08 507.71 912.13 502.94 915.56 500.15 916.82 496.02 916.18 490.95 910.89 485.13 909.59 481.16 910.15 480.58 911.74 481.53 918.1 480.58 920.43 477.84 921.76 470.27 920.6 466.5 918.46 462.73 913.39 459.07 911.63 461.86 908.1 461.5 906.08 459.21 904.95 451.56 902.59 447.22 902.15 445.01 903.09 436.23 901.22 432.74 902.05 431.67 904.12 432.08 907.22 436.27 913.17 439.5 918.9 439.94 924.24 438.25 927.76 433.02 930.09 427.73 931.65 420.02 933.31 414.91 934.93 409.35 935.36 405.26 938.53 404.73 940.9 406.11 943.11 413.47 947.56 417.32 948.01 423.65 946.66 430.5 946.47 432.68 946.96 438.13 950.93 438.35 953.51 432.07 957.28 425.86 957.89 422.87 959.4 415.35 961.86 403 964.8 399.72 967.15 399.15 969.4 399.79 973.97 403.35 983.71 406.04 988.43 407.17 993.02 406.35 994.88 392.34 992.75 388.04 985.63 386.83 982.92 383.84 980.54 376.66 979.25 367.31 979.4 364.65 981.01 363.4 985.51 363.53 989.27 364.52 992.72 366.33 1003.12 366.21 1007.82 366.88 1009.83 371.07 1016.56 371.25 1019.38 360.59 1031.71 353.22 1037.96 352.92 1040.14 354.93 1042.53 360.46 1045.4 365.29 1045.87 374.01 1044.35 378.76 1042.39 385.15 1040.86 388.16 1042.17 389.71 1047.63 389.19 1049.99 383.12 1053.44 379.71 1054.38 377.39 1060.09 375.87 1067.68 375.92 1073.99 375.51 1084.1 374 1087.22 371.9 1089.11 361 1090 359.01 1089.27 356.15 1086.42 352.04 1079.06 351.46 1075.13 352.15 1069.64 350.2 1065.71 343.21 1058.81 340.39 1058.17 333.43 1061.81 327.81 1062.76 319.1 1061.95 312.66 1060.48 309.15 1059.17 300.16 1054.71 288.2 1045.5 282.65 1037.91 273.46 1027.77 255.63 1012.71 247.24 1006.57 235.48 997.57 227.52 991.91 218.48 987.15 210.35 984.03 196.46 980.88 185.77 978.72 165.92 977.67 157.22 978.54 148.89 979.89 132.94 985.69 109.03 990.41 89.07 992.61 77.18 992.57 66.84 992.12 56.23 991.35 47.73 990.34 36.13 985.65 30.39 981.39 25.02 976.89 11.07 963.12 5.45 953.57 1 943.19 11.58 941.88 17 944.59 24.24 944.86 26.67 943.75 30.39 938.94 31.88 935.92 36.52 929.07 40.99 921.46 42.16 918.71 47.8 914.04 55.66 909.88 58.79 908.97 64.87 908.72 70.35 911.03 71.91 913.25 73.6 919.64 76.58 927.95 78.37 931.08 82.98 942.04 89.05 943.59 95.94 943.84 98.06 943.22 98.56 940.78 91.99 929.84 89.52 924.34 90.32 921.47 97.63 914.93 106.1 908.14 107.22 906.85 109.7 900.8 108.97 896.45 103.18 888.95 99.06 881.23 97.09 873.64 102.83 867.8 105.55 867.6 116.77 871.55 121.26 872.71 130.53 877.15 135.63 880.75 145.84 886.39 148.26 886.31 150.61 883.45 151.6 878.44 150.18 873.5 150.09 867.1 146.31 863.99 143.19 862.86 135.22 858.17 129.69 853.81 126.47 849.1 122.75 838.6 124.26 834.52 124.78 831.68 129.98 830 136.12 830.11 139.48 832.13 141.84 835.71 146.9 845.38 149.31 848.06 153.44 850.51 155.22 850.33 158.83 848.23 168.97 839.11 169.21 836.67 167.04 833.12 167.38 831.74 170.64 828.37 175.37 824.67 180.86 818.82 183.16 813.22 182.12 804.78 181.46 802.26 179.28 799.19 174.03 796.56 166.8 794.74 161.54 793.99 153.24 787.94 151.11 784.98 150.45 781.82 150.78 778.88 157.07 774.89 164.37 772.23 171.07 768.62 172.78 766.51 178.14 763.02 186 757.33 189.37 756.17 191.92 757.07 192.89 759.68 193.08 764.81 195.04 770.32 196.63 776.52 199.21 779.39 204.81 780.23 208.62 778.88 215.15 774.94 225.11 766.37 227.33 765.46 236.98 763.61 243.85 760.07 242.95 757.18 241.38 756.37 235.41 756.12 227.93 754.35 217.2 753.39 205.61 748.38 203.75 746.78 204.06 742.6 213.45 732.46 216.73 726.9 217.22 724.93 217.19 718.85 215.6 705.97 216.1 703.67 219.04 700.98 221.97 701.51 229.12 707.43 232.89 709.63 239.17 711.13 244.18 710.62 247.69 708.47 251.58 708.73 264.67 708.2 268.5 706.15 273.18 704.85 277.45 702.97 282.09 702.07 287.58 703.35 290.49 705.83 294.29 713.72 297.24 716.82 301.83 720.2 303.35 720.41 313.62 718.36 316.36 716.29 319.09 711.98 316.16 705.41 306.31 699.24 303.05 696.7 300.1 691.64 299.32 685.77 299.75 682.56 301.33 680.58 305.96 681.52 307.36 680.64 308.99 674.58 306.75 668.46 300.43 661.34 295.01 654.11 292.38 647.33 290.76 640.34 291.81 636.18 296.58 630.79 302.89 626.85 306.61 626.89 316.07 630.73 327.67 632.62 331.69 632.14 334.44 629.54 335.1 627.82 334.35 624.96 327.94 618.91 322.54 612.51 316.97 605.13 314.26 599.1 309.76 593.32 305.73 590.25 303.06 589.79 291.85 589.06 285.8 589.74 278.13 590.04 269.92 589.51 265.63 585.71 264.34 583.11 263.78 579.2 263.86 571.31 266.98 566.7 273.09 563.34 284.97 557.99 301.43 554.97 305.45 553.78 309.96 553.21 315.08 553.65 322.97 556.31 333.28 558.71 337.73 558.74 340.33 557.61 343.04 554.64 344.54 551.88 344.67 547.9 346 543.78 345.31 536.54 346.54 533.68 345.59 530.01 342.87 528.38 338.54 528.43 333.63 527.2 327.25 527.34 321.5 526.86 317.94 527.94 314.29 527.28 312.83 528.42 300.79 530.62 298.84 530.29 294.93 527.44 290.18 522.44 289.69 520.38 290.79 514.74 293.6 510.93 296.68 509.33 298.61 506.39 300.13 501.92 300.06 497.93 296.09 493.31 291.36 489.37 286.84 484.11 285.16 479.92 285.15 476.89 289.51 470.17 293.15 468.28 297.86 467.76 302.72 469.52 312.46 476.16 317.33 480.37 324.11 484.47 328.23 483.55 328.39 474.04 328.81 470.35 330.66 468.42 335.07 466.13 340.82 462.17 343.88 458.73 345.57 454.23 345.48 451.22 344.13 448.72 337.78 446.72 334.61 441.27 331.41 439.15 323.11 435.61 316.91 435.75 306.56 433.37 302.91 431.21 295.66 425.28 293.81 422.7 293.46 419.24 294.82 417.47 298.4 416.55 302.01 416.81 309.55 416.35 320.79 415.15 325.3 412.49 327.3 410.14 330.05 403.13 331.63 400.46 332.4 396.52 333.82 393.17 337.81 390.37 341.79 391.16 352.17 395.21 356.56 396.21 359.86 398.48 363.95 397.52 366.96 393.19 367.23 390.51 360.92 387.26 353.07 384.77 347 383.89 344.42 382.79 342.68 379.19 342.75 375.1 338.48 367.72 337.77 365.35 332.07 356.52 329.3 353.14 325.12 350.56 321.2 350.45 319.96 351.89 320.56 365.55 319.91 367.6 317.65 369.62 311.92 372.21 307.88 375.38 306.19 378.45 300.78 385.27 298.22 386.82 296.32 386.71 285.33 382.95 279.79 379.69 277.22 377.3 271.93 370.22 267.54 360.51 260.19 351.13 260.9 347.63 266.13 344.89 274.34 343.84 282.2 339.76 294.77 331.58 303.16 325.04 308.37 323.45 321.2 327.36 324.4 327.21 329.74 324.65 338.25 314.43 341.23 305.31 341.75 301.11 341.57 295.84 339.93 292.86 339.02 288.92 335.29 282.37 332.65 272.37 332.87 267.32 336.21 264.2 340.41 261.99 344.38 258.9 346.27 256.19 345.51 252.11 338.37 251.55 337.02 252.51 329.3 253.72 324.56 253.67 317.82 252.98 310.72 250.44 308.18 248.11 305.29 241.66 302.92 235.2 295.38 227.23 293.1 224.23 291.5 219.39 293.85 214.86 298.03 213.9 307.31 208.89 310.02 206.64 316.19 199.44 317.31 197.27 318.2 192.22 319.41 189.47 323.46 183.78 331.15 178.06 333.33 177.28 344.18 177.28 348.09 176.44 353.27 174.28 355.26 171.85 357.46 167.22 358.21 164.01 356.56 160.74 352.04 158.99 342.13 158.76 333.93 154.09 329.79 153.88 322.69 150.28 313.35 146.88 310.22 145.19 307.23 142.01 299.92 137.34 295.04 136.2 292.55 134.56 296.46 132.02 302.49 132.46 304.85 131.42 307.32 131.87 312.78 130.47 317.92 130.18 320.61 129.02 322.65 124.51 325.73 119.82 332.58 112.92 333.58 111.25 338.74 107.02 347.3 102.34 351.47 101.42 358.48 103.69 361.57 102.11 362.54 95.7 358.23 90.19 353.72 89.3 346.45 90.7 341.89 90.39 338.78 90.83 334.49 90.33 331.62 90.94 325.28 91.28 320.27 90.95 316.74 89.95 314.59 87.87 311.96 76.74 312.14 74.89 310.46 69.95 310.13 66.64 306.53 62.02 306.76 58.18 311.4 55.32 313.96 54.91 317.75 55.93 319.83 51.72 324.57 54.45 328.83 58.47 337.05 67.2 340.27 70.08 344.16 70.78 347.57 68.64 348.38 67.17 348.94 62.2 350.34 60.11 350.54 54.87 347.99 50.56 342.71 40.02 344.09 35.92 342.31 31.98 345.11 29.28 351.73 27.39 356.76 23.67 359.7 20.57 367.76 20.66 371.14 21.33 375.6 19.35 383.64 18.34 389.11 14.91 391.54 11.88 396.26 10.67 399.01 12.13 403.79 12.82 407.25 12.13 421.53 12.09 424.92 11.52 429.37 9.61 433.58 10.68 436.74 10.3 441.71 8.17 444.6 8.61 446.56 5.72 451.57 1 521.84 19.73 522.05 23.57 524.58 28.78 521.27 29.49 522.9 32.21 526.51 31.62 525.6 38.38 522.32 42.21 525.36 47.29 524.27 52.41 521.35 53.57 513.2 53.11 509.63 55.84 506.22 57.34 509.04 61.49 515.21 75.31 515.46 77.47 513.88 86.15 510.89 90.78 518.23 89.09 524.36 91.06 528.16 91.09 531.78 92.35 535.32 94.44 540.69 93.42 550.18 94.13 554.15 94.07 556.15 95.7 563.98 98.56 568.56 98.72 571.8 96.49 575.06 96.2 580.48 92.04 585.35 91 590.87 89.22 593.27 87.55 623.62 87.7 618.92 110.09 678.02 110.52 708.25 110.46 706.55 113.16 707.06 115.09 710.29 116.67 709.12 119.83 710.7 121.42 711.11 124.75 713.91 126.68 714.17 129.57 712.38 132.49 712.86 141.09 713.53 144.48 718.06 146.17 718.14 148.72 715.94 149.57 715.44 152.36 717.49 154.86 719.72 154.62 722.61 151.39 726.31 150.85 728.94 151.36 729.19 153 726.03 157.97 799 165.71 Z"/>
</g>
</svg>