<?xml version="1.0"?>
<svg xmlns="http://www.w3.org/2000/svg" version="1.2" baseProfile="tiny" width="800" height="450" viewBox="0 0 800 450" stroke-linecap="round" stroke-linejoin="round">
<g id="4203600">
<path d="M 796.87 44.12 797.02 44.44 797.69 44.59 797.57 45.28 798.62 45.91 799 46.51 798.49 46.82 798.46 47.95 797.81 48.27 797.2 48.99 796.34 49.63 795.06 50.24 794.92 50.59 795.29 51.04 794.08 51.81 793.68 52.54 793.15 52.92 792.49 53.06 791.86 53.55 791.04 54.54 790.74 54.65 789.93 56.4 788.9 56.37 787.68 56.59 787.43 55.64 786.83 55.27 786.02 55.64 785.5 57.1 784.8 57.9 784.53 58.6 784.75 59.07 784.31 59.76 783.03 60.11 782.33 60.6 781.9 61.2 781.22 61.55 780.93 61.92 780.83 62.81 780.11 63.22 779.82 63.61 779.8 64.21 779.35 65.08 778.15 66.19 778.34 67.19 778.2 67.62 777.6 68.02 777.17 69.07 776.65 69.84 775.72 70.65 774.89 70.85 774.3 71.45 773.38 71.47 772.74 71.04 771.07 70.75 769.89 70.71 769.35 70.27 768.24 70.09 766.7 69.7 765.57 69.77 764.84 69.96 763.62 69.83 762.67 69.41 762.12 69.37 761.01 69.95 760.01 70.33 759.45 70 758.99 70.01 758.08 69.57 757.24 69.46 756.06 68.8 755.37 68.91 754.74 69.33 753.06 69.75 751.86 69.96 751.06 69.53 750.75 69.64 750.22 70.49 749.36 70.31 748.25 71.89 746.55 72.85 746.08 73.37 745.23 73.56 744.87 73.84 744.34 75.25 743.55 75.58 742.54 75.83 741.56 75.16 740.44 75.37 739.48 75.26 738.28 75.69 737.76 75 736.67 75.01 735.95 75.36 735.17 76.36 734.18 76.88 733.94 77.23 734 78.71 733.82 79.83 732.76 80.61 731.45 80.37 730.78 80.58 730.19 81.44 729.19 81.9 729 82.65 729.39 82.85 729.96 83.73 729.55 84.23 728.82 84.18 727.69 83.75 726.98 84.08 726.55 83.96 726.25 83.41 725.32 83.23 724.79 83.37 724.31 83.79 724.21 84.33 725.7 85.13 725.75 85.69 725.41 86.28 724.74 86.7 723.21 86.37 722.85 86.54 721.86 87.47 721.63 88.01 720.21 89.52 719.51 90.01 718.95 90.05 717.22 89.67 716.52 90.02 715.93 91.06 715.16 91.3 714.43 91.14 713.57 91.27 713.05 91.62 712.92 92.05 713.48 93.42 713.95 93.89 715.11 94.24 715.33 94.6 715.28 96.04 715.03 96.36 714.06 96.99 713.37 97.16 712.21 98 711.97 98.63 712.45 99.74 712.78 101.25 713.06 101.87 713.99 102.41 716.04 103.37 717.12 103.96 717.37 104.68 717.25 105.81 716.45 106.78 716.2 108 714.37 110.22 713.68 110.35 712.66 110.23 711.87 110.55 711.56 110.88 709.97 111.81 709.53 112.26 708.78 112.61 708.03 112.7 707.21 112.98 706.33 113.5 704.57 113.09 704.02 113.36 703.69 114.02 702.16 114.67 701.97 114.91 701.83 116.69 701.8 118.08 702.44 117.84 704.1 117.67 704.75 117.87 705.88 120.72 706.5 121.25 708.13 122.13 708.55 122.91 709.43 123.82 710.03 123.87 711.02 124.2 711.49 124.51 712.41 124.79 712.83 125.12 713.84 125.47 715.1 125.68 715.31 126.51 715.32 127.28 715.92 128.4 714.48 128.47 713.46 128.87 712.76 129.38 711.22 130.85 710.1 131.6 708.81 132.14 707.66 132.39 704.56 132.64 698.56 133.07 696.78 133.34 694.93 133.96 691.7 135.5 690.32 135.99 688.3 136.37 684.83 136.54 682.46 136.71 679.76 137.04 677.26 137.52 675.73 138.02 674.66 138.23 674.55 138.75 674.1 139.12 673.64 140.1 673.8 141.75 674.02 142.74 673.77 143.27 674.02 144 673.46 144.27 673.41 145.33 673.12 145.56 673.35 146.16 673.98 146.48 674.33 147.51 675.27 148.02 675.43 148.47 674.9 149.28 674.15 150.98 674.3 152 675.43 152.01 675.87 152.16 676.83 153.11 677.46 153.98 677.5 154.46 677.22 155.3 676.75 155.69 676.57 156.37 676.71 157.81 676.85 158.24 677.75 159.41 677.9 160.5 677.36 160.99 677.22 161.49 677.24 162.98 677.6 164.06 678.35 164.49 679.27 166.4 679.84 167.17 681.14 168.33 681.53 169.18 681.52 171.26 681.24 172.37 680.1 173.23 679.91 173.81 680.34 174.15 681.23 175.84 682.26 176.67 682.36 177.15 682.25 178.27 682.58 178.85 683.06 179.2 683.91 179.04 684.65 179.18 684.99 179.62 684.69 180.52 684.25 180.98 684.49 181.35 685.29 181.98 685.21 182.54 684.57 182.44 683.78 183.08 683.09 182.98 682.18 183.59 681.17 183.55 680.54 184.39 679.16 184.63 678.65 185.16 677.76 185.34 676.61 185.05 676.17 184.77 675.15 184.56 674.35 183.72 673.49 183.67 672.33 183.88 672.01 184.25 671.83 185.08 670.9 185.5 670.7 186.62 669.4 187.58 669.14 187.97 669.4 188.87 669.13 190.18 667.72 190.7 667.4 192.37 667.54 194.42 667.92 195.32 667.54 197.27 667.58 197.55 666.94 199.76 666.41 200.76 665.88 201.49 664.76 202.12 651.59 207.19 651.74 206.67 651.67 205.65 651.44 204.93 650.13 203.19 649 202.89 648.19 202.27 646.8 201.37 645.88 200.43 644.88 199.88 643.83 199.98 642.69 200.7 641.92 199.45 641.35 198.77 640.64 198.3 639.33 198.72 637.73 199.11 637.25 199.48 636.07 199.75 635.37 200.07 634.74 200.05 633.84 199.06 633.27 198.66 632.7 198.65 632.43 199.02 630.69 198.85 629.77 198.46 629.24 198.84 627.87 199.03 627.21 199.48 626.79 199.98 625.99 200.55 625.61 200.59 624.47 200.19 623.33 199.34 623.26 198.7 623.44 197.99 623.26 197.64 621.63 196.5 619.85 196.33 619.18 196.37 618.36 196.19 616.98 195.5 616.73 194.15 616.9 193.49 616.72 192.9 615.74 192.68 614.08 193.16 613.15 193.72 611.87 194.85 610.74 195.45 609.66 196.3 608.45 196.33 607.44 196.6 606.19 196.22 605.19 195.1 604.41 195.12 603.54 195.51 602.15 195.63 599.96 196.63 599.15 197.33 598.57 197.48 598.3 197.19 598.27 196.5 597.71 196.04 597.67 195.07 597.35 194.8 595.66 194.42 595.34 194.74 594.78 194.81 594.14 195.25 592.48 196.04 592.18 196.58 593.46 198.51 592.93 199.08 591.59 199.89 591.27 201.38 591.6 201.93 591.54 202.3 590.88 203.35 589.97 204.17 589.34 205.28 588.01 205.5 586.92 206.13 586.07 205.94 585.5 205.3 584.91 205.41 584.64 205.86 583.86 206.38 583.09 206.52 582.17 206.86 581.43 206.43 581.08 206.53 580.6 207.11 579.86 207.33 578.29 207.56 577.74 207.24 577.17 207.4 575.71 208.34 573.23 209.49 572.02 209.38 571.32 209.52 571.14 209.81 571.18 210.88 570.94 212.25 570.15 213.47 569 213.72 568.39 213.64 566.99 213.87 566.61 214.26 566.34 215.17 565.5 216.76 565.01 217.11 563.85 217.46 562.26 217.56 561.71 217.84 561.41 218.38 560.92 218.68 559.35 219.05 558.74 219.61 559.52 220.57 559.91 221.28 560.19 222.25 560.13 223.23 559.63 223.61 558.52 223.09 557.37 223.03 556.18 222.75 555.16 222.85 553.51 223.38 553.09 223.38 552.09 223.04 551.88 222.79 551.78 221.17 551.59 220.97 550.71 221.01 549.44 220.62 548.68 220.84 548.08 221.67 546.45 222.81 545.79 223.16 543.97 223.05 543.43 223.22 542.6 224.52 541.49 225.7 540.94 226.06 541.26 227.01 540.9 228.72 540.43 228.88 539.9 228.66 537.42 228.28 536.6 228.52 535.27 228.67 534.71 228.35 534.3 228.83 534.15 229.82 535.36 230.39 536.63 231.53 536.74 232.63 537.99 233.97 538.13 234.37 538.68 234.92 539.19 235.85 539.03 237.13 539.35 237.51 540.06 237.73 541.49 239.24 541.49 239.84 542.06 240.15 542.61 240.03 544.09 240.24 544.66 240.55 544.91 240.98 545.93 241.02 546.14 241.63 546.75 242.27 547.36 242.45 547.69 242.91 548.62 243.39 549.29 243.44 549.82 244.15 549.85 244.88 550.82 245.09 551.01 245.41 551.92 245.88 552.02 246.19 553.15 246.18 554.39 246.37 555.19 245.81 558.53 245.32 559.35 245.37 560.37 246.21 562.83 246.83 564.51 247.66 566.23 247.9 567.42 248.47 568.47 249.29 569.63 249.47 571.51 248.57 573.15 248.1 573.66 247.75 574.59 246.3 575.36 245.87 574.31 261.49 574.37 261.78 575.24 262.09 576.79 262.4 577.42 262.8 578.62 263.03 578.88 263.68 579.73 264.38 579.82 265.12 580.22 265.59 581.24 265.96 582.56 266.19 583.77 267.55 583.88 268.22 583.35 270.08 583.31 271.63 583.98 272.22 585.02 272.41 585.17 273.66 584.78 276.36 584.63 276.85 583.76 277.8 582.65 278.04 592.94 302.46 591.27 303.72 590.92 304.32 590.3 304.67 589.29 304.74 589.05 305.09 587.24 306.01 586.67 306.5 586.76 307.42 586.54 308.01 585.48 308.5 584.25 308.78 583.48 309.15 582.06 310.25 580.71 311.62 579.23 312.99 578.56 313.87 577.69 314.66 575.36 315.84 574.21 316.03 573.69 316.46 573.07 317.42 571.33 318.11 570.37 319.02 569.64 319.29 568.45 320.52 567 321.04 566.31 320.42 564.29 319.32 563.5 318.65 562.22 318.08 560.91 318.15 558.96 317.7 558.25 317.41 556.21 317.06 555.6 317.39 555.16 318.2 554.87 320.45 554.96 321.36 554.53 322.13 553.03 323.63 552.35 324.08 551.64 325.31 551.45 326.95 551.26 327.62 550.58 328.22 551.06 329.07 551.51 330.38 551.39 331 551.09 331.33 549.85 331.8 549.63 332.59 548.26 332.77 546.78 333.97 545.73 334.23 544.76 334.07 544.31 334.14 543.86 334.6 543.83 335.9 543.33 336.62 542.43 337.05 540.94 337.5 538.87 338.3 538.25 338.45 536.51 338.61 535.37 338.9 533.78 338.98 532.77 338.41 532.41 337.78 531.96 337.47 530.42 337.34 528.83 337.43 526.58 337.73 523.86 337.86 522.2 338.12 521.28 338.74 521 339.66 520.46 340.3 519.45 340.26 518.3 339.12 517.51 338.88 516.53 338.87 515.89 339.28 514.67 342.21 514.16 343.17 512.26 344.04 512.04 344.34 511.99 345.13 512.16 346.07 512.17 347.7 512.34 349.58 512.14 350.07 509.76 350.49 508.5 350.92 508.03 351.38 507.65 352.07 506.67 352.52 503.66 354.16 503.19 354.69 502.83 356.03 502.47 358.55 502.25 359.14 500.91 360.85 500.39 362.19 500.74 363.13 501.32 364.24 502.06 364.86 502.41 365.44 502.8 367.02 502.61 367.87 502.24 368.31 502.31 369.26 502.92 370.17 503.01 370.73 502.54 371.54 501.48 372.26 499.72 373.78 498.72 374.46 498.46 376 497.67 377.84 497.63 378.69 496.58 380.9 495.84 381.95 495.06 383.26 494.66 384.26 494.65 385.42 494.5 387.16 493.81 388.39 493.73 389.08 492.86 390.7 492.05 391.68 490.53 393 489.93 393.62 487.95 394.39 487.6 395.01 487.11 395.41 484.83 396.43 483.67 396.63 481.92 397.39 480.99 398.25 479.37 399.06 477.5 399.5 474.47 400.47 473.95 400.23 472.78 400.13 470.71 399.51 470.04 399.05 469.62 398.43 468.8 397.68 467.73 397.49 465.59 397.74 465.04 397.93 464.44 398.42 463.66 400.06 463.12 401 462.79 401.93 462.74 403.51 462.53 404.13 461.61 404.82 461.09 405.69 460.77 407.25 460.48 407.74 459.89 408.18 458.63 408.57 457.38 408.66 455.5 408.52 453.72 407.62 452.04 407.13 450.46 406.86 448.61 406.7 446.66 406.74 444.49 406.53 443.36 406.55 442 406.72 440.59 407.09 439.18 407.76 438.15 408.49 436.22 410.04 435.14 411.02 433.92 412.59 433.21 413.97 432.74 415.39 432.56 417.11 432.59 418.41 432.86 420.04 433.45 422.36 433.77 424.61 433.73 425.94 433.52 426.95 433.03 428.13 431.77 429.85 430.46 430.96 429.09 431.75 427.4 432.54 424.38 433.69 422.78 434.16 421.32 434.47 420.07 434.58 418.75 434.38 417.54 433.75 416.83 433.1 416.3 432.35 415.74 431.07 415.4 430.04 414.87 427.59 414.2 423.68 413.74 421.93 413.08 420.26 412.23 418.8 411.22 417.58 410.12 416.55 409.26 415.87 408 415.07 406.62 414.42 405.59 414.07 404.26 413.85 402.41 413.97 400.61 414.4 399.17 414.9 396.83 416.02 394.59 417.3 392.26 418.77 386.81 422.75 384.32 424.71 383.47 425.58 382.65 426.81 382.14 428.31 381.99 429.22 381.83 431.33 381.72 434.13 381.53 436.02 381.18 438.04 381.16 438.89 381.4 440.36 381.22 442.21 381.06 442.62 379.41 445.25 378.42 446.35 376.69 447.23 375.16 447.59 371.71 448.19 367.55 448.69 364.5 448.88 361.95 448.98 357.97 449 356.27 448.9 353.24 448.48 351.45 448.12 348.43 447.28 347.13 446.84 343.65 445.48 343.02 445.13 338.19 442.72 334.26 440.36 333.15 439.18 332.71 437.63 332.05 436.8 331.21 436.35 330.24 436.11 327.55 435.85 326.19 435.57 324.05 434.82 322.95 434.33 321.63 433.59 320.02 432.52 318.55 431.35 317.74 430.49 316.96 429.31 316.65 428.6 316.15 426.79 315.45 423.15 315.14 422.51 314.41 421.73 314.56 421.19 314.57 420.17 314.44 419.46 313.88 417.69 313.53 416.85 312.8 415.77 311.04 415.37 310.04 415.4 308.91 415.61 306.83 416.25 304.23 417.28 302.97 417.36 302.43 417.1 301.48 416 300.73 415.47 299.27 414.89 297.76 414.56 296.3 414.47 294.99 414.66 291.81 415.46 290.72 415.57 290.18 415.46 289.63 415.06 289.41 414.4 287.98 412.96 286.34 410.44 285.54 409.49 283.6 407.44 282.78 406.86 282 406.49 281.08 406.24 279.48 406.37 277.88 407.09 276.9 407.98 274.99 410.4 273.86 411.66 272.45 413.6 271.7 415.06 271.53 416.09 271.75 418.93 271.72 420.02 271.48 421.55 271.18 422.57 270.55 423.63 269.72 424.59 267.34 426.82 266.01 427.87 264.63 428.83 262.87 429.63 261.75 429.72 260.02 429.49 257.99 428.77 256.79 428.47 254.62 428.06 253.06 427.64 250.77 426.72 249.63 426.01 249.13 424.73 249.01 423.82 248.97 422.18 248.76 420.79 248.18 417.95 247.92 416.07 247.75 413.86 247.25 412.6 246.48 411.77 245.53 411.11 243.8 410.28 242.04 409.83 240.41 409.71 237.12 409.85 232.09 410.26 229.58 410.27 227.79 410.16 225.86 409.95 218.42 408.97 216.5 408.59 215.48 408.15 214.95 407.63 214.24 406.67 213.19 404.76 212.52 402.76 211.95 400.47 211.11 396.65 210.35 395.06 209.44 392.53 208.35 388.41 207.85 386.81 206.89 384.3 206.19 382.94 205.29 381.54 204.6 380.62 203.78 379.73 202.52 378.97 201.04 378.71 199.84 378.72 198.46 379.13 197.6 379.71 196.91 380.42 195.34 382.31 194.04 384.27 193.63 385.44 193.08 388.52 192.49 390.44 191.97 391.57 191.44 392.37 190.52 393.42 188.87 394.66 187.54 395.34 185.37 396.64 184.23 397.12 181.95 398.4 178.71 401.08 177.64 402.06 175.99 403.73 175.15 404.74 174.45 405.86 173.79 407.7 172.98 411.57 172.27 413.58 171.62 414.73 170.27 416.41 168.82 417.75 167.03 419.22 163.45 421.97 161.58 420.5 160.09 419.75 158.17 418.94 154.96 418.37 151.6 418.05 149.88 417.77 148.09 417.19 145.44 415.56 144.57 414.91 143.01 412.84 142.78 411.88 142.16 409.88 141.98 407.59 141.89 405.74 141.97 403.77 142.33 402.12 142.56 400.27 142.77 397.26 143.15 392.54 143.06 390.43 142.92 388.72 142.37 385.36 141.93 383.73 141.28 382.36 140.19 380.79 138.73 378.97 137.5 377.08 136.11 375.54 134.12 374.1 132.25 373.01 130.4 372.1 128.02 371.06 126.16 370.41 122.04 369.23 118.47 368.44 116.62 368.11 114.09 367.95 111.97 367.97 109.74 368.08 104.9 368.58 100.74 369.73 98.17 370.69 95.97 371.59 94.03 372.27 92.43 372.99 90.25 373.63 88.51 374.07 85.97 374.57 84.01 374.86 80.2 374.86 76.77 373.88 75.37 373.28 72.29 371.67 70.64 371.21 68.64 371.19 69.14 369.74 69.7 368.86 70.94 367.53 72.96 365.75 74.56 364.61 75.88 363.88 76.89 363.08 77.36 362.44 77.77 361.53 77.95 360.78 78.38 358.12 78.78 356.86 79.1 356.55 80.24 356.56 82 357.79 82.42 357.93 83 357.71 83.27 357.24 83.55 355.39 84.45 352.92 84.13 352.16 82.86 351.16 82.42 350.62 82.47 349.77 82.87 349.3 83.88 349.65 84.64 350.38 86.13 350.12 88.54 350.02 90.01 350.26 90.68 350.05 91.33 348.71 91.49 347.35 92.23 346.76 94.88 346.09 95.2 345.9 95.83 345.05 95.85 344.08 95.4 343.18 95.14 341.39 95.02 340.03 95.14 338.83 94.77 338.22 94.15 337.68 94.17 336.99 95.31 336.37 96.05 335.35 96.96 334.6 97.69 334.36 98.11 334.5 98.96 335.22 99.23 335.71 99.36 336.64 99.33 338.32 99.88 338.73 101.53 338.75 103.56 338.91 104.92 338.57 106.88 338.56 108.28 339.08 108.9 339.64 109.91 340.2 110.23 340.9 111.13 340.94 111.35 340.56 111.21 339.83 111.35 338.9 111.97 338.05 111.53 337.4 111.13 335.93 110.28 334.9 111.13 333.12 112.63 331.79 113.38 330.81 113.42 329.78 112.88 328.44 112.75 327.39 111.83 327.15 110.53 326.2 110.24 324.46 110.71 323.71 111.48 323.41 111.37 322.52 111.47 321.73 111.32 320.26 111.35 319.58 111.75 318.94 112.83 318.72 114.16 317.93 115.16 317.8 116.39 318.47 117.34 319.87 117.7 319.7 118.04 318.19 117.85 317.53 118.89 316.97 119.06 316.57 118.68 315.92 118.76 315.55 117.75 315.28 117.22 314.89 117.22 314.3 117.73 313.79 117.52 313.32 117.79 312.36 118.89 310.83 118.54 310.52 117.24 309.74 116.85 309.23 116.98 308.36 117.98 307.72 119.22 307.19 119.8 306.26 120.48 306.32 120.71 305.73 121.71 305.96 122.59 305.85 123.11 306.25 123.74 307.04 124.68 306.74 125.03 306.43 125.49 305.24 125.24 304.38 124.99 304.12 123.96 304.39 123.15 303.72 122.11 303.04 121.34 303.04 120.95 302.75 121.08 301.6 122.02 300.9 122.54 300.33 122.28 299.58 122.26 298.72 123.08 297.8 123.2 297.1 122.9 296.91 122.01 296.99 121.65 296.75 121.58 295.47 120.65 295.34 120.19 295.02 120.62 294.22 120.26 293.39 120.29 293.01 120.89 292.55 121.89 292.48 122.93 293.07 123.51 292.34 123.85 292.27 124.27 292.8 125.11 292.76 125.69 293.13 126.34 293.3 126.98 293.25 127.57 292.66 127.3 291.96 127.54 291.68 128.59 291.08 129.84 291.02 130.36 290.81 130.78 290.15 131.24 289.95 132.7 290.39 133.46 290.29 134.27 289.88 135.03 289.82 135.28 289.21 136.65 289.18 138.67 289.82 139.54 290.31 140.16 289.96 140.43 289.53 141.03 289.22 142.19 289.24 144.88 288.86 145.35 289.05 146.1 290.31 146.98 290.17 147.55 290.41 147.69 291.28 148.23 291.55 149.22 291.43 150.54 290.58 151.4 290.72 152.19 290.5 152.32 288.65 152.17 287.89 152.77 287.25 152.65 286.73 151.54 286.13 151.87 285.65 152.31 285.51 154.09 285.5 153.94 283.84 154.35 284.01 154.81 283.2 154.47 282.84 153.91 282.7 153.64 281.84 153.95 281.2 153.88 280.13 154.27 280.06 155.53 279.26 155.32 278.4 155.66 277.91 156.49 277.28 156.8 276.36 156.76 275.73 157.03 274.94 157.73 274.32 158.22 274.44 158.75 274.16 159.5 274.13 159.96 273.17 160.59 272.7 161.18 272.62 162.12 272.74 163.53 272.18 163.69 271.82 164.22 271.73 164.84 272.29 165.73 272.73 166.25 272.72 166.71 272.09 167.68 271.95 168.63 272.35 169.56 271.98 169.92 272.24 171.06 272.58 171.99 272.26 172.71 272.63 173.35 272.23 173.38 271.75 174.19 271.7 174.34 271.37 174.21 270.16 174.31 269.83 175.98 268.64 176.32 266.52 176.21 265.25 176.56 264.74 176.5 264.35 175.82 264.01 176.1 263.47 175.98 262.99 176.24 262.53 176.31 261.57 176.59 261.25 177.92 261.19 178.21 261.03 178.34 259.88 179.14 259.7 179.65 259.18 180.32 257.69 180.45 256.54 179.51 254.44 179.54 252.21 179.22 251.55 179.73 248.9 179.32 248.26 179.96 247.35 180.15 246.78 180.84 245.88 181.51 244.73 181.58 243.9 181.08 242.52 181.04 241.65 180.57 241.49 179.01 241.53 178.18 241.24 176.56 241.15 175.75 240.9 174.79 240.04 174.58 239.1 174.64 238.44 174.36 236.6 173.65 236.17 172.48 236.05 172.17 235.55 171.98 233.41 171.19 232.16 171 231.51 171.08 230.83 171.41 230.4 172.03 230.06 173.2 229.65 173.68 228.92 174.57 228.36 175.02 227.92 175.48 226.81 174.81 227.05 174.02 227.59 172.41 227.59 171.06 227.49 170.26 227.84 168.55 228.31 167.31 228.47 166.6 228.79 165.84 229.45 165.22 230.51 164.24 231.14 163.28 231.4 161.91 232.01 161.06 232.62 159.76 233.26 158.87 233.5 158.16 233.89 157.79 234.58 157.85 235.73 156.19 237.65 156.05 238.58 156.14 239.65 155.83 240.11 155.27 240.32 154.46 240.37 153.89 239.64 153.68 239.06 152.74 238.59 152.44 238.13 151.86 238.08 150.61 237.66 149.8 236.99 149.38 236.21 149.27 235.59 149.53 234.57 149.94 233.69 149.63 232.88 148.9 232.22 147.52 231.58 147.4 231.15 147.81 230.25 147.63 229.38 147.23 228.84 146.37 228.63 146.38 228.21 147.33 227.84 148.18 227.98 148.86 228.39 149.03 227.62 149.73 227.76 150.25 227.25 150.32 226.5 151.44 226.34 151.97 226.01 151.24 225.46 150.93 224.55 151.34 223.41 151.34 222.01 151.01 221.66 150.84 220.6 151.42 220.15 151.37 219.22 150.72 218.59 150.67 218.17 150.98 217.17 150.25 216.45 150.16 215.93 150.47 215.12 151.16 215.28 151.12 214.58 151.58 214.17 151.71 213.64 151.31 213.31 151.06 212.57 151.45 212.12 151.03 211.41 151.02 210.59 151.67 209.97 152.43 209.96 152.56 209.32 152.19 208.56 152.58 207.89 154.08 207.37 155.01 207.33 155.65 207.01 156.87 207.16 157.98 206.72 158.14 206.12 157.97 205.78 157.93 204.84 156.22 203.2 155.8 202.41 155.5 201.03 155.62 200.14 155.01 199.01 153.25 197.58 153.12 196.69 153.21 195.5 153.43 194.64 153.42 193.13 152.67 192.26 151.56 192.11 151.53 193.58 150.98 194.13 149.89 194.76 149.16 195.34 148.76 196.46 147.87 197.42 145.94 198.69 145 199.15 144.5 199.93 144.08 200.3 143.97 200.82 143.3 201.39 142.42 201.88 141.15 201.82 139.87 202.44 138.89 202.21 137.77 202.58 137.04 202.57 136.43 201.7 135.55 201.32 134.65 201.24 134.4 200.91 133.13 199.94 131.14 200.03 130.57 199.82 129.68 199.82 128.05 199.14 127.55 198.71 127.45 198.21 126.43 197.97 124.12 197.68 123.57 197.37 123.11 196 121.85 195.71 120.67 195.87 120 195.81 118.87 195.12 117.93 194.89 117.02 194.36 115.83 194.56 114.41 195.14 113.71 195.26 111.52 194.54 110.58 194.87 109.51 194.87 108.58 195.3 107.37 194.64 107.16 194.29 106.44 194.46 105.96 193.7 105.29 193.28 103.45 193.75 102.74 193.33 100.73 193.59 100.12 193.33 99.7 192.29 99.2 192.02 98.62 191.4 97.53 191.38 97.33 192.77 97.14 193.24 96.6 193.76 95.97 193.8 95.11 193.52 94.05 193.84 93.89 193.72 92.36 193.59 92.43 193.07 92.04 192.89 91.27 193.63 90.04 194.19 89.25 193.96 88.73 193.37 88.17 193.52 87.6 193.95 86.37 194.22 86.08 194.64 84.99 195.08 84.62 195.7 83.5 195.39 83.19 195.7 83.02 196.64 81.01 197.21 80.63 197.62 80.49 198.15 79.98 198.63 78.83 197.27 78.33 197.1 77.66 197.46 77.7 198.32 77.15 199.1 76.47 198.94 76.11 198.26 75.67 198.23 74.07 198.86 73.47 199.7 73.08 199.23 72.96 198.61 72.03 197.95 71.71 197.99 70.05 199.5 69.15 199.49 68.82 200.64 68.32 201.15 67.98 202.76 67.05 204.07 65.86 205.02 65.48 205.14 64.15 205.04 63.45 204.64 62.71 203.54 62.12 202.99 61.63 186.76 62.47 186.85 63.65 186.55 66.06 186.62 67.71 186.03 69.89 185.08 70.43 184.93 72.19 184.7 73.67 183.96 74.47 183.08 75 182.72 75.87 182.51 77.07 182.64 79.04 182 80.03 181.42 82.42 180.68 84.31 180.19 84.65 178.33 84.34 177.44 83.69 176.42 83.35 175.48 83.36 174.82 83.77 173.64 83.78 173.1 82.96 173 82.06 172.27 81.75 171.75 81.2 171.29 80.55 171.05 79.67 171.37 79 171.78 77.76 172.2 77.15 172.09 76.03 171.45 74.67 170.24 74.46 169.79 74.33 168.18 74.47 167.33 74.9 166.48 75.04 164.07 75.79 162.92 75.91 161.53 75.72 161.05 75.19 160.51 74.21 159.81 72.64 158.28 72.23 157.55 71 156.1 69.98 154.37 69.48 152.29 69.45 151.65 69.07 150.84 68.32 149.96 66.35 148.45 65.82 147.21 65.55 146.85 64.64 146.23 63.59 145.19 63.67 144.65 64.32 143.21 64.3 142.51 63.82 140.95 62.75 140.24 61.91 139.33 61.65 137.96 61.32 137.54 60.45 137.46 59.57 137.69 57.84 137.64 57.18 137.81 56.39 137.73 54.26 137.05 53.83 136.57 53.6 135.64 53.6 134.78 53.12 133.82 52.71 132.32 52.09 131.27 51.43 130.68 50.5 129.48 49.77 129.21 48.81 129.54 46.76 129.72 46.31 129.85 44.55 131.86 43.53 132.56 41.82 133.09 41.09 132.93 39.65 132.02 38.75 131.91 37.75 132.14 36.96 132.13 35.49 131.8 34.14 129.63 33.19 128.99 32.66 129.96 31.2 130.69 30.17 131 28.84 131.78 28.3 132.7 26.49 132.73 25.53 133.06 24.71 133.16 23.32 133.1 22.37 133.45 21.83 133.48 21.83 132.52 21.63 131.94 20.77 130.37 19.75 129.29 18.94 128.69 16.84 127.76 15.68 127.41 13.96 127.3 13.01 127.49 12.23 127.89 10.36 129.16 8.67 130.15 7.53 130.6 6.73 130.76 4.59 130.9 3.53 130.7 2.51 130.26 1.73 129.64 1.31 128.99 1.02 128.05 1 127.09 1.28 125.83 2.32 123.33 2.88 122.26 4.99 119.67 5.87 118.79 9.72 115.49 11.1 114.24 13.07 112.23 15.44 109.29 15.82 108.6 15.97 107.59 17.24 104.3 18 101.89 18.24 100.62 18.54 97.6 19.03 95.41 19.22 94.97 21.36 92.44 23.08 90.68 24.09 90.09 25.13 89.91 25.78 90 27.94 90.56 29.96 91.55 31.26 92.73 32.3 94.09 32.79 94.93 33.08 96.37 33.08 97.15 32.89 98.55 32.95 99.52 33.2 100.87 33.26 101.92 32.7 104.72 32.75 106.33 33.1 107.61 33.38 108.12 34.31 109.21 34.79 109.98 34.66 111.21 34.24 112.37 34.42 113.11 34.81 113.62 35.74 114.36 37.1 114.87 37.71 114.81 38.94 114.06 39.48 113.41 40.03 112.31 40.29 111.39 40.69 108.52 40.97 106.83 41.2 104.96 41.64 102.51 42.14 101.07 43.02 99.79 43.81 98.97 46.01 97.5 46.8 97.17 48.87 97.19 50.21 97.38 51.25 97.3 51.95 97.04 52.68 96.31 53.34 94.3 53.73 92.42 53.86 91.4 53.82 90.27 53.6 88.44 53.17 87.23 52.7 84.72 52.18 82.73 51.67 81.62 51.29 80.2 49.94 77.07 49.43 76.06 48.67 74.97 48.58 74.6 48.97 73.48 49.42 72.91 50.13 72.47 51.02 72.25 53.01 72.32 55.46 72.72 58.02 73.4 59.38 73.95 62.24 75.52 64.14 77.03 65.91 78.54 67.47 80 68.46 80.63 69.6 81 73.19 81.79 73.94 81.82 75.54 81.33 77.07 80.97 77.86 81.58 79.01 83.22 79.04 83.71 79.42 84.16 79.49 85.11 79.76 85.85 80.47 86.96 81.42 87.5 83.93 89.65 84.83 90.49 86.48 90.82 87.61 92.3 87.97 92.99 87.88 93.65 86.86 95.24 86.96 96.83 86.44 97.35 86.33 97.87 85.42 98.73 85.02 98.84 86.28 100.35 87.55 100.8 88.37 100.58 89.89 99.98 91.68 99.93 93.29 99.61 93.79 99.74 94.54 100.31 95.72 100.66 95.85 101.17 95.7 102.11 95.16 103.06 94.48 103.61 92.94 104.28 91.81 105.16 90.74 104.93 89.89 104.97 88.97 105.24 88.36 105.67 87.91 107.09 87.27 108.24 86.43 109.3 84.6 110.5 83.34 111.77 83.19 112.09 82.97 113.54 83.26 114.2 84.55 114.97 85.91 115.5 87.03 115.76 89.17 115.69 91.53 115.46 93.39 115.13 94.82 115.03 95.51 114.84 98.89 114.84 99.9 114.8 100.37 114.97 102.64 116.54 103.5 116.62 104.58 116 105.59 115.19 106.15 114.94 107.51 113.08 107.61 112.6 107.49 111.15 107.59 110.63 107.48 109.37 107.98 108.94 109.63 109.07 110.23 108.68 110.7 108.68 111.3 109.05 112.31 109.96 113.36 110.37 113.53 111.14 114.16 111.62 115.03 112.05 116.91 112.5 117.55 112.34 118.07 111.95 118.31 110.82 117.95 109.61 117.3 108.29 117.27 107.29 117.68 106.43 118.18 105.98 118.92 105.67 119.7 105.71 120.62 106.2 123.64 108.76 124.89 109.07 126.74 109.21 128.54 109.08 130.22 109.69 131.05 109.79 131.91 110.3 132.16 110.8 131.92 111.48 131.15 112.56 130.97 113.36 130.65 113.92 130.93 115.85 131.31 116.54 132.6 118 132.58 119.08 131.24 121.02 131.38 121.63 132.07 122.41 132.72 122.83 135.09 123.16 135.47 123.31 132.97 129.37 134.32 129.87 136.35 130.87 138.51 131.64 139.11 131.93 140 132.62 140.71 132.73 143.69 134.01 144.64 134.11 147.09 134.05 149.17 133.33 150.63 132.66 151.58 132.71 151.99 132.96 152.93 134.54 153.14 135.25 153.15 136.04 153.84 136.9 154.29 138.4 154.68 139.19 157.21 140.37 158.09 140.69 158.91 141.39 159.51 142.76 160.27 143.6 161.08 144.16 161.91 145.2 176.99 120.35 177.38 120.42 178.89 121.4 178.71 121.79 179.75 122.98 180.49 123.09 180.64 123.63 180.2 124.13 179.52 124.32 178.84 126.01 178.9 127.3 179.2 127.65 182.3 127.78 184.01 128.15 185.54 127.41 185.91 126.51 187.17 125.22 187.6 124.57 187.67 123.93 186.77 123.42 185.88 123.49 185.6 123 185.52 121.82 184.54 119.92 184.1 117.95 183.4 117.46 183.41 116.89 183.89 116.22 185.13 115.26 185.89 115.35 187.06 115.91 187.95 116.49 188.52 116.67 189.3 117.28 189.58 117.83 190.18 118.37 190.88 118.74 191.5 119.37 192.25 119.88 193.03 119.83 193.86 119.18 194.77 119.19 196.19 119.49 198.18 119.34 199 117.99 199.06 117.46 198.29 115.61 197.68 115.13 197.02 113.51 197.01 112.76 197.25 112.37 197.98 111.97 199.45 112.31 200.71 111.92 201.44 112.05 202.4 112.5 204.1 112.73 204.76 113.3 204.83 113.71 205.26 114.18 205.34 114.73 206.05 114.73 207.48 114.41 208.93 115.27 209.56 115.97 209.64 116.7 209.14 118.2 208.56 119.31 207.88 120.12 206.77 121.03 206.2 121.32 205.01 122.51 206.02 123.74 207.39 124.79 208.78 126.32 209.97 128.2 210.87 130.07 211.06 130.27 212.12 130.59 212.48 130.47 212.92 129.62 213.71 128.65 214.94 127.79 215.77 127.51 215.97 127.15 216.04 126.28 216.6 126.07 217.64 126.47 219.12 128.04 219.44 128.89 219.95 129.24 221.61 129.27 223.03 129.88 223.83 130.03 225.05 130.56 226.42 130.87 227.1 129.57 228.54 129.1 230.32 129.24 230.54 129.82 230.11 130.51 230.45 131.35 231.6 132.96 232.57 133.78 233.52 134.01 234.71 133.28 234.93 132.35 235.7 131.61 236.11 130.25 236.05 129.76 235.64 129.14 234.93 128.58 233.99 127.49 233.75 126.42 234.73 124.64 234.83 123.9 234.58 123.44 233.01 122.26 232.62 121.68 232.7 121.22 233.29 120.7 233.53 118.68 233.55 117.29 233.92 116.47 234.51 115.97 235.12 116.07 236.07 116.54 237.84 117.76 238.37 117.92 238.75 118.52 241.06 119.57 241.2 120.7 240.4 122.07 240.07 122.94 239.09 124.31 238.86 124.9 239.08 125.66 239.39 125.76 240.37 125.59 242.02 124.92 243.72 124.48 245.09 123.85 247.23 123.28 248 123.27 249.02 123.7 249.84 124.24 251.51 124.04 252.9 123.63 253.3 123.82 253.3 124.78 253.8 126.14 253.36 126.48 252.09 126.52 250.91 126.71 250.56 126.56 249.03 126.65 248.37 126.79 247.98 127.32 247.96 128.52 248.18 129.2 248.06 130.17 248.55 132.07 249.15 132.95 249.65 133.24 250.65 132.84 252.06 133.26 253.74 133.13 255.34 133.13 256.41 133.45 257.15 133.83 257.53 134.42 257.48 135.33 256.44 136.44 255.55 136.79 255.38 137.2 255.79 138.06 255.22 138.29 252.7 139 252.34 139.27 252.34 140.22 251.4 141.1 250.45 142.31 250.49 143.22 251.78 145 252.13 145.6 252.68 145.79 254.19 145.18 255.56 144.75 256.47 143.63 256.92 141.71 256.46 140.88 256.43 140.52 257.18 139.89 258.64 139.53 259.63 139.53 260.73 139.81 262 141 263.13 141.66 264.27 142.06 265.26 141.85 266.1 141.01 266.69 140.96 268.22 141.73 269.86 142.02 269.93 141.68 269.55 141.01 269.19 140.77 267.78 138.79 267.6 138.11 265.93 137.44 265.28 136.92 264.11 136.71 263.72 136.4 264.08 135.77 265.82 135.87 267.37 135.65 267.85 135.8 268.73 135.1 268.84 134.57 268.72 133.8 268.87 133.42 270.33 133.35 271.1 132.76 270.51 132.2 269.92 131.92 269.05 132.1 268.88 131.59 269.49 130.1 269.3 129.41 268.22 128.74 268.39 127.53 269.86 125.64 270.08 125.19 270.73 124.74 271.52 124.62 271.6 125.42 273.72 125.85 274.64 125.72 275.68 126.2 276.45 126.32 277.22 126.89 277.77 127.57 278.69 128.38 279.49 128.56 280.13 129.3 279.92 129.83 279.12 130.15 280.11 131.26 280.69 132.11 281.35 132.41 281.64 132.14 281.67 131.44 281.33 131.17 281.08 130.52 281.33 130.36 281.92 130.79 282.1 131.82 282.62 132.73 283.61 133.68 284.74 133.28 285.12 132.86 285.7 132.59 286.22 132.69 286.87 132.49 287.32 132.14 287.46 130.13 286.84 129.69 286.71 129.37 287.4 128.2 287.36 127.69 287.04 127.25 287.29 126.79 288.71 126.98 289.66 127.33 290.32 128.2 291.19 128.98 291.92 129.46 292.69 130.27 293.65 130.87 296.24 130.94 296.95 131.22 297.91 130.8 298.79 131.14 301.44 131.25 302.88 131.84 303.24 132.37 304.22 133.06 304.9 134.32 304.92 135.62 304.29 136.25 302.82 136.55 302.38 136.76 301.02 136.61 299.48 136.86 297.49 136.6 296.79 136.79 296.14 136.38 295.41 136.17 294.25 136.18 294.02 136.73 294.23 137.64 295.09 140.54 295.18 142.77 296.01 143.26 296.93 143.41 297.85 143.96 298.36 144.08 299.5 144.76 300.36 146.08 300.79 147.33 302.36 147.92 304.32 148.29 305.48 148.59 306.28 148.49 307.58 148.85 308.99 149.05 309.19 148.64 308.49 147.75 307.79 145.96 307.7 144.41 307.03 142.43 305.59 141.34 304.22 140.47 303.81 139.93 304.01 139.35 304.62 138.85 305.97 138.82 306.94 138.65 310.01 139.11 311.57 140.01 311.81 140.46 312.3 140.82 312.81 141.49 313.56 141.93 314.44 142.81 315.33 143.44 315.95 143.65 316.79 143.42 318.02 141.89 318.62 141.8 319.69 142.8 320.61 143.04 321.03 142.46 319.9 140.67 319.64 139.64 318.53 139.06 317.9 138.43 317.98 137.83 317.71 136.77 316.97 136.21 316.15 135.78 315.09 135.59 314.42 135.31 313.96 134.73 313.85 133.95 314.58 133.13 314.71 132.49 315.07 132 316.06 131.31 316.99 131.35 318.54 132.32 320.22 133.2 320.87 133.37 323.17 133.56 324.53 133.95 325.84 134.13 326.87 133.91 328.22 133.26 328.86 133.37 329.38 132.98 331 132.3 331.95 132.14 332.97 131.13 333.17 130.7 334.46 130.29 336.23 128.74 337.51 127.95 338.05 127.33 338.36 126.61 337.85 125.35 337.9 124.82 339.46 124.38 340.36 124.32 340.77 123.78 339.95 122.59 339.13 122.12 337.94 121.23 337.68 120.84 336.32 120.15 335.2 119.77 333.84 119.69 333.05 119.81 332.74 120.11 332.16 119.5 331.49 120.83 330.87 122.58 330.91 123.47 331.36 125.17 330.62 125.9 329.79 125.5 328.81 123.97 328.08 123.33 327.62 123.21 326.87 123.59 326.04 123.65 324.73 122.83 324.03 122.7 323.33 121.92 322.49 121.76 321.71 121.89 321.15 121.38 320.49 121.05 318.98 121.06 317.7 120.75 316.01 120.13 315.22 119.6 314.7 118.98 314.22 117.87 312.98 116.36 312.09 116.01 311.27 115.52 311.27 115.23 313.1 114.32 314.02 113.7 315.12 112.67 316.05 112.46 316.63 112.04 318.07 110.75 319.38 110.24 320.11 109.59 320.86 109.35 323.07 107.95 324.37 107.63 324.53 107.22 324.16 105.8 324.63 105.16 324.4 104.31 324.24 103.05 324.38 102.03 323.8 101.44 323.42 100.2 323.08 99.78 323.1 98.89 322.82 97.83 322 97.3 321.6 96.81 321.88 96.25 323.04 95.07 324.73 94.86 325.48 94.57 325.59 94.09 326.44 93.11 326.83 92.37 328.09 91.61 328.74 90.42 328.79 89.3 327.84 89.12 327.33 89.27 326.86 89 326.59 88.49 326.87 87.36 326.79 86.88 326.05 86.39 325.33 86.3 324.1 85.24 323.96 84.8 323.18 83.81 321.57 82.88 320.48 81.54 319.52 81.11 319.1 80.66 318.96 80.12 319.32 79.39 318.78 78.76 318.31 77.65 318.26 76.87 317.5 76.05 317.54 75.42 317.93 74.5 317.54 73.94 317.78 73.07 317.55 72.19 318.31 70.89 318.14 70.46 316.91 69.85 316.04 69.67 314.77 68.42 314.16 68.21 313.72 67.29 313.02 66.64 313.02 66.26 313.46 65.03 312.83 64.47 312.18 64.27 310.81 63.4 307.94 63.88 307.53 63.8 307.02 62.81 307.02 61.8 306.16 61.18 303.22 59.78 301.86 59 301.43 58.63 300.66 57.36 300.45 56.61 300.59 55.93 301.84 53.3 302.8 52.43 303.63 52.08 304.88 51.38 305.55 50.46 305.76 49.31 307.12 48.66 308.64 48.46 310.75 49.38 311.94 49.45 312.89 49.25 314.53 48.66 315.66 48.74 315.73 47.89 316.41 46.04 316.76 44.84 316.95 43.62 316.77 42.62 316.1 41.29 316.03 39.85 315.75 38.97 315.01 37.78 314.23 37.31 315.3 36.89 317.25 35.34 317.75 35.08 319.17 34.72 320.88 33.83 322.7 33.67 323.39 33.31 324.31 32.46 326.64 30.79 327.64 30.27 327.6 29.19 328.02 28.82 329.3 28.13 330.87 27.94 330.96 26.83 331.38 24.86 331.62 24.12 331.56 22.5 331.4 21.87 331.03 21.49 330.91 20.85 331.38 20.04 333.05 18.45 333.46 17.76 333.8 16.14 334.2 14.73 334.68 13.8 335.96 13.17 337.89 11.68 338.8 11.17 339.72 11.06 340.57 11.21 341.66 10.94 342.21 10.39 341.89 9.3 342.09 8.9 343.07 8.59 344.3 8.42 346.2 7.82 348.77 8 349.75 9.9 350.52 11.77 351.16 14.26 351.86 15.47 352.36 15.88 353.59 16.4 354.54 16.59 355.1 16.55 356.3 16.83 357.88 17.49 359.59 17.96 360.58 18.67 361.69 20.35 362.89 22.85 363.58 23.74 364.12 23.92 365.3 24.04 366.34 24.4 367.44 24.33 367.83 24.48 368.81 25.36 370.97 26.64 372.74 26.84 372.36 27.46 372.98 29.64 373.95 29.92 374.94 29.8 376.19 29.44 379.23 28.27 380.24 27.5 380.62 27.37 383.29 27.4 383.86 27.62 386.09 29.04 386.57 29.12 386.87 28.73 387.05 27.69 387.63 27.32 388.44 27.32 389.35 27.91 390.49 28.08 392.42 28.12 393.44 28.41 394.88 29.09 396.44 28.79 397.2 28.75 399.28 29.39 400.64 30 402.1 30.22 403.72 29.6 404.28 29.51 404.64 30.3 404.78 32.05 404.95 32.82 405.55 33.18 407.47 33.63 408.34 33.22 409.98 32.27 410.55 32.1 411.2 32.15 412.19 32.7 413.11 33.44 413.72 34.2 414.52 34.87 415.11 37.15 416.03 38.23 416.79 38.69 418.64 39.32 419.7 39.96 420.69 40.86 421.8 42.33 421.71 42.75 420.41 44.01 419.63 45.17 417.91 46.01 417.89 46.48 418.91 48.04 420.22 48.81 420.78 49.64 421.59 51.19 421.57 52.72 421.74 55.65 422.01 56.4 422.99 57.37 423.6 57.63 424.77 57.76 427.29 57.69 427.9 57.83 428.33 58.31 429.32 60.21 430.77 61.87 431.99 62.92 432.67 63.69 434.77 64.53 436.92 64.84 438.1 65.32 439.31 65.62 440.65 66.17 441.65 67.09 443.73 68.24 444.36 68.44 445.63 69.1 447.08 70.24 449.33 72.76 450.31 73.01 450.71 73.36 451.09 74.31 452.52 75.99 452.93 76.2 454.77 76.57 455.85 76.29 457 76.23 459.12 77.02 460.46 78.06 461.13 78.2 463.28 77.8 467.25 76.85 468.45 76.44 469.41 76.55 470.4 77.05 470.84 77.54 471.28 78.58 471.11 79.95 471.15 80.49 470.51 81.61 470.51 82.08 471.23 82.77 472.61 83.47 473.38 84.38 474.83 85.13 475.68 85.89 476.67 86.19 477.58 86.07 478.33 84.54 479.1 83.85 479.26 82.32 479.59 81.37 480.02 80.76 482.54 78.9 482.96 78.25 483.36 76.07 483.79 75.26 484.61 74.54 486.28 74.11 487.17 73.53 489.01 72.51 490.39 72.02 490.67 70.41 491.46 69.85 491.83 69.35 492.62 67.71 493.36 67.04 493.08 65.44 492.49 64.7 491.08 63.55 490.77 63.15 490.55 62.24 490.94 60.16 491.33 59.03 491.75 58.43 492.41 58.2 494.52 58.51 495.29 58.3 496.1 57.77 496.95 57.41 498.02 57.38 498.68 57.59 501.13 57.82 501.96 57.42 503.53 57.39 504.96 57.58 505.34 57.34 505.67 56.03 505.73 55.02 506.94 53.83 508.36 52.77 508.67 51.89 508.65 51.4 509.07 51.06 510.68 50.59 511.99 49.74 512.71 49.88 513.7 50.9 514.19 51.16 515.3 51.18 516.69 50.99 517.2 50.19 517.14 49.38 517.65 47.87 518.77 46.88 519.2 46.33 520.24 43.87 520.18 42.59 520.61 41.63 521.46 40.88 521.81 40.35 522.27 39.12 522.69 38.56 523.25 38.25 524.08 37.46 524.74 37.45 525.15 36.82 525.25 35.33 525.84 35.95 526.35 36.96 527.49 37.44 529.05 37.61 530.28 38.61 531.11 40.27 532.35 40.93 533.3 41.27 534.58 41.49 535.91 41.84 536.97 41.84 537.69 42.07 538.97 43.02 541.94 42.81 543.42 42.96 544.02 43.18 544.83 43.92 544.62 44.66 543.69 45.55 543.67 46.12 544.56 47.66 545.08 47.94 546.08 48.18 547.29 48.9 548.11 49.11 549.5 48.86 552.14 47.82 553.17 48.22 554.74 48.07 555.82 48.57 556.21 49.03 557.02 50.47 557.63 50.85 558.7 50.76 559.24 50.04 560.32 49.57 560.78 48.68 560.98 47.39 561.58 46.98 562.39 46.99 563.04 47.76 563.61 48.11 564.85 48.12 566.15 48.49 567.36 48.67 568.26 49.07 569.36 49.08 569.88 48.85 570.69 48.23 571.03 48.15 573.96 49.17 574.58 49.07 574.7 48.67 574.85 46.9 574.77 46.18 574.93 45.58 575.62 45.36 576.86 45.45 577.17 45.35 577.79 44.66 578.47 42.95 578.73 40.99 578.89 40.44 579.67 40.12 580.29 40.55 581.74 40.6 582.68 41.04 584.16 42.37 584.79 42.58 585.76 42.57 586.33 42.16 587.02 40.81 588.61 38.2 589.5 37.21 590.06 36.83 592.41 35.85 593.31 34.63 594.31 34.18 595.65 33.26 596.23 33.29 596.77 33.63 597.34 33.69 600.06 33.4 602.74 33.07 603.76 32.85 604.65 32.28 604.93 31.76 605.38 29.88 605.38 29.49 607.15 29.44 607.89 29.54 609.56 30.3 610.46 30.07 611.5 30 613.79 30.57 615.38 31.53 616.08 31.71 617.29 32.24 618.82 33.7 619.88 35.01 619.75 35.83 618.69 37.15 618.7 38.22 620.3 39.08 621.54 39.19 623.04 39.78 623.46 40.13 625.5 41.3 625.44 42.29 625.72 42.85 625.84 43.62 625.66 44.67 625.9 45.29 626.64 46.44 627.9 46.95 628.56 48.42 628.53 49.52 627.56 49.93 627.4 50.62 628.22 51.45 628.18 52.13 627.79 52.55 626.61 52.92 625.5 53.02 624.74 52.9 623.92 53.13 623.03 53.15 622.59 53.48 622.46 54.56 621.98 55.6 622.46 56.26 623.32 56.59 624.09 57.36 626.04 58.14 627.82 58.32 628.1 58.44 628.85 59.56 629.28 59.79 631.6 59.87 632.3 60.18 632.05 61.13 632.21 61.66 633.36 61.72 634.33 62.11 634.82 62.46 635.32 63.28 635.45 64.51 635.96 65.22 638.02 66.58 639.44 67.79 639.67 68.66 640.65 69.45 640.56 70.09 639.81 70.52 639.56 71.19 639.74 71.8 639.63 72.24 638.99 72.76 638.64 74 639.27 74.34 640.03 74.5 641.29 74.54 641.91 74.37 643.09 74.53 661.39 69.17 661.01 66.02 660.59 61.62 660.4 60.63 658.76 56.83 657.84 55.69 656.89 53.86 656.79 53.35 657.24 52.46 658.2 51.91 659.11 51.23 659.04 50.63 658.46 50.28 657.54 49.33 656.46 48.66 656.06 47.92 655.53 47.4 654.8 46.95 654.88 46.52 655.48 46.38 656.99 45.63 657.65 45.14 658.23 44.96 659.62 44.27 661.08 43.14 661.27 42.81 661.91 42.89 662.45 42.44 663.36 42.2 665 41.23 666.2 40.81 666.65 41.08 666.41 41.44 666.52 41.93 667.32 41.8 669.05 40.12 669.69 39.95 671.36 39.79 671.72 39.25 672.19 38.98 672.4 38.4 672.06 37.82 671.92 37.02 672.08 36.06 672.66 36.43 673.1 35.93 673.84 35.46 673.72 35.06 675.36 34.63 675.36 34.27 676.09 34.14 676.58 34.45 676.64 34.83 677.38 34.94 679.05 34.58 680.04 34.47 681.03 34.5 683.65 35.02 684.94 35.14 686.58 35.17 687.92 35.03 688.71 34.74 690.96 33.56 693.03 33.8 693.4 33.61 693.62 33.09 693.6 32.36 694.09 31.74 737.11 2.13 737.86 2.5 738.36 4.01 738.34 4.81 738.81 5.46 739.27 5.4 740.12 4.27 740.48 3.23 742.52 2.26 743.15 1.7 744.25 1.24 744.84 1.48 746.05 2.21 747.75 2.99 748.09 3.23 748.83 3.04 748.86 2.73 748.35 1.93 748.34 1.35 749.68 1 751.01 1.2 752.79 1.59 753.97 2.12 754.65 2.81 754.93 3.64 755.86 3.98 755.87 4.84 755.36 5.37 754.58 4.89 753.42 5.83 752.65 6.31 752.29 8.32 752.26 8.97 751.54 9.69 751.52 9.96 752.36 11.71 752.92 12.13 753.35 12.74 753.31 13.04 752.41 13.36 752.42 14.42 751.91 14.75 752.62 15.48 752.75 16.54 753.03 17.01 753.75 17.66 753.66 18.6 754.47 19.17 754.53 19.7 755.56 19.69 756.71 20.15 756.62 19.03 755.42 18.88 755.62 18.36 758.38 19.01 759.34 18.92 759.74 19.58 760.57 21.41 760.39 22.23 760.62 22.72 761.32 22.52 761.61 22.8 762.12 23.93 762.15 24.39 763.07 25.67 761.75 26.19 761.14 26.69 759.78 26 758.03 25.42 757.69 25.57 756.92 26.61 756.63 27.45 755.71 28.87 754.42 28.92 754.08 29.09 754.53 30.19 755.16 30.45 754.8 31.04 755.2 31.44 756.04 31.1 756.65 31.07 757.03 30.14 757.57 29.22 757.94 29.02 759.28 29.19 761.05 28.69 762.17 28.88 762.46 29.71 763.83 29.86 764.23 29.03 765.26 28.9 767.16 29.3 768.16 29.06 768.27 28.37 767.71 27.19 768.19 26.42 768.7 26.15 770.26 25.62 771.21 25.51 772.61 25.8 775.22 27.14 775.65 27.53 775.01 28.84 774.98 30.22 775.15 30.56 776.32 30.67 776.82 30.84 777.16 31.58 777.25 32.27 776.62 32.87 776.6 33.48 776.96 34.52 777.74 35.92 778.53 36.65 779.81 36.81 779.65 37.59 779.94 37.87 780.8 38.07 781.19 38.92 781.72 39.09 783.08 38.37 784.06 37.99 785.09 36.69 786.82 35.85 788.33 35.39 789.4 34.83 790.49 34.87 790.31 35.96 789.64 37.35 789.75 38.14 790.52 38.38 791.09 38.22 792.19 38.37 792.84 38.68 793.68 39.73 794.26 40.99 794.55 42.78 794.13 43.77 794.35 44.48 795.13 44.9 796.87 44.12 Z"/>
</g>
</svg>