<?xml version="1.0"?>
<svg xmlns="http://www.w3.org/2000/svg" version="1.2" baseProfile="tiny" width="800" height="474" viewBox="0 0 800 474" stroke-linecap="round" stroke-linejoin="round">
<g id="4203303">
<path d="M 797.97 11.12 798.67 11.37 799 12.19 796.65 13.4 795.14 13.62 793.87 14.36 793.16 16.33 792.23 17.35 790.32 18.7 787.76 19.48 785.96 20.54 783.28 21.59 781.71 21.94 781.75 24.04 782.67 25.16 783.69 25.9 783.72 26.68 783.02 27.3 782.95 27.92 784.38 29.91 783.12 30.84 781.61 31.57 780 31.97 778.72 32.08 778.05 32.54 777.96 34.64 778.18 35.45 779.9 37.45 780.03 37.98 779.63 39.49 778.74 41.08 778.87 42.38 779.93 43.13 781.95 44.01 782.59 44.49 783.53 44.52 785.39 43.91 786.92 44.02 787.4 44.58 787.93 47.28 788.05 49.13 788.47 51.89 787.95 53.22 787.1 53.95 786.6 55.24 787.16 56.73 788.27 58.12 788.47 58.89 786.79 60.64 785.15 61.74 784.03 61.56 782.46 60.41 778.53 60.48 776.98 60.82 775.3 61.81 774.26 62.15 772.42 62.11 768.18 64.77 767.05 65.19 764.48 64.47 763.3 64.3 762.16 64.84 760.25 66.6 758.59 67.24 757.7 67.8 757.03 68.65 754.73 70.43 753.58 70.94 748.53 71.74 746.19 71.49 745.58 71.17 743.81 71.41 742.09 71 740.06 70.99 738.7 69.9 735.03 68.88 734.02 68.87 730.72 67.89 729.66 69.63 729.27 70.85 727.99 71.67 726.23 72.19 725.53 73.14 724.02 73.6 722.4 74.48 720.74 74.63 718.59 73.96 713.97 73.2 712.95 72.76 712.14 71.98 709.93 70.8 709.5 69.57 707.67 66.59 706.58 65.32 704.9 62.9 704.09 61.98 702.17 61.43 700.43 61.26 699.18 59.51 698.11 58.73 696.73 58.95 695.42 59.52 694.39 59.45 691.86 57.8 690.65 57.54 687.3 57.8 685.26 57.16 684.19 57.42 679.82 54.89 678.68 55.05 676.71 54.99 675.5 52.95 673.89 52.31 673.92 50.58 672.84 48.69 671.51 47.53 668.73 47.06 667.45 45.66 665.87 44.41 664.7 45 663.7 46.91 662.5 47.27 661.52 46.96 658.92 44.23 657.38 43.5 656.46 43.62 655.76 44.85 655.61 46.43 655.94 48.16 655.29 49.97 654.95 50.27 653.33 50.07 652.35 50.38 650.2 51.47 650.06 53.07 650.25 54.89 650.09 55.76 650.94 58.19 650.2 59.54 648.34 60.39 647.01 61.65 644.96 62.71 642.31 63.53 642.08 66.22 641.29 67.52 641.26 69.11 639.08 69.32 637.59 70.36 633.39 72.47 630.83 73.29 629.54 74.11 629.31 75.25 629.4 76.32 628.99 78.02 628.96 79.75 629.78 81.73 630.23 82.38 630.15 83.16 629.29 84.22 627.96 85.32 627.67 86.76 628.22 88.74 629 90 629.29 90.9 628.18 92.97 628.18 94.44 629.02 97.11 630.3 98.15 629.89 99.76 627 103.74 625.96 104.47 625.02 104.78 623 104.76 621.84 105.52 620.7 106.79 620.07 107.98 619.83 109.4 621.69 110.27 622.99 112.38 623.9 113.11 625.01 113.56 625.6 115.48 626.23 118.32 624.82 119.62 624.01 120.76 624.46 121.89 625.24 122.51 626.49 124.48 626.6 125.4 626.21 126.49 625.16 127.44 623.48 128.22 622.43 128.94 622.31 130.69 622.54 131.23 624.09 131.96 625.71 133.35 625.92 134.28 624.07 135.8 623.2 137.07 622.97 138.4 623.49 139.25 624.39 139.96 625.15 142.01 625.79 143.14 625.79 144.39 625.44 145.34 624.4 146.53 624.13 147.55 623.27 149.16 621.02 150.72 620.69 151.44 620.67 152.59 621.5 153.62 620.5 154.59 617.49 155.76 615.06 155.27 611.62 153.2 608.99 152.35 607.99 152.18 604.95 153.12 603.69 152.84 602.42 152.18 600.7 152.67 599.8 152.67 598.06 152.08 595.69 151.72 594.23 151.78 592.52 153.36 592.02 154.26 592.04 155.1 592.78 157.01 592.37 158.17 591.13 159.55 589.01 160.6 585.92 163.18 585.21 163.38 583.54 163.22 581.01 163.37 579.25 164.12 577.06 165.92 573.86 171.69 572.77 172.51 570.99 172.5 568.74 173.5 567.54 175.7 564.99 176.31 562.03 175.5 560.96 175.47 559.59 174.91 554.05 175.21 550.01 174.45 549.38 174.85 548.63 177.34 548.05 178.14 546.34 179.28 545.18 179.36 541.96 178.48 540.74 178.51 539.55 179.31 538.09 180.77 537.85 181.46 537.98 182.67 537.33 183.59 535.7 184.07 533.71 184.21 530.83 184.96 528.18 187.79 527.05 188.82 525.67 190.54 522.8 192.86 518.48 193.77 516.91 194.44 514.63 196.33 511.47 197.9 510.1 198.43 509.24 198.34 508.91 197.52 507.54 195.84 507.47 193.97 506.76 193.15 505.64 192.93 504.55 193.3 503.03 194.18 500.82 193.77 499.31 194.03 499.42 195.13 499.12 195.66 496.88 196.73 495.97 198.37 494.71 198.73 493.8 199.3 493.3 200.87 491.9 202.18 491.48 203.18 491.78 204.54 491.7 206.49 491.41 207.37 490.05 208.12 488.45 208.26 484.72 208.87 484.06 209.15 483.61 210.32 484.13 211.85 484.41 214.87 485.56 216.73 487.62 218.74 488.42 219.87 488.47 221.03 487.73 221.49 486.34 221.42 484.51 221.61 482.45 222.47 481.02 222.43 479.99 222.06 479.28 221.47 478.51 220.29 476.11 218.91 474.15 218.25 473.31 217.17 472.02 216.32 469.62 215.96 467.25 214.56 467.25 213.66 465.1 212.97 462.49 213.74 461.26 214.68 460.65 215.74 458.71 215.73 456.82 216.27 455.66 216.21 454.65 215.82 453.63 215.97 452.62 216.46 452.46 217.3 453.53 220.04 453.62 222.12 451.27 223.28 450.58 224.22 450.49 226.2 451.19 227.73 450.77 229.26 450.72 230.43 449.45 233.04 451.38 234.49 451.7 236.08 451.39 237.06 451.42 238.93 451.1 239.52 449.17 240.31 448.33 241.43 448.69 242.89 449.27 246.44 449.86 247.87 446.41 249.49 445.13 249.31 444.46 248.26 443 247.49 441.51 246.96 440.91 247.1 437.84 248.5 436.44 247.8 435.02 247.55 434.01 248.44 432.81 249.12 430.99 250.77 429.68 253.36 430.23 254.43 429.66 255.51 426.62 255.21 425.11 256.09 424.73 256.93 422.6 258.36 421.8 259.5 421.23 260.86 419.67 262.42 419.1 262.76 416.18 262.49 414.11 262.95 413.18 262.68 411.87 261.62 410.97 261.52 408.77 263.32 406.89 264.34 404.43 266.63 403.87 267.65 402.44 268.63 402.1 269.71 402.19 270.88 403.05 271.71 402.99 272.59 401.33 273.6 400.25 275 400.15 275.78 401.07 276.89 402.86 278.35 404.15 278.68 406.28 278.6 408.21 278.25 411.88 279.26 412.79 279.72 413.23 281.37 414.44 282.12 416.05 283.81 416.85 284.16 417.8 285.21 419.02 287.46 419.74 289.5 420.54 290.63 420.97 292.11 421.1 293.63 420.88 294.07 418.15 294.97 416.64 293.72 415.36 294.99 413.83 297.3 413.73 299.48 413.09 300.07 412.46 301.38 412.23 302.85 413.46 305.13 413.55 306.22 414.23 307.64 415.49 307.93 416.49 307.54 417.6 307.53 419.46 306.83 421.07 305.51 422.01 305.35 423.42 305.56 424.77 306.01 426.32 305.55 428.07 306.06 429.85 307.13 430.63 308.03 432.29 311.33 432.6 312.51 434.14 315.29 435.02 318.68 435.04 319.89 434.59 322.19 434.21 323 433.04 324.21 432.6 325.06 432.33 326.36 431.79 327.18 431.8 328.39 432.24 330.2 431.01 333.23 431.36 334.05 432.79 336.27 435.65 337.55 436.61 338.31 436.97 339.44 436.81 341.07 437.04 342.69 436.48 343.8 436.34 345.09 435.32 346.93 434.59 348.91 434.57 350.26 435.04 353.51 435.77 355.57 435.78 356.28 435.03 357.94 434.74 359 432.74 361.48 431.38 362.79 430.12 365.02 428.09 367.59 427.74 368.57 427.48 370.52 426.18 371.6 423.55 372.3 421.89 370.77 420.28 369.99 420.03 368.42 418.8 367.87 416.14 367.83 415.22 367.38 414.62 366.59 414.57 365.44 412.75 361.51 409.83 360.51 408.49 360.49 407.64 360.8 405.25 360.52 401.5 359.39 400.34 359.22 399.34 359.54 396.69 361.82 396.21 363.88 395.57 364.52 394.12 365 392.97 365.63 390.7 367.96 387.76 370.45 387.58 373.37 386.04 377.04 384.99 378.79 383.05 380.87 382.5 382.49 383.56 383.33 385.12 383.16 386.12 383.97 386.79 384.87 387.12 386 386.58 386.91 382.88 389.31 382.03 390.54 381.63 391.81 380.11 392.73 379.67 393.54 380.03 394.24 384.15 395.07 385.08 396.67 384.31 398.38 380.62 399.15 377.75 401.34 376.61 402.56 375.94 403.71 375.64 404.75 375.8 405.71 376.37 406.5 376.41 407.4 375 408.77 374.17 409.27 371.93 409.42 369.51 410.87 368.09 412.59 367.2 412.75 365.48 412.39 363.43 410.14 361.59 409.57 360.74 408.29 359.62 407.82 356.88 408.01 355.4 407.61 354.11 407.66 352.37 408.18 351.38 408.05 349.73 408.59 348.99 409.17 346.9 409.53 346.25 410.1 346.09 411.44 345.43 412.74 343.18 414.19 340.38 414.84 339.08 415.94 338.37 416.97 337.61 419.83 337.87 420.91 337.6 422.87 336.51 423.9 335.82 425.36 335.82 426.4 336.27 427.27 337.33 428.5 337.33 429.91 336.33 430.99 335.55 432.49 334.52 433.08 333.05 435.35 333.38 437.02 334.2 437.47 336.27 439.56 337.33 442.98 339.59 445.29 341.46 448.58 342.52 449.34 343.24 452.02 343.8 456.21 343.38 457.31 342.23 458.95 342.84 462.23 342.65 464.09 342.32 465.12 341.58 465.12 338.95 464.25 338.24 464.65 337.59 465.86 337.57 466.99 338.18 469.24 338.42 471.2 337.94 471.55 336.03 470.85 334.54 471.52 333.01 471.2 332.03 470.37 329.88 469.87 328.6 470.55 326.93 472.18 325.81 472.52 325.47 471.74 325.48 470.59 324.61 469.72 323.58 469.6 321.6 468.78 317.58 469.47 316.21 469.51 314.46 470.43 311.82 470.82 310.46 470.49 309.57 470.82 308.78 471.54 307.98 472.79 306.73 473 305.3 472.11 302.94 471.5 301.51 471.89 297.39 472.65 283.08 463.63 256.34 447.19 190.89 406.97 175.9 395.44 175.13 359.45 146.06 346.2 106.48 346.06 97.36 362.15 96.75 360.97 95.62 360.21 93.63 359.68 93.11 358.66 91.24 357.63 90.27 356.13 89.26 355.9 87.35 356.54 86.28 357.1 85.65 356.51 84.99 356.96 84.39 358.5 83.25 358.68 82.96 358.27 81.31 357.54 80.61 356.91 78.78 355.98 77.99 356.23 77.23 355.92 75.02 356.16 73.18 356.92 72.62 358.37 70 358.39 68.38 359.75 67.85 359.54 68.21 358.31 68.22 356.59 67.54 355.38 68.41 354.01 67.41 352.8 66.39 350.78 65.21 349.04 64.2 346.86 63.51 346.48 62.2 346.53 60.89 347.01 56.09 344.78 53.87 343.22 52.51 341.09 50.52 340.35 48.12 340.13 46.85 339.82 44.8 338.37 41.53 334.02 41.58 332.61 40.06 332.09 36.87 332.4 35.12 332.89 34.22 332.76 32.02 334.42 31.84 334.93 30.75 334.93 29.69 336.1 29.15 338.11 28.72 338.98 28.89 340.52 29.67 340.83 29.48 342.9 28.92 343.33 26.33 342.98 23.7 342.45 23.85 341.32 23.3 340.7 23.71 339.84 23.53 337.61 21.71 336.17 19.79 335.18 19.17 334.2 17.9 333.41 17.48 332.58 16.2 331.73 14.6 331.03 14.34 330.65 14.7 329.61 13.99 328.22 13.52 326.49 13.96 325.8 14 324.87 13.63 321.33 12.66 319.79 11.14 318.16 11.02 317.49 11.95 315.36 11.8 314.69 10.73 313.21 8.52 312.26 7.29 311.39 5.23 310.5 4.75 309.48 3.48 308.75 2.42 307.8 1 307.23 2.15 306.65 2.49 305.68 3.48 305.26 5.12 305.97 6.84 305.84 7.08 305.19 6.14 304.24 6.7 303.1 8.53 302.8 9.54 302.85 10.4 303.58 11.41 303.58 12.34 302.51 13.39 302.31 15.26 302.66 16.84 303.77 17.68 303.06 17.34 301.09 17.99 300.4 18.99 299.94 18.71 299.33 16.78 299.35 15.82 299.16 13.85 297.94 12 297.86 11.66 296.59 12.24 296.11 13.85 295.96 17.72 297.08 19.47 297.79 20.64 298.59 22.73 300.31 24 301.61 25.05 301.34 25.81 300.1 25.97 298.12 24.98 295.5 23.37 293.24 21.62 290.12 21.59 288.86 22.77 287.73 23.8 285.76 23.9 284.5 23.63 283.3 24.1 282.51 26.17 281.5 26.54 282.32 26.56 284.21 27.16 284.88 28.37 285.48 32.8 285.98 35.43 286.9 36.5 287.13 37.07 287.8 36.42 289.37 37.2 290.28 38.56 291.23 38.5 292.23 37.55 293.06 37.3 294.14 37.43 295.51 38.1 295.77 39.22 295.47 41.22 295.84 42.13 295.51 43.44 293.69 43.95 293.31 46.17 292.46 47.58 290.93 48.32 289.47 47.96 287.9 48.01 286.77 47.75 284.98 48.61 284.25 51.13 283 52.68 282.08 52.7 281.5 51.94 279.29 51.77 278.33 52.15 277.31 52.93 277.12 58.57 280.56 59.34 280.59 60.16 279.35 61.3 279.16 61.78 280.54 61.17 284.36 61.23 285.46 63.09 286.41 64.61 286.38 66.43 287.73 66.61 289.71 66.97 290.34 68.13 291.33 69.54 293.24 70.92 293.03 72.56 291.66 73.01 290.59 73.09 287.51 72.54 285.67 73.06 285.11 74.63 285.42 75.6 286.1 75.93 287 76.62 286.99 77.13 285.76 78.21 285.28 79.4 285.34 81.14 286.38 82.01 286.29 83.09 285.37 84.24 285.54 85.06 287.34 86.29 287.66 87.04 287.15 87.08 286.18 88.42 286.05 89.78 285.54 91.6 285.42 93.54 285.68 93.79 284.62 93.05 283.87 91.59 283.51 92.21 282.77 93.71 282.76 95.46 282.48 95.95 283.74 96.56 284.43 97.19 284.19 97.84 282.45 98.48 281.95 99.32 282.17 99.88 284.37 101 285.57 101.88 285.93 102.77 285.36 102.45 284.88 100.78 284.34 100.62 283.68 101.04 282.75 101.88 282.53 102.92 283.79 103.68 282.94 103.21 282.1 103.91 281.56 104.99 281.67 105.17 280.99 104.25 279.22 103.55 278.51 101.24 277.31 100.52 276.71 99.71 274.72 99.82 273.94 101.16 274.11 102.39 273.36 103.09 273.5 104.15 274.79 105.09 274.63 105.23 273.95 104.59 272.83 104.66 272.01 105.43 270.83 104.73 269.18 104.96 268.47 105.82 268.04 106.7 269.15 106.68 270.55 107.25 271.03 109.25 271.5 110.12 270.89 108.47 268.34 108.34 267.78 108.51 265.68 108.9 265.33 110.1 265.78 111.75 264.23 112.88 262.81 115.1 261.66 115.86 262.67 116.7 262.79 117.28 262 119.26 260.74 118.65 259.97 116.53 259.56 115.72 259.05 115.75 258.46 116.73 258.31 118.08 258.63 118.55 258.21 118.86 256.96 117.94 255.19 118.62 254.55 119.77 254.93 119.53 256.04 120.12 256.65 122.08 257.01 123.36 257.77 124.17 257.83 124.04 255.23 122.98 254.96 121.91 255.33 121.61 254.38 125.14 250.94 126.09 251.66 125.26 253.69 126.3 254.15 126.26 253.22 127.04 252.7 128.35 253.1 129.29 253.72 130.11 253.13 129.57 252.09 130.56 251 130.31 250.33 129.25 251.05 127.34 250.27 127.17 249.62 127.89 249.03 128.84 249.33 130.11 247.98 131.21 247.74 132.98 249.38 134.66 249.48 134.99 248.73 134.6 247.69 134.11 247.3 132.96 248.16 132.49 246.79 133.81 245.66 135.04 246.34 135.95 246.23 135.75 245.47 134.82 245.52 134.93 244.66 136.2 243.81 136.91 242.55 138.5 244.58 139.18 243.81 140.18 243.69 140.36 243.07 139.87 241.88 141.05 239.97 141.49 241.49 142.42 239.62 143.49 238.88 144.19 239.32 143.94 240.3 144.88 241.16 145.35 240.24 146.46 241.17 147.19 240.71 148.21 240.77 148.7 241.65 149.79 241.88 153.46 238.62 154.55 238.01 154.43 237.58 153.3 237.39 152.34 236.7 152.6 235.7 154.57 235.89 156.22 235.55 157 235.04 158.84 235.99 159.64 236.84 160.1 236.03 160.94 235.68 162.33 234.46 162.53 233.7 162.17 233.02 161.26 232.37 160.38 233.05 159.85 231.5 160.95 231.29 161.45 230.42 162.9 230.3 163.2 229.59 162.35 228.16 162.43 227.27 163.51 225.28 164.35 224.98 166.53 224.65 167.62 224.13 168.73 222.36 169.53 221.83 170.35 222.79 171.11 222.25 171.71 220.86 171.87 219.74 172.57 219.71 172.86 221.12 173.57 221.42 175.41 221.34 174.63 220.64 174.57 220.02 175.91 219.63 175.76 219.04 174.27 219.09 173.94 218.22 174.62 217.84 175.67 218.55 175.84 217.58 177.06 215.91 179.1 216.14 178.99 214.38 180.28 212.45 182.81 209.98 183.64 210.16 183.88 211.08 184.84 211.69 188.05 211.26 188.73 210.3 189.15 209.19 190.28 209.41 191.48 209.2 193.64 209.19 194.19 208.31 194.76 208.37 195.27 209.34 196.51 210.45 197.2 210.66 197.61 209.8 199.23 209.31 200.45 208.64 201.8 209.02 201.57 209.72 200.32 210.18 200.27 211.2 201.66 211.07 202.5 212.66 203.34 212.78 203.68 211.64 204.94 211.28 206.27 212.13 206.81 212.11 207.96 211.4 207.6 210.54 208.35 210.18 209.48 211.09 209.83 211.89 210.73 211.55 210.21 210.56 210.41 209.98 211.46 210.34 212.34 211.41 213.14 211.46 213.45 212.33 212.74 213.45 213.19 215.69 214.84 215.46 215.08 214.82 214.72 213.58 215.54 213.07 215.09 212.14 216.35 211.33 217.18 211.37 218.35 212.14 219.31 211.34 219.15 210.19 219.9 209.83 221.95 209.84 222.43 208.97 221.25 209 220.5 208.13 219.05 207.77 219.27 207.03 220.08 206.02 221.06 205.56 221.05 205.1 219.57 202.59 218.33 200.74 219.25 199.69 219.83 199.82 220.04 201.11 220.8 200.47 221.41 198.76 222.22 197.53 223.03 198.41 224.49 198.58 226.38 199.43 226.57 198.85 225.75 198.1 227.56 197.48 227.72 196.11 228.17 195.86 229.21 196.66 229.27 197.44 228.59 198.81 229.14 199.41 230.37 199.71 231.07 199.32 230.48 198.13 231.03 197.89 231.72 198.71 232.93 199.44 235.07 200.07 236.06 199.54 235.17 199.01 234.01 198.85 234.23 197.46 235.29 197.19 236.3 197.85 236.81 196.8 236.07 195.22 235.11 192.67 234.33 191.62 232.58 191.89 231.89 190.2 232.06 188.76 231.21 187.84 230.65 188.9 231.03 191.38 228.06 190.66 227.86 189.63 228.83 189.05 228.79 188.54 227.88 186.99 227.51 185.92 227.76 185.44 228.96 185.81 228.19 184.04 228.89 183.69 231.44 183.75 232.05 183.62 233.15 182.73 232.71 182.06 230.75 182.68 228.99 182.87 227.84 183.26 227.51 182.5 228.4 181.08 229.78 181.68 230.83 181.17 230.06 179.21 228.98 179.78 226.22 179.76 226.2 178.47 227.59 178.37 227.75 175.54 228.57 174.23 228.78 173.44 227.66 173.24 226.65 173.37 225.82 173.85 225.1 171.8 226.49 170.83 226.6 169.78 228.15 169.75 227.49 168.92 227.8 168.38 228.85 168.07 229.56 166.99 228.96 165.67 229.68 164.24 230.5 164.45 230.23 166.49 230.38 167.25 231.37 167.26 231.66 166.04 233.29 166.25 233.03 167.32 234.6 167.73 235.31 166.95 235.1 164.41 235.37 163.4 236.1 163.14 237.19 163.49 237.89 164.23 238.78 164.62 239.36 164.15 237.54 162.51 239.04 162.5 240.13 161.58 240.44 160.7 240.15 158.63 241 157.68 241.84 157.89 243.35 158.91 243.83 158.07 244.51 158.02 245.21 158.63 246.29 157.55 247.12 158.06 247.1 158.7 246.02 159.76 248.51 160.8 249.2 160.53 248.99 159.15 249.98 158.84 250.65 158.14 252.32 158.69 253.42 159.81 252.85 161.06 254.58 161.31 253.83 162.17 255.68 162.33 256.35 163.04 256.17 164.66 256.94 165.09 258 164.47 258.06 163.41 259 163.91 261.11 163.35 262.1 163.46 261.14 160.97 259.41 161.08 259.47 160.12 261.5 160.21 261.8 159.58 260.41 157.2 261.18 156.95 262.07 157.24 261.82 158.06 262.46 158.77 264.23 157.81 265.07 157.69 265.21 158.58 266.26 158.55 266.77 157.8 268.47 157.52 269.08 158.33 268.06 158.87 267.68 160.02 267.96 160.82 269.25 161.81 271.82 162.67 272.68 162.66 274.44 161.49 275.02 159.64 275.74 158.05 275.32 157.33 274.07 156.42 273.41 156.53 272.48 155.12 270.52 154.1 270.92 153.58 272.31 153.95 273.61 151.6 274.72 151.02 274.32 150.37 274.34 149.06 275.51 149.16 275.73 148.19 277.05 146.07 277.37 143.5 276.93 143 275.61 144.35 274.85 142.98 273.36 142.64 272.87 142.14 272.87 141.33 273.98 140.33 273.75 138.84 274.34 138.38 275.39 138.93 277.75 138.66 278.28 139.87 279.83 139.8 281.88 140.94 283.25 141.18 283.77 142.66 284.83 141.68 285.12 142.29 285.93 141.97 287.1 139.23 288.01 138.84 288.38 139.42 287.99 140.12 288 141.29 286.62 142.36 287.1 142.94 288.91 141.43 290.9 140.3 290.99 139.01 291.43 138.52 291.11 137.43 292.92 136.97 293.22 136.3 291.72 134.9 290.13 134.95 289.46 134.17 290.98 133.68 292.7 134.48 294.92 133.59 295.73 132.93 295.57 131.77 296.42 131.46 297.04 130.15 296.06 129.78 295.84 129.16 296.12 127 297.45 126.38 297.64 125.22 295.89 124.5 295.13 124.66 293.83 125.52 292.89 125.28 293.91 124.2 294.64 122.98 296.59 123.08 296.79 122.22 295.89 121.31 294.7 122.13 292.96 121.09 294.98 120.09 295.91 120.09 297.28 118.44 297.59 117.68 296.78 117.21 297.05 116.67 296.28 115.74 297.23 114.8 296.95 114.23 295.41 114.53 295.13 113.45 296.54 113.63 297.25 113.3 296.28 112.52 294.75 111.92 295.22 111.45 296.66 111.82 296.35 110.4 296.69 109.91 297.58 109.8 297.97 108.84 298.78 108.34 298.69 107.71 297.83 106.93 297.8 106.31 299.27 105.72 299.96 106.17 299.55 106.91 301.37 106.93 302.11 107.3 303.14 107.12 305.76 104.74 306.28 103.59 307.64 103.42 308.04 102.63 308.87 102.53 309.93 102.83 310.25 101.97 309.54 100.44 310.04 100.03 311.55 100.32 311.41 99.08 312.13 98.56 312.66 100.67 313.81 100.47 313.33 99.77 314.94 97.43 314.71 96.68 313.12 96.76 312.66 95.88 314.22 95.01 316.07 94.9 316.82 95.53 317.46 94.38 318.59 92.97 319.98 92.99 320.4 92.69 320.4 91.32 319.96 90.23 320.65 89.42 321.17 90.34 322.3 89.51 323.51 89.4 323.6 88.68 322.12 88.55 321.04 88.12 319.46 88.07 319.68 87.2 318.55 85.2 319.36 85.08 319.12 83.58 319.52 83.05 320.55 82.96 321.99 82.1 322.56 81.26 323.86 80.99 323.56 80.3 321.86 80.33 320.89 80.04 320.89 79.11 322.99 78.04 326.4 78.6 327.51 78.53 328.58 79.26 329.81 79.53 331.09 79.25 332.63 78.05 333.15 75.76 333.57 74.84 334.22 74.85 335.3 76.15 335.97 76.42 337.45 76.41 337.99 76.89 338.18 78.58 340.53 79.19 341.65 79.06 342.69 77.92 342.11 77.54 340.69 77.33 340.62 76.71 341.88 76.4 343.4 74.56 344.66 74.32 346.16 75.67 346.88 75.47 347.24 74.59 346.2 74.4 346.1 73.69 347.3 73.54 347.27 72.18 348.83 71.17 349.09 69.35 350.25 69.8 352.35 69.09 353.14 69.51 353.27 70.4 354.18 70.05 354.89 68.31 354.29 67.17 355.11 66.88 355.9 67.21 356.7 68.27 356.39 69.4 357.85 69.53 357.62 68.81 358.85 68.74 359.04 68.17 359.96 67.86 360.3 67.27 361.09 67.39 362.15 68.94 361.96 69.75 363.15 69.63 365.55 69.92 366.21 69.1 365.39 67.84 364.97 65.96 366.2 65.1 368.85 64.81 370.6 64.32 371.34 62.27 371.38 61.16 370.9 60.38 370.09 60.14 369.84 59.01 368.58 57.95 368.65 57.02 370.78 58.6 371.17 58.41 370.67 57.1 371.03 56.73 372.84 56.98 372.71 55.96 373.22 54.96 374.06 55.55 374.92 55.35 375.76 55.62 377.12 56.55 378.35 56.57 379.99 53.85 380.91 53.79 380.76 54.82 379.52 55.3 379.66 55.94 381.19 56.12 381.68 55.86 381.68 54.77 382.53 54.77 383.42 54.07 385.61 54.22 386.47 53.99 386.97 53.13 386.56 52.07 388.8 53.07 389.93 54.32 390.6 54.32 392.79 52.76 392.39 51.81 391.59 51.32 392.74 50.56 394.62 49.81 395.69 50.08 395.93 50.79 396.58 50.97 398.45 49.75 397.01 49.26 396.61 47.49 397.9 46.87 398.49 45.56 398.04 44.14 396.5 42.41 397.68 42.18 398.87 42.58 399.19 41.67 400.03 42.05 401.03 41.78 402.63 42.31 403.46 43.18 404.08 42.12 404.74 41.83 404.45 40.77 405.56 40.58 406.51 39.74 407.35 41.7 408.93 42.66 409.55 42.79 410.23 42.06 410.14 40.75 411.65 41.09 412.23 40.48 414.73 42.11 414.61 41.2 415.94 40.53 416.98 40.96 417.21 39.78 418.04 39.42 419.06 39.6 419.36 40.61 420.1 40.3 420.02 39.58 418.9 38.9 419.93 38.49 420.53 37.89 422.1 37.38 421.92 36.84 419.84 35.97 418.4 36.18 417.73 35.89 417.54 35.02 418.75 34.52 419.85 35.22 420.61 35.32 420.53 34.14 419.46 33.99 419.53 33.26 421.11 32.74 421.15 32.02 422.35 32.64 423.31 32.69 423.2 33.63 423.63 34.32 424.79 34.59 425.53 34.35 426.71 34.67 426.85 34.18 425.83 33.6 427.04 32.67 426.19 31.99 424.82 30.05 424.66 28.66 426.86 30.13 427.17 28.77 427.88 27.93 429.17 28.48 429.95 29.58 430.85 29.94 432.31 30.02 433.29 30.92 433.84 30.56 433.14 29.82 432.97 28.72 433.36 27.88 434.22 27.91 434.6 28.59 434.78 29.94 435.36 30.32 436.24 29.92 437 28.64 438.26 28.87 438.52 30.15 439.93 29.77 440.7 30.52 439.75 31.41 440.14 32.03 439.58 33.64 441.02 33.98 440.78 33.15 441.65 32.65 441.96 33.3 443.37 34.53 444.55 34.45 445.38 33.89 446.13 34.75 445.83 35.47 446 36.27 445.62 38.22 444.58 38.52 444.39 39.32 445.14 39.46 446.57 38.75 446.48 40.24 447.53 40.41 447.65 39.15 449.31 38.76 450.59 38.13 451.59 38.57 451.68 39.8 452.33 40.16 452.63 40.91 452.03 41.37 452.63 42.32 453.19 41.67 454.12 41.34 454.04 42.48 454.5 42.86 456.31 42.61 457.34 42.11 458.42 42.59 460.69 42.29 461.03 42.61 463.37 43.49 465.13 43.76 465.27 44.39 466.83 44.04 467.08 45.06 466.44 45.35 466.39 47.25 466.91 48.52 468.93 47.91 469.21 46.78 469.91 46.73 470.13 47.67 471.42 47.97 470.25 49.54 470.17 50.27 471.37 50.15 471.37 49.07 473.92 48.75 474.42 48.32 474.49 47.19 473.05 46.44 471.43 44.31 472.54 43.76 474.02 44.25 475.33 44.35 477 44.84 477.03 45.42 478.9 45.78 479.19 46.89 480.33 47.85 480.12 49.47 479.26 50.7 479.57 51.56 481.38 52.3 481.41 53.53 482.72 53.24 483.4 54.01 484.12 52.51 485.64 53.34 486.57 52.63 486.46 50.81 486.17 50.06 486.77 48.23 487.56 47.83 489.2 47.52 489.35 46.93 488.26 46.02 488.28 45.39 489.01 44.8 487.93 44.36 488.06 42.98 489.08 43.13 491.38 42.21 491.85 43.43 492.46 43.64 493.04 42.7 493.24 41.23 493.98 41.91 495.57 42.4 495.75 41.03 496.91 41.49 497.29 41.02 496.73 40.42 497.22 39.83 498.59 39.94 498.51 39.01 497.81 38.4 498.69 37.72 498.43 36.97 499.16 36.21 500.23 34.21 501.24 33.58 500.6 32.29 499.35 31.86 500.01 30.95 499.01 29.97 498.24 30.8 497.36 30.48 496.61 29.01 496.87 27.24 497.66 27.63 498.02 26.51 498.76 25.87 499.19 26.77 500.23 27.06 499.42 24.94 500.03 24.1 501.95 23.92 501.55 24.6 502.52 24.88 503.2 23.72 504.68 23.4 505.84 22.58 507.03 22.43 506.84 21.7 507.7 21.25 509.17 21.85 510.36 21.51 510.6 22.42 511.4 22.24 511.4 23.21 512.92 22.98 513.43 23.44 513.09 24.15 513.27 25.02 514.23 26.1 514.22 27.84 515.29 28.7 515.65 29.62 517.12 30.49 517.86 30.68 518.77 31.83 519.32 31.69 521.26 32.09 522.32 31.54 522.84 32.71 523.38 32.24 525.27 32.33 525.31 34.2 526.32 33.95 527.76 35.75 528.72 35.51 529.66 36.13 530.29 35.38 530.31 34.57 531.37 34.79 532.14 34.4 533.81 34.57 533.67 32.95 534.73 32.38 536.89 29.96 537.93 27.84 537.77 26.04 538.4 25.78 539.07 26.83 541.32 29.05 540.77 30.85 540.81 31.58 540.35 32.63 541.52 34.28 542.71 34.67 542.63 35.53 545.22 34.8 546.05 35.96 544.76 36.36 544.54 37.29 545.26 37.82 545.09 38.86 545.72 40.35 544.73 41.21 545.27 41.48 546.44 41.16 548.88 42.27 550.76 43.61 551.67 44.54 553.59 45.05 553.87 44.59 553.93 41.5 554.68 41.31 555.22 42.2 557.15 44.18 558.88 44.98 560.91 44.57 562.29 43.69 564.15 44.49 564.74 43.09 565.28 40.86 565.87 39.78 566.98 39.26 567.02 38.32 565.92 37.48 564.41 36.65 563.91 35.16 565.1 33.04 565.72 32.84 567.97 34.52 570.24 35.37 572.26 35.85 575.42 35.98 576.72 35.76 577.84 34.94 579.02 35.11 580.33 35.72 580.52 36.81 581.57 37.19 582.76 38.09 583.72 39.26 584.81 39.7 584.77 38.78 586.11 38.16 585.76 37.32 586.84 37.09 587.63 37.24 589.16 36.9 590.06 35.41 590.98 35.21 590.55 33.11 591.74 32.96 591.5 32.2 593.39 31.9 593.81 30.38 593.54 29.53 594.71 28.47 596.17 28.61 596.72 28.36 597.81 30 599.79 30.01 599.89 31.58 600.86 31.04 601.76 32.65 602.42 32.28 603.15 32.66 602.53 34.76 601.87 34.91 600.39 36.4 601.48 37.41 601.52 38.02 600.55 38.84 601.34 39.67 601.48 41.38 601.01 42.41 601.59 43.11 602.41 43.38 603.07 44.66 603.94 45.27 604.51 46.4 606.15 47.42 606.98 48.52 607.99 49.2 609.49 49.86 609.61 50.51 610.98 50.68 611.31 50.08 612.89 50.79 613.34 51.53 614.14 51.79 615.04 52.98 615.96 53.72 616.69 55.22 615.88 56.5 616 57.86 617.16 58.89 618.79 59.6 619.42 59.32 620.91 60.33 622.87 60.47 625.22 62.43 628.09 62.16 629.89 60.74 629.2 59.45 629.8 58.88 629.47 58.13 630.41 56.29 630.86 56.99 631.76 57.39 632.66 58.6 632.97 59.67 632.59 60.75 632.98 61.23 634.5 60.19 635.16 60.14 636.02 59.28 636.88 58.92 637.62 59.42 639.51 57.37 639.43 56.1 639.73 55.1 640.63 53.37 640 52.37 640.62 51.28 640.39 50.66 641.79 48.61 641.59 47.52 642 46.81 641.48 46.37 642.01 45.67 642.78 45.54 643.86 46.36 644.16 43.49 644.44 42.52 643.62 41.53 643.02 40.32 643.92 39.19 644.21 37.61 643.86 36.32 644.49 35.22 645.63 35.05 648.24 34.12 649.44 34.93 649.56 35.62 650.96 35.53 651.25 36.15 652.13 35.88 652.11 35.14 652.97 34.54 654.28 35.15 655.82 34.91 656.7 36.28 658.54 36.6 658.43 35.93 659.3 35.06 659.72 35.53 660.68 34.75 662.29 34.16 663.53 35.36 664.32 35.74 666.07 35.67 666.91 35.41 669.4 36.28 668.56 36.79 670.67 40.04 671.53 40.63 672.79 40.91 673.2 42.48 672.69 43.41 673.23 44.24 672.35 45.25 671.1 46 673.15 46.12 674.25 47.15 676.46 48.41 677.42 49.52 679.71 50.35 681.07 52.66 682.34 53.8 685.27 53.62 686.97 52.18 687.79 52.14 690.06 52.76 691.16 52.81 692.85 52.27 694.04 52.73 694.66 52.46 695.3 51.54 697.05 51.06 699.46 51.66 700.53 52.1 701.61 54.38 702.07 54.58 704.34 53.87 705.89 52.38 706.88 51.79 707.39 50.84 707.64 49.5 707.31 48.22 709.15 46.97 710.23 45.75 710.96 46.51 712.36 46.58 712.98 46.32 713.83 45.16 714.98 45.05 715.66 45.67 718.18 46.97 718.65 46.53 720.73 42.98 721.58 42.82 723.52 43.21 725.26 43.13 726.9 41.81 727.42 40.54 728.12 40.27 728.32 39.5 730.19 38.93 730.8 38.27 731.25 36.74 732.01 35.82 733.8 34.72 734.69 34.46 735.81 35.01 737.01 36.38 738.59 36 739.83 35.16 741.66 35.28 741.74 33.25 740.1 32.77 738.89 31.8 737.88 30.39 737.73 28.6 738.01 28.25 740.1 28.12 740.57 27.88 742.24 27.83 742.81 27.27 744.51 27.78 745.07 27.5 746.13 25.29 747.19 23.98 746.56 22.72 746.35 21.17 748.14 20.6 748.06 19.22 748.74 16.28 747.99 15.31 748.28 14.54 749.2 14.41 749.02 13.66 749.18 11.88 748.85 10.3 749.6 9.47 750.31 9.26 751.8 9.64 754.14 9.48 755.37 10.05 756.72 10.02 757.87 10.24 760.55 8.69 764.74 6.99 767.93 5.93 769.17 5.22 770.49 5.05 771.91 3.93 772.68 2.4 775.24 1.72 776.59 1.83 777.77 1 778.44 1.34 778.54 3.6 779.05 4.12 778.68 4.76 779.06 5.8 779.07 7.02 779.97 7.62 779.71 8.39 780.53 9.5 781.23 9.82 780.59 10.96 779.82 11.28 778.43 11.24 778.09 12.24 778.49 12.73 779.74 13.19 781.44 12.54 782.32 13.07 783.04 15.63 784.23 16.44 785.15 16.22 786.67 16.29 787.42 16.02 788.85 14.5 790.38 13.83 791.75 13.66 793.03 12.84 795.27 12.33 797.97 11.12 Z"/>
</g>
</svg>