<?xml version="1.0"?>
<svg xmlns="http://www.w3.org/2000/svg" version="1.2" baseProfile="tiny" width="800" height="483" viewBox="0 0 800 483" stroke-linecap="round" stroke-linejoin="round">
<g id="4203154">
<path d="M 672.22 118.03 674.6 122.69 754.72 279.05 755.83 280.5 756.35 280.66 758.34 282.53 758.69 283.66 758.58 284.82 757.84 285.46 755.31 287.04 754.27 288.22 753.39 288.74 752.97 290.41 753.66 292.67 756.22 294.69 756.64 295.92 756.58 300.32 757.75 302.15 757.96 304.13 757.71 304.57 755.7 304.7 753.81 305.37 753.24 306.29 753.41 308.73 751.7 310.17 750.13 312.79 747.24 312.72 745.13 313.52 743.16 315.36 741.87 316.1 740.39 316.6 738.54 318.32 737.47 319.75 736.99 321.05 737.88 322.64 737.91 324.39 736.2 325.76 734.77 327.6 733.02 329.33 731.33 330.55 730.04 330.99 729.63 333.95 728.97 334.91 728.03 338.03 727.46 339.49 726.82 341.99 724.44 342.61 723.41 343.09 722.21 345.03 721.88 346.94 720.8 348.3 720.23 350.01 720.57 351.43 719.04 353.16 718.18 354.54 717.33 355.02 717.33 357.82 716.87 359.77 716.69 361.66 716.78 363.4 717.23 364.85 718.39 365.81 718.94 367.23 718.84 367.71 716.98 370.35 716.8 371.93 715.96 374.09 716.48 379.15 716.21 380.15 716.55 381.52 717.05 382.03 717.54 384.48 717.55 386.08 718.66 387.57 718.75 388.87 720.06 390.96 719.04 396.79 719.73 398.3 719.59 399.45 720.7 400.82 720.76 402.15 722.27 402.65 723.21 403.29 723.92 402.69 726.03 401.57 726.91 401.55 727.63 402.55 727.86 404.31 727.53 405.48 725.92 407.28 725.56 408.26 726.39 410.66 727.16 411.25 727.68 410.05 729.24 410.32 731.92 410.26 733.22 411.43 734 411.71 734.22 412.56 735.14 412.27 736.78 411.31 737.22 411.87 737.48 414.07 739.86 414.94 742.46 415.37 743.6 416.55 744.35 417.76 745.01 418 744.65 418.86 745.35 419.88 745.17 421.31 746.03 422.35 746.67 423.63 747.37 424 748.29 425.12 747.28 425.73 747.61 427.63 749.16 431.76 749.88 432.7 750.86 432.72 750.14 434.89 750.86 436.43 750.48 437.65 751.81 437.69 752.54 438.18 756.04 437.4 757.04 438.37 757.64 440.16 758.55 440.94 760.75 441.35 761.33 442.23 762.03 442.11 762.41 440.5 763.08 439.61 765.17 440.96 766.78 441.12 767.59 441.6 768.8 443.24 771.21 445.2 772.47 445.06 772.45 445.73 773.79 446.67 774.55 448.06 775.28 448.63 776.53 448.55 778.32 449.05 779.1 449.59 780.37 449.97 781.51 450.82 782.81 452.63 785.18 452.82 786.41 453.3 788.14 453.58 789.36 455.9 791.34 456.28 792.58 457.47 792.64 458.28 793.27 458.65 794.27 459.88 795.45 460.07 797.64 461.2 798.92 461.62 799 464.11 797.96 465.93 797.49 467.26 795.71 470.46 795.76 471.43 770.07 482 769.26 481.13 766.23 479.43 765.23 478.37 763.33 477.22 757.95 475.72 753.65 474.94 750.66 475.21 746.72 474.26 744.67 473.26 740.42 472.24 739.51 471.67 738.92 470.54 739.25 469.37 741.61 466.95 742.03 466.1 741.81 465.3 738.63 466.27 736.15 466.02 729.73 462.72 728.72 462.34 725.42 460.32 724.32 459.53 722.51 456.16 720.72 454.14 719.39 453.23 713.67 450.32 709.33 448.79 705.87 448.13 704.2 448.11 701.29 448.59 697.2 450.21 695.99 450.21 694.76 449.88 694.22 448.59 694.52 446.12 694.32 444.43 693.63 443.76 691.63 443.38 690.6 443.64 688.29 445.14 686.64 445.85 683.31 446.61 682.35 445.75 682.15 441.74 682.84 439.29 682.95 437.49 682.77 435.14 681.23 430.52 680.74 427.72 680.77 425.31 681.4 423.55 683.18 421.3 683.5 420.14 683.14 419.19 681.99 418.32 673.63 415.77 670.95 415.03 668.69 414.9 665.48 414.9 662.79 415.06 659.27 414.83 656.82 414.2 655.07 413.44 653.28 411.63 652.05 410.96 649.9 410.96 647 411.51 645.71 412.06 644.18 413.08 643.13 414.45 642.16 415.32 640.65 417.55 639.53 417.62 636.95 416.36 635.77 414.51 635.34 413.12 635.58 412.16 636.83 408.97 637.41 407.89 639.97 404.08 640.83 402.54 641.46 399.85 640.53 397.59 638.49 395.21 635.83 393.95 631.08 390.27 630.24 389.39 626.96 387.15 622.66 383.87 620.18 383.11 618.33 383.45 617.39 383.92 615.23 385.66 612.68 386.63 610.78 386.92 608.68 386.47 606.77 386.47 603.29 385.27 600.4 385.31 599.66 384.87 599.05 383.81 598.48 381.29 598.48 379.51 598.77 378.64 599.75 377.15 600.4 375.2 600.39 374.13 599.96 372.94 599.3 372.23 594.67 368.16 592.62 366.88 590.64 364.83 587.09 360.82 585.57 359.83 583.74 359.34 582.35 358.75 580.85 357.72 580.25 356.97 579.36 356.54 577.84 356.43 574.27 357.21 570.01 357.1 568.32 356.94 567.36 356.43 565.84 354.83 564.25 353.64 561.75 352.53 559.75 351.09 558.58 350.99 555.07 351.16 554.27 351.02 552.2 349.91 550.39 349.57 545.45 347.69 544.13 347.01 543.23 345.89 543.06 344.75 543.42 342.75 543.84 341.91 547.4 340.15 550.57 339.46 553.06 339.21 554.68 338.18 555.61 337.24 557.18 334 557.97 332.78 558.24 331.14 557.7 328.08 557.26 326.39 556.32 324.46 553.53 321.48 552.76 321.03 550.3 316.8 549.82 315.04 549.67 312.99 548.68 310.59 547.78 309.7 546.41 309.21 539.64 308.76 536.72 309.22 535.12 310.14 533.98 310.53 531.87 310.77 529.53 312.15 527.52 314.02 525.91 314.64 524.93 314.64 521.26 313.77 516.66 313.39 514.89 312.73 514.53 311.73 513.5 305.9 512.8 303.14 513.25 300.64 514.16 298.86 514.24 297.52 513.89 296.58 513.17 296 511.61 295.72 508.39 295.89 506.57 296.54 505.07 296.75 502.86 296.51 501.7 295.72 501.14 293.11 501.52 292.17 502.98 289.84 503.78 287.81 503.63 286.99 502.28 286.28 501.08 286.48 498.02 287.75 496.51 288.02 494.4 287.99 492.56 287.35 488.42 285.58 486.69 285.22 484.78 285.38 478.43 285.57 476.03 285.87 474.01 286.74 472.38 288.03 470.29 292.74 469.23 294.03 467.24 294.49 465.5 294.45 463.75 293.62 462.83 292.06 462.67 290.12 463.19 288.01 463.28 286.62 463.1 284.26 462.67 282.14 462 280.92 460.73 280.12 459.02 279.79 456.93 280.41 454.28 280.43 452.64 281.59 451.08 281.77 447.55 281.42 445.12 281.75 444.55 282.22 441.63 282.32 440.32 281.76 439.31 281.67 437.12 282.1 435.42 283.03 434.07 283.43 431.29 284.95 430.61 284.15 428.57 282.99 427.64 282.79 426.09 283.26 425.07 283.82 423.43 285.35 421.12 285.92 420.4 286.47 418.35 287.27 417.01 287.6 415.94 289.24 411.86 291.87 409.29 293.93 407.01 295.4 405.02 296.45 401.84 298.38 399.31 300.17 398.84 300.73 397.14 301.32 396.64 301.94 394.25 303.73 393.36 304.19 391.47 304.44 390.88 304.8 390.16 306.22 388.69 307.17 386.98 308.84 385.3 309.97 383.33 310.93 382.61 311.02 381.62 312 380.61 312.38 379.69 313.13 378.63 313.17 374.64 315.54 374.61 316.86 375.08 318.14 374.21 318.9 374.37 320.22 373.78 321.18 373.82 322.59 372.82 323.77 373.35 324.69 373.33 325.94 372.4 328.56 371.6 329.64 371.77 330.78 370.35 331.92 368.75 332.69 367.2 332.92 366.14 332.29 365.59 331.56 364.5 332 364.05 332.69 363.28 332.81 361.25 331.8 359.33 332.63 357.32 334.75 353.49 334.89 352.96 335.28 352.67 337.56 352.39 338.44 351.53 339.44 348.36 340.18 347.62 339.77 345.69 339.93 345.11 340.43 345.5 343.43 345.99 344.4 346.98 347.15 345.53 347.77 344.78 348.36 344.29 347.92 340.64 348.22 339 349.12 337.46 350.5 335.27 353.05 334.65 356.79 332.7 359.22 330.88 362.07 328.71 362.89 328.33 363.89 326.87 364.16 325.12 361.73 322.9 360.76 321.11 359.55 320.09 359.54 318.62 360.01 317.14 360.93 315.21 360.88 312.09 359.78 310.26 358.71 306.86 358.14 305.69 358.64 302.67 358.65 300.59 356.8 299.25 356.53 298.81 355.53 297.25 355.03 294.9 355.39 293.08 355.44 292.73 356.38 291.88 356.82 289.62 356.8 286.25 356.19 284.53 356.34 282.69 355.5 281.41 355.56 280.08 356.08 278.23 356.03 275.06 356.33 272.71 355.91 271.67 355.96 270.88 355.04 269.87 354.93 267.62 355.25 265.39 355.84 263.94 355.06 261.94 355.14 260.2 354.47 258.49 354.66 254.62 355.64 253.4 356.25 251.77 356.24 248.97 355.3 246.22 355.93 245.37 356.68 245.37 360.77 245.73 362.45 245.15 363.15 243.64 363.17 243.15 364.08 243.8 366.22 243.51 367.59 242.92 368.67 241.88 369.71 240.17 370.68 238.78 370.02 237.98 370.39 235.87 370.03 235.07 369.22 233.92 368.67 231.78 368.46 230.54 369.01 228.8 369.15 227.96 368.92 223.99 369.17 222.73 368.56 222.04 368.98 221.33 370.44 220.46 371.13 220.15 372.8 219.69 373.18 217.53 373.81 215.55 375.25 213.88 375.71 213.42 376.28 212.04 376.53 208.55 376.54 207.98 376.8 206.09 376.87 204.57 376.15 201.05 376.51 198.93 376.53 197.28 376.04 195.23 376 191.29 377.72 190.11 375.82 190.12 374.65 191.24 371.35 191.34 370.46 190.93 367.25 190.03 367.14 188 368.55 184.6 369.21 182.89 368.8 180.64 367.05 177.45 366.48 174.3 365.53 170.97 363.92 169.11 363.4 165.9 362.82 164.79 362.16 163.93 361.21 162.78 358.74 161.85 357.36 159.11 354.77 158.03 352.88 157.61 351.32 157.51 350.03 156.79 348.41 155.75 347.25 153.01 345.95 151.7 344.61 147.04 341.97 146.44 341.05 146.56 339.05 146.95 337.76 146.88 336.46 146.52 335.89 143.99 333.44 143.2 333.2 141.51 333.5 138.6 334.24 135.31 334.41 133.01 333.59 132.11 333.06 130.19 331.23 125.03 327.95 124.1 327.2 123.2 325.63 122.9 324.16 121.73 323.65 119.77 325.48 117.97 326.9 114.76 330.68 113.67 331.53 111.15 332.93 109.22 333.59 106.07 334.24 105.33 334.23 104.06 333.23 102.75 332.67 101.38 331.38 100.22 329.26 98.63 327.89 96.07 327.31 94.55 326.65 91.37 324.98 90.25 323.54 90.61 321.84 91.7 320.6 92.04 318.49 92.03 316.99 90.41 314.71 89.39 313.96 87.39 313.38 85.59 312.35 85.13 311.83 84.65 310.37 83.78 309.57 82.73 307.62 82.2 307.61 80.81 308.56 80 308.65 77.89 310.62 75.35 312.08 74.16 312.94 72.1 313.09 70.79 314.58 71.18 317.19 69.23 319.38 67.72 320.23 66.04 320.62 64.29 320.76 61.67 320.25 59.08 320.18 58.1 320.82 56.54 320.75 54.92 321.11 52.65 320.83 51.68 321.39 49.51 321.28 48.28 321.96 47.49 321.93 46.28 321.4 44.17 321.32 41.57 320.23 39.94 320.34 38.83 321.41 38.35 323.66 37.3 324.27 36.24 324.5 35.1 324.32 33.45 322.66 31.56 321.98 29.29 321.75 26.95 320.69 26.29 319.06 22.85 318.5 21.64 317.24 19.56 316.94 19.33 315.61 17.59 312.93 17.49 311.67 15.17 310.55 15.3 309.7 14.78 308.92 14.11 308.82 13.04 307.23 13.61 305.53 14.05 303.42 13.43 301.41 14.09 300.68 14.39 299.31 15.17 298.17 15.64 296.79 15.02 294.78 15.6 294.04 15.61 293.15 14.96 291.99 15.73 289.56 14.96 288.84 15.32 285.94 16.6 284.17 17.06 282.33 16.67 281.06 17.06 278.97 16.58 277.47 16.65 276.5 15.83 274.79 14.9 273.66 14.83 272.19 14.28 271.7 12.88 271.65 12.12 271.23 11.38 270.02 11.64 269.26 10.76 268.56 10.42 267.54 8.97 267.15 7.91 267.25 7.44 266.34 6.1 265.8 3.52 265.21 2.93 263.3 3.59 262.43 2.46 261.15 1.72 259.92 1.59 258.2 1.2 257.33 1.24 255.62 1 254.64 3.16 254.58 4.59 253.81 4.35 253.31 4.5 251.29 5.21 250.45 5.15 249.06 3.64 249.3 4.4 248.32 4.08 247.14 5.1 246 3.75 243.46 4.2 242.52 4.77 242.58 6.22 241.78 5.61 241.18 5.5 240.14 4.39 239.31 3.15 238.93 1.78 237.89 2.09 235.8 2.14 234.83 3.27 234.08 5.3 232.21 6.85 230.22 7.53 227.79 7.45 226.23 6.76 225.33 5.34 224.79 4.4 223.16 4.51 221.36 4.86 220.65 5.59 220.57 7.65 220.96 8.35 220.68 10.34 220.59 11.19 220.33 12.1 219.19 11.79 216.65 11.12 215.62 10.73 213.57 11.11 212.16 11.92 212.15 15.22 214.55 17.05 215.5 18.96 216.13 20.01 216.04 21.01 215.59 22.24 214.52 22.67 213.7 21.04 212.12 19.33 211.71 16.87 210.43 12.83 206.77 10.39 203.58 7.45 201.96 5.71 200.84 4.48 198.7 3.77 196.81 3.87 195.88 4.49 195.1 6.6 194.36 11.07 193.83 11.97 193.55 13.48 191.53 13.58 190.35 12.54 189.13 12.62 188.54 13.86 187.94 15.13 187.74 15.97 186.99 17.07 184.9 19.48 181.56 21.1 179.55 22.87 178.85 24.77 178.93 27.21 177.6 29.76 177.11 31.48 176.06 51.26 182.89 53.52 182.9 55.9 183.23 57.04 183.72 58.01 183.79 60.77 183.5 61.47 183.16 62.85 183.1 64.41 183.57 65.84 184.67 68.1 185.11 68.72 185.81 68.55 186.86 69.07 189.19 68.76 190.71 68.98 193.41 68.62 195.34 68.8 196.45 69.94 199.04 70.95 199.45 74.06 199.74 77.61 199.44 80.57 198.89 81.04 198.62 82.13 195.24 83.18 194.07 84.79 194.58 85.78 194.08 86.87 193.08 90.75 190.72 91.19 189.42 91.83 188.6 92.25 187.28 93.45 186.26 95.1 184.43 95.89 183.32 95.86 179.24 96.42 178.23 97.57 177.58 98.08 176.9 98.58 175.38 99.78 173.7 105.13 174.06 106.79 174.87 108.87 176.92 109.51 177.87 110.51 180.21 112.02 182.26 112.56 183.37 113.05 185.35 114.23 187.54 115.43 189.09 116.68 189.95 119.28 190.11 120.59 189.77 121.68 188.36 123.19 187.43 124.61 187.35 125.48 188.15 127.49 188.89 128.52 189.75 133.11 190.56 134.25 190.31 135.44 189.42 137.71 189.36 141.49 189.58 142.67 189.36 144.45 188.15 146.76 187.84 147.9 188.65 148.39 189.74 149.26 190.77 149.54 192.38 150.29 193.49 150.95 193.69 152.31 193.5 155.51 193.39 157.93 193.7 160.71 194.33 163.72 193.08 165.23 191.66 167.61 190.49 168.72 190.28 169.81 190.49 171.7 190.02 172.18 189.04 172.04 188.1 173.25 186.79 174.04 184.93 175.17 184.27 175.52 183.27 175.56 180.92 176.22 178.29 177.01 177.3 178.09 174.81 177.8 173.83 174.47 169.51 174.32 168.59 174.69 167.27 175.24 166.79 177.29 166.17 178.62 165.45 180.01 165.53 182.18 166.23 184.24 166.34 179.74 129.76 199.46 112.84 200.58 114.41 201.36 115.03 202.88 114.82 204.04 114.98 205.43 113.84 206.4 113.34 208.25 113.72 209.74 114.38 210.57 115.18 212.54 116.47 213.54 117.35 214.63 117.6 217.19 117.12 218.8 117.55 222.96 120.11 225.16 120.49 226.62 121.47 227.5 123.92 228.59 125.73 230.61 127.94 231.52 128.22 232.84 128 235.85 126.86 236.65 126.26 237.92 124.47 238.28 123.44 237.89 121.08 237.83 118.39 237.06 116.86 236.03 115.85 235.54 114.42 236.53 112.59 238.37 108.17 240.08 105.91 240.93 104.1 241.31 101.79 242.19 100.36 243.33 97.99 243.31 95.16 243.72 93.81 245.12 92.99 247.33 92.73 251.22 91.96 252.24 91.5 253.79 90.33 254.35 89.59 254.78 87.48 256.16 85.25 256.13 84.56 255.45 84 253.47 83.49 250.4 82.45 249.05 81.75 270.67 66.37 287.6 37.57 330.86 25.16 330.89 25.8 330.28 26.73 328.82 27.71 328.34 28.72 328.45 29.64 329.31 30.62 330.01 32.23 330.53 32.48 332.2 32.21 335.93 34.34 336.38 35.37 337.49 35.94 339.51 36.31 341.04 35.29 342.73 34.73 343.1 34.37 347.05 32.06 349.14 31.73 349.62 30.92 349.81 29.26 349.68 28.15 350.2 27.21 352.9 23.94 353.64 23.54 355.1 23.38 356.37 21.96 357.05 21.77 358.36 22.25 360.09 21.62 363.11 19.83 365.56 18.92 366.68 18.94 368.65 18.35 369.57 18.36 370.48 17.83 371.36 16.57 372.52 16.52 374.23 15.49 375.24 14.29 378.11 11.45 379.44 11.1 380.17 10.13 381.64 10.92 382.49 11.06 385.43 10.33 386.35 9.81 386.5 8.18 386.98 7.11 387.96 6.52 391.14 5.46 398.34 2.42 401.34 1.94 403.28 1 403.65 1.02 404.61 3.68 405.19 3.09 406.42 3.58 409.25 3.57 409.35 4.33 410.26 5.71 411.09 5.58 411.95 6.18 410.95 7.45 411.65 8.69 412.78 9.2 415.03 9.23 415.61 9.71 415.57 10.83 417.09 12.21 417.86 12.57 418.77 13.79 418.88 14.54 419.62 15.27 419.96 16.36 421.65 17.99 422.86 18 424.17 20.16 425.62 21.92 428.19 23.66 429.91 24.53 430.52 25.47 432.5 25.38 434.47 26.61 436.43 26.5 437.59 27.05 440.32 27.22 441.47 27.95 442.25 27.97 444.24 27.08 446.6 27.3 447.8 29.03 449.25 28.91 450.29 29.39 450.1 31.22 451.41 32.2 451.79 33.32 451.64 34.11 452.51 35.05 452.94 36.15 453.16 38.35 452.58 38.99 452.47 40.81 453.52 41.79 454.88 42.49 455.78 42.06 456.78 42.69 457.45 43.66 459.45 44.02 459.92 43.8 461.33 44.66 462.2 44.09 463.36 43.77 464.2 44.68 466.89 44.1 468.35 45.71 468.08 47.78 468.25 48.81 468.8 49.52 469.38 52.14 469.91 52.4 471.66 52.5 472.51 53.07 475.16 54.14 477.78 56.03 487.41 51.28 488.27 52.98 488.42 53.95 488.45 57.45 487.57 59.34 488.32 60.49 488.39 62.09 490.74 64 492.19 64.81 493.48 64.8 494.87 65.71 495.14 66.74 496.44 68.1 496.95 69.78 498.39 71.27 498.56 71.96 497.29 73.44 497.94 75.73 498.99 77.47 499.86 78.28 501.83 79.62 502.28 80.73 503.74 82.67 504.02 83.78 504.73 85.06 504.36 87.55 504.75 89.97 506.17 90.64 506.4 91.22 509.19 92.73 509.72 93.31 511.36 94.17 513.07 94.7 514.06 95.27 515.8 97.19 517.06 97.33 517.56 97.79 518.42 97.55 518.71 96.64 519.54 96.61 520.04 97.58 520.06 99 520.87 99.97 522.68 100.14 524.01 100.79 524.57 100.5 528.05 101.69 529.56 101.67 531.58 100.96 533.98 99.81 534.83 99.74 536.47 100.26 540.25 100.34 541.13 99.98 543.42 100.94 544.17 101.89 547.16 102.91 549.72 103.09 551.73 103.54 552.92 104.04 556.11 103.72 558.18 104.01 559.48 103.1 559.39 102.16 559.82 100.75 561.63 99.76 561.67 98.78 562.46 98.22 562.64 97.3 563.57 97.42 564.07 96.82 565.15 97.27 566.68 97.37 566.09 96.55 566.09 94.9 565.75 93.98 566.23 92.81 568.08 91.09 568.08 92.86 569.13 93.96 571.17 95.33 571.24 95.84 572.61 96.61 574.44 97.96 575.08 98.01 576.43 97.13 579.21 97.21 580.18 96.74 581.61 96.46 582.9 96.75 583.66 97.36 584.78 97.27 585.33 98.44 585.18 99.83 586.83 101.96 589.16 103.33 589.82 104.14 588.25 105.11 587.63 106.28 587.58 107.1 590.75 108.83 591.16 110.58 591.92 110.71 594.75 110.41 599.01 110.19 600.02 109.9 602.2 110.11 603.4 109.89 605.71 109.12 607.69 109.45 611.09 109.05 614.63 107.63 672.22 118.03 Z"/>
</g>
</svg>