<?xml version="1.0"?>
<svg xmlns="http://www.w3.org/2000/svg" version="1.2" baseProfile="tiny" width="800" height="979" viewBox="0 0 800 979" stroke-linecap="round" stroke-linejoin="round">
<g id="4203402">
<path d="M 723.79 258.89 723.56 260.65 722.62 262.78 721.47 263.86 721.12 264.82 721.38 266.28 722.36 268.41 721.47 270.46 720.5 271.43 717.98 272 717.11 272.59 715.41 274.88 714.22 276.12 713.75 278.83 712.5 281.27 712.76 283.5 713.24 284.17 715 284.71 716.72 285.72 718.02 287.29 718.95 289.78 721.27 294.16 723.34 296.5 724.97 297.71 726.25 297.9 728.96 297.04 730.27 295.95 730.31 294.66 731.47 293.55 735.46 292.8 738.65 291.42 740.37 290.24 742.34 290.16 747.83 292.74 748.08 293.97 747.99 297.79 746.61 302.06 746.52 302.93 747.05 304.39 745.79 305.11 738.89 307.23 737.2 308.22 735.67 308.34 734.26 309.94 733.82 310.94 733.92 313.15 734.38 314.74 738.84 317.39 740.03 318.53 740.43 320.51 739.84 321.15 737.15 322.63 734.88 323.32 735.79 325.2 735.66 328.53 736.53 330.03 737.93 331.36 738.29 332.14 738.02 333.73 736.98 334.96 736.46 336.44 735 338.5 734.8 340.21 731.56 342.83 729.17 345.42 727.41 346.93 724.2 348.87 723.14 349.77 722.85 350.83 722.77 353.97 722.5 355.3 723.99 356.12 725.79 355.42 727.69 353.28 728.58 354.6 729.73 356.95 730.58 357.94 733.42 357.44 734.59 354.64 733.78 353.08 735.14 352.31 736.61 352.26 739.03 353.66 740.66 354.03 744.16 353.15 748.69 352.44 753.65 350.15 754.78 350.03 756.55 350.55 758.2 351.58 760.8 352.65 762.16 352.46 763 351.14 765.47 349.46 768.53 347.12 773.54 343.68 774.14 343.71 776.7 346.55 776.74 347.39 775.83 348.43 774.01 349.78 771.24 351.01 768.74 351.81 767.38 352.49 765.51 354.7 764.87 356.87 764.76 359.3 763.99 360.93 762.63 361.49 757.4 362.44 754.78 362.69 752.35 363.39 750.65 364.82 749.84 366.51 750.9 368.13 756.38 371.21 757.83 372.37 759.58 374.35 761.5 376.89 762.96 378.11 766.79 379.51 768.69 378.57 771.6 378.4 773.81 377.98 775.37 378.25 777.4 379.67 778.03 380.87 777.92 382.69 776.66 385.5 774.45 387.09 772.37 387.42 769.03 388.24 766.74 388.63 765.29 389.23 762.37 389.72 760.97 390.81 760.04 390.96 756.89 390.46 757.09 388.85 755.95 388.24 753.97 386.5 752.75 386.24 750.46 386.85 750.07 389.04 750.38 391.4 751.64 393.87 752.59 395.05 752.69 396.98 751.89 398.18 750.31 398.52 748.67 400.4 748.35 401.82 748.24 404.43 747.22 407.47 745.87 409 743.01 410.57 743.41 412.08 745.85 412.34 747.5 412.79 749.74 414.23 750.68 414.36 753.32 413.76 757.82 414.31 762.84 419.07 764.35 420.29 767.52 421.75 770.53 422.9 772.03 423.05 773.7 423.74 777.15 423.42 778.66 421.93 782.91 421.61 784.36 421.3 785.95 421.52 786.64 422.64 786.81 425.72 785.98 427.87 786.97 429.24 789.97 431.07 790.11 432.03 789.59 433.76 787.91 437.57 786.08 440.79 785.6 444.16 784.78 448.49 783.54 449.33 780.2 448.62 777.33 449.96 775.27 452.12 775.2 453.09 774.36 453.77 773.21 453.7 770.09 454.7 768.81 456.75 768.94 458.69 768.44 459.32 765.99 459.23 765.59 459.5 766.99 461.82 767.83 462.48 769.96 462.35 770.76 463.51 773.22 464.36 776.28 464.23 777.41 463.2 778.26 463.26 780.59 464.44 782.3 463.85 786.11 465.41 787.46 467.17 786.82 469.02 786.1 469.27 785.46 471.54 786.59 472.88 787.36 472.92 789.99 474.44 791.08 475.72 792.17 477.8 793.35 477.57 795.51 478.62 795.89 479.32 795.19 480.18 791.77 482.07 790.33 482.07 788.98 484.5 788.95 485.14 787.89 486.03 785.83 486.43 785.35 486.86 784.71 489.18 784.55 490.97 785.23 494.92 786.59 496.98 789.11 497.99 790.63 497.93 790.77 498.8 793.08 501.43 795.03 502.98 794.61 505.12 793.25 506.42 795.13 509.32 796.15 510.05 797.33 511.89 798.57 513.52 798.35 514.38 796.48 516.82 795.6 518.45 798.15 519.82 799 520.89 797.58 521.29 797.72 523 797.05 523.41 796.73 525.62 795.05 526.01 792.85 525.62 790.93 525.94 789.64 526.53 789.5 527.16 792.6 527.79 791.53 530.5 791.77 531.6 791.01 532.01 788.39 532.26 786.49 532.79 785.39 532.7 784.73 533.67 785.05 537.13 783.88 538.59 782.76 538.86 780.88 537.81 779.3 538.18 776.56 539.55 775.48 541.34 774.28 541.27 773.19 541.78 773 540.59 772.16 539.92 770.15 543.35 770.28 544.63 769.45 546.26 769.62 548.36 767.5 549.57 767.35 550.79 766.09 551.71 766.11 552.4 764.66 554.78 765.03 555.32 764.05 557.15 764.96 557.44 764.52 559.17 765.65 561.39 767.23 563.61 767.66 565.19 767.71 567.73 766.42 568.01 765.24 567.57 764.6 566.73 762.58 566.66 761.59 568.51 760.02 570.5 758.49 570.9 759.58 572.21 761.06 575.46 760.83 577.33 762.19 579.77 762.51 581.45 761.71 583.63 761.85 585.05 763.93 586.1 764.27 588.78 761.52 591.29 759.95 591.18 758.98 590.32 756.94 592.57 755.25 593.47 752.85 596.04 752.36 597.96 750.54 598.92 748.58 599.09 747.15 602.13 748.05 602.83 747.87 603.77 746.66 604.48 746.31 605.41 746.06 608.72 745.8 609.71 744.45 612.33 743.4 613.6 742.21 614.02 740.21 617.17 739.64 618.93 739.33 621.82 737.38 622.49 738.09 624.52 737.98 625.47 734.99 628.17 733.17 630.79 729.96 633.44 728.03 634.19 727.24 636.14 724.18 637.94 723.33 638.18 720.97 639.78 717.06 641.79 716.24 642.61 712.77 645.15 712.76 646.39 714.82 648.55 714.88 650.25 713.93 653.17 712.99 654.89 711.8 655.88 711.29 657 709.33 660.02 707.23 661.18 707.36 662.18 705.84 663.13 703.93 666.54 704.66 669.1 704.86 671.15 705.54 672.56 706.41 675.33 707.37 676.48 707.08 677.97 707.47 681.2 708.46 682.84 709.34 683.56 708.81 685.88 706.79 687.64 705.53 688.46 703.37 691.35 702.53 692.74 703.08 693.44 703.32 695.1 703 695.76 703.62 697.75 717.24 698.59 717.94 698.14 723.01 698.62 724.56 699.47 725.57 700.91 727.33 701.58 730.14 701.05 730.95 700.57 733.19 700.98 735.2 702.73 737.03 703.16 738.2 704.06 739.57 706.06 741.47 706.73 742.25 707.35 744.27 707.68 745.18 709.85 746.12 710.22 745.99 711.9 747.03 713 750 712.78 750.84 713.71 752.2 714.35 753.67 715.85 755.35 716.85 755.48 718.04 756.42 718.91 755.6 722.73 754.7 725.9 755.46 727.84 755.2 728.86 755.06 731.59 752.87 734.92 750.71 736.9 750.57 737.74 751.56 738.52 751.89 739.58 750.32 742.14 749.69 745.73 750.14 747.86 748.8 748.88 749.12 751.91 746.84 754.03 745.8 755.35 745.93 756.24 747.55 758.46 747.34 759.72 745.37 761.04 742.81 761.1 740.93 761.83 738.54 761.76 737.98 762.32 735.41 763.06 734.14 762.66 732.96 762.82 732.71 763.68 733.23 764.74 732.7 766.74 733.06 769.37 732.11 771.21 730.62 770.73 729.82 769.4 728.64 769.14 726.66 770.65 725.07 770.95 724.05 771.73 725.23 773.33 724.25 773.65 722.87 772.87 720.95 770.43 720.15 769.97 719.16 770.23 715.98 772.9 713.58 774.07 713.09 776.62 713.88 777.88 715.75 778.57 716.6 780.32 715.81 780.78 717.12 782.52 718.73 783.86 719.28 784.88 721.49 785.95 724.85 786.47 725.96 786.99 727.55 788.32 728.48 789.74 728.69 791.78 727.27 791.84 723.38 794.9 720.76 794.67 717.35 796.03 717.58 797.95 718.03 798.48 718.55 800.9 716.65 801.56 718.62 802.22 719.57 802.88 721.22 804.68 722.31 804.9 723.56 805.94 723.76 808.1 722.3 809.04 722.4 809.87 721.31 810.52 718.25 810.47 716.07 811.45 714.3 811.38 711.46 810.3 707.78 808.23 705.93 808.3 705.27 808.98 704.81 811.03 703.06 813.99 703.4 817.04 703.02 822.77 701.97 823.81 697.13 826.87 696.64 827.6 696.36 830.82 696.09 831.42 693.61 832.86 693.19 833.89 693.5 835.81 692.9 836.9 691.29 838.33 689.4 838.5 686.07 836.82 683.19 836.68 680.46 837.87 679.22 838.75 677.66 839.36 673.51 840.32 670.95 840.27 668.05 840.63 665.79 841.22 665.22 842.08 665.41 844.8 665.99 845.9 667.82 847.03 669.55 849.6 669.76 850.94 670.51 851.62 670.85 852.95 670.29 854.28 669.07 854.27 667.82 853.44 665.29 852.96 662.25 851.55 659.91 849.05 658.74 848.76 657.61 849.56 656.88 850.77 656.29 853.55 656.61 854.89 657.35 855.59 657.87 858.09 657.4 859.14 653.79 860.77 651.35 859.67 649.46 860.08 648.14 859.7 647.9 858.1 649.39 856.85 648.39 855.53 644.22 853.5 641.72 852 641.54 851.22 640.21 850.21 637.07 848.81 635.77 847.85 634.57 847.91 633.75 848.77 632.77 851.45 632.94 856.03 633.21 857.7 631.8 858.95 630.71 858.81 628.11 859.03 626.66 859.74 624.97 861.59 623.87 864.55 624.13 866.33 625.21 868.39 625.66 869.9 625.11 870.5 622.62 870.32 621.13 869.27 617.21 866.06 615.33 864.77 614.79 864 612.68 863.61 611.28 862.2 608.12 858.25 603.88 856.09 602.46 855.95 600.52 856.41 599.99 857.33 596.26 860.42 595.26 862.63 595.5 863.97 595.24 865.98 593.96 868.57 593.87 870.25 593.02 870.94 591.85 870.95 589.92 869.6 589.8 867.27 589.34 864.61 588.57 863.16 587.63 862.37 586.21 862.42 583.85 862.06 581.66 861.42 578.24 860.01 576.44 859.83 573.14 860.28 570.89 861.23 569.8 862.1 569.6 863.08 570.14 865.01 571 866.81 571.9 868 572.73 870.31 572.71 871.35 572 872.82 571.07 873.21 566.89 876.03 566.06 876.78 562.05 878.27 559.99 880.07 558.07 884.3 554.93 885.24 551.91 885.07 548.35 883.24 546.75 882.91 545.17 884.25 543.08 885.62 542.54 888.38 542.94 890.22 544 892.4 546.21 894.85 546.45 896.5 545.19 897.18 542.66 897.24 540.65 896.51 538.9 895.48 536.7 893.53 535.73 892.18 535.6 890.85 534.12 887.26 533.88 885.92 534.29 883.86 533.6 883.35 530.04 883.7 528.13 884.32 525.22 886.46 524.84 887.95 527.35 890.41 528.03 891.32 528.19 892.53 527.57 894.38 526.65 895.37 524.73 895.79 523.36 897.25 522.89 899.36 521.87 901.21 520.51 902.31 519.24 902.66 517.31 902.52 514.72 901.23 513.03 900.14 511.52 899.94 508.34 900.42 504.7 901.2 502.72 901.11 499.49 900.37 494.05 897.97 492.88 897.95 490.42 898.5 489.35 899.01 489.36 900.21 491.15 902.5 494.9 905.43 496.48 906.41 497.13 907.46 497.1 912.26 497.8 914.16 499.65 917.9 500.97 923.26 502.52 927.72 503.4 931.06 504.26 932.97 505.91 933.89 507.73 933.81 510.43 932.51 512.76 930.12 513.65 928.5 514.07 926.85 515.74 924.29 519.71 922.95 522.05 922.61 523.3 922.8 525.34 923.79 526.47 925.01 527.21 928.08 527.84 932.16 530.48 936.69 530.54 938.29 530.02 939.34 528.98 940.03 527.54 940.37 523.97 939.68 522.19 939.59 517.23 941.85 513.74 943.13 510.55 944.76 507.36 946.01 505.51 945.96 504.62 946.39 503.72 947.85 501.09 949.68 500.23 950.71 500.12 951.66 500.96 953.85 501.11 955.88 500.82 957.29 499.06 958.38 496.02 958.08 494.47 957.29 492.87 954.7 490.9 952.18 489.44 950.76 488.14 948.86 487.01 946.54 482.34 940.9 480.21 939.27 476.95 937.84 476.15 937.68 472.85 937.99 471.25 938.46 468.55 939.68 466.28 941.52 462.2 943.59 460.78 943.14 457.66 941.11 457.14 940.25 457.24 938.57 456.91 937.34 454.07 936.09 452.93 935.07 452.91 931.62 452.33 930.14 451.17 929.11 448.65 928.45 443.65 928.67 441.28 928.29 437.87 928.04 432.86 928.16 427.98 927.25 426.74 925.69 428.07 920.29 427.9 917.28 426.83 914.19 426.38 913.8 423.57 913.28 421.11 912.11 419.8 911.81 416.17 913.48 414.12 913.64 412.36 913.06 409.46 914.11 407.2 914.48 405.02 914.54 403.86 913.43 403.8 911.18 402.7 907.79 401.88 906.15 399.67 902.73 397.32 900.75 394.64 900.14 393.01 900.23 389.7 900.04 387.53 903.15 385.59 904.56 382.65 905.69 380.11 914.34 380.05 917.48 380.94 921.93 380.39 923.53 378.77 924.74 378.17 927.1 378.47 930.54 378.92 932.78 378.41 935.63 377.67 936.83 375.84 937.88 373.49 938.26 369.62 938.07 364.93 937.42 363.08 937.48 360.69 938.68 358.54 940.59 358.07 941.53 358.18 943.58 359.33 944.84 360.89 948.16 363.86 952.4 365.4 954.85 366.65 956.02 368.74 957.29 369.74 958.36 371.04 960.51 371.64 962.65 371.23 966.17 370.79 966.85 369.54 967.41 366.5 967.72 362.73 967.38 361.38 968.02 358.46 970.24 357.14 970.61 355.53 970.1 353.88 968.48 351.68 967.99 350.26 968.35 348.6 969.24 346.52 969.49 344.02 968.36 342.17 966.89 340.26 964.41 339.09 961.76 337.98 957.89 336.33 955.79 334.98 955.5 332.53 955.92 330.98 956.66 328.42 957.38 324.65 957.96 321.73 958.78 320.36 959.39 319.23 960.92 319.19 962.51 320.53 965.79 320.75 967.73 320.35 969.12 319.41 970.91 317.19 974.43 315.03 977.1 313.43 978 311.31 977.96 309.32 977.03 305.35 973.73 303.16 971.16 302.18 969.71 301.69 967.37 301.16 963.55 300.29 962.52 297.98 961.28 295.51 960.62 292.77 961.04 289.76 960.85 288.03 960.12 280.82 954.29 279.58 953.82 278.29 954.1 276.89 956.09 276.63 958.63 275.65 960.97 274.31 962.5 272.16 963.52 267.72 964.78 265.34 965 261.72 964.41 260.35 963.94 257.28 962.28 253.22 960.28 250.69 958.7 248.7 957.85 247.06 957.51 244.21 956.52 242.49 956.21 236.37 956.18 233.5 955.99 231.45 955.33 227.6 954.43 223.18 952.97 221.02 952.52 220.93 956.52 220.65 954.16 217.84 949.47 213.77 945.09 209.6 940.12 204.3 934.1 201.24 930.88 197.49 925.45 193.84 920.91 190.2 917.28 184.52 913.53 179.71 911.11 174.41 909.68 167.81 906.47 162.07 904.44 157.1 902.25 151.11 900.08 143.94 898.6 137.55 897.62 133.54 897.15 125.96 896.5 121.78 895.5 118.6 893.96 116.59 890.63 117.03 886.87 118.84 882.79 121.47 877.79 123.79 874.01 124.23 869.72 122.72 865.98 119.5 862.05 112.01 856.74 109.57 853.24 108.72 848.29 109.36 845.8 110.66 842.26 112.23 839.46 113.95 835.83 115.42 832.13 117.4 828.49 118.61 824.87 118.75 817.8 118.07 812.92 117.04 807.9 113.39 803.07 108.5 800.81 102.35 799.24 97 799.08 92.76 799.81 87.59 801.01 82.24 801.53 76.7 800.78 67.82 798.49 63.11 796.15 59.82 793.11 56.21 790.38 52 787.81 42.96 783.12 36.29 780.58 27.65 777.69 21.49 775.51 16.27 773.48 11.22 771.22 4.08 765.9 2.5 762.84 1 757.87 1.42 756.11 8.82 754.69 10.33 754.65 12.79 753.56 14.07 752.1 15.75 751.14 18.54 750.53 19.03 750.2 21.24 750.66 23.16 750.37 24.15 751 26.59 751.26 29.23 750.44 32.37 750.06 34.43 750.6 36.8 750.79 38.8 750.45 39.68 749.99 40.47 748.82 40.68 745.81 41.55 742.03 41.54 740.66 39.67 736.81 38.25 734.22 37.9 732.26 38.01 730.3 38.65 728.96 41.49 727.54 45.16 726.6 47.7 725.11 49.58 723.53 50.92 722.72 52.52 722.43 60.36 722.48 62.37 722.38 68.8 722.39 72.06 722.98 74.88 722.09 78.89 720.42 80.97 720.11 86.53 720.38 88.61 719.81 91.38 720.72 93.19 720.67 93.72 718.18 93.57 716 92.97 713.62 93.95 713.04 95.8 713.41 97.07 714.65 101.63 716.14 104.88 717.57 107.77 718.57 109.36 718.16 111.96 716.12 111.73 715.06 109.5 711.5 107.7 707.84 105.44 704.24 105.68 702.74 106.65 702.52 108.31 703.1 110.45 703.48 111.75 703.38 115.92 701.26 118.15 698.4 119.67 697.08 121.45 694.01 120.88 692.54 118.18 691.38 117.45 690.58 116.99 688.77 116.13 687.72 115.4 686.01 114.54 684.92 114.54 683.98 115.82 682.83 118.24 682.69 118.8 682.24 118.86 680.91 117.8 678.37 116.32 677.44 116.01 676.33 116.62 673.29 115.83 672.23 113.39 671.66 109.72 670.15 109.2 668.83 110.32 663.6 111.77 662.28 112.73 662.19 115.87 662.56 117.34 662.27 119.78 661.22 121.03 660.44 123.99 659.21 126.02 657.79 127.53 656.32 128.32 654.99 128.6 652.75 127.84 652.15 128.05 650.5 130.85 649.95 131.76 649.05 131.48 647.15 132.41 645.77 138.88 647.2 139.83 648.27 141.57 649.21 143.7 649.7 145.6 650.77 147.47 650.54 148.09 649.39 149.1 649.29 149.71 648.16 149.6 646.6 151.08 645.74 152.06 645.89 152.83 647.33 154.53 648.06 154.9 649.23 155.73 650.28 158.32 650.78 158.88 650.36 161.23 649.67 161.73 648.76 165.44 648.49 166.91 646.75 169.67 645.1 171.75 645.27 172.71 645.06 173.23 644.19 174.51 644.19 175.76 645.37 179.36 647.11 180.69 646.36 181.42 646.72 184.23 645.77 185 646.45 186.58 647.07 188.42 646.06 188.99 644.68 189.69 644.5 190.16 642.27 189.27 641.59 189.1 640.73 188.16 639.54 187.75 638.01 188.74 635.79 188.86 633.83 188.57 632.94 189.87 631.52 188.73 631.05 188.17 629.85 186.26 628.91 186.09 628.16 186.95 626.75 186.85 625.9 189.46 624.2 190.64 624.31 193.53 623.97 191.83 621.39 191.98 619.97 191.15 618.98 191.16 617.53 192.73 616.9 193.14 615.77 192.27 614.16 192.73 613.16 192.1 612.68 191.93 611.39 193.78 611.47 195.04 610.63 195.51 609.45 196.51 609.54 197.78 608.32 198.25 607.01 199.34 606.91 199.78 605.03 198.39 603.63 198.61 602.47 199.25 601.94 200.53 603.01 201.91 601.78 201.23 600.44 201.61 598.81 202.65 597.96 206.07 596.93 209.69 593.78 207.69 592.62 207.37 590.9 208.12 589.18 209.24 589.73 212.21 588.19 211.67 585.82 210.4 585.44 209.97 584.52 211.29 583.19 212.9 582.71 214.26 581.5 214.25 580.46 212.56 579.35 212.05 578.2 213.87 576.27 213.76 575.41 211.45 574.14 211.44 573.19 213.35 572.51 215.06 572.24 214.23 569.63 215.69 567.5 216.54 567.17 217.99 565.54 217.37 563.48 217.36 562.28 218.61 561.52 216.89 560.82 214.96 558.33 214.9 557.44 215.9 557.24 216.97 555.24 218.69 554.66 219.07 553 218.87 552.16 217.44 550.02 217.64 547.06 218.36 546.51 219.55 546.81 220.53 545.87 221.07 544.53 221.31 542.37 220.33 542.09 220.78 539.83 221.17 536.11 220.33 534.12 221.56 533.29 222.81 531.42 220.44 530.71 220.01 529.91 220.98 527.87 222.11 527.05 225.21 527.5 227.62 525.14 229.55 523.52 229.78 522.73 229.08 521.18 229.38 519.52 228.87 518.07 229.1 517.36 230.45 516.42 230.79 515 230.56 510.02 231.45 508.05 230.9 506.11 231.05 505.38 230.81 502.34 232.02 501.39 235.19 499.84 235.84 497.6 234.63 496.7 234.07 495.75 232.69 494.49 233.63 493.88 233.81 492.96 234.88 490.9 235.18 489.63 236.29 488.26 236.46 485.69 237.43 484.91 238.78 484.59 239.31 482.7 240.69 482.84 242.19 482.33 243.41 481.04 246.17 480.03 247.37 479.92 252.23 480.24 253.59 480.55 255.7 478.08 257.46 476.84 258.82 476.35 259.09 475.23 258.72 470.9 259.56 469.01 260.2 466.52 259.51 463.97 256.84 462.04 252.93 460.42 250.48 458.31 250.03 456.97 250.33 453.76 249.94 452.71 248.59 451.06 247.15 450.45 246.27 449.58 246.04 448.24 246.71 446.15 248.82 443.8 251.45 442 254.01 439.65 255.02 438.41 255.94 436.48 256.08 435.55 255.62 434.1 253.81 432.68 251.74 432 250.25 429.78 248.37 428.46 247.09 427.07 247.45 425.15 248.26 424.57 251.35 424.9 252.35 424.29 251.59 423.54 251.32 421.86 251.8 420 258.58 417.65 260.98 416.59 262.4 415.52 263.57 414.22 264.03 412.12 263.41 409.15 262.47 408.37 260.44 408.27 259.24 408.57 257.27 408.49 255.35 407.46 254.96 406.64 255.01 405 254.62 403.42 252.58 400.38 253.65 399.18 255.91 399.48 256.65 398.77 257.42 396.11 256.79 394.62 254.27 392.33 253.51 390.16 253.43 388.98 254.35 386.62 254.99 386.12 257.49 385.28 258.62 384.2 260.58 383.78 261.47 383.12 263.06 382.91 264.49 381.7 264.5 379.84 264.16 378.52 265.03 377.92 267.14 377.31 269.11 375.61 271.58 375.77 273.46 376.43 275.02 377.99 276.59 378.37 278.4 377.85 279.14 377.32 280.57 374.55 279.94 367.85 280.43 366.88 283.71 364.29 288.87 362.62 289.36 360.94 289.22 353.94 290.94 349.92 290.95 349.08 289.61 346.31 289.58 344.7 290.84 342.1 291.71 341.37 292.5 339.41 291.66 337.6 290.82 336.93 289.19 334.51 287.84 333.37 286.45 332.94 287.71 330.52 287.34 329.01 285.42 327.31 283.93 326.62 283.41 323.91 283.91 322.75 283.18 321.01 282.95 319.2 283.43 317.55 282.23 316.27 279.07 315.88 277.4 315.16 277.05 313.86 277.65 312.64 277.72 311.47 276.21 309.87 273.91 305.24 272.24 303.78 272.47 301.48 272.28 299.98 271.53 299.04 267.33 295.83 266.56 294.67 280.13 228.57 280.5 225.81 280.12 222.1 280.25 220.73 281.21 216.53 281.03 215.12 280.01 213.61 278.5 210.77 275.9 208.99 274.11 206.96 275.01 200.81 274.88 199.89 272.56 195.75 273.11 194.33 272.07 191.9 272.45 190.67 272.12 189.72 270.73 189.61 269.11 188.03 267.71 187.38 268.9 185.92 268.73 185.05 267.7 184.48 267.11 183.49 267.06 181.84 267.64 181.1 268.08 178.57 267.97 177.86 265.99 175.74 264.82 174.99 264.9 173.18 264.59 171.61 265.08 169.37 265.22 167.4 265.75 165.2 265.43 164.48 265.38 162.23 264.45 158.76 263.22 157.63 262.64 156.21 263.31 153.69 264.02 148.75 262.62 145.28 261.23 143.27 260.45 141.57 259.31 140.64 257.78 138.88 258.37 137.63 258.1 136.08 257.18 135.14 258.05 133.59 256.7 132.57 255.02 130.3 254.4 128.73 253.56 127.85 253.16 125.22 252.76 124.03 253.29 122.36 252.72 121.28 251.66 120.88 252 118.74 251.47 117.98 252.08 115.97 251.89 113.16 251.27 111.7 251.94 110.58 251.77 109.19 252.69 107.75 252.63 106.9 251 105.21 250.45 102.45 248.74 100.8 249.81 99.91 250.67 101.1 252.44 99.92 251.47 98.17 250 96.82 249.76 94.21 249.93 93.56 249.44 91.85 249.82 89.73 249.79 87.29 250.05 84.73 248.05 84.89 247.73 82.97 247.8 80.37 249.12 79.6 251.11 77.33 252.78 75.08 254.82 73.5 255.58 72.43 255.63 70.63 256.83 68.67 258.19 68.67 259.11 69.45 260.16 68.75 260.21 66.69 261.2 64.16 259.59 62.15 259.74 60.34 258.35 59.17 256.13 58.05 254.09 57.99 253.11 54.79 251.4 54.46 251.22 53.05 252.67 50.84 252.42 49.74 250.62 49.18 248.53 47.11 248.23 45.57 247.19 45.07 245.77 42.82 245.93 42.2 245.16 41.03 245.48 39.19 246.31 38.26 246.79 35.58 247.93 34.08 248.16 30.7 247.27 29.74 245.04 29.25 244.8 27.75 243.77 26.4 242.55 25.57 239.97 25.34 234.91 25.98 233.16 23.88 230.52 22.94 229.2 23.39 228.92 24.88 228.24 25.25 227.45 23.64 225.85 22.49 223.46 21.47 221.57 19.69 222.91 18.13 226.08 15.22 228.23 12.3 229.46 10.19 230.4 9.38 233.64 7.79 236.22 7.25 239.76 7.78 243.37 7.59 247.01 8.15 250.67 8.36 253.79 7.27 255.8 5.5 259.3 4.31 261.49 3.32 265.44 1.26 266.58 1 272.48 1.38 279.97 2.51 280.79 2.97 282.4 2.95 284.63 2.01 287.29 1.61 288.13 1.78 290.56 3.36 291.82 5.24 291.94 7.57 291.54 8.91 290.1 10.72 288.87 11.66 283.02 15.44 279.17 16.89 277.43 17.93 275.15 19.61 273.21 20.05 271.59 20.75 270.24 22.11 269.6 23.67 271.28 25.86 273.31 27.15 276.85 27.13 278.06 26.72 282.9 23.08 284.71 22.22 286.79 21.8 288.42 21.88 291.73 22.95 298.05 25.39 300.29 26.39 302.6 26.98 304.28 27.79 306.95 28.69 309.54 29.83 311.47 31.14 315.21 32.86 317.51 34.22 320.16 35.55 326.16 38.99 330.76 42.3 332.45 43.74 335.13 46.41 338.5 48.74 340.53 50.72 342.9 53.69 345.56 55.4 347.05 55.88 349.71 55.76 351.29 54.78 352.2 53.47 352.46 51.5 352.38 48.07 352.5 45.57 352.96 42.51 353.78 39.13 354.14 38.44 354.33 36.03 354.82 34.16 355.87 32.35 356.82 31.29 361.95 26.77 365.78 23.79 366.75 22.64 368.34 20.13 370.13 18.31 376.41 14.02 378.57 13.03 380.7 12.95 382.19 13.65 383.2 14.91 384.79 18.16 384.94 19.75 383.53 23.91 381.78 30.12 381.03 31.75 378.54 35.35 377.1 38.24 376.71 40.12 377.28 42.69 378 43.7 380.58 46.05 383.45 47 387.36 47.29 391.11 46.7 396.45 46.41 399.42 46.87 404.96 47.24 407.84 48.06 410.26 49.46 410.91 50.6 411.04 52.55 409.39 56.09 406.63 59.89 403.93 62.89 400.89 65.15 400.18 66.2 399.56 68.25 400.35 71.59 401.07 72.6 403.32 74.56 405.49 75.92 412.79 79.59 416.32 82.02 417.19 83.64 421.14 88.37 422.61 89.06 426.33 89.32 426.9 90.42 428.05 90.32 428.99 89.06 431.43 87.91 436.51 86.33 442.93 84.22 446.7 82.48 448.64 81.22 451.59 80.42 453.61 79.18 456.84 75.12 457.7 71.94 458.28 70.56 459.75 68.93 461.81 67.2 463.38 65.35 465.28 63.67 466.13 61.85 465.91 60.28 466.66 58.62 468.02 57.83 470.43 57.37 471.18 57.55 472.46 58.98 474.38 62.22 475.05 65.16 475.14 66.42 474.72 68.24 472.88 70.6 472.1 71.93 471.08 74.66 470.61 78.88 470.09 82.02 470.77 86.83 471.32 88.81 470.62 91.08 470.68 95.24 470.86 96.58 471.63 98.29 472.98 100 474.84 101.87 476.59 104.28 477.26 105.58 478.33 109.93 479.48 111.49 482.07 113.09 484.91 114.28 487.68 115.05 489.34 115.2 491.69 115.94 495 117.89 496.53 118.52 499.28 118.47 502.24 117.11 504.47 115.05 504.99 113.8 505.42 111.58 505.46 109.16 505.1 108.02 503.08 104.66 500.44 98.92 499.54 97.53 499.35 96.46 500.14 93.87 500.79 92.66 500.94 90.37 499.61 87.36 499.45 86.17 500.29 83.92 501.79 82.63 505.77 81.48 508.11 81.85 509.44 82.71 510.93 85.08 512.48 88.15 514.64 93.08 517.35 98.81 518.13 101.08 518.06 103.89 517.26 106.45 517.34 107.49 518.37 109.45 519.68 111.23 521.41 114.3 522.59 115.41 523.52 115.73 525.74 115.81 528.8 115.65 530.03 116.14 532.3 117.99 533.72 118.89 536.16 118.85 537.71 118.03 541.06 115.65 544.36 114.38 546.96 114.32 552.9 116.3 554.54 117.85 555.12 119.02 556.67 120.91 556.6 122.14 555.67 123.96 554.94 126 554.13 127.38 551.43 129.79 549.62 131.83 547.73 133.52 547.19 134.65 546.94 136.51 546.12 138.91 542.81 145.05 539.35 149.78 538.85 152.63 539.35 159.34 539.98 162.01 540.75 163.35 543.85 167.3 545.41 169.7 546.58 172.08 547.64 173.13 551.58 175.56 555.98 177.67 557.85 178.37 561.04 178.73 562.77 178.18 563.49 177.46 565.62 174.3 567.4 172.63 570.82 170.84 574.3 168.67 577.3 167.25 578.36 166.33 579.6 163.32 582.11 161.81 585.33 160.87 588.46 160.91 596 161.86 600.62 162.95 602.28 163.83 602.82 165.2 602.4 166.39 600.74 168.44 599.06 169.85 596.18 171.81 594.37 173.47 593.49 175.48 593.68 177.48 594.19 178.63 596 180.79 597.63 182.26 597.97 183.88 597.48 185.04 595.56 186.46 592.38 189.41 589.97 191.2 586.29 193.43 585.84 194.98 584.65 196.13 583.11 196.96 582.61 197.64 582.29 199.43 582.27 204.47 583.23 205.92 585.51 207.44 587.06 208.73 588.71 209.39 591.76 209.68 595.78 210.79 598.21 211.96 600.12 212.54 603.63 213.08 604.82 213.77 605.3 216.77 607.04 218.91 616.22 224.92 622.44 228.37 623.96 230.31 624.27 231.92 624.12 234.2 622.88 237.89 622.78 239.09 623.24 239.94 625.51 241.15 627.36 241.67 628.95 242.65 630.1 243.77 631.32 246.05 635.01 250.61 638.31 254.14 642.11 258.55 642.85 260.23 643.58 260.97 645.96 262.37 647.45 262.8 649.21 262.05 649.81 260.19 651.54 258.47 653.25 258.03 656.18 256.83 657.57 256.03 659.91 255.49 661.21 254.49 662.36 252.05 661.96 249.65 662.48 248.28 663.37 247.44 664.9 247.03 667.52 247.56 671.57 248.88 673.86 250.39 675.36 252.07 677.95 255.56 680.86 260.55 682.42 261.72 684.98 262.58 685.29 263.3 685.7 268.84 686.23 269.96 688.01 271.99 689.26 275.21 690.72 277.44 691.7 279.97 693.79 284.3 695.32 285.97 696.96 286.13 697.97 285.74 698.97 284.58 701.42 278.55 702.29 275.69 702.17 273.07 700.92 270.08 700.69 268.54 701.34 266.16 702.98 264.61 706.39 263.62 708.51 263.49 712.24 263.55 714.61 262.52 718.9 259.84 722.13 258.9 723.79 258.89 Z"/>
</g>
</svg>