<?xml version="1.0"?>
<svg xmlns="http://www.w3.org/2000/svg" version="1.2" baseProfile="tiny" width="800" height="676" viewBox="0 0 800 676" stroke-linecap="round" stroke-linejoin="round">
<g id="4203253">
<path d="M 303.65 636.26 302.93 634.35 302.21 633.25 299.98 631.53 298.26 630.95 296.96 630.86 295.11 631.02 291.29 632.16 289.4 632.55 285.44 632.36 283.54 632.02 281.67 631.32 280.08 630.33 278.24 628.98 274.3 625.69 271.93 624.49 269.68 623.47 267.61 622.74 265.79 622.37 262.68 621.47 260.39 620.41 256.77 619.05 253.24 617.57 245.01 612.44 243.64 611.25 240.13 608.86 237.29 607.64 236.25 606.99 231.49 606.44 228.77 606.04 226.49 605.38 224.71 604.72 222.88 603.77 221.5 602.77 219.77 601.05 219 599.5 218.93 597.65 219.26 593.39 220.22 589.85 220.42 586.94 220.46 582.88 220.31 581.28 219.65 578.86 219.1 576.32 218.31 573.79 217.52 570.82 217.27 568.76 216.59 565.42 216.16 562.2 215.51 558.41 215.26 555.76 214.52 553.66 213.83 552.33 212.58 549.47 210.93 546.74 210.14 544.97 209.18 539.75 209.03 536.23 208.37 527.41 207.95 524.69 206.99 522.2 205.31 520.33 203.72 519.01 201.89 518.09 200.61 517.82 199.29 518.02 198.19 518.62 197.1 519.8 195.78 521.78 194.83 524.19 192.49 528.91 190.83 530.5 189.04 531.9 184.68 534.73 182.39 535.56 179.93 536.1 177.87 536.13 175.31 535.88 173.32 535.29 171.37 534.48 169.49 533.27 168.23 532.24 167.38 530.62 166.89 528.41 166.72 526.08 166.84 523.86 167.17 521.24 167.7 518.95 169.4 516.4 170.23 514.79 172.05 512.69 173.66 510.67 175.1 508.36 176.99 503.61 177.08 501.9 176.96 499.76 176.03 498.32 174.72 496.99 173.09 495.63 170.16 492.8 166.8 487.55 165.78 485.82 164.09 481.23 163.04 477.72 162.71 475.32 162.59 473.4 162.96 471.14 163.55 469.5 164.63 467.85 165.96 466.48 169.83 463.96 171.17 462.81 171.81 461.53 173.05 459.66 174.28 456.95 174.42 455.21 174.1 453.27 172.18 449.97 169.93 447.96 166.71 446.63 163.57 445.8 160.6 445.49 157.29 445.43 153.81 445.53 147.39 446.49 144.74 447.2 141.91 448.11 138.27 448.98 131.97 449.73 128.66 449.83 125.58 449.31 123.18 448.11 121.36 446.81 119.64 444.69 118.7 442.32 118.07 439.46 117.53 435.32 117.18 431.69 116.46 427.15 115.71 424.14 114.31 420.89 112.7 418.3 110.64 416.28 108.06 414.99 104.92 414.78 102.32 415.17 98.59 417.53 95.97 419.87 93.06 422.62 89.99 425.93 87.37 428.89 84.58 431.33 82.41 433.51 79.04 436.47 72.58 441.47 69.73 444.33 66.3 447.03 63.13 448.26 59.48 448.61 56.81 448.6 53.08 447.47 49.8 445.68 47.44 443.71 45.47 440.72 43.37 436.5 42.69 434.09 43.04 430.86 43.81 428.5 45.15 425.61 46.72 422.63 49.88 417.31 51.49 413.2 52 409.25 52.06 405.98 51.33 401.28 50.21 397.97 48 394.22 43.39 385.79 41.7 382.18 37.11 377.94 33.59 375.79 29.45 374.36 25.5 373.7 22.36 373.28 15.11 373.53 10.49 374.06 7.65 374.3 5.03 373.72 2.46 372.58 1.21 370.8 1 368.76 1.31 366.51 1.97 364.18 4.84 359.03 6.7 356.14 8.92 353.75 12.56 352.53 14.75 352.19 18.34 351.47 22.2 350.45 24.91 349.49 27.21 348.28 29.83 345.95 32.23 343.61 33.76 341.75 35.56 338.5 37.03 336.38 38.48 333.29 39.98 329.9 41.48 326.04 42.41 323.1 43.16 312.65 42.65 304.03 42.71 301.31 44.18 301.62 47.19 302.61 49.82 303.22 51.21 303.67 53.16 303.8 57.33 303.82 58.51 304.04 60.45 304.71 61.56 304.94 62.92 305.52 64.64 306.6 67.41 307.95 69.5 309.09 70.43 309.41 72.9 309.81 74.52 309.66 77.54 308.8 79 308.1 79.92 307.06 80.59 305.47 80.76 303.74 81.72 302.38 82.6 302.19 83.44 302.51 88.35 306.48 89.53 306.98 91.58 307.11 93.44 306.83 95.13 307.27 96.7 308.12 97.29 308.82 97.65 311.42 97.98 313.02 98.65 314 100.14 315.75 102.85 318.01 104.2 318.63 105.65 318.66 106.74 318.05 108.21 316.23 109.72 313.83 110.36 312.62 110.64 311.67 110.48 310.35 109.57 308.12 109.6 307.03 110.37 305.99 111.3 305.57 113.29 305.02 115.86 304.62 117.6 304.13 118.65 303.63 120.32 303.34 121.24 303.54 122.37 304.96 123.12 307.6 123.92 309.4 125.22 311.1 126.48 312.1 128.18 312.87 129.6 312.7 130.73 312.09 131.7 311.84 133.2 312.18 134.32 313.29 135.42 313.63 136.32 313.38 138.31 311.87 139.23 311.43 141.79 311.66 143.86 311.45 144.71 311.07 145.01 310.6 145.29 308.21 144.88 306.75 144 305.29 143.31 304.56 141.89 303.69 141.04 302.9 139.99 301.23 137.97 298.34 136.91 296.08 136.13 295.22 136.05 293.83 136.37 293.18 137.84 291.89 139.46 291.06 140.72 291.02 143.91 291.47 146.55 291.6 148.15 291.34 149.4 290.63 149.9 289.81 150.25 287.86 149.94 286.34 149.74 284 150.14 282.39 151.25 281.56 151.63 280.48 151.02 277.44 151.06 275.3 152.79 269.41 154.79 268.65 156.11 267.69 157.59 265.57 159.85 265.7 160.95 265.63 162.78 266.05 164.38 267.4 165.89 269.73 166.44 270.84 167.2 273.15 167.24 274.68 168.02 275.44 169.51 275.4 171.05 275.15 173.02 274.43 174.23 274.83 175.62 274.72 178.09 273.58 178.98 273.79 180.66 274.59 182.58 274.94 182.88 275.2 183.61 277.31 183.72 279.36 182.82 283.04 183.66 284.1 186.99 284.72 190.4 284.64 192.72 284.81 194.34 285.07 197.74 284.92 199.46 285.36 200.24 286.07 200.64 287.08 200.66 289.42 201.43 290.12 203.37 290.97 203.59 291.81 203.52 292.96 203.88 293.54 206 294.92 206.96 295.22 209.75 293.82 211.3 292.56 213.13 291.73 214.22 291.41 216.47 291.2 217.01 291.31 219.24 292.29 220.68 293.39 223.86 297.24 224.63 298.82 225.52 300.11 226.51 301.08 227.86 302.79 228.94 304.56 230 305.1 232.07 305.3 233.27 304.56 233.47 303.6 233.37 302.22 232.79 300.72 232.87 300.07 233.45 299.38 235.25 298.13 235.86 297.14 236.47 296.84 237.72 296.88 239.9 296.02 242.07 294.92 244.44 294.04 247.82 292.5 249.04 292.57 251.47 293.03 252.45 292.8 253.16 292.33 253.51 291.61 253.47 290.53 251.67 287.44 251.24 284.67 250.74 282.57 249.97 281.75 248.58 281.07 247.73 280.94 246.14 281.17 243.43 282.08 242.3 283.83 242.01 284.95 241.4 286.05 239.82 287.68 237.98 288.56 236.74 288.62 235.61 287.99 235.03 286.69 234.43 284.42 233.37 281.38 232.47 277.73 231.21 275.19 230.74 273.89 230.76 270.62 230.32 269.91 229.24 269.23 226.68 267.24 225.47 265.68 225.46 264.87 226.18 264.51 227.87 264.15 228.66 264.15 232.37 265.79 234.56 266.29 235.91 266.36 238.39 265.82 240.56 265.5 241.58 265.64 242.74 266.38 244.5 267.26 245.82 267.35 246.68 267.11 247.61 266.36 248.3 265.1 248.62 263.67 249.55 262.67 250.86 262.38 251.48 261.71 251.91 260.45 251.8 259.63 251.34 259.01 249.63 257.33 249.89 256.32 251.87 254.86 253.17 254.44 255.6 254.2 256.07 254.55 255.78 255.95 255.95 256.86 256.96 259.3 257.05 260.21 257.7 261.14 259.2 262.46 260.39 263.16 261.77 263.66 263.49 263.62 264.35 263.16 264.18 262.03 262.68 260.36 261.95 258.88 261.68 257.62 262.05 255.75 263.48 254.81 264.55 253.9 265.64 254.12 268.06 255.37 270.12 255.49 272.26 254.84 273.57 251.96 274.97 250.74 277.7 249.72 278.26 249.21 281.11 247.29 281.75 247.03 282.23 246.03 282.25 245.32 281.68 243.75 281.07 242.93 280.48 241.71 280.12 240.4 280.25 239.72 280.99 239.14 282.52 238.48 284.77 238.18 286 238.3 288.32 239.27 289.82 239.7 291.42 239.94 292.39 239.91 293.03 240.45 293.56 241.44 293.87 243.25 293.95 244.83 295.26 245.75 296.07 245.74 296.64 245.28 296.7 244.13 297.57 242.37 297.75 241 297.59 240.09 298.27 238.58 300.81 236.48 301.17 235.85 302.49 235.54 303.46 235.64 306.34 237.1 308.5 239.79 309.46 240.76 310.89 241.02 311.26 241.55 312.54 242.42 315.21 244.61 316.22 245.33 317.92 245.45 318.29 245.04 317.99 244.01 317.25 242.6 317.08 241.4 317.82 239.38 318.97 238.12 319.96 237.63 321.73 237.48 322.47 237.58 323.43 236.73 323.25 235.59 323.14 232.48 323.8 230.65 324.36 230.06 325.18 230.02 326.07 230.67 328.2 231.63 329.11 232.31 329.23 232.85 330.93 233.87 333.77 235.25 334.45 236.15 333.44 237 333.6 238.09 334.5 238.35 335.79 238.07 337.45 238.82 339.91 237.71 340.23 236.99 339.87 235.29 339.37 234.82 339.16 233.9 339.55 232.01 340.05 231.19 340.82 230.64 341.62 230.84 343.21 232.54 345.28 233.5 347 233.83 347.86 234.4 348.68 234.4 349.07 233.5 348.84 232.59 348.33 232.13 348.19 231.21 347.01 229.46 345.76 228.7 345.36 227.94 345.24 226.09 345.62 225.51 347.16 225.11 349.14 224.86 350.88 224.89 353.71 224.23 354.77 223.82 355.61 223.22 357.48 222.41 359.43 222.51 361.7 223.65 362.99 223.54 364.09 222.56 364.49 221.82 364.29 220.52 364.57 219.81 366.26 218.83 366.44 218.42 366.63 216.23 366.97 215.73 370.27 213.65 370.98 212.94 371.24 209.04 371.01 206.96 372.19 204.94 372.51 203.55 372.96 203.08 374.22 203.03 376.72 204.44 378.66 205.18 379.87 205.23 381.35 204.56 383.44 204.6 384.18 204.15 384.11 203.59 385.1 202.95 384.97 201.48 384.11 200.76 383.38 200.62 382.25 199.39 381.61 198.94 380.26 198.49 381.56 198.04 381.2 196.4 380.89 196.03 380.74 194.73 383.06 193.8 384.85 193.96 387.5 191.87 388.46 191.83 388.32 190.44 387.69 189.47 386.6 188.57 385.85 188.21 383.55 187.86 382.05 187.13 381.68 186.43 380.58 185.53 379.69 184.34 380.22 184.03 379.65 182.83 378.37 182.37 377.84 181.5 378.17 179.77 379.8 178.97 381.97 177.15 382.65 176.97 383.19 177.29 384.5 178.95 385.44 179.48 386.1 179.27 385.3 178.17 386 177.65 387.08 177.44 388.43 176.41 389.23 176.59 389.78 177.5 390.79 177.82 391.44 176.57 391.19 174.78 391.55 173.41 391.2 172.69 391.37 172.11 392.18 172 393.04 172.27 394.79 171.77 395.17 171.38 396.8 171.43 398.08 170.94 399.82 170.9 401.16 170 401.3 169.14 400.2 167.63 400.12 167.02 400.82 166.12 402.38 164.68 402.16 162.61 403.07 161.92 402.76 160.46 403.19 158.03 404.26 156.28 404.04 155.55 403.37 155.02 403.46 154.45 404.93 153.1 406.42 150.84 406.51 148.98 406.69 148.29 406.18 146.96 406.79 144.8 407.35 142.2 406.71 141.61 406.62 140.79 405.47 140.11 404.47 139.1 403.55 138.66 402.97 138.03 400.95 138.17 400.24 137.43 400.33 136.28 399.69 136.03 399.07 134.55 397.7 134.33 397.16 133.9 395.87 133.45 394.94 132.09 394.14 131.47 392.9 131.18 391.53 129.99 390 129.71 389.45 130.04 387.53 130.4 386.34 129.94 385.65 128.96 384.59 128.38 381.14 128.05 380.66 128.36 371.39 127.79 370.97 126.43 371.18 125.98 371.02 124.85 370.65 124.38 371.22 123.43 372.69 121.46 373.55 120.91 374.92 119.7 375.28 118.13 374.68 117.64 374.01 116.52 373.74 114.32 373.94 113.3 373.28 112.52 372.7 110.63 372.23 109.67 372.1 108.28 371.6 106.53 372.9 104.21 373.94 103.56 373.85 102.88 375.28 102.09 376.61 100.03 376.96 99.27 377.77 98.6 378.41 97.43 379.06 95.44 379.01 94.28 377.61 92.81 377.62 91.96 379.98 90.24 380.54 89.68 383.2 88.31 384.81 87.22 385.39 87.05 387.47 85.83 388.01 84.5 389.32 83.99 391.51 82.19 392.75 80.4 394.79 78.56 394.86 77.91 394.38 76.53 395.71 76.08 395.92 74.1 396.31 72.9 397.67 70.76 398.48 70.48 399.2 69.61 400.11 67.83 400.29 67.15 400.46 64.9 400.7 64.26 401.52 63.78 401.64 63.14 401.03 62.66 402.01 60.6 403.34 60.48 404.58 59.83 404.91 58.52 406.55 56.76 407.7 56.15 409.09 54.62 409.75 55.21 410.82 55.28 412.69 53.57 412.46 51.74 411.04 51.03 410.95 50.06 411.5 48.58 411.28 47.43 410.35 45.77 410.51 44.5 409.5 42.29 408.75 41.39 409.8 41.12 410.87 39.76 411.54 38.5 412.92 38.55 413.35 39.12 414.16 39.42 415.03 39.23 415 37.5 414.71 36.43 413.63 34.91 412.86 33.4 413.16 32.22 412.55 32.03 413.21 30.78 412.96 30.41 413.95 28.8 413.94 28.32 414.79 27.69 414.89 26.87 416.34 26.04 416.22 24.61 416.78 23.5 416.7 22.63 418.06 20.29 418.64 20.75 418.77 21.56 419.51 21.21 420.33 21.26 421.06 20.04 422.93 19.11 424.01 18.86 425.28 19.57 426.05 19.38 426.84 18.39 426.63 16.04 427.08 15.38 427.83 15.44 429.12 15.07 430.9 14.91 431.42 14.63 431.26 13.88 431.98 12.03 429.88 11.6 429.97 11.17 430.85 10.77 432.16 10.55 433.66 10.82 434.8 10.55 435.02 9.05 435.48 8.77 435.38 7.6 436.35 7.33 435.77 6.6 434.03 5.67 434.63 4.56 435.9 2.9 436.05 2.31 435.21 1.2 436.79 1 437.68 1.23 439.17 1.08 439.25 2.27 440.2 3.21 441.58 3.97 442.49 4.01 443.42 4.46 444.1 3.71 445.03 3.22 446.9 3.38 447.89 2.42 448.77 2.14 450.12 2.22 451.18 1.99 453.21 3.05 455.38 3.44 456.45 4.28 457.95 4.04 458.68 3.59 460.37 4.01 460.67 4.39 462.22 4.96 462.85 6.02 463.73 6.29 464.48 7.3 465.49 7.53 466.29 8.64 466.71 10.29 467.77 10.78 468.57 10.83 469.55 10.04 469.48 9.44 470.8 9.25 472.7 10.48 472.81 11.03 474.92 11.94 476.7 12.02 477.15 12.51 477.1 13.42 478.53 14.82 478.92 15.73 480.5 17.22 481.62 17.45 482.94 17.38 483.66 18.03 483.56 19.59 483.83 20 485.32 20.65 487.91 21.51 488.93 21.49 490.84 20.89 491.24 21.41 491.05 22.53 490.31 23.34 491.56 24.17 492.8 24.61 493.37 26.1 494.05 26.72 495.58 26.06 496.77 25.75 497.45 26.23 497.84 28.57 498.38 29.73 500.53 31.53 501.35 33.02 502.53 34.35 503.36 35.74 502.95 37.55 502.48 37.96 502.15 38.92 501.51 39.91 501.94 40.37 503.56 39.21 504.67 39.17 506.08 38.78 509.65 36.02 511.87 34.64 513.31 35.17 513.84 35.92 514.85 37.96 518.09 41.95 519.07 42.67 520.1 43.98 520.62 45.01 520.89 46.87 521.73 47.65 523.15 47.16 523.09 48.37 522.27 50.38 522.26 51.95 523.22 52.7 523.79 53.6 523.77 54.06 524.84 54.2 525.32 54.78 533.53 58.55 538.49 60.58 539.43 60.84 540.91 61.87 541.48 61.99 542.94 61.61 544.18 62.08 547.08 61.36 548.23 60.85 549.69 60.99 550.68 61.36 553.76 61.26 556.17 59.83 557.22 59.71 557.98 60 558.93 59.84 563.84 59.7 618.5 44.59 621.39 42.91 622.42 42.03 623.79 41.58 625.13 41.34 628.03 41.1 629.08 40.17 629.48 38.35 630.14 36.51 630.81 35.76 631.56 35.32 633.26 34.83 635.19 34.49 638.62 34.37 641.18 34.46 645.61 34.79 647.99 34.63 648.33 35.45 649.81 37.29 649.65 38.75 648.85 39.41 643.44 41.81 641.15 43.39 640.09 44.84 640.06 46.05 640.78 46.82 642.78 47.4 643.96 47.32 646.81 46.81 648.16 46.97 649.63 47.77 650.51 48.64 651.51 49.94 652.52 50.47 654.06 50.33 654.66 50.1 656.7 48.82 657.9 48.3 660 47.74 662.09 47.5 665.6 47.35 666.53 47.15 667.09 46.68 669.13 43.9 670.03 43.46 671.21 43.42 672.23 44.32 672.68 45.28 673.16 48.33 674.38 50.13 677 54.53 677.96 56.95 678.62 58.92 678.85 60.24 679.2 60.63 680.51 60.61 681.24 60.12 682.01 59.05 682.85 57.3 683.47 56.61 686.09 54.91 689.68 52.25 690.1 51.59 690.62 50.13 690.85 48.03 690.66 45.6 691.31 42.91 691.59 40.59 692.45 40.1 693.01 40.36 694.1 41.45 694.45 42.15 696.16 46.4 696.34 47.78 695.99 50.2 696.16 52.65 696.78 53.46 697.52 53.42 698.58 52.92 700.26 51.88 704.6 48.36 707.7 46.27 709.74 45.5 711.1 44.63 713.03 42.63 714.01 42.07 714.93 42.23 714.81 43.46 713.44 45.95 712.89 46.76 711.26 48.41 709.77 50.09 709.26 50.94 709.09 52.77 709.26 53.56 710.29 54.37 713.68 55 714.55 55.56 715.54 55.42 716.08 54.95 716.41 53.57 717.5 53.56 719 54.25 719.9 55.02 721.11 57.57 722.01 58.91 723.75 60.25 725.57 61.25 727.23 62.63 729.06 63.36 729.58 63.35 732.01 62.65 733.12 62.45 735.14 62.38 736.52 62.52 739.57 63.74 740.41 63.83 742.19 63.6 742.95 64.1 743.53 65.28 743.95 67.32 746.4 69.45 747.72 71.11 748.68 73.58 750 74.42 751.03 74.48 752.17 74.2 754.84 71.93 756.17 71.04 758.66 70.12 760.31 69.97 760.95 70.1 762.25 71.06 762.8 71.92 763.43 73.7 764.25 74.46 765 75.65 765.73 76.37 765.55 77.49 764.38 78.57 763.76 79.62 763.9 80.87 764.36 81.71 764.26 82.71 763.81 83.41 762.69 84.36 762.67 85.56 763.35 86.57 763.47 88.07 763.75 88.89 765.1 89.88 765.65 90.59 767.47 90.79 768.32 91.51 767.94 92.57 766.43 93.46 766.83 94.33 768.15 94.8 769.21 96.14 770.89 96.3 772.02 97.32 771.68 99.83 771.17 102.16 771.44 103.12 772.18 103.71 772.42 104.48 772.23 105.34 772.32 106.98 772.08 108 772.68 108.93 773.83 109.07 776.52 108.73 781.02 108.73 782.08 109.05 783.59 109.86 783.51 110.89 783.85 112.01 783.79 113.48 785.52 115.21 785.36 115.88 784.24 116.58 783.94 117.55 784.4 118.38 785.55 119.05 788.04 120.85 789.36 122.17 789.11 124.02 789.39 124.54 790.84 125.14 791.41 125.79 791.36 126.55 790.61 128.18 790.75 128.94 791.74 129.66 793.78 129.92 794.58 130.39 795.72 132.9 796.41 133.55 798.82 135.27 799 136.13 798.73 136.52 796.81 136.88 795.61 137.45 794.62 138.62 794.28 140.87 793.62 143.02 792.75 143.97 791.95 143.92 790.15 142.88 788.78 142.57 787.46 142.5 785.28 142.66 782.33 143.26 780.31 144.9 779.1 145.67 778.71 146.22 778.89 147.2 778.57 148.29 777.31 150.07 776.74 150.55 775.25 151.16 774.31 152.52 773.35 155.37 773.76 156.31 775.26 158.24 776.68 159.45 777.09 160.14 777.29 162.17 777.11 163.47 776.57 165.86 775.81 167.16 775.25 167.75 773.49 168.6 773.16 169.49 774.3 171.94 776.58 172.54 777.23 172.84 777.4 173.86 776.5 174.46 775.29 174.52 774.07 175.2 772.86 176.69 772.93 178.05 773.98 179.59 773.95 180.13 773.33 181.28 773.38 182.06 774.72 183.23 776.24 183.97 776.7 184.58 776.81 186.02 775.62 188.66 774.58 189.95 772.52 191.19 771.53 192.33 770.41 194.09 769.09 194.9 767.81 195.48 764.37 196.18 761.66 197.3 759.3 196.92 756.78 196.87 755.85 197.21 755.05 198.58 754.17 199.42 753.5 199.74 751.86 200.03 749.46 199.63 746.46 200.46 745.19 200.97 744.26 201.62 742.94 203.1 741.98 204.88 740.61 206.24 739.26 206.7 737.64 206.61 736.02 205.98 735.37 205.95 734.17 206.54 732.81 207.54 731.04 208.61 728.28 209.89 727.62 210.62 727.58 211.32 728.13 213.17 729.46 213.94 730.89 215.11 731.37 215.92 731.92 217.66 733.72 219.59 734.24 221.3 733.97 222.77 733.35 223.94 731.71 226.01 731.1 227.02 728.85 230.1 728 231.75 728.17 233.18 727.81 234.23 727.09 235.42 722.59 238.09 720.67 239.85 719.65 239.94 719.09 240.87 717.71 242.37 716.51 243.28 715.61 244.53 714.51 247 713.52 249.57 712.54 250.47 712.45 251.08 712.92 252.53 714.12 253.03 716.4 254.32 717.5 255.39 717.86 256.22 717.92 257.28 718.46 260.48 718.74 261.38 718.59 262.24 717.89 262.89 718.05 263.52 718.62 263.7 720.64 263.21 723.21 260.03 724 259.84 725.42 260.05 725.89 260.42 726.03 261.16 727.62 261.37 729.3 262.4 732.24 262.54 733.58 262.35 736.2 263.87 736.97 265.39 737.33 267.12 737.23 268.34 738.04 268.54 741.78 268.94 742.53 268.36 743.15 268.41 744.57 270.03 747.78 272.24 748.52 274.68 748.67 276.92 748.44 277.43 746.93 278.87 746.47 280.15 747.1 280.98 747.89 281.47 748.07 282.23 747.46 284.08 747.67 285.17 747.45 285.59 746.09 286.64 744.8 289.57 743.89 291.36 743.65 293.22 743.38 293.81 741.95 295.75 739.71 299.75 737.84 300.44 735.31 300.83 734.93 301.62 735.2 302.32 735.02 302.9 733.56 303.92 733.45 304.84 733.58 306.19 733.27 307.08 732.42 307.89 733.41 309.15 733.44 309.55 732.5 310.29 732.03 311.7 731.09 312.62 729.33 313.63 726.94 315.67 726.43 315.94 724.65 316.31 722.8 317.92 722.03 318.31 720.66 318.18 719.44 318.36 718.92 317.95 718.12 316.48 717.91 315.57 717.21 315.21 716.01 315.33 715.28 315.14 714.27 315.92 713.59 316 711.27 315.16 709.62 314.05 707.17 312.74 706.04 312.27 704.58 312.24 703.85 312.55 702.67 313.63 702.28 314.59 702.52 316.04 701.63 317.18 701.36 318.95 701.09 319.58 700.28 320.45 700.07 321.14 699.07 321.62 698.06 320.87 697.37 320.89 696.9 322.42 696.36 323.09 695.03 324.25 693.9 326.52 694.73 327.65 694.54 328.8 693.83 329.68 692.45 330.41 691.93 331.28 689.89 333.4 689.14 334.61 687.27 336.08 686.5 337.67 684.36 340.08 682.65 340.89 680.18 344.57 679.49 345.97 677.35 349.43 676.7 350.16 675.2 351.42 670.95 353.47 669.36 354.81 668.61 356.2 667.65 358.99 667.11 360.28 665.58 361.81 663.67 362.55 657.92 363.49 656.75 363.88 652.76 364.52 644.73 365.89 641.92 366.72 638.46 361.06 637.2 361.5 632.83 363.23 631.15 363.06 629.52 364.34 627.96 364.62 626.78 365.4 625.68 367.27 625.41 369.14 625.7 370.41 625.49 371.27 624.98 371.63 623.7 371.65 622.26 372.31 619.61 372.85 617.91 373.58 615.72 375.89 615.69 377.23 613.57 378.81 611.6 379.98 611.46 380.86 612.07 381.31 612.31 382.75 611.78 383.41 610.48 384.12 608.67 384.32 607.74 384.06 605.02 382.95 604.04 383.17 603.63 384.01 602.1 384.8 601.11 385.86 600.81 386.97 599.6 388.1 598.9 388.36 596.74 388.64 594.54 389.93 594.03 390.64 593.27 392.23 591.02 393.98 588.61 395.28 587.73 397.11 586.75 398.03 587.27 398.9 588.87 399.56 589.78 400.38 589.84 401.33 589.33 402.58 588.5 403.6 587.97 404.87 587.48 407.71 586.72 408.7 583.43 409.72 582.84 410.51 583.8 411.97 583.95 413.87 583.18 415.01 580.84 416.53 579.95 417.88 578.4 419.41 575.55 421.35 574.79 421.57 573.12 420.93 571.93 420.88 570.51 421.37 569.89 422 568.75 424.24 568.44 427.08 567.74 427.42 566.39 427.25 565.23 426.8 564.26 426.84 562.99 426.35 562.26 426.55 560.81 428.2 559.68 428.73 557.8 429.01 557.17 429.66 556.96 430.71 555.8 431.72 555.61 432.15 555.68 434.57 555.36 435.71 555.47 436.63 556.04 437.57 555.31 438.47 551.98 439.5 551.43 440.27 551.01 441.54 550.98 443.01 551.16 444 551.6 444.92 552.29 445.43 554.83 446.48 555.47 447 556.14 448.02 557.12 449.06 559.71 450.95 560.16 451.96 560.69 452.34 562.83 452.49 563.72 453.22 563.75 454.21 562.82 455.02 559.49 455.87 558.21 456.42 556.84 457.36 556.61 458.7 556 459.92 554.76 461.18 554.88 462.39 556.69 463.49 556.48 464.28 555.05 465.29 554.82 466.03 555.66 467.34 555.64 467.74 554.81 469.74 554.81 472.23 555.19 473.54 554.61 474.79 555.28 475.24 555.76 476.1 558.76 477.94 559.18 478.4 560.15 481.06 560.16 481.93 559.08 486.07 559.37 487.67 560.91 488.47 561.27 489.48 561.18 492.1 560.74 492.98 561.13 493.56 562.15 494.36 563.83 496.35 564.37 497.57 565.17 498.42 567.05 499.54 567.79 500.71 567.56 502.1 568.16 504.02 569.28 504.71 569.75 505.55 570.25 505.75 572.97 506.05 573.51 506.77 574.37 510.12 574.88 511.39 574.82 512.54 574.38 515.11 574.63 516.95 574.45 518.08 573.85 519.64 574.03 521.15 575.45 521.63 576.15 521.65 576.81 522.42 577.98 523.28 578.39 523.28 579.95 524.24 580.84 524.51 580.87 525.31 579.88 526.19 579.49 527.5 578.87 528.03 577.99 528.07 577.04 528.6 575.98 529.68 575.2 529.96 572.53 530.04 572.11 530.64 571.89 532.15 570.82 533.13 570.94 533.61 570.25 535.24 570.29 536.23 571.32 536.4 572.98 536.38 574.12 536.14 574.67 536.63 574.3 537.41 574.37 540.79 573.96 541.44 573.18 541.76 572.11 541.82 568.32 540.46 567.73 539.95 566.37 540.96 566.25 541.9 564.01 543.42 563.59 544.86 561.53 545.23 561.64 546.32 562.7 547.06 564.99 547.81 567.01 548.22 567.99 548.62 569.7 550.72 569.64 551.42 568.04 551.42 567.53 551.99 566.45 552.6 566.56 553.92 565.5 555.59 564.41 556.67 562.57 559.72 561.17 562.26 560.45 563.13 559.64 563.15 558.79 562.8 555.71 560.88 552.77 559.66 550.35 559.42 546.84 559.5 545.1 560.91 543.97 561.46 541.66 562.1 539.87 562.37 537.59 562.49 534.65 564.33 532.3 566.27 531.34 567.39 529.61 568.93 529.69 570.24 530.33 572.82 530.69 574.71 531.45 576.72 534.09 581.17 535.03 582.3 535.77 583.66 535.38 584.73 534.96 584.66 534.25 583.82 533.38 584.19 531.02 584.55 527.89 585.35 525.84 586.18 521.73 587.2 520.69 587.57 519.58 588.62 519.73 589.62 520.89 590.66 523.67 591.97 524.48 592.55 526.07 594.08 527.56 596.19 527.79 600.11 527.74 600.55 526.77 602.83 524.16 607.32 523.01 608.51 521.96 608.7 520.32 608.54 516.42 608.6 515.39 608.5 512.24 608.51 508.14 608.9 503.87 609.19 500.81 609.23 499.32 609.49 496.91 610.68 496.21 611.92 496.23 613.21 497.91 615.99 498.86 618.57 498.72 619.71 498.01 620.4 496.5 621.12 494.94 622.28 492.63 622.57 489.07 621.68 487.12 620.81 486.08 619.9 485.36 618.99 482.2 613.57 481.56 613.31 480.39 613.36 479.84 613.7 478.31 616.06 477.84 618.53 476.48 620.42 476.04 621.38 476.27 622.29 476.96 622.54 478.18 622.59 481.1 622.06 482.17 622.25 482.77 623.12 482.74 624.13 480.87 627.11 480.48 628.53 480.55 630.17 480.37 631.21 479.78 632.53 478.56 633.45 476.13 636.08 474.88 638.56 473.81 640.1 472.55 641.5 469.56 643.93 468.15 644.92 465.32 646.35 464.21 646.63 463.05 645.94 462.16 644.03 462.38 641.45 463.11 638.91 463.19 638.1 462.18 635.26 459.95 631.73 459.11 630.64 457.96 630.49 456.65 631.32 456.01 632.66 454.85 634.29 452.92 636.47 451.43 637.62 449.86 638.53 447.92 639.16 446.05 641.1 444.85 641.66 444.19 641.68 443.41 641.05 443.14 640.05 443.38 638.48 443.25 636.43 442.82 634.97 442.27 634.35 441.57 634.38 440.97 635.22 440.31 636.83 440.07 638.26 440.31 640.76 440.76 642.6 440.92 644.67 440.75 645.28 438.72 646.83 437.25 647.51 435.99 647.79 434.3 647.84 431.06 648.1 425.83 648.23 424.43 648.46 423.18 648.96 422.36 650.06 421.98 651.36 421.78 655.25 421.63 656.07 421.06 657.07 419.8 657.86 417.77 658.4 415.79 658.46 415.03 658.29 412.14 657.15 410 656.56 408.56 656.67 407.97 657.01 407.86 657.62 408.29 658.7 409.5 660.6 410.33 661.63 410.48 662.71 409.76 663.32 408.33 663.11 405.36 661.34 403.16 660.45 401.64 660.1 399.99 660.13 399.05 660.9 398.48 663.66 397.99 664.18 397.46 666.46 397.71 668.41 398.96 669.92 400.19 672.63 400.21 673.12 399.31 674.41 398.14 674.92 397.35 675 395.94 674.68 393.04 673.17 390.11 672.19 389.15 672.02 388.04 671.52 386.98 670.54 383.94 668.34 381.6 666.03 381.35 665.17 380.41 664.12 379.45 663.98 376.39 664.38 373.36 665.38 370.27 666.71 367.58 668.62 365.46 669.66 362.58 670.21 361.76 670.19 359.12 669.51 357.97 668.89 357.36 667.57 356.99 667.27 356.84 665.59 357.57 663.5 357.97 660.94 357.75 658.71 357.11 657.88 355.62 657.3 354.38 657.6 353.72 658.04 352.85 659.27 351.91 661.25 350.53 662.06 347.15 662.72 344.14 662.69 342.33 661.88 341.47 661.08 339.65 659.07 336.97 657.15 336.18 656.08 336.12 655.21 336.43 654.11 338.4 650.73 339.25 649.68 341.62 647.24 347.59 642.08 349.34 639.75 349.98 638.42 350.22 636.91 349.9 635.79 349.02 634.6 347.12 633.38 344.73 631.35 343.58 629.97 343.49 628.69 344.22 626.84 345.59 625.34 346.32 624.76 347.03 623.63 347.76 621.56 348.25 619.55 348.48 617.48 348.3 616.16 347.89 615.37 347.09 614.55 346.21 614.12 345.28 613.98 343.94 614.08 342.21 614.55 339.46 614.99 338.47 615.32 334.72 617.18 333.54 617.92 331.33 619.83 329.06 622.59 326.69 625.96 325.43 627.24 324.45 627.76 321.32 629.1 319.92 629.97 318.35 631.75 317.64 633.16 317.2 634.54 316.01 636.3 315.19 636.68 314.17 636.63 306.67 633.87 303.65 636.26 Z"/>
</g>
</svg>