<?xml version="1.0"?>
<svg xmlns="http://www.w3.org/2000/svg" version="1.2" baseProfile="tiny" width="800" height="362" viewBox="0 0 800 362" stroke-linecap="round" stroke-linejoin="round">
<g id="4203006">
<path d="M 225.13 4.36 224.91 5.91 225.92 6.67 226.84 6.96 227.66 7.57 227.74 8.34 228.19 8.79 227.12 9.38 226.7 9.33 226.36 10.03 227.36 11.91 226.61 12.76 226.84 13.63 226.28 14.36 227.4 14.18 227.44 15.21 226.92 15.83 226.81 17.33 226.98 17.69 225.93 18.27 224.33 18.31 224.5 19.04 224.48 20.31 224.76 20.95 224.86 22.22 225.41 23.13 226.24 24.08 225.76 24.72 226.19 26.14 228.11 26.58 229.1 26.98 229.44 27.65 230.23 27.58 231.31 27.86 231.56 28.62 232.21 29.14 232.01 29.71 232.56 30.6 233.13 30.91 234.16 30.95 234.57 31.31 234.62 32.4 235.32 33.24 235.92 34.5 235.87 35.22 236.23 36.34 235.93 37.88 236.22 38.82 235.88 40.18 234.93 41.5 234.67 43.64 235.24 44.18 234.67 45.98 235.15 46.84 235.14 47.5 234.71 48.04 235.18 49.53 234.82 50.55 234.25 51.4 234.02 52.41 233.53 52.95 233.99 54.44 233.67 56 233.25 57.27 234.04 58.44 234.54 58.52 234.92 59.1 234.82 59.72 236.54 60.56 236.62 61.49 237.9 63.47 238.08 64.46 239.62 64.68 240.52 65.61 243.06 66.03 243.55 67.23 245.29 68.02 246.97 68.19 248.37 68.7 249.59 69.92 250.43 70.06 251.22 69.89 251.99 69.44 252.35 67.77 253.17 66.98 254.38 66.89 256.3 67.7 257.87 67.76 258.77 68.16 259.35 68.17 260.27 67.67 261.87 67.76 262.59 67.34 264.27 67.54 265.47 67.28 266.63 67.33 267.36 66.85 269.27 66.91 271.21 67.29 272.51 67.18 273.75 66.9 274.87 66.26 276.31 64.65 276.03 62.71 277 61.61 278.52 61.49 279.41 60.85 281.29 59.78 282.85 58.31 283.45 58.25 284.48 57.55 284.87 57.56 285.65 59 286.29 59.59 286.65 60.67 286.99 61.06 288.32 61.82 289.81 62.25 290.57 62.81 291.76 64.49 291.77 65.61 291.52 67.17 290.71 68.08 290.44 69.34 291.27 70.41 293.63 71.65 294.76 72.14 296.65 72.56 297.83 73.58 298.69 75.16 299.7 76.11 300.68 76.53 301.61 77.26 302.17 77.27 304.5 76.79 305.93 76.3 307.79 75.27 308.6 74.63 310.98 71.83 312.31 70.79 313.77 69.42 314.63 69.81 314.85 70.9 315.52 72.05 316.21 72.61 320.03 75.04 321.45 76.4 322.12 76.79 323.83 77.4 326.26 77.27 328.42 76.72 329.67 76.5 330.25 76.68 332.13 78.5 332.4 78.92 332.45 79.88 332.16 80.83 332.07 82.32 332.52 83 335.96 84.95 336.93 85.94 338.96 86.91 339.73 87.77 340.27 88.97 340.34 89.92 340.66 91.07 341.45 92.48 343.48 94.39 344.17 95.42 345.03 97.25 345.66 97.96 346.48 98.44 348.86 98.87 350.24 99.25 352.7 100.45 355.04 101.15 357.4 101.58 359.07 102.87 360.34 103.18 362.86 102.69 364.36 101.64 365.03 101.73 365.33 104.1 365.26 104.76 364.43 107.2 364.42 108.07 365.29 109.48 368.21 108.2 369.73 108.23 370.95 108.59 372.52 108.58 375.13 108.31 376.25 108.85 377.66 108.8 378.08 108.61 380.67 108.6 381.69 108.41 382.03 107.99 383.26 107.65 384.74 106.58 386.33 106.11 386.67 105.83 386.9 104.6 387.54 104.09 388.08 103 388.58 102.69 389.52 103.15 392.46 102.96 393.08 103.13 394.37 103.03 395.29 102.62 396.88 102.78 397.73 103.18 398.32 103.78 399.88 104.05 400.47 103.77 401.51 104.26 402.77 103.55 403.54 102.77 403.98 101.97 404.19 100.96 403.71 99.37 404.07 98.7 405.19 98.69 405.62 98.17 405.35 96.92 405.36 93.89 405.99 93.34 408.03 92.87 410.1 93.57 411.31 93.57 412.21 93.12 415.08 92.4 416.34 92.26 417.63 92.75 419.11 92.69 420.19 93.27 421.84 92.83 423.51 92.6 424.26 92.68 424.84 93.36 425.61 93.33 427.35 93.64 429.7 93.41 431.07 93.45 432.05 93.06 433 93.02 434.36 93.64 435.64 93.53 438.13 93.98 439.81 93.99 440.44 93.67 440.7 92.98 442.05 92.94 443.79 92.67 444.95 93.04 445.27 93.78 446.26 93.98 447.8 95.35 450.04 95.34 450.91 94.98 453.42 95.4 454.78 96.19 457.09 97.01 458.52 97.04 459.62 96.36 460.71 96.01 461.46 96.02 462.79 96.92 464.44 97.64 465.73 99.43 466.81 99.23 467.1 98.49 468.7 97.89 470.05 95.78 471.5 93.98 471.95 91.2 473.58 89.31 474.72 88.29 475.94 87.63 478.64 87.4 479 87.73 479.56 87.29 480.63 86.84 479.9 84.8 479.53 84.08 479.24 81.86 479.68 81.48 481.1 81.36 481.65 81.67 484 81.12 484.63 80.38 484.85 79.73 485.06 78.04 485.45 77.75 488.29 77.65 489.78 76.08 491.2 75.46 492.71 76.21 493.27 76.12 493.61 75.61 494.41 75.28 494.83 75.83 495.61 76.29 496.75 76.12 497.94 75.55 498.99 74.71 498.87 73.86 499.46 73.06 500.15 71.13 500.16 70.2 499.77 69.52 500.51 68.64 500.48 67.59 500.92 66.89 500.8 65.91 501.45 65.35 501.1 64.4 501.12 63.42 504.08 61.67 504.86 61.64 505.54 61.08 506.29 60.8 507.02 60.07 507.56 60.01 509.01 59.29 510.26 58.46 511.53 57.22 512.62 56.52 513.15 55.47 513.59 55.2 514.99 55.02 515.65 54.67 517.42 53.35 517.79 52.89 519.04 52.45 519.4 52.03 521.27 50.71 523.62 49.28 525.1 48.5 526.79 47.42 528.7 45.89 531.72 43.94 532.51 42.73 533.5 42.48 535.02 41.89 535.55 41.48 537.26 41.06 538.48 39.93 539.23 39.51 540.38 39.16 541.07 39.31 542.58 40.17 543.08 40.76 545.15 39.63 546.15 39.34 547.41 38.65 549.03 38.33 549.78 38.4 550.74 38.81 552.91 38.74 553.33 38.39 555.13 38.15 557.74 38.4 558.9 38.27 560.12 37.41 562.08 37.4 563.63 36.94 564.89 37.19 565.84 37.77 566.34 38.68 566.65 40.25 566.79 42 566.72 43.03 566.33 44.59 566.45 46.03 567.13 47.19 568.43 47.8 569.72 47.83 571.19 47.49 571.98 46.53 573.52 43.05 574.73 42.09 576.23 41.44 578 41.22 582.71 41.08 584.13 40.96 585.41 41.23 588.48 42.54 589.84 43.02 591.4 43.04 592.52 42.83 594.79 41.9 595.68 41.75 596.68 42.27 596.78 42.88 596.2 44.38 595.11 46.11 594.83 46.8 595.25 48.74 596.11 49.33 597.74 49.5 598.85 49.35 600.2 48.86 602.58 48.74 603.74 48.95 604.28 49.38 604.53 50.07 604.48 51.06 603.8 52.38 603.47 54.23 603.98 56.28 604.75 60.6 605.02 61.34 606.33 61.83 609.74 62.11 612.45 62.76 613.18 62.75 614.37 62.3 615.87 60.91 617.6 59.89 619.16 59.71 620 59.42 621.19 58.74 623.35 58.4 628.37 58.73 629.38 59.09 630.05 59.75 630.78 61.53 630.89 63.05 631.25 64.35 633.07 67.49 633.64 67.82 635.71 70.03 636.4 71.46 636.73 72.71 637.13 74.98 636.93 76.19 636.34 77.09 635.18 79.49 634.5 80.19 633.29 80.95 631.45 81.14 629.1 81.65 626.46 82.95 626.16 83.57 625.89 85.06 626.01 85.9 626.68 86.73 627.66 87.23 631.32 88.63 632.66 88.88 634.19 89.7 634.79 89.8 637.39 89.68 638.25 89.75 639.73 90.82 641.58 91.64 642.76 92.52 643.89 93.71 644.6 94.08 645.85 94.21 649.01 94.28 651.65 93.71 652.78 93.79 653.44 94.11 653.88 94.66 655 95.42 656.02 95.86 657.38 96.22 658.5 96.96 661.13 99.93 662.6 101.45 664.12 102.39 667.55 105.41 668.03 105.94 668.36 106.82 668.36 107.61 667.88 109.06 667.15 110.16 666.94 110.8 666.94 112.13 667.36 113.99 667.82 114.78 668.37 115.1 670.51 115.07 673.09 115.96 674.5 115.96 676.05 116.29 677.46 116.08 679.35 115.36 680.95 114.07 681.65 113.72 683.02 113.47 684.86 114.03 688.04 116.47 690.47 118.12 691.09 118.77 694.61 121.5 696.58 122.43 698.09 124.19 698.78 125.87 698.32 127.86 697.67 129 695.78 131.82 695.35 132.63 694.42 134.99 694.25 135.69 694.57 136.73 695.44 138.1 697.35 139.03 698.18 138.98 699.3 137.33 700.02 136.68 700.8 135.67 701.93 134.91 702.89 134.5 705.03 134.1 706.63 134.1 707.53 134.59 708.87 135.94 710.16 136.5 711.97 136.97 714.58 137.14 716.57 137.01 718.96 137.02 720.63 137.12 722.61 137.66 728.8 139.55 729.66 140.2 729.92 140.9 729.69 141.76 728.37 143.42 727.9 144.73 727.88 146.51 728.24 148.59 729.38 152.01 729.52 153.75 729.44 155.09 728.93 156.9 729.07 159.87 729.78 160.5 732.25 159.94 733.47 159.42 735.19 158.3 735.95 158.11 737.43 158.39 737.94 158.89 738.09 160.14 737.86 161.97 738.27 162.93 739.18 163.17 740.07 163.17 743.1 161.97 745.26 161.62 746.5 161.63 749.06 162.12 752.27 163.26 756.51 165.41 757.49 166.09 758.82 167.58 760.17 170.07 760.98 170.66 763.42 172.15 764.17 172.44 768.93 174.88 770.76 175.07 773.12 174.35 773.28 174.94 772.97 175.57 771.22 177.36 770.98 178.23 771.42 179.06 772.09 179.49 775.24 180.25 776.76 180.99 779.68 181.69 781.89 181.49 785.07 182.06 789.06 183.18 790.47 184.03 791.21 184.81 793.46 186.07 794.06 186.72 795.22 187.52 796.18 188.85 796.47 189.48 796.41 191.65 797.08 193.88 797.54 195.92 798.65 197.34 799 198.04 798.85 198.8 798.1 198.71 797.03 198.22 796.55 198.88 796.3 199.99 795.38 200.31 791.49 199.4 790.41 199.32 789.17 200 787.87 201.85 784.52 207.68 783.55 208.83 783.35 210.75 781.75 211.8 779.84 212.57 777.71 214.2 776.96 214.98 775.56 217.47 774.51 219.66 773.23 220.9 772.02 221.76 770.95 222.71 769.29 223.85 768.25 224.9 767.75 226.11 766.94 229.39 766.79 231.67 767.1 233.19 767.74 235.15 768.52 236.3 768.65 237.3 767.38 240.78 766.78 241.65 765.44 242.67 762.89 243.53 762.26 244.07 761.97 245.11 762.15 248.1 761.52 248.7 758.33 249.79 757.37 250.28 756.36 251.04 756.08 251.71 756.19 253.11 755.92 253.85 755.18 254.72 754.89 255.43 755 256.16 755.86 258.06 755.95 258.79 754.87 261.65 753.11 262.44 752.8 262.72 752.71 263.57 753.34 264.69 753.62 265.63 753.61 266.87 752.23 268.13 751.33 269.18 750.87 270.97 749.97 272.19 748.09 273.32 747.27 274.16 745.56 275.37 744.6 275.89 741.61 276.98 741.02 277.33 739.12 279.46 739.11 280.42 739.42 281.12 738.69 284.26 738.06 284.74 736.91 285.07 736 285.54 735.31 286.43 735.05 287.96 735.76 289.65 736.99 290.83 736.86 291.75 735.35 292.71 733.96 292.62 732.17 292.76 731.84 292.99 731 294.53 730.1 295.21 728.84 295.49 728.03 296.08 727.92 296.73 728.18 297.74 729.8 300.67 730.03 301.69 729.94 302.68 729.2 304.61 728.98 305.54 729.08 307.91 729.84 309.77 731.7 311.83 733.16 312.96 733.98 313.24 735.77 313.4 736.44 313.62 738.43 315.17 739.57 316.6 739.65 317.52 739.4 318.67 738.34 319.51 736.3 319.54 735.38 320.4 734.5 322.22 735.01 319.34 734.36 318.23 733.06 318.05 730.98 318.3 730.15 319.08 727.23 320.4 726.72 320.82 725.66 321.28 723.37 321 722.82 321.15 720.23 322.93 719.82 323.86 718.61 324.2 717.69 325.02 716.31 325.24 715.24 325.85 711.47 327.28 709.77 327.38 709.15 327.6 707.6 327.78 706.8 328.21 704.85 328.7 703.16 328.63 702.1 328.18 699.1 328.12 697.33 328.48 696.77 329.28 696.66 330 696.01 330.42 695.27 331.44 695.04 332.64 694.73 333.01 693.63 333.58 693.19 334.04 692.9 334.9 693.01 336.15 692.12 337.27 691.79 338.01 690.73 338.93 688.75 338.93 687.1 340.51 686.05 340.14 684.97 339.24 684.03 337.78 682.93 336.35 682.16 336.12 681.3 336.63 680.36 336.74 678.91 337.47 677.2 337.6 676.37 338.07 674.87 338.25 673.23 338.81 672.28 339.66 671.6 339.91 670.63 340.78 669.4 340.64 665.73 338.48 664.91 337.27 663.91 337.49 662.46 338.79 661.41 339.32 659.79 338.36 658.94 338.44 658.9 339.09 659.55 340.39 659.36 341.69 658.94 342.35 657.98 343.36 656.72 343.98 657.52 345 657.61 345.61 656.94 345.97 656.37 345.64 654.84 345.64 654.23 345.82 654.1 347.06 654.61 349.54 653.53 349.74 651.03 350.65 649.45 351.43 647.91 351.59 647.2 351.19 645.62 350.82 645.02 349.83 644.38 349.27 642.7 349.8 641.28 349.93 639.48 349.54 638.01 349.48 636.89 349.6 636.26 349.97 635.83 350.72 636 351.25 637.05 352 636.69 353.12 636.13 353.95 634.9 355.05 634.44 356.52 635.39 356.88 634.33 358.15 633.53 358.7 632.77 358.02 632.13 358.43 632.06 359.98 631.37 361 630.46 361 630.67 360.4 630.17 359.99 628.89 359.53 627.64 359.3 625.57 358.59 624.44 357.82 624.64 357.43 625.48 357.08 625.12 356.56 623.69 356.46 623.47 356.67 623.62 357.83 623.05 357.82 623.13 355.69 622.48 355.47 620.69 355.88 620.17 356.47 619.71 356.55 619.21 355.88 618.44 356.05 618.35 355.37 617.93 354.81 616.53 354.68 616.06 354.38 616.06 353.22 615.58 352.47 614.91 352.05 614.59 349.86 614.44 349.67 612.37 348.98 612.09 348.45 613.75 346.93 613.74 346.52 612.92 346.27 612.09 344.84 611.74 343.56 610.92 343.11 610.06 343.77 609.31 343.74 608.22 343.32 607.91 341.95 608.73 340.57 608.18 340.01 607.26 340.56 606.87 340.53 606.4 339.82 605.23 339.56 604.61 340.77 604.15 341.18 603.24 340.91 602.81 341.18 602.25 342.04 601.43 341.61 600.08 340 598.76 340.47 596.5 340.5 596.49 340.99 597.48 341.26 598.44 342.05 599.32 343.44 598.62 343.86 598.01 343.18 596.97 343.28 595.54 343.8 594.06 343.8 593.2 344.25 592.21 346.17 590.74 346.85 590.2 347.63 590.21 348.36 589.79 348.55 587.92 348.41 585.75 347.75 585.23 346.81 584.35 346.34 583.88 345.59 583.02 345.46 581.2 348.24 580.63 348.67 579.28 348.94 577.79 349.81 576.73 349.64 575.89 350.26 573.9 352.8 573.24 352.86 572.92 354.03 571.54 354.73 571.37 354.22 571.79 353.37 571.11 352.58 571.06 352.02 571.58 350.87 571.32 350.26 570.05 349.97 569.04 349.44 568.84 348.92 568.99 347.36 568.77 346.47 567.64 344.22 567.33 342.94 567.53 340.68 567.81 339.63 568.29 339.26 569.84 339.15 570.06 340.13 570.72 340.51 571.8 340.47 572.74 340.2 573.56 339.59 574.75 338.14 576.9 337.71 577.79 336.92 577.7 336.22 577.26 335.77 575.02 334.4 574.26 334.45 572.9 334.85 572.41 335.22 571.97 336.19 570.76 336.22 569.73 335.81 569.34 335.19 568.21 334.31 566.54 334.35 565.55 334.63 564.39 334.3 564.38 333.59 563.95 332.71 563.77 331.82 564.05 331.48 565.64 331.03 566.05 330.71 566.55 329.48 567.15 328.82 567.13 328.3 566.38 328.09 565.52 328.3 563.72 329.36 562.95 329.57 562.45 328.89 560.73 329.28 559.08 330.13 559.05 331.12 557.65 330.99 557.46 331.44 557.8 332.63 556.34 332.67 555.75 332.31 554.31 332.36 551.36 332.15 550.75 331.53 550.36 330.25 549.74 329.95 549.89 329.35 548.85 327.94 547.49 327.36 547.14 327.03 547.13 326.32 548.31 324.41 548.68 323.34 549.51 322.94 551.27 323.54 552.16 323.34 553.77 322.45 554.98 321.35 556.09 319.88 556.7 319.45 557.56 318.3 557.2 317.47 555.91 317.35 554.28 317.57 553.06 317.42 552.16 316.4 551.32 316 550.09 315.78 549.11 315.91 547.17 314.93 546.58 314.26 546.19 312.96 546.58 310.58 545.73 310.2 543.27 310.24 542.47 309.86 543 308.73 542.89 308.2 541.42 307.7 540.34 307.8 539.05 308.48 538.8 309.54 539.65 311.49 539.52 313.07 538.96 313.82 537.53 314.65 536.3 315.14 535.4 315.2 534.38 315.63 534.11 316.13 533.44 316.05 532.04 317.4 531.12 317.21 531.06 317.67 530.38 318.2 529.99 319.32 529.49 319.31 529.12 318.53 528.7 318.64 527.82 319.76 527.19 319.88 527.14 318.84 525.93 317.49 525.44 316.73 526.09 313.68 525.79 311.82 525.43 311.04 525.77 310.21 525.56 309.65 524.54 308.91 524.24 308.34 523.65 308.7 522.41 308.32 521.54 309.43 520.4 309.22 517.9 309.42 517.13 309.96 515.16 309.85 514 309.41 513.36 308.64 513.18 307.5 512.74 306.86 511.24 305.9 510.69 305.27 509.81 302.82 508.73 301.5 507.54 301.46 506.74 301.77 505.32 303.06 504.57 303.43 503.91 304.34 504.34 305.9 505.21 307.57 505.37 308.45 504.77 309.47 504.71 310.39 504.97 310.84 503.51 311.47 501.47 311.88 499.33 311.32 498.68 311.04 498.64 310.4 498.18 309.89 496.88 309.88 494.98 308.12 493.85 307.91 492.75 307.45 490.78 307.81 490.06 309.28 488.18 310.44 486.71 310.74 485.86 311.91 485.84 312.68 484 314.73 483.24 314.9 482.48 313.89 481.86 312.18 481.39 309.88 481.63 308.4 482.04 307.77 482.94 307.09 482.98 306.29 482.12 305.42 480.39 305.71 479.89 305.38 479.91 304.72 480.61 303.1 481.52 299.59 482.06 298.01 481.97 297.3 481.14 295.84 480.39 295.02 477.87 294.71 476.29 295.28 474.32 296.78 473.72 297.94 472.81 299.3 471.93 300.2 471.38 301.6 470.75 302.59 469.78 303.38 467.77 304.1 466.61 304.09 464.75 303.55 464.41 302.71 465.2 300.9 465.52 299.77 465.55 298.9 465.15 298.33 464.25 297.71 461.75 296.8 460.1 295.4 459.17 294.13 460.31 294.06 461.65 294.28 462.24 294.02 464.87 293.36 466.65 293 468.43 292.3 468.49 291.71 468.01 290.77 468.27 289.99 468.4 287.81 469.8 286.03 469.84 285.35 470.97 284.27 470.45 283.32 468.99 282.88 467.12 282.49 465.67 282.64 464.31 281.11 463.34 279.84 462.37 279.57 461.52 279.58 460.82 280.21 460.09 280.31 458.78 279.54 458.25 279.43 456.48 279.75 455.26 279.6 453.92 279.21 453.21 279.57 452.14 280.8 451.28 280.95 449.39 280.56 447.17 280.46 445.74 280.77 442.79 280.87 441.11 281.23 439.06 281.39 438.04 281.83 435.6 281.92 434.16 281.65 432.66 281.2 431.3 280.93 429.77 281.17 427.35 280.93 426.6 281.08 425.66 280.42 425.31 279.11 423.93 278.5 423.39 277.93 421.74 277.08 420.82 277.05 419.2 277.55 417.89 278.39 416.93 278.17 415.85 278.17 412.25 278.87 410.97 278.34 409.47 277.2 407.7 276.65 407.13 276.29 405.98 275.06 405.81 273.87 404.87 272.79 404.13 271.3 403.39 270.64 401.63 269.92 400.13 268.7 398.43 268.43 397.16 269.14 395.41 269.55 392.6 270.64 391.14 271.48 390.21 271.79 389.81 272.51 389.14 272.96 388.03 273.05 387.66 273.8 386.47 273.9 385.25 273.52 384.67 272.86 383.55 272.56 382.45 273.21 381.7 274.22 381.85 275.35 380.74 275.99 379.77 277.72 378.64 278.63 378.58 280.12 376.76 280.81 373.9 281.78 373.32 282.38 371.31 281.25 370.9 280.8 371.12 279.88 370.68 278.81 370.22 278.38 369.36 276.87 369.51 275.81 369.33 275.31 367.65 274.38 366.88 274.46 365.28 275.36 364.35 275.5 362.93 275.13 361.14 275.15 359.04 275.63 358.29 275.63 357.24 276.12 356.67 276.83 355.34 277.63 354.04 277.96 353.48 277.56 353.42 276.99 351.98 276.85 350.86 276.45 349.44 276.41 348.01 276.61 346.81 276.18 345.86 276.22 344.21 276.02 342.99 276.04 342.13 275.45 340.61 275.12 338.43 275.34 337.59 275.28 335.31 274.56 333.08 274.47 331.84 273.74 331.52 273.2 330.33 272.39 329.05 272.45 326.72 272.05 325.89 272.07 325.1 271.74 321.63 272.95 319.48 272.89 318.34 272.99 316.56 272.68 314.6 273.15 313.62 272.65 312.35 271.03 311.68 270.82 310.14 270.81 308.34 270.42 307.48 270 306.22 269.89 305.58 269.48 304.61 269.34 304.03 268.8 303.15 268.79 300.69 269.13 299.27 269.09 298.46 269.27 296.8 270.27 296.44 270.68 285.57 294.17 283.99 293.82 281.74 292.74 280.9 292.72 279.35 291.67 278.87 291.56 277.72 291.95 276.94 291.66 276.17 291.8 273.34 292.89 272.31 292.96 270.63 293.78 268.47 295.69 266.88 296.35 264.76 297.62 262.88 297.85 261.43 298.44 260.09 299.46 259.67 299.6 258.78 299.33 258.46 300.55 256.34 301.29 255.75 301.37 255.15 302.47 253.89 302.51 253.73 303.17 252.96 303.9 253.36 304.66 253.08 304.98 252.22 304.96 252.46 305.76 251.57 306.31 251.62 306.89 252.14 307.95 251.07 308.78 250.78 309.99 251.24 310.68 251.84 311.1 251.66 311.86 251.02 313.16 251.02 314.36 250.41 314.78 248.07 314.39 246.72 314.52 246.44 314.99 245.82 315.14 245.08 314.36 244.42 314.28 243.49 314.5 242.14 314.33 241.73 314.51 241.65 315.4 239.44 317.2 239.28 317.82 239.95 318.88 239.45 319.37 238.8 320.97 238.77 322.11 240.5 323.39 239.7 324.06 238.62 324.21 237.39 324.08 236.67 323.34 235.85 322.83 235.42 323.09 235.29 323.86 234.34 325.02 231.91 324.11 231.31 324.5 230.81 325.4 230.3 325.58 227.68 325.85 225.12 325.52 224.42 325.26 224.47 324.66 223.63 324.36 222.1 325 221.85 325.35 222.04 327.01 222.4 328.11 223.34 328.86 223.79 329.8 223.68 330.8 223.23 330.7 222.55 332.17 220.27 332.24 219.84 332.9 220.11 335.24 218.52 336.82 217.79 338.74 217.2 338.81 214.82 337.51 166.09 323.33 166.47 322.85 168.43 322.03 170.32 321.67 171.69 320.5 172 319.58 172.82 318.58 172.85 317.2 173.3 316.63 174.64 316.8 176.78 316.42 177.71 315.82 178.49 316 179.49 317.24 180.78 317.94 181.45 318.08 182.55 317.91 183.24 316.99 183.42 315.59 183.94 314.57 183.56 313.52 182.9 311.03 183.4 309 183.48 307.49 183.1 305.83 182.68 304.97 182.2 304.79 180.54 305.03 179.51 305.62 178.49 306.78 178.09 307.53 176.98 308.5 175.75 309.14 174.26 309.45 173.22 310.24 170.85 310.67 169.62 310.51 169.09 309.64 169.06 309.08 169.53 306.46 169.56 304.22 169.84 303.54 171.13 302.24 173.59 300.9 174.49 300.26 175.81 298.71 175.93 297.75 176.48 296.99 176.33 296.2 175.4 294.58 175.62 293.47 177.7 291.71 178.83 291.18 180.98 290.96 182.23 291.4 183.03 291.26 187 289.37 188.19 288.15 188.65 286.83 190.14 283.67 190.65 283.3 192.15 282.83 193.32 283.09 194.68 282.54 195.7 281.36 196.65 279.98 197.57 279.26 197.61 278.08 198.03 277.26 198.52 276.86 200.35 276.11 205.7 274.97 214.65 269.04 215.59 269.33 217.17 268.96 218.31 268.38 219.35 267.47 219.15 266.2 217.95 265.51 217.35 264.58 217.27 263.22 217.73 262.75 219.84 261.9 220.31 261.39 221.35 260.92 222.59 260.01 223.85 259.54 224.46 259.69 225.55 260.62 227.09 261.36 227.52 261.78 229.6 261.76 230.25 261.29 229.62 260.36 228.86 258.64 228.76 257.21 227.08 255.32 225.34 254.28 224.55 253.06 223.8 252.32 222.18 251.52 221.25 251.74 220.53 251.68 219.18 250.78 219.02 250.07 218.47 249.85 218.61 249.15 219.14 248.03 219.74 247.7 220.8 248.24 222.26 246.61 223.56 245.79 225.06 245.42 226.41 246.17 228 246.13 225.93 229.71 224.98 229.01 223.97 227.85 222.68 226.62 222.07 225.64 221.66 224.17 220.42 223.1 218.85 222.44 217.4 220.99 216.11 219.9 214.22 218.73 213.57 217.84 212.05 213.33 211.56 212.59 210.63 211.95 207.85 212.41 203.64 193.74 200.07 194.23 198.06 194.18 197.03 193.77 195.64 192.88 193.2 191 191.98 190.17 189.48 188.94 181.6 185.67 180.08 185.18 179.31 185.14 176.84 185.64 176.14 185.65 173.91 185.21 166.07 183.26 164.34 182.52 162.51 181.49 155.06 177.47 154.15 176.87 151.78 175.09 148.57 172.81 144.82 169.06 143.77 168.14 139.65 165.11 131.21 159 130.35 158.51 129.37 158.58 128.06 159.12 127.29 159.18 126.06 158.82 124.29 158.13 122.48 157.66 120.33 157.83 119.42 157.68 111.71 154.86 107.46 153.23 106.11 152.18 104.44 149.6 101.34 144.57 100.24 143.84 96.42 142.56 95.16 142.34 86.93 141.94 83.99 142.09 78.8 142.14 74.47 141.67 72.81 141.9 71.72 142.54 69.86 143.9 69.24 144.17 67.92 144.35 64.11 143.76 63.4 143.74 60.3 144.16 59.22 144.49 57.04 145.62 55.62 145.94 52.1 146.05 44.43 146.15 43.12 145.79 42.08 144.97 35.09 139.1 33.54 138.44 20.05 134.01 19.09 133.62 12.84 129.57 11.42 129 5.67 127.06 2.87 125.93 1 125.08 1.32 120.13 4.78 117.47 12.53 115.3 16.24 113.71 18.82 111.13 21.04 107.42 22.57 104.31 23.66 101.81 24.17 99.87 25.44 96.48 25.47 94.39 24.83 91.91 24.86 90.59 24.65 89.24 24.72 88.04 25.2 86.86 25.24 85.35 25.74 83.77 25.84 80.35 25.56 78.31 22.74 75.36 22.39 74.06 21.48 73.53 18.03 72.89 13.24 71.5 11.68 70.7 10.6 69.9 9.64 68.98 9.29 68.02 9.32 66.99 9.84 66.25 15.54 63.03 16.09 62.34 17.8 61.02 18.66 60.17 19.38 59.2 20.01 57.62 21.12 56.19 21.85 55.83 22.92 55.64 24.21 54.86 26.12 52.15 27.7 50.25 29.76 49.2 32.38 48.76 33.67 48.87 35.05 48.78 36.21 48.31 36.89 47.61 37.88 46.99 38.39 46.22 39.16 45.48 40.27 45.05 41.35 44.85 44.1 44.61 45.26 44.29 46.16 43.86 47.11 43.7 48.1 44.12 49.71 45.41 52.38 46.13 53.76 46 55.17 45.22 56.76 44.75 58.18 44.7 60.11 44.07 61.7 43.14 63.27 41.32 64.95 40.39 66.15 40.3 69.04 40.47 70.37 40.46 71.48 39.84 72.34 38.72 73.22 36.17 73.51 35.59 74.38 35.59 75.88 35.85 76.74 35.76 77.64 35.1 78.33 33.8 79.24 33.42 79.76 32.96 80.63 32.67 81.58 32.59 83.42 31.71 84.88 31.25 86.73 31.21 87.02 31.65 89.52 31.55 89.72 30.91 90.78 31.05 91.2 31.48 92.54 32.05 94.1 31.76 95.4 32.15 97.74 31.88 100.43 32.92 100.95 33.4 101.65 32.65 102.32 30.66 103.48 30.19 104.42 28.79 106.86 29.07 107.97 28.84 109.16 29.38 109.55 30.02 110.24 30.54 111.23 30.89 113.03 31.25 113.44 31.85 113.49 33.28 113.82 34.38 114.31 35.11 113.87 36.59 114.22 39.36 114.6 40.25 115.18 40.84 116.37 42.41 118.27 41.9 118.96 40.91 119.49 40.55 120.31 39.37 121.2 39.2 122.15 38.57 124.29 38.53 125.56 38.78 126.4 38.51 127.72 36.85 128.25 36.41 130.23 35.47 131.13 34.87 132.43 34.67 133.13 34.94 134.65 35.15 136.35 35.92 137.15 36.51 138.8 38.13 139.49 38.43 141.77 38.68 142.95 39.29 143.71 39.91 144.65 39.35 145.44 37.36 146.43 37.06 147.08 37.38 147.36 38.3 148.37 38.88 148.7 39.71 149.87 39.72 151.03 39.35 151.68 39.78 151.8 40.39 153.01 40.74 154.1 39.95 155 38.74 155.93 38.23 158.15 37.27 158.99 37.49 159.57 37.39 160.24 36.34 160.73 37.35 162.4 37.31 163.74 36.82 163.56 35.97 164.27 35.78 165.49 36.38 166.75 37.53 167.38 37.78 168.2 36.31 169.93 36.01 170.02 35.63 169.28 34.67 169.08 34 168.31 32.65 168.37 29.01 167.96 28.39 168.05 27.09 167.55 25.63 167.44 24.82 166.95 24.21 166.88 23.65 167.23 23.17 168.14 22.83 171.55 22.3 176.55 22.14 179.72 21.9 180.16 21.61 180.26 20.87 180.01 20.22 178.33 18.67 177.16 18.02 176.33 15.69 175.88 15.15 175.84 14.5 176.59 14.01 179.91 13.99 180.96 14.15 182 14.67 182.35 15.22 183.55 15.67 184.44 15.46 185.22 14.3 186.49 14.49 186.16 15.58 186.44 16.26 187.61 16.48 188.28 17.04 188.85 17.08 189.67 16.7 189.86 16.22 189.31 15.36 190.29 14.46 192.04 13.37 193.07 12.86 194.36 11.75 194.65 11.12 194.86 9.79 193.87 8.36 195.33 7.54 195.68 5.98 197.78 5.01 198.24 4.55 198.35 3.58 198.92 2.37 199.8 1.24 200.48 1 201.44 1.11 203.43 1.95 204.6 2.79 205.53 3.21 205.94 3.67 206.29 4.71 207.24 5.48 208.22 5.52 208.02 4.64 208.39 4.06 208.99 4.08 211.22 3.35 215.27 3.9 216.66 3.47 218.18 3.43 220.24 3.02 221.06 3.02 223.24 5.17 224.62 5.41 225.13 4.36 Z"/>
</g>
</svg>