<?xml version="1.0"?>
<svg xmlns="http://www.w3.org/2000/svg" version="1.2" baseProfile="tiny" width="800" height="530" viewBox="0 0 800 530" stroke-linecap="round" stroke-linejoin="round">
<g id="4203501">
<path d="M 797.54 41.07 797.51 42.71 799 42.05 797.9 46.27 796.54 48.33 796.38 49.83 795.34 52.13 792.93 54.25 790.88 57.93 790.15 60.06 789.07 61.44 787.89 62.25 786.12 62.81 784.08 64.08 783.08 64.08 781.95 65.5 781.07 65.65 780.07 67.06 778.35 67.79 776.38 68.15 773.72 70.7 773 71.07 773.02 72.26 772.05 72.6 769.76 74.15 768.08 75.01 766.83 76.58 765.3 77.24 763.85 79.48 764.88 81.19 764.79 82.57 763.26 83.83 763.27 85.42 764.3 87.61 763.05 89.01 765.74 90.39 765.92 91.75 764.49 93.31 765.29 95.19 763.84 96.48 764.33 99.15 763.6 99.85 761.63 99.76 760.49 100.28 759.9 101.52 759.88 102.91 760.63 103.6 760 104.46 760.46 106.87 760.08 107.92 758.63 109.02 757.26 113.15 757.97 116.3 756.08 116.22 755.05 117.81 754.87 118.8 753.81 121.02 753.21 121.54 751.6 121.81 749.49 123.83 748.07 124.1 745.9 123.95 744.01 123.14 743.47 123.44 743.55 125.66 743.29 126.78 743.97 128.66 743.64 130.97 742.75 131.7 742.48 133.14 743.46 135.3 743.07 136.87 740.61 136.22 739.75 137.3 740.61 138.63 741.93 139.67 739.19 141.78 737.52 142.52 737.45 144.32 738.78 145.2 741.72 146.04 742.66 147.01 742.49 149.06 740.61 150 740.25 150.69 740.87 152.1 739.72 153.77 740.76 155.28 740.24 156.07 739.1 156.01 738.95 157.57 737.73 158.46 737.65 159.93 739.95 162.11 740.26 163.42 741.12 164.8 740.02 166.1 738.61 166.94 737.56 168.13 735.87 168.33 735.36 170.47 734.58 171.23 734.29 172.83 734.55 173.76 737.46 176.8 737.23 178.41 736.02 179.26 733.91 178.54 732.4 178.59 730.51 180.15 729.9 181.8 728.67 182.73 727.05 182.43 726.26 184.91 724.91 184.51 722.57 184.92 723.97 187.32 722.92 188.9 722.69 193.65 722.85 194.82 724.9 195.44 727.8 195.4 728.12 197.83 727.75 200.58 727.34 201.83 727.18 204.29 728.25 209.31 728.92 210.83 731.47 211.35 733.19 213.18 734.08 215.53 731.15 216.45 730.24 217.78 728.81 215.38 729.63 214.12 724.13 212.63 724.36 210.81 722.71 209.97 719.2 210.92 717.45 211.17 716.51 209.72 715.91 207.3 715.03 206.87 711.01 206.82 709.25 206.51 707.79 205.52 703.64 205.35 700.37 204.56 698.96 203.18 696.77 201.55 695.33 199.87 693.04 197.96 685.1 192.88 683.42 192.22 683.67 190.09 683.39 187.75 682.42 186.72 680.63 186.43 679.38 186.67 676.29 184.91 673.03 183.58 671.49 182.27 670.29 182.1 667.24 179.78 664.83 178.3 662.03 177.82 661.01 176.38 659.87 172.59 658.8 170.68 658.75 169.61 659.97 168.45 659.74 167.44 657.59 166.96 655.04 168.46 651.06 168.68 648.85 169.17 647.19 168.72 646.41 167.86 644.66 167.94 643.82 169.3 641.84 170.31 640.36 170.18 638.36 168.55 637.67 166.77 635.69 165.96 632.42 165.88 630.92 165.17 630.8 164.42 632.91 161.73 634.69 159.14 634.76 157.12 634.02 156.04 632.68 154.99 631.58 152.86 629.35 151.61 627.6 151.43 625.77 152.27 624.22 152.35 622.9 151.4 622.81 149.86 622.3 148.57 621.35 148.36 616.21 149.14 615.14 148.24 615.78 146.69 615.37 144.71 614.86 144.33 612.55 144 609.6 144.15 606.04 143.51 602.11 142.59 599.98 142.51 598.82 141.1 596.89 141.87 596.01 142.63 596.13 143.59 597.79 144.03 597.96 144.75 596.77 145.77 596.81 147.58 595.81 149.44 594.39 150.09 593.88 151.05 595.54 152.76 596.49 153.31 598.56 153.52 598.47 155.14 597.29 156.85 595.42 157.36 593.87 156.34 592.83 156.62 591.86 158.09 591.99 159.96 590.83 161.44 589.65 164.12 589.77 164.76 592.54 167.16 592.23 167.93 590.63 168.09 590.08 169.32 590.23 170.54 591.09 172.46 589.8 174.39 590.76 174.98 592.33 174.58 592.75 175.72 592.22 177.26 592.18 178.98 590.96 179.77 589.44 179.01 587.52 181.23 584.83 182.5 582.44 183.27 582.74 183.93 584.58 184.31 585.14 185.66 586.55 187.01 588.94 187.76 589.05 189.5 588.64 190.41 587.58 190.89 586.99 191.86 585.17 190.73 583.56 190.44 582 193.7 580.08 194.66 581.46 195.95 583 198.67 583.03 200.1 584.18 201.06 586.32 201.99 586.49 203.78 586.99 204.6 589.32 205.65 589.08 206.67 587.96 207.54 584.85 206.96 581.97 207.02 582.98 208.82 582.89 209.82 583.64 212.16 583.92 214.13 580.26 214.76 578.81 216.03 558.94 225.78 531.08 284.4 529.56 287.65 528.23 288.59 527.85 289.71 526.11 291.31 525.08 293.19 520.87 297.58 519.36 300.38 518.67 301.07 514.72 301.8 513.12 302.28 510.41 303.87 509.44 304.98 510.81 306.03 511.01 306.93 509.89 309.87 510.41 313.93 509.65 316.77 509.78 317.39 511.81 318.98 514.66 320.03 518.3 321.72 519.31 322.73 519.08 323.51 517.62 325.05 517.17 326.21 517.92 328.46 520.08 331.34 520.79 332.63 521.52 335.44 524.65 336.14 525.55 337.64 525.31 338.75 523.57 341.12 523.58 342.65 527.22 343.72 527.57 345.48 525.87 346.34 522.7 346.85 521.37 347.48 521.9 348.92 522.95 349.75 524.13 351.47 525.01 353.83 526.77 354.93 531.51 355.04 536.63 354.42 539.08 355.08 540.25 356.11 540.21 357.37 539.01 360.42 539.99 362.14 541.97 363.67 542.05 364.49 541.24 365.51 541.37 366.92 543.06 367.37 547.33 367.5 548.44 367.84 549.21 369.18 550.67 370.7 551.65 372.33 551.95 374.2 551.85 376.43 552.1 377.5 553.22 378.23 555.3 378.31 562.9 376.89 563.88 376.24 565.15 374.41 566.84 372.84 568.3 372.12 570.02 372.16 573.02 373.69 576.73 373.5 581.59 374.9 584.18 375.01 585.02 375.31 586.52 377.24 587.34 378.85 587.45 379.86 586.48 382.7 586.61 383.44 588.11 384.66 589.33 386.85 590.54 388.21 591.78 389.07 595.67 389.25 597.48 389.7 598.18 390.86 597.35 392.38 597.86 393.37 599.45 394.29 599.64 395.26 599.13 396.69 597.67 398.2 597.26 400.3 598.23 402.43 599.98 403.64 601.34 404.04 603.61 403.85 606.06 404.14 606.64 404.6 606.99 407.39 608.07 408.21 610.6 409.26 612.3 410.22 614.52 412.89 615.08 414.43 615.05 416.67 613.46 419.26 614.43 420.59 614.93 421.95 556.22 442.68 555.98 444.16 556.44 446.36 557.52 447.66 559.12 448.38 562.06 450.46 562.43 451.14 562.47 453.34 562.89 453.61 563 455.48 558.75 454.5 556.58 453.41 555.23 453.36 553.06 454 549.04 455.76 547.02 455.55 546.33 455.95 543.69 456.49 540.54 456.74 537.09 458.43 535.98 458.31 531.76 460.33 530.83 460.44 523.96 464.14 519.75 466.16 517.75 466.68 516.45 467.54 512.51 468.93 507.39 468.52 506.41 467.65 503.68 467.54 501.37 466.78 497.97 466.46 495.56 468.48 494.03 470.15 493.09 470.57 491.88 472.34 490.6 473.67 487.23 475.15 486.91 476.89 485.77 478.75 483.19 479.81 481.61 480.02 479.72 481.13 476.26 482.57 475.11 482.63 472 483.77 469.71 485.38 467.57 486.24 464.29 486.84 461 487.86 459.96 488.88 457.34 488.39 455.4 488.81 454.82 490.54 452.95 491.05 451.98 489.81 450.22 489.67 449.17 490.16 449.15 492.02 448.27 492.16 445.86 491.14 445.07 491.38 442.06 494.22 439.92 494.8 437.06 494.72 434.67 494.06 431.8 494.27 430.56 493.97 428.96 495.43 426.65 495.39 423.47 496.69 422.35 497.78 421.86 499.59 421.07 500.04 417.93 499.66 415.04 497.97 413.07 498.78 410.97 498.64 409.47 499.13 407.05 499.41 406.01 500.88 405.1 501.11 404.53 502.21 404.81 502.97 407.69 503.73 408.15 504.58 407.7 506.42 407.18 506.53 404.61 505.5 402.43 505.43 400.45 506.9 399.8 508.64 398.9 508.75 395.38 507.39 392.62 508.78 392.08 509.5 391.95 512.02 391.34 512.84 387.06 513.12 384.89 514.3 384.03 515.48 381.56 516.19 379.72 516.07 378 515.56 375.57 514.43 373.59 515.41 371.56 518.3 369.84 516.88 369.67 516.22 370.55 514.03 370.02 512.91 366.75 511.95 365.98 511.12 366.13 508.69 369.52 508.06 370.95 507.08 373.76 503.25 374.12 502.1 373.39 500.77 372.73 500.64 369.23 501.03 369.04 499.85 369.46 496.66 329.68 473.8 331.37 472.14 331.45 469.34 332.32 467.76 332.02 466.17 329.66 462.59 329.5 461.35 329.83 458.73 331.17 457.05 331.62 454.98 329.95 454.58 329.81 453.92 331.55 453.41 334.35 453.97 335.04 452.15 336.26 451.86 336.5 451.13 334.72 450.13 333.23 448.51 333.28 446.21 334.47 445.12 336.15 444.87 336.24 443.64 334.15 442.9 332.55 441.89 331.75 440.4 332.06 438.74 333.17 437.12 334.89 433.75 335.81 433.1 336.09 432.12 334.49 430.22 333.96 429.14 332.76 428.42 332.61 427.27 334.01 426.41 334.52 424.52 330.97 421.11 328.61 420.77 329.17 419.03 328.27 417.72 328.16 416.48 327.04 414.86 325.83 414.37 324.11 414.5 317.91 413.14 315 412.97 313.41 413.17 309.63 412.67 307.13 412.78 304.59 411.59 301.79 411.08 298.57 411.19 296.85 410.18 294.01 409.23 294.15 412.06 294.88 415.66 297.36 418.19 299.27 418.83 303.76 421.44 304.76 422.2 304.63 423.11 301.77 422.41 300.64 422.57 299.53 423.52 297.71 423.68 295.7 424.46 291.66 430.56 289.39 431.53 287.46 431.31 285.21 430.01 282.55 429.08 280.52 429.39 277.92 428.54 276.07 428.22 271.18 428.77 270.07 427.95 268.13 427.23 265.57 425.46 263.25 424.42 260.27 423.91 257.84 422.93 257.14 422.98 254.38 421.57 252.29 420.79 250.27 420.96 249.75 421.71 248.05 422.18 246.26 424.76 243.1 426.34 241.78 430.25 240.83 430.29 239.37 427.94 237.98 426.35 235.21 426.36 233.12 426.94 227.93 429.18 227.23 428.49 226.85 427.15 225.21 424.54 224.51 424.52 222.98 425.91 222.48 432.61 221.71 434.71 221.68 435.84 223.14 437.7 222.73 438.51 221.27 438.96 219.38 437.99 217.61 438.82 217.44 440.19 217.91 444.29 217.65 445.19 216.47 446.19 215.44 446.16 213.97 444.78 213.11 443.08 211.6 441.95 210.22 441.66 207.56 442.1 206.71 442.88 205.94 444.78 205.87 447.13 204.83 451.46 204.32 452.16 201.35 452.7 200.59 452.4 199.75 451.14 198.79 450.7 196.69 450.93 194.3 451.6 193.43 452.68 193.42 455.25 192.58 457.57 192.76 459.16 195.05 461.43 195.43 462.86 194.04 466.16 193.62 469.19 193.17 470.72 190.97 472.26 190.05 474.19 189.75 476.32 189.73 480.21 186.13 484.1 186.28 486.13 185.71 486.75 180.98 485.74 179.5 485.7 179.72 487.27 182.32 490.26 185.51 491.3 186.44 491.98 187.06 494.69 189.05 495.73 190.84 495.65 192.24 496.14 191.35 497.41 184.3 498.99 182.37 498.92 181.35 498.13 179.96 495.87 179.04 493.42 177.76 491.98 176.09 491.84 172.11 492.97 170.12 493.26 168.25 494.13 168.08 495.13 168.49 497.01 171.38 505.48 174.05 506.71 175.55 507.71 175.63 510.5 174 513.77 171.64 516.24 171.16 517.45 172.08 518.26 174.82 519.78 177.24 521.73 177.67 524.7 177.44 526.05 172.7 526.14 171.01 525.04 168.48 522.95 165.78 521.79 164.23 520.42 159.47 515.06 157.6 515.24 156.25 516.33 155.99 517.39 157.3 520.06 159.48 521.66 159.96 523.46 158.46 526.8 156.2 529 154.29 527.02 151.86 525.52 147.57 525.08 144 525.36 141.49 524.76 138.95 523.47 138.58 521.87 139.31 520.43 141.16 518.81 145.41 515.61 146.33 514.56 147.02 513.05 146.9 511.41 146.28 510.19 143.15 508.49 140.53 506.3 138.43 505.99 137.71 504.43 138.23 503.18 140.44 502.15 142.72 502.21 147.55 503.85 152.9 505.91 154.04 506.11 155.93 505.31 157.26 503.69 157.64 502.06 157.39 499.74 156.62 498.38 154.59 495.61 154.14 494.19 154.29 493.11 155.18 491.9 154.83 490.57 153.93 490.27 149.49 489.73 146.39 488.17 143.32 484.75 142.21 484.37 139.44 484.2 133.55 483.11 130.66 482.7 128.67 481.27 127.17 477.97 126.29 473.78 125.28 471.91 125.92 470.85 127.77 470.14 129.67 469.82 131.03 468.67 130.47 467.86 129.22 467.24 124.8 466.15 122.18 465.11 119.56 464.38 114.88 463.97 113.87 463.52 113.25 462.29 113.53 461.36 115.82 459.52 117.72 457.7 118.4 455.53 119.76 454.37 121.99 453.88 123.44 452.47 123.39 451.02 122.62 450 119.88 448.35 116.83 445.55 115.28 443.46 114.91 441.2 117.1 440.79 120.5 441.19 122.9 440.87 124.48 441.09 125.24 439.6 122.92 437.88 119.92 436.74 119.3 435.17 119.48 432.79 120.62 430.58 120.53 428.53 119.3 425.74 117.29 423.5 115 423.51 110.42 424.88 106.26 425.91 103.15 426.21 101.68 426.04 100.81 424.83 101.18 423.79 102.88 420.92 103.2 417.7 102.4 415.91 100.22 415.15 98.9 415.24 98.4 413.8 99.95 412.23 102.19 409.07 102.94 405.2 104.76 403.18 105.91 403.11 109.93 407.55 110.8 408.8 112.22 409.74 113.93 409.94 115.63 408.6 116.23 406.61 116.42 403.92 118.24 401.46 120.93 400.22 120.87 399.55 118.65 398.12 112.85 397.45 111.9 397.2 109.34 395.75 108.1 394.58 105.35 391.22 102.05 388.1 101.32 386.89 100.47 384.02 100.65 383.13 101.64 382.68 104.55 382.26 107.66 382.15 107.79 381.05 106.84 377.22 107.19 376.57 110.32 375.83 110.62 374.43 109.5 372.51 109.92 372.02 112.25 371.68 112.73 370.94 111.45 368.94 108.62 367.64 108.36 367.1 108.9 365.51 110.41 364.27 111.1 361.71 110.94 360.66 111.75 358.86 110.57 356.99 110.03 354.74 110.18 353.7 111.58 351.56 112.71 350.73 114.99 350.03 117.78 349.52 120.52 347.43 121.91 346 124.09 343.23 125.22 343.05 126 342.01 127.37 341.33 127.91 340.06 129.61 338.06 129.65 335.17 130.34 334.52 131.55 334.84 132.03 333.21 132.76 332.26 132.83 331.23 134.23 328.73 135.22 328.07 137.19 325.54 137.94 322.28 137.61 319.92 138.37 318.57 138.11 317.37 138.5 315.66 138.42 314.11 138.91 313.02 140.66 311.27 140.36 310.01 140.77 308.78 140.45 307.85 141.13 307.16 140.21 305.37 140.68 304.3 140.06 302.82 140.07 299.97 139.5 298.34 139.49 292.75 138.44 290.45 138.23 288.49 136.25 285.11 135.64 283.23 134.69 281.45 133.7 280.48 133.4 279.35 133.6 277.78 132.63 274.62 130.96 271.9 130.84 270.76 132.71 268.14 132.34 266.1 131.5 265.41 128.53 264.61 122.96 260.8 120.03 256.87 118.75 255.86 118 254.53 119.69 250.58 119.81 245.52 117.31 241.64 113.97 238.21 110.92 236.14 108.2 234.51 104.43 233.06 102.22 233.42 100.55 233.01 99.61 232.24 98.73 230.43 96.71 230.83 96.46 232.26 96.58 234.11 94.86 235.4 93.24 235 90.5 232.79 88.81 228.61 88.18 228.04 85.98 228.95 85.91 230.91 85.54 232.12 84.45 232.72 83.61 232.34 80.65 229.24 78.86 226.25 78.65 223.61 77.49 223.67 75.78 229.6 76.13 232.46 76.85 232.89 79.2 232.74 79.63 233.49 76.59 236.2 75.37 236.54 73.73 236 71.37 235.62 68.07 234.52 65.59 234.89 65.16 234.09 65.29 232.11 64.93 231.24 63.31 230.94 62.19 231.35 62.47 233.69 62.09 234.62 60.59 235.88 60.06 238.43 59.05 240.74 57.4 241.44 51.53 241.2 49.03 240.67 47.35 239.67 45.79 239.84 44.04 240.92 41.76 240.74 39.97 241.49 38.32 241.07 36.74 239.97 35.79 240.56 35.36 243.16 34.27 243.72 33.84 244.87 32.57 245.51 30.81 245.1 28.96 247.34 27.74 247.41 27.03 246.85 25.02 247.31 24.22 244.9 23.35 244.92 22.74 244.03 21.08 243.71 19.43 243.01 22.41 241.53 23.86 236.76 23.86 234.6 16.26 233.97 15.22 233.47 13.24 233.16 12.22 231.69 12.29 227.96 11.33 226.9 12.37 225.22 14.14 224.53 15.94 225.81 19.28 225.05 20.54 223.65 22.78 221.7 25.3 220.95 25.86 220.06 25.6 217.68 24.36 214.86 23.64 214.31 21.35 213.86 19.32 213.12 18.29 214.31 16.55 214.35 13.69 212.38 12.86 212.42 11.05 213.7 10.22 213.76 8.5 213.02 8.04 210.87 8.68 208.93 8.69 206.16 7.45 205.57 5.31 205.5 3.24 205.01 2.54 204.33 1.51 202.19 1 199.37 1.25 198.28 3.35 196.34 4.85 195.81 6.39 195.87 9.73 197.03 11.41 199.01 12.89 200.04 14.9 200.86 15.35 200.3 15.35 196.76 14.89 195.12 15.44 193.15 14.58 190.75 14.15 188.78 14.29 187.25 15.03 186.54 17.9 185.99 18.16 182.23 17.29 177.21 15.62 175.46 13.35 175.66 12.13 175.36 11.31 174.37 10.87 172.44 10.84 170.64 11.16 168.81 11.81 167.41 14.97 165.03 16.05 164.65 17.06 165.14 18.27 167.11 19.79 168.75 22.43 170.53 24.25 172.24 25.71 171.9 26.23 170.91 27.33 167.38 28.3 166.8 30.85 167.92 33.74 168.45 35.57 167.41 36.18 166.62 36.11 163.57 35.79 161.92 34.37 159.31 33.54 158.64 31.81 158.13 29.45 157.88 25.36 156.62 22.95 155.48 21.4 155.26 19.37 154.32 18.52 152.78 18.32 151.59 16.79 149.9 16.2 148.32 16.34 147.11 17.29 145.53 17.71 144.1 19.25 142.5 21.13 141.74 22.75 141.57 25.23 141.86 26.8 142.31 27.77 143.15 29.66 145.75 33.66 149.73 35.78 151.52 37.17 152.13 39.03 152.21 43.41 153.64 46.15 153.64 50.56 152.36 52.75 151.36 56 150.96 58.38 149.44 58.97 147.75 58.52 147.07 55.86 145.42 51.23 144.3 49.17 145.73 43.79 147.45 42.13 147.31 41.05 146.72 39.76 145.13 38.85 142.16 38.63 139.06 35.13 136.88 35.02 135.86 37.55 132.94 37.84 131.93 36.81 130.4 35.9 127.77 35.43 127.14 35.99 125.07 35.69 122.47 35.82 121.49 37.54 119.84 39.22 118.94 40.76 119.71 40.9 120.32 39.41 122.53 40.06 124.12 41.59 124.49 44.27 124.26 45.69 124.83 48.67 126.83 50.5 128.33 52.07 128.53 54.47 127.41 55.85 127.56 57.32 129.52 57.14 131.95 56.22 134.36 56.4 135.98 56.97 137.04 59.69 137.88 61.52 137.85 62.64 136.97 62.96 135.93 60.46 133.96 60.32 132.89 62.52 131.66 66.38 128.61 66.48 127.4 65.22 125.95 64.01 125.07 61.23 124.16 60.84 123.1 62.24 122.68 62.72 121.36 62.23 119.77 62.27 111.75 62 110.65 63.11 109.6 64.02 109.39 65.76 109.72 67.01 109.13 67.43 107.35 68.5 105.57 67.72 103.76 64.81 103.07 64.4 101.6 66.18 101.53 69.33 100.96 70.88 100.93 72.63 102.22 73.21 102.2 75.4 100.47 76.63 98.52 77.71 97.57 81.58 96.57 82.29 95.51 81.29 92.72 81.93 91.14 81.17 89.13 79.31 87.44 77.81 84.96 81.37 83.43 82.59 82.25 84.71 82.42 85.64 83.16 87.82 83.98 89.5 83.24 89.48 80.77 89.92 78.99 90.12 75.86 91.34 74.78 93.56 74.18 94.92 75.07 96.55 77.13 97.32 77.51 98.82 76.77 100.51 74.28 101.11 72.28 105.09 72.11 107.01 71.13 109.39 70.61 110.72 70.02 112.45 70.21 113.82 69.34 114.22 66.76 115.31 65.67 119.13 63.97 120.18 63.14 121.21 61.59 121.73 61.53 124.4 63.08 124.94 63.16 127.34 60.77 128.45 60.53 130.09 61.72 131.3 60.85 132.41 58.79 132.54 57.46 133.65 56.64 136.48 56.43 139.28 57.03 140.94 57.06 143.59 58.65 145.42 58.8 147.25 60.73 150.24 63.28 152.94 64.42 154.25 64.08 155.76 64.66 156.86 64.49 157.89 66.41 160.23 67.13 161.51 68.03 162.73 68.13 163.62 67.63 165.68 67.77 167.06 65.74 168.68 64.21 171.06 65.05 173.6 65.04 173.81 63.72 175.28 62.43 177.75 62.7 179.31 60.03 180.76 60.33 181.72 61.58 183.59 61.9 185.26 60.77 188.68 61.13 190.42 60.34 191.97 58.67 192.84 58.29 195.99 58.29 196.76 57.79 197.07 56.36 198 56.21 200.97 57.09 203.38 55.23 203.96 53.93 204.05 51.44 205.83 51.25 206.72 50.03 207.8 49.45 208.92 49.64 210.33 51.74 212.4 52.68 215.06 54.96 216.33 55.46 218.4 55.5 222.09 55.24 223.13 56.45 226.16 57.2 227.3 55.86 228.27 55.35 229.19 53.98 230.41 52.85 232.66 52.13 234.08 52.27 235.28 51.67 237.3 51.71 238.77 50.21 242.01 48.25 243.38 46.77 244.04 46.98 245.8 45.95 250.11 44.28 252.66 44.07 253.22 45.19 256.03 43.89 258.99 41.56 260.7 41.06 261.35 40.18 263.35 39.49 265.24 38.41 266.28 38.53 270.81 38.11 272.79 37.5 274.37 36.42 275.63 34.76 276.53 32.81 279.53 30.92 281.58 30.69 281.63 29.21 282.53 27.78 284.24 27.56 285.25 27.88 287.1 27.79 288.31 26.96 290.78 26.92 291.8 25.9 294.92 21.48 295.46 19.72 295.32 18.46 296.76 14.98 298.99 13.35 300.26 11.28 301.08 10.73 305.91 9.04 309.43 6.8 310.61 4.42 311.28 4.04 314.8 3.49 315.71 2.15 317.5 1.28 320.23 1 323.61 1.45 325.86 2.51 328.39 2.81 332.21 1.87 332.66 2.15 333.25 4.47 333.2 5.95 330.42 8.48 326.58 12.36 326.11 14.26 327.51 17.63 328.18 18.01 331.18 17.76 334.43 18.86 335.91 19.15 336.5 20.42 337.81 21.71 338.87 24.14 341.44 28.68 344.66 30.44 346.94 30.54 350.63 32.41 352.92 36.06 355.55 39.69 358.54 44.83 358.61 47.36 359.83 49.15 361.29 49.15 366.13 49.82 366.64 50.28 366.16 52.16 367.91 57.19 370.57 60.48 370.88 63.68 371.39 64.2 374.83 66.45 377.55 67.82 379.68 68.59 381.81 68.91 382.83 69.47 383.95 70.99 386.01 71.56 388.78 71.47 390.44 72.48 392.1 74.19 393.78 74.23 396.12 72.86 398.4 72.85 401.68 74.1 406.51 72.73 410.19 72.69 413.13 75.47 413.73 77.1 412.86 80.33 412.96 82.51 416.3 84.44 417.27 86.31 418.56 86.93 421.13 86.68 422.06 87 424.56 88.9 426.41 89.01 428.67 88.4 430.79 85.7 433.95 83.67 435.53 83.48 440.28 83.63 442.62 83.99 445.12 86.31 446.11 86.82 447.3 86.68 447.48 95.72 447.39 108.14 450.66 106.92 455.7 105.79 459.72 104.43 462.46 102.1 465.19 101.05 468.38 100.43 472.67 100.77 475.08 101.39 478.01 101.45 481.21 102.56 482 99.5 484.87 97.83 485.93 96.86 491.72 95.54 495.04 96.96 498.84 97.8 501.79 98.85 504.19 98.98 507.92 94.48 509.76 93.22 515.36 90.67 518.74 90.21 522.75 89.2 529.51 88.31 536.18 87.91 540.14 88.1 543.33 86.84 550.14 85.05 553.53 83.79 556.38 81.52 559.11 79.8 562.37 76.33 564.38 74.45 565.86 73.68 567.61 73.55 572.12 74.26 574.24 74.12 577.58 71.89 579.66 69.45 581.79 64.24 582.8 62.34 585.27 60.29 588.18 59.3 591.34 59.39 595 58.87 598.12 57.37 601.29 54.97 604.59 52.08 606.18 51.25 609 48.07 612.17 45.76 617.25 43.43 619.32 42.17 621.61 41.23 626.29 42 629.31 42.12 631.47 41.09 633.11 39.84 634.23 38.16 635.8 36.65 639.14 34.63 640.74 33.41 645.02 30.71 647 29.86 649.18 29.71 651.31 29.98 652.86 29.45 654.85 26.62 655.91 24.77 656.71 22.56 658.37 20.39 661.69 18.5 663.39 17.21 665.47 16.44 668.21 15.1 669.85 14.97 671.88 8.4 674.95 7.13 677.44 5.64 680.47 5.16 682.56 4.25 684.6 4.31 686.28 5.47 687.89 5.65 688.5 5.22 691.87 4.46 695.03 4.02 696.13 6.75 698.61 6.62 699.63 10.99 700.36 12.37 701.1 14.84 703.31 18.19 712.87 18.72 729.65 22.31 748.7 31.91 753.17 35.5 768.82 41.25 787.39 42.49 797.54 41.07 Z"/>
</g>
</svg>