<?xml version="1.0"?>
<svg xmlns="http://www.w3.org/2000/svg" version="1.2" baseProfile="tiny" width="800" height="748" viewBox="0 0 800 748" stroke-linecap="round" stroke-linejoin="round">
<g id="4203907">
<path d="M 715.39 275.64 717.82 392.09 719.24 396.01 718.58 399.49 717.06 401.76 712.34 403.29 710.1 407.98 707.7 409.52 705.59 412.25 705.17 415.03 702.28 419.65 696.7 422.28 695.7 424.25 695.9 428.15 694.18 429.27 695.07 431.68 694.89 434.43 696.3 436.01 697.21 440.17 699.05 443.31 699.73 447.16 700.65 448.63 702.85 449.72 705.56 449.14 707.36 450.87 708.49 453.45 706.72 456.75 705.01 458.35 703.77 457.78 703.43 461.8 705.18 464.55 708.76 464.44 708.98 466.33 707.97 469.53 707.57 473.71 706.22 475.8 705.98 479.68 704.44 481.25 699.23 483.01 697.71 484.78 698.28 486.2 702.13 487.97 702.21 490.34 700.92 490.95 700.16 494.4 697.61 494.73 696.13 498.19 693.41 502.49 692.2 506.43 690.19 506.66 687.17 505.67 685.7 509.53 684.04 511.46 685.26 512.43 685.65 514.46 683.63 517.11 678.35 518.79 676.24 522.19 674.64 523.37 671.39 524.07 665.05 524.12 662.28 523.82 659.3 522.24 658.45 520.19 656.71 519.85 655.32 520.92 654.18 523.94 652.23 526.79 648.02 525.67 644.43 526.88 640.28 525.98 639.06 527.46 635.69 528.55 635.6 535.31 634.02 537.13 633.53 539.86 632.56 541.12 629.26 542.66 624.3 546.94 623.39 552.64 622.03 554.64 616.93 557.46 613.88 560.33 610.01 559.86 607.95 561.14 607.38 562.54 608.31 567.11 606.49 573.78 604.55 576.24 603.46 574.65 600.68 573.06 585.3 573.33 581.58 571.58 579.17 569.64 576.07 567.92 573.84 568.66 571.79 571.33 565.84 572.57 567.3 576.05 568.01 579.59 568.17 583.34 565.11 589.28 559.1 590.32 555.76 593.24 553.45 593.75 549.87 596.17 547.25 597.19 547.9 604.05 545.86 612.68 544.99 613.52 539.99 613.31 538.7 614.01 536.16 617.91 534.87 618.9 526.4 617.09 522.67 617.99 513.38 618.89 511.11 618.73 506.4 617.4 504.6 617.72 503.9 619.67 504.37 622.6 503 625.68 501.36 626.35 497.57 624.77 496.06 622.81 496.32 621.37 498.52 617.82 498.41 613.19 496.4 608.28 494.23 606.33 489.74 604.01 485.54 600.31 482.42 600.03 478.57 603.76 475.33 605.18 471.06 605.63 469.14 605.2 466.34 603.55 466.49 597.33 466.09 594.26 464.53 590.8 462.35 587.77 460.17 586.66 456.95 586.82 446.7 590.47 442.29 590.59 434.85 589.19 424.23 588.89 419.51 590.24 414.65 599.84 412.1 611.78 411.06 623.97 408.59 625.5 399.04 625.77 390.57 626.3 382.94 628.97 376.75 632.16 369.65 636.73 365.49 640.88 361.42 645.95 357.94 651.99 355.44 659.39 353.98 668.17 352.78 673.21 351.99 682.24 353.41 691.11 354.39 700.19 355.15 709.4 354.81 719.2 353.75 726.46 350.73 733.47 345.62 738.74 341.31 742.37 336.19 745.88 328.45 746.79 318.95 747 309.87 746.36 303.08 745.04 295.24 742.23 283.39 737.12 274.26 731.11 269.58 727.42 262.95 721.07 249.64 708.99 241.09 702.13 237.12 695.56 233.59 688.93 233.29 681.48 235.36 674.4 245.69 662.1 248.86 654.76 250.96 644.35 251.85 637.29 251.77 629.44 250.16 623.31 246.34 617.14 240.38 610.52 233.39 604.39 224.49 599.1 216.56 594.65 207.46 590.21 198.3 588.13 185.31 586.14 176.46 585.03 168.35 585.1 156.8 586.43 147.31 588.33 141.41 591.13 141.15 590.95 140.88 580.74 141.41 568.97 143.36 550.97 145.26 547.13 148.78 543.54 155.92 538.51 158.99 535.52 160.22 533.29 159.55 530.9 156.94 527.91 156.84 525.44 157.85 524.39 160.98 524.04 163.45 521.15 165.01 518.37 167.28 518.39 168.51 516.45 167.72 511.95 167.93 509.2 167.04 506.35 167.3 504.03 169.59 502.73 169.87 501 167.64 496.28 166.88 493.54 167 491.13 168.46 488.23 168.3 485.65 166.73 483.59 170.07 482.57 171.05 481.67 172.21 477.2 174.4 473.56 174.58 471.77 178.01 469.76 180.53 467.5 182.96 467.21 185.03 464.5 185.86 461.24 187.94 458 189.44 457.46 189.5 451.11 188.51 442.51 189.43 437.83 196.03 430.17 196.86 427.92 197.65 422.24 195.15 418.37 195.93 413.84 197.82 410.15 201.73 407.47 202.09 405.27 123.62 379.84 122.54 377.94 117.82 373.45 114.21 371.59 108.99 366.63 104.76 364.03 100.61 355.26 100.51 352.92 98.37 346.27 97.42 342.24 95.97 341.04 94.94 336.86 97.49 330.81 97.37 326.3 95.05 325.52 91.93 326.21 87.83 325.87 84.98 324.95 81.92 320.25 82.17 316.84 85.61 314.76 87.24 312.5 80.21 305.88 78.23 303.66 75.66 301.82 72.79 300.56 65.76 298.44 61.5 296.47 55.48 294.73 52.6 292.89 52.87 290.63 54.37 287.82 54.4 285.8 47.66 286.46 40.59 284.33 36.35 282.75 33.91 281.37 33.54 278.09 32 274.4 30.22 271.77 29.68 269.72 26.21 268.5 22.33 268.9 23.14 265.77 21.6 259.96 18.98 258.81 18.57 255.53 20.31 252.55 19.69 250.69 17.87 249.57 23.39 241.37 24.76 237.85 27.56 222.39 28.25 215.41 28.9 205.46 29.34 192.86 28.99 181.81 26.59 172.22 22.28 164.09 20.13 157.63 19.06 152.16 14.84 141.42 11.9 136.85 7.05 131.29 3.89 129.01 1.47 125.79 1 123.07 1.67 119.81 3.18 115.78 5.08 112.21 7.29 109.53 11.26 106.38 15.09 105.55 20.17 106.6 28.43 110.37 30.13 111.81 45.72 118.87 50.42 121.39 56.39 125.52 68.42 135.24 72.12 137.99 78.43 141.83 87.67 147.02 96.46 151.72 101.18 153.84 107.43 155.81 115.48 157.4 122.59 158.21 134.26 158.68 151.35 158.65 163.38 159.82 170.8 159.7 176.62 159.25 179.72 158.38 183.64 156.47 187.4 153.85 188.94 152.15 192.05 146.1 196.13 140.28 197.56 137.74 198.69 134.4 201.32 131.33 202.06 128.86 201.51 122.86 200.17 117 198.35 115.75 194.64 114.79 192.31 113.07 190.02 109.69 187.55 102.79 187.44 99.12 188.52 96.07 189.81 94.33 192.15 93.14 194.64 92.75 198.55 93.35 203.47 95.32 207.44 97.52 210.06 99.57 217.31 106.8 221.12 109.38 225.72 115.85 225.7 119.55 227.37 120.99 230.33 122.38 234.3 123.23 238.04 123.39 243.25 122.87 248.54 121.07 250.9 119.51 255.55 114.4 260.37 107.49 263.29 102.38 264.17 99.01 264.55 94.07 264.38 88.99 263.64 84.73 261.73 79.96 256.89 73.24 255.82 68.78 256.18 65.46 257.27 63.59 264.02 56.28 267.99 52.92 272.82 49.5 278.03 43.37 283.04 41.69 287.3 41.46 290.74 42.46 300.04 44.32 307.11 47.28 312.95 51.32 315.17 53.99 317.48 57.95 320.97 64.99 324.3 69.38 327.14 73.83 333.53 80.28 339.05 86.77 343.82 89 349.83 90.08 356.7 90.33 362.82 89.39 367.76 87.98 372.96 84.91 376.57 82.33 379.8 79.48 390.68 68.65 395.35 65.25 397 65.39 406.65 69.2 415.55 73.41 417.27 76.93 420.46 81.36 424.77 85.94 428.34 90.48 430.38 92.51 434.32 95.22 438.11 95.89 444.48 94.48 449.11 92.57 453.08 89.48 455.87 86.49 458.09 83.17 459.49 79.62 461.35 72.05 462.97 67.69 464.64 65.18 469.27 60.83 475.14 56.77 482.69 52.49 488.43 49.54 498.75 41.91 509.78 34.69 515.87 30.32 522.53 24.91 526.47 23.38 530.18 23.24 533.64 23.75 540.3 25.81 543.35 26.32 546.25 26.03 550.4 27 557.38 28.09 558.98 27.4 561.96 24.36 564.66 20.8 565.86 17.68 567.87 17.56 571.38 16.25 576.57 16.48 579.6 16.09 583.17 14.87 589.88 14.76 591.89 11.34 596.81 8.47 600.64 7.31 606.06 4.59 608.02 1 611.56 3.37 616.56 11.43 622.03 12.65 624.94 12.68 628.67 11.85 632 12.25 637.33 15.61 640.05 16.23 646.39 14.24 650.2 11.65 656.72 4.18 658.38 3.69 665.97 3.02 669.55 1.8 672.25 2.81 675.72 7.27 678.16 9.45 680.46 13.34 681.97 18.94 683.78 22.5 683.77 25.69 684.61 29.15 686.23 30.92 694.12 33.43 697.04 33.76 699.48 33.1 705.94 33.28 709.19 32.43 712.4 32.73 713.65 34.3 714.59 39.39 717.73 42.75 721.7 45.41 723.45 51.2 723.56 53.79 721.12 59.12 720.83 61.14 724.73 64.98 728.11 67.28 729.12 68.62 731.09 73.23 738.39 78.84 741.19 82.1 742.57 85.12 742.71 87.5 744.55 95.21 748.34 101.64 752.91 106.99 754.42 109.71 760.25 115.4 763.89 117.98 765.85 119.98 766.57 121.76 766.13 126.93 763.35 131.21 762.81 140.14 761.21 143.32 760.7 146.44 761.19 152.44 761.97 154.11 767.02 158.6 771.17 160.97 773.42 161.36 778.01 159.82 780.51 158.31 783.76 157.13 786.19 158 788.22 159.7 789.39 161.64 792.72 164.37 795.76 164.72 795.71 166.72 794.22 171.12 794.17 173.55 795.45 177.05 797.84 180.84 799 184.12 797.74 191.03 790.7 192.85 781.84 195.61 778.17 197.75 770.85 200.14 766.4 199.65 763.19 200.42 761.2 201.77 758.24 205.04 752.75 207.78 746.22 208.62 744.22 209.18 736.14 212.7 730 214.9 721.08 214.64 716.68 215.77 713.57 215.42 715.39 275.64 Z"/>
</g>
</svg>