<?xml version="1.0"?>
<svg xmlns="http://www.w3.org/2000/svg" version="1.2" baseProfile="tiny" width="800" height="1253" viewBox="0 0 800 1253" stroke-linecap="round" stroke-linejoin="round">
<g id="4203956">
<path d="M 638.13 743.37 639.41 751.08 637.87 763.41 630.99 775.44 630.22 780.06 625.35 784.68 620.84 791.5 611.45 800.55 610.35 809.37 612.07 813.97 620.27 822.26 620.41 829.98 609 843.63 605.85 850.66 601.56 856.99 591.14 862.52 589.24 869.44 581.9 879.58 579.42 884.49 573.53 887.41 564.91 887.74 559.83 892.26 561.54 896.36 557.94 903.58 554.54 905.3 558.55 916.8 559.14 924.72 553.62 936.96 549.7 950.19 540.55 960.93 538.76 968.96 539.81 978.48 542.55 980.87 557.19 984.14 581.8 983.78 603.71 986.22 623.02 994.39 628.25 997.28 639.17 1005.56 646.24 1016.16 650.24 1025.48 651.17 1032.88 655.26 1041.17 656.43 1049.68 659.06 1057.98 659.53 1064.18 664.89 1075.17 674.04 1099.96 674.51 1105.86 679.21 1121.66 684.77 1126.94 690.21 1127.82 703.8 1127.86 713.1 1130.72 723.44 1139.19 734.55 1143.44 745.65 1143.2 756.74 1140.45 762.17 1140.23 773.96 1143.88 774.89 1148.78 785.75 1155.51 789.42 1161.63 791.5 1171.03 791.53 1178.84 788.99 1196.67 790.31 1218.58 792.7 1237.97 799 1247.75 792.95 1252 785.88 1249.81 770.96 1252 765.17 1246.47 762.72 1239.78 755.65 1235.79 745.74 1234.24 744.07 1231.03 736.48 1226.52 729.38 1219.54 723.83 1219.87 717.61 1222.1 708.44 1221.5 701.88 1224.72 694.93 1226.27 677.44 1221.38 673.84 1216.1 673.19 1211.08 675.51 1208.12 674.22 1203.36 676.79 1201.56 675.38 1191.91 672.93 1189.47 672.81 1183.29 666.89 1177.88 667.66 1172.09 664.57 1166.56 661.87 1152.28 648.11 1143.14 637.56 1138 624.82 1133.11 612.6 1131.43 608.87 1133.24 601.03 1132.46 597.14 1130.7 584.79 1131.35 570.89 1136.42 563.55 1143.75 555.86 1146.89 535.54 1135.83 512.07 1125.66 494.99 1121.22 471.13 1117.05 444.92 1113.79 420.15 1106.61 404.9 1100.09 384.29 1086.01 369.3 1069.44 362.78 1059.14 360.07 1052.16 352.48 1028.62 349.12 1014.12 342.44 994.58 335.14 975.67 326.14 958.72 313.89 940.07 304.63 927.29 282.85 905.12 260.95 888.42 225.67 859.82 196.28 838.08 167.59 814.47 149.71 797.67 127.71 797.72 117.38 794.74 110.22 791.45 95.27 777.95 91.8 770.34 92.24 756.42 99.88 741.62 110.73 728.3 105.52 715.52 100.21 706.61 93.79 701.91 85.22 697.63 75.76 695.7 65.27 695.83 54.22 697.77 41.47 703.7 30.84 698.54 25.83 694.64 20.14 693.02 10.43 684.5 1 678 1.11 672.11 13.71 661.11 18.36 658.09 33.23 657.09 40.58 651.94 46.35 651.67 58.19 658.71 66.54 656.53 75.94 656.74 79.25 654.6 80.91 649.08 78.6 641.72 77.73 634.61 82.05 629.18 113.88 619.07 117.47 616.47 123.65 609.22 125.03 604.28 123.55 599.52 119.58 595.38 121.49 587.11 127.76 582.84 137.98 577.52 140.88 573.36 137.77 562.26 149.51 549.69 161.25 545.47 163.25 543.45 160.16 536.05 159.57 529.43 159.52 511.8 156.57 507.8 150.65 503.2 149.28 499 150.62 491.48 145.84 486.48 150.16 478.46 149.98 468.04 159.12 463.49 158.7 460.61 152.64 458.46 151.65 455.51 155.12 452.6 162.16 450.12 163.06 443.26 154.57 433.77 150.54 426.15 143.75 423.22 144.73 419.48 142.68 416.09 136.06 415.47 130.27 412.36 127.31 405.6 117.04 397.61 99.99 393.61 99.75 387.59 104.49 388.02 105.66 383.4 98.82 380.47 97 377.98 96.11 368.44 93.67 360.71 87.71 361.55 82.36 366.54 77.78 366.99 72.88 361.96 71.88 354.54 68.31 345.02 61.96 341.69 229 188.37 433.13 1 432.4 5.67 433.76 21.13 430.18 31.28 434.79 40.06 433.73 45.62 444.42 54.4 449.5 65.41 451.88 73.41 463.21 81 467.23 98.59 466.8 106.18 472.86 116.18 468.81 124.08 465.86 125.35 463.67 133.05 459.9 133.31 449.94 141.42 443.67 148.07 439.23 159.24 431.43 162.66 429.81 164.93 430.88 173.74 432.38 175.61 435.7 190.56 434.6 198.02 428.63 204.47 418.89 218.02 415.1 226.87 414.77 237.69 408.65 243.86 406.3 250.38 407.76 255.94 411.45 260.37 419.64 263.65 422.69 270.39 421.17 278.33 412.49 289.67 415.44 294.75 418.96 297.17 419.45 301.44 417.84 307.99 422.09 310 426.27 302.8 433.31 297.68 435.85 301.74 433.2 307.88 441.29 306.11 441.95 312.74 434.36 314.9 431.98 318.01 437.59 325.45 446.81 330.59 448.21 336.53 442.29 338.73 441.67 341.49 455.02 345.72 456.64 347.37 456.25 354.62 463.89 352.68 471.97 359.09 472.08 368.36 477.49 382.79 480.11 387.1 482.07 396.91 482.21 405.13 484.05 411.64 489.52 420.43 494.51 423.33 505.3 427.41 516.21 437.6 528.59 444.79 543.39 460.68 551.94 472.08 554.12 481.39 557.99 485.99 559.95 495.5 558.74 509.13 564.66 516.33 563.45 523.04 563.81 532.26 560.22 540.18 563.17 543.08 574.63 545.06 580.66 550.65 582.15 555.76 582.87 566.07 582.1 576.19 579.44 593.74 578.91 602.15 581.75 605.25 588.37 616.46 598.6 625.65 601.46 632.45 619.7 658.76 623.01 664.96 629.76 684.78 632.9 703.51 634.76 718.83 635.74 737.07 638.13 743.37 Z"/>
</g>
</svg>