<?xml version="1.0"?>
<svg xmlns="http://www.w3.org/2000/svg" version="1.2" baseProfile="tiny" width="800" height="908" viewBox="0 0 800 908" stroke-linecap="round" stroke-linejoin="round">
<g id="4203709">
<path d="M 397.07 83.91 400.86 92.72 403.91 97.26 408.35 99.75 412.21 101.15 414.94 105.76 417.98 109.11 418.42 110.34 412.84 110.98 409.06 113.09 408.13 114.5 407.55 118.54 408.27 121.13 408.52 125.38 407.72 127.66 409.45 129.26 407.33 131.56 403.7 137.11 400.06 139.03 400.06 142.34 398.09 142.76 390.36 146.32 387.21 148.06 384.5 154.69 380.26 159.47 377.16 161.97 379.91 162.99 383.74 162.92 385.89 163.79 390.75 164.69 397.17 167.88 401.13 170.19 404.75 177.29 403.28 182.2 402.95 192.04 397.3 194.76 394.96 195.03 393 197.12 387.78 200.42 385.88 202.55 385.01 205.9 383.32 208.61 383.26 210.28 379.16 212.36 377.73 216.58 377.27 223.13 377.55 224.21 380.36 227.05 382.84 231.14 383.18 239.32 384.19 242.42 388.9 242.5 399.02 239.63 401.07 241.2 405.62 242.61 408.02 244.73 412.8 245.5 416.82 248.79 424.56 260.71 425.65 264.2 427.43 266.6 427.87 269.16 431.27 272.49 433.22 275.98 434.25 279.08 436.01 282.23 437.39 283.05 437.5 285.99 440.43 289.42 444.41 291.29 449.7 290.78 451.54 292.09 452.31 294.12 458.06 298.79 460.19 299.16 462.65 301.62 464.32 304.59 468.29 307.49 474.46 310.37 478.33 309.62 482 310.62 485.31 310.2 488.57 310.83 493.26 310.99 500.3 310.15 505.91 312.63 507.17 313.68 506.06 321.84 506.52 326.01 508.32 327.99 505.84 333.54 505.68 336.2 506.6 337.53 511.76 341.89 511.64 345.12 512.23 347.4 514.96 351.41 518.42 353.94 518.75 358.47 519.84 364 521.43 366.13 523.4 366.35 524.9 368.34 528.29 371.41 533.5 371.74 536.2 373.57 537.21 376.73 539.45 379.77 539.91 381.74 541.9 385.09 544.62 384.36 547.67 386.18 554.09 386.22 556.43 385.35 558.13 386.11 560.08 389.44 562.18 391.08 565.95 390.75 569.72 389.75 572.92 390.94 572.48 394.2 573.8 396.91 577.56 400.29 583.14 400.58 586.01 399.28 587.87 396.98 590.61 398.09 592.05 399.57 597.18 398.93 601.58 399.06 602 400.04 600.77 403.63 601.47 406.91 603.62 408.63 604.39 410.79 609.37 413.2 612.31 415.23 614.44 420.21 617.34 423.21 617.75 424.6 614.23 429.92 613.81 431.57 616.05 439.92 617.71 443.22 620.64 447.5 619.48 450.84 615.28 456.36 611.8 460.16 613.07 461.68 617.19 461.5 620.84 462.3 622.41 465.29 624.07 471.83 623.65 474.66 624.13 478.05 628.59 481.64 628.34 483.01 625.5 488.15 624.34 493.09 624.53 496.45 621.87 502.48 619.82 504.33 614.69 505.65 609.2 507.74 605.26 508.34 603.58 509.34 601.96 512.14 602.09 516.65 603.88 518.04 606.48 521.25 613.85 525.33 620.71 527.67 624.96 527.03 631.23 529.13 634.35 529.75 634.85 533.03 634.64 541.32 633.38 543.81 628.56 547.5 626.91 550.26 628.24 552.94 630.28 553.8 634.47 553.98 636.47 553.43 638.51 551.64 640.54 548.67 641.01 545.6 639.93 542.55 643.3 541.46 646.85 541.43 653.18 543.57 655.77 543.96 660.43 543.38 663.39 541.6 665.12 538.9 664.68 536.9 666.79 530.49 675.57 522.83 680.3 521.91 692.44 521.28 697.88 524.24 699.61 526.67 702.77 528.71 704.51 530.75 704.77 533.9 705.99 535.03 708.05 534.41 709.75 527.36 710.77 525.65 713 525.93 714.47 528.71 713.26 531.94 715.12 532.79 719.76 530.95 722.71 530.79 724.71 529.43 727.58 529.08 729.75 530.17 733.09 534.46 734.54 534.71 736.19 532.61 735.22 530.34 731.81 527.06 727.04 524.25 722.35 520.68 719.67 519.23 720.14 516.38 724.86 514.42 731.89 515.35 737.06 511.88 739.45 512 742.13 513.91 742.8 515.57 742.07 517.34 737.51 518.35 736.23 521.21 739.22 524.1 745.15 522.6 748.26 523.8 749.96 523.47 750.77 520.7 749.22 518.32 748.46 515.62 750.34 513.59 752.17 513.79 754.54 516.47 755.98 520.68 756.25 525.19 758.76 526.78 761.55 526.86 762.83 528.81 761.93 533.82 764.29 534.63 770.41 534.71 772.54 535.28 777.16 535.11 779.4 535.9 778.93 540.17 782.08 543.48 784.45 543.23 785.28 538.95 784.98 536.62 783 533.65 780.46 532.5 778.31 528.51 778.76 526.31 783.76 526.42 790.05 529.25 792.69 529.22 795.64 527.94 795.56 533.08 797.53 536.1 798.96 537.2 799 540.07 798.23 541.21 795.28 542.24 790.82 542.29 788.03 543.35 788.1 545.01 789.56 548.7 793.96 553.01 786.9 555.43 782.22 558.39 769.06 572.48 766.08 573.5 757.69 574.62 754.59 575.52 745.84 578.85 742.18 578.66 738.31 577.29 736.48 577.3 734.95 579.31 734.04 583.24 732.34 586.65 729.72 588.78 727.09 588.46 721.72 586.21 719.03 585.88 718.41 587.46 715.93 588.86 712.58 593.66 709.49 596.83 709.78 600.48 707.34 603.98 701.28 607.07 699.01 609.78 695.54 609.5 693.05 611.81 687.64 613.29 685.45 612.75 684.34 615.06 675.98 617.3 673.64 615.04 671.59 614.14 668.24 615.36 663.9 618.23 662.14 618.88 658.55 622.45 657.22 623.13 650.62 623.84 647.67 624.98 643.94 624.47 641.89 627.08 638.63 627.88 634.67 632.51 632.81 634.05 632.52 638.55 631.21 641.83 629.73 643.76 629.65 646.23 633.28 652.38 636.79 655.8 637.06 659.67 639.85 664.51 638.17 667.81 636.67 672.2 636.35 677.04 632.72 684.15 629.34 687.96 622.01 693.56 619.86 697.65 617.9 698.99 610.6 702.37 600.69 708.57 594.33 713.55 586.16 721.75 581.71 723.41 578.01 726.62 570.94 730.89 567.61 733.98 563.7 735.72 559.21 736.12 549.72 746.67 547.83 752.94 544.94 757.96 540.38 763.19 535.53 766.97 531.07 766.79 529.96 767.23 526.68 766.52 524.28 767.76 520.64 771.26 518.45 774.07 516 775.79 512.23 776.22 510 777.62 510.62 780.02 514.38 782.6 514.33 785.42 512.33 786.46 509.35 789.27 505.99 794.67 504.31 799.28 502.29 801.23 499.53 802.07 496.43 805.84 491.86 807.6 486.12 812.02 481.54 816.68 475.78 819.86 471.84 821.43 468.78 823.33 465.13 824.29 460.97 823.28 459.78 825.2 460.67 827.12 460.68 831.82 459.78 834.56 458.88 842.41 454.59 845.62 450.67 851.53 450.22 853.08 451.72 855.47 447.29 858.02 445.83 857.03 444.04 857.92 442.91 860.63 437.17 867.37 436.03 870.57 431.29 872.37 426.8 876.3 424.8 878.65 426.54 880.69 426.31 882.52 424.51 883.7 423.68 885.87 420.55 886.36 416.6 889.32 414.66 886.55 413.1 886.72 408.85 889.8 407.85 893.75 407.91 897.37 403.83 900.93 396.25 901.53 392.54 903.59 391.97 907 389.82 904.67 384.75 900.81 384.25 897.93 386.17 894.67 390.87 891.58 392.95 889.69 396.15 884.41 401.11 882.23 403.07 880.85 405.1 877.95 405.35 875.84 404.63 870.06 404.9 859.61 405.31 858.49 408.96 854.18 409.7 852.42 409.44 846.81 407.59 842.94 403.51 840.63 401.68 836.26 400.98 832.77 397.91 828.56 394.69 821.58 395.27 815.22 389.93 808.74 390.15 804.51 392.57 800.54 393.95 794.82 397.64 789.82 401.39 787.25 403.44 785.18 406.28 783.45 409.31 783.23 411.81 780.64 413.35 774.58 416.56 771.4 417.18 766.29 416.05 763.17 416.76 760.68 417.45 749.79 413.67 747.36 414.48 744.98 414.7 741.44 412.61 738.92 410.61 735.09 410.34 731.62 409.25 729.7 405.41 727.8 403.67 726.24 402.7 723.81 403.41 719.69 400.8 716.66 399.32 714.05 397.39 713.33 394.05 714.11 391 712.72 389 709.17 389.05 706.68 389.97 703.85 389.35 701.64 389.76 699.47 392.4 697.56 394.15 695.46 395.76 691.19 397.01 685.73 397.82 683.88 401.4 684.64 404.95 681.03 409.03 679.98 408.99 678.01 407.31 675.23 408.91 674.73 408.71 670.98 410.82 671.04 410.07 667.46 410.55 663.57 407.79 659.91 404.44 653.57 405.81 652.13 407.94 652.04 408.94 648.33 407.51 644.93 412.23 642.97 411.55 640.68 415.13 637.71 415.87 635.67 414.46 632.61 415.57 631.29 413.73 627.8 415.55 627.12 416.87 624.7 419.39 621.64 421.46 620.73 420.75 618.51 418.87 616.8 418.03 613.24 420.84 611.55 421.16 609.47 423.41 609.62 424.77 606.44 427.14 603.64 430.01 602.14 431.53 600.44 431.43 598.4 433.69 598.22 437.52 593.76 437.85 590.82 441.37 584.3 443.34 585.78 444.93 584.45 447.78 584.4 452.54 583.3 453.14 577.34 452.75 573.92 451.3 572.08 447.96 571.04 444.43 571.36 438.62 574.05 434.1 574.28 430.34 572.86 425.01 567.5 420.25 564.91 416.76 564.38 413.93 564.82 409.42 567.77 408.05 571.07 406.99 579.26 405.95 582.94 402.15 588.1 398.59 589.99 395.48 589.65 392.4 586.53 392.38 583.61 394.48 576.91 394.55 575.03 393.49 572.79 391.6 571 385.95 568.08 382.37 567.07 377.18 566.33 362.74 567.91 356.48 569.9 351.5 568.49 347.91 565.63 345.68 559.45 342.87 554.2 344.78 550.26 345.13 545.47 347.52 543.29 343.98 537.54 341.29 535.08 338.18 530.91 336.49 529.63 332.54 528.18 328.91 526.29 330.12 517.43 326.76 513.28 329.76 509.34 332.08 508.04 333.39 503.7 336.91 500.97 339.09 500.49 341.64 497.69 340.77 493.29 338.9 492.91 338.88 490.97 340.75 488.5 339.79 484.81 341.75 481.17 342.54 477.48 341.27 472.83 340.22 470.78 337.81 468.26 333.48 465.23 331.59 463.09 329.32 463.43 326.63 465.02 317.48 469.35 313.24 469.26 312.42 467.38 314.53 463.89 313.77 461.08 309.68 459.6 307.47 458.21 302.37 457.58 296.58 451.18 295.76 445.3 292.23 442.83 289.51 442.39 286.37 439.52 285.56 435.5 281.88 433.67 280.56 430.53 281.31 425.86 275.89 420.43 274.46 420.08 264.76 419.81 261.22 421.01 259.21 419.92 255.11 416.12 256.18 412.91 255.83 409.96 252.91 402.02 254.26 398.9 254.17 393.91 248.45 392.28 244.23 387.93 241.74 384.37 240.2 383.33 234.58 384.26 232.57 383.56 230.49 380.48 227.5 378.02 220.43 374.08 216.42 374.26 214.18 373.04 211.7 373.34 208.74 371.87 205.59 368.86 203.38 367.49 197.93 366.89 194.47 367.22 187.82 362.51 184.23 360.96 181.04 360.59 176.18 360.68 172.82 363.88 171.36 363.95 168.41 360.03 165.7 359.28 160.07 360.77 155.24 360.82 150.91 361.79 148.13 363.89 141.03 360.53 138.4 358.27 131.65 356.03 128.58 352.24 128.71 349.92 130.06 347.02 129.73 345.5 125.49 342.63 121.84 341.89 119.52 338.39 116.1 337.28 112.7 335 107.69 333.98 104.93 335.22 102.65 338.25 100.77 339.31 97.73 339.84 91.23 342.06 85.87 341.57 84.38 340.64 83.62 338.5 80.75 335.36 79.47 331.08 77.23 329.32 74.41 324.79 71.32 323.1 66.9 322.58 60.06 324.27 54.56 326.53 52.26 326.64 48.86 325.77 42.36 322.8 39.31 322.25 35.5 322.26 31.95 324.64 20.32 328.52 19.37 329.2 16.65 333.41 14.14 334.28 6.17 330.02 2.81 327.59 1.19 324.6 1 321.76 3.49 318.5 6.91 316.68 9.11 314.4 12.39 306.15 15.18 303.79 18.2 300.38 19.67 296.66 19.01 294.59 19.02 291.15 17.31 287.81 19.43 280.23 21.46 277.84 24.92 274.99 29.14 274.82 32.23 272.91 33.55 271.11 36.41 268.82 36.95 265.34 40.78 260.08 40.71 256.86 39.81 252.04 40.22 249.92 39.2 247.86 40 242.18 40.95 238.22 40.29 235.6 42.11 233.35 44.16 232.07 47.23 231.25 52.08 227.99 57.14 223.07 58.37 219.25 57.61 217.41 59.8 213.15 63.16 204.09 62.89 202.91 62.82 199.09 63.91 196.4 71.21 185.18 75.48 179.19 77.65 173.35 80.46 171.19 82.67 168.45 88.39 168.28 91.6 167.29 93.65 165.37 97.26 165.09 99.73 167.61 101.76 168.4 105.26 167.5 106.82 167.75 110.98 165.98 112.89 162.41 115.71 160.41 119.19 158.79 121.69 156.34 124.44 151.08 126.59 150.07 134.24 141.81 135.35 137.54 131.46 133.83 130.22 133.45 127.29 130.37 126.44 126.66 127.98 123.98 132.16 121.36 133.82 119.05 136.95 118.94 137.82 117.57 141.34 115.01 143.22 114.6 151.63 118.72 158.76 117.82 162.37 114.08 167.56 113.83 170.71 109.18 176.54 105.65 181.26 101.36 184.09 96.44 188.88 97.34 191.11 96.01 194.63 91.92 198.53 91.49 199.62 89.89 202.86 88.28 205.63 87.84 215.03 89.94 217.7 92.65 220.92 93.67 223.87 88.31 227.75 85.45 232.07 81.6 235.31 80.69 240.89 75.85 245.15 69.86 247.05 68.64 251.1 67.63 252.53 66.75 257.12 61.09 263.78 54.25 268.04 51.06 269.96 49.05 271.24 46.06 273.87 42.64 277.43 40.67 277.51 35.77 282.95 31.89 286.11 30.19 293.22 24.2 297.11 19.08 297.99 18.7 303.38 18.95 313.55 15.64 320.49 14.5 323.8 10.78 328.36 7.71 332.03 5.86 344.47 1 349 4.1 350.22 5.41 350.7 9.95 356.42 18.67 359.56 21.9 364.54 24.86 366.48 27.5 368.61 28.97 372.7 28.72 377.8 26.72 382.5 27.7 384.55 30.78 384.93 36.51 387.73 43.89 389.12 45.09 393.56 46.88 394.04 48.52 394.4 58.04 396.24 60.59 396.99 64.37 395.56 67.59 392.18 73.35 391.77 76.44 393.55 82.33 394.53 83.56 397.07 83.91 Z"/>
</g>
</svg>