<?xml version="1.0"?>
<svg xmlns="http://www.w3.org/2000/svg" version="1.2" baseProfile="tiny" width="800" height="1184" viewBox="0 0 800 1184" stroke-linecap="round" stroke-linejoin="round">
<g id="4203808">
<path d="M 657.97 215.48 660.49 217.28 662.69 219.64 664.61 222.7 665.45 225.51 666.35 226.39 668.42 227.21 670.5 228.43 673.53 228.97 675.99 230.28 676.66 230.9 676.73 231.83 676.16 232.66 674.68 233.22 672.64 232.98 671.11 233.47 670.23 234.8 670.24 236.83 670.6 239.24 669.91 240.93 668.76 241.68 667.12 241.56 665.18 240.97 663.35 240.8 660.54 241.02 660.08 240.75 660.24 239.42 661.74 238.08 663.12 237.97 664.09 238.39 666.13 240.48 667.76 240.09 667.81 239.36 666.4 237.62 666.47 236.79 668.39 235.13 668.96 234.01 668.47 233.43 667.41 233.76 665.9 234.92 664.5 234.81 664.04 234 664.36 232.47 663.92 231.47 661.73 231.97 660.35 231.34 659.43 229.51 657.78 229.01 657.08 229.32 655.83 230.81 654.07 231.46 651.72 231.56 650.26 231.17 649.2 230.37 648.49 228.92 647.9 225.98 647.03 224.33 644.25 221.8 643.31 221.55 639.94 222.02 638.92 222.62 638.5 223.87 639.55 225.29 639.59 226.96 638.11 227.22 637.57 225.85 636.01 225.54 634.85 226.33 634.72 227.36 636.13 231.19 638.33 232.35 638.33 233.48 635.71 234.04 633.18 234.12 632.03 234.75 630.49 236.48 629.98 237.93 629.03 243.89 626.95 249.39 625.29 252.6 624.57 254.4 624.19 257.85 623.05 260.71 623.16 261.49 625.02 263.32 625.39 264.23 625.04 265.13 623.31 265.9 622.51 266.66 621.19 269.4 619.11 272.55 617.84 275.7 617.56 276.93 617.83 280.29 618.57 282.59 619.2 285.48 619.01 286.82 618.41 287.33 616.5 287.97 613.36 290.86 613.37 292.02 615.22 292.68 615.64 293.5 615.18 294.27 613.69 295.42 613.39 297.14 613.72 298.01 614.61 298.22 616.54 297.07 617.53 297.08 618.63 297.62 619.6 298.65 619.72 299.69 618.79 301.32 617.92 301.7 616.79 301.5 615.63 300.55 614.64 300.23 613.46 300.35 613.19 301.49 614.81 302.56 615.41 303.94 614.75 306.04 614.81 307.14 615.77 307.5 616.91 305.75 617.66 305.18 618.82 305.48 620.41 307.65 621.68 307.35 622.37 306.24 623.7 305.34 625.32 305.7 628.05 308.86 628.51 309.73 628.6 311.83 627.94 313.33 626.76 313.46 626.21 312.65 626.23 309.96 625.46 308.12 624.42 307.72 623.71 307.99 623.6 309 624.73 310.2 624.71 311.17 624.07 311.54 622.08 311.51 621.12 313.12 619.95 313.93 617.29 313.97 614.31 314.44 612.42 314.96 610.43 315.23 608.69 316.4 608.79 317.43 610.51 319.25 610.89 321.53 610.7 323.58 611.19 325.28 612.32 326.3 614.32 326.69 615.89 325.83 619.04 324.69 622.52 322.84 623.11 322.07 622.9 321.16 622 320.03 622.46 318.71 625.42 318.11 626.89 317.53 628.5 316.38 632.02 312.73 633.52 309.98 634.8 308.8 635.64 306.99 636.05 302.99 636.8 300.47 637.02 298.97 637.46 298.4 639.75 298.67 644.21 300.08 649.36 302.12 653.97 303.61 656.84 303.47 663.15 305.02 665.74 305.39 667.39 306.15 668.27 305.85 669.72 303.57 670.49 303.31 671.67 304.54 673.07 304.46 673.93 302.02 674.79 301.44 675.59 301.62 676.38 302.98 677.55 302.91 678.54 301.54 679.83 300.37 681.93 300.04 685.54 299.08 687.26 296.93 689.98 296.04 691.87 295.75 693.78 296.43 694.25 297.92 693.4 299.52 691.43 300.39 684.08 304.74 681.74 306.72 680.53 308.9 680.22 310.29 680.37 314.32 680.3 315.77 679.75 317.72 678.82 319.28 677.15 321.32 674.51 323.71 673.79 325.32 673.79 327.13 675.96 330.53 677.56 335.75 678.14 336.97 678.79 339.2 680.47 341.55 681.78 344.32 682.94 349.18 683.43 352.17 682.83 353.23 680.82 353.92 680.56 354.81 681.08 355.41 682.27 355.8 682.96 356.69 682.49 357.54 679.93 359.12 679.15 361 680.09 361.65 681.06 361.49 681.44 362.43 679.01 363.02 678.48 364.66 679.39 365.76 679.56 367.37 680.23 368.01 680.36 369.47 677.74 372.44 677.76 373.51 678.66 374.91 679.52 377.86 679.04 378.95 678.26 379.66 677.38 381.62 677.14 384.14 677.48 385.81 677.43 386.97 676.68 389.75 677.13 392.58 677.66 393.32 679.51 393.98 681.94 395.43 684.59 395.73 687.63 396.55 689.38 397.46 692.7 397.18 694.72 397.81 696.66 398.15 698.03 397.98 699.98 397 704.64 393.97 706.52 393.9 708.8 394.74 710.54 394.77 711.44 395.21 712.65 397.22 713.58 398.34 715.33 399.62 718.64 400.92 722.81 401.75 723.78 401.66 727.07 400.38 729.36 400.26 735.69 400.35 737.89 400.72 739.27 401.93 739.6 403.12 737.93 404.09 736.38 405.51 735.68 407.19 735.68 408.53 736.14 410.85 736.09 413.02 737.77 414.97 737.8 418.17 736.63 420.33 736.53 421.65 737.18 422.45 737.5 424.66 738.04 426.14 737.97 427.02 736.64 428.31 736.32 428.99 736.5 430.31 737.13 431.56 737.36 432.97 737.15 433.89 736.35 435.06 733.17 438.58 731 442.39 730.99 443.87 730.17 446.75 729.59 447.92 728.44 449.36 727.99 450.55 725.43 453.62 723.6 454.9 721.3 455.69 717.98 456.09 716.58 455.94 715.75 457.12 717.51 457.94 719.36 459.11 721.8 458.9 723.56 459.24 724.98 460.18 726.48 460.14 727.44 460.45 729.39 461.75 730.9 462.08 732.62 461.92 735.44 461.1 739.19 460.58 739.9 460.98 740.1 463 740.88 465.32 740.19 466.91 739.67 469.17 738.63 469.56 737.38 469.36 736.17 469.72 735.82 470.43 736.39 471.29 737.21 471.46 740.1 470.95 741.28 470.94 742.74 471.51 743.15 472.51 742.9 473.36 741.92 473.51 739.72 472.61 737.83 472.78 737.35 473.65 738.06 474.05 740.16 473.85 741.44 474.24 741.7 474.93 739.93 476.26 739.85 478.71 737.98 479.22 737.03 479.8 736.86 480.52 738.01 481.76 738.12 483.33 737.45 484.92 737.36 485.83 736.44 487.51 736.5 489.07 736.84 489.64 739.12 492 740.73 491.97 741.15 490.7 740.29 490.07 740.28 489.19 742.53 488.34 743.45 488.4 744.34 489.25 746.2 492.01 745.29 492.86 743.69 492.47 742.88 493.06 742.38 494.34 743.28 495.13 744.48 494.45 746.46 494.88 747.17 496.33 748.05 496.97 749.85 497.15 750.38 497.5 750.51 498.79 748.42 500.94 746.75 501.07 745.48 499.61 745.05 500.32 745.62 501.88 746.75 502.18 748.61 503.12 749.02 503.64 749.02 505.24 750.22 506.43 750.38 507.96 749.36 509.1 749.59 509.84 751.01 510.13 752.39 511.62 752.4 512.37 751.34 513.85 751.38 514.9 751.92 516.29 754.4 516.15 754.53 516.88 752.71 517.51 752.82 518.49 755.19 518.35 755.76 519.14 756.7 519.16 757.06 517.72 758.46 517.4 758.91 516.67 757.75 515.88 757.68 514.78 758.77 515.08 759.59 514.65 759.65 511.92 759.4 510.98 757.5 510.03 756.37 509.19 756.41 507.4 757.67 507.03 758.13 507.42 758.94 509.54 760.04 509.6 760.31 508.08 761.79 505.26 762.98 505.23 763.69 506.95 764.83 507.22 767.81 504.77 768.61 504.8 769.89 505.98 770.55 506.07 772.07 504.48 772.18 502.48 773.54 501.6 774.23 501.96 775.73 503.9 776.8 503.88 777.04 502.82 775.87 501.47 775.97 500.75 779.4 499.41 782.11 501.08 782.33 501.65 780.87 502.29 780.25 503.31 780.46 504.57 779.69 505.8 780.35 507.43 782.15 508.67 783.8 510.28 784.69 509.93 785.53 507.2 786.77 506.58 789.51 508.22 790 508.92 789.23 509.7 787.72 509.75 787.64 510.83 791.58 511.35 792.65 511.64 793.19 512.66 792.28 513.55 791.13 513.76 790.03 512.33 787.94 512.96 786.83 512.92 785.52 513.51 785.72 515.12 787.23 515.27 787.74 516.01 787.55 518.49 787.13 519.31 786.23 519.89 786.83 521 787.92 519.95 789.42 519.99 791.28 521.94 791 522.82 788.88 522.66 787.58 523.55 787.47 524.26 788.46 525.61 788.03 526.72 788.46 527.66 788.13 528.28 786.87 528.98 786.04 531 786.83 532.49 788.48 532.77 788.98 533.59 788.63 534.32 789.2 534.94 790.91 534.54 793.06 534.8 795.08 533.77 795.88 534.45 795.07 536.62 795.36 538.72 794.66 539.88 793.19 539.91 792.68 539.25 791.74 537.06 790.75 536.4 789.52 536.94 789.4 538.3 790.63 539.57 790.37 540.78 788.9 541.36 787.91 542.35 787.99 543.36 788.95 543.56 790.82 542.28 791.69 542.33 793.45 543.29 793.98 544.09 794.91 544.16 795.75 543.65 797.58 543.29 798.45 543.55 799 545.32 798.91 546.45 797.14 547.04 793.81 546.39 792.84 546.94 792.43 548.32 792.5 549.92 791.77 551.35 791.58 553.79 792.59 555.36 793.55 555.56 795.06 558.39 796.16 559.22 796.97 560.91 797.6 563.44 797.55 565.68 796.44 566.2 795.66 567.07 792.77 568.16 790.27 569.83 788.67 571.83 786.73 571.91 784.85 572.51 782.56 572.28 781.83 572.94 780.85 572.72 780.55 570.85 778.42 569.23 777.12 569.03 774.59 570.21 773.64 571.19 773.46 572.69 772.63 573.14 771.04 572.46 769.6 572.6 768.51 572.18 766.22 570.36 764.94 568.76 763.54 568.35 762.26 568.58 761.4 569.1 760.44 571.77 759.25 573.89 757.92 573.77 756.33 571.78 755.27 571.27 755.01 570.6 753.98 569.88 753.61 568.98 753.56 567.47 751.79 567.18 751.36 568.47 750.03 568.5 748.94 569.93 748.12 570.35 746.4 572.75 744.17 573.28 741.34 572.52 740.48 572.88 739.33 572.7 738.21 573.16 736.32 575.24 736.62 576.64 734.98 578.45 733.61 580.85 732.13 581.51 729.95 581.21 729.16 581.66 729.19 583.14 726.62 584.64 726.17 585.83 725.91 587.61 725.97 589.05 725.11 590.63 723.98 591.11 721.69 593.22 720.99 595.41 719.71 595.75 718.6 596.63 716.34 596.64 715.53 596.32 713.49 594.82 712.59 595.58 711.54 595.56 710.31 594.15 709.07 593.5 708.33 594.36 707.66 596.59 703.86 599.34 701.02 600.02 699.55 602.27 698.58 602.53 697.66 603.51 697.5 604.24 697.95 605.56 697 608.03 696.95 609.12 695.89 609.99 695.61 610.97 694.83 611.41 694.42 612.43 694.09 614.49 693.44 615.18 691.99 615.81 689.93 615.81 689.1 616.67 687.75 616.09 687.27 616.65 685.67 616.61 684.72 617.84 683.4 618.72 681.02 618.47 679.99 619.84 677.65 621.09 675.83 620.93 674.52 621.31 672.31 623.08 670.05 625.17 668.83 625.87 668 626.87 664.65 629.03 662.91 630.4 660.86 633.02 660.42 634.5 660.51 636.39 659.2 638.15 658.49 638.42 656.9 638.2 655.57 638.85 652.43 642.49 649.89 646.04 649.27 647.62 647.86 648.26 646.83 647.21 645.23 646.38 644.68 646.44 642.14 648.58 640.45 649.35 638.4 651.22 637.33 651.63 633.71 650.39 632.99 650.83 631.38 654.66 630.26 656.06 628.66 656.15 627.9 655.73 626.25 653.97 625.5 653.69 622.04 654.26 619.88 656.7 617.71 658.27 615.75 658.91 614.86 658.7 613.15 657.7 611.81 657.52 610.6 657.76 607 659.59 603.66 660.42 602.92 661.17 602.73 664.58 601.8 665.5 600.32 666.24 594.73 666.82 593.5 666.76 591.49 667.59 592.35 666.58 591.88 664.44 591.68 662.46 591.77 659.77 591.5 658.03 591.58 655.11 592.16 654.4 594.47 653.38 597.99 649.9 598.82 648.22 597.85 646.05 597.82 644.38 598.36 643.53 600.86 641.79 601.69 640.29 598.87 634.54 598.21 631.53 598.54 629.57 599.52 627.68 602.99 622.79 603.51 622.29 603.74 620.6 602.69 618.96 601.29 617.42 596.63 613.37 594.49 612.41 589.18 611.86 588.23 611.46 585.76 609.7 584.19 609.36 580.44 609.31 579 609.01 578.3 608.17 577.88 605.24 576.21 601.96 575.19 599.18 575.1 597.79 575.4 595.27 575.49 589.68 575.75 587.31 577.05 585.2 579.02 581.25 579.74 579.54 583.95 575.41 584.24 574.26 584.14 571.79 584.32 570.05 585.25 567.3 585.16 565.96 583.07 560.18 581.81 559.01 580.37 558.13 577.63 557.32 576.07 557.05 575.23 556.54 574.89 552.13 574.37 550.43 573.51 549.19 572.29 548.44 570.37 548.31 567.29 548.71 566.14 548.63 564.46 547.76 562.28 545.91 556.18 541.19 555.34 539.74 555.26 537.24 554.95 536.07 553.79 533.92 552.86 532.79 550.67 530.74 550.56 530.1 551.8 527.92 552.4 524.24 551.72 519.63 551.34 518.87 548.1 515.94 547.37 515.84 545.04 516.55 541.48 516.46 539.31 515.11 537.04 511.92 537.1 510.31 536.81 509.04 536.17 507.95 535.85 506.11 536.43 505.22 538.73 503.31 539.42 502.1 539.54 501.13 538.25 499.09 537.65 496.54 537.27 493.5 537.53 491.58 537.46 489.81 536.76 488.99 533.63 489.13 531.83 489.02 531.31 488.42 530.1 484.34 529.55 480.22 529.83 478.74 531.73 474.89 531.27 473.9 528.54 472.83 527.3 472.65 524.9 473.16 522.8 472.64 522.4 470.12 522 469.05 519.6 466.47 519.02 464.27 519.3 463.05 520.95 459.07 522.15 457.67 469.02 442.05 464.84 447.35 463.69 448.52 461.39 449.74 460.07 450.02 443.68 451.44 440.94 451.6 437.08 452.04 434.76 452.73 430.66 455.02 416.83 463.45 409.9 467.72 404.17 471.11 395.91 476.21 392.04 478.52 389.34 479.35 381.29 480.86 361.44 484.46 340.31 488.35 325.36 491.06 325.31 491.79 323.08 494.23 323.16 495.14 322.15 496.32 323.4 497.74 322.6 498.38 321.76 500.88 322.14 501.65 323.93 501.63 323.79 502.82 321.94 503.95 320.5 505.09 319.72 506.35 320.15 507.55 319.34 508.19 317.47 508.03 315.97 509.02 314.63 510.22 313.91 511.65 312.23 511.56 309.87 513.43 309.85 514.59 309 516.23 308.45 516.52 306.92 516.4 307.1 517.24 306.05 518.05 306.76 519.89 306.64 521.17 305.68 522.68 305.7 523.81 304.53 525.78 303.8 526.38 302.36 526.87 298.58 529.29 297.28 529.62 295.57 531.88 294.43 534.64 294.15 536.89 294.72 538.91 294.49 539.39 292.8 539.77 291.61 540.83 290.37 541.36 289.24 542.49 289.11 543.4 288.25 543.91 287.87 545.07 285.7 547.28 284.16 549.08 283.63 550.14 280.51 549.98 278.27 550.76 276.78 551.71 274.45 552.05 272.45 551.96 282.59 556.18 280.78 557.42 276.09 559.77 272.59 561.65 270.36 563.81 267.08 564.71 265.65 565.34 262.47 568.47 258.09 571.52 259.75 574.09 260.99 575 261.89 576.54 262.96 577.66 262.72 579.04 264.09 579.69 263.77 580.98 264.66 582 266.42 586.35 268.57 587.59 271.52 586.12 272.42 585.29 273.19 585.6 274 587.45 275.71 587.82 276.83 590 277.62 590.81 281.76 593.53 284.57 594.27 285.15 596.99 285.95 598.76 285.86 599.76 286.4 600.3 286.39 601.6 286.81 602.25 288.42 603.42 288.27 604.78 289.17 606.45 288.09 608.28 288.45 609.52 287.71 610.38 290.19 610.93 290.38 612.63 291.01 613.9 292.36 614.65 292.85 616.54 291.53 617.38 291.58 619.52 292.18 620.66 292.45 622.37 290.19 628.57 288.95 630.59 287.02 633.34 285.82 634.44 285.75 636.34 283.48 639.36 280.22 642.04 277.15 642.89 274.7 642.19 273.93 641.75 273.58 640.89 273.89 638.84 272.08 639.42 271.43 640.22 270.29 642.76 270.54 644.78 269.81 646.24 269.52 648.11 267.88 649.77 265.45 650.64 263.41 650.87 262.7 652.84 262.55 654.58 264.51 655.98 265.06 657.52 264.34 659.09 262.53 660.68 260.57 664.41 261.56 666.4 262.69 667.18 262.61 667.82 261.21 668.11 258.01 671.05 256.07 673.27 254.55 675.65 251.5 679.59 250.97 680.55 251.29 682.31 252.29 683.74 256.58 683.05 257.11 683.12 261.61 686.59 262.6 687.5 262.96 688.7 262.56 689.19 258.69 691.86 255.2 695.37 253.81 697.66 253.72 698.75 254.14 701 254.1 702 252.87 703.95 253.38 706.01 252.04 706.12 250.03 704.82 247.25 704.81 245.53 704.43 243.46 705.11 242.29 706.45 239.48 706.65 238.4 708.18 238.13 710.09 236.14 715.46 235.49 718.68 235.63 720.97 236.06 722.44 235.61 724.31 235.65 725.56 236.09 726.04 238.49 726.37 241.79 726.19 244.7 726.71 245.56 727.28 246.81 730.32 248.52 731.41 250.21 734.23 253.34 744.09 253.85 746.66 253.82 751.21 254.22 753.16 256.31 755.66 258.36 758.88 259.16 759.64 263.89 762.73 265.6 764.91 268 767.59 269.09 768.27 271.88 768.78 273.43 772.24 274.21 773.41 274.42 774.75 273.52 775.88 271.19 776.46 270.79 777 270.54 778.84 270.8 780.29 268.09 784.73 267.35 785.43 267.21 787.33 268.13 788.9 268.97 791.76 268.51 792.27 266.91 792.47 265.13 793.7 264.77 795.13 264.95 796.68 265.37 797.54 267.88 799.15 268.1 800.09 267.31 801.75 266.07 803.17 264.87 804.97 261.89 805.3 259.6 806.16 258.01 807.55 256.06 808.73 255.01 810.59 254.65 811.75 254.72 813.34 255.24 817.71 255.9 820.21 256.77 822.4 257.81 825.98 259.02 828.41 259.79 832.9 259.39 835.08 257.27 838.84 256.78 840.24 257.38 841.9 262.31 843.42 263.49 844.54 263.87 845.48 264.06 849.64 263.98 852.65 264.54 853.91 267.52 855.21 268.47 855.85 270.71 856.49 272.33 856.5 276.56 856.06 278.77 857.05 280.59 860.55 280.63 863.57 280.84 864.73 281.59 865.97 282.87 866.95 287.14 868.04 290.94 868.28 291.92 868.56 292.55 869.47 294.01 873.21 293.8 874.47 292.39 874.45 290.51 875.43 290.18 876.59 291.37 879 290.92 881.45 291.01 882.06 294.01 886.95 296.24 888.78 298.99 890.75 302.88 893.81 305.33 895.31 307.84 896.06 310.62 897.89 312.17 898.4 314.92 897.65 317.89 897.6 319.74 897.87 322.99 898.93 324.85 898.95 332.17 900.39 333.61 901.43 334.39 904.51 334.8 907.26 335.43 907.83 338.16 909.07 340.15 911.18 340.11 912.7 338.84 913.92 337.56 916.5 337.31 919.22 336.77 920.55 334.55 921.51 332.96 922.89 331.83 925.18 330.04 926.71 326.3 928.19 323.64 930.09 320.55 931.87 317.33 933.57 314.88 934.27 312.98 935.17 311.03 936.52 310.2 937.34 308.57 938.19 305.78 938.94 303.96 940.37 303.38 941.97 305.77 944.04 305.67 945.27 305 946.76 304.22 952.25 303.38 953.78 302.19 957 301.62 957.96 301.34 959.34 301.56 962.4 300.88 964.62 299.83 966.91 299.71 968.84 299.16 973.56 298.41 975.04 296.21 977.13 294.63 980.08 294.27 981.76 294.41 983.51 295.25 985.28 296.29 985.99 297.54 986.12 299.9 985.29 301.01 985.25 302.85 985.66 304.86 986.86 306.15 988.26 308.33 990.18 312.26 992.57 313.52 993.83 314.45 996.81 314.52 998.7 314.33 1001.82 313.9 1003.79 313.76 1005.89 314.42 1007.17 317.03 1009.54 321.93 1013.35 335.43 1064.87 356.63 1093.7 360.76 1099.07 362.5 1100.5 362.94 1101.29 363.28 1104.12 364.04 1105.84 364.87 1106.59 365.38 1108.21 365.75 1110.83 364.32 1112.92 367.33 1115.05 367.1 1116.54 367.98 1118.73 367.84 1120.35 369.25 1121.46 370.01 1123.35 370.78 1124.34 369.61 1124.98 369.69 1126.47 367.78 1126.94 366.39 1126.93 366.69 1128.59 365.29 1128.57 365.79 1130.44 366.8 1131.72 367.74 1132.3 367.72 1134.21 366.92 1135.75 367.07 1137.64 366.43 1139.36 365.41 1139.93 364.9 1142.49 364.26 1143.06 362.75 1142.17 362.39 1141.35 361.32 1141.38 360.86 1141.96 361.07 1143 359.62 1143.94 357.82 1143.87 357.11 1144.16 357.12 1146.55 357.54 1147.13 357.25 1148.79 357.64 1150.31 357.37 1151.08 355.78 1153.43 354.81 1154.22 353.79 1154.53 352.85 1155.33 351.96 1156.79 351.93 1159.63 351.43 1161.83 349.44 1164.28 347.82 1166.82 346.13 1168.74 345.27 1169.38 344.2 1170.87 344.2 1172.06 345.25 1174.52 344.57 1177.12 344.79 1179.75 342.52 1180.97 340.98 1180.06 339.93 1179.93 339.57 1181.22 337.99 1180.04 336.34 1179.94 333.87 1180.28 331.96 1181.3 331.1 1181.05 330.14 1180.19 329.68 1179.18 328.56 1179.74 326.85 1177.89 325.92 1177.35 324.04 1177.49 323.23 1176.89 322.89 1175.65 321.27 1176.69 320.48 1176.26 320.34 1175.28 319.52 1174.84 317.67 1175.44 316.46 1174.68 316.32 1173.91 315.16 1173.67 314.25 1174.01 313.27 1175.77 314.53 1176.04 314.74 1176.68 313.6 1177.21 312.28 1177.17 311.52 1176.14 310.17 1178.58 309.42 1179.4 308.22 1179.45 306.34 1178.03 305.59 1179.26 304.41 1178.19 303.82 1176.82 303.12 1176.7 302.58 1178.18 301.42 1178.49 298.63 1177.54 298.13 1176.48 297.41 1176.95 295.8 1179.41 296.04 1180.49 295.62 1181.14 293.81 1180.36 290.45 1181.06 289.26 1180.46 287.71 1179.17 286.84 1179.16 284.75 1179.69 282.88 1178.54 282.04 1180.58 282.24 1182.05 281.47 1182.35 279.56 1181.75 278.89 1180.58 278 1181.04 277.72 1182.05 276.43 1181.45 275.64 1181.55 273.26 1182.8 272.27 1183 269.51 1181.7 265.54 1180.24 265.38 1179.32 266.38 1178.79 268.26 1176.71 269.49 1173.12 269.86 1168.97 268.46 1167.47 267.13 1167.53 266.61 1168.48 265.32 1169.8 261.84 1171.02 256.39 1171.55 253.21 1172.37 251.39 1172.69 249.09 1172.36 245.57 1171.26 243.23 1170.97 242.02 1169.73 241.73 1168.49 242.03 1167.33 243.5 1167.25 247.19 1168.69 249.18 1169.67 250.7 1169.83 251.72 1169.4 252.3 1168.59 252.05 1166.99 252.34 1166.25 254.33 1165.27 256.57 1163.66 263.88 1161.03 267.22 1160.76 268.28 1160.93 270.61 1162.02 271.56 1162.2 273.04 1161.59 275.03 1157.86 276.02 1156.44 276.81 1154.36 275.85 1151.81 274.36 1150.48 271.62 1149.11 269.75 1147.95 267.64 1146.23 266.95 1145.45 265.06 1144.12 260.35 1141.73 256.48 1139.87 248.65 1136.39 242.42 1133.9 240.89 1132.46 240.28 1126.75 239.41 1122.84 238.12 1118.93 236.55 1116.21 231.4 1110.9 227.49 1107.23 224.49 1106.02 222.59 1105.45 217.75 1104.63 215.3 1103.96 210.78 1104.02 208.8 1103.3 206.31 1102.05 206.33 1100.96 211.28 1099.31 212.23 1098.52 211.66 1096.42 208.91 1093.65 207.92 1092.35 207.16 1089.62 206.69 1088.91 205.01 1088.21 202.71 1088.08 201.83 1087.55 201.68 1086.78 200.28 1084.66 200.29 1081.83 200.55 1080.08 199.8 1078.72 199.2 1076.28 198.08 1074.91 197.52 1073.01 196.66 1072.15 197.99 1071.41 198.03 1069.16 198.95 1067.66 198.28 1066.46 198.85 1065.36 198.98 1062.99 197.84 1062.89 197.17 1064.13 196.12 1064.08 194.55 1061.34 193.46 1060.05 193.87 1058.59 192.86 1057.88 192.33 1056.31 192.93 1055.06 194.51 1054.39 194.76 1052.96 194.53 1052 193.62 1051.07 191.91 1051.34 189.76 1050.46 188.49 1050.49 187.29 1050.14 186.8 1050.55 184.91 1050.7 183.06 1050.38 182.07 1050.98 180.71 1050.68 177.78 1049.59 175.85 1049.32 175.5 1048.6 174.6 1048.48 173.81 1049.15 172.56 1048.24 170.47 1047.7 170.28 1047.29 171.49 1045.73 171.14 1044.85 168.9 1044.88 167.83 1045.14 167.8 1045.85 168.53 1046.72 165.81 1046 164 1046.07 163.56 1044.95 162.58 1045.11 162.48 1046.22 161.37 1046.27 161 1047.05 159.99 1046.93 160.97 1044.93 159.28 1044.45 158.99 1044 159.52 1042.67 158.27 1042 157.38 1042.46 156.9 1041.85 155.15 1041.18 154.53 1039.96 152.4 1038.64 152.05 1037.55 150.72 1036.46 149.15 1035.78 149.27 1035.35 151.06 1035.36 151.69 1034.82 151.33 1033.7 150.18 1033.22 149.4 1033.43 148.7 1034.73 147.63 1034.71 146.53 1033.96 145.81 1034.06 144.94 1035.34 142.28 1035.32 143 1033.43 141.37 1033.24 141.89 1032.42 141.79 1031.55 142.28 1030.62 141.6 1030.23 140.2 1030.39 139.86 1029.6 142.51 1027.83 142.37 1027.36 140.69 1027.55 139.11 1026.45 140.04 1025.34 140.38 1024.05 141.25 1023.74 140.67 1022.26 140.91 1021.2 140.05 1020.03 140.29 1019.17 137.93 1018.58 137.94 1017.37 139.94 1017.05 137.87 1015.6 135.98 1015.46 133.28 1014.46 132.85 1013.41 131.75 1013.68 131.73 1012.56 130.63 1012.14 129.49 1012.84 129.4 1011.49 130.9 1010.35 129.65 1009.68 130.73 1008.68 130.84 1007.98 130.07 1007.15 128.04 1006.68 126.74 1005.98 126.54 1004.58 127.62 1003.72 127.02 1002.84 125.32 1002.45 125.29 1001.95 126.31 1000.31 126.46 999.2 126.09 998.5 123.58 997.14 121.65 997.46 122.63 995.45 122.2 993.61 121.56 993.4 121.22 994.66 119.62 995.79 118.95 995.44 118.85 994.03 116.37 992.33 115.61 991.32 113.64 991.49 113.36 992.36 111.82 993.05 112.01 993.98 111.59 995.26 109.28 994.32 108.77 994.71 108.94 996.15 107.75 995.48 106.32 996.2 105.41 995.14 104.62 995.67 103.27 995.74 102.56 994.83 101.34 995.12 98.26 993.98 97.44 994.08 96.69 994.8 95.51 994.63 95.21 993.81 96.4 993.16 95.8 992.25 94.64 992.67 93.79 991.92 94.74 990.94 96.36 991.35 97.45 989.64 96.79 989.46 95.24 990.36 94.44 990.34 93.87 989.35 94.71 988.61 96.71 987.84 98.29 988.17 99.04 987.38 98.12 986.45 97.03 987.33 95.35 987.41 94.49 986.96 94.89 986.14 97.53 984.89 97.25 983.76 95.96 984.28 94.54 984.23 93.08 983.78 91.84 984.58 90.39 984.92 89.86 984.43 90.27 983.04 87.46 981.24 86.5 979.81 84.42 979.16 84.3 980.1 83.65 980.42 82.4 979.06 81.3 978.39 81.26 977.21 80.22 976.82 80.33 976.11 81.2 975.62 80.23 974.73 80.1 974.09 81.02 972.88 80.55 972.42 79.34 972.97 78.45 973.83 77.11 973.94 76.77 973.53 77.04 971.69 75.85 970.06 74.78 970.36 75.45 972.07 75.16 972.7 74.05 972.75 72.95 971.71 72.03 971.31 71.02 971.57 69.81 973.92 68.08 973.34 68 972.85 70.13 971.77 69.79 970.14 68.85 969.25 68.85 968.46 69.96 967.89 69.19 967.26 68.46 967.96 66.86 968.35 65.62 968.31 64.91 967.51 64.22 967.72 63.96 969.05 63.16 970.3 62.23 970.67 60.69 970.37 58.39 968.66 57.64 967.51 56.88 967.33 54.9 968.04 54.22 967.68 54.22 966.31 53.08 966.22 52.28 966.63 50.64 968.1 49.25 968.27 46.9 967.15 45.72 967.47 43.81 968.67 43.08 968.74 41.77 967.74 40.96 967.96 41.53 969.36 40.64 969.51 39.92 967.86 39.1 967.66 38.53 968.93 38.76 970.17 36.13 969.98 35.39 968.91 34.78 970.09 34.15 969.57 34.6 966.88 33.06 966.18 32.44 965.24 30.77 966.06 29.25 965.79 29.05 967.78 29.85 968.07 28.9 969.58 27.83 970.19 27.18 968.86 25.07 968.25 24.34 968.3 23.16 969.27 23.12 968.04 21.83 968.45 21.65 969.57 23.01 970.23 22.86 971.01 21.39 970.65 20.28 969.53 19.26 969.3 18.4 970.3 17.29 969.8 17.59 968.58 16.84 968.47 15.19 969.23 13.71 969.09 12.66 968.56 11.2 968.69 10.74 969.22 11.55 970.61 11.21 971.15 9.88 970.45 51.09 889.11 81.92 828.26 95.23 801.99 125.39 732.88 125.92 731.63 124.99 730.45 123.22 730 121.31 728.01 120.34 727.9 118.33 729 117.09 727.87 115.33 726.79 113.79 725.17 110.25 723.3 107.16 724.77 105.3 725.13 103.82 724.9 102.38 725.28 101.03 723.88 99.43 723.94 99.04 723.58 96.56 722.73 95.72 722.8 95.3 721.59 93.43 719.11 91.85 718.39 91.96 716.66 90.91 715.92 91.97 713.11 91.85 709.95 92.33 708.39 93.79 707.23 92.95 706.57 92.91 705.05 93.83 702.84 93.67 701.86 94.34 701.16 93.64 700.16 94.57 699.24 93.01 698.38 93.31 696.61 92.95 695.74 93.05 694.38 93.78 693.32 93.21 691.59 94.35 689.62 96.05 687.44 96.64 686.05 96.72 683.86 97.2 683.25 98.98 682.57 100.2 682.4 103.14 682.56 106.1 682.98 108.11 680.22 109.48 679.44 108.78 676.37 108.87 675.13 109.5 674.18 110.89 670.58 111.01 669.31 111.9 667.9 112.11 665.46 112 664.4 112.7 663.49 114.18 659.98 113.83 655.89 112.24 654.5 112.29 652.74 112.02 650.84 112.55 649.13 112.48 648.2 113.81 646.13 113.86 645.45 112.33 644.43 111.97 643.53 111.86 641.73 113.12 640.39 112.92 638.93 112.08 638.55 111.21 637.51 109.24 635.85 107.73 633.41 108.03 632.43 108.72 631.9 108.96 630.33 108.4 629.04 105.9 626.66 103.73 624.99 103.8 623.63 102.76 622.66 101.77 622.51 100.31 622.98 99.08 622.59 96.88 622.82 95.59 622.42 94.71 621.09 95.76 619.02 95.95 616.63 96.46 615.85 95.76 613.24 94.93 611.89 93.29 610.27 91.52 609.51 91.04 608.77 91.04 607.45 90.6 606.39 90.67 605.13 91.72 602.46 94.38 599.22 94.57 598.5 94.1 597.35 92.03 596.06 92 595.2 92.94 594.53 92.73 593.52 90.44 592.57 88.73 591.55 84.7 590.07 82.95 588.24 81.88 587.87 81.12 586.85 77.61 587.12 76.78 588.09 74.45 588.67 73.95 588.2 74.07 585.41 73.02 584.55 72.39 583 69.89 580.64 67.18 579.33 66.09 575.54 66.06 573.34 65.61 572.47 65.64 570.42 65.01 568.71 64.37 566.18 64.39 564.3 64.13 563.05 63.1 561.1 63.15 559.61 61.97 557.69 61.44 555.33 60.06 554.28 58.47 554.11 54.57 555.1 52.88 554.68 51.77 553.83 51.11 551.94 51.4 549.8 51.06 547.95 51.08 545.45 50.64 542.13 51 539.25 50.77 538.81 48.35 537.73 48.15 535.83 47.21 535.08 47.32 534.31 49.18 533.21 50.13 530.02 51.16 527.26 51.02 526.58 51.65 524.69 52.51 523.2 54.58 522.18 56.35 522.67 58.11 521.03 59.03 519.73 61.53 517.44 65.11 514.74 65.77 513.58 64.36 510.3 63.93 508.39 62.84 507.12 62.09 505.13 60.87 503.93 60.78 502.86 61.2 500.45 60.52 498.47 60.58 497.46 61.56 495.18 61.71 493.02 62.49 491.8 62.24 489.92 63.75 489.39 65.57 488.17 67.35 487.57 67.67 486.61 65.09 483.41 65.51 481.59 64.88 480.71 65.29 479.93 64.68 477.67 62.61 473.95 63.17 473.03 62.35 471.17 60.47 471 59.61 470.61 60.17 469.69 58.56 467.68 57.88 468.39 57.07 468.17 57.03 466.87 56.12 466.15 55.18 464.16 54.18 463.52 50.44 462.7 48.14 462.06 48.42 461.2 47.5 460.55 45.93 460.5 45.16 459.02 45.58 456.69 45.25 455.22 46.34 453.55 47.72 452.98 47.28 451.79 47.66 450.93 49.01 451.03 47.58 448.44 47.39 447.26 46.23 447.34 46.16 448.57 44.95 448.67 44.23 446.15 45.18 445.03 45.47 443.45 44.25 443.39 43.01 443.77 43.49 442.18 43 440.3 44.43 439.49 44.52 438.34 42.83 438.53 41.17 439.21 40.89 438.8 41.53 437.54 42.68 437.93 44.49 437.67 44.47 437.2 42.97 435.75 40.74 435.23 39.05 435.27 38.15 434.61 38.32 433.85 39.7 433.28 37.42 432.2 38.68 430.86 38.74 430.08 35.92 429.75 35.31 429.88 34.86 428.63 36.17 428.38 37.12 427.74 36.82 427.16 33.67 427.22 34.12 426.34 34.06 425.1 33.02 425.81 32.46 425.66 33.42 424.03 32.33 423 33.71 422.77 32.89 421.73 33.72 420.65 31.84 419.72 34.54 417.27 37 415.92 38.36 415.79 37.69 414.35 38.13 413.25 39.26 413.31 40.75 414.38 42.13 414.3 42.67 412.71 43.7 412.39 42.96 411.48 41.24 411.8 40.73 411.33 41.02 410.17 43.74 410.13 42.44 408.22 41.14 408.77 40.85 407.88 40.97 406.31 40.6 405.81 39.03 406.02 37.72 405.51 36.66 405.77 36 406.44 36.69 408.16 35.51 408.17 35.22 406.24 34.39 405.54 33.36 405.64 31.84 406.35 29.67 406.92 27.08 407.11 27.91 405.15 25.98 404.66 25.47 405.89 24.66 406 23.55 406.94 23.34 407.66 21.82 407.02 20.58 407.97 19.88 406.25 18.96 406.77 17.47 405.43 16.89 406.39 16.19 405.62 15.77 404.17 14.91 404.13 14.27 402.31 14.77 401.45 17.67 400.85 18.85 399.22 19.89 399.33 22.4 397.64 21.98 396.69 23.9 395.35 22.26 392.67 21.21 392.14 19.75 390.8 19.84 389.91 21.49 390.56 23.15 390.45 22.81 389.64 23.23 388.23 22.04 387.62 21.09 386.57 19.77 386.39 19.82 385.16 19.39 384.48 17.45 383.28 14.22 382.51 11.54 381.05 10.2 380.84 9.07 379.6 7.91 378.98 6.28 378.59 4.25 378.83 3.49 377.92 4.26 376.81 3.89 375.13 2.91 375.09 2.81 373.91 5.23 372.28 4.92 370.21 5.49 369.09 5.06 363.12 3.12 362.82 1 362.96 5.16 359.24 8.14 356.15 11.39 352.02 13.31 349.92 16.34 346.04 19.22 342.95 23.52 336.3 25.85 332.3 26.9 329.42 29.24 325.14 30.42 321.6 34.36 314.84 36.37 309.73 38.25 302.93 41.01 296.12 42.77 293.43 45.21 290.24 48.73 285.9 51.13 283.7 56.1 279.78 59.77 277.41 65.29 274.7 67.87 273.11 72.13 271.47 77.84 269.65 85.27 266.38 88.21 264.19 90.71 262.17 94.71 260.49 98.08 258.92 104.46 255.06 106.88 252.61 108.1 250.88 109.45 248.04 110.26 245.29 110.56 242.44 110.58 240.52 109.93 236.65 109.57 235.28 108.54 233.01 107.05 230.81 104.79 226.55 102.51 223.32 100.69 220.17 98.36 217.26 96.74 214.74 93.4 208.24 92.17 205.26 91.47 202.03 91.16 199.67 92.04 195.37 92.83 193.42 95.28 189.73 99.68 185.18 102.94 182.85 107.48 180.64 110.46 178.5 113.95 174.49 115.88 171.55 117.36 167.98 119.86 158.63 121.28 155.69 123.31 150.69 127.54 145.31 132.02 140.07 134.84 134.53 136.47 131.98 139.14 127.13 140.46 125.31 141.79 123.02 143.75 121.19 147.6 119 149.31 118.42 151.96 118.19 157.4 118.5 162.68 119.33 171.14 121.38 175.95 122.81 182.95 125.2 187.14 126.73 192.69 128.46 196.38 129.46 201.93 131.55 205.69 133.26 209.19 133.88 212.23 134.26 216.56 133.58 220.11 133.28 224.14 132.76 230.39 131.83 236.83 130.62 243.93 128.77 246.5 128.21 248.49 128.25 257.25 127.82 259.04 127.37 261.54 126.34 265.71 124.38 268.77 122.63 271.6 121.45 278.46 119.05 281.44 118.14 286.65 116.01 288.92 114.97 292.54 112.83 294.57 111.03 295.69 109.29 296.35 106.66 297.66 102.23 298.84 97.68 299.32 94.93 299.92 92.57 300.5 87.84 299.8 85.4 298.28 83 296.93 81.56 294.52 80.25 289.2 78.34 287.08 77.93 284.46 77.8 281.37 77.37 275.34 77.6 269.67 77.61 266.23 78.38 260.92 80.32 259.09 81.17 256.76 82.71 253.32 85.56 249.45 88.05 242.96 90.15 240.31 90.8 238.34 91.04 236.4 90.97 233.98 90.57 231.12 90.37 228.79 89.92 224.18 85.75 220.26 81.75 218.74 78.04 218.22 75.75 217.22 68 216.78 65.59 216.07 59.43 215.96 57.09 215.43 52.01 215.43 50.13 216.26 47.32 216.82 44.88 219.46 39.74 222.86 35.45 223.73 34 232.08 27.13 233.91 25.4 236.23 23.61 238.18 21.29 242.62 14.26 245.22 11.55 247.41 9.77 249.52 8.42 251.2 6.85 254.23 4.73 256.83 3.17 258.81 1.7 260.04 1.12 261.9 1 264.73 1.15 266.16 1.52 270.13 3.34 271.33 4.16 274.25 7.3 276.22 9.95 276.89 11.5 277.51 13.63 277.93 15.92 278.75 18.01 278.89 20 279.79 23.4 280.74 24.71 282.22 25.97 283.56 27.71 285.68 29.65 288.22 32.64 288.69 34.52 290.26 38.3 290.54 40.43 291.18 48.88 291.81 51.4 293.63 56.79 294.68 59.37 296.16 64.46 297.25 69.99 297.71 71.75 299.56 73.14 303.34 74.37 304.72 74.46 308.48 74.29 311.39 73.04 313.09 71.96 315.21 70.95 316.68 69.68 319.87 67.91 323.62 67.34 330.53 67 337.94 66.52 341.53 65.11 342.83 64.29 346.34 61.41 348.74 59.97 350.78 59.11 353.56 58.53 357.84 57.05 359.24 55.94 362.98 52.32 365.83 50.2 367.34 49.37 370.81 48.15 372.44 48.03 374.28 48.18 376.28 49.03 377.17 49.92 379.41 52.87 381.71 56.69 383.58 58.98 384.71 59.68 386.93 60 388.41 59.6 389.63 57.54 390.6 51.75 390.7 49.92 391.4 46.16 392.11 44.48 393.91 41.91 395.03 41.28 398.45 40.52 400.03 40.68 401.39 41.36 403.7 44.47 406.21 46.78 409 48.68 410.53 48.92 413.59 48.73 415.71 47.6 419.83 44.63 422.46 44.02 424.17 44.45 428.31 46.43 431.24 46.38 432.77 46.05 435.81 46.3 437.48 47.05 438.48 48.51 437.29 51.22 434.31 53.82 433.32 55.29 432.66 56.95 432.39 59.74 433.53 61.73 434.32 62.44 436.34 63.53 439.13 64.28 443.06 64.43 444.62 64.01 445.76 63.36 446.4 62.47 446.42 61.46 445.62 59.37 443.64 57.34 441.54 54.89 440.53 52.28 440.76 50.22 442.33 47.8 442.55 46.69 442.47 44.13 443.15 42.33 445.92 40.29 448.95 38.84 451.52 38.12 456.12 38.97 456.79 39.59 456.9 41.98 456.57 43.33 456.25 46.29 456.67 48.31 457.49 49.77 459.54 50.77 462.53 50.76 464.67 50.21 466.89 49.3 469.69 48.77 472.8 48.57 475.54 49.5 476.23 50.26 476.31 52.46 474.68 55.78 473.15 58.05 472.56 61.61 472.82 63.81 473.31 65.57 473.98 66.79 475.08 67.88 476.26 68.57 478.31 69.11 480.01 68.39 480.98 66.42 481.35 63.41 482.46 61.05 484.32 59.32 487.89 58.39 492.9 59.45 495.89 60.68 498.9 61.47 503.75 63.04 506.08 64.04 508.77 66.46 509.47 67.6 509.57 68.82 508.79 69.69 507.28 70.16 502.94 70.63 500.88 71.03 498.81 71.97 496.8 73.13 495.66 74.19 494.85 75.73 494.22 77.61 494.2 80.45 494.39 81.83 495.37 84.71 497.07 87.07 497.99 87.89 499.73 88.76 501.13 89.12 503.49 90.1 507.24 91.44 510.28 92.95 512.33 94.13 513.38 95.04 514.33 96.33 515.78 99.44 516.29 100.96 516.95 104.58 518.27 108.18 519.09 109.41 523.31 113.58 525.06 115.89 527.39 118.15 528.8 118.76 531.66 119.58 533.81 119.85 535.6 119.54 539.53 118.61 543.3 117.56 550.42 116.78 552.02 116.39 555.04 116.01 557.26 116.46 558.67 117.94 560.47 120.78 561.73 121.88 564.26 123.57 568.38 125.16 571.45 125.58 573.11 125.62 576.02 125.2 577.01 124.78 577.98 123.38 577.9 122.35 575.48 118.14 574.39 115.41 574.41 113.48 575.57 111.16 577.23 109.72 580.08 108.11 582.58 107.3 584.8 108.16 585.62 108.96 587.04 111.61 587.54 113.91 589.01 117.04 591.01 119.08 595.41 121.72 600.76 123.37 603.01 124.42 604.82 124.98 609.78 127.69 611.35 128.99 614.5 130.99 616.44 132.02 620.13 133.2 622.96 134.63 629.74 143.71 630.87 144.94 632.77 146.56 635.23 147.81 638.45 148.42 640.37 148.55 643.28 149.32 645.54 150.48 646.38 151.37 646.8 152.74 648.64 157.42 650.08 159.75 650.8 161.26 653.94 165.81 656.54 168.99 659.06 171.78 662.63 175.12 664.68 177.31 666.18 179.8 666.16 182.65 665.87 185.28 664.34 191.05 664.17 192.66 663.15 196.11 661.32 200.11 659.34 203.36 658.33 204.65 655.46 207.11 653.67 207.68 651.04 207.69 649.85 208.04 649.2 208.79 649.34 211.31 650.29 213.83 652.2 215.64 654.67 215.98 657.97 215.48 Z"/>
</g>
</svg>