<?xml version="1.0"?>
<svg xmlns="http://www.w3.org/2000/svg" version="1.2" baseProfile="tiny" width="800" height="730" viewBox="0 0 800 730" stroke-linecap="round" stroke-linejoin="round">
<g id="4203204">
<path d="M 514.38 5.31 516.92 23.63 519.42 28.04 521.97 31.13 526.44 34.97 542.32 41.88 550.28 44.16 556.33 46.22 571.76 52.27 576.87 56.06 582.77 63.31 587.86 70.16 596.22 80.36 599.74 84.05 603.21 87.04 613.78 95.07 616.75 97.02 622.55 99.63 627.58 101.36 636.18 103.64 636.85 106.64 638.42 108.04 641.06 108.15 645.42 109.97 648.15 112.2 656.69 111.73 658.41 111.9 663.19 113.7 664.21 116.19 663.19 117.92 663.32 120.4 661.72 122.53 661.36 126.76 664.12 130.45 662.77 133.47 660 136.99 658.34 142.13 657.4 143 656.06 147.23 656.1 148.92 657.58 153.04 660.01 156.59 665.2 153.45 669.28 152.19 674.19 153.27 677.07 155.5 676.44 157.9 669.17 158.53 669.2 161.54 665.72 162.66 664.72 164.78 665.76 165.62 674.5 163.67 677.18 163.73 683.24 166.13 690.32 167.31 702.39 173.89 704.96 176.78 706.04 179.9 708.15 181.35 712.08 179.88 716.36 176.24 722.2 174.87 726.04 172.8 727.46 171.13 729 166.65 730.29 165.47 733.91 167.13 737.82 167.75 740.79 169.41 746.45 174.97 746.44 176.59 745.05 179.74 741.52 182.12 738.98 185.86 739.07 191.32 741.09 193.11 740.81 198.89 741.23 205.2 742.27 208.17 742.52 214.7 743.3 217 742.87 221.93 743.71 225.06 743.45 228.71 742.38 232.27 746.71 236.9 749.46 238.04 755.47 239.77 757.99 240.88 762.77 240.87 767.48 239.28 772.26 238.68 778.25 240.03 780.58 242.5 780.53 246.78 778.1 253.1 775.41 255.97 773.65 259.37 774.72 265.31 780.85 271.45 781.01 275.55 781.8 280.03 784.6 285.04 789.32 289.42 792.02 293.65 793.26 297.51 794.4 303.22 799 304.52 794.55 304.19 790.19 305.56 785.93 308.44 783.51 308.84 780.78 311.88 779.33 316.01 778.83 318.87 779.23 325.42 780.02 328.86 778.59 330.81 773.97 333.59 773.47 334.35 774.39 340.83 774.01 342.66 770.35 345.09 764.67 346.77 762.62 348.03 759.66 351.23 761.2 352.99 764.24 354.09 769.11 354.72 770.68 356.43 774.22 363.42 774.33 367.88 777.52 372.6 782.89 378.26 784.31 382.06 784.33 385 782.63 386.44 777.11 385.71 772.35 384.55 768.74 386.54 764.88 387.29 762.6 389.04 760.56 389.41 754.83 395.91 750.5 399.34 746.82 403.89 743.98 405.83 738.69 410.69 735.19 412.31 730.28 413.84 725.58 415.98 722.02 418.41 719.51 419 715.79 420.95 712.94 423.96 707.39 428.18 700.13 429.19 693.14 432.53 690.5 433.28 686.02 433.17 683.27 435.13 680.81 438.67 677.24 440.27 673.13 445.98 669.23 448.46 664 449.53 662.06 449.43 656.08 447.86 649.98 444.13 645.82 441.12 643.85 440.51 641.86 441.02 638.85 442.88 635.56 442.96 631.87 440.99 627.56 437.61 620 433.6 614.51 432.2 610.59 432.99 609.81 431.97 605.69 430.51 604.87 431.72 602.26 438.02 601.5 444.06 594.41 451.7 591.58 453.41 589.15 456.02 586.65 461.57 582.59 466.06 577.22 472.87 570.26 479.25 566.3 482.59 561.49 484.91 558.52 487.85 553.26 491.42 551.07 494.01 545.46 497.78 541.78 499.06 539.26 498.65 537.07 499.89 534.16 504.3 529.05 510.5 531.69 518.38 533.06 520.78 536.84 524.82 537.77 529.16 538.16 533.68 542.32 539.11 547.73 543.94 551.89 546.74 551.82 549.48 552.47 553.61 554.18 555.98 557.01 557.39 561.13 562.91 561.78 566.3 562.94 567.12 566.98 566.19 570.23 564.89 575.13 563.59 582.23 562.32 584.15 565.04 586.71 573.87 585.95 576.9 586.82 583.17 588.48 586.67 590.01 588.13 596.55 590.49 598.29 590.39 599.64 593.91 600.43 599.31 603.33 602.85 602.81 607.89 601.2 610.68 596.94 613.2 595.13 615.05 589.24 619.2 583.87 620.35 580.76 619.26 578.31 619.72 575.21 622.37 572.68 625.38 569.35 626.53 564.84 625.35 561.66 625.86 556.55 629.44 551.23 631.37 543.78 634.91 541.72 635.54 537.61 635.8 531.58 638.53 528.09 640.95 524.76 641.72 522.73 640.35 520.21 641.22 514.76 646.14 507.92 648.99 507 651.58 503.95 651.29 501 652.27 499.76 653.91 496.61 654.84 495.46 658.09 497.97 661.77 497.64 664.41 494.24 667.67 493.32 669.31 489.15 670.79 487.53 671.88 486.25 674.38 484.64 671.89 480.04 668.39 478.07 665.82 474.04 666.06 471.33 667.82 466.22 669.47 461.78 668.76 457.46 665.82 454.91 659.93 452.82 659.1 450.64 659.56 447.32 663.48 442.29 665.07 437.62 665.08 433.33 666.94 430.27 670.2 426.4 672.35 424.7 675.21 421.68 675.76 417.43 675.52 413.29 671.48 411.33 671.21 408.05 672.09 407.38 674.02 401.61 676.22 398.46 674.93 395.54 676.4 393.4 678.41 387.85 681.36 385.96 681.6 383.42 683.59 381.17 684.26 378.05 682.73 374.36 682.19 372.01 679.23 368.67 678.78 366.38 680.95 360.5 678.6 355.13 678.88 353.88 678.33 349.2 679.6 347.3 679.28 344.3 682.61 341.05 683.87 338.4 687.82 336.82 688.35 330.25 686.08 328.49 686.37 325.54 685.43 323.81 686.3 321.93 688.48 318.93 689.06 317.72 691.46 314.97 692.57 313.09 694.66 311.45 695.21 309.24 693.88 306.21 694.59 303.6 696.67 302.94 698.95 300.5 699.78 296.46 697.74 291.95 697.04 287.91 697.04 281.27 701.45 276.35 702.53 275.6 700.44 269.55 699.46 263.9 699.87 261.21 699.65 258.23 700.25 255.86 700 252.68 701.6 250.42 701.7 245.2 700.85 244.41 698.68 241.03 696.09 240.34 686.48 238.14 684.62 236.42 681.19 236.16 676.94 239.21 670.84 238.92 668.54 232.91 661.22 232.95 659.25 231.05 656.57 231.19 653.4 225.44 648.74 223.53 646.84 219.85 648.48 207.92 650.99 206.17 651.85 202.7 655.2 200.87 655.99 196.86 655.93 192.02 654.68 187.06 652.34 182.44 651.71 179.83 650.77 174.32 650.19 171.61 649.16 167.99 646.54 165.8 646.39 163.43 647.75 162.98 651.07 161.15 651.75 154.21 650.31 151.08 650.87 149.88 652.31 149.96 654.53 155.74 666.33 157 670.28 156.17 675.29 152.04 681.04 155.64 687.45 156.43 693.64 155.66 695.3 151.24 698.41 147.54 699.02 144.44 701.41 141.61 702.54 140.29 704.16 140.56 705.84 139.61 709.29 135.77 713.42 134.54 715.59 128.53 714.58 123.82 715.53 120.31 714.25 114.33 714.92 107.14 714.92 101.74 712.48 99.2 712.2 94.38 713.01 93.38 714.31 89.18 717.09 85.08 717.74 82.05 716.67 76.61 719.03 70.71 720.45 69.44 721.19 67.46 725.72 64.8 727.46 59.37 728.03 55.42 729 52.52 728.83 50.03 728.49 49.07 727.28 47.33 721.51 47.72 718.49 51.04 712.85 52.44 709.7 51.7 705.99 49.9 703.5 49.54 694.17 49.08 692.57 44.73 690.82 43.37 689.64 40.63 682.41 40.25 676.79 38.25 673.78 33.64 672.82 28.64 674.78 24.65 675.03 22.56 673.59 20.66 671 15.78 668.1 12.7 664.93 7.1 656.39 6.63 651.95 5.44 650.67 1 647.63 4.66 648.9 7.12 648.28 14.57 641.55 18.49 639.36 22.96 637.96 24.67 636.57 27.22 633.02 35.85 625.46 38.86 621.78 40.01 619.36 34.48 613.38 32.09 611.23 32.09 607.86 33.25 604.33 30.94 604.05 29.34 602.64 28.09 599.86 30 595.78 34.89 589.65 37.1 588.17 40.06 584.82 43.49 582.33 45.56 579.56 47.79 577.66 52.3 576.77 54.21 575.72 56.09 573.2 56.1 568.61 55.32 564.4 55.56 557.95 56.81 556.66 58.15 549.33 57.88 544.66 60 542.24 60.52 540.41 60.51 536.5 59.87 529.42 59.05 527.35 59.55 525.08 62.37 520.02 66.03 517.84 67.95 515.29 73.19 510.25 79.68 505.05 85.97 499.1 88.06 498.13 91.43 497.78 93.42 498.46 95.52 498.65 100.46 497.85 106.35 492.55 107.7 491.93 112.96 492.17 112.7 487.63 111.35 483.7 113.33 478.96 112.78 477.31 112 471.06 112.39 469.3 114.64 466 115.84 462.04 117.84 460.85 117.66 458.97 115.03 454.07 115.09 451.27 118.61 445.87 120.59 443.8 121.18 442.03 123.86 440.16 127.08 435.76 131.52 433.07 136.94 434.52 139.54 430.06 140.27 425.83 143.77 423.9 144.45 417.68 140.77 409.38 139.21 407.58 138.76 403.36 141.31 399.47 141.1 397.52 138.84 393.7 141.07 390.64 141.04 387.01 139.74 382.86 139.89 381.06 141.71 378.92 141.32 376.37 139.54 373.72 139.59 367.43 138.25 364.79 138.17 361.96 140.37 357.77 141.7 356.21 145.8 356.56 146.99 355.53 149.12 356.02 150.98 353.3 149.15 352.08 148.81 350.44 145.69 348.45 143.04 347.4 145.79 342.91 145.31 341.77 146.41 338.32 145.82 335.69 146.09 333.37 147.31 332.66 150.25 333.08 152.56 334.43 154.93 334.65 156.5 333.26 159.57 333.1 160.8 336.02 160.95 339.31 161.97 339.75 164.08 336.23 169.26 335.53 170.66 329.62 172.66 328.68 175.76 329.38 176.59 330.58 179.83 331.08 182.62 334.04 184.64 334.7 187.99 330.8 194.24 325.65 195.12 322.27 197.21 317.07 201.01 316.19 204.52 311.54 204.02 310.01 198.65 310.52 196.99 309.71 196.64 307.81 193.95 306.18 193.2 303.92 191.1 301.81 191.57 300.06 194.03 299.28 194.53 297.13 198.72 294.04 201.41 290.75 203.33 289.58 208.44 288.4 211.2 289.35 215.95 287.07 219.33 286.4 223.28 284.42 225.14 282.32 225.34 280.07 227.51 276.05 227.47 273.49 225.75 270.95 226.84 269.32 231.93 267.74 234.81 265.94 234.9 263.82 236.45 262.99 235.25 254.99 229.36 246.93 230.66 245.08 230.19 242.97 231.89 240.44 230.49 235.51 232.21 232.76 231.33 230.68 232.86 229.54 234.34 230.31 236.14 228.98 242.02 227.62 245.42 228.41 245.35 226.17 248.4 219.99 248.93 217.51 244.7 216.27 248.4 215 247.56 212.69 250.05 211.63 252.54 212.27 252.66 209.38 255.61 207.38 256.46 205.72 261.65 203.86 263.08 204.34 266.16 203.54 266.66 202.13 270.79 202.44 271.31 204.76 273.95 204.1 277.99 199.57 282.12 201.54 285.68 199.55 289.14 199.18 288.25 194.26 290.3 193.13 296.36 193.89 296.63 191.28 297.75 188.53 299.76 188 302.92 185.32 305.6 184.95 309.3 185.41 312.34 185.11 312.82 187.6 314.43 186.78 318.35 189.7 317.71 185.34 320.41 185.67 320.37 183.35 323.51 181.93 325.26 182.1 329.57 180.09 335.19 179.54 335.88 178.62 339.66 179.25 338.57 176.99 340.89 172.2 345.33 173.16 348.73 172.87 349.54 169.61 353.43 171.83 360.01 172.15 362.55 171.27 363.1 169.88 374.77 160.02 380.2 152.78 388.44 144.44 388.5 142.33 393.83 140.85 392.35 137.09 392.72 131.78 395.33 130.27 400.41 125.98 402.34 120.23 402.94 114.67 402.04 112.59 395.64 103.67 506.8 1 508.77 4.15 512.16 6.44 514.38 5.31 Z"/>
</g>
</svg>