<?xml version="1.0"?>
<svg xmlns="http://www.w3.org/2000/svg" version="1.2" baseProfile="tiny" width="800" height="771" viewBox="0 0 800 771" stroke-linecap="round" stroke-linejoin="round">
<g id="4204202">
<path d="M 275.34 80.16 275.7 82.42 275.59 83.9 276.24 86.78 277.31 88.07 279.45 92.76 279.63 94.19 280.69 96.58 281.75 97.83 282.18 99.52 281.3 101.39 280.89 104.86 281.14 105.87 333.63 123.01 334.35 121.23 336.23 118.21 337.69 116.58 339.51 115.15 343.54 113.42 345.98 113.45 347.34 113.99 350.04 118.68 352.53 119.66 354.84 120.05 358.03 121.01 360.09 122.01 363.25 124.59 365.09 125.64 366.91 127.13 368.24 127.85 371.14 127.43 375.12 124.48 377.24 123.8 382.96 123.61 431.3 124.47 440.86 124.2 451.54 138.99 468.04 160.48 511.92 217.65 564.85 206.85 565.95 207.71 566.69 208.99 566.82 211.79 567.2 214.21 566.72 215.86 567.93 215.99 569.38 216.69 572.23 215.83 573.3 215.8 577.85 218.05 579.76 218.68 584.83 219.99 584.6 222.12 585.18 223.3 588.2 224.22 590.46 223.86 592.05 224.52 594.28 224.52 596.73 226.52 599.02 230.69 599.56 232.47 599.17 233.71 597.13 233.22 596.11 233.78 596.38 235.66 595.82 238.19 596.43 240.9 598.2 242.88 598.78 245.56 599.57 247.35 599.28 248.78 596.11 251.26 595.97 252.26 596.8 252.97 598.62 252.7 602.32 253.67 603.04 253.37 606.56 253.52 610.02 254.39 612.71 254.17 613.72 253.55 615.94 253.82 618.23 253.18 620.34 253.07 622.38 253.38 626.09 256.23 626.41 256.73 630.01 259.53 630.36 262.37 633.13 266.63 634.26 268.7 636.56 270.24 636.62 270.85 634.95 271.53 633.59 270.85 628.52 269.5 625.32 267.96 622.4 267.6 621.06 267.79 618.5 268.67 617.36 270.09 617.58 271.16 618.54 272.82 621.22 275.43 624.43 276.31 627.39 279.39 631.69 280.86 633.06 282.09 634.84 284.85 635.28 288.58 634.72 289.54 635.05 291.29 637.91 294.06 641.73 297.17 643.68 297.05 648.51 295.14 651.1 295.97 652.06 297.01 653.36 297.06 655.59 292.84 656.35 292.77 657.14 294.26 659.11 296.06 659.83 297.16 660.9 300.97 663.01 303.88 665.77 306.99 667.29 308.15 668.2 310.68 669.24 312.25 670.28 312.83 671.46 311.29 672.67 309.13 673.81 306.12 674.83 301.56 676.14 301.61 679.51 304.37 682.88 306.82 683.64 307.76 684.22 309.82 683.94 313.79 684.13 314.41 685.92 316.42 687.65 317.54 689.79 317.69 691.87 317.42 692.71 316.89 695.19 314.55 698.18 314.02 700.29 314.65 702.82 316.27 703.62 318.35 705.48 320.47 707.48 321.82 710.76 322.07 714.2 321.65 718.1 321.78 719.7 322.32 721.15 323.4 725.34 325.62 726.34 326.85 726.23 327.58 724.42 328.44 720.13 330.01 718.64 331.16 717.01 333.26 716.7 334.49 717.38 335.93 719.16 337.68 720.89 338.66 722.27 341.26 722 343.57 720.99 346.45 720.76 348.27 721.5 349.12 723.24 349 725.76 347.63 728.93 344.89 731.36 344.9 736.96 347.12 742.48 350.74 746.66 352.76 751.4 355.4 754.77 357.64 759.69 360.46 764.62 364.13 769.26 367.02 774.22 370.4 777.03 372.47 782.42 376.2 785.55 378.04 792.31 381.34 796.26 383.69 798.05 385.08 799 386.67 798.86 387.85 797.93 388.99 796.14 389.58 788.94 389.08 786.49 389.76 783.17 391.16 780.12 392.18 775.77 392.55 773.04 392.29 771.51 391.75 766.94 389.58 764.37 388.55 760.63 387.84 756.44 387.69 755.61 388.46 755.09 391.54 753.68 394.25 751.33 396.12 748.84 397.15 744.89 399.08 743.63 400.09 743.56 402.21 744.58 403.37 747.02 404.52 748.01 405.85 749.99 409.97 750.79 412.4 752.41 418.11 752.53 419.24 753.47 421.66 754.28 422.74 756.44 424.6 761.96 427.12 766.32 428.52 771.96 431.11 776.56 433.52 780.49 436.32 781.63 437.84 781.96 439.21 781.16 441.59 782.69 447.34 782.96 449.01 782.62 451.83 782.03 453.43 780.97 454.6 778.45 455.33 773.98 455.07 768.02 455.28 763.94 455.84 760.37 456.74 758.34 457.88 755.41 458.36 753.41 458.33 749.79 457.49 747.68 456.37 743.33 452.43 740.52 450.41 737.82 449.23 735.89 449.92 735.59 452 736.63 458.64 736.66 460.01 735.73 462.01 734.38 463.19 731.92 464.1 728.49 464.07 722.86 465.13 717.79 465.85 716.28 466.37 715.8 467.04 716.04 468.41 717.71 469.73 720.14 470.31 723.34 472.17 730.48 475.78 735.25 479.1 739.38 482.75 741.74 485.53 743.13 487.45 743.81 489.06 743.83 490.05 743.19 491.16 740.35 492.78 736.99 493.05 734.75 493.73 732.09 495.35 729.62 497.69 727.48 500 723.84 503.59 721.83 504.91 720 505.71 716.7 506.51 714.56 506.5 712.81 506.19 709.22 505.07 706.41 504.66 705.37 504.81 704.08 505.68 703.4 507.15 703.89 509.72 704.63 511.62 706.22 513.91 707.34 516.4 708.52 521.68 709.64 524.69 712.55 529.17 713.43 530.91 713.65 533.24 712.73 534.67 710.14 535.94 708.05 536.32 705.08 536.27 699 534.8 696.41 534.61 695.29 534.87 694.54 536 695.03 536.76 696.64 537.78 698.59 539.79 701.49 543.33 703.7 547.13 705.81 552.66 706.55 554.18 708.42 556.88 712.05 560.96 713.62 562.16 715.06 562.79 717.07 562.81 719.17 562.17 722.57 560.63 724.26 560.21 725.9 560.54 726.5 561.2 726.49 562.32 725.54 564.25 723.21 566.77 721.3 567.81 714.67 569.73 712.65 570.5 710.43 573.04 709.68 575.31 709.71 577.21 710.36 579.49 711.27 581.76 711.55 583.57 711.56 586.96 711.29 588.82 710.62 590.18 705.67 597.93 704.02 599.77 701.93 600.6 699.55 600.54 695.07 599.95 693.22 599.87 691.29 600.18 688.57 601 685.34 602.4 682 604.2 679.07 606.71 678.16 608.59 677.97 611.04 679.23 614.35 679.61 616.46 679.13 619.03 678.37 620.51 676.73 622.38 671.48 623.85 666.72 624.67 661.55 625.24 660.1 625.66 658.89 626.44 658.23 628.86 658.59 630.11 660.74 632.79 663.54 638.01 665.13 640.43 673.51 649.83 675.26 652.34 675.34 654.23 674.56 656.16 673.65 657.05 670.42 657.71 667.87 658 663.54 658.05 659.58 658.62 658.34 659.2 657.53 661 658.07 664.12 659.02 666.02 659.33 667.38 659.16 668.63 657.48 670.07 655.88 670.28 657.59 672.56 655.05 670.42 651.24 668.45 645.92 667.53 643.87 667.61 641.69 668.28 639.1 669.63 634.43 674.21 631.96 677.23 630.46 679.54 627.96 682.71 623.53 686.73 620.93 688.48 617.96 689.98 615.33 690.99 612.56 691.55 608.96 691.93 601.67 691.23 598.82 690.72 590.03 688.83 587.05 688.09 583.45 687.47 572.85 686.03 565.98 686.15 562.3 686.49 559.45 687.32 554.14 690.45 548.83 694.03 544.27 698.09 539.13 702.98 535.46 706.62 532.74 708.97 527.47 714.03 522.66 717.99 519.02 719.85 516.59 720.86 509.52 724.59 506.09 725.82 501.94 726.98 498.47 727.69 494.87 728.22 481.97 728.85 475.56 729.08 465.88 728.46 460.85 727.72 458 726.83 453.73 725.83 450.54 724.9 446.52 724.05 440.57 722.09 437.55 720.82 434.95 719.26 432.06 716.92 429.92 714.36 427.78 709.41 426.94 706.8 426.52 704.31 423.75 694.34 421.9 691.21 418.92 685.64 417.24 682.25 415.39 679.24 411.82 674.55 407.07 670.18 404.14 668.18 401.08 666.36 398.15 665.39 395.59 664.76 393.04 664.69 389.94 665.21 384.62 666.45 382.36 667.53 374.75 672.37 370.52 676.73 365.04 683.94 364.29 685.87 362.83 691.34 362.46 697.07 362.84 703.08 362.85 710.07 363.07 716.7 362.74 721.83 361.82 724.29 360.74 729.28 357.24 741.18 354.86 746.72 352.89 750.11 347.62 757.48 343.44 762.81 341.05 765.01 336.15 768.47 330.53 770 327.34 769.97 323.86 769.52 321.48 768.85 318.42 767.7 315.19 766.07 312.51 764.51 309.74 762.5 304.96 758.33 300.77 752.9 299.17 750.49 298.04 748.11 296.57 742.6 296.61 739.48 298.19 729.1 299.44 722.69 299.78 719.5 299.77 715.82 299.22 709.34 298.68 706.96 296.32 699.57 294.31 692.88 291.96 686.33 289.06 679.19 285.41 671.22 284.2 668.99 282.1 666.09 276.65 662.45 273.72 661.44 270.29 660.63 266.94 660.18 262.54 660.26 260.11 660.45 255.63 661.42 252.74 662.35 247.76 665.07 245.42 666.97 241.36 671.66 237.2 677.1 232.52 686.89 229.38 693.74 228.04 697.65 225.7 703.04 223.19 706.8 218.67 710.49 216.45 711.68 210.38 713.84 204.44 715.51 200.67 715.47 196.56 715.17 193.97 714.5 190.91 713.43 187.72 712.05 184.96 710 182.7 707.55 179.93 704.09 177.71 701.6 172.89 691.59 171.63 686.75 170.88 677.78 171.34 673.99 172.63 667.66 175.02 661.6 176.15 657.76 178.53 651.06 181.67 643.58 183.3 639.38 184.26 635.4 184.89 631.82 185.01 626.44 184.59 620.67 182.66 616.2 181.11 614.01 178.39 611.78 171.65 607.43 167.38 605.64 162.73 603.86 153.85 601.36 146.79 599.2 131.72 597.08 124.48 596.18 122.94 595.87 123.21 594.4 124.47 593.06 125.7 590.67 126.15 587.23 127.02 583.65 126.83 581.37 126.43 580.01 124.51 578.2 120.82 573.32 119.97 570.23 120.08 567.86 122.05 566.59 127.19 565.96 140.24 565.14 143.52 563.09 144.13 561.96 144.39 560.44 144.53 556.06 145.22 553.98 147.86 551.87 152.49 552 154.42 552.81 157.58 555.35 158.9 556.18 162.01 557.63 164.04 557.8 168.19 557.86 173.5 559.03 175.02 559.98 177.73 561.16 180.65 562 185.8 564.3 188.71 564.31 189.74 563.69 190.68 561.07 191.45 560.08 193.27 559.65 195.48 561.07 198.37 561.81 202 561.98 203.87 561.76 204.49 561.19 205.25 559.2 205.08 556.89 205.46 555.71 205.97 552.5 205.81 551.64 204.22 549.29 201.74 546.83 201.42 545.22 202.48 544.36 205.29 544.2 207.51 543.52 208.36 542.04 207.02 540.55 203.79 539.07 202.42 537.66 200.58 536.48 197.9 535.51 196.74 534.49 195.59 532.8 196.16 531.01 197 530.3 200.27 528.28 202.69 526.58 204.44 524.87 206.32 522.32 209 520.98 209.71 519.63 208.22 518.6 203.52 517.59 202.38 516.43 202.43 515.5 203.58 514.14 205.68 512.79 207.5 512 211.85 509.45 212.81 508.08 214.3 507.97 216.84 507.37 218.42 508.02 219.06 509 219.54 511.21 222.09 511.3 225.49 510.57 230.34 510.21 233.7 510.4 235.59 509.56 236.64 506.14 236.58 504.89 237.36 503.49 238.61 502.99 242.48 503.4 244.18 502.21 244.23 501.28 242.43 498.74 242.05 496.18 242.87 495.33 250.06 494.85 251.38 494.06 255.34 490.02 255.61 488.67 253.95 484.76 254.23 483.49 258.2 480.33 259.61 479.76 263.32 478.74 263.98 477.76 263.71 476.3 262.51 473.32 261.28 470.91 261.17 469.04 261.98 467.39 262.13 465.96 260.45 462.6 260.69 459.11 261.24 456.73 260.57 453.36 261.41 450.83 261.4 448.77 262.39 447.57 262.34 446.25 261.68 444.03 263.17 442.85 266.15 443.01 266.66 441.72 268.64 440.58 270.76 438.42 271.78 437.96 272.34 435.8 273.6 434.06 274.46 433.6 276.8 433.08 278.43 433.56 279.05 432.84 277.88 431.7 279.72 429.88 280.03 428.94 279.47 427.33 278.22 426.74 277.12 424.98 277.9 423.84 277.62 422.35 276.87 421.08 277.26 419.76 276.63 418.73 277.29 417.46 279.81 416.8 282.49 415.15 283.93 412.88 283.87 409.99 285.1 408.63 289.29 401.36 289.23 400.03 288.11 398.7 287.78 396.27 288.67 394.92 289.98 394.05 291.39 391.83 290.89 390.49 291.12 388.45 291.55 387.83 291.55 386.14 290.8 384.2 290.66 382.81 291.14 381.64 295.29 379.14 295.46 376.63 295.09 376.19 297.22 374.01 298.78 371.77 299.19 369.72 298.09 369.86 297.48 368.43 297.7 366.82 297.19 365.41 295.88 364.45 295.36 361.48 293.43 358.53 293.61 356.61 294.62 356.31 296.7 354.25 297.32 352.7 296.06 352.13 258.95 334.39 250.36 330.23 241.5 326.03 243.04 324.41 244.63 323.3 246.73 322.75 245.45 321.59 246.52 320.16 248.91 320.02 249.09 319.03 246.85 317.72 245.58 315.99 245.06 314.42 244.21 314.17 244.35 312.97 242.29 312.29 241.8 310.11 242.24 307.49 241.1 304.86 239.87 303.95 237.45 304.56 234.98 302.96 236.08 301.84 236.7 303.62 238.47 302.65 239.66 300.44 239.58 297.86 239.12 297.15 237.59 296.54 238.07 294.31 237.3 293.49 235.2 294.05 234.07 295.41 233.12 294.78 234.56 293.6 234.21 293.02 232.31 293.68 232.8 292.47 235.78 289.26 237.14 286.97 236.52 285.28 236.78 283.65 234.56 281.46 234.39 280.31 235.99 279.05 235.84 277.76 236.47 276.27 237.19 275.59 237.35 274.07 238.03 273.34 236.62 271.07 238.07 269.59 236.66 268.79 237.83 267.61 240.06 267.57 242.49 266.61 243.35 266.77 244.44 264.69 244.21 262.44 244.65 259.57 246.58 259.08 248.53 258 248.9 257.44 248.16 254.06 246.32 252.31 247.1 249.25 245.13 249.75 244.03 247.75 245.01 246.02 243.35 244.12 243.28 242.55 244.05 241.66 247.01 242.59 248.99 243.93 249.79 245.92 250.76 245.91 251.35 244.95 253.67 244.76 254.61 244.09 255.61 244.45 255.49 245.68 256.74 246.76 257.61 246.41 257.16 243.55 256.24 241.49 258.19 238.35 260.08 238.42 260.74 237.73 259.92 234.85 260.41 232.36 260.95 231.17 263.54 230.74 264.16 227.79 262.66 225.38 261.49 224.75 261.04 223.78 261.71 221.96 261.66 219.75 259.76 217.77 259.5 215.83 258.34 213.88 256.82 212.95 256.78 211.02 255.03 209.83 254.37 208.77 253.42 205.95 252.32 204.3 251.68 202.09 248.71 199.88 247.6 197.71 248.63 191.73 247.94 189.89 247.53 186.45 245.16 185.26 243.49 183.58 241.45 183.47 240.42 182.47 239.17 182.02 237.97 180.52 236.79 180.28 235.87 180.76 233.75 180.66 233.38 179.94 230.03 177.15 228.23 175.48 227.29 173.56 226.06 167.66 224.98 165.31 222.81 163.62 220.76 163.32 218.51 163.77 213.42 172.3 211.39 174.06 207.69 175.42 205.59 175.62 204.38 175.21 200.68 177.59 198.21 177.55 197.13 176.88 195.71 176.84 192.32 176.08 189.18 174.61 186.62 174.28 184.5 173.4 183.42 172.37 182.5 172.35 180.57 171.36 179.91 170.66 177.8 172.24 175.83 173.28 174.54 172.77 173.44 173.74 173.82 175.59 173.76 177.91 174.06 179.66 173.14 181.82 171.63 182.02 171.57 183.44 169.99 184.95 170.41 186.14 169.48 187.9 170 189.48 169.65 190.33 168.68 190.65 168.02 191.8 168.17 193.15 167.23 194.64 167.03 195.82 164.7 197.43 162.67 202.41 162.62 203.45 161.67 205.29 160.5 204.77 160.39 205.96 161.97 208.24 160.71 208.35 158.63 210.99 157.15 212.12 156.77 214.21 156.91 216.45 157.59 217.29 159.48 217.81 159.51 218.68 158.85 221.81 156.93 223.61 154.76 224.49 152.83 225.7 150.51 228.59 150.22 231.03 148.17 233.84 148.13 234.75 148.78 236.95 147.09 238.67 146.9 240.57 148.38 243.19 148.08 243.91 145.96 245 143.44 244.3 142.36 245.48 141.53 247.95 139.89 250.2 137.93 254.87 136.71 256.68 134.71 256.7 132.9 257.06 128.85 256.9 124.59 257.1 123.01 256.83 119.78 255.76 117.64 254.1 116.33 253.45 114.19 253.05 112.99 252.47 109.91 252.24 107.84 250.44 102.58 249.38 89.78 249.48 81.63 244.3 79.61 243.46 78.76 244.16 79.41 244.89 77.88 247.2 76.05 247.11 75.3 247.48 75.36 249.45 74.09 251.33 70.19 250.45 69.01 249.9 66.87 252.84 66.08 251.92 64.7 251.52 62.99 251.69 59.65 250.57 58.2 248.93 56.4 247.98 54.92 248.24 53.3 247.62 51.8 247.74 49.86 246.1 49.26 244.75 44.79 243.57 41.79 243.59 38.49 242.79 38.33 242.17 35.88 240.06 34.72 239.5 33.5 237.02 32.52 235.72 30.16 235.01 25.66 235.99 22.17 236.45 20.59 236.43 18.71 237.83 17.33 239.92 15.67 241.68 2.86 236.71 2.31 220.37 1 178.83 24.51 177.67 43.39 179.97 97.41 155.53 160.08 127.16 174.62 56.27 184.65 10.27 185.91 10.29 187 8.62 187.04 7.58 186.42 5.59 190.45 1.62 192.49 1 193.24 2.03 194.22 5.04 195.63 7.27 198.77 7.85 201.25 7.52 202.36 8.54 202.29 12.69 203.74 14.59 204.62 14.46 205.01 10.35 206.38 10.59 207.8 12.89 209.21 13.35 210.01 12.39 209.1 6.03 208.23 4.55 213.03 4.29 214.55 6.06 215.92 7.01 220.38 7.83 224.57 9.59 225.39 10.16 225.82 11.71 225.43 12.82 225.7 14.15 229.61 16.85 229.84 17.95 228.05 19.16 227.42 20.48 227.79 21.05 229.8 21.77 230.86 26.51 232.75 27.21 235.93 27.86 236.86 29.56 241.57 31.07 243.18 31.07 243.81 31.99 245.45 31.31 246.33 31.89 247.7 31 248.58 32.03 249.61 32.37 249.86 33.78 252.2 36.51 252.99 37.03 253.11 38.66 252.64 40.22 253.92 41.62 254.81 41.74 256.75 41.04 257.86 41.63 256.96 43.12 258.4 43.6 260.14 44.63 262.6 44.97 264.66 47.93 268.62 50.58 270.87 51.86 271.29 53.1 269.46 55.72 269.32 56.72 270.32 58.48 269.66 59.65 268.14 59.63 267.81 58.56 266.69 58.02 264.1 59.13 263.65 60.17 266.22 60.72 265.37 64.72 265.7 65.83 265.33 69.2 265.64 70.83 270.94 74.9 271.86 77.07 273.54 77.67 273.7 79.23 275.34 80.16 Z"/>
</g>
</svg>