<?xml version="1.0"?>
<svg xmlns="http://www.w3.org/2000/svg" version="1.2" baseProfile="tiny" width="800" height="640" viewBox="0 0 800 640" stroke-linecap="round" stroke-linejoin="round">
<g id="4204459">
<path d="M 782.21 37.74 787.06 45.43 789.51 56.31 789.39 62.16 790.14 67.51 793.89 79.33 794.43 83.31 793.55 86.93 790.95 90.66 788.72 100.52 788.77 112.77 790.43 117.44 790.79 121.02 785.57 126.01 784.11 128.69 782.8 135.74 779.2 138.31 771 139.34 765.05 142.46 760.58 146.96 752.27 152.65 750.78 155.84 750.44 159.86 751.79 164.78 754.19 169.34 757.4 172.38 764.23 180.98 770.87 183.4 776.83 188.74 777.52 191.17 774.99 201.23 776 210.12 774.68 220.58 775.32 224.67 779.22 229.1 786.44 231.72 792.54 236.01 794.6 239.37 794.91 242.9 794.18 247.16 788.84 259.53 787.12 267.23 788.79 285.08 788.98 291.74 788.57 298.26 790.38 304.58 792.09 307.23 799 310.66 797.9 314.19 793.97 319.6 791.65 324.89 792.19 328.37 789.52 331 786.47 332.33 784.54 340.52 776.21 352.37 774.33 354.16 773.51 357.9 769.72 361.85 766.9 366.13 763.85 368.67 759 368.39 757.61 366.74 752.89 366.41 752.3 364.63 748.77 364 746.24 364.76 737.2 363.92 733.73 365.86 732.17 367.91 725.96 368.2 720.6 370.6 717.01 370.75 714.6 373.15 715.2 377.71 714.34 379.17 710.87 380.52 708.53 384.31 702.37 387.63 700.95 390.19 703.78 395.99 702.18 400.37 695.78 400.82 689.64 400.05 685.46 403.67 678.59 403.77 676.75 406.24 676.85 409.02 675.45 411.32 667.68 413.6 661.73 414.44 657.52 412.95 654.77 415.19 651.84 414.09 649.44 414.68 646.3 417.23 643.47 418.13 641.83 421.15 642.86 425.81 648.57 432.51 647.83 437.05 641.78 438.25 633.13 442.48 627.32 444.76 622.83 441.78 617.76 443.26 617.33 451.28 615.9 452.45 610.17 453.04 603.06 452.1 597.89 452.8 594.52 455.26 589.98 457.44 587.7 459.47 599.21 466.03 597.29 468.22 588.61 467.86 584.21 467.18 577.45 464.13 574.83 464.8 573.62 468.2 580.56 476.28 581.67 478.7 580 484 573.16 490.68 572.79 492.27 575.56 497 576.39 500.38 583.7 505.99 583.23 507.91 576.35 508.75 575.42 511.17 577.31 513.85 577.36 515.92 574.14 522.07 566.84 530.66 572.29 536.65 571.85 538.69 565.02 537.02 558.75 539.19 553.6 541.89 551.64 545.81 557.19 551.25 564.58 555.36 575.83 560.11 511.41 576.09 517.1 579.34 520.9 586.07 522 592.58 521.08 594.61 516.66 597.55 512.25 598.21 506.62 606.85 502.89 608.46 497.99 613.2 492.08 615.79 489.19 616.09 486.88 618.04 483.87 618.6 481.14 620.43 481.15 623.43 477.44 626.77 466.15 632.21 464.41 636.64 461.8 639 458.65 637.35 453.96 637.94 448.28 626.14 445.14 625.99 436.1 632.8 427.09 635.48 423.03 635.88 419.5 634.82 417.92 633.11 412.52 624.25 409.21 621.18 407.72 618.56 400.32 614.71 391.44 611.74 381.43 602.74 377.45 601.16 368.29 596.54 364.41 593.45 356.57 588.62 351.96 585.31 339.41 572.9 334.65 568.68 328.95 564.45 320.32 562.29 317.48 562.69 309.5 565.72 292.03 568.76 285.3 570.41 280.95 570.01 275.01 564.48 271.11 562.14 266.36 560.28 262.89 556.78 262.02 544 263.91 541.56 278.3 537.3 281.81 536.85 290.21 536.86 299.36 537.93 303.1 536.26 306.96 536.79 312.79 539.43 316.61 541.87 323.22 544.14 332.04 544.3 339.04 545.36 347.43 544.14 352.56 543.86 360.85 542.41 362.71 539.3 360.88 536.86 359.59 531.55 355.34 525.16 351.31 521.42 347.99 520.02 343.61 519.98 338.04 522.6 335.94 525.26 332.31 527.5 325.54 529.87 322.61 529.95 311.2 522.7 307.56 519.07 300.49 509.37 299.55 504.27 300.84 500.93 305.24 498.88 309.61 499.73 313.51 496.93 316.56 495.67 326.47 494.57 330.38 493.51 335.6 493.08 341.19 491.04 348.41 487.23 351.09 479.7 351.89 475.36 347.97 474.48 343.52 475.63 339.13 475.77 333.26 476.94 316.62 475.24 314.01 474.6 303.33 469.48 301.54 469.27 293.39 464.27 283.48 455.91 279.08 455.25 273.05 452.39 268.32 449.51 266.61 447.59 268.02 445.38 272.44 442.63 275.31 442.4 279.84 438.58 282.18 433.49 282.14 429.32 278.28 423.34 271.18 415.44 268.38 413.02 265.66 408.27 261.93 404.5 249.87 396.46 245.36 395.09 241.92 396.82 240.08 400.23 238.85 406.69 235.04 419.45 233.92 421.79 231.4 423.73 228.39 421.27 224.51 412.18 222.2 405.54 217.65 399.78 212.15 389.48 209.05 386.38 207.03 385.59 196.04 384.03 193.71 384.22 189.38 382.97 185.25 378.14 182.73 373.79 182.39 371.32 183.76 367.17 189.58 362.9 190.13 353.9 191.64 348.12 188.39 345.08 179.62 343.46 172.43 343.41 166.49 342.77 154.1 343.31 151.16 340.94 151.25 334.9 149.99 332.19 144.47 326.34 140.94 323.52 138.66 320.35 136.46 314.23 136.14 305.09 134.11 296.52 134.24 288.42 135.31 283.66 143.42 278.94 148.01 274.72 147.5 270.8 138.85 265.22 136.43 257.12 133.01 254.79 129.71 257.07 126.53 257.28 123.73 256.05 116.93 255.43 111.96 256.9 106.59 257.47 103.24 256.65 100.36 254.8 99.73 250.04 105.13 243.12 105.03 239.76 101.34 235.98 97.13 229.15 98.47 223.52 95.69 218.16 90.63 212.24 88.53 211.28 83.54 211.73 76.28 203.51 73.19 197.4 68.06 190.96 64.18 182 58.77 174.53 53.56 170.24 41.34 170.24 33.19 167.97 24.82 163.59 17.08 160.13 12.91 160.24 7.14 157.42 4.9 155.22 2.9 150.75 1 141.59 1.3 138.48 3.03 134.62 6.72 129.14 9.37 127 14.59 125.34 17.31 126.34 20.84 128.98 25.92 134.79 33.07 141.54 39.76 149.55 45.09 152 52.48 153.42 56.2 153.38 58.82 151.21 64.89 139.19 65.2 137.63 63.69 132.78 60.11 124.33 204.35 112.95 380.97 93.89 378.48 90.73 375.91 90.58 366.38 92.66 357.33 91.05 351.47 90.82 350.86 88.44 347.38 81.03 352.05 77.87 352.99 75.6 357 72.29 359.84 71.13 363.35 63.64 363.74 59.24 361.91 57.9 357.62 58.74 353.58 63.1 348.15 66.21 343.37 64.26 341.06 59.21 332.46 56 327.55 51.61 327.03 48.49 333.3 43.16 336.48 43 341.45 45.36 348.3 46.44 352.52 45.5 354.56 42.13 351.99 36.87 350.59 30.95 356.83 29.35 358.29 27.2 363.13 26.54 369.53 28.06 368.6 23.76 369.57 21.58 374.43 19.99 376.92 16.1 377.05 13.34 382.77 9.93 385.64 10.78 391.01 8.29 398.74 7.49 405.92 6.1 411.96 6.64 418.01 4.15 427.75 5.27 430.49 4.21 434.84 4.65 445.01 1.79 448.51 3.45 452.99 3.1 455.1 1 462.84 1.79 467 5.29 474.96 6.86 478.92 5.37 491.79 3.5 494.37 4.66 498.1 4.19 501.84 2.75 505.56 2.81 575.72 36.41 571.01 39.91 567.66 44.05 567.69 47.11 570.03 51.17 575.35 52.37 576.06 53.63 573.96 57.59 571.19 59.45 576.49 62.38 576.1 64.36 580.47 66.63 587.33 68.52 592.03 69.14 598.89 69.25 606.25 72.55 661.7 87.94 668.67 87.68 676.34 88.31 679.02 86.97 681.06 82.75 684.04 79.94 688.38 74.04 688.61 68.34 691.18 66.68 698.35 65.95 701.14 64.77 707.19 60.42 712.02 55.43 717.6 52.07 724.95 51.02 730.14 51.02 736.87 51.96 740.81 53.25 745.52 50.54 756.27 49.28 762.39 48.12 768.65 45.4 774.83 43.37 782.21 37.74 Z"/>
</g>
</svg>