<?xml version="1.0"?>
<svg xmlns="http://www.w3.org/2000/svg" version="1.2" baseProfile="tiny" width="800" height="606" viewBox="0 0 800 606" stroke-linecap="round" stroke-linejoin="round">
<g id="4204400">
<path d="M 468.07 54.02 527.55 106.96 531.3 103.16 664.96 216.31 779.97 252.66 778.84 255.38 778.18 261.18 777.4 265.04 777.32 269.55 777.61 271.57 779.24 274.21 778.33 277.2 776.79 279.83 773.39 283.9 769.37 286.33 764.83 287.42 761.72 287.74 754.9 289.09 751.43 290.05 747.53 291.6 744.02 296.37 741.48 297.76 738.77 298.26 732.46 297.67 732.51 299.51 739.59 301.18 742.08 302.58 748.59 307.94 751.99 311.48 756.13 314.45 760.82 317.34 764.23 319.01 764.95 322.94 763.95 327.05 765.05 331.53 766.78 334.97 766.37 336.17 762.92 338.01 760.48 341.14 759.09 346.71 757.74 349.07 756.15 354.98 755.13 355.43 794.37 390 745.23 436.01 746.71 440.03 747.83 440.86 752.29 440.23 756.42 437.96 758 438.21 765.81 445.09 769.63 447.79 769.02 451.23 769.44 451.92 774.09 452.13 776.18 451 777.65 449.37 778.84 449.6 779.36 452.79 780.14 454.68 780.67 460.04 783.35 462.98 783.96 464.5 784.17 467.68 784.71 469.21 788.82 471.97 793.63 474.17 797.36 474.94 799 476.82 743.78 531.53 636.15 438.19 573.13 500.73 571.25 502.13 468.46 605 466.07 603.64 465.83 601.36 463.37 600.47 462.03 597.31 454.28 591.34 453.83 588.97 454.36 584.03 453.89 582.41 455.13 576.55 451.37 575.75 452.03 574.23 455.82 572.61 457.45 573.39 457.93 574.96 460.16 575 461.12 573.28 459.65 570.71 459.87 569.24 462.54 565.41 461.93 563.59 458.63 561.73 452.84 557.84 449.83 553.52 446.23 553.02 443.7 551.51 441.6 550.81 442.91 548.63 441.29 547.76 438.45 548.79 437.15 548.62 435.28 546.57 435.96 544.28 435.78 541.9 434.63 541.14 431.21 537.14 430.85 535.08 429.33 534.58 428.06 533.08 426.05 534.38 424.76 533.53 422.36 534.53 421.45 533.18 419.09 533.17 412.2 530.97 410.84 528.48 406.19 527.53 403.43 526.51 401.88 519.57 398.95 518.52 398.41 517.69 399.33 515.76 401.93 513.99 401.6 512.37 395.89 508.43 395.5 506.48 396.07 504.85 395.43 502.58 394.24 501.76 388.11 499.19 381.59 497.98 379.59 496.59 377.36 494 370.35 494.39 371.62 496.54 372.95 505.85 371.78 507.26 369.71 506.59 367.64 503.22 365.63 502.87 365.07 508.88 363.79 509.07 361.66 506.29 361.76 500.22 360.14 498.73 356.52 499.21 351.93 498.36 349.87 495.11 348.43 490.69 347.33 489.19 344.36 490.1 338.47 495.91 339.36 498.81 339.3 500.33 337.71 502.78 335.87 502.75 333.98 497.71 333 496.93 332.75 494.85 331.68 493.49 331.17 491.05 329.42 490.82 326.81 491.59 325.98 493.14 326.65 496.84 328.95 499.81 326.39 503.98 322.96 502.62 321.66 500.78 319.76 494.3 319.37 491.26 318.64 489.87 313.6 486.49 309.13 484.32 306.75 483.96 302.48 482.33 299.03 479.74 293.24 474.7 290.06 471.46 281.42 470.74 281.22 468.72 278.33 463.97 276.78 462.45 276.18 459.47 274.84 458.66 271.89 459.07 269.63 460.07 265.17 459.77 263.22 458.3 262.48 456.8 256.57 459.31 253.04 459.5 250.03 456.74 248.96 454.61 245.57 449.22 240.46 444.13 238.49 442.54 241.08 441.26 241.37 439.57 236.62 436.28 234.87 433.72 235.77 431.61 238.86 427.13 238.9 425.55 237.69 423.35 235.25 423.11 234.2 422.31 234.59 419.65 233.03 417.48 228.01 416.83 222.8 417.88 219.52 417.08 214.48 414.45 213.76 413.11 213.07 406.21 210.63 402.52 207.29 399.8 204.77 396.74 204.11 394.21 201.05 393.13 196.61 389.93 194.03 387.18 192.5 386.19 190.19 383.72 187.52 381.81 187.95 379.5 190.68 378.64 195.63 375.93 196.44 374.36 193.34 372.74 189.39 372.4 185.83 370.86 177.43 367.94 175.12 369.96 174.06 374.92 172.57 376.96 168.99 377.85 168.77 380.25 167.15 380.76 163.84 376.69 162.52 375.83 160.42 372.03 158.75 371.56 155.47 372.86 153.26 373.03 151.56 372.06 125.65 380.47 111.98 403.34 109.2 401.22 106.76 401.6 104.33 400.87 103.36 399.6 101.28 398.95 99.9 399.43 98.2 398.46 97.62 401.22 94.79 402.47 94.59 405.04 91.6 411.35 90.57 411.85 68.34 400.35 58.56 415.14 39.93 408.21 37.78 408.14 35.84 409.07 32.2 412.07 28.85 415.73 26.79 417.13 23.6 418.32 20.56 418.41 18.91 419.2 12.92 420.78 8.17 416.23 3.3 410.37 1.36 405.7 1 399.5 3.28 392.54 5.72 387.08 7.82 384.43 15.69 376.46 19.03 373.67 26.89 368.68 32.86 364.59 39.15 358.83 44.78 354.23 49.4 349.49 51.15 346.32 51.74 343.59 52.36 340.69 52.45 335.13 51.43 324.72 51.39 320.61 52.01 316.71 52.9 314.83 54.74 312.49 58.33 309.19 60.85 307.73 72.85 301.79 76.26 300.84 81.36 300.07 88.94 299.83 96.82 300.06 107.82 299.73 114.04 299.91 122.1 301.45 125.52 302.65 127.9 304.78 128.47 308.07 127.9 311.03 124.22 316.24 119.05 318.22 115.64 321.52 114.31 324.65 114.16 327.36 115.46 330.25 117.11 331.64 122.79 333.81 129.15 334.62 139.87 334.81 144.32 335.66 148.53 337.07 151.46 338.41 159.38 343.8 163.61 346.28 165.24 347.69 165.96 351.1 167.17 353.16 174.48 356.98 177.05 358.14 180.94 359.32 186.22 360.18 189.05 360.22 192.22 359.35 194.25 358.19 196.75 355.63 205.86 341.86 207.91 340.02 213.36 336.02 218.9 334.99 229.36 334.83 237.74 333.57 241.49 332.19 243.46 331.09 244.35 328.7 244.47 324.63 243.79 319.88 242.35 316.28 240.88 314.25 235.19 308.87 232.73 306.87 228.66 304.89 222.62 302.38 218.44 300.9 215.06 300.76 209.14 302.52 205.85 303.26 199.34 303.44 195.47 303.77 188.85 305.09 183.48 305.66 178.05 305.14 175.34 304.4 172.57 303.15 170.05 301.52 168.29 299.5 164.25 293.06 161.77 290.31 160.01 288.95 154.87 286.05 151.32 283.07 147.53 280.52 144.87 277.82 142.97 274.95 137.87 269.19 137.04 266 137.81 262.46 142.47 257.35 146.22 252.1 149.46 250.72 152.14 250.11 159.18 250.43 163.35 251.16 169.54 253.39 178.31 257.61 182.01 259.85 185 262.82 193.27 272.01 198.92 277.75 203.93 282.05 208.55 284.58 212.55 285.82 216.91 286.68 221.79 286.74 227.48 285.94 233.31 284.44 236.53 283.16 245.25 276.68 247.49 268.92 248.17 264.79 244.92 264.39 241.99 262.18 241.05 259.24 240.86 256.13 239.95 253.73 238.25 251.4 236.9 248.17 236.86 242.6 236.26 240.99 233.91 239.67 229.91 235.41 244.22 222.45 240.83 222.58 234.98 221.79 232.45 221 230.57 219.77 228.33 217.54 227.32 215.25 223.88 213.77 222.79 212.8 217.29 213.16 215.81 212.91 214.02 214.02 208.66 214.6 207.26 216.41 202.95 211.79 199.85 210.14 195.53 203.8 194.48 203.16 193.31 200.79 193.85 198.68 192.67 196.8 192.72 195.53 190.72 191.13 188.4 189.52 186.99 187.09 186.8 185.15 185.91 183.19 184.55 182.48 183.9 179.38 182.3 176.89 181.37 176.45 179.85 174.22 179.17 171.87 182.62 161.54 185.94 154.22 188.58 150.43 186.92 147.27 184.97 145.57 183.09 141.79 181.66 139.55 179.49 134.45 179.48 132.79 185.34 125.93 185.93 121.84 185.3 117.5 186.58 114.39 190.4 111.2 191.51 109.84 192.77 105.92 193.18 102.73 192.89 100.32 190.46 93.82 188.5 89.63 187.01 87.62 183.43 84.85 177.69 81.05 176.73 75.19 177.4 69.13 178.22 67.2 181.41 63.77 182.24 61.34 183.6 58.92 184.32 56.37 184.81 49.99 184.63 46.61 182.77 40.48 181.06 33.84 180.85 31.66 181.7 29.83 184.42 27.57 187.69 26.4 192.27 26.65 197.25 26.48 201 25.86 207.72 26.76 213.38 29.16 216.68 28.44 221.87 25.05 223.59 22.78 224.37 19.73 225.7 7.22 229.6 5.06 233.47 3.8 236.24 2.4 239.71 1.21 246.92 1 250.59 2.57 252.1 4.41 253.25 7.4 253.82 10.24 254.91 13.22 257.6 17.43 259.24 20.82 262.27 24.9 264.28 29.4 270.93 40.04 276.44 47.7 280.27 50.02 282.97 52.51 285.62 59.79 288.5 64.71 291.54 68.96 293.43 68.67 297.05 69.53 300.67 71.22 303.11 71.93 304.8 73.54 306.29 77.43 306.35 80.01 308.19 82.46 308.22 83.73 309.57 86.15 312.31 89.16 311.26 93.17 312.41 95.33 312.01 98.15 313.09 100.49 314.4 100.96 315.39 102.78 315.3 104.04 318.31 106.6 318.27 107.91 320.19 108.93 321.57 110.67 323.67 112.25 324.37 113.68 325.88 114.46 325.78 116.14 326.66 117.14 328.92 117.78 330.04 119.28 333.03 125.27 336.17 126.74 336.95 129.15 339.86 132.4 343.68 132.96 345.12 134.74 346.29 135.22 348.16 137.57 348.39 139.12 349.64 140.3 351.35 140.57 351.41 143.61 353.77 144.39 356.46 144.68 357.71 145.67 358.92 147.98 358.05 148.62 359.91 150.58 361.13 154.79 363.48 157.8 364.07 159.96 362.01 162.22 362.39 163.71 364.15 164.7 365.49 166.73 369.79 169.03 373.81 169.3 379.07 172.63 381.9 173.23 382 166.54 383.18 161.89 385.1 157.28 386.09 153.3 386.52 148.91 386.54 145.7 386.01 143.17 383.86 135.59 380.61 125.98 380.01 118.43 380.37 115.78 381.53 112.34 388.32 106.07 391.28 103.85 394.05 102.4 400.09 100.29 406.21 98.62 411.26 97.99 417.08 97.96 421.54 98.42 427.64 99.4 434.35 101.01 439.52 102.84 449.84 107.6 457.63 110.34 462.04 112.24 467.59 113.46 470.17 113.45 473.69 112.87 478.85 111.09 481.43 109.51 483.29 107.47 484.27 105.22 484.52 101.8 482.13 93.01 480.34 88.91 477.81 84.17 474.14 78.92 470.07 71.92 467.16 64.07 466.77 61.03 467.52 55.91 468.07 54.02 Z"/>
</g>
</svg>