<?xml version="1.0"?>
<svg xmlns="http://www.w3.org/2000/svg" version="1.2" baseProfile="tiny" width="800" height="617" viewBox="0 0 800 617" stroke-linecap="round" stroke-linejoin="round">
<g id="4204558">
<path d="M 174.36 4.56 175.52 4.94 176.95 5.96 177.49 7.25 177.46 8.28 176.77 9.96 176.73 11.56 176.16 13.15 177.31 14.37 180.43 16.44 182.44 18.12 184.48 18.63 187.94 18.93 190.69 19.58 194.98 21.41 197.92 23.58 200.45 24.79 202.34 25.43 204.97 25.7 206.31 26.19 209.05 28.63 210.55 30.74 211.71 34.84 212.16 37.2 212.17 38.93 211.85 42.01 210.8 44.6 208.68 46.72 206.89 47.76 204.69 48.6 200.81 48.99 197 49.14 192.64 49.55 190.46 49.58 186.59 49.33 184.64 48.82 182.08 48.51 179.32 48.73 177.79 49.23 173.64 51.05 168.77 52.54 165.05 52.93 163.44 54.05 162.64 55.21 161.78 57.75 161.12 58.92 160.67 61.49 160.96 64.68 161.45 67.28 161.43 68.53 163.58 69.58 166.11 69.99 170.59 69.83 175.42 68.79 179.21 67.59 181.81 67.31 184.38 66.09 186.24 63.49 186.41 62.12 187.36 59.44 188.92 58.38 190.47 58.21 194.2 58.78 197.24 59.75 202.85 61.15 206.51 61.49 211.77 62.63 214.3 63.62 217.84 66.06 222.8 69.09 225.82 71.46 228.58 74.33 231.13 77.45 233.9 79.43 235.07 79.99 237.83 80.5 241.29 81.96 242.98 83.87 244.81 87.31 247 89.87 249.05 91.85 250.74 92.16 252.09 91.66 254.34 89.42 254.7 88.41 254.38 83.57 253.93 81.91 251.86 76.84 250.66 72.59 249.39 69.23 248.1 66.73 246.36 62.92 245.08 59.12 245.6 57.82 250.52 52.57 253.47 48.46 254.92 45.32 256.1 44.9 259.45 45.22 262.4 45.76 265.9 46.73 269.18 47.98 271.52 49.45 272.85 50.54 274.19 50.92 275.79 50.95 277.83 50.53 279.1 49.45 279.79 48.26 282.12 42.63 283.04 41.49 284.39 40.73 287.98 39.59 289.8 39.41 291.48 39.61 293.04 40.2 295.71 41.93 298.31 44.14 300 46.01 302.99 53.7 304.1 55.89 305.78 57.91 307.28 58.17 308.8 57.64 309.63 56.8 310.98 53.64 311.78 49.83 312.31 48.52 313.57 46.76 316.41 44.95 319.46 44.12 324.21 43.77 329.86 42.59 335.14 41.06 340.3 39.35 342.61 38.71 346.51 38.2 348.52 38.22 351.07 38.84 352.67 39.69 356.46 42.62 360.97 45.84 364.64 49.01 366.63 51.44 370.59 59.58 371.59 60.99 373.96 62.72 379.05 64.56 381.76 66.09 385.34 68.49 388.65 71.63 389.63 72.91 390.1 74.58 389.99 76.23 389.29 78.53 388.14 81.2 386.09 84.41 385.32 86.34 385.48 87.47 386.25 88.54 388.49 89.93 390.57 90.31 392.62 90.35 400.13 89.89 402.2 90.38 403.54 91.17 405.69 93.3 406.24 94.36 406.16 95.43 405.25 97.49 403.91 99.78 401.01 104.07 400.07 105.85 399.38 108.16 399.48 112.28 400.59 119.39 400.67 121.58 400.4 122.67 399.25 125.17 396.54 129.48 392.12 134.82 391.33 135.64 386.74 139.5 384.18 140.97 381.36 142.26 377.86 142.91 374.88 143 372.99 143.84 372.58 146.13 372.8 148.78 372.18 150.6 371.08 152.21 370.94 154.06 372.24 155.73 373.47 156.51 376.85 157.32 377.76 158.19 380.01 161.25 380.78 163.4 380.84 165.57 380.35 167.08 377.41 173.23 375.79 175.86 374.83 177.04 370.63 181.33 368 184.37 367.39 185.58 366.71 189.51 366.01 190.34 363.57 191.82 360.97 192.95 358.16 193.96 351.89 195.08 349.07 194.58 347.27 193.85 341.77 191.28 339.45 189.93 336.26 189.38 335.09 189.46 333.63 190.13 332.52 191.84 332.97 193.49 336.09 194.81 339.72 195.37 341.15 195.93 344.23 198.05 346.12 199.62 349.92 203.35 354.07 206.01 358.34 207.9 363.06 209.61 365.89 211.03 370.08 211.89 374.14 212.96 376.7 212.59 379.07 211.17 380.09 209.74 380.91 207.04 381.33 204.4 381.99 203.66 384.36 202.81 389.43 202.53 390.84 202.96 393.22 204.75 394.26 206.04 394.87 208.51 394.37 211.52 393.68 212.77 391.26 215.36 390.73 216.64 390.05 219.61 390.16 220.49 392.45 221.29 396.5 221.06 398.04 221.19 399.17 222.22 402.2 223.32 403.45 223.54 405.65 223.39 407.63 222.64 409.08 221.53 411.72 217.71 413.93 213.86 415.68 211.4 419.49 207.03 421.93 204.39 423.14 203.31 423.84 202.22 424.32 200.54 423.98 198.15 422.7 196.45 420.6 194.58 418.98 193.43 414.55 191.07 412.75 189.91 411.69 188.15 412.23 186.04 414.11 182.49 415.42 178.98 416.87 176.86 423.79 170.17 426.09 168.32 427.58 167.41 429.16 167.06 430.83 167.4 433.13 169.34 437.53 174.18 439.18 175.4 440.83 175.96 443.82 176.05 447.75 174.79 451.98 172.74 454.85 171.62 458.93 170.28 460.83 169.84 463.43 169.63 467.64 169.59 470.55 169.35 473.46 168.2 474.59 167.37 476.18 165.54 478.61 161.88 480.2 160.35 483.12 158.46 487.12 156.65 490.73 155.5 496.21 153.92 502.74 152.36 507.85 148.65 510.47 147.17 512.4 146.29 514.39 145.85 517 145.75 520.51 146.16 523.24 147.32 528.57 151.81 530.6 152.69 532.08 152.97 534.74 153.09 541.22 152.38 546.32 150.23 549.92 148.97 554.5 147.08 558.42 145.25 562.37 142.82 565.41 141.39 570.17 139.79 572.91 139.03 574.44 138.84 579.31 139.12 582.55 140.05 590.91 143.07 595.05 145.12 601.85 149.53 609.44 154.69 613.21 157.74 616.94 161.76 618.77 163.44 625.83 168.86 628.64 170.58 631.38 171.49 632.61 171.43 638.04 170.17 639.1 170.23 641.02 170.91 643.73 172.85 645.8 172.46 647.44 171.27 647.45 169.81 647.01 167.86 644.38 161.55 643.28 159.64 641.77 157.58 638.85 154.06 635.21 149.17 632.76 146.36 630.29 144.05 630.6 142.53 634.18 137.21 637.06 135.79 638.45 135.93 640.23 137.27 640.96 137.47 643.99 136.65 645.76 136.49 648.22 135.82 650.63 133.64 652.96 132.37 653.73 131.51 655.46 131.23 657.26 131.82 658.44 133.38 658.64 134.6 659.76 136.87 660.53 137.58 662.35 138.52 664.37 140.36 667.01 142.03 668.23 141.88 670.1 140.58 673.36 140.28 673.72 139.53 673.01 138.13 670.85 136.58 668.32 134.17 668.53 131.95 668.47 128.81 668.89 127.12 670.31 127.18 672.52 128.62 673.98 129.93 675.98 132.77 676.55 135.98 678.74 137.61 679.41 138.6 680.9 142.85 681.76 144.46 683.09 146.15 684.93 147.21 685.9 147.24 686.94 145.44 687.69 143.45 687.73 138.37 687.95 135.85 689.27 131.21 690.17 129.21 691.48 128.13 693.07 126.36 694.4 125.95 696.83 127.83 699.08 126.52 701.28 123.95 702.73 122.65 703.8 122.19 707.75 122.75 709.26 122.27 710.77 120.18 712.21 119.54 714.95 120.01 715.77 119.94 719.3 118.82 721.23 119.05 723.21 120.47 723.98 121.35 724.42 122.82 723.83 124.72 721.9 124.89 720.69 126.4 715.88 127.18 710.33 129.02 708.71 129.68 706.37 131.01 704.58 132.5 704.23 133.84 704.42 135 705.51 137.53 705.83 139.14 704.54 139.65 704.39 140.68 705.84 141.94 704.89 146.89 704.01 149.48 706.62 150.71 707.22 150.68 709.69 149.15 711.22 148.45 713.79 148.07 715.22 148.28 715.93 149.3 715.76 151.98 716.32 153.82 717.05 158.46 718.16 158.91 722.99 158.16 726.33 159.05 725.19 161.5 725.59 162.72 724.15 164.13 722.63 166.71 721.83 169.84 721.75 171.37 722.16 173.23 721.39 174.45 721.71 175.77 722.91 177.52 724.78 178.26 726.24 176.75 727.47 178.71 727.88 180.48 727.57 184.1 730.94 184.88 732.39 188.39 733.9 190.19 735.09 190.65 739.24 191.42 741.97 192.48 745.4 192.34 745.67 194.2 744.63 196.9 743.42 199.1 743.85 200.47 746.75 201.64 750.37 204 752.57 203.26 753.41 203.24 754.94 204.28 754.78 204.82 752.74 206.85 750.69 208.39 749.35 210.81 747.98 211.91 744.7 213.85 743.38 215.58 744.08 216.78 745.49 217.54 747.35 218.05 755.4 222.29 756.73 222.79 761.53 225.86 763.36 226.79 763.73 228.04 764.82 228.97 767.68 229.14 768.2 229.67 768.07 231.23 768.65 232.62 765.2 232.28 764.93 233.74 763.59 233.96 762.19 232.14 761.25 232.24 761.12 235.24 760.09 235.52 758.16 234.86 756.74 234.07 756.25 234.75 757.24 237.57 758.17 238.07 760.05 237.75 758.98 240.14 760.25 242.56 759.29 244.17 759.69 245.17 760.55 245.03 761.6 244.17 762.69 244.49 761.65 248.2 761.1 249.28 760.04 249.5 760.42 251.49 761.91 252.44 761.73 253.89 762.85 255.7 764.61 259.74 765.1 260.22 767.24 260.71 767.45 259.31 770.25 259.37 772.2 259.91 773.95 257.5 774.84 258.24 773.53 260.39 775.28 261 775.61 261.67 774.47 263.18 775.32 264.32 777.74 264.64 779.83 264.3 779.4 266.65 780.65 268.03 780.21 268.59 778.58 268.64 778.12 267.48 776.76 267.87 777.43 269.4 777.42 270.57 776.61 271.49 775.27 271.64 775.05 272.2 777 273.09 779.3 272.9 778.73 275.51 778.41 275.6 771.78 272.33 771.66 273.27 772.43 273.73 773.27 275.19 774.87 276.33 776.86 278.13 778.11 279.76 779.26 279.79 778.33 278.25 779.19 277.31 779.92 278.12 779.63 279.33 780.2 280.17 781.86 280.88 782.45 280.44 781.09 279.43 783 279.18 783.57 278.23 783.63 277.08 784.74 277.18 787.32 280.24 786.45 280.94 786.98 281.61 788.33 281.83 787.49 282.96 789.62 284.16 790.22 285.05 789.66 287.03 788.68 287.86 789.23 288.64 791.91 288.54 792.24 287.92 790.68 286.5 790.75 285.83 791.98 285.36 792.49 285.82 792.74 287.21 794.32 287.51 795.29 288.09 794.41 289.72 795.65 291.22 795.63 292.47 794.61 293.81 791.19 295.96 791.02 296.83 791.99 297.71 790.66 298.63 790.42 300.68 789.53 302.85 792.29 303.85 793.28 303.23 792.23 302.6 794.99 302.07 795.46 302.45 795.17 304.22 795.83 306.48 794.71 306.61 794.87 305.39 794.53 304.19 793.47 304.05 793.05 305.3 793.2 306.2 792.32 307 792.19 308.3 790.84 310.91 788.31 314.47 788.83 315.35 791.33 316.62 790.85 317.07 788.94 316.74 790.79 319.05 793.15 320.43 795.02 322.37 796.02 322.77 797.7 324.26 798.04 326.37 799 327.99 798.06 329.05 796.83 328.81 795.85 329.28 795.08 330.37 794.56 332.33 794.71 333.52 794.16 336.05 791.73 337.3 788.62 338.28 787.78 339.38 788.7 341.96 788.7 343.27 787.56 345.58 787.13 348.81 787.23 349.37 788.8 350.11 790.25 350.05 791.02 351.2 789.76 352.47 789.6 353.79 790.9 354.98 790.81 357.31 791.62 358.28 791.69 360.54 792.18 362.44 792.2 364.35 791.04 365.68 789.82 367.63 789.24 369.84 788.49 370.23 768.81 379.74 674.18 425.47 640.97 453.21 623.05 460.92 583.57 463.22 545.06 465.39 545.47 466.99 543.74 468.34 543.09 469.45 543.74 474.11 544.35 477.58 545.85 482.17 547.14 484.57 547.51 486.05 548.6 487.85 550.23 489.52 550.34 490.41 551.81 492.05 550.76 493.02 549.01 492.52 549.49 494.01 550.91 495.46 552.9 496.49 553.65 499.23 555.73 502.3 560.02 504.28 560.66 505.19 563.79 506.32 566.5 509 568.83 510.56 571.07 511.67 571.59 512.67 570.31 514.12 571.93 515.31 572.1 516.23 571.66 518.27 572.49 519.91 572.58 520.89 574.44 522.87 574.41 525.69 575.07 527.93 574.93 529.13 573.09 532.62 571.04 535.72 570.18 537.39 568.28 539.5 565.77 541.46 565.33 543.46 565.69 544.9 566.23 545.45 568.43 550.5 567.88 551.92 565.65 553.21 561.76 554.55 560.11 555.87 558.95 558.35 558.85 560.76 557.68 563.33 557.49 565.42 558.65 570.1 558.09 571.86 559.26 577.57 557.97 578.78 558.47 582.06 557.75 583.39 557.01 585.72 556.74 588.31 557.15 590.57 556.09 591.65 556.47 593.79 556.37 595.78 555.55 597.29 554.59 600.27 554.31 602.12 552.65 608.36 552.04 609.68 550.28 611.62 548.16 613.07 547.66 613.67 510.43 616 511.29 613.96 510.9 611.91 511.34 610.62 508.64 608.8 507.21 608.6 505.09 609.71 503.79 609.69 502.88 609.15 499.11 609.08 497.58 608.64 495.61 609.22 493.72 609.04 492.81 609.45 492.14 606.24 490.54 604.59 489.37 602.35 489.24 601.5 488.21 600.28 486.64 600.41 483.12 601.69 480.96 599.39 478.82 598.48 477.7 596.91 475.85 597.13 476.51 598.6 477.36 598.82 477.22 599.77 475.31 600.16 474.56 599.05 473.61 599.84 472.12 599.31 470.7 599.32 470.09 598.78 468.74 599.01 467.31 598.8 466.36 600.87 467.08 602.3 466.91 602.93 465.11 603.14 465.07 604.91 463.18 605.6 462.76 606.43 461.01 607.64 461.14 609.11 459.96 609.73 459.47 608.76 457.19 609.31 455.4 610.09 454.69 608.58 453.28 606.93 452.96 603.88 453.82 602.16 453.7 601.29 452.18 599.1 451.06 598.4 452.43 596.97 452.57 595.53 452.26 594.64 450.68 594.39 449.86 593.22 449.58 592.07 446.95 591.28 446.01 591.32 444.48 592.3 443.2 593.55 442.67 595.25 442.74 597.25 443.09 598.02 442.66 599.15 441.26 599.4 440.88 601.44 441.59 603.06 440.72 603.7 441.43 604.97 441.14 605.8 439.39 606.27 438.25 608.24 435.62 609.73 433.72 609.93 432.52 609.31 431.77 609.76 431.46 610.99 430.11 610.85 429.1 610.17 426.54 610.49 423.49 609.01 422.71 609.46 422.21 607.96 421.14 609.11 420.18 607.89 420.74 606.92 418.02 605.6 417.33 604.38 416.07 603.66 414.5 600.27 412.44 599.08 410.99 598.97 409.48 599.47 408.12 599.43 406.13 597.95 404.49 594.89 402.69 593.19 402.13 590.12 402.67 588.19 401.99 586.67 404.15 583.69 404.12 581.66 402.76 574.31 401.4 574.14 398.3 579.04 397.35 581.25 395.86 583.11 394.15 582.99 393.42 581.97 390.58 580.75 389.98 580.26 388.64 577.55 386.43 576.85 382.88 575.21 379.32 574.61 377.67 574.66 331.3 526.03 329.29 527.84 327.43 528.32 325.51 528.39 323.79 529.01 322.43 529.09 321.51 528.57 318.93 525.85 317.35 525.06 315.86 523.25 314.05 519.74 313.55 518.32 313.55 516.81 315.09 511.34 316.92 506.97 319.2 504.56 319.51 503.29 318.12 502.29 315.73 502.02 315.11 501.71 314.18 500.28 312.08 499.26 310.38 498.07 310.23 496.58 312.56 494.09 313.75 492.5 315.65 491.06 317.78 488.94 317.92 488.06 316.96 486.1 315.22 484.15 314.04 483.24 312.34 481.43 309.99 478.55 307.48 478.17 306.82 477.83 301.36 476.74 299.82 474.66 299.2 472.17 299.45 471.14 300.8 470.03 302.37 469.48 304.74 469.19 305.6 468.49 305.65 467.51 304.91 466.26 304.4 464 302.53 462.29 300.15 461.53 298.22 461.6 294.79 460.57 293.52 460.52 292.86 461.04 290.39 461.74 287.82 461.71 286.47 461.36 285.51 460.13 285.09 458.56 284.5 457.73 282.6 457.19 278.88 456.8 275.9 457.36 274.44 458.5 273 461.52 272.04 462.35 269.85 462.1 266.53 461.23 264.6 461.44 263.02 462.34 261.72 462.24 260.93 460.7 260.52 459.14 260.54 456.69 259.82 454.92 258.38 453.54 257.02 453.22 254.92 453.28 253.1 452.73 251.51 451.37 249.65 450.89 249.45 450.24 250.09 447.59 248.59 447.38 245.75 449.34 243.68 451.49 241.63 451.52 240.78 450.73 239.2 446.33 237.48 443.52 235.42 442.28 230.27 440.9 222.63 440.82 218.28 440.09 213.31 437.45 211.34 435.44 211.07 434.09 211.69 429.27 211.15 427.75 209.18 425.69 207.32 424.1 205.31 422.87 203.17 421.92 199.87 420.85 198.9 420.12 198.16 418.5 197.08 418.13 195.35 418.12 194.24 417.11 192.74 417.05 190.56 418.25 187.88 418.93 186.59 418.47 185.63 417.06 184.66 413.59 184.55 412.42 185.28 407.41 186.38 406.35 188.52 405.41 188.27 403.83 187.71 402.98 185.82 401.63 183.39 399.52 181.85 398.57 179.33 397.69 177.26 398.36 174.76 400.62 173.91 400.93 171.83 400.98 168.83 400.05 167.63 399.91 165.2 400.2 164.36 399.16 164.91 395.54 165.94 392.45 167.11 391.21 168.31 390.8 168.65 389.33 168.07 388.33 166.38 386.75 166.19 384.78 168.71 381.12 170.1 378.54 172.74 377.13 172.45 375.57 171.41 374.87 168.71 374.84 166.67 375.9 165.88 376.01 164.26 375.47 161.76 375.42 159.91 375.02 159.27 374.46 158.23 371.45 158 370.12 157.99 367.67 158.22 366.81 159.45 364.98 159.47 364.46 158.34 362.3 156.78 361.45 154.14 361.28 153.27 360.85 152.32 359.45 151.13 358.86 147.54 358.61 145.27 360.17 142.86 361.23 141.87 362.15 141.24 363.79 138.73 364.71 134.77 363.09 133.26 363.17 130.43 364.15 124.28 368.29 122.94 368.85 120 369.52 118.17 370.42 116.91 372.89 116.14 373.36 113.23 373.89 109.87 374.7 108.49 374.62 107.53 373.86 106.7 372.6 105.62 372.59 104.16 371.51 102.72 371.26 100.58 371.28 100.31 370.1 100.94 367.92 101.04 366.59 102.23 365.35 103.67 365.04 107.42 363.64 108.53 363.52 109.81 361.58 110.65 360.78 110.89 359.5 111.64 358.76 112.92 356.28 115.26 354.83 115.88 353.81 117.08 353.27 118.14 353.37 119.69 352.97 121.94 352.01 123.29 351.14 125.31 350.29 127.96 348.84 130.04 347.06 131.5 346.31 134.5 343.53 134.79 342.38 133.81 340.83 132.22 340.15 130.73 338.52 130.49 336.14 130.08 334.58 130.71 334.13 132.55 334.01 132.73 331.92 132.05 329.3 131.48 328.71 131.53 327.57 132.26 324.85 131.3 323.38 129.48 322.35 129.08 320.26 128.55 319.76 128.24 318.15 127.14 316.88 124.49 316.74 123.95 315.35 122.08 315.03 120.27 313.95 119.89 312.29 121.01 311.73 121.76 310.08 121.66 308.89 122.7 305.91 123.81 304.42 124.12 302.52 123.81 301.36 122.11 301.32 121.13 300.42 121.46 298.83 121.11 298.04 123.04 296.42 123.38 295.19 121.73 293.87 110.76 293.25 110.01 293.5 106.47 295.72 105.17 296.35 103.64 296.13 101.58 296.66 99.38 295.69 97.47 294.07 95.4 293.49 94.51 293.85 92.24 296.55 89.4 298.75 87.32 300.88 85.83 302.94 84.64 306.42 83.84 307.92 82.44 309.04 79.88 310.02 76.04 310.9 74.33 311.45 72.43 312.78 70.17 314.85 68.11 314.49 66.37 314.57 64.71 313.84 63.55 313.8 60.56 312.97 59.31 312.41 58.89 310.53 57.21 309.73 57.15 308.79 59.48 304.89 58.92 303.76 59.7 301.24 60.64 300.32 60.61 298.92 61.63 298.22 61.01 296.3 62.99 296.26 63.33 294.19 64.52 293.76 68.01 293.39 69.39 290.69 70.93 289.98 73.41 287.38 73.46 284.62 74.03 282.85 74.6 279.22 75.75 278.37 77.07 276.02 77.81 275.24 79.1 275.8 80.78 275.64 80.43 273.91 82.04 272.04 85.25 271.65 92.14 269.74 93.45 269.09 95.61 267.29 95.95 266.53 95.92 264.7 95.47 263.95 95.63 262.89 94.68 260.8 92.87 258.74 92.03 255.19 93.54 254.42 92.94 253 94.08 250.85 92.87 248.06 93.25 246.51 94.17 245.24 93.76 243.06 92.05 240.26 92.03 239.32 93.08 237.88 92.78 235.85 92.01 234.28 92.01 233.54 91.1 231.91 90.46 229.93 89.95 227.37 89.08 226.51 88.33 224.21 87.11 223.3 87.27 222.08 83.94 221.08 83.62 219.66 80.88 218.48 78.96 217.23 78.08 216.24 76.39 216.21 76.06 217.14 77.07 217.97 76.04 218.53 75.81 220.06 74.4 220.29 72.69 220.16 72.01 219.61 71.03 219.8 69.5 219.4 70.53 218.34 70.84 217.37 69.4 217.09 69.45 216.27 70.84 215.8 69.85 214.27 68.54 214.09 68.15 212.53 67.16 212.47 65.04 211.61 64.22 211.83 64.09 210.41 64.41 209.03 66.16 208.97 65.69 206.46 66.62 205.8 66.02 204.15 64 204.97 63.81 203.6 63.22 202.46 61.7 200.89 63.53 199.36 62.98 197.44 60.13 194.85 58.83 193.19 55.85 191.08 54.42 188.58 52.79 188.19 51.48 187.32 51.24 185.4 50.67 184.22 50.79 183.23 51.75 182.05 50.53 180.33 50.44 178.99 48.4 178.54 47.91 177.15 49.76 174.95 49.4 172.43 49.65 171 50.66 170.22 50.2 168.46 48.13 170.13 47.28 169.94 47.44 168.34 48.05 166.79 47.3 166.22 45.78 166.18 44.38 165.33 44.32 163.58 42.62 163.55 42.39 162.64 43.54 161.91 44.01 159.75 45.52 159.22 45.61 157.85 44.51 158.2 43.06 157.95 43.04 156.49 44.41 155.73 44.04 154.35 45.11 153.64 45.23 152.38 43.95 151.61 44.07 150.97 42.85 150.19 42.92 148.71 41.19 148.69 39.37 147.51 36.81 146.66 32.98 141.84 32.58 140.9 30.6 140.39 29.91 139.64 30.16 138.15 29.78 137.67 28.07 137.72 27.16 136.01 26.28 136.1 25.18 134.31 25.58 132.17 26.6 131.59 26.13 130.26 26.32 128.4 24.61 127.04 23.65 125.33 21.85 123.32 19.1 121.02 18.25 120.09 16.72 116.91 16.85 115.69 15.77 115.35 15.05 113.9 15.05 112.38 15.69 111.71 17.15 111.32 17.24 110.63 15.34 110.19 15.85 108.84 15.26 107.78 16.24 107.34 17.28 106.12 17.78 104.36 19.69 101.2 19.14 99.51 16.95 98.94 15.34 99.37 12.32 101.02 9.77 101.73 5.36 100.84 2.61 100.79 1 100.05 3.67 99.25 8.45 97.01 13.02 94.41 15.84 92.95 19.57 90.75 21.65 89.32 24.79 86.02 27.65 83.53 31.18 81.45 32.72 80.11 36.33 77.7 39.82 74.5 44.39 72.08 48.09 69.69 50.21 67.86 52.29 65.48 54.38 63.38 56.35 60.41 57.3 59.67 59.24 59.26 64.84 59.75 69.85 60.38 72.9 60.54 74.94 60.99 77.06 61.86 78.87 63.02 80.57 64.7 82.14 66.62 83.78 69.13 85.39 70.85 89.48 74.02 91.58 73.69 95.02 70.31 97.2 67.68 99.58 65.68 100.08 63.86 99.12 59.8 97.98 54.16 96.86 50.77 95.51 47.3 95.38 45.65 95.61 43.21 96.3 41.83 96.4 40.82 95.66 38.98 94.05 37.2 93.01 36.72 88.14 35.97 81.66 35.18 77.93 34.23 75.49 33.3 74.39 32.47 73.85 30.81 75.35 26.66 77 24.65 81.27 21.81 83.42 20.53 88.03 17.39 94.29 13.97 101.43 10.28 108.72 5.92 112.67 2.99 114.43 1.98 117.18 1 120.63 1.25 124.26 1.94 126.46 1.86 129.39 2.6 131.37 3.37 134.91 6.11 135.53 7.64 135.09 8.9 133.3 12.03 129.97 16.69 129.79 17.98 130.94 19.35 134.21 20.76 137.4 21.32 143.34 21.97 146.05 22 148.68 21.53 151.54 20.12 157.55 17.65 159.22 16.71 162.28 14.37 163.17 13.23 165.65 10.77 167.06 8.5 168.74 6.3 170.43 5.01 173.26 4.41 174.36 4.56 Z"/>
</g>
</svg>