<?xml version="1.0"?>
<svg xmlns="http://www.w3.org/2000/svg" version="1.2" baseProfile="tiny" width="800" height="1461" viewBox="0 0 800 1461" stroke-linecap="round" stroke-linejoin="round">
<g id="4204178">
<path d="M 455.49 39.62 458.51 42.23 463.77 45.56 468.66 47.12 472.88 47.32 480.66 46.96 486.56 46.41 488.59 45.9 492 44.09 500.23 36.43 504.39 33.37 515.14 26.29 522.55 21.95 528.55 19.5 535.55 18.07 541.65 17.87 544.8 18.13 550.14 19.27 556.13 20.97 559.96 21.36 564.65 20.94 570.78 19.31 575.55 17.06 579.26 16.1 584.6 16.58 588.02 18.39 589.97 21.22 590.33 22.92 589.78 26.87 587.06 34.73 586.81 36.51 587.78 39.96 591.64 46.82 591.23 51.35 590.27 53.21 590.84 59.59 592.06 64.21 593.84 67.33 598.97 71.12 613.97 79.77 617.17 81.26 619.76 81.5 621.15 80.81 626.41 73.17 632.53 65.51 633.97 64.59 638.92 63.11 647.53 61.35 650.4 61.53 655.4 64.77 658.01 68.7 658.28 71.74 656.67 75.91 654.72 78.71 651.04 82.99 642.68 91.03 634.92 97.75 632 100.61 630.45 104.14 630.71 109.9 631.77 114.25 635.04 121.94 636.24 125.96 636.09 129.39 634.49 136.06 634.54 138.91 635.37 141.5 637.81 145.29 641.48 149.46 644.62 152.02 647.85 152.32 650.61 151.36 654.21 148.54 661.48 140.82 670.82 129.17 676.48 122.87 679.74 125.94 683.87 127.71 686.64 129.7 688 132.48 689.17 131.84 689.66 129.26 691.93 128.49 696.49 130.11 699.52 133.73 708.26 132.62 712.71 133.02 714.82 134.46 716.6 136.79 717.02 139.37 720.86 140.22 722.41 141.89 722 147.71 720.04 150.3 719.22 154.93 717.78 156.54 717.22 159.72 718.56 161.74 718.27 162.81 720.74 166.69 722.52 167.56 723.04 170.22 726.66 173.78 729.77 174.75 730.2 176.65 727.69 180.46 728 182.89 730.95 183.47 732.66 188.99 736.17 189.09 740.02 191.03 742.4 193.06 742.15 196.18 744.93 199.64 743.22 204.02 743.14 207.57 741.32 208.78 739.73 207.43 737.38 207.44 735.3 210.81 735.22 213.92 733.91 215.78 730.39 218.5 727.49 222.38 724.06 226.3 721.78 227.63 721.67 232.13 722.22 235.44 725.68 235.16 725.22 239.58 725.28 243.79 724.61 247.46 725.47 250.4 725.16 251.53 725.59 256.03 728.12 258.36 729.8 261.38 726.73 263.43 725.26 261.37 723.41 262.91 726.36 265.76 727.31 270.52 730.12 273.44 730.23 274.91 728.63 277.39 728.93 279.79 727.78 281.72 728.85 284.25 729.17 289.09 728.12 292.57 729.04 293.88 728.45 297.57 730.29 298.26 731.27 300.13 730.34 303.01 731.04 305.07 731.74 309.6 733.19 311.13 734.25 313.83 737.16 317.76 739.48 319.52 737.98 322.19 739.58 323.81 740.05 326.5 739.02 328.66 741.66 331.68 743.63 333.29 744.98 336.22 747.38 339.69 749.8 345.69 748.58 354.22 747.41 358.57 748.42 361.02 750.55 362.97 752.15 368.97 752.24 372.84 752.79 374.09 751.88 377.89 751.63 381.29 750.78 385.15 751.32 387.86 751.19 390.99 753.21 392.28 756.63 395.94 756.81 397.17 756.06 401.54 755.05 402.81 755.15 405.66 756.17 407.37 757.95 408.36 758.23 409.85 756.18 412.38 758.6 413.49 761.4 416.23 763.79 416.43 764.36 418.06 763.71 420.18 765.5 424.38 764.56 426.83 768.56 433.98 768.79 435.56 767.24 446.19 770.33 449.7 774.82 452.77 777.43 457.66 779.19 460.28 779.5 462.7 777.85 469.95 777.61 472.31 778.27 478.73 777.63 483.48 754.2 597.61 755.52 599.6 762.78 605.16 764.06 606.78 764.4 609.36 764 613.34 766.89 615.86 770.86 623.85 773.47 626.61 773.35 628.64 772.31 630.74 772.92 632.97 775.8 634.23 781.26 634.91 783.33 637.11 782.5 639.96 782.9 643.09 784.16 646.09 783.3 648.09 784.19 652.76 786.77 653.96 790.08 656.9 790.72 659.51 788.55 663.68 790.95 664.43 793.28 666.39 796.11 670.58 797.55 671.72 799 674.85 797.63 678.24 796.14 679.5 793.96 683.98 794 686.76 796.33 691.55 796.31 692.99 793.34 699.93 793.58 712.03 792.73 714.92 783.81 717.81 778.15 722.27 777.3 723.96 778.39 735.52 775.93 740.3 774.64 741.22 771.51 742.1 768.81 741.46 766.11 738.76 762.85 737.61 758.59 737.34 755.19 740.28 751.55 741.34 750.05 742.37 750.64 744.65 750.62 747.86 748.15 749.95 745.4 750.31 743.86 751.45 740.47 752.18 738.53 754.04 734.2 755.5 733.1 756.35 731.5 760.43 731.64 762.46 732.97 766.21 737.32 770.16 738.4 772.74 737.08 777.34 735.79 778.56 731.89 778.04 730.04 780.11 733.57 785.35 734.24 788.08 734.15 790.92 734.82 792.33 738.14 794.11 741.54 794.24 743.62 793.72 747.12 793.91 748.75 795.26 749.82 800.38 749.02 804.01 747 806.25 744.55 808.09 740.4 809.93 728.7 813.98 727.86 817.19 728.33 820.1 729.65 821.39 727.91 822.45 722.58 821.88 721.17 822.88 720.56 826.19 722.77 828.59 726.02 830.86 728.58 834.71 732.17 835.86 735.3 838.32 736.1 840.83 735.85 842.43 734.26 845.77 732.51 847.91 728.09 851.96 723.55 855.07 719.9 859.12 718.74 862.74 719.14 865.05 720.67 866.56 723.15 867.6 725.48 870.45 726.16 872.26 725.64 877.81 726.42 880.12 730.65 883.77 737.4 886.56 742.01 889.89 743.2 894.3 742.1 898.6 740.64 901.85 741.28 909.34 740.82 911.27 738.47 912.12 735.43 914.25 731.79 918.52 729.43 917.97 721.05 917.43 718.96 917.62 714.21 919.37 712.09 921.59 709.5 922.47 707.11 922.24 706.2 925.49 703.88 926.05 702.2 927.4 701.89 931.82 699.99 934.2 699.47 936.39 697.61 939.95 697.31 941.53 695.69 942.59 698.06 944.75 699.03 946.4 701.12 947.96 700 951.82 694.52 954.5 692.43 956.14 692.85 961.39 692.59 962.64 693.54 966 692.01 969.39 692.4 977.99 691.82 980.45 689.48 982.06 689.08 983.3 689.97 985.79 689.44 988.66 690.65 991.33 690.26 992.71 686.93 995.5 682.76 999.58 677.41 998.8 675.45 1000.22 673.78 1003.74 674.52 1005.12 678.62 1006.34 676.46 1009.57 674.33 1011 675.78 1014.44 675.11 1020.86 674.33 1024.77 676.03 1025.24 675.61 1028.98 674.68 1031.29 672.98 1032.9 670.93 1032.39 669.68 1033.34 669.34 1038.45 671.81 1042.15 672.16 1043.6 671.5 1046.47 668.53 1047.46 666.68 1050.92 664.96 1051.27 665.05 1052.8 668.39 1057.1 671.35 1058.31 669.2 1059.62 669.22 1061.68 670.29 1065.25 667.79 1068.05 666.31 1068.63 663.79 1072.32 665.23 1076.81 662.27 1077.27 658.97 1078.46 658.98 1080.09 662.98 1082.28 663.18 1083.77 660.02 1087.11 660.91 1089.09 663.82 1091 663.85 1092.8 661.5 1094.89 658.72 1095.72 656.43 1098.02 657.17 1099.61 659.37 1100.27 660.31 1104.35 655.18 1107.01 653.24 1106.05 651.94 1109.03 652.49 1111.99 655.95 1114 649.7 1119.44 643.79 1121.21 642 1122.68 641.33 1125.51 642.51 1127.82 640.14 1129.93 637.91 1128.09 636.81 1129 636.43 1131.01 638.83 1133.43 638.08 1136.67 636.2 1136.84 635.38 1139.11 633.18 1141.21 631.46 1141.06 630.65 1143.09 628.46 1144.54 625.28 1144.41 625.56 1146.62 626.66 1147.47 625.86 1149.19 627.37 1151.97 626.65 1153.91 623.95 1155.01 623.92 1157.5 625.36 1159.22 625.1 1161.66 628.03 1166.12 623.05 1166.71 621.01 1166.52 616.49 1169.45 616.68 1170.92 615.18 1173.35 615.47 1174.66 618.78 1176.28 619.74 1178.35 621.72 1179.15 619.46 1181.61 619.97 1183.14 619.76 1186.53 618.05 1190.37 618.77 1193 620.38 1195.05 620.68 1196.55 622.21 1197.71 621.4 1201.57 620.2 1201.88 619.2 1204.27 616.03 1206.01 613.3 1204.93 611.97 1203.75 607.12 1205.39 605.85 1204.78 603.55 1206.07 597.34 1203.06 595.18 1201.04 592.96 1201.02 592.07 1202.53 590.41 1202.89 586.82 1202.6 582.06 1205.46 579.52 1208.45 573.1 1208.93 572.24 1210.49 568.19 1211.68 567.21 1212.4 562.74 1211.55 561.31 1209.74 560.67 1207.72 557.73 1206.45 556.4 1203.96 554.7 1203.71 552.16 1205.19 552.35 1207.88 551.28 1209.83 549.55 1210 548.48 1211.99 545.25 1212.38 541.95 1210.54 538.28 1209.69 535.27 1208.08 533.63 1206.22 522.46 1203.76 520.85 1206.14 521.33 1209.42 519.76 1210.97 514.93 1211.92 514.56 1214.76 515.87 1215.82 515.4 1219.68 514.03 1221.97 511.41 1224.52 507.9 1226.96 502.8 1229.08 500.64 1230.43 496.42 1232.25 493.89 1232.74 488.46 1232.1 486.81 1232.26 484.29 1234.55 482.35 1243.58 483.26 1245.85 489.59 1248.45 493.81 1249.45 495.19 1251.28 494.12 1256.52 494.65 1258.43 497.22 1260.04 499.05 1264.42 498.95 1266.71 497.97 1267.49 493.79 1267.73 491.59 1269.72 491.59 1271.36 493.07 1273.24 494.34 1276.18 495.82 1278 496.61 1281.12 497.87 1282.5 502.53 1284.5 503.53 1287.04 500.45 1292.35 497.82 1294.62 493.96 1299.57 486.77 1303.21 484.52 1303.39 480.83 1302.73 477.96 1301.73 476.28 1302.12 475.87 1304.71 479.77 1310.92 482.88 1317.25 486.74 1323.39 487.13 1325.22 482.64 1328.73 479.89 1329.44 474.89 1327.72 469.28 1325.24 461.4 1322.68 459.21 1320.53 456.02 1319.9 454.33 1320.9 455.36 1325.01 455.62 1328.77 454.7 1333.07 451.57 1333.16 446.8 1331.59 443.2 1332.57 433.59 1332.1 430.01 1332.64 423.08 1335.52 418.2 1337.06 412.57 1336.04 401.47 1336.02 397.99 1336.19 384.45 1336.11 381.68 1336.6 379.37 1338 376.12 1340.74 371.73 1343.3 365.39 1344.93 360.49 1347.39 359.38 1349.69 359.2 1353.08 359.8 1356.47 362.25 1360.93 365.49 1367.57 365.49 1369.95 364 1376.47 363.64 1381.67 362.27 1383.69 360.75 1384.49 357.3 1385.06 353.2 1384.75 349.65 1383.81 344.21 1384.46 339.65 1385.89 335.44 1385.43 333.74 1384.34 330.41 1384.85 326.59 1384.04 325.75 1384.62 320.94 1385.66 318.04 1387.33 315.82 1389.84 311.57 1391.73 308.96 1391.81 296.18 1394.25 295.45 1397.29 293.97 1390.62 291.19 1382.75 288.3 1376.82 283.21 1371.05 273.77 1368.19 267.32 1368.92 251.01 1377.3 245.37 1382.56 239.22 1389.2 233.1 1401.08 225.52 1413.23 220.86 1424.45 217.66 1435.64 212.88 1448.54 207.43 1456.26 198.97 1460 190.6 1459.98 181.89 1457.11 174.45 1451.62 156.3 1437.52 145.9 1429.87 139.57 1420.22 136.89 1408.58 135.94 1395.11 136.09 1386.29 139.14 1375.48 144.45 1367.64 149.32 1360.05 153.01 1352.09 155.79 1342.33 156.56 1335.84 157.06 1321.83 155.1 1313.68 149.3 1307.88 142.39 1302.56 131.82 1297.28 121.15 1292.42 112.73 1288.79 100.41 1283.84 89.73 1279.09 79.78 1275.26 66.19 1264.72 57.17 1260.15 47.58 1256.53 27.9 1247.93 20.88 1243.24 15.15 1239.1 9.52 1233.24 5.05 1226.22 1.87 1218.67 1 1208.07 3.08 1198.27 6.45 1180.32 7.08 1168.36 8.31 1157.11 10.99 1147.61 19.67 1123.62 20.47 1114.98 20.49 1108.42 18.96 1105.09 20.51 1100.2 36.78 1103.49 43.84 1103.56 52.94 1102.74 58.04 1101.79 61.61 1099.66 64.22 1097.56 67.31 1093.67 69.07 1089.85 71.64 1087.3 75.72 1084.38 77.77 1082.38 80.42 1077.26 82.08 1072.65 84.63 1069.09 88.25 1066.48 93.82 1063.71 98.01 1060.58 102.82 1055.55 108.17 1048.24 110.43 1046.24 111.75 1042.65 111.44 1034.7 112.41 1032.32 113.77 1031.24 119.36 1029.91 125.13 1027.86 126.99 1026.33 128.17 1023.69 128.87 1019.59 129.64 1018.19 134.11 1017.6 135.88 1016.03 136.69 1013.22 135.19 1007.27 135.28 1004.79 137.32 1002.93 143.36 1002.83 146.25 1001.41 147.38 999.99 147.15 998.15 139.86 993.07 140.48 990.93 146.65 987.83 149.08 987.31 150.91 989.41 153.28 990.4 156.38 990.05 158.29 988.54 158.76 985.56 156.67 983.27 154.57 982.51 153.8 980.56 156.12 979.06 157.49 975.84 158.49 974.82 163.06 972.12 165.78 971.73 166.51 974.14 169.4 975.3 174.64 975.78 175.9 975.26 175.92 969.31 177.16 968.15 179.6 968.79 182.14 971.01 184.61 974.38 186.52 976.16 187.66 974.57 183.7 969.24 185.29 968.17 190.74 969.81 190.97 966.76 193.97 964.89 195.13 962.52 197.6 959.47 203.08 954.73 202.78 953.4 199.06 951.49 199.83 947.13 199.03 944.82 200.79 942.9 203.2 943.88 206.28 944.32 208.41 945.25 210.23 949.1 212.98 950.93 216.79 949.28 217.47 948.48 216.52 942.48 217.58 942.06 224.16 942.68 225.64 940.6 225.34 939.2 223.23 937.4 223.93 935.23 225.43 935.15 229.17 936.61 231.2 935.12 233.31 932.63 236.61 932.02 239.03 936.52 241.53 936.4 244.27 933.82 244.2 931.62 242.77 929.42 242.7 927.38 244.72 926.75 248.35 927.13 254.14 926.49 254.48 922.23 256.69 921.62 263.24 923.96 266.45 926.11 270.19 929.61 274.45 930.34 277.47 932.34 281.2 932.64 284.37 930.21 286.38 930.39 288.82 929.64 291.43 929.6 297.96 926.33 301.77 926.88 305.55 926.18 307.74 923.31 311.33 921.75 314.73 922.04 317.9 923.02 322.85 922.95 325.86 924.75 330.8 930.04 334.02 931.68 335.48 931.4 336.19 934.05 338.79 933.94 342.16 934.94 344.34 936.29 347.32 933.96 349.01 934.06 349.94 932.39 352.97 930.14 353.73 931.29 358.29 929.66 363.31 931.78 365.43 931.9 366.03 929.34 368.77 927.93 371.3 928.21 373.97 927.28 378.48 927.41 379.65 926.89 382.61 923.51 382.81 921.81 386.5 918.64 387.91 916.56 389.52 916.58 391.3 915.24 394.5 914.45 396.43 912.76 399.88 912.2 400.73 911.5 404.92 910.52 406.41 911.64 409.48 911.23 411.64 912.3 412.33 913.83 416.27 915.25 424.74 913.45 428.37 910.61 432.23 908.27 434.85 908.21 437.1 910.3 441.79 910.66 447.97 911.94 452.46 913.31 457.46 915.42 399.58 829.75 368.41 783.6 368.7 782.65 372.14 779.73 371.72 777.17 369.61 776.94 369.65 775.24 368.65 771.65 369.6 769.96 369.65 765.65 368.77 764.44 369.61 761.65 368.57 759.2 369.28 757.9 367.91 756.25 367.09 752.79 363.52 751.83 361.1 750.1 361.16 747.7 362.47 745.66 361.79 744.19 361.63 740.95 364.15 739.15 363.45 737.63 365.05 735.05 368.56 733.82 372.27 731.12 372.97 729.6 370.4 724.72 368.09 722.47 367.12 720.57 369.6 715.16 370.36 712.73 367.28 710.99 366.31 708.11 366.46 706.29 364.81 705.19 360.5 699.93 360.32 697.52 362.47 695.24 362.4 691.62 359.5 690 355.67 687.24 353.56 686.47 353.11 683.27 351.35 683.14 349.79 680.16 347.9 678.03 342.92 674.58 342.13 672.98 345.53 672.55 347.74 671.19 350.42 670.5 354.96 671.42 362.07 670.15 365.98 670.38 373.67 674.01 376.13 676.56 378.06 681.05 379.42 682.82 383.88 683.41 396.62 680.32 399.18 680.92 400.56 683.12 405.05 684.3 407.68 685.47 411.85 681.92 416.18 679.26 422.68 676.99 426.51 677 429.07 679.17 433.13 679.19 439.11 676.77 443.52 675.64 447.61 673.32 448.68 672.06 453.46 668.56 460.44 662.91 461.72 661.55 464.44 656.63 465.6 655.75 466.92 652.12 469.48 649.13 469.84 647.76 476.31 643.48 478.99 642.83 481.62 639.77 485.02 637.22 485.71 635.51 487.75 633.01 487.49 631.58 490.15 630.44 492.07 627.74 493.36 624.83 495.82 623.64 495.99 621.24 499.9 618.32 500.07 617.04 502.82 614.64 503.56 612.86 503.27 610.61 503.77 607.51 505.57 603.92 508.36 602.48 508.38 600.93 511.54 599.49 510.12 596.35 508.31 593.58 507.71 589 509.31 585 512.64 583.03 511.94 580.67 513.01 577.65 514.87 576.68 516.54 574.11 516.85 570.27 517.54 568.31 516.77 567.06 518.33 565.68 519.78 562.9 525.64 557.86 526.62 556.11 525.35 551.09 525.47 548.79 526.44 546.63 529.99 542.8 530.31 537.64 529.07 535.44 528.8 532.72 529.28 529.14 529.4 524.58 528.47 521.77 525.66 519.05 525.1 517.56 525.77 516 525.42 514.11 523.67 510.06 522.32 509 519.48 509.07 517.65 506.61 518.58 500.03 520.4 500.61 521.61 499.62 521.29 495.31 524.03 492.49 525.89 489.11 528.52 488.84 530.86 487.83 530.37 485.87 527.55 482.9 526.98 479.94 529.27 475.57 528.38 472.02 528.62 470.83 531.47 464.63 532.88 462.2 533.16 459.67 532.63 458.22 533.59 456.85 533.31 454.62 535.64 453.97 541.52 451.14 546.38 446.15 548.86 443.2 549.31 441.09 548.3 439.48 548.61 436.36 549.63 433.54 549.34 429.92 548.29 425.86 553.17 423.96 556.17 425.37 559.47 425.29 562.23 421.91 563.69 418.58 566.31 416.11 566.27 414.72 560.37 408.11 557.82 405.58 555.13 403.92 554.04 405.72 554.09 407.51 555.74 408.83 555.69 412.34 552.83 413.26 546.77 412.23 544.85 410.57 543.36 406.86 542.36 406 537.07 403.98 533.74 401.76 531.89 396.91 526.75 394 523.89 393.11 518.14 392.32 517.13 391.24 519.68 388.55 519.76 386.74 518.17 384.59 516.41 383.69 514.73 384.04 514.08 390.06 511.79 393.22 505.15 397.45 502.55 401.29 496.27 407.56 495.18 406.91 494.06 404.41 491.93 396.42 486.83 390.74 483.71 389.4 482.26 391.69 479.04 391.7 477.74 388.22 481.04 387.07 485.08 383.55 482.18 378.11 480.1 376.08 482.18 372.83 482.73 370.77 481.05 367.34 478.8 363.82 476.78 362.97 474.75 363.51 469.94 366.18 460.62 370.61 456.3 369.18 454.6 370.13 454.33 371.49 456.05 377.8 455.13 380.96 453.23 382.12 447.22 381.92 443.34 382.15 441.77 381.74 439.42 378.6 431.71 372.91 430.74 372.66 427.13 374.92 425.32 377.14 424.73 380.61 423.91 381.25 418.79 381.37 416.03 379.52 415.34 376.13 413.85 373.57 411.84 371.82 411.34 368.59 412.26 367.35 417.89 364.99 417.76 362.61 419.68 361.73 417.3 357.5 415.84 352.69 417.36 349.35 420.07 345.26 422.1 344.25 427.45 344.75 429.28 343.9 430.42 341.02 430.89 332.89 433.31 329.11 438.03 325.74 438.92 324.57 439.15 320.56 435.18 316.84 430.76 316.16 430.13 315.63 429.68 311.29 430.28 306.81 427.91 302.54 425.4 298.74 419.63 291.96 416.23 290.58 411.48 287.23 408.09 286.67 406.92 287.7 403.56 295.57 401.61 296.49 396.38 296.9 390.58 301.62 388.21 301.7 386.23 300.65 385.4 298.79 385.35 294.17 384.51 292.07 380.61 287.33 379.38 283.05 380.14 278.32 379.26 277.17 376.66 276.4 368.63 281.7 367.19 283.04 367.24 280.42 365.62 277.58 362.7 273.65 359.19 269.87 354.26 265.38 347.54 258.8 336.64 248.51 334.72 246.09 331.38 240.77 327.3 237.21 323.05 234.63 314.64 228.51 311.93 227.14 305.46 224.94 296.88 220.08 290.27 215.37 284.29 212 276.24 208.82 271.7 206.7 269.57 205.22 263.51 199.71 252.24 191.6 249.74 189.36 246.63 185.47 244.9 182.27 241.05 173.15 238.33 164.85 238 160.21 238.73 156.44 241.39 150.53 244.33 146.89 248.36 143.12 256.03 137.38 262.88 133.97 270.04 131.57 288.09 126.42 301.07 123.11 327.31 117.01 331.21 115.82 334.84 114.24 342.66 110.31 346.62 108.67 350.59 107.64 356.35 107.04 360.77 107.18 368.58 108.78 373.22 109.34 376.52 108.82 378.63 107.94 381.46 105.42 382.45 103.59 383.74 98.61 383.99 93.03 383.19 88.64 381.17 81.76 379.57 78.22 377.45 74.58 374.79 70.92 370.89 66.99 368.2 65.17 364.4 63.39 352.22 59.23 349.35 57.94 342.63 53.22 331.54 42.34 325.29 35.19 323.02 31.26 322.32 28.25 322.58 24.92 324.6 19.02 326.91 14.21 329.25 10.42 333.43 6.51 338.48 4.44 345.58 3.2 358.8 2.05 360.02 2.21 378.58 1.03 382.83 1 389.14 1.54 396.17 2.47 405.04 4.09 411.59 5.7 419.88 8.42 425.91 11.2 432.08 15.28 436.22 19.36 438.86 22.6 446.05 32.24 451.44 35.61 455.49 39.62 Z"/>
</g>
</svg>