<?xml version="1.0"?>
<svg xmlns="http://www.w3.org/2000/svg" version="1.2" baseProfile="tiny" width="800" height="718" viewBox="0 0 800 718" stroke-linecap="round" stroke-linejoin="round">
<g id="4204194">
<path d="M 785.62 259.41 784.5 261.01 781.74 261.14 782.07 269.06 780.93 269.68 777.84 274.16 775.3 274.89 773.99 277.74 771.57 279 761.03 280.54 756.29 282.75 749.86 284.46 748.4 286.28 750.49 289.36 751.03 295.88 749.18 298.24 742.11 304.25 740.15 306.92 740.15 310.82 737.76 312.01 734.88 314.71 731.8 316.01 726.19 316.13 722.77 317.61 717.87 322.17 718.61 332.24 718.08 339.63 716.18 342.14 713.8 342.47 709.07 340.97 702.7 340.01 694.47 341.42 687.86 343.44 683.41 346.11 681.92 348.44 679.42 349.86 672.13 349.05 670.96 349.46 669.88 353.45 671.64 355.86 674.01 362.45 672.9 367.12 674.56 373.36 676.13 375.07 678.31 381.61 678.65 386.2 678.05 390.18 675.67 391.19 669.61 390.99 666.36 389.72 665.41 392 667.02 395.01 665.66 399.74 663.01 403.31 659.78 405.83 657.86 409.87 656.09 411.68 653.19 410.94 652.04 407.67 649.75 407.22 643.22 410.53 640.56 410.97 633.02 415.62 628.27 421.49 627.45 423.46 622.8 422.09 619.76 423.48 613.07 424.05 610.59 427.06 605.47 426.6 598.23 425.4 591.31 427.09 587.08 427.66 580.21 430.85 576.94 433.78 577.09 436.94 575.23 437.49 569.14 435.63 567.13 436.6 569.1 440.5 567.03 441.34 562.37 440.16 557.43 443.06 554.34 443.15 551.06 441.15 549.51 441.34 546.03 443.79 544.14 444.11 538.74 442.87 532.11 443.04 530.98 447.66 529.76 449.45 523.05 450.53 521.2 452.44 518.72 456.65 515.47 463.47 505.13 466.48 500.54 469.98 498.75 470.33 495.36 467.9 484.53 471.27 479.22 470.41 475.87 472.47 473.13 473.09 466.66 471.21 460.45 472.56 457.85 475.43 457.17 478.9 453.55 483.35 448.88 484.25 445.58 483.51 440.54 483.52 435.08 476.42 431.27 475.53 429.5 476.97 430.03 479.43 431.7 480.96 429.41 484.8 434.44 486.07 436.57 485.47 440.2 487.87 440.14 489.51 436.5 490.2 431.87 491.85 429.7 493.39 429.99 496.33 424.67 500.55 423.02 503.11 420.81 503.29 412.57 499.9 409.65 499.29 403.83 500.06 396.69 501.67 393.07 503.99 390.12 505.04 390.74 508.62 389.67 510.29 383.17 512.9 375.74 519.11 379.18 522.41 378.97 523.29 374.06 524.5 370.06 526.25 366.19 525.75 359.64 525.69 353.79 528.58 349.5 535.78 345.34 537.78 341.08 538.84 337.48 538.95 336.81 540.79 340.43 545.54 342.91 550.82 341.95 553.71 337.42 556.66 332.5 560.63 329.45 564.02 324.01 566.17 320.54 566.47 316.17 568.08 313.36 569.8 311.96 569.26 307.84 564.4 297.54 563.51 292.94 565.49 291.24 565.06 294.24 560.42 294.57 558.27 293.02 557.33 288.83 557.95 284.33 557.87 280.94 558.85 277.96 562 279.87 570.23 278.4 572.05 274.52 573.73 271.92 578.48 272.21 580.34 275.29 582.78 275.31 586.19 271.08 588.2 271.13 589.99 273.68 592.72 273.75 595.17 270.26 597.25 269.82 598.44 272.53 604.85 269.53 604.73 262.21 607.56 261.18 614.48 254.16 620.28 252.01 622.73 249.18 624.29 243.5 628.86 241.51 629.41 235.68 629.32 229.77 632.95 223.74 630.52 221.25 630.6 214.62 631.9 206.96 630.67 204.32 631.58 203.38 634.29 204.65 638.95 203.72 642.45 202.62 643.31 196.22 642.68 191.42 643.89 184.59 651.64 181.56 653.26 175.11 654.33 167.93 653.02 157.51 658.35 151.73 659.61 146.04 659.23 142.71 660.77 141.17 662.97 140.22 669.37 137.84 671.94 131.68 676.3 119.56 684.18 115.16 691.11 110.91 695.67 108.59 699.64 96.26 703.28 92.32 703.17 86.93 705.23 82.18 706.42 75.15 705.1 73.59 705.58 67.56 709.31 64.49 712.77 59.21 716.41 55.62 717 52.18 715.37 43.5 714.92 37.21 712.17 31.55 711.36 28.52 712.69 23.67 711.55 17.28 706.81 12.68 700.37 13.38 695.24 16.42 691.6 15.03 683.57 16.4 679.08 15.21 675.13 13.53 672.4 13.62 667.56 12.13 664.02 6.46 659.26 3.04 654.93 1 647.76 1.01 645.87 3.33 641.7 7.56 635.79 8.4 633.31 9.16 622.74 12.14 614.61 15.22 611.38 24.11 610.11 28.92 608.2 40.24 595.2 43.29 590.68 51.45 582.87 59.08 572.14 62.52 569.49 72.89 557.12 75.47 554.65 75.65 551.53 73.16 544.67 74.01 542.81 79.59 542.47 80.64 540.19 81.18 535.31 86.71 532.42 90.2 529.97 94.1 525.13 92.52 514.32 94.01 508.87 92.78 508.19 96.16 504.65 95.29 498.25 92.57 494.29 85.57 481.09 85.38 477.87 86.34 475.03 88.74 473.16 88.96 469.24 90.83 465.57 88.29 463.1 88.49 461.26 85.97 457.45 81.71 454.17 82.91 450.49 85.25 449.47 84.62 446.27 86.91 443.52 86.5 437.68 82.83 434.64 81.98 431.69 85.92 432.3 88.58 426.8 90.21 426.17 91.71 423.14 90.01 421.17 95.35 418.24 97.58 414.7 98.36 410.66 102.11 406.41 99.62 404.53 98.65 400.99 100.52 398.05 103.92 397.09 103.68 394.77 105.99 394.3 106.04 391.6 108.53 390.74 109.68 387.55 111.42 385.72 112.21 382.23 115.39 377.77 115.86 374.56 113.49 369.12 115 367.4 113.7 363.09 117.44 357.04 117.76 352.02 121.54 351.81 123.01 348.85 123.19 345.23 129.26 341.59 132.06 342.77 132.21 348.2 135.44 348.44 137.81 342.47 142.73 341.15 144.72 338.83 149.92 338.81 151.95 335.89 157.75 331.55 161.13 330.58 170.24 329.91 172.81 326.73 175.73 324.83 176.65 322.17 179.26 319.48 179.9 314.97 182.51 315.55 183.33 318.28 185.96 319.66 189.2 319.34 192.09 321.76 198.57 322.58 201.25 319.53 206.28 319.14 207.46 315.29 210.99 315.79 216.8 310.76 226.62 304.05 230.68 300.07 235.72 299.46 237.32 297.19 236.74 295.21 232.65 293.78 230.14 291.06 228.71 288.4 228.64 285.95 226.69 282.34 222.38 276.94 219.37 270.46 219.01 268.69 221.76 264.23 233.69 254.74 235.41 252.66 240.18 248.88 243.14 242.75 245.73 234.92 245.88 230.56 247.34 224.86 249.66 221.46 253.61 217.59 257.66 215.1 262.43 212.87 264.41 208.78 266.79 206.39 269.44 205.66 273.22 205.82 278.93 204.83 285.05 202.19 288.74 199.96 292.42 195.81 294.13 192.54 294.75 189.48 297.3 183.36 298.18 178.79 297.81 175.26 298.64 171.53 301.88 168.05 307.07 164.21 308.29 160.89 308.4 155.45 312.96 145.95 316.75 142.17 323.18 136.56 326.45 130.7 327.06 127.23 329.98 123.44 336.31 122.25 341.03 120.57 342.17 119.39 343.05 112.86 346.11 102.74 345.7 98.75 343.68 94.84 350.22 94.38 352.5 93.21 354.33 91.04 358.34 87.82 364.45 83.73 368.13 79.33 368.61 77.71 373.14 74.88 377.75 70.53 380.3 63.89 383.84 60.98 385.66 56.62 386.1 51.85 389.23 47.91 393.69 44.13 396.31 38.17 400.26 35.98 402.41 33.85 405.14 33.65 407.44 31.23 410.38 29.91 413.57 27.25 419.89 26.31 420.63 28.85 425.52 25.42 429.14 20.92 430.69 18.14 433.43 16.82 435.25 14.53 438.18 15.44 441.2 12.63 440.48 9.13 440.79 5.82 448.47 5.41 458.32 1.96 461.6 1.15 466.84 1 470.27 2.28 479.7 9.08 483.35 11.07 485.77 17.84 491.56 22.53 494.98 27.41 497.97 30.01 503.56 29.47 506.94 30.31 507.24 32.24 505.51 38.88 504.12 42.57 505.08 44.01 508.82 45.44 513.91 45.42 525.02 42.42 535.34 41.59 545.3 39.96 548.32 40.79 556.28 46.14 559.42 50.14 559.71 55.08 558.5 57.43 558.22 60.37 561.13 64.98 566 68.87 568.3 69.85 572.1 70.04 578.89 67.5 582.79 65.04 585.68 64.22 590.05 64.22 595.41 62.07 602.08 59.95 605.28 62.15 604.14 66.98 600.6 73.75 602.28 75.87 603.92 75.79 611.82 72.16 624.16 72.03 627.59 74.19 630.91 78.1 639.95 79.52 643.87 78.77 648.64 82.82 649.34 85.91 648.84 91.46 650.8 97.47 655.73 100.85 658.52 104.79 661.55 106.09 669.34 105.18 672.57 109.17 675.46 111.49 684.5 114.74 688.87 112.34 691.71 111.8 694.47 112.7 699.78 118.43 701.94 122.49 702.42 125.34 699.65 133.43 700.18 143.11 703.04 154.84 703.54 161.79 705.12 166.79 706.53 168.67 713.99 175.64 714.93 177.48 716.43 183.47 719.35 186.72 720.55 189.85 722.71 198 722.42 199.9 719.21 204.8 718.94 206.94 720.57 210.61 723.91 215.93 725.56 216.65 731.05 217.08 737.55 219.52 741.49 218.66 745.9 213.42 756.17 209.35 759.98 207.04 763.39 207.15 768.84 209.58 773.2 213.38 774.87 213.65 782.39 211.11 787.63 208.69 795.12 209.98 797.74 212.19 799 215.02 797.89 221.24 796.68 231.31 797.03 234.72 796.07 237.46 792.24 241.62 787.41 244.76 783.05 250.15 781.93 253.47 782.63 256.28 785.62 259.41 Z"/>
</g>
</svg>