<?xml version="1.0"?>
<svg xmlns="http://www.w3.org/2000/svg" version="1.2" baseProfile="tiny" width="800" height="887" viewBox="0 0 800 887" stroke-linecap="round" stroke-linejoin="round">
<g id="4204756">
<path d="M 797.97 364.59 799 385.46 755.77 386.01 756.43 417.83 636.51 492.98 632.86 493.4 611.68 484.51 607.24 481.92 606.43 556.98 436.8 557.55 434.49 628.37 433.57 642.46 397.04 857.3 330 857.24 327.78 861.97 320.58 865.53 315.82 869.28 308.46 872.54 303.97 880.02 300.39 882.81 292.06 886 288.16 876.93 282.17 867.31 278.79 863.65 271.4 859.89 259.29 855.73 251.8 853.97 243.85 862.09 233.25 869.33 228.45 868.82 226.43 866.16 227.5 853.49 232.39 842.93 230.97 841.48 218.22 840.2 215.9 838.13 216.19 825.62 213.73 817.82 213.16 812.04 209.9 803.01 207.62 793.41 204.64 792.14 194.56 793.91 181.21 793.49 178.45 792.05 167.81 779.95 168.42 774.83 155.77 752.16 152.44 749.33 142.89 748.91 135.6 749.67 113.46 750.2 105.24 746.53 106.06 741.34 119.39 725.01 138.21 724.65 146.56 723.37 148.8 720.98 147.46 717.31 139.94 710.56 134.74 707.82 134.72 701.15 141.13 687.86 144.45 686.93 149.81 678.48 152.96 659 149.29 651.13 140.51 651.54 134.39 653.24 111.98 655.36 108.51 654.82 101.57 650.52 98.22 644.03 98.61 638.81 103.82 634.91 106.52 630.91 114.09 615.51 116.12 607.68 113.54 604.68 113.57 598.11 111.34 594.77 104.5 590.29 95.55 589.3 83.64 589.4 75.85 585.99 64.62 570.31 69.96 566.99 83.16 565.04 91.47 562.15 94.18 558.68 100.73 559.2 109.1 563.47 118.73 561.45 122.18 550.78 121.96 542.04 115.83 540.27 110.15 534.39 107.32 535.8 103.12 532.29 102.73 520.55 96.28 515.76 92.37 515.55 85.7 511.55 78.73 503.74 72.63 499.81 71.44 496.14 75.08 490.42 81.15 489.32 93.8 493.11 108.16 501.55 114.71 503.34 120.63 503.09 130.64 500.1 137.96 499.36 144.34 496.17 145.87 493.66 148.48 483.62 148.61 471.74 145.3 467.97 143.76 463.41 148.74 460.03 147.77 456.26 144.21 451.63 144.33 443.65 148.7 437.7 150.74 431.3 148.53 426.13 139.09 420.77 129.76 417.89 128.41 413.59 118.1 402.37 117.18 400.35 117.94 392.44 112.34 384.96 106.26 391.43 102.02 391.21 92.04 385.34 84.68 381.96 88.02 379.2 88.99 372.52 85.69 370.07 74.35 367.96 68.6 362.79 60.21 361.07 59.51 355.86 55.01 352.47 51.38 347.21 45.44 344.21 44.67 342.17 47.56 336.53 45.27 330.79 49.83 321.25 52.65 318.42 52.71 313.84 58.55 314.53 63.38 309.57 61.33 304.77 66.02 297.97 66.26 291.68 72.23 292.59 75.54 285.04 73.32 282.33 77.34 274.82 71.93 272.81 66.41 268.32 65.81 265.87 60.71 260.99 55.45 264.96 46.42 256.95 45.27 253.96 51.17 238.47 50.9 230.71 55.05 224 45.14 209.35 36.77 205.18 31.48 201.34 22.56 196.58 15.19 184.18 9.08 181.3 1 170.9 3.69 167.09 14.16 162.49 29.82 151.02 41.28 157.52 44.49 154.08 52.61 154.28 56.88 155.68 62.38 154.96 72.35 151.57 76.92 151.68 93.55 144.66 116.55 141.18 135.63 144.59 144.98 143.93 148.59 145.38 155.92 145.16 169.17 148.41 182.99 153.49 194.39 159.8 199.87 147.13 260.86 7.58 283.89 9.98 288.63 7.57 296.12 5.6 305.4 1 315.04 5.08 319.97 11.2 326.4 15.85 331.78 17.92 344.76 19.36 349.88 24.29 355.56 25.43 357.75 27.81 363.1 28.27 368.89 31.33 338.66 86.32 335.1 93.44 332.56 94.97 327.62 102.73 329.36 106.91 330.14 120.08 331.29 125.53 466.44 160.96 456.74 186.38 592.79 229.4 598.65 221.95 602.79 252.25 608.51 250.27 619.3 251.42 627.63 254.48 634.66 259.02 637.87 259.39 642.31 262.76 650.55 262.65 655.38 265.84 659.2 271.05 667.81 269.63 679.73 264.22 687.05 266.51 704.79 267.96 709.51 267.5 718.66 268.44 726.18 272.76 734.34 269.55 740.77 271.12 749.45 271.29 758.25 266.63 765.85 269.54 778.86 272.07 776.22 278.41 770.37 286.78 769.01 294.52 765.05 305.77 764.97 309.69 761.72 316.99 754.58 322.53 752.72 327.36 753.6 334.11 750.67 340.14 798.38 339.08 797.97 364.59 Z"/>
</g>
</svg>