<?xml version="1.0"?>
<svg xmlns="http://www.w3.org/2000/svg" version="1.2" baseProfile="tiny" width="800" height="522" viewBox="0 0 800 522" stroke-linecap="round" stroke-linejoin="round">
<g id="4204152">
<path d="M 731.39 159.13 733.09 164.23 735.65 174.45 737.75 178.14 740.7 179.05 743.65 179.43 747.93 179.55 753.59 181.45 756.21 182.6 758.63 184.84 759.34 186.34 759.66 189.94 758.36 194.36 755.24 199.37 754.22 202.04 754.56 206.5 755.79 208.94 757.71 210.21 760.48 210.75 765.49 210.54 771.29 208.88 773.43 208.63 775.36 209.02 778.7 210.9 782.4 213.58 783.42 215.94 782.66 221.35 785.96 224.12 787.36 226.57 788.63 231.6 790.29 233.29 793.3 235.32 793.78 236.22 793.07 238.44 790.4 240.29 787.29 241.41 781.71 241.55 781.29 242.56 782.13 245.16 784.81 250.57 786.05 251.44 791.02 252.23 794.4 254.17 795.34 258.83 795.21 264.02 796.64 265.86 799 266.99 798.78 270.17 798.13 272.89 795.73 275.73 796.22 276.95 796.11 279.07 790.15 278.72 789.16 280.44 788.77 283.4 787.04 283.29 783.94 284.06 782.47 287.13 780.99 287.49 778.43 289.65 778.79 292.32 777.4 294.27 778.89 297.54 777.67 298.86 774.17 300.03 771.6 300.18 769.75 302.23 766.9 302 763.55 303.53 762.51 305.15 762.65 306.73 760.43 308.97 758.62 310.19 757.06 309.36 754.83 310.72 751.59 312.02 750.69 312.98 748.15 313.23 745.67 316 745.46 317.62 746.46 322.49 746.52 327.3 749.23 334.17 750.37 335.98 747.63 344.02 747.6 345.62 744.23 356.98 742.74 360.21 740.74 361.92 740.34 366.49 741.36 367.96 741.18 370.31 740.49 372.62 741.91 374.62 740.71 376.79 740.9 380.66 739.87 382.07 739.55 384.15 737.75 385.06 736.76 387.57 736.89 389.51 735.61 390.79 735.41 392.65 709.29 474.17 698.87 465.37 697.83 464.26 694.48 462.99 691.26 463.35 688.91 463.22 686.09 464.82 682.86 464.9 681.05 466.31 678.92 466.95 675.52 466.94 672.83 466.02 669.34 465.88 666.08 467.9 664.16 470.96 658.49 476.27 656.86 477.13 654.03 479.83 653.55 480.88 653.67 483.19 651.68 486.25 649.63 487.26 649.1 488.27 647.4 488.76 646.95 491.31 645.09 492.57 642.73 492.89 639.75 492.74 632.57 495.13 624.89 496.79 620.07 496.39 619.19 497.52 616.37 497.64 616.77 499.84 614.33 500.51 610.82 502.29 609.75 503.23 607.7 507.34 602.71 509.71 600.84 511.83 597.25 514.44 595.44 516.59 593.27 516.25 589.28 517.07 587.86 519.25 585.01 519.82 583.79 521 582.52 520.97 579.89 519.99 577.85 520.33 572.03 519.54 569.83 518.14 568.48 514.28 567.45 513.72 564.79 514.86 561.87 513.96 560.53 512.7 556.35 511.37 557.26 507.51 557.91 501.23 557.53 493.79 553.38 482.18 547.67 476.69 542.36 474.68 530.87 473.52 528.44 473.55 509.59 477.92 503.42 479.57 496.56 480.93 494.67 481.1 483.09 478.07 473.67 475.84 468.24 473.78 455.08 467.55 447.57 461.76 445.35 458.79 444.22 455.16 443.7 450.97 444.05 447.37 444.92 443.82 446.59 440.16 449.9 435.68 455.83 429.88 458.77 427.47 465.37 421.02 467.11 418.07 468.72 414.66 469.6 411.97 467.43 408.19 465.86 406.43 462.87 405.3 458.91 404.33 454.6 402.71 450.51 400.22 447.37 396.81 441.53 391.66 439.66 388.49 437.48 383.96 436.45 379.62 435.97 373.76 435.76 366.68 436.26 358.26 436.19 353 435.81 345.52 435.22 340.21 434.14 336.13 432.32 331.8 430.05 329.09 426.48 327.06 422.21 324.17 417.5 322.39 400.46 318.17 393.92 316.82 388.49 316.43 382.48 316.64 378.2 317.29 369.55 320.27 365 321.98 359.66 324.37 354.56 326.34 346.38 330.88 338.85 335.92 335.34 338.74 330.4 341.67 325.68 343.74 320.14 344.31 316.14 344.35 310.3 344 299.92 341.73 294.24 340.32 289.87 338.19 281.8 333.31 273.21 327.61 268.47 324.11 263.56 320.22 253.95 310.75 249.83 305.99 247.26 302.02 243.75 295.88 240.9 287.71 240.47 283.73 241.44 279.27 242.87 274.9 245.26 269.77 248.56 264.17 250.05 259.65 254.95 249.48 256.91 246.33 258.9 240.99 261.19 237.54 262.56 232.82 264 228.75 264.92 224.8 264.84 219.03 264.08 213.32 262.52 209.97 257.69 203.84 251.7 199.7 247.94 196.91 244.64 193.6 240.82 189.34 237.4 186.09 233.59 182.79 230.35 179.63 225.91 176.84 221.08 174.56 215.92 173.5 210.72 173.55 206.33 174.56 201.38 176.18 190.03 180.19 179.02 185.81 167.95 192.19 162.79 195.43 157.92 198.82 154.66 202.95 151.85 207.03 146.42 216.44 145.21 219.99 144 222.57 141.93 230.28 141.14 235.6 139.67 241.48 138.06 245.95 135.72 250.38 130.42 256.55 127.26 259.97 123.75 262.74 116.09 267.49 101.79 271.38 91.56 272.18 80.12 271.13 76.22 270.41 71.57 268.76 67.65 266.77 64.65 263.81 62.19 259.74 60.71 255.1 59.61 249.95 59.22 245.45 59.32 235.43 60.46 230.24 61.89 225.67 64.84 214.71 66.11 206.25 65.86 199.97 65.3 196.63 63.42 192.76 60.4 188.79 54.94 181.1 52.66 177.63 49.18 173.46 47.03 169.94 40.42 162.42 37.52 159.31 33.36 155.5 30.35 153.26 19.37 143.45 7.28 131.62 3.69 127.71 1 125.27 11.27 117.38 16.42 113.16 20.6 109.31 24.47 104.49 26.34 101.17 28.39 95.4 30.71 84.28 32.61 78.99 34.64 75.79 37.05 72.88 41.77 68.09 44.86 65.26 54.16 57.57 60.73 53.88 63.99 52.51 70.24 48.77 74.05 46.83 78.81 43.26 81.46 40.24 82.96 37.93 84.48 34.7 86.17 29.17 87.76 20.33 88.94 16.98 92.66 11.33 97.16 5.89 99.16 3.86 101.64 2.2 105.6 1.03 109.04 1 113.31 1.73 116.92 3.92 119.29 6.48 121.28 9.13 123.86 13.15 125.87 17.05 128.63 24.27 130.07 28.87 133.18 40.7 135.8 47.96 138 52.52 140.42 63.51 142.06 70.1 143.99 75.84 146.98 81.32 149.03 84.09 150.56 85.57 153.47 86.83 159.02 87.92 180.4 90.75 185.94 91.35 191.09 91.68 198.31 91.64 212.77 90.46 222.21 90.05 226.91 90.4 231.96 91.71 236.93 94.08 239.67 95.98 241.89 98.38 243.3 101.98 243.79 108.33 244.56 113.74 246.23 121.9 246.82 125.9 246.93 130.61 247.28 133.23 248.73 136.89 252.01 138.95 258.59 141.57 263.05 142.79 269.31 143.97 272.74 144.82 278.58 146.9 283.57 147.55 286.78 147.3 291.84 145.01 295.82 142.24 299.64 139.23 306.48 132.83 308.86 130.07 310.65 127.03 311.54 124.07 312.23 119.68 312.32 116.56 311.68 108.39 312.18 105.43 314.32 101.23 318.38 95.66 321.62 92.04 327.11 85.1 329.92 82.52 334.53 80.48 339.11 80.08 341.78 80.79 344.02 81.87 346.37 83.54 351.94 89.42 354.25 92.17 358.96 99.39 363.06 103.55 363.69 105.42 365.28 106.59 366.84 106.91 369.96 106.59 379.1 104.29 382.88 103.75 387.08 104 391.41 104.93 395.61 106.6 397.78 108.13 400.49 111.3 402.04 112.04 405.68 111.82 413.16 108.85 419.13 107.02 422.37 106.42 425.26 106.32 430.31 107.46 432.4 110.57 433.41 112.98 435.02 118.06 435.4 120.12 435.37 123.05 434.95 124.6 437.04 126.85 437.92 128.69 439.93 139.14 441.37 144.35 442.28 146.37 444.51 149.78 446.84 152.23 451.06 155.59 455.7 158.67 459.48 160.8 462.63 162.21 468.79 164.37 472.71 165.17 480.44 165.92 483.22 166.62 485.63 167.9 487.54 170.29 488.81 174.73 492 178.14 503.3 184.92 517.18 191.82 518.99 192.84 528.98 196.73 532.73 198 541.41 200.44 546.56 201.47 555.27 202.66 560.14 202.96 571.58 202.91 578.93 202.62 587.68 202.06 599.64 200.62 609.57 198.9 613.96 197.86 618.93 195.35 621.79 192.18 626.51 184.62 626.98 183.45 627.49 178.13 626.8 173.91 626.87 171.46 627.88 165.67 628.43 160.22 628.74 152.18 629.2 146.13 629.64 143.51 631.1 139.21 633.45 135.66 635.9 133.15 643.04 127.54 658.72 116.09 665.42 111.87 671.86 108.19 678.59 104.97 682.71 103.54 687.89 102.31 693.22 101.95 697.03 102.59 699.99 103.59 703.95 105.46 707.58 107.75 710.06 109.71 713.21 112.68 716.11 116.19 718.57 120.38 720.47 125.16 721.78 130.19 723.7 141.44 725.24 148.47 726.2 151.44 727.82 155.11 729.35 157.28 731.39 159.13 Z"/>
</g>
</svg>