<?xml version="1.0"?>
<svg xmlns="http://www.w3.org/2000/svg" version="1.2" baseProfile="tiny" width="800" height="384" viewBox="0 0 800 384" stroke-linecap="round" stroke-linejoin="round">
<g id="4204251">
<path d="M 760.3 135.11 765.71 133.69 766.53 136.2 764.49 138.35 766.33 140.42 768.3 138.57 770.06 141.03 768.08 144.37 770.79 146.61 773.45 146.88 777.23 145.53 782.97 145.55 784.67 143.9 794.28 140.52 799 144.83 778.29 157.24 774.44 159.73 770.1 159.83 764.18 156.9 756.77 155.96 752.71 156.52 743.45 160.66 734.89 165.26 725.34 169.55 720.91 172.09 700.38 182.39 696.79 183.73 689.75 187.63 683.38 193.51 671.02 210.38 669.07 213.87 666.44 216.71 660.92 221.14 653.76 224.88 644.39 230.43 641.93 231.15 638.01 234.56 627.89 239.46 593.07 259.5 587.7 276.83 585.16 281.14 575.76 289.56 561.98 301.38 557.16 303.2 555.1 303.29 550.35 300.52 544.47 301.68 541.88 300.97 537.86 301.37 536.22 298.7 532.73 296.71 529.88 296.87 526.74 299.07 523.63 299.7 522.1 302.94 516.74 303.91 511.65 305.7 506.39 306.52 503.28 305.1 499.4 306.15 497.43 304.44 496.65 301.91 493.17 302.64 492.17 301.41 475.04 297.81 472.46 298.96 469.63 303.04 465.67 306.9 462.5 311.27 461.71 314.93 459.21 315.65 454.64 314.17 451.92 316.35 451.3 319.73 445.14 320.11 443.58 323.92 443.45 326.4 440.11 329.15 437.69 327.17 434.1 328.13 430 328.13 429.12 325.17 424.6 324.27 417.7 327.12 412.72 328.03 407.31 325.54 404 323.12 402.33 319.2 398.57 316.95 395.04 316.03 380.54 316.14 377.33 315.34 366.72 317.22 363.71 318.66 360.71 318.78 358.06 322.25 357.8 323.93 352.82 328.21 352.06 331.99 348.8 333.74 349.23 337.63 350.52 339.01 349.93 342.16 348.25 343.74 349.16 348.06 350.79 349.34 345.38 353.87 343.22 355.02 342.33 357.84 339.98 358.09 338.51 364.31 334.37 366.15 332.86 367.79 328.18 367.72 313.58 369.28 305.35 370.89 295.47 371.53 288.05 375.79 283.54 375.17 279.11 376.82 275.97 378.96 272.63 378.55 268.47 379.15 259.27 379.36 254.23 378.68 248.32 382.51 245.34 383 238.92 382.47 233.34 382.89 225.81 381.69 221.34 378.89 212.91 374.94 210.81 374.83 203.44 379.74 197.94 379.06 195.11 377.09 188.69 374.38 178.43 371.2 168.06 367.09 162.61 363.54 159.79 359.53 156.41 349.99 153.82 347.66 154.4 341.53 148.71 321.81 145.43 318.51 136.34 303.45 134.66 300 126.71 292.81 124.92 290.47 121.95 288.67 118.56 288.07 112.66 283.83 110.78 281.79 104.7 277.63 98.16 271.13 91.25 267.64 88.59 261.78 86.12 259.45 81.58 258.69 77.09 255.9 70.17 255.28 68.72 253.5 63.67 252.04 59.44 252.03 57.61 249.22 49.99 246.63 41.55 240.24 39.04 239.15 29.44 238.52 25.08 235.9 24.2 232.78 24.83 224.3 17.97 215.07 15.23 210.7 11.11 206.59 4.01 195.98 4.15 187.51 1 184.44 1.25 179.83 5.13 166.91 9.41 162.62 13.56 161.53 21.46 158.35 28.02 156.51 32.98 153.06 34.03 149.76 43.07 141.69 44.1 140.35 48.5 137.92 54.34 131.81 60.8 124.29 64.46 121.29 67.8 116.82 73.77 110.54 77.34 102.77 81.92 94.73 84.11 89.61 88.35 87.07 90.75 86.63 95.29 83.89 97.89 79.25 104.29 78.32 109.87 76.58 113.53 76.67 115.86 77.86 122.05 76.84 124.8 74.11 128.34 72.09 133.62 71.46 142.09 71.7 145.98 72.4 148.23 74.04 152.83 74.06 155.58 72.87 163.48 72.2 170.13 72.48 177.08 68.6 186.82 66.64 189.61 65.19 195.49 45.73 198.17 40.24 200.69 39.98 207.17 35.95 216.24 31.07 220.59 24.33 227.09 22.41 231.88 18.3 237.01 18.12 239.09 16.68 241.55 12.99 243.55 11.34 248.87 10.34 251.78 8.57 256.3 3.34 264.23 1 268.26 1.37 271.03 4.22 277.04 5.57 283.14 5.13 286.08 6.14 289.9 9.63 291.08 15.73 296.02 17.26 298.43 18.85 304.05 19.76 309.57 18.76 316.05 19.85 320.09 21.48 328.74 22.74 334.86 22.58 335.02 27.58 339.22 30.38 341.84 30.69 350.36 28.79 354.22 27.2 359.64 26.54 363.85 24.23 368.5 25.57 372.4 25 374.89 23.25 383.54 20.25 388.96 21.78 398.71 20.92 406.6 17.33 410.32 17.2 411.02 15 413.65 14.6 413.41 17.26 417.42 18.21 421.52 20.13 423.42 19.66 426.78 16.58 434.37 17.8 437.52 19.19 440.67 18.87 442.79 14.33 448.56 10.64 457.46 20.06 458.04 22.86 464.44 24.38 470.67 28.75 474.67 34.44 479.53 38.3 483.01 39.43 486.61 38.7 489.08 42.43 489.73 51.63 490.77 55 492.97 58.85 495.78 58.29 500.89 66.18 507.57 63.87 514 66.53 517.75 66.61 520.75 67.59 523.49 71.74 527.4 73.49 530.31 76.7 533.39 75.79 535.8 76.26 544.23 81.55 545.74 79.79 548.28 81.98 552.13 83.52 554.15 86.59 556.75 86.88 561.55 85.57 563.56 83.98 568.44 82.32 572.47 87.73 575.76 86.73 580.59 88.21 582.95 87.94 592.23 89.04 594.85 91.39 599.17 93.27 599.87 95.96 601.66 97.19 606.71 97.95 610.06 99.24 617.66 100.64 621.62 99.84 624.2 97.79 629.15 98.33 632.1 100.2 635.17 103.63 637.02 107.09 636.79 111.25 642.05 121.07 644.25 124.1 649.39 124.12 654.91 126.49 658.1 127.14 662.01 124.02 665.66 123.69 668.66 122.48 673.48 123.97 673.58 125.84 676.78 125.69 678.27 123.36 682.88 123.93 689.79 125.94 692.32 125.39 697.34 122.46 700.98 119.1 712.17 115.76 718.73 116.28 724.39 115.23 728.43 113.67 731.78 114.17 740.6 117.76 742.85 119.39 748.88 120.34 753.64 123.07 756.81 127.49 760.3 135.11 Z"/>
</g>
</svg>