<?xml version="1.0"?>
<svg xmlns="http://www.w3.org/2000/svg" version="1.2" baseProfile="tiny" width="800" height="687" viewBox="0 0 800 687" stroke-linecap="round" stroke-linejoin="round">
<g id="4204350">
<path d="M 616.2 72.92 616.12 78.76 617.78 81.08 618.97 88.37 621.61 94.17 627.17 97.3 636.82 103.73 643.09 104.84 644.87 106.35 648.63 106.09 651.45 110.02 656.27 112.45 658.45 119.51 658.78 123.59 660.51 127.43 666.19 128.32 669.15 129.8 671.89 137.33 677.23 146.18 681.95 148 682.62 149.97 680.98 159.43 682.89 165.06 694.19 175.22 693.18 178.98 698.57 180.48 700.8 185.86 700.04 189.98 703.59 192.98 706.86 199.98 711.16 203.58 712.1 206.73 717.44 215.21 723.36 220.04 734.21 225.42 742.03 230.39 745.59 233.42 752.76 236.06 763.57 241.69 743.72 359.36 751.15 359.29 757.15 357.94 760.21 355.99 776.65 342.44 777.78 338.31 775.05 327.45 775.2 324.46 777.25 320.44 781.01 317.57 786.52 316.07 799 313.61 764.85 618.51 766.24 623.93 770 626.8 775.14 629.32 778.31 635.33 775.55 637.98 778.72 640.01 778.47 644.07 776.5 648.83 780.62 652.12 788.77 656.57 644.75 686 525.35 530.29 480.46 471.76 451.38 431.47 425.38 432.2 293.85 429.88 278.29 430.38 272.51 432.25 261.69 440.29 253.79 441.41 250.17 439.45 245.21 435.41 240.23 432.53 231.62 425.51 226.01 422.79 217.33 420.17 211.05 419.12 204.26 416.45 196.94 403.68 193.23 402.19 186.59 402.11 175.62 406.82 170.67 410.73 166.69 415.16 161.58 423.38 159.61 428.24 16.78 381.56 16.12 378.82 17.21 369.37 19.61 364.26 18.45 359.66 15.57 356.25 12.69 349.74 12.18 345.85 6.36 333.07 3.46 329.56 1.69 321.71 2 317.68 1 311.54 192.32 120.03 195.81 117.43 313.1 1 513.42 174.77 616.2 72.92 Z"/>
</g>
</svg>