<?xml version="1.0"?>
<svg xmlns="http://www.w3.org/2000/svg" version="1.2" baseProfile="tiny" width="800" height="569" viewBox="0 0 800 569" stroke-linecap="round" stroke-linejoin="round">
<g id="4204509">
<path d="M 484.45 566.44 483.77 564.31 481.96 562.45 481.36 557.99 480.16 555.91 476.27 554.7 474 553.35 469.6 551.27 467.82 549.6 464.42 548.04 461.52 549 457.72 551.43 454.55 552.08 452.08 551.55 448.97 551.5 445.43 551.1 440.14 548.31 437.75 548.71 435.1 550.38 431.68 551.26 424.47 551.75 422.35 552.49 419.74 554.12 417.93 554.59 415.49 554.5 413.84 553.99 409.13 554.1 407.35 553.43 405.22 551.66 403.01 550.39 400.25 549.86 399.22 548.61 396.61 546.42 395 546.04 392.94 546.85 391.31 547.14 389.31 546.78 388.18 546.22 386.79 544.23 383.28 541.59 381.82 539.22 381.03 538.77 380.24 537.19 378.47 536.22 375.47 534.01 374.51 530.68 374.54 528.96 374.14 526.06 372.8 523.07 372.93 521.11 373.91 518.32 373.02 516.8 371.56 516.1 369.4 514.46 367.1 510.86 364.58 510.08 361.23 510.33 358.95 510.82 356.65 510.48 355.72 509.05 353.97 501.56 352.26 500.08 350.62 499.5 348.49 500.22 346.67 502.4 344.57 502.67 343.45 501.48 342.43 498.58 341.64 497.29 337.74 495.19 336.04 492.64 334.12 490.86 333.32 489.25 330.44 486.42 330.35 485.79 331.4 482.3 332.81 480.92 331.75 477.18 331.63 474.99 335 470.71 335.31 469.72 334.51 466.33 335.89 463.69 335.92 462.42 334 459.93 332.7 459.49 331.81 458.45 331.67 455.76 331.96 453.02 329.74 449.67 328.92 449.86 327.41 452.05 325.42 453.23 324.32 453.18 319.94 450.55 319.08 448.32 315.39 446 315.02 445.3 314.45 442.05 311.77 439.9 310.77 438.67 309.64 436.44 308.84 433.38 306.85 432.39 305.15 432.27 303.39 433.95 301.9 434.64 300.55 434.75 298.96 434.26 297.15 432.8 296.29 429.84 295.25 428.8 292.12 428.02 290.78 427.06 288.78 426.21 287.63 426.1 283.69 426.61 281.75 427.71 280.9 431.51 280.09 434.2 280.29 436.94 278.82 438.19 274.91 437.84 270.57 437.86 267.92 435.88 266.54 435.92 265.53 437.11 264.87 440.02 263.84 441.18 262.71 441.53 259.84 440.55 258.37 441.17 256.54 443.27 255.2 444.23 253.61 444.72 249.37 441.73 246.75 443.77 244.41 444.58 243.15 446.22 242.87 447.6 241.98 448.92 236.97 453.61 234.75 454.77 233.14 455.95 230.88 456.44 227.45 455.61 225.68 455.39 221.43 456.11 215.66 458.16 215.06 459.19 215.12 460.28 214.64 462.78 213.2 465.21 212.58 467.24 212.57 468.51 211.53 469.63 209.05 470.64 206.3 472.89 205.14 474.41 203.65 475.64 200.03 477.13 197.35 478.94 193.89 479.01 190.48 479.89 187.71 479.36 186.83 478.94 185.76 477.11 185.21 473.69 183.66 471.28 181.81 469.81 180.58 466.28 179.51 464.92 177.9 464.03 176.12 463.94 174.93 462.11 173.95 459.21 173.26 455.19 171.97 453.2 171.34 450.99 170.56 450.3 167.17 449.7 163.08 447.94 162.22 447.39 161.25 445.38 159.15 444.37 149.51 443.48 147.98 442.99 147.21 441.93 147.87 439.72 147.67 438.1 146 435.63 143.87 435.08 139.99 434.91 139.04 434.62 137.38 433.07 134.99 431.75 133.7 430.1 132.74 429.42 129.68 429.02 127.4 428.7 125.7 429.04 124.32 428.86 123.61 428.1 121.62 424.46 118.01 422.72 114.8 422.95 111.61 421.37 110.32 419.76 108.5 416.46 106.66 414.97 103.11 413.85 101.71 412.31 98.34 411.04 96.53 409.43 92.38 408.42 87.89 405.73 85.92 404.07 84.45 403.49 82.08 401.89 78.56 398.2 77.26 396.35 76.84 393.94 76.04 392.08 74.18 390.58 72.58 389.81 70.65 388.18 70.29 387.04 70.56 385.26 71.5 383.56 71.9 381.31 71.1 380.15 69.74 377.18 68.35 376.13 66.23 375.04 63.8 375.73 62.5 375.17 62.66 373.74 62.21 371.84 60.74 367.72 60.58 365.73 59.79 364.37 58.12 357.85 58.81 355.92 60.73 353.36 60.54 351.06 60 349.2 58.97 347.81 56.39 347.39 52.37 347.7 49.49 347.45 46.75 345.18 46.5 344.51 47.49 341.41 46.5 339.13 44.95 333.48 43.97 332.09 41.2 329.6 39.22 328.87 35.95 329.33 32.47 327.4 30.54 327.64 27.42 326.87 25.05 324.97 23.91 323.38 24.02 321.83 25.1 319.72 24.79 318.89 23.02 318.59 21.61 316.42 18.39 315.47 18.39 313.71 16.63 312.1 14.08 312.24 11.71 311.91 9.63 312.56 8.79 312.32 8.62 310.86 7.37 309.49 7.33 308.33 8.91 305.6 8.86 303.58 7.74 300.7 6.78 298.87 6.8 297.78 7.68 295.93 7.65 294.68 6.67 292.83 6.18 290.04 5.8 289.41 3.28 287.69 2.54 286.82 1 283.83 1.56 282.96 3.41 283.61 7.65 283.21 11.15 281.24 12.88 281.17 18.34 282.63 21.83 279.93 24.23 276.27 24.72 274.37 24.95 271.67 25.66 270.73 29.35 269.35 29.95 267.63 29.84 265.79 31.8 268.9 35.77 271.38 38.19 273.7 42.83 275.91 46.47 278.41 47.7 280.2 49.19 279.95 53.79 276.6 55.58 275.91 57.01 274.08 59.38 272.46 61.83 271.87 66.07 271.72 69.91 272.81 71.3 274.24 71.6 277 73.09 280.04 75.1 279.99 76.81 278.59 77.42 277.51 77.68 274.62 77.53 272.51 77.94 271.69 79.96 271.07 84.49 271.48 87.46 273.35 88.44 275.96 90.05 277.05 95.62 280.14 96.71 281.33 98.15 281.89 101.55 281.48 105.98 283.49 107.58 283.8 111.04 283.23 112.64 283.49 119.57 282.45 121.87 280.98 122.56 278.23 124.54 277.1 125.57 276.14 125.52 272.56 126.58 270.58 130.04 268.57 133.15 263.08 133.21 261.48 131.81 258.54 131.73 255.33 131.4 252.66 130.8 250.6 129.24 248.29 129.75 247.1 132 246.15 132.8 244.76 132.24 241.19 131.57 239.45 129.07 235.39 129.67 231.62 129.43 230.39 126.55 227.31 124.47 224.41 122.04 222.41 121.51 219.86 122.75 218.21 123.98 215.27 125.13 213.93 125.15 210.45 125.8 208.65 125.51 206.18 124.89 204.74 125.59 203.87 128.91 204.53 130.29 203.19 130.11 202.03 124.88 197.08 124.48 194.58 124.72 192.95 125.77 191.7 128.09 190.56 128.45 188.85 128.01 184.89 128.88 182.91 131.62 181.23 132.11 180.45 132.25 177.95 133.68 176.08 135.95 175.68 137.52 174.89 139.64 173.11 140.33 171.19 139.39 168.07 139.68 165.44 139.16 162.96 139.62 159.36 139.37 158.15 139.64 154.16 140.24 153.22 143.18 152.84 144.1 151.84 144.73 148.24 147.11 146.21 148.26 144.78 151.14 143.82 153.24 143.84 154.36 145.36 157.77 146.26 159.85 144.75 161.1 142.98 163.49 140.92 166.9 139.51 168.62 139.12 171.57 139.23 172.66 138.74 173.13 137.71 173.36 135.37 175.12 133.22 176.37 132.24 177.24 130.43 176.99 129.25 177.75 127.13 178.76 126.28 182.57 125 183.58 123.94 184.45 122.07 184.3 121.26 182.92 120.27 183.3 118.88 183.08 117.04 183.87 116.56 187.2 117.55 189.31 115.5 191.07 114.85 191.93 114.04 191.39 112.14 191.63 110.95 193.75 110.41 197.42 110.42 199.99 111.09 201.08 110.47 202.66 108.89 205.2 107.91 208.84 107.15 210.27 105.7 211.39 105.75 213.42 109.83 214.65 110.46 216.21 110.23 215.96 106.77 216.77 104.85 218.71 102.29 220.72 98.93 221.66 97.8 222.77 97.33 227.73 98.45 231.17 97.87 234.32 98.2 236.59 99.83 240.05 101.57 242.53 103.98 245.52 108.31 249.28 110.26 253.61 110.06 256.11 108.67 258.86 107.53 259.43 106.59 261.24 105.93 262.89 106.37 265 109.47 266 111.34 268.78 111.65 270.77 114.48 275.07 118.46 276.07 118.94 278.7 118.94 284.35 120.57 286.52 122.8 287.97 123.56 293.19 124.3 297.19 125.55 300.83 126.88 304.53 127.93 306.54 128.09 309.53 126.95 311.05 125.32 313.17 124.79 315.18 125.79 318.46 128.25 321.32 132.84 322.37 135.77 323.58 136.84 326.4 138.25 327.21 139.22 327.16 142.65 327.38 143.68 326.71 145.62 323.77 148.28 323.01 149.97 323.03 151.05 325.62 154.06 327.12 157.27 327.94 159.59 329.75 163.39 330.53 163.86 334.13 163.5 335.51 164.04 338.23 165.96 340.27 165.2 344.31 164.64 347.98 163.45 349.71 163.38 352.93 164.05 354.89 165.84 356.45 166.27 357.95 168.54 359.27 169.35 365.52 168.21 366.61 167.83 368.62 167.96 372.75 170.85 375.56 175.93 377.17 180.51 378.2 180.84 380.3 180.75 384 179.91 386.03 179.7 390.46 180.73 392.21 180.96 393.51 182.19 395.65 187.41 398.22 189.3 401.25 189.41 404.84 189.99 408.17 189.77 409.87 189.12 411.73 187.75 413.35 187.18 414.85 185.23 413.69 184.2 413.23 182.72 411.3 180.62 411.1 179.89 412.06 177.95 410.15 175.83 410.17 173.63 408.86 171.8 409.05 170.27 407.09 168.12 407.26 165.9 406.62 165.17 404.37 164.89 403.4 164.29 402.38 162.9 401.8 160.21 403.24 159.6 405.32 157.96 407.73 156.43 410.83 153.79 413 153.31 414.97 152.16 416.68 149.93 417.7 149.95 419.85 148.2 424.14 148.35 426.4 149.74 427.51 149.47 430.36 147.94 431.74 147.54 434.91 147.81 438.92 150.31 441.02 150.84 442.22 150.71 443.99 149.76 449.31 146.23 451.58 145.15 455.79 143.96 458.25 142.9 460.32 142.33 461.41 143.84 460.95 144.99 459.28 146.06 458.63 147.26 459.62 148.41 461.74 148.32 463.57 149.35 463.83 150.27 463.09 152.43 463.44 154.64 465.55 157.26 466.3 157.85 469.34 158.07 470.85 157.6 472.23 155.05 472.27 151.71 473.62 150.41 474.87 149.96 476.37 150.37 478.92 151.53 481.26 151.99 483.11 149.73 485.91 149.18 486.65 150.12 486.91 152.65 488.36 154.93 488.15 157.01 489.18 157.76 489.64 159.59 489.37 162.9 491.3 164.82 493.78 166.46 496.12 168.84 498.58 169.92 501.27 169.75 504.64 166.94 505.99 164.06 506.52 162.39 507.51 161.87 509.62 161.83 510.61 162.19 511.71 163.98 512.37 168.98 515.62 171.21 516.82 172.72 516.93 174.54 519.93 177.6 521.07 179.8 522.52 179.99 525.25 179.13 527.03 179.38 527.54 181.54 525.97 184.26 524.05 185.07 523.24 186.11 522.19 189.48 522.14 191.14 522.78 191.91 526.78 191.63 530.71 188.43 533.16 187.9 534.08 186.47 535.79 185.5 590.13 201.08 627.31 211.75 628.47 210.32 630.06 209.64 634.36 209.01 637.54 207.06 639.11 205.14 639.34 203.96 638.76 201.61 640.21 200.98 640.88 199.62 643.07 198.14 645.27 197.8 646.66 197.26 648.62 194.72 651.51 192.58 651.79 192.09 651.53 189.88 650.9 187.3 651.23 186.43 655.31 185.38 658.05 183.8 659.3 183.83 659.89 185.07 661.2 186.37 664.75 187.29 665.64 187.1 667.03 185.14 667.92 184.52 673.87 185.82 676.02 183.92 677.75 184.52 680.58 184.21 682.95 182.79 685.02 182.4 687.26 180.66 688.58 180.02 690.1 180.26 691.7 179.69 693.4 177.64 696.55 177.83 697.82 174.99 699.99 173.7 702.48 171.2 703.56 166.64 704.56 165.39 705.32 163.33 705.22 160.33 703.82 158.22 703.28 156.79 703.34 155.49 704.4 154.22 706.83 153.21 708.55 151.37 710.88 150.18 715.34 149.46 719.55 149.5 725.5 146.99 727.47 146.89 730.09 148.97 730.21 150.85 731.33 152.05 734.27 152.04 735.77 150.68 737.46 150.41 739.04 149.59 741.47 149.41 745.54 148.57 747.12 147.1 749.61 146.51 750.55 145.47 751.05 143.27 754.26 140.7 755.61 139.05 757.53 137.27 757.65 135.83 755.28 134.43 753.62 132.16 753.9 130.14 753.58 128.64 755.3 126.56 754.91 125.42 752.64 124.19 751.86 122.3 752.28 120.5 751.32 118.22 750.26 117.42 747.15 116.38 745.99 114.96 743.06 112.14 741.37 109.1 741.19 107.71 740.46 106.28 740.74 105.47 739.33 104.62 737.72 102.69 736.62 102.67 735.82 98.98 735.12 97.69 733.98 93.68 734.32 92.84 733.89 90.91 732.12 90.82 732.04 88.78 735.08 88.1 736.3 87.42 736.83 85.79 734.07 81.5 735.37 80.5 735.56 79.11 734.67 78.35 735.71 75.02 733.99 73.23 735.33 73 735.46 72.04 736.53 71.44 735.16 70.51 735.35 69.14 734.18 65.93 733.04 65.81 731.77 64.71 732.1 63.01 734.34 61.81 733.26 61.16 733.83 58.57 732.51 57.92 732.5 55.67 732.8 54.64 733.98 53.78 736.77 53.23 736.73 51.59 738.01 51.24 738.44 49.73 739.48 49.71 740.33 48.81 740.23 45.82 740.9 45.12 740.45 43.51 744.18 40.87 743.62 39.45 746.64 39.17 745.98 37.67 744.51 35.48 746.13 33.56 746.18 31.81 746.9 30.55 747.81 30.24 748.24 28.79 748.12 26.88 748.96 25.24 748.2 24.22 749.3 21.95 749.78 18.21 749.08 17.33 748.07 13.17 747.84 9.18 749.76 10.05 750.55 9.99 752.1 8.16 752.48 7.17 753.94 5.73 756.73 5.37 757.43 6.78 758.66 6.88 760.6 5.76 762.91 5.24 770.13 6.24 771.15 5.97 772.98 4.41 774.19 2.37 773.97 1 776.27 3.27 776.33 5.73 775.79 6.44 773.31 8.03 771.51 10.4 770.86 13.43 772.2 16.47 772.73 20.31 773.56 22.94 775.5 26.74 777.29 29.13 776.42 31.69 775.03 33.12 775.3 34.12 776.57 34.79 778.91 38.17 778.96 41.52 780.12 44.38 779.7 46.17 777.98 48.18 777.43 51.1 775.78 52.95 774.84 53.47 773.12 55.4 772.65 56.75 773.28 58.5 773.84 58.89 777.66 59.3 778.53 60.19 778.33 64.23 777.88 66.77 778.79 70.79 778.1 72 775.11 73.89 773.73 75.88 775.09 78.51 775.04 79.34 773.86 81.48 774.15 84.07 776.32 86.97 780.38 88.11 782.81 90.37 784.44 92.69 786.54 94.09 788.75 95.14 790.67 97.33 791.39 100.19 794.35 102.79 793.5 103.83 789.96 104.6 788.53 105.71 786.27 109.24 783.11 110.99 781.54 112.24 780.55 114.1 780.59 115.43 782.84 117.59 783.47 120.38 785.26 121.6 787.52 121.12 791.79 121.85 793.88 121.39 798.03 119.95 799 119.8 798.87 121.93 798.17 123.97 797 126.22 793.42 131.08 793.34 135.78 792.58 137.68 792.21 139.64 791.4 141.42 790.16 142.65 786.75 143.35 784.26 143.47 782.86 144.29 781.7 146.48 782.82 148.35 782.65 149.69 780.19 151.86 778.59 153.88 775.2 157.1 774.43 159.11 774.35 160.89 774.71 162.9 778.77 166.85 779.72 169.67 779.39 171.08 778.23 172.11 775.7 172.13 773.43 171.84 772.33 172.06 770.16 173.38 763.66 173.26 759.93 172.72 758.04 171.88 756.21 172.01 754.85 173.71 753.91 174.35 748.67 175.87 744.83 176.55 742.54 177.14 739.81 176.4 738.41 176.45 737.48 177.33 736.06 179.82 735.31 183.57 734.31 186.61 734.06 189.57 731.95 193.79 728.97 195.2 734.96 300.58 732.79 300.38 727.5 300.45 723.61 299.24 721.89 298.28 717.98 295.46 715.23 294.98 713.78 295.33 712.55 296.2 711.83 297.42 711.03 300.26 709.81 301.72 705.87 303.8 699.49 305.37 695.44 306.72 692.43 307.99 689.04 310.29 686.96 313.24 686.03 313.64 683.6 313.88 681.93 314.41 682.28 321.28 683.32 321.28 688.96 318.3 692.78 316.92 693.47 317.19 693.74 319.5 695.11 320.78 698.8 323.5 701.37 325.14 702.7 326.86 702.46 328.64 697.51 328.82 696.97 329.76 697.08 331.22 696.31 333.92 694.4 337.23 695.2 339.2 695.16 341.32 694.43 341.88 691.79 342.44 687.5 344.56 684.96 345.36 682.54 344.09 679.69 344.45 678.06 345.57 675.86 346.62 674.6 348.06 674.77 350.14 674.43 351.34 672.53 355.25 671.38 357.16 671.48 358.15 673.29 360.55 675.23 362.73 675.84 364.21 675.63 367.37 676.96 372.22 676.21 374.81 673.06 378.52 672.53 380.36 670.35 381.96 669.17 383.97 667.33 385.43 666.55 387.02 667.35 391.14 668.89 395.6 671.07 400.85 671.34 402.43 670.38 407.16 670.33 409.26 671.32 411.72 669.59 416.1 669.16 419.37 669.76 420.95 669.36 422.11 666.73 422.81 664.82 424.16 663.78 425.72 659.27 430.55 658.2 431.26 649.28 434.3 645.31 434.98 642.52 438.46 642.52 440.21 643.62 442.21 642.57 444.16 641.65 444.4 639.31 444.05 635.14 447.07 632.98 447.5 628.64 447.27 627.53 447.62 626.45 446.31 625.16 444.06 624.01 443.51 619.73 445.11 616.29 445.42 612.9 445.46 608.33 446.52 603.75 448.32 601.6 449.9 599.14 450.88 596.48 452.22 595.52 453.6 593.34 455.3 590.25 456.54 586.53 457.54 585.7 459.09 584.98 462.99 583.99 465.1 582.8 466.52 581.3 467.1 578.87 467.07 576.39 468.17 574.03 468.85 570.49 472.34 569.94 473.2 568.29 478.45 561.69 486.16 558.66 487.22 555.68 489.7 553.73 490.88 553.14 491.79 553.25 493.59 554.35 497.1 554.82 497.71 554.55 499.13 552.43 503.19 552.11 504.46 550.52 505.7 549.95 506.64 549.9 507.96 547.75 511.02 546.18 514.75 540.31 520.97 538.19 524.13 535.83 526.26 531.74 529.65 528.69 531.43 523.28 535.43 521.64 537.24 519.6 538.48 511.46 540.27 510.95 540.64 508.87 543.69 508.18 545.24 507.81 547.97 506.58 549.48 503.15 550.76 501.78 551.47 500.84 552.49 500.78 554.25 501.34 556.34 500.68 557.42 498.85 558.89 497.21 560.68 496.05 562.66 492.53 564.66 490.14 567.24 488.05 568 485.8 567.72 484.45 566.44 Z"/>
</g>
</svg>