<?xml version="1.0"?>
<svg xmlns="http://www.w3.org/2000/svg" version="1.2" baseProfile="tiny" width="800" height="650" viewBox="0 0 800 650" stroke-linecap="round" stroke-linejoin="round">
<g id="4204707">
<path d="M 731.62 31.4 731.68 33.27 729.9 34.16 730.89 39.15 734.18 44.02 735.72 44.5 736.24 47.22 742.67 48.92 743.93 50.68 749.08 54.83 752.29 56.73 751.95 59.28 750.19 62.06 746 64.49 745.63 65.87 747.22 67.94 750.88 74.61 748.81 77.22 743.78 75.49 742.98 75.74 741.11 81.84 739.69 83.31 737.38 81.72 734.56 78.55 730.42 78.68 732.26 84.3 732.02 88.26 730.98 90.96 725.52 93.15 720.64 94.27 718.87 96.96 719.54 98.64 723.49 100.73 722.57 101.46 721.72 104.86 718.99 106.85 714.42 111.23 711.91 112.25 706.17 107.62 703.78 106.22 701.33 108.52 697.84 109.92 695.6 109.83 693.29 108.74 684.65 100.68 700.88 170.85 702.56 172.73 703.6 176.25 706.73 179.97 709.26 183.66 711.02 190.77 712.32 192.95 719.31 199.31 720.36 203.1 722.91 202.7 728.05 205.07 731.16 205.68 732.84 207.51 736.18 206.37 739.27 208.56 741.67 207.76 744.03 208.68 750.46 207.69 750.07 209.49 751.81 214.54 751.53 217.35 748.7 218.27 745.98 218.38 740.91 219.44 733.56 218.58 732.26 219.24 730.67 222.44 728.61 224.25 728.01 226.52 725.37 227.6 721.61 227.45 717.06 231.26 713.26 231.18 711.07 237.12 711.92 240.47 711.47 243.89 712.71 245.96 712.95 248.69 754.83 279.35 748.77 280.33 745.92 287.03 743.01 290.88 736.29 292.83 731.7 294.68 725.92 300.35 743.43 328.03 748.12 366.54 750.19 366.97 750.85 369.47 752.75 371.93 755.82 373.76 760.24 371.9 761.56 368.55 770.27 368.68 771.92 368.96 774.32 370.76 776.28 374.94 778.53 376.29 784.8 375.03 787.58 377.66 790.35 376.96 793.22 374.88 799 373.94 798.93 380.88 797.56 384.12 798.07 387 797.05 389.96 794.77 392.38 787.19 397.53 781.76 402.35 779.45 407.01 779.73 409.92 777.03 411.6 777.24 415.08 775.22 416.43 774.7 417.94 772.37 420.3 772.9 423.72 771.63 430.22 770.04 443.1 767.81 446.97 767.73 449.49 768.5 453.56 767.69 455.64 768.14 461.46 769.38 465.99 775.98 497.16 768.66 514.52 737.77 585.25 735 591.67 729.22 588.47 722.23 585.9 715.51 584.25 711.81 584.36 709.98 583.62 705.24 583.96 695.58 582.23 683.93 584 675.51 587.55 673.19 587.5 668.14 589.21 665.36 589.58 663.19 588.87 659.08 588.77 657.46 590.51 651.65 587.22 643.73 593.03 638.42 595.36 591.54 614.73 576.5 624.64 570.1 629.07 540.62 648.65 537.48 649 531.96 647.42 529.23 644.75 525.67 643.47 522.12 640.41 517.28 640.99 514.73 639.87 514.84 638.69 512.25 636.94 512.77 634.82 507.72 629.82 501.32 625.63 438.76 625.64 376.05 618.99 378.77 614.72 378.56 613.32 376.29 612.87 373.12 613.34 370.63 616.12 368.72 616.33 366.95 614.18 367.39 611.77 369.27 611.04 369.21 608.85 365.32 607.4 364.74 604.49 364.33 597.1 365.86 594.59 365.64 592.11 363.23 590.45 362.88 587.59 361.53 586.22 362.53 583.51 359.75 582.15 359.31 580.49 360.77 578.17 334.8 578.22 284.02 577.86 288.05 558.62 261.97 558.49 259.91 559.92 255.17 561.45 250.98 562.34 246.32 565.92 243.52 566.17 240.74 568.09 236.8 567.95 230.08 565.49 228.35 564.09 224.95 564.14 216.79 563.53 212.17 564.41 209.14 562.61 206.02 561.53 202.76 561.5 197.49 559.81 191.18 561.26 193.75 557.29 195.11 549.82 194.89 547.97 189.59 536.09 187.17 532.53 190.1 531.24 193.17 528.9 200.17 529.29 202.68 528.3 203.62 523.89 201.01 519.53 203.83 516.24 204.6 510.43 201.51 510.94 200.1 508.6 202.95 507.99 200.78 503.51 200.6 500.21 140.21 484.12 135.91 488.18 134.21 490.66 131.74 490.28 127.47 492.11 124.75 492.44 121.13 491.52 117.31 493.16 114.39 493.65 102.13 493.68 99.15 494.28 95.04 493.68 92.67 492.43 88.62 493.47 86.53 496.08 81.83 499.02 74.93 499.89 71.09 501.59 68.19 501.01 61.26 500.94 58.74 503.6 54.41 506.8 48.72 508.42 46.32 510.74 40.2 504.73 30.65 495.94 29.43 489.86 29.79 487.38 31.24 484.14 33.83 482.47 35.69 482.37 40.64 484.2 51.46 486.62 53.21 487.38 56.72 487.52 60.78 486.52 66.14 480.27 67.07 476.08 67.01 472.69 66.08 469.17 63.98 466.35 46.69 459.79 42.5 457.52 38.91 454.66 37.64 451.31 38.17 448.35 41.69 437.74 42.5 433.96 42.41 430.41 39.66 427.74 35.14 426.64 23.59 422.26 19.17 417.73 14.55 411.26 11.3 410.06 6.56 410.05 3.76 409.14 1.17 405.96 1 403.77 4.49 400.67 11.1 398.09 13.95 396.59 17.93 393.55 21.86 391.63 27.48 391.41 32.7 394.09 41.27 395.59 39.66 391.04 39.52 388.53 40.88 385.33 43.96 380.95 44.65 378.72 44.42 376.01 43.28 374.18 38.42 372.92 36.03 369.46 34.74 364.14 35.12 358.28 36.27 356.11 39.51 354.01 46.54 352.8 48.91 352.89 54.52 355.16 57.45 358.83 60.61 364.19 65.87 370.06 70.34 373.37 72.35 374.19 76.27 373.84 78.64 371.82 79.14 369.86 77.93 364.7 76.92 356.8 80.65 353.02 81.54 350.16 79.58 346.18 80.83 343.65 80.22 339.48 77.2 333.74 74.87 331.11 71.79 328.86 69.26 328.01 65.71 325.94 61.69 324.5 60.36 323.06 57.95 315.92 57.73 313.12 54.13 308.63 52 306.9 46.32 299.59 44.9 294.79 45.27 287.11 47.52 285.07 51.19 287.84 53.12 290.02 59.06 292.65 62.93 293.33 68.89 293 73.02 295.05 74.46 296.89 79.13 298.56 86.15 299.57 90.43 298.64 92.2 297.62 92.65 295.81 88.58 292.97 81.45 288.73 78.81 286.46 77.34 283.86 77.15 280.51 78.59 276.74 81.21 273.56 91.4 272.19 95.75 270.58 101.25 269.66 104.08 269.85 106.96 268.61 109.63 266.4 110.99 264.11 110.32 260.34 105.27 255.28 102.72 251.97 101.69 249.5 103.61 246.67 112.77 243.63 115.15 238.75 117.95 236.62 120.28 233.19 124.59 231.53 123.65 229.76 123.79 227.31 125.25 226.39 128.38 226.67 132.61 225.55 137.51 227.71 142.31 227.69 143.89 229.13 141.7 232.64 136.78 237.19 135.6 239.35 134.91 243.23 138.18 244.72 142.77 243.09 151.39 237.94 154.67 236.68 158.58 236.3 161.41 240.69 164.78 244.2 166.39 243.64 171.4 239.23 175.71 237.38 180.67 233.29 183.33 231.83 186.87 228.34 186.59 224.61 185.41 223.17 174.87 219.93 171.62 218.05 168 217.52 164.63 218.45 159.95 218.9 153.1 218.64 148.54 217.63 145.96 214.64 144.96 211.15 147.95 208.61 150.91 207.45 153.9 205.27 161.86 201.58 166.47 201.13 171.81 199.19 173.24 198.22 178.42 196.7 180.55 194.61 187.65 191.73 190.29 189.24 188.91 186.23 186.62 184.54 183.66 178.89 185.15 164.51 188.13 160.06 190.25 159.19 198.75 161.7 200.55 162.51 201.8 164.35 201.87 169.39 202.98 176.55 204.35 179.01 205.48 183.01 208.45 188.45 210.27 190.3 215.3 191.29 216.81 188.89 215.76 184.79 213.89 180.81 212.68 172.87 210.66 167.33 210.37 165.43 211.75 161.77 213.56 159.09 216.22 160.39 217.26 165.41 218.81 166.54 224.79 165.95 230.59 161.42 236.03 158.75 241.55 161.29 245.98 161.68 248.4 160.12 248.17 157.27 245.77 151.79 235.75 148.64 229.8 148.1 228.06 146.31 225.45 140.92 222.97 137.06 222.27 134.43 223.16 130.44 224.12 129.23 224.81 125.79 223.41 121.91 217.6 118.11 214 116.86 206.37 117.44 204.38 115.06 201.78 110.35 202.82 107.37 204.58 106.74 211.6 107.03 213.31 105.57 213.94 99.81 214.75 99.28 223.16 100.38 226.7 99.93 229.39 98.9 234.36 97.92 236.32 95.51 241.03 94.97 240.79 93.5 234.43 89.64 232.6 87.41 233.67 82 234.77 78.51 234.74 73.95 230.26 69.79 230.6 66.3 230.17 61.21 230.77 57.89 228.06 53.59 228.98 50.94 230.71 49.63 235.9 49.63 241.54 49 246.74 52.97 250.75 54.65 253.52 57.57 254.39 60.7 258.14 62.13 259.73 61.68 260.67 59.5 264.73 53.26 264.71 49.91 267.37 47.18 267.78 45.92 266.64 41.84 270.96 40 277.53 36.05 281.37 34.81 286.44 32.19 288.51 31.78 291.27 32.4 294.94 35.26 300.06 37.66 304 35.72 305.21 35.95 309.15 39.2 315.95 39.46 318.12 41.5 320.81 41.9 326.87 41.02 328.88 40.17 331.75 37.23 334.59 35.42 335.5 31.78 333.46 26.54 330.47 24.87 330.13 22.52 328.25 18.88 325.77 15.98 326.17 11.56 329.02 8.34 331.15 9.55 332.68 11.6 334.67 12.67 342.25 14.19 344.89 15.41 347.93 15.13 348.91 16.12 349.54 19.7 350.85 21.37 354.17 22.5 357.24 25.05 358.57 25.02 360.07 19.25 362 15.31 362.63 11.55 364.1 11.25 373.03 18.06 374.52 22.92 376.58 26.21 380.21 29.07 382.54 28.14 383.29 23.22 381.89 18.28 382.21 13.89 383.94 10.51 386.42 10.53 387.42 6.55 388.45 5.48 392.52 6.04 398.22 9.21 401.33 9.47 402.92 8.27 405.17 4.31 408.18 3.66 411.08 5.15 414.21 3.53 415.58 1.81 418.63 2.61 425.24 6.62 427.26 7.34 430.49 10.01 431.09 11.59 433.75 13.49 438.74 15.85 445.89 17.16 450.31 14.02 454.11 17.15 459.26 16.02 466.75 19.98 468.18 22.85 467.9 24.16 470.72 26.2 473.88 27.63 476.07 24.11 478.76 23.79 483.28 21.63 490.35 21.56 491.54 20.16 495.73 20.06 499.77 18.79 502.34 16.91 505.42 16.43 511.76 14.5 514.59 14.37 518.06 15.67 520.78 15.95 523.65 14.78 526.03 15.98 529.95 14.71 535.61 15.13 538.75 16.12 540.06 19.62 543.57 21.18 581.54 1 587.69 3.93 596.55 4.71 597.87 6.52 601.81 7.71 606.64 10.21 608.99 9.28 610.67 9.63 612.23 12.27 616.42 13.11 618.41 12.21 627.58 12.8 629.5 12.59 632.57 13.82 635.69 20.01 640.22 23.19 646.44 25.26 649.48 26.66 651.99 26.25 656.04 27.1 659.7 29.4 660.79 27.78 662.95 28.74 670.85 28.32 672.83 30.89 678.24 34.8 679.08 36.08 682.78 36.63 683.81 37.47 731.62 31.4 Z"/>
</g>
</svg>