<?xml version="1.0"?>
<svg xmlns="http://www.w3.org/2000/svg" version="1.2" baseProfile="tiny" width="800" height="629" viewBox="0 0 800 629" stroke-linecap="round" stroke-linejoin="round">
<g id="4204905">
<path d="M 730.68 126.61 727.7 129.59 723.94 131.7 717.83 134.75 712.72 136.13 708.42 136.35 699.44 136.41 686.16 135.51 682.67 135.03 675.13 133.35 672.17 132.21 667.66 129.33 664.06 125.17 659.29 120.51 654.86 118.13 649.83 117.71 647.86 118.1 645.78 119.57 645.49 122.11 648.39 128.5 652.13 132.45 656.54 138.15 660.67 141.84 666.55 146.42 669.82 148.15 675.42 154.95 677.57 157.16 683.72 166.63 687.31 171.5 691.96 176.99 695.61 180.91 698.49 183.55 700.9 185.23 703.12 185.89 708.9 186.45 717.99 186.4 724.42 184.83 727.29 184.67 731.79 183.7 742.79 179.66 749.08 177.88 759.23 175.92 768.34 176.13 770.99 176.95 779.58 178.93 783.46 180.23 785.39 181.57 787.03 184.51 786.75 187.78 785.79 190.91 783.84 194.72 781.61 197.62 777.62 201.91 773.26 207.6 769.98 212.25 768.13 215.8 761.75 232.73 760.73 239.9 761.1 245.35 761.68 247.26 765.39 254.06 766.68 259 770.37 267.11 772.37 272.87 772.73 276.15 771.71 279.07 769.33 280.28 763.54 280.87 758.94 279.98 748.73 275.53 740.16 271.06 732.69 267.95 728.09 267.31 721.73 267.64 713.62 267.76 707.77 269.3 699.48 269.85 694.48 270.42 691.82 271.16 684.31 276.08 680.63 279.18 678.43 282.9 677.72 286.99 670.51 297.73 668.01 301.83 664.17 310.24 660.45 320.04 659.34 324.63 659.25 326.58 660.89 330.8 663.05 333.55 667.81 338.25 670.04 339.59 677.52 342.8 691.93 348.57 694.68 350.34 696.82 352.34 701.18 357.2 706.66 362.3 709.73 366.08 710.53 368.9 709.27 372.93 704.87 378.99 698.05 385.81 695.59 387.35 690.76 389.76 688.78 392.47 688.51 401.8 687.26 409.23 685.76 412.94 684.48 414.08 680.21 415.7 676.43 416.14 667.26 416.11 661.43 414.81 653.01 411.93 648.22 410.72 638.73 409.04 635.31 409.16 634.09 409.96 632.64 412.37 632.74 415.1 633.88 418.01 637.91 425.66 641.63 430.85 648.94 437.07 653.25 438.62 660.25 440 663.11 441.11 673.03 444.37 680.18 445.95 684.73 448.03 687.67 450.11 692.1 456.99 694.38 461.48 695.84 468.99 693.79 481.82 691.61 488.91 689.2 494.79 686.7 503.19 686.15 506.68 686.42 511.03 687.87 515.44 688.46 519.72 688.36 523.3 687.48 525.95 683.72 528.77 680.75 532.35 677.49 538.79 677.16 541.73 679.64 544.02 688.65 546.79 698.65 548.84 701.17 549.05 710.95 549.13 713.92 549.57 718.37 551.2 722.61 553.51 738.89 564.54 744.94 568.3 748.25 571.2 750.03 573.59 751.12 578.58 750.59 581.5 748.87 584.25 744.72 589.16 739.53 593.73 733.69 596.67 729.87 597.44 723.56 597.51 720.35 597.12 713.11 595.4 704.99 592.85 698.5 591.34 695.71 591.29 688.5 592.78 685.45 593.93 682.44 596.38 679.63 600.76 677.66 607.09 677.58 611.11 678.04 615.93 677.49 628 676.26 627.21 673.67 622 668.43 618.31 666.81 617.87 664.1 618.38 659.75 619.96 653.1 624.42 649.28 624.2 648.79 622.26 650.83 618.8 650.67 616.3 648.79 613.02 645.63 612.48 642.14 611.39 640.58 611.79 638.64 614.25 637.22 615.09 635.21 614.95 628.49 613.65 627.38 611.26 625.31 609.32 625.3 600.5 628.08 599.43 631.53 593.64 631.04 590.84 628.52 590.8 625.73 592.91 623.75 592.58 621.79 591.43 617.42 591.55 614.34 589.89 613.77 588 608.27 587.57 605.06 588.92 603.35 589.14 601.54 590.6 598.68 591.22 596.31 594.91 594.41 596.38 591.84 596.4 584.23 594.59 581.32 594.71 578.57 595.97 574.82 596.98 571.26 596.34 570.61 599.58 569.6 599.61 569.47 595.55 565.15 593.2 561.84 592.22 555.88 592.11 552.16 595.48 547.23 599.22 542.98 600.89 541.4 600.98 538.25 598.8 534.65 596.85 531.82 596.39 529.52 598.51 527.81 599.44 525.14 598.94 523.56 600.89 522.11 601.39 517.36 601.56 515.12 600.75 510.12 600.77 507.79 599.83 505.98 599.89 501.97 599.1 498.37 596.43 496.27 593.99 492.23 593.87 488.34 592.35 484.86 591.39 483.55 591.48 479.91 593.16 477.28 595.3 475.34 595.66 471.99 595.18 469.16 596.09 464.87 595.85 463.69 597.27 460.11 598.82 457.91 598.8 453.7 597.91 452.47 597.22 449.12 596.93 442.81 598.31 438.51 596.98 431.75 596.89 430.09 595.33 425.97 594.91 422.96 593.94 420.36 594.33 414.67 593.11 412.6 592.02 406.27 591.38 405.18 590.56 401.82 589.78 395.7 589.14 391.95 587.3 390.2 587.44 386.47 585.93 381.83 585.15 379.83 583.64 377.97 581.23 371.93 577.66 369.77 577.3 370.05 574.88 373.4 569.83 368.25 568.78 365.87 568.61 365.87 570.3 363.95 570.83 359.25 573.33 357.4 574.67 354.96 574.48 350.97 574.97 348.74 575.75 344.1 575.78 341.39 576.56 338.59 576.5 336.91 574.8 334.75 573.52 331.58 573.73 329.83 573.05 327 575.19 323.97 575.01 322.47 573.94 318.46 575.09 316.59 577.56 312.04 579.37 311.01 581.83 310.99 583.53 309.21 585.05 305.91 584.25 302.38 584.57 301.93 586.7 300.45 588.17 297.43 588.52 296.1 589.27 290.18 589.97 288.29 592.07 287.7 594.7 286.41 596.51 281.37 597.5 277.18 596.91 273.35 599.94 270.61 601.29 268.12 601.71 266.09 602.99 264.14 601.64 263.19 602.82 258.68 605 256.61 605.63 255.15 607.48 252.63 607.23 246.05 607.68 244.41 607.49 235.33 581.03 234.5 579.83 229.7 575.23 227.77 573.91 222.23 568.78 217.94 566.3 215.28 565.56 210.85 565.48 206.75 562.97 203.5 560.03 200.3 558.67 195.42 554.75 191.61 554.96 187.54 557.18 184.93 555.37 178.03 548.77 177.13 547.3 175.83 539.45 175.74 536.97 174.86 534.08 173.42 533.65 171.33 535.21 166.04 538.2 163.08 539.3 159.49 540.08 156.46 540.21 153.44 538.44 152.21 534.51 155.43 527.5 159.33 525.99 154.59 520.95 154.07 519.06 154.25 516.31 152.03 513.87 149.05 512.84 148.22 510.84 146.63 509.17 146.32 507.81 144.78 506.79 142.77 503.6 140.67 502.06 138.63 499.57 138.33 497.35 135.49 491.71 133.99 489.85 130.61 487.58 128.54 482.71 128.5 481.09 127.07 478.49 126.97 476.47 122.24 472.47 119.81 471.57 114.85 468.43 113.97 467.02 113.17 463.44 110.69 457.38 108.16 455.2 107.18 453.73 106.43 450.3 104.58 446.84 102.06 445.57 101.86 443.8 102.96 441.17 106.49 435.84 106.76 434.09 109.1 438.82 164.89 427.04 164.62 424.88 163.31 421.24 164.34 417.6 166.78 417.35 168.84 418.65 175.58 418.19 178.87 416.56 182.03 416.21 184.16 416.49 187.67 416 190.83 414.56 189.7 410.53 186.83 409.99 184.81 411.46 182.93 410.9 177.39 412.97 176.1 412.86 175.81 410.53 177.11 407.81 179.17 404.76 180.12 400.18 181.24 398.54 181.88 393.23 180.75 392.58 173.93 395.02 171.16 394.84 170.38 393.9 170.91 390.86 170.35 389.6 169.73 383.8 173.76 378.76 175.16 377.8 176.75 378.02 177.78 380.65 179.85 381.06 184.28 379.4 185.48 377.21 187.3 375.93 187.49 373.09 186.46 369.47 185 367.47 185.06 363.78 190.05 364.34 193.41 362.53 194.22 360.38 194.25 357.69 193.27 355.81 190.72 354.47 186.39 354.08 185.02 352.87 180.46 351.87 178.82 352.37 175.19 354.94 173.72 357.36 173.01 361.9 172.03 362.29 171.05 359.24 169.8 357.71 167.05 357.2 164.68 355.87 165.9 353.97 169.6 349.6 171.66 346.17 172.07 344.13 169.74 340.9 168.32 341.32 166.39 340.17 168.56 337.41 169.51 333.62 168.74 331.21 169.5 329.12 169.27 326.93 165.27 323.58 162.2 324.13 162.34 325.28 164.89 327.79 161.75 333.38 160.08 333.59 157.95 329.62 155.82 327.39 153.75 326.86 152.75 328.74 148.81 328.99 149.03 327.58 151.38 325.24 151.64 322.63 150.21 320.71 147.17 320.76 142.3 319.87 142.82 318.13 140.41 317.41 138.61 316.05 141.34 315.39 143.85 312.66 143.68 304.27 142.86 302.6 140.62 301.82 140.83 299.14 142.91 296.59 144.71 295.68 146.83 296.12 147.69 297.72 148.98 297.9 151.07 300.35 156.17 303.77 158.34 304.77 162.03 307.32 162.7 311.31 164.21 311.53 171.28 317.72 172.45 316.34 174.01 311.88 175.17 310.99 178.41 311.18 179.93 310.33 179.95 308.8 174.31 303.54 172.61 303.67 171.09 302.78 169.04 300.55 167.18 300.48 166.57 297.59 167.26 296.17 173.06 294.41 174.97 298.29 177.86 299.34 179.13 298.37 181.32 298.26 182.72 297.3 182.27 293.87 185.48 290.81 187.43 289.88 188.36 288.03 187.85 284.88 189.43 279.59 189.11 277.78 190.98 274.03 191.74 270.72 190.13 269.88 189.78 268.05 188.13 267.14 184.89 267.16 184.11 266.56 185.09 262.17 181.97 260.85 179.66 258.87 175.02 259.03 172.43 257.94 171.2 255.89 172.74 254.52 176.13 252.7 178.34 250.85 179.24 249.01 181.53 246.44 182.96 243.76 186.78 241.07 188.04 241.07 195.15 245.73 196.34 247.87 196.87 250.46 198.01 250.77 202.79 247.85 202.55 245.29 200.58 243 199.68 241.08 201.03 238.99 205.4 233.91 204.78 232.24 202.95 230.24 204.7 226.88 206.89 225.44 207.88 223.66 207.51 222.32 210.13 221.85 173.7 212.83 172.2 213.18 169.1 210.93 166.7 209.83 163.66 209.83 161.5 208.19 154.88 207.57 152.16 206.44 146.49 204.66 143.99 204.26 138.23 202.68 136.18 202.78 133.01 201.6 130.02 201.52 128.98 202.5 126.42 202.2 121.59 198.96 118.69 198.72 116.34 196.75 113.85 195.4 111.11 195.67 107.47 194.84 103.01 194.29 99.92 193.35 95.64 192.97 87.09 190.77 79.92 190.37 78.03 189.56 74.71 189.07 70.5 186.95 61.92 185.29 58.61 185.11 52.45 182.56 46.14 184.28 44.31 184.19 35.28 180.94 29.3 178.39 26.14 178.63 24.53 177.12 24.85 174.66 24.17 172.85 20.53 172.79 16.25 170.62 12.79 169.26 10.35 167.04 5.7 167.48 3.25 167.17 1 165.04 1.94 162.49 1.62 159.54 2.06 155.11 3.3 151.35 5.49 147.44 10.27 142.42 11.66 140.5 11.56 138.26 9.72 137.36 6.65 137.02 5.93 133.55 6.86 130.25 6.66 126.45 6.07 123.34 7.35 120.59 11.92 117.88 14.63 116.6 17.1 118.54 20.69 124.52 23.21 126.53 26.13 127.62 32.01 128.99 34.3 129.8 39.31 132.35 42.58 132.62 45.59 131.73 50.07 128.68 50.74 127.21 50.46 125.25 49.17 123.68 45.51 122.21 41.45 120 39.76 116.19 40.62 113.71 42.22 113.17 47.32 115.61 51.28 117.07 54.41 119.57 55.88 120.26 58.48 119.77 59.87 118.28 61.68 114.54 65.52 110.66 67.16 108.44 98.94 108.28 136.28 108.54 185.31 108.78 224.89 109.07 259.43 109.22 337.99 101.3 344.04 101.9 346.39 101.14 347.66 99.63 347.32 98.52 343.14 91.43 340.99 82.91 340.52 78.56 340.81 77.02 344.62 70.57 346.16 66.78 350.11 58.71 353.28 55.45 358.23 45.96 358.25 43.84 356.65 38.02 349.21 18.33 471.81 13.6 544.54 10.98 653.11 6.19 753.27 1 754.08 6.67 754.35 11.75 755.34 21.26 756.33 25.57 758.37 32.35 761.67 40.95 763.35 44.17 767.2 49.01 769.75 50.53 771.84 51.03 776.04 50.62 779.68 48.52 781.79 46.34 786.82 38.05 789.25 36.51 794.43 35.08 796.61 35.09 798.34 36.13 799 40.52 798.64 44.65 797.74 50.8 797.14 57.47 796.48 61.28 793.53 73.52 788.89 76.4 786.07 76.68 783.18 76.1 776.42 73.52 772.71 70.18 766.54 65.96 763.92 63.9 756.41 59.49 751.05 58.02 746.62 57.48 743.62 57.55 740.06 58.5 735.88 61.18 733.19 63.62 730.04 65.25 727.44 69.7 725.65 74.53 724.39 79.26 723.82 84.4 723.93 89.11 725.42 93.84 729.84 100.7 730.58 103.69 734.76 109.98 736 115.4 736.15 119.45 735.21 122.96 733.77 124.8 730.68 126.61 Z"/>
</g>
</svg>