<?xml version="1.0"?>
<svg xmlns="http://www.w3.org/2000/svg" version="1.2" baseProfile="tiny" width="800" height="447" viewBox="0 0 800 447" stroke-linecap="round" stroke-linejoin="round">
<g id="4204301">
<path d="M 657.9 28.22 657.64 29.45 659.4 31.2 659.92 31.26 661.37 30.66 662.8 31.89 662.87 32.41 661.99 33.33 662.02 33.77 663.2 34.29 664.2 35.5 666.81 36.24 669.43 36.15 671.22 37.47 671.78 37.52 672.52 36.33 673.38 35.83 674.8 36.17 674.48 38.37 674.01 39.15 673.1 39.52 670.25 39.15 669.8 38.57 669.14 38.96 669.13 39.93 669.65 41.61 669.51 43.82 669.75 44.5 669.85 48.18 670.52 49.71 671.39 50.22 672.76 51.74 673.93 52.42 674.52 53.22 675.4 53.26 677.22 54.12 678.99 55.81 681.22 56.59 681.3 57.76 681.96 58.27 682.02 58.88 684.11 58.51 685.35 59.16 686.48 59.25 688.4 60.18 691.66 60.85 692.9 60.88 694.71 60.27 698.78 60.89 700.16 60.92 701.48 60.27 702.69 60.84 704.61 60.94 705.63 61.45 707.91 62.22 710.03 63.13 711.35 63.18 713.19 62.56 713.77 62.58 715.5 63.21 716.54 63.12 718.06 63.39 718.88 63.81 719.52 64.79 720.42 65.59 721.53 66.13 724.61 66.64 729.33 69.1 730.21 69.28 732.56 69.01 733.65 68.62 735.57 68.43 737.39 69.06 738.68 68.46 740.15 67.1 741.47 67.07 743.58 67.91 743.99 69.3 745.07 70.62 745.17 71.7 743.68 73.72 743.71 74.47 744.33 75.46 743.62 77.7 743.81 79.66 742.3 82.21 741.79 83.5 740.04 84.74 739.69 85.94 740.22 86.95 739.62 87.21 737.65 86.92 736.16 87.59 735.89 88.43 737.15 90.18 737.19 90.78 736.54 91.61 736.77 92.68 735.89 93.56 736.18 94.6 736.1 96.55 737 98.03 737.91 98.04 738.95 98.45 739.15 99.23 739.88 100.27 740.24 102.7 740.8 103.56 740.52 104.55 739.67 105.84 740.29 106.46 740.65 107.68 742.47 108.78 742.54 109.39 741.27 110.23 741.47 111.39 743.15 112 743.22 113.02 743.78 113.42 743.77 114.4 744.56 115.11 744.6 116.64 746.4 118.91 747.49 119.7 747.5 120.67 746.99 121.09 746.85 122.58 747.19 123.62 747.85 124.56 748.89 125.12 749.64 125.88 750.42 127.24 751.89 128.57 752.8 130.25 752.62 131.28 753.2 132.11 755.48 133.54 755.12 134.69 755.66 135.85 755.39 136.75 756.23 137.13 755.96 138.7 757.11 139.99 756.94 140.9 756.38 141.17 757.11 142.56 758.13 142.8 758.14 143.4 756.49 144.49 755.96 145.32 756.74 146 756.37 146.55 756.55 147.46 754.78 148.46 754.09 148.34 752.88 147.33 751.62 147.1 751.36 147.53 751.87 149.16 751.6 150.35 752.44 151.19 752.27 152.2 751.51 153.54 752.41 154.94 753.4 157.39 753.27 158.47 751.93 159.76 751.69 160.4 751.78 161.86 753.35 162.98 752.54 163.98 750.52 163.73 751.31 166.3 751.96 166.45 752.98 165.87 754.34 166.23 754.58 167.77 756.23 169.33 756.01 170.15 754.77 171 754.29 172.1 754.35 173.25 755.26 174.41 757.22 174.38 755.89 176.87 755.6 177.95 756.09 178.84 757.23 179.75 758.58 180.48 759.29 181.43 759.53 183.44 760.17 186.42 760.21 189.28 759.62 190.6 759.65 191.14 759.01 192.45 758.24 193.3 757.67 193.43 756.48 192.58 755.81 191.7 753.96 190.02 752.01 189.27 751.09 189.35 747.59 190.72 746.2 191.79 745.53 192.72 744.39 193.61 743.03 194.22 741.9 193.86 740.53 192.1 739.88 190.05 739.05 189.45 738.08 189.21 737.04 189.8 735.75 191.64 735.31 192.97 735.37 194.76 735.72 196.17 735.75 197.74 735.15 198.82 734.11 199.64 732.89 199.67 731.69 200.5 729.64 201.52 728.86 201.57 726.33 200.83 725.14 201.68 725.28 203.52 726.09 205.1 726.7 205.72 728.62 206.05 731.09 205.72 732.56 205.78 733.33 207.03 733.81 208.88 733.29 211.18 732.94 211.61 731.83 211.56 729.65 212.27 727.23 211.97 725.56 211.03 723.68 209.46 722.55 208.34 720.53 206.82 717.45 205.16 715.42 204.52 712.84 203.52 709.43 203.34 707.47 203.57 706.5 204.32 706.42 204.75 707.17 206.87 707.83 207.89 710.2 210.12 710.72 211.94 710.33 213.42 709.89 214.13 709.97 215.1 711 215.76 712.41 215.71 714.39 215.98 715.37 216.37 716.28 217.17 716.78 218.26 716.38 219.48 716.13 221.29 715.69 222.4 712.39 225.04 711.53 225.5 710.94 226.3 712.04 226.99 712.72 227.82 713.82 228.34 714.98 229.22 715.2 230.32 714.5 232.04 714.51 232.95 715.69 234.16 717.43 236.63 718.38 235.39 718.16 233.12 719.28 232.89 722.27 233.71 725.24 234.72 725.89 235.97 725.83 237.86 726.29 240.04 727.69 240.68 728.52 240.48 729.58 239.48 732.09 237.65 733.25 237.15 735.66 236.76 737.77 236.78 738.95 237.29 740.98 237.45 741.65 236.52 740.99 235.09 741.63 233.5 742.82 231.59 743.99 230.1 744.89 229.76 746.5 230.4 747.45 231.01 748.28 230.95 749.16 229.69 750.89 230.03 751.35 231.33 751.48 232.66 752.31 233.54 753.31 233.96 755.7 234.53 756.72 234.91 757.71 235.63 758.42 236.72 759.29 239.07 760.94 240.66 761.98 240.46 763.43 239.41 765.54 238.46 767.91 236.97 768.97 237.15 768.97 239.65 769.48 240.76 771.07 241.41 772.57 241.66 775.09 241.76 777.26 241.25 778.7 239.94 779.27 239.91 781.52 240.87 785.2 242.17 787.37 242.74 787.25 244.49 787.53 245.72 788.7 247.98 788.46 250.08 789.02 250.78 790.46 251.66 792.29 252.19 793.57 252.16 795.38 251.66 795.94 252.21 795.76 253.36 797.18 255.94 797.23 258.98 797.75 261.53 797.89 262.91 798.45 264.83 799 266 798.29 268.23 797.26 269.55 796.07 272.72 795.75 274.2 796.01 275.93 795.44 276.55 792.48 278.26 791.92 278.78 790.06 279.35 787.97 281.17 787.45 282.14 787.24 284.13 786.78 285.39 785.75 286.98 784.29 288.87 783.12 289.8 781.08 290.84 780.44 291.34 780.05 292.44 780.17 293.61 780.8 295.54 780.67 297.63 780.77 300 782.22 303.33 782.18 304.35 775.68 296.61 775.22 295.49 773.72 295.1 768.78 292.39 767.67 292.16 766.99 292.41 765.96 293.34 764.21 293.98 761.14 295.77 760.77 297.35 759.76 298.46 759.38 300.6 758.57 300.89 757.01 302.6 755.76 302.9 755.23 303.47 753.76 303.73 753.05 304.59 752.6 305.86 750.61 306.76 748.73 308.88 747.38 308.69 746.63 310.17 744.86 311.83 743.13 312.76 741.26 313.99 740.87 314.65 740.38 317.11 739.59 317.84 738.72 318.03 737.66 317.6 737.1 318.36 736.04 319.02 735.22 319.97 734.6 321.65 732.59 322.4 729.93 322.62 729.21 323.25 727.07 324.06 724.67 324.48 723.16 325.19 722.98 325.66 723.83 326.84 723.95 327.9 723.47 328.6 722.55 328.91 721.34 328.25 719.44 328.18 717.51 327.91 716.36 328.09 715.48 328.84 715.05 330.9 713.84 331.58 713.48 332.22 712.35 332.01 711.31 330.92 709.66 329.62 708.82 329.27 707.42 330.76 707.45 331.46 708.55 332.98 708.15 334.16 707.2 334.66 706.61 335.56 707.29 336.07 706.87 336.95 704.08 336.9 703.11 337.37 703.64 339.38 703.58 339.99 702.11 339.72 700.69 338.85 699.02 338.96 698.35 339.45 697.63 341.38 697.55 343.77 695.74 345.79 695.2 345.98 694.01 345.16 692.97 344.88 692.63 346.64 692.72 348.45 693.06 349.94 692.04 350.5 690.73 349.94 689.34 350.32 687.81 350.19 686.26 350.28 684.22 350 682.1 349.23 680.96 348.47 679.63 346.8 679.07 344.29 677.29 344 672.76 344.96 671.78 344.75 670.59 343.95 670.32 342.34 670.72 340.93 670.48 340.17 669.02 339.34 668.21 338.1 666.95 336.96 665.67 335.46 664.01 334.5 662.26 333.93 658.66 333.57 655.34 333.87 653.77 333.66 653.11 332.88 652.47 331.04 652.44 329.81 653.68 327.56 654.9 326.27 654.79 325.73 653.76 324.93 651.64 324.32 649.7 324.88 648.29 324.97 646.85 324.74 646.04 323.86 644.2 321.44 642.58 320.92 641.96 321.22 640.7 322.48 638.98 323.39 636.1 322.23 633.59 320.75 633.15 320.06 631.65 319.55 631.35 320.22 631.99 322.62 631.89 324.04 631.32 324.79 630.37 324.72 629.16 324.14 626.83 323.67 625.71 323.68 621.61 324.54 620.2 324.19 618.57 322.9 616.91 320.33 616.81 319.74 615.79 319.14 614.2 319.32 611.97 319.06 610.99 319.28 610.01 320.39 609.67 322.14 610.36 323.56 610.18 325.64 609.51 326.53 608.56 328.52 607.78 329.16 605.81 328.58 604.75 327.79 604.45 327.13 603.04 325.22 599.16 323.93 598 324.31 594.97 327.27 592.63 328.93 591.45 329.97 591.12 330.87 592.78 333.46 594.39 334.67 595.68 334.99 598.7 334.95 599.35 335.11 600.46 336.5 601.61 336.97 601.82 337.57 601.57 339.93 600.93 340.41 599.88 342.28 599.4 344.1 596.19 345.45 594.08 345.82 593.1 346.56 592.57 349 592.69 351.07 593.04 351.87 592.8 353.54 592.43 354.68 592.17 356.44 591.62 357.68 590.88 358.54 589.03 359.33 586.92 358.59 584.15 356.89 582.27 355.27 580.89 355.09 579.87 355.45 578.43 358.65 574.94 362.32 573.15 363.55 571.08 364.08 569.29 364.07 567.57 363.81 565.37 363.19 564.14 362.54 559.7 361.81 558.46 361.47 557.7 361.8 557.01 363.54 557.13 364.19 558.59 365.25 559.57 365.71 560.44 367.24 560.96 369.15 560.84 370.58 560.39 371.43 555.15 374.45 553.96 375.69 552.71 376.41 551.05 376.96 550.23 376.98 547.31 374.66 546.24 372.73 545.52 372.44 544 372.4 540.51 370.44 539.28 370.12 537.53 370.67 535.83 371.72 533.67 372.73 531.9 374.29 531.26 375.41 530.85 377.63 530.2 378.67 528.38 380.44 527.66 381.49 527.33 382.54 527.55 383.45 528.4 384.26 531.65 385.58 534.42 388.1 537.24 389.66 538.64 391.18 539.79 393.04 541.46 394.48 542.34 396.39 542.57 398.62 542.41 399.83 541.69 400.6 540.01 400.8 538.23 400.57 536.87 400.65 536.09 401 535.08 402.11 533.53 402.97 532.47 402.84 531.45 402.08 528.87 399 527.01 397.84 523.57 396.48 522.33 395.81 520.59 394.34 519.9 393.34 519.32 391.7 518.95 389.74 518.39 387.88 517.04 385.71 516.21 385.17 514.69 385.48 513.87 386.47 512.78 389.02 512.32 390.68 512.27 393.39 512.52 394.6 513.46 397.33 514.34 399.25 515.87 402.1 518.38 406.19 521 410.23 522.35 412.58 523.25 414.99 523.49 416.49 523.21 418.46 522.45 419.27 521.82 419.33 516.96 415.91 511.86 413.03 508.43 410.88 505.68 408.68 503.88 407.5 502.64 407.06 501.59 407.06 500.77 407.41 500.2 408.07 499.86 409.41 499.76 412.29 499.57 414.25 498.96 416.02 497.92 416.65 496.03 416.95 492.19 417.36 489.65 417.89 487.95 418.51 485.73 419.66 482.21 421.76 479.27 423.12 476.35 423.69 473.87 423.27 469.47 421.73 467.76 421.36 466.01 421.71 465.38 422.48 464.94 423.73 464.72 425.36 465.09 427.53 466.02 429.17 467.46 430.76 469.47 432.42 472.21 434.31 475.43 436.27 481.14 440.65 477.19 442.42 475.85 443.19 472.9 444.32 469.71 445.27 466.39 446 463.29 445.96 459.5 445.77 455.43 444.67 451.06 443.25 446.98 441.33 443.65 439.9 437.1 436.2 434.02 434.31 430.24 431.6 426.26 428.86 423.56 426.39 421.11 424.42 418.78 421.9 416.89 419.61 416.01 416.67 415.66 414.43 415.82 412.14 416.36 409.41 417.15 407.68 420.47 403.91 423.14 402.55 426.45 401.5 429.6 399.68 431.9 398.14 436.51 394.32 438.59 392.01 440.5 388.82 441.77 385.62 442.43 382.47 442.22 379.88 442.14 376.66 440.95 373.28 439.03 371.49 435.94 370.22 433.23 369.67 429.72 368.76 426.01 369.02 421.84 370.47 419.2 372.15 416.36 374.1 412.54 377 410.16 378.7 407.34 380.52 403.51 382.78 399.41 385.62 396.26 387.71 391.7 390.41 388.91 391.52 384.86 393.31 381.31 394.23 377.16 394.31 372.24 393.49 365.55 391.39 362.5 389.94 359.38 388.62 356.08 386.75 352.71 384.97 346.64 382.82 342.91 381.99 339.59 381.35 336.94 380.98 333.56 380.89 330.33 381.04 326.12 381.56 323.52 382.42 320.38 383.85 317.59 385.91 314.28 388.17 308.23 392.81 304.74 395.37 301.55 396.7 296.85 397.29 292.63 396.88 290.05 396.07 286.05 394.46 282.12 391.37 279.4 388.68 277.07 385.5 273.93 379.09 273.3 376.09 273.8 372.57 274.74 370.3 276.6 367.67 278.26 363.89 279.9 360.96 281.08 357.82 282.05 355.6 282.44 353.12 282.73 350.14 282.8 346.78 282.6 344.28 282.14 340.21 280.55 336.97 278.94 334.28 276.41 332.21 274 330.53 271.8 328.69 268.07 326.66 264.65 325.39 260.19 323.64 256.02 322.64 251.87 322.53 248.55 322.6 244.71 323.19 236.02 324.29 232.09 325.57 226.98 327.04 223.15 328.32 216.43 331.05 212.79 333.06 205.68 336.12 199.72 338.92 195.3 340.66 191.65 341.74 187.1 341.62 183.78 340.68 180.72 338.46 179.66 335.95 179 333.61 179.41 330.47 180.14 327.57 181.01 324.7 182.68 320.74 184.29 317.21 186.04 312.44 189.42 305.88 190.54 303.19 192.42 298.41 193.19 294.36 194.88 288.5 194.74 285.49 194.33 283.26 192.28 279.63 190.58 277.62 188.01 274.85 185.94 273.25 183.05 272 180.18 271.17 173.74 272.16 171.32 273.01 167.86 275.08 163.27 278.54 161.03 280.48 156.45 285.78 150.9 293.01 148.55 296 146.57 298.9 145.02 301.69 143.29 305.02 142.29 307.86 139.35 315.27 138.04 318.42 136.07 323.51 133.98 328.24 131.22 335.89 129.07 341.01 127.73 344.73 126.67 348.47 123.54 355.96 119.49 363.05 116.72 366.14 113.29 368.15 109.85 369.5 106.85 370.47 102.8 371.41 97.29 371.03 94.25 370.55 89.57 368.87 86.76 367.52 84.42 365.67 82.47 363.09 81.13 359.68 80.45 356.65 79.23 352.01 77.95 347.95 75.68 342.63 73.75 338.96 72.01 335.83 70.09 333.27 67.74 330.44 65.67 328.57 61.7 325.44 58.77 324.11 55.11 323.31 50.31 322.35 46.41 321.98 41.48 322.41 37.34 323.13 33.47 323.64 24.96 325.06 14.39 325.79 9.88 325.63 7.23 324.24 4.36 321.44 2.16 318.86 1.51 316.43 1 313.24 1.88 310.23 3.44 307.66 5.7 304.65 7.54 302.84 11.94 297.55 14.2 295.11 15.55 293.5 18 291.24 20.48 289.75 23.67 288.02 31.39 284.22 36.88 282.89 41.22 282.49 47.9 282.25 53.98 281.35 60.67 279.55 68.67 275.81 70.77 273.38 72.33 270.7 73.36 268.37 73.47 265.8 72.98 263.05 71 260.3 68.47 258.4 65.94 256.8 61.51 254.58 54.64 252.12 46.34 249.62 43.66 248.43 39.88 247.49 35.64 247.23 30.48 247.83 28.81 248.44 29.73 246.99 31.97 245.56 33.75 244.18 36.69 242.19 37.87 242.43 40.17 240.58 41.83 239.92 45.2 238.36 47.28 237.14 50.75 235.38 52.45 234.64 55.07 233.78 57.29 233.32 59.27 233.14 61.05 233.2 62.68 233.49 64.21 234.02 65.81 234.84 68.43 236.74 71.08 239.25 72.11 238.5 72.87 237.48 76.13 233.98 78.64 231.19 80.18 229.3 81.93 226.72 82.7 224.86 82.76 223.82 81.94 221.59 81.9 219.5 82.18 218.09 83.15 215.49 84.79 212.23 86.16 210.08 88.24 207.67 89.37 207.23 90.56 207.71 92.73 209.28 94.91 212.06 95.88 212.87 97.99 213.84 102.92 215.15 105.11 215.91 108.11 217.27 110.06 217.39 112.33 216.25 113.94 215.73 114.96 213.42 115.34 211.74 115.39 210.07 115.23 208.3 114.73 205.18 114.72 202.94 115.12 201.5 116.89 197.91 117.45 196.43 117.42 194.77 116.54 192.67 114.57 189.9 114.44 189.1 114.92 188.36 116.11 187.76 117.72 187.9 120.48 188.63 122.23 188.88 126.15 187.99 127.84 188.34 129.54 189.85 130.8 191.6 132.04 192.4 133.52 192.63 136.3 192.15 140.51 190.9 142.84 189.9 144.49 188.7 144.97 187.58 144.67 186.46 143.38 185.3 141.7 185.13 137.35 185.48 135.32 185.48 133 184.92 131.71 184.2 130.39 183.14 128.02 180.81 124.79 178.15 123.23 176.65 122.01 174.38 121.65 172.46 122.4 170.95 123.48 170.18 125.4 169.92 126.49 169.98 128.45 170.61 129.25 171.38 130.53 174.06 131.67 177.07 132.45 177.5 134.12 177.07 134.91 176.43 136.16 174.8 137.85 171.29 139.2 167.56 139.65 165.62 140.21 162.21 140.47 155.73 140.61 155.08 141.44 153.75 142.45 152.73 145.22 150.26 147.22 148.18 148.26 147.3 150.14 146.82 151.84 147.07 152.58 147.41 154.46 148.93 156.56 151.17 158.33 153.72 161.13 156.8 162.66 157.65 164.38 157.72 166.91 156.56 167.79 155.81 171.27 151.8 172.47 149.27 173.14 145.31 173.88 144.28 175.45 143.02 176.51 143.33 178.2 144.29 179.08 144.11 180.4 144.66 181.04 145.62 182.05 146.44 183.89 146.98 184.8 147.51 186.14 147.69 187.11 146.13 192.23 136.11 197.95 138.22 202.78 132.51 203.44 133.1 204.65 133.02 205.39 133.56 206.85 133.86 208.45 135.41 212.14 136.94 224.36 123.51 234.9 136.56 244.39 125.55 244.89 125.93 244.94 126.91 245.54 129.84 246.47 131.47 264.16 129.67 258.97 111.88 259.64 111.62 261.55 110.05 261.76 109.24 261.92 105.25 262.1 104.33 262.9 103.08 263.96 102.18 264.96 101.73 266.51 101.65 267.28 102.16 268.22 103.8 269.49 104.75 275.06 108.27 277.93 109.39 279.28 109.43 281.04 108.71 282.65 107.37 283.29 105.85 283.78 102.43 283.73 101.12 283.99 99.66 284.69 98.15 286.14 95.78 287.21 95.24 288.83 95.04 290.89 95.59 293.51 97.03 295.04 98.28 296.69 100.77 300.49 103.93 301.65 104.66 304.8 105.63 307.5 106.71 310.11 106.77 311.73 107.33 314.98 107.01 315.43 106.65 315.09 105.39 313.49 103.46 312.39 101.89 310.33 99.85 310.39 98.83 311.18 97.61 312.44 96.21 313.52 94.66 313.26 92.55 312.33 91.1 309.45 89.88 306.68 88.35 304.98 86.81 303.69 85.09 303.67 83.38 304.33 82.58 305.94 81.89 307.34 80.74 309.36 80.67 310.56 80.19 313.2 78.26 312.94 76.08 312.67 75.31 311.41 73.54 310.43 72.48 309.36 71.7 309.11 71.2 309.52 69.32 311.6 68.76 315.13 69.09 316.52 69.42 318.92 69.56 319.57 69.06 323.48 65.38 324.8 65.3 326.02 65.64 327.82 65.83 328.15 66.08 329.55 68.93 329.85 70.75 329.83 71.96 329.06 72.9 329.22 74.1 329.73 75.09 330.74 76.29 331.95 76.69 333.54 76.67 334.84 76.21 336.27 76.21 340.04 76.6 342.49 77.68 343.43 78.5 344.16 80.56 345.05 80.98 345.92 80.97 346.71 80.1 346.85 79.1 346.64 77.23 346.86 76.53 348.36 74.46 349.25 72.42 350.11 71.34 350.73 69.17 350.78 67.34 350.48 65.64 349.27 63.33 347.61 61.43 346.84 59.9 345.25 57.37 344.98 56.44 344.47 56.07 343.21 55.93 342.1 53.84 342.61 52.53 343.37 52.09 344.44 52.12 347 53.02 348.75 52.66 350.57 51.93 351.46 50.48 351.67 49.25 352.65 47.64 353.19 46.03 354.31 44.74 355.3 44.15 356.81 43.84 357.93 44.07 359.17 45.05 359.71 46.71 359.67 48.05 360.11 50.31 360.46 50.94 361.99 52.47 363.09 54.86 364.21 55.9 365.15 57.76 365.12 59.26 364.35 60.9 362.92 62.43 361.86 63.28 361.23 64.2 361.19 65.97 362.39 69.09 363.38 69.8 364.71 69.93 365.91 69.74 367.1 70.07 369 70.3 369.98 70.2 372.3 69.36 374.65 69.65 375.84 69.94 377.65 70.02 378.37 70.39 378.96 71.63 379.6 72.19 380.5 72.4 382.05 72.37 383.08 71.72 383.63 70.74 384.39 70.15 384.73 69.12 384.24 67.75 381.96 66.03 380.65 65.32 378.87 64.87 377.88 64.39 375.64 62.81 375.11 61.42 375.91 60.45 376.92 59.78 378.61 59.01 380.13 58.43 383.45 57.78 386.63 55.97 389.3 54.83 391.68 55.26 393.08 55.78 396.82 57.85 398.37 59.17 400.43 59.96 401.11 60.65 402.18 62.52 402.27 63.35 403.58 64.54 404.52 64.46 405.39 63.8 406.91 62.18 407.79 57.99 409.17 55.9 410.51 54.99 412.25 54.49 414.94 54.31 417.07 54.45 419.94 54.83 421.19 55.12 422.1 55.66 422.63 56.4 424.19 57.37 425.17 57 427.14 54.42 426.89 53.43 426.12 52.16 425.1 51.49 423.24 48.96 422.88 47.57 423.25 46.02 423.8 44.89 425.2 42.69 425.6 40.57 426.37 39.65 427 38.24 429.01 35.98 430.08 35.15 432.09 34.78 433.65 34.69 436.95 34.73 438.42 34.21 439.91 35.3 441.18 37.17 441.66 38.36 442.16 41.19 442.27 42.48 443.11 44.74 443.62 45.37 444.68 46.02 447.03 46.59 451.7 46.86 452.62 47.16 453.78 47.91 454.47 48.69 456.17 50.06 457.18 50.43 459.47 50.44 460.28 49.71 460.89 47.83 460.6 46.87 460.36 44.22 460.67 41.13 461.35 40.58 462 38.75 464.13 34.32 463.91 32.33 463.42 31.52 461.41 29.39 460.84 27.52 460.96 26.1 461.68 24.92 461.59 24.06 461.99 23.4 463.01 23.31 464.28 23.62 466.52 25.16 467.76 26.68 469.71 29.84 470.56 30.89 471.97 30.9 472.45 30.36 472.68 29.17 472.34 27.52 473.05 22.9 473.83 20.94 474.55 19.85 475.85 19.22 477.55 19.22 478.44 19.77 479.19 21.06 480.11 23.46 480.23 24.34 480.95 25.17 482.57 25.35 485.21 25.08 489.94 23.67 490.15 22.44 490.99 20.56 491.58 17.33 491.77 11.72 491.63 9.82 491.78 7.53 492.42 1.85 492.72 1.06 493.55 1 495.6 2.58 497.38 4.59 498.39 6.2 499.94 7.2 504.28 8.23 505.08 8.53 510.51 7.39 511.11 7.08 512.82 4.87 514.52 3.63 514.74 2.12 516.1 1.95 519.04 3.06 520.67 3.55 523.94 4.14 524.37 4.96 524.15 5.68 523 7.9 521.82 10.52 521.62 11.84 520.41 15.35 518.29 18.08 517.03 18.87 516.36 19.92 516.06 21.7 516.29 23.17 516.86 23.99 518.47 24.15 520.82 23.36 522.56 22.17 523.04 21.58 524.92 18.55 525.34 17.32 527.6 15.64 529.83 15.12 530.6 15.42 531.34 16.85 531.39 17.93 530.72 21.68 530.67 22.86 530.9 25.53 531.67 26.36 532.42 26.7 534.01 26.47 536.05 25.13 536.28 24.19 538.72 22.03 539.75 20.84 542.24 18.7 543.89 17.69 545.04 17.45 547.74 17.93 548.62 18.76 548.76 19.52 546.22 21.35 545.83 22.04 545.94 22.78 547.05 23.8 549.93 25.25 551.59 26.33 553.48 28.23 556.01 30.06 559.62 32.21 561.61 32.8 563.86 31.39 565.02 31.12 566.55 31.05 568.27 30.72 569.77 31 570.36 32.1 569.55 33.08 568.37 33.78 567.84 35.54 567.52 37.5 568.27 38.73 569.96 38.63 570.94 38.27 571.45 37.48 574.68 36.33 575.73 36.49 577.88 37.46 581.97 38.03 583.57 38.44 586.03 38.51 588.39 39.07 589.54 39.74 590.21 40.83 590.17 41.66 588.96 46.51 588.73 50.3 589.56 50.44 592.6 50.32 594.13 49.7 595.45 48.74 596.1 47.95 597.35 45.68 598.13 42.97 598.89 41.1 598.85 39.33 599.34 37.65 600.24 36.58 603.86 36.16 605.31 36.19 606.5 36.71 607.66 37.65 609.11 39.2 610.96 40.25 612.67 40.53 613.6 40.05 614.49 39.2 616.21 37 617.09 36.55 617.29 34.57 616.42 33.6 615.51 31.81 615.53 30.98 614.71 30.16 613.79 28.5 613.69 27.9 613.88 24.94 614.77 24.92 616.27 26.05 617.83 25.95 619.27 24.99 620.73 22.69 622.63 21.27 622.99 20.46 624.26 19.37 625.22 18.08 626.76 16.91 629.35 15.65 630.48 15.33 632.16 15.27 632.75 15.71 632.92 17.96 632.46 19.95 631.72 21.1 631.25 23.06 630.31 23.91 629.36 26.72 629.39 27.72 630.86 29.34 631.98 29.75 632.99 29.07 634.38 28.53 638.62 27.66 643.49 26.78 644.7 26.72 646.73 27.07 650.94 28.05 653.41 28.29 655.77 28.93 657.47 28.68 657.9 28.22 Z"/>
</g>
</svg>