<?xml version="1.0"?>
<svg xmlns="http://www.w3.org/2000/svg" version="1.2" baseProfile="tiny" width="800" height="624" viewBox="0 0 800 624" stroke-linecap="round" stroke-linejoin="round">
<g id="4204004">
<path d="M 763.27 347.73 761.09 348.42 755.13 351.14 745.75 353.99 744.13 355.28 745.62 356.9 745.41 360 742.19 361.38 742.56 364.28 744.7 366.35 743.84 368.95 741.28 372.67 738.95 374.94 737.73 376.98 737.95 380.02 737.11 381.67 738 384.7 739.66 386.16 741.53 389.56 741.6 391.16 743.11 395.2 742.38 399.14 743.09 401.65 745.99 403.18 751.19 405.18 753.1 406.9 753.46 408.91 752.16 411.39 747.75 412.4 743.84 412.49 739.94 413.72 738.57 414.6 737.61 419.49 735.74 425.81 733.7 427.72 727.01 431.36 722.07 432.82 717.13 433.93 709.7 436.15 704.13 439.21 701.35 441.09 700.17 443.03 699.61 445.37 699.88 448.84 701.39 452.66 703.38 454.67 706.64 456.86 708.79 459.29 710.85 462.84 713.8 467.03 714.37 471.69 713.87 474.15 711.17 482.65 709 484.9 707.39 485.67 700.7 485.7 698.71 486.7 697.73 488.81 695.26 489.99 691.2 489.12 687.02 490.65 685.14 493.62 683.33 495.35 681.64 499.17 674.85 504.84 673.47 508.97 673.74 511.62 675.83 515.47 677.26 517.2 680.4 519.02 682.84 523.47 682.32 525.65 680.77 527.55 677.14 529.24 672.27 530.04 669.28 529.89 666.14 530.93 664.71 532.07 659.58 538.24 660.23 540.49 659.01 542.61 658.65 544.87 654.9 545.47 651.85 549.95 652.68 553.79 655.35 556.61 655.17 559.85 655.94 565.01 655.49 567.22 653.5 568.27 651.64 568.34 648.32 567.21 645.16 567.38 643.35 568.62 642.53 570.62 640.03 573.48 636.91 574.9 633.45 574.45 630.35 574.81 627.41 576.07 620.54 576.76 617.98 578.45 617.36 579.82 617.57 583.69 614.87 587.65 614.8 589.73 616.06 593.16 612.98 597.39 613.07 601.84 612.01 603.36 610.01 604.4 607.59 603.54 606.11 604 604.79 605.88 602.17 606.96 601.36 608.39 599.11 610.1 594.17 611.95 591.91 614.38 589.44 616.16 588.74 617.49 588.81 620.21 587.52 621.07 583.69 620.23 582.25 620.36 579.32 622.02 576.15 622.98 568.57 623 565.72 621.81 564.15 618.42 561.48 616.86 557.9 616.16 537.74 608.64 533.68 608.82 529.17 610.55 525.67 610.29 515.08 605.06 513.28 601.33 511.56 599.99 510.64 596.06 508.01 591.47 505.36 590.68 502.64 587.86 501.96 586.09 500.13 584.52 496.63 583.39 495.15 583.54 490.74 579.89 488.04 579.79 484.93 579.01 482.79 576.73 478.9 576.06 476.95 574.84 473.76 573.75 471.69 573.55 468.79 575.76 467.62 575.98 463.49 573.63 455.32 574.09 451.25 573.97 449.1 574.63 447.57 576.01 447.71 578.25 446.56 579.08 443.51 576.53 440.76 576.68 439.86 580.66 438.36 581.34 433.56 581.71 431.1 581.09 428.84 578.91 424.65 583.59 423.84 585.46 423.77 588.54 425.23 589.78 424.49 591.76 421.05 591.88 418.26 590.77 415.65 590.54 409.16 593.31 405.29 594.09 402.97 593.78 398.51 592.37 396.13 593.37 395.81 594.96 393.95 595.56 393.02 598.32 389.69 599.06 383.86 597.85 376.56 597.08 373 595.52 370.15 593.45 368.57 591.47 364.3 588.27 360.87 587.27 355.39 587.65 352.48 585.51 350.29 585.15 346.1 587.15 343.22 585.6 340.59 585.28 336.08 586.77 333.09 584.94 331.43 584.77 327.96 586.61 324.24 586.79 322.95 584.02 321.75 583.82 319.75 585.07 315.38 583.39 310.78 580.02 307.99 580.36 306.42 583.23 302.94 584.01 296.34 581.05 292.3 579.94 288.55 577.31 280.36 574.68 273.26 571.24 270.14 569.07 264.67 564.09 264.08 561.67 262.74 558.88 260.36 555.95 258.22 551.6 255.54 549.38 254 546.17 254.19 545.23 258.62 544.36 260.74 542.07 263.74 541.86 265.1 538.01 265.15 535.3 263.48 532.74 254.94 532.28 253.03 531.05 252.44 528.9 255.45 523.41 257.07 521.72 263.05 519.1 267.58 514.06 267.88 512.79 265.6 508.32 265.05 505.85 263.27 502.15 262.9 498.98 264.15 496.21 264.31 493.32 262.83 487.87 262.23 483.86 261.49 483.07 258.95 483.05 254.76 484.42 251.95 488.14 249.3 490.5 244.88 492.56 241.5 494.84 239.98 497.3 237.86 497.84 232.16 495.9 228.38 493.68 223.81 491.6 214.54 484.67 213.61 482.78 217.09 475.9 218.71 470.02 218.31 467.66 217.35 466.45 213.12 464.25 209.29 460.51 206.69 454.88 204.03 454.38 199.93 457.12 196.12 461.33 191.89 468.83 188.18 473.52 185.75 475.09 179.93 474.97 177.16 481.26 179.26 483.92 182.22 489.4 185.9 494.84 186.64 496.67 185.71 498.53 186.6 501.66 186.12 504.35 187.64 507.68 187.91 509.94 186.94 512.57 184.62 514.2 179.6 513.64 171.12 510.34 166.23 510.31 162.39 509.46 156.3 511.42 153.96 511.09 151.27 507.95 150.55 504.55 151.95 498.37 151.52 497.65 147.59 496.11 145.35 496.7 145.02 498.72 143.66 501.47 144.07 505.75 142.16 509.17 133.9 511.58 131.22 511.09 128.69 509.7 126.19 507.69 120.77 504.73 119.21 504.76 116.59 506.3 114.91 507.94 114.75 509.51 113.3 513.63 112.21 520.57 111.06 523.27 109.05 526.55 107.9 535.31 108.01 537.56 109.11 539.42 109.04 541.61 107.92 542.71 105.37 543.26 102.62 542.94 101.05 542.12 100.03 540.04 97.48 538.81 94.59 536.37 92.71 533.34 89.98 525.08 89.26 520.74 86.52 518.11 82.75 515.87 78.91 512.99 77.85 511.16 78.09 507.66 79.1 506.4 84.2 503.02 89.45 498.46 94.02 495.46 94.69 493.49 94.11 491.88 90.46 487.49 88.44 487.11 86.47 488.2 79.79 488.88 76.81 490.75 75.54 493.77 69.89 499.73 66.59 501.17 62.82 502.24 54.96 503.6 49.38 504.8 47.9 506.27 49 508.09 51.02 508.32 56.73 512.33 61.1 514.75 65.14 518.15 67.9 522.86 68.54 525.78 64.94 529.91 54.04 538.07 51.42 540.63 50.48 543.07 50.17 548.35 50.4 550.92 49.28 553.43 45.94 555.43 42.5 555.72 40.44 551.88 34.88 550.19 31.7 547.91 31.69 545.29 34.65 539.64 35.44 537.48 35.2 534.72 32.34 530.95 26.68 526.14 23.76 524.4 20.65 518.43 18.21 514.73 16.23 513.09 12.96 506.98 9.99 506.46 8.36 506.95 8.51 505.35 7.1 501.88 2.06 497.16 1.31 495.9 1.21 493.02 1.94 491.52 1 488.5 1.28 483.53 2.04 480.51 1.8 478.02 2.67 473.08 2.72 470.29 10 437.79 14.88 434.7 17.49 433.69 25.25 434.56 27.79 433.48 36.2 427.52 40.03 423.96 40.63 422.46 43.98 419.61 48.49 417.8 48.27 416.29 42.8 414 41.83 412.4 44.29 409.31 45.36 406.29 45.59 403.75 48.04 400.25 50.37 397.85 51.94 393.22 54.64 391.41 56.18 387.55 55.35 386.82 57.48 381.08 60.84 377.8 63.59 378.31 68.08 377.26 71.57 377.28 82.34 373.75 86.65 372.71 90.79 372.36 92.67 371.59 93.48 370.31 95.38 364.06 96.81 363.77 99.25 361.31 102.96 361.18 105.62 359.29 106.99 357.3 106.9 354.52 108.45 352.67 109.58 349.31 111.26 346.02 113.55 346.5 118.69 345.91 120.07 346.62 123.48 350.52 122.16 355.9 124.64 356.9 129.5 357.54 131.66 359.6 139.74 357.97 142.67 360.24 147.31 362.62 148.84 365.19 145.97 367.82 144.46 370.86 146.13 375.53 144.76 379.72 145.55 381.81 148.77 381.02 153.36 378.38 154.56 378.27 156.82 380.33 161.2 383.28 167.04 385.12 238.35 380.64 240.62 380.6 243.65 382.1 245.5 381.97 248.61 379.92 250.99 379.39 254.3 379.45 263.99 383.51 266.3 383.09 267.25 381.71 267.34 378.54 266.55 376.6 266.86 371.8 265.19 367.62 263.98 366.4 259.79 364.44 257.88 363.04 254.54 361.42 248.74 360 247.39 359.15 245.41 355.45 246.58 353.43 251.78 352.5 258.9 349.42 265.75 347.53 268.15 347.85 272.29 349.35 277.53 352.54 280.5 355.71 280.1 358.83 281.14 361.86 284.27 364.26 288.6 364.6 292.45 363.1 295.96 365.21 299.08 365.75 300.5 365.16 303.08 362.9 305.2 359.64 306 357.28 305.9 355.28 308.76 353.53 312.47 349.51 314.94 348.32 323.61 348.11 326.38 347.42 330.06 345.6 330.86 343.72 330.69 341.96 332.09 340.12 333.95 340.29 335.27 342.12 337.85 343.02 341.46 342.21 345.95 341.75 354.39 343.58 355.99 343.21 358.6 336.8 359.43 333.53 365.7 331.84 367.15 330.72 366.97 328.67 365.6 325.89 365.51 323.4 367.39 315.91 371.03 315.08 373.96 315.09 378.2 313.78 383.3 309.69 385.68 301.23 386.48 299.33 390.88 295.4 393.47 295.19 396.44 293.6 398.75 293.53 472.26 219.39 480.88 226.04 485.52 223.57 493.09 226.23 496.36 225.81 497.77 226.13 501.64 228.37 506.37 229.09 508.3 231.38 510.48 232.79 512.41 233.27 516.89 231.76 518.85 232.01 521.01 231.17 523.34 231.27 526.5 229.48 528.65 229.52 531.02 231.06 532.28 227.41 534.68 225.17 534.33 220.99 532.47 218.96 530.73 214.58 532.56 212.02 531.11 210.53 526.85 208.64 527.81 206.25 531.26 203.66 532.19 201.83 531.97 200.09 529.69 198.25 532.02 195.6 530.97 194.41 527.82 193.77 524.4 192.48 523.44 190.82 521.18 191.63 517.35 191.35 517.14 188.88 513.47 186.33 511.87 186.97 509.49 184.96 508.67 182.99 509.37 180.39 503.96 179.61 499.28 174.9 497.1 170.6 492.64 169.89 492.18 166.75 489.85 166.01 487.43 162.57 487.94 158.43 485.12 155.48 485.02 154.58 488.58 150.74 489.63 141.07 491.74 138.59 491.96 135.77 494.99 132.88 494.98 131 496.31 129.1 495.87 126.17 497.54 124.52 495.82 121.35 495.81 118.56 496.99 117.39 499.26 117.76 500.43 116.82 503.25 115.99 503.61 111.41 505.89 109.96 505.48 107.21 509.69 102.82 509.78 99.83 512.93 98.19 515.53 96.24 516.29 94.61 519.58 92.39 520.16 87.99 524.04 82.78 524.51 81.39 523.78 77.12 533.96 68.55 537.12 62.69 542.27 55.82 543.14 53.09 544.99 52.34 549.18 52.28 550.7 51.47 551.01 49.99 555.28 45.97 556.94 45.42 561.65 44.91 564.62 43.61 568.08 43.46 571.15 44.32 573.9 47.93 575.77 49.33 579.05 52.8 581.98 53.88 584.92 56.27 587.56 56.6 589.38 54.28 590.37 51.95 592.2 49.48 595.19 46.99 600.27 43.36 601.72 41.17 604.39 39.29 609.17 38.05 612.8 36.16 615.92 32.36 618.77 31.12 621.98 31.06 627.31 26.69 633.77 25.03 635.26 23.75 640.04 20.82 643.08 17.9 642.97 15.82 643.6 12.06 645.19 10.85 650.79 10.6 654.6 10.97 661.03 12.25 665.25 11.72 667.75 12.09 674.6 10.84 680.23 10.86 684.53 10.39 687.65 9.51 691.77 5.87 695.06 3.77 702.99 6.08 705.62 4.57 708.41 2.01 711.38 1 712.01 3.52 716.28 9.1 717.9 12.79 719.39 14.93 718.35 17.4 714.24 22.84 712.86 25.09 709.26 26.35 707.78 28.78 705.65 30.13 704.73 31.48 703.48 35.21 703.44 40.3 706.06 42.53 707.41 46.73 706.08 49.88 706.17 51.41 705.11 53.78 707.34 56.07 705.61 57.39 704.54 59.41 705.94 61.51 706.46 63.43 704.59 64.79 702.14 67.91 702.47 69.55 703.89 70.85 704.38 73.39 703.98 74.63 705.59 78.68 705.4 81.59 704.45 83.37 705.67 86.58 709.42 89.27 709.39 94.98 711.91 97.02 713.62 99.2 715.59 100.21 715.23 102.26 717.71 104.82 716.39 108.87 717.02 110.94 718.56 111.38 721.3 116.07 718.77 120.66 719.28 122.73 721.33 124.41 723.05 124.63 725.49 127.4 796.45 129.39 798.58 131.32 798.09 134.13 799 137.15 797.34 140.8 794.38 142.39 786.79 144.64 781.87 148.36 780.68 150.3 780.21 153.18 778.73 156.25 775.49 157.73 774.84 158.61 774.04 163.28 772.25 167.31 772.87 173.67 770.37 178.39 771.6 179.77 774.89 182.04 775.93 183.25 778.32 187.66 780.71 190.9 786.67 195.29 786.83 198 785.64 200.49 785.39 204.91 784.65 206.09 782.82 206.67 777.73 207.03 775.29 208.69 774.22 214.53 774.55 216.8 776.02 219.9 776.48 222.31 775.93 225.28 776.77 227.43 778.65 229.5 779.76 232.23 780.74 238.47 780.06 240.9 781.97 246.87 782.05 249.99 779.76 255.76 780.18 258 779.59 259.43 782.99 263.53 783.08 268.24 782.53 271.01 779.6 276.23 776.47 280.24 775.51 282.52 774.87 288.25 773.08 290.7 770.41 291.92 767.02 299.77 764.97 302.47 765.33 304.61 767.38 306.18 768.19 309.11 768.87 317.03 769.07 322.1 770.92 327.41 769.33 330.17 765.07 332.47 760.33 338.66 762.31 343.97 763.27 347.73 Z"/>
</g>
</svg>