<?xml version="1.0"?>
<svg xmlns="http://www.w3.org/2000/svg" version="1.2" baseProfile="tiny" width="800" height="1178" viewBox="0 0 800 1178" stroke-linecap="round" stroke-linejoin="round">
<g id="4204806">
<path d="M 633.27 181.06 634.21 184.39 633.8 188.98 633.12 192.2 631.69 194.92 630.57 197.96 626.8 206.96 624.73 209.19 624.69 210.54 627.28 212.04 627.95 213.03 627.95 216.21 627.05 217.22 621.55 216.87 616.79 215.91 613.55 215.57 611.12 214.98 608.95 215.18 607.62 216.05 604.95 219.4 602.91 220.29 601 217.91 597.63 215.68 595.53 214.03 594.02 213.73 589.66 213.93 586.69 213.25 584.83 211.8 580.82 209.21 578.12 207.85 572.42 206.55 570.75 206.37 567.75 206.84 565.81 207.69 564.95 209.17 564.95 210.73 563.76 214.25 564.08 216.14 565.23 217.82 566.17 220.38 567.52 220.91 568.82 220.37 571.87 218.13 573.59 217.59 574.84 218.87 578.12 220.58 579.28 223.44 586.15 226.35 588.6 227.14 591.01 228.66 592.57 231.46 594.11 232.01 596.82 234.73 603.75 238.11 605.47 240.89 605.57 243.65 606.07 245.85 605.56 247.17 603.41 247.07 600.8 247.43 598.41 248.19 594.67 248.64 592.1 247.83 585.62 244.35 584.5 242.82 580.74 238.66 577.65 236.98 576.03 238.57 577.12 241.02 576.68 243.02 575.35 244.46 572.12 245.35 568.06 244.02 562.82 243.3 557.38 242.19 554.54 242.35 551.63 242.91 548.34 244.65 545.95 246.2 545.25 247.41 545.5 251.89 547.08 256.21 547.09 257.62 545.7 260.15 543.17 263.18 541.54 263.8 538.95 262.31 535.37 258.54 532.32 256.52 530.63 254.8 530.69 252.51 533.47 245.48 533.74 242.99 532.55 241.45 532.25 239.74 532.9 237.87 533.3 235.2 534.59 233.43 537.82 233.27 541.03 231.91 541.58 230.35 539.5 228.79 538.21 226.4 538.38 224.67 537.89 222.48 536.99 220.79 534.44 219.55 530.68 216.52 526.76 216 525.34 214.35 523.48 212.91 521.55 211.89 518.86 212.31 517.6 213.57 516.89 215.48 514.21 218.37 513 221.77 512.38 224.76 514.11 227.59 515.35 232.94 514.31 235.31 513.43 238.24 512.35 239.06 508.44 238.35 505.44 237.01 499.96 235.28 497.34 234.96 496.41 235.46 496.14 236.92 498.66 238.86 501.55 242.26 504.13 244.82 504.29 245.72 503.58 247.23 503.38 250.14 505.07 254.5 508.13 259.85 509.77 263.27 512.27 270.8 513.13 273.77 512.58 274.82 510.44 275.8 506.74 276.45 502.75 278.39 499.8 278.51 495.22 277.24 492.42 276.1 491.03 275.04 490.4 272.42 490.52 269.19 492.18 265.74 492.06 263.9 488.09 261.38 486.22 258.31 486.17 257.45 487.99 253.78 487.75 251.34 486.61 249.29 484.37 247.08 482.54 245.82 480.5 245.81 477.73 245.17 475.88 244.08 475.27 241.36 476.02 239.28 477.56 237.59 480.95 236.22 483.48 235.58 483.88 234.15 482.73 233.31 480.69 233.48 478.39 234.46 476.83 234.65 467.21 233.31 464.24 233.04 460.88 233.67 457.26 238.36 455.28 241.29 453.59 243.06 451.98 246.82 450.01 250.37 449.55 253.78 447.82 254.12 445.41 252.92 443.52 250.94 440.97 249.01 439.39 248.3 435.75 248.84 433.59 247.84 428.71 246.44 425.01 246.19 423.59 246.71 422.63 249.04 421.29 249.96 420.55 251.64 417.96 253.03 415.03 253.07 414.11 253.59 414.24 256.49 413.59 257.46 413.31 259.37 414.9 261.36 415.17 263.07 414.48 263.89 411.96 265 408.43 265.27 403.01 267.69 398.33 269.22 394.46 268.88 393.15 269.11 388.88 268.75 385.21 267.71 380.05 264.08 376.29 262.79 373.39 261.21 371.99 260.91 371.11 261.47 370.25 263.04 369.92 264.82 369.62 269.14 370.1 272.09 370.33 275.31 371.53 277.73 373.76 278.31 377.51 277.34 381.25 277.12 386.15 277.81 389.37 278.79 393.52 280.91 395.55 282.23 399.45 284 401.97 284.89 403.82 287.24 407.89 290.79 410.66 292.16 412.64 293.59 415.55 295.17 417.15 298.71 419.56 303.23 420.81 306.09 421.2 308.15 422.36 311.58 423.37 313.47 423.02 315.68 421.7 316.92 421.35 319.06 422.07 319.86 426.54 323.27 427.26 325.14 426.25 325.84 423 325.9 419.33 325.2 416.25 325.21 413.46 326.3 409.98 328.93 408.56 330.32 406.72 332.91 406.47 336.06 408.54 336.97 410.24 338.47 411.29 340.63 411.62 342.31 411.38 345.08 413.89 348.23 414.24 351.82 417.26 355.02 417.73 358.8 418.5 361.07 418.41 362.32 417.17 364.67 418.24 367.39 419.35 368.9 419.69 370.13 421.31 371.28 422.18 372.48 423.33 375.42 426.13 378.95 427.44 382.38 429.48 384.41 431.88 384.83 435.03 387.1 437.02 388 440.17 390.07 444.48 389.66 448.77 387.81 453.15 387.88 454.6 388.13 457.3 390.05 459.67 390.84 467.75 391.75 468.76 391.49 470.63 389.95 471.84 387.75 476.99 382.78 478.95 381.61 480.02 378.14 484.19 374.62 485.84 374.24 487.93 372.9 490.75 369.77 492.19 370 495.91 373.06 499.97 375.25 501.71 375.61 504.86 375.08 508.25 373.96 511.67 372.39 515.66 372.77 518.03 372.73 518.71 373.3 519.25 375.54 518.76 380.67 518.94 383.11 516.18 389.33 515.86 390.96 519.21 392.02 521.51 391.02 524.83 388.46 528.13 387.34 529.55 387.3 538.23 389.89 542.46 392.44 543.15 393.4 543.99 396.38 546.61 398.24 550.18 401.16 551.48 402.6 554.72 404.21 555.95 406.14 557.59 409.83 557.9 412.46 560.7 417.78 561.54 420.23 562.9 422.87 563.79 425.61 564.97 427.33 567.08 427.87 568.36 428.65 569.35 428.29 573.11 424.97 575.47 423.26 575.81 422.29 575.34 420.05 573.73 417.14 574.9 415.56 577.93 414.94 580.97 415.36 582.52 415.05 583.81 412.35 585.05 410.81 586.54 410.34 589.98 410.08 590.62 410.36 591.29 412.78 592.67 414.29 595.28 414.62 599.95 413.94 601.5 414.23 605.2 415.85 607.94 414.83 611.24 411.75 613.04 410.81 612.38 409.47 607.94 409.18 605.07 409.73 604.43 408.28 605.51 406.74 611.46 404.46 616.4 402.15 617.74 402.42 621.15 405 623.62 407.51 625.47 409.84 627.16 412.46 632.01 414.69 636.24 416.34 640.17 419.5 642.72 420.93 646.32 420.2 648.51 419.21 651.24 417.15 654.36 416.02 656.92 414.72 663.47 416.59 665.68 418.04 668.82 418.26 672.56 420.6 676.69 421.15 678.37 422 680.83 421.44 681.55 422.86 679.28 423.62 679.7 424.64 682.03 424.67 683.36 426.06 684.36 424.99 685.99 424.98 686.59 426.38 688.23 427.44 688.55 429.07 689.57 429.71 691.12 428.97 692.62 429.14 693.31 430.51 691.92 433.28 692.68 434.13 694.66 434.45 696.85 435.85 698.15 437.56 699.28 438.04 700.48 437.61 701.38 438.64 700.06 439.5 701.04 441.43 701.25 443.15 700.64 444.68 702.68 445.91 702.47 448.35 701.92 450.06 703.47 453.14 702.24 453.49 702.39 454.59 703.57 455.57 702.78 456.81 700.82 458.52 699.03 462.99 700.8 465.87 702.12 467.28 704.08 467.62 706.12 469.15 706.82 471.03 706.71 472.84 707.25 473.55 710.57 474.64 712.56 474.86 712.86 475.43 710.63 478.12 709.65 480.37 709.69 481.56 711.59 481.05 712.52 482.47 710.68 484.14 709.84 486.47 709.34 489.38 710.48 491.64 710.72 494.65 709.34 495.93 708.23 498.13 705.67 500.39 707.53 503.06 710.18 504.95 712.47 506.22 712.79 506.89 710.71 510.19 708.87 512.27 709.85 513.78 706.89 514.93 703.85 514.56 701.15 513.4 698.39 513.82 694.21 515.65 688.68 520.01 688.6 522.27 687.86 524.4 686.36 524.58 686.99 525.85 689.26 526.5 690.64 527.52 691.55 528.91 691.7 530.4 690.07 532.6 687.46 534.52 685.16 534.94 683.07 537.07 680.35 536.42 678.69 536.41 677.05 537.4 677.04 539.18 679.22 539.48 680.81 540.09 684.76 543.52 685.43 544.36 685.97 548.02 685.34 549.75 687.09 550.12 688.06 550.87 689.44 553.38 689.1 557.08 686.89 561.34 685.74 562.89 686.35 564.21 687.81 565.11 688.18 570.95 689.07 572.18 691.5 573.36 692.56 574.64 693.54 574.76 696.41 579.8 696.99 582.88 697.81 584.95 700.05 586.07 700.51 586.98 698.92 589.11 698.9 589.86 700.41 591.67 699.65 594.17 700.44 594.54 701.57 597.32 701.39 598.51 702.3 601.82 701.97 603.81 700.69 607.06 701.85 608.37 702.08 610.75 704.47 614.08 704.7 616.1 704.48 618.31 703.93 618.65 704.08 621.24 703.5 621.38 704 623.76 702.56 626.09 702.29 627.88 704.53 629.81 705.06 634.08 704.13 635.02 704.6 640.41 704.12 642.47 704.52 643.54 702.61 645.93 702.61 646.75 706.23 649 707.74 652.03 709.93 654.12 712.11 657.51 712.79 659.67 714.97 660.5 716.13 661.56 717.89 662.24 719.64 662.33 720.29 663.5 719.68 665.58 721.95 669.46 723.25 670.6 722.68 671.95 734.88 667.53 739.18 667.37 741.02 668.09 742.65 667.93 744.83 669.15 747.65 669.01 749.61 670.2 749.7 671.09 751.01 671.5 752.24 674.93 755.69 675.25 757.25 676.84 757.79 679.25 759.06 680.84 759.7 683.49 760.42 684.48 762.72 684.55 770.35 686.32 774.63 686.55 777.35 687 780.31 688.71 780.36 691.03 781.71 691.71 782.81 693.11 782.61 694.04 783.48 695.16 783.73 697.92 787.12 700.71 787.3 703.68 786.66 704.51 787.89 705.2 788.06 706.73 788.96 708.61 787.99 711.36 789.44 712.76 790.83 716.87 795.44 716.83 796.36 717.63 795.25 719.03 795.76 720.56 797.94 721.92 796.92 723.06 796.85 725.03 796.15 727.86 795.24 728.69 795.54 729.76 794.31 731.78 795.18 734.48 796.35 735.23 796.26 736.9 796.73 738.33 796.69 740.89 796.08 743.12 794.18 743.28 794.21 744.71 793.2 746.01 794.46 746.91 794.17 747.69 795.96 748.78 796.1 750.3 797.24 751.21 797.03 751.99 798.02 753.94 798.27 756.77 797.26 758.13 798.98 758.63 797.2 759.6 797.69 760.27 799 764.86 797.89 765.21 798.14 766.67 797.14 767.57 798.33 769.28 797.86 769.79 793.48 771.56 793.15 772.45 794.41 774.61 792.48 776.3 793.05 777.91 790.77 779.29 790.7 780.08 788.63 782.66 788.48 783.89 789.36 785.42 788.09 786.05 789.17 787.03 790.88 789.47 787.94 791.55 788.47 792.54 787.23 793.08 787.4 794.25 789.44 792.52 789.94 793.6 788.83 794.34 788.48 795.92 785.77 796.38 786.97 797.28 786.02 798.17 787.24 799.47 789.66 799.11 789.34 800.73 786.66 801.41 785.29 802.65 786.5 803.8 785.48 805.13 786.71 806.4 787.7 806.4 790.13 805.4 791.83 806.24 790.44 808.04 791.11 810.05 791.98 811.16 791.61 813.33 793.36 815.39 793.12 816.67 793.68 819.55 795.45 820.56 795.61 824.1 792.07 823.87 792.81 825.86 792.36 827.27 789.39 827.75 787.59 829.47 786.39 827.63 785.14 828.23 785.6 831.35 784.78 832.73 787.07 832.81 786.88 834.94 785.57 835.79 786.67 836.93 785.13 837.63 784.81 838.39 780.44 841.05 779.22 842.75 775.85 845.17 774.1 845.93 773.05 847.14 773.03 848.48 770.11 851.2 769.04 852.78 769.44 857.86 768.53 858.06 766.78 856.44 765.97 857.1 767.78 859.68 767.4 860.21 765.28 860.14 764.91 861.22 767.25 860.71 768.6 861.33 767.95 863.42 765.92 864.2 765.88 865.78 767.4 865.27 768.75 866.28 766.91 866.9 767.06 868.58 764.53 868.33 764.04 870.11 762.41 870.78 760.44 869.87 758.05 870.28 757.26 872.1 755.98 871.81 755.34 873.29 756.16 875.2 753.51 875.11 754.26 876.62 756.19 877.39 755.91 878.81 754.07 878.5 752.9 880 754.93 881.72 753.85 883.88 754.41 885.47 756.36 885.38 754.41 887.37 751.53 886.94 752.54 888.35 753.49 891.13 743.07 896.52 741.05 897.34 739 897.42 737.89 897.96 736.76 899.42 734.87 899.37 732.53 899.98 730.71 901.76 730.73 902.61 731.9 904.18 728.29 908.51 727.4 912.36 728.91 916.34 729.36 918.44 731.17 921.02 731.8 922.43 734.81 922.85 735.15 921.51 733.05 920.27 734.17 918.97 736.25 919.42 736.68 918.23 736.35 916.87 736.99 914.59 738.86 913.33 740.62 908.14 742.08 907.64 745.26 908.87 747.22 911.03 749.54 912.79 749.92 915.95 750.94 917.51 750.99 919.87 751.39 920.7 752.58 925.73 752.27 928.98 753.18 932.82 753.17 934.27 752.33 936.27 753.94 936.73 753.05 937.92 754.54 939.79 753.56 941.48 754.66 944.04 752.46 944.16 751.3 945.04 752.25 946.15 757.56 946.9 757.84 945.42 759.34 946.81 758.81 948.63 756.76 949.14 756.88 950.41 759.23 951.6 760.81 950.1 761.71 950.03 762.06 951.48 761.73 953.72 759.88 953.25 760.23 954.95 759.37 955.68 756.95 955.63 757.03 957.64 758.05 959.52 757.49 960.17 755.95 959.93 754.83 960.76 754.78 964.38 756.15 964.17 757.5 965.09 754.2 966.29 752.04 966.23 751.31 967.7 751.02 971.58 753.47 971.44 753.64 972.98 751.7 972.8 752.25 974.23 752.31 976.15 753.65 976.73 752.2 977.97 751.04 977.18 748.79 979.42 749.9 980.33 750.31 981.67 749.97 984.17 748.38 984.72 747.72 982.69 745.67 982.13 745.26 983.12 745.87 984.72 742.84 982.77 742.14 982.96 740.84 986.28 738.72 987.48 735.78 989.69 735.03 991.17 734.63 995.32 734.72 996.98 735.3 997.69 736.7 997.45 741.52 995.99 742.51 996.33 743.11 997.5 746.3 998.95 748.13 1000.48 749.78 1003.7 751.79 1005.3 753.91 1005.75 754.54 1006.32 755.37 1009.03 756.56 1010.75 758.32 1010.08 759.55 1010.34 760.55 1011.3 761.16 1015.36 761.87 1018.18 762.85 1019.76 762.36 1021.12 761.07 1021.75 759.14 1021.85 756.58 1023.24 754.47 1025.07 753.33 1025.34 749.53 1023.47 746.79 1026.22 746.65 1026.95 747.18 1033.02 746.25 1036.36 746.47 1038.53 745.74 1040.18 743.01 1040.75 740.95 1041.65 740.5 1042.81 740.72 1046.77 739.69 1047.73 737.91 1047.75 736.98 1048.59 736.83 1053.24 736.11 1055.41 735.7 1058.25 734.35 1058.08 730.86 1058.81 728.77 1060.4 726.7 1063.12 724.96 1065.92 721.89 1068.94 720.79 1070.35 717.02 1073.24 714.96 1074.4 707.55 1077.45 704.02 1079.18 700.77 1079.76 697.43 1079.73 690.09 1078.93 686.16 1078.23 682.12 1076.49 680.71 1074.8 680.92 1073.21 685.03 1067.47 687.24 1063.61 687.79 1062.06 687.02 1060.17 682.66 1056.79 680.22 1055.84 676.59 1054.93 673.88 1055.03 669.4 1054.18 665.14 1053.87 661.75 1055.07 659.58 1056.32 654.71 1059.94 645.71 1065.31 636.9 1069.85 629.17 1074.07 623.48 1077.95 620.83 1079.53 615.56 1083.03 613.52 1085.5 611.67 1090.62 612.34 1092.67 613.69 1093.69 616.71 1094.84 621.31 1096.01 629.31 1096.98 635.31 1097.91 636.59 1098.5 638.59 1100.69 639.5 1102.96 639.38 1104.21 638.53 1105.92 638.24 1108.92 638.4 1110.96 640.07 1115.23 641.45 1119.41 642.85 1126.37 644.04 1131.37 643.43 1133.61 640.49 1136.08 637.79 1139.33 633.55 1143.49 630.96 1143.9 625.92 1139.98 623.93 1137.87 621.91 1134.77 619.97 1132.41 617.87 1130.34 615.63 1128.91 613.01 1127.83 610.51 1127.28 606.74 1127.07 600.55 1126.31 593.65 1125.7 591.25 1126.21 590.07 1127.12 587.65 1130.78 585.06 1133.37 582.5 1136.3 579.89 1138.56 575.32 1141.5 569.68 1144.49 565.37 1148.43 560.91 1151.41 559.01 1153.06 554.66 1155.63 551.13 1158.69 547.25 1162.76 544.69 1164.52 540.09 1167.24 536.61 1169.03 530.97 1172.24 525.07 1175 521.77 1175.99 519.93 1176.29 512.35 1176.94 508.56 1177 504.29 1176.7 501.54 1175.82 499.98 1174.25 499.71 1172.87 503.37 1162.22 506.87 1155.2 507.84 1152.21 507.93 1149.59 506.84 1146.28 506.75 1144.22 507.26 1143.19 510.08 1140.17 509.99 1138.3 509.12 1136.81 505.67 1132.37 504.78 1130.44 504.51 1128.05 505.47 1125.33 508.43 1123.94 511.92 1123.73 515.45 1121.69 516.47 1120.7 518.73 1116.81 519.57 1115.85 523.35 1113 529.19 1106.22 530.85 1103.49 534.61 1093.61 535.87 1089.35 536.32 1085.84 535.99 1083.08 534.62 1079.74 532.57 1077.87 530.56 1077.34 528.23 1077.56 524.44 1079.38 521.84 1080.03 518.57 1079.48 517.48 1078.65 515.69 1075.83 514.89 1075.28 511.34 1074.11 508.02 1073.53 506.24 1073.5 503.93 1073.96 501.82 1074.9 499.4 1076.53 496.75 1078.87 493.38 1082.27 490.22 1084.64 487.65 1085.69 485.48 1085.84 484.41 1085.4 478.22 1080.84 475 1077.3 470.99 1071.7 466.56 1066.7 461.83 1063.06 458.95 1061.45 455.57 1060.51 453.04 1060.83 450.36 1062.15 448.99 1063.36 447.37 1066.05 446.83 1071.27 445.72 1075.76 444.02 1080.54 442.94 1082.59 440.13 1085.05 437.37 1086.45 434.15 1087.53 431.81 1087.68 430.6 1087.14 427.14 1083.56 420.26 1078.47 415.53 1075.23 412.75 1073.54 409.14 1070.44 404.81 1066.06 403.17 1065.09 400.99 1064.49 395.96 1063.75 390.04 1062.47 382.96 1059.86 380.84 1059.53 377.09 1059.76 374.85 1058.69 370.84 1056.08 364.28 1053.64 363.02 1053.02 358.5 1049.76 355.99 1047.5 353.91 1046.61 352.66 1047.08 350.19 1049.33 348.03 1050.27 341.13 1049.42 339.28 1049.62 338.54 1051.02 338.95 1055.04 339.95 1058.4 341.03 1060.84 342.75 1063.01 343.84 1066.06 344.49 1066.96 348.43 1070.23 350.21 1072.07 351.23 1074.57 351.46 1076.42 352.96 1081.43 353.01 1085.29 351.07 1087.87 348.49 1089.51 346.79 1089.58 345.7 1088.44 344.42 1085.75 342.71 1084.6 338.83 1083.27 335.09 1079.78 332.13 1078.19 327.73 1076.4 325.8 1075.11 322.8 1072.54 319.87 1068.69 319.3 1066.77 318.99 1063.18 318.34 1060.11 318.73 1057.45 319.8 1055.44 321.76 1053.1 322.02 1050.19 321.53 1048.64 317.98 1044.22 316.47 1043.26 313.35 1041.96 311 1041.91 306.86 1044.87 303.14 1046.9 299.63 1050.63 299.02 1051.77 298.36 1055.56 297.42 1057.81 298.84 1060.08 299.02 1061.94 298.37 1064.06 297.3 1065.4 295.41 1066.61 290.43 1068.34 287.39 1069.02 282.85 1069.48 278.58 1070.83 274.2 1073.41 272.95 1075.53 272.83 1079.23 272.06 1081.33 269.08 1085.34 267.45 1087.09 264.24 1089.43 261.62 1089.65 259.08 1088.21 255.8 1085.57 249.79 1082.38 244.42 1078.23 242.97 1076.74 240.26 1072.13 239.71 1069.18 240.33 1067.49 246.34 1063.53 248.98 1061.16 252.79 1059.05 255.8 1057.05 257.98 1055.31 259.09 1053.59 259.12 1050.06 259.48 1045.57 259.18 1043.58 255.94 1039.25 248.49 1033.55 247.69 1032.41 244.83 1026.53 244.45 1020.04 244.78 1016.48 245.36 1014.78 246.82 1012.78 249.27 1010.69 249.5 1009.79 247.93 1006.96 246.21 1005.47 241 1002.32 238.29 1001.34 235.83 1001.57 233.09 1003.61 231.56 1005.18 226.61 1007.98 225.19 1009.05 224.16 1010.53 223.42 1013.93 222.77 1015.73 221.54 1017.38 219.37 1018.8 217.31 1019.4 214.39 1019.63 212.28 1019.36 210.92 1017.78 210.81 1016.11 211.96 1011.63 213.43 1007.49 213.8 1005.38 214.85 1002.18 215.11 999.48 215.21 993.06 215 988.17 214.46 985.15 212.63 979.05 211.54 976.87 209.81 974.86 208.59 974.12 206.76 973.75 204.32 974.17 200.72 974.38 193.47 975.14 190.7 976.05 188.93 977.05 185.41 977.96 183.99 978.98 182.21 980.98 181.02 983.69 179.59 986.23 177.72 992.07 177.86 994.5 179.28 998.82 180.57 1003.89 181.22 1007.36 182.11 1010.73 182.2 1012.54 181.52 1017.53 180.22 1017.69 177.31 1017.05 175.38 1015.46 174.12 1013.59 171.91 1007.34 168.83 1001.66 167.18 999.44 166.59 998.08 166.35 995.31 165.73 993.56 164.62 992.58 156.75 987.35 152.26 984.83 150.16 983.33 145.89 977.98 142.75 974.52 140.4 973.53 138.22 973.73 135.24 974.95 134.7 976.12 134.7 980.33 133.14 984.2 132.34 986.91 132.28 988.49 132.75 991.53 132.66 995.52 133.09 1001.34 134.06 1004.09 135.74 1007.16 136.21 1008.56 139.05 1011.17 141.62 1012.24 144.87 1013.92 148.14 1016.28 149.16 1017.38 150.57 1019.81 152.3 1025.35 152.22 1027.18 151.19 1031.72 150.35 1033.66 149.13 1035.33 146.68 1037.51 143.52 1038.39 138.53 1037.49 132.61 1037.12 130.03 1037.3 127.26 1038.1 124.56 1038.48 120.76 1038.09 118.28 1036.92 115.93 1035.35 114.29 1034.63 110.58 1032 106.75 1028.98 105.11 1027.36 102.55 1022.75 100.43 1020.43 98.5 1017.85 97.55 1015.92 96.92 1011.79 96.49 1010.48 94.79 1008.15 92.75 1006.23 91.31 1005.56 87.48 1005.1 84.51 1005.99 80.99 1008.24 78.33 1011.12 76.79 1014.23 76.18 1018.87 75.73 1020.41 74.05 1023.55 72.55 1025.67 69.91 1028.37 65.58 1034.68 63.13 1036.29 60.4 1036.96 57.97 1036.91 56.3 1036.17 53.58 1033.4 52.83 1030.8 52.2 1024.67 51.38 1021.88 50.72 1014.53 49.48 1010.61 49.22 1008.97 48.82 1002.62 47.47 997.65 46.9 996.21 45.81 991.11 45.8 986.27 47.31 984.55 52.44 982.82 57.11 982.9 64.49 982.24 66.99 981.61 73.5 978.6 74.42 977.3 74.1 975.58 72.34 972.89 69.89 967.31 68.4 965.13 66.99 963.91 64.41 962.56 60.5 961.19 56.66 960.31 53.45 960.95 50.43 962.41 48.86 962.75 45.15 962.89 43.07 964.07 42.84 962.83 39.88 958.03 38.86 955.51 39.08 953.09 39.87 951.3 40 949.51 37.86 946.22 33.87 942.73 32.14 941.45 26.58 939.5 23.66 937.27 17.78 930.57 13.85 926.74 6.41 920.95 2.7 917.52 1.38 915.59 1 914.14 1.33 912.37 3.03 910.48 6.55 908.25 8.3 907.6 13.31 906.61 16.12 905.58 18.6 903.72 23.21 899.06 26.62 893.55 28.61 890.71 30.15 887.08 32.18 884.82 33.39 882.86 35.7 880.38 37.14 877.96 37.29 876.18 36.23 873.16 35.32 869.61 33.95 865.33 33.66 863.14 33.88 861.3 35.75 857.91 39.01 854.79 39.69 853.65 40.69 849.72 41.11 844.85 40.87 843.58 39.69 841.57 40.13 837.2 39.46 835.12 37.4 830.39 36.03 828.5 32.92 822.44 31.31 820.31 30.84 818.29 31.36 816.34 33.28 814.16 35.72 812.9 40.46 812.45 45.67 813.03 48.83 812.94 50.68 812.29 52.56 810.43 54.81 807.44 56.49 804.1 57.7 802.46 60.24 800.12 61.8 799.15 70.91 794.43 73.57 793.38 81.36 789.3 85.8 787.55 87.27 786.31 87.76 784.46 86.64 781.07 85.85 779.97 82.28 778.16 79.53 778.17 75.08 780.42 72.06 782.19 69.84 782.13 67.06 781.63 62.73 780.16 57.79 778.1 50.98 775.07 47.84 775.34 45.1 776.29 38.95 778.87 36.92 779.85 30.57 782.2 25.42 783.25 22.92 782.69 19.61 780.25 18.3 778.73 17.2 776.7 16.69 774.43 16.28 765.97 17.17 762.49 18.92 759.46 22.11 755.56 26.4 750.92 28.02 749.41 31.41 744.77 39.39 736.59 43.17 732.98 48.33 730.1 51.47 726.65 54.59 722.25 55.28 719.21 55.33 716.66 54.05 711.83 53 707.15 52.11 705 51.21 703.99 48.03 701.7 45.13 700.08 39.52 697.76 32.05 697.37 27.72 696.05 22.96 693.04 20.51 690.92 17.54 686.87 15.43 682.64 14.9 679.17 15.58 673.89 16.22 671.04 15.65 667.47 14.39 664.18 13.79 661.92 13.14 658.74 12.74 655.07 13.61 652.12 13.69 650.37 13.07 648.39 10.54 644.9 9.14 641.13 9.27 634.85 9.08 632.21 7.02 620.11 7.28 618.26 7.17 615.63 6.75 614.2 4.89 611.29 4.58 608.63 5.57 605.14 6.87 603.18 7.77 600.9 9.07 598.92 10.61 597.75 19.22 596.65 24.4 595.05 25.23 594.54 28.24 591.28 31.48 590.13 32.52 590.57 34.85 593.36 37.03 597.58 39.82 600.89 42.07 602.2 44.62 602.39 50.03 601.22 53.58 600.83 56.75 601.73 64.36 606.53 66.78 608.87 68.14 611.37 69.15 612.15 72.1 612.88 76.22 612.69 77.88 611.64 83.51 606.08 86.49 603.36 88.55 601.93 96.48 598.6 98.92 597.05 100.76 594.91 101.23 593.84 101.37 591.54 100.62 589.44 98.43 585.81 95.79 582.88 93.33 580.94 92.11 578.4 89.36 574.7 86.41 572.17 83.73 570.49 80.25 569.99 76.75 570.49 68.15 571.41 65.28 572.01 59.85 572.34 52.81 571.41 46.6 571.37 43.33 570.79 38.06 568.63 35.26 566.78 32.82 563.88 30.74 559.81 30.53 558.76 29.96 551.17 30.3 547.28 29.77 543.14 29.87 540.09 31.12 537.19 34.65 533.85 38.69 530.84 41.46 528.46 42.01 526.86 44.58 523.49 46.19 523.35 48.37 522.14 51.5 519.81 54.68 516.82 56.15 515.97 60.84 514.92 65.37 514.22 67.7 514.39 69.4 515.41 71.32 517.77 72.38 520.01 74.39 522.58 77.75 524.1 80.72 524.99 85.72 526.2 93.31 527.6 101.28 529.63 106.11 531.64 108.7 531.93 110.39 530.92 111.24 529.75 111.92 527.5 112.13 525.06 111.91 522.18 111.51 521 109.48 517.76 104.31 513.84 100.7 511.42 99.22 510.18 97.89 508.41 97.11 506.61 95.59 500.47 96.08 498.15 98.58 493.75 99.58 489.92 99.41 487.76 98.02 483.14 96.48 480.02 92.46 473.86 89.85 469.28 87.43 466.59 84.5 463.73 79.74 459.57 77.46 457.17 76.82 455.23 77.72 453.83 81.53 452.34 87.47 450.82 89.32 450.94 92 451.67 97.79 452.58 103.21 452.68 105.91 452.37 113.9 450.89 121.21 451.5 122.99 451.12 124.11 450.19 125.4 447.12 125.24 444.68 123.47 439.58 123.36 437.72 124.2 432.62 123.63 429.94 122.52 427.34 121.5 426.43 116.78 424.32 115.01 421.87 112.82 417.33 111.3 413.38 109.53 408.12 107.52 405 106.1 400.55 104.53 397.53 103.99 395.51 105.89 393.28 110.13 390.07 114.8 386.85 116.95 385.11 119.43 382.44 121.73 380.34 125.53 375 127.65 372.85 130.22 369.57 131.39 368.55 135.75 366.72 140.21 364.15 143.99 362.33 152.1 359.03 156.78 356.19 160.66 354.47 164.84 353.62 173.96 357.81 177.06 359.76 231.78 276.39 229.22 274.33 227.92 274.09 222.68 273.84 215.13 271.79 211.75 270.32 210.08 270.62 207.94 269.99 206.15 267.29 203.77 267.81 201.85 269.46 197.35 270.2 195.72 269.38 191.68 269.07 189.11 268.3 185.12 265.23 182.88 265.59 181.13 267.4 179.41 266.51 175.98 266.02 175.25 264.22 174.49 264.14 172.53 262.47 171.87 261.39 169.7 261.12 167.33 259.02 166.71 257.7 164.87 256.2 165.19 254.66 164.64 253.02 163.06 251 161.66 250.6 159.45 251.3 160.15 253.61 160.06 254.8 158.93 256.64 157.32 257.85 153.94 259.81 151.97 260.57 155.44 256.88 156.8 254.89 156.98 253.03 156.17 248.49 156.61 246.44 158.53 244.28 162.85 241.32 174.82 232.34 176.43 230.79 179.77 228.38 181.91 226.46 185.32 224.57 187.6 222.71 190.03 220.31 190.81 218.96 191.82 214.7 191.43 212.47 189.74 211.2 187.33 210.95 184.77 211.08 181.09 212.36 175.95 215.81 174.16 216.75 167.63 218.49 163.13 220.79 159.55 221.96 155.43 222.42 149.89 221.91 146.51 221.09 140.97 218.86 140.67 218 141.35 216.15 143.06 214.28 146.24 211.77 151.15 207.2 155.02 203.02 157.49 200.93 159.81 198.39 162.17 191.73 162.5 189.31 163.64 187 164.35 182.73 164.43 180.11 165.76 176.02 165.1 171.86 163.05 169.73 161.39 169.49 158.58 169.8 153.33 168.44 149.19 168.23 145.66 167.25 143.12 165.76 139.29 161.7 136.33 160.42 134.23 159.18 133.89 157.03 134.04 155.17 135.73 150.73 139.07 144.47 139.91 140.87 141.39 139.7 143.8 138.9 145.86 138.63 149.12 139 152.72 140.09 157.24 139.39 158.33 138.86 161.29 135.14 162.94 131.22 164.88 127.62 164.7 123.31 165.13 122.05 167.54 121.17 171.08 121.21 173.18 120.6 177.75 117.85 181.92 117.66 182.5 117.26 183.72 114.84 183.98 111.92 185.93 110.36 187.8 110.27 191.85 111.55 195.79 112.03 200.86 111.85 207.15 113.14 211.84 113.2 213.22 112.62 213.81 111.39 213.71 109.66 212.54 107.54 211.78 104.69 211.51 102.48 210.68 99.84 209.16 98.02 207.02 96.14 205.6 95.35 204.67 92.28 204.93 89.41 205.52 87.68 206.21 87.3 208.63 87.33 210.48 88.01 212.71 88.26 214.57 87.25 215.54 85.57 220.29 85.41 227.28 86.63 230.31 86.28 233.82 86.57 235.47 86.03 239.62 82.93 245.14 80.39 248.62 80.03 250.8 80.67 252.62 81.81 253.77 83.06 254.66 86.03 254 89.07 253.72 91.64 256.24 94.06 259.36 95.02 263.51 95.06 265.05 95.55 272.71 97 276.44 97.08 279.81 98.49 285.09 101.79 287.33 102.67 290.15 101.98 291.09 100.95 292.25 95.15 295.43 93.05 297.45 90.88 299.7 89.57 301.53 87.36 301.94 85.72 307.68 79.9 308.61 77.9 309.38 74.2 309.04 73.03 306.63 70.83 304.51 69.59 300.68 68.15 298.09 66.34 295.92 64.3 295.93 62.64 297.76 60.99 298.41 58.74 300.35 57.67 302.98 56.76 305.65 56.55 306.9 56.83 309 58.72 310.25 60.39 311.92 61.05 315.11 61.37 320.33 61.36 322.89 61.56 326.86 59.83 329.55 58.17 332.5 57.37 334.21 56.61 335.09 55.55 334.93 54.55 331.18 50.73 325.64 44.61 321.67 43.23 320.53 41.51 319.82 37.93 317.84 35.04 317.9 33.91 320.8 31.58 321.98 29.03 324.3 28.07 327.58 26.1 333.45 20.23 338.99 18.38 341.9 16.71 344.73 15.82 350.15 15.51 356.61 16.12 358.33 16.12 360.32 16.67 362.24 16.49 364.02 15.6 364.6 14.81 365.47 10.79 366.09 8.98 367.19 7.6 368.51 4.71 369.93 4.44 374.75 5.17 379.55 5.33 381.17 6.01 382.96 8.42 382.71 9.72 381.01 10.59 377.51 11.85 371.16 15.83 368.74 18.07 368.79 19.21 370.15 21.03 370.39 24.06 370.03 27.93 370.5 29.76 372.09 32.49 373.11 34.8 374.4 35.96 377.51 36.75 378.4 36.49 381.82 34.42 385.95 32.51 388.75 31.44 390.07 31.24 392.58 31.6 395.28 32.57 402.15 33.65 410.81 36.14 415.79 37.7 417.91 37.73 420.61 36.21 422.17 34.73 426.75 28.69 428.67 25.95 432.36 22.77 433.04 21.91 432.75 19.97 430.36 17.54 429.03 15.81 430.06 14.72 433.71 15.23 433.73 12.5 434.81 11.54 435.58 8.38 436.24 7.03 437.69 5.51 437.46 4.14 439.29 2.68 440.53 1.16 442.58 2.04 442.14 3.86 443.67 4.28 444.93 2.19 447.29 1 448.76 1.25 449.14 2.82 450.59 4.4 453.88 5.35 454.07 6.73 452.93 8.48 455.16 10 455.77 11.7 458.12 11.93 458.01 13.51 460.17 13.26 460.28 14.76 461.38 15.79 461.42 17.96 462.16 19.73 463.77 19.28 465.64 19.28 466.65 19.85 469.34 18.76 467.08 16.72 467.88 15.95 467.75 13.64 471.63 13.6 473.03 15 475.82 13.8 478.08 13.41 480.54 13.73 483.17 13.29 484.82 13.37 487.63 12.22 487.56 10.8 486.64 10.47 487.63 7.72 489.46 7.21 491.29 8.19 493.85 7.72 494.48 6.38 496.61 6.14 497.12 7.35 498.34 7.5 499.7 6.7 500.74 7.55 500.64 9.82 502.02 9.91 502.85 8.79 502.26 7.53 504.46 6.01 505.62 5.91 505.5 7.77 509.47 8.17 511.05 9.62 511.61 11.22 512.94 11.55 514.59 12.65 517.74 13.11 520.32 17.19 524.15 18.17 525.15 20.3 530.68 18.78 533.03 16.9 534.36 18.26 536.3 23.5 539.14 23.92 538.38 25.53 540.75 28.31 540.94 31.17 540.15 32.26 540.19 34.72 541.28 36.14 542.54 36.76 544.02 38.75 544.02 41.28 542.06 42.76 542.42 46.51 542.15 48.34 541.42 49.16 541.33 52.49 540.66 52.9 540.26 55.74 541.39 57.77 541.54 59.61 542.46 59.97 545.43 59.66 546.42 59.18 550.68 60.64 551.19 61.9 553.11 62.44 553.63 63.75 555.9 65.41 558.46 67.87 558.73 69.7 556.25 72.2 556.68 74.39 555.49 76.26 555.23 79.37 552.48 80.72 550.42 82.86 548.85 86.03 549.96 87.81 550.35 90.13 549.81 92.34 550.94 93.12 551.8 92.55 553.03 93.99 556.84 94.7 586.72 62.85 586.76 61.14 588.16 61.01 589.83 61.52 591.09 62.86 592.16 64.98 592.11 66.06 593.04 68.03 596.14 70.31 596.69 71.31 595.81 72.6 597.24 72.78 597.58 74.33 597.11 75.55 598.57 76.88 601.8 78.12 607.35 78.76 610.17 81.16 609.97 82.42 610.57 83.26 609.98 85.77 610.01 87.06 612.99 88.75 617.1 91.63 617.8 93.27 618.31 95.78 620.47 100.11 622.25 102.48 623.77 103.74 623.07 106.52 623.49 107.46 623.09 110.96 622.64 112.05 623.16 113.52 623.49 116.71 622.16 119.54 623.96 122.14 622.32 124.43 622.3 125.81 622.9 127.44 624.02 128.22 626.56 128.31 627.2 129.23 626.38 131.06 625.15 131.86 624.21 133.49 624.49 134.75 622.11 136.94 623.38 137.58 624.48 137.04 629.77 138.82 633.34 141.19 634.32 142.48 634.13 144.12 632.14 146.79 631.05 147.15 629.7 148.71 629.8 150.17 628.86 151.7 626.56 153.25 626.62 156.98 627.31 158 627.29 160.41 626.34 163.87 627.88 165.07 628.48 166.59 627.72 167.74 628.7 168.64 629.85 171.53 631.16 173.23 630.48 174.25 632.96 178.3 632.01 180.42 633.27 181.06 Z"/>
</g>
</svg>