<?xml version="1.0"?>
<svg xmlns="http://www.w3.org/2000/svg" version="1.2" baseProfile="tiny" width="800" height="758" viewBox="0 0 800 758" stroke-linecap="round" stroke-linejoin="round">
<g id="4204608">
<path d="M 405.86 10.68 405.72 22.04 409.51 22.26 412.42 23.24 421.82 23.7 428.07 22.96 431.14 22.89 435.5 24.44 437.61 25.69 440.46 29.76 441.94 32.67 446.2 33.33 446.68 32.5 449.42 31.48 452.16 31.32 454.09 30.38 458.77 30.42 464.22 29.62 464.4 31.13 466.21 32.46 468 37.18 469.57 39.36 470.02 41.77 473.63 40.37 478 40.05 481.72 41.46 484.06 41 486.42 41.37 486.04 39.33 487.56 37.52 489.4 37.18 489.37 34.16 490.51 32.85 490.96 30.18 492.29 29.14 492.67 27.42 494.47 25.03 495.78 24.46 496.23 21.1 497.63 20.58 499.33 21.28 501.71 20.51 504.1 21.57 505.4 23.1 507.88 23.86 508.25 25.88 512.03 26.21 514.55 28.01 517.03 27.4 520.55 27.45 520.84 28.92 523.1 29.11 523.25 30.53 525.85 30.19 526.4 29.25 529.37 29.61 531.22 28.74 534.07 29.47 535.23 28.45 537.58 28.88 540.1 30.33 542.41 29.13 544.14 29.55 546.24 27.22 548.84 27.3 549.05 25.8 551.34 26.71 554.59 26.49 561.78 26.8 567.4 26.77 568.54 27.15 570.36 30.9 572.28 32.29 575.06 32.73 580.99 32.68 584.28 33.99 588.03 35.98 590.11 35.93 591.81 35.01 593.79 31.76 595.05 30.94 600.72 29.1 602.99 27.5 611.22 23.14 613.19 21.83 613.68 20.44 620.62 20.91 621.23 19.67 622.85 19.62 628 16.91 638.41 17.03 640.52 17.63 643.26 19.38 644.77 19.39 647.61 22.23 648.49 23.65 647.07 26.85 646.79 29.44 647.9 29.88 647.67 33.14 654.62 40.09 657.7 42.01 657.79 43.15 659.7 44.01 663.78 43.58 665.28 42.55 666.9 42.95 667.3 45.39 666.94 47.13 668.75 47.18 671.78 48.57 672.06 50.29 674.28 50.91 678.1 53.02 681.42 52.15 683.28 52.44 683.66 55.2 684.61 56.29 689.64 57.7 690.48 58.7 692.56 58.47 694.75 59.17 695.03 60.1 701.16 62.05 705.36 60.83 707.8 60.9 709.71 62.39 712.35 63.48 715.36 63.39 716.72 66.9 721.36 69.94 722.42 72.03 725.61 71.8 727.63 73.27 728.35 74.96 728.43 78.88 729.33 82.42 735.06 89.95 736.16 91.14 738.81 91.93 746 92.4 747.49 92.87 750.12 96.18 759.12 104.7 762.23 107.35 764.21 109.55 765.38 112.35 767.95 114.02 769.44 114.13 771.37 115.8 772.73 121.72 774.73 123.99 778.48 125.55 787.95 127.47 792.01 129.39 795.32 133.11 799 140.66 769.43 140.47 759.51 140.48 747.76 140.17 743.4 139.09 740.44 138.8 732.62 140.73 729 142.69 725.61 145.84 721.36 148.58 715.53 148.18 709.9 151.23 693.88 159.35 691.79 159.34 687.41 157.31 685.1 157.01 678.82 156.97 668.12 159.48 656.05 160.66 651.55 159.95 645.89 157.24 643.44 157.13 635.78 159.55 632.24 159.38 625.1 156.28 620.65 155.05 602.88 152 598.91 151.23 591.54 148.45 585.74 148.59 582.03 150.25 578.71 153.46 576.05 154.38 574.4 154.38 570.6 152.88 568.1 153.16 560.84 155.57 555.26 155.83 553.25 156.46 548.9 158.6 545.4 159.28 542.5 158.85 540.35 157.56 537.6 155.05 535.05 154.71 533.8 155.24 530.48 158.31 528.74 159.32 525.66 160.14 518.12 160.83 515.43 160.68 512.01 159.2 506.45 156.31 502.48 155.49 495.41 156.25 495.17 170.68 495.27 183.53 495.74 183.51 496.31 201.49 495.95 217.5 496.38 225.31 496.25 230.32 497.33 241.12 497.01 255.39 498.41 261.74 500.36 264.96 501.09 267.05 501.59 270.87 500.51 274.23 499.66 282.14 499.74 287.47 498.2 300.74 496.21 318.94 492.34 351.96 489.04 382.48 486.07 408.55 485.51 412.82 411.73 416.16 414.77 465.79 417.83 518.95 419.12 537.33 421.06 569.79 421.99 589.3 430.83 757 417.5 750.8 317.46 703.82 275.52 684.66 272.61 683.43 236.29 658.18 192.84 627.59 180.29 618.29 176.66 616.32 173.16 615.35 172.89 614.52 176.43 614.02 180.07 611.19 183.73 609.6 186.62 609.93 191.52 606.97 193.08 605.15 191.26 603.27 192.66 600.47 190.78 599.81 186.06 601.33 184.17 600.89 183.78 599.43 186.18 599.14 181.11 595.51 182.8 594.21 186.12 597.34 186.99 597.03 186.02 591.92 187.98 592.07 189.88 593.1 193.23 593.24 195.49 594.83 197.29 593.56 196.84 592.58 193.63 591.13 194.4 589.27 192.34 587.08 189.49 583.02 188.54 579.03 185.52 577.54 188.96 576.43 186.31 574.89 185.34 571.69 184.54 571.05 182 571.28 181.9 570.15 183.45 568.14 184.6 567.91 187.03 572.23 189.16 572.34 190.27 569.43 192.9 569.94 197.16 568.35 196.39 566.83 194.28 568 193.51 566.8 195.28 564.4 197.59 564.38 198.08 563.49 197.24 561.27 199.01 557.38 196.82 555.31 196.64 553.7 202.82 554.16 200.2 547.39 198.54 547.19 194.62 548.56 195.06 544.23 189.59 548.19 188.56 546.1 185.96 545.07 186.38 543.5 187.79 543.06 190.7 543.34 191.54 542.4 188.85 540.92 189.08 539.86 192.62 539.62 193.42 538.8 190.39 535.72 190.67 534.84 193.93 533.96 195.11 532.28 193.2 529.4 196.97 526.57 197.51 525.29 196.16 524.05 192.77 523.11 190.78 523.27 189.62 524.23 185.63 522.75 184.84 520.99 182.96 520.21 183.59 518.32 184.43 512.71 183.36 511.31 180.18 510.3 179.12 507.98 178.02 507.81 176.73 510.92 173.05 512.15 171.57 509.91 169.25 510.09 168.98 508.78 170.22 505.66 169.38 502.04 168.09 500.51 171.66 500.37 173.72 502.89 174.71 502.38 174.15 497.79 175.45 495.55 174.27 493.52 171.76 493.16 171.38 492.26 172.21 487.7 171.93 485.58 167.68 485.45 165.2 484.19 162.26 480.67 162.63 479.32 164.54 478.2 162.69 476.59 160.88 476.17 161.21 473.6 160.73 469.17 160.29 468.5 157.07 469.7 154.68 469.37 153.85 465.5 152.01 463.18 149.39 461.95 146.28 461.68 143.33 460.47 142.42 459.12 145.23 456.83 146.35 456.68 148.26 457.99 152.66 459.53 153.72 459.47 158.88 453.33 156.53 452.6 155.28 453.36 151.47 453.53 146.15 451.74 145.17 449.5 146.97 447.84 151.26 448.38 153.46 447.71 155.61 445.54 152.63 442.79 152.74 439.96 158.06 439.93 161.51 439.38 162.63 437.97 162.91 435.71 162.1 435.29 156.36 435.51 154.43 434.99 153.56 433.66 153.99 432.34 156.84 430.68 156.79 429.81 153.72 428.04 152.24 426.34 151.54 424.33 152.92 423.87 158.41 424.39 161.53 423.59 161.62 422.4 159.9 419.99 154.69 418.56 152.93 417.59 152.51 415.87 153.79 415.16 159.46 414.76 164.12 417.67 166.44 419.87 171.14 422.89 172.5 422.9 174.24 421.19 174.2 416.9 173.67 414.31 172.65 412.42 173.41 410.16 180.2 410.53 182.03 412.2 183.52 415.14 186.19 415.44 189.24 411.69 188.88 409.23 185.46 405.06 182.22 403.72 180.93 401.33 181.92 398.59 183.16 398.36 184.21 399.92 183.53 400.96 184.66 402.56 185.98 402.71 191.23 399.44 195.34 404.63 197.92 406.43 203.41 404.57 207.19 401.31 208.7 397.54 210.92 395.6 212.28 395.3 215.14 395.9 216.33 394.17 215.72 391.04 216.46 388.9 217.95 386.74 220.64 384.71 221.73 381.8 223.27 379.51 226.56 377.25 236.15 369.42 238.35 367.14 240.31 364.01 242.2 359.03 242.41 356.36 240.37 352.41 238.19 349.87 231.34 341.1 229.5 338.21 225.09 321.62 224.97 320.31 222.85 315.87 221.59 314.17 213.26 306.37 208.64 303.35 200.73 300.1 198.37 298.12 196.12 294.72 194.81 289.39 192.79 276.08 189.23 274.41 186.23 271.17 148.69 270.66 80.5 270.85 13.54 271.04 4.19 270.8 1.89 268.69 1 265.97 1.19 261.8 2.06 259.28 6.38 260.04 8.99 261.51 12.97 259.47 13.7 257.47 13.53 255.73 12.35 252.99 11.51 248.87 7 242.86 10.4 241.53 10.1 239.38 8.86 238.28 10.23 237.13 11.48 234.96 12.04 232.14 11.43 229.71 12.15 226.56 11.57 225.24 12.69 224.01 12.66 220.88 13.6 217.82 16.64 218.98 17.35 217.61 19.51 216.9 22.46 217.74 25.17 214.26 26.22 209.88 25.38 208.59 24.49 204.13 22.93 202.39 24.84 200.66 28.53 201.18 33.49 200.46 35.45 198.52 37.1 197.64 37.16 193.67 38.36 192.78 37.65 190.67 40.82 190.1 43.03 187.36 44.17 186.67 44.81 184.78 51.81 179.87 52.1 176.54 52.74 175.63 54.79 175.44 55.57 172.28 56.82 170.38 57.24 167.11 59.07 167.41 62.11 162.88 60.88 161.35 59.66 157.64 58.31 156.14 58.03 154.53 56.4 153.22 54.11 152.78 53.35 149.86 52.09 149.5 49.11 146.9 48.33 144.49 45.42 141.32 46.88 139.18 48.24 138.37 47.83 135.72 49.94 132.39 49.78 129.89 48.03 126.8 51.45 125.27 55.97 121.13 58.17 117.7 60.43 117.26 61.04 115.17 66.57 111.46 69.23 108.49 68.07 106.3 65.64 106.09 66.1 104.78 74.69 102.9 76.34 101.91 78.08 99.3 77.3 95.8 75.75 91.91 76.1 89.09 75.61 85.65 76.58 84.1 76.52 81.09 77.72 79.28 89.08 1.57 172.92 6.75 257.2 11.96 323.23 1.24 324.99 2.37 333.29 5.75 335.65 7.29 338.26 7.81 340.41 9.88 341.99 10.72 345.07 10.44 346.07 8.59 348.11 6.74 353.33 5.5 356.72 3.53 360.81 1.6 363.97 1 367.28 1.61 370.14 2.77 377.09 5.53 383.97 7.66 388.27 9.48 390.17 10.8 393.86 11.25 398.79 7.96 400.21 8.04 405.86 10.68 Z"/>
</g>
</svg>