<?xml version="1.0"?>
<svg xmlns="http://www.w3.org/2000/svg" version="1.2" baseProfile="tiny" width="800" height="998" viewBox="0 0 800 998" stroke-linecap="round" stroke-linejoin="round">
<g id="4205159">
<path d="M 656.83 323.91 657.52 327.09 660.08 331.28 661 335.76 660.24 341.38 660.65 342.76 662.96 345.92 668.31 347.57 669.41 348.82 671.2 353.76 673.25 355.61 677.79 357.75 678.79 358.95 679.04 361.54 680.89 366.43 681.09 368.38 684.23 371.33 686.48 372.42 691.32 378.11 693.52 379.06 696.71 379.46 699.66 378.56 704.8 380.81 707.4 382.95 712.24 384.68 714.11 386.25 715.88 393.03 716.63 397.57 716.13 399.12 711.89 402.07 707.66 405.93 705.31 409.04 702.07 412.45 701.26 417.44 703.15 423.48 703.4 432.06 704.75 438.5 702.5 447.97 702.7 451.52 706.03 455.12 709.93 457.88 714.04 463.9 716.03 464.25 720.98 463.8 724.22 462.65 725.97 462.9 727.66 464.5 728.56 467.14 729.21 470.78 729.11 473.88 731.66 477.36 733.8 479.22 749.88 486 758.07 488.2 763.96 490.5 766.5 490.85 769.15 491.79 772.11 495.91 774.7 496.61 778.71 500.8 781.74 504.57 783.43 504.97 792.51 509.26 793.36 511.56 793.11 514.8 792.16 516.95 792.01 522.93 791.66 525.68 789.97 528.17 788.52 531.32 785.63 533.56 784.27 535.56 783.16 538.26 781.53 540.9 781.73 542.65 782.88 545.19 790.7 548.17 792.77 551.58 793.18 554.02 792.12 557.1 788.82 562.04 788.87 565.19 790.25 571.41 789.94 574.96 790.33 579.49 788.62 584.51 788.2 588.82 789.79 591.25 790.62 595.06 790.6 597.82 789.2 602.55 789.25 607.79 788.31 612.18 784.06 617.67 783.46 619.52 784.41 626.9 783.21 632.44 783.21 635.79 782.71 637.73 780.92 640.78 780.04 643.37 780.17 646.32 782.22 651.51 783.32 653.58 785.85 654.03 791.55 657.81 794.77 658.84 797.66 658.96 799 659.53 775.17 683.37 770.35 683.36 764.99 682.92 761.59 684.19 756.19 683.95 753.5 683.32 749.28 681.77 745.43 681.37 740.48 680.2 737.89 681.35 734.8 685.6 730.15 687.5 727.14 690.16 723.06 690.71 719.52 693.26 718.46 695.63 718.79 698.3 717.03 702.23 716.46 706.83 715.58 709.47 710.88 711.84 708.11 713.71 704.54 714.8 698.58 715.15 692.55 715.97 690.65 715.52 688.23 715.94 678.26 721.04 674.06 722.69 664.41 727.14 659.15 731.16 656.35 736.28 657.84 741.28 658.22 744.33 656.86 747.09 655.42 748.88 652.13 750.77 645.7 753.16 638.36 756.61 636.26 760.74 633.38 762.09 629.56 763.13 627 763.38 621.78 763.29 616.82 764 614.54 765.32 612.54 765.64 606.55 764.75 604.1 763.65 602.59 763.77 595.7 762.71 588.8 767.34 586.14 768.07 581.84 771.66 578.82 777.09 577.16 779.38 571.99 782.68 569.71 786.08 568.75 788.79 567.46 790.18 563.71 792.96 559.56 795.22 555.17 796.67 553.76 799.26 553.49 801.2 554.07 805 553.53 807.76 555.61 812.55 556.31 815.69 557.5 818.63 559.63 820.61 560.29 822.02 561.46 831.17 561.54 833.42 562.35 836.05 562.19 838.2 560.59 839.39 556.46 840.91 553.06 840.77 550.35 842.48 547.98 845.18 546.09 846.33 543.38 849.05 538.33 852.03 536.73 853.73 535.24 857.44 536.79 859.75 538.29 864.26 541.85 868.17 543.08 870.54 542.06 873.04 538.82 876.79 535.95 881.01 531.89 884.38 522.41 889.98 513.71 892.47 508.34 893.05 505.97 894.31 500.82 901.71 500.14 903.63 500.44 905.25 502.27 909.29 504.71 911.86 505.51 915.41 505.09 918.45 503.36 920.4 502.22 922.67 501.34 926.31 499.3 930.25 497.9 937.01 498.33 939.33 499.73 940.45 502.79 941.35 506.21 941.58 509.58 943.35 512.15 947.92 512.35 950.17 510.65 954.41 510.55 958.4 508.76 960.4 503.21 963.94 492.93 974.52 487.93 977.67 487.43 980.74 487.74 983.6 487.13 985.44 479.45 991.69 477.8 991.84 474.36 991.14 467.42 992.63 463.28 994.53 461.28 995.03 458.29 997 456.96 996.26 454.07 992.22 452.35 991.53 449.2 987.07 446.31 985.7 442.62 985.16 439.84 983.48 439.79 980.36 438.07 975.8 438.37 971.98 437.9 966.34 438.32 960.35 436.62 956.83 433.98 953.16 433.68 949.9 435.13 943.91 434.29 941.34 432.48 939.81 430.16 935.49 424.04 930.98 422.31 930.34 419.6 927.75 418.02 924.69 414.93 922.02 413.75 920.05 412.38 916.41 410.83 907.53 408.01 902.04 407.46 898.82 406.09 893.98 406.96 891.31 407.01 889.39 405.37 885.82 402.7 883.22 403.82 880.68 403.92 878.43 402.72 876.04 404.14 868.33 403.99 865.78 404.54 864.66 408.51 862.76 409.04 861.98 409.14 858.91 408.31 856.66 409.14 854.67 410.71 853.24 411.33 850.4 410.63 847.6 410.96 846.08 412.85 842.56 412.56 839.77 411.81 838.27 407.81 835.7 407.84 831.91 406.09 830.26 402.47 828.47 401.35 826.98 397.08 818.97 396.48 816.36 395.28 813.9 393.86 812.7 393.19 810.1 393.64 808.4 395.38 806.51 397.03 802.94 395.61 798.72 396.58 794.86 395.26 789.02 395.48 785.6 396.31 783.08 395.76 780.63 394.38 779.31 392.11 778.69 391.36 777.19 391.54 774.59 394.53 768.68 394.41 767.18 393.05 765.09 393.39 761.44 392.94 758.58 393.91 754.41 395.18 752.31 395.21 751.06 391.67 748.19 390.04 743.22 388.84 741.97 381.6 740.81 374.49 738.8 371.65 737.3 370.75 735.26 371.15 731.02 370.35 729.37 367.55 726.13 365.9 725.38 360.36 724.03 357.57 721.58 346.44 719.44 343.39 719.29 340.84 719.89 336.9 723.41 329.29 727.95 326.34 730.04 323.23 730.54 318.81 733.99 316.88 734.53 311.14 734.96 303.82 736.42 300.72 737.93 297.81 737.88 293.52 739.6 290.17 739.97 287.38 738.95 283.61 740.67 282.14 740.6 276.12 738.38 271.14 739.77 268.44 739.87 264.5 740.55 262.25 740.32 260.12 741.09 258.28 742.63 255.64 745.91 252.37 747.28 243.65 746.71 241.56 745.86 236.29 746.14 228.85 745.64 226.36 742.59 219.77 744.71 218.52 747.98 216.07 749.13 213.8 748.21 212.8 744.59 211.23 742.97 209.01 742.82 207.99 741.94 209.78 737.6 208.04 736.11 208.09 731.66 207.14 730.34 204.27 730.12 202.3 731.61 199.79 730.13 196.53 730.77 195.81 729.79 196.21 724.83 197.38 721.71 197.35 717.89 194.47 717.69 193.57 719.24 192.96 725.11 191.45 729.44 189.64 731.77 188.41 732.14 185.04 731.43 183.26 731.7 180.72 733.29 180.03 737.61 177.93 739.26 175.41 739.83 173.22 739.08 171.46 739.63 169.15 739.34 168.5 738.29 163.01 735.2 159.24 736.34 157.37 736.15 155.55 732.94 152.67 732.38 148.55 729.45 145.75 729.7 143.11 728.79 141.71 728.95 140.1 730.81 137.46 731.51 131.2 732.12 127.42 730.51 126.53 729.58 125.2 726.49 125.25 724.72 127.01 721.78 127.68 718.67 126.88 717.02 125.2 715.78 124.4 712.18 127.9 708.53 130.23 707.03 130.29 705.17 126.75 703.92 124.45 702.28 122.13 699.36 122.48 695.33 120.77 692.73 120.78 691.35 122.09 689.05 121.79 686.53 119.4 681.49 118 677.25 115.55 675.04 114.13 672.52 112.28 672.7 109.2 675 103.22 673.74 101.2 674.11 98.82 673.31 98.79 667.31 99.84 665.67 100.43 661.59 99.65 660.07 98.16 659.14 96.81 657.26 95.3 653.68 95.65 651.84 97.93 648.43 98.52 646.36 95.82 644.26 95.17 642.94 94.47 637.49 92.58 635.39 89.46 634.63 87.63 635.83 83.56 634.59 80.4 630.28 79.49 628.18 79.99 622.51 82.25 615.6 83.65 613.25 84.94 608.65 82.82 601.96 78.88 599.7 76.89 599.39 74.26 599.93 71.14 599.62 67.57 601.22 64.26 601.22 60.21 602.59 57.67 601.73 55.87 599.26 51.62 598.25 48.98 594.47 46.65 593.93 44.98 592.13 45.72 589.49 42.13 587.02 41.1 584.93 41.46 583.1 40.36 580.76 40.25 579.07 38.7 577 38.57 575.59 39.32 572.59 39.5 568.29 36.64 565.83 32.34 565.05 32.3 560.63 29.56 559.12 26.77 554.5 23.89 551.41 23.73 550.06 25.28 546.8 25.14 543.44 20.42 540.01 19.89 536.61 18.52 535.31 15.22 533.65 14.64 532.18 15.25 529.81 15.76 525.48 17.26 522.62 16.95 520.81 13.15 518.77 11.68 516.92 11.61 514.36 12.1 511.53 11.6 506.25 9.95 500.89 7.28 490.3 5.35 487.89 2.14 485.67 1 483.57 1.28 481.13 2.93 478.3 3.31 475.92 1.47 472.26 2.51 469.42 4.4 468.06 7.27 468.05 11.15 465.03 16.8 463.59 19.04 462.44 22.54 459.19 24.01 458.78 26.19 459.23 28.22 461.3 30.19 461.99 32.9 462.15 35.16 461.71 36.48 460.63 37.38 458.19 38.98 457.66 40.03 454.21 43.87 448.86 44.88 445.31 46.26 444.11 48.8 439.27 50.72 437.43 53.67 435.68 57.13 434.81 61.8 435.16 64.25 436.41 65.55 438.82 67.04 439.77 70.77 439.13 72.75 438.35 74.89 436.29 76.45 435.94 79.15 436.78 81.72 439.04 84.45 438.2 90.79 439.12 94.18 440.08 96.43 439.96 99.97 438.06 101 436.72 112.73 434.68 115.55 434.45 118.96 435.39 120.52 437.15 124.8 438.63 127.94 438.78 129.12 438.24 133.82 433.44 135.49 432.19 139.08 431.33 141.85 431.89 144.44 433.67 144.92 437.29 146.57 439.97 146.58 442.07 147.62 443.63 150.81 443.71 152.77 441.66 155.51 440.6 157.34 441.01 158.47 442.12 160.75 446.34 162.64 448.08 166.17 449.32 170.33 448.85 171.41 449.4 174.87 453.95 178.18 456.87 183.13 457.76 187.26 461.24 188.35 463 188.62 467.08 189.91 468.61 195.1 471.53 198.09 471.77 202.22 474.91 206.48 476.2 209.69 476.08 215.18 474.1 218.05 472.47 217.68 468.4 218.83 466.18 222.83 463.19 223.57 462.26 223.69 459.12 222.13 455.9 221.22 452.29 221.22 449 222.01 443.91 221.44 435.93 221.93 435.06 226.82 431.55 229.56 429.1 229.71 426.96 228.27 424.38 226.49 420.15 224.51 416.91 223.34 412.29 225.62 407.74 226.02 406.11 224.58 403.59 221.27 401.91 219.68 399.14 219.34 397.01 220.08 392.36 217.95 387.68 216.77 385.96 216.72 384.08 218.76 381.05 219.1 378.95 217.43 376.24 213.65 371.46 214.84 368.55 218.42 365.46 219.71 360.96 217.99 359.37 213.08 358.57 212.12 357.82 210.41 354.76 206.58 349.17 205.59 347.07 201.59 342.94 198.97 338.76 199.12 335.45 200.63 332.58 202.88 329.69 204.02 325.34 207.85 319.92 210.69 316.76 211.76 313.64 211.54 311.74 209.75 309.56 209.04 303.9 208.22 300.17 209.09 295.08 211.03 291.5 215.64 286.74 216.38 285.24 216.09 280.98 213.39 278.02 213.09 276.61 214.38 269.19 213.97 265.76 219.58 259.93 222.09 254.45 224.02 253.42 227.61 253.16 233.47 253.29 237.87 253.76 243.41 250.99 246.18 247.83 249.79 244.84 253.33 243.48 257.34 243.92 261.47 246.42 264.36 244.89 266.09 240.83 268.2 237.25 269.63 236.65 274.63 236.46 281.62 237.22 282.81 236.8 288.23 232.01 290.05 229.43 292.35 224.72 293.37 216.34 294.39 214.81 299.16 211.74 302.75 211.79 305.52 212.63 308.77 212.65 311.91 211.96 315.42 212.96 318.81 209.85 320.61 207 325.5 204.67 326.3 203.66 326.55 200.68 327.59 197.92 327.33 196.87 325.33 194.41 324.94 193.2 325.25 188.86 328.81 186.21 329.6 184.98 329.53 181.56 328.69 178.45 328 170.81 329.9 168.73 333.56 163.59 334.28 161.81 333.31 154.81 330.82 149.55 330.1 144.83 330.84 137.83 330.57 135.23 331.33 131.45 332.52 129.82 335.02 127.91 340.3 125.03 343.01 123.16 344.17 121.65 344.91 119.29 347.74 116.23 349.34 109 350.95 105.53 350.6 102.99 348.45 101.61 346.71 98.12 346.67 96.85 347.92 94.53 348.84 90.45 349.88 88.18 347.37 79.59 343.4 78.26 341.25 76.58 339.49 74.32 337.73 69.97 337.47 67.57 338.33 65.7 340.53 62.58 341.45 58.33 344.22 53.95 345.11 51.38 350.13 47.33 356.19 46.29 360.05 42.58 362.08 39.59 365.17 37.45 366.4 34.13 369.64 32.8 371.68 33.11 377.3 36.55 379.08 35.28 380.15 30.52 382.6 26.84 386.34 24.58 386.96 23.51 388.45 17.03 387.8 14.61 388.24 12.51 390.11 7.97 395.67 6.17 398.04 4.83 398.78 5.32 399.52 8.1 401.8 8.61 405.04 7.68 407.54 7.46 413.34 4.16 418.64 1.61 422.52 1 426.42 1.09 430.45 2.17 433.59 3.73 437.13 8.67 440.81 11.24 444.88 11.03 452.84 8.04 456.59 6.03 460.25 6.11 465.53 7.54 470.83 4.35 473.07 4.78 474.77 8.02 477.6 9.03 479.78 8.61 483.06 6.93 487.56 5.36 490.34 2.42 492.65 1.92 495.47 2.34 498.35 2.1 501.3 1.25 511.08 1.71 513.99 3.05 516.8 5.46 520.29 6.73 523.27 7.29 526.17 7.28 531.51 8.93 533.67 10.61 535.32 18.08 536.7 19.82 541.71 23.49 543.99 26.18 546.1 26.18 549 27.97 552.6 31.67 558.05 34.75 559.2 37.05 560.74 37.74 566.11 36.98 567.45 37.32 570.86 40.02 573.43 43.06 575.05 43.92 577.63 43.47 583.16 40.02 585.12 39.5 587.26 40.31 588.88 42.27 590.06 45 592.28 45.43 592.73 48.88 591.45 50.85 591.1 54.21 590.2 58.03 588.18 60.03 588.79 64.71 590.45 70.32 589.68 73.09 590.97 75.93 591.2 79.87 590.68 82.24 591.35 85.92 592.53 87.04 592.78 88.85 591.96 90.02 589.06 91.25 588.56 92.75 593.64 98.53 592.61 102 591.05 105.4 590.57 113.63 592.75 116.87 594.8 118.96 600.3 121.61 602.52 125 605.88 125.31 614.34 127.64 617.05 129.23 619.58 132.21 622.19 133.3 625.91 132.95 627.44 133.23 629.22 135.29 636.75 141.89 638.94 142.2 641.49 143.74 643.62 147.44 647.48 150.19 652.9 152.57 663.42 154.02 665.5 154.68 666.64 156.64 667.68 160.75 665.7 164.58 662.74 166.51 660.34 167.48 657.21 169.78 653.37 174.9 651.52 178.46 649.83 180.88 649.6 187.59 648.36 188.63 642.58 191.24 639.06 194.96 638.43 196.21 635.95 198.52 634.97 201.01 634.15 204.96 628.98 207.95 627.31 210.32 625.79 217 623.97 219.4 623.35 221.37 624.16 225.23 623.99 230.23 624.89 234.38 625.19 241.26 624.54 243.11 619.91 246.52 618.08 248.77 618.33 251.94 620.47 257.33 622.27 258.7 629.48 260.65 631.73 262.92 633.58 267.96 633.95 270.41 632.9 274.87 626.86 279.34 624.46 281.77 620.06 284.62 616.31 288.73 612.24 292.09 612.22 294.53 611.55 297.78 612.95 302.82 611.75 305.96 611.55 308.06 613.8 310.6 615.74 313.85 617.09 314 620.24 313.25 622.48 314.5 622.72 316.72 620.72 320.31 620.42 323.95 624.47 331.69 625.86 332.64 631.34 332.89 635.45 331.99 639.22 331.99 640.82 331.14 643.52 328.48 647.82 326.56 649.53 325.45 652.87 324.15 656.83 323.91 Z"/>
</g>
</svg>