<?xml version="1.0"?>
<svg xmlns="http://www.w3.org/2000/svg" version="1.2" baseProfile="tiny" width="800" height="956" viewBox="0 0 800 956" stroke-linecap="round" stroke-linejoin="round">
<g id="4205555">
<path d="M 708.13 96.62 701.46 100.33 697.27 104.09 690.74 108.79 687.59 111.84 664.17 129.41 655.73 135.22 651.97 139.45 651.1 143.45 652.69 152.34 652.34 155.97 649.67 159.88 642.89 167.1 646.74 165.62 653.37 161.77 656.51 159.41 658.72 155.8 658.9 153.48 657.52 148.96 661.85 147.59 664.59 148.37 667.67 152.33 668.75 155.53 668.12 158.53 671.72 161.48 672.93 164.07 677.58 168.18 681.83 168.7 683.11 170.81 686.95 174.09 688.43 174.24 689.86 177.76 696.57 178.73 699.93 180.46 703.37 176.92 707.75 176.22 715.53 182.23 720.56 183.73 728.46 184.35 731.65 185.96 740.47 184.51 744.22 181.27 748.88 180.26 752.37 185.54 756.56 186.76 759.83 186.18 766.45 189.06 781.2 193.07 791.45 193.56 794 194.04 799 198.06 691.98 361.27 685.9 357.46 668.07 349.24 659.9 350.92 652.31 354.28 643.16 359.83 627.29 366.29 619.89 369.85 611.17 374.88 602.63 378.48 600.35 380.46 595.33 386.89 591.18 391.09 583.75 401.55 579.25 405.66 574.39 410.89 570.2 414.29 561.05 420.59 552.76 426.88 549.05 431.25 550.09 435.21 553.16 441.1 555.95 449.83 559.88 455.92 563.34 466.22 566.32 473.95 570.6 482.85 574.05 487.64 583.29 491.78 585.29 493.56 587.45 498.65 588.58 503.89 586.94 513.87 587.15 517.51 590.61 527.5 590.92 532.27 588.4 538.29 586.21 540.1 582.72 540.84 568.42 539.65 552.79 542.55 547.52 543.15 536.91 542.96 525.6 541.18 520.35 539.76 516.73 539.52 505.1 542.49 497.66 545.42 495.9 548.14 497.14 551.94 501.6 556.64 510.91 564.78 516.64 570.38 521.38 575.65 526.48 584.62 534.36 596.68 537.37 602.78 540.09 611.83 540.41 616.06 538.46 623.56 533.57 632.16 532.61 636.7 535.58 648.72 537.1 652.26 539.72 655.72 542.61 658.14 549.67 662.88 559.78 670.55 563.74 676.9 564.53 679.21 564.96 684.85 564.56 689.62 563.22 694.03 561.57 696.31 558.25 698.28 553.19 697.73 543.73 693.79 528.15 689.82 513.29 687.07 503.52 684.7 497.72 682.96 491.15 679.98 487.21 674.95 485.13 670.57 481.37 665.95 478.05 663.96 473.5 663.62 464.64 665 455.46 667.05 452.58 668.71 446.36 674.56 440.24 679.12 435.98 681.5 432.84 681.77 427.8 688.36 426.73 691.49 421.32 696.16 413.41 702.06 406.5 708.59 404.05 714.26 403.86 720.23 404.91 728.34 404.23 735.95 405.34 750.8 405.75 752.87 409.82 760.84 414.59 766.51 420.07 770.14 430.38 774.36 436.77 775.49 448.93 775.58 462.71 777.39 473.31 776.74 478.94 775.58 495.76 773.77 502.6 772.8 509.42 773.76 514.66 777.05 520.41 782.01 525.8 789.26 528.19 794.23 533 798.02 538.16 803.76 542.45 810.88 543.92 814.97 543.64 819.47 542.73 821.57 539.13 825.77 534.35 828.8 518.84 835.32 514.82 838.11 508.97 843.43 497.96 854.33 494.71 856.38 486.67 856.76 480.89 855.32 478.92 853.8 476.26 848.9 471.52 844.32 456.63 834.93 450.43 833.17 443.48 833.92 432.91 836.21 427.93 835.85 423.52 833.29 418.06 826.8 413.8 818.53 409.24 813.09 407.2 812.21 400.86 814.46 394.98 820.85 393.35 821.86 383.22 824.98 366.38 827.13 363.37 829.43 360.82 833.3 359.07 837.76 356.51 841.61 354.59 848.43 355.19 853.64 358.84 859.33 359.66 862.14 359.87 867.29 359.36 870.9 363.39 894.59 363.75 899.75 363.51 912.05 366.24 919.43 371.2 926.26 372.4 930.14 372.25 933.57 370.55 939.35 371.33 946.52 372.61 952.76 365.42 951.49 361.73 951.59 351.88 955 348.18 953.5 345.44 951.2 342.88 946.98 341.83 941.56 342.04 929.03 340.12 923.25 335.33 919.23 333.67 913.57 331.59 911.14 320.19 904.49 312.32 900.36 309.36 898.24 306.53 893.94 302.88 885.91 302.16 881.86 304.65 878.65 312.53 876.32 318.34 875.48 320.55 874.27 323.22 871.09 323.86 868.58 323.91 862.81 323.13 859.63 323.38 856.02 324.56 851.95 324.01 848.07 318.25 836.4 315.75 832.68 314.4 829.03 310.58 822.27 308.26 820.25 302.52 817.15 301.25 815.05 300.27 808.26 301.6 806.04 309.12 800.58 316.21 796.93 318.43 790.09 318.89 786.68 315.71 781.4 313.6 773.21 313.79 767.85 315.95 763.95 314.88 760.06 310.34 755.74 306.18 755.7 302.98 754.17 298.72 753.82 294.57 754.47 291.99 760.78 291.67 763.84 289.97 765.28 284.5 765.5 281.86 763.84 274.27 767.01 268.74 767.28 261.51 768.87 258.33 763.29 256.72 761.98 247.32 760.61 240.23 762.37 233.29 763.47 230.27 763.28 226.94 761.72 224.48 759.3 220.51 753.6 217.51 747.59 215.24 744.94 211.39 742.49 205.41 740.15 201.86 739.47 199.79 737.68 195.52 730.74 194.19 725.79 194.76 722.59 200.43 718.63 203.3 717.86 208.35 718.38 212.12 714.06 213.18 708.75 216.01 707.31 223.55 705.29 234.28 704.46 237.78 705.18 251.37 702.84 258.46 698.31 260.58 695.06 261.68 690.36 261.25 682.08 261.66 679.37 260.34 676.2 258.35 674.12 249.32 670.06 246.88 668.18 244.86 665.24 241.82 663.89 239.15 663.92 229.99 665.94 228.23 665.74 220.59 662.73 215.66 658.57 215.16 653.81 213.7 648.62 215.44 641.91 217.74 637.47 217.76 634.67 216.38 631.58 217.58 627.6 216.71 625.51 211.42 623.18 207.83 622.95 204.55 624.05 199.81 627.1 194.83 627.52 189.58 624.24 172.58 617.96 165.56 617.15 158.7 615.71 151.03 611.34 147.51 610.12 141.82 609.87 139.22 607.81 138.88 604.04 140.28 596.55 147 585.85 151.97 580.59 156.08 577.33 156.41 573.45 155.21 571.82 141.33 565.87 135.95 564.78 130.32 562.89 124.51 559.37 121.57 558.81 114.51 561 109.5 561.97 97.24 565.93 91.99 566.63 92.1 563.43 95.6 554.94 94.25 551.13 90.16 548.45 87.41 544.42 83.51 540.52 81.24 535.44 85.21 529.62 86.8 528.88 94.79 529.03 98.8 527.47 99.75 525.63 93 520.71 89.71 519.68 84.28 515.24 82.79 511.23 83.1 507.11 89.71 502.26 96.28 501.44 108.19 498.74 113.57 495.52 112.83 493.48 101.39 493.36 98.18 491.99 95.9 489 97.45 487.67 103.29 485.85 103.24 484.5 99.99 482.45 94.91 477.55 95.36 475.96 99.81 472.1 100.33 469.88 93.36 464.19 93.55 462.31 96.13 460.77 101.29 459.06 107.16 461.69 108.23 460.74 105.39 455.95 103.49 454.9 101.34 449.94 97.99 445.8 93.12 443.41 84.29 443.33 75.02 439.47 71.76 439.42 67.35 437.91 64.51 437.77 64.21 432.72 61.36 425.07 63.5 419.81 67.12 418.45 68.17 413.93 61.73 410.94 59.83 406.61 62.32 403.91 68.62 400.73 66.3 398.06 58.76 398.32 58.61 396.72 61.47 393.89 65 388.53 67 384.46 67.09 381.29 64.98 378.39 64.63 374.36 59.42 374.52 54.81 377.21 49.55 375.8 47.18 372.18 44.16 369.31 39.81 369.29 37.79 371.12 27.19 368.61 18.31 364.95 12.3 364.67 14.5 362.11 20.13 361.91 24.76 359.57 20.33 352.52 19.96 350.19 15.91 345.68 13.48 344.73 4.88 346.08 1 344.87 1.54 342.78 4.99 339.38 4.96 337.11 8.37 335.56 12.61 335.82 13.46 333.01 10.37 331.52 8.96 329.18 12.27 323.65 14.4 322.74 18.66 323.24 20.77 320.04 20.87 314.75 23.48 313.26 28.17 313.72 32.18 314.85 37.03 312.61 37.88 308.86 35.38 306.4 39.51 303.29 43.04 303.32 47.3 301.66 57.17 300.59 56.26 295.54 54.4 294.48 52.98 289.23 56.41 287.12 57.03 285.35 61.07 282.19 67.93 278.26 70.16 275.81 75.8 272.19 75.53 270.96 71.12 267.97 68.79 264.09 63.04 261.17 65.36 259.09 64.59 255.02 62.42 253.66 64.07 251.28 63.62 248.84 61.69 246.53 62.78 242.27 60.81 233.95 58.77 231.3 55.29 222.4 57.37 221.23 58.67 215.93 54.31 212.4 54.24 208.65 55.66 206.18 211.98 72.76 276.74 2.38 283.91 3.46 291.05 3.72 295.99 1.06 297.8 1 301.91 3.21 305.8 2.84 307.23 3.65 311.06 9.53 314.98 10.85 320.33 10.35 322.41 11 324.5 13.34 328.61 14.32 334.2 13.25 338.96 13.27 346.88 14.64 353.19 12.74 358.5 12.29 364.3 9.15 369.89 7.96 385.82 11.14 388.71 14.66 391.82 16.23 398.45 18.36 405.5 18.86 410.08 24.14 412.72 25.72 419.78 28.35 424.12 32.06 428.29 31.82 431.97 30.18 439.77 25.57 447.43 23.9 454.91 21.56 462.13 20.34 466.78 20.82 473.85 19.48 477.53 19.76 480.37 22.19 482.84 22.79 492.62 21.39 497.8 20.17 501.74 20.58 509.56 16.73 515.84 12.71 523.37 13.3 526.21 14.8 529.53 21.15 533.73 24.76 534.82 29.34 536.7 30.28 543.18 31.35 546.88 34.98 547.54 40.38 545.59 46.4 547.16 50.83 547.4 54.3 550.4 60.1 555.99 68.95 558.3 70.49 562.77 71.87 575.83 84.58 585.9 93.89 597.83 101.06 605.29 103.4 613.62 104.67 622.98 105.08 631.55 103.85 644.34 106.18 648.59 105.85 672.88 101.22 678.4 98.21 688.11 94.29 696.59 93.03 699.39 91.32 703.19 91.44 708.13 96.62 Z"/>
</g>
</svg>