<?xml version="1.0"?>
<svg xmlns="http://www.w3.org/2000/svg" version="1.2" baseProfile="tiny" width="800" height="1085" viewBox="0 0 800 1085" stroke-linecap="round" stroke-linejoin="round">
<g id="4205704">
<path d="M 615.89 988.31 615.39 985.84 617.67 982.17 620.24 985.55 615.89 988.31 Z M 600.93 903.22 596.14 902.07 597.52 898.7 599.76 899.05 600.93 903.22 Z M 675.08 272.92 669.39 270 672.55 267.08 673.15 264.81 677.61 259.31 681.54 263.81 679.27 266.64 678.86 269.54 675.08 272.92 Z M 570.08 1054.68 570.95 1048.1 569.51 1044.01 566.81 1041.22 563.96 1041.13 550.34 1051.5 546.46 1052.17 543.2 1055.1 540 1059.98 459.92 1068.85 366.04 1084 292.61 1007.89 191.47 988.46 190.77 980.54 188.42 979.63 179.27 982.13 169.54 986.09 153.9 988.29 148.83 987.15 144.41 978.02 142.74 972.2 145.15 968.03 150.28 966.79 151.67 964.03 142.25 953.49 141.34 949.67 142.86 945.76 148.61 943.62 153.61 944.12 155.59 941.2 151.46 938.42 144.96 937.11 138.77 935.04 130.66 930.01 126.05 929.4 121.36 926.92 120.14 924.57 121.51 916.75 127.21 914.42 133.43 914.03 137.99 914.92 143.39 920.2 146.61 920.01 148.88 917.6 148.16 910.65 146.35 906.89 146.19 903.59 150.35 901.54 142.93 899.89 133.03 895.54 129.08 895.74 123.91 893.76 116.87 886.81 112.52 887.31 112.16 882.72 115.96 880.41 121.89 874.83 122.24 872.66 115.82 868.74 114.51 864.2 116.55 860.1 121.94 857.56 125.08 854.66 125.17 847.24 130.72 840.65 129.26 834.97 130.35 833 129.22 829.2 129.33 824.42 126.24 818.88 125.17 811.29 115.59 804.38 112.18 792.84 105.63 786.65 105.5 784.78 108.67 780.36 109.53 773.76 112.38 766.86 110.65 757.62 105.73 750.57 105.54 744.83 103.1 742.35 96.1 739.64 90.65 731.82 91.34 726.23 81.69 725.4 69.66 725.84 67.15 726.88 62.12 726.87 59.98 723.82 53.96 723.35 49.71 724.91 39.62 724.4 27.77 727.1 23.13 727.24 20.82 725.24 17.71 725.5 13.11 722.63 10.99 716.8 2.26 711.97 1 709.18 1.76 704.02 4.2 699.88 4.69 693.18 7.23 692.17 11.96 692.64 16.02 688.85 21.73 687.76 26.48 684.23 31 683.9 34.33 682.09 38.4 682.2 37.88 678.68 33.3 673.6 32.2 669.78 34.64 662.1 38.72 657.41 36.53 652.25 38.45 645.39 34.24 639.67 34.63 633.74 38.79 629.51 40.63 624.74 42.78 622.44 47.77 621.39 48.53 618.29 46.81 615.87 46.71 612.64 48.53 609.85 61.47 603.85 66.52 600.26 67.83 597.31 71.33 594.86 71.87 592.17 76.44 588.75 76.28 584.72 80.83 579.16 80.93 574.53 82.31 571.04 85.37 567.5 91.9 565.21 90.83 560.12 91.26 554.96 94.55 553.96 99.38 554.52 101.55 549.99 97.52 543.4 97.91 540.49 102.79 533.17 106.43 532.8 109.29 530.7 111.69 526.99 111.35 523.79 118.86 517.74 123.55 508.63 126.52 507.43 128.66 502.91 132.45 498.96 136.89 497.06 143.52 496.3 149.75 492.12 155.3 484.99 160.2 482.67 161.55 480.72 165.71 479.65 172.64 474.97 174.95 468.81 173.12 459.63 168.55 454.29 169.68 452.3 174.95 448.76 176.64 445.5 176.11 440.11 176.29 432.02 179.22 426.23 182.92 423.55 184.77 425.45 186.46 433.71 186.69 442.79 190.56 447.88 191.16 455.33 197.03 457.56 210.57 458.85 213.43 458.53 224.78 453.26 227.54 456.91 229.43 461.3 235.95 466.27 238.58 465.74 245.17 461.48 247.07 461.15 251.5 457.17 253.6 451.53 250.73 445.86 254.01 440.85 252.4 437.57 254.35 434.56 252.97 429.68 249.43 423.87 257.21 416.39 259.88 410.11 269.03 401.91 271.73 397.39 273.48 392.54 279.33 384.76 281.69 384.89 285.56 387.85 291.17 389.35 299.9 388.46 304.48 389.02 319.55 392.52 324.61 397.27 328.84 395.09 335.23 393.58 337.2 382.59 336.41 370.28 339.34 366.59 347.48 358.45 353.56 349.79 362.56 346.95 367.44 343.05 376.23 337.08 378.29 334.48 379.16 324.17 381.87 315.06 385.77 308.55 388.81 306.59 396.19 303.56 399.33 300.3 400.96 292.27 403.13 289.89 410.18 285 415.39 282.29 419.73 281.1 429.28 273.61 429.93 268.51 428.19 266.34 420.6 261.14 414.85 255.39 413.44 252.35 409.53 251.37 406.39 248.23 405.08 240.63 406.93 234.56 410.29 230.11 415.07 226.96 417.45 223.71 418.75 214.81 421.25 210.36 426.24 206.57 431.99 205.48 436.76 201.25 434.38 192.14 439.48 172.07 440.34 166.64 443.27 163.39 452.6 155.68 456.95 153.49 467.03 149.83 473 141.36 472.89 133.55 475.49 132.03 484.28 133.12 494.15 131.27 501.21 128.13 512.38 133.77 514.55 137.35 517.04 137.57 521.06 134.75 525.72 130.19 532.88 127.04 536.14 122.16 541.46 121.4 544.69 119.42 546.45 116.09 545.59 110.09 546.35 105.57 549.16 100.96 552.85 92.22 550.13 86.79 550.13 82.45 553.39 79.31 554.04 75.62 556.21 72.04 565.43 64.44 572.81 60.43 588 46.98 592.23 44.16 597.33 43.83 601.77 37.65 610.89 31.14 612.84 27.67 616.1 25.39 623.69 25.17 631.28 23.11 635.95 10.74 641.16 9.11 650.38 4.56 654.01 1 654.12 5.2 647.56 9.33 634.02 40.12 628.57 55.71 626.11 65.89 623.12 81.62 623.92 90.25 627.59 95.02 637.11 95.48 645.07 99.9 653.34 102.2 653.04 104.85 658.75 112.85 657.65 116.64 653.93 122.38 651.75 123.54 650.59 127.54 650.91 130.93 646.59 133.97 643.04 141.93 639.4 151.64 636.07 155.68 633.88 161.02 628.65 170.08 623.77 173.49 621.39 177.25 616.8 181.42 607.92 186.35 605.87 194.3 602.97 213.75 602.26 225.01 602.81 232.74 600.73 244.41 598.59 251.3 595.54 256.45 591.27 273.17 585.79 292.12 583.14 311.6 583.83 325.15 583.96 344.81 585.07 354.06 587.02 362.52 587.74 370.82 591.36 387.11 594.62 398.85 597.34 407.12 601.55 410.94 602.45 414.02 605.52 416.13 603.85 423.62 606.8 429.8 614.08 441.66 628.16 459.32 634.29 465.28 643.52 473.39 656.6 482.86 671.28 489.6 683.82 492.61 692.98 492.93 699.86 490.85 700.28 485.79 697.9 481.33 704.01 477.82 706.53 477.37 707.87 471.45 714.45 467.25 717.29 466.85 720.96 468.59 723.43 467.85 723.05 462.41 726.28 451.89 734 453.68 735.49 457.46 737.71 458.25 741.99 464.07 753.93 466.02 754.33 471.01 757.49 474.87 758.67 478.77 761.12 479.54 763.93 486.55 763.53 490.38 770.14 498.83 769.03 500.76 769.55 504.69 772.47 505.6 779.08 528.33 782.38 529.38 787.63 529.11 793.01 532.36 795.42 530.95 799 535.19 794.7 541.53 795.24 548.36 791.62 558.07 792.66 560.81 791.93 565.02 783.83 564.92 778.95 563.29 772.61 557.99 768.02 555.71 761.8 557.46 753.98 562.71 745.25 571.61 738.84 579.94 735.88 585.72 730.31 594.49 726.95 601.89 724.46 605.89 721.2 614.67 720.87 623.1 722.54 627.44 727.27 628.17 732.54 630.8 735.88 633.6 739.79 640.81 743.35 644.7 741.24 650.74 741.1 656.11 742.32 657.76 743.98 667.3 743.45 672.11 745.88 673.87 742.51 685.94 743.24 687.15 740.01 692.11 734.22 699.4 734.97 702.77 737.45 703.73 734.41 707.27 735.26 711.54 731.19 713.7 732.48 718.73 730.53 723.17 731.6 726.9 729.48 731.97 730.11 735.68 727.47 740.45 722.98 741.4 718.59 739.74 708.15 746.3 702.5 747.44 701.41 750.7 695.09 755.28 683.15 756.6 683.59 758.56 678.6 759.98 679.61 763.03 684.05 765.81 686.29 772.06 684.8 777.2 679.42 781.77 680.65 785.01 680.09 790.31 676.77 794.19 670.1 800.27 666.3 801.54 665.96 804.33 661.03 809.67 656.8 811.3 654.07 818.95 648.77 819.99 642.55 816.61 638.16 816.14 633.27 811.52 627.05 813.37 620.65 819.53 613.18 829.27 611.15 833.66 605.91 841.81 604 847.86 603.52 853.67 605.72 859.1 615.51 860.26 610.36 868.13 608.05 869.61 602.69 868.73 600.82 864.38 596.75 864.28 593.6 866.41 585.81 878.37 584.38 884.76 586.59 899.15 586.3 905.03 588.27 908.13 592.09 907.4 596.3 912.48 592.98 915.07 590.55 911.43 581.92 916.67 584.17 920.55 580.86 924.91 581.02 931.39 589.05 932.9 588.48 935.78 579.78 946.1 575.9 954.02 575.63 962.6 574.72 966.64 578.4 969.13 574.38 977.36 571.58 981.12 571.65 986.43 569.84 989.97 572.67 991.64 571.33 993.78 567.26 992.49 563.7 988.29 559.61 989.13 555.36 993.45 553.7 996.96 552.68 1002.81 552.98 1007.91 554.81 1016.08 556.64 1019.96 561.14 1022.64 566.68 1019.12 572.79 1023.71 575.63 1023.77 577.18 1026.65 587.57 1027.99 590.76 1026.26 597.53 1025.52 592.97 1034.11 591.12 1038.74 589.05 1039.74 590.23 1044.02 581.19 1045.82 576.22 1051.63 572.6 1054.48 570.08 1054.68 Z" fill-rule="evenodd"/>
</g>
</svg>