<?xml version="1.0"?>
<svg xmlns="http://www.w3.org/2000/svg" version="1.2" baseProfile="tiny" width="800" height="1026" viewBox="0 0 800 1026" stroke-linecap="round" stroke-linejoin="round">
<g id="4205902">
<path d="M 128.1 9.57 129.84 10.35 130.7 12.07 131.02 14.82 136.19 19.49 140.43 25.65 142.8 29.75 144.81 31.7 144.76 35.68 146.38 37.31 149.89 38.15 150.91 40.07 154.46 43.58 156.44 44.23 157.51 46.48 160.25 47.69 161.58 46.87 164.73 46.57 168.39 47.64 173.55 45.68 178.78 45.36 181.96 46.51 184.42 50.12 185.73 50.34 194.8 48.56 198.82 44.17 200.83 41.38 205.42 36.15 207.74 35 210.21 32.33 215.71 28.94 218.22 31 222.1 35.29 226.72 36.27 232 36.38 233.94 37.83 235.85 40.9 238.29 42.8 236.44 44.12 235.67 47.07 233.09 52.56 230.63 54.06 228.86 56.49 229 58.99 230.2 61.3 232.98 61.19 234.74 62.52 237.06 65.38 238.38 67.9 238.21 70.87 238.69 74.5 240.06 76.32 240.53 79.66 236.67 83.28 234.26 85.07 233.83 86.25 233.64 90.68 233.99 94.04 235.13 96.75 241.39 101.66 243.69 106.63 244.78 107.18 249.25 107.08 251.64 108.41 257.56 109.7 259.54 111.61 269.03 113.46 271.51 114.6 274.6 114.95 276.36 116.41 279.09 116.41 281.2 117.12 282.67 118.56 281.07 122.22 280.7 130.49 279.57 135.3 279.82 136.35 284.11 139.55 285.39 142.5 284.57 145.72 285.33 147.51 287.33 149.07 290.82 150.79 293.95 151.6 297.76 153.32 302.37 154.17 306.86 155.63 310.45 157.34 312.25 159.38 314.74 160.95 309.66 163.55 307.55 165.95 305.08 167.36 302.19 167.93 300.05 169.83 296.48 170.97 295.07 172.47 296.39 175.37 295.95 178.87 294.57 179.56 294.54 181.56 295.79 183.49 298.65 189.62 299.84 191.34 303.59 193.34 307.12 196.12 316.8 199.15 317.96 200.05 323.44 199.15 325.58 201.18 331.64 203.89 332.34 206.27 334.78 208.89 340.14 209.82 340.78 210.44 341.47 213.93 343.01 217 344.22 218.09 347.35 218.89 352.04 220.99 353.93 221.36 354.86 222.73 356.45 222.35 358.73 222.91 362.41 225.67 364.9 226.92 369.25 227.49 372.98 229.02 377.49 229.82 378.43 229.23 380.57 225.4 383.99 222.09 389.34 217.86 393.83 216.07 395.12 216.62 399.55 221 401.95 222.79 405.98 224.23 409.19 224.22 410.56 225.45 413.15 226.06 416.03 225.7 421.79 231.01 424.33 235.22 427.98 237.27 429.74 238.69 434.2 237.97 439.7 240.84 441.01 242.4 442.67 242.38 446.03 239.09 447.15 236.96 449.28 236.28 454.68 235.97 460.2 239.04 466.81 239.53 467.55 240.04 469.03 243.54 470.5 245.48 473.94 245.92 475.25 247.3 474.46 251.95 475.94 257.46 475.98 264.91 476.83 266.98 480.67 270.13 483.73 273.13 485.72 274.05 488.36 274.42 493.63 276.33 498.65 277 499.88 277.77 502.93 281.6 503.5 283.54 504.19 295.03 504.05 296.97 505.88 298.97 512.29 302.92 519.07 305.24 523.89 311.3 526.11 316.6 528.68 316.57 529.92 315.25 534.6 314.45 537.48 315.57 542.58 316.86 543.98 319.47 544.13 322.99 545.51 329.8 547.7 332.83 552.08 335.16 554.59 337.16 558.7 338.42 563.02 344.19 566.23 346.67 569.08 348.08 574.16 351.49 579.32 353.99 580.33 356.69 579.49 360.51 581.81 362.02 585.57 366.51 587.82 368.08 589.23 370.04 589.53 374.25 596.97 376.21 598.37 378.16 600.91 379.11 601.74 384.21 600.84 386.03 602.68 387.88 602.78 390.59 601.75 394.12 603.03 397.86 605.07 401.18 606.47 402.48 606.56 404.01 608.14 404.64 610.53 406.62 612.13 409.11 615.85 411.27 635.58 412.73 641.83 413.46 645.13 414.97 645.83 416.18 652.88 421.16 657.23 420.53 663.06 421.7 663.93 426.02 664.91 427.47 668.05 430.13 670.42 429.92 677.41 430.5 686.59 432.21 688.36 435.01 696.33 441.34 698.96 445.06 701.79 447.43 708.08 451.85 711.1 453.42 716.28 455.19 718.09 455.35 718.33 456.68 716.94 458.95 717.09 460.82 715.89 463.4 717.31 470.95 718.22 472.28 720.54 471.45 720.87 475.31 719.82 475.44 720.21 478.91 721.66 481.06 736.34 480.67 748.17 479.18 770.98 475.01 777.98 473.21 787.3 470.07 786.77 476.45 785.76 477.67 784.88 484.03 783.17 484.77 774.08 482.29 772.2 482.18 770.79 484.66 768.09 495.56 764.25 501.77 761.99 503.71 761.15 505.28 760.41 520.05 769.47 556.17 799 673.87 769.7 733.41 753.53 774.14 750.14 774.85 746.35 779.48 743.09 782.47 740.23 786.27 735.19 791.67 730.18 796.51 724.97 800.74 723.01 804.48 723.16 806.58 719.9 813.57 718.07 816.68 713.15 817.4 709.31 816.57 708.25 815.48 706.41 808.55 702.48 803.44 698.03 799.94 695.02 798.87 689.21 797.68 686.65 798.01 681.74 801.46 679.4 801.15 677.04 801.59 674.55 800.7 670.61 801.18 668.92 802.83 667.92 806.77 665.81 808.57 661.69 810.84 658.39 811.91 653.82 809.61 649.08 809.76 643.59 810.85 640.45 813.48 639.94 815.08 637.09 818.6 634.34 823.52 632.29 826.27 627.67 830.11 625.22 836.04 622.45 838.16 621.38 840.67 618.28 844.03 615.12 844.12 613.31 845.29 610.56 844.36 609.81 842.29 608.6 841.82 603.04 843.82 598.5 844.75 595.33 844.15 591.97 842.27 588.11 842.96 583.67 842.74 579.28 843.36 575.33 843 572.07 844.49 567.9 844.84 565.64 845.95 563 848.12 560.77 851.23 559.42 854.51 556.38 859.16 554.28 865.07 553.6 870.35 551.53 874.06 549.8 875.8 544.64 878.72 537.19 876.05 535.44 876.12 526.08 877.41 513.47 875.72 508.33 875.37 502.28 873.93 501.42 874.9 500.79 877.85 498.8 881.03 496.76 885.54 494.12 888.51 489.66 891.99 486.29 895.95 484.55 897.35 479.88 899.73 475.98 902.23 471.69 904.21 469.69 903.57 466.2 901.28 462.79 900.48 454.96 901.08 452.22 901.77 447.45 903.56 440.6 905.03 435.86 906.71 432.87 906.53 428.62 903.78 424.85 900.48 419.72 897.93 416.08 897.07 410.71 896.64 406.69 894.84 402.44 893.46 399.93 891.78 395.98 890.09 393.44 888.26 390.57 886.93 387.64 886.9 383.36 885.89 376.03 885.28 374.31 878.64 373.35 877.9 367.41 883.71 365.57 885.2 361.56 890.03 360 893.55 356.64 896.24 354.69 898.82 352.53 900.24 345.96 903.39 342.97 902.96 339.93 903.33 337.08 904.81 332.58 908.31 325.65 905.04 320.49 903.74 317.07 906.82 313.45 905.72 308.28 907.75 304.94 907.71 301.4 909.91 295.35 909.86 292.8 912.06 290.31 913.47 286.32 916.9 287.41 920.34 287.33 921.93 284.81 926.53 283.94 931.29 283.81 934.71 280.43 938.29 278.01 939.4 274.14 938.57 267.88 937.86 263.07 935.2 260.12 933.92 258.54 932.2 255.18 931.22 248.87 927.93 242.6 925.74 239.45 925.66 235.35 927.67 232.21 928.4 228.03 929.98 223.8 932.54 220.18 935.56 217.47 940.76 215.36 942.24 212.46 941.54 207.32 942.34 203.25 940.91 201.14 941.79 196.46 944.99 191.33 946.98 189.02 948.54 186.22 951.31 183.68 955.42 182.38 958.84 180.02 963.06 176.91 965.86 173.88 966.92 169.96 967.53 167.32 969.17 166.88 970.31 167.2 974.88 166.25 977.32 163.33 980.44 158.35 985.06 157.06 984.94 152.87 980.58 151.49 979.97 145.74 980.2 143.35 978.39 140.82 977.8 132.68 977.14 125.12 977.62 119.92 977.03 112.71 974.63 105.39 975.19 102.74 974.69 100.58 973.55 99.4 971.82 96.3 969.25 95.36 965.77 94.55 960.5 93.49 960.19 90.77 963.73 87.26 966.76 85.53 968.96 82.53 970.74 80.93 972.98 79.05 974.23 75.41 977.71 74.56 980.5 74.65 982.6 73.49 988 71.1 990.65 70.03 993.86 64.83 996.84 54.24 1002.37 47.03 1002.67 45.06 1003.89 41.89 1009.19 40.18 1011.16 37.82 1012.44 35.92 1014.25 33.61 1017.39 31.67 1025 28.5 1023.82 26.93 1022.36 20.08 1017.86 15.67 1016.53 14.45 1015.8 12.05 1013.01 10.02 1006.67 7.28 1005.17 6.64 1003.41 4.81 1002.13 7.06 1000.92 10.86 996.95 12.69 993 12.47 988.41 9.75 984.16 5.56 981.49 3.23 979.29 3.23 977.88 6.68 972.99 6.82 968.87 5.1 964.06 2.27 961.7 1 959.74 1.58 957.2 4.54 955.47 7.61 955.98 11.56 957.82 12.5 957.84 16.66 953.71 16.89 952.65 15 947.97 11.66 944.65 15.06 941.67 17.22 940.39 18.25 938.92 24.35 938.59 27.92 937.85 34.36 934.71 36.79 930.2 40.91 928.34 43.06 926.16 42.57 922.16 42.84 920.61 44.84 915.84 45.65 912.45 45.45 909.16 44.36 904.99 44.15 902.48 39.28 900.89 37.16 900.69 34.58 898.98 33.87 895.2 35.1 890.99 34.95 889.4 32.79 884.41 30.29 880.06 30.59 878.43 30.08 875.14 27.48 872.85 26.49 871.35 25.33 867.35 23.93 865.16 23.72 861.1 27.18 856.56 30.73 855.79 36.07 852.07 37.16 850.22 42.46 846.23 43.69 844.61 43.59 843.09 41.56 841.65 38.62 840.46 34.7 835.36 34.32 825.07 33.48 819.25 32.78 816.81 28.31 815.19 26.65 813.93 31.18 809.66 34.3 805.31 36.25 801.67 37.89 796.78 37.84 794.58 36.17 787.28 35.17 781.47 34.19 780.11 38.93 780.35 43.26 783.15 45.9 783.5 50.14 782.98 51.7 781.09 54.97 779.85 55.84 778.88 56.64 775.74 60.57 774.45 64.1 772.09 67.83 771.37 69.33 770.17 69.1 768.16 70.84 765.67 74.15 762.84 79.12 760.64 86.6 753.77 86.86 751.63 85.42 747.27 79.5 739.93 79.59 737.68 81.11 736.44 84.98 735.14 85.74 732.24 86.08 727.46 87.38 724.51 88.92 722.87 89.3 720.93 87.31 715.08 84.56 711.87 85.68 706.95 85.57 704.82 83.84 701.85 79.96 702.31 77.02 700.36 75.17 697.39 72.56 691.57 69.77 686.89 67.11 683.83 66.35 681.97 66.78 676.79 65.4 675.11 61.89 673.58 59.14 671.08 55.57 665.29 50.28 660.8 48.76 660.12 43.34 660.57 41.4 659.16 39.69 654.47 37.34 649.33 34.96 646.88 32.35 645.35 31.01 643.65 30.86 641.77 35.18 638.72 38.07 635.46 40.32 628.88 40.78 621.64 41.72 619.23 43.74 618.16 47.17 617.58 52.23 615.94 53.98 614.35 56.61 610.88 60.06 608.4 58.96 605.2 61.52 603.1 65.94 600.17 71.78 595.27 75.1 594.6 76.28 593.32 78.31 589.57 81.35 589.99 83.1 589.58 83.89 587.99 83.58 585.36 88.95 581.37 91.77 582.24 92.87 585.04 99.85 588.31 101.52 589.47 103.07 589.09 104.67 587.04 104.93 584.01 106.49 582.49 111.26 580.19 115.24 577.75 118.17 578.49 120.43 581.01 123.2 582.19 126.54 577.04 126.23 573.22 127.53 572.53 133.73 572.36 134.8 571.81 135.85 568.3 130.9 562.38 129.13 559.16 127 557.75 123.71 558.17 123.63 554.55 127.07 541.45 128.29 537.91 130.2 535.37 130.51 533.21 129.25 531.7 129.13 530.05 130.44 525.98 132.73 524.04 139.78 523.8 144.12 523.26 146.44 525.23 148.84 525.25 149.87 523.13 153.28 520.35 155.77 516.6 158.34 515.7 160.59 516.06 162.54 515.13 164.23 512.72 167.29 511.02 170.97 503.65 174.7 500.67 175.43 498.49 174.77 492.79 172.34 490.66 172.88 487.47 176.04 483.2 176.73 480.77 178.16 479.57 183.17 477.57 186.41 474.5 191.01 472.12 192.85 470.59 193.51 465.62 192.44 463.98 192.95 460.5 189.8 455.11 190.5 452.49 187.98 451.91 186.56 449.81 187.27 448.31 186.09 447.39 180.88 448.08 177.55 447.53 78.3 366.09 77.59 364.68 77.16 361.19 77.91 358.54 79.48 355.58 79.66 351.59 77.71 347.54 77.79 340.73 77.37 336.4 80.02 333.75 82.8 332.38 84.26 330.44 86.28 325.34 86.67 322.87 86.19 318.49 87.05 317.33 92.35 314.91 92.4 314.01 87.33 309.55 81.75 306.66 80.34 303.62 80.66 302.16 86.17 299.93 90.46 298.73 92.57 297.29 92.98 295.75 90.99 290.39 88.83 286.89 84.9 283.81 82.49 280.93 82.38 279.78 84.19 276.7 82.03 270.44 81.3 265.36 81.33 259.63 81.82 257.5 83.99 254.5 85.08 251.35 84.18 247.03 85.29 244.48 86.95 243.06 87.87 241 88.34 237.96 91.23 232.77 94.32 231.87 97.37 229.44 98.05 226.69 94.02 221.85 92.88 218.98 92.86 216.38 93.56 214.82 93.2 212.56 89.84 208.63 89.78 206.36 91.1 203.63 89.32 199.72 88.76 195.86 87.58 194.1 85.45 188.57 84.45 187.47 79.15 187.23 77.24 185.88 71.77 183.9 70.51 180.66 69.33 179.65 64.35 176.9 61.43 176.04 60.64 174.21 60.81 170.15 59.61 165.2 59.91 159.51 61.06 156.23 62.89 155.63 68.41 155.37 70.54 153.75 70.81 150.95 72.43 146.89 72.83 144.22 74.13 139.87 76.33 137.67 76.72 136.32 75.02 133.43 73.02 131.25 70.74 129.89 65.23 127.8 62.98 125.8 60.98 124.93 59.38 122.84 59.3 119.85 57.47 117.73 56.4 115.09 54.25 113.24 54.1 108.83 58.27 106.55 57.62 103.93 54.22 94.8 54.44 93.21 57.21 87.82 57.63 86.19 55.9 82.89 53.02 80.3 52.71 78.87 53.49 76.58 52.6 72.82 43.76 68.61 44.85 64.04 48.26 61.03 50.51 57.27 51.98 52.59 52.93 51.13 55.43 49.39 56.05 46.08 54.61 43.15 53.68 38.82 49.11 33.66 46.09 31.36 44.09 30.45 42.86 28.02 40.18 24.66 39.22 22.31 41.59 20.62 56.38 14.24 59.75 13.31 62.4 11.55 66.05 4.91 69.12 3.14 70.26 1.74 72.17 1 76.44 1.94 79.41 3.89 85.42 4.72 93.12 4.92 98.59 4.25 100.53 5.18 102.33 7.45 106.64 7.06 108.54 7.76 110.47 9.41 114.13 9.67 115.56 8.66 122.28 8.4 124.33 9.58 128.1 9.57 Z"/>
</g>
</svg>