<?xml version="1.0"?>
<svg xmlns="http://www.w3.org/2000/svg" version="1.2" baseProfile="tiny" width="800" height="409" viewBox="0 0 800 409" stroke-linecap="round" stroke-linejoin="round">
<g id="4205001">
<path d="M 794.44 17.11 793.51 18.15 794.93 19.83 794.87 21.02 795.63 22.73 797.28 24.06 797.14 26.54 798.21 28.84 798.59 38.26 799 39.38 797.61 42.05 797.83 43.02 797.04 46.52 795.76 54.41 794.98 56.11 794.15 56.51 794.88 60.25 795.84 61.24 797.12 61.87 797.53 62.63 796.65 63.92 796.36 65.66 795.32 68.01 796.08 70.39 796.13 71.38 795.09 72.49 794.98 76.49 795.52 77.93 795.27 78.76 793.53 79.73 793.51 80.72 794.98 82.48 795.12 84.12 793.34 86.11 791.88 86.86 790.34 88.4 790.32 90.37 791.11 91 790.74 92.59 792.79 91.88 793.24 92.19 792.13 95.53 792.1 97.42 791.68 98.68 791.69 100.27 789.49 101.38 789.99 102.78 790.89 103.64 791.29 105.01 790.48 108.46 791.36 109.34 792.69 111.95 791.51 113.99 792.49 115.08 791.17 116.68 791.29 117.81 793.02 119.72 793.03 120.98 790.44 122.68 789.94 123.48 786.92 126.09 785.31 125.46 785.13 124.73 783.43 124.11 781.42 125.68 781.11 126.44 782.39 127.74 781.94 130.35 780.3 129.58 775.81 126.85 775.22 126.84 775.01 129.69 774.66 131.67 776.67 132.14 777.49 133.76 777.26 137.42 778.95 137.97 779.53 139.86 779.55 140.94 778.07 142.99 777.24 143.43 776.04 142.71 776.27 141.66 770.6 140.61 769.9 138.57 768.8 139.02 766.86 140.79 765.26 143.58 764.87 146.11 763.85 147.34 762.56 148.05 761.87 146.91 760.94 146.96 758.79 148.22 758.14 149.43 758.69 150.13 760.44 151.21 761.28 152.19 761.72 153.82 762.02 157.46 761.5 158.72 760.39 158.46 758.66 159.48 759.85 164.44 759.26 164.75 755.69 162.28 754.78 162.34 754.09 163.52 751.14 164.07 748.56 163.74 747.32 162.96 744.27 164.17 744.58 166.17 746.26 168.8 747.5 170.11 748.43 172.32 747.94 173.02 745.2 173.94 744.92 174.79 745.32 176.1 747.16 176.85 748.34 176.6 749.42 175.81 750.27 176.98 750.51 179.36 750.06 179.97 746.35 180.33 745.98 181.02 747.97 182.62 749.73 183.18 749.76 184.52 748.7 185.03 746.54 184.78 745.38 184.96 745.54 185.82 743.17 188.15 741.65 188.21 739.56 186.44 738.6 186.41 738.17 188.47 737.56 188.94 736.16 188.95 734.43 189.39 732.27 189.42 732.13 191.36 730.81 193.77 730.06 195.6 728.56 197.18 728.78 197.86 729.91 198.16 731.4 197.91 732.74 198.6 732.86 199.27 732.14 200.94 733.27 202.09 734.76 201.31 735.17 199.16 735.96 199.05 737.32 199.8 740.21 199.83 742.31 200.59 741.96 201.97 740.25 203.5 739.95 204.16 740.82 206.01 740.47 206.84 738.33 206.49 736.77 207.29 735.6 210.15 734.56 209.87 734.75 208.36 734.21 206.33 732.41 204.5 731 204.8 729.44 205.72 725.95 206.82 725.18 206.7 723.92 205.06 722.76 204.03 721.94 204.18 722.3 205.95 721.98 209.45 721.2 212.73 721.87 213.43 724.12 213.13 725.78 213.45 727.35 215.72 729.29 217.22 732.33 215.97 734.16 215.85 734.8 217.17 733.36 218.27 732.21 218.6 728.84 218.82 728.4 219.67 729.74 220.68 731.48 222.46 731.39 223.5 729.73 224.11 726.51 224.33 725.01 224.76 724.32 224.31 724.24 222.54 723.29 220.2 721.84 219.55 720.11 219.97 719.87 220.44 720.59 222.31 719.57 223.27 717.46 223.39 716.6 223.75 715.29 225 714.24 225.38 714.71 226.79 717.2 227.14 718.24 228.68 718.36 231.25 717.24 232.12 715.57 232.69 715.92 233.98 715.39 235.09 714.16 235.79 713.19 235.65 710.77 234.42 710.77 235.77 711.75 236.66 712.72 238.22 712.9 239.73 711.95 240.3 710.31 243.18 708.52 243.9 706.82 242.85 704.31 242.15 704.06 239.75 702.84 238.8 701.1 240.2 700.14 242.03 700.23 244 700.01 247.1 698.55 247.14 697.32 244.88 694.82 242.26 694.05 240.5 693.18 239.62 690.52 241.6 690.31 242.21 691.4 242.89 694.1 246.51 694.28 247.31 693.27 248.74 690.81 248.88 689.01 249.72 686.59 251.86 685.12 256.04 683.68 257.19 679.52 257.46 678.88 259.38 679.89 262.07 680.93 263.29 679.99 264.67 678.09 265.2 677.82 267.32 678.73 268.27 679.91 268.87 682.24 269.49 676.66 269.47 666.84 270.06 635.68 271.85 607.15 273.4 576.74 275.1 556.87 276.28 506.52 278.88 460.98 281.27 447.22 281.91 434.89 282.59 410.35 283.82 399.06 284.41 383.45 285.32 372.86 286.01 366.99 286.25 348.79 287.22 323.73 288.7 323.95 290.61 323.24 291.83 320.24 292.35 318.68 293.25 317.25 293.35 316.98 294.53 318.66 296.54 318.47 298.69 319.24 300.14 318.04 300.61 316.44 299.97 314.65 298.44 313.5 298.05 311.79 297.97 311.02 298.68 311.12 299.79 314.48 302.29 317.33 303.82 317.01 305.42 320.25 307.15 320.61 307.69 320.38 310.29 319.4 310.94 315.42 310.55 313.36 309.95 313.05 311.03 314.04 313.41 315.35 315.43 315.12 318.66 314.11 320.04 313.25 322.27 312.64 323.17 311.47 326.15 310.04 327.8 309.42 329 308.26 329.76 307.35 329.65 302.92 326.94 301.39 324.76 299.74 324.16 297.14 324.79 296.3 325.9 297.39 327.65 296.98 330.46 295.53 331.02 294.12 330.99 293.22 330.5 292.03 329.15 290.84 328.47 290.02 329.26 289.63 330.57 288.76 331.68 288.96 333.59 290.3 335.71 290.85 335.93 293.42 335.43 295.16 335.37 296.75 335.82 298.05 338.2 297.85 339.08 296.75 339.58 295.25 340.8 292.29 342.03 291.98 342.97 293.24 344.93 294.54 346.34 294.2 348.67 292.38 349.48 290.98 348.97 289.65 347.6 289.39 346.68 287.96 344.96 285.23 346.46 284.52 346.5 282.14 345.45 281.55 345.56 279.92 348.12 280.01 351.69 279.78 352.76 279.97 354.73 280.9 355.78 282.89 357.12 284 358.26 287.95 358.75 289.67 359.83 290.42 358.53 291.79 358.2 291.07 362.43 290.02 362.92 287.47 362.19 286.93 363.38 285.32 363.77 284.53 363.25 283.42 363.99 281.47 364.43 280.5 363.96 278.58 362.13 276.97 362.07 276.57 363.45 275.82 363.72 272.36 362.35 269.36 361.66 268.69 362.29 268.56 363.82 272.19 367.14 274.26 368.1 274.53 368.53 274.49 370.99 275.23 373.86 274.62 377.65 273.77 378.09 272.22 377.2 269.76 375.23 266.81 373.29 265.26 371.48 264.91 369.07 263.52 368.28 260.72 365.93 257.6 363.77 229.11 291.92 197.96 292.8 196.72 295.74 195.85 296.85 196.22 298.98 195.17 301.08 195.08 302.78 193.64 303.04 190.68 305.7 190.59 306.88 189.1 309.42 187.52 310.99 186.04 310.42 185.01 310.64 183.84 311.52 182.34 311.47 179.73 312.87 178.88 314.1 177.19 315.64 177.15 316.26 178.41 317.74 178.33 319.11 176.11 321.52 174.13 321.5 172.67 322.79 168.6 325.77 168.45 326.78 167.22 327.9 165.49 327.89 164.83 328.27 164.02 329.75 164.75 331.58 167 332.48 167.21 333.73 165.06 335.04 164.07 335.18 162.44 334.72 161.31 335.05 158.98 337.38 157.03 338.14 153.31 337.95 152.48 338.28 149.37 338.53 148.82 339.51 147.71 340.14 147.55 341.51 146.32 342.24 145.17 344.77 144.37 345.37 144.47 347.51 143.56 348.74 142.14 349.8 142.12 350.83 141.07 352.01 139 352.65 138.05 354.44 136.92 355.45 136.51 359.73 134.58 362.69 131.68 364.85 129.87 364.43 127.53 362.19 124.68 360.28 121.13 356.78 119.67 356.83 116.72 357.4 115.11 358.82 113.32 359.87 111.99 361.08 112.07 362.1 113.35 364.29 116.4 365.9 118.33 365.72 118.68 366.49 118.03 369.44 116.64 371.15 115.78 373.66 115.29 374.16 113.14 374.31 111.79 375.24 111.72 376.05 113.01 379.44 113.94 382.56 113.24 383.54 111.2 383.12 108.93 381.39 106.71 379.07 105.57 378.24 102.29 375.03 99.57 373.27 96.8 370.86 94.08 370.12 90.33 370.32 87.35 371.83 85.13 373.93 85.46 375.74 86.21 376.69 87.59 377.6 93.27 380.06 95.45 381.43 95.73 382.9 95.38 387.31 94.89 390.2 93.49 391.71 93.71 393.1 95.78 396.63 94.21 397.91 91.08 397.63 88.68 396.72 86.09 395.11 83.16 393.57 80.28 390.34 78.44 389.67 76.85 388.43 74.35 387.83 72.15 387.03 70.85 386.14 66.07 380.79 65 378.89 64.47 377.14 62.27 376.6 61.34 377.95 61.55 378.93 62.65 379.92 64.84 383.65 65.16 385.05 64.88 385.98 62.76 388.66 62.19 390.03 62.09 393.33 62.71 395.08 62.73 396.24 61.08 397.31 57.06 397.25 56.09 397.63 55.87 398.59 58.02 404.02 57.63 405.42 55.98 405.87 54.34 405.17 50.95 402.84 50.01 402.73 48.53 403.2 46.65 404.54 45.5 403.5 44.06 402.85 41.63 402.81 39.75 403.93 38.84 405.84 37.48 407.8 35.95 408 34.86 407.5 34.61 405.74 35.15 404.1 35.48 399.97 33.45 396.69 32.62 394.74 31.52 393.38 29.19 393.05 24.11 391.91 23.97 389.41 24.7 388.37 25.1 386.79 26.25 383.78 27.3 382.68 27.36 380.43 26.12 376.62 24.42 376.75 18.37 379.19 15.35 379.67 13.25 379.24 11.15 378.18 10.21 375.58 10.43 374.5 11.62 373.6 12.79 369.53 10.69 365.45 9.45 364.08 8.94 362.69 9.23 361.47 14.7 360.25 16.73 359.34 17.44 359.46 19.38 361.45 21.48 361.72 22.94 360.22 24.7 356.79 26.75 354.9 28.97 353.24 29.4 352.56 30.03 347.59 28.94 346.07 20.55 338.89 18.84 337.52 16.06 336.47 15.19 336.5 12.24 335.62 10.55 334.81 9.54 333.7 6.78 332.92 5.79 331.24 5.39 328.66 3.16 322.77 2.46 319.71 1.6 318.44 1 316.28 2.6 314 4.76 313.49 6.05 313.59 10.4 315.49 16.43 318.97 18.76 319.42 19.59 319.04 20.27 317.66 20.45 315.91 20.16 314.08 21.24 312.75 19.87 310.19 20.52 309.12 22.57 307.41 25.68 307.44 26.36 306.83 26.03 305.37 24.06 302.7 26.37 300.88 27.83 300.14 28.19 299.34 28.47 295.13 27.19 292.24 23.78 291.16 23.73 289.07 18.74 286.79 18.73 285.98 17.45 285.23 17.23 284.14 19.29 282.99 19.51 282.24 18.81 281.08 21.09 278.24 21.33 276.92 20.38 274.61 19.75 270.68 20.79 269.4 22.91 268.33 23.36 266.67 22.35 265.45 22.17 262.45 24.69 263.13 26.36 264.92 27.52 265.75 29.96 266.91 30.6 266.41 30.42 263.24 30.57 261.12 30.98 259.73 32.71 260.51 34.39 260.69 36.18 260.06 38.18 258.83 39.33 258.62 41.08 259.29 42.54 258.83 44.4 255.47 44.36 254.78 41.58 252.03 40.15 250.15 39.62 248.77 38.07 247.02 36.37 246.62 33.77 247.17 31.81 247.85 30.59 247.64 30.26 246.56 30.68 245.86 33.02 244.22 34.19 242.35 34.59 240.77 35.51 240.11 37.6 241.03 39.15 242.06 41.84 243.38 44.78 243.63 45.58 242.98 45.56 242.09 43.32 241.14 42.81 240.15 43.85 238.88 45.99 238.85 46.54 238.39 46.47 237.08 45.64 236.12 45.8 234.47 45.58 231.64 44.99 228.62 44.54 227.34 44.79 226.09 45.8 224 47.87 220.58 48.64 219.81 49.36 218.25 50.02 212.84 50.59 211.5 51.69 210.66 52.9 210.66 55.25 209.52 55.62 208.62 55.05 207.3 54.03 206.43 53.09 204.1 54.34 202.86 58.19 203.12 59.37 202.89 62.87 201.63 65.1 200.62 67.71 200.81 68.31 201.68 68.82 203.8 70.55 205.41 72.58 205.54 73.85 204.59 74.31 203.66 73.62 202.95 70.85 201.52 70.53 200.69 70.59 196.17 71.05 193.83 73.61 192.38 75.56 192.85 76.28 193.64 77.55 196.17 78.77 197.1 80.19 196.09 81.47 194.59 85 193.29 85.52 191.98 85.33 190.08 84.82 188.84 81.9 187.88 79.86 186.91 78.21 184.81 77.9 183.76 77.96 181.25 79.65 177.84 80.65 177.56 81.05 179.79 81.81 181.22 82.78 181.59 87.62 181.64 89.37 180.8 87.01 178.82 87.46 177.33 89.29 176.37 87.97 175.32 86.35 175.53 85.65 174.88 85.95 173.53 85.33 169.4 85.73 168.11 87.29 167.88 89.81 169.23 94.07 170.14 94.94 169.56 93.79 166.38 93.03 165.74 93.31 164.83 96.67 164.65 97.09 163.85 95.99 162.42 96.44 160.83 97.24 160.14 99.5 159.04 100.81 157.57 100.33 155.94 100.56 154.82 102.03 153.2 102.46 151.16 103.29 150.51 105.27 152.09 106.08 151.62 105.18 149.44 105.1 147.93 104.6 147.24 104.42 145.42 102.07 144.57 102.29 143.37 103.42 142.55 104.88 142.05 105.66 142.21 107.32 140.84 106.13 140.01 108.8 137.98 110.05 136.04 109.29 134.25 110.29 134 111.11 132.96 112.99 131.46 113.63 129.33 112.89 128.51 112.86 126.55 114.3 124.78 113.78 123.59 115.06 122.3 115.52 120.26 118.55 119.7 120.23 118.78 120.56 117.15 121.39 115.82 121.21 114.54 122.63 113.83 123.91 114.69 124.64 112.88 123.75 111.61 124.64 107.4 125.13 106.2 126.24 106.38 127.75 105.74 128.98 106.4 130.74 105.18 132.31 104.82 136 102.66 137.39 98.72 138.75 98.02 140.11 97.97 140.14 96.28 140.94 95.78 139.52 93.34 140.12 92.16 141.38 90.81 141.85 89.12 142.64 88.18 141.68 85.9 139.94 84.23 139.22 83.09 139.31 82.07 140.14 79.5 139.41 78.48 139.35 76.63 140.82 74.92 141.11 72.77 140.8 71.19 141.09 68.47 142.43 67.32 142.18 66.37 143.39 66.28 143.28 64.76 142.52 63.71 142.97 61.6 143.99 59.85 146.33 58.74 146.88 57.24 146.65 56.63 147.11 53.75 147.66 52.92 147.67 51.22 146.4 50.75 146 50 148.38 48.1 146.78 46.16 147.19 45.31 146.2 44.43 147.15 42.74 148.46 41.67 148.23 39.44 147.37 37.26 145.3 34.4 145.08 31.45 143.99 29.72 144.21 28.95 143.01 25.34 143.11 23.08 143.6 22.39 143.78 20.92 142.84 19.83 141.41 19.07 138.7 18.03 138.7 15.58 139.54 14.24 140.81 14.91 142.68 15.01 146.29 16.99 147.06 18.48 149.05 19.51 150.34 18.55 151.63 19.08 154.48 20.93 153.03 22.47 152.11 24.54 154.91 25.69 155.9 25.02 158.94 28.94 160.3 29.46 164.86 28.73 166.6 29.69 167.6 33.48 175.55 36.03 176.92 38.57 174.22 43.8 176.96 47.17 177.85 47.71 180.6 47.57 182.9 46.21 183.7 39.62 186.26 39.55 188.49 38.17 189.62 35.94 190.77 35.53 192.95 34.13 195.46 34.61 211.88 39.58 212.09 38.61 214.02 37.24 216.67 37.36 218.92 36.81 223.93 37.06 227.16 38.35 230.27 40.03 231.18 40.02 235.48 38.87 238.58 36.93 241.25 36.33 242.98 36.5 244.09 36.01 245.35 34.78 248.55 33.4 249.99 32.97 252.58 31.77 255.25 32.61 261.1 31.63 266.65 31.42 268.37 32.3 268.92 34.29 270.67 37.42 272.18 38.67 272.43 40.47 272.13 45.01 272.88 46.45 273.14 48.86 272.33 52.91 273 56.03 274.09 58.26 275.06 60.93 276.34 63.41 276.62 67.21 278.09 67.69 282.02 67.36 282.76 67.67 283.57 69.2 285.62 70.64 287.77 71.23 290.11 73.53 292.93 74.89 294.2 74.95 295.82 74.25 297.33 76.09 298.53 75.12 300.99 75.18 302.57 75.55 304.3 77.58 305.01 81.65 303.58 84.59 313.9 88.63 317.57 90.31 315.86 93.55 315.62 94.86 320.31 94.82 322.38 95.54 328.28 98.58 330.58 99.11 334.61 103.04 336.39 106.06 338.15 110.68 339.91 111.64 345.1 113.68 345.93 112.32 347.03 108.55 349.59 108.33 351.52 108.44 354.63 109.78 356.44 109.06 357.01 108.29 359.59 107.47 370.58 110.32 374.18 111.02 377.9 111.16 392.81 109.6 396.97 109.26 401.49 109.49 404.82 110.23 407.87 111.33 414.43 114.07 419.56 116.58 421.68 117.44 425.55 118.57 425.68 119.08 427.32 120.22 429.03 121.8 430.04 123.59 429.51 125.5 429.57 126.39 431.97 128.03 437.67 128.14 440.99 129.38 447.93 129.71 454.75 132.87 455.02 132.6 457.58 133.54 460.14 133.11 463.14 133.02 465.9 130.96 468.01 129.05 470.97 126.98 473.25 125.86 475.34 125.23 477.67 123.34 481.61 122.85 486.35 120.94 487.9 119.09 493.04 116.02 494.34 115.05 500.14 112.09 500.36 111.73 498.73 109.62 498.6 107.53 507.74 105.52 510.32 105.06 513.61 104.76 515.26 104.87 518.38 105.68 520.65 106.62 524.89 108.95 529.66 111.34 530.59 113.74 534.08 117.19 536.87 119.04 537.64 119.08 538.05 117.84 539.24 117.04 540.84 113.82 542.23 111.98 542.36 111.02 546.5 109.84 550.13 109.02 553.06 108.13 557.2 106 559.25 104.33 560.67 102.62 564.76 96.95 566.64 95.34 568.46 94.23 577.38 90.27 580.38 89.18 583.9 88.56 588.15 88.72 590.44 89.11 595.44 89.62 597.69 89.62 599.87 89.32 607.24 86.97 614.82 84.69 618.09 83.21 622.26 80.11 624.21 78.82 626.35 77.06 628.72 74.72 631.43 71.77 638.85 64.54 641.21 62.03 643.09 60.43 649.36 56.12 653.67 53.35 658.23 51.23 663.51 48.96 663.4 47.7 664.46 44.98 664.87 43 664.1 41.62 665 40.82 665.96 37.49 666.63 37.1 668.49 34.97 669.91 32.48 669.41 29.22 669.99 28.04 671.22 27.31 675.4 26.75 675.69 25.57 678.08 24.41 680.4 22.57 681.7 22.14 682.45 20.54 683.82 19.88 686.62 20.25 689.85 19.21 691.84 17.59 693.31 17.04 694.52 14.12 695.9 12.89 702.55 8.92 704.48 11 705.29 10.87 706.15 12.49 708.35 14.56 712.34 16.21 713.89 13.6 716.46 13.1 718.11 11.9 719.48 5.85 720.21 4.21 721.16 2.88 721.57 1 724.26 1.9 727.68 6.37 729.08 6.94 730.97 6.48 733.06 6.4 734.06 5.9 735.62 6.31 736.87 7.47 737.57 10.06 738.58 10.93 741.73 12.12 743.23 12.19 743.71 12.7 743.9 14.43 746.56 14.24 750.47 14.84 758.12 17.36 761.89 18.17 765.72 19.22 770.73 20.21 777.43 21.85 778.83 22.01 782.36 21.81 785.01 21.13 794.44 17.11 Z"/>
</g>
</svg>