<?xml version="1.0"?>
<svg xmlns="http://www.w3.org/2000/svg" version="1.2" baseProfile="tiny" width="800" height="1639" viewBox="0 0 800 1639" stroke-linecap="round" stroke-linejoin="round">
<g id="4205407">
<path d="M 473.18 1638 472.42 1637.58 473.82 1635.43 474.63 1635.85 473.18 1638 Z M 512.2 1620.04 510.33 1620.31 509.99 1621.59 505.92 1621.94 502.28 1623.2 500.33 1623.18 502.01 1621.38 504.76 1619.42 506.11 1617.34 508.36 1615.56 510.64 1610.56 512.3 1609.67 513.75 1609.65 517.24 1611.32 517.97 1613.28 517.18 1614.98 514.6 1616.07 512.2 1620.04 Z M 515.67 1604.74 516.39 1605.8 516.66 1607.74 513.4 1608.2 512.69 1607.93 511.6 1605.65 512.62 1604.67 515.67 1604.74 Z M 511.59 1601.52 509.79 1601.59 509.13 1600.28 510.92 1598.83 512.1 1599.25 511.59 1601.52 Z M 310.08 1584.45 313.25 1584.72 314.98 1587.33 314.43 1590.35 314.33 1594.83 314.54 1595.99 313.46 1600.01 312.35 1601.23 309.58 1601.94 307.14 1601.48 305.85 1603.3 304.29 1602.97 301.57 1599.46 299 1600.26 298.11 1599.75 297.26 1597.22 295.5 1596.89 294.02 1594.7 295.62 1589.52 297.5 1587.78 300.47 1587.54 301.99 1584.56 303.35 1584.33 305.36 1585.6 306.53 1585.47 308.8 1583.9 310.08 1584.45 Z M 265.59 1584.93 261.83 1589.8 261.3 1592.69 259.58 1594.46 257.45 1594.7 252.57 1595.93 251.02 1596.91 250.4 1598.27 250.91 1599.45 249.97 1602.19 248.19 1604.65 246.81 1605.26 247.3 1607.42 248.55 1608.32 247.98 1611.24 247.17 1611.9 243.54 1613.66 241.3 1613.33 239.79 1614.53 238.81 1613.13 233.35 1609.73 232.62 1607.44 232.81 1605.47 234.29 1604.58 235.81 1604.34 236.44 1603.3 238.79 1602.11 239.53 1601.03 239.51 1599.37 240.41 1596.98 240.29 1592.62 241.44 1590.77 245.67 1588.36 248.04 1587.93 249.3 1586.39 252.09 1585.3 254.89 1584.96 255.43 1585.87 259.94 1583.7 265.17 1582.15 265.59 1584.93 Z M 241.16 1578.23 240.72 1580.99 237.58 1581.99 235.77 1578.93 234.33 1579.66 233.45 1577.35 234.94 1573.61 236.23 1571.28 238.59 1570.44 240.07 1569.39 242.38 1569.75 243.22 1572.32 240.01 1573.69 241.16 1578.23 Z M 422.06 1197.38 423 1197.73 422.85 1199.13 420.93 1202.37 419.03 1202.71 418.25 1205.66 418.93 1208.49 418.86 1209.75 416.42 1212.89 415.06 1214.16 414.43 1215.96 412.56 1215.69 411.96 1216.24 410.97 1218.94 409.19 1219.03 407.31 1221.16 406.6 1219.37 408.22 1215.62 408.96 1212.92 409.13 1210.13 408.45 1207.33 408.83 1205.1 406.95 1203.72 409.07 1200.35 410.53 1199.62 412.28 1196.66 412.01 1194.65 412.28 1192.69 411.85 1190.82 410.83 1189.97 410.52 1187.82 412.4 1185.72 415.88 1184.5 418.21 1183.08 419.96 1182.92 422.88 1183.33 423.84 1185.3 425.34 1185.64 426.57 1187.25 426.6 1189.3 425.23 1190.82 422.28 1191.56 421.44 1192.14 421.54 1193.87 422.81 1195.4 420.87 1196.03 422.06 1197.38 Z M 625.96 959.62 625.75 957.57 627.24 958.16 625.96 959.62 Z M 640.56 958.46 638.81 959.73 636.73 962.18 634.56 963.26 632.23 962.92 631.23 961.59 630.92 959.97 631.45 958.94 633.53 958.51 634.64 957.58 637.72 953.54 638.3 951.4 640.02 949.58 642.13 950.17 643.52 951.37 643.44 954.4 641.48 955.19 640.56 958.46 Z M 705.78 612.84 707.32 613.38 707.17 615.36 705.83 616.24 704.71 616.07 702.22 618.15 700.88 617.74 699.47 619.37 695.67 621.14 694.68 622.68 693.57 621.76 694.29 618.66 696.05 617.78 696.74 615.53 698.46 612.2 700.23 611.86 702.06 610.87 703.6 611.96 705.78 612.84 Z M 719.16 617.96 717.51 618.44 716.64 619.63 709.96 616.41 708.85 614.95 708.89 613.86 711.61 610.63 716.74 607.36 720.64 605.86 722.52 604.73 723.37 606.91 723.25 608.85 720.69 615.35 719.16 617.96 Z M 742.96 485.25 744.27 486.55 745.12 489.46 745.27 491.45 744.1 492.93 742.67 492.95 742.03 490.89 740.77 489.26 741.54 485.52 742.96 485.25 Z M 692.94 439.09 691.06 439.66 693.47 441.1 692.79 443.01 690.84 442.94 689.11 440.25 687.31 439.61 687.77 437.33 688.51 436.4 688.24 434.28 689.83 434.23 693.24 437.71 692.94 439.09 Z M 724.48 422.49 722.8 422.04 722.42 420.41 723.24 420.1 724.69 421.73 724.48 422.49 Z M 103.92 1610.92 104.63 1608.14 104.37 1604.89 103.39 1601.37 102.74 1596.81 102.78 1578.39 103.59 1569.86 102.92 1559.93 101.57 1556.2 100.48 1552.47 96.73 1546.75 93.01 1541.97 89.91 1537.13 85.09 1532.57 82.09 1528.55 78.5 1526.33 76.28 1524.41 72.98 1522.92 70.21 1520.52 66.99 1518.62 65.72 1517.21 62.42 1511.89 60.05 1507.37 58.71 1503.89 57.57 1497.55 56.99 1491.94 57.01 1488.59 57.53 1483.49 58.43 1478.91 58.62 1475.24 59.64 1472.04 61.02 1468.84 62.24 1462.38 62.13 1457.66 60.52 1454.18 56.47 1451.97 47.75 1447.61 40.22 1443.66 36.35 1440.63 33.71 1436.28 33.08 1432.46 33.58 1426.33 34.53 1424.2 36.65 1421.47 38.79 1419.56 41.91 1417.22 43.94 1414.74 48.47 1410.43 51.08 1405.33 51.22 1403.29 48.44 1396.65 44.8 1392.07 43.27 1388.51 43.12 1385.42 44.14 1382.47 45.9 1380.24 53.54 1372.69 60.26 1364.79 65.62 1360.79 69.88 1356.72 72.08 1353.58 72.35 1349.59 71.76 1347.4 66.72 1341.81 61.9 1336.92 55.02 1329.06 49.52 1322.39 45.94 1316.26 43.67 1312.06 42.32 1308.09 40.2 1294.11 38.68 1282.99 36.66 1273.49 34.92 1268.31 34.5 1265.63 34.11 1260.42 36.93 1256.66 41.32 1249.98 44.79 1243.08 45.52 1239.23 45.78 1234.5 45.63 1215.16 42.86 1198.37 41.76 1190.65 40.58 1181.27 39.66 1177.23 38.21 1173.69 35.46 1163.57 32.37 1153.54 28.01 1136.26 28.55 1123.38 29.64 1112.59 31.16 1103.93 32.76 1095.39 35.51 1089.04 40.73 1079.74 42.38 1075.71 51.4 1063.44 52.92 1058.4 54.42 1051.52 54.57 1047.89 42.98 1037.44 35.56 1032.15 22.49 1024.57 15.28 1017.54 6.85 1002 2.34 993.3 1 987.46 1.57 980.29 4.76 970.04 7.76 963.74 11.18 955.47 17.57 944.16 20.88 939 22.65 933.15 23.33 931.56 25.15 929.11 24.92 926.7 25.76 924.97 25.96 919.73 24.34 917.31 22.43 916.04 22.1 904.17 21.78 900.01 21.09 898.56 28.56 889.07 35.46 874.5 34.26 872.44 35.12 870.5 32.9 870.67 32.16 868.1 36.88 859.19 38.17 858.03 40.38 853.6 41.52 852.49 46.71 846.01 54.23 839.58 58.79 836.68 59.38 835.8 65.59 830.16 77.42 820.52 104.77 800.13 115.53 791.7 120.43 787.6 123.42 785.49 124.95 783.18 126.34 779.95 125.54 776.93 119.82 771.17 116.07 766.68 113.61 765.42 109.09 758.99 106.5 751.67 104.37 743.24 101.51 735.05 99.54 722.94 105.34 698.59 105.18 697.46 103.87 687.55 102.67 682.69 98.1 668.33 90.33 657.62 78.27 645.35 68.38 632.32 64.86 621.43 63.98 614.45 63.83 606.65 64.38 603.44 80.97 577.52 85.06 571.94 88.76 563.09 89.64 558.89 89.69 555.42 85.15 544.89 81.01 530.94 80.71 523.21 82.57 518.5 84.18 517.01 88.07 514.89 109.22 508.09 126.81 502.81 151.85 494.19 171.35 486.82 204.09 470.16 226.52 447.25 244.65 393.09 262.21 377.35 272.2 369.57 300 353.27 361.67 311.21 364.23 309.3 549.42 315.67 551.95 315.9 553.39 316.48 554.4 317.64 554.8 319.67 556.68 321.81 558.53 322.51 564.31 323.3 565.45 323.91 566.39 325.9 566.25 329.69 565.46 333.32 564.35 334.76 563.52 337.91 563.71 339.26 562.71 341.7 562.64 344.53 561.92 346.51 560.55 347.72 557.92 348.62 557.54 355.58 558.36 359.74 559.3 366.71 560.8 372.88 560.93 374.52 562.27 378.2 564.33 382.55 564.83 384.16 566.47 385.59 569.64 384.78 572.85 385.45 573.63 386.88 575.9 386.87 578.07 385.43 580.49 384.61 581.54 385.33 583.06 389.15 584.41 390.38 586.07 393.39 587.82 394.87 589.39 397.9 589.2 399.45 589.8 400.58 589.78 402.55 589.07 403.17 588.05 406.04 586.39 412 588.25 417.35 590.53 421.75 591.9 426.34 593.85 430.74 595.83 434.01 596.42 435.97 597.89 437.84 600.74 442.92 605.41 449.98 609.49 455.03 609.79 455.74 615.15 461.86 622.27 469.42 628.04 474.73 634.4 479.1 640.75 482.88 648.53 486.66 656.42 489.74 662.29 491.62 666.26 492.29 671.67 492.83 675.57 492.81 678.27 492.3 680.53 491.46 682.01 490.06 681.4 488.13 681.49 484.97 682.27 481.08 684.06 479.46 685.1 477.66 685.45 475.89 687.24 474.41 688.48 471.38 688.33 469.51 689.21 467.28 690.16 466.19 691.34 462.44 693.11 460.86 694.97 460.99 696.08 461.68 696.3 463.43 697.11 464.57 697.61 467.11 699.24 468.14 700.34 471.32 701.8 471.19 704.11 472.85 704.15 473.96 706.3 478.6 709.13 481.1 712.56 481.93 712.64 483.5 711.74 485.71 710.73 486.75 710.66 488.03 709.6 490.15 707.12 493.88 707.94 494.94 707.07 497.8 708.24 499.7 706.41 501.68 705.43 503.97 704.15 505.07 702.31 504.96 700.8 503.96 695.74 503.98 691.98 505.97 690.34 505.93 687.81 506.62 685.38 508.02 679.37 509.53 678.5 511.79 675.4 515.88 672.6 522.67 670.6 525.81 669.92 527.99 668 531.78 666.81 534.75 665.69 536.44 665.24 539.53 663.88 542.29 663.29 545.56 661.73 549.76 661.52 551.04 662.19 552.8 662.39 555.02 663.18 556.63 665.68 559.36 666.63 561.14 666.99 564.51 668.67 566.28 671.36 570.26 670.31 571.29 670.11 573.28 670.5 574.41 669.31 575.99 669.16 577.62 667.33 579.88 667.53 581.05 666.55 582.15 666 584.13 664.43 587.38 664.31 590.02 665.66 591.08 664.98 592.79 665.16 595.45 662.61 596.36 659.17 599.17 656.78 598.72 652.92 596.56 651.15 596.62 648.35 597.77 645.69 599.95 641.26 603.12 638.11 605.7 635.37 607.54 630.15 612 628 614.28 624.56 617.08 617.55 624.28 613.67 627.84 612.78 630.08 611.29 631.89 607.62 635.14 600.31 643.87 598.28 645.71 595.85 648.8 595.01 650.99 593.6 653.04 590.46 655.98 586.74 660.53 584.21 664.46 581.36 667.15 579.72 669.45 577.95 673.01 577.73 674.45 575.72 676.43 571.78 680.89 562.72 695.39 559.57 700.22 558.39 702.46 554.73 708.51 554.17 710.09 551.95 713.16 550.99 715.21 547.58 721.18 545.63 725.24 543.17 728.96 539.16 737.23 538.05 740.17 535.93 744.45 532.9 749.94 531.45 754.01 530.09 756.31 528.36 760.74 527.73 763.07 526.59 764.84 523.4 773.13 523.28 774.54 522.32 776.99 521.78 779.65 520.17 784.76 519.22 787.03 518.71 790.41 517.37 795.08 517.04 798.49 515.47 803.66 515.06 811.63 514.57 817.51 515.31 820.03 515.07 822.83 516.17 832.61 518.19 839.34 518.48 840.85 519.61 842.52 520.15 844.31 523.21 849.67 526.88 854.11 530 855.7 532.87 856.26 534.15 856.07 534.72 852.97 536.29 851.27 537.91 851.61 537.58 853.61 538.45 856.13 539.37 856.78 540.99 855.76 542.11 855.74 544.18 853.8 545.51 853.73 547.96 851.74 550.44 852.23 553.38 850.08 558.9 849.33 560.56 850.76 561.77 850.6 562.28 852.42 564.16 853.8 563.66 855.55 564.35 857.14 563.98 860.27 562.77 862.04 560.29 863.85 559.05 865.61 558.04 866.08 557.62 868.31 556.56 867.44 554.78 868.03 554.02 868.87 552.13 869.6 550.94 871.97 551.04 874.77 549.67 876.62 550.09 877.27 547.54 879.12 545.78 879.63 544.12 880.72 542.55 882.67 542.51 883.86 544.1 885.85 545.69 889.98 545.12 890.8 544.95 893.21 545.44 894.8 547.49 894.54 547.97 896.67 547.91 898.74 545.91 902.51 544.57 903.27 544.32 905.13 543.04 906.42 544.02 907.42 540.51 909.49 539.75 906.15 535.71 905.17 534.25 905.25 530.12 906.33 528.63 907.04 524.22 910.09 521.13 911.77 519.81 913.69 518.79 916.22 517.78 917.24 516.99 919.29 517.57 924.27 516.88 926.26 514.39 926.16 512.87 926.98 510.1 929.9 507.14 934.53 504.79 937.32 503.54 939.83 498.88 947.19 497.48 950.16 497.6 952.36 498.24 954.14 497.88 955.43 498.36 957.72 498.04 960.65 499.13 963.04 500.62 964.8 502.2 964.89 502.89 966.25 504.15 966.52 505.75 964.73 507.44 963.62 507.84 964.98 506.63 967.67 507.44 968.39 508.27 971.72 509.7 972.04 509.85 973.99 508.34 974.52 504.71 973.9 503.34 972.52 502.35 972.7 500.36 974.64 499.18 975.11 498.61 976.25 494.68 977.72 492.43 977.69 490.52 976.97 488.17 977.68 487.44 978.62 487.98 980.38 489.04 981.77 488.91 983.07 490.33 984.47 488.76 985.94 487.33 986.12 487.02 987.14 484.55 987.95 483.43 988.88 480.04 988.49 478.75 989.71 479.72 991.14 479.63 993.26 477.49 993.42 477.06 994.2 473.7 994.76 472.95 997.28 471.82 998.34 471.64 1000.15 472.55 1001.87 470.1 1004.66 471.3 1006.71 470.48 1009.66 470.79 1010.9 468.73 1012.01 467.16 1013.36 465.01 1012.43 465.66 1010.31 463.65 1009.75 461.35 1010.31 458.97 1011.86 456.63 1013.82 452.43 1017.95 448.7 1022.48 445.08 1025.53 442.73 1028.7 440.68 1030.65 439.39 1032.99 437 1035.25 436.65 1036.31 433.29 1039.91 431.29 1042.87 429.15 1044.87 426.93 1048.36 425.05 1050.33 424.39 1051.67 418.54 1059.81 416.14 1062.33 415.14 1064.46 412.87 1068.04 409.41 1072.02 408.18 1075.04 406.66 1077.87 404.53 1080.38 403.21 1083.61 402.05 1084.66 400.21 1087.21 399.31 1090.42 397.94 1091.91 394.63 1097.52 393.71 1100.15 391.46 1103.98 391.16 1105.25 389.04 1109.47 388.33 1112.1 387.61 1113.07 385.74 1117.48 384.73 1118.83 384.02 1121.69 382.28 1125.75 382.16 1127.31 380.57 1131.3 378.66 1138.26 377.97 1142.47 377.17 1145.11 376.26 1151.89 375 1162.35 374.18 1166.78 372.94 1172.02 371.57 1176.43 371.03 1180.19 369.57 1182.75 369 1185.31 366.85 1189.41 365.27 1191.95 363.95 1192.23 362.24 1193.48 359.55 1194.1 353.93 1197.31 348.38 1200.91 346.6 1202.31 344.36 1204.78 340.12 1208.23 338.1 1210.7 334.7 1213.95 333 1216.71 329.81 1220.04 324.78 1227.32 324.18 1227.82 321.43 1232.22 320.96 1232.46 315.31 1243.19 313.3 1247.48 310.67 1253.6 309.11 1257.83 309.79 1259.71 309.98 1263.62 307.78 1271.08 302.71 1275.45 301.26 1281.36 299.33 1288.13 298.98 1290.41 298.29 1291.83 296.83 1300.99 296.29 1309.72 296.37 1322.67 296.67 1328.97 297.01 1332.23 298.46 1337.85 299.69 1340.19 302.58 1343.61 305.07 1345.8 308.01 1347.62 310.66 1348.69 314 1349.35 315.78 1349.39 317.11 1348.41 318.45 1345.94 317.96 1344.18 320.32 1342.46 320.67 1344.29 320.17 1345.01 322.26 1346.01 321.27 1348.42 316.19 1349.53 316.18 1350.82 318.62 1354.97 318.92 1357.11 320.92 1360.01 325.61 1366.33 329.4 1369.01 331.15 1369.28 333.73 1369.03 337.37 1367.21 339.36 1366.67 343.57 1364.36 344.46 1364.53 350.67 1363.12 353.83 1364.13 353.55 1367.74 354.89 1369.57 356.41 1370.9 357.5 1372.67 357.27 1374.07 358.4 1375.98 364.48 1378.72 367.37 1378.73 368.62 1379.84 370.85 1380.88 371.89 1382.32 374.59 1382.28 377.46 1381.21 379 1381.38 380.49 1384.26 382.63 1384.49 382.77 1385.91 380.65 1386.95 380.3 1387.99 381.32 1388.77 380.87 1392.12 381.18 1393.36 381.08 1396.74 382.76 1399 384.66 1400.23 385.84 1401.55 386.15 1404.34 382.83 1405.14 382.2 1407.86 381.15 1408.35 379.38 1407.55 377.13 1404.02 374.38 1403.52 371.07 1405.03 368.95 1404.02 367.9 1402.72 365.78 1403.66 360.41 1408.09 359.95 1409.37 358.05 1411.77 354.65 1417.44 352.91 1418.57 352.25 1420.18 351.05 1427.75 355.52 1429.84 357.17 1431.36 356.99 1432.83 358.2 1435.1 359.54 1436.67 361.9 1438.02 364.13 1440.52 365.38 1441.27 365.58 1442.81 364.08 1446.74 361.99 1449.32 357.42 1449.66 356.84 1451.42 356.84 1453.25 357.66 1454.91 356.27 1456.81 355.28 1457.41 354.26 1459.61 350.72 1461.85 348.39 1461.73 347.02 1461.08 344.89 1461.26 342.91 1463.15 341.95 1463.32 341.65 1464.86 340.77 1465.88 339.17 1468.85 336.33 1471.3 333.89 1472.14 331.27 1472.55 330.07 1472.26 324.22 1473.94 322.97 1473.85 319.91 1472.47 318.74 1469.76 316.48 1469.42 311.81 1470.31 310.8 1470.86 306.3 1470.13 305.19 1468.87 305.17 1467.13 302.55 1467.04 300.95 1466 301.5 1465.31 298.01 1462.9 297.99 1461.59 296.93 1460.93 297.42 1459.78 295.59 1458.75 296.26 1456.99 296.16 1454.31 296.89 1452.56 296.87 1449.02 298.41 1443.58 299.27 1441.93 297.76 1440.4 295.62 1439.06 291.67 1437.36 285.82 1435.82 279.91 1435.22 275.04 1435.41 268.8 1436.28 262.09 1438.3 253.62 1442.71 247.34 1446.58 244.85 1449.07 242.81 1450.4 236.2 1456.53 231.42 1462.14 231.51 1462.88 229.79 1465.12 228.58 1466.01 225.73 1470.85 222.31 1476.28 220.86 1479.72 220.79 1483.54 222.72 1486.2 223.75 1488.73 222.45 1490.75 219.9 1492.29 219.09 1493.27 217.4 1493.77 216.5 1495.38 215.97 1497.71 215.13 1498.82 215.44 1501.03 215 1501.91 216.22 1503.23 216.31 1504.26 218.78 1506.79 219.56 1508 218.62 1510.11 216.27 1513.41 216.65 1514.91 215.62 1516.22 214.28 1519.66 212.02 1521.58 211.32 1524.5 210.07 1525.83 208.58 1526.05 206.37 1527.41 205.2 1529.99 206.16 1534.32 206.73 1535 205.75 1539.84 203.98 1542.96 204.4 1544.57 203.47 1549.09 201.89 1551.21 202.36 1553.85 201.39 1555.29 201.66 1556.17 199.64 1560.28 199.9 1562.08 198.52 1564.21 199.16 1565.22 195.19 1569.48 194.35 1571.43 193.14 1572.58 190.94 1571.49 189.49 1572.04 184.16 1575.53 183.46 1576.68 180.27 1578.59 177.95 1578.86 177.2 1579.94 175.24 1580.47 173.27 1582.41 169.57 1583.6 169.23 1585.11 168.11 1584.83 165.75 1586.72 162.96 1587.53 160.87 1590.48 155.25 1592.38 154.2 1594.68 152.85 1594.76 152.57 1596.51 151.38 1597.09 149.71 1596.21 149.83 1595.41 148.46 1592.5 149.61 1589.48 150.46 1588.13 149.47 1586.47 147.57 1585.26 144.39 1583.83 139.87 1582.62 133.03 1582.44 130.82 1583.64 130.2 1585.87 126.51 1586.6 126.18 1588.53 123.77 1589.85 120.11 1588.66 116.91 1602.95 116.13 1604.44 110.98 1606.99 108.69 1606.75 107.27 1608.48 103.92 1610.92 Z M 682.23 9.65 683.42 9.05 685.4 11.67 686.86 15.37 687.03 18.81 689 21.8 690.69 21.11 691.88 19.85 692.77 20.34 695.46 20.17 698.93 19.23 701.36 19.07 702.67 17.36 704.41 17.48 706.29 18.69 708.93 15.56 710.71 16.05 711.38 18.45 711.04 20.71 710.83 25.16 711.72 27.97 711.29 30.87 711.41 34.2 710.7 34.9 710.06 38 711.45 44.18 712 45.18 711.86 48.91 713.41 52.44 713.72 56.32 713.42 57.79 714.07 59.52 713.77 62.12 713.7 67.8 713.44 70.05 714.04 72.24 715.04 71.95 717.12 73.27 718.15 73.03 719.11 74.3 720.6 74.47 722.47 77.31 722.01 81.29 721.36 82.49 720.87 85.64 718.32 87.76 717.56 89.74 714.94 86.48 713.87 83.53 711.24 81.41 708.87 82.06 709.45 78.83 706.44 78.07 700.7 79.27 698.8 80.03 695.18 79.89 692.5 78.86 690.01 75.93 690.3 74.11 689.68 72.72 690.37 70.57 688.9 67.77 687.21 65.41 687.26 60.96 686.55 59.54 685.19 58.78 684.82 57.29 683.23 55.15 682.77 53.39 681.87 52.51 681.8 50.51 679.3 47.89 678.82 45.9 676.51 45.8 675.26 46.94 672.04 44.86 671.48 43.69 669.45 43.02 666.71 45.51 666.05 46.93 664.22 47.5 662.99 47.07 661.46 44.29 661.35 40.94 660.82 39.39 660.52 34.67 661.3 31.69 662.23 31.32 665.66 31.23 668.12 31.58 670.31 25.18 672.91 19.69 674.55 14.26 676.15 10.39 676.18 9.34 678.62 6.57 680.89 7.36 681.37 9.15 682.23 9.65 Z M 791.33 18.98 789.12 20.63 788.08 20.92 786.45 20.27 785.95 24.62 785.05 26.03 783.15 26.67 782.52 27.44 781.3 31.1 779.95 30.94 781.93 25.79 781.56 22.89 781.92 21.24 783.05 19.67 784.23 17.14 785.67 15.85 787.75 12.91 789.74 11.22 792.18 7.36 794.34 2.57 797.96 1 799 2.21 797.69 5.46 793.13 12.51 792.1 15.08 792.28 17.82 791.33 18.98 Z" fill-rule="evenodd"/>
</g>
</svg>