<?xml version="1.0"?>
<svg xmlns="http://www.w3.org/2000/svg" version="1.2" baseProfile="tiny" width="800" height="510" viewBox="0 0 800 510" stroke-linecap="round" stroke-linejoin="round">
<g id="4205605">
<path d="M 799 116.43 797.6 116.31 795.55 120.31 789.5 123.58 787.63 125.29 787.3 127.04 782.62 135.42 781.86 139.3 777.99 143.38 774.78 144.26 765.26 142.38 761.24 142.28 757.26 143.65 754.8 149.58 754.14 149.99 743.97 152.46 742.26 155.8 740.53 156.53 739.47 159.16 739.65 163.11 737.58 163.35 737.01 166.59 738.67 169.8 737.1 171.69 737.16 174.79 740.65 177.82 739.3 181.15 737.25 182.73 734.79 181.93 732.56 184.09 733.33 185.12 732.21 188.15 732.32 191.45 729.14 190.07 726.03 190.83 726.74 192.46 727.02 198.54 722.19 200.24 722.73 203.02 719.47 206.52 722.12 208.29 721.77 210.06 718.08 212.46 711.87 212.03 708.86 210.91 707.27 211.21 705.18 213.83 705.82 216.77 706.97 218.16 705.47 219.99 700.31 218.77 697.61 220.31 698.82 222.53 698.34 224.32 696.1 224.38 695.12 226.35 692.55 227.84 694.27 232.61 695.32 234.03 696.01 237.18 694.67 241.84 696.57 243.44 695.67 246.19 697.47 249.15 699.6 251.21 702.64 250.6 703.92 251.83 705.17 255.03 704.13 256.99 703.51 260.07 702.23 259.74 701.15 262.65 698.51 265.28 695.8 272.09 696.92 274.12 695.56 276.99 693 275.93 691.6 277.8 692.9 280.04 695.81 280.68 696.72 283.45 700.73 285.46 701.05 288.39 700.08 289.88 696.81 288.8 698.48 291.57 699.51 295.2 702.47 293.27 704.78 296.18 702.06 297.38 704.78 299.97 702.99 301.97 705.49 303.77 706.81 305.78 705.95 307.57 702.31 308.42 700.2 310.36 697.99 310.74 691.53 309.21 689.57 307.47 687.7 307.87 683.66 306.87 677.61 303.8 675.97 304.53 674.46 303.72 670.82 304.73 669.08 303.4 666.97 303.79 662.43 303.44 661.15 307.78 660.76 310.72 658.12 313.76 653.73 317.34 650.62 317.92 649.41 319.13 646.37 320.45 641.41 323.33 638.73 324.01 634.67 322.44 629.47 322 620.85 324.06 619.14 325.31 618.03 328.32 618.11 331.57 619.42 335.33 619.16 337.98 623.16 342.72 625.19 343.56 627.79 346.43 628.27 349.22 631.98 352.73 632.05 357.05 632.73 359.77 632.21 361.96 634.87 363.62 637.89 363.94 636.57 369.95 636.58 372.08 632.91 376.46 631.28 378.99 628.23 381.43 625.13 386.55 623.75 387.62 619.32 387.8 611.14 385.57 608.39 385.76 601.33 384.33 596.29 385.75 591.06 386.37 587.98 390.16 582.65 394.46 582.02 397.66 583.98 401.89 586.49 403.99 589.81 405.67 595.14 407.44 598.57 410 599.6 411.97 599.6 415.42 601.5 427.37 601.2 431.92 600.01 435.63 597.05 436.69 593.27 434.44 590.91 434.25 587.44 436.4 584.98 441.46 584.31 444.53 578.81 448.72 574.21 450.23 569.54 452.26 564.98 453.12 556.96 454.05 553.45 456.08 550.52 455.11 545.51 454.41 541.64 454.41 536.16 455.19 532 457.7 528.4 461.41 523.9 464.65 521.81 465.54 516.47 466.08 514.55 467.31 514.39 471.55 511.15 475.95 508.93 478.04 507.41 481.18 505.41 482.18 499.69 481.71 494.5 481.91 453.17 470.44 447.69 467.99 442.57 467.91 439.07 467.45 433.96 466.04 430.71 464.35 430.99 462.87 427.04 460.69 429.11 459.31 430.67 456.36 430.15 455.42 426.18 454.53 424.43 451.51 424.41 449.23 426.91 446.14 430.42 443.53 378.13 418.52 375.36 418.47 372.57 419.55 369.79 419.89 367.87 419.03 358.28 420.43 355.33 421.54 349.39 420.36 346.29 417.76 340.52 417.17 338.95 418.74 335.61 419 333.01 417.76 325.43 419.89 322.18 419.56 320.14 420.35 312.88 419.51 308.37 421.37 303.87 420.97 298.52 422 292.76 422.6 288.76 424.45 286.61 423.82 282.35 426.36 282.26 428.42 280.4 431.31 276.78 432.5 276.06 434.12 276.75 437.32 271.98 436.19 268.37 436.68 267.28 438.28 262.63 439.47 263.68 443.88 265.59 447.8 264.07 450.3 260.93 451 255.82 450.2 252.12 448.45 249.75 448.57 245.07 452.53 245.46 454.85 249.12 458.12 255.53 460.51 257.25 464.27 260.82 465.73 264.86 463.41 267.87 460.17 271.07 459.54 272.43 460.54 272.14 463.81 269.53 469.39 267.41 470.25 264.43 472.72 263.72 474.41 260.24 476.76 262.83 482.28 263.29 484.05 267.66 484.22 274.4 485.42 281.51 483.87 283.42 483.98 285.28 486.34 153.64 500.53 46.14 509 42.13 500.1 40.48 498.83 36.4 497.8 27.76 494.36 22.29 491.13 20.62 489.42 14.58 481.41 13.22 480.4 10.12 481.18 8.64 482.32 3.41 480.47 1 478.32 1.86 476.07 9.15 474.5 11.43 473.62 16.08 473.36 21.1 473.88 27.18 476.13 38.99 483.43 41.42 484.36 43.71 483.6 43.58 481.47 41.97 478.88 39.48 471.8 38.59 466.47 39.02 463.06 37.21 456.64 35.64 454.15 34.92 450.54 35.11 447.45 37.03 446.5 50.49 447.96 52.74 448.79 66.59 448.36 69 447.45 73.79 447.71 75.75 447.16 76.47 445.48 76.16 442.03 76.48 435.99 75.73 434.92 72.99 434.4 65.43 434.99 58.89 434.05 53.46 432.06 48.02 432.36 43.74 431.36 40.87 429.09 41.04 426.69 45.71 423.08 50.72 420.01 55.57 417.68 56.6 414.88 58.48 412.89 63.24 409.47 65.45 407.14 69.78 404.98 70.01 402.96 67.03 402.1 64.54 402.61 60.52 404.6 58.68 404.59 52.24 407.27 48.36 409.63 45.98 408.72 42.52 401.87 39.93 399.83 40.91 397.6 44.31 395.48 45.45 389.06 44.87 385.82 45.09 380.97 47.79 373.86 50.83 370.63 52.52 369.59 57.64 369.87 62.65 369.11 69.16 366.52 70.5 365.47 71.19 361.35 63.2 357.46 57.44 353.36 55.54 351.61 52.72 346.02 50.38 343.69 49.73 341.98 50.62 340.5 54.79 340.29 59.91 339.04 62.83 335.96 64.07 335.43 65.21 335.54 71.98 339.33 77.37 337.71 79.36 334.62 87.17 334.41 90.34 332.97 92.74 325.99 96.36 319.78 99.06 317.89 100.52 318.2 104.74 323.7 109.45 325.75 112.59 323.9 114.71 321.05 118.01 318.17 124.98 316.86 125.39 315.68 123.1 312.87 123.04 311.59 127.84 310.2 129.22 307.7 128.33 303.63 129.71 298.26 126.09 295.56 123.93 293.01 121.95 286.81 119.83 283.94 118.45 280.91 116.74 279.11 115.58 275.12 116.53 273.95 115.67 270.27 113.66 269.88 114.18 265.54 111.83 262.41 110.1 263.22 107.93 260.79 104.47 259.67 104.16 257.04 106.62 251.15 107.72 250.55 113.24 250.49 113.03 248.31 108.61 244.48 110.85 242.53 114.77 241.66 117.88 244.45 119.17 244.1 119.31 241.58 118.55 240.31 114.22 238.28 115.74 235.95 120.56 234.81 124.19 237.31 123.71 239.85 125.08 240.79 127.82 240.61 129.71 239.54 130.47 237.79 127.53 236.58 126.17 235.13 126.25 232.91 131.08 231.24 133.11 231.72 134.33 233.61 136.58 235.22 139.58 234.56 141.74 230.6 144.15 229.61 145.86 230.14 147.09 232.21 149.04 232.38 149.64 230.63 154.23 230.14 158.39 230.16 161.26 227.17 164.26 227.26 165.83 224.67 167.99 223.67 168.21 219.81 170.92 216.55 175.08 214.21 176.28 212.34 176.17 209.29 178.63 201.98 179.99 200.44 184.95 196.91 186.9 194.23 187.53 191.01 190.55 184.79 192.83 181.54 193.11 178.82 195.77 176.96 197.95 173.88 200.29 174.3 202.61 175.9 206.92 176.19 210.68 174.93 212.66 173.49 214.52 173.21 217.7 171.08 219.01 166.94 221.39 165.06 226.26 165.11 228.98 166.11 231.18 168.24 237.28 170.11 239.2 171.29 243.81 171.86 249.63 174.45 255.99 175.17 257.72 175.96 259.9 179.5 262.38 178.34 264.27 172.25 265.69 172.12 272.36 175.25 275.18 170.97 278.09 168.69 278.34 166.15 275.37 160.97 274.34 160.71 268.51 163.22 264.44 162.9 261.62 160.05 256.94 161.5 253.35 160.41 256.66 156.1 253.37 153.05 252.33 151.21 254.21 149.62 249.26 145.88 252.72 142 253.58 140.01 256.9 139.27 260.65 141.6 261.64 145.61 263.09 145.81 265.49 143.57 266.65 138.84 268.83 138.2 270.21 136.83 273.04 136 273.05 132.1 275.86 129.8 275.61 127.37 279.4 129.12 282.27 131.24 285.74 132.37 289.14 134.18 293.11 135.25 297.45 135.35 303.02 132.94 310.38 133.25 313.21 134.36 318.54 133.68 321.05 134.12 323.09 133.55 327.31 134.39 332.99 134.76 337 133.73 343.11 133.43 344.04 132.67 343.83 127.72 348.31 121.4 350.94 115.12 352.99 113.82 355.61 113.5 361.54 111.42 363.46 108.4 364.28 104.7 368.17 102.9 371.17 94.57 372.42 90.39 370.12 87.98 367.46 87.64 365.19 86.46 361.77 77.95 360.84 72.13 358.07 68.31 356.52 65.27 356.59 63.54 359.13 59.34 361.24 57.42 369.5 54.72 372.97 51.91 375.34 47.32 379.27 44.36 383.23 43.06 387.97 42.19 390.57 41.22 397.6 40.17 403.35 38.07 407.31 36.2 411.31 29.8 412.89 28.16 416.66 25.84 418.33 24.01 420.18 20.36 423.6 15.22 426.08 13.78 427.15 11.16 428.47 5.62 430.82 3.92 431.36 1 446.75 8.88 458.11 15.84 460.83 17.1 476.66 19.12 480.06 20.6 487.34 30.33 487.79 44.55 491.85 49.5 503.36 56.26 517.19 57.92 542.23 67.44 546.89 76.26 550.05 91.21 559.7 116.06 565.15 121.91 576.64 127.32 581.58 132.72 588.36 132.89 593.63 134.55 616.1 147.09 643.4 149.66 649.88 147.63 656.75 144.05 665.38 134.08 673.97 128.52 686.13 125.37 699.61 124.72 706 118.77 712.58 117.95 717.37 118.32 720.74 119.38 724.68 119.78 728.08 119.51 734.34 117.77 746.59 118.08 750.6 119.33 754.2 122.38 756.25 123.08 763.03 122.85 773.84 118.43 777.65 117.8 783.19 117.66 789.26 115.55 795.53 115.07 799 116.43 Z"/>
</g>
</svg>