<?xml version="1.0"?>
<svg xmlns="http://www.w3.org/2000/svg" version="1.2" baseProfile="tiny" width="800" height="400" viewBox="0 0 800 400" stroke-linecap="round" stroke-linejoin="round">
<g id="4205191">
<path d="M 660.59 22.62 665.32 29.48 670.77 39.09 673.18 41.86 677.6 44.78 676.92 51.44 675.29 55.1 673.1 56.68 667.85 57.44 667.68 58.94 670.45 66.27 672.35 72.73 680 95.14 684.86 106.86 691 113.52 706.32 128.93 711.73 134.85 710.79 139.87 702.36 151.76 701.03 154.78 722.04 167.39 730.11 170.48 733.13 168.81 735.5 166.17 739.13 165.34 747.67 165.01 764.74 175.58 769.49 173.62 772.04 173.54 784.87 181.9 799 198.35 747.36 239.07 611.66 346.15 562.89 385.38 421.26 385.69 300.19 391.6 148.38 399 147.65 395.48 142.37 388.01 141.28 384.72 138.04 380.38 131.93 376.04 127.07 373.74 122.49 372.43 117.52 366.83 114.96 365.68 107.25 365.86 92 363.96 83.43 361.14 81.22 358.21 80.26 350.61 77.89 348.43 69.83 343.24 58.85 334.12 55.87 330.35 54.57 323.82 44.6 317.12 35.61 315.5 24.96 314.88 8.89 307.18 1 304.08 107.2 104.47 107.79 112.17 110.02 116.12 113.75 119.75 121.34 124.8 125.86 125.34 131.19 124.29 133.65 122.49 136.5 118.67 144.01 112.53 147.48 105.71 150.98 102.88 156.01 101.54 162.01 101.25 165.05 100.26 169.52 100.39 178.75 106.86 194.58 112.7 197.85 115.79 208.73 123.46 214.61 123.39 216.95 124.74 226.74 127.52 234.46 128.47 240.58 132.54 244.15 133.8 254.01 138.48 259.45 141.88 260.6 145.6 264.95 149.49 269.5 155.95 273.28 163.42 276.99 166.73 284.37 169.46 295.85 173.04 298.82 174.54 303.82 178.96 310.14 183.04 315.46 185.11 323.02 185.23 330.37 183.18 342.91 180.85 347.85 179.14 358.61 181.56 368.82 187.96 372.71 192.26 378.11 196.7 382.09 198.86 386.62 199.28 393.87 198.38 399.3 196.81 405.36 191.63 405.21 187.42 403.22 184.3 403.43 181.01 405.49 177.11 410.79 172.69 413.99 162.8 416.22 153.19 417.74 143.59 419.49 137.18 421.05 136.03 427.36 136.02 431.02 138.52 433.3 142.68 437.02 146.48 440.97 147.48 455.51 145.27 459.51 143.73 480.07 138.84 485.23 137.98 481.47 123.43 477.86 111.61 470.77 99.51 427.33 60.28 495.48 1 495.68 6.56 498.3 10.94 502.91 12.88 506.21 18.53 510.5 20.4 516.64 20.76 523.52 22.07 528.66 27.18 533.11 26.43 538.01 30.31 542.1 31.73 547.98 36.98 548.51 38.79 553.12 41.25 557.24 42.44 560.16 40.33 562.79 40.9 568.47 44.51 576.24 44 579.33 44.5 580.42 42.02 579.36 35.79 577.26 31.82 583.64 23.7 587.51 23.7 590.37 25.38 594.69 25.93 604.3 25.73 609.69 22.13 615.73 15.68 621.66 14.12 630.28 13.08 634.02 14.47 635.18 20.65 637.41 26.01 641.75 25.37 644.93 27 649.18 25.82 651.18 22.21 658.51 24.58 660.59 22.62 Z"/>
</g>
</svg>