<?xml version="1.0"?>
<svg xmlns="http://www.w3.org/2000/svg" version="1.2" baseProfile="tiny" width="800" height="623" viewBox="0 0 800 623" stroke-linecap="round" stroke-linejoin="round">
<g id="4205431">
<path d="M 662.69 53.21 665.62 55.16 667.53 61.04 668.83 71.48 676.79 91.27 681.21 96.7 683.86 98.69 695.45 110.14 696.62 112.39 696.07 122.85 696.59 125.39 700.15 129.01 708.9 127.67 712.34 129.14 713.65 133.66 713.15 142.06 714.51 145.11 722.13 147.29 726.99 151.02 728.33 154.31 728.34 160.4 727.08 166.54 730.08 173.11 737.11 184.55 734.05 190.89 735.61 193.61 741.65 199.21 745.02 204.67 746.3 211.43 754.13 217.32 759.6 217.24 765.03 218.52 767.47 221.88 772.53 224.25 779.89 225.12 788.45 227.3 792.24 268.66 799 318.8 794.39 317.6 789.55 317.78 788.95 310.17 782.22 307.78 776.62 302.65 769.23 301.58 763.63 304.53 760.83 305.05 750.9 310.26 743.33 315.53 737.16 316.34 724.97 314.06 722.82 314.26 716.92 318.92 704.68 323.63 701.04 327.01 698.92 330.97 697.2 336.91 691.29 343.35 690.95 351.3 692.37 355.81 694.16 371.82 692.27 379.66 693.59 384.72 696.63 401.35 694.86 409.02 688.48 415.63 686.88 419.35 687.17 423.41 689.17 430.23 689.42 441.44 691.82 446.04 687.21 450.57 684.13 451.36 675.44 448.45 667.19 449.93 659.67 448.17 656.92 451 655.83 456.3 651.1 467.89 647.88 471.62 645.97 482.26 643.69 486.41 637.17 492.52 636.49 496.38 638.19 500.8 640.87 502.8 643.4 513.7 645.03 518.24 642.6 522.4 639.93 531.09 640.4 537.39 641.46 541.44 640.8 543.92 633.76 547.1 626.97 551.82 622.58 556.12 614.88 560.75 610.62 566.76 607.7 569.11 603.17 570.72 491.43 533.51 485.71 536.08 484.16 538.18 475.89 541 472.34 542.87 465.32 544.59 461.91 547.12 453.57 548.99 444.32 550.06 441.66 548.99 438.1 549.93 432.78 553.13 426.31 554.97 422.05 554.47 419.98 558.19 415.51 558.94 414.53 564.6 410.34 569.97 403.58 573.1 397.86 577.38 393.91 578.48 385.72 577.53 375.32 581.94 364.82 589.92 353.59 594.96 348.36 598.33 345.73 602.05 346.7 607.65 340.35 605.98 336.82 606.82 335.08 609.31 335.02 612.94 329.02 620.77 321.88 622 316.67 620.33 312.43 617.25 303 613.65 295.58 611.95 286.76 608.83 280.83 606.09 274.84 600.47 271.6 599.98 268.89 595.52 261.23 591.94 256.86 591.64 251.99 585.5 249.82 584.7 246.84 586.97 238.09 587.27 236.81 584.17 230.79 583.5 228.81 584.83 225.49 583.5 214.23 589.32 210.33 589.08 203.42 591.28 195.51 594.93 183.62 595.19 179.68 597.81 174.85 596.1 171.75 597.92 168.31 597.99 161.57 599.56 152.59 596.46 136.4 595.15 130.17 593.18 128 588.47 122.89 585.27 121.52 576.74 120.27 573.49 116.26 570.92 111.34 560.27 102.16 548.21 99.03 547.44 93.88 544.42 88.29 537.5 81.26 535.21 72.66 535.35 68.38 531.09 57.99 525.17 52.82 520.55 62.11 517.9 64.25 502.32 60.91 494.42 50.29 484.27 45.27 478.82 35.16 469.32 31.91 464.82 22.23 453.33 8.23 443.24 4.93 437.76 2.18 431.55 1 427.01 1.26 422.36 4.13 412.21 6 401.32 7.47 396.73 13.34 383.69 20.13 369.39 34.1 364.42 38.75 361.66 39.72 360 40.71 351.81 41.9 348.44 49.19 341.21 52.86 336.25 55.09 330.12 55.35 326.61 53.49 321.54 41.59 305.91 37.42 301.74 37.82 297.1 41.37 288.56 49.15 276.3 133.13 276.68 128.11 267.24 119.9 253.68 115.93 241.8 114.94 235.13 111.34 227.34 105.45 218.88 101.88 215.89 96.4 213.86 82.7 212.72 78.97 208.77 68.67 207.85 61.14 205.93 47.28 200.91 40.8 199.2 30.57 194.44 26.34 189.28 21.97 178.3 18.93 166.22 20.15 160.23 23.95 156.46 33.42 151.26 38.99 148.97 46.91 147.23 52.17 142.92 62.14 139.28 69.57 133.01 82.76 124.65 94.74 121.09 94.91 40.95 154.58 37.48 190.21 35.07 317.91 24.77 522.2 7.95 588.18 1 594.98 4.75 603.74 4.01 606.36 5.36 609.9 9.47 616.13 10.73 620.11 12.73 624.87 12.9 632.01 22.07 634.8 24.9 636.69 29.53 642.18 35.02 638.57 36.77 635.46 39.72 635.76 43.8 642.44 51.18 646.51 53.09 656.51 53.94 662.69 53.21 Z"/>
</g>
</svg>