<?xml version="1.0"?>
<svg xmlns="http://www.w3.org/2000/svg" version="1.2" baseProfile="tiny" width="800" height="865" viewBox="0 0 800 865" stroke-linecap="round" stroke-linejoin="round">
<g id="4205308">
<path d="M 798.94 40.21 799 41.91 798.15 43.21 795.67 44.85 793.59 46.92 791.4 46.78 789.51 47.39 789.31 50.44 788.38 53.09 786.28 57.62 786.15 58.91 784.4 60.7 782.8 63.81 781.81 64.24 782.21 66.2 781.14 67.44 781.89 70.2 783.12 71.92 781.7 74.35 780.44 77.61 777.05 76.96 773.88 75.31 768.96 77.17 768.61 79.24 769.1 80.51 771.3 80.7 770.87 83.45 766.06 85.21 764.44 86.5 761.84 87.63 759.51 92.04 761.5 94.88 761.31 96.97 759.88 99.87 757.53 100.87 757.45 103.87 759.31 105.56 759.28 109.2 757.04 111.24 755.7 113.33 755.45 115.02 756.15 116.3 755.41 117.44 755.55 121.2 752.8 121.77 749.83 122.91 748.4 124.73 748.47 126.14 746.66 126.52 743.21 129.07 741.3 131.16 741.07 132.19 738.8 132.97 736.51 136.45 734.4 137.56 733.2 141.02 731.18 143.24 728.96 144.82 728.86 147.59 728.06 150.24 728 152.98 726.23 154.06 722.36 159.48 721.75 162.95 722.95 165.05 721.77 166.67 721.66 169.93 719.26 171.33 719.81 173.48 716.91 176.18 716.34 178.53 718.07 179.37 718.01 182.36 719.53 182.77 719.1 185.01 717.65 188.69 718.02 191.99 718.6 193.15 718.74 195.99 717.98 197.58 716.45 198.78 714.53 198.96 712.19 200.13 710.86 199.66 707.84 201.8 708 203.11 705.31 203.66 703.72 204.99 702.81 207.62 703.61 209.7 700.57 211.35 698.42 215.33 698.3 216.57 695.95 218.28 699.38 219.52 700.61 221.67 698.02 220.87 696.36 222.59 695.15 222.81 694.87 225.31 698.09 225.79 700.33 227.58 700.54 230.6 695.92 229.15 692.41 227.74 689.6 227.63 688.01 226.27 685.65 225.51 683.28 225.48 681.8 227.02 677.66 223.81 675.46 221.51 666.17 221.27 656.5 220.75 654.72 220.11 653.56 216.88 652.51 215.5 611.23 253.72 616.68 257.65 621.28 263.69 552.34 272.71 554.37 275.46 554.89 277.02 557.13 280.03 557.93 282.42 559.78 283.69 562.1 286.48 563.14 288.6 564.89 289.96 566.31 294.85 566.22 296.3 564.41 298.42 566.04 298.99 568.37 301.26 569.08 303.52 570.92 305.03 571.85 308.23 569.84 310.97 571.46 314.4 572.99 314.5 574.42 313.1 575.57 313.04 578.59 316.88 578.55 318.86 580.32 319.72 580.47 321.05 579.83 324.97 580.74 327.88 582.84 329.19 583.06 330.58 581.83 333.54 580.38 334.37 581.96 336.32 582.29 338 584.4 339.16 582.74 340.43 581.92 342.01 582.62 343.8 584.15 343.16 585.14 346.27 583.56 347.37 582.14 349.77 581.07 353.37 578.76 356.73 579.25 358.72 580.75 360.36 579.45 362.11 579.36 363.56 581.07 365.49 581.34 368.62 583.97 368.86 586.37 368.2 586.88 369.52 589.19 371.05 591.24 371.41 592.92 372.98 563.63 398.44 555.67 425.68 562.17 437.85 551.93 474.63 549.34 473.56 542.8 492.02 532.23 506.39 540.26 511.24 546.44 514.77 550.83 517.78 556.76 523.55 560.12 527.09 568.11 535.09 571.67 537.93 574.45 539.74 580.84 542.55 600.8 548.7 604.18 550.16 607.37 552.12 612.19 556.15 650.24 588.89 653.04 589.57 656.01 589.65 660.05 592.85 661.58 593.1 668.2 597.07 668.35 598.62 670.09 600.29 671.89 603.79 671.46 605.69 672.47 611.38 671.58 618.04 670.35 622.44 671.34 625.44 671.05 627.2 672.38 628.99 671.99 631.03 674.19 631.83 673.73 635.01 674 637.41 675.04 638.4 675.34 640.87 673.05 642.76 674.21 644.44 673.87 650.51 674.42 654.04 675.87 657.62 677.87 658.95 679.21 662.96 678.71 664.49 679.83 667.41 677.83 668.98 679.4 672.64 679.04 674.78 681.33 676.07 682.43 679 684.14 679.59 684.68 682.43 687.29 684.8 690.52 686.25 694.79 690.57 693.02 691.62 693.27 693.36 696.2 694.89 698.38 697.34 698.17 698.85 696.67 699.39 695.77 702.07 694.92 703.78 694.26 707.36 693.2 710 692.89 713.72 694.13 716.21 697.57 720.21 698.57 724.31 698.34 727.29 697.73 728.86 692.04 739.97 690.58 745.1 690.28 749.64 691.18 753.9 692.38 756.18 695.29 759.03 700.25 763 702.07 765.84 703.21 769.3 703.19 771.66 701.7 773.69 699.37 775.04 697 775.8 689.71 777.23 673.01 778.41 664.85 777.99 658.76 777.1 657.16 776.48 652.08 773.67 650.47 772.49 646.8 768.64 645.42 766.76 641.98 764.8 640.1 765.24 638.84 767.07 637.43 771.03 635.43 773.75 633.27 775.83 630.87 779.41 629.14 784.22 629.3 796.65 628.68 799.57 627.92 800.27 625.32 800.35 621.75 798.41 614.62 792.58 611.14 788.61 610.19 786.95 607.65 778.26 605.64 775.99 603.91 775.14 599.23 774.58 597.13 775.41 595.92 778.49 596.16 785.92 595.87 788.9 596.64 793.9 596.97 799.16 596.79 801.86 596 803.96 589.07 810.14 587.17 811.5 582.36 812.98 578.76 813.59 572.19 812.17 569.86 810.93 565.45 803.92 564.49 803.14 558.7 799.94 554.32 798.92 546.62 798.06 542.8 796.85 537.34 791.54 534.47 790.75 533.79 792 534.49 793.66 534.2 795.88 531.23 798.8 524.88 802.46 523.04 802.79 519.81 802.18 515.12 799.71 513.32 796.69 513.71 793.78 514.99 788.31 513.85 786.42 509.24 781.26 507.28 777.63 504.57 775.06 501.37 775.08 498.92 777.14 492.68 786.17 491.05 789.22 489.7 792.77 489.11 795.45 487.71 798.53 485.4 802.27 483.26 804.6 481.26 806.02 478.41 806.37 472.29 804.83 471.48 803.93 471.1 801.28 471.44 799.12 474.76 792.87 476.2 787.41 477.99 782.99 478.56 779.98 480.85 776.53 481.74 773.78 482.37 770.31 481.13 768.42 472.53 766.27 463.24 767.1 456.87 767.9 450.55 767.56 446.95 767.81 438.62 769.7 435.52 770.89 432.39 773.18 425.25 777.86 417.17 780.01 416.34 780.99 412.5 788.96 410 790.03 407.05 789.85 405.26 786.8 404.39 776.75 404.88 775.73 404.77 768.88 405.65 766.54 405.61 765.01 404.4 763.23 402.79 762 395.75 759.19 391.56 757.05 382.37 753.86 376.89 750.03 372.65 745.27 369.34 742.02 367.29 741.1 363.89 742.91 358.2 747.62 355.72 748.27 351.72 745.8 350.21 744.15 347.89 744.03 345.84 745.41 345.06 747.69 344.84 750.32 345.12 754.65 344.47 755.55 340.82 757.18 337.85 758.02 335.44 759.57 335.3 761.19 336.9 762.6 341.29 763.33 344.69 763.21 348.9 764.3 351.05 766.37 350.82 768.57 348.88 769.63 346.79 771.53 342.22 776.88 335.79 783.71 334.56 787.08 334.87 790.27 335.6 793.43 336.2 798.08 335.54 803.94 333.81 808.62 332.93 809.85 330.57 811.45 328.13 812.46 323.05 812.69 320.49 812.44 317.01 809.84 314.57 804.29 313.47 802.67 310.51 796.69 309.55 794.15 307.15 791.2 304.98 789.23 300.08 784.07 292.26 778.3 287.6 773.99 281.44 769.09 278.87 768.22 270.73 768.53 268.83 769.45 265.31 771.99 264 773.48 263.52 780.56 262.56 783.84 262.9 790.4 263.46 792.45 265.7 795.7 267.51 800.82 267.43 803.62 266.74 806.43 263.83 809.67 261.35 810.69 256.81 811.33 254.04 813.63 247.71 817.32 245.26 818.08 242.63 818.25 237.05 817.66 229 816.57 222.72 815.35 220.38 814.32 219.17 813.07 218.34 810.13 218.34 808.44 219.24 805.71 221.39 802.21 223.52 800.93 224.31 799.7 224.09 798.15 221.82 796.25 219.97 795.64 208.2 793.98 195.87 791.26 192.04 790.87 189.29 791.05 186.83 792.1 185.82 793.57 185.3 797.26 184.14 799.87 180.49 804.71 178.15 808.8 176.07 813.2 176.18 818.82 178.8 827.84 179.06 830.22 178.78 833.84 177.6 837.64 175.48 842.09 174.79 844.62 174.69 848.55 175.7 852.46 178 858.99 177.18 862.88 174.38 864 171.29 863.51 166.8 860.23 163.14 857.92 157.46 855.65 147.81 850.88 137.74 844.41 133.22 840.38 128.34 833.91 125.01 830.57 121.62 828.68 117.76 827.63 113.05 827.4 106.28 827.64 98.51 828.42 92.55 828.28 90.4 827.58 88.44 826.05 87.38 824.32 86.54 821.51 84.93 807.04 83.43 806.07 83.99 804.29 86.32 803.03 88.91 794.79 92.11 791.39 99.33 787.81 100.5 785.61 100.5 783.2 99.79 781.13 96.7 774.05 95.59 769.42 93.35 762.62 94.18 762.55 96.61 764.48 98.02 764.73 99.81 766.63 102.93 768.19 104.86 768.39 106.17 769.9 108.32 770.46 111.6 768.26 111.8 766.62 115.12 768.02 116.82 768.2 120.82 764.55 123.69 766.03 128.81 766.5 130.89 766.01 132.28 764.84 135.02 764.25 135.79 762.25 141.86 760.13 146.23 759.57 148.83 757.3 148.86 756 150.03 753.83 152.54 752.42 153.78 750.98 154.08 747.29 156.73 745.57 157.66 743.11 157.61 741.74 159.54 740.5 160.3 738.98 158.89 736.1 158.63 733.28 161.18 733.22 164.81 729.83 166.36 729.43 169.48 727.65 169.71 726.53 168.76 722.35 167.76 721.66 168.27 719.92 170.67 721.97 172.4 720.09 171.78 718.87 171.94 716.66 173.64 711.83 171.86 708.46 169.48 706.61 168.26 702.37 168.62 700.49 168.23 698.1 167.21 695.3 167.93 690.54 166.27 687.24 166.66 682.81 165.8 681.62 166.43 679.24 167.49 677.91 167.27 676.73 169.38 674.4 169.97 671.92 170.92 671.14 171.31 668.36 174.24 665.7 175.68 662.49 176.93 661.7 180.44 661.02 180.65 656.89 184.44 654.7 183.79 651.75 186.02 648.4 186.45 644.13 185.61 642.58 185.58 637.54 187.15 635.77 187.02 633.98 188.72 630.85 188.63 625.38 192.23 622.02 192.65 614.46 195.16 611.65 197.16 610.94 198.29 609.64 200.21 609.97 201.19 608.27 203.21 606.18 205.11 600.47 206.24 599.3 209.47 594.17 213.52 592.6 214.35 591.64 217.37 590.57 216.8 588.28 216.97 586.32 223.14 583.16 225.38 581.59 230.38 576.62 233.13 576.12 234.66 575.22 169.27 507 168.74 500.94 169.74 493.96 170.43 492.11 171.92 490.55 173.02 487.87 175.65 484.56 174.66 482.11 176.34 477.3 178.35 474.96 178.11 471.06 179.96 469.29 181.91 466.36 184.49 464.44 183.94 462.95 184.68 461.68 186.86 459.92 187.74 456.49 189.48 454.93 191.5 451.3 193.17 449.74 194.54 446.94 194.65 443.24 194.05 441.98 194.65 439.65 193.92 436.24 187.28 433.97 184.28 433.23 183.87 431.48 180.13 429.23 177.32 426.33 172.98 423.43 171.01 421.27 170.2 418.84 169.08 417.48 166.83 417.24 165.91 416.08 166.44 413.04 164.7 413.38 165.21 410.84 163.43 409.71 163.55 407.34 160.24 405.26 159.85 403.25 156.53 403.13 154.45 402.61 153.9 400.9 150.94 400.5 150.01 399.21 146.78 398.2 144.71 395.22 144.71 392.42 140.56 385.77 140.78 383.92 139.13 380.56 136.2 380.36 136.57 378.78 135.67 377.81 137.64 375.78 137.54 373.23 136.68 372.58 136.73 370.27 133.75 369.8 132.51 368.33 131.05 364.41 132.3 361.76 131.83 360.23 129.56 358.93 126.3 355.1 126.23 353.54 125.2 351.89 128.09 347.63 131.38 346.78 133.37 344.68 134.17 342.3 132.99 337.66 130.42 336.43 127.68 337.87 125.41 337.71 122.88 336.91 121.49 334.34 123.28 332.89 125.42 332.67 126.84 333.43 128.36 333.19 130.56 331.29 133.5 330.52 135.18 327.44 134.16 326.35 129.43 325.42 125.95 321.69 121.71 315.55 119.47 314.24 116.36 315.6 112.36 316.04 105.24 313.94 103.56 313.67 101.37 315.05 97.2 315.24 96.16 314.47 96.43 312.65 98.23 309.99 95.92 306.81 94.69 303.25 93.37 301.98 93.11 299.82 93.73 298.72 96.27 298.56 96.89 297.07 96.08 293.05 93.61 290.22 91.76 288.83 86.82 286.64 85.8 283.81 85.19 280.63 87.45 278.28 88.4 273.89 87.67 269.27 88.37 267.39 86.68 267.07 85.14 267.96 81.35 265.76 78.83 265.26 76.38 263.88 75.22 260.55 73.98 259.35 72.98 257.06 72.95 255.36 71.29 254.07 71.88 252.28 70.38 250.49 68.87 249.84 65.52 250.48 62.88 250.49 60.38 249.69 58.27 249.57 56.57 252.4 54.33 251.5 51.61 252.45 50.59 251.3 48.98 251 49.41 248.31 49.25 245.07 47.28 240.3 43.01 242.86 43.41 244.53 41.08 245.08 41.44 243.19 39.41 241.62 39.44 239.59 37.14 239.61 37.13 237.18 37.01 233.87 35.07 232.72 36.5 230.52 32.41 228.9 31.4 227.33 29.29 229.71 28.52 224.87 27.58 223.07 25.5 223.58 24.64 222.69 24.37 219.78 22.25 217.59 21.55 216.22 21.7 214.46 20.69 213.27 21.69 212.23 22.9 214.41 24.05 214.8 25.78 213.13 23.74 211.82 23.76 210.59 25.08 207.87 25.02 206.61 22.83 206.6 20.26 209.25 18.72 207.88 20.59 206.95 20.98 204.88 20.39 203.09 18.89 201.65 19.66 199.31 22.03 197.09 21.99 196.02 18.87 193.21 21.3 189.57 21.63 187.95 19.64 187.61 16.59 185.51 15.89 184.27 17.89 183.79 19.27 181.84 19.71 179.53 16.96 177.14 15.3 179.53 14.2 178.73 9.67 178.71 8.42 177.44 5.14 175.68 2.75 175.74 1 174.57 2.13 172.65 4.1 171.8 5.45 169.06 4.26 166.52 7.72 161.02 8.91 159.86 13.76 157.63 14.95 156.21 15.94 153.67 21.19 155.97 24.47 155.94 28.85 153.77 32.1 154.11 36.47 156.45 38.61 158.42 39.84 160.9 40.91 161.68 43.88 161.47 45.54 160.17 46.96 158.06 48.72 153.46 50.5 149.87 53.72 146.33 55.76 142.52 56.67 141.88 60.19 141.85 63.3 142.37 66.37 143.44 69.12 145.13 72.57 147.82 73.93 148.11 76.36 146.41 79.09 148.5 85.6 151.27 87.64 154.84 90.48 157.9 97.93 161.32 100.42 160.75 102.24 159.4 103.3 157.83 110.59 150.51 113.93 148.23 116.58 145.57 118.33 143.19 121.52 141.19 123.78 140.67 127.6 140.62 130.32 141.13 134.85 142.48 136.89 142.71 140.75 142.24 146.61 139.76 148.63 138.21 155.12 134.22 159.03 132.9 162.67 133.29 165.25 134.2 167.93 135.93 169.24 137.73 170.17 140.5 170.37 144.81 169.31 151.73 167.01 156.96 165.27 161.58 162.02 168.17 159.92 173 158.15 178.63 159.11 190.28 159.97 198.01 160.46 200.07 161.82 202.43 167.64 206.59 172.9 209.87 177.18 212.09 181.47 214.69 185.1 216.33 187.46 216.88 190.3 216.28 192.41 215.04 198.84 210.51 201.95 207.02 204.15 202.89 206.67 199.07 206.6 196.68 204.35 194.49 203.16 191.93 203.31 190.21 205.43 183.44 205.7 181.56 205.26 177.05 204.3 172.99 204.05 169.71 204.46 168.35 206.69 166.51 210.04 165.5 216.07 165.18 229.15 165.7 233.36 166.17 236.25 167.1 240.24 168.91 241.87 170.02 244.66 173.03 247.82 178.64 249.39 184.54 251.21 187.17 255.15 190.22 257 191.02 264.08 193.17 266.38 194.18 270.85 196.76 278.73 201.8 283.09 203.14 286.41 203.05 289.14 202.54 296.05 199.8 302.09 195.28 304.46 191.52 305.4 185.58 305.14 184.54 299.49 175.38 297.55 173 292.93 168.67 289.78 163.63 289.13 160.99 289.46 157.23 291.05 150.08 292.22 148.79 294.44 147.69 298.49 146.38 300.61 146.23 303.25 146.69 310.8 149.63 316.48 152.22 323.34 154.28 328.71 154.74 331.78 154.02 333.18 152.29 333.79 147.57 333.21 144.25 331.34 138.4 330.89 136.04 331.48 133.93 334.82 131.43 341.83 128.64 344.51 128.71 347.74 129.9 351.75 132.24 358.23 135.24 359.7 136.84 360.42 140.57 358.79 144.16 357.11 146.74 357.65 148.69 357.07 156.21 358.02 162.34 358.41 163.29 360.99 164.65 365.44 166.2 374.49 167.35 378.02 167.63 382.37 167.52 385.96 167.11 397.76 164.31 404.02 164.19 409.15 165.01 412.14 165.2 414.99 164.49 421.68 160.92 428.18 156.41 431.04 154.81 434.58 153.66 438.98 153.46 442.85 154.5 448.68 156.88 451.12 159.07 451.52 160.7 451.09 165.01 452 170.42 454.13 175.17 458.43 180.09 460.46 183.67 460.6 184.8 459.53 187.11 457.55 188.63 452.14 191.1 449.87 193.91 448.58 194.71 446.89 197.55 446.17 200.37 447.63 203.99 449.51 205.7 452.16 207.37 454.82 209.69 459.82 212.11 461.97 210.42 463.12 208.39 462.39 206.75 462.99 205.17 463.54 197.95 464.7 192.82 466.05 190.85 466.89 188.31 468.49 185.39 470.35 182.96 474.07 179.41 476.21 178.23 479.4 178.07 486.18 178.6 493.5 177.53 496.75 177.77 500.28 180.84 501.07 182.5 503.63 183.32 505.48 182.16 510.01 182.42 512.4 180.81 513.25 181.25 517.76 180.18 521.25 178.88 522.5 176.35 522.05 173.38 523.47 172.44 523.87 167.31 525.44 166.25 525.55 158.71 526.17 157.16 526.29 153.38 524.16 151.28 523.69 147.59 521.43 145.83 520.78 143.33 518.75 141.78 518.59 140.08 515.78 137.4 515.1 133.78 515.94 132.6 515.25 130.32 514.02 129.75 512.72 126.86 511.71 125.7 512.18 121.51 512.69 120.19 511.46 114.89 511.14 111.6 511.59 106.84 511.2 105.09 511.81 103.74 511.57 98.57 510.46 95.18 511.97 93.7 513.69 93.73 518.25 91.75 518.57 90.05 519.97 88.71 520.47 85.49 522.46 83.06 525.7 82.81 532.09 78.9 535.74 78.29 536.69 77.33 538.9 77.39 541.92 75.07 548.94 73.48 550.58 73.81 553.86 72.53 556.66 73.41 561.11 73.4 563.1 69.88 565.21 67.04 566.34 64.84 568.66 61.96 570.94 60.08 573.12 59.01 575.71 56.09 573.95 51.06 573.89 49.43 575.17 46.72 578.07 42.83 580.55 38.6 582.03 34.28 583.11 29.09 583.72 28.28 586.86 26.58 589.84 23.77 591.84 20.85 593.14 16.2 592.78 10.96 592 7.13 593.1 4.3 592.9 2.13 594.64 1 596.72 1.98 598.42 3.93 599.8 8.95 601.17 12.59 604.54 15.96 607.99 17.24 611.68 17.64 615.34 20.06 619.07 20.73 624.36 22.94 626.19 24.72 629.39 29.99 634.74 35.11 640.69 38.8 644.99 40.27 651.36 41.74 660.4 42.28 666.36 43.41 670.69 43.36 675.95 42.95 679.06 41.92 684.1 42.13 686.46 42.88 689.88 44.62 695.11 45.6 704.07 47.92 705.51 46.13 707.8 44.6 710.45 44.16 712.78 42.31 714.4 39.69 717.84 37.04 720.13 36.02 723.38 35.47 726.9 35.83 728.85 35.56 731.34 33.93 735.67 32.19 740.91 30.4 742.99 30.2 750.82 30.52 755.23 32.38 757.2 33.86 760.18 38.18 760.37 42.66 761.22 43.96 763.89 45.77 765.65 46.33 770.83 46.52 774.69 46.1 777.34 45.19 781.05 44.83 785.1 44.83 790.27 42.54 791.73 41.62 796.58 39.89 798.94 40.21 Z"/>
</g>
</svg>