<?xml version="1.0"?>
<svg xmlns="http://www.w3.org/2000/svg" version="1.2" baseProfile="tiny" width="800" height="615" viewBox="0 0 800 615" stroke-linecap="round" stroke-linejoin="round">
<g id="4205456">
<path d="M 722.04 431.2 722.12 432.25 717.51 434.86 713.54 434.65 714.21 439.38 711.21 438.89 709.11 439.57 710.01 441.53 716.09 445.09 712.78 446.64 711.81 450.28 709.15 453.5 707.6 452.37 709.3 449.76 708.87 447.54 707.11 446.77 703.41 447.14 700.98 445.68 700.14 449.71 697.61 452.65 696.18 452.47 694.15 449.79 691.67 451.37 693.47 455.04 693.48 457.26 697.47 458.75 696.56 460.86 690.77 461.67 690.42 462.6 693.72 464.77 695.66 464.67 697.12 463.23 699.32 464.88 697.77 469.85 700.46 473.2 697.02 476.69 693.23 477.68 692.51 480.26 692.4 483.9 691.22 484.71 684.41 484.61 678.07 483.38 676.6 481.89 679.49 480.28 678.86 478.94 675.98 478.16 667.75 478.43 665.2 477.84 658.12 478.57 655.41 480.19 656.76 484.64 656.58 487.5 654.73 489.79 646.79 491.06 646.23 493.25 644.44 495.09 633.9 496.28 629.02 494.57 626.75 495.32 625.02 497.17 623.76 499.93 622.54 504.74 622.92 507.68 624.21 508.48 629.81 509.68 630.44 512.72 626.75 517.98 627.66 522.4 631.69 526.83 630.34 533.69 632.67 536.51 633.25 538.23 633.62 543.69 632.83 545.09 629.48 547.13 626.54 547.15 619.71 544.98 618.47 545.06 615.66 547.76 605.85 553.77 603.87 556.25 602.74 560.19 601.48 562.27 598.02 563.95 593.85 560.35 590.52 560.45 585.79 562.12 579.3 563.03 573.46 565.16 568.93 564.73 561.6 564.83 558.6 563.86 554.96 561.92 551.18 560.9 548.31 559.2 545.64 555.73 544.12 551.73 540.18 550.68 531.67 555.68 528.41 555.86 524.32 556.9 517.24 555.67 510.5 552.68 506.96 552.62 502.46 553.8 491.14 559.96 488.49 560.18 481.27 558.07 477.43 560.24 472.33 562.31 472.27 563.88 474.15 567.24 480.24 572.17 480.74 574.41 476.72 576.41 470.88 577 464.5 576.09 456.42 572.45 454.15 569.48 457.06 565.02 458 561.67 457.1 559.11 454.82 557.28 449.55 555.87 446.3 556.4 444.42 557.92 441.8 565.46 442.26 568.74 445.27 570.65 450.93 572.99 452.63 578.5 451.8 581.23 449.7 582.04 443.31 582.19 431.44 584.76 428.57 584.69 422.99 583.2 418.37 584.27 415.96 586.72 410.7 590.71 406.03 593.81 402.08 593.46 400.78 590.85 400.15 584.01 399.24 581.29 396.53 578.24 394.33 577.5 386.42 577.31 380.48 575.77 377.03 577.16 375.16 583.05 373.28 591.84 373.58 597.96 376.65 606.71 376.02 610.13 372.61 610.31 361.54 604.91 350.83 601.84 347.84 599.91 344.63 595.92 340.64 594.9 339.06 596.04 334.35 601.08 332.15 605.63 333.44 614 330.14 612.68 326.04 609.21 322.5 606.91 321.68 605.71 322.21 601.28 324.67 596 327.16 591.72 327.81 589.21 326.22 586.39 324.54 585.93 322.27 587.34 317.91 592.01 309.44 597.59 303.26 599.76 300.43 599.99 299.08 597.22 302.02 595.76 305.83 596.68 308.84 594.9 310.1 587.85 311.5 584.71 311.72 582.45 309.38 580.48 302.59 581.37 298.77 581.5 297.61 580.68 298.68 576.05 303.18 568.94 306.58 561.57 306.87 559.15 304.21 554.65 303.4 551.3 303.28 544.34 302.38 540.63 301.03 538.48 298.45 538.34 293.58 539.36 289.94 541.14 282.43 546.59 275.73 550.79 273.11 549.21 274.45 544.98 274.55 539.41 271.17 534.53 268.82 532.07 267.98 529.65 268.6 526.02 276.26 521.97 277.54 518.36 277.42 516.08 275.22 515.06 262.76 521.74 259.55 520.57 259.28 517.18 263.28 512.57 264.9 506.94 263.9 501.19 261.84 500.68 254.66 503.78 252.48 504.07 250.69 500.75 247.54 498.84 247.71 497.11 253.93 496.53 257.4 494.75 255.35 492.85 249.83 493.66 244.96 492.91 240.5 491.08 238.35 491.66 236.58 495.99 233.36 496.61 228.38 495.65 226.47 494.72 221.04 494.82 218.81 494.15 217.07 490.73 217.18 489.56 221.84 481.71 220.33 479.18 217.53 479.55 213.4 480.93 212.31 479.87 213.17 476.93 212.09 475.45 204.65 474.24 203.35 473.65 202.31 471.16 202.32 465.26 199.93 464.2 197.04 465.04 190.07 468.02 186.97 467.41 184.43 465.51 183.5 462.65 187.68 460.76 190.81 458.57 192.5 454.87 191.93 451.26 187.89 447.71 186.6 444.15 184.95 442.22 178.02 439.28 174.39 436.48 171.85 438.31 172.41 441.25 173.82 443.52 172.65 445.93 168.16 445.3 167.12 450.86 165.16 450.9 161.88 441 159.76 436.81 160.6 433.31 158.63 426.86 155.95 423.47 150.22 422.42 146.39 418.8 143.54 417.48 140.53 417.01 133.8 417.33 129.02 416.36 122.71 411.68 120.59 408.86 121.15 405.28 120.39 404.19 114.24 400.66 111.69 397.08 109.13 392.4 103.63 388.48 101.06 387.69 98.18 385.8 96.7 383.93 1.35 378.37 1 267.43 40.43 267.24 42.85 216.46 64.53 216.28 79.94 216.01 101.44 215.96 102.74 210.76 104.87 207.88 108.89 204.6 108.13 201.23 104.75 198.5 105.93 191.43 105.18 189.36 102.9 187.24 101.97 184.88 103.55 182.91 107.09 183.91 109.4 183.58 112.31 178.51 112.67 174.91 111.11 172.48 106.35 170.29 105.57 161.15 104.95 159.36 164.59 160.2 164.58 163.35 291.94 162.97 338.97 110.03 339.54 70.26 352.35 70.03 350.43 35.65 455.73 35.98 453.54 33.13 451.94 29.4 453.06 28.33 458.95 28.87 469.01 31.07 476.21 31.14 479.26 30.4 479.87 25.67 482.52 24.95 486.34 25.93 490.38 28.69 495.01 30.13 497.54 33.05 499.41 37.2 499.03 44.19 500.49 45.99 503.17 47.22 506.27 46.74 507.73 45.19 508.58 40.73 508.91 33.98 508.6 28.26 502.62 15.85 501.85 12.9 502.97 7.69 505.71 4.51 503.89 1.16 515.47 1.46 598.42 1.23 682.89 1 729.4 1.63 733.12 5.63 737.53 7.7 740.03 24.18 741.66 30.77 744.44 34.98 747.36 37.43 757.16 41.46 762.88 45.19 773.21 54.84 774.77 56.95 777.4 62.45 777.55 64.06 783.01 84.59 785.28 88.16 793.77 99.02 796.48 102.16 799 107.05 798.74 110.36 796.39 116.52 793.96 120.39 791.24 123.22 779.37 132.91 775.29 135.7 773.39 138.54 772.04 142.14 768.69 144.65 766.86 147.33 765.93 149.97 766.69 153.85 765.21 155.99 761.67 155.24 759.98 155.62 757.23 158.02 755.36 162.68 750.69 166.72 743.89 169.01 740.68 166.79 735.6 160.37 729.09 164.41 727.46 164.22 726.06 162.25 726.9 160.96 725.6 159.02 724.07 159.31 722.84 162.71 724.44 165.66 728.45 167.33 732.68 172.49 733.13 175.52 729.35 180.17 726.04 179.79 724.2 176.16 721.94 174.09 713.52 173.63 712.58 176.43 713.84 178.76 714.5 181.97 714.55 187.28 712.39 189.4 710.7 189.39 704.89 185.65 702.02 182.92 696.24 179.33 689.21 179.82 687.63 180.7 688.15 182.83 690.33 184.03 696.79 185.79 698.92 188.78 698.81 190.26 694.94 191.25 688.13 190.59 686.43 191.16 687.3 193.65 689.13 195.76 692.93 197.95 692.99 199.03 689.46 201.09 688.93 202.72 690.01 204.36 692.4 205 699.51 204.73 700.51 205.25 700.17 208.05 698.78 209.79 694.51 210.47 687.91 210.51 687.78 214.01 691.47 217.42 688.81 220.1 686.08 220.93 680.77 220.27 678.54 222.32 679.75 225.09 686.34 227.31 691.06 227.09 692.61 226.15 695.53 227.06 689.12 234.65 687.82 234.73 682.37 232.83 680 231.21 678.6 231.39 675.12 234.22 676.26 235.89 679.91 237.39 683.76 237.73 687.02 239.25 689.29 242.12 690.32 246.9 693.28 247.31 697.27 245.83 697.81 246.66 698.41 252.14 697.99 255.33 700.24 255.85 702.53 257.84 700.16 259.22 699.71 260.89 703.35 265.25 706.42 266.81 711.68 266.96 712.03 269.6 711 275.24 711.47 276.35 714.59 276.79 716.04 279.31 714.44 282.08 715.14 287.76 713.91 288.39 711.35 285.27 706.93 285.44 708.53 287.33 709.56 291.82 708.03 295.68 708.36 297.3 711.24 297.08 713.08 299.85 717.63 298.33 719.23 294.48 720.59 294.69 721.91 297.57 725.85 298.81 727.17 300.55 726.13 307.48 725.35 309.83 727.68 310.78 728.66 312.97 733.6 314.8 735.03 313.62 737.51 313.41 741.71 314.58 743.38 316.11 742.71 317.69 738.03 321.19 740.41 324.77 738.95 326.84 734.91 327.93 734.55 329.02 738.31 332.83 737.32 333.85 732.93 334.14 732.65 335.45 735.97 337.28 734.94 338.45 731.33 338.1 729.58 338.65 729.07 340.59 732.29 341.87 733.56 344.45 740.34 339.55 739.8 344.91 744.65 343.22 746.7 343.46 749.95 351.83 742.3 351.27 742.53 353.26 745.24 355.82 743.05 360.64 744.08 363.39 743.47 364.49 740.61 364.51 738.42 367.49 739.37 368.97 741.99 367.52 742.95 369.4 737.67 371.36 734.41 370.74 733.03 374.34 730.4 374.21 727.38 368.85 725.96 369.14 724.04 371.62 724.17 373.03 727.3 372.74 728.3 373.54 729.5 377.49 732.78 379.4 728.53 380.78 732.27 382.61 733.44 387.55 736.97 392.58 739.53 395.29 738.58 397.59 742.54 399.38 743.1 400.6 740.87 402.17 738.07 400.21 733.92 400.03 731.57 398.76 729.15 398.57 730.34 404.89 729.27 405.27 725.15 401.4 723.07 403.01 729.34 407.51 726.36 407.86 726.85 409.67 729.19 410.21 735.04 408.33 737.37 409.15 735.63 412.62 737.89 414.94 735.96 417.2 729.89 420.85 726.3 420.45 721.77 422.41 717.26 425.92 712.88 426.53 713.21 427.57 717.55 428.77 722.04 431.2 Z"/>
</g>
</svg>