<?xml version="1.0"?>
<svg xmlns="http://www.w3.org/2000/svg" version="1.2" baseProfile="tiny" width="800" height="1025" viewBox="0 0 800 1025" stroke-linecap="round" stroke-linejoin="round">
<g id="4205175">
<path d="M 598 50.15 597.78 55.19 603.5 64.65 606.1 67.62 605.92 71.64 608.08 75.53 611.55 78.25 616.65 78.08 618.85 79.89 616.88 86.47 619.94 91.54 623.18 94.74 623.67 98.39 627.9 106.19 628.77 117.27 630.08 123.16 637.41 123.84 638.4 126.28 648.65 136.31 655.55 139.89 656.78 142.85 668.99 154.69 672.77 159.43 674.32 165.16 674.51 173.35 675.48 177.1 672.52 180.48 668.67 188.52 673.77 189.59 676.23 197.31 675.78 199.76 678.61 203.61 678.4 208.12 679.78 210.49 679.82 217.53 682.97 224.65 686.73 229.72 687.35 237.14 690.65 244.17 693.79 246.21 694.74 254.93 700.02 261.09 704.01 263.18 705.39 266.79 712.5 268.34 715.76 270.36 718.47 273.98 724.97 277.82 729.06 283.68 733.12 283.18 735.89 285.01 738.64 292.18 747.84 296.83 751.21 299.93 761.99 302.09 765.37 306.2 766.2 309.91 772.07 314.89 777.71 316.6 779.71 318.94 784.83 320.09 795.16 328.43 799 329.94 797.31 435.86 797.37 456.17 796.68 604.28 797.14 780.64 797.76 1020.52 790.26 1024 787.32 1023.62 775.58 1018.91 759.32 1011.26 749.88 1007.39 738.46 1003.64 730.51 1000.11 715.53 991.18 710.79 987.33 704.07 980.34 689.87 968.41 685.14 963.16 681.58 958.22 681.28 953.2 683.91 944.77 687.55 939.34 692.31 935.16 695.31 926.33 693.55 923.22 683.47 920.13 676.98 920.57 658.87 918.55 648.51 919.31 634.97 918.36 630.21 917.28 617.83 911.99 606.85 903.58 601.77 901.03 593 899.79 589.15 898.16 581.87 898.16 575.6 900.58 566.52 907.9 562.51 913.26 549.46 934.53 545.65 937.32 531 941.39 521.9 941.02 510.46 938.11 503.72 934.53 492.02 927.37 477.89 923.57 472.07 923.98 469.7 925.38 467.63 929.75 467.12 939.16 467.76 947.17 465.96 954.15 460.96 961.19 455.31 966.59 446.84 967.81 436.58 965.18 414.12 953.44 403.12 946.55 395.46 939.08 391.83 928.79 385.28 921.42 368.79 907.99 366.38 906.67 361.08 906.61 354.04 909.29 345.38 908.78 332.54 900.03 328.11 892.44 323.94 887.22 321.89 882.44 322.66 871.05 314.35 854.91 311.29 850 306.39 834.92 304.23 823.53 304.74 812.47 303.39 806.7 299.86 799.4 292.86 791.63 287.36 787.94 276.98 779.73 272.23 776.72 267.71 770.48 259.21 760.3 249.54 749.73 249.82 746.62 255.27 740.1 261.39 735.54 269.55 734.03 282.09 734.72 299.83 737.01 309.19 734.59 319.74 730.45 325.59 724.63 328.17 716.98 326.87 705.49 325.12 699.8 322.33 695.78 313.48 690.17 308.47 689.84 302.41 692.88 299.08 696.55 288.2 704.42 269.12 719.95 265.36 722.03 259.16 723.22 255.41 722.63 240.72 717.4 230.08 716.76 222.25 717.98 214.52 720.45 207.35 723.54 188.07 738.13 181.24 745.94 173.62 755.89 172.29 754.26 159.58 747.23 150.27 743.69 137.02 739.79 84.31 728.19 74.39 724.65 65.77 717.79 60.39 710.04 57.17 700.45 58.43 692.37 61.26 686.52 65.6 682.79 73.98 679.2 102.03 669.73 113.32 664.18 123.04 658.52 127.92 654.67 131.14 649.07 133.88 640.73 131.89 634.4 123.64 630.64 109.71 629.4 89.39 630.3 73.95 632.64 66.19 632.31 57.08 630.33 47.55 627.1 37.91 622.6 15.37 609.89 8.03 603.35 3.24 595.48 1 588.48 1.3 581.2 3.5 577.16 8.86 571.29 16.96 568.3 29.82 566.44 36.94 566.61 50.35 567.92 60.97 569.74 80.94 571.76 102.35 570.71 109.63 569.5 120.94 564.99 126.33 563.57 131.4 560.24 141.41 549.59 144.93 539.84 144.76 534.08 140.6 525.77 131.65 518.25 118.85 512.92 107.28 504.43 91.84 494.65 80.78 485.85 75.1 479.49 72.43 474.81 71.51 469.67 72.69 463.56 73.85 452.09 76.07 449.57 80.86 448.51 93.1 448.25 100.65 446.06 104.47 446.55 113.98 453 130.04 460.07 133.64 462.47 147.08 468.84 158.1 470.71 165.68 470.84 174.14 469.32 178.38 467.76 184.47 463.01 188.28 451.09 193.48 443.87 202.11 434.18 212.04 426.61 222.45 419.81 234.58 415.04 244.68 413.82 251.29 414.5 275.24 420.13 287.38 423.73 296.96 425.84 303.04 426.2 308.73 425.09 319.85 418.3 325.79 416.66 337.1 416.79 343.1 418.61 348.76 421.64 353.95 422.92 361.2 421.44 370.5 417.56 372.88 413.99 373.15 404.95 369.79 397.76 367.36 395.58 356 389.67 351.28 385.41 347.75 376.65 347.59 364.01 345.6 358.24 346.26 344.6 344.93 316.37 342.89 305.29 336.85 289.41 334.55 276.18 333.09 271.39 328.87 262.38 322.85 259.04 312.13 261.7 304.68 265.82 297.68 272.67 292.83 276.31 279.77 284.19 273.65 285.74 265.69 284.84 245.4 280.05 236.8 277.01 229.07 272.66 219.53 266.25 211.98 257.24 209.4 250.03 209.77 239.48 212.62 231.41 217.07 225.36 224.2 218.19 231.32 213.22 250.98 202.06 256.62 197.61 265.28 186.24 274.37 176.2 279.01 170.31 282.45 161.65 286.78 146.82 288.52 137.29 289.16 118.91 288.85 113.3 291.24 104.39 293.18 93.23 293.13 90.05 290.65 82.62 284.27 71.58 284.3 65.17 288.92 51.28 296.07 35.63 302.43 29.83 310.19 24.26 315.84 15.39 322.38 12.45 327.11 11.46 333.89 11.54 342.87 13.68 357.62 20.14 366.8 25.92 369.59 29.76 371.34 38.89 372.93 65.2 378.14 79.37 383.86 86.51 388.05 93.33 390.07 101.97 392.7 107.17 396.31 109.45 399.7 109.65 403.07 107.75 411.84 98.18 420.32 81.12 425.36 66.47 428.96 59.13 437.67 46.46 441.27 40.47 442.81 32.82 442.52 23.61 439.49 13.68 438.91 8.43 439.97 2.81 443.44 1 455.33 2.98 464.42 6.96 467.87 9.56 473.78 17.72 478.44 22.82 480.72 37.11 480.52 44.77 479.48 53.22 475.87 66.57 475.17 79.49 475.77 87.81 478.72 96.85 482.13 101.09 488.7 102.24 495.7 101.4 503.84 98.17 514.25 92.13 519.92 88.06 533.87 74.16 545.46 69.19 551.58 67.66 558.3 64.43 566.62 56.86 575.05 55.64 593.56 50.19 598 50.15 Z"/>
</g>
</svg>