<?xml version="1.0"?>
<svg xmlns="http://www.w3.org/2000/svg" version="1.2" baseProfile="tiny" width="800" height="777" viewBox="0 0 800 777" stroke-linecap="round" stroke-linejoin="round">
<g id="4205357">
<path d="M 662.02 135.03 677.03 203 685.48 204.78 687.87 203.45 688.81 199.83 685.43 193.53 685.22 187.56 689.79 184.42 693.22 184.88 700.28 190.74 706.7 191.74 710.55 189.41 712.12 185.91 716.87 182.28 722.21 180.41 725.23 181.8 730.19 180.38 731.68 178.06 735.91 180.28 738.36 185.33 740.2 192.24 754.79 207.14 761.7 208.61 766.33 212.44 773.65 220.5 777.56 221.39 782.34 228.39 792.39 232.69 796.75 235.97 799 240.47 795.78 241.68 778.55 243.15 771.39 245.63 766.62 248.67 756.73 260.49 753.93 266.9 787.71 320.25 784.81 318.58 775.96 321.08 772.91 324.63 768.52 336.74 768.02 344.44 761.69 352.56 758.51 354.24 752.68 353.03 748.45 348.83 739.54 342.39 733.59 335.11 730.62 334.16 722.14 334.16 717.91 337.55 718.13 349.7 714.27 355.24 713.05 363.58 716.3 367.77 727.37 373.64 729.49 376.58 728.07 382.64 675.08 444.33 667.31 455.46 679 461.33 686.41 463.13 695.03 462.84 701.46 465.45 705.94 468.89 713.27 476.27 721.12 479.03 724.72 495.83 724.75 501.31 726.24 503.63 727.67 510.29 732.26 514.14 735.45 520.58 737.16 530.6 735.22 539.06 736.36 547.31 735.89 561.23 737.17 562.66 734.61 571.63 735.27 574.9 734.05 583.04 735.86 588.05 736.2 593.23 695.86 599.33 683.1 604.63 674.76 606.62 671.1 605.34 665.35 606.23 661.03 609.32 655.2 609.67 641.05 616.46 635.4 616.57 631.44 618.37 627.35 617.82 621.73 621.17 618.06 625.08 615.41 625.41 605.87 631.94 602.64 633.21 594.54 638.67 592.82 646.39 590.52 650.17 575.46 651.47 569.94 654.12 561.49 662.25 557.46 661.67 552.82 658.48 535.24 656.82 528.97 657.26 513.85 656.16 507.92 652.58 500.18 650.56 490.58 645.5 482.57 643.44 472.39 638.44 471.99 636.44 464.39 631.6 460.22 627.01 457.78 622.31 446.92 617.52 445.19 615.07 435.5 608.96 434.01 612.03 435.14 617.28 431.69 625.23 432.95 631.96 430.88 635.68 431.5 647.57 432.99 652.97 446 670.04 448.29 675.71 381.03 693.11 374.58 691.71 368.35 686.53 362.19 687.93 354.5 685.35 349.37 686.63 344.6 685.3 337.64 686.59 335.33 689.07 330.1 688.29 322.17 690.65 318.17 689.69 312.13 694.95 307.84 695.6 304.15 697.73 290.34 701.1 281.2 699.92 274.87 703.79 270.53 704.73 264.33 700.03 251.51 699.45 246.68 703.76 236.92 702.15 233.58 703.92 230.62 710.76 222.08 714.35 218.02 721.74 211.15 724.04 207.62 724.09 202.41 720.94 195.8 721.33 190.49 720.02 179.97 722.32 174.07 722.5 171.17 727.64 163.28 728.31 152.33 723.95 146.62 723.12 140.6 725.75 133.2 726.46 128.35 725.77 124.72 726.8 121.73 734.36 119.12 738.8 113.66 740.68 106.08 736.98 101.26 736.16 86.21 736.8 84.93 740.07 94.61 752.23 94.72 757.14 89.23 767.69 85.48 771.4 81.11 771.7 68.17 762.79 63.61 761 56.73 761.16 53.45 766.66 45.55 774.21 42.18 776 37.95 775.98 35.09 774.19 27.86 766.61 27.1 764.9 15.3 755.7 21.73 751.94 24.73 748.09 26.69 740.78 26.38 732.34 23.79 721.05 15.09 707.93 13.53 701.7 4.32 687.42 1.22 677.55 1 667.74 2.19 657.03 4.81 647.17 8.54 637.11 13.96 627.84 20.53 624.44 26.12 619.36 34.85 613.77 42.25 611.8 48.53 611.64 57.76 612.78 68.92 615.85 84.57 625.03 90.03 629.32 102.89 638.12 110.63 645.08 124.73 650.45 130.74 651.65 136.64 651.07 146.31 645.07 152.46 619.56 153.82 611.63 155.08 597.73 156.95 584.92 157.7 576.3 156.32 567.16 152.71 565 148.18 564.97 137.37 567.95 132.32 571.16 121.84 588.43 117.44 592.97 109.85 597.35 101.09 598.22 96.74 597.17 91.41 593.99 83.39 583.9 79.89 577.21 73.01 559.29 68.76 545.15 66.68 536.17 64.63 516.35 64.08 505.77 62.38 493.96 57.97 478.06 57.79 465.76 60.44 459.28 62.95 457.17 74.29 453.14 80.65 452.55 102.64 453.04 129.89 452.74 137.6 453.49 146.84 456.58 171.1 466.23 181.15 468.36 200.45 468.08 211.66 465.68 223.29 459.98 234.55 458.77 244.79 459.15 255.62 462.82 262.92 462.39 283.62 454.5 288.28 449.67 290.71 443.01 290.16 438.62 285.83 423.74 281.47 413.35 273.98 397.87 270.44 389.39 266.6 382.46 260.97 376.02 256.47 372.2 240.28 361.95 232.79 358.42 225.13 352.08 223.24 348.36 222.98 343.18 225.46 339.36 231.55 338.17 246.57 341.24 250.98 341.34 265.7 343.17 273.55 343.37 280.81 344.72 288.62 347.18 297.6 351.98 304.62 359.03 307.2 360.44 318.96 372.16 325.07 377.31 332.17 381.87 340.35 381.64 344.2 378.35 344.37 373.83 338.41 358.74 325.58 343.19 316.64 335.56 311.75 328.97 309.28 320.18 309.63 313.95 311.53 306.17 315.86 295.58 318.62 290.58 323.53 275.6 323.38 266.82 322.28 262.18 317.07 249.4 316.11 245.55 312.76 221.37 313.51 214.56 317.3 207.07 321.14 203.72 322.56 200.62 332.67 201.94 338.5 205.39 344.43 214.59 346.89 223.55 346.08 234.74 342.66 244.36 343.39 251.91 348.29 257.02 352.66 259.01 361.6 258.85 367.52 256.9 381.3 254.57 389.65 256.12 409.79 261.01 424.73 265.4 441.32 271.59 449.57 277.23 454.61 283.67 460.95 290.49 464.8 296.09 468.88 300.34 472.92 308.81 481.38 317.06 486.53 320.5 491.24 325.07 497.64 327.56 502.73 327.18 506.1 324.55 507.12 318.21 501.79 303.48 495.72 296.21 490.78 288.36 479.37 273.41 463.69 261.67 459.87 262.57 456.89 259.77 452.26 251.46 451.48 247.39 452.13 240.28 457.83 236.62 469.08 235.51 471.68 236.43 481.74 237.35 488.26 239.31 498.19 243.45 507.21 245.16 519.58 239.79 523.8 235.78 525.06 232.34 523.88 227.96 517.06 222.27 506.48 211.67 494.22 203.81 480.32 192.15 472.53 186.87 465.35 180.85 451.99 170.72 446.47 167.6 439.77 162.29 429.29 156.08 420.75 154.07 408.2 152.57 395.83 150.29 388.11 145.66 385.12 140.71 384.69 135.36 391.18 124.59 401.1 113.27 408.99 100.65 412.41 96.5 421.76 87.7 426.15 84.41 437.41 78.05 445.13 77.67 450.88 79.95 453.13 83.9 452.68 87.9 447.74 94.91 436.69 104.49 429.27 114.96 427.16 124.7 429.59 131.74 432.7 135.1 439.88 139.19 447.91 142.18 454.79 143.33 464.77 142.99 470.84 144.24 481.08 141.89 483.59 140.29 490.24 131.95 496.73 117.38 499.29 106.91 506.79 83.1 509.92 67.16 510.88 53.61 512.97 40.03 513.91 29.98 513.65 24.28 516 12.43 519.15 6.38 522.99 3.34 528.89 1.18 532.71 1 539.71 2.57 545.58 7.17 557.45 22.36 567.38 41.09 578.22 51.4 583.6 55.31 584.59 62.18 584.19 68.62 580.82 78 577.01 81.89 574.34 88.95 571.07 95 570.15 100.93 571.12 106.87 573.56 109.99 578.42 113.3 584.28 115.89 597.45 117.88 614.89 118.66 621.54 117.96 629.51 118.81 634.91 120.46 648.28 127.72 659.08 134.43 662.02 135.03 Z"/>
</g>
</svg>