<?xml version="1.0"?>
<svg xmlns="http://www.w3.org/2000/svg" version="1.2" baseProfile="tiny" width="800" height="470" viewBox="0 0 800 470" stroke-linecap="round" stroke-linejoin="round">
<g id="4205100">
<path d="M 715.98 38.77 697.4 51.22 721.02 72.97 722.71 107.54 745.5 129.32 744.33 167.29 741.86 167.44 739.95 169.1 738.35 169.39 736.73 171.47 736.4 174.25 733.86 177.66 733.65 178.88 732.24 179.58 729.29 178.53 729.09 179.79 733.06 183.93 735.48 187.61 739.2 190.48 739.4 192.72 742.43 195.98 742.64 200.42 743.74 203.57 743.14 204.7 741.19 214.52 739.13 218.47 738.95 220.01 737.18 225.33 735 226.04 732.43 226.18 731.62 227.16 731.61 229.96 729.79 230.47 728.55 231.54 725.82 232.47 725.5 233.12 728.08 235.97 732.32 237.09 735.19 238.25 739.08 239.2 740.94 238.73 745.04 235.46 747.33 234.83 748.77 236.65 751.66 238.47 753.77 238.03 754.64 240.24 756.06 241.92 757.31 242.38 760.22 244.68 759.29 246.04 759.59 248 759.35 251.21 759.99 255.84 761.19 256.95 763.71 263.03 763.75 265.82 764.33 267.01 764.29 271.69 763.33 273.17 760.98 272.78 757.26 273.55 753.86 273.3 753.13 273.72 752.79 275.97 748.35 281.45 745.71 281.87 743.28 284.55 742.68 288.54 740.7 289.81 737.44 290.32 705.79 261.91 687.44 281.77 683.62 286.58 681.85 293.53 681.07 297.72 679.59 301.21 678.26 302.97 675.91 311.28 672.58 318.13 669.71 321.42 665.09 323.65 663.7 323.93 659.83 323.49 658.24 324.61 656.83 327.61 656.76 334.77 657.97 339.79 657.13 345.49 658.76 347.91 660.98 348.71 664.45 351.45 668.3 357.58 670.07 361.98 671.73 363.81 672.79 364.05 674.03 362.46 679.29 361.57 683 361.38 686.43 360.5 690.21 359.03 694.55 358.47 700.58 356.95 702.82 356.08 706.56 353.86 708.28 351.53 710.37 350.96 713.87 349.26 717.57 346.16 719.9 345.2 725.37 343.49 731.12 342.4 734.25 342.79 739.13 340.82 742.62 339.8 745.84 339.67 748.18 341.41 750.9 342.45 754.58 341.81 765.7 346.04 770.31 347.21 773.28 347.62 781.17 348.1 786.22 347.76 789.92 348.21 792.14 348.08 796.24 349.41 798.34 351.05 799 352.41 788.15 355.24 786.51 356.57 783.98 359.71 782.54 363.63 781.33 368.24 781.37 371.11 783.34 374.91 785.55 380.14 785.43 380.48 779.12 380.24 772.01 380.42 768.61 380.03 765.83 380.11 761.69 379.11 760.25 377.8 758.27 373.58 756.66 373.83 749.55 370.19 745.17 369.03 743.83 368.13 742.58 364.6 741.39 365.56 739.6 368.32 736.65 368.56 732.95 369.81 728.38 371.71 725.51 373.43 719.7 378.12 716.83 379.63 714.22 382.61 712.45 385.29 711.12 386.42 706.4 392.2 705.49 393.64 705.19 396.17 705.64 399.68 705.61 402.59 704.68 406.89 701.61 410.03 697.35 411.78 694.11 413.5 690.55 413.3 687.46 411.71 683.59 407.86 677.45 405.86 672.41 404.81 669.57 404.81 665.24 405.64 661.28 406.06 654 407.79 650.02 407.9 645.55 407.27 641.88 405.69 638.13 402.54 633.47 400.78 629.06 398.07 625.88 396.95 622.56 394.24 621.52 392.57 620.23 389.06 621.25 384.06 618.34 383.2 617.36 382.11 615.71 377.53 612.61 372.38 610.8 372.3 611.3 374.47 611.41 378.74 610.97 380.76 611.33 383.83 611.08 385.39 608.86 389.05 605.57 393.58 603.89 396.8 603.28 399.02 601.01 401.48 598.05 401.95 593.94 399.4 592.62 398.11 589.12 396.2 585.77 393.16 582.68 392.28 580.83 391.04 580.13 387.37 578.22 387.78 576.02 385.79 575.96 383.52 576.89 381.02 575.03 379.98 575.03 379.05 576.51 376.56 574.7 372.64 574.34 370.1 573.36 368.32 571.82 367.5 570.51 364.51 568.63 363.76 567.06 364.37 567.52 367.91 569.91 371.49 570.29 373.9 568.1 376.34 568.67 378.89 567.63 380.64 565.96 380.61 563.79 379.74 561.46 380.59 558.89 380.29 557.03 381.16 556.81 382.75 560.59 385.63 563.66 387.02 565.25 388.58 567 393.16 567.93 394.5 568.7 397.68 570.58 399.61 573.51 405.7 573.63 407.59 576.59 414.35 576.36 417.78 573.82 420.9 574.98 422.24 577.51 422.02 578.78 422.61 580.81 424.84 587.28 435.93 588.38 439.38 590.8 440.38 595.62 443.97 596.5 445.28 602.54 449.89 606.57 454.92 609.39 457.87 611.71 459.83 614.25 462.59 614.29 464.33 612.86 466.03 607.59 468.92 604.08 469 600.95 468.41 597.8 466.59 592.84 465.25 585.85 462.29 579.47 460.4 572.34 456.21 570.21 455.58 566.81 453.8 561.85 452.13 549.67 449.19 545.44 447.15 538.66 445.39 533.98 441.37 530.96 439.42 525.29 436.74 521.6 436.27 518.57 435.14 509.27 430.84 507.29 428.89 503.93 418.9 503.64 416.3 501.87 414.22 498.98 413.56 497.89 412.63 490.89 405.18 487.71 402.52 486.53 400.74 486.38 396.02 486.97 394.64 488.83 393.32 489.1 392.39 487.79 391.05 486.86 388.94 486.83 386.34 488.08 384.69 487.4 383.67 486.58 380.53 486.67 377.08 485.77 375.66 483.91 375.93 477.87 380.03 475.65 380.53 468.92 382.85 464.37 382.63 461.55 380.7 459.21 378.07 458.04 375.41 457.92 373.43 457.05 372.19 455.96 368.71 455.13 363.2 454.07 358.9 454.62 354.86 453.45 353.57 450.66 354.61 448.77 356.61 444.54 359.28 441.9 358.91 438.94 356.46 434.08 354.34 430.18 351.53 428.28 350.54 424.55 349.82 422.37 348.49 419.39 347.96 415.48 348.2 410.43 347.72 405.23 346.75 403.38 346.68 397.01 345.77 391.11 343.05 384.71 340.34 379.08 339.54 373.99 340.19 367.85 340.19 365.22 339.65 361.55 337.62 358.67 335.48 354.26 333.54 352.56 334.66 349.16 336.14 342.86 337.02 338.83 337.86 337.19 337.45 332.26 337.43 327.16 336.3 325.09 337.58 323.26 337.45 318.22 339.06 316.63 338.26 317.62 336.53 318.06 333 316.95 332.61 315.29 334.38 311.66 333.33 310.59 331.71 309.25 331.47 306.95 332.37 305.79 331.59 306.16 327.08 304.84 325.84 303.47 322.15 302.49 321.42 300.25 322.41 299.63 320.7 294.91 319.73 295.1 323.98 293.59 324.97 290.58 323.93 290.46 321.3 289.49 320.59 288.16 321.78 286 321.87 284.16 320.09 282.7 320.37 279.58 316.34 276.58 316.31 275.09 316.79 274.31 318.46 270.91 320.28 267.51 319.92 265.84 317.92 264.92 317.62 256.81 316.8 256.18 315.81 253.58 314.08 250.82 313.62 248.65 314.77 248.68 312.71 217.21 313.99 217.82 315.35 219.32 321.95 218.64 325.13 217.05 328.5 216.01 336.61 216.31 338.14 219.16 345.45 221.65 348.24 226.34 351.31 170.1 350.75 166.5 351.14 159.15 354.67 156.57 357.59 154.81 358.86 153.19 359.25 149.98 358.66 147.36 356.87 141.6 355.28 139.96 354.57 135.85 350.08 128.02 342.09 129.95 341.51 131.08 339.93 130.63 336.36 131.94 332.09 130.12 329.65 128 328.85 126.72 327.45 126.79 324.35 128.54 321.67 130.15 316.54 131.14 312.09 132.34 308.62 136.65 302.14 138.64 298.53 139.07 293.37 140.18 290.54 141.31 285.66 143.09 283.88 140.8 281.56 136.46 280.35 128.61 278.86 123.81 277.41 120.45 275.96 117.75 275.95 113.59 273.01 110.8 272.19 106.39 272.35 103.49 269.39 102.18 269.77 100.7 271.53 98.75 271.09 97.31 269.92 95.68 267.47 93.66 267.37 90.29 268.16 86.13 270.05 77.96 270.46 71.64 270.16 66.21 269.05 64.23 267.19 62.33 265.71 59.92 262.72 58.08 256.83 56.52 255.22 54.38 254.26 51.73 253.99 48.68 254.23 46.66 254.97 44.82 256.42 40.85 258.23 34.54 259.33 27.42 261 22.05 262.89 13.85 264.31 11.61 264.06 8.15 262.53 2.15 257.79 1 255.93 1.6 252.14 4.15 251.48 5.52 249.24 7.82 248.63 10.5 246.66 11.11 244.69 16.77 242.53 18.52 239.04 19.46 229.29 16.72 227.44 16.49 226.47 17.71 223.31 18.23 220.39 19.2 218.2 19.58 215.55 21.15 213.61 20 212.25 16.9 210.47 14.89 208.28 11.83 206.86 10.27 203.31 9.22 202.11 9.55 199.61 9.06 197.54 11.03 195.83 11.97 193.53 11.14 192.19 9.31 191.57 8.42 189.53 8.93 188.65 11.17 187.57 12.47 185.79 11.31 182.64 11.52 181.22 13.11 181.13 14.11 178.69 13.43 174.28 12.69 172.66 12.77 170.66 11.56 167.38 8.14 164.97 7.26 163.85 8.43 162.03 12.14 162.81 13.81 162.58 13.89 160.92 16.77 159.6 20.8 159.74 21.79 162.56 26.15 163.22 26.8 159.03 27.4 157.57 30.38 156.19 34.71 155.58 36.64 155.71 40.47 157.16 43.05 159.47 43.24 160.58 42.26 162.57 44.66 162.68 45.99 163.71 47.39 167.57 46.62 169.94 45.15 170.99 46 171.91 47.49 171.62 49.53 172.98 49.81 175.64 51.33 177.23 52.5 176.51 55.32 176.25 55.43 174.27 56.84 170.01 57.3 166.5 58.19 165.12 57.23 163.99 57.67 161.23 56.33 160.45 57.02 155.79 58.1 154.58 61.1 153.98 64.72 157.19 65.8 157.38 68.77 159.56 69.94 159.53 70.99 157.99 69.83 155.52 69.5 152.83 70.76 152.2 74.74 152.86 75.95 155.21 78.37 157.39 78.57 160.32 76.96 162.04 74.94 162.87 75.79 165.47 79.78 165.04 83.06 166.37 83.11 168.68 85.64 168.48 87.1 170.8 87.11 174.6 88.24 176.25 88.11 178.84 83.35 182.3 84.21 182.56 88.55 180.9 89.32 181.28 89.63 183.43 89.16 185.68 84.76 188.63 86.67 188.82 90.14 187.43 91.17 188.32 92.65 193 91.62 194.54 88.54 196.08 87.29 197.89 84.69 199.72 89.89 200.25 90.79 203.25 90.42 204.91 88.95 206.42 83.21 206.04 82.41 208.58 84.46 208.04 88.24 208.75 88.85 211.33 87.68 212.75 88.38 213.46 91.38 212.59 92.04 211.18 94.67 208.62 96.34 207.58 99.05 207.78 100.02 209.23 101.57 215.19 103.03 219.19 102.99 220.14 100.66 221.23 104.64 222.95 105.09 224.73 103.34 226.48 106.9 225.9 108.41 227.54 108.18 229.24 110.7 231.21 111.71 229.38 112.51 224.81 110.23 220.26 109.41 216.51 109.22 211.2 109.58 207.09 113.28 208.02 116.26 207.06 116.59 205.5 115.58 204.32 112.34 202.71 111.08 199.94 111.93 197.56 110.7 194.79 111.25 192.63 113.44 191.83 118.18 191.2 117.74 189.4 116.45 188.77 112.97 189.64 109.44 189.64 105.22 187.84 103.6 186.08 101.08 181.65 101.03 179.24 102.34 176.06 105.49 174.53 107.85 172.05 107.84 171.3 104.89 170.39 101.14 167.98 99.85 165.93 99.22 161.87 100.63 160.88 100.15 159.22 101.09 157.15 100.37 155.22 96.03 153.05 95.87 150.65 97.79 147.5 97.73 144.87 98.96 141.5 100.66 140.01 101.53 136.72 103.52 134.6 104.64 132.49 106.34 131.89 108.53 132.33 109.96 133.48 111.26 137.99 114.89 139.01 115.48 140.54 118.53 140.53 120.5 135.47 122.18 134.35 122.18 132.95 123.4 131.2 126.62 128.49 129.7 130.08 131.39 128.48 134.19 128.99 134.56 131.43 135.83 131.41 134.66 127.61 135.51 125.09 136.5 123.92 137.29 121.45 138.86 120.95 139.94 122.51 140.93 125.66 144.03 141.95 143.04 144.49 146.27 145.74 148.06 148.46 149.65 152.26 150.27 157.63 153.59 163.01 154.78 165.76 157.37 167.37 158.22 168.57 157.81 172.41 156.37 174.03 156.35 176.01 159.16 178.83 161.5 182.53 162.67 185.11 164.48 190.33 170.4 192.52 172.36 193.56 173.36 192.66 173.59 189.75 171.82 185.63 171.55 181.98 172.44 178.23 173.21 176.73 176.88 175.53 178.74 174.27 175.07 168.69 175.17 164.3 177.47 160.45 179.35 154.62 181.88 150.89 180.69 145.87 179.83 140.68 180.42 135.16 178.59 130.42 177.65 125.73 177.17 119.96 176.3 117.52 176.95 116.14 179.77 116.37 182.11 118.88 183.18 120.92 187.77 123.1 190.5 124.94 193.42 125.08 195.89 126.77 197.47 126.27 196.72 124.99 196.85 123.45 200.58 119.36 205.41 114.63 206.92 113.53 211.42 112.24 213.49 110.89 215.65 110.85 217.71 111.48 220.31 113.19 221.58 114.72 221.06 116.81 222.43 119.78 221.55 123.82 222.38 125.06 224.99 126.4 227.04 128.56 226.96 130.64 225.24 134.17 223.41 136.96 221.84 137.54 221.03 139.99 219.59 141.72 219.68 144.92 219.12 148.85 222.92 151.77 224.13 152.18 227.11 150.28 228.91 149.72 234.68 149.35 238.38 149.67 240.84 151.26 242.41 151.65 245.08 151.24 246.16 149.36 247.47 144.61 247.89 140.72 250.08 138.18 251.89 136.75 251.65 134.92 253.16 128.59 252.91 127.15 250.58 122.33 248.52 116.93 247.64 113.66 247.39 111.29 247.8 108.97 249.01 107.68 251.56 107.11 253.87 108.6 256.8 109.76 257.42 111.57 260.14 111.63 261.37 113.82 262.85 113.16 266.42 113.46 268.38 113 268.9 111.43 267.5 110.33 268.77 108.92 272.6 106.9 275.25 107.4 277.33 105.98 279.76 102.99 281.37 98.97 282.99 99.39 285.14 106 288.62 107.46 291.12 106.55 292.76 107.57 296.2 106.57 302.98 105.11 307.6 104.33 313.4 102.72 315.23 103.74 316.69 103.04 317.65 101.05 320.11 97.53 322.52 96.16 323.96 96.56 324.49 98.53 322.52 101.8 321.05 108.09 320.32 113.01 318.72 114.47 317.47 114.39 317.6 116.64 315.89 119.91 314.1 122.15 312.77 122.82 312.51 125.53 311.55 128.15 310.52 128.95 307.09 130.08 306.5 132.68 308.25 134.99 313.31 136.46 316.12 136 319.68 136.38 322.59 137.47 333 143.27 336.47 139.89 339.79 138.08 342.34 138.45 342.47 140.53 345.58 140.53 347.89 141 350.97 142.2 351 144.83 354.24 144.69 356.05 145.36 358.57 147.99 361.39 149.79 360.62 147.56 361.23 145.01 363.72 144.16 361.33 142.28 360.78 139.04 361.6 137.21 363.19 136.65 362.64 134.47 364.23 129.8 367.98 124.7 369.86 124.28 369.65 122.98 370.87 121.33 372.47 121.09 371.99 119.23 374.25 115.26 375.2 114.53 377.54 114.11 378.71 113.05 377.11 111.72 377.33 110.63 380.74 106.61 384.16 101.82 387.95 98.66 396.16 94.57 398.93 93.85 401.72 93.96 402.67 98.58 401.16 101.26 399.69 103 395.33 110.14 393.24 110.87 393 113.13 391.15 114.45 391.22 115.8 390.37 117.74 391.38 125.11 393.15 127.19 390.46 131.74 390.54 132.5 395.5 133.61 398.39 136.15 401.76 138 409.83 139.92 411.87 139.52 415 141.36 418.85 145.16 419.95 145.7 425.85 145.72 429.37 144.45 431.01 144.31 434.18 141.5 439.03 138.86 443.54 137.35 447.43 137.53 450.14 138.28 452.31 137.69 455.43 134.32 456.49 131.89 458.1 130.53 459.53 131.61 459.84 136.68 460.41 139.97 461.45 141.91 461.49 143.81 460.18 147.29 457.3 149.64 455.3 150.5 451.23 153.71 449.34 154.82 449.51 158.41 453.36 159.33 454.81 160.44 458.61 161.1 458.97 161.81 461.88 162.15 466.22 164.34 467.58 164.33 469.52 165.99 471.1 169.03 471.15 172.3 474.4 172.43 475.36 174.05 477.56 174.38 480.68 173.41 483.13 174.4 485.29 173.57 488.05 173.92 488.63 168.46 488.41 166.79 489.56 162.79 491.89 161.07 494.13 160.69 494.58 159.58 491.78 157.26 493.6 154.87 496.15 152.77 497.89 152.63 499.87 150.63 502.07 150.73 503.7 154.94 504.47 155.82 507.55 156.62 511.84 158.87 514.96 159.58 521.54 157.37 522.01 155.08 523.75 153.32 525.76 152.96 526.37 151.52 525.48 149 526.11 147.11 527.94 146.69 532.3 147.89 535.04 147.24 536.84 147.94 538.26 152.96 542.38 153.84 549.32 156.86 551.93 156.36 555.85 154.54 558.21 154.06 559.99 153.06 564.69 151.97 569.19 151.77 575.09 152.12 587.57 152.02 588.66 150.58 592.92 147.12 594.75 144.52 595.08 141.12 596.85 138.63 600.05 137.8 604.17 133.33 604.6 129.25 605.43 127.14 607.56 125.17 609.84 119.83 612.06 117.29 613.22 117.05 614.76 115.33 617.9 114.66 618.58 112.45 616.86 109.14 618.39 106.36 618.54 104.55 619.48 101.92 621.24 99.87 624.3 98.94 626.03 97.83 631.3 95.35 633.44 95.25 634.85 94.58 636.2 91.57 637.38 90.91 639.82 91.16 640.74 90.71 641.29 88.79 641.14 85.92 637.59 82.35 638.72 80.47 641.69 78.28 643.1 72.49 641.9 70.78 640.53 66.27 640.72 64.89 642.66 62.17 643.32 53.89 642.29 50 642.44 47.25 646.31 44.11 647.8 42.04 650.2 37.48 651.03 34.6 653.91 30.6 654.37 29.06 653.2 27.23 651.04 22.62 651.77 20.41 656.32 17.42 658.41 16.33 664.42 16.13 666.58 15.55 672.47 15.34 680.19 13.94 685.93 12.41 692.15 9.78 695.08 9.22 698.05 6.83 700.35 5.72 704.26 4.95 708.64 3.6 715.82 2.84 720.38 1.58 725.8 1 728.85 1.19 731.27 2.85 732.77 3.34 734.94 2.93 735.94 4.11 736.17 6.6 735.78 10.9 734 14.17 730.13 17.1 728.29 19.54 724.76 21.85 723.71 27.44 721.54 30.92 716.82 35.62 715.71 37.77 715.98 38.77 Z"/>
</g>
</svg>