<?xml version="1.0"?>
<svg xmlns="http://www.w3.org/2000/svg" version="1.2" baseProfile="tiny" width="800" height="368" viewBox="0 0 800 368" stroke-linecap="round" stroke-linejoin="round">
<g id="4205803">
<path d="M 671.88 312.65 667.09 312.72 663.57 313.23 661.42 314.4 658.08 315.8 655.43 317.57 654.1 320.38 649.84 323.21 648.83 324.62 644.79 326.94 642.88 328.39 637.36 333.67 635.87 334.23 632.24 334.97 631.25 335.49 625.86 339.64 623.97 339.5 621.34 338.11 620.35 337.81 614.48 337.91 612.92 338.61 611.6 340.06 611.3 340.88 611.01 343.67 609.89 344.53 608.67 346.14 607.32 347.23 606.56 349.15 606.69 350.78 606.03 351.43 604.49 351.64 603.29 352.29 601.9 352.38 600.8 354.57 599.14 355.48 597.64 355.88 595.59 356 594.25 356.49 592.55 357.53 590.02 359.9 586.48 362.86 583.34 367 582.09 364.8 570.93 344.84 564.85 331.96 562.3 323.48 561.96 321.46 551.51 319.43 548.37 318.58 544.66 318.04 540.96 317.92 536.68 318.16 533.1 318.64 529.94 318.82 526.89 318.35 525.09 317.33 523.6 315.96 521.45 314.97 518.59 314.36 515.46 314.53 513.13 315.66 511.06 314.98 508.98 312.35 506.35 311.57 504.58 310.17 503.74 308.68 503.29 304.96 502.59 302.94 501.42 300.32 501.27 298.07 500.51 297.27 498.57 297.25 495.07 298.58 493.6 299.37 491.43 299.65 489.44 300.3 488.64 300.91 487.93 302.43 488.6 303.41 425.61 304.31 368.84 305.13 260.9 306.68 176.64 307.89 83.46 292.27 34.71 284.1 31.84 282.93 28.58 280.68 26.08 279.82 24.75 278.25 24.1 276.59 22.47 273.98 22.02 272.41 20.57 269.92 21.26 268.32 24.31 263.69 23.37 261.24 23.01 257.73 22.02 253.85 21.93 252.8 22.47 251.34 23.98 249.46 26.14 247.86 28.13 245.18 28.39 243.71 27.06 240.85 26.52 237.94 26.67 235.47 26.43 233.69 25.76 231.36 24.53 229.49 21.92 228.31 20.52 228.08 18.53 228.16 17.7 227.44 16.98 226.04 17.22 224.17 18.35 222.27 19.12 220.21 18.82 219.49 16.18 216.15 14.37 212.86 14.38 209.76 13.09 208.86 11.33 208.72 8.57 206.67 5.63 204.1 3.15 203.21 2.08 201.89 2.1 200.42 2.53 199.49 5.41 197.49 6.51 195.44 6.86 194.12 8.19 192.59 8.64 191.38 8.64 189.78 7.81 188.33 6.84 185.7 5.69 184.79 5.02 183.7 5.32 182 6.44 180.37 8.81 178.42 8.54 177.23 6.46 175.45 4.47 174.51 4.18 173.81 4.33 171.58 5.68 170.65 7.83 169.65 9.18 168.43 9.68 167.04 9.54 165.86 7.94 163.33 6.93 162.53 6.36 161.09 7.39 159.62 9.21 157.96 8.4 154.32 7.63 151.86 6.21 151.28 5.06 150.34 3.39 147.64 1 146.52 1.3 144.71 2.12 143.17 3.58 141.55 5.06 140.57 7.65 140.6 8.86 140.2 10.19 139.27 13.89 134.17 14.41 132.1 12.78 130.77 11.7 127.35 11.7 125.46 13.12 122.8 12.76 121.66 11.75 120.03 11.06 117.5 11.43 115.66 13.12 114.25 14.23 112.89 14.33 111.89 13.75 111.06 12.7 108.52 12.74 106.3 13.26 104.12 13.15 102.74 13.44 101.29 15.1 100.23 18.38 99.19 23.76 96.48 25.68 95.14 28.47 94.88 28.5 92.84 29.52 91.17 29.81 87.73 33.21 86.67 35.84 85.31 37.55 83.69 39.93 82.6 40.87 80.88 39.78 77.76 40 76.65 39.75 74.31 39.93 72.26 42.69 70.87 43.94 70.46 46.02 70.72 46.45 70.34 47.29 68.02 46.87 65.8 47.06 63.78 47.96 62.2 49.13 62.04 51.1 62.98 54.43 66.48 55.7 66.87 57.23 66.42 58.52 63.97 60.01 63.21 62.04 64.82 63.68 66.61 67.24 67.21 68.95 68.7 70.33 71.12 70.3 73.33 72.36 74.16 73.91 76.77 76.44 76.85 77.89 76.65 83.5 79.89 84.87 79.55 87.48 80.37 91.78 80.04 93.33 80.37 96.57 82.49 97.89 82.58 99.58 81.85 101.34 81.57 102.71 82.57 104.32 84.81 106.55 85.03 109.01 85.74 110.05 86.91 112.2 90.01 113.6 91.64 115.94 95.46 116.5 97.04 119.32 98.55 120.37 99.55 121.68 100.11 127.6 101.09 130.35 101.95 132.47 101.76 134.55 100.63 136.48 100.04 137.38 98.82 139.64 98.15 141.29 97.1 141.79 95.54 143.14 93.31 147.38 94.57 148.67 94.58 153.37 95.89 155.11 97.28 157.72 97.3 159.92 97.83 162.19 97.52 162.97 97.93 165.98 98.24 172.44 97.23 173.92 96.57 176.86 94.29 177.73 93.19 178.86 92.47 181 91.65 183.44 89.4 184.9 88.7 186.42 88.93 189.72 89.84 191.16 89.31 196.6 85.91 198.96 85.95 200.29 85.51 202.44 84.25 204.43 83.81 209.47 83.72 211.48 85.2 212.91 85.43 215.02 84.02 217.17 81.77 216.92 80.78 215.49 79.01 214.77 77.09 215.41 75.44 216.51 74.51 217.17 72.8 216.63 69.26 216.48 66.89 215.79 63.42 215.18 62.71 213.22 62.57 210.84 63.35 209.64 63.32 208.82 62.69 206.22 61.57 204.87 60.61 204.7 58.94 205.84 56.9 206.36 54.97 206.18 54.28 203.98 51.72 203.7 50.68 203.82 47.99 204.67 47.4 206.32 47.27 208.38 46.75 210.31 45.82 211.93 44.62 210.09 42.08 210.18 41.27 211.08 40.48 211.04 39.48 209.73 38.54 208.56 37.09 208.5 34.4 210.52 33.96 213.96 32.61 216.26 31.25 219.54 30.25 221.99 28.52 223.18 27.21 224.09 24.69 225.71 23.74 227.66 23.45 230.67 21.9 230.24 20.85 229.34 20.53 207.86 1 354.71 2.52 396.37 2.95 507.66 4.09 737.53 6.47 799 7.1 798.61 11.15 797.04 16.89 796.37 18.55 795.04 20.69 793.65 21.79 790.36 23.67 786.61 26.88 784.31 27.86 776.52 31.66 774.21 32.96 772.25 34.85 771.28 36.5 771.05 37.77 771.42 38.93 771.07 39.89 770.17 40.04 767.82 39.2 766.02 38.08 764.36 36.1 762 35.19 760.44 34.36 757.91 34.16 756.76 34.72 756.18 37.35 756.34 41.9 756.19 43.51 755.21 48.79 755 51.14 753.99 52.43 752.43 53.82 747.38 57.22 745.97 57.88 743.94 58.35 741.3 58.53 738.9 57.55 736.32 57.88 736.13 60.11 734.91 62.26 735.28 63.46 736.54 63.85 737.67 63.63 738.76 66.21 739.04 68.01 740.97 69.77 738.89 71.12 737.64 73.15 736.72 74.2 735.11 75.21 733.57 75.76 733.29 77.05 734.94 78.97 735.52 81.3 736.69 82.13 740.79 82.15 740.26 83.44 740.64 85.24 737.79 85.52 737.19 86.43 738.67 87.44 739.15 88.56 740.7 89.23 742.01 90.73 740.24 90.47 737.02 91.34 734.43 92.96 733.48 94.08 733.38 95.55 732.38 97.33 732.35 98.67 731.58 99.7 727.8 99.9 725.67 100.24 723.7 103.21 723.58 104.31 720.63 106.06 720.75 107.26 721.64 108.61 723.88 109.08 725.43 109.74 725.94 110.72 727.92 113.28 727.42 114.18 727.86 116.92 728.38 118.02 729.65 118.97 729.97 121.23 728.47 122.7 726.41 124.25 725.08 125.82 724.22 128.98 724.15 131.57 724.77 134.36 726.66 136.41 729.63 137.09 731.63 138.62 735.09 139.65 737.41 141.33 739.23 141.9 740.63 142.76 743.09 143.56 744.94 143.92 747.38 143.76 749.87 145.15 751.14 147 755.67 150.04 756.4 151.47 757.43 154.89 758.55 157.46 758.2 158.98 756.82 161.1 753.97 163.2 751.09 164.55 750.75 165.78 754.04 166.59 756.37 166.1 756.82 167.7 754.92 170.82 754.73 171.7 755.15 173.41 755.03 174.59 754.04 176.19 753.21 180.54 751.83 181.72 750.31 185.8 746.58 189.3 746.46 190.98 747.95 192.54 749.4 193.34 750.39 194.72 750.16 196.28 750.88 197.31 752.6 198.11 753.93 199.21 755.72 200.2 757.97 202.98 759.6 204.51 760.29 206.15 763.11 208.78 764.25 209.27 766.12 211.06 767.94 211.56 771.62 213.23 773.04 214.05 775 216.02 777.33 217.31 766.75 236.73 765.72 237.65 753.68 239.18 747.59 239.9 743.58 241.58 742.17 241.72 740.16 241.41 736.65 244.17 735.56 245.9 734.28 247.17 732.59 247.73 731.39 249.23 730.19 249.99 726.41 253.57 722.67 258.57 721.39 259.36 721.22 260.5 719.9 261.21 715.96 260.92 714.77 261.53 714.62 262.67 713.9 263.54 714.61 265.42 714.47 267.26 713.43 268.24 712.13 268.59 710.95 268.44 710.65 267.74 708.4 268.04 707.54 267.62 705.89 268.19 705.52 270.26 704.09 270.79 702.34 270.99 700.22 270.88 699.25 269.64 696.93 269.18 693.03 270.69 692.27 271.69 690.03 272.43 688.98 274.7 688 276.13 686.62 277.5 681.22 280.34 677.91 281.76 675.54 283.75 675.26 284.94 673.72 286 671.81 286.65 669.77 286.91 668.03 287.56 667.62 288.39 665.57 289.41 664.84 290.5 665.05 292.55 665.03 296.59 666.19 298.74 666.2 300.03 665.26 302.01 665.17 303.94 666.08 305.57 668.98 307.23 670.29 307.51 671.88 308.68 671.69 310.91 671.88 312.65 Z"/>
</g>
</svg>