<?xml version="1.0"?>
<svg xmlns="http://www.w3.org/2000/svg" version="1.2" baseProfile="tiny" width="800" height="709" viewBox="0 0 800 709" stroke-linecap="round" stroke-linejoin="round">
<g id="4205506">
<path d="M 773.81 517.52 772.37 520.94 769.79 524.19 768.84 524.65 764.89 525.25 761.76 524.31 758.91 523.99 757.11 524.22 755.01 524.92 753.72 525.94 752.99 529.08 750.08 534.54 748.6 538.42 748.47 540.04 748.77 541.92 750.6 543 753.18 544.12 756.52 547.65 758.74 548.96 761.82 549.81 765.43 550 770.01 551.18 772.46 550.91 773.91 551.12 775.69 552.98 776.27 556.6 775.11 560.17 775.04 562.46 774.42 566.19 773.42 568.2 773.14 570.31 771.08 576.13 769.05 578.34 766.9 580.16 763.52 583.81 759.24 587.8 756.46 589.99 754.98 591.62 754.38 593.23 754.64 593.98 759.48 595.93 762.43 596.64 767.26 597.09 770.85 596.69 773.97 595.66 777.9 593.66 783.59 592.14 785.15 591.32 789.64 588.32 792.85 587.2 795.08 587.08 797.19 587.3 798.66 588.41 799 590.35 798.12 594.07 797.44 595.25 795.32 597.34 793.33 598.96 791.13 596.65 789.43 596.6 788.18 597.36 784.4 597.92 780.07 599.67 777.61 601.01 766.78 603.07 764.89 603.22 759.18 602.19 755.36 602.74 751.19 602.55 747.47 601.98 744.14 600.94 738.82 597.75 734.33 593.59 728.51 587.93 726.52 587.32 725.49 586.63 722.99 582.69 721.66 580.1 721.55 578.55 720.85 576.58 721.72 573.89 721.43 571.49 719.77 569.87 716.89 569.39 716.05 568.97 715.56 566.93 713.69 565.32 712.21 562.49 710.94 561.82 707.58 561.56 704.78 563.35 701.3 565.07 699.54 564.89 697.23 565.43 692.87 566.06 691.77 565.79 690.5 564.71 688.86 564.58 685.71 565.18 683.64 564.96 680.41 565.51 677.08 566.55 673.66 567.3 670.18 569.35 668.54 570.08 666.68 570.19 664.75 568.54 661.6 567.36 660.42 566.66 658.38 564.31 655.24 564.08 652.28 563.13 650.9 562.43 649.61 560.86 642.5 559.44 640.01 559.98 637.42 561.38 635.06 561.58 632.24 562.42 628.71 561.81 626.59 561.8 624.09 562.28 622.26 561.85 621.33 560.8 620.4 560.51 618.02 560.73 616.27 560.14 614.56 557.53 613.92 557.17 612.19 557.33 610.36 556.34 609.55 556.37 607.35 557.56 604.16 557.44 600.96 556.96 572.09 588.33 502.38 647.79 501.75 648.9 501.78 650.57 503.72 652.14 503.15 654.5 502.21 655.02 503.77 658.99 504.68 660.17 505.56 663.88 505.07 665.78 505.93 666.81 506.13 667.89 505.4 668.96 506.36 669.56 506.71 671.38 505.67 672.3 508.23 673.6 509.27 675.33 511.24 676.67 511.36 677.21 508.85 678.83 507.85 679.92 504.79 681.67 502.99 683.08 502.72 683.87 501.18 684.81 501.82 687.15 502.65 687.62 503.06 689.87 498.65 690.35 496.75 691.09 495.18 691.08 493.34 692.46 494.45 693.56 494.07 695.23 491.91 696.23 490.12 695.72 488.03 695.52 486.87 696.18 486.82 698.54 485.88 699.97 483.98 699.74 483.03 700.15 481.56 702.61 482.19 703.66 483.56 704.32 483.19 705.57 481.29 705.46 479.77 706.15 478.89 704.68 476.92 705.22 475.76 705.89 475.95 707.49 474.63 708 471.55 706.9 469.29 705.66 467.25 706.26 463.96 706.42 463.66 706.05 464.74 703.81 467.84 701.92 469.5 699.76 470.26 697.62 470.18 696.79 473.51 693.58 473.41 692.37 471.8 690.79 470.36 690.24 467.55 689.95 468.77 688.11 468.48 687.57 466.01 685.87 465.39 686.63 463.83 685.93 461.51 683.97 458.1 683.55 458.31 682.81 460.24 680.78 462.74 679.16 463.94 678.87 464.55 678.15 466.7 676.71 468.66 676.09 470.58 676.42 471.02 675.84 470.04 674.92 469.13 673 466.35 672.4 464.18 670.3 464.03 669.63 466.56 668.5 467.79 668.94 468.91 668.59 470.54 666.96 470.81 666.05 472.25 664.04 471.99 663.52 470 663.25 469.15 661.91 467.22 661.51 466.67 658.93 465.83 658.37 462.59 657.93 462.26 657.65 462.67 655.39 463.35 654.25 462.98 653.68 459.6 654.95 459.54 653.65 458.72 652.22 459.64 650.93 460.03 648.93 460.99 648.12 460.56 647.1 459.43 646.79 457.08 647.18 451.78 645.84 450.86 647.3 449.99 646.35 448.75 646.51 448.53 645.04 447.66 644.08 446.15 644.53 445.67 643.81 444.16 643.45 445.46 641.81 444.62 639.83 443.47 641.04 442.33 640.73 443.03 639.45 442.38 639.1 441.25 640.29 439.54 639.69 439.21 640.88 437.1 640.91 437.23 639.18 435.79 639.42 431.91 638.18 430.31 638.99 429.53 641.23 427.32 642.48 426.53 644.24 425.7 644.88 424.42 647.09 423.89 646.89 423.16 644.82 421.64 644.59 420.92 645.75 419.02 645.5 417.27 644.4 416.35 642.99 414.9 643.33 413.81 643.04 413.73 641.84 412.21 639.52 411.45 639.12 409.23 639.56 407.51 638.03 405.22 636.83 403.98 635.62 404.97 634.89 403.9 633.87 404.7 631.2 405.63 630.32 403.56 629.71 402.91 628.73 402.89 627.23 400.55 626.97 398.79 625.62 397.97 626.46 396.38 625.82 395.11 626.17 394.12 624.53 394.41 622.06 392.91 622.1 391.75 620.48 394.95 618.41 396.05 618.52 397.54 617.64 398.96 616.11 399.8 616.53 401.63 615.9 399.65 613.81 398.8 613.58 398.07 612.54 400.04 611.03 399.51 609.85 398.05 608.43 398.22 606.96 396.3 606.47 395.44 607.52 393.43 607.71 392.79 606.23 393.73 605.21 393.42 603.45 394.03 600.17 394.69 599.05 394.17 598.06 392.99 597.35 393.23 596.31 394.71 595.6 394.9 592.94 393.31 592.48 392.14 590.68 393.25 589.93 394.99 589.81 393.5 587.27 391.87 588 390.62 587.87 390.23 585.74 388.04 584.13 389.3 582.78 388.41 580.8 387.57 580.73 385.67 579.24 385.45 578.42 384.35 577.72 383.64 575.95 381.47 576.25 379.98 576.97 378.63 576.96 376.3 575.48 374.49 575.22 372.71 573.56 371.41 572.97 369.29 572.79 367.38 573.4 365.87 573.06 365.36 571.56 364.55 570.61 363.05 570.03 360.9 570.15 357.33 571.52 354.97 571.96 354.32 572.55 352.16 573.26 351.07 575.15 350.44 575.2 349.9 573.58 349.12 572.85 347.1 571.81 345.61 571.97 344.99 572.67 343.97 572.16 341.8 572.27 341.05 573.4 339.53 573.67 336.85 573.25 333.83 571.95 332.36 571.73 329.07 569.67 327.89 567.76 325.3 566.78 324.01 565.44 322.06 565.69 320.22 565 318.32 563.7 315.52 562.17 312.77 561.32 310.92 560.08 309.39 559.47 307 559.26 303.15 559.57 301.12 559.52 299.68 559.04 297.31 559.25 294.28 558.96 291.52 560.1 287.04 560.84 285.36 561.67 278.87 561.6 276.92 561.24 273.31 559.74 272.01 558.54 257.63 558.28 255.97 558.14 252.78 558.5 250.24 559.34 248.13 560.33 243.06 561.55 239.88 562.88 239.84 564.84 239.36 566.47 238.43 567.82 236.16 572.26 235.73 573.57 232.17 576.01 230.96 577.82 229.19 578.24 227.99 578.97 227.78 579.76 228.37 580.92 227.42 582.2 224.76 583.21 223.93 583.89 223.43 586.74 222.85 587.81 220.56 588.87 220.3 589.41 218.48 589.86 217.4 588.77 214.87 588.96 211.9 587.37 210.05 587.95 209.25 588.99 210.08 591.04 208.87 590.77 207.29 591.31 204.63 591.04 201.13 592.02 199.23 593.41 195.47 592.36 192.3 592.42 191.3 592.71 188.39 592.86 187.76 592.47 186.91 590.87 183.83 590.74 182.61 590.37 182.03 589.59 178.64 588.82 175.3 588.89 173.55 589.54 170.43 591.35 168.78 591.51 167.1 592.99 165.17 592.84 163.69 591.31 161.25 592.24 159.89 591.34 158.39 591.71 155.34 591.61 154.34 591.36 153.27 589.93 152.47 590.46 150.13 588.43 148.84 588.25 144.78 588.75 143.24 587.3 142.12 588.55 142.41 590.44 141.87 591.2 140.41 591.59 137.8 590.82 136.08 591.07 134.84 591.71 133.6 591.16 132.54 592.89 131.27 593.21 128.43 592.54 126.55 593.5 125.79 594.77 124.82 595.46 124.08 594.83 122.6 594.86 121.89 595.37 123.4 598.79 122.97 600.78 122.15 601.42 119.16 602.31 118.25 601.92 116.8 600.28 103.97 569.18 103.62 566.74 102.11 565.08 99.15 562.62 96.12 561.35 93.75 561.41 92.88 559.64 91.13 558.36 90.23 555.81 89.5 554.95 90.67 554.21 90.34 553.13 90.65 551.29 90.64 548.5 89.68 546.65 89.16 546.44 86.89 547.22 84.1 547.7 83.19 546.66 82.9 545.02 83.54 544.28 86.96 543.97 88.14 543.56 89.61 541.45 92.79 540.01 94.36 539.84 94.49 541.13 94.05 541.89 95.04 543.71 96.81 543.81 97.67 542.92 96.71 541.27 97.14 538.97 97.58 538.7 103.46 538.82 104.19 538.41 106.79 539.02 108.56 538.12 109.63 538.04 112.59 539.48 115.33 540.21 115.21 537.93 115.52 537.5 118.06 537.03 118.79 537.83 121.25 538.96 122.81 537.62 125.18 537.27 126.5 535.8 128.52 536.72 129.18 536.53 130.12 534.41 129.59 533.53 125.69 532.48 126.28 531.25 127.45 530.34 126.94 528.61 127.53 525.16 128.01 524.17 127.05 523.01 125.03 521.93 123.38 522.04 123.26 520.92 124.08 520.1 126.63 520.18 130.12 519.63 128.85 518.67 127.98 519.02 126.42 517.67 126.6 516.58 128.63 515.64 128.85 514.27 129.59 513.35 129.67 511.87 130.36 511.17 133.32 511.62 136.24 512.52 138.63 511.66 140.49 512.85 142.9 513.91 142.79 515.62 143.81 516.59 145.6 516.47 145.03 514.8 146.26 511.97 147.42 511.96 148.1 510.97 150.86 511.24 151.56 509.96 149.72 509.75 149.78 505.22 146 505.5 145.07 504.69 142.85 504.1 142.41 502.7 143.58 502.04 146.04 502.58 147.14 501.35 145.79 500.13 145.6 499.27 147.99 497.07 149.94 496.53 149.87 495 148.98 493.73 148.78 492.07 149.6 490.24 150.6 490.08 152.57 491.52 153.98 491.2 156.42 489.87 158.01 489.79 158.55 491.83 159.33 492.55 161.59 492.04 162.78 489.05 162.39 487.7 162.86 486.39 161.5 484.34 161.53 482.61 163.43 483.69 164.98 482.71 167.61 482.64 168.35 482.37 169.07 480.91 170.11 480.26 172.22 479.88 173.71 478.76 174.5 477.29 174.56 475.65 175.51 475 175.37 472.41 174.15 471.47 174.12 470.42 175.41 468.71 175.77 467.58 176.65 466.87 178.04 466.49 179.5 464.85 179.3 462.64 178.9 461.44 175.87 458.56 175.98 457.51 179.25 457.39 179.43 456.57 177 454.71 177.52 453.48 176.95 450.59 176.08 449.19 178.68 445.07 175.23 438.84 175.41 435.26 175.27 432.74 176.77 431.17 177.18 429.27 179.16 428.14 181.82 426.26 182.24 423.66 182.88 422.8 182.99 421.53 182.47 419.65 184.21 417.51 183.42 416.39 183.87 415.01 183.36 413.65 184.07 411 183.44 410.24 185.37 405.47 185.06 403.95 183.75 401.61 183.8 401.05 182.44 400.06 179.71 397.32 178.95 394.79 180.24 393.29 180.61 392.33 179.73 389.67 179.91 388.62 179.24 387.97 175.5 385.84 174.09 384.51 172.78 382.06 170.87 380.25 169.67 378.35 167.92 374.38 166.31 374.57 165.91 376.41 164.84 377 162.58 376.28 160.79 376.88 159.6 376.86 150.59 375.6 146.41 375.71 144.5 376.17 142.62 376.96 141.01 376.52 139.39 377.26 138.44 379.8 137.67 381.05 136.43 381.91 134.78 381.8 133.39 381.15 132.67 378.38 131.65 375.85 131.31 374 129.74 373.77 128.75 372.94 128.23 371.63 126.18 369.53 124.34 369.01 124.85 370.77 123.83 372.01 121.66 372.36 120.79 372.98 116.69 373.76 108.9 373.39 103.99 372.56 102.95 371.09 100.19 369.59 99.24 368.69 98.85 367.05 99.48 366.02 99.4 364.69 99.84 362.58 99.05 360.52 97.87 358.45 97.91 356.62 97.53 354.08 97.45 351.87 96.55 348.87 94.61 346.92 91.95 346.07 90.21 344.71 89.35 342.17 86.97 341.1 86.72 338.94 84.34 335.53 85.45 333.66 85.08 331.92 85.29 330.65 83.67 329.87 82.28 328.14 81.81 326.33 78.75 322.35 79.19 321.44 78.8 319.04 78.08 318.73 77.94 317.19 79.56 316.71 79.51 315 80.53 314.78 80.98 312.72 81.62 311.71 80.2 309.04 80.73 307.88 81.13 304.51 82.89 303.04 80.71 299.68 78.64 297.4 76.39 297.76 75.09 296.19 74.22 295.92 73.24 294.35 73.05 292.06 72.21 291.06 71.21 291.41 68.66 289.01 68.29 287.97 66.06 287.66 65.8 286.8 61.88 285.62 60.92 286.09 56.87 283.7 54.15 283.66 52.7 282.57 51.37 281.05 51.48 279.72 52.29 278.56 52.56 276.48 52.54 274.28 53.43 272.3 52.98 271.4 51.33 270.19 50.53 268.69 49.62 268.42 47.98 269.18 44.93 269.46 43.92 269.18 41.86 267.75 40.66 265.79 39.46 265.38 37.31 263.38 35.17 263.42 33.33 266.35 32.67 267.82 25.3 270.04 22.43 269.93 21.92 270.96 20.28 270.33 18.79 271.36 16.42 270.65 15.46 269.55 16.12 269.11 17.58 269.37 18.33 268.38 17.54 266.89 16.01 266.05 16.4 264.48 15.77 263.7 13.53 262.57 13.28 261.54 11.65 259.39 10.67 258.86 11.38 258.09 10.43 256.87 8.35 256.94 6.79 256.08 5.87 254.28 3.18 252.06 1.11 250.05 1 248.87 3.45 244.8 5.5 243.47 6.28 242.28 9.42 241.21 14 243.55 15.45 244.09 16.86 242.55 19.42 242.43 23.01 245.77 25.11 245.39 28.57 245.36 29.94 243.58 31.63 242.42 31.98 241.24 30.92 240.13 30.25 235.31 30.47 232.15 31.07 229.24 31.59 228.26 33.37 226.38 34.86 225.56 37.13 225.58 38.68 226.25 40.11 225.29 40 224.44 41.84 224.29 44.98 225.6 45.67 227.1 47.3 227.86 49.44 227.7 56.12 244.98 106.57 248.3 106.61 239.29 144.42 242.76 153.23 225.94 152.22 224.1 150.16 222.47 148.68 220.67 146.89 220.14 145.67 219.31 144.28 217.7 143.02 215.28 141.28 214.13 139.31 212.28 137.54 206.08 136.2 204.03 135.16 203.31 145.38 197.02 461.37 2.59 466.49 1.18 467.67 1 470.09 1.73 471.71 4.54 471.64 5.73 470.82 8.07 469.91 9.6 469.22 11.66 470.68 14.71 472.41 15.78 472.77 16.77 473.04 19.26 472.07 22.93 472.83 24.7 472.93 26.73 473.96 29 474.1 31.19 473.8 33.31 474.39 35.55 475.33 37.26 473.7 38.38 473.89 39.1 475.44 40.62 474.4 42.09 474 44 474.34 45.09 473.7 46.56 472.04 49.2 468.43 53.46 467.74 57.41 469.41 58.15 469.18 59.49 470.2 60.57 469.41 60.98 470.08 62.23 473.49 64.75 476.37 67.21 477.37 67.52 478.43 69.21 478.38 70.28 477.58 72.24 476.75 72.84 477.08 74.9 477.86 76.77 477.19 77.4 476.48 79.48 472.11 82.36 471.25 85.45 469.42 86.71 468.44 89.44 468.61 91.19 468.21 91.96 468.97 94.19 468.57 95.92 465.75 98.91 465.28 100.58 463.93 101.89 462.8 105.07 461.9 105.45 459.45 105.43 458.29 105.96 458.36 108.12 457.62 109.89 457.06 112.83 456.93 116.11 457.23 117.02 460.17 121.1 461.87 122.48 461.5 125.3 462.72 127.66 462.94 129.06 463.93 131.03 463.61 132.3 463.81 135.39 465.22 137.41 466.4 141.58 467.2 142.4 469.34 143.09 470.64 144.42 472.48 145.55 473.41 147 475.44 147.88 477.07 148.06 478.24 148.71 482.68 150.19 484.37 152.41 485.18 153.85 488.39 157.78 488.41 160.13 487.59 161.41 487.56 162.84 488.07 164.43 491.26 168.7 491.34 170.13 492.81 171.49 490.91 172.72 488.94 172.82 484.97 175.87 484.55 177.21 484.65 179.96 485.31 180.66 487.49 181.43 486.87 182.45 487.1 184.54 486.18 184.93 487.13 186.96 486.07 187.75 486.9 188.63 486.12 190.08 485.93 194.31 486.07 195.97 486.67 198.09 486.15 201.53 487.18 203.01 488.91 206.16 489.2 207.1 490.45 208.41 490.61 209.53 489.96 215.21 491.13 217.49 492.56 217.73 495.92 219.88 498.11 220.71 499.67 220.3 500.21 220.77 499.38 221.85 500.79 223.84 500.84 225.02 502.09 226.85 502.24 229.48 504.12 230.31 505.48 231.64 505.84 232.73 507.83 234.13 510.11 236.2 513.21 237.05 514.64 237.68 512.13 240.41 512.85 241.27 511.82 242.64 513.28 245.97 513.83 247.92 513.83 250.23 513.13 251.25 511.8 251.89 510.95 253.73 511.23 254.73 513.36 255.72 514.1 256.44 514.54 258.15 514.26 259 512.65 260.79 510.43 262.72 508.08 263.57 507.38 264.22 508.55 266.43 508.89 267.69 510.37 268.23 511.85 269.29 514.21 269.05 518.13 270.58 520.61 270.05 521.17 269.03 524.32 266.79 526.92 265.74 529.35 265.8 531.38 268.66 533.46 269.89 533.67 271.25 533.1 273.65 531.22 275.96 528.85 278.25 530.8 280.58 532.24 281.21 535.06 281.02 536.72 280.24 540.08 280.5 541.91 281.23 544.21 280.59 547.33 282.43 548 282.59 550.15 281.88 552.28 281.48 553.29 280.97 552.63 278.52 554.12 278.27 556.1 279.22 557.95 279.62 560.11 281.44 561.2 282.89 565.55 283.69 567.86 284.89 570.69 285.82 570.6 287 567.97 287.6 567.4 287.98 567.63 289.75 569.01 290.55 571.16 291.09 572.07 292.96 570.37 294.99 568.72 295.87 563.94 296.55 562.53 296.56 561.72 297.66 561.91 301.46 561.54 302.78 560.68 303.63 558.88 303.02 558.36 304.08 559.84 305.08 560.93 307.26 558.51 309.24 558.39 311.27 560.29 315.53 560.44 317.78 560.26 320.08 560.67 320.83 561.85 320.88 563.34 320.22 564.65 319.04 565.7 317.55 567.02 316.59 568.18 316.23 569.79 317.23 570.39 319.98 571.41 321.02 574.31 320.37 578 316.69 581.69 313.74 582.64 313.5 586.2 313.54 589.28 312.59 590.88 310.97 590.74 310.37 588.76 309.3 588.41 308.24 589.26 306.66 589.22 305.94 587.7 304.33 586.03 303.15 584.74 301.2 585.22 298.39 586.08 298.1 590.79 297.96 595.64 297.25 597.54 297.55 602.14 298.8 606.17 298.63 607.33 298.16 607.62 296.6 606.11 294.83 603.32 292.1 601.72 290.77 600.01 288.9 599.46 287.53 600.19 285.35 605.94 284.66 608.32 285.46 609.28 286.22 612.13 287.11 615.47 289.35 616.91 289.54 618.44 288.95 618.81 287.8 618.08 285.45 616.29 282.69 614.46 280.69 612.73 278.37 608.83 276.46 607.42 274.97 607.1 271.52 609.14 272.05 611.51 271.63 613.6 271.66 614.42 273.06 615.99 273.91 620.38 274.97 625.56 277.91 627.47 279.37 630.2 281.97 633.96 286.22 635.14 286.52 636.85 286.37 639.88 287.14 641.47 285.73 645.69 284.75 646.48 284.01 646.53 282.92 645.3 279.44 643.36 276.67 643.3 274.38 642.36 272.13 641.77 269.31 641.02 267.46 639.12 264.74 639.28 263.84 640.89 263.07 642.62 262.84 647.86 263.51 648.28 264.55 649.67 266.38 650.86 267.41 651.36 269.32 651.96 269.88 654.52 270.96 655.38 272.95 656.97 275.66 657.12 276.48 656.88 279.48 658.11 284.23 656.93 286.45 656.07 288.7 652.94 290.6 652.46 292.39 655.18 293.86 657.15 296.02 658.63 296.34 666.31 291.11 671.77 288.69 673.1 287.89 676.16 286.88 679.59 286.85 680.3 286.17 686.02 287.13 691.35 290.78 693.13 295.62 692.37 297.73 688.82 298.92 685.84 298.39 683.54 298.58 683.35 301.26 684.52 303.03 683.94 304.52 682.39 305.66 677.4 310.7 677.59 311.82 680.05 314.19 682.41 317.77 686.84 322.58 689.71 323.98 691.13 325.52 693.95 326.92 698.24 326.79 702.21 326.83 707.07 327.33 709.16 327.32 711.52 327.87 714.29 328.16 715.67 328.87 716.36 330.07 715.35 335.26 713.5 339.81 712.39 341.95 711.45 346.32 710.74 347.18 708.96 347.81 704.18 347.96 699.5 348.61 694.43 349.04 690.37 350.83 685.51 351.96 683.5 353.09 678.54 358.33 676.64 360.08 676.7 361.38 678.56 361.96 679.61 361.54 680.28 360.61 680.73 357.74 683.37 357.29 684.11 357.7 684.63 360.41 685.87 362.2 689.67 362.71 691.16 362.58 693.46 364.1 696.85 365.66 698.92 367.29 701.28 366.55 701.24 367.9 702.39 368.24 703.88 367.85 705.12 369 706.32 369.46 707.38 368.77 708.64 369.18 708.3 367.24 710.18 367.4 711.92 368.23 712.21 369.17 711.89 370.88 713.19 370.37 713.17 368.42 714.4 367.67 716.85 367.52 718.14 365.79 718.82 365.85 718.72 367.84 719.95 368.86 721.26 370.82 721.69 373.66 719.86 378.31 721.2 378.44 722.24 379.56 724.35 378.68 725.14 378.74 725.67 380.2 725.15 382.4 722.36 385.89 720.84 386.53 720.7 387.46 722.67 388.24 722.75 389.02 721.18 389.42 720.87 390.37 721.73 391.67 719.59 391.89 719.17 392.72 720.47 393.95 720.78 395 720.32 396.02 721.13 398.3 722.47 399.15 722.88 401.77 724.04 401.94 725.31 400.33 726.25 401.11 724.05 403.05 725.53 403.88 726.78 403.41 727.65 403.75 728.29 404.82 732.57 405.18 734.15 405.69 736.75 408.52 735.13 412.01 734.06 412.61 732.36 414.34 732.28 415.39 733.73 417.51 736.3 418.8 739.41 418.94 742.03 420.88 744.22 423.56 744.75 425.04 744.65 426.97 743.93 428.29 742.4 430.05 741.2 432.21 739.82 433.32 737.37 432.94 735.56 431.98 735.18 430.59 733.9 428.66 730.49 426.09 728.5 424.82 727.3 423.37 725.81 422.4 723.76 419.93 721.53 418.21 720.93 418.14 719.29 419.41 717.59 420.29 716.31 421.38 716.18 422.42 717.85 423.71 719.98 422.68 722.4 422.06 723.64 422.47 724.06 425.56 724.81 427.44 725.64 430.51 726.83 432.09 727.25 433.95 725.89 434.99 724.85 433.35 722.28 431.9 719.24 431.33 717.98 431.83 716.6 433.26 715.24 436.18 714.66 439.8 713.53 443.58 714.4 444.33 716.54 447.04 719.45 449.23 720.37 451.7 720.91 454.9 721.46 456.32 723.74 457.47 725.54 457.61 728.74 458.61 730.78 460.31 732.79 463.3 732.94 465 732.56 466.61 732.94 467.5 732.99 470.36 734.71 471.06 738.39 470.82 739.71 470.97 740.89 471.93 742.02 473.74 743.21 474.9 749.99 476.56 752.93 477.18 755.8 476.85 758.07 478 759.86 479.64 761.4 482.76 762.72 487.39 763.05 490.17 762.71 493.02 761.53 494.78 759.83 495.48 757.16 495.96 755.48 495.35 753.91 493.55 751.08 492.75 749.43 493.1 748.43 494.14 745.59 495.22 742.86 494.81 740.53 495.85 740.18 497.52 740.51 499.29 741.63 500.32 743.13 501.04 744.22 504.68 744.49 507.4 743.91 509.9 744.41 511.12 747.15 513.92 749.03 515.24 750.1 515.56 754.52 516.06 755.96 516.42 758.26 516.32 760.69 515.73 763.48 515.69 767.46 516.9 768.98 517.17 773.81 517.52 Z"/>
</g>
</svg>