<?xml version="1.0"?>
<svg xmlns="http://www.w3.org/2000/svg" version="1.2" baseProfile="tiny" width="800" height="291" viewBox="0 0 800 291" stroke-linecap="round" stroke-linejoin="round">
<g id="4206603">
<path d="M 758.38 255.9 759.36 259.65 759.62 264.96 760.81 267.88 761.82 273.18 758.87 274.73 754.84 274.62 753.27 273.53 749.32 272.39 746.56 272.87 741.38 275.38 738.23 275.28 730.31 270.12 727.18 266.93 725.3 266.42 720.43 268.23 714.42 271.72 706.22 277.45 703.04 280.83 701.04 282.06 696.91 283.32 685.62 284.7 679.63 285.94 677.41 285.91 675.11 287.04 675.04 290 668.9 288.14 667.31 286.76 664.49 282.51 661.75 280.22 659.35 279.49 654.65 279.62 652.28 278.12 650.24 274.2 645.74 274.22 642.41 275.62 640.19 274.86 636.16 277.05 634.41 276.76 636.03 271.99 635.63 271.38 630.08 271.95 628.49 270.96 628.63 264.06 625.79 264.69 619.97 263.67 613.42 259.58 612.01 256.55 607.54 253.87 605.02 250.42 600.29 250.07 597.03 251.99 592.58 247.94 590.03 247.91 585.98 248.85 582.65 245.31 578.02 244.33 576 245.58 569.34 244.16 564.29 243.6 559.04 241.32 553.86 240.32 550.63 235.25 546.35 230.96 544.7 228.22 546.21 223.14 546.14 219.77 545.42 216.89 546.89 214.39 546.62 212.82 541.81 207.65 540.07 204.96 537.86 203.38 536.5 201.1 538.49 199.56 538.12 196.59 533.21 193.26 530.75 189 525.94 185.22 523.64 182.25 521.02 180.1 513.82 177.35 509.1 174.39 504.6 172.93 502.83 171.14 502.38 168.07 500.58 165.92 485.42 231.67 413.57 236.21 410.3 235.82 406.46 237.28 406.58 240.55 408.89 245.3 403.6 246.43 399.2 249.47 395.34 250.57 392.52 252.82 387.96 253.54 386.4 256.34 384.2 257.17 383.42 258.61 376.18 259.83 374.63 258.85 368.27 260.82 365.19 261.09 362.82 260.15 360.18 258.16 355.17 257.18 350.6 258.48 348.65 257.49 344.51 257.61 342.49 258.3 338.86 256.96 332.41 257.28 327.5 256.47 325.93 258 320.41 258.43 318.94 259.63 316.17 258.46 310.39 260.08 307.68 257.62 305.41 256.71 303.02 257.86 301.59 259.52 299.8 259.18 299.13 257.6 297.21 257.72 295.62 259.51 293.23 257.61 288.07 257.39 287.95 258.81 277.85 257.05 267.91 256.26 266.58 256.8 265.71 260.92 263.32 262.82 262.8 264.4 260.42 264.74 258.94 266.83 256.19 266.51 252.21 268.15 251.22 271.92 248.4 274.2 245.48 274.17 241.84 272.46 232.5 270.45 226.75 270.72 220.08 269.18 214.21 266.73 211.92 264.16 207.33 262.8 203.95 260.35 199.42 259.5 197.42 258.46 195.44 258.9 192.11 256.95 187.49 257.14 187.63 254.24 187.56 249.03 189.58 246.9 184.93 245.02 135.61 227.23 96.86 217.29 73.75 211.26 12.36 195.59 12.43 190.88 11.91 190.05 7.95 188.22 1 181.85 1.25 178.92 2.53 177.72 8.29 179.04 14.91 181.66 16.33 181.14 17.11 178.49 20.18 178.61 23.87 182.12 25.73 183.02 29.45 182.18 31.58 180.77 33.09 181.75 36.17 181.01 37.21 178.73 42.08 180.12 44.09 179.18 45.47 171.08 42.86 171.72 41.41 174.21 38.12 172.13 30.56 171.2 28.43 169.01 24.62 166.45 22.84 164.42 22.48 160.65 22.92 158.61 22.75 151.76 25.86 146.84 27 146.64 31.56 148.65 32.92 148.58 38.14 145.7 40.87 148.99 41.38 150.76 43.93 153.39 46.6 154.37 50.09 152.82 50.73 148.36 48.25 145.64 45.84 141.88 46.43 140.09 52.11 137.73 54.98 135.39 57.08 134.44 57.47 132.75 54.97 128.19 51.93 127.31 48.6 127.44 43.67 128.4 42.62 127.98 40.05 123.9 39.67 120.24 41.34 118.12 42.09 115.61 43.65 114.09 45.94 115.41 48.21 117.98 49.93 118.92 52.64 118.99 55.41 117.9 56.19 112.52 54.11 109.18 55.72 107.04 60.7 105.83 63.85 106.99 66.79 111.16 75.26 116.35 77 116.57 79.23 115.1 80.42 112.8 83.16 109.64 85.39 103.94 86.57 102.21 88.2 97.94 90.13 95.3 90.57 89.09 88.08 85.22 86.17 80.66 86.77 78.59 90.7 79.75 98.32 80.5 100.21 79.25 100.65 74.26 99.97 73.23 93.76 69.9 94.36 66.83 88.92 63.91 82.49 59.11 82.3 56.99 83.76 55.64 87.03 55.78 89.24 56.54 92.67 59.46 95.72 60.7 98.03 59.79 96.56 57.01 96.92 52.9 93.7 49.04 94.22 46.77 96.95 46.59 99.95 44.86 105.69 43.86 107.05 41.52 106.62 37.87 154.6 35.02 189.43 33.16 200.68 32.71 220.95 31.37 250.82 29.63 272.45 28.5 319.42 26.15 343.03 24.85 369.37 23.61 456.55 19.03 552.95 14.06 590.98 11.79 649.2 8.54 703.81 5.57 763.47 2.12 782.28 1 792.95 1.04 797.27 2.08 798.85 3.56 799 5.62 796.93 16.49 796.68 20.57 793.4 20.39 792.27 15.97 789.97 13.19 788.37 12.31 785.12 12.18 781.85 14.35 780.75 17.8 776.63 21.71 774.13 27.35 771.95 28.01 770.03 25.25 768.74 21.78 766.5 21.37 764.55 22.93 761.89 27.05 758.66 30.58 762.54 37.92 763.1 40.47 762.66 43.17 761.17 46.51 757.04 49.62 755.25 50.13 747.81 53.78 747.28 55.65 752.85 59.21 760.66 61.07 761.9 62.15 768.21 63.48 770.57 66.06 770.86 72.89 773.61 72.93 775.12 68.3 778.17 67.58 779.99 68.57 782.63 72.42 786.48 76.9 788.27 80.93 787.48 84.43 782.09 86.55 779.9 86.29 775.56 83.78 772.55 82.7 770.26 82.88 769.27 84.05 769.4 88.6 772.5 96.83 773.58 100.67 774.81 102.82 773.84 104.84 770.69 104.18 763.27 100.42 758.27 97.07 756.82 97.88 757.29 101.82 759.39 104.77 761.18 108.93 761.46 111.29 760.7 115.53 759.24 116.28 755.97 112.9 755 110.53 752.84 108.19 744.64 101.41 741.41 97.47 739.33 96.55 737.37 97.78 734.36 103.33 733.56 108.62 734.2 109.84 736.91 111.22 742.63 112.22 743.58 115.6 741.99 123.2 742.44 130.74 744.04 131.66 749.18 130.77 753.26 128.56 756.04 128.41 758.95 130.29 760.69 133.14 761.23 136.43 760.42 138.6 756.05 143.45 756.35 146.76 760.66 151.68 761.23 157.83 761.11 161.23 761.89 166.32 763.35 171.32 763.29 174.42 760.5 174.9 758.08 173.46 752.31 171.78 750.25 170.51 748.49 167.23 746 166.44 743.38 168.28 740.51 168.31 738.15 169.26 736.83 171.21 737.67 175.75 737.24 183.77 740.34 192.13 738.22 194.03 735.63 192.89 731.33 189.26 727.45 188.42 725.55 188.63 719.37 191.6 718.31 194.14 720.51 197.99 720.79 199.63 718.62 201.55 713.87 201.82 710.35 203.42 708.72 207.63 708.82 210.29 709.97 211.37 715.06 212.43 717.89 215.1 715.93 218.91 711.85 223.06 712.4 227.71 714.39 229.57 715.37 234.4 714.23 240.97 716.21 243.15 718.34 244.18 721.99 243.14 724.63 241.36 726.59 242.12 732.26 248.19 735.29 250.59 742.26 251.44 746.39 250.35 750.92 252.93 756.03 254.2 758.38 255.9 Z"/>
</g>
</svg>