<?xml version="1.0"?>
<svg xmlns="http://www.w3.org/2000/svg" version="1.2" baseProfile="tiny" width="800" height="464" viewBox="0 0 800 464" stroke-linecap="round" stroke-linejoin="round">
<g id="4206702">
<path d="M 799 306.02 791.49 305.5 785.92 307.25 782.33 307.74 779.47 308.65 778.86 309.81 779.8 313.02 778.21 314.62 775.02 315.42 772.51 314.96 769.82 315.3 767.15 316.78 761.5 321.14 757.76 322.98 756.36 325.71 755.2 329.84 754.2 334.57 753 336.58 748.12 341.24 746.74 343.61 747.08 345.47 748.16 346.59 748.64 348.44 748.81 353.16 748.11 355.33 746.89 361.11 746.62 364.35 742.02 364.9 738.28 366.91 737.06 368.01 737.18 371.16 734.24 372.67 727.41 377.57 724.75 380.05 722.7 381.12 717.38 381.57 712.37 384.17 708.24 385.23 706.78 385.99 701.05 390.51 697.93 391.74 700.2 393.14 702.38 396.62 703.19 399.18 703.41 403.39 705.37 407.28 705.88 410.22 705.34 413.8 704.3 417.29 702.32 422.71 702.13 425.2 698.8 424.97 694.01 426.7 691.22 427.27 687.73 427.06 681.58 424.38 677.11 424.95 673.14 426.86 672.54 430.23 670.57 432.91 666.92 434.96 664.48 435.98 661.67 438.52 658.01 446.23 657.62 448.21 658.22 450.4 660.48 454.13 652.34 458.21 647.06 460.04 643.57 460.77 639.15 461.2 636.48 462.23 633.14 462.89 627.24 463 625.12 461.74 624.05 458.83 619.81 453.21 618.06 449.15 616.06 441.44 613.28 440.34 608.78 440.51 604.93 439.53 603.01 438.35 597.56 436.82 595.73 436.61 590.57 436.86 586.84 437.29 584.58 436.89 580.93 434.57 578.6 430.58 574.65 428.65 568.51 423.59 563.99 420.83 557.61 417.26 553.57 415.95 550.72 414.22 543.99 411.01 540.3 410.76 536.87 410.86 532.71 409.94 530.22 411.51 529.05 411.44 528.54 409.74 525.39 408.36 521.2 404.74 519.66 403.1 517.65 399.83 513.73 397.69 512.2 397.55 509.17 399.79 503.9 400.71 493.28 401.03 486.4 402.04 484.06 401.8 477.34 399.02 474.15 398.44 469.75 399.96 466.01 400.37 462.55 401.51 460.87 401.67 455.43 400.94 453.29 400.26 450.71 400.5 444.49 399.5 439.99 397.15 438.16 395.18 433.73 394.55 431.5 393.29 428.67 390.28 425.97 382.44 424.04 378.67 419.93 375.18 418.33 371.8 412.57 370.82 402.94 368.09 400.45 367.97 397.23 369.21 395.59 367.43 395.21 364.91 393.96 363.2 391.63 362.11 388.95 362.5 386.79 364.18 384.5 365.26 381.55 365.62 377.42 366.78 375.96 367.71 375.65 370.61 374.45 372.91 369.09 375.61 365.65 377.92 359.7 381.35 358.58 383.91 358.63 386.38 357.06 386.34 353.02 383.42 351.28 383 347.9 382.86 343.31 383.53 339.03 385.8 337.23 386.26 333.94 387.9 331.6 390.5 330.66 393.12 329.13 394.43 325.1 394.19 322.15 392.2 320.71 391.84 311.86 391.72 309.67 390.38 305.94 387.19 301.42 384.21 297.94 383.52 295.96 384.61 292.85 387.83 290.01 389.44 287.73 390.16 277.5 389.88 271.44 387.17 267.66 382.8 267.34 380.14 272.06 377.72 272.94 373.32 272.65 369.86 273.63 366.68 273.03 365.11 271.33 363.05 267.15 359.32 264.54 358.73 263.45 359.11 259.83 357.82 257.32 355.78 252.85 352.66 251.65 350.44 251.83 347.43 253.01 343.94 251.5 341.7 248.58 340.25 245.79 336.83 242.67 334.62 241.45 335.14 239.34 333.41 238.13 333.62 237.14 332.25 235.28 331.38 232.35 332.22 231.74 330.95 227.23 330.98 225.87 331.99 218.6 334.55 215.72 337.05 213.76 339.86 211.87 341.66 210.7 341.88 203.7 346.7 200.52 347.84 199.07 349.48 197.37 353.57 196.76 357.05 197.21 358.48 198.96 360.18 200.57 362.63 200.37 369.09 198.18 371.9 197.68 375.43 198.97 378.56 198.56 379.64 196.64 380.76 194.26 380.93 191.02 379.6 191.12 376.34 189.49 374.23 186.84 372.42 177.9 370.52 174.59 369.14 166.6 366.66 163.47 367.31 159.75 369.45 154.67 370.55 152.56 370.66 146.94 368.66 136.31 372.27 130.67 374.42 127.84 373.42 124.24 370.12 120.97 369.66 114.19 370.61 109.48 371.56 100.84 374.63 95.69 374.94 89.84 376.1 83.69 376.34 76.19 378.1 71.43 378.61 64.67 378.6 62.81 379.54 60.11 382.55 57.56 387.83 54.01 389.83 52.04 390.19 44.17 390.35 39.63 391.66 37.55 393.07 34.64 400.68 34.21 403.45 34.38 405.61 30.36 399.44 27.41 394.62 24.13 392.56 19.32 390.57 12.28 387.93 8.91 387.09 7.11 386.17 2.66 382.42 1.73 381.05 1 378.19 1.06 374.72 2.44 371.03 4.65 368.36 10.36 363.09 15.16 359.77 21.29 356.29 26.28 352.36 28.47 349.95 29.49 347.99 31.6 338.35 31.09 333.23 30.15 330.42 29.95 328.42 30.54 324.42 29.65 319.64 28.47 316.19 26.31 311.55 24.15 308.1 20 302.38 18.87 300.2 15.5 291.87 14.83 281.5 15.51 277.7 18.09 274.04 21.3 270.52 24.16 268.92 26.9 268.74 29.09 269.06 41.16 272.1 45.73 274.37 50.08 277.74 60.66 282.25 65.29 283.58 68.4 284.1 71.41 284.98 74.39 286.29 78.77 289.61 80.27 290.25 83.4 290.44 87.3 289.67 90.67 287.93 96.36 282.81 97.43 281.17 98.61 277.97 99.56 268.75 99.21 263.52 97.51 258.72 96.17 256.13 95.4 252.94 95.64 249 96.44 247.46 98.21 245.51 99.83 244.59 105.44 242.32 109.13 240.46 111.96 238.69 113.88 236.13 114.51 230.84 115.47 227.27 115.65 220.94 117.98 212.91 118.84 206.5 118.86 201.78 119.52 196.26 119.02 190.74 120.39 187.11 122.09 184.47 125.54 181.43 132.39 174.38 135.04 172.23 139.59 169.69 145.77 166.73 147.19 165.79 151.41 160.63 154.1 158.68 156.35 157.73 159.56 157.22 164.84 157.58 169.53 157.19 179.14 155.87 182.04 155.09 183.48 154.27 185.31 151.59 186.09 149.02 185.95 144.79 184.77 139.45 180.79 128.43 179.78 125.05 179.36 122.36 179.58 114.21 180.93 107.77 182.53 102.72 185.68 97.66 186.77 95.43 189.97 90.6 192.36 83.7 195.18 78.09 196.43 74.77 197.69 67.49 198.41 65.57 199.96 63.42 201.21 62.62 204.45 62.17 206.96 62.43 216.07 64.77 225.06 67.52 228.73 67.86 235.39 67.32 239.64 66.22 251.38 61.5 258.13 58.96 263.99 56.5 267.27 55.36 272.73 54.72 276.84 54.82 285.57 56.05 288.87 57.36 297.06 62.45 299.99 63.59 303.31 63.78 306.36 62.86 311.98 59.98 315.9 57.59 319.14 54.54 322.18 51.05 323.94 46.79 325.26 41.61 326.52 31.67 326.82 23.8 327.82 20.38 330.39 16.59 333.41 13.31 335.94 11.74 338.98 10.24 345.23 8.76 352.01 6.15 357.59 3.12 360.83 1.65 363.05 1.09 366.42 1 370.91 1.54 373.73 2.25 378.58 4.44 383.99 8.8 388.19 13.91 395.48 19.07 398.55 20.42 402.34 20.65 404.11 21.43 407.34 24.71 406.43 26.44 406.75 28.04 406.11 33.12 406.47 34.97 405.36 37.98 406.57 39.56 407.64 39.59 411.26 38.2 414.4 37.56 414.63 39.85 413.48 43.84 412.18 45.69 410.95 45.69 409.73 48.03 410.49 50.57 412.86 53.97 413.77 55.81 416.39 58.06 418 59.97 418.1 61.57 419.44 63.22 422.35 65.48 424.26 67.43 426.99 67.45 428.85 68.03 430.32 69.17 433.73 70.29 438.88 71.59 441.95 71.38 445.64 72.84 450.68 75.5 451.74 77.38 453.18 78.73 457.6 80.68 462.28 85.28 463.46 87.63 463.93 89.74 463.77 92.86 466.43 98.77 467.47 99.74 467.22 101.01 506.92 101.63 507.12 116.37 518.36 116.08 546.73 115.23 566.08 139.97 597 139.11 598.58 174.85 799 306.02 Z"/>
</g>
</svg>