<?xml version="1.0"?>
<svg xmlns="http://www.w3.org/2000/svg" version="1.2" baseProfile="tiny" width="800" height="689" viewBox="0 0 800 689" stroke-linecap="round" stroke-linejoin="round">
<g id="4206306">
<path d="M 775.61 28.8 775.51 32.22 777.11 40.11 777.29 44.27 776.37 46.38 776.88 49.25 779.59 50.92 784.28 51.81 785.63 53.2 786.73 58.98 787.66 61.5 792.45 66.81 793.71 72.73 794.05 77.56 798.62 84.08 799 86.61 797.45 89.03 794.54 91.62 787.87 94.63 781.93 95.61 778.6 97.56 778.28 99.04 780.3 100.61 781.79 106.35 781.76 107.87 777.03 108.4 775.68 109.53 775.57 111.31 776.56 115.72 775.6 117.04 771.46 120.2 770.49 122.62 769.34 122.56 766.48 120.24 761.78 120.73 759.1 122.45 758.07 125.09 758.19 129.63 757.5 132.42 760.08 132.61 762.73 136.97 763.9 142.58 765.06 144.04 768.66 146.85 771.18 149.9 771.61 152.27 770.44 154.49 766.71 155.62 764.45 154.51 761.57 154.23 757.45 155.18 755.33 156.43 749.72 162.62 747.33 164.05 742.64 169.24 741.73 171.91 737.63 174.63 734.55 175.3 731.6 178.16 727.41 179.23 724.38 180.47 720.68 181.19 719.58 183.94 716.6 186.5 715.3 188.84 716.42 194.2 715.17 196.58 716.23 200.17 716.91 204.41 716.28 208.07 712.96 212.25 711.45 215.02 711.65 216.79 714.08 221.74 714.58 225.35 718.95 228.15 721 231.75 724.34 233.81 727.21 234.45 730.17 235.82 732.87 239.11 733.03 240.25 727.51 242.28 721.64 242.9 720.42 245.48 714.9 248.56 713.5 248.87 712.85 250.98 710.9 252.24 710.82 255.47 709.13 257.51 711.2 262.25 714.31 265.13 715.06 266.98 713.48 273.76 713.92 276.3 715.97 279.3 716.79 282.83 717.83 284.43 717.75 287.55 718.72 288.14 717.12 291.01 715.8 291.2 716.03 293.4 696.92 327.78 693.19 330.84 690.42 331.22 689.52 332.52 689.45 334.99 687.02 340.76 684.54 344.35 678.92 346.85 671.36 348.16 664.3 348.04 658.33 349.06 656.32 351.24 648.49 356.35 645.12 360.49 636.52 365.96 630.31 370.59 623.77 372.87 620.95 372.97 617.98 374.82 613.79 380.91 607.31 385.01 604.64 387.81 604.62 390.66 606.46 394.96 609.08 399.33 609.05 402.19 606.77 406.3 608.53 411.56 610.8 413.71 611.55 415.29 612.57 421.98 612.52 424.77 614.2 428.22 613.93 431.95 617.36 436.16 616.05 438.58 617 444.49 617.02 447.04 613.17 449.83 611.67 449.54 611.11 451.4 612.38 453.17 613.34 456.46 613.7 459.76 617.87 461.36 618.52 464.21 620.3 466.86 615.73 467.59 614.03 468.98 614.17 470.81 615.45 472.4 618.95 475.09 618.65 476.73 614.71 477.04 610.4 476.32 608.82 474.66 610.46 471.05 609.65 469.13 607.64 469 601.63 470.11 599.12 469.91 597.55 468.2 597.54 466.88 600.49 462.09 599.73 459.5 593.19 454.35 591.9 450.8 589.48 450.94 582.58 456.15 577.86 461.31 575.53 463.38 571.82 465.52 571.69 467.22 573.13 470.27 573.89 473.51 571.21 475.34 567.33 476.61 562.09 476.89 558.79 476.67 555.4 474.96 550.55 473.87 543.38 475.02 539.28 476.3 534.37 481.25 532.22 482 527.8 481.27 523.03 477.33 521.17 474.5 520.13 470.96 518.96 469.22 514.4 465.54 513.09 465.16 507.58 467.84 500.96 468.51 493.67 466.46 493.6 463.74 492.37 462.87 487.47 462.6 485.02 461.84 481.65 461.81 479.64 462.38 476.01 465.49 473.23 469.45 470.11 470.7 469.1 472.23 467.41 472.66 463.55 470.68 459.9 469.93 457.07 468.78 454.28 468.74 450.4 469.55 446.56 470.93 446.31 472.79 447.24 478.04 448.23 479.06 451.66 480.13 455.74 480.82 460.2 482.58 465.37 485.26 467.05 487.19 473.38 491.96 471.54 494.27 469.27 495.43 468.26 500.98 466.57 504.46 464.93 506.14 461.78 510.71 457.87 512.98 453.7 512.91 451.87 512.11 451.8 510.56 453.41 506.94 452.24 504.72 450.87 504.48 447.13 505.49 442.94 505.33 440.61 506.77 439.39 508.31 439.65 510.41 441.36 513.18 445.82 516.48 453.11 519.67 453.66 521.91 453.07 523.76 450.94 526.26 445.54 527.45 442.58 529.74 442.67 531.43 444.4 532.89 447.75 534.56 453.48 534 456.16 536.38 460.81 542.91 461.87 546.99 462.68 550.37 461.65 554.61 462.34 555.83 465.24 557.61 470.08 559.74 473.32 563.2 476.13 563.48 480.33 562.49 482.31 562.76 486.78 566.06 491.6 564.81 494.81 566.05 492.71 572.8 492.78 577.26 488.99 580.89 486.04 581.6 484.77 581.04 484.12 577.89 481.85 576.94 479.81 577.21 475.66 584.3 474.24 586.19 471.27 588.03 465.05 586.71 460.13 586.89 453.18 586.41 446.4 583.29 442.26 585.06 439.13 583.77 438 581.93 435.73 581.5 434.34 582.71 433.19 591.87 436.39 599.23 435.05 601.48 431.23 602.79 428.47 606.42 428.82 608.44 431.82 610.01 433.7 611.85 433.43 616.68 432.26 621.29 431.26 623.63 429.41 626.11 425.25 630.52 418.85 631.32 417.24 632.11 416.09 634.24 415.81 636.67 415.88 642.88 414.61 648.59 415.37 655.12 414.53 658.28 412.86 660.36 410.71 661.72 410.29 662.98 411.6 664.69 416.05 665.07 419.7 665.8 423.57 668.75 426.57 672.29 428.33 677.18 428.81 682.75 427.25 685.54 424.66 688 385.28 640.21 384.38 638.94 381.9 637.86 379.43 637.67 377.77 634.69 377.17 628.99 379.68 626.07 380.8 623.69 380.83 621.77 377.41 619.71 373.86 619.15 372.31 618.35 369.96 615.67 369.49 610.58 366.87 606.33 364.62 601.5 362.39 594.35 360.83 592.01 357.2 589 356.26 585.3 353.15 582.8 346.92 581.46 342.84 578.63 339.68 577.63 335.43 578.48 333.34 578.14 328.5 575.15 324.85 574.84 322.23 573.87 319.46 571.15 314.09 569.91 309.5 571.02 304.89 569.94 300.37 564.2 299.93 559.67 298.58 559.53 296.01 567.41 294.98 569.24 292.57 570.96 289.1 571.6 284.9 570.37 283.92 571.24 280.41 577.03 278.58 578.64 276.66 579.03 271.92 578.76 267.46 579.16 262.16 576.34 260.69 575.2 258.75 571.73 255.7 571.29 252 572.37 247.06 572.3 244.31 573.38 240.52 576.75 238.88 576.99 236.34 576.09 235.11 576.52 233.35 580.75 228.28 583.96 223.51 584.53 219.67 583 213.5 582.27 207.43 578.63 205.77 576.72 201.33 573.44 199.61 571.71 195.62 570.95 192.63 570.94 188.51 569.41 182.51 569.54 179.19 566.96 172.63 562.57 167.15 559.76 166.05 557.91 162.91 554.48 162.32 552.28 163.01 549.93 162.74 547.08 163.76 543.95 163.23 540.79 162.14 539.37 157.82 536.62 153.68 534.67 149.53 530.24 150.06 527.32 152.33 521.44 153.35 515.05 152.15 503.45 150.57 496.07 149.48 486.92 149.09 480.69 148.2 474.16 146.39 470.72 144.99 464.96 144.21 459.12 143.28 457.62 138.89 452.69 136.42 449.06 134.38 447.68 130.69 446.55 120.19 446.04 113.85 447.14 109.97 448.38 105.88 450.33 99.79 451.49 97.16 451.53 94.2 450.29 91.52 448.41 87.12 446.67 83.97 447.61 80.26 450.78 76.09 452.05 68.97 457.15 67.44 457.91 63.63 458.21 57.14 457.2 54.32 457.37 47.36 456.19 43.11 455.06 40.61 454.99 36.98 456.08 33.92 457.98 31.95 455.6 28.39 454.04 22.3 454.68 16.96 456.28 11.79 457.06 8.11 455.35 5.69 455.19 3.03 454.11 1 452.09 1.63 450.02 5.46 446.21 6.35 444.32 6.82 440.37 5.91 438.5 5.27 428.48 3.29 425.32 7.45 424.53 10.2 421.29 14.57 419.91 19.81 418.86 21.08 415.64 19.61 411.13 19.11 407.53 23.36 403.78 28.44 401.69 30.13 399.4 29.89 393.47 34.76 390.85 37.64 389.77 38.14 388.1 40.37 385.65 46.8 386.69 50.16 387.89 51.82 391.36 57.11 392.19 64.12 390.25 68.71 390.16 72.41 391.74 76.41 392.6 79.42 394.68 83.12 394.82 88.18 392.14 93.72 389.68 96.17 387.03 99.81 384.91 101.66 386.06 104.71 386.23 109.28 384.57 111.22 380.75 113.18 379.62 119.07 378.87 124.43 378.87 126.35 376.97 131.9 369.7 132.3 365.15 133.43 362.62 137.26 358.96 138.93 359.22 143.57 363.1 145.7 362.84 150.34 364.17 152.25 365.45 154.5 364.92 158.06 365.94 164.29 362.59 167.57 361.71 170.56 362.49 171.78 363.47 173.98 367.14 176.01 367.34 178.99 369.71 181.15 374.48 184.28 377.49 191.32 380.57 196.13 383.31 198.47 385.4 202.57 386.87 207.79 385.31 213.73 384.64 217.59 381.88 220.63 381.67 225.81 382.33 228.46 382.31 230.95 379.12 234.93 375.6 237.28 374.17 239.35 371.98 241.72 366.73 245.82 364.78 248.69 359.66 250.65 355.41 257.98 351.8 263.17 346.42 269.32 342.5 273.13 340.68 276.4 339.75 276.33 336.76 276.92 334.86 272.89 329.54 270.71 327.43 269.83 324.84 271.57 323.6 272.2 320.77 269.88 316.49 271.97 314.83 273.1 311.95 275.7 309.17 278.07 308.34 280.71 308.19 283.68 306.86 287.66 306.42 290.74 305.48 293.33 301.95 297.58 301.93 298.92 300.93 299.84 297.75 302.63 299.81 305.91 298.09 306.51 295.39 308.54 292.91 308.36 289.58 309.71 287.68 310.18 281.13 308.26 272.26 308.6 270.09 310.45 266.98 309.07 264.89 304.59 264.48 303.14 265.1 300.42 263.33 299.24 261.42 298.88 258.47 299.29 254.14 294.45 249.43 296.74 246.34 300.26 242.93 302.67 241.88 304.14 240.31 304.41 235.68 303.25 234.18 303.53 223.5 302.98 217.82 303.19 214.15 303.91 212.75 302.62 210.4 298.49 207.74 298.13 206.56 300.8 203.1 300.06 196.65 297.15 192.36 299.21 182.61 302.57 179.82 310.04 176.38 313.63 173.24 314.62 171.3 316.88 169.16 317.54 167.07 316.4 164 313.92 160.62 312.72 157.94 310.83 156.37 312.89 148.33 315.33 145.01 317.33 143.1 319.82 141.75 321.63 139.67 324.98 134.07 327.06 132.78 334.68 132.47 345.87 126.62 351.36 123.47 352.48 120.08 355.01 117.29 356.24 111.59 356.14 109.37 357.04 106.42 360.88 102.74 362.86 101.42 364.55 99.06 367.73 97.17 369.55 94.86 373.26 91.66 376.14 87.92 377.26 88.24 378.11 93.81 379.1 97.48 382.37 100.2 383.62 102.03 385.9 103.23 388.7 103.76 396.44 103.16 404.05 105.71 409.55 106.32 417.53 105.82 426.13 106.51 428.8 107.14 431.32 109.05 437.4 108.81 438.86 109.45 443.28 114.06 444.64 114.18 449.9 109.3 452.98 106 453.99 103.43 453.65 98.61 454.12 97.4 456.91 95.67 461.05 95.02 464.25 93.9 467.53 90.95 470.03 86.49 471.4 82.88 474.08 78.54 477.03 75.61 479.48 73.96 484.89 71.86 489.84 68.49 492.07 67.55 496.37 69.06 501.8 68.22 504.86 68.96 507.09 67.4 509.95 61.9 513.78 58.71 518.24 56.01 522.66 54.34 525.98 53.57 530.31 51.44 533.63 51.53 540.25 53.85 546.92 57.32 550.46 58.35 552.14 60.17 555.26 61.53 560.34 64.34 566.95 65.08 571.03 65.96 573.6 64.78 577.16 61 577.3 57.39 578.22 52.36 580.88 47.51 580.96 45.83 579.82 42.19 584.02 38.57 586.66 37.08 589.35 34.76 595.74 34.81 599.48 32.49 603.01 32.53 608.47 30.39 612.3 31.55 615.91 28.29 621.35 29.67 628.68 33.12 633.43 29.43 636.44 27.87 639.65 27.47 642.81 27.93 649.75 24.59 652.03 23.1 654.09 20.38 657.64 17.53 659.28 13.82 663.52 8.71 665.46 7.14 671.74 1 672.75 1.78 674.57 8.79 682.31 9.45 686.83 10.51 689.93 10.54 692.96 11.94 695.64 13.88 699.82 15.67 702.47 17.44 706.95 18.9 711.2 20.8 716.87 21.26 720.72 22.16 726.14 24.86 730.12 28.34 734.61 31.24 737.77 31.43 742.77 29.66 750.01 28.1 755.04 26.22 757.94 25.49 766.21 24.85 769.82 25.7 773.5 28.11 775.61 28.8 Z"/>
</g>
</svg>