<?xml version="1.0"?>
<svg xmlns="http://www.w3.org/2000/svg" version="1.2" baseProfile="tiny" width="800" height="389" viewBox="0 0 800 389" stroke-linecap="round" stroke-linejoin="round">
<g id="4206405">
<path d="M 687.96 117.51 686.18 117.83 684.54 118.66 681.84 120.82 679.72 123.55 679.03 124.93 678.92 127.92 679.25 128.78 681.15 130.27 683.93 130.97 687.19 131.47 691.78 131.66 698.37 131.15 701.3 130.54 702.95 131.22 703.7 132.42 703.58 135.03 702.76 136.5 700.36 139.14 693.9 145.69 689.52 148.95 687.17 150.34 685.88 151.76 685.62 152.99 687.37 159.23 688.27 161.12 689.98 162.22 693.05 163.24 695.29 163.48 699.8 163.12 702.95 161.83 707.25 159.05 710.75 156.29 712.93 154.82 713.97 154.59 715.46 155.42 718.6 156.36 720.85 157.72 722.46 159.69 726.73 165.53 729.81 168.44 731.11 170.7 732.96 172.94 734.67 174.29 738.05 175.21 744.21 175.89 744.87 176.17 751.26 180.26 752.35 181.51 753.18 183.45 753.41 185.09 752.84 187.14 750.61 188.78 748.33 189.53 742.74 190.79 737.19 191.84 735.76 192.24 734.29 193.18 731.76 196.11 727.9 204.04 726.44 205.64 723.21 207.79 720.94 208.59 718.41 209.15 713.74 209.61 712 209.55 709.97 208.82 705.11 205.94 700.12 201.94 696.97 200.24 696.03 200.08 694.23 201.31 694.34 203.03 695.51 207.17 696.96 209.93 698.51 212.11 702.07 214.82 703.72 215.5 705.73 215.69 708.27 215.33 710.15 214.6 712.58 214.71 715.38 217.29 716.95 219.18 718.76 220.02 720.91 221.91 728.2 224.98 730.24 225 732.38 223.66 733.43 222.54 734.27 220.65 735.63 212.79 736.91 207.73 739.48 206.28 741.68 205.32 747.15 203.97 750.92 202.59 752.08 201.71 755.54 201.06 759.23 202.38 761.38 205.24 762.85 210.19 763.59 213.98 763.63 215.92 763.01 217.6 761.01 218.92 758.88 220.85 755.91 224.52 750.3 228.93 749.73 231.19 749.76 234.58 749.53 243.37 748.8 245.59 747.06 249.46 744.92 253.16 743.74 255.95 740.96 260.73 740.29 263.15 741.25 264.75 743.15 266.8 748 268.82 750.87 270.63 753.46 272.78 758.22 277.12 760.2 277.32 760.87 274.62 760.42 273.05 759.63 265.74 759.24 261.14 759.48 258.28 764.43 254.6 770.18 251.59 770.96 251.43 772.98 251.42 776.59 251.94 780.87 253.57 784.38 254.45 786.58 255.27 797.82 258.61 799 259.83 798.74 260.45 796.02 262.06 793.02 262.95 789.54 264.36 787.51 265.52 785.19 269.1 783.67 272.39 782.92 274.59 781.23 278.25 777.02 280.64 769.97 283.99 763.57 286.47 759.31 288.75 753.42 292.19 752.2 293.7 752.64 296.46 754.13 299.72 755.68 302.07 757.82 304.62 760.72 307.22 730.62 309.73 715.87 310.3 718.4 314.58 717.81 316.64 716.63 318.51 716.06 320.14 714.86 322 714.77 324.85 715.25 326.48 698.28 328.83 679.58 339.74 677.17 337.25 674.23 335.32 651.06 356.16 643.62 349.16 600.14 388 584.39 373.84 545.8 376.2 543.89 374.65 543.09 373.57 541.75 373.06 541.07 372.2 536.72 371.39 535.77 370.03 534.59 369.61 531.36 369.69 527.55 368.88 526.48 367.96 524.19 367.4 522.95 367.45 520.67 366.75 519.43 366.92 517.45 365.27 515.31 364.48 514.5 363.13 513.06 363.34 509.88 362.25 509.05 361.56 503.43 359.49 500.96 357.92 499.81 356.63 495.59 356.93 493.04 356.55 492.22 358.07 487.75 356.78 485.34 357.4 482.85 356.74 478.35 354.84 475.81 355.03 474.73 354.55 469.59 353.24 468.56 354.04 467.89 355.67 466.27 356.76 465.45 356.42 463.25 353.89 461.45 352.72 460.36 352.47 459.52 353.11 456.92 353.55 455.99 354.19 454.26 356.52 452.31 356.32 449.41 357.21 447.23 356.09 444.94 356.56 442.61 355.98 441.01 355.95 433.39 369.92 429.58 368.19 419.5 378.21 418.35 377.94 413.18 377.6 411.53 376.66 410.16 376.73 407.95 374.19 406.4 373.81 403.74 374.1 402.37 373.55 401.47 372.37 398.73 371.49 396.04 369.53 395.23 369.57 391.45 368.16 389.13 367.52 388.38 366.76 385.8 365.63 381.05 364.15 379.81 365.22 379.95 366.78 382.95 369.33 383.51 370.16 383.41 371.44 381.94 372.74 380.5 372.67 378.64 371.48 377.08 369.87 375.23 368.72 373.8 368.58 371.45 368.91 370 369.43 368.05 371.46 368.52 373.12 370.89 378.41 366.74 379.3 362.54 378.75 359.35 377.72 358.28 376.35 356.38 374.8 355.25 374.28 353.74 374.39 352.44 375.95 351.71 381.84 349.55 384.18 348.59 385.18 347.47 385.42 346.33 384.5 343.85 381.16 340.42 376.1 339.16 376.46 338.11 377.65 337.09 381.51 335.05 383.62 333.6 384.52 330.15 384.25 326.81 385.11 325.98 384.39 322.7 382.61 320.86 380.24 320.71 379.28 321.7 377.96 323.7 377.03 308.56 356.46 312.16 347.84 268.96 313.17 273.41 289.11 289.46 279.13 286.01 277.61 284.6 277.72 281.41 275.93 279.78 275.63 277.62 277.32 276.29 279.52 274.37 279.77 272.32 276.26 270.28 273.68 269.68 272.55 238.15 253.49 265.54 222.64 242.56 208.02 229.43 200.97 216.88 219.83 174.87 198 163.47 192.21 161.27 192.84 160.67 193.47 157.56 194.71 154.16 194.6 153.08 195.32 150.86 195.69 149.66 195.45 146.15 192.41 144.13 191.26 142.34 191.39 141.43 192.54 140.17 192.17 139.19 191.18 138.21 191.05 137.92 192.56 137.05 194.03 135.68 194.83 133.7 197.63 132.18 198.82 132.14 200.39 131.25 201.18 131.23 204.28 133.06 207.11 133.25 208.59 132.58 210.99 130.5 211.52 127.24 210.47 125.14 208.83 122.31 206.17 119.6 205.55 117.88 204.47 116.26 202.89 115.47 201.63 112.26 200.42 108.58 198.71 106.19 197.38 103.93 196.49 103.14 196.93 102.82 198.94 100.75 201.29 101.24 202.09 103.98 202.67 103.57 203.92 104.13 205 105.63 205.46 104.87 207.42 103.1 208.63 103.03 209.94 104.43 211.94 104.41 212.96 103.61 214.27 102.4 214.73 103.04 216.07 106.59 216.09 109.68 219.44 109.93 220.38 107.65 221.19 107 222.84 105.69 223.81 102.1 222.33 99.82 220.4 98.63 220.2 93.97 220.53 90.64 220.21 88.31 219.14 87.08 220.74 87.66 222.25 89.1 223.37 90.45 224.99 91.19 226.48 89.92 228.21 88.36 227.54 86.06 224.14 82.41 223.73 81.48 222.45 80.18 222.5 78.7 224.32 77.51 227.89 76.65 231.09 75.28 232.65 73.52 232.78 71.56 232.04 70 233.19 72.37 233.91 73.31 234.62 76.02 238.32 76.87 238.95 77.98 238.67 79.15 236.18 80 232.8 80.59 231.56 82.59 230.85 84.52 231.49 88.08 234.75 91.12 237.77 94.19 238.47 94.69 239.47 93.77 240.35 91.48 241.61 89.84 241.84 86.29 241.51 83.09 240.75 81.67 239.69 78.15 240.2 76.27 242.98 75.36 246.06 75.17 248.85 76.45 251.56 79.06 253.63 79.82 255.06 78.63 256.87 75.76 259.69 74.9 259.51 73.24 258.15 69.57 255.97 69.63 253.15 69.41 249.05 68.43 248.29 65.89 247.62 60.72 243.51 58.75 245.14 58.92 247.45 60.1 250.29 59.24 251.47 56.99 252.58 54.79 252.81 52.09 252.15 51.04 250.74 50.45 249.17 50.26 246.08 52.72 242.58 54.05 239.17 53.91 236.21 53.04 235.55 50.23 235.17 47.57 235.57 45.71 236.54 45.41 239.31 44.59 242.04 43.81 243.31 40.37 246.39 39.59 247.86 39.89 251.15 38.94 251.86 35.61 250.25 34.46 249.46 30.95 245.47 29.9 245.67 29.05 244.6 29.27 242.6 30.64 239.22 32.37 236.62 33.27 232.96 33.69 228.17 32.1 222.92 29.11 219.1 26.25 215.76 22.74 211.35 23.97 209.52 26.3 208.48 28.76 209.62 35.28 214.9 38.55 217.89 41.86 218.41 42.56 216.61 43.08 213.74 42.5 208.47 42.6 204.51 44.08 202.73 49.24 197.12 49.44 194.46 49.02 190.65 49.56 183.61 50.76 175.13 51.36 172.64 51.45 169.31 49.33 163.08 48.88 160.42 47.16 153.73 49.08 151.37 51.49 150.25 60.39 151.16 66.2 151.58 70.89 153.27 77.03 153 80.77 152.57 83.39 150.16 84.03 146.88 83.4 144.4 82.18 141.56 80.03 139.37 76.85 137.7 70.38 137.65 54.93 141.87 49.75 143.52 48.03 145.57 45.61 149.27 42.31 152.31 39.14 154.62 34.67 156.53 32.11 158.41 27.96 160.41 25.09 162.07 20.85 163.35 17.86 163.61 15.04 162.55 13.3 160.04 11.88 156.91 12.3 154.62 13.23 152.63 14.64 146.1 15.76 144.44 18.13 142.86 21.56 142.47 25.83 143.27 29.85 145.32 33.38 146.34 37.44 146.89 40.5 145.01 42.21 141.73 42.41 138.73 41.11 131.8 39.68 127.38 38.86 124.03 35.49 121.23 31.11 119.98 26.29 119.49 20.43 119.04 12.17 118.11 8.75 117.94 4.5 115.73 1.72 113.97 1.16 110.88 1 108.08 2.68 106.73 6.95 104.22 13.79 101.07 16.46 99.37 23.79 95.5 26.02 94.7 28.59 95.07 32.66 97.71 39.14 102.93 43.02 104 46.12 103.68 49.69 101.64 51.68 99.11 52.97 96.29 53.17 93.77 52.63 92.03 54.14 90.24 54.64 86.8 55.39 85.31 57.06 84.33 58.2 86.06 59.13 93.1 58.42 95.36 57.36 96.79 57.55 98.69 59.67 98.6 63.63 96.42 66.07 96.11 67.77 96.53 70.72 97.93 71.77 99.04 75.71 106.11 77.92 108.92 80.8 110.45 83.69 111.33 85.49 111.21 86.95 110.63 87.71 109.38 88.19 106.02 88.08 104.65 87.08 102.86 85.18 101.08 77.75 96.7 74.43 94.42 72.17 91.98 71.38 90.28 70.64 86.32 70.57 83.51 68.46 76.97 68.44 74.46 69.63 72.53 72.24 69.29 72.39 65.87 72.92 62.76 73.77 60.08 74.58 59.31 76.16 59.18 78.06 60.1 81.04 62.38 82.62 64.44 82.4 65.54 80.92 66.92 78.69 68.33 77.08 69.88 77.88 71.5 79.86 72.73 84.63 75.07 85.53 76.19 86.48 79.38 87.36 83.21 88.71 86.85 88.57 87.82 90.52 88.94 92.56 89.04 93.96 88.14 94.46 86.91 94.94 83.28 94.77 82.72 89.77 79.17 89.21 77.63 89.71 75.15 91.05 72.69 92.27 72.45 96.57 73.49 98.74 73.25 100.78 72.24 101.33 71.56 101.48 67.01 101.26 65.36 101.33 62.39 101.12 58.12 100.62 55.63 98.4 54.25 94.45 53.44 92.82 52.36 88.62 51.04 87.15 50.1 86.4 48.03 87.75 43.22 87.21 40.92 83.95 36.94 83.55 35.76 84.01 34.15 85.4 32.58 87.93 31.41 91.34 30.5 94.63 29.23 95.69 29.13 100.84 29.58 103.4 29.11 106.14 29.29 108.25 30.26 109.22 31.07 110.28 32.74 109.89 36.32 110.5 42.12 110.27 45.01 110.32 48.45 111 49.77 113.69 48.8 115.08 44.86 115.88 43.92 118.81 43.02 123.12 41.08 123.68 40.49 123.01 38.97 118.72 35.14 117.1 32.69 116.74 31.23 117.17 29.61 118.54 29.61 119.89 30.46 125.09 32.23 127.91 32.73 130.6 32.27 134.42 30.31 134.66 28.74 132.65 27.79 126.67 27.05 125.93 25.8 127.29 22.74 127.54 19.89 127.37 18.79 126.18 16.93 125.76 13.6 125.99 12.02 128.44 7.74 129.6 2.63 130.87 1.58 132.86 1 137.02 1.83 140.63 1.52 147.24 2.21 148.32 3.23 147.39 4.88 143.38 7.43 142.92 8.92 144.07 12.72 145.71 13.54 151.53 14.98 155.77 15.12 158.04 16.24 160.63 19.76 162.31 22.91 163.24 25.23 165.17 27.81 166.43 28.32 169.98 26.35 172.57 24.05 173.97 21.92 174.44 20.17 175.49 18.63 175.36 16.17 173.51 14.28 171.08 12.99 172.03 11.57 173.09 11.88 176.46 13.72 178.52 13.85 179.68 15.88 183 17.88 185.7 21.27 188.72 23.28 189.7 25.58 192.27 26.73 195.26 27.41 198.53 26.89 201.19 27.35 202.11 28.86 205.83 31.35 208.39 31.49 208.85 33.12 211.56 33.85 211.84 32.83 213.36 33.34 214.94 33.24 215.7 32 216.89 31.81 217.83 32.63 220.47 32.99 224.34 34.7 225.83 34.8 227.81 34.41 229.05 35.12 229.57 36.42 231.34 36.14 232.6 36.8 234.93 37.15 236.4 36.89 236.69 37.96 239.28 38.52 242.55 39.65 245.22 40.1 248.36 40.98 250.47 41 252.55 39.49 254.91 40.2 256.92 63.64 299.49 60.91 302.49 55.73 304.36 51.84 327.06 49.07 326.89 44.84 326.58 44.05 326.78 42.16 326.28 40.02 390.91 38.17 390.96 44.2 394.18 48.99 395.32 52.2 394.6 54.26 393.78 54.9 390.44 54.78 388.38 53.9 386.45 52.37 385.29 52.65 384.47 55.14 385.52 57.35 387.2 57.61 389.21 56.99 391.18 57.23 392.73 59.29 393 60.89 392.49 63.44 395.01 65.54 396.35 64.26 398.42 64 399.99 64.67 400.28 63.36 401.8 60.77 402.82 60.02 405.01 59.98 405.95 57.82 406.67 57.69 407.42 59.87 408.87 62.17 411.63 65.03 414.49 67.59 416.5 68.74 418.96 68.1 419.83 69.22 422.28 69.92 422.9 71.09 424.15 71.54 425.74 71.19 427.36 72.48 430.91 72.77 433.33 73.31 434.19 70.04 435.72 68.49 437.88 68.61 439.99 68.3 440.77 68.69 441.35 70.01 446.16 69.73 446.84 70.41 448.25 70.52 449.93 69.8 451.85 70.42 454.01 69.91 453.94 68.39 454.47 67.08 455.62 65.72 456.78 65.15 457.14 64.13 458.48 63.43 458.67 62.45 458.14 60.57 459.2 59.67 461.63 59.37 465.23 58.45 466.41 60.46 471.1 59.73 472.83 58.95 475.58 58.72 477.91 59.89 480.75 58.17 483.91 57.62 485.54 56.1 487.38 56.18 488.91 54.8 489.14 53.2 491.36 52.24 494.51 51.41 495.7 52.54 497.74 52.37 498.79 51.83 502.52 50.97 505.68 51.07 508.37 51.42 511.31 52.76 512.8 52.49 514.06 53.26 515.48 53 518.28 53.87 520.3 54.85 522.85 55.13 524.3 56 525.74 56.22 527.4 54.46 528.78 53.46 545.15 51.91 547.23 49.08 548.76 45.19 602.32 41.49 603.24 51.91 659.26 115.25 690.47 114.06 688.5 116.2 687.96 117.51 Z"/>
</g>
</svg>