<?xml version="1.0"?>
<svg xmlns="http://www.w3.org/2000/svg" version="1.2" baseProfile="tiny" width="800" height="1049" viewBox="0 0 800 1049" stroke-linecap="round" stroke-linejoin="round">
<g id="4206652">
<path d="M 384.46 1019.17 376.27 1017.47 346.05 1012.48 335.22 1010.29 313.76 1006.79 303.82 1005.65 279.89 1001.45 269.65 1000.13 234.9 999.87 227.22 1000.13 218.85 1000.91 213.14 1002.49 206.25 1005.91 197.58 1009.67 191.77 1013.52 185.07 1016.94 179.06 1021.76 169.47 1028.83 161.99 1033.12 155.29 1037.68 148.1 1041.35 140.32 1044.24 131.49 1046.69 120.72 1047.83 110.98 1048 101.82 1046.86 94.24 1044.49 86.66 1041.07 82.03 1037.74 70.52 1026.62 68.16 1019.87 65.99 1008.34 65.21 999.93 65.9 991.26 66.1 982.68 65.71 974.97 66.6 965.95 67 957.19 67.89 947.64 68.19 939.14 70.56 931.89 74.99 923.3 80.8 905.96 85.05 885.91 84.06 875.66 81.12 867.67 77.28 858.47 71.38 850.67 63.22 842.17 55.54 837.35 41.17 832.71 36.64 823.68 39.83 818.92 42.54 813.78 47.81 800.8 51.72 793.9 60.86 785.47 65.56 778.3 65.32 768.93 66.24 766.72 72.93 761.68 81.89 761.23 88.75 762.59 96.69 764.86 104.6 766.1 108.15 765.88 110.11 761.82 107.98 753.39 108.18 749.58 110.8 747.29 116.23 744.2 116.43 742.46 111.79 737.93 103.29 734.35 96.9 730.18 89.12 725.69 86.12 722.52 77.22 716.39 75.38 712.61 76.84 709.14 83.39 702.72 86.54 701.29 90.67 701.38 98.31 702.56 103.25 704.63 107.42 707.56 113.58 710.64 117.02 710.78 118.25 709.33 117.81 699.37 116.46 694.84 116.18 688.52 117.54 684.33 119.87 680.83 119.5 677.73 114.65 672.99 113.66 669.84 116.43 663.85 121.49 657.81 119.69 656.57 114.77 657.12 108.91 653.92 105.27 652.52 97.69 650.85 88.7 659.08 86.4 659.92 83.67 657.51 80.61 651.95 78.23 649.11 75.9 647.83 69.07 646.03 67.01 647.56 69.85 651.59 66.37 655.85 59.48 660.14 54.95 658.46 51.9 653.78 44.49 651.07 42.88 647.32 42.08 637.41 40.73 633.34 35.02 626.26 32.25 624.86 30.34 626.74 26.17 627.88 22.14 630.99 17.49 631.75 12.37 626.49 6.02 620.79 3.57 617.49 1 611.4 1.87 607.57 6.52 602.75 10.71 600.94 12 597.43 9.81 593.4 7.61 591.27 6.73 586.45 9.54 582.08 13.44 583.55 18.07 583.46 22.31 587 28.66 588.38 30.92 589.66 34.19 589.87 39.13 591.33 42.08 590.86 39.97 586.89 40.8 584.51 44.09 583.26 48.1 584.54 48.86 580.07 50.81 577.05 49.42 574.54 46.46 575.48 44.17 571.98 37.66 563.91 35.26 558.72 33.72 553.51 35.21 550.29 42.74 551.56 47.51 546.47 47.96 539.73 46.72 537.26 41.79 536.4 37.74 531.25 46.53 520.28 53.53 511.07 56.84 508.05 58.18 508.38 61.66 515.75 66.82 522.12 68.99 522.81 75.06 518.5 78.49 518.55 81.22 516.09 91.66 509.8 96.48 510.8 102.22 515.76 116.47 522.7 122.9 523.64 124.96 523.18 128.21 520.41 128.13 518.54 125.64 516.16 122.51 510.63 123.03 506.22 126.28 505.09 134.24 507.67 137.96 508.04 147.57 505.92 152.72 501.41 154.39 502.62 156.8 501.02 155.3 490.7 150.78 488.84 144.3 484.2 137.13 480.05 136.12 477.81 136.38 469.04 139.64 464.46 141.31 455.49 135.54 448.14 137.38 443.91 135.19 442.44 133.75 437.77 134.06 433.7 131.67 432.06 130.7 427.41 127.66 420.47 133.86 418.02 136.53 417.62 137.33 415.78 138.23 406.01 136.17 398.86 130.1 396.28 129.04 399.89 126.76 398.94 122.82 393.85 120.91 384.77 121.04 379.34 126.83 378.12 127.38 373.41 125.68 368.23 122.48 366.45 120.24 366.83 114.03 366.03 112.08 364.33 117.72 359.17 118.46 355.85 116.42 351.9 115.83 348.98 116.87 343.48 115.45 338.91 116.19 334.74 115.69 326.91 108.19 321.32 104.65 320.97 104.37 318.39 105.95 315.42 105.74 312.86 103.95 308.69 101.62 305.47 94.02 300.22 86.06 294.13 83.23 293.71 76.32 294.43 74.6 292.69 79.41 285.7 81.4 281.87 81.03 276.42 77.66 272.26 78.63 269.49 88.23 268.13 86.23 264.95 86.27 262.97 88.35 261.25 91 256.89 88.8 253.13 90.46 247.37 86.94 241.51 82.47 241.56 81.55 238.67 86.08 238.21 88.06 235.35 88.09 231.95 86.6 229.08 84.94 221.87 85.34 218.98 82.87 213.89 81.64 208.32 77.01 205.65 74.59 201.32 75.99 198.61 82.55 194.3 83.62 190.37 86.22 188.6 89.31 185.02 96.57 179.56 97.52 176.76 102.06 173.77 132.18 185.46 136.09 181.32 139.32 176.39 143.74 173.09 147.46 173.15 155.68 172.07 166.26 169.77 171.81 171.42 174.13 174.49 177 180.33 179.71 181.63 185.48 186.61 185.84 188.07 193.61 189.96 200.66 189.9 211.18 192.69 212.59 195.87 217.15 199.73 220.69 199.43 224.49 200.89 227.99 200.29 232.22 202.51 235.63 206.38 243.48 209.03 247.49 208.61 250.75 209.57 252.59 211.73 257.63 204.8 260.42 206.11 269.59 208.16 272.57 203.75 272.44 199.1 274.2 198.24 278.49 198.45 282.1 193.01 280.57 191.29 282.56 189.66 287.32 191.61 306.5 203.81 336.59 203.58 348.96 206.08 353.83 210.31 361.07 210.85 363.91 212.21 368.94 213.17 372.01 214.69 377.04 218.6 384.63 221.12 388.37 221.75 398.38 221.29 407.89 221.66 412.15 220.82 416.86 220.76 419.72 216.52 424.34 205.51 428.19 200.21 430.14 194.39 432.69 191.61 438.61 193.26 443.61 190.71 444.3 189.01 440.82 182.83 441.28 178.37 445.25 174.31 443.73 169.14 443.8 167 448.64 160.4 449.31 154.64 454.78 147.84 459.32 144.99 464.42 142.93 468.93 138.68 470.49 131.31 470.42 129.27 465.96 128.04 464.36 126.08 464.03 120.78 464.94 115.88 468.4 113.21 473.3 106.99 476.28 106.75 472.55 101.39 472.81 98.57 475.56 99.79 477.81 95.46 477.91 93.03 482.69 81.3 488.18 77.52 488.63 74.73 490.85 71.23 490.49 68.06 492.05 65.34 494.33 64.58 495.15 62.59 493.94 58.86 496.12 54.72 495.12 51.91 498.86 48.37 498.99 45.01 502.55 44.55 504.7 39.47 503.99 35.36 504.14 29.89 503.26 25.54 505.84 23.25 508.87 24.44 513.49 22.01 518.46 18.28 520.02 19.94 524.56 22.25 526.73 22.3 529.25 24.74 534.24 26.81 540.26 27.59 547.64 31.03 555.62 32.82 558.96 32.93 561.52 34.49 567.32 34.59 576.01 29 578.85 29.96 583.81 29.49 592.51 26.3 597.28 22.15 609.24 2.05 614.53 1 619.35 1.71 624.46 5.69 627.01 11.22 629.89 25.12 632.12 29.62 636.34 33.57 644.23 40.12 645.1 41.82 650.08 42.05 652.24 40.92 655.03 41.49 657.83 45.02 660.77 46.08 663.21 48.43 668.01 48.7 671.92 52.65 677.51 55.45 678.47 63.54 680.09 67.87 677.67 81.95 680.27 87.06 687.25 92.26 688.77 97.46 691.36 101.36 693.59 107.98 695.15 110.48 699.25 113.28 699.35 117.84 702.94 120.03 705.66 124.61 706.26 129.17 710.74 133.85 710.84 139.04 709.28 143.32 710.33 145.61 713.08 147.09 716.63 152.76 715.17 159.71 709.07 160.72 707.79 163.52 706.65 169.37 708.57 176.17 707.02 177.78 702.57 177.62 697.98 185 700.15 189.86 701.2 196.6 699.16 197.42 696.22 194.87 696.5 191.97 694.15 191.13 691.94 192.7 686.48 193.15 685.1 195.41 682.82 195.44 680.94 190.75 676.28 187.59 669.32 185.42 667.5 187.5 667.67 191.19 671.57 195.66 669.26 199.75 671.86 204.45 676.48 203.28 674.65 210.48 678.98 214.59 680.71 222.55 679.85 223.88 675.27 226.4 670.72 227.56 669.7 234.33 670.23 239.63 667.67 244.51 665.65 244.14 659.94 246.4 654.68 246.49 651.94 249.27 655.25 251.15 651.85 254.64 655.16 259.98 653.56 261.7 653.18 265.28 651.48 266.87 650.02 270.39 650.36 273.42 646.59 276.38 647 279.1 652.21 284.24 651.61 288.09 653.06 292.06 649.86 297.45 642.85 305.01 641.7 307.87 646.16 306.3 647 307.68 643.6 310.46 645.85 311.93 648.5 308.73 653.44 307.42 655.25 309.34 654.13 314.58 657.72 316.02 658.81 317.71 658.98 323.77 656.19 328.98 652.03 331.26 650.57 327.07 647.98 329.7 653.79 333.46 659.49 332.04 662.38 334.19 665.07 340.38 664.04 346.54 665.18 351.67 670.02 353.27 669.7 356.1 671.69 356.69 672.91 360.39 675.89 364.46 681.18 367.53 680.74 369.85 675.12 370.19 672.62 373.55 675.62 376.28 670.69 377.57 666.94 380.19 663.32 384.01 684.16 393.89 704.36 403.7 791.64 445.44 794.61 446.79 793.14 450.42 788.26 455.29 785.88 455.99 785.47 460.51 790 467.44 791.22 474.44 794.3 476.69 795.49 480.01 794.98 483.82 796.41 487.17 799 486.84 798.04 491.68 794.36 496.94 789.36 502.07 790.24 503.12 789.82 509.02 780.08 514.91 778.93 517.67 779.27 520.94 781.03 525.5 781.02 529.47 780.03 530.93 779.48 535.74 780.65 538.9 777.33 544.12 774.26 546.18 772.17 549.34 772.95 555.07 775.57 558.2 775.72 561.32 765.87 578.43 762.96 581.64 763.12 588.45 759.72 593.78 753.41 597.68 747.5 599.22 745.94 602.22 747.43 604.64 746.5 607.74 748.26 610.75 748.92 614.23 747.08 616.92 749.67 621.07 752.63 622.45 753.95 626.25 753.2 628.47 748.87 632.74 751.63 635.42 750.17 637.12 746.35 636 740.84 637.22 738.81 638.3 735.85 642.4 734.53 647.49 732.13 648.55 727.14 653.65 722.49 656.33 721.3 659.36 714.29 658.99 710.77 661.77 712.34 667 712.46 670.09 710.13 672.94 710.16 677.77 708.17 683.73 709.75 691.66 708.45 697.28 707.88 705.48 711.83 713.39 711.48 716.76 709.58 720.65 709.85 725.03 712.74 730.7 715.55 737.72 716.2 741.15 714.65 743.47 705.91 745.87 702.61 747.22 693.25 754.65 692.6 757.65 696.5 766.85 695.87 770.03 686.56 779.54 683.45 781.38 666.55 782.53 664.6 784.52 665.52 790.56 669.74 796.53 669.61 798.72 665.61 801.51 656.53 800.55 653.58 801.73 651.75 805.03 651.89 807.96 649.42 816.01 644.98 818 637.06 817.55 625.67 818.39 617.67 820.1 611.67 819.89 610.54 814.69 609.03 812.39 605.31 810.87 599.34 812.27 595.85 812.52 593.57 815.76 583.34 821.76 579.06 823.63 574.13 826.81 571.43 830 571.3 832.19 573.99 834.92 585.05 837.29 588.56 839.71 586.87 842.9 580.59 846.06 576.15 852.06 572.05 856.09 566.34 860.07 558.65 864.83 556.68 866.5 555.35 870.72 558.04 874.69 560.77 877.1 567.08 879.38 571.4 882.17 574.62 885.48 582.23 888.96 585.38 892.46 583.37 895.96 578.15 897.55 571.54 897.94 569.05 899.96 569.8 903.75 575.63 909.54 579.39 915.08 579.76 917.08 578.56 924.65 577.67 927.43 578.06 932.86 576.27 937.55 574.81 938.88 570.41 939.42 561.89 939.01 555.09 937.26 549.89 933.92 545.61 934.95 543.8 937.26 541.59 943.42 539.17 944.89 532.32 944.87 520.2 939.46 513.33 937.48 506.96 934.7 503.38 932.47 490.89 929.7 481.14 929.58 476.37 929.16 469.04 925.75 465.95 923.8 458.51 917.82 453.97 915.91 443.08 915.62 436.87 920.58 435.25 925.47 434.92 935.77 434.3 939.36 432.88 942.02 425.17 946.85 394.46 948.78 382.39 950.25 377.74 953.25 377.48 958.83 379.49 966.1 388.16 977.59 392.68 981.84 393.63 985.04 394.08 990.41 392.02 998.84 390.96 1006.94 388.06 1012.57 385.11 1015.73 384.46 1019.17 Z"/>
</g>
</svg>