<?xml version="1.0"?>
<svg xmlns="http://www.w3.org/2000/svg" version="1.2" baseProfile="tiny" width="800" height="840" viewBox="0 0 800 840" stroke-linecap="round" stroke-linejoin="round">
<g id="4206108">
<path d="M 357.44 2.02 354.42 2.34 352.62 3.09 350.68 5.36 347.01 8.29 346.01 11.73 344.2 13.07 343.85 17.35 341.28 20.07 341.94 22.18 341.93 24.61 339.6 27.27 338.73 29.11 338.84 30.65 335.73 33.86 335.61 35.27 337.31 37.25 339.17 38.2 340.41 38.05 343.33 42.41 342.83 43.52 339.39 44.6 338.06 46.46 336.54 46.65 335.94 43.48 331.91 41.86 329.67 42.49 326.74 42.16 325.5 40.8 324.36 38.31 323.62 35.59 319.25 35.83 318.09 36.49 317.96 38.21 316.59 39.27 317.8 40.35 317.03 42.09 316.84 45.22 317.6 47.12 316.55 48.01 316.18 51.29 315.3 53.03 313.95 53.76 313.01 56.68 313.52 58.37 313.75 62.85 312.9 66.55 311.25 68.79 308.43 69.61 305.47 71.28 302.8 73.2 302.43 75.46 303.01 79.43 301.92 81.37 302.12 83.96 302.86 86.08 301.92 88.89 301.45 91.64 300.61 92.73 301.12 95.56 299.59 96.79 299.38 98.53 299.92 100.37 299.34 101.96 300.8 103.78 300.37 104.84 301.51 106.49 300.72 108.9 301.91 110.78 302.37 113.53 301.96 114.75 302.56 117.89 304.59 120.38 302.47 121.62 304.04 128.2 305.28 131.39 306.73 132.15 307.52 134.6 309.81 136.13 312.43 136.46 315.65 138.22 317.11 140.65 318.39 141.58 319.6 144.21 322.51 144.49 322.84 147.48 325.69 149.62 328.04 150.57 329.88 153.41 331.36 154.39 333.8 154.99 334.53 156.06 334.35 160.23 335.19 162.55 336.51 163.68 335.74 168.11 337.06 169.24 338.54 169.59 339.07 173.02 341.28 174.56 341.65 176.68 343.5 179.01 343.47 180.01 345.11 181.12 346.02 183.39 347.87 185.58 349.32 185.82 350.05 187.92 353.66 188.55 355.87 190.51 357.75 191.13 362.6 191.43 363.51 192.03 364.42 194.38 367.74 195.03 375.43 197.1 378.71 199.86 380.12 200.33 381.29 202.17 385.76 203.52 387.11 207.09 388.73 207.89 392.69 208.06 394.41 209.78 393.97 212.31 394.26 214.45 395.56 215.5 400.21 216.17 402.1 218.24 403.08 221 401.12 223.56 402.05 224.58 401.23 229.5 401.85 230.72 404.63 232.88 404.11 236.85 404.85 238.14 407.13 240.49 406.01 243.79 403.25 247.82 402.74 249.21 403.75 253.97 406.42 255.3 407.57 256.8 407.29 258.76 412.63 259.51 413.52 260.75 412.25 264.21 410.18 266.87 410.1 269.9 411.98 272.54 412.02 273.88 410.77 275.97 410.64 277.74 411.52 279.04 414.54 281.96 414.57 282.73 412.53 284.69 411.87 286.45 412.94 289.7 412.7 291.71 415.18 293.01 415.26 295.26 417.67 297.21 418.24 300.51 420.62 303.59 420.91 305.8 420.38 308.01 419.45 309.33 419.36 311.32 422.18 312.53 421.72 313.92 422.05 317.99 423.66 319.91 424.38 322.62 424.79 326.02 426.43 330.1 422.99 334.31 424.7 335.99 427.91 340.88 431.05 343.78 435.58 351 437.41 353.28 434.63 358.31 434.13 361.42 435.38 362.83 438.24 364.6 438.72 368.11 441.99 370.48 443.67 373.7 445.07 374 447.29 375.45 451.7 376.73 456.77 381.83 458.26 382.75 460.63 382.76 466.42 383.5 470.92 384.85 472.25 384.85 475.25 382.63 477.54 382.64 481.13 381.96 483.27 380.88 489.65 378.96 494.18 378.44 497.97 379 499.76 380.12 502.75 380.7 506.39 380.63 509.09 382.45 511.27 383.13 515.47 383.32 519.73 385.35 521.15 387.26 522.17 390.06 522.72 396.07 522.19 397.59 529.52 400.63 534.42 403.5 536.53 404.21 540.61 406.43 541.21 407.18 542.67 413.43 544.03 415.31 546.72 417.52 547.96 417.7 549.3 419.19 550.79 424.09 554.3 425.58 554.67 427.3 556.1 428.86 559.51 430.27 560.16 432.24 558.17 435.61 559.08 437.98 560.27 438.87 565.14 439.92 565.64 441.5 565.35 443.78 566.91 448.26 566.82 450.83 566.26 452.8 566.06 457.68 566.67 459.38 570.97 460.48 574.93 460.74 575.97 461.45 575.06 465.77 575.89 469.38 576.46 470.28 578.45 471.31 580.17 473.67 576.67 476.62 573.47 480.54 570.36 486.64 568.6 487.69 566.44 494.14 565.84 496.65 565.96 499.65 567.63 501.26 570.06 502.81 571.21 505.25 574.38 508.5 576.39 508.45 579.26 507.49 582.16 507.38 584.05 508.15 584.57 510.31 583.97 512.24 584.68 515.63 586.95 517.43 590.32 518.21 593.58 520.49 593.93 522.4 600.34 522.15 601.66 521.21 603.82 517.71 606 517.02 612.41 517.86 613.82 517.8 615.9 516.82 616.77 515.72 620.45 516.81 624.21 519.31 629.5 521.62 632.01 523.01 636.28 524.09 641.25 524.73 644.98 526 649.57 529.23 651.02 530.77 653.25 534.73 656.97 536.02 661.54 536.41 664.13 535.94 666.97 535.93 669.72 537.12 673.72 538.16 726.24 511.67 727.23 513.94 724.82 519.49 724.98 520.62 726.22 521.63 727.44 521.59 728.13 523.93 731.94 528.17 732.92 531.41 735.38 532.25 739.4 532.69 741.16 534.66 742.84 535.73 744.12 538.61 743.09 540.77 745.13 543.72 745.85 546.43 744.23 552.92 741.23 557.88 741.67 561.37 744.42 564.93 745.33 568.51 746.53 570.08 747.8 575.44 749.45 577.94 752.25 580.31 756.32 582.56 756.24 584.28 754.65 590.29 753.51 593.33 751.68 601.54 749.52 604.65 745.25 608.61 742.78 611.38 742.5 613.05 741.17 613.27 739.08 619.87 737.35 621.71 737.11 623.55 735.22 623.98 733.33 627.68 733.42 628.51 735.25 630.17 722.22 639.32 724.17 640.14 725.57 642.42 725.11 646.75 726.23 648.09 728.9 650.28 729.97 652.87 731.61 655.27 734.74 657.44 736.89 659.76 738.41 662.52 738.7 664.41 737.56 666 737.17 668.89 737.69 670.86 738.71 672.24 737.85 679.79 735.23 683.92 733.9 690.31 734.25 691.69 735.91 692.57 737.49 694.52 738.62 697.14 738.7 700.5 738.14 701.02 729.32 704.29 727.07 704.14 726.1 706.63 726.57 708.59 727.54 715.88 729.04 719.98 729.38 721.75 729.15 724.93 727.99 728.65 728.11 729.92 730.31 733.48 733.82 735.11 734.32 736 734.48 738.74 735.96 743.1 736.37 743.5 744.45 744.11 750.49 748.5 754.49 752.58 756.27 755.3 758.78 757.71 761.86 759 763.82 760.2 764.76 761.37 764.92 764.26 764.52 773.57 763.47 776.12 763.78 778.49 766.36 782.4 767.37 783.49 775.68 788.79 780.68 793.36 784.28 794.79 789.01 797 790.34 798.26 791.12 800.43 793.33 803.38 794.95 804.99 797.39 806.16 798.82 808.35 799 811.13 798.16 813.37 798.04 815.31 797.06 820.51 796.98 828.07 796.3 831.27 794.82 833.01 782.17 837.59 779.53 839 778.27 838.61 779.95 835.3 778.49 833.53 779.3 832.33 779.69 830.04 780.37 829.12 779.05 824.75 777.16 823.45 778.39 822.17 777.97 820.23 777.08 819.55 776.28 817.48 774.17 814.58 775.8 811.77 774.36 809.82 774.09 807.11 772.5 806.3 772.34 805.2 773.22 803.16 772.48 800.92 765.25 799.74 761.87 800.21 759.61 801.91 754.9 804.43 752.27 803.63 750.27 804.06 749.13 804.92 743.8 807.61 742.31 809.62 741.06 809.02 739.48 806.81 737.32 805.41 735.67 804.86 733.75 803.23 731.61 802.63 727.17 800.03 725.1 798.09 725.24 792.34 724.42 786.54 723.65 784.99 721.98 784.26 718.89 783.75 717.65 782.61 715.08 782.48 711.73 781.44 707.28 783.64 706.25 780.42 705.09 778.01 703.82 777.15 703.19 774.76 702 773.56 700.19 773.37 698.79 769.76 698.78 767.74 697.75 766.89 693.99 767.84 689.6 769.48 687.16 769.89 680.99 766.47 678.56 766.5 678.14 763.46 676.12 762.43 673.4 763.14 668.41 765.55 664.81 765.32 660.96 764.45 660.49 762.17 661.29 759.38 660.69 757.9 659.07 757.45 655.83 757.9 654.58 756.32 652.02 756.33 650 757.31 647.49 756.18 646.23 756.69 643.34 756.7 641.41 756.26 635.93 758.64 633.66 756.86 632.08 757.02 626.44 760.91 622.79 762.38 620.51 762.65 619.54 764.45 616.35 766.45 612.83 767.15 612.3 767.71 609.14 768.09 607.63 770.73 605.96 771.6 605.95 769.52 605.08 768.51 605.64 767.17 602.4 765.88 599.7 764.45 598.52 763.13 595.03 763.28 593.38 764.36 593.54 766.25 591.31 768.55 589.52 769.36 586.36 768.9 584.55 767.97 582.71 768.42 579.3 768.14 576.03 770 575.43 771.77 573.77 774.07 570.88 775.3 570.67 776.49 567.24 775.91 569.24 773.84 568.37 772.66 567 772.27 566.64 769.24 565.84 768.11 562.74 766.86 559.93 767.5 558.03 767.4 556.55 769.36 554.51 766.36 553.11 767.92 553.06 770.32 550.74 771.88 548.95 773.79 546.81 774.21 545.11 776.38 545.13 778.07 541.4 781.87 541.33 783.11 539.7 783.36 537.86 782.75 536.89 780.24 534.79 780.32 531.87 782.51 531.41 780.26 529.21 779.88 529.36 778.44 530.31 777.51 530.08 775.85 529.02 775.28 524.6 775.97 521.98 777.56 519.38 778.38 518.86 779.76 517.44 779.81 515.92 780.93 513.48 780.87 510.93 782.23 509.1 781.96 506.59 780.42 504.59 781.91 504.72 785.24 504.17 786.98 502.63 787.37 500.93 789.5 497.12 790.39 495.73 790.78 493.48 790.57 492.95 789.44 491.17 789.32 489.05 786.61 490.14 785.63 488.97 783.88 486.5 786.83 484.89 787.07 484.54 789.87 483.07 791.77 481.65 792.25 481.17 793.63 479.02 793.58 476.39 794.81 474.5 794.76 472.86 793.9 472.02 795.56 470.86 795.08 469.98 796.49 468.24 797.05 466.73 796.03 465.98 797.13 464.32 797.91 463.3 800.03 461.82 801.23 460.1 801.62 458.75 803.49 455.25 806.24 451.55 807.11 448.09 806.92 440.64 804.68 436.46 802.89 434.94 801.37 433.62 801 430.29 801.29 427.36 800.87 425.36 798.82 423.28 798.64 420.3 802.04 416.76 804.12 414.04 803.03 409.83 799.57 406.1 797.07 405 793.13 405.04 791.19 406.06 787.48 406.2 784.95 404.63 784.08 399.72 783.7 392.66 782.19 389.9 781.32 387.43 779.49 385.77 777.74 382.69 775.79 381.12 773.59 378.44 772.02 376.75 771.89 372.57 770.83 367.22 769.95 364.81 769.2 358.56 767.77 355.28 767.54 353.15 768.67 351.93 768.5 351.64 765.51 351.12 764.29 349.58 763.33 348.1 763.5 345.28 765.48 339.37 766.26 337.34 766.18 334.29 764.87 327.8 763.88 323.91 763.5 321.61 762.02 319.49 761.47 315.94 761.76 313.04 763.12 311.44 763.27 307.43 762.72 302.63 761.67 298.33 761.47 294.14 762.22 288.65 762.43 282.66 763.3 280.6 763.21 278.39 762.02 272.69 756.91 269.38 753.71 266.53 748.91 265.86 744.87 267.05 742.03 267.63 738.19 266.38 734.67 264.78 732.64 260.54 729.82 257.8 726.09 254.64 725.2 246.38 727.5 243.42 727.55 240.95 727.21 236.85 727.9 234.74 727.12 230.16 723.66 225.34 722.06 223.08 719.28 222.11 714.59 220.54 709.94 221.06 708.03 220.57 705.67 218.45 702.87 215.35 699.81 214.44 696.84 213.24 694.64 211.43 693.09 208.45 691.84 202.42 687.75 199.19 683.05 197.55 681.41 194.43 679.92 191.16 677.53 186.16 672.47 179.88 660.85 178.58 658.83 178.16 656.7 178.22 653.33 176.79 649.49 175.26 647.7 171.99 646.82 170.85 645.86 169.68 643.42 167.68 641.95 161.11 641.28 159.37 640.54 156.11 636.41 154.2 634.63 153.17 632.89 150.06 633.18 147.86 632.97 145.87 631.27 144.04 630.69 141.86 632.08 140.27 628.66 138.19 627.77 138.52 626.25 137.28 625.13 136.28 622.69 135.66 616.84 133.88 614.97 133.3 613.36 134.42 608.71 134.33 603.07 133.84 600.54 134.29 589.97 135.83 586.65 137.49 585.53 138.15 584.2 137.61 581.01 138.48 577.94 144 574.71 144.66 573.71 146.86 568.57 146.74 567.04 144.29 561.15 141.68 556.67 139.65 554.75 137.34 554.22 135.99 551.61 134.56 550.53 133.82 548 134.25 546.18 133.98 540.89 134.71 538.38 133.03 534.57 133.53 531.93 133.59 529.13 132.26 525.32 132.26 522.95 129.59 521.81 129.25 520.65 126.91 519.91 125.02 520.11 123.57 519.43 119.15 518.31 116.17 516.28 113.37 515.08 111.38 513.79 110.01 509.89 110.34 506.8 108.35 506.51 103.02 503.57 100.49 501.74 97.62 501.37 96.73 499.77 95.11 501.15 90.26 503.36 88.09 499.4 87.62 497.8 84.65 495.3 80.11 494.69 78.67 495.21 77.92 494.34 75.38 493.58 67.09 494.07 65.99 494.86 64.23 497.72 59.56 497.35 55.27 496.64 53.01 497.51 50.25 496.97 45.56 496.95 42.68 497.22 39.38 498.41 36.75 500.1 34.91 498.78 34.24 495.69 31.67 493.44 28.62 491.23 28.46 490.47 29.51 488.18 29.49 484.31 28.1 482.88 22.49 480.68 22.98 478.53 22.73 475.98 23.9 470.23 22.82 465.88 20.16 464.47 20.14 463.21 21.08 460.43 22.34 458.44 19.26 456.56 17.72 456.08 15.68 454.67 12.16 456.52 9.57 454.13 6.38 453.1 5.4 452.27 6.85 449.31 5.21 446.74 4.08 443.78 4.02 440.41 5.56 437.47 5.04 435.47 2.33 434.45 1 432.97 4.04 428.86 7.68 422.14 8.03 420.1 10.58 418.67 11.83 417.35 12.19 414.44 13.22 412.73 14.25 408.53 17.2 406.09 18.43 403.01 21.05 401.29 23.46 400.26 23.42 398.53 24.19 396.72 26.85 394.87 28.02 391.09 29.65 390.18 35.91 391.12 37.02 391.54 37.46 394.45 36.82 399.36 38.58 400.15 39.84 399.86 41.08 398.6 41.56 396.52 44.29 395.56 47.18 396.04 51.37 398.42 53.35 398.59 59.82 397.92 61.42 397.31 63.13 397.74 67.3 397.68 69.68 396.86 71.3 397.1 74.38 395.74 76.61 395.17 81.04 392.98 84.64 390.86 86.55 391.5 87.65 393.35 87.78 395.18 89.59 397.21 95.73 395.73 97.41 394.3 99.43 393.9 100.36 392.92 103.37 392.39 107.29 393.3 109.07 392.16 109.87 390.38 111.62 388.49 114.06 387.87 115.7 388.03 119.42 386.76 123.46 386.12 126.73 385.27 129.63 384.03 131.63 382.77 134.74 381.78 135.7 382.26 137.37 381.4 139.45 381.29 143.51 382.9 144.24 384.24 146.47 384.44 147.63 382.88 147.08 378.94 145.17 377.58 144.77 375.6 143.47 374.59 140.41 373.12 139.99 371.24 140.35 369.76 142.49 367.79 146.47 366.72 147.88 365.55 151.05 364.53 152.54 363.34 157.08 361.65 159.81 359.21 159.24 354.81 159.92 352.13 159.6 350.94 155.15 348.96 151.88 346.62 149.76 345.67 143.56 346.93 141.91 346.42 139.01 344.46 135.41 345.57 132.46 344.81 130.61 345.36 125 345.31 123.61 344.82 122.18 343.38 123.82 340.99 125.26 336.88 127.67 332.24 125.92 330.19 125.4 328.49 125.29 324.4 126.45 319.52 126.67 317.18 128.04 311.9 121.43 314.21 119.19 315.23 116.71 315.15 115.13 312.43 115.43 310.77 119.38 303.62 117.47 301.83 115.91 299.16 113.87 297.7 113.23 296.2 113.32 291.35 113.58 290.09 114.79 289.48 116.23 291.18 119.16 292.62 122.65 293.94 124.11 293.41 130.7 293.75 132.24 293 135.14 292.83 136.06 292.18 135.52 287.09 134.55 284.3 134.51 282.91 135.94 278.24 134.15 274.05 133.99 272.53 135.15 270.6 138.05 271.33 140.88 270.19 143.07 270.71 144.56 261.5 148.28 257.29 150.06 256.42 150.52 254.51 152.09 253.82 155.96 253.85 158.42 254.92 159.35 257.44 159.41 260.86 158.05 263.14 157.91 264.87 158.83 265.86 160.7 265.25 162.76 263.43 165.64 261.9 172.03 261.95 173.19 260.72 172.78 258.37 173.48 256.49 175.05 254.65 176.24 254.71 180.33 253.72 182.73 254.25 184 253.86 185.03 250.72 188.23 248.82 191.51 248.26 194.55 249.4 202.12 249.46 204.61 248.94 209.12 247.37 211.43 245.74 213.86 242.68 215.97 241.48 219.82 238.55 221.16 236.61 222.5 235.99 223.13 234.05 223.29 231.74 222.57 230.9 220.43 230.51 219.82 228.92 220.66 225.82 218.9 223.76 219.04 221.82 221.31 219.45 221.77 217.31 219.94 214.35 221.28 213.45 222.43 214.14 224.99 214.38 226.34 213.59 227.38 211.62 227.17 206.12 226.06 204.27 224 202.65 219.08 200.18 216.99 198.01 214.4 192.56 211.95 186.78 212.86 185.19 216.46 184.73 219.92 183.87 221.87 183.06 222.36 182.13 221.59 179.38 223.32 178.01 225.66 177.22 227.29 175.74 229.29 176.72 232.33 175.95 233.62 174.16 237.86 169.56 238.36 168.32 237.1 166.1 236.88 163.87 236.04 160.82 238.36 157.9 239.21 155.31 244.73 152.69 246.03 150.24 247.51 149.54 249.89 145.69 249.33 142.69 249.49 141.49 251.01 140.56 257.43 139.88 259.79 138.44 261.06 136.84 264.05 129.15 262.01 126.57 261.46 123.69 260.67 122.79 260.08 120.18 258.81 119.36 256.01 120.5 254.75 119.97 255.75 116.56 254.93 114.15 256.07 112.73 258.16 112.85 261.13 108.98 260.96 106.84 260.18 103.58 259.99 99.61 260.74 96.11 260.72 93.85 261.44 91.42 262.72 89.88 264.7 88.51 267.27 87.88 270.18 84.8 272.8 82.64 275.2 77.7 278.22 74.41 281.07 71.88 282.98 68.78 283.69 65.46 282.59 62.63 282.26 56.79 279.83 54.77 277.15 54.16 273.88 54.26 265.54 53.7 266.34 52.98 270.6 52.62 273.49 51.8 275.62 50.58 277.16 48.3 277.83 46.12 277.72 44.02 276.07 40.74 276.9 39.07 279.11 37.42 281.35 36.71 282.5 35.62 285.07 35.51 290.35 34.11 291.98 32.87 296.16 30.41 299.25 29.09 299.89 27.54 299.8 25.39 301.23 22.06 303.99 19.15 305.99 15 308.31 12.73 311.15 12.52 315.24 12.93 319.9 11.7 323.76 9.88 326.66 7.27 332.46 3.44 336.49 2.14 344.77 1.1 349.51 1.31 354.63 1 357.44 2.02 Z"/>
</g>
</svg>