<?xml version="1.0"?>
<svg xmlns="http://www.w3.org/2000/svg" version="1.2" baseProfile="tiny" width="800" height="838" viewBox="0 0 800 838" stroke-linecap="round" stroke-linejoin="round">
<g id="4206801">
<path d="M 626.01 4.65 625.48 113.72 705.62 170.59 729.92 189.17 723.72 194.52 721.07 195.28 719.1 196.88 719.12 199.71 716.97 201.67 714.86 204.88 714.3 207.81 711.76 212.92 709.07 215.52 705.18 216.86 701.63 220.24 698.19 221.54 694.73 223.63 693.48 226 689.42 229.52 686.65 233.23 683.55 235.34 676.32 238.83 667.45 240.25 658.61 243.97 657.03 246.25 652.18 251.14 650.92 251.6 642.57 250.35 640.43 250.88 637.71 252.7 633.91 253.26 629.45 252.84 626.84 253.35 619.7 253.46 617.85 254.1 615.93 258.33 613.72 261.75 612.05 267.95 608.86 271.4 605.48 279.62 602.39 281.58 602.47 287.05 601.94 290.17 602.65 293.27 604.08 295.67 606.45 297.83 605.38 301.08 608.29 307.18 608.28 313.56 611.95 316.99 607.84 325.95 606.37 326.57 603.68 330.14 602.3 333.42 602.13 335.79 599.68 341.64 599.58 344.07 597.46 346.73 598.14 349.42 593.97 357.47 591.34 365.2 592.37 367.57 591.96 369.6 589.57 373.06 589.09 377.41 589.51 379.99 588.59 383.09 588.38 388.85 585.83 390.06 581.85 389.05 578.17 392.45 575.56 398.09 575.01 402.8 569.81 409.83 564.36 415.41 557.52 419.57 544.64 425.63 541.66 425.73 541.55 428.62 543.49 431.39 549.27 435.07 555.54 435.41 555.97 437.8 552.18 440.76 550.75 443.16 547.81 445.21 545.94 448.35 546.84 450.76 548.75 451.94 548.81 454.51 545.3 458.72 547.39 462.27 552.8 461.77 556.95 465.6 558.04 468.12 558.08 472.83 559.74 478.05 557.09 479.51 553.92 480.33 550.12 484.43 547.69 486.37 544.3 487.98 538.6 489.77 538.8 491.48 540.45 492.58 546.6 492 549.97 490.04 553.01 490.66 553.38 494.98 551.11 497.17 552.7 500 554.24 499.76 559.87 495.19 560.84 495.11 562.81 498.54 563.85 508.05 564.78 511.94 564.4 513.55 560.38 513.85 556.37 514.96 554.58 516.11 554.35 519.38 555.09 520.22 561.13 522.83 562.53 523.82 561.13 525.75 556.68 528.68 556.67 536.58 557.54 539.19 559.22 541.07 562.52 543.2 564.15 546.27 562.24 548.58 563.84 550.57 569.32 548.83 571.35 553.41 576.78 557.09 582.39 558.85 585.69 560.72 586.25 566.08 588.21 566.38 592.05 565.44 593.49 566.05 593.97 568.96 595.4 572.36 596.98 573.25 599.38 572.27 598.23 569.61 601.48 568.26 608.58 570.17 609.22 573.02 605.78 578.77 607.2 580.4 608.59 583.98 611.04 587.22 610.54 588.57 606.03 587.86 603.8 589.93 605.1 594.62 609.38 599.62 612.49 599.3 614.21 600.53 615.87 604.95 614.26 610.65 610.39 610.29 610.65 613.72 612.3 615.28 612.67 617.64 610.39 619.58 605.27 620.99 608.04 625.96 614.48 632.84 617.5 633.91 617.57 636.9 616.47 639.01 612.56 640 611.74 642.36 613.54 645.83 617.02 648.78 619.86 648.71 624.7 652.98 629.28 655.81 635.48 656.61 639.29 660.36 638.88 664.26 639.49 667.34 642.33 670.81 650.99 675.87 651.27 678.7 656.02 680.32 658.52 679.18 662.63 684.8 667.42 685.72 670.42 685.33 674.41 689.58 675.98 689.88 679.99 684.81 684.5 685.18 687.21 686.69 688.26 688.86 692.36 689.7 694.14 687.51 696.67 689.53 696.75 692.14 697.97 695.46 698.91 700.59 700.09 703.48 704.95 709.55 709.86 713.99 713.03 715.24 725.18 724.76 728.04 725.15 736.16 730.31 740.3 735.91 743.76 735.58 746.09 737.52 748.39 740.87 750.83 746.68 755.58 748.76 759.89 752.68 763.22 756.6 767.47 759.67 769.22 762.53 772.95 767.04 776.37 769.68 778.88 772.38 780.31 775.8 784.36 779.85 787.2 785.88 787.39 791.41 786.67 794.04 791.23 798.9 793.12 804.31 795.29 808.65 795.64 814.14 799 820.14 793.55 821.01 790.42 823.73 788.42 828.08 784.97 832.61 783.66 837 504.09 653.78 501.89 603.85 458.76 605.05 431.76 570.5 392.19 571.68 376.52 572.09 376.24 551.5 320.86 550.64 321.21 548.86 319.76 547.51 316.05 539.25 316.27 534.88 315.62 531.94 313.97 528.65 307.43 522.23 301.28 519.5 299.26 517.62 297.78 515 290.75 511.28 285.61 509.24 281.32 509.54 274.15 507.73 269.39 506.15 267.33 504.56 264.74 503.76 260.93 503.73 258.27 501 254.2 497.85 252.33 495.55 252.2 493.3 249.96 490.64 246.3 487.49 245.04 484.93 241.72 480.18 240.67 476.63 242.36 473.36 244.09 473.36 245.89 470.77 247.5 465.21 247.17 462 242.8 462.9 237.74 464.83 236.25 464.8 234.57 462.58 236.12 458.38 235.61 455.81 236.51 448.71 236.06 446.47 237.33 444.06 232.82 439.47 230.35 438.38 225.07 438.06 220.79 436.17 210.62 428.97 204.76 421.82 197.22 415.73 190.44 412.68 186.51 411.69 180.26 410.93 175.54 411.06 172.45 411.84 167.93 413.89 160.15 418.13 150.69 421.77 141.97 423.84 137.74 425.94 134.75 422.56 128.75 421.98 118.34 422.44 116.85 421.38 116.76 419.55 117.95 416.78 117.65 411.75 113.87 407.4 113.37 404.45 114.53 403.19 120.65 398.57 124.62 393.87 127.13 387.41 129.18 384.15 132.91 379.89 138.66 375.54 143.08 371.55 146.19 365.67 146.41 358.95 146.86 355.8 146.07 352.35 142.95 348.21 132.04 342.34 127.15 337.1 126.85 334.82 128.09 332.18 136.48 321.43 137.62 317.67 141.14 316.2 145.9 316.72 151.07 318.19 154.95 318.21 157.27 316.88 158.31 313.67 157.71 303.37 158.09 298.93 161.46 285.34 159.61 278.84 157.91 271.23 155.61 269.46 152.25 269.54 143.18 274.07 131.13 278.07 125.66 277.94 120.28 275.69 119.7 273.72 121.47 266.05 122.87 263.02 128.56 256.08 138.58 251.44 144.28 248.48 145.45 247.14 145.52 244.87 144.45 242.8 140.33 239.04 137.66 235.84 136.73 229.79 137.09 227.13 135.44 221.09 133.05 217.35 128.67 208.27 123.55 202.38 117.92 202.16 114.57 202.83 113.76 206.82 115.59 210 119.29 213.25 122.08 216.99 124.25 223.04 122.76 226.39 118.38 228.19 106.75 228.53 104.41 227.27 96.25 221.41 91.99 220.18 87.21 219.69 82.37 220.32 79.41 221.29 73.82 221.42 68.09 224.63 65.11 229.93 66.06 233.95 66.3 238.67 64.44 241.46 58.17 242.89 53.64 242.82 49.25 240.88 46.16 236.52 40.5 234.05 26.93 233.29 23.96 232.49 19.94 230.3 19.8 227.12 25.42 224.25 29.76 223.08 32.41 224.31 35.26 224.45 38.11 220.28 40.92 217.42 43.83 216.3 51.86 216.15 55.74 216.85 58.08 216.54 59.31 214.63 58.32 211.9 54.9 208.51 51.67 206.01 47.18 201.57 45.63 201.29 45.66 198.96 43.78 199.24 42.01 196.01 35.66 192.75 32.11 194.17 30.93 193.45 28.89 189.95 27.25 188.56 28 185.38 25.42 183.89 24.26 179.2 24.34 176.14 22.35 172.53 21.3 166.47 18.82 162.91 15.82 162.63 16.81 159.21 16.08 153.13 17.28 150.87 21.01 150.11 20.88 146.31 18.3 144.47 17.27 142.02 18.04 139.6 16.77 135.68 16.98 133.74 19.74 129.39 20.06 126.98 14.78 122.72 14.37 118.46 17.03 113.45 21.49 108.67 21.51 106.26 19.54 101.09 19.88 97.2 18.62 94.75 16.01 91.51 12.88 89.27 11.49 87.25 11.27 83.94 7.8 80.14 3.64 76.66 5.56 72.22 8.38 68.13 8.51 65.28 2.36 60.2 1 56.75 1.66 54.38 5.81 44.85 6.07 42.73 183.88 91.77 321.19 94.59 507.04 95.31 509.48 92.71 514.41 91.07 516.16 89.73 520.64 89.33 522.74 87.86 522.85 84.28 518.52 77.71 516.56 77.59 513.76 79.44 511.57 82.33 508.3 83.77 502.74 83.59 493.98 77.98 493.84 75.44 496.2 72.15 499.85 69.8 505.23 69.41 512.79 69.97 514.02 68.75 513.31 64.42 507.82 56.73 507.7 53.39 511.04 51.38 515.8 47.14 516.57 42.89 523.08 36.5 532.76 30.94 541.41 23.83 542.38 23.47 550.02 23.25 554.36 22.27 555.41 21.12 557.37 16.35 556.57 12.62 554.74 9.6 556.7 7.22 558.11 4.09 562.75 3.87 564.02 3.08 574.54 2.23 579.85 2.13 584.13 1 587.75 1.15 592.82 2.04 599.12 5.8 604.56 7.3 607.13 8.62 612.91 9.68 616.05 9.85 620.48 9.14 624.63 4.86 626.01 4.65 Z"/>
</g>
</svg>