<?xml version="1.0"?>
<svg xmlns="http://www.w3.org/2000/svg" version="1.2" baseProfile="tiny" width="800" height="1132" viewBox="0 0 800 1132" stroke-linecap="round" stroke-linejoin="round">
<g id="4206009">
<path d="M 782.7 230.66 782.79 233.17 773.22 234.67 773.25 231.39 782.7 230.66 Z M 790.54 215.66 792.1 220.93 789.71 225.43 786.44 224.46 782.72 219.7 783.1 216.31 790.54 215.66 Z M 743.53 49.94 746.75 50.52 754.08 49.1 759.77 51.69 762.73 51.29 763.56 57.59 759.84 62 759.97 63.85 748.85 71.75 744.05 67.8 740.96 70.11 736.36 67.13 732.58 61.3 733.35 54.83 732.5 46.28 738.4 44.58 743.53 49.94 Z M 777.91 795.56 731.17 935.17 673.34 994.25 588.94 1037.2 538.66 1056.18 474.08 1078.42 428.74 1092.03 374.2 1109.56 364.17 1115.01 360.03 1118.86 355.23 1131 342.38 1128.34 308.35 1110.55 291.68 1099.74 278.62 1092.77 259.93 1079.33 245.42 1067.58 224.04 1048.21 213.35 1034.89 205.74 1024.37 197.04 1009.59 194.39 1003.49 188.91 984.87 187.61 971.05 187.89 960.63 191.11 939.81 194.41 930.91 195.65 925.34 199.03 920.25 209.8 907.42 208.63 904.1 218.92 902.77 220 903.99 230.43 902.04 233.04 902.8 236.33 899.92 238.72 895.44 224.68 846.99 220.41 834.26 219.91 830.51 225.11 805.13 226.97 797.65 258.06 750.77 262.04 748.1 260.57 744.86 255.72 741.14 229.84 731.97 225.27 731.95 220.16 734.02 214.64 734.2 203.18 732 185.39 730.9 169.05 732.69 133.82 737.14 130.23 739.15 123.17 750.74 119.16 752.32 94.06 752.37 89.2 753.23 64.87 759.45 53.29 757.22 43.11 758.75 35.95 757.14 21.07 684.43 17.95 670.35 16.57 659.88 16.44 654.14 17.86 642.13 24.9 597.6 25.79 590.52 24.94 580.5 23.12 574.75 14.43 557.42 8.46 542.76 6.03 533.5 2.16 513.16 1.13 503.81 1 493.03 2.2 480.55 9.02 441.59 13.07 421.3 13.7 412.53 13.78 392.35 10.49 368.49 9.29 355.88 11.91 344.86 17.57 336.08 24.77 328.77 43.79 313.12 49.44 305.41 50.25 300.95 51.14 283.96 51.4 261.71 53.52 232.5 54.01 217.22 51.38 194.73 73.16 188.77 284.1 131.85 289.81 129.88 293.68 130.57 300.2 136.49 313.15 146.18 321.56 151.52 328.52 154.89 337.69 157.65 353.96 158.61 358.09 157.3 362.01 152.05 360.56 146.81 363.8 143.26 362.51 139.44 370.93 126.17 380.22 119.9 382.93 119.56 383.14 114.36 385.01 112.3 392.52 108.25 394.27 110.85 398.68 111.45 401.22 106.61 403.34 109.69 411.59 118.47 420.75 124.61 427.52 125.62 432.05 123.49 439.61 125.16 448.65 123.16 450.72 119.64 454.47 118.5 456.18 115.08 455.57 109.61 461.5 108.18 465.51 100.62 469.1 98.66 474.08 89.48 472.22 85.09 474.69 82.16 478.67 81.84 481.49 87.66 487.42 90.38 493.18 89.38 496.21 81.87 504.19 77.96 503.2 83.86 503.71 95.66 505.37 100.31 502.32 100.64 500.97 107.78 504.89 113.37 507.89 114.21 507.21 121.83 507.67 127.04 519 131.9 527.99 132.86 533.6 132.47 540.64 127.76 543.07 120.99 541.9 118.21 543.41 114.42 541.75 111.61 549.67 109.06 551.35 112.57 551.29 117.7 558.56 118.9 559.74 121.48 563.62 122.04 571.14 118.91 575.5 119.86 582.36 117.14 587.39 112.92 590.78 108.51 591.62 103.23 588.43 101.03 585.89 95.02 582.96 92.88 582.22 89.51 584.1 87.16 583.52 79.42 587.29 77.96 585.61 74.57 587.35 62.01 590.42 59.87 591.89 53.41 595.28 51.93 595.59 47.32 601.41 42.85 603.04 45.3 608.36 43.61 606.1 49.31 606.27 55.54 609.89 60.53 609.18 64.28 613.06 65.86 621.07 65.16 625.64 63.03 627.8 59.6 626.39 54.89 631.28 50.02 634.84 48.69 638.06 44.56 637.08 39.52 638.45 37.44 642.77 37.5 645.94 33.32 645.12 31.76 650.94 26.11 648.57 20.74 651.35 20.16 654.04 16.76 652.36 13.97 651.14 6.87 657.98 1 663.4 4.57 665.22 8.69 673.89 8.59 677.29 6.43 684.03 8.89 686.09 11.71 681.73 18.18 681.22 27.28 678.26 35.31 675.21 41.01 679.21 45.97 693.28 61.56 693.15 66.18 688.22 71.86 684.78 80.44 682.86 82.3 683.76 104.47 679.04 108.98 677.95 124.73 680.56 156.69 682.23 166.83 687.02 183.95 692.51 198.75 699.06 212.57 706.28 224.88 725.45 252.81 728.51 256.16 742.53 267.7 747.12 269.24 767.59 261.26 774.77 257.9 775.09 252.57 779.36 250.65 782.75 253.5 788.34 252.4 794.11 253.64 799 260.94 796.94 264.14 791.68 265.66 782.87 265.55 780.49 266.97 778.03 271.41 778.35 274.95 775.92 278 779.02 281.1 779.73 284.27 779.04 290.5 782.78 292.6 778.53 300.58 775.27 299.75 768.27 304.03 765.54 309.41 762.84 311.15 764.6 322.85 766.19 327.33 770.2 329.94 774.54 326.12 776.33 329.7 780.19 332.97 776.36 335.94 773.8 340.18 770.35 340.82 764.9 348.35 761.72 348.53 756.44 351.06 749.79 352.34 746.42 351.34 743.67 353.78 744.57 356.29 741.16 358.26 739.92 363.18 735.74 366.48 725.82 367.6 719.91 370.19 716.8 372.82 715.24 380.83 716.38 391 719.51 394.84 722.29 394.08 729.57 399.41 728.66 403.94 729.12 410.85 730.8 414.72 728.23 416.77 722.84 414.71 716.58 415.26 709.63 421.96 707.54 427.49 701.64 429.42 700.83 433.15 702.04 442.85 708.23 465.2 714.44 483.25 721.68 498.93 726.54 503.79 736.21 504.4 729.73 507.96 729.68 514.39 732.24 523.34 736.62 527.83 735.26 532.34 738.85 543.73 743.98 552.08 744.85 555.3 748.94 561.05 755.37 567 763.31 566.42 775.1 559.77 779.24 562.17 783.73 567.29 783.3 573.37 779.22 572.92 776.66 575.36 774.7 580.05 775.69 584.38 770.57 589.93 768 587.5 762.74 585.88 760.07 583.24 756.21 583.92 750.51 586.7 746.85 592.95 736.33 597.53 738.46 603.68 733.85 612.01 728.11 613.2 722.56 616.81 719.66 617.15 777.91 795.56 Z" fill-rule="evenodd"/>
</g>
</svg>