<?xml version="1.0"?>
<svg xmlns="http://www.w3.org/2000/svg" version="1.2" baseProfile="tiny" width="800" height="685" viewBox="0 0 800 685" stroke-linecap="round" stroke-linejoin="round">
<g id="4206207">
<path d="M 697.1 208.23 692.59 213.79 698.92 215.39 701.54 218.65 704.89 218.75 709.09 223.35 708.59 230.68 712.2 237.71 711.76 239.85 708.67 242.5 709.25 249.07 713.96 252.91 713.51 259.41 715.49 266.19 718.31 269.34 722.19 276.19 720.98 277.88 720.21 282.14 722.15 283.79 722.94 292.55 725.53 292.69 727.89 295.7 727.88 300.15 724.12 304.49 721.2 306.21 720.8 308.01 721.91 310.66 721.3 315.68 725.34 314.39 729.46 316.93 730.89 319.8 739.74 325.54 747.91 327.64 745.98 332.67 741.39 338.87 739.69 343.14 736.03 346.62 730.02 350.47 727.21 354.06 725.94 359.78 725.45 368.09 727 369.27 727.72 376.22 730.38 379.4 730.85 383.54 732.91 386.88 731.9 388.63 729.16 390.29 728.29 394.26 728.97 398.43 730.72 401.32 737.27 401.74 739.19 402.66 744.39 402.48 750.02 403.85 751.42 404.95 757.33 407.18 760.71 409.78 765.33 409.33 767.43 409.73 770.82 412.33 772.55 415.72 778.48 416.04 783.02 418.61 787.08 422 791.12 420.68 793.95 421.15 790.46 429.03 788.05 436.67 785.07 442.23 781.54 447.76 778.22 454.37 774.92 456.36 773.12 458.73 781.92 461.02 784.46 463.81 788.34 466.12 790.69 469.46 791.81 473.76 796.08 478.2 796.4 482.1 797.86 485.38 799 493.04 798.72 496.91 789.83 497.78 787.96 498.52 785.39 501.23 779.84 503.05 778.67 504.33 778.54 507.09 672.54 604.38 585.79 684 439.86 660.57 397.5 635.85 392.64 630.91 389.65 626.52 389.04 624.69 389.42 615.48 391.92 609.25 390.91 603.94 388.12 603.27 385.69 604.41 381.93 603.37 383.5 597.98 382.82 594.23 378.72 589.26 379.79 583.78 381.52 581.57 382.49 576.37 380.9 574.71 372.44 570.23 369.39 575.74 368.15 577.1 362.84 579.45 356.56 579.6 354.01 581.43 349.46 581.07 344.94 586.41 337.47 587.41 332.85 591.32 329.17 590.92 324.34 587.76 317.66 586.34 312.79 584.84 309.37 585.25 306.96 586.83 302.84 583.06 298.22 580.84 296.69 582.16 294.35 587.17 290.14 590.23 288.84 593.77 281.15 601.04 249.77 599.47 242.67 589.74 238.43 589.77 236.93 591.57 233.27 587.02 231.61 583.27 230.72 576.23 228.54 572.22 224.34 570.62 219.79 570.14 218.25 569.09 217.92 565.9 219.42 562.05 219.87 559.01 216.71 556.32 214.63 550.22 212.65 547.86 206.7 546.83 202.53 547.05 200.66 546.27 196.84 542.95 190.75 541.99 188.6 542.21 182.35 544.77 179.78 547.78 176.63 549.43 174.56 553.05 171.46 556.65 169.98 560.93 168.25 562.37 167.23 566.44 164.11 567.48 159.98 564.61 158.69 557.68 156.85 556.66 155.46 554.1 147.75 546.9 142.62 545.45 141.28 544.31 141.15 541.04 132.23 535.29 131.51 532.77 128.24 530.47 122.45 528.13 121.93 524.8 118.32 522.5 114.61 518.4 110.71 509.81 109.82 500.14 111.72 496.25 112.88 492.01 113.9 490.67 114.44 486.06 111.04 479.49 110.72 477.94 108.46 477.08 103.75 476.71 100.63 474.29 99.48 471.13 97.11 469.54 93.46 468.24 91.31 465.56 89.7 461.86 87.78 459.14 85.01 458.42 78.78 457.97 75.18 453.93 67.51 442.74 65.54 435.04 63.96 430.76 51.74 431.93 51.38 428.46 49.5 425.31 46 421.94 41.79 421.52 34.54 419.06 30.44 414.96 26.69 413.72 21.78 410.74 4.88 391.77 5.27 389.08 3.07 385.46 1.93 384.97 1 378.24 3.42 377.97 4.5 375.99 2.74 367.52 4.19 362.19 6.54 359.66 7.35 355.88 6.75 347.65 8.59 340.22 10.79 335.74 11.08 323.43 10.71 320.24 12.36 319.07 15.81 314.1 16.54 310.37 19.96 304.96 20.74 302.44 21.16 297.11 20.83 294.86 24.2 287.06 24.88 284.34 28.88 283.21 32.17 280.98 39.45 279.46 42.9 278.31 45.87 278.15 52.15 279.98 54.29 279.8 60.63 277.15 63.85 272.55 65.25 271.57 70.71 271.04 73.89 267.48 78.41 264.84 80.51 262.64 80.63 260.01 85.39 258.93 87.61 257.26 90.72 252.68 91.39 250.46 93.31 249.24 94.94 245.68 98.61 245.51 101.38 243.36 101.67 241.71 99.24 240.13 99.22 236.03 102.33 234.16 106.28 230.49 105.09 227.7 106.9 226.51 109.83 222.98 109.04 219.82 110.82 215.75 109.05 214.33 103.74 215.62 100.92 214.16 100.81 211.22 98.89 208.81 95.62 206.11 90.83 204.35 88.55 201.71 92.45 198.81 90.87 194.07 88.91 192.26 87.75 188.06 85.75 185.42 84.96 182.18 81.15 180.67 78.16 180.95 77.16 175.95 78.87 174.49 79.63 171.82 79.4 168.62 77.45 166.37 76.08 158.64 73.85 155 74.97 153.93 72.73 151.61 71.18 146.08 69.16 141.56 68.93 135.44 71.22 132.37 71.52 128 70.48 124.2 73.51 118.89 74.5 115.22 77.05 110.44 84.99 101.27 86.03 95.4 89.27 91.42 91.62 89.56 92.43 84.1 93.68 79.87 98.46 75.68 102.71 73.98 103.48 71.92 104.85 62.79 106 58.46 102.97 56.71 103.35 54.72 105.7 53.52 107.82 45.17 110.6 44.48 109.94 40.97 111.23 38.59 112.23 34.29 114.43 30.64 113.7 27.52 113.42 16.63 114 15.66 119.7 13.56 123.2 7.85 126.28 1 129.18 1.84 129.98 9.04 128.01 16.41 127.64 21.36 128.56 23.62 132.32 29.48 135 32.67 139.09 42.35 138.2 45.72 138.87 49.98 138.36 53.65 140.67 56.99 140.33 60.18 142.81 66.01 146.9 70.51 148 74.57 146.54 78.71 149.25 81.95 153.41 83.1 155.58 86.17 156.41 89.73 159.26 91.07 160.83 94.69 164.8 96.53 170.42 96.59 172.83 94.71 179.3 93.4 182.5 92.15 187.39 93.99 190.52 92.94 193.36 89.48 198.12 88.31 201.15 86.38 204.85 89.88 214.92 89.2 220.18 92.52 220.98 93.93 225.72 95.61 229.91 96 234.34 95.35 238.68 95.8 244.74 91.65 255.09 89.89 264.57 89.3 266.94 88.48 269.15 84.96 271.05 83.6 279.79 84.17 281.26 85.04 282.21 89.56 279.62 97.68 278.97 103.49 273.16 113 279.7 117.95 287.08 118.96 289.46 119.86 298.26 120.45 299.79 122.37 303.1 123.31 304.3 125.09 304.42 127.75 305.8 130.3 309.36 132.88 310.35 137 313.26 138.36 316.1 141.46 321.23 140.9 324.03 138.2 331.08 135.43 333.74 136.15 335.86 131.3 338.76 128.51 340.94 128.47 346.12 131.85 349.2 132.29 353.1 129.02 357.65 128.26 359.89 126.95 361.27 124.83 366.08 119.75 369.19 117.44 373.05 120.31 377.95 119.51 381.84 117.47 383.41 115.11 386.1 113.74 394.97 118.11 395.68 124.07 397.34 126.32 401.88 129.06 403.91 132.6 404.29 134.79 406.53 138.76 409.43 141.65 413 148.06 493.88 131.64 501.63 130.21 507.07 126.58 510.86 125.41 516 126.39 517.6 121.66 521.02 114.66 524.47 114.85 531.57 117.94 536.31 121 541.78 127.01 547.72 127.18 548.68 131.79 550.44 135.51 550.77 138.7 554.15 144.53 556.02 146.59 565.91 148.99 569.33 149.49 574.62 152.96 578.92 154.5 585.68 155.19 589 154.2 591.92 155.25 593.42 153.23 597.78 151.83 602.05 153.28 608.03 156.45 611.96 159.17 614.59 163.22 616.6 164.75 619.04 164.75 621.17 168.32 619.64 173.25 621.99 175.24 625.41 175.21 625.56 178.61 627.22 181.11 626.18 184.67 628.42 185.64 632.43 189.1 632.49 191.78 635.44 192.92 636.79 194.38 637.13 197.73 639.19 199.83 643.66 200.46 642.79 202.11 639.71 203.93 642.04 205.84 642.95 210.13 647.18 209.92 650.21 211.51 652.62 210.06 657.25 208.82 660.41 208.91 674.73 208.18 684.23 205.53 688.97 204.85 692.85 205.12 697.1 208.23 Z"/>
</g>
</svg>