<?xml version="1.0"?>
<svg xmlns="http://www.w3.org/2000/svg" version="1.2" baseProfile="tiny" width="800" height="729" viewBox="0 0 800 729" stroke-linecap="round" stroke-linejoin="round">
<g id="4206504">
<path d="M 770.95 244.59 767.87 242.91 765.93 243.23 761.76 245.58 761.1 246.88 760.39 252.18 758.54 255.19 756.18 257.4 746.63 262.11 743.7 263.2 740.86 263.44 732.72 259.38 731.18 257.6 733.87 256.47 735.57 254.83 734.83 251.54 731.03 252.34 727.79 251.42 727.46 248.79 725.61 245.77 723.43 244.47 720.18 244.11 717.51 244.45 708.11 247.9 704.09 250.44 699.09 259.19 698.45 261.69 698.96 262.81 703.97 265.61 706.76 267.8 707.69 269.51 707.46 271.18 703.35 274.07 697.1 276.67 694.98 276.12 693.65 274.7 691.14 268.66 689.06 268.55 687.45 271.67 686.29 272.58 682.49 272.25 680.53 271.16 678.87 268.39 680.24 264.58 679.59 261.77 678.11 260.45 674.21 258.76 672.3 258.71 667.71 263.16 664.9 264.79 664.07 265.93 664.6 268.37 663.53 269.77 660.34 271.37 659.09 273.28 657.13 274.19 653.02 274.47 651.31 273.4 647.73 272.4 645.26 272.5 640.91 274.36 637.85 278.2 636.56 281.87 636.54 284.08 637.85 287.87 639.95 292.29 642.37 295.14 645.83 297.11 652.05 298.1 657.78 300.47 660.85 304.16 662.56 308.7 661.18 311.67 658.6 313.02 656.84 314.94 655.32 318.04 652.87 318.27 650.6 317.12 649.32 313.93 646.68 313.2 644.02 313.32 641.87 314.13 640.07 315.8 639.07 318.38 636.67 321.64 632.56 322.05 628.99 320.28 625.9 316.73 625.09 314.96 625.62 311.32 626.73 308.7 626.83 305.43 625.14 303.44 621.94 302.92 618.33 304.56 616.66 306.76 615.25 311.45 616.2 315.16 617.43 317.26 622.44 323.32 625.65 328.04 627.22 333.21 626.88 338.4 623.47 347.12 620.33 352.27 616.27 356.59 614 359.92 613.62 361.61 614.02 365.54 615.89 370.54 618.85 374.16 622.01 376.05 621.28 378.51 618.46 380.89 613.81 382.21 608.42 381.45 602.09 379.34 596.61 376.8 590.32 375.88 585.73 375.5 577.96 374.2 576.02 374.21 570.96 375.7 567.63 377.45 564.47 379.61 562.17 382.13 557.51 388.07 553.09 392.37 549.7 394.53 546.09 397.65 545.44 399.43 541 403.6 536.59 406.09 535.3 409.19 534.53 413.93 532.44 419.32 528.94 423.97 528.87 426.34 529.98 427.66 531.85 428.33 539.99 427.71 542.79 426.14 544.46 424.54 545.94 421.93 547.64 420.73 550.1 420.46 553.53 422.1 554.35 427.07 556.22 428.93 558.91 428.81 559.61 431.91 558.83 433.85 556.42 435.16 554.35 435.01 553.05 433.83 551.26 429.87 548.39 429.06 546.75 429.48 544.43 431.66 543.59 435.73 545.12 437.74 549 440.68 551.44 441.26 555.14 441.07 557.1 442.31 558.62 444.94 558.64 446.62 555.19 449.25 551.57 449.14 551.12 448.51 544.73 443.71 542.42 443.04 538.12 443.34 533.97 446.3 530.85 447.22 528.4 447.06 523.01 445.06 519.43 446.12 520.1 448.49 523.09 449.94 524.11 452.31 528.25 452.49 532.09 454.58 533.55 456.73 533.86 459.19 533.18 462.46 533.04 465.84 534.46 468.67 537.78 470.42 542.22 473.61 548.19 476.74 550.27 479.2 550.02 482.94 547.84 487.01 547.31 490.5 550.04 495.15 553.46 499.15 556.69 504 558.09 506.97 558.27 509.38 559.13 510.79 560.88 511.31 565.92 510.65 570.18 509.41 573.75 509.49 575.87 510.82 578.23 514.45 578.5 516.77 580.84 518.6 583.14 518.74 584.69 517.94 585.83 515.84 589.13 512.39 590.85 511.4 593.27 511.32 595.99 513.13 597.75 515.49 598.17 517.01 598.04 521.48 598.88 523.78 600.78 526.9 606.91 534.43 607.41 536.84 607.39 542.55 607.89 544.88 609.15 547.25 613.92 552.88 625.17 563.68 635.77 572.52 638.79 575.75 640.89 578.59 643.74 584.26 646.2 587.53 651.92 591.9 657.07 594.01 660.68 594.04 668.95 591.56 673.19 591.66 674.5 592.84 674.92 599.15 675.87 604.27 677.58 605.91 681.59 606.27 683.37 604.35 683.52 601.84 682.12 595.12 681.96 592.24 682.67 589.23 684.95 587.34 689.21 587.38 692.33 588 696.06 590.97 697.19 593.09 697.42 595.04 696.86 597.6 694.05 603.06 693.89 607.36 696.11 609.5 697.69 610.01 702.43 609.71 704.91 608.33 708.56 604.47 709.11 602.58 709.3 598.91 710.25 593.2 713.26 589.7 718.41 586.84 718.66 581.48 719.34 575.36 721.13 569.06 724.52 565.52 729.48 562.01 732.95 560.56 736.41 560.86 737.97 561.81 739.81 564.68 741.48 569.94 744.14 574.49 746.51 576.6 750.3 577.06 754.13 576.62 756.28 575.58 763.62 569.12 765.16 566.71 766.31 562.62 766.33 557.12 767.09 554.15 769.11 552.35 772.02 553 775.12 555.88 777 560.08 777.93 565.95 778.97 568.47 781.43 570.91 787 572.93 789.3 572.96 796.9 571.03 797.5 574.51 796.35 578.92 794.45 584.58 791.73 594.09 791.58 596.87 792.21 599.5 798.29 609.13 799 611.67 798.13 620.27 796.32 623.98 793.96 626.14 786.75 629.79 783.59 630.24 780.42 629.76 746.44 618.17 744.19 617.81 740.66 618.09 737.57 619.35 722.56 630.36 714.4 636.07 708.07 640.84 707.78 643.04 705.08 648.25 701.27 658.9 695.78 673.87 694.87 679.88 695.4 686.59 629.4 690.43 629.22 672.25 617.06 672.51 616.72 650.26 614.33 651.13 613.61 652.6 611.5 654.28 608.23 655.84 607.77 659.11 600.96 659.47 597.75 658.35 595.13 660.09 592.39 656.28 590.25 656.32 584.3 654.56 583.23 652.85 579.58 651.36 580.62 647.08 577.81 646.37 578.5 648.65 574.15 648.16 573.37 647.3 573.85 645.27 571.22 644.01 569.71 641.67 568.11 640.35 566.86 640.6 566.31 642.73 564.16 642.24 563.9 640.3 564.75 638.53 564.12 636.58 561.9 635.41 563.43 634.08 565.56 636.15 566.68 635.33 564.9 632.84 567.77 631.69 567.71 630.63 565.26 628.49 563.71 629.19 562.12 628.32 557.96 629.21 555.92 628.13 555.47 626.66 557.67 623.42 556.58 620.89 556.74 619.1 556.04 616.08 554.57 613.48 553.23 612.4 548.84 611.61 535.3 611.15 531.04 612.13 528.23 616.85 525.27 617.28 521.62 618.98 517.87 618.35 514.34 617.02 511.36 613.99 509.4 609.85 506.67 610.18 505.16 609.67 503.09 610.94 499.55 609.16 494.85 611 492.98 608.78 495.25 606.32 491.04 605.62 489.15 608.48 487.87 608.58 487 606.14 485.35 605.51 484.64 608.84 479.6 609.22 480.17 612.57 478.08 612.94 476.28 611.74 474.55 611.89 471.84 610.62 468.98 613.09 467.02 613.33 466.18 612.32 466.6 610.59 468.85 609.37 468.6 608.43 465.42 608.48 463.27 605.94 454.15 603.68 449.14 603.68 446.29 604.43 444.87 606.34 444.27 610.24 440.55 612.65 442.03 613.77 444.41 614.38 438.51 617.52 436.67 618.95 429.48 618.99 426.31 619.99 423.02 621.6 421.09 618.81 419.21 618.1 415.27 619.32 404.39 619.63 402.87 620.88 396.72 622.79 395.35 624.95 393.88 628.63 391.03 629.45 384.58 630.02 383.88 631.46 385.09 636.94 384.02 640.28 382.57 642.51 379.2 644.62 377.4 650.27 375.3 651.91 374.99 658.51 361.4 662.39 357.5 663.77 353.95 665.6 350.4 667.88 341.75 673.93 339.11 675.97 331.7 680.86 323.13 687.19 320.7 688.52 313.2 693.69 309.87 696.28 287.99 711.47 282.19 715.64 273.71 720.89 272.07 722.62 266.96 725.99 262.4 727.43 258.78 728 253.85 727.32 238.61 724.26 231.24 722.93 220.51 720.74 216.13 719.6 203.97 717.9 195.61 715.87 189.62 715.03 186.08 713.93 178.62 712.57 173.96 712.78 167.63 714.05 164.75 714.96 162.46 717.26 159.76 718.44 150.45 723.33 145.8 723.76 143.95 722.22 143.86 720.3 142.74 716.32 140.67 712.99 138.33 706.02 137.43 696.72 137.51 694.74 136.79 687.52 136.45 672.49 133.9 662.61 132.4 659.69 126.47 652.89 126.65 647.54 126.17 642.73 127.51 635.9 127.47 633.33 128.37 628.7 127.41 626.88 124.16 624.98 122.22 624.52 120.35 622.81 118.43 617.3 117.69 616.47 117.9 614.15 114 613.31 113.49 610.99 113.46 607.47 115.55 602.91 116.02 599.52 115.61 598.07 116.15 595.42 114.2 593.12 113.86 589.25 115.77 586.71 115.68 583.95 119.27 583 118.71 581.85 114.73 578.51 109.33 578.53 102.77 579.44 102.07 579.99 99.16 584.74 95.4 586.84 92.55 587.69 89.57 587.97 85.41 585.47 84.23 585.58 81.24 587.46 73.01 586.1 67.06 588.77 64.25 588.64 62.5 587.26 60.22 587.05 55.43 588.76 54.01 588.81 48.08 587.52 45.29 588.41 43.17 587.59 41.95 588.38 34.66 590.13 30.94 589.02 26.38 589.95 24.47 586.56 24.14 579.43 22.77 577.71 22 574.66 18.62 572.15 17.42 568.84 13.66 565.06 6.62 562.12 5.62 558.22 3.34 554.82 4.89 550.89 4.25 545.09 1 538.38 1.91 533.87 2.88 524 3.59 518.94 3.69 515.58 7.88 515.37 11.67 514.49 14.34 515.89 23.08 516.45 27.51 517.31 30.41 518.47 34.79 518.62 37.41 519.09 41.92 516.96 42.26 518.85 41.76 523.74 42.89 526.97 44.11 528.46 47.14 528.91 52.25 530.99 55.79 531.64 62.84 529.11 67.53 527.11 70.9 526.32 79.06 520.97 83.6 517.66 88.72 515.64 93.83 519.03 99.52 521.37 102.39 521.95 105.48 521.59 109.49 519.08 111.61 510.57 111.36 507.27 110.43 506.48 109.74 501.75 110.27 499.69 111.95 498.38 113.11 496.04 114.91 494.81 118.8 489.44 120.14 488.26 127.33 484.3 127.24 482.35 128.25 479.8 125.99 477.1 123.11 475.62 119.05 474.15 120.5 471.86 119.58 468.06 117.63 465.15 115.95 463.93 108.8 462.33 101.62 451.16 97.6 449.53 96.58 443.1 94.35 441.28 93.43 439.59 91.53 438.81 88.69 436.19 87.9 433.87 86.03 433.17 85.04 430.64 84.97 420.91 86.93 419.07 85.35 416.4 88.62 414.55 89.57 413.49 94.96 410.73 102.24 407.4 108.09 403.75 110.23 402.77 120.38 400.53 124.01 400.7 130.29 402.18 130.09 397.89 132.63 393.6 134.32 391.63 133.63 389.79 129.58 390.4 124.55 390.05 121.76 389.21 120.09 388.04 119.08 384.22 112.16 380.53 107.76 380.34 105.35 381.28 102.39 378.28 99.73 377.88 97.38 379.35 96.81 381.74 94.84 382.6 91.7 382.23 89.33 381.32 87.78 377.63 86.66 376.76 80.15 374.92 74.73 375.9 73.11 375.6 70.82 374.02 68.61 368.56 66.3 364.53 64.53 356.6 63.14 356.13 56.98 356.64 55.44 353.85 55.89 350.62 55.24 346.99 55.7 343.14 58.16 336.37 59.35 334.1 62.71 331 64.16 328.5 64.88 323.67 65.56 322.49 68.22 322.3 71.91 324.33 74.38 323.57 74.92 322.45 74.09 319.89 75.6 318.64 78.66 318.91 79.3 317.89 77.62 315.55 77.28 313.99 77.78 310.37 79.12 309.49 82.29 311.1 85.66 310.96 86.71 309.49 86.83 304.7 85.67 303.47 84.23 303.97 84.85 303.1 90.4 300.84 96.34 299.92 102.55 298.57 108.11 297.75 113.13 295.48 114.96 295.36 121.29 301.1 125.06 300.93 127.45 302.14 130.7 306.95 132.85 308.05 136.53 308.62 140.95 311.49 144.66 310.93 145.81 310.11 146.52 308.08 146.87 304.72 150.84 298.54 154.06 296.96 156.27 296.41 160.09 296.7 163.76 294.25 167.58 293.34 172.42 290.82 179.99 289.72 184.14 289.9 190.66 292.06 194.38 292.47 202.88 293.97 205.89 296.53 208.44 297.24 214.78 296.87 219.36 297.93 224.66 299.56 229.85 299.67 232.13 300.54 244.29 302.69 244.5 300.33 242.52 295.02 241.7 290.77 240.88 284.3 241.25 281.25 243.65 275.12 245.99 270.21 249.11 265.89 258.12 259.64 260.29 256.05 258.57 254.4 252.86 251 252.36 250.07 251.91 243.22 251.1 240.65 246.85 239.04 244.79 236.6 243.27 231.89 241.51 231.62 238.72 233.23 235.33 234.29 229.49 234.25 226.56 234.74 223.82 237.03 221.35 240.69 219.81 240.69 216 236.67 213.49 236.29 206.14 236.24 196.66 239.68 193.25 240.47 186.98 241.22 183.31 240.19 177.83 240.07 170.68 238.33 166.02 238.64 161.76 240.91 160.51 239.99 157.33 231.67 154.78 230.21 153.02 225.42 152.83 223.67 151.26 221.81 148.28 221.11 146.88 219.54 146.29 217.01 144.58 213.56 146.43 208.13 145.6 201.37 144.54 199.36 140.08 196.67 135.95 193.22 135.25 189.59 130.19 187.96 128.31 186.91 126.37 184.35 125.86 181.09 124.01 176.68 123.33 172.26 119.13 167.4 115.11 160.79 115.51 157.79 117.71 153.08 119.17 147.45 120.38 145.34 122.4 144.38 127.6 143.32 131.84 141.72 132.76 140.84 135.41 136.03 137.22 128.65 139.15 125.62 145.95 124.27 150.98 120.84 152.6 118.43 154.9 113.83 155.84 110.33 156.66 102.54 156.49 98.87 159.79 97.77 168.41 93.24 172.65 91.32 176.47 91.47 177.87 87.46 179.06 80.8 179.16 76.25 177.59 68.9 174.75 62.36 174.69 57.65 177.14 60.02 182.52 61.61 188.95 60.37 193.63 59.76 199.71 57.64 201.65 57.55 211.31 59.09 222.2 58.61 224.76 60.46 227.01 63.06 228.33 65.4 231.6 68.85 236.98 69.37 244.31 71.07 245.72 72.11 249.48 77.26 251.83 78.71 254.21 79.3 257.45 79.01 262.39 77.97 264.72 78.2 268.18 79.28 276.41 79.67 280 81.15 280.51 84.55 283.67 87.54 287.65 90.7 294.31 93.53 298.66 93.83 304.7 92.78 309.98 94.14 312.2 98.17 314.9 100.57 315.71 106.12 319.22 109.53 323.72 108.95 326.15 111.07 328.57 111.82 331.27 111.07 331.33 112.53 333.95 116.3 337.59 117.12 355.43 122.16 356.44 123.57 355.63 127.14 355.84 129.66 355.73 136.82 356.38 139.72 366.34 140.1 367.52 141.34 383.06 149.22 383.18 151.16 385.43 152.15 390.48 153.65 397.16 157.56 403.98 161.25 411.87 165.19 439.73 174.03 442.75 172.35 458.64 162.85 460.26 161.05 462 157.09 461.88 152.05 462.75 148.69 462.6 140.13 462.79 135.61 462.48 118.92 462.52 112.65 465.89 99.7 471.12 80.58 474.6 66.92 474.54 64.11 473.21 58.87 467.04 47.84 465.57 43.59 465.31 41.71 466.45 34.43 466.31 31.95 465.07 26.34 465.95 24.11 469.46 22.57 474.98 18.45 476.6 17.65 482.52 13.38 497.32 9.2 517.63 3.3 527.4 1 532.42 2.06 535.82 2.17 541.2 2.83 554.77 4.84 560.99 5.37 563.82 6.09 572.32 9.45 578.86 11.78 587.91 15.5 592.4 17.09 597.82 19.96 601.23 20.47 608.95 24.4 610.55 24.38 613.47 22.99 615.2 23.37 617.8 24.98 623.16 27.49 624.97 28.02 632.17 26.38 634.78 27.5 636.14 31.66 638.62 33.91 638.29 45.7 638.61 52.13 639.28 57.36 641.3 60.76 641.62 63.91 643.09 66.64 649.1 70.75 652.21 72.41 653.11 73.88 653.15 77.4 654.47 80.94 659.59 83.58 662.71 85.88 664.7 88.54 668.44 91.87 671.56 95.14 673.07 97.95 677.62 103.75 681.2 107.32 689.25 116.7 697.24 125.31 700.78 129.64 703.04 131.5 708.38 138.36 710.22 143.07 711.64 145.31 712.97 148.95 714.64 152.04 717.83 159.18 718.02 160.55 717.63 172.11 717.27 178.02 717.85 180.96 720.76 184.24 722.5 185.24 727.47 186.49 730.49 188.96 730.95 191.07 735.56 197.55 739.19 199.63 741.86 202.73 756.47 216.35 759.36 219.35 764.79 229.83 765.11 234.07 765.93 237.39 770.81 242.35 770.95 244.59 Z"/>
</g>
</svg>