<?xml version="1.0"?>
<svg xmlns="http://www.w3.org/2000/svg" version="1.2" baseProfile="tiny" width="800" height="1348" viewBox="0 0 800 1348" stroke-linecap="round" stroke-linejoin="round">
<g id="4206900">
<path d="M 750 266.39 750.46 269.65 748.5 281.02 752.18 286.86 759.19 291.96 758.62 299.01 760.49 303.43 766.77 310.36 769.36 315.1 770.45 322.84 773.7 334.59 774.69 347.06 776.54 352.6 777.16 366.17 778.53 374.3 778.34 377.14 779.36 383.3 780.57 401.02 779.76 406.19 775.58 419.13 766.98 433.59 763.83 442.95 763.85 448.92 760.87 457.95 760.86 461.42 768.7 465.72 771.23 468.56 773.41 485.34 772.82 494.5 774.26 505.44 770.09 517.68 762.03 544.51 759.19 560.71 753.6 569.26 748.54 574.41 737.76 583.73 735.53 587.66 735.82 596.82 732.17 604.56 729.17 608.89 728.27 614.88 729.34 624.8 733.41 640.16 734.93 643.96 734.39 648.47 735.31 650.95 738.76 655.82 742.88 664.65 742.52 673.64 740.52 677.73 743.6 689.1 743.46 694.35 741.6 700.22 742.82 702.34 741.71 707.43 743.29 710.29 742.26 713 742.01 718.08 743.81 722.51 741.3 724.25 739.16 727.28 734.37 728.93 730.78 731.67 730.36 733.95 732.22 737.76 731.88 741.96 727.54 747.18 725.12 748.93 725.89 751.89 724.8 755.27 725.46 757.29 728.32 758.4 730.24 762.27 735.71 764.84 738 772.17 738.09 774.26 735.86 779.26 737.32 781.55 737.11 784.3 741.07 789.98 738.48 795.59 739.43 798.05 738.15 801.53 735.76 804 731.58 806.43 719.51 808.7 715.67 812.31 722.55 816.82 723.7 819.66 729.13 822.82 733.83 823.86 735.86 825.71 734.67 829.99 736.54 833.29 733.47 836.46 731.92 840.16 733.15 844.61 728.27 842.19 726.82 837.66 725.13 836.57 718.56 836.59 713.96 838.82 706.13 840.93 706.6 843.77 712.33 850.74 715.78 858.7 724.35 867.31 728.74 874.24 739.29 881.53 738.85 884.78 732.06 881.36 729.36 881.52 724.54 887 724.02 890.92 727.23 891.42 732.34 888.31 734.72 889.9 730.78 895.23 732.25 897.87 737.5 901.05 738.08 903.4 740.89 906.19 742.44 910.86 744.85 915.58 744.04 918.4 739.76 921.44 739.2 922.81 738.97 930.24 736.84 930.8 732.31 936.69 727.08 936.96 720.54 943.63 714.93 947.17 720.09 950.53 720 954.5 721.23 959.2 718.37 964.48 718.4 967.59 716.79 971.29 717.61 975.55 720.7 978.26 725.15 979.33 730.48 982.78 730.44 986.7 732.81 990.82 740.34 998.29 743.87 1006.49 749.13 1010.85 752 1022.2 757.37 1026.23 762.51 1028.07 765.23 1028.07 769.13 1030.04 769.97 1031.69 769.22 1037.21 772.36 1039.45 782.01 1038.21 787.1 1042.22 787.11 1044.35 783.08 1046.11 785.46 1048.92 784.46 1052.35 791.29 1051.68 795.74 1052.14 799 1058.73 794.75 1062.18 792.06 1065.98 787.86 1069.87 781.97 1080.84 780.43 1089.02 781.14 1092.56 783.31 1095.8 785.6 1101.6 786.82 1107.76 785.11 1127.87 784.54 1130.58 785.96 1134.41 789.18 1138.77 789.79 1145.36 789.35 1150.78 786.38 1154.66 781.37 1154.75 778.86 1153.81 769.05 1148.25 763.77 1141.97 762.23 1136.19 758.78 1132.47 744.31 1124.59 738.58 1119.75 731.9 1115.13 726.63 1112.95 724.1 1111.11 721.74 1103.91 719.42 1100.47 713.65 1096.05 706.88 1084.62 702.79 1082.17 696.14 1079.75 688.53 1079.03 677.52 1074.84 665.28 1070.87 660.11 1064.69 655.61 1061.05 646.72 1055.9 645.25 1053.63 639.34 1048.32 629.48 1040.44 625.46 1038.99 610.73 1034.74 599.8 1034.11 585.18 1031.73 582.9 1030.94 576.78 1034.56 572.01 1039.19 568.79 1043.75 560.12 1051.19 547.26 1051.45 525.52 1052.54 515.19 1055.92 509.46 1060.09 502.52 1061.8 496.71 1060.27 492.61 1058.4 490.72 1055.9 489.31 1051.07 487.7 1048.73 480.55 1043.18 479.63 1040.85 476.19 1039.13 463.29 1039.6 458.68 1040.61 455.34 1042.56 450.66 1047.39 450.54 1051.75 452.28 1055.9 457.01 1061.45 458.15 1064.54 462.63 1068.49 468.68 1076.48 471.3 1078.92 477.08 1081.45 483.37 1087.93 490.45 1092.87 495.23 1097.46 500.72 1100.63 505.31 1105.68 506.82 1108.71 512.45 1123.03 517.6 1131.53 521.9 1133.9 531.28 1140.17 540.1 1149.27 546.47 1154.62 549.94 1159.09 551.41 1162.76 555 1168.63 556.89 1173.57 556.91 1182.72 557.96 1188.63 557.86 1193 555.74 1197.52 549.77 1199.95 541.12 1199.45 536.05 1196.91 531.57 1192.5 525.88 1185.28 521.73 1182.87 514.36 1182.45 510.71 1183.53 500.5 1188.05 494.05 1188.71 488.49 1190.96 480.58 1196.14 473.03 1205.96 462.7 1216.85 458.81 1222.9 458.39 1225.41 463.19 1230.91 463.84 1241.69 468.67 1249.74 469.23 1253.74 469.29 1261.61 469.98 1267.74 466.92 1278.56 462.43 1285.63 460.28 1287.74 460 1290.24 461.31 1300.17 458.82 1307.3 461.82 1314.38 465.14 1318.52 474.64 1326.48 475.85 1329.07 475.24 1331.57 469.4 1336.43 464.49 1342.58 460.35 1345.46 455.43 1347 450.98 1346.95 446.29 1345.2 438.5 1340.49 428.66 1332.38 423.33 1331.07 419.7 1333.49 414.63 1333.36 411.89 1334.4 408.57 1330.88 408.86 1323.22 404.09 1319.26 398.47 1320.19 392.82 1319.41 393.21 1317.29 396.51 1316.38 397.1 1314.67 395.17 1309.51 394.47 1299.95 397.09 1294.74 400.99 1290.85 401.97 1283.59 403.5 1280.54 399.78 1277.9 395.33 1276.21 394.77 1275 386.6 1268.16 383.36 1267.04 381.87 1263.75 379.92 1264.24 378.07 1259.38 372.46 1252.32 373.05 1250.1 368.53 1247.13 365.48 1246.22 362.72 1243.9 361 1246.1 357.56 1244.02 355.8 1241.34 350.94 1243.07 347.77 1242.87 345.44 1244.81 340.91 1246.63 339.57 1244.32 335.54 1245.07 332.91 1242.1 327.96 1238 325.63 1239.76 321.82 1236.98 320.7 1234.43 316.99 1232.79 308.93 1231.58 304.09 1231.61 297.34 1232.87 293.88 1234.7 287.79 1234 285.55 1235.32 279.41 1237.2 281.6 1241.94 280.68 1243.9 277.58 1242.25 276.23 1236.19 271.2 1238.06 269.51 1241.67 266.23 1245.36 263.95 1245.22 260.19 1247.5 261.13 1250.96 259.17 1253.9 260.49 1258.48 255.72 1258.24 255.04 1261.61 250.17 1262.64 245.57 1266.15 242.25 1265.35 239.43 1262.54 237.66 1262.67 232.86 1265.46 230.7 1268.67 226.65 1266.9 220.18 1267.96 216.89 1271.77 213.17 1271.68 210.84 1273.75 208.52 1271.93 205.69 1274.45 199.37 1275.58 195.07 1278.33 188.14 1273.19 186.27 1274.44 181.76 1274.97 177.73 1276.91 177.04 1279.83 172.21 1284.11 167.61 1285.43 163.15 1288.58 160.9 1291.18 157.17 1291.52 151.31 1293.93 151.15 1295.55 146.58 1295.51 142.85 1298.37 138.78 1300.21 132.33 1301.37 128.78 1305.15 122.19 1303.66 115.16 1303.41 108.49 1300.1 106.08 1299.7 103.26 1301.55 99.12 1302.33 91.98 1302.31 86.54 1301.51 82.82 1299.25 79.98 1298.7 76.63 1299.62 62.22 1300.56 51.24 1302.22 46.97 1299.01 42.5 1297.77 41.59 1295.13 44.63 1292.8 46.86 1289.62 48.01 1285.07 52.53 1283.97 56.19 1280.82 56.02 1272.27 57.01 1268.27 59.13 1264.01 58.45 1257.5 53.28 1254.07 52.98 1251.3 54.4 1249.92 65.25 1242.89 71.99 1244.67 73.21 1242.4 71.48 1239.09 68.85 1237.17 59.91 1234.88 58.03 1233.41 56.32 1229.47 50.72 1226.81 46.87 1222.44 38.84 1221.26 34.18 1218.03 34.44 1213.53 37.35 1210.21 34.37 1202.92 31.17 1192.54 31.17 1185.56 32.98 1175.84 32.03 1169.11 34.05 1159.7 33.6 1145.88 35.83 1140.25 37.13 1134.33 39.08 1132.72 43.64 1131.8 48.81 1129.78 57.16 1123.6 64.35 1116.52 70.47 1112.17 72.25 1109.33 72.93 1102.76 74.88 1096.55 82.41 1091.56 82.89 1082.57 87.12 1078.46 94.02 1074.73 96.96 1071.56 106.57 1065.9 109.47 1063.52 116.9 1054.63 125.41 1048.63 127.26 1045.87 128.44 1041.38 131.08 1039.54 138.59 1037.43 138.59 1033.87 133.85 1027.28 130.03 1024.38 121.33 1009.36 115.66 1005.54 105.52 992.76 101.7 985.11 97.61 979.18 93.53 974.72 87.73 964.16 86.15 962.18 82.27 960.22 81.2 957.18 64.86 855.79 63.49 854.24 59.52 846.37 52.51 837.21 49.22 830.59 48.23 826.18 44.08 819.73 41.44 808.88 37.65 800.28 36.29 792.89 36.73 774.27 37.48 767.91 40.84 751.74 43.3 742.62 45.89 734.64 44.53 728.63 42.46 724.62 37.97 720.03 27.15 711.66 21.14 704.73 18.76 698.35 17.7 692.39 15.8 685.58 13.32 680.38 10.26 676.04 6.49 669.16 1 657.22 3.38 654.21 6.8 651.59 7.45 647.95 10.64 646.24 12.59 648.03 17.38 649.53 20.32 653.34 25.5 653.59 29.65 656.02 35.05 655.4 36.49 651.61 38.73 648.99 39.05 644.33 44.06 643.81 46.44 642.51 49.68 643.39 54.93 643.4 59.13 645.36 62.61 643.56 62.53 632.76 65.91 631.48 69.92 628.32 73.84 627.31 77.62 621.21 87.15 618.13 96.74 613.61 103.14 611.57 109.24 608.6 107.71 602.59 107.36 598.69 108.22 595.89 111.81 592.52 112.8 584.06 112.42 581.31 116.02 579.15 121.19 574.98 123.65 571.49 124.4 568.1 127.99 560.67 125.22 558.4 127.75 554.83 131.2 553.46 134.51 549.9 130.98 539.7 133.41 535.84 133.33 530.88 130.26 527.76 127.81 519.27 130.49 515.41 134.82 513.1 137.46 510.79 139.04 507.75 141.47 497.91 142.32 486.84 141.14 484.7 136.89 481.74 138.39 471.73 138.35 467.47 133.31 459.9 133.37 456.98 136.04 451.75 137.7 446.44 134.66 441.66 130.12 437.81 128.24 434.48 128.73 428.42 132.04 421.8 132.32 412.5 131.55 408.84 129.93 406.45 126.34 404.55 124.15 400.11 123.66 391.38 124.44 386.31 126.83 378.21 128.24 365.52 127.53 363.06 124.44 360.04 123.24 355.39 126.03 350.65 128.94 347.36 130.49 338.57 132.03 335.58 136.4 332.74 138.92 329.82 142.48 320.5 148.96 311.34 151.15 306.89 155.36 300.89 159.58 292.87 164.88 285.98 170.34 277.85 170.07 268.8 173.76 256.6 177.52 253.06 180.36 246.95 182.67 245.13 187.73 242.98 190.04 240.55 191.68 236.93 194.66 233.62 199.85 230.1 210.66 225.28 216.29 224.42 219.42 221.93 221.39 218.2 228.65 213.85 235.29 212.07 239.3 209.43 244.08 203.03 244.76 200.73 248.5 193.76 254.37 186.9 260.01 182.53 265.47 172.07 271.55 169.07 274.83 160.36 288.44 150.84 293.35 144.8 299.54 138.69 300.93 135.67 313.4 118.87 313.52 113.56 304.77 89.45 303.07 83.69 306.27 73.16 308.13 65.42 308.46 61.69 307.81 55.12 309.23 52.13 308.94 48.32 307.65 44.31 314.01 36.89 314.21 25.53 312.79 24.25 312.55 21.09 316.4 17.76 317.15 14.38 316.32 9.43 317.92 5.72 316.83 1 328.47 3.57 332.36 5.7 334.02 8.7 335.52 14.34 341.31 16.32 349.05 14.77 355.8 15.95 359.31 19.59 360.47 27.18 361.92 30.42 364.83 31.63 370.24 30.23 374.98 32.8 383.86 35.5 388.59 41.49 389.56 46.25 394.96 49.54 401.55 49.57 411.68 51.03 415.25 52.33 425.25 59.5 426.51 66.35 432.63 68.25 437.49 67.69 441.64 71.21 442.71 73.63 449.44 75.55 453.78 75.38 456.65 77.94 458.27 85.32 459.47 86.52 469.98 84.58 476.5 82.65 482.9 83 490.76 86.08 493.27 88.03 496.51 92.65 500.89 95.32 504.13 99.37 503.73 103.14 501.8 108.59 503.57 117.2 507.53 117.65 509.96 119.43 512.27 124.98 511.22 128.87 512.88 133.09 513.45 138.07 517.74 146.46 519.32 151.24 517.3 155.86 517.3 159.59 521.6 161.04 526.13 164.09 531.03 166.19 532.16 171.34 533.7 174.46 540.39 178.8 547.76 182.24 554.71 187.15 567.23 188.69 573.35 186.8 576.27 187.51 579.46 189.76 584.46 194.54 589.29 196.59 596.12 207.52 601.37 213.19 606.45 217.74 609.1 221.6 611.2 227.91 615.58 234.68 620.68 238.45 625.69 240.43 628.1 242.9 633.61 251.58 636.18 252.26 646.72 250.96 654.75 251.14 658.02 251.98 663.95 251.97 668.28 250.88 676.79 252.25 682.36 250.32 694.82 249.53 697.17 249.93 700.65 252.57 707.01 252.2 710.29 252.89 714.26 255.74 724.8 256.26 743.23 262.3 746.1 264.97 750 266.39 Z"/>
</g>
</svg>