<?xml version="1.0"?>
<svg xmlns="http://www.w3.org/2000/svg" version="1.2" baseProfile="tiny" width="800" height="713" viewBox="0 0 800 713" stroke-linecap="round" stroke-linejoin="round">
<g id="4207106">
<path d="M 586.36 212.76 614.43 218.2 750.41 244.52 789.01 296.28 790.77 297.61 792.05 300.79 792.05 304.42 790.92 306.72 790.28 309.57 790.52 311.43 791.85 314.19 793.78 314.78 794.75 315.92 794.84 320.76 795.89 322.94 792.03 324.33 789.21 326.48 787.22 330.4 786.56 333.66 786.8 342.37 787.39 351.08 788.22 359.91 788.39 364.68 788.26 370.58 787.63 380.1 786.68 391.91 786.41 400.64 786.74 408.09 788.57 415.24 788.87 418.99 788.47 423.26 787.11 428.79 784.73 434.12 781.75 437.67 778.34 441.04 772.36 445.34 772.45 449.39 772.9 451.19 772.41 453.77 766.21 459.54 764.84 462.81 762.06 462.21 759.14 464.07 756.67 464.75 755.11 466.17 753.77 466.29 751.68 468.24 735.14 482.17 732.16 486.94 717.67 512.95 707.69 525.51 704.59 529.6 703.42 533.07 712.16 536.15 719.37 544.38 729.34 552.46 730.63 554.03 737.1 559.37 737.96 559.34 751.84 570.81 760.97 577.86 774.09 588.57 784.63 596.93 790.15 599.88 799 604.31 797.91 611.11 796.34 616.76 795.73 620.14 793 626.21 790.9 628.49 787.08 631.8 779.21 639.73 778.34 640.9 769.94 648.91 766.56 652.65 761.62 654.71 755.88 655.15 751.99 657.74 748.05 662.42 742.15 667.86 739.46 668.97 732.18 669.1 723.2 667.5 719.75 666.16 713.4 665.73 707.74 667 704.23 668.46 702.79 669.63 699.58 673.96 697.11 676.37 691.83 682.7 686.54 689.31 683.46 692.54 680.07 698.41 678.07 700.46 675.24 702.39 671.63 703.58 668.32 705.66 657.96 710.69 654.18 712 651.09 710.89 639.73 710.21 635.29 709.73 632.15 711.33 629.38 711.32 625.15 710.26 622.41 710.77 619.94 710.37 614.79 708.91 608.6 706.1 604.17 705.91 600.48 706.28 596.83 707.56 591.42 710.21 505.55 700.42 476.87 586.18 468.06 551.11 468.79 536.78 469.6 535.26 471.79 533.37 475.53 527.34 478.15 516.76 479.51 514.35 481.35 514.46 490.17 516.87 491.83 516.15 492.69 509.98 493.66 508.8 494.18 502.6 485.13 505.65 478.33 507.4 456.17 511.44 444.69 512.89 430.42 513.27 429.02 511.19 428.64 507.81 429.66 507.68 429.33 503.94 427.08 504.74 426.2 503.46 424.82 496.13 425.98 493.62 425.84 491.81 427.19 489.6 426.95 488.32 425.2 488.16 420.17 486.44 417.24 484.91 411.13 480.62 408.38 478.32 405.82 474.72 398.08 468.57 396.36 465.85 387.45 464.2 380.65 463.63 378.35 463.83 375.3 461.25 374.35 459.85 373.51 455.65 367.84 454.51 363.62 455.12 356.76 450.29 356.09 449.12 352.88 447.65 346.81 446.94 327.65 445.53 324.03 443.43 322.47 441.01 320.16 439.09 318.62 438.48 318.53 436.99 317.18 435.73 315.19 432.51 313.95 428.88 314.95 425.46 314.86 422.82 313.06 421.02 313.94 419.26 313.13 414.31 310.67 413.38 309.31 411.49 302.07 409.59 301.79 405.51 300.42 403.6 298.23 402.08 294.58 397.72 292.32 396.26 293.14 392.55 292.17 389.92 287.15 387.5 282.21 384.19 279.45 382.82 276.32 380.41 272.13 374.82 268.14 373.59 265.71 371.65 261.45 369.38 259.32 366.45 257.98 359.84 257.83 356.42 256.47 353.89 251.52 352.63 248.72 351.54 244.18 352.32 242.97 353.61 240.48 353.64 238.32 348.49 233.64 342.61 227.06 340.35 220.83 336.53 219.05 334.58 219.19 332.7 218.52 321.54 217.96 319.66 215 315.94 213.8 315.2 208.93 314.55 203.8 312.69 201.24 312.33 199.31 311.44 196.34 308.53 192.61 305.47 191.79 303.46 191.74 296.23 190.31 290.88 191.07 286.37 189.8 285.03 186.46 284.6 185.03 282.71 183.6 279.32 182.87 278.82 176.45 278.35 171.09 275.37 165.84 275.67 163.78 276.33 162.69 278.4 159.42 281.6 157.81 281.61 156.55 280.1 151.2 277.31 146.86 278.01 145.16 276.63 141.61 274.65 139.15 270.55 133.55 265.4 130.76 265.75 128.24 265.16 126.91 263.96 123.79 263.98 119.87 262.58 117.54 260.84 113.24 256.59 111.99 256.06 107.62 257.79 102.43 261.89 99.1 265.11 97.02 268.83 96.12 269.4 91.73 268.63 88.11 267.14 83.88 266.59 81.46 265.37 77.89 262.69 75.68 262.15 74.13 262.52 73.23 261.19 71.39 260.83 66.83 258.79 63.79 258.02 62.63 256.96 61.12 253.98 60.45 250.59 59.83 249.99 54.63 249.09 52.26 246.54 51.58 244.23 45.69 241.6 43.62 239.63 38.29 240.5 37.16 239.63 27.76 236.69 24.33 233.99 20.69 232.05 19.53 230.37 16.75 224.43 15.54 222.55 15.57 220.62 16.91 219.94 17.34 216.55 16.05 213.73 17.43 212.28 20.89 211.17 22.98 209.32 25.78 208.77 28.17 207.4 30.23 205.08 35.16 202.55 32.75 201.02 31 199.05 27.51 197.38 23.14 195.97 18.67 195.15 14.96 193.47 11.92 192.69 8.54 191.02 6.59 189.51 5.86 187.77 6.65 184.64 5.41 181.78 1.24 178.67 1 177.66 2.1 172.98 2.46 164.96 4.01 161.41 6.24 159.27 8.59 158.75 13.57 155.64 16.04 155.14 18.16 154.05 20.87 149.28 23.08 148.11 25.58 145.64 26.74 145.55 24.07 140.96 23.59 139.25 23.9 136.9 28.38 133.04 30 131.98 29.24 129.97 29.47 125.46 31.98 123.69 35.3 122.65 38.43 120.07 39.14 117.39 41.69 113.53 45.73 111.69 47.75 109.75 51.54 108.35 54.2 103.96 56.31 102.75 60.46 96.63 64.38 94.08 69.53 92.56 78.35 92.38 84.18 90.74 88.81 89.94 91.09 91.03 97.42 92.25 99.42 91.92 104.78 91.98 112.58 87.94 116.58 86.21 117.47 87.93 120.95 89.96 127.42 84.34 128.75 81.79 131 80.29 132.8 77.43 136.16 74.95 138.45 72.64 142.81 71.31 145.23 69.56 146.82 69.35 150.67 72.66 153.63 72.26 157.09 74.15 159.8 74.94 162.52 75.06 164.31 74.07 170.5 71.66 171.88 69.92 175.14 66.97 176.92 64.52 180.01 63.97 181.03 61.22 188.07 60.85 191.53 60.3 194.31 58.33 197.87 56.7 200.82 54.6 203.83 53.47 206.75 53.47 209.07 54.02 213.42 52.88 216.11 50.09 217.53 47.5 219.06 46.04 221.79 44.98 222.62 41.73 223.89 40.29 225.99 40.11 227.4 38.69 228.24 36.08 231.24 33.17 240.9 30 249.03 25.79 253.92 22.56 260.74 20.29 263.5 15.88 266.17 15 269.69 14.47 272.4 11.38 276.13 9 280.73 8.87 284.25 9.72 286.27 13.21 289.68 9.63 292.96 6.79 294.41 4.99 298.35 4.18 298.93 4.73 303.8 5.17 308.21 4.4 309.63 2.95 313.14 1 418.21 78.99 500.91 140.38 528.15 169.89 532.44 172.83 534.95 178.31 536.61 178.76 540.43 178.35 545.1 178.3 547.13 180.49 548.34 181.03 552.91 181.47 554.28 182.81 557.73 184.67 561.32 185.93 566.73 189.53 569.34 194.45 568.99 195.73 570.34 197.19 568.4 199.16 569.82 199.87 572.79 200.04 577.47 202.61 577.8 204.83 579.38 206.3 580.6 208.63 581.15 211.41 584.22 211.2 586.36 212.76 Z"/>
</g>
</svg>