<?xml version="1.0"?>
<svg xmlns="http://www.w3.org/2000/svg" version="1.2" baseProfile="tiny" width="800" height="843" viewBox="0 0 800 843" stroke-linecap="round" stroke-linejoin="round">
<g id="4207007">
<path d="M 784.52 61.51 785.33 69.09 793.17 87.98 798.23 101.2 799 105.23 798.38 108.88 793.78 119.6 791.98 124.68 789.44 130.54 786.01 139.9 777.34 161.99 772.57 175.15 772.7 179.63 774.04 185.78 777.56 199.55 778.5 204.63 779.66 208.2 780.97 214.73 783.54 224.99 783.59 227.17 781.17 233.28 776.92 238.26 777.56 240.04 777.79 246.41 776.49 248.8 774.9 249.42 772.49 247.77 769.82 249.44 768.07 249.5 763.54 246.79 757.94 248.22 754.68 248.43 748.36 249.64 746.05 250.92 743.8 254.21 737.12 261.19 731.09 272.84 726.56 277.22 720.81 279.25 714.6 279.21 709.74 280.48 708.28 284.19 705.18 287.32 695 293.46 692.19 296.03 689.66 299.78 685.29 313.26 684.22 314.95 680.58 318.12 678.87 321.6 678.89 326.26 677.15 329.04 673.74 332.61 671.06 334.18 668.3 334.05 665.23 335.7 664.77 341.53 665.07 343.4 668.97 348.76 674.11 352.44 676.89 353.47 683.11 354.25 687.13 355.95 689.64 358.09 691.84 361.79 697.73 368.54 700.76 372.97 697.77 374.31 691.6 372.43 690.86 373.86 692.81 375.12 694.7 379.21 688.08 382.11 684.05 386.02 677.6 386.86 676.56 385.16 677.14 381.73 676.29 379.01 673.05 375.92 669.83 376.67 662.95 384.57 655.76 391.79 649.2 401.01 649.2 405.8 648.49 410.44 648.8 412.89 650.13 414.74 653.09 415.76 660.68 416.56 664.29 417.9 666.3 419.93 667.04 423.25 670.73 428.83 671.05 431.19 669.78 433.09 665.03 435.97 663.2 439.17 663.04 441.74 663.92 445.18 663.55 450.64 661.79 456.04 658.97 459.75 646.25 449.69 643.27 445.61 641.45 439.17 639.32 434.71 635.61 429.82 632.84 427.91 630.18 427.31 628.1 427.8 621.21 426.98 614.99 429.82 607.36 437.61 605.16 439.21 600.24 440.52 596.82 445.46 588.54 445.52 584.22 443.8 576.02 447.01 571.43 453.31 568.45 453.73 564.41 452.88 561.54 449.59 559.1 450.22 557.72 453.52 554.74 455.54 548.69 455.43 542.84 453.94 540.19 452.46 536.89 449.69 533.36 448.64 530.41 453.73 528.82 455.32 519.82 459.03 518.1 460.48 513.67 460.69 507 462.66 500.48 467.62 498.15 470.2 496.49 480.68 497.2 484.33 499.23 488.09 498.67 491.94 500.52 496.58 500.23 498.5 493.89 503.65 489.77 509.32 485.26 512.33 485.76 519.05 484.92 521.09 485.76 527.34 483.8 532.5 481.85 535.24 478.99 537.3 475.7 541.94 472.81 542.94 468.06 541.37 462.42 541.52 459.09 542.73 459.41 546.92 460.6 554.5 458.48 556.51 451.61 566.75 448.51 571.76 440.86 577.4 431.64 581.03 426.64 582.34 421.1 586.1 417.93 585.9 416.35 587.09 412.59 587.68 410.02 591.25 404.48 592.43 400.12 596.39 392.01 599.36 391.22 603.12 389.24 604.51 382.91 604.9 369.25 617.77 363.71 625.49 364.31 633.01 347.69 641.52 344.72 642.7 344.52 645.47 341.35 647.45 338.58 650.42 335.42 649.63 330.67 651.21 330.67 654.38 329.09 659.92 326.91 662.53 324.93 661.7 319.19 661.7 316.62 660.91 314.24 661.5 315.83 663.59 315.63 666.65 312.07 667.24 311.28 668.63 309.69 675.75 307.71 678.52 308.11 682.28 306.13 683.87 303.76 687.23 302.17 687.43 297.82 690.2 296.44 692.97 292.87 696.53 287.53 697.52 285.75 701.28 283.57 702.27 280.61 709.2 274.08 710.78 269.13 710.58 265.57 711.57 261.21 710.98 258.05 712.17 257.65 715.53 254.49 718.9 254.29 721.27 257.26 721.67 258.64 723.84 258.44 728 257.65 728.79 257.45 732.58 257.85 740.39 256.86 742.84 253.5 743.24 250.53 747 247.56 749.18 247.76 752.54 248.75 753.53 247.96 755.71 243.8 759.67 239.45 762.44 239.05 764.61 236.88 766.79 232.13 768.77 224.41 773.12 219.46 772.13 216.89 774.31 216.89 775.89 212.34 778.86 209.77 781.24 204.42 784.4 198.29 790.14 193.91 790.73 183.25 795.73 165.51 799.2 175.07 808.99 159.68 816.03 133.25 829.46 119.83 842 25.21 799.8 14.01 587.26 12.83 562.53 10.37 521.39 8.73 498.09 4.84 430.73 1 367.82 94.54 363.59 95.25 358.18 99.01 325.13 103.2 286.45 108.1 244.6 110.62 221.54 112.58 204.72 112.48 197.96 113.56 187.94 114.93 183.68 114.3 178.83 113.37 176.18 110.89 172.11 109.12 164.06 109.52 145.98 108.16 132.28 108.33 125.93 107.78 116.03 108.24 95.75 107.51 72.96 106.91 72.98 106.79 56.7 107.09 38.41 116.06 37.45 121.09 38.48 128.14 42.15 132.47 44.02 135.88 44.22 145.44 43.35 149.36 42.3 151.56 41.02 155.77 37.13 157.35 36.45 160.58 36.88 164.07 40.07 166.8 41.71 170.48 42.25 174.91 41.38 180.43 38.68 182.97 37.87 190.04 37.54 199.25 34.5 202.42 34.14 207.24 36.04 209.33 36.04 212.7 34.87 216.92 30.81 221.62 28.7 228.97 28.52 238.32 32.04 243.36 33.03 265.88 36.88 271.53 38.45 280.58 42.38 285.07 42.6 294.78 39.53 297.88 39.66 305.07 43.1 310.76 44 326.07 42.51 339.64 39.33 347.6 39.38 350.53 39.75 356.07 42.33 358.73 42.33 379.05 32.05 386.18 28.18 393.57 28.68 398.96 25.21 403.26 21.22 407.84 18.75 417.76 16.3 421.51 16.66 427.04 18.04 441.94 18.43 454.52 18.41 492.01 18.65 494.38 23.76 497.4 26.62 501.22 28.39 504.78 28.82 508.95 28.31 512.79 26.74 518.15 21.62 520.82 19.95 526.1 18.58 541.79 16.72 548.42 14.42 553.91 11.07 557.83 7.87 563.72 4.99 570.01 3.37 575.1 3.82 590.86 4.22 611.81 1.68 615.01 2.12 616.52 1.37 620.92 1 625.07 2.07 627.4 3.29 633.49 9.42 642.89 14.23 669.31 27.47 677.77 31.15 682.3 33.46 686.52 36.97 702.52 56.22 704.89 58.41 710.41 60.5 715.42 60.22 717.87 59.44 725.64 55.41 728.61 54.32 736.99 62.22 745.86 67.52 752.45 63.49 759.7 59.67 764.07 58.13 768.26 57.46 777.16 58.04 781.05 59.23 784.52 61.51 Z"/>
</g>
</svg>