<?xml version="1.0"?>
<svg xmlns="http://www.w3.org/2000/svg" version="1.2" baseProfile="tiny" width="800" height="673" viewBox="0 0 800 673" stroke-linecap="round" stroke-linejoin="round">
<g id="4207403">
<path d="M 720.09 594.81 721.86 595.93 723.19 601.75 725.39 608.65 726.84 611.78 727.49 615.92 731.57 625.27 731.26 629.64 732.89 632.74 738.45 637.5 743.89 645.22 746.14 646.17 757.24 645.72 762.15 644.93 767.76 643.5 772.74 639.5 775.87 634.76 779.53 631.3 781.62 630.88 784.89 632.54 792.03 640.69 796.46 643.26 798.48 645.45 799 648.55 793.5 643.89 791.04 642.72 786.79 642.18 782.16 642.33 779.44 643.03 778.39 644.36 775.33 645.74 771.98 648.13 766.63 649.56 763.64 652.58 759.62 658 752.6 663.38 743.81 666.21 740.7 667.98 736.86 667.92 731.3 670.23 724.28 669.89 719.61 672 717.68 671.49 714.93 669.39 709.92 670.3 701.38 668.06 696.41 662.13 695.5 657.4 693.89 655.65 693.58 653.58 696.98 650.08 691.59 647.23 692.8 646.09 693.54 641.76 690.5 637.98 685.36 637.41 684.44 641.72 677.44 642.18 674.64 641.76 669.5 638.71 666.49 633.28 662.91 623.95 659.41 619.53 652.88 617.45 647.46 613.41 645.02 610.03 641.14 606.01 637.46 600.66 634.83 599.81 627.01 600.66 622.62 597.99 618.45 592.65 616.62 591.54 610.04 589.75 604.58 588.92 598 585.86 591.03 578.57 588.53 575.21 584.58 572.35 577.65 568.3 566.02 557.53 564.76 555.72 561.19 552.55 552.17 552.53 538.48 555.09 535.45 556.9 529.19 558.8 523.71 558.74 518.84 557.54 515.1 558.18 510.05 560.55 506.58 560.31 499.21 562.82 495.79 563.24 491.32 560.69 489.74 558.04 484.92 558.98 480.34 558.95 477.49 555.5 473.67 553.66 471.86 551.37 467.33 548.91 465.43 545.4 456.86 540.32 455.31 538.33 449.15 534.94 445.97 532.33 441.38 532.22 436.86 533.37 433.34 534.97 429.72 535.72 423.7 535.16 421.4 535.55 418.78 538.16 417.47 540.88 414.72 540.81 412.18 541.72 411.2 545.12 412.8 545.55 413.61 548.26 413.12 551.23 409.35 554.3 408.49 557.03 403.09 557.56 399.58 556.92 396.06 554.94 390.74 555.14 387.97 554.4 382.25 555.66 377.34 557.63 375.04 556.28 374.38 559.04 372.72 560.07 368.89 560.31 364.46 561.28 357.77 559.21 354.24 557.43 354.11 556.43 357.52 554.24 357.11 552.28 353.95 551.66 352.34 550.22 348.85 550.22 344.23 547.19 343.25 544.95 342.97 543.09 340.75 540.78 340.87 536.96 339.97 532.68 337.61 535.56 333.35 537.25 331.65 538.72 329.17 539.14 321.02 537.51 317.35 536.06 312.17 538.45 309.09 538.55 306.99 540.18 302.52 542.08 298.24 543.21 293.26 545.39 285.44 551.18 277.02 559.29 270.67 562.11 267.52 562.25 263.88 561.33 261.7 557.19 261.19 553.79 261.82 548.97 264.58 542.51 266.15 536.86 261.85 534.75 260.35 530.54 260.89 526.85 262.78 524.42 268.37 520.72 270.59 518.5 281.59 515.9 283.69 512.07 289.41 511.03 291.78 509.28 292.2 504.72 293.33 499.96 296.26 497.03 298.35 496.8 302.49 498.58 304.77 500.91 307.53 501.11 309.45 499.62 311.17 495.17 308.24 490.86 307.25 487.93 307.36 483.34 309.76 479.87 312.04 480.3 312.66 481.96 312.92 487.96 315.14 491.06 316.95 496.41 320.24 500.07 322.05 500.41 326.87 498.49 330.13 498.38 333.97 501 336.81 500.89 341.01 494.97 340.81 493.73 336.53 490.94 336.25 487.96 338.25 486.38 342.87 487.11 346.06 485.73 349.24 478.52 352.11 475.84 355.83 475.96 359.41 478.41 363.11 478.32 366.37 475.47 367.25 472.38 374.24 470.01 378.8 470.32 381.73 468.97 382.41 464.8 384.44 463.25 384.49 459.5 387.54 457.7 393.99 451.93 393.26 449.14 388.69 444.86 385.2 440.8 383.17 436.01 384.69 433.19 388.47 433.36 391.4 434.77 397.43 439.56 399.29 442.15 401.99 447.28 404.78 449.98 408.14 451.25 409.97 449.42 410.14 446.69 412.28 440.29 414.83 438.35 414.48 434.94 410.81 431.42 410 427.61 408.42 424.29 404.5 420.12 402.42 415.36 402.61 410.37 405.6 407.61 409.74 406.43 411.52 404.54 410 400.03 410.93 397.56 416.48 393.19 418.87 392.82 424.1 396.66 429.52 403.63 432.42 403.69 433.33 399.95 433 396.01 430.16 392.4 427.07 389.56 425.65 385.18 426.55 381.76 429.58 380.06 434.23 379.84 440.15 376.03 442.66 372.93 441.47 371.19 439.33 371.86 429.95 372.14 425.83 373.13 423.58 372.96 418.76 374.14 414.06 374.17 411.27 375.22 406.22 376.06 402.92 378.46 398.05 380.96 393.23 382.4 391.34 383.47 387.82 387.3 384.38 392.43 380.1 397.02 378.7 399.28 376.75 400.13 373.98 400.01 369.36 403.44 367.22 403.7 363.42 406.57 361.05 410.54 357.78 414.15 354.71 415.36 350.96 418.29 346.14 420.09 340.59 421.61 339.41 425.28 337.24 428.49 336.62 431.5 333.7 435.93 327.88 437.83 326.57 440.06 326.94 444.1 324.36 447.69 319.02 449.37 315.21 447.64 311.89 447.13 308.94 447.43 297.26 446.95 289.24 449 283.89 451.14 281.41 451.14 276.99 452.52 274.76 456.15 267.69 459.9 264.47 459.84 262.02 456.52 259.46 457.9 257.29 460.1 253.32 462.24 249.74 461.34 248.24 458.27 248.95 454.41 247.2 451.08 245.15 450.77 241.14 453.42 237.68 451.5 235.08 446.49 235.84 440.86 239.62 439.33 243.48 437.11 252.95 436.35 258.3 438.52 261.54 437.33 264.98 432.88 265.38 431.33 264.55 425.93 265.18 420.99 261.94 419.39 255.51 419.87 253.71 418.26 255.46 414.46 261.04 410.82 264.98 410.6 266.5 409.13 270.48 403.27 275.24 400.96 277.8 400.6 280.11 402.12 279.89 405.64 281.83 408.23 284.65 408.85 287.58 408.6 290.65 405.67 291.72 400.88 293.63 395.75 300.42 389.91 303.26 389.61 309.26 390.48 305.33 387.53 300.49 387.13 292.37 390.63 288.88 392.88 286.2 391.6 282.21 387.05 279.58 387.06 275.92 384.35 274.78 385.34 272.37 384.77 271.72 383.29 268.31 382.81 265.11 385.06 262.99 384.53 260.08 385.71 258.32 383.89 253.32 384.18 250.2 382.42 247.63 380.03 245.91 377.2 243.28 379.27 241.9 374.44 241.92 371.3 240.77 365.5 237.23 363.36 237.5 361.69 233.16 359.67 232.09 357.23 230.35 356.81 227.43 353.13 224.53 351.23 222.55 352.28 219.85 352.4 216.56 351.53 215.1 350.07 212.12 349.59 209.08 346.83 204.96 342.19 194.51 339.01 192.9 342.9 193.98 348.99 197.42 354.84 198.71 358.3 198.57 359.85 193.27 363.99 189.72 368.67 186.45 374.92 183.75 377.96 180.87 384.64 177.15 389.57 174.42 390.95 172.93 393.26 171.01 398.81 169.46 407.63 165.23 416.84 162.11 419.52 159.43 421.01 150.83 422.36 148.66 423.46 143.11 428.62 133.11 433.91 129.31 437.57 124.4 439.3 118.52 439.27 115.95 438.35 115.11 436.93 109.82 434.03 107.61 430.02 106.03 428.52 102.71 427.8 101.12 425.01 99.95 421.38 96.93 418.99 94.2 419.3 91.06 422.01 87.7 418.35 82.75 417 79.57 418.02 77.12 416.32 74.23 417.57 72.05 416.08 72.85 412.35 69.46 411.23 64.56 406.78 61.06 402.3 55.71 398.1 54.32 397.6 52.77 401.02 51.3 402.18 46.93 403.7 45.81 406.09 45.75 410.54 44.82 411.98 34.45 418.26 30.28 414.49 28.64 413.9 27.07 411.59 30 407.84 28.67 406.06 25.8 405.19 24.25 402.32 22.73 401.39 20.87 397.81 17.88 397.33 13.93 400.96 11.26 400.03 10.72 396.68 11.4 391.98 10.52 389.22 6.97 386.74 6.89 382.48 8.07 377.27 15.03 372.57 15.23 370.14 17.29 367.33 24.33 366.62 25.94 365.75 27.94 362.54 26.95 360.34 22.36 361.27 19.99 358.93 19.4 357.04 19.09 351.75 21.43 347.8 21.6 344.48 23.71 336.37 23.35 334.85 19.68 334.48 18.01 330.56 17.43 326.32 19.01 320.21 20.13 318.58 24.25 317.28 26.02 315 27.35 309.73 30.87 305.03 35.75 302.65 41.24 298.67 34.62 298.03 30.62 296.11 29.15 292.67 27.12 290.73 23.66 290.45 21.26 289.07 19.2 285.88 19.35 281.83 22.05 278.87 24.84 277.85 27.55 278.19 31.1 281.21 33.27 279.94 33.38 276.19 34.2 271.77 37.83 269.68 38.62 267.85 35.94 265.51 35.35 261.94 38 255.54 40.82 253.29 44.57 254.56 46.31 251.32 49.05 251.18 52.77 254.02 55.78 261.6 57.9 263.66 59.28 266.67 61.28 267.18 62.18 260.84 64.55 258.16 67.76 259.37 68.91 263.77 71.28 265.91 76.07 267.83 78.52 273.74 82.69 279.35 85.06 279.52 87.46 276.59 91.97 276.36 93.8 277.97 93.63 280.61 96.25 286.95 97.26 292.14 98.28 293.15 103.04 293.97 104.45 295.24 111.27 303.18 112.71 304.45 117.22 304.42 122.46 305.1 123.56 303.27 118.79 298.64 118.29 296.45 120.26 291.86 119.64 289.32 121.84 287.12 126.26 286.7 127.95 285.43 131.14 281.52 135.28 281.63 138.29 284.45 144.3 283.63 147.88 284.59 151.62 287.09 153.37 289.69 155.82 290.02 159.12 286.62 160.42 284.22 155.48 282.22 153.03 279.09 149.57 277.23 145.25 276.3 142.18 273.77 140.35 273.18 136.12 270.39 135.62 267.8 139.76 263.54 143.45 258.5 144.78 255.82 147.99 253.32 147.26 251.99 141.68 251.51 138.63 253.01 131.39 255.12 125.89 257.2 120.63 260.98 115.1 261.31 108.96 262.56 107.28 264.04 104.22 264.42 100.84 263.01 100 260.19 100.88 254.5 98.81 250.95 101.79 247.81 105.25 247.27 108.06 245.34 109.16 243.68 110.31 239.34 107.8 235.62 104.03 235.65 98.79 239.6 90.7 241.48 86.81 242.72 82.53 245.15 78.38 245.15 75.31 243.29 72.58 239.85 68.63 238.02 66.8 236.02 59.59 231.85 57.81 229 55.25 226.41 53.19 223.09 52.8 219.4 53.7 216.72 58.46 212.55 60.18 209.14 59.98 207.51 57.84 206.89 55.56 207.68 51.44 206.72 49.47 203.54 49.16 197.93 47.64 196.92 45.19 197.45 43.5 199.57 41.97 199.28 40.57 193.28 40.68 183.85 38.71 178.58 39.95 171.08 42.23 166.1 40 161.76 40.28 159.62 44.09 151.62 49.86 146.35 55.02 139.11 54.57 135.93 57.64 132.35 57.36 130.49 58.63 126.56 61.19 124.45 63.62 124.53 69.17 125.8 72.47 123.6 73.2 120.13 70.66 115.04 71.2 105.88 69.76 103.99 67.51 102.78 64.77 103.37 63.87 106.05 61.36 109.29 59.78 110.25 55.11 110.5 54.01 111.2 52.12 115.71 52.32 120.11 51.1 122.14 46.68 123.46 41.44 122.95 39.1 125.85 42.09 134.11 40.68 136.08 38.56 137.12 35.86 140.95 32.7 143.09 31.1 146.36 27.49 148.9 25.4 151.52 16.61 157.65 14.44 160.04 10.92 161.96 6.92 161.74 4.3 159.74 2.58 156 1 154.76 10.8 141.18 15.06 139.02 22.26 138.47 26.15 135.47 31.38 130.13 31.5 125.98 32.91 121.7 36.02 114.91 43.75 109.31 47.69 102.5 49.42 100.44 50.73 96.76 51.38 89.6 53.4 83.18 55.65 79.1 58.63 75.89 60.42 70.16 60.12 65.26 61.91 61.8 66.19 58.49 68.54 55.32 69.97 50.38 70.15 43.96 72.06 35.86 78.2 38.6 84.34 39.38 96.19 38.46 105.8 38.91 112.77 38.34 119.09 37.03 122.1 35.37 126.9 29.25 133.18 26.27 138.96 26.25 145.55 27.3 148.79 27.42 159.78 25.47 163.97 27.01 170.44 32.04 172.96 33.13 177.27 36.23 179.36 36.93 190.58 36.22 194.25 36.75 199.83 38.66 203.43 40.51 208.27 49.18 209.67 53.59 207.36 57.2 207.33 61 210.49 63.86 215.75 65.71 222.74 63.28 224.17 64.76 225.15 72.14 226.68 77.22 225.37 81.75 225.59 83.95 230.44 89.29 233.48 91.07 236.25 95.29 235.21 99.41 232.4 106.94 230.73 110.46 230.04 114.37 230.54 119.85 233.03 125.13 241.18 135.72 242.24 140.86 241.68 143.9 241.81 148.35 240.1 154.65 243.87 152.05 247.93 146.78 251.09 146.13 253.22 143.55 253.46 140.11 254.67 137.74 257.93 135.76 260.59 133.19 261.19 130.08 265.35 124.34 266.11 122.44 266.38 111.87 267.54 106.94 267.12 106.06 269.16 97.9 268.45 96.19 269.21 94.22 272.49 89.94 275.29 87.05 278.62 86.51 281.93 84.73 281.59 83.37 288.36 79.28 288.44 76.04 289.34 72.38 290.6 71.07 338.63 50.67 376.08 92.87 389.26 90.48 389.79 88.4 391.41 87.92 393.75 83.68 398.4 80.88 403.6 80.14 404.08 77.81 405.78 76.48 406.47 72.8 409.49 68.36 412.64 65.63 415.15 64.56 418.73 60.64 424.17 57.43 427.38 54.53 430.48 55.06 433.41 57.34 438.26 62.75 438.46 64.25 435.39 65.96 435.08 69.68 432.57 71.8 433.58 74.33 436.2 76.44 436.17 79.18 430.6 82.87 429.3 84.84 425.35 87.97 427.35 89.99 432.54 90.9 435.7 92.56 440.35 92.22 441.61 93.8 441.13 98.11 439.53 103.12 437.08 105.66 431.78 109.46 429.07 111.97 422.54 115.38 417.91 116.93 417.66 118.93 419.89 122.56 426.65 120.76 434.29 120.05 438.18 122.25 437.84 124.17 433.44 128.96 430.88 132.67 425.55 138 422.34 141.72 422.45 144.65 421.01 150.25 422.99 153.66 423.18 158.62 424.79 160.57 428.62 157.78 428.09 151.77 430.99 146.7 432.93 145.35 437.84 144.51 445.9 138.5 448.69 137.77 453.69 140.11 456.21 140.3 457.11 137.82 454.41 133.91 456.72 129.35 459.98 128.63 463.71 128.74 465.92 129.67 467.68 126.57 469.75 125.01 468.61 120.18 469.93 118.18 475.98 113.5 482.87 104.36 484.4 100.01 481.41 95.31 481.48 93.3 483.22 87.08 484.32 86.66 486.53 88.9 488.62 97.63 488 99.77 491.77 106.7 492.16 112.79 490.99 118.48 493.75 120.34 496.11 124.81 497.8 125.46 499.24 123.64 499.1 118.02 499.69 115.33 501.02 113.74 503.72 113.24 507.5 113.74 511.67 115.88 513.02 115.42 513.47 111.49 510.88 109.69 509.63 107.66 509.98 106.02 503.55 104.73 502.43 102.64 502.65 98.7 504.57 97.33 508.57 96.11 511.08 94.52 509.2 92.34 508.65 89.1 509.13 85.23 507.5 84.11 503.05 83.26 502.43 79.66 500.17 75.99 500.23 73.29 502.03 71.65 505.36 71.26 512.74 72.89 513.86 72.02 511.89 67.88 511.67 63.15 512.91 60.27 517.31 56.55 520.02 55.74 525.37 51.88 521.53 45.4 526.44 38.13 528.07 36.44 533.46 34.64 534.04 33.28 530.83 29.45 529.2 23.31 524.07 17.34 523.62 14.92 525.48 9.73 525.31 7.25 526.94 3.82 530.78 1.34 534.38 1 535.79 4.27 534.61 6.3 535.06 9.28 533.76 10.69 530.44 12.38 529.59 14.07 531 18.07 533.99 23.54 536.73 24.39 541.54 24.89 543.17 27.71 542.95 34.92 541.82 38.58 539.85 41.74 541.43 49.06 539.68 54.24 539.96 55.99 542.78 59.54 544.87 65.01 547.74 70.53 549.83 67.54 550.61 63.6 552.14 60.55 554.11 52.5 555.57 50.75 559.41 48.84 561.38 46.69 562.96 41.62 566.62 38.24 571.81 38.13 573.61 35.93 575.47 30.86 578.25 28.92 581.51 25.3 583.64 25.34 583.5 28.87 585.45 32.89 585.51 35.98 583.47 39.92 578.3 43.39 576.26 47.89 576.31 51.11 574.26 52.49 573.96 54.12 575.29 57.7 570.12 66.29 568.9 70.27 565.78 71.19 563.43 76.1 560.87 77.68 560 79.27 559.49 83.56 557.29 85.19 556.07 89.33 551.36 92.71 548.55 96.64 547.84 101.44 545.64 104.05 544.41 107.17 544.92 108.75 550.03 110.34 551.52 112.53 554.02 119.79 553.66 121.94 554.48 125.95 557.5 127.76 555.45 130.21 549.47 133.13 550.03 135.73 548.65 137.52 551.67 140.79 552.08 142.48 549.47 145.39 549.11 148.1 546.41 151.73 547.17 155.61 546.35 158.01 549.63 158.88 558.78 152.9 562.41 151.93 564.25 149.53 567.31 147.95 572.37 147.23 576.97 147.64 578.51 148.87 572.67 159.22 573.24 160.06 579.17 159.75 582.29 156.84 584.39 155.82 587.66 155.77 590.11 157.45 591.08 160.47 591.13 163.99 588.02 171.81 587.81 177.02 587.04 180.91 584.95 185.35 589.46 184.34 593.23 180.45 594.01 178.31 599.25 171.16 603.99 167.21 607.06 166.07 610.24 169.02 610.02 170.93 606.36 179.61 604.5 182.71 605.06 184.51 609.79 187.33 610.58 188.62 609.38 191.13 607.34 192.87 600.55 195.24 599.57 197.16 598.03 202.73 593.84 211.72 592.21 214.28 588.99 217.14 586.02 217.29 576.72 220.16 574.42 220.51 571.66 223.89 569.04 225.3 564.25 225.47 563.89 228.03 562 230.89 556.42 232.22 551.72 234.36 556.03 236.18 557.83 238.49 559.01 244.8 558.39 248.01 554.67 252.97 555.57 255.16 554.79 258.38 555.01 261.53 553.32 264.01 544.98 272.69 543.34 276.41 542.78 281.48 543.74 284.18 547.68 284.86 551.57 287.17 556.25 285.65 561.21 286.89 564.03 286.44 566.11 287.39 565.83 291.44 563.66 295.8 565.42 297.88 570.58 298.34 578.25 301.36 577.36 305.8 579.43 308.15 576.09 311 569.56 312.15 568.57 314.49 565.19 318.19 558.34 321.37 546.15 323.07 544.92 323.95 535.04 336.43 534.07 341.38 535.38 344.54 535.53 347.01 534.04 349.47 528.53 354.43 526.65 358.96 526.53 361.39 528.22 368.6 531.26 373.52 535.79 377.01 534.96 378.53 530.75 380.53 526.91 383.42 525.75 385.59 524.85 390.76 529.92 401.06 531.18 404.92 536.83 414.35 538.83 420.22 540 426.49 541.11 438.36 539.53 446.69 538.51 453.69 536.89 457.1 533.71 460.14 526.24 464.68 524.55 467.49 523.79 471.94 524.49 486.14 523.55 493.17 525.47 501.32 527.17 504.23 532.02 508.12 536.35 514.72 538.75 516.85 553.19 518.02 560.5 519.09 564.49 521.65 567.08 527.13 570.9 531.22 576.27 534.9 583.95 536.53 594.12 537.35 600.67 537.55 607.82 535.82 611.86 534.23 614.57 531.93 622.9 528.76 627.71 527.69 632.72 527.54 637.96 528.16 641 529.29 646.19 532.56 647.2 534.59 649.43 543.69 654.97 551.83 660.05 558.55 668.4 569.03 673.41 573.69 677.96 580.48 681.38 587.17 682.15 591.42 681.64 594.94 682.41 597.55 686.85 603.53 689.02 604.62 695.08 603.41 701.42 603.38 707.34 604.79 711.45 604.56 713.54 603.44 717.18 597.98 720.09 594.81 Z"/>
</g>
</svg>