<?xml version="1.0"?>
<svg xmlns="http://www.w3.org/2000/svg" version="1.2" baseProfile="tiny" width="800" height="1353" viewBox="0 0 800 1353" stroke-linecap="round" stroke-linejoin="round">
<g id="4207502">
<path d="M 515.23 24.86 512.45 25.29 508.75 23.73 504.49 18.9 503.26 18.46 502.44 21.77 501.71 30.06 502.83 32.49 503.55 36.01 505.63 39.44 511.8 41.82 513.22 42.71 513.39 45.24 512.61 49.38 513.26 52.85 515.07 55.22 522.16 59.27 523.66 60.94 529.38 65.22 533.18 66.51 530.19 68.41 528.33 70.93 525.85 75.4 525.91 79.24 525.05 82.84 522.92 86.81 522.85 88.57 526.1 92.08 527.51 94.9 529.5 100.77 533.73 102.35 536.68 105.58 539.17 107.21 543.98 109.32 548.96 114.01 554.38 117.39 558.8 122.09 560.74 123.56 567.27 125.94 570.64 126.34 575.08 128.63 577.08 131.21 581.87 135.44 586.71 138.61 590.68 139.48 593.35 142.22 598.22 145.24 600.43 147.72 600.69 151.99 607.07 155.96 611.73 158.03 610.54 161.6 607.1 164.25 602.34 166.71 600.81 168.09 599.36 171.52 597.11 173.84 594.53 174.59 590.39 176.83 587.01 178.08 585.16 177.17 584.66 175.02 580.85 176.4 574.73 181.11 574.42 182.38 570.46 185.8 568.14 187.18 564.81 184.44 563.03 184.51 561.42 186.09 561.73 188.33 564.42 191.27 564.99 193.1 564.39 195.3 565.37 198.59 567.33 200.69 573.61 199.4 578.66 193.27 581.98 191.11 584.57 190.56 588.55 190.76 591.85 192.16 595.72 194.62 599.37 195.73 607.34 198.75 615.47 202.79 624.45 206.46 630.31 209.32 646.71 214.98 653.29 216.94 657.64 218.57 668.48 224.12 675.67 231.74 680.31 237.82 686.49 245.25 689.43 249.52 693.14 253.96 699.16 259.49 701.17 261.83 698.95 264.16 684.78 262.21 676.69 263.19 667.08 260.88 659.98 259.92 648.65 260.69 646.77 262.03 646.99 268.69 645.96 274.4 646.2 276.53 647.62 278.71 652.5 283.52 654.67 286.16 655 288.65 651.24 293.66 650.46 300.2 647.78 301.54 641.68 300.41 634.89 301.12 630.57 301.23 628.12 301.82 624.66 301.5 621.87 302.02 618.86 298.91 616.15 298.92 614.46 301.46 614.12 306.16 610.76 314.72 609.22 326.68 611.77 331.2 611.41 334.1 610 335.45 603.91 336.62 602.01 339.32 600.9 344.94 601.55 353.62 606.6 358.79 610.5 359.95 612.93 362.46 613.72 367.33 616.35 372.23 619.65 374.76 624.4 377.11 626.32 380.05 625.55 386.76 626.44 391.53 630.19 395.06 630.46 398.07 631.45 400.49 632.22 406.66 632.87 408.25 638.43 410.21 642.81 412.6 648.15 416.32 650.21 418.62 656.47 421.68 667.55 421.35 671.24 421.81 671.82 423.37 663.17 426.59 658.5 430.06 654.91 433.81 653.74 435.63 653.2 439.29 652.34 441.18 648.64 443.96 647.42 446.19 646.75 450.18 647.67 454.84 649.21 460.09 653.24 460.91 654.77 461.87 660.11 463.18 661.12 466.74 660.44 469.94 657.7 475.32 657.51 477.16 658.75 480.44 662.46 486.89 666.28 491.23 668.53 495.84 664.79 500.64 658.66 504.01 653.79 505.17 651.47 506.76 650.05 510.44 655.61 515.17 658.03 516.5 660.45 520.1 666.4 522.21 667.89 523.13 666.94 526.45 667.5 528.6 668.15 540.63 667.61 543.5 668.86 547.76 671.21 550.13 672.74 553.93 674.31 560.96 676.19 563.67 676.07 565.44 674 574.07 670.97 578.4 668.07 586.81 664.42 592.74 660.73 596.37 659.81 599.65 659.71 602.75 661.67 607.84 662.8 613.39 662.48 614.85 659.52 618.18 656.68 623.43 656.8 626.24 660.38 629.74 662.38 632.64 663.31 635.2 663.23 637.31 660.22 643.27 657.46 648.01 658.02 653.21 659.02 658.03 662.89 665.23 665.55 671.35 665.71 674.64 664.18 679.03 665.51 682.77 672.61 688.43 675.75 691.63 677.36 694.64 676.93 697.67 679.29 701.09 681.68 705.97 682.67 706.51 687.98 706.28 692.22 707.58 698.29 708.32 700.62 709.38 701.33 710.74 706.5 714.26 707.39 718.89 707.5 724.49 705.93 728.34 707.25 731.35 711.92 733.28 713.87 734.91 717.37 735.73 723.93 736.56 728.21 735.73 731.22 739.58 734.88 740.59 740.21 741.17 742.58 742.52 744.85 742.91 758.87 742.96 764 745.96 767.28 752.42 769.19 755.05 768.83 757.66 770.55 759.82 775.82 763.27 779.61 764.17 776.85 765.58 774.78 768.45 773.93 774.26 771.33 779.55 771.7 782.49 772.97 784.09 775.53 785.24 780.75 789.49 780.05 794.77 780.32 799.92 781 803.83 782.5 805.03 787.66 807.07 789.68 810.12 794.27 810.28 795.83 812.9 799 816.68 798.57 819.2 795.09 823.38 793.14 828.66 791.25 829.97 790.61 832.38 788.98 834.15 787.42 838.84 785.82 840.4 780.08 841.91 777.21 844.68 769.03 849.85 771.74 850.18 778.59 856.63 779.14 859.57 776.71 862.68 773.39 864.96 771.36 867.33 766.7 871.02 765.17 873.37 765.07 875.68 766.47 878.08 770.41 881.31 772.59 882.36 775.06 887.53 776.08 892.78 777.73 895.43 781.77 898.96 783.11 902.14 783.19 908.36 785.14 909.77 787.98 914.69 788.94 918.36 789.12 921.22 788.42 923.91 786.2 926.49 781.25 931.1 779.48 934.05 780.07 938.77 778.26 941.4 778.32 945.56 779.27 948.95 782.72 952.23 784.05 954.82 784.31 960.72 785.44 962.94 780 966.87 774.92 967.28 770.42 970.13 767.63 973.98 764.67 980.65 762.15 984.76 763.44 990.03 761.86 993.84 761.9 996.55 759.83 1002.77 761.92 1006.63 762 1011.98 758.7 1012.81 757.14 1014.07 757.25 1019.24 754.96 1025.37 751.75 1028.6 751.09 1033.39 749.66 1036.46 751.64 1039.6 751.35 1040.97 748.36 1043.29 745.7 1046.38 743.66 1050.46 742.47 1054.89 743.04 1056.52 744.99 1058.19 744.09 1059.29 743.65 1064.4 742.15 1066.25 740.33 1066.9 736.7 1066.28 733.78 1066.77 730.26 1064.66 729.61 1063.42 726.87 1061.67 725.08 1061.62 723.58 1059.28 720.11 1058.02 718.16 1055.2 716.62 1054.58 714.81 1055.53 711.21 1060.65 703.05 1066.01 702.28 1067.9 702.7 1074.25 702.28 1076.22 698.89 1079.97 690.63 1080.05 687.61 1081.42 689.34 1083.87 688.9 1092.02 690.75 1094.31 691.01 1096.51 692.3 1099.46 691.8 1100.92 687.72 1103.02 682.43 1104.07 680.29 1105.79 679.54 1107.93 680.23 1109.18 683 1110.08 687.62 1112.66 690.19 1115.09 691.35 1117.84 690 1125.85 688.97 1128.63 687.19 1130.55 686.32 1134.76 688.08 1136.62 692.41 1137.72 693.95 1140.48 695.85 1156.83 696.79 1158.61 699.63 1161.49 701.47 1164.62 701.32 1165.98 697.04 1170.57 692.74 1169.54 690.8 1170.29 687.5 1170.61 684.38 1169.48 682.74 1170.19 678.92 1175.75 675.25 1176.34 671.6 1174.46 667.48 1175.32 663.13 1175.3 663.54 1179.81 664.43 1182.33 663.82 1186.06 665.55 1189.98 664.51 1191.35 658.4 1195.12 651.09 1200.85 648.4 1204.17 646.36 1207.76 642.48 1209.98 638.47 1213.74 635.32 1217.4 634.01 1221.47 632.26 1223.76 628.08 1227.04 623.89 1226.13 616.9 1226.82 614.78 1228.01 610.64 1231.63 607.29 1233.09 604.06 1233.16 601.42 1233.9 592.46 1234.66 590.45 1237.98 586.34 1241.82 583.32 1242.56 579.1 1245.22 576.44 1244.69 574.3 1245.44 571.69 1249.96 568.41 1253.93 565.69 1256.03 563.22 1255.73 561.05 1252.79 555.36 1251.78 552.5 1251.99 549 1250.76 540.03 1248.36 536.93 1250.3 532.35 1260.17 531.68 1263.11 531.99 1265.26 534.74 1267.66 535.69 1272.54 539.87 1276.48 543.03 1280.63 544.42 1284.33 546.24 1286.46 546.04 1289.22 544.2 1291.77 539.25 1294.92 536.18 1299.15 535.57 1301.27 530.48 1307.48 531.48 1309.44 535.77 1309.94 538.81 1309.27 540.52 1310.57 540.82 1313.09 540.02 1314.55 535.89 1315.8 532.06 1318.99 528.43 1323.52 524.21 1324.1 522.68 1324.98 519.21 1328.87 516.99 1330.19 514.76 1330.49 511.79 1333.04 509.56 1329.69 507.21 1327.08 504.9 1325.39 500.09 1323.56 499.18 1322.27 499.94 1319.68 497.39 1311.25 495.94 1309.74 490.99 1308.74 488.5 1306.82 487.21 1304.08 485.29 1302.07 483.03 1301.22 481.43 1301.63 478.81 1304.55 480.86 1309.27 481.28 1312.67 479.51 1315.71 477.46 1316.27 473.81 1315.24 470.69 1315.71 467.13 1318.04 462.74 1324.05 462.1 1328.25 462.81 1331.25 462.85 1335.54 464.67 1341.55 463.66 1345.04 458.23 1348.62 453.07 1349.32 450.06 1352 448.23 1351.14 445.7 1348.56 442.16 1348.11 432.01 1349.36 427.55 1348.78 424.42 1347.64 418.19 1345.79 416.76 1343.15 414.11 1339.9 411.4 1338.77 410.11 1332.74 406.34 1328.04 402 1326.28 396.79 1326.32 393.89 1327.21 386.5 1325.97 386.03 1324.07 386.56 1321.14 385.95 1320 382.99 1318.29 382.12 1316.4 383.12 1312.22 385.13 1307.39 382.88 1300.96 378.49 1299.64 374.42 1299.5 368.59 1297.75 366.33 1295.57 366.24 1289.3 364.98 1285.51 361.47 1281.15 362.31 1278.68 361.81 1270.01 359.61 1266.55 361.13 1262.03 360.77 1260.39 358.13 1260.26 353.71 1258.94 354.97 1257.06 359.9 1254.02 361.28 1251.18 361.03 1249.78 356.72 1249.01 354.75 1247.48 353.65 1244.74 350.21 1245.36 345.85 1247 343.25 1246.7 341.88 1243.64 337.97 1238.35 338.85 1234.06 340.41 1230.83 337.91 1228.75 333.55 1227.49 330.03 1225.37 326.72 1222.43 322.79 1220.37 322.05 1218.44 317.91 1215.33 316.43 1210.02 316.1 1206.65 317.67 1201.95 322.58 1197.24 324.07 1194.79 324.34 1192.9 320.56 1188.92 317.98 1188.2 310.47 1190.37 308.04 1189.06 303.74 1184.82 306.29 1181.3 307.2 1178.08 311.2 1174.79 313.51 1173.49 315.13 1171.26 314.87 1169.3 311.22 1165.52 311.44 1159.98 310.95 1154.94 309.76 1152.05 312.63 1148.11 312.2 1141.33 310.51 1136.14 307.82 1134.06 306.36 1131.15 306.17 1126.19 308.99 1122.68 308.11 1121.11 304.89 1119.56 304.15 1118.27 303.6 1112.19 302.02 1109.66 297.36 1107.04 288.6 1104.35 286.16 1102.67 282.14 1097.73 281.08 1088.54 279.44 1086.14 277.21 1080.83 277.44 1078.59 279.35 1074.99 280.44 1071.41 285.37 1071.29 286.11 1070.09 285.64 1067.4 283.76 1065.31 281.56 1061.67 283.98 1058.69 290.83 1055.43 291.54 1054.29 292.34 1049.36 291.59 1047.03 291.6 1043.37 290.17 1042.35 284.82 1041.68 283.87 1040.06 280.07 1037.65 280.72 1032.38 278.52 1024.88 272.02 1024.24 262.4 1022.83 256.95 1019.88 251.3 1019.72 247.21 1018.77 239.67 1015.94 234.12 1014.72 232.08 1015.63 228.46 1015.97 225.99 1014.04 221.38 1013.05 219.22 1012.05 217.59 1008.58 221.09 1003.98 222.07 1001.8 221.52 993.51 221.88 991.49 223.89 987.49 225.52 983.11 226.88 981.52 233.37 980.04 237.27 978.36 239.68 974.54 239.44 972.95 240.92 970.23 241.52 966.17 240.91 962.99 242.51 961.43 245.68 952.58 245.51 947.13 246.8 940.42 243.12 940.8 240.25 939.74 238.31 936.75 239.31 932.86 236.59 927.03 235.05 925.54 234.52 923.23 235.84 918.09 235.36 916.42 230.49 913.53 222.18 910.68 218.07 909.9 214.85 906.28 209.93 904.69 204.5 905.78 199.96 903.72 197.26 903.96 189.43 907.31 185.88 909.52 183.37 913.02 180.15 914.09 177.6 916.03 175.36 919.12 171.61 921.34 163.65 923.82 158.04 926.93 151.87 926.85 149.69 926.14 147.53 924.41 142.44 923.2 137.03 924.35 130.4 922.96 126.48 923.91 125.48 923 122.45 917.75 115.36 915.54 113.61 914.59 113.38 911.52 110.17 905.53 108.85 898.96 108.64 895.14 107.21 888.35 109.75 883.86 110.47 879.14 111.93 876.41 112.73 870.62 112.01 868.53 103.81 865.3 99.37 862.87 97.26 860.08 97.43 856.69 96.36 851.93 95.35 849.44 98.51 846.56 101.49 844.95 111.99 842.92 111.45 838.8 108.14 836.24 100.62 833.64 96.87 834.16 91.05 832.14 78.13 830.76 70.29 829.34 62.16 827.04 58.81 827.22 54.06 826.53 52.62 827.5 50.32 825.73 47.14 825.47 44.65 819.67 42.5 817.68 43.79 814.23 43.35 811.28 44.03 808.31 42.63 806.16 42.58 802.78 40.34 798.72 39.06 795.39 39.03 793.64 40.41 789.3 36.48 784.42 38.6 781.09 35.3 779.45 34.61 777.45 31.63 774.7 34.57 771.01 35.38 768.57 35.42 763.56 35.9 762.55 39.31 760.66 41.57 758.06 43.29 754.15 44.75 752.73 47.74 752.82 49.6 750.47 52.45 748.42 56 746.7 58.45 744.1 59.96 741.25 57 740.79 56.49 737.66 59.57 733.91 62.32 732.47 59.81 728.6 60.4 723.46 58.36 719.15 55.69 717.6 56.01 713.82 59.34 710.31 58.77 707.81 62.18 703.54 62.58 700.25 66.05 701.04 70.79 698.61 73.85 697.84 75.06 696.74 76.75 698.11 77.74 696.39 76.54 693.56 81.82 691.5 81.06 688.23 80.77 683.38 83.84 676.83 84.98 676.26 89.53 675.95 95.04 677.06 101.21 674.74 102.1 669.95 100.87 668.29 102.14 664.22 101.38 659.87 103.19 655.37 97.5 653.37 94.04 649.85 91.83 648.65 86.43 647.15 85.63 645.66 88.79 642.72 88.35 641.12 85.9 637.73 83.16 635.04 82.73 633.19 86.16 631.38 84.98 629.61 79.97 624.67 77.94 621.37 78.31 618.76 80.25 617.51 79.47 616.08 73.68 614.35 72.54 615.84 69.62 615.94 69.89 612.83 69.09 611.91 66.47 612.31 64.81 611.37 66 608.91 65.08 607.59 57.71 604.24 51.81 599.75 49.5 593.12 48.92 585.84 46.44 582.79 45.66 581.01 46.09 576.26 48.79 569.43 51.81 568.15 52.28 566.85 48.31 560.92 44.96 559.47 44.56 557.1 42.61 556.71 42.58 554.5 43.83 552.42 46.45 552.55 48.14 554.11 51.86 552.31 54.62 549.91 56.73 545.86 54.62 542.64 53.67 538.58 54.26 537.22 53.68 530.95 49.62 523.62 43.75 521.66 38.98 521.92 30.23 518.2 29.49 517.37 23.08 514.24 14.3 510.83 9.98 508.33 4.18 504.33 1.74 501.36 1 494.22 2.42 492.17 5.19 490.03 9.6 488.82 14.83 486.78 20.66 487.15 24.42 488.29 29.89 491.24 38.43 498.17 41.83 500.61 46.39 502.01 52.42 503.19 58.55 503.61 66.55 503.29 77.11 506.27 80.81 506.74 85.32 506.54 105.89 499.62 114.51 497.26 121.22 495.83 129.2 494.99 138.6 494.41 140.98 493.12 143.58 490.15 145.89 486.39 92.43 380.3 41.97 280.15 64.87 162.89 82.63 71.97 116.5 126.55 164.78 204.35 173.9 200.85 177.06 199.13 179.5 199.61 179.55 195.65 182.34 196.42 188.56 195.16 189.18 193.28 196.64 189.69 199.97 189.06 203.85 185.44 204.42 182.52 207.19 181.16 208.29 179.59 210.29 180.05 212.96 177.5 214.57 177.09 217.24 178.32 218.53 172.72 225.25 171.43 227.42 172.02 232.03 168.92 231.5 166.31 233.15 164.95 234.58 162.23 239.21 161 240.38 159.1 244.46 158.18 245.03 156.95 251.88 153.64 251.61 152.54 254.35 151.77 258.01 152.45 258.4 155.4 262.12 155.98 265.08 155.3 265.48 156.94 263.23 157.69 266.77 160.13 270.52 155.86 269.88 159.92 270.83 161.25 272.83 160.03 278.47 159.2 280.11 158.17 284.23 161.09 288.16 161.15 376.08 87.26 478.75 1 515.23 24.86 Z"/>
</g>
</svg>