<?xml version="1.0"?>
<svg xmlns="http://www.w3.org/2000/svg" version="1.2" baseProfile="tiny" width="800" height="653" viewBox="0 0 800 653" stroke-linecap="round" stroke-linejoin="round">
<g id="4207759">
<path d="M 778.76 137.99 777.8 140.74 780.62 145.23 779.99 148.69 780.45 153.99 780.09 157.62 784.76 161.97 784.79 166.72 783.65 170.36 782.53 175.99 784.43 178.32 791.06 182.35 791.32 183.88 786.41 184.44 784.36 186.95 779.18 187.97 776.38 189.04 772.69 189.51 763.92 188.37 763.07 188.93 762.42 194.92 760.63 196.45 753.32 196.15 751.48 196.8 750.4 199.9 753.11 204.81 755.19 207.3 763.13 206.7 766.9 208 772.94 211.95 774.4 216 773.69 219.59 772.68 220.85 771.76 225 772.49 227.74 775.08 231.77 777.79 237.39 779.61 239.26 785.81 239.82 796.26 243.1 798.76 248.81 799 251.78 796.48 253.41 791.86 253 786.1 250.36 780.43 253.14 774.38 257.86 768.15 258.48 766.53 257.29 765.45 252.07 762.68 250.71 760.8 253.5 759.36 257.32 759.66 259.3 761.76 265.07 763.02 273.35 764.97 277.5 766.07 281.77 764.49 284.27 759.25 283.24 757.36 281.32 754.25 275.65 753.08 271.47 751.65 268.91 750.49 261.44 750.42 256.2 749.12 254.27 747.24 253.43 738.38 250.82 736.17 251.72 733.06 256.36 731.51 271.35 734.6 277.24 736.98 279 738.42 282.13 735.67 284.73 728.27 287.73 726.05 289.91 720.64 291.49 719.15 292.51 713.59 294.53 708.78 295 700.49 298.85 697.37 301.12 694.28 302.33 691.16 304.97 692.21 308.61 694.89 311.72 699.65 312.78 706.79 313.05 711.67 312.58 715.19 311.62 718.96 312.16 722.35 314.12 733.33 317.5 734.57 319 734.86 322.9 731.16 326.53 728.39 328.06 723.22 332.32 718.73 334.24 713.51 338.84 711.82 339.42 708.31 335.76 705.36 331.19 701.29 331.59 697.87 332.9 688.88 338.27 684.09 339.97 680.69 338.41 681.4 334.37 682.64 332.11 687.77 327.37 690.05 323.71 688.4 322.21 683.39 322.23 678.29 319.98 673.88 321.15 670.62 320.86 669.1 321.82 668.95 324.38 669.93 326.22 665.43 327.95 663.01 331.53 660.09 333.74 657.61 338.83 648.06 342 646.05 344.94 647.13 347.52 649.78 350.98 655.05 356.25 655.75 360.18 654.33 362.56 651.55 364.87 648.54 366.15 645.6 365.96 639.86 366.92 635.33 368.6 624.7 370.03 621.97 373.34 620.47 377.27 620.67 380.76 622.2 383.47 624.96 385.84 632.38 390.26 636.63 393.22 636.16 395.11 634.32 396.16 629.86 397.14 622.53 396.09 617.67 394.35 616.16 392.43 611.87 390.29 605.65 390.64 601.61 389.92 595.42 387.18 593.41 384.91 589.59 382.03 587.23 384.15 586.85 392.16 588.34 397.15 594.25 404.78 596.47 406.58 600.23 411.27 600.46 414.18 602.97 421.62 604.35 423.12 608.54 424.62 612.25 426.79 614.89 427.67 618.09 430.01 620.52 432.75 623.68 438.73 624.31 443.09 623.01 445.72 625.05 449.87 624.12 452.86 620.24 456.79 621.29 465.02 622.55 470.4 622.02 472.44 619.56 474.56 615.47 474.92 613.37 474.06 608.71 470.62 603.23 464.49 599.94 458.9 596.88 455.08 591.03 452.71 588.57 452.62 581.23 453.89 577.86 456.07 576.66 458.33 576.26 464.45 577.61 469.99 580.09 473.59 585.16 474.91 586.35 476.81 586.59 479.64 585.87 481.96 582.66 486.53 581.25 489.86 581.39 492.48 583.07 497.22 574.13 495.66 568.69 492.87 562.84 493.1 558.74 495.1 554.59 498.27 551.62 499.83 544.73 502.52 541.09 505.75 541.27 508.03 543.96 511.34 546.89 512.29 551.82 512.3 555.21 513.56 560.03 520.3 564.64 525.02 576.68 529.59 581.39 530.73 584.26 533.52 584.35 537.22 583.51 541.16 579.84 552.21 579.28 555.3 580.61 558.79 584.35 561.77 588.72 564.14 606.74 570.98 608.93 573.91 609.9 577.59 609.96 581.12 609 585.48 603.41 592 599.17 593.04 595.51 592.9 593.69 592.1 582.42 589.58 577.25 587.68 575.32 587.78 572.62 589.52 571.1 592.89 570.73 595.49 571.99 601.82 581.95 610.98 588.33 617.25 589.93 620.78 588.69 624.45 593.42 633.89 595.7 637.75 595.52 642.44 594.27 644.32 593.77 648.76 593.05 650.08 589.99 652 586.5 651.37 583.62 648.79 576.26 640.97 572.44 637.38 568.19 634.93 566.33 638.69 562.93 637.78 560.64 638.15 563.16 636.18 561.99 633.14 559.72 631.56 558.18 628.47 551.45 620.23 546.36 617.24 541.99 612.16 534.14 608.79 531.46 606.35 529.53 605.85 522.06 599.32 523.32 595.91 441.21 556.55 434.86 566.57 411.02 555.22 416.1 551.9 382.06 517.15 374.89 508.83 372.94 510.97 369.44 512.6 295.7 499.46 295.64 497.39 293.29 494.13 293.48 491.71 292.38 490.17 287.02 487.06 285.79 483.17 283.35 481.43 281.77 478.97 276.68 474.74 274.34 474.57 272.27 471.78 265.94 468.68 263.14 468.2 252.49 462.21 249.29 459.85 243.75 454.57 241.69 453.21 240.19 450.86 235.46 445.35 232.44 443.38 226.62 436.94 225.17 433.33 221.65 432.03 217.56 429.08 214.46 429.14 209.78 426.36 203.04 420.23 201.94 418.39 199.12 416.69 196.39 412.22 195.26 412.29 189.55 414.84 188.83 417.32 194.27 424.32 196.64 428.2 198.13 431.81 198.09 434.32 190.41 442.94 190.43 445.92 191.94 447.94 198.41 451.75 202.33 455.83 201.88 459.27 200.01 459.59 194.72 458.66 186.68 456.67 182.59 454.51 177.53 452.79 166.78 450.43 159.79 447.42 157.99 447.57 157.26 449.54 158.62 453.64 161.95 455.91 164.84 458.87 164.95 462.92 160.94 465.3 159.07 467.62 156.51 472.08 153.93 475.14 149.68 478.55 146.91 478.5 142.3 476.19 139.67 476.96 139.14 481.89 140.83 486.2 140.76 488.46 138.62 491.47 137.58 491.65 127.83 486.28 122.74 482.5 117.89 479.77 115.3 481.06 115.45 483.67 114.75 492.24 113.04 494.16 110.36 493.82 104.21 489.45 99.22 486.56 95.55 483.59 91.13 481.87 88.21 479.82 87.26 476.97 85.92 469.39 83.89 467.23 79.61 466.13 77.39 465.01 72.35 465.65 66.17 469.77 61.5 469.97 59.47 469.29 55.32 465.72 53.42 465.04 55 455.71 55.34 444.01 57.82 440.61 63.89 437.59 66.98 435.66 75.53 427.09 81.05 419.49 82.64 414.43 81.64 410.91 77.78 406.15 70.89 399.76 65.42 393.67 62.75 391.15 59.29 388.93 41.2 381.69 31.82 377.66 29.01 375.99 23.04 370.09 20.33 366.64 18.27 361.34 18.38 358.9 19.77 353.14 24.45 340.84 29.27 330.29 32.4 325.15 41.45 311.67 42.35 306.54 45.1 301.88 49.72 297.98 59.16 291.81 62.5 290.89 68.77 290.18 79.17 289.49 86.52 287.55 96.69 287.4 104.67 286.99 110.45 287.79 119.83 291.7 130.58 297.29 143.4 302.87 149.18 304 156.44 303.26 159.43 301.74 160.72 298.08 160.26 293.96 157.75 286.74 153.12 276.56 151.5 270.36 146.84 261.83 146.11 259.44 145.65 252.6 146.93 243.6 154.94 222.36 157.26 217.91 161.37 212.08 166.85 204.93 171.86 199.55 174.65 195.91 177.11 191.13 178.32 187.21 178.66 183.1 176.6 179.41 174.18 177.73 169.31 176.11 158.52 173.62 155.21 172.59 143.77 172.33 131.02 174.79 123.13 177.02 109.32 182.09 103.68 183.3 100.07 183.51 92.01 185.47 80.59 185.54 73.34 184.84 70.55 184 67.53 181.9 63.91 178.58 59.33 173.67 53.49 166.78 48.99 160.67 41.26 148.79 38.57 146.02 31.54 137.48 27.43 135.31 20.05 129.57 14.87 124.94 9.33 117.79 4.63 112.83 1 104.82 1.36 101.62 3.98 99.78 6.45 99.3 12.76 99.82 18.31 102.81 24.31 108.65 28.83 113.87 34.49 117.49 38.2 118.92 47.67 121.03 52.04 121.63 68.71 122.75 79.99 122.68 85.38 122.4 91.8 120.68 99.47 116.85 104.19 114.2 107.93 110.46 115.04 116 115.5 117.03 119.85 121.59 121.58 122.67 124.12 122.68 126.15 121.6 130.91 117.06 132.88 113.75 137.03 113.65 139.78 114.73 147.56 120.1 150.19 119.92 152.45 117.68 155.76 111.33 155.7 108.37 149.87 101.05 150.64 99.08 159.7 98.7 162.6 99.19 167.17 101.42 170.45 100.28 172.03 97.61 173.83 93.06 176.01 92.44 178.93 92.86 183.39 92.43 187.01 90.85 190.45 91.34 197.04 93.97 201.79 93.56 203.54 90.47 207.1 90.37 213.43 88.98 216.63 89.77 220.61 89.53 223.74 91.43 225.87 91.4 230.01 90.01 232.45 85.56 237.59 83.4 239.38 79.29 241.39 78.22 247.27 79.19 250.18 76.59 257.9 76.94 261.63 79.77 264.24 79.21 268.05 76.88 273.56 77.59 281.87 75.56 284.1 74.27 286.68 73.88 290.32 70.72 292.72 71.3 297.5 69.88 300.65 70.35 302.04 68.85 306.23 68.07 309.1 68.88 312.19 68.1 316.82 69.66 320.53 68.82 324.28 71.93 328.17 72.78 368.67 62.3 367.29 58.89 359.46 48.61 358.56 45.36 358.18 38.2 359.43 35.96 358.67 31.91 360.75 27.12 360.07 23.96 360.97 22.11 366.8 25.79 367.84 27.27 374.38 30.15 375.86 32.98 378.37 35.75 382.94 38.66 383.18 39.86 389.31 42.87 394.13 44.12 399.92 47.16 404.58 48.37 408.15 50.53 417.25 51.19 421.03 50.93 431.61 51.93 434.41 53.85 436.83 54.2 441.92 49.3 445.25 47.71 454.32 46.92 455.7 44.65 456.74 40 461.61 36.71 463.56 35.95 469.3 32.02 470.9 31.82 473.11 29.46 476.49 27.45 478.95 27.78 481.34 26.69 484.75 26.63 493.26 22.54 496.77 22.33 499.38 20.47 502.84 19.93 505.04 20.7 510.07 19.51 517.75 16.32 542.04 12.64 623.11 1 650.75 47.14 652.71 47.71 662.94 49.04 666.86 48.34 673.02 46.03 675.97 40.38 677.88 38.29 681.72 36.36 689.61 35.3 690.64 37.95 693.96 42.92 696.97 51.34 698.39 53.4 698.16 56.38 701.31 59.16 703.06 62.91 702.06 66.86 703.61 68.01 707.78 69.4 712.84 78.54 717.58 81.93 723.64 87.69 725.94 88.88 727.26 93.23 728.32 94.4 734.79 98.38 737.73 99.43 740.81 97.79 744.03 94.51 744.71 92.87 745.45 83.74 745.07 74.11 768 122.05 778.76 137.99 Z"/>
</g>
</svg>