<?xml version="1.0"?>
<svg xmlns="http://www.w3.org/2000/svg" version="1.2" baseProfile="tiny" width="800" height="1025" viewBox="0 0 800 1025" stroke-linecap="round" stroke-linejoin="round">
<g id="4207908">
<path d="M 618.1 948.63 591 964.24 494.15 1022.92 490.33 1022.43 484.01 1023.4 478.29 1024 476.29 1023.72 473.34 1021.81 469.71 1018.74 462.39 1013.55 458.72 1009.76 454.17 1006.8 452.07 1006.41 449.78 1006.58 445.32 1008.74 442.91 1009.28 433.89 1009.43 428.96 1008.67 422.06 1006.83 416.72 1004.84 410.93 1003.88 406.15 1002.1 403.01 1000.11 401.02 999.22 398.95 999.25 393.88 1000.59 391.52 1000.53 388.34 999.27 383.94 996.72 381.46 995.76 379.02 991.95 373.35 985.47 370.15 981.49 366.67 979.11 363.3 976.35 354.58 971.37 349.85 970.36 347.33 970.97 345.15 972.1 326.65 979.38 324.37 979.76 319.3 978.97 317.93 978.08 317.01 975 317.25 973.74 318.96 972.72 322.97 972.71 325.18 971.71 328.4 969.06 330.32 965.55 333.25 961.01 335.44 959.08 341.34 955.56 343.87 955.03 348.97 955.9 352.95 955.81 355.54 954.62 356.98 953.2 357.15 951.73 355.49 949.14 353.06 946.55 352.6 944.74 352.68 941.77 351.96 933.21 350.72 930.96 348.74 930.2 338.59 930.35 333.31 929.62 329.48 931.16 323.31 931.2 316.16 930.68 311.07 928.74 308.15 927.14 305.86 925.11 304.8 923.38 301.74 915.63 301.34 913.13 300.63 912.48 297.06 911.67 292.55 909.23 291.49 908.15 291.43 906.81 294.23 904.61 295.99 901.94 296.06 900.95 289.98 894.61 288.03 893.3 283.29 893.35 282.31 892.99 281.82 888.99 278.65 885.24 276.83 884.5 273.14 884.3 269.99 885.8 267.08 885.42 266.24 884.43 263.45 883.39 259.99 879.62 258.48 875.56 258.42 872.5 259.8 867.68 262.78 862.29 263.14 859.49 262.75 858.6 258.68 854.63 254.02 852.36 248.8 850.19 247.24 848.54 245.96 846.27 245.3 843.76 245.53 840.08 249.04 834.94 251.16 833.31 258.2 831.62 265.81 828.21 273.14 827.38 278.31 825.9 280.75 824.77 283.25 821.43 282.35 815 281.91 803.8 280.48 795.01 279.77 792.36 277.87 789.32 273.14 783.45 271.54 781.17 268.78 778.92 268.18 777.88 266.41 771.86 265.93 769.23 265.05 767.67 263.47 767.06 261.8 767.48 258.03 767.29 256.06 766.41 251.77 762.62 246.67 760.03 225.65 750.37 216.53 746.44 211.77 743.06 210.51 742.45 206.8 742.19 205.02 741.63 202.15 740.05 197.14 738.38 189.86 736.62 186.22 735.13 182.36 734.17 171.67 732.5 167.05 731.59 163.47 730.63 161.5 729.45 161.2 728.07 161.84 726.55 163.54 724.87 167.01 719.06 170.77 710.17 176.93 698.44 178.28 695.03 179.17 688.75 180 681.48 180.44 680.04 184.65 673.71 185.93 671.12 186.62 666.63 186.27 660.86 185.7 656.93 184.28 651.76 182.21 646.14 180.29 640.08 178.12 634.98 175.85 630.72 173.56 627.06 171.77 622.99 170.63 617.99 170.15 613.56 170.35 610.78 172.21 605.54 175.67 600.37 178.75 597.61 180.39 595.51 180.79 593.15 180.36 590.47 179.27 587.37 176.71 583.05 174.23 580.03 171.68 578.13 168.26 576.51 165.39 576.06 159.59 576.48 156.83 575.91 151.66 572.74 147.26 571.13 143.85 570.97 138.83 571.9 134.61 573.81 130.95 576.04 128.79 577.85 125.43 582.27 121.99 585.3 120.28 586.15 117.6 586.75 111.97 586.87 109.74 587.16 106.28 588.28 104.77 589.31 103.67 591.15 101.59 595.91 99.5 599.18 98.1 600.12 95.71 600.68 93.59 600.5 88.11 598.11 82.31 595.91 77.58 594.32 69.78 592.47 66.73 590.63 62.52 587.12 56.07 582.44 55.34 580.48 55.69 576.68 55.66 571.66 54.71 566 51.48 556.35 51.43 552.33 52.35 547.51 56.21 540.21 58.97 534.15 60.58 528.86 60.16 520.92 58.8 516.72 57.95 515.02 54.98 511.32 50.21 508.14 46.14 506.78 41.66 505.79 36.99 505.21 34.07 504.51 30.69 502.65 28.41 499.5 26.85 496.22 25.02 490.91 24.35 485.68 24.51 482.66 25.5 480.47 27.1 478.27 30.3 476.22 34.36 474.47 39.86 472.79 42.97 470.97 46.03 467.16 46.78 464.96 46.99 462.51 46.37 459.38 43.89 456.46 40.59 453.65 37.39 452.19 33.84 451.69 27.32 451.72 23.93 450.8 19.83 449.04 17.81 447.35 14.2 442.22 13.7 440.45 13.82 438.08 14.52 436.02 16.45 434.12 18.83 432.66 22.96 430.94 26.05 430.39 33.27 430.34 42.24 429.3 51.41 429.35 53.77 428.87 57.24 427.44 60.59 424.65 63.52 421.37 67.26 414.84 68.48 412.02 68.78 407.95 67.66 402.08 66.06 398.73 64.47 396.37 62.17 394.58 59.86 393.35 54.53 392.57 52.5 393.11 50.06 394.72 48.1 397.73 45.91 404.31 44.88 409.51 44.61 414.69 43.91 416.86 41.75 420.36 39.61 422.28 36.11 423.71 32.02 423.56 29.97 422.91 25.71 420.44 16.35 414.18 12.06 412.17 9.32 409.66 7.41 404.88 7.52 402.59 9.82 398.71 13.01 396.07 21.51 390.3 22.59 389.24 23.64 386.23 23.75 382.25 23.51 378.65 22.53 374.66 19.89 371.09 16.49 369.16 13.78 368.2 10.09 367.62 7.21 367.5 2.9 366.51 1.67 365.4 1 363.17 1.51 360.63 3.53 356.97 6.17 355.84 7.61 356.1 14.08 358.54 18.31 359.07 23.3 358.67 31.1 357.01 37.67 355.25 39.29 354.6 42.2 352.35 43.09 351.17 43.49 348.23 42.97 345.98 36.94 339.75 26.76 333.22 25.36 331.64 19.22 322.38 16 315.82 13.69 312.9 13.62 311.35 8.48 308.55 14.09 307.91 18.35 307.08 24.16 305.57 28.18 303.87 33.25 301.24 37.22 298.15 41.52 296.09 48.49 291.99 51 290.1 53.38 286.76 56.09 283.86 62.42 278.19 65.65 273.05 67.11 268.98 69.26 265.14 69.78 260.24 71.24 255.33 71.66 251.61 71.8 245.14 71.65 241.8 70.4 235.13 70.29 231.64 69.31 228.75 69.42 224.34 70.97 219.14 71.35 215.44 73.56 211.56 76.15 206.08 78.25 200.69 82.64 191.12 84.45 186.68 86.56 182.37 88.87 176.94 91.3 172.73 95.73 167.07 98 165.16 103.05 163.21 107.86 162.81 112.02 163.22 115.9 164.52 119.1 165.97 122.57 169.31 125.65 173.13 130.34 180.55 140.06 193.71 144.35 200.53 147.76 206.63 152.88 213.57 159.84 225.42 162.71 230.86 165.39 234.21 168.86 239.11 176.61 245.69 181.79 249.4 186.08 252.03 189.88 252.98 193.96 254.54 198.6 254.53 203.09 253.33 206.59 249.86 210.27 245.44 216.51 238.36 217.17 236.21 218.1 227.95 219.33 223.26 220.24 218.48 220.51 214.05 221.78 202.24 224.44 195.06 226.9 183.84 229.54 180.58 234.04 176.61 236.78 173.7 242.75 171.48 247.82 169.8 252.26 167.05 255.86 165.25 261.06 163.09 264.36 160.33 272.94 156.14 278.75 154.34 284.17 150.27 288.29 147.5 293.65 144.87 299.1 140.54 304.97 136.95 311.24 132.64 318.32 129.28 329.93 124.48 339.95 122.91 345 122.91 355.81 120.74 364.06 116.66 369.55 114.28 375.03 113.41 385.33 114.18 390.51 114.77 395.5 114.82 399.73 114.58 404.02 113.56 408.41 111.61 419.45 106.23 424.34 104.6 428.24 103.97 433.08 103.9 437.86 104.44 448.01 106.45 451.72 107.56 461.03 111.9 464.33 114.07 469.57 118.3 471.74 121.55 473.1 125.04 474.73 130.15 478.23 143.37 479.06 149.52 479.12 152.77 478.64 157.14 476.34 165.22 474.86 168.94 474.26 171.77 474.07 175.81 475.09 179.62 481.35 184.74 484.44 186.36 486.67 187.09 490.98 187.74 504.14 189.21 509.74 189.21 514.99 189.45 520.8 189.13 535.84 185.5 542.36 183.38 545.39 181.93 553.57 178.48 564.65 174.24 567.04 172.96 569.8 167.55 571.44 161.48 571.67 157.67 571.3 154.17 570.2 149.72 567.46 140.43 564.41 134.42 561.55 130.48 559.83 127.09 553.88 117.01 551.92 114.01 548.27 107.86 546.05 104.84 539.79 98.69 536.95 95.44 532.23 89.55 529.29 85.52 526.3 80.11 522.33 71.58 519.82 65.46 518.95 59.03 519.94 55.37 523.8 47.98 526.3 44.96 530.09 42.13 534.81 39.61 538.82 37.1 549.25 32.79 563.13 26.53 572.15 21.5 582.52 15.06 590.17 10.48 597.37 6.49 602.3 2.95 604.25 1.22 607.55 1 610.58 1.47 611.25 10.78 610.36 12.53 610.85 15.75 607.08 18.29 607.23 20.14 608.76 20.19 609.34 22.82 608.13 24.55 609.32 25.96 612.48 25.59 615.03 26.19 616.83 27.16 618.6 29.1 620.69 29.43 624.87 31.7 629.9 32.9 632.92 34.77 633.6 35.84 633.52 37.76 635.58 38.03 637.06 39.67 638.91 40.62 638.25 42.83 638.78 44.08 636.19 44.27 633.63 43.24 633.48 44.64 635.77 46.73 637.4 47.54 639.96 51.73 636.96 53.81 637.61 55.3 633.7 57.93 632.08 57.76 630.24 60.31 625.72 61.25 624.94 62.58 625.94 65.42 627.28 65.48 627.94 67.74 629.02 68.94 629.92 67.45 632.25 69.54 633.69 68.73 634.77 71.42 636.71 69.93 639.09 70.92 639.41 69.8 641.14 68.34 642.4 68.17 643.2 66.25 646.21 67.01 644.91 70.08 648.94 69.77 652.34 68.89 654.71 67.77 656.31 67.62 657.6 68.72 658.05 71.72 659.9 71.7 658.82 69.03 659.85 67.98 661.5 67.57 663.55 68.37 665.99 68.04 666.56 68.81 666.38 71.27 666.83 72.66 668.86 71.8 670.89 74.77 666.64 74.85 666.2 76.66 666.99 77.38 669.66 76.89 670.83 78.3 669.21 78.8 668.37 81.28 666.23 81.41 663.9 79.73 662.14 79.65 661.45 81.36 662.5 83.61 660.38 83.81 656.55 85.92 652.34 89.73 655.26 91.18 653.98 92.87 655.24 94.49 653.1 94.85 654.79 96.46 653.3 98.99 654.17 99.24 655.8 98.12 655.88 100.06 655.19 101.44 660.1 101.34 660.56 102.23 659.09 103.25 657.04 103.64 657.74 105.58 658.69 105.37 663.09 105.9 662.99 107.1 661.04 109.19 664.59 110.88 662.43 111.77 662.17 112.95 663.57 113.99 666.21 113.92 669.68 114.73 672.02 116.99 672.05 117.72 669.23 118.13 667.44 117.53 666.44 119.49 666.88 120.13 669.46 119.07 672.11 118.77 671.97 120.57 669.73 121.82 670.5 124.76 669.75 127.24 671.68 126.65 673.58 126.74 673.12 129.21 671.65 130.95 672.77 134.88 674.66 134.73 674.77 132.81 676.57 132.68 676.86 134.52 679.1 138.56 677 138.41 676.41 139.76 677.1 141.6 674.93 142.49 673.23 145.09 673.75 147.38 673.1 151.02 674.3 153.33 676.74 153.41 678.19 154.42 677.74 155.76 681.32 156.77 687.16 158.04 688.71 159.04 690.18 162.15 691.6 163.27 691.67 165.3 692.93 165.63 693.99 164.53 696.5 167.66 695.62 169.1 696.97 169.7 699.9 169.98 701.18 172.87 700.31 174.31 703.53 180.1 704.48 183.64 703.84 184.85 704.83 186.22 704.18 189.06 708.18 194.06 707.69 195.55 704.92 196.48 702.08 198.38 699.72 199.22 700.11 202.15 698.9 204.05 698.67 207.42 697.14 210.97 697.04 212.55 698.11 215.64 697.45 219.39 697.59 221.07 699.48 222.93 700.67 226.03 702.36 228.02 703.03 231 705.24 236.11 704.21 237.92 698.62 242.13 694.72 245.71 693.28 247.73 690.54 250.29 687.79 249.52 684.56 251.11 683.21 253.44 682.23 256.38 682.45 257.45 680.85 261.75 679.36 266.72 676.47 268.45 676.29 269.64 677.77 270.81 678.07 273.78 681.84 275.46 682.2 276.14 681.64 280.64 682.32 285.81 682.29 289.72 682.82 292.6 682.38 295.94 683.4 298.89 685.13 300.21 687.77 300.87 693.85 299.33 696.33 299.58 698.48 301.23 699.3 304.9 701.15 307.9 701.06 310.22 702.68 313.26 703.07 315.22 703.04 318.15 704.05 322.09 705.02 324.75 704.98 327.96 705.69 329.3 705.73 332.74 707.42 338.65 711.65 340.69 715.55 344.38 716.52 346.8 718.16 348.14 717.98 352.49 718.76 353.21 722.39 352.32 723.68 350.8 729.16 350.38 730.34 351.97 732.01 352.54 734.74 355.4 741.02 357.71 743.68 359.29 747.26 360.78 747.58 362.35 746.12 363.41 746.17 364.75 749.4 366.75 750.13 368.55 749.83 369.67 745.68 374.72 744.04 378.89 743.93 380.85 744.63 382.51 744.62 384.56 745.37 385.72 748.13 386.9 750.69 389.44 751.98 391.54 753.08 395.61 752.28 396.83 751.98 400.55 750.34 403.78 751.72 405.86 753.73 406.47 757.16 406.11 759.08 406.72 761.35 406 762.89 406.22 764.52 407.74 764.4 409.86 767.79 412.47 771.69 416.17 772.56 418.19 772.18 420.64 771.11 421.47 770.64 422.99 773 426.79 776.07 429.38 777.43 431.01 778.74 431.6 779.04 433.87 777.09 435.97 777.26 438.78 777.82 440.19 780.2 441.77 780.11 442.84 778.05 446.06 778.16 447.52 777.33 450.17 777.75 453.14 777.67 455.88 780.15 458.05 780.7 464.43 778.38 469.91 777.3 471.32 777.47 472.97 777.14 476.78 775.75 478.98 775.57 480.96 773.4 486.58 772.41 488.05 772.28 489.99 773.38 494.77 771.24 495.99 768.11 500.3 763.49 499.64 758.9 499.39 757 499.66 754.23 500.73 753.48 501.68 753.35 505.08 752.43 507.26 749.79 510.66 748.01 513.73 748.89 516.42 747.76 518.07 747.6 520.19 748.16 521.55 747.7 524.32 750.12 525.65 748.68 527.09 749.77 528.64 748.73 529.75 748.97 531.28 747.54 534.72 747.61 537.09 748.9 538.12 746.64 539.93 745.88 542.35 746.07 547.28 744.42 551.68 746.06 552.82 745.89 555.52 748.34 556.64 751.26 560.51 751.92 562.41 753.22 562.3 757.09 563.61 757.7 564.18 760.19 564.08 762.3 566.26 764.55 565.67 766.86 566.03 769.75 565.48 774.57 563.18 780.09 566.09 782.5 568.63 785.23 570.31 787.16 572.07 790.3 570.35 791.82 570.53 794.79 573.64 797.55 574.34 799 576.17 798.18 578.12 751.15 685.9 730.41 726.87 682.35 821.76 618.1 948.63 Z"/>
</g>
</svg>