<?xml version="1.0"?>
<svg xmlns="http://www.w3.org/2000/svg" version="1.2" baseProfile="tiny" width="800" height="1017" viewBox="0 0 800 1017" stroke-linecap="round" stroke-linejoin="round">
<g id="4207684">
<path d="M 770.9 489.68 777.58 492.59 780.99 498 782.67 503.03 784.05 505.03 782.93 510.97 783.82 514.34 788.19 519.55 790.14 521.32 793.19 525.92 794.07 529.16 795.56 531.05 797.94 537.81 797.56 540.14 799 542.2 795.22 546.57 794.79 549.57 791.31 551.83 791.65 555.4 793.18 560.84 791.84 565.57 792.69 566.91 791.83 572.55 794.66 573.41 795.02 575.05 791.29 576.06 791.45 579.27 790.31 580.6 791.69 583.05 791.91 585.53 790.6 590.01 781.48 586.13 776.05 584.26 773.44 582.21 769.86 578.1 763.44 576.12 760.43 577.55 758.02 576.36 754.35 575.72 749.58 573.86 736.23 571.12 728.43 571.96 721.91 570.86 719.06 569.62 713.72 568.11 709.61 567.91 706.69 566.48 703.35 565.59 701.43 563.37 696.93 559.55 693.45 554.72 691.13 552.57 686.13 551.16 681.46 551.12 677.38 548.9 675.61 549.63 670.15 557.23 664.49 562.96 660.88 568.97 657.41 572.09 654.87 572.08 649.3 573.7 646.18 575.41 643.98 578.75 640.49 585.7 637.13 589.82 638.15 598.61 637.14 600.58 637.64 603.86 636.26 607.14 637.35 611.37 636.93 614.04 637.59 616.55 637.16 619.84 634.14 622.11 632.31 624.71 632.72 629.22 633.71 630.34 634.73 634.18 636.33 636.29 635.26 640.85 637.21 643.62 636.59 646.34 639.73 656.54 644.44 658.96 652.14 658.4 656.94 661.36 661.04 661.66 663.07 665.12 662.3 667.3 662.74 669.22 661.66 671.22 663.59 674.7 665.52 675.97 666.52 680.17 670.1 682.02 673.21 682.43 676.63 681.33 681.15 682.4 681.33 685.05 683.94 685.84 686.37 683.85 688.98 684.4 690.96 690.08 689.29 693.15 687 691.43 684.79 691.79 685.74 693.95 685.69 700.32 686.43 702.23 688.77 703.66 691.55 703.27 693.42 705.76 695.49 707.29 695.09 710.88 698.45 712.1 700.01 715.13 697.97 718.82 699.47 720.95 699.85 723.7 704.18 724.92 703.96 727.61 701.89 728.38 702.93 730.58 705.19 732.56 710.63 732.16 710.95 734.49 712.94 735.21 709.11 737.15 708.44 738.99 709.18 741.49 713.34 745.53 714.85 745.43 716.69 747.3 719.55 751.4 717.3 757.2 707.04 760.29 703.02 761.79 692.09 760.55 683.21 758.23 679.42 758.52 674.56 759.55 670.84 760.94 665.66 760.62 659.39 760.7 651.34 761.87 648.95 763.53 646.04 768.53 646.38 772.88 649.28 776.32 652.69 784.51 655.95 791.65 657.9 794.28 665.05 800.44 666.65 802.56 667.18 804.92 666.81 808.4 665.53 811.43 664.1 812.38 659.08 812.89 655.53 813.8 647.51 818.19 643.55 821.42 642.95 823.7 643.64 826.14 643.24 829.38 641.16 834.43 639.25 836.68 635.61 839.38 630.97 841.3 620.61 841.68 618.27 841.45 614.36 840.09 608.24 833.13 600.18 824.41 596.43 819.91 595.09 816.07 598.52 810.9 602.11 807.05 606.67 799.96 608.2 796.11 612.22 787.6 612.95 785.01 612.77 781.3 609.42 778.99 601.77 778.57 596.52 776.93 590.19 774.46 584.76 772.84 579.55 770.86 571.33 765.69 568.39 764.48 565.28 764.28 558.38 765.33 549.84 768.52 544.8 771.84 539.55 775.94 533.59 779.87 527.96 784.07 521.08 787.98 516.71 789.48 508.86 789.87 506.57 789.36 499.82 786.57 495.71 781.01 493.26 778.81 490.98 774.93 486.6 773.27 483.32 775.06 481.47 777.11 479.77 780.22 478.56 785.17 479.42 788.02 481.86 791.87 481.92 797.01 480.5 800.06 477.77 802.27 468.02 803.4 464.54 804.54 461.98 806.41 457.84 812.36 457.39 814.71 459.05 820.16 459.48 823.75 462.57 829.44 463.07 833.78 461.97 835.67 459.55 836.12 454.63 834.6 448.8 834.38 445.92 833.75 443.54 827.69 442.96 823.94 440.71 815.75 437.23 814.12 433.09 813.02 426.06 813.02 420.57 813.37 411.3 811.69 403.24 813.06 401.26 814.02 392.28 822.34 387.75 823.57 385.11 825.04 381.05 826.32 370.06 827.55 365.52 826.66 362.43 825.01 358.92 821.51 357.61 819.01 356.16 813.19 353.36 808.5 348.29 802.58 345.83 800.33 342.39 798.59 339.05 795.43 328.83 787.2 324.72 786.64 322.3 788.74 321.97 790.79 324.05 794.88 329.21 801.68 331.85 806.1 334.5 811.34 336.9 819.11 339.37 823.2 340.23 825.87 347.02 837.31 349.78 841.61 352.6 847.64 352.82 851.28 350.66 856.73 348.35 860.6 346.01 862.62 342.96 864.08 338.65 864.96 327.87 866.36 323.25 866.75 317.69 869.2 315.27 872.62 311.2 880.63 310.29 885.92 311.57 887.96 320.13 893.14 323.43 898.02 324.73 902.93 324.81 908.82 325.48 915.32 327.22 921.87 328.37 924.94 328.42 927.82 327.51 930.28 325.3 931.97 322.3 933.04 317.48 933.13 310.92 932.01 307.18 929.04 307.5 923.57 305.61 921.69 301.92 915.32 296.57 910.92 291.92 909.67 285.95 906.29 281.29 902.34 280.95 900.53 276.4 889.77 275.39 886.2 274.01 883.91 267.77 879.29 263.46 877.72 257.78 877.33 251.84 875.49 249.36 874.04 246.4 874.22 241.65 873.35 232.78 874.97 231.39 876.05 231.18 878.62 229.01 879.79 227.6 883.82 226.32 885.19 226.47 889.27 228.22 890.36 228.96 892.96 228.91 898.46 228.22 902.85 226.86 904.96 225.42 913.34 224.73 925.52 225.68 928.15 228.35 932.33 228.77 934.3 231.98 936.53 234.94 936.76 237.05 935.16 241.95 933.01 249.17 927.8 252.18 927.44 259.59 927.73 261.56 927.5 264.49 928.49 267.56 928.29 270.7 928.9 273.07 930.16 274.7 929.57 279.61 931.19 281.8 933.12 285.02 934.21 287.26 936.27 289.98 936.76 295.4 942.39 297 947.69 296.81 952.12 294.08 957.91 292.49 959.42 287.55 962.64 281.65 964.32 275.97 965.28 268.8 964.99 264.63 965.85 261.11 967.1 258.45 967.05 253.85 971.88 251.45 973.09 248.33 976.38 240.89 980.31 234.44 981.38 227.13 984.48 222.52 988.11 218.47 992.51 211.08 997.85 206.3 1000.02 192.95 1003.68 190.02 1004.76 184.69 1009.81 176.17 1016 175.81 873.7 175.54 769.09 175.95 681.23 175.91 669.18 176.91 606.35 174.63 605.45 168.5 600.5 165.46 599.82 164.27 598.43 160.92 597.42 157.44 594.47 156.95 592.26 154.95 589.82 148.54 588.54 146.55 586.7 141.08 583.94 139.45 579.69 137.81 578.61 135.4 578.9 132.97 575.43 129.11 573.15 127.5 571 125.57 569.81 121.35 568.89 120.53 566.74 118.16 565.5 115.03 561.85 114.47 556.67 112.6 555.47 110.64 551.3 110.28 546.89 108.04 543.89 106.17 539.67 106.15 535.48 105.33 534.08 105.46 531.41 103.77 529.12 104.04 527.67 102.58 523.09 99.56 522.45 101.84 517.69 103.6 515.68 103.02 513.46 102.91 508.6 101.99 505.2 99.75 502.39 92.5 495.36 91.76 493.61 87.67 491.48 81.59 485.53 81 484.09 76.65 483.69 75.87 480.19 75.36 473.61 72.84 468.99 72.55 466.83 70.63 464.92 68.81 461.92 69.98 458.02 68.68 456.94 65.65 457.04 63.59 455.43 62.31 453.12 62.42 450.74 60.87 448.97 57.48 443.36 57.61 440.37 59.85 440.7 71.65 440.29 80.16 438.69 84.37 436.43 84.99 433.82 82.76 427.31 81.65 421.45 80.08 417.5 76.48 413.06 73.01 410.4 59.85 403 56.13 401.39 52.56 400.74 43.98 400.54 39.58 400.92 31.84 403.72 23.86 405.2 18.01 408.2 13.68 408.64 10.3 408.02 7.2 406.27 3.37 402.84 2.21 400.34 1.32 396.07 1 389.99 1.65 386.31 6.27 370.56 6.49 365.57 6.2 361.16 6.65 357.43 7.9 353.98 10.9 350.82 15.03 349.38 20.51 348.5 35.21 347.89 53.59 348.35 56.97 351 59.85 351.34 63.62 353.11 71.05 357.35 79.13 359.94 82.4 362.85 84.67 363.75 98.73 366.08 108.26 366.51 117.1 365.46 121.89 366.27 123.14 367.22 124.8 372.81 128.51 380.36 131.86 389.33 135.26 400.88 137.32 404.46 140.99 408.17 146.17 410.12 151.99 410.63 158.57 409.81 170.01 406.71 179.15 403.67 190.63 398.24 200.76 391.23 201.9 389.3 203.11 384.72 202.43 378.75 200.25 375.78 197.53 373.42 182.74 364.14 179.57 360.53 175.51 354.29 174.2 349.32 173.83 342.71 174.64 327.72 176.76 318.72 178.46 306.36 178.83 300.99 178.3 294.93 176.67 290.65 174.12 286.35 171.99 284.61 167.57 282.09 159.22 276.08 150.43 268.69 146.36 263.28 143.22 257.46 140.68 249.2 139.28 242.3 138.59 236.13 138.88 227.89 140.39 223.21 141.85 221.45 147.42 219.33 150.84 219.5 156.28 221.05 169.5 227.2 175.61 229.86 181.86 233.26 185.42 235.8 188.51 238.69 191.94 242.85 193.96 246.92 196.51 255.65 196.54 263.35 197.67 269.21 200.1 273.57 208.42 278.59 223.75 286.93 230.35 288.4 235.97 290.22 244.31 289.9 248.83 290.97 257.25 294.27 260.16 294.7 262.88 294.09 265.14 291.88 266.89 288.27 268.01 283.57 267.42 279.56 264.83 275.43 262.08 272.35 257.48 268.81 251.45 265.7 246.24 262.56 242.31 259.42 241 256.1 240.64 252.01 241.03 245.97 243.35 240.49 244.93 232.04 244.5 227.19 241.01 223.99 237.27 222.21 235.74 220.2 235.07 216.78 235.3 213.92 234.64 210.36 230.94 205.48 230.33 203.28 230.66 198.57 230.19 196.22 227.66 193.29 223.6 191.32 219.29 190.36 216.08 188.85 211.75 188.37 207.78 191.95 206.69 195.62 204.55 197.69 197.77 196.48 195.54 194.96 193.97 191.4 191.36 188.57 189.63 187.83 183 186.77 175.02 181.97 166.88 175.91 163.34 174.19 159.28 174.23 155.98 175.22 153.7 174.96 150.87 171.58 150.61 169.67 152.48 165.53 158.45 158.84 164.17 151.42 168.04 145.75 169.88 144.84 175.67 145.31 181.1 144.4 188.68 145.44 194.55 145.7 200.78 147.28 204.34 148.83 212.4 153.38 220.98 157.81 227.24 159.85 234.39 163.04 245.45 166.69 248.98 166.89 256.89 165.63 261.73 163.98 266.97 159.39 269.44 156.04 271.92 151.44 274.03 148.54 277.73 145.98 281.63 144.73 285.06 142.97 294.51 137.31 297.75 135.73 302.57 134.12 308.21 131.08 310.23 128.56 311.47 124.05 315.78 119.36 319.33 116.94 321.91 116.8 325.85 114.54 330.11 112.71 339.21 106.56 345.37 100.32 348.93 97.66 352.47 97.21 357.1 98.6 360.15 100.97 361.74 105.65 361 110.09 355.51 119.68 353.4 124.04 349.63 136.89 349.39 140.23 351.53 147.64 352.25 152.37 353.88 155.62 358.46 158.99 360.38 161.59 363.94 162.92 366.2 162.75 370.35 160.28 374.12 155.24 376.37 154.14 380.71 153.43 384.34 153.52 387.17 151.73 388.34 149.9 389.62 142.01 390.44 139.26 395.97 129.61 405.19 119.63 409.57 116.31 415.94 113.37 422.96 111.01 428.43 109.54 437.44 106.27 440.77 103.72 442.16 101.6 442.18 98.26 441.01 96.26 437 93.32 433.43 92.29 428.97 91.61 421.88 91.17 415.6 91.17 404.91 89.08 399.48 86.83 390.25 81.58 383.26 78.37 378.22 76.9 375.08 75.45 371.88 73.11 368.1 71.98 359 69.99 351.33 67.91 348.87 65.55 341.64 59.57 339.47 56.78 338.26 52.43 338.39 48.7 337.62 37.73 338.96 36.75 343.48 36.64 354.64 40.13 361.95 43.04 376.76 47.12 383.92 48.21 389.68 48.59 397.21 48.27 405.12 47.5 408.45 46.67 411.44 44.89 413.13 42.79 415.67 35.83 416.07 32.12 414.83 26.84 412.05 19.34 411.77 13.52 413.85 9.35 416.24 6.87 420.82 4.32 429.25 1.66 438.32 1 444.93 1.6 459.39 5.67 470.86 12.46 477.79 16.99 484.74 23.37 488.26 28.51 491.88 35.79 495.39 41.48 496.78 45.83 497.96 53.73 495.52 63.85 495.63 68.95 501.39 73.27 504.07 74.14 509.74 75.12 522.56 75.63 532.27 77.02 543.1 79.18 548.88 79.89 559.95 79.72 569.32 78.69 573.46 77.9 581.49 74.78 584.76 74.74 586.98 76.43 589.46 72.92 592.79 70.46 596.01 68.94 600 66.1 605.92 62.94 611.5 61.89 620.86 61.12 628.88 61.71 635.86 63.54 639.29 65.57 642.81 68.94 650.35 74.41 658.15 79.78 663.37 82.72 666.22 85.64 669.41 94.88 669.53 99.3 668.8 102.38 666.39 108.11 666.17 109.9 668.12 114.53 670.32 117.32 673.15 119.79 674.42 124.08 676.19 126.9 674.46 132.79 679.19 134.68 681.07 138.18 682.59 143.5 682.52 145.17 678.3 148.99 675.82 153.5 675.86 156.74 674.81 158.9 670.87 162.22 672.22 164.49 673.03 168.65 672.58 171.61 674.57 176.44 677.1 179.59 677.39 183.1 674.82 187.61 675.79 194.17 676.8 195.62 676.22 200.76 676.48 202.68 681.5 205.47 683.92 206.38 687.23 206.19 690.01 207.15 693.18 209.99 697.79 213.22 707.55 217.58 712.4 222.66 714.14 223.51 720.59 228.02 723.69 232.15 725.46 238.42 728.81 240.2 732.1 241 736.06 244.64 735.59 246.83 740.29 251.46 745.5 259.73 746.99 259.75 749.1 268.95 749.03 274.27 750.18 281.09 751.58 283.72 757.28 287.75 759.17 288.48 764.94 289.45 769.13 291.45 771.96 292.14 772.02 297 774.54 300.2 774.87 302.46 772.65 306.58 769.2 308.04 767.33 310.15 766.98 315.25 770.03 321.34 769.62 325.03 766.3 326.87 761.32 327.98 753.36 330.54 748.6 330.45 744.29 327.44 741.43 326.03 739.89 326.29 733.32 330.21 728.97 334.01 723.28 335.29 721.03 337.32 716.17 339.99 712.36 340.24 711.79 341.21 707.36 341.86 705.18 343.35 702.74 346.27 699.72 345.51 699.34 348.08 703.22 355.22 704.22 358.51 702.66 363.52 700.63 365.06 698.41 365.11 696.13 367.82 693.8 369.01 692.81 371.29 690.85 373.15 688.45 377.87 683.2 380.15 681 381.71 681.61 382.84 685.14 383.69 689.7 385.57 696.34 389.03 697.12 392.94 699.41 397.99 699.21 402.89 696.38 409.3 696.53 412.39 700.9 416.52 703.8 418.58 707.38 422.25 708.91 424.57 710.22 429.74 712.51 432.91 723.25 435.79 731.71 436.56 735.9 437.99 743.46 437.43 745.56 439.81 744.76 442.85 745.6 446.38 750.92 452.32 752.28 455.64 752.11 462.43 753.33 465.79 757.54 469.4 764.78 483.36 765.06 487.75 766.48 488.72 770.9 489.68 Z"/>
</g>
</svg>