<?xml version="1.0"?>
<svg xmlns="http://www.w3.org/2000/svg" version="1.2" baseProfile="tiny" width="800" height="579" viewBox="0 0 800 579" stroke-linecap="round" stroke-linejoin="round">
<g id="4207650">
<path d="M 667.2 64.6 668.07 67.23 670.3 69.4 672.76 70.56 678.46 71.05 682.68 70.78 688.85 69.4 692.97 68.15 698.37 66.99 705.98 66.81 709.45 67.46 713.55 68.87 717.2 71.89 718.74 75.42 719.38 78.15 719.28 82.93 718.51 90.27 717.1 97.08 717.09 99.59 716.22 106.63 715.93 113 715.01 124.58 715.01 132.88 713.88 139.15 713.15 148.52 714.05 154.4 716.13 155.87 722.16 157.98 733.7 163.09 738.45 164.89 742.34 166.77 743.97 169.05 743.59 171.17 741.6 174.1 738.7 176.61 735.12 178.5 730.06 179.33 727.38 180.29 720.02 183.96 718.29 185.41 717.78 187.23 718.85 194.42 720.73 197.79 723.91 205.1 729.06 213.65 734.85 224.79 736.43 226.91 745.18 233.27 747.45 235.38 750.94 237.5 754.03 238.45 756.19 237.64 759.03 235.71 762.58 231.43 763.76 229.51 768.95 223.23 771.79 219.16 773.67 217.13 776.1 216.04 779.67 216.7 781.29 218.49 784.65 225.98 786 231.19 785.06 237.07 784.5 243.26 784.73 247.19 784.16 249.85 782.82 262.01 783.84 268.93 786.15 274.2 789.32 283.38 792.25 290.1 795.59 295.51 797.88 298.39 799 301.16 796.45 301.31 793.51 300.46 791.18 302.17 789.83 300.54 785.32 296.61 776.68 291.83 775.81 292.82 773.93 292.19 773.69 290.96 771.69 289.79 770.68 290.55 768 289.6 765.7 290.03 763.29 288.75 761.68 288.72 759.29 290.42 755.5 292.18 750.71 292.51 750.17 293.99 745.21 294.46 742.67 292.39 740.42 292.3 736.84 289.37 735.66 287.74 733.13 286.53 730.73 283.17 728.11 283.15 725.31 280.57 722.5 279.19 719.97 279.1 717.81 279.74 716.3 283.85 714.47 286.88 712.61 288.3 709.24 291.88 707.37 292.7 704.37 292.12 700.85 293.4 698.68 293.16 694.03 294.69 691.14 294.69 687.55 295.78 685.24 295.1 682.14 296.14 681.75 297.35 679.18 298.57 676.21 301.47 673.93 304.95 667.08 309.85 665.51 312.04 663.07 313.88 659.88 314.46 657.74 313.65 649.16 315.82 647.49 317.08 643.44 316.25 637.48 316.22 635.97 315.79 631.29 312.32 628.84 311.15 626.13 307.21 624.03 305.14 622.32 302.25 617.82 300.3 613.36 299.16 605.01 297.56 597.13 296.79 592.6 296.01 587.75 294.17 585.35 292.36 581.76 288.53 579.28 286.4 574.91 283.56 571.63 281.96 566.7 280.44 560.88 277.64 559.29 277.37 553.72 278.17 550.38 277.76 544.86 273.65 542.41 272.66 537.99 272.37 534.86 272.89 527.02 275.75 521.95 278.53 519.32 282.56 514.84 292.63 512.3 297.28 510.9 301.68 511.12 303.4 513.67 307.37 516.38 310.46 521.58 315.45 523.3 317.51 528.26 325.06 532.31 332.9 535.52 339.84 536.09 344.54 535.07 346.09 532.53 347.46 530.54 350.69 530.64 355.23 535.53 362.61 531.74 368.75 529.4 373.65 528.87 382.04 529.65 387.27 528.78 389.42 523.77 392.57 519.45 397.22 517.26 400.76 515.67 404.25 513.43 406.36 507.43 407.64 498.83 408.01 495.73 409.48 490.45 415.06 487.89 417.13 483.17 419.93 477.52 422.74 474.61 423.47 473.09 423.22 414.72 477.58 417.91 480.3 420.23 483.87 422.43 489.06 424.9 497.6 427.03 500 430.18 501.22 430.78 503.85 423.19 505.57 416.23 508.06 411.07 510.23 405.39 511.52 399.44 516.28 395.76 517.82 391.36 521.07 388.77 523.76 382.2 532.53 380.75 536.74 378.6 546.47 376.13 549.39 341.75 556.95 338.24 557.29 334.06 558.52 332.27 557.31 330.4 558.53 326.21 558.41 324.24 556.78 320.72 555.52 319.09 553.12 318.43 548.65 317.4 546.25 313.77 543.55 310.1 543.11 307.4 546.47 305.64 546.61 304.51 543.28 303.92 539.23 302.13 538.53 299.14 538.78 297.04 540.91 292.52 541.55 289.53 540.38 284.66 542.14 281.46 542.91 274.72 545.71 271.13 545.5 267.35 546.86 263.91 546.81 259.65 545.54 256.63 543.73 254.37 543.46 251.06 540.49 246.23 540.45 245.44 539.95 241.98 535.49 239.21 533.14 237.84 530.47 236.5 529.25 209.98 578 162.28 576.18 161.77 572.88 162.92 571.9 167.02 570.73 171.64 568.96 174.02 568.74 178.08 569.09 181.04 567.9 179.55 563.94 178.87 559.8 176.7 550.24 174.91 546.17 173.55 544.67 168.89 542.1 168.26 539.69 169.62 539.4 176.05 540.23 178.45 539.41 179.06 536.82 179.76 530.13 179.24 527.21 181.19 525.69 158.62 526.48 161.64 516.86 163.62 512.95 166.56 509.76 171.18 506.32 172.5 502.91 172.99 498.98 172.26 494.85 166.68 484.71 165.89 480.32 167.45 471.98 166.9 469.57 164.63 465.72 163.34 457.17 161.01 450.96 161.64 448.07 168.6 438.49 172.37 430.12 174.65 424.51 177.42 420.51 177.41 418.77 176.18 414.43 177.05 412.47 179.06 410.52 183.19 401.35 185.59 393.61 184.07 389.4 179.03 384.81 176.39 383.17 175.23 381.76 173.96 378.31 169.74 371.67 169.71 367.71 171.87 364.92 176.32 361.88 179.07 359.36 179.73 356.36 178.31 353.95 177.28 348.75 175.56 345.79 173.41 343.67 168.96 341.44 166.7 339.79 162.93 336.02 67.61 337.83 61.4 330.85 58.68 329.21 57.03 325.58 54.28 322.1 54.1 320.65 52.47 317.7 52.53 315.73 50.33 312.09 49.91 310.02 48.34 308.74 46.31 305.6 43.05 303.36 38.53 299.69 37.23 297.7 35.26 297.12 31.99 294.99 27.23 294.31 24.68 291.92 23.69 289.61 20.42 285.11 15.46 282.68 16.01 281.6 14.38 279.09 12.66 277.8 13.53 270.37 15.68 269.19 20.22 271.88 22.59 272.62 24.78 272.25 25.87 271.15 30.04 268.74 32.93 263.51 35.84 263.95 37.51 265.43 42.41 266.99 43.6 266.86 46.47 263.69 48.28 258.41 50.2 256.19 50.67 254.24 54.48 248.4 57.93 248.38 62.5 250.42 63.6 249.88 65.86 245.6 66.4 242.92 68.31 240.52 73.85 237.74 75.97 233.97 76.47 232.22 75.73 229.83 78.67 227.93 79.94 226.24 81.49 225.89 84.83 226.57 87.23 225.35 88.78 221.88 91.84 219.35 94.02 219.46 100.53 218.95 105.99 219.91 108.7 218.85 117.52 216.61 117.58 212.82 118.6 210.5 118.99 206.09 119.8 204.57 123.29 202.51 126.13 199.24 128.3 197.39 128.96 195.61 126.74 189.68 126.39 187.04 129.1 182.34 132.8 178.98 134.56 177.86 138.42 176.85 142.08 174.58 144.55 171.51 146.06 170.59 147.72 167.29 146.86 165.73 138.81 158.65 138.17 157.48 139.51 153.58 139.65 149.86 138.65 148.43 137.89 143.31 137.94 138.81 136.45 135.93 136.13 134.04 133.58 131.62 131.05 128.28 127.98 126.9 122.91 123.73 121.85 122.04 117.64 120.73 114.74 120.79 111.69 122.04 108.44 118.75 107.06 118.83 104.11 116.95 102.06 117.6 98.71 117.41 97.79 116.25 95.59 115.82 94.1 113.78 91.36 112.73 90.14 111.52 84.75 111.61 80.41 109.05 77.49 108.93 73.99 109.97 73.52 112.69 70.25 109.67 68.9 107.31 67.15 105.86 65.48 101.11 62.91 99.28 57.77 97.75 54.22 97.54 48.52 95.35 40.93 95.45 35.44 96.81 33.02 97.08 28.19 96.7 21.24 100.55 20.74 101.69 21.53 104.51 20.4 105.88 18.04 105.07 11.87 108.24 5.08 115.07 5.67 117.18 2.1 115.74 1 112.63 2.14 110.89 6.86 106.36 8.73 103.65 14.41 98.21 20.43 93.56 25.25 91.09 29.58 89.29 30.45 87.76 30.16 84.56 26.96 78.38 26.8 75.1 27.88 72.46 29.92 70.3 31.27 68.93 34.38 67.98 40.05 67.98 47.07 70.4 49.77 72.46 55.47 75.32 59.58 75.9 60.69 74.31 60.52 70.27 63.14 69.93 65.53 71.59 67.5 71.78 73.51 69.73 73.48 68.8 69.49 66.99 66.96 65.35 65.71 63.7 65.38 61.78 68.38 57.77 69.88 57.61 72.62 58.78 80.95 60.93 83.54 59.89 83.59 58.82 76.09 55.42 74.55 53.26 75.2 50.11 77.29 48.95 82.78 47.69 86.43 46.22 89.1 45.73 93.47 46.33 100.32 48.62 100.71 53.74 102.24 55.18 105.73 56.99 111.9 59.03 115.76 59.17 118.5 58 119.3 56.87 113.26 52.42 113.62 47.83 118.29 44.85 123.17 38.8 124.84 38.56 127.45 39.39 128.24 40.72 133.91 42.41 137.9 42.42 143.72 41.58 147.51 42.23 150.66 42.21 150.68 44.56 153.4 46.71 157.13 46.99 163.98 44.49 166.37 45.48 168.09 47.5 169.42 50.41 171 51.9 174.66 52.47 178.34 49.69 179.04 47.33 181.33 42.39 183.15 41.31 188.03 40.07 191.71 40.67 197.13 40.52 203.51 42.63 205.26 42.84 212.3 42.36 215 42.62 216.57 40.65 218.78 39.97 223.61 37.63 224.63 36.37 226.71 37.82 228.89 36.45 231.55 36 234.49 34.56 238.59 31.31 243.07 31.94 248.47 30.88 249.86 28.94 250.49 26.12 252.51 23.88 258.85 23.13 260.28 22.33 263.5 21.94 265.09 20.38 265.58 18.09 269.35 17.75 272.88 18.61 274.79 16.98 274.81 15.16 275.92 12.52 280.79 10.59 282.78 7.94 287.08 6.71 288.69 7.86 291.94 8.05 294.97 5.76 296.84 6.48 300.23 6.27 302.54 7.63 304.34 9.45 307.34 9.51 310.24 8.68 315.21 8.65 317.6 7.81 321.87 7.29 324.49 7.5 326.46 6.06 331.5 3.38 333.55 2.81 333.55 1 336.1 1.18 341.61 2.31 338.02 7.72 337.72 10.31 340.04 10.7 346.5 14.52 348.5 17.1 350.64 18.71 355.61 19.55 359.61 21.17 361.48 21.02 365.49 22.99 372.04 23.67 375.64 24.51 376.8 25.39 383.59 26.07 385.8 27.24 391.9 28.55 394.68 28.13 397.9 29.17 402.31 29.62 404.08 31.29 411.33 31.39 415.93 32.81 422.68 31.33 426.27 31.64 427.59 32.37 432.1 33.33 434.45 33.36 438.29 31.69 439.55 30.17 444.15 30.43 447.18 29.46 450.76 29.97 452.84 29.58 455.65 27.29 459.56 25.49 460.95 25.4 464.68 26.42 468.84 28.05 473.17 28.18 475.42 30.79 479.28 33.65 483.57 34.49 485.5 34.44 488 35.44 493.36 35.42 495.76 36.28 500.84 36.1 502.4 35.57 504.09 33.48 506.94 34.02 508.77 33.02 511.23 30.75 514.27 31.24 518.12 33.33 521.49 35.67 523.18 35.56 527.73 33.78 533.02 29.77 537 26.17 543.38 26.29 546.92 27.33 551.55 29.85 551.69 34.2 552.77 34.17 553.46 30.7 557.28 31.38 561.3 30.3 564.24 28.95 567.36 28.82 575.5 30.76 578.25 30.74 580.28 29.16 582.82 25.21 585.88 24.55 587.83 22.99 589.65 22.75 593.09 21.3 598.98 21.76 599.59 23.79 602.88 25.57 607.57 25.44 609.67 26.67 611.79 27.03 614.77 24.76 617.47 24.81 617.99 27.8 614.3 34.01 611.32 35.15 611.33 44.6 613.55 46.67 614.74 49.23 621.93 50.63 624.09 50.77 625.6 49.87 627.68 47.24 629.35 46.81 633.1 47.98 636.48 48.56 638.49 52.07 638.66 54.75 636.47 58.45 637 60.53 641.09 60.76 648.21 55.99 652.86 54.3 655.77 53.75 657.51 54.22 663.11 58.17 665.89 63.76 667.2 64.6 Z"/>
</g>
</svg>