<?xml version="1.0"?>
<svg xmlns="http://www.w3.org/2000/svg" version="1.2" baseProfile="tiny" width="800" height="1336" viewBox="0 0 800 1336" stroke-linecap="round" stroke-linejoin="round">
<g id="4207304">
<path d="M 796.96 1335 794.23 1333 797.56 1331.06 799 1333.4 796.96 1335 Z M 556.95 1203.12 554.22 1202.75 554.84 1199.58 553.74 1198.43 553.59 1193.82 555.58 1185.55 565.91 1169.9 567.19 1166.24 570.34 1164.97 571.34 1166.6 571.6 1171.3 570.85 1173.04 567.7 1174.79 570.18 1178.75 567.87 1180.46 566.48 1183.93 561.3 1190.21 557.45 1198.02 556.95 1203.12 Z M 536.21 823.6 535.18 824.76 529.36 825.44 527.33 821.57 529.59 818.99 529.66 814.35 532.87 813.21 536.94 815.35 539.68 819.69 539.1 822.14 536.21 823.6 Z M 552.08 791.15 547.86 791.65 546.05 789.75 542.46 788.98 540.24 785.1 541.89 782.77 546.6 781.07 550.52 783.04 553.99 785.93 552.08 791.15 Z M 597.11 355.6 596.06 356.76 590.41 354.86 588.35 353.29 584.3 348.2 584.26 344.45 594.03 340.85 598.85 340.81 601.51 345.91 601.53 347.71 598.23 352.85 597.11 355.6 Z M 631.38 151.42 629.23 151.16 626.95 153.92 625.76 158.31 622.78 163.45 625.92 172.69 630.91 180.87 638.06 179.58 640.01 177.41 644.03 177.26 646.78 179.32 650.18 180.05 650.43 183.31 648.5 185.26 647.83 189.21 645.81 192.2 645.42 194.53 642.27 200.21 638.83 199.02 632.7 199.69 631.11 201.32 626.34 199.71 622.24 195.65 619.58 195.7 617.68 194.41 614.38 195.17 609.88 198.25 605.32 204.43 598.54 220.17 593.34 235.13 589.84 233 592.33 227.41 590.24 225.2 587.83 227.62 582.7 225.6 581.29 226.49 581.41 230.03 578.79 231.28 578.3 234.87 583.85 234.71 586.27 235.2 588.64 232.98 591.62 235.8 592.71 238.91 590.54 245.25 590.02 249.22 590.63 250.86 590.04 255.97 591.68 267.15 594.4 269.43 596.87 268.42 599.71 271.59 601.52 272.38 602.24 279.43 603.4 280.66 606.65 280.47 610.39 278.7 616.2 278.29 622.47 274.53 625.09 278.57 624.38 281.23 618.66 285.74 620.93 287.49 619.01 289.21 613.65 292.03 612.14 294.85 609.59 297.07 605.82 297.56 604.77 299.16 601.88 299.43 597.37 301.45 594.85 301.04 588.97 298.79 587.95 301.45 581.41 303.25 580.1 305.34 576.34 304.09 573.82 307.26 571.19 317.48 570.99 326.26 571.34 331.75 569.5 336.58 562.7 342.68 554.49 348.83 550.39 351.32 545.74 356.1 538.85 367.02 538.01 370.55 533.28 380.95 529.57 387.16 528.46 390.15 525.39 394.31 522.66 401.38 516.54 412.47 515.69 415.59 512.04 422 510.75 427.14 508.31 432.26 507.4 435.63 504.72 440.59 502.48 448.72 497.95 460.32 495.94 468.71 492.06 482.62 490.43 493.64 489.48 496.4 488.53 503.26 488.68 522.51 489.74 524.58 490.74 532.32 492.96 539.04 494.78 543.12 497.92 546.98 505.87 545.65 510.21 548.52 514.19 545.04 516.65 544.69 518.93 545.83 520.36 549.42 517.2 556.61 519.54 560.43 518.44 563.08 514.98 568.18 510.93 568.48 506.45 571.41 504.51 571.39 499.56 575.42 498.43 580.8 499.69 581.91 499.08 585.47 500.04 587.44 499.49 591.91 498.21 594.38 493.39 595.88 491.51 592.96 487.81 592.52 485.16 596.77 481.55 599.39 478.53 600.56 475.24 609.17 474.23 610.47 475.48 614.25 480.61 616.93 483.89 619.35 485.82 619.51 491.4 623.29 493.48 626.23 492.93 629.05 490.31 634.18 487.64 635.46 488.05 638.77 481.72 638.5 476.98 635.93 473.48 637.51 470.86 641.01 469.71 644.11 468.75 649.41 469.12 657.95 471.97 666 472.91 670.63 475.08 676.4 479.21 684.23 481.71 687.5 483.26 691.43 486.27 695.9 493.48 704.91 493.84 707.29 498.49 713.94 510.48 722.85 516.38 725.84 523.45 730.76 525.25 734.09 532.15 732.41 536.14 740.41 542 740.54 545.83 742.45 551.26 738.33 551.02 735.31 546.79 723.99 551.87 722.15 559.09 720.59 562.1 720.99 561.78 724.08 563.8 729.32 568.53 730.48 571.06 736 569.18 736.56 573.18 742.73 573.15 745.09 576.36 752.8 564.81 753.66 565.59 758.21 562.93 762.59 552.66 762.5 550.89 764.63 542.33 771.55 540.79 774.41 540.85 777.34 538.84 779.58 536.8 776.53 529.84 777.1 526.73 778.26 520.16 782.1 513.27 788.84 509.02 796.07 502.23 801.76 495.12 805.61 484.29 809.79 479.17 812.84 462.24 825.63 455.63 832.28 451.64 835.42 447.27 840.05 438.39 850.44 437.61 850.81 427.95 861.29 423.26 868.21 416.73 876.14 414.85 877.88 409.7 884.92 408.23 887.77 403.58 893.29 391.54 910.7 390.19 913.6 379.98 928.88 378.37 932.14 374.54 937.15 366.54 949.68 349 979.43 338.52 997.79 335.64 1003.58 332.14 1009.43 326.2 1021.26 324.08 1026.29 321.6 1030.32 317.47 1038.8 308.46 1058.95 307.33 1062.39 299.25 1079.68 296.1 1088.8 292.14 1096.62 291.47 1099.21 288.43 1105.85 286.86 1111.12 282.63 1121.31 278.88 1132.99 276.83 1140.67 275.06 1144.84 273.97 1149.34 270.9 1155.81 269.65 1160.61 266.83 1168.63 265.05 1178.34 262.96 1184.54 261.08 1192.5 259.28 1203.79 259.12 1213.03 261.09 1227.63 265.52 1241.52 270.11 1250.81 276.48 1258.68 283.33 1264.67 286.49 1266.38 289.15 1265.87 295.86 1261.06 299.18 1261.21 306.67 1258.14 309.97 1254.97 313.24 1256.08 317.18 1256.2 316.93 1257.97 319.08 1260.29 318.55 1263.45 316.41 1265.67 311.26 1266.04 307.27 1268.66 303.53 1268.49 303 1270.56 296.72 1272.69 294.99 1274.23 293.41 1279.08 293.36 1284.43 289.44 1287.5 288.1 1289.43 280.63 1288.96 275.06 1281.55 152.9 1239.99 34.1 1199.57 32.26 1188.15 32.19 1181.99 33.81 1173.21 35.75 1167.64 39.54 1160.76 43.27 1156.22 49.44 1150.31 59 1142.57 69.35 1132.73 77.55 1124.28 84.08 1116.84 89.46 1110.02 94.11 1103.49 98.18 1097.04 101.76 1090.54 104.92 1083.81 107.81 1076.47 110.86 1067.06 114.55 1053.92 119.75 1033.93 122.38 1024.57 127.18 1010.31 133.15 995.46 142.67 973.39 152.24 949.31 158.35 932.43 164.05 915.42 169.18 898.73 173.62 883.02 177.3 869.1 183.76 843.06 185.67 829.16 186.32 816.15 184.7 796.35 179.61 782.99 168.88 766.88 155.42 754.01 130.66 736.36 117.93 720.48 110.34 693.81 107.74 686.18 104.53 667.21 104.05 662.94 103.95 653.9 102.77 637.65 103.78 627.84 109.81 614.93 111.16 608.95 114.85 596.58 114.29 592.94 108.88 584.46 109.2 580.28 112.41 576.36 118.38 574.54 123.25 575.77 130.78 580.42 136.88 582.77 142.8 582.95 148.6 581.04 151.88 578.72 154.53 575.24 156.28 570.9 156.97 566.83 156.32 560.76 152.84 547.64 150.32 541.03 147.74 537.61 143.39 534.98 135.28 534.41 130.07 532.55 127.18 530.21 124 524.94 122.91 518.54 123.75 513.49 127.56 505.11 127.81 500.96 125.67 497.45 120.31 493.75 117.55 490.57 117.27 485.52 119.27 480.93 121.55 477.99 124.22 476.5 127.03 476.19 132.73 478.79 137.39 482.16 141.03 483.5 143.71 483.48 147.58 480.74 149.14 478.71 153.14 469.58 157.1 464.24 159.28 458.1 158.76 454.73 156.41 451.2 153.08 449.02 144.89 446 142.08 443.71 139.59 438.75 138.89 434.53 139.4 423.47 138.75 410.44 140.03 404.31 141.94 400.87 148.54 396.06 150.12 393.15 151.35 380.56 154.23 371.04 154.15 368.4 151.58 364.23 147.28 361.15 138.61 357.06 134.34 355.67 130.28 355.72 126.19 357.31 124.06 359.25 122.94 362.99 120.63 367.67 117.1 369.96 112.92 369.28 110.63 367.32 101.66 355.8 97.4 348.86 96.82 345.38 98.65 340.1 100.42 338.25 105.67 336.62 112.47 337.43 117.14 337.01 121.35 333.12 124.92 320.72 125.62 314.91 125.39 311.97 121.42 305.64 109.82 295.45 103.17 291.97 95.93 290.51 89.6 291.49 83.14 293.85 79.29 294.67 73.33 294.38 69.69 293.02 67.73 290.81 67.06 287.5 69.45 284.36 77.78 281.85 82.61 278.06 84.86 274.2 87.93 271.01 91.29 269.28 95.54 269.77 102.49 272.45 105.61 273.08 109.5 272.52 112.58 270.07 114.41 266.53 115.48 262.28 116.22 253.7 115.43 249.59 114.16 247.63 108.11 244.78 100.56 244.77 93.88 246.57 91.42 246.53 88.27 243.32 88.26 239.75 90.76 235.85 93.95 233.68 106.25 231.77 109.04 229.15 110.26 226.08 111.13 217.99 109.75 210.59 105.84 204.77 95.7 192.62 92.46 189.5 86.11 186.37 81.49 185.18 77.22 185.25 73.46 186.35 71.13 188.46 69.78 191.32 70.25 196.16 71.33 199.48 70.8 204.43 67.06 207.79 64.58 207.97 60.85 206.89 56.47 203.07 53.73 198.64 50.79 190.03 47.83 186.8 42.7 184.33 39.98 181.91 39.06 179.1 40.51 172.74 43.62 167.79 46.1 166.56 51 166.13 58.15 167.67 60.53 168.91 68.06 176.13 72.45 176.74 77.46 173.5 80.29 169.66 81.25 165.46 80.49 161.74 78.36 159 73.41 155.57 70.98 154.54 65.89 154.99 59 158.31 54.24 157.55 52.51 156.16 51.1 152.9 50.99 150.25 52.21 146.83 59 139.77 59.52 137.19 57.64 133.47 52.65 129.29 47.85 129.55 44.19 133.61 43.47 136.28 43.61 142.2 42.25 146.47 38.86 148.42 32.55 148.17 27.5 148.71 25.36 147.59 23.03 142.74 20.9 141.38 14.69 138.95 11.73 136.09 11.43 133.83 12.55 130.97 13.57 125.26 15.41 122.79 18.62 121.52 26.09 123.17 27.81 121.67 32.16 123.68 34.51 122.42 32.76 119.8 33.31 118.36 37.11 116.09 33.88 113.92 30.44 114.1 26.84 112.34 22.63 113.57 20 113.52 16.8 111.18 16.36 106.9 21.15 101.88 25.46 96.34 26.72 92.37 26.12 89.8 29.34 84.47 26.14 82.83 24.85 80.09 19.32 80.96 19.73 76.22 17.39 75.19 16.51 71.06 20.07 70.96 16.92 65.15 13.93 64.54 12.6 62.62 12.72 60.07 16.08 58.37 19.32 54.38 18.57 51.72 15.97 48.82 11.58 47.26 7.6 46.91 4.86 44.39 4.28 41.74 1 39.44 142.77 19.31 271.68 1 272.72 4.58 277.78 7.68 277.51 9.39 272.83 13.8 269.83 15.62 270.11 19.25 273.54 18.85 279.11 24.34 283.19 25.9 286.31 25.75 294.13 29.18 299.98 30.49 296.7 32.1 296.82 34.71 298.25 37.68 298.82 43.17 297.03 45.07 294.49 45.22 290.22 41.05 286.63 40.35 281.71 40.66 277.21 42.5 276.13 48.67 277.1 50.53 280.8 52.49 284.43 52.97 290.84 56.94 295.72 58.58 300.86 59.61 304.12 61.81 302.56 64.11 298.61 63.72 294.07 65.41 292.87 68.49 293.59 71.51 301.02 79.84 299.93 82.01 295.87 83 293.97 86.28 295.29 90.88 298.78 98.1 302.78 98.99 315.13 97.26 322.82 94.13 330.04 92.16 331.89 92.87 332.45 99.13 412.31 114.47 470.28 174.58 544.4 162.61 607.64 155.61 610.16 151.75 612.74 149.45 615.8 148.91 626.55 140.72 628.8 140.8 630.93 143 632.07 146.23 631.38 151.42 Z" fill-rule="evenodd"/>
</g>
</svg>