<?xml version="1.0"?>
<svg xmlns="http://www.w3.org/2000/svg" version="1.2" baseProfile="tiny" width="800" height="907" viewBox="0 0 800 907" stroke-linecap="round" stroke-linejoin="round">
<g id="4207700">
<path d="M 538.57 114.06 539.28 116.82 534.75 117.06 535.11 119.22 536.64 120.82 536.41 124.04 535.1 124.37 531.83 123.06 531.6 125.11 529.95 128.18 528.99 131.36 529.9 135.34 525.98 140.91 528.45 142.77 506.82 170.95 525.66 185.21 515.29 196.54 510.32 203.01 513.2 205.27 509.12 210.88 502.64 222.29 517.39 229.83 550.23 278.71 510.12 305.57 468.53 319.35 472.55 347.31 490.31 347.57 483.7 384.71 483.37 420.79 485.66 452.86 499.5 513.19 502.31 509.94 504.35 504.89 505.34 504.11 511.18 501.53 513.77 499.35 516.15 498.52 523.95 498.25 525.67 498.52 529.61 500.29 533.5 503.15 545.32 503.17 548.05 504.26 552.35 508.57 555.49 508.26 558.39 505.54 592.22 505.65 592.43 514.55 595.13 522.37 594.47 527.94 594.47 532.89 595.01 537.97 594.48 539.25 598.79 545.6 599.68 549.91 602.46 555.99 604.42 558.56 604.85 561.56 604.43 563.98 604.38 573.46 605.48 577.03 610.21 583.82 640.26 582.69 639.68 608.29 715.68 607.8 714.14 635.12 714.28 682.25 722.18 686.07 773.86 670.95 778.16 674.47 780.27 674.26 782.19 677.55 782.44 680.39 781.09 681.48 775.96 681.3 774.97 683.33 782.08 686.94 781.59 689.58 782.28 691.07 786.11 691.88 784.7 694.47 785.07 697.86 783.78 698.63 781.76 695.94 779.97 695.02 778.53 695.93 776.76 701.45 775.67 703.7 776.93 704.59 778.47 703.04 781.51 703.72 781.81 705 778.88 707.28 775.13 709.12 774.22 711.33 779.43 712.42 781.9 713.88 784.73 714.75 786.73 716.42 787.54 718.89 789.75 722.32 788.21 723.38 782.73 720.7 780.41 721.44 780.01 726.35 775.6 725.89 763.25 732.41 758.81 735.41 758.29 736.87 759.2 738.85 756.99 741.23 759.23 742.74 763.54 742.86 765.73 743.91 769.35 744.55 771.07 745.63 774.88 750.66 779.44 752.52 780.15 753.77 778.55 757.25 775.77 758.17 775.19 759.14 775.68 763.09 784.53 780.78 783.59 811.62 784.3 841.09 780.25 842.94 777.83 844.55 775.9 846.88 777.18 850.23 782.54 854 784.94 855.18 789.21 856.24 792.34 857.96 797.81 862.09 799 865.36 798.19 867.85 796.37 869.25 795.05 871.61 792.57 873.17 788.85 873.24 786.68 872.73 785.16 871.41 783.74 868.41 782 867.53 777.65 867.34 774.8 866.64 769.16 865.94 763.58 867.96 761.24 868.21 756.67 867.66 753.82 866.87 750.94 867.33 747.75 867 745.38 865.31 742.48 857.82 742.58 853.55 744.1 851.35 746.64 849.3 750.07 845.63 751.92 841.69 751.99 838.1 749.75 833.63 747.04 831.13 744.42 825.38 740.75 821.72 739.89 820.19 738.85 814.77 738.94 811.55 737.64 807.57 734.66 805.22 731.98 804.68 728.36 805.41 725.96 806.82 723.29 809.93 721.99 813.78 719.63 817.67 719.13 820.61 716.99 824.1 712.62 825.85 708.43 826.72 702.29 824.55 699.71 824.49 697.89 825.54 696.65 828.68 699.33 833.7 702.35 834.04 703.57 834.92 704.21 837.15 708.04 843.22 709.88 846.91 713.87 851.47 716.78 857.03 717.49 861.09 717.38 865.49 715.88 870.69 713.81 873.3 711.68 878.19 708.09 883.16 707.57 884.83 708.07 889.34 707.73 891.75 705.84 893.83 703.74 893.86 701.6 892.83 699.85 887.89 697.6 885.92 691.72 883.33 682.67 882.4 679.23 882.4 676.12 883.51 672.29 883.56 669.4 882.6 666.95 879.71 665.74 877.34 665.37 874.44 667.2 872.18 667.25 869.29 666.54 864.92 663.17 858.08 662.37 857.48 658.05 857.01 655.12 856.19 651.95 856.38 642.57 865.22 641 866.43 635.26 866.09 631.91 865.29 623.44 864.5 618.45 865.85 617.47 870.35 618.06 871.57 620.63 873.43 622.97 875.99 626 880.23 626.67 882.08 627.28 887.32 620.94 891.95 618.07 893.12 613.2 893.28 609.85 896.04 605.99 897.68 604.41 899.61 604.45 903.71 598.68 906 586.42 897.65 574.48 888.79 561.55 880.72 548.84 860.27 535.96 834.22 526.89 818.94 516.74 805.93 495.29 771.18 492.22 775.76 494.12 782.4 493.32 783.96 492.95 788.02 492.13 790.04 491.67 794.14 493.46 795.9 491.07 797.84 489.3 801.98 486.69 801.88 476.23 780.54 451.6 745.63 431.82 714.41 426.52 703.86 413.92 701.72 411.99 701.13 405.1 694.23 402.06 691.6 398.81 690.35 393.91 687.88 392.43 686.09 388.84 685.53 385.31 685.9 384.34 686.71 384.69 688.9 380.99 691.41 383.21 693.42 383.48 696.23 381.42 697.38 365.15 698.56 362.37 698.45 358.18 699 355.86 698.19 354.73 696.12 354.47 692.22 353.1 682.69 350.81 679.63 349.24 675.99 346.86 673.7 338.62 671.75 334.53 672.29 332.3 673.61 332.77 675.97 334.69 677.98 335.29 682.36 336.01 683.35 337.76 688.78 336.29 691.9 334.33 692.21 329.14 691 322.25 686.99 315.16 683.45 312.96 682.9 309.68 683.12 306.83 684.21 305.77 687.41 301.54 694.25 298.99 695.57 297.57 695.5 293.06 693.08 286.64 686.07 284.99 684.61 282.56 684.08 281.51 689.36 282.38 695.07 279.75 695.29 277.5 692.01 277.68 688.35 274.84 686.06 272.98 683.62 272.48 681.47 273.81 676.95 272.33 675.49 270.94 672.32 269.8 666.98 270.04 663.95 267.18 660.36 264.13 658.83 260.71 658.19 259.24 660.51 260.07 664.09 262.63 669.6 261.23 671.71 254.22 671.61 253.28 669.83 252.57 664.62 247.59 663.89 244.94 664.76 242.4 666.43 237.92 666.19 227.46 667.95 225.58 667.88 224.45 666.2 225.02 662.97 219.68 659.76 215.04 659.01 208.1 659.26 198.51 659.88 192.99 659.68 181.52 660.18 179.87 659.27 178.2 656.38 175.13 655.67 174.04 653.18 171.7 650.25 172.54 647.57 168.44 646.33 167.82 645.38 168.23 642.51 167.17 640.69 161.86 636.98 157.92 636.11 156.03 634.98 154.73 631.87 152.29 629.43 150.71 629.14 142.03 622.86 133.59 621.3 128.67 621.05 121.92 619.97 115.06 616.9 107.82 605.88 107.24 603.47 102.12 589.94 101.74 587.63 99.74 581.71 96.14 577.83 95.2 571.99 75.65 558.72 77.89 554.14 78.66 551.45 79.53 545.2 79.93 540.12 85.29 536.82 86.44 534.89 84.28 532.55 81.44 526.33 78.01 524.35 76.04 522.14 75.64 520.7 76.58 518.27 78.99 515.52 81.49 513.89 86.49 508.17 92.29 502.84 95.03 501.05 103.37 498.09 107.05 497.26 108.65 496.29 109.82 494.36 110.71 490.07 113.68 486 116.96 482.48 117.76 480.97 118.49 475.34 116.53 469.29 116.3 465.53 115.47 463.77 109.83 458.11 107.2 452.65 108.8 449.48 119.07 442.37 120.75 440.68 121.61 437.18 123.47 434.72 121.81 431.13 120.65 430.13 117.06 428.97 115.41 427.15 112.52 425.9 108.83 423.48 107.04 420.63 104.24 418.23 102.46 411.88 101.96 405.06 100.78 402.92 101.8 399.29 97.63 395.15 94.83 393.61 90 391.88 83.99 393.43 81.77 394.79 79.03 393.54 77.21 395.11 75.3 394.74 74.16 396.99 70.2 397.87 67.86 397.16 64.6 397.95 60.69 396.62 54.68 399.7 52.84 401.94 50.49 402.13 46.45 400.81 42.24 403.1 40.27 405.37 36.54 406.58 34.97 409.26 32.79 411.3 25.69 412.68 24.73 414.38 25.23 416.6 22.55 417.39 21.58 419.61 19.63 419.43 18.08 421.6 17.31 425.85 14.35 427.27 13.11 428.64 13.02 430.89 13.93 432.5 14.03 435.89 11.33 435.2 8.78 432.94 6.25 435.38 1 436.99 5.98 404.26 7.69 389.18 10.25 372.37 16.75 333.75 21.2 304.74 23.05 295.48 28.85 262.83 34.19 232.43 37.47 217.47 38.76 199.46 42.2 171.29 47.5 123.87 52.12 86.15 55.81 84.72 65.72 82.48 70.01 82.18 77.54 82.58 85.11 81.64 96.17 80.65 106.4 83.2 107.88 85.45 107.13 89.58 106.07 92.85 103.35 96.95 102.66 100.53 100.54 105.79 98.83 112.28 94.87 119.71 94.47 122.29 94.93 125.44 95.88 126.51 103.17 128.34 106.56 127.92 108.94 126.24 111.49 123.46 114.23 119.02 115.89 115.36 116.6 112.16 118.21 107.94 120.15 104.31 127.58 93.58 130.49 91.13 134.3 91.1 137.52 94.16 139.86 98.47 145.34 104.62 146.7 106.87 145.18 113.36 144.71 116.83 146.85 120.41 152.43 123.36 156.28 124.08 158.46 123.69 166.02 119.34 169.56 115.87 169.91 113.22 169.08 111.25 169.88 109.76 173.3 110.7 179.79 117.01 184.34 118.46 193.5 119.48 198.72 120.69 205.6 124.5 206.74 125.43 211.99 133.76 214.77 135.24 222.59 136.93 226.88 136.2 232.6 134.44 234.86 132.82 243.11 125.47 244.04 122.97 244.26 119.77 243.87 113.5 242.96 107.56 243.29 104.02 243.01 95.18 244.45 91.52 246.95 90.53 252.51 91.2 254.58 92.2 256.96 94.91 260 105.24 261.12 107.22 265.26 111.94 273.75 118.87 278 121.18 281.09 121.08 282 120.26 282.74 116.78 282.54 102 284.61 96.27 287.45 92.01 290.03 89.54 292.41 86.3 294.08 81.6 295.59 79.42 297.83 78.9 301.92 81.22 303.56 83.46 307.92 88.05 309.84 89.44 315.89 92.79 317.8 93.52 325.04 94.58 334.75 95.09 354.63 93.68 363.3 91.99 366.13 91.08 368.89 89.47 370.67 87.05 370.69 84.25 369.34 80.13 367.17 76.75 361.26 72.03 357.8 68.64 356.38 65.93 355.3 60.86 355.66 55.46 357.4 49.37 364.17 36.16 364.89 34.28 365.17 30.74 363.98 25.87 359.88 21.11 358.41 18.14 358.78 13.72 360.05 10.58 360.83 6.33 361.84 4.29 365.23 1.57 366.9 1 371.6 1.64 373.74 2.61 377.66 6.17 385.41 16.43 387.68 21.03 391.7 25.43 397.11 27.76 404.51 28.35 407.69 29.35 415.24 33.87 419.09 34.29 424 31.07 427.79 24.22 432.98 21.82 437.07 21.4 440.59 22.44 442.44 25.65 443.43 34.45 443.52 37.81 445.37 44.78 448.84 51.24 450.81 55.6 452.34 56.94 452.88 60.99 448.29 67.41 447.73 70.58 448.54 71.6 452.76 73.77 457.37 74.72 461.57 76.37 463.82 77.82 466.26 81.69 466.82 85.45 468.95 88.29 472.33 89.51 477.4 89.22 481.26 88.23 486.08 88.33 490.1 88.92 494.96 88.35 497.33 86.97 500.18 84.35 503.09 80.85 505.66 79.36 507.67 79.39 509.53 80.83 511.42 87.02 512.47 88.78 515.81 91.64 519.02 92.02 526.05 91.08 531.52 90.72 534.55 89.75 539.82 89.56 543.2 91.43 543.93 94.53 540.19 105.38 538.12 110.03 537.66 112.59 538.57 114.06 Z"/>
</g>
</svg>