<?xml version="1.0"?>
<svg xmlns="http://www.w3.org/2000/svg" version="1.2" baseProfile="tiny" width="800" height="945" viewBox="0 0 800 945" stroke-linecap="round" stroke-linejoin="round">
<g id="4207601">
<path d="M 655.21 18.79 662.76 23.72 668.76 29.47 674.55 36.33 679.41 39.78 682.5 42.86 681.8 44.12 673.58 49.03 670.52 51.31 664.73 62.2 661.92 66.54 658.8 69.52 654.69 71.33 654.15 73.58 651.13 77.86 644.97 81.69 644.84 86.94 645.6 88.79 649.08 91.44 650.2 96.91 655.16 103.37 656.25 108.28 653.04 114.79 653.51 118.05 651.07 124.4 649.73 126.05 645.02 128.59 643.65 130.45 641.01 138.16 637.03 143.18 634.19 149.17 634.59 151.58 638.99 153.7 649.57 164.62 652.53 168.43 660.68 171.45 670.11 172.82 672.03 175.3 672.73 179.02 679.77 181.3 682.69 182.81 689.8 184.73 692.13 188.13 696.55 191.33 698.8 194.02 700.11 199.64 702.17 202.14 705.07 208.21 712.89 208.31 718.35 211.31 720.14 213.32 726.63 214.49 731.11 219.11 731.78 221.38 728.71 223.56 724.33 229.01 723.73 232.99 729.41 237.8 735.3 239.92 737.77 242.26 735.08 245.78 734.65 247.59 738.12 252.2 738.08 258.03 739.41 261.98 738.26 264.74 739.38 270.81 748.13 268.98 752.89 266.84 757.93 268.4 761.08 270.14 762.73 272.28 769.95 276.79 776.65 283.19 784.8 289.42 788.69 294.97 786.42 300.05 783.62 303.11 784.03 306.75 786.21 308.68 788.42 309.05 793.59 312.98 798.06 320.11 799 322.33 796.57 326.17 792.77 328.36 785.82 330.45 779.14 329.98 777.22 328.07 766.84 321.48 764.16 321.48 758.71 322.95 752.84 321.24 750.28 322.78 754.42 326.86 759.66 332.95 757.48 340.11 759.25 344.49 760.68 351.81 758.96 353.83 751.43 357 749.26 358.35 747.89 361.57 749.94 364.13 751.06 369.04 753.3 372.91 758.04 375.92 762.67 381.93 766.96 384.72 768.8 384.81 775.39 377.59 780.63 373.27 782.27 370.24 785.66 371.03 787.5 375.95 794.02 383.85 793.68 388.79 791.69 392.83 789.68 401.44 787.47 399.56 776.78 394.68 770.2 393.33 765.24 394.4 760.09 398.48 757.23 401.94 754.77 406.57 752.82 411.8 751.95 416.03 752.56 419.55 755.69 423.72 759.79 426.68 766.06 433.88 769.88 439.8 775.34 453.73 776.73 460.81 779.51 469.18 785.09 479.72 788.2 492.15 788.66 506.47 788.09 522.8 787.25 535.69 786.35 544.74 782.72 564.76 780.95 569.33 773.8 579.95 769.14 585.66 764.03 588.69 758.14 589.76 752.2 589.16 749.15 587.9 737.93 584.8 730.08 583.59 715.54 582.56 700.08 582 696.18 581.55 683.37 578.44 677.07 576.15 669.81 573 658.67 569.49 647.68 567.69 642.21 567.53 629.72 568.91 623.86 570.66 618.27 573.98 615.48 576.61 613.68 582.94 614.41 590.49 621.96 605.07 625.09 616.23 626.51 630.95 628.52 639.1 629.98 643.07 637.04 653.59 642.94 660.39 643.81 662.66 646.13 675.37 645.47 690.44 644.53 693.6 642.7 695.85 637.48 699.59 628.79 704.06 616.41 704.37 602.32 703.4 591.91 703.57 583.31 704.89 566.86 709.06 542.55 716.74 533.8 718.93 529.41 719.46 522.64 717.7 514.86 716.89 505.54 718.09 500.42 720.03 491.45 725.67 478.93 736.78 476.26 741.13 475.38 745.07 476.39 749.68 479.35 756.01 480.92 757.66 484.42 757.95 493.11 754.7 498.61 753.67 503.87 755.56 511.54 761.93 521.92 771.55 527.97 778.07 531.98 783.22 538.24 792.12 547.16 803.77 550.96 812.79 553.3 820.31 555.4 831.88 554.08 837.06 550.8 842.33 546.05 846.26 542.6 847.29 538.78 846.94 530.09 842.5 525.65 839 516.93 830.39 506.62 817.91 503.95 816.2 496.79 813.09 488.07 810.27 477.79 805.98 473.15 804.39 461.53 802.25 444.83 798.02 433.59 794.38 424.14 790.86 418.74 787.44 413.17 782.8 409.9 779.16 407.89 773.35 407.9 768.52 409.4 766.11 414.71 760.48 421.2 755.36 430.15 748.95 435.21 743.47 437.14 738.04 437.24 734.08 435.35 730.56 430.84 727.5 423.84 725.59 415.91 725.98 394.31 733.32 390.34 736.28 387.53 740.71 380.47 748.23 372.01 751.41 365.77 757.38 356.66 764.19 349 768.54 344.51 769.68 317.63 773.56 309.18 776.44 300.16 780.91 291.77 786.6 281.55 792.56 271.72 799 265 804.69 262.59 807.2 259.71 812.9 249.57 830.48 245.93 838.36 243.72 844.78 241.72 853.87 240.32 863.97 240.47 869.11 239.87 881.6 238.81 888.21 236.9 894.3 230.35 909.74 228.8 914.35 224.69 922.88 221.08 929.52 217.93 934.02 212.22 939.67 207.15 942.51 201.39 944 197.79 943.66 194.28 941.58 190.4 937.4 180.27 923.84 177.59 919.18 174.34 911.47 172.18 901.35 171.33 892.53 170.5 879.95 170.23 870.44 169.74 865.12 168.56 861.47 164.23 854.86 160.99 850.76 155.42 845.27 147.38 841.54 140.27 839.31 136.36 839.18 128.31 839.83 124.56 841.14 110.84 847.55 105.8 850.26 99.48 854.36 89.66 862.69 82.13 870.42 72.98 880.23 64 888.42 52.63 896.37 44.94 900.45 33.64 904.23 27.95 904.66 25.79 903.29 22.98 899.48 21.98 894.83 22.12 882.34 22.76 874.43 24.54 860.8 26.89 848.44 31.19 830.85 35.41 815.04 36.39 809.89 37.23 801.85 37.02 792.97 35.96 787.65 33.14 782.95 24.49 776.83 7.51 766.68 1 763.23 4.65 760.33 6.33 757.78 15.04 751.46 20.78 750.76 24.79 751.24 30.84 752.85 40.49 754.22 42.8 753.59 43.11 751.53 35.24 744.89 31.85 735.97 28.36 731.32 25.58 728.88 21.39 726.58 18.36 723.42 16.22 719.44 16.69 716.85 22.54 715.89 26.7 716.57 31.99 720.48 33.85 720.65 40.09 718.32 46.47 713.11 47.6 709.59 44.21 705.11 42.48 700.68 40.4 697.94 39.14 693.74 39.17 690.72 40.77 685.8 43.2 685.45 48.56 687.6 51.6 685.67 49.41 682.86 49.57 681.36 59.03 675.32 60.47 673.77 61.08 670.47 59.68 668.67 54.27 667.35 51.21 663.65 51.9 660.85 56.21 656.08 55.48 651.92 56.46 649.84 61.66 650.98 67.62 653.85 71.82 654.52 73.85 653.16 74.27 650.82 72.49 649.27 71 646 73.41 641.32 77.29 638.47 81.84 637.41 93.32 627.94 242.22 481.07 345.97 467.4 335.88 356.46 321.97 97.46 327.35 94.57 332.84 89.43 335.16 84.84 339.34 85.41 345.16 78.83 351.33 76.04 352.72 72.13 354.92 69.45 359.47 68.64 361.12 66.86 365.01 65.93 369.85 60.64 372.34 59.75 373.53 53.1 376.67 49.66 377.8 44.77 387.31 39.2 392.76 37.23 395.94 34.32 398.04 33.57 401.51 34.28 416.8 42.69 421.47 43.89 422.87 47.37 443.04 71.37 443.8 75.09 446.85 78.83 453.5 82.75 457.11 82.65 460.33 78.45 462.95 71.39 462.64 67.38 466.56 52.45 470.16 47.75 478.16 45.9 489.29 45.75 493.68 46.35 503.04 43.91 508.89 43.8 511.42 42.74 519.21 34.31 525.19 28.65 528.34 27.19 533.61 28.13 537.92 30.12 548.41 30.1 556.19 27.54 564.28 27.34 579.04 22.8 583.46 17.63 586.99 14.74 588.8 10.45 590.92 2.74 593.12 1 598.38 1 601.85 5.44 604.4 12.69 608.21 19.85 619.08 21 625.36 19.82 628.46 17.09 633.67 16.99 638.24 15.8 642.27 17.07 652.81 18.77 655.21 18.79 Z"/>
</g>
</svg>