<?xml version="1.0"?>
<svg xmlns="http://www.w3.org/2000/svg" version="1.2" baseProfile="tiny" width="800" height="563" viewBox="0 0 800 563" stroke-linecap="round" stroke-linejoin="round">
<g id="4207577">
<path d="M 796.14 536.7 796.15 540.17 795.06 543.73 791.95 548.85 788.85 551.72 783.61 551.74 781.06 550.86 774.34 547.22 771.96 545.29 767.3 538.51 761.87 533.39 754.43 529.06 747.01 520.07 743.84 514.94 739.55 510.46 734.6 501.89 729.02 496.95 722.75 493.36 717.68 492.35 705.35 492.98 701.61 494.51 696.38 500.61 695.87 506.27 700.57 514.79 714.7 524.58 716.88 526.41 718.69 530.78 717.28 534.89 714.16 537.96 707.89 540.22 700.95 540.07 688.29 541.86 681.57 543.41 667.82 543.26 663.37 541.63 650.01 533.54 644.23 531.86 636.43 532.32 626.57 531.49 623.36 531.79 619.49 533.97 612.99 543.21 612.03 546.58 615.04 555.18 615.98 556.63 530.67 562 470.55 548.96 252.79 501.75 179.78 485.92 178.14 486.18 173.21 491.25 167.96 492.09 164.24 491.89 157.37 490.63 154.32 489.07 147.87 487.29 140.4 482.82 134.39 481.77 130.09 481.59 125 482.93 118.7 483.05 106.22 484.06 104.71 485 99.21 485.26 97.54 488.97 95.21 491.8 89.16 487.06 83.54 484.03 78.35 480.64 74.36 478.7 70.26 478.06 66.1 479.25 59.82 479.08 49.91 476.8 45.63 473.7 41.18 467.99 39.1 463.82 38.77 456.01 40.17 451.54 42.22 448.24 44.01 442.05 48.24 434.22 51.03 427.37 56.32 422.12 62.07 419.14 64.89 420.88 70.47 422.99 77.56 423.92 80.32 423.15 81.8 421.34 81.34 419 75.97 414.78 62.68 411.13 62.31 410.35 56.11 407.56 48.28 402.46 43.94 398.13 40.07 396.46 36.73 396.99 33.98 398.8 28.02 406.09 21.72 411.16 17.59 411.59 12.72 410.98 7.93 409.02 5.09 405.86 5.18 403.85 7.68 400.36 12.79 395.43 25.17 387.7 28.41 382.08 36.44 378.52 41.73 377.13 49.21 378.34 55.57 379.84 59.27 379.71 63.7 378.6 64.45 376.49 63.12 374.1 57.67 369.64 54.56 368.3 48.76 366.92 40.53 362.81 37.42 360.41 33.16 354.66 28.89 345.58 25.07 338.99 15.17 334.27 11.74 333.32 3.74 328.96 1.6 326.95 1 323.09 4.02 318.09 9.56 316.37 18.6 308.66 18.94 306.7 17.59 301.41 16.19 299.31 9.57 295.31 6.54 294.72 7.29 282.58 142.53 171.33 233.94 98.42 355.86 1.18 373.66 13.16 379.65 14.39 382.58 16.96 384.01 20.78 388.1 24.9 395.03 28.48 402.3 30.24 406.39 30.04 410.04 25.62 412.15 24.94 420.27 24.42 422.37 22.2 422.5 16.75 421.75 10.89 422.14 3.53 425.73 1 428.27 1.63 431.59 4.6 437 5.93 440.56 9.04 445.3 16.01 445.12 19.15 443.3 26.27 441.52 30.28 441.81 33.4 445.34 39.12 450.54 44.37 452.08 46.62 452.03 50.03 448.16 59.16 445.09 60.53 444.14 62.88 445.01 66.05 448.51 68.68 450.97 72.01 457.92 78.27 462.66 79.9 468.7 78.08 473.15 79.69 473.92 83.01 471.1 86.76 471.32 89.04 477.5 92.42 479.56 95.66 475.86 104.92 473.45 108.19 469.15 112.39 460.37 116.03 457.78 117.81 455.56 121.39 455.51 126.2 454.18 134.29 450.26 143.4 446.44 150.26 446.44 152.56 450.3 155.21 462.13 156.96 465.62 163.18 466.29 167.76 464.49 170.66 458.96 177.4 457.94 179.71 455.12 181.96 453.48 184.7 454.64 191.51 459.03 198.3 462.03 202.01 464.58 203.66 472.23 205.19 475.19 206.41 476.52 209.41 475.9 212.96 473.54 214.5 458.72 216.51 453.78 216.79 450.91 218.42 451.32 220.61 457.22 223.22 469.94 229.8 476.69 230.08 479.21 231.87 483.45 237.44 488.88 241.03 493.68 245.06 497.9 246.34 506.39 244.99 510.41 242.04 520.3 236.12 526.2 230.9 526.76 227.9 521.3 221.18 517.35 217.38 509.02 207.98 507.57 205.69 506.75 201.79 507.2 198.49 509.38 194.95 511.87 194.1 514.59 194.62 518.35 196.72 523.98 201.44 530.54 205.24 537.4 206.8 548.37 206.43 555.02 203.28 556.47 200.51 562.09 196.6 564.13 196.27 566.68 198.46 570.39 199.41 573.84 198.52 580.52 194.15 584.88 193.28 592.17 193.3 614.54 195.56 619.73 193.83 620.5 191.71 619.47 187.82 613.83 180.79 612.1 177.2 612.08 170.27 613.69 164.69 617.14 163.17 622.58 164.85 635.93 166.37 644.17 169.64 646.65 169.16 651.88 169.67 659.99 172.01 671.01 174.46 675.72 177.09 683.27 183.58 686.97 185.72 690.55 189.76 692.05 193.52 696.67 199.95 699.19 202.09 699.81 205.82 696.74 208.5 686.95 208.7 678.63 210.84 676.51 211.94 672.73 217.86 670.4 223.88 669.08 229.31 665.34 240.95 664.74 245.47 662.47 250.35 667.14 254.28 667.69 258.39 672.03 262.55 676.52 264.1 686.54 269.18 689.58 269.56 695.01 268.32 698.2 264.8 699.57 260.86 698.9 255.08 697.91 251.84 697.71 246.89 699.65 244.77 704.45 245.38 709.29 248.29 714.06 250.1 717.68 250.73 721.9 253.72 724.97 258.3 725.17 261.21 724.29 264.76 721.55 268.31 713.47 274.24 705.39 277.2 699.54 281.28 695.77 286.87 695.73 289.32 698.22 293.1 710.6 299.68 715.42 301.13 718.74 303.06 725.33 304.4 729.73 307.43 727.76 308.76 726.99 315.29 724.8 318.16 723.11 322.39 720.36 325.33 715.12 328.41 713.09 330.32 709.16 335.82 706.26 338.37 701.69 340.77 699.42 347.21 749.1 356.59 752.39 363.02 750.69 368.69 750.55 372.6 748.43 376.14 747.68 379.55 749.31 384.5 756.68 388.04 757.87 393.95 762.12 393.82 764.22 397.35 766.8 398.96 771.37 403.39 772.65 408.44 774.08 410.05 772.44 416.89 768.08 421.26 767.84 427.58 772.64 429.15 774.58 431.62 776.74 438.82 777.31 445.72 778.64 447.58 782.53 447.75 786.9 450.5 789.84 459.22 793 461.08 798.52 462.56 799 464.08 796.91 470.78 795.3 472.04 795.23 475.32 796.53 476.78 796.93 480.05 789.35 481.59 786.58 482.9 779.71 487.51 773.56 493.58 771.22 497.54 770.81 500.58 771.84 504.45 774.92 507.48 778.9 509.13 783.15 515.43 786.54 518.63 790.78 523.67 794.47 530.14 796.14 536.7 Z"/>
</g>
</svg>