<?xml version="1.0"?>
<svg xmlns="http://www.w3.org/2000/svg" version="1.2" baseProfile="tiny" width="800" height="779" viewBox="0 0 800 779" stroke-linecap="round" stroke-linejoin="round">
<g id="4207809">
<path d="M 799 430.25 797.26 433.66 796.09 437.13 794.49 439.05 794.59 441.92 793.16 443.97 790.42 445.93 786.58 446.07 784.06 448.61 782.58 448.91 780.62 455.37 779.78 456.7 777.84 457.49 773.57 457.85 769.11 458.93 757.98 462.58 754.37 462.56 749.73 463.64 746.89 463.12 743.41 466.51 741.22 472.45 742.07 473.2 740.48 477.2 737.69 479.07 736.07 483.86 733.66 486.34 731.13 489.97 730.9 492.59 729.78 495.72 727.24 498.91 728.25 500.57 733.9 502.94 734.12 504.49 729.47 506.37 726 509.32 725.38 510.87 721.42 514.55 712.74 520.71 710.11 521.84 702.09 520.93 699.39 521.98 694.34 525.18 686.83 558.79 686.78 561.68 685.88 566.79 686.12 569.36 685.33 572.49 685.05 577.63 686.02 580.75 685.26 582.3 685.37 585.28 686.15 586.59 691.35 591.46 692.8 595.05 692.65 596.71 690.54 597.8 689.46 599.9 689.36 601.97 690.74 605.23 689.85 609.57 690.64 611.9 689.81 616.06 686.02 618.63 683.75 618.87 678.31 617.95 674.89 616.79 668.98 614.29 662.31 615.46 658.28 617.83 656.33 621.87 655.45 624.89 653.45 628.49 650.49 632.16 649.29 635.09 646.7 637.55 644.02 637.25 643.3 634.38 642.27 632.75 639.86 631.02 636.2 625.28 635.06 622.01 634.47 618.43 634.73 616.8 636.66 614.85 639.54 613.71 652.4 611.16 653.46 610.33 654.21 607.02 656.06 601.42 655.32 600.01 652.21 599.05 649.29 600.14 645.46 599.91 642.6 602.2 637.29 603.59 634.52 603.39 631.49 602.28 628.39 601.73 625.85 601.98 620.16 604.04 618.22 605.94 615.52 606.27 613.6 607.28 612.36 609.42 612.94 613.36 612.41 617.65 611.3 621.98 611.38 624.16 612.9 626.5 612.79 630.09 608.83 637.13 606.06 640.47 603.07 643.34 599.11 645.66 598.2 646.95 591.57 653.57 590.21 654.11 586.98 653.98 582.16 650.51 579.79 646.91 579.6 645.07 581.07 640.6 581.7 637.11 580.9 634.55 573.87 627.91 571.73 624.43 572.12 622.21 570.77 620.31 567.25 619.41 564.15 619.96 562.73 619.5 559.76 616.81 553.51 613.17 549.21 609.42 544.35 604.33 539.76 599.93 538.32 597.72 535.32 595.32 528.76 592.32 525.77 592.82 518.1 593.33 505.67 594.51 502.21 595.08 500.6 598.72 500.36 600.91 499.03 604.26 499.39 607.57 501.31 608.94 504.27 615.38 506.53 618.44 513.9 619.02 516.21 620.1 516.32 622.69 513.28 625.49 511.08 632.24 510.13 638.76 510.54 643.42 511.69 647.7 516.79 654.91 517.74 656.97 517.92 659.32 516.83 661.39 515.14 661.76 512.06 661.25 510.22 660.34 508.72 657.04 505.21 655.27 501.35 652.57 497.97 649.47 495.48 648.32 490.55 647.72 485.48 649.5 483.73 649.74 481.58 651.41 481.94 653.89 483.75 658.16 486.41 662.44 490.3 666.48 492.08 669.94 492.28 672.64 491.7 674.14 488.68 677.93 486.17 680.5 483.81 681.76 481.25 681.28 477.58 681.4 476.34 681.96 475.68 684.41 478.63 686.77 482.9 687.66 490.46 687.47 494.17 685.68 497.09 684.95 500.51 685.72 503.55 688.82 503.72 692.57 502.22 696.43 500.03 700.17 498.01 702.61 497.71 705.75 499.4 710.05 502.92 712.97 507.82 714.06 514.35 714.17 518.86 713.22 526.85 714.79 530.29 715.24 531.58 716.13 533.44 719.86 534.01 723.24 533.23 727.89 532.26 728.93 528.43 729.5 523.11 728.06 517.54 727.51 508.06 725.3 503.49 724.51 500.76 724.66 489.79 726.64 480.24 728.59 477.11 729.81 474.83 731.34 472.31 730.42 469 726.76 468.93 724.52 471.06 718.18 473.18 716.26 474.23 711.85 475.91 709.26 476.95 704.77 476.57 699.69 475.23 698.69 471.46 698.84 468.89 699.55 463.07 702.39 459.59 705.03 457.43 707.95 454.58 710.39 453.76 712.23 449.47 715.44 446.19 720.62 442.95 722.79 439.43 722.99 436.05 720.45 434.03 720.5 433.62 727.17 433.84 728.53 435.93 732.26 437.77 734.11 437.72 736 439.77 740.03 441.74 742.21 441.28 746.67 439.28 747.69 435.42 752.66 433.4 754.58 431.32 755.66 427.47 755.01 423.29 752.65 420.03 749.15 417.42 747.04 414.74 745.88 411.46 745.79 403.31 746.75 401.27 749.16 400.19 752.95 400.26 756.94 398.55 761.15 396.8 767.26 393.98 772.37 392.51 774.16 389.54 776.32 386.1 777.74 379.25 778 377.38 777.68 377.9 769.13 380.63 758.21 380.7 756.34 379.19 753.88 376.62 752.36 371.29 751.1 365.76 750.93 362.14 750.02 352.93 748.72 348.08 746.55 345.72 746.17 338.44 748.78 337.29 750.56 335.08 751.36 331.28 751.6 329.58 748.83 330.31 744.4 331.51 740.42 334.16 738.86 335.98 736.64 334.65 734.16 331.27 733.53 327.4 734.28 323.95 734.44 321.35 735.05 316.26 738.23 311.77 736.89 303.64 732.05 297.94 727.91 293.68 723.63 289.95 721.2 283.46 717.92 280.96 715.64 280.72 713.96 281.59 712.41 287.31 708.27 286.99 706.57 285.02 704.69 278.92 703.61 276.33 704.15 272.63 706.44 267.01 711.25 264.69 713.94 259.19 718.8 258.68 720.93 254.08 723.95 250.49 724.47 248.81 723.71 247.06 721.83 246.56 715.8 246.65 713.15 248.18 704.69 248.06 702.25 246.39 699.04 244.66 698.37 239.62 699.52 234.54 703.32 233.6 706.09 229.37 712.93 228.28 714.27 224.37 716.93 219.06 718.71 215.42 718.35 214.15 716.5 213.64 713.19 214.3 709.19 215.81 706.82 218.66 705.03 223.43 698.88 226.15 690.97 226.62 687.99 229.27 682.07 231.86 677.08 232.36 675.45 231.39 673.61 224.02 672.28 220.35 671.16 213.71 668.66 210.65 669.05 210.16 672.46 206.33 675.25 202.47 680.22 201.12 680.93 188.89 683.49 187.08 682.83 177.32 680.49 173.81 678.24 171.54 674.62 167.54 670.09 162.92 666.52 161.05 666.66 160.36 668.45 158.93 681.25 158.59 686.41 158.9 690.69 158.48 703.33 157.14 710.62 155.26 714.86 154.78 717.65 144.13 720.81 138.17 721.42 134.51 721.02 132.89 719.14 132.63 717.17 130.55 711.74 128.87 708.85 126.87 707.61 123.03 707.61 120.09 709.03 118.47 711.48 116.71 715.91 115.13 726.31 115.88 730.03 115.36 732.72 114.29 733.95 111.12 733.92 109.19 731.56 104.8 724.42 101.99 720.99 96.96 717.53 97.47 715.38 94.21 712.23 90.75 710.58 90.59 709.36 92.04 707.74 97.61 706.25 98.85 705.13 99.26 703.31 102.41 700.36 103.56 696.87 102.45 693.56 102.32 691.45 103.02 687.11 102.5 685.91 98.96 683.2 97.19 680.04 94.82 678.54 93.42 676.8 94.08 673.6 93.79 671.77 91.21 666.05 91.61 664.02 93.05 662.54 94.79 662.21 95.82 660.93 96.13 657.67 95.62 653.92 94.67 653.22 90.81 654.27 89.95 656.35 86.66 657.42 85.56 656.2 85.74 651.74 83.38 648.34 83.9 647.47 89.06 645.87 91.09 644.1 90.93 642.83 89.24 641.18 84.98 638.95 82.01 637.9 77.78 638.58 77.66 637.05 81.98 634.1 81.93 629.43 80.69 624.8 81.24 619.68 84.86 617.56 87.36 612.87 87.12 611.68 85.24 610.2 84.25 608.22 82.29 609.41 81.29 607.42 77.95 604.31 78.21 603.47 84.74 602.81 85.03 598.13 82.77 595.91 81.93 594.3 82.07 591.28 83.4 585.23 83.59 575.31 83.1 571.11 83.64 568.79 85.48 564.17 86.44 560.02 86.38 553.77 82.98 544.71 81.63 538.09 81.73 534.91 82.5 531.38 82.18 519.22 80.65 513.65 78.37 509.23 77.37 505.63 78.14 502.84 77.54 497.75 77.16 490.61 73.04 478.49 74.32 472.61 75.55 469.99 77.24 467.82 79.94 463.12 81.3 461.56 82.37 458.84 85.3 453.92 87.1 451.82 87.91 449.64 88.38 445.69 87.66 440.5 88.32 435.28 87.81 431.91 89.13 429.65 89.55 427.09 90.87 425.86 85.58 421.52 78.39 422.47 77.23 421.47 76.64 419.39 71.95 414.51 68.91 410.71 65.38 410.05 61.2 409.91 55 411.85 47.15 415.67 45.97 415.12 44.81 411.51 46.61 410.58 47.9 408.21 47.84 405.26 49.13 402.47 49.68 397.76 51.58 395.19 50.49 390.58 51.45 386.84 53.31 384.62 51.41 360.17 46.88 360.17 45.33 360.93 41.8 361.16 34.58 360.47 30.52 361.01 27.34 359.35 21.93 358.3 20.43 358.46 17.57 357.47 13.93 358.32 11.46 356.75 10.36 354.52 9.27 353.94 5.04 353.29 3.72 354.01 1 353.39 3.92 350.26 5.07 347.56 7.65 344.95 9.78 343.8 10.28 340.36 12.51 339.82 12.99 338.15 11.49 335.82 12.6 334.07 15.54 332.21 16.01 330.01 15.48 326.59 18.83 327.33 20.14 323.93 22.7 321.37 24.75 320.1 22.05 317.63 23.43 312.78 27.62 307.67 27.85 304.08 27.06 301.32 28.56 298.9 28.62 295.65 32.89 296.48 35.14 295.98 41.29 292.02 44.04 291.98 45.07 289.8 46.51 288.42 50.18 288.56 51.63 286.2 53.38 285.19 55.35 282.16 57.62 281.99 55.86 277.01 56.23 275.79 55.11 274.13 55.92 271.55 55.78 269.87 57.65 268.66 55.86 265.48 57.73 263.03 56.16 261.67 56.95 257.74 56.82 256.24 57.52 250.67 58.8 244.77 58.85 240.57 57.91 236.59 56.78 235.48 54.27 231.49 49.91 228.56 48.72 225.53 82.77 220.61 82.13 216.61 81 212.57 79.08 210.14 75.82 207.77 72.54 204.39 72.79 201.45 71.04 197.45 71.23 192.68 70.76 188.8 69.72 186.9 69.19 183.02 69.63 179.93 68.56 176.87 69.43 173.94 68.46 172.81 69.88 171.46 69.13 170.09 69.66 165.64 66.97 160.89 64.5 157.26 64.5 154.28 63.62 151.83 61.3 148.37 60.07 147.41 58.96 144.69 57.83 143.83 53.99 137.19 52.94 136.8 52.08 131.63 53.03 130.45 51.13 128.73 47.45 128.69 45.26 123.55 42.87 121.67 36.48 120.43 33.93 119.49 30.21 116.86 27.42 114.16 26.45 110.14 23.02 109.33 24.07 107.76 29.09 105.92 29.38 104.96 25.97 104.15 23.5 102.98 23.3 100.54 26.13 99.93 27.72 102.19 29.15 101.69 29.67 99.21 27.05 97.22 27.62 95.01 31.21 95.87 31.48 93.61 28.62 90.97 29.79 90.77 33.91 87.78 41.93 83.68 45.02 81.12 45.1 76.91 46.78 72.19 50.01 66.8 51.07 64.03 54.1 61.23 56.99 61.38 63.15 65.99 64.82 69.39 64.99 71.79 66.68 75.24 68.1 79.76 69.54 86.25 70.75 88.02 72.65 89.27 75.59 90.25 79.99 90.65 85.65 92 90.16 91.19 92.84 89.26 93.84 87.38 92.91 84.73 91.07 82.23 88.32 77.48 88.36 74.34 89.07 72.77 92.97 69 95.88 67.54 101.16 65.69 104.26 66.04 111.43 68.9 119.2 70.66 123.19 70.75 128.5 69.7 129.98 68.09 132.08 62.94 134.1 58.94 135.08 57.95 142.66 54.9 147.74 49.67 151.53 49.75 155.54 50.73 159.32 52.32 163.73 54.92 169.22 57.38 173.01 60.03 175.46 64.4 177.46 65.71 179.79 65.95 184.85 65.39 190.8 66.97 191.64 67.81 194.42 72.89 196.2 77.16 196.58 81.43 197.97 84 198.93 88.61 201.33 91.17 205.28 90.94 206.89 89.81 211.23 85.32 212.28 83.8 215.2 81.63 217.74 81.78 223.25 87.44 225.33 88.93 229.39 90.37 231.36 88.54 231.79 85.3 231.39 82.98 232.93 78.71 235.58 76.45 242.34 73.91 244.36 72.09 244.51 70.27 247.56 63.9 249.23 61.29 251.36 59.46 254.43 58.52 257.61 58.31 261.88 58.88 268.33 61.69 272.36 64.4 280.71 68.83 283.1 69.45 286.62 69.42 289.57 68.2 291.36 66.72 293.15 63.91 294.91 57.75 295.36 52.74 296.77 48.55 299.78 45.74 303.31 44.71 311.93 42.85 319.81 41.65 326.2 41.62 329.11 38.73 329.55 35.67 327.77 27.02 327.83 23.09 329.09 22.27 331.73 22.97 336.12 23.5 336 25.02 337.09 26.96 340.52 29.73 343.7 30.37 353.37 33.64 356.04 33.81 357.44 33.22 362.65 28.75 367.1 25.89 371.97 24.62 376.11 25.53 379.36 25.68 380.84 26.74 380.92 29.35 377.38 31.67 377.41 34.26 381.01 35.7 384.91 36.71 389.29 38.3 393.12 40.1 395.54 40.28 399.24 42.76 403.12 42.98 407.9 39.34 409.43 38.82 412.79 39.42 418.92 39.25 420.93 38.59 422.46 40.4 423.63 44.59 422.23 45.75 420.56 48.69 421.39 50.5 428.14 56.46 434.84 58.34 439.48 62.14 441.34 62.08 444.79 59.6 446.57 54.79 448.33 54.31 451.44 51.32 454.22 49.51 457.47 48.11 459.41 48.57 461.42 50.8 462.97 54.61 463.53 58.64 465.17 61.53 468.47 65.86 469.31 69.94 468.88 73.77 470 76.35 471.45 76.31 473.7 72.39 475.75 69.96 481.08 67.41 482.61 67.75 484.91 69.53 486.48 71.56 488.36 76.08 490.29 79.02 494.27 81.89 498.12 82.19 499.79 80.91 504.6 70.21 509.73 67.08 512.41 64.45 513.59 61.19 512.02 59.73 508.52 58.63 506.05 56.07 505.88 53.3 508.03 51.92 511.28 52.46 514.05 53.89 515.59 54.01 518.58 52.85 520.19 51.53 520.55 49.77 522.49 47.84 528.99 39.25 529.54 37.92 530.31 32.63 531.35 30.42 531.49 23.3 532.73 21.86 535 21.88 543.24 23.94 547.48 26.13 554.97 29.3 557.6 30.74 560.83 30.85 566.52 34.27 571.17 35.18 576.42 35.35 580.79 37.59 581.43 38.91 580.62 42.33 579.29 44.67 576.18 47.34 574.03 47.86 573.44 49.36 575.32 50.57 576.96 52.66 578.34 56.04 580.67 60.31 583.78 61.25 587.07 57.99 589.31 58 591.33 58.8 592.09 60.19 590.81 63.28 592.27 64.03 594.08 62.9 597.65 65.72 600.44 65.3 602.6 63.26 605.25 63.82 605.18 67.36 609.36 67.3 610.71 68.8 610.7 70.62 613.13 73.24 615.14 73.13 619.88 74.15 623.11 75.24 626.77 78.05 628.31 80.01 628.33 82.34 630.61 86.02 630.69 89.4 627.99 93.44 629.03 94.64 631.53 93.6 635.33 94.41 636.25 91.9 640.02 90.3 641.47 87.75 644.28 85.85 646.82 82.05 646.37 79.34 647.07 74.2 649.07 71.77 652.12 67.16 656.17 63.44 658.52 62.04 661.05 59.44 665.63 53.39 669.41 47.85 672.27 44.85 672.66 42.79 671.11 41.88 668.31 42.27 668.65 40.74 671.21 40.21 670.7 36.82 671.18 35.67 675.27 31.39 677.55 28.06 679.05 26.65 684 30.52 686.25 31.63 688.53 29.62 693.35 30.59 693.56 27.16 696.6 26.37 697.24 25.18 694.93 21.65 697.17 18.42 699.95 18.65 700.93 16.84 701.32 14.31 702.49 12.31 704.45 5.43 706.54 2.56 711.33 1 715.36 1.05 716.6 2.62 717.36 5.59 722.22 9.26 722.88 11.59 721.03 13.45 720.71 15.71 722.28 17.22 725.51 24.29 725.51 28.76 726.21 31.12 728.12 33.88 730.39 40.71 732.72 49.45 735.87 53.54 727.79 61.2 725.52 64.76 717.61 85.14 714.61 89.57 711.36 92.45 708.15 94.76 702.34 99.58 693.89 108.58 690.38 111.98 685.85 114.75 680.07 117.78 676.93 120.11 674.73 123.25 671.24 131.99 668.62 137.29 664.02 143.7 659.85 147.9 655.78 151.15 649.94 154.98 644.78 157.46 637.26 157.46 635.01 157.94 625.11 161.58 618.15 166.42 614.22 168.78 608.09 170.82 601.97 173.87 597.31 177.83 585.8 192 582.25 194.74 577.9 196.8 580.28 198.31 581.68 200.54 582.02 203.82 580.83 207.11 577.33 211.09 576.3 213.31 579.79 218.21 580.18 219.52 579.8 223.58 581.66 226.7 584.51 228.78 585.98 230.68 588.95 230.7 590.74 231.93 593.73 235.96 597.69 239.2 601.1 240.22 603.94 242.37 605.84 241.37 610.26 244.52 610.87 246.2 615.01 248.95 618.42 249.22 620.2 248.36 622.16 249.87 625.12 249.63 627.11 250.32 629.85 253.8 631.7 253.8 636.78 256.5 634.77 257.35 634.58 258.65 636.93 259.77 638.2 262.42 641.87 265.21 643.68 267.93 645.84 268.61 647.97 270.71 649.9 271.73 649.03 274.08 651.11 274.62 653.51 276.56 659.63 283.91 661 284.91 663.71 288.69 665.98 289.76 670.54 290.9 669.85 292.94 673.18 292.64 674.7 293.86 674.29 295.8 676.34 297.97 676.3 299.62 679.18 301.94 679.95 303.96 683.65 303.99 684.67 304.53 687.58 310.47 688.94 312.32 693.07 314.73 693.44 317.97 696.56 318.82 696.96 321.52 699.35 323.9 701.69 324.24 702.71 326.24 706.46 328.89 708.58 331.3 708.9 334.56 711.38 336.76 713.31 337.51 714.24 339.71 717.03 342 720.29 342.21 722.04 342.97 725.64 341.35 728.53 338.57 729.7 338.61 728.9 342.8 726.06 345.98 726.02 347.53 728.74 347.48 729.92 348.73 729.97 352.9 735.25 356.08 740.14 357.53 742.34 358.73 744.96 359.33 746.13 360.37 745.61 363.78 746.43 365.52 751.37 368.18 752.49 369.65 753.35 372.72 754.38 374.29 756.38 373.89 758.34 371.94 760.49 374.71 759.97 378.67 757.43 383.68 755.52 385.32 756.21 386.51 760.01 385.84 760.23 387.2 758.1 396.03 759.32 398.86 762.74 401.65 766.08 400.43 767.48 398.1 770.45 398.82 775.62 399.14 777.83 400.36 777.22 402.74 779.75 403.74 784.45 402.07 786.39 401.88 788.49 402.58 790.78 406.09 789.71 409.39 788.13 411.64 786.09 412.99 783.19 413.65 782.17 412.26 777.11 409.17 775.15 408.92 770.55 414.03 770.22 416.44 773.74 418.91 781.33 419.47 784.06 422.02 787.8 424.33 790.98 423.68 794.72 424.79 797.67 426.99 797.53 429.26 799 430.25 Z"/>
</g>
</svg>