<?xml version="1.0"?>
<svg xmlns="http://www.w3.org/2000/svg" version="1.2" baseProfile="tiny" width="800" height="1000" viewBox="0 0 800 1000" stroke-linecap="round" stroke-linejoin="round">
<g id="4207205">
<path d="M 670.01 65.82 672.29 67.42 672.7 69.26 674.61 71.02 677.38 71.27 680.43 72.35 682.24 74.37 682.76 76.22 680.51 79 678.17 80.18 678.09 81.95 679.02 83.3 681.1 83.72 683.29 87.76 680.81 87.83 681.42 90.7 683.05 91.42 682.76 94.72 686.61 94.11 687.51 96.03 689.74 97.17 687.49 100.87 687.92 102.67 687.04 105.43 684.04 109.28 680.7 112.78 681.01 115.76 683.24 117.39 685.06 117.42 688 116.57 690.5 117.79 692.9 117.67 695.15 119.18 692.5 120.75 692.12 121.76 693.34 123.58 691.7 124.46 688.68 123.06 687.48 124.11 682.28 122.96 680.05 123.84 678.76 125.56 678.05 129.53 677.28 131.52 677.48 133.09 679.54 135.09 683.86 136.78 685.35 137.72 686.97 141.1 688.46 141.88 691.97 141.51 696.36 141.68 698.73 140.33 699.67 137.35 699.57 133.23 700.08 131.37 702.62 128.54 705.97 128.36 709.44 131.27 710.74 133.87 710.38 135.66 705.66 140.57 704.81 142.95 704.88 144.8 705.87 147.06 707.07 148.03 710.38 148.56 715.18 146.25 718.72 145.94 720.41 146.66 723.86 149.04 725.34 150.95 725.87 153.54 725.2 156.46 723.23 159.13 719.74 161.39 716.69 160.97 711.45 155.95 709.79 155.08 704.82 154.01 701.4 154.3 699.68 155.16 697.52 158.61 696.5 163.03 697.15 164.99 699.04 166.68 702.61 168.39 704.67 170.65 706.71 176.64 708.62 179.72 711.67 182.38 714.27 183.13 715.99 183 718.6 180.67 718.96 177.22 718.22 174.91 717.89 171.54 718.82 169.55 720.44 168.08 723.07 167.32 726.04 167.27 729.26 168.1 733.67 170.27 735.93 172.45 742.99 180.9 745.71 184.95 746.67 190.1 746.06 195.73 745.21 197.88 743.27 199.7 734.71 201.03 732.49 202.54 730.75 205.25 730.75 207.74 732.95 209.97 734.66 210 739.31 208.75 744.57 208.76 748.78 210.74 749.66 212.1 750.21 214.96 749.7 220.94 748.95 223.89 747.67 226.36 745.53 228.06 742.83 228.45 740.66 228.02 735.81 226.15 732.86 225.81 730.52 227.01 728.38 229.23 726.82 231.92 723.45 234.56 717.66 236.31 715.99 238.49 716.46 240.8 717.83 242.34 720.36 243.28 724.51 243.48 727.18 242.91 731.68 241.27 736.09 240.58 741.13 241.61 745.75 244.03 753.83 251.12 756.59 255.53 756.75 257.57 756.26 261.62 753.78 270.24 750.85 272.95 747.6 273.24 742.86 272.68 739.21 273.82 737.98 275.11 736.71 278.78 737.11 281.2 740.08 286.03 746.32 294.05 747.91 295.41 750.82 295.89 753.28 294.3 754.89 291.04 755.66 288.43 757.15 287.08 759.99 285.97 762.82 285.94 765.79 286.91 771.83 289.76 774.82 291.9 776.61 294.81 776.67 296.64 774.67 303.27 773.81 312.03 772.71 314.06 768.11 317.41 766.78 319.8 765.89 324.07 766.34 333.14 765.99 340.84 766.48 343.78 768.21 347.23 770.17 348.82 775.86 350.92 778.18 352.44 779.82 354.9 780.18 357.24 778.67 361.52 775.91 365.23 773.12 371.59 772.04 373 769.34 374.91 767.48 374.92 764.94 373.99 761.7 371.64 757.73 369.84 755.78 370.05 753.92 371.09 752.34 373.14 750.94 376.33 751.14 379.84 753.06 382.06 756.79 384.63 758.28 387.08 758.1 389.96 755.45 395.8 754.87 399.32 755.63 403.77 757.84 407.44 759.85 409.07 763.48 410.36 769.12 410.76 772.15 412.59 773.94 414.97 775.7 419.57 778.12 428.71 778.57 432.93 778.09 435.76 776.88 438.78 775.03 441.21 772.75 442.82 768.71 444.15 764.59 444.02 760.34 442.39 755.1 439.15 751.71 438.3 747.56 439.56 745.32 442.29 745.1 445.2 748.87 451.1 749.26 453.63 746.69 462.25 745.75 466.41 741.55 475.39 740.85 482.22 741.67 493.54 741.74 499.83 742.07 502.8 744.31 516.01 746.12 521.32 751.4 539.88 760.26 550.94 777.49 563.22 786.86 572.18 794.34 583.39 797.87 592.7 799 606.48 798.55 615.53 797.22 625.21 792.72 643.34 790.17 653.02 787.07 663.96 783.5 675.58 779.53 687.42 775.28 699.17 768.62 715.93 761.99 731.29 757.84 741.63 754.5 751.55 752.67 758.07 749.04 771.98 746.48 781.13 744.36 787.68 742.35 792.79 740.15 797.47 737.66 802 734.82 806.49 731.58 811.04 727.84 815.78 723.29 820.96 717.59 826.84 710.38 833.69 703.73 839.08 699.44 843.19 696.84 846.35 694.2 851.15 692.85 855.02 691.72 861.13 691.77 865.42 693.05 873.37 694.77 880.22 701.97 906.69 702.67 910.94 703.09 917.07 703.09 920.65 702.64 926.47 701.62 932.46 699.73 940.32 697.88 945.34 693.95 952.89 687.68 963.26 681.06 973.18 678.07 977.14 675.11 980.55 671.04 984.31 666.48 987.66 662.37 990.14 655.95 993.35 651.8 995.07 643.55 997.45 635.02 998.73 625.6 999 620.56 998.68 615.32 998.01 609.91 996.97 604.44 995.58 598.99 993.84 591.06 990.67 586.09 988.33 572.21 981.23 565.97 978.73 559 977.16 551.65 976.22 545.22 975.69 539.73 975.59 534.57 976.11 529.52 977.39 527.03 978.35 523.02 980.52 364.87 994.55 341.88 994.19 309.03 993.98 279.93 994.7 276.03 994.62 269.77 995.4 259.28 994.66 253.06 997.09 247.83 997.09 243.29 995.79 237.62 995.64 234.39 995.14 233.18 996.81 231.5 997.52 224.94 998.29 221.77 998.04 213.19 996.58 198.62 994.76 190.25 993.22 188.48 993.21 180.3 992 177.5 992.04 174.09 991.12 172.05 989.79 169.91 987.38 170.12 983.62 169.74 981.47 168.04 977.81 168.07 975.73 171.81 971.22 171.18 970.73 166.09 969.92 165.07 970.69 163.47 968.69 157.1 967.35 153.01 968.09 151.36 969.48 150.1 969.47 147.23 972.88 144.98 972.81 141.79 971.76 138.6 972.69 137.91 973.64 132.13 974.91 130.64 974.5 128.3 976.02 126.34 971.71 122.5 972.09 120.7 971.74 117.35 969.58 116.94 966.05 116.26 964.78 114.35 965.13 109.98 967.38 109.03 966.96 106.17 963.75 104.06 961.92 100.63 960.64 96.75 961.41 90.99 961.97 87.24 966.27 81.5 964.15 76.24 965.83 75.65 965.01 73.11 965.9 73.01 969.96 69.32 971.64 67.99 971.03 62.28 973.24 61.44 975.26 58.75 979.88 56.08 983.38 52.29 986.07 51.05 987.65 47.63 989.89 44.19 990.19 39.37 991.62 33.82 990.84 29.52 990.84 28.11 991.38 28.76 988.41 30.81 987.17 31.56 985.86 30.02 983.37 29.67 980.27 27.69 977.9 27.14 972.7 25.98 971.82 26.35 965.62 27.3 961.34 29.4 958.65 33.89 955.78 36.63 953.18 37.89 949.99 41.32 945.36 42.77 941.6 36.67 940.03 30.05 935.74 28.98 933.59 25.91 931.7 22.89 932.66 23.34 928.91 22.51 926.93 22.81 925.59 24.99 924.3 27.8 921.06 27.81 917.73 26.05 915.48 24.11 915.38 23.52 908.83 22.07 907.6 22.65 904.41 23.55 903.15 20.65 898.04 18.55 895.68 17.06 890.62 17.4 885.76 13.88 882.89 13.45 877.98 15.76 876 16.09 874.4 13.39 869.15 13.77 863.67 10.63 860.24 8.12 860.16 6.17 857.73 1.44 856.53 4.81 852.37 5.4 849.08 3.66 844.69 3.95 841.79 3.54 837.94 5.35 834.6 4.62 829.83 6.1 825.06 11.96 821.98 12.41 819.9 11.21 815.66 13.99 809.6 16.7 807.12 16.87 805.48 18.45 801.95 18.2 799.43 18.72 793.37 18.6 789.24 19.96 785.12 17.46 783.56 13.48 783.06 9.58 780.34 5.56 778.93 2.71 778.74 1.95 776.8 3.07 772.5 2.15 770.97 1.09 767.5 1.13 765.38 3.14 762.7 9.06 757.1 14.83 754.99 17.48 755.05 20.24 754.41 23.77 751.03 23.41 748.74 21.5 744.58 19.33 741.59 18.8 737.14 17.88 736.75 15.27 731.89 15.29 728.63 14.8 726.6 13.08 724.91 13.96 714.56 13.09 713.29 10.99 713.3 7.84 710.78 6.44 707.33 4.83 705.29 5.07 701.5 7.06 698.17 6.01 692.41 3.93 688.96 2.51 687.92 1 683.07 1.68 681.44 6.48 679.06 9.85 678.48 21.14 675.55 25.44 674.12 27.35 672.89 33.26 670.02 38.96 661.05 39.99 658.87 42.38 656.95 42.77 652.04 42.54 649.95 44.43 647.34 44.01 644.79 44.94 641.71 47.99 639.78 48.3 638.35 47.19 633.48 47.69 629.97 46.98 625.55 47.66 624.29 49.73 623.64 51.38 621.36 53.22 620.08 55.93 619.32 63.07 618.15 66.84 615.98 69.57 613.62 73.9 612.82 76.26 611.87 78.07 612.1 79.66 613.75 80.53 615.91 82.9 617.24 85.94 616.4 89.65 614.79 95.18 613.39 98.2 613.4 103.17 615.37 107.33 615.81 108.34 614.87 111.35 614.62 113.68 617.17 118.64 618.46 120.28 618.18 119.56 616.14 119.23 612.64 119.38 609.61 120 607.35 120.16 603.41 121.06 597.56 119.23 592.24 120.89 586.99 119.97 585.14 118.21 576.14 118.15 573.29 118.76 569.26 121.74 566.03 119.62 563.81 124.55 565.13 132.32 569.86 135.61 569.04 139.85 568.62 143.54 566.84 150.18 566.48 153.85 564.8 159.49 563.09 160.43 562.3 156.65 559.18 155.46 557.71 155.39 556.07 157.32 552.73 158.02 549.21 159.6 546.28 162.68 542.83 163.45 539.7 161.96 537.79 157.89 536.17 156.75 532.46 158.85 526.71 159.1 523.97 159.91 522.34 162.85 519.46 163.06 517.61 162.07 516.05 161.13 512.82 154.01 504.73 153.3 503.03 154.42 498.04 77.97 383.21 60.82 357.45 103.73 240.87 106.46 241.42 110.26 244.93 108.99 250.01 109.13 251.5 112.52 253.65 111.89 256.8 114.21 257.82 117.49 256.25 120.07 256.39 120.81 257.34 123.2 253.03 123.8 250.55 125.42 247.56 127.15 247.33 132.8 248.61 134.28 248.14 135.14 246.56 137.01 246.52 139.9 242.45 141.42 242.79 144.23 244.5 146.97 245.49 153.17 249.5 154.69 251.72 156.88 252.07 157.91 253.44 159.94 253.65 158.71 256.83 160.46 258.85 160.39 264.34 161.56 267.24 163.1 268.18 165.54 268.27 166.85 266.84 169.52 267.06 171 269.47 172.58 269.09 173.79 266.64 174.79 266.58 176.05 269.56 177.81 270.16 182.63 269.79 184.33 271.48 183.69 276.5 186.45 279.52 186.98 281.89 190.75 286.11 192.81 287.12 194.17 286.84 196.23 283.38 197.7 283.19 201.75 284.28 205.83 284.56 208.86 284.35 213.28 282.37 220.1 282.07 222.18 281.45 227.09 280.82 228.9 281 232.49 282.29 236.06 280.79 245.38 273.21 248.06 271.36 250.4 270.38 279.57 156.71 297.83 85.53 299.19 83.49 298.49 79.69 297.63 78.72 297.83 74.74 297.57 72.32 296.22 68.64 296.5 63.62 293.79 57.81 292.49 54 292.52 52.26 291.45 51.03 290.9 48.3 291.22 45.17 290.32 42.11 289.1 40.92 290.13 39.42 293.26 38.13 294.29 36.28 296.69 36.14 297.67 35.3 298.26 33.08 300.52 31.18 301.73 32.4 305.5 31.8 308.86 30.58 314.29 27.87 315.34 24.05 317.33 22.61 320.07 24.13 323.85 23.77 325.13 21.18 327.16 21.06 331.25 22.27 338.98 20.92 341.35 20.91 345.08 19.61 349.09 18.72 353.22 17.27 356.36 15.07 359.08 13.81 363.09 11.41 364.79 7.95 368.79 7.67 372.36 5.81 376.53 11.79 378.71 12.7 381.19 12.58 382.11 10.83 385.49 10.68 389.73 9.06 393.11 9.19 397.92 8.59 399.37 6.77 400.69 6.27 402.97 6.66 407.74 3.32 409.69 3.23 413.3 3.99 415.26 3.65 416.94 1.91 419.95 2.33 424.31 1 427.1 1.12 432 3.26 439.04 4.16 440.85 5.54 441.84 10.25 444.41 13.5 448.84 16.74 450.45 16.55 454.52 14.24 455.88 14.51 458.78 13.35 461.67 10.75 463.83 7.91 470.72 9.59 473.42 9.18 476.54 9.3 480.68 12.25 484.78 14.15 485.79 17.98 488.78 21.13 494.9 25.97 498.28 25.62 501.8 23.95 503.22 24.16 504.65 25.92 505.42 31.67 507.08 35.96 508.52 41.32 508.72 44.92 510.14 46.22 511.09 49.28 512.12 54.57 512.43 62.14 513.55 66.18 511.53 68.09 507.23 68.27 506.36 69.29 509.79 70.88 510.7 74.86 512.51 76.29 519.53 76.89 528.33 80.72 530.3 80.49 531.35 81.66 534.17 79.94 535.92 75.51 538.27 73.17 540.66 73.24 541.16 75.04 538.71 76.45 540.88 79.31 542.49 77.4 545.61 79.19 549.56 78.64 550.85 81.55 553.59 81.52 554.25 79.48 558.12 80.79 560.99 79.1 563.39 80 564.7 79.71 565.36 78.08 567.24 77.81 569.08 75.47 570.78 75.22 573.05 77.18 575.31 77.78 576.48 76.45 580.3 74.78 580.62 72.39 579.94 71.19 580.23 69.13 581.34 68.63 584.01 68.96 587.06 70.13 590.58 70.2 592.66 70.98 597.79 70.3 601.06 70.67 601.54 69.43 601 66.3 604.1 66.57 606.09 65.3 607.26 63.09 609.41 60.85 611.4 61.09 614.41 62.38 619.55 62.21 621.92 61.29 624.99 60.94 626.99 58.75 630.75 56.58 633.06 57.22 638.1 56.9 641.59 55.45 643.04 55.56 644.38 57.11 646.6 57.87 649.69 60.57 653.99 62.68 656.37 64.45 659 64.98 660.69 65.9 664.94 64.68 670.01 65.82 Z"/>
</g>
</svg>