<?xml version="1.0"?>
<svg xmlns="http://www.w3.org/2000/svg" version="1.2" baseProfile="tiny" width="800" height="635" viewBox="0 0 800 635" stroke-linecap="round" stroke-linejoin="round">
<g id="4208708">
<path d="M 779.41 229.16 728.88 324.13 732.63 325.61 740.28 329.27 745.34 329.57 749.63 330.34 754.37 333.52 754.98 336.63 756.4 338.43 761.63 342.77 765.46 345.23 766.59 346.27 767.05 349.89 768.1 351.28 772.18 352.62 779.43 353.53 783.1 353.44 784.32 353.99 786.68 356.65 788.86 357.28 791.17 358.37 794.08 360.43 795.62 362.5 796.14 364.06 798.66 367.62 799 369.29 714.16 405.43 683.28 418.58 593.58 465.27 538.46 493.96 538.4 498.05 540.09 503.36 539.66 505.51 540.57 507.55 539.3 509.43 538.11 512.02 536.44 513.58 535.14 516 534.17 516.97 532.73 517.09 531.6 518.18 531.24 525.7 529.12 526.37 527.33 528.87 523.56 533.64 521.58 535.27 512.14 529.59 511.42 530.92 508.06 535.09 507.7 535.15 502.14 531.75 500.83 531.19 500.1 533.35 497.77 532 495.61 531.18 495.82 530.45 493.75 529.9 491.9 528.29 489.6 527.89 489.37 529.09 487.38 527.49 482.72 526.69 478.13 524.96 476 527.46 471.42 531.52 471.2 545.96 470.17 547.65 461.52 552.1 457.97 554.5 456.97 554.74 448.45 554.62 446.51 555.37 445.8 556.75 445.78 564.54 446.95 566.08 448.35 568.8 448.68 571.88 446.05 580.65 444.17 596.56 444.38 597.87 446.21 603.51 448.39 606.74 452.02 610.62 452.71 612.95 452.84 625.62 451.42 634 445.74 626.68 436.5 620.57 434.48 618.78 429.99 612.56 427.96 609.95 425.72 606.58 420.74 599.61 419.03 597.93 412.17 592.82 402.6 586.17 400.41 584.39 395.35 581.81 391.97 581.33 391.58 582.68 390.52 583.85 388.9 583.49 387.41 582.54 386.11 582.4 382.65 583.14 380.11 581.08 378.99 581.35 376.76 582.74 372.34 582.27 371.41 581.9 368.48 581.92 366.88 581.24 365.78 579.26 364.09 580.52 363.07 580.27 362.25 578.83 360.17 576.7 358.82 576.14 358.3 574.75 356.42 573.46 356.25 571.75 355.26 569.9 354.37 569.37 347.95 569.32 344.05 568.29 342.14 566.13 338.99 566.57 337.11 565.9 337.18 564.89 338.33 562.89 336.97 562.55 333.71 563.13 331.22 564.59 323.6 569.44 320.25 572.21 317.59 573.38 313.66 574.61 309.51 575.27 300.71 577.2 297.84 579.98 295.11 580.55 293.25 580.36 292.15 579.72 289.5 577.09 283.76 575.03 281.01 575.02 277.59 576.06 275.2 575.94 272.33 577.86 270.51 581.35 266.85 581.4 264.96 582.46 262.6 584.9 259.6 584.86 255.92 584.33 253.11 583.21 251.22 583.29 249.25 584.95 247.76 585.7 245.11 585.59 242.46 586.17 238.64 585.89 237.24 586.47 234.28 586.17 232.3 585.23 230.72 585.06 230.14 583.3 230.38 582.31 229.51 581.24 227.39 580.03 228.28 577.71 225.52 576.01 224.04 574.13 221.31 571.95 219.09 570.82 218.54 569.3 218.67 566.68 217.48 565.42 215.59 564.47 215.11 562.86 213.31 561.26 209.01 560.86 206.81 559.42 205.52 558.07 204.98 555.34 203.75 554.52 203.71 552.22 203.07 550.4 201.9 549.52 201.74 548.52 200.28 547.5 197.7 546.91 193.71 543.23 192.76 540.86 189.96 537.37 186.6 536.81 184.27 536.72 183.41 535.88 181.39 535.78 179.54 534.78 176.42 534.5 175.36 534.05 173.43 531.46 169.98 529.79 168.04 528.43 164.93 525.65 160.46 522.39 160.1 521.56 154.59 518.17 153.28 517.13 149.61 513.09 148 511.92 143.64 509.54 140.4 507.36 138.01 506.87 136.92 506.26 134.25 506.17 131.91 506.6 131.1 506.3 123.29 494.08 127.51 492.83 136.67 495.03 142.08 495.5 146.25 495.5 140.44 492.74 136.65 487 137.16 483.74 136.93 480.77 138.56 477.66 140.21 476.21 143.17 476.56 146.74 478.49 150.82 479.49 156.35 481.28 160.71 481.8 160.83 480.38 157.6 478.16 155.99 475.76 160.89 473.49 163.69 471.49 164.99 470.03 163.66 467.89 158.96 466.04 155.36 464.44 153.06 463.04 151.28 464.21 150.06 466.77 150.57 471.67 149 471.43 147.72 470.29 147.02 468.16 145.74 468.54 142.38 471.28 139.17 473.23 137.21 472.91 132.31 475.4 127.79 478.04 124.98 480.23 123.91 481.4 125.22 484.74 125.58 487.77 123.64 489.71 121.32 489.86 116.53 489.49 113.4 487.53 110.39 486.28 106.99 486.82 103.9 487.64 100.23 490.27 97.67 493.21 94.56 495.54 91.34 496.46 92.74 492.81 95.88 486.11 92.15 487.42 87.83 487.74 82.96 487.78 78.87 489.79 73.23 491.02 66.07 494.84 61.01 495.06 57.33 494.9 54.77 494.2 51.87 492.96 46.72 495.04 43.15 495.67 45.35 497.56 47.02 500.03 48.46 500.73 51.95 499.3 51.67 500.92 50.42 504.09 49.03 506 45.24 505.39 41.8 504.31 40.36 503.57 39.26 499.09 31.64 497.93 28.21 497.67 22.96 499.82 17.22 501.28 12.2 503.15 8.43 505.75 5.5 506.46 1 504.91 2.06 501.81 4.81 499.44 7.96 497.33 14.47 494.18 17.57 493.1 21.79 492.07 24.28 490.51 27.89 488.66 26.94 485.93 29.61 483.92 34.14 485.19 36.38 485.47 39.37 484.53 39.19 480.33 42.04 480.8 45.1 480.91 48.08 481.41 49.62 480.55 50 478.89 51.1 476.63 55.26 476.69 56.49 474.98 63.21 471.2 65.65 471.52 68.8 470.32 72.08 469.53 73.38 468.75 75.53 466.76 76.23 465.56 77.86 464.29 80.21 464.08 81.31 461 83.93 462.43 85.53 462.74 86.88 461.55 87.58 458.4 89.82 458.06 91.7 456.6 91.55 453.7 90.86 452.3 91.5 450.36 93.73 450.2 97.4 450.77 99.18 450.51 100.66 449.76 103.07 449.57 105.59 448.69 111.55 448.77 114.39 448.53 115.31 446.94 115.07 444.75 115.69 442.13 116.59 440.19 118.11 438.86 117.22 436.27 114.65 431.82 113.95 430.12 116.51 428.59 119.44 428.26 120.86 426.79 121.59 425 127.43 424.46 129.15 423.16 128.23 420.56 129.46 418.04 131.1 415.84 131.15 414.43 129.36 411.92 126.86 410.02 126.69 407.71 132.29 405.23 135.65 404.36 139.38 404.4 142.62 403.03 144.13 401.52 149.16 399.96 151.11 398.93 153.19 396.12 152.25 393.81 150.16 391.18 148.9 388.75 148.25 386.24 149.51 383.71 151.68 383.35 155.53 381.26 159.37 378.22 165.33 376.84 167.39 374.09 165.49 371.49 161.8 370.85 155.44 371.64 151.54 370.92 149.52 371.97 146.49 374.99 145.46 378.08 143.62 380.02 140.69 379.74 141.04 376.61 142.64 373.38 141.88 369.79 139.13 370.15 136.1 370.05 132.39 370.27 129.3 371.6 123.06 373.58 121.33 374.82 117.95 374.62 114.3 376.69 108.29 376.88 104.76 377.67 102.29 377.08 100.47 375.1 101.35 372.57 106.25 368.23 107.45 366.72 112.32 364.63 112.09 363.81 109.93 361.5 111.81 358.72 113.69 359.1 115.82 358.78 118.4 355.74 119.12 351.32 121.33 350.01 123.58 349.43 125.43 347.78 123.78 347.45 120.26 344.94 119.2 343.13 121.66 340.24 125.66 336.65 131.15 332.79 133.63 330.62 133.61 328.15 135.59 325.29 138.04 323.07 140.15 320.5 137.64 315.89 139.43 313.02 145.08 312.39 146.33 310.95 146.68 306.16 147.83 304.36 150.77 305.41 152.81 302.84 152.99 300.21 152.1 297.5 155.07 295.27 157.62 296.01 160.31 298.56 161.47 300.78 162.12 303.61 161.14 306.83 160.01 309.67 160.57 311.54 160.81 314 160.77 318.3 162.88 318.9 162.27 310.65 166.5 302.84 167.68 298.37 168.02 294.19 165.52 292.48 162.63 292.01 160.35 291.97 158.1 290.21 157.08 287.41 157.5 283.45 158.24 280.56 161.59 271.97 162.78 269.33 164.84 267.22 168.6 265.05 170.4 262.78 173.86 260.15 177.59 261.07 180.07 262.63 180.29 265.87 177.98 272.35 178.54 275.42 181.46 277.73 183.79 278.33 184.06 275.09 183.39 272.45 184.86 268.86 192.48 264.76 200.83 261.9 204.51 262.25 208.15 263.85 210.3 265.2 210.91 271.44 220.83 260.25 220.65 257.71 215.84 255.3 211.49 252.88 208.98 251.91 201.71 252.21 196.41 252.81 192.87 252.88 191.93 251.44 191.69 247.33 191.1 242.95 190.39 239.28 189.78 234.9 188.77 231.31 189.04 227.56 190.62 222.95 190.37 219.45 188.95 221.58 188.49 225.27 185.79 226.41 177.48 223.96 170.79 222.4 163.32 219.86 158.64 220.41 154.71 219.47 146.49 216.66 143.81 216.34 139.86 216.63 134.54 215.97 132.04 215.94 127.33 216.9 123.89 218.89 122.15 217.87 123.59 215.25 123.3 212.33 124.47 208.17 124.43 205.6 128.35 196.81 130.39 193.48 130.84 190.65 130.43 187.6 129.3 183.9 128.17 182.13 127.16 169.97 127.28 163.89 127 161.03 128.91 158.22 132.61 158.35 136.12 157.4 137.88 158.16 140.35 158.6 142.64 158.27 146.46 159.48 148.99 162.1 150.7 165.57 153.12 165.51 156.22 163.28 156.42 161.42 155.37 157.79 153.31 154.28 152.09 151.19 150.34 148.76 150.29 145.69 149.25 143.53 145.25 118.59 146.39 118.84 150.6 117.85 152.72 117.88 153.49 117.4 156.99 116.79 159.86 114.44 162.29 111.15 164.47 111.11 167.44 110.31 169.69 108.9 171.85 107.02 176.63 109.37 179.64 109.73 180.62 110.18 184.88 110.3 186.04 110.96 194.13 109.47 194.64 107.22 196.55 102.54 198.48 98.56 200.26 96.08 204.24 92.54 206.05 91.29 215.16 86.37 216.29 84.55 217.64 80.7 218.3 79.83 221.77 77.39 231.02 73.17 235.14 70.83 237.91 68.69 239.17 68.11 243.02 67.66 244.08 66.99 245.8 64.13 251.02 60.74 256.32 56.81 259.83 53.51 261.61 50.53 263.59 49.18 264.94 47.42 267.53 45.77 269.1 43.41 270.15 42.76 272.27 43.15 274.44 42.76 276.31 41.78 277.25 40.61 279.59 33.97 283.36 28.2 286.55 27.18 289.27 24.65 293.06 22.34 295.88 21.61 299.88 21.82 302.14 22.67 303.93 24.11 306.11 24.58 307.43 24.04 310.58 21.89 311.72 21.73 313.9 19.91 314.26 18.35 316.15 15.52 318.65 13.94 322.01 12.58 327.15 8.52 328.58 7.99 330.82 8.25 333.11 11.77 334.99 12.11 336.62 13.07 339.75 13.48 344.29 12.72 347.11 11.64 350.14 10.95 351.86 10.2 352.95 9.17 354.3 7.06 356.64 5.16 357.68 3.76 357.92 2.15 363.25 2.63 367.33 2.33 374.04 1 381.77 2.05 386.17 3.85 390.21 4.8 391.8 5.4 393.89 6.97 396.75 7.67 399.09 7.5 399.85 9.11 401.3 9.59 404.73 9.41 405.96 8.24 408.99 6.21 411.34 4.95 413.87 5.42 416.41 5.38 420.68 7.53 424.86 6.79 425.66 5.94 427.32 6.49 429.04 7.93 431.35 7.62 432.27 7.89 434.26 10.14 436.98 11.13 437.88 12.92 437.33 13.66 438.28 14.9 439.93 15.37 439.94 16.74 444.43 18.52 445.77 19.8 447.85 20.11 447.41 22.03 448.27 23.38 449.77 23.93 450.51 25.81 451.85 26.65 453.72 29.56 454.91 30.22 457.33 29.57 460.07 32.41 461.57 33.1 463.2 32.68 464.54 30.42 468.42 28.96 470.24 28.95 473.45 29.5 474.51 30.55 477.86 29.6 479.25 29.86 481.94 29.3 481.96 26.65 484.96 24.37 488.25 23.59 488.67 22.56 490.71 20.46 492.92 20.24 495.06 18.84 497.99 18.43 499.65 18.77 500.99 19.87 502.96 19.66 503.77 18.98 505.31 19.38 507.05 20.56 509.74 20.89 513.77 23.21 515.74 25.43 514.25 27.12 512.33 32.2 512.1 37.27 512.28 40.35 512.71 41.04 515.42 42.14 522.61 44.27 524.28 44.98 527.37 45.01 529.22 45.76 529.5 47.5 530.59 48.75 531.89 48.82 532.54 50.67 533.79 50.75 536.45 52.84 537.1 50.57 539.21 49.73 541.86 51.7 543.15 54.18 544.22 55.26 543.24 56.42 543.64 57.4 546.66 58.16 548.23 57.45 549.31 57.58 553.35 56.61 555.33 57.41 556.63 59.2 558.19 63.12 559.93 63.52 561.61 63.17 562.89 63.55 562.65 64.95 564.47 64.62 565.87 66.88 567.8 66.4 572.05 66.02 573.93 64.85 575.67 66.8 576.98 65.84 580.43 64.74 582.64 65.48 588.99 68.04 589.1 69.24 592.02 70.26 591.4 73.41 591.13 76.28 595.43 78.05 596.15 78.78 596.6 80.7 598.08 82.09 598.72 81.2 601.04 81.28 600.5 82.66 601.96 84.73 602.95 85.56 600.9 88.53 601.94 90.03 603.37 88.9 608.13 87.24 613.58 90.77 614.79 92.4 617.42 91.02 618 91.87 620.99 92.37 622.94 93.22 623.66 92.2 626.3 92.34 627.39 92.88 628.55 94.48 629.33 97.32 630.63 98.96 632.05 98.13 634.16 99.12 633.27 101.61 632.21 102.92 631.07 102.65 631.27 105.03 629.88 106.64 629.93 109.75 632.94 112.4 633.25 113.75 635.34 114.73 636.06 116.5 634.33 118.62 633.74 120.55 631.73 121.63 624.89 121.19 623.74 121.87 620.23 121.58 618.56 122.61 616.84 123.03 616.23 124.47 617.29 127.22 617.49 131.92 618.29 133.02 616.49 134.54 617.14 135.42 617.44 137.21 616.12 137.96 612.85 140.84 614.34 141.24 613.72 142.95 612.73 143.71 615 144.46 615.59 145.55 613.8 147.69 611.57 148.83 611.22 150.38 612.44 152.21 612.09 153.44 610.63 154.33 609.82 155.94 613.24 158.19 619.83 160.31 621.81 162.41 625.14 164.59 625.57 166.09 620.94 167.98 617 170.54 617.25 172.47 622.61 176.09 626.39 178.07 630.34 179.26 632.99 178.48 634.78 179.36 636.16 181.25 638.72 181.76 640.37 181.64 644.38 180.04 646.66 180.49 646.98 182.09 648.6 182.39 652.62 181.82 659.38 183.07 662.49 184.7 663.54 186.26 664.31 188.35 665.91 189.54 668.04 189.06 672.86 189.04 675.08 190.25 675.57 191.43 674.85 192.48 676.34 194.06 677.72 197.02 678.03 198.71 677.72 202.62 678.17 203.57 680.68 204.44 687.4 204.58 689.94 203.7 691.78 203.84 696.98 205.49 698.19 206.51 699.32 209.32 698.57 210.59 693.3 211.58 690 211.2 688.83 212.63 691.05 214.18 693.92 214.6 695.6 214.1 697.88 214.29 702.49 214.17 705.35 216.23 707.11 217.92 709.25 218.53 710.24 218.19 710.91 216.49 712.86 213.07 714.35 212.51 717.45 212.16 719.42 212.54 721.31 214.83 723.99 219.6 726.73 219.98 729.67 218.77 735.4 217.97 740.85 218.07 743.56 217.7 745.72 218.05 747.62 219.65 748.57 221.43 749.52 224.55 749.82 226.83 749.05 229.98 749.43 231.1 750.84 231.58 755.91 231.64 758.36 230.42 761.56 229.77 768.47 229.25 772.2 228.11 774.44 226.82 775.81 226.64 778.49 227.56 779.41 229.16 Z"/>
</g>
</svg>