<?xml version="1.0"?>
<svg xmlns="http://www.w3.org/2000/svg" version="1.2" baseProfile="tiny" width="800" height="1215" viewBox="0 0 800 1215" stroke-linecap="round" stroke-linejoin="round">
<g id="4208906">
<path d="M 434.01 280.69 432.98 282.64 434.05 284.56 433.43 286.43 433.22 291.91 432.77 293.29 430.96 295.31 431.37 299.09 430.33 301.83 430.6 306.81 429.72 309.59 430.11 310.91 432.93 313.54 434.52 317.33 437.02 318.57 441.05 324.12 441.64 325.67 444.19 325.32 445.26 325.85 446.39 328.78 448.89 330.93 452.13 332.17 453.81 335.4 455.13 336.54 455.59 339.89 456.44 342.45 457.85 342.81 460.64 344.64 461.37 345.55 462 349.39 463.05 351.39 467.64 354.76 474.24 358.61 475.77 360.71 475.46 364.18 474.96 365.91 475.88 370.9 476.32 372.24 477.87 374.58 480.71 375.39 482.78 377.05 483.57 379.26 486.33 385.63 487.52 387.14 492.36 391.65 494.93 392.95 497.3 395.04 498.98 398.4 500.71 401.2 503.26 402.77 504.86 404.8 509.97 410.64 510.94 412.27 511.61 414.62 512.57 416.46 514.36 418.82 515.03 420.63 514.58 422.06 512.8 424.21 513.03 425.58 518.2 426.35 521.03 427.3 521.8 427.93 522.7 430.07 522.63 433.69 524.28 435.09 532.55 434.6 533.92 435.43 533.07 437.76 535.57 441.99 529.52 443.62 525.69 446.18 522.33 448.04 521.52 450.32 521.46 453.37 521.91 454.66 527.37 456.53 526.95 458.67 525.98 459.56 523.9 459.58 522.07 458.42 520.48 459.31 519.85 461.95 520.39 464.2 517.85 464.8 518.11 462.83 517.23 462.02 515.61 462.56 513.34 467.27 514.2 469.16 517.73 468.16 518.63 468.61 520.79 470.87 521.41 472.35 523.5 475.51 524.52 476.48 529.27 477.68 529.82 479.48 537.31 482.78 536.26 483.89 534.66 482.81 533.44 482.68 532 484.34 530.66 485.15 529.47 487.06 527.8 488.8 527.63 490.2 528.18 491.82 527.79 492.97 525.83 493.61 523.89 494.9 522.62 493.92 520.93 494.54 521.73 499.12 523.49 501.29 525.68 500.75 525.74 498 527.85 498.55 526.79 500.41 527.1 502.53 526.45 504.93 527.55 506.41 529.58 507.37 532.82 507.18 533.86 507.45 534.43 508.94 533.29 510.41 533.18 511.52 534.55 513.44 535.75 512.52 535.84 510.64 538 509.17 538.91 509.28 541.16 511.13 541.45 512.51 540.83 514.13 542.7 514.29 543.91 516.98 545.96 517.9 547.35 517.71 547.91 516.71 546.22 515.05 547.17 514.27 548.65 515.12 549.81 516.87 551.33 517.19 552.55 518.16 553.87 520.92 553.37 522.53 554.52 524.19 556.47 523.72 558.13 521.75 561.35 519.25 562.59 517.92 565.07 517.11 566.17 517.98 571.48 519.18 570.95 520.78 568.93 520.47 567.85 522.55 568.2 523.83 571.17 523.29 572.12 524.23 572.29 527.24 571.24 527.52 570.26 526.37 568.87 526.33 567.24 527.89 567.65 529.16 570.38 530.01 572.47 528.51 573.47 528.31 574.94 529.11 574.92 530.25 573.68 531.27 574.54 532.71 576.79 532.75 578.28 533.84 576.92 537.53 575.75 538.21 573.53 538.06 572.1 539 572.79 541.14 578.32 542.17 579.64 541.54 580.37 539.91 582.61 540.48 582.93 541.74 582.04 542.61 582.82 543.84 585.98 544.48 587.55 547.29 588.16 549.23 590.08 549.75 592.3 548.01 594.21 548.25 595.68 549.97 600.59 550.97 602.44 552.57 602.45 554.42 601.57 555.67 601.57 557.01 602.84 559.93 605.21 560.65 607.97 562.72 612.38 564.87 614.53 567.01 616.61 569.74 622.88 570.74 625.48 571.82 627.33 573.31 629.26 576.46 628.91 578.24 627.64 580.38 625.91 580.82 625.85 578.76 624 576.89 621.25 575.65 619.55 575.73 619.04 578.96 620.28 582.53 620.58 585.8 619.98 588.82 621.38 590.35 626.18 592.21 627.81 593.13 629.96 596.97 633.07 603.48 633.78 605.67 635.04 606.97 637.64 607.21 639.12 607.93 642.29 610.59 645.92 612.54 649.68 612.55 652.04 613.62 651.87 615.61 650.47 617.46 654.4 618.09 656.55 620.25 658.32 623 659.62 623.92 666.63 626.56 670.3 628.4 673.14 629.27 675.7 629.31 679.64 629.98 682.02 632.43 682.87 633.86 686.11 637.1 689.77 640.01 691.96 644.04 693.29 644.63 697.22 644.67 699.03 645.32 701.58 646.79 704.02 650.05 705.38 650.47 709.22 650.74 712.32 649.88 714.62 648.52 718.17 648.73 719.34 649.49 719.03 650.96 715.54 651.04 714.66 652.19 716.06 658.78 716.34 661.63 716.06 666.63 717.06 667.7 718.65 667.97 725.32 667.6 728.46 667.02 731.33 667.63 735.48 669.33 738.86 669.86 740.93 670.58 743.26 672.11 746.17 673.39 747.3 674.97 748.85 675.92 750.61 675.88 752.68 674.45 755.39 675.68 757.39 677.21 758.8 677.5 760.21 676.02 761.32 675.64 762.22 676.59 762.12 680.29 761.31 681.43 758.7 681.54 756.25 680.29 755.21 680.98 754.82 683.77 755.08 684.99 756.39 686.79 755.89 687.58 753.52 687.37 752.35 688.34 752.99 690.32 752.58 691.19 750.66 691.78 747.8 690.21 745.75 690.35 745.22 691.26 744.66 695.01 743.54 696.94 740.93 699.34 740.01 701.1 738.1 706.33 737.75 709.32 738.26 712.12 737.9 714.62 739.1 716.79 743.87 716.39 744.94 716.75 746.31 722.89 748.11 726.01 749.81 730.24 751.59 731.45 752.84 731.68 757.04 730.93 762.08 732.35 762.95 733.03 764.16 735.89 765.99 736.59 768.42 736.87 769.94 736.21 770.39 734.36 772.21 733.22 774.27 733.53 776.56 735.85 778.42 735.12 781.83 735.28 787.2 738.13 787.98 741.09 789.27 741.99 791.43 742.64 795.33 742.91 798.46 742.44 799 743.86 797.69 745.38 795.72 748.7 795.87 752.03 791.01 750.88 788.2 750.75 780.34 752.48 778.68 753.24 774.15 756.07 768.51 758.64 764.34 760.78 763.61 761.6 761.07 763.03 762.29 765.1 760.78 766.52 760.83 774.05 761.59 776.01 763.04 776.55 763.65 778.34 765.86 780.37 767.32 780.98 768.04 782.28 769.77 783.69 770.56 788.67 773.67 789.94 779.23 798.58 784.77 799.81 786.07 800.76 787.58 803.01 788.3 805.95 787.17 807.73 790.32 808.86 792.55 810.01 794.3 812.1 793.51 814.07 793.59 815.58 788.01 818.64 786.98 819.56 783.96 823.71 782.57 824.67 781.67 826.47 780.37 827.49 779.96 829.09 780.5 832.74 781.22 833.36 781.41 835.91 779.77 842.49 776.66 844.44 774.27 844.71 772.05 844.27 767.64 842.46 763.68 839.83 759.72 841.4 756.2 843.96 749.88 848.1 747.27 848.71 743.64 850.26 738.18 852.22 735.43 851.72 731.47 850.1 729.13 849.76 728.18 848.6 727.31 846.11 727.69 842.32 727.43 840.86 723.94 842.51 721.91 842.14 718.52 842.03 716.27 841.12 712.84 840.46 706.07 840.03 704 838.94 701.07 839.63 697.82 839.79 696.58 839.97 693.75 841.67 691.57 840.96 689.95 841.23 687.68 842.51 686.2 843.79 685.59 847.32 684.7 848.19 683.47 850.73 679.7 854.05 679 855.92 678.95 859.68 677.01 861.53 676.35 863.3 676.76 866.41 676.3 867.91 677.67 871.94 677.81 875.78 676.6 877.67 674.53 877.94 670.8 879.56 669.95 881.04 670.26 882.79 669.72 886.26 670.32 888.12 672.95 890.47 674.57 893.2 675.29 898.46 674.79 900.26 672.97 902.79 672.87 905.83 671.82 912.01 671.89 913.31 670.54 916.74 668.5 918.89 666.19 919.05 665.16 918.63 662.9 916.66 660.31 915.99 656.3 914.31 653.97 915.12 649.36 920.44 645.44 921.75 643.59 921.63 640.92 920.76 639.14 920.59 635.58 921.16 632.46 920.63 630.79 920.76 628.22 921.65 625.09 921.67 623.73 920.83 621.45 920.74 620.47 922.04 617.04 928.21 614.59 931.99 613.37 932.24 607.99 931.54 602.43 932.07 598.67 931.42 597.18 930.82 594.76 930.61 588.06 930.96 587.93 932.65 589.34 935.22 589.68 936.68 589.07 938.8 587.4 939.94 585.4 942.39 585.25 944.98 583.35 948.57 583.77 949.5 586.14 950.98 588.5 955.12 590.29 958.77 589.99 960.32 588.29 963.21 586.1 965.65 584.52 967.94 582.7 969.75 578.94 972.62 579.06 974.49 581.05 976.66 582.75 982.38 584.28 984.26 585.25 987.89 586.91 992.04 587.04 992.98 586.11 994.39 581.91 997.3 580.46 998.99 579.04 999.34 576.93 998.3 570.73 996.7 569.39 996.55 564.63 998 562.55 1000.04 560.27 1004.62 557.79 1006.31 556.89 1007.46 556.52 1009.55 554.85 1012.03 552.81 1014.09 551.79 1015.74 552.66 1019.62 551.23 1020.15 548.1 1020.33 544.62 1022.14 540.36 1024.63 537.79 1027.28 537.1 1029.99 537.79 1031.18 540.06 1032.03 540.82 1032.88 541.74 1035.29 541.36 1042.34 541.72 1046.49 541.07 1049.09 537.81 1051.73 537.52 1053.22 538.99 1058.38 538.93 1060.34 538.28 1064.19 540.4 1067 541.86 1069.53 541.28 1072.34 542.52 1074.7 542.71 1077.46 542.18 1077.93 539.18 1078.19 537.51 1078.78 536.25 1080.41 534.53 1083.47 534.62 1086.55 533.8 1088.72 532.28 1091.53 529.52 1095.68 529.21 1097.88 530.82 1101.16 530.52 1103.95 531.08 1105.02 530.86 1106.47 529.68 1108.35 526.79 1110.52 522.68 1112.41 519.89 1114.08 512.86 1117.29 511.51 1118.45 509.31 1121.67 508.26 1122.58 506.56 1122.97 502.8 1123.19 502.04 1123.76 500.37 1126.36 497.98 1127.78 496.95 1128.84 496 1131.18 495.37 1135.63 494.37 1136.48 489.77 1137.31 486.93 1137.48 482.18 1136.55 478.98 1136.63 477.55 1136.97 474.65 1139.33 474.78 1143.12 475.63 1146.38 475.44 1148.45 474.24 1149.92 473.62 1152.05 472.12 1154.15 469.97 1156.48 469.23 1159.27 469.89 1162.26 471.36 1163.24 472.46 1164.99 471.92 1171.5 472.41 1174.11 473.02 1175.35 475.34 1177.09 474.23 1177.36 472.4 1178.8 467.88 1179.75 466.1 1180.82 464.5 1184.66 462.14 1186.04 459.13 1186.64 452.61 1186.89 447.41 1187.71 444.52 1190.05 443.27 1192.3 441.13 1194.26 438.6 1195.1 436.91 1195.14 429.95 1193.56 426.98 1194.41 425.7 1196.33 425.75 1197.61 424.88 1199.89 419 1200.18 414.42 1201.26 411.95 1202.85 409.01 1206.94 406.87 1207.26 403.51 1205.11 396.09 1203.71 391.54 1207.64 388.45 1212.18 384.25 1212.5 381.6 1214 380.63 1213.98 379.59 1212.75 379.49 1205.66 378.54 1201.92 377.77 1195.5 377.62 1191.03 377.04 1189.55 375.82 1182.92 376.01 1179.93 375.3 1176.67 373.44 1173.35 375.57 1168.03 376.03 1165.64 374.18 1163.11 372.39 1161.33 371.12 1157.61 369.58 1154.68 370.3 1149.99 367.41 1148.22 366.96 1146.33 365.44 1142.98 364.01 1140.99 362.95 1136.99 360.76 1134.19 359.39 1133.3 359.06 1129.48 358.27 1128.11 355.66 1126.76 353.83 1125.19 351.59 1122.16 349.89 1120.52 349.47 1117.79 348.22 1116.07 344.65 1116.29 341.91 1115.99 334.51 1116.14 330.2 1116.59 329.02 1116.22 326.1 1116.94 324.9 1117.83 323.15 1120.33 321.87 1121.45 317.7 1123.23 315.98 1124.56 309.65 1126.62 307.18 1126.28 303.28 1127.66 299.82 1127.5 297.38 1129.05 296.5 1131.82 294.18 1134.42 291.32 1136.18 289.3 1137.83 286.84 1139.1 284.71 1139.59 281.69 1139.54 280.37 1139.91 276.29 1139.91 273.4 1138.15 270.94 1135.63 269.81 1133.84 269.01 1131.29 267.04 1128.11 264.51 1126.83 261.34 1125.68 259.01 1125.27 256.85 1125.44 253.76 1126.7 252.39 1127.68 246.04 1129.41 243.1 1128.32 240.81 1128.31 237.93 1129.65 229.98 1130.4 225.73 1131.43 213.89 1134.96 221.47 1131.4 222.65 1130.33 222.86 1128.16 221.02 1122.84 221.11 1119.96 220.88 1116.88 220.86 1110.96 219.08 1110.09 217.41 1110.27 215.63 1111.07 211.68 1110.65 209.9 1111.44 207.6 1113.28 205.96 1113.91 202.2 1113.29 199.16 1114.38 194.76 1117.57 191.76 1118.79 189.25 1117.63 187.02 1118.04 180.97 1120.97 177.49 1124.78 175.6 1125.22 172.45 1124.59 171.18 1121.91 169.94 1120.48 167.42 1119.05 164.5 1119.27 161.98 1120.01 159.58 1119.76 153.46 1116.81 151.61 1114.6 149.66 1109.1 148.46 1107.22 145.85 1105.71 143.55 1105.69 139.35 1108.01 138.33 1108.85 136.25 1111.58 134.27 1116.27 132.79 1117.73 130.78 1117.94 123.72 1116.9 119.71 1117.21 114.7 1118.5 111.98 1120.62 106.6 1123.48 103.59 1124.75 101.18 1123.44 99.72 1121.35 99.11 1117.07 95.32 1114.76 93.68 1114.82 91.6 1116.4 82.76 1118.83 80.68 1118.51 76.53 1115.84 75.05 1113.95 73.84 1109.96 70.35 1106.73 69.61 1103.07 68.14 1100.85 66.71 1099.84 63.81 1100.08 60.94 1100.79 56.53 1100.69 54.26 1100.18 52.07 1098.58 50.42 1098.11 47.32 1099.27 44.37 1098.97 40.88 1097.64 39.16 1095.97 37.83 1093.7 35.76 1091.09 33.67 1089.45 33.24 1087.97 33.54 1086.17 29.32 1077.82 27.84 1073.51 27.89 1068.8 27.6 1063.89 28.54 1059.41 31.08 1055.15 32.57 1049.59 32.38 1047.15 30.71 1044.18 28.49 1042.51 27.98 1041.45 27.43 1036.9 26.34 1035.2 22.71 1032.66 21.94 1031.83 20.88 1029.18 17.7 1026.27 16.51 1024.2 15.82 1021.6 14.6 1019.25 12.37 1016.78 10.62 1015.35 9.11 1013.07 8.02 1010.53 6.29 1005.14 5.48 1003.53 1.61 1000.06 1 998.71 1.24 995.58 2.54 994.31 7.34 990.57 8.58 989.32 13.01 982.22 20.34 975.39 23.71 971.12 27.02 968.09 27.84 966.56 27.46 964.97 25.68 963.24 25.38 961.77 25.15 956.88 25.57 954.81 25.16 951.58 23.63 946.34 23.65 941.8 23.05 938.62 23.07 936.17 22.33 928.97 23.93 930.48 26.6 930.82 29.08 929.92 31.93 926.86 36.1 924.48 37.48 922.13 39.43 920 41.6 918.26 42.38 916.98 41.72 914.49 41.79 912.4 42.91 911.2 44.53 910.35 48.6 908.83 50.06 907.04 50.5 903.8 51.32 901.95 53.8 898.33 54.4 897.9 64.06 895.77 66.49 894.3 68.43 892.15 74.86 887.4 78.48 885.29 83.33 881.26 86.13 878.73 88.65 874.97 95.62 867.6 97.48 863.16 100.03 859.53 100.09 857.96 100.77 856.84 102.66 855.37 103.04 853.87 105.56 849.04 105.88 847.36 105.32 846.64 104.02 842.47 103.88 840.33 104.58 839.25 106.9 837.85 110.43 834.91 114.03 833.65 121.87 824.49 123.82 818.25 124.48 817.24 128.68 813.1 131.49 812.29 134.43 810.99 137.31 811.02 139.1 810.33 140.5 808.64 141.68 806.13 142.53 801.51 143.53 799.67 147.94 798.47 151.6 797 154.19 794.99 155.33 793.35 158.49 791.76 161.41 790.6 163.96 788.72 169.41 786.59 174.83 785.33 178.86 785.27 182.94 784.9 188.02 783.01 189.38 783.66 190.92 786.33 192.2 787.88 193.52 787.47 198.67 787.74 201.24 787.23 206.19 783.64 208.96 784.07 210.06 783.78 211.3 781.46 209.99 779.09 209.99 777.01 213.31 772.87 218.02 772.08 228.61 768.46 229.88 767.62 235.24 761.88 236.47 760.03 238.74 758.43 241.86 757.59 242.34 756.22 241.63 754.35 242.13 750.46 244.18 745.26 243.02 742.34 243.07 739.85 244.21 734.23 243.89 732.35 241.31 726.12 239.48 720.83 238.52 715.93 239.45 714.05 241.63 712.31 243.04 709.92 245.63 708.02 246.25 705.83 250 701.43 250.88 698.36 249.3 692.6 249.55 688.85 248.83 687.09 246.53 684.5 244.38 681.65 244.26 680.47 245.62 678.21 247.88 673.57 248.28 672.14 248.08 669.67 249.58 667.96 252.19 666.71 254.12 665.39 257.51 664.96 260.38 666.46 263.4 665.51 268.49 663 271.62 662.33 272.49 661.67 272.54 659.16 271.59 656.82 273.85 652.89 274.77 649.68 274.63 647.94 275.27 646.83 281.16 646.62 281.44 644.5 279.86 642.46 276.81 640.51 272.43 637.28 270.8 635.76 270.48 633.02 269.67 632.7 265.13 634.34 258.43 637.87 257.2 637.88 256.79 629.71 258.77 629.09 261.66 628.8 262.75 628.33 265.23 624.82 269.25 622.1 272.82 620.59 277.63 618.98 285.21 617.12 289.88 614.65 291.33 612.92 292.28 609.54 293.13 608.1 294.59 607.07 296.32 606.65 299.58 607.22 304.23 610.56 306.27 611.71 310.89 613.14 317.16 613.06 319.74 613.3 312.63 488.17 316.17 486.49 318.68 481.49 318.96 477.98 320.15 474.37 321.04 469.92 322.74 466.96 323.83 465.91 325.49 465.85 328.74 466.73 331.46 466.02 336.02 465.22 342.24 463.41 343.36 462.66 344.97 460.64 347.15 460.49 349.38 461.48 353.81 462.12 361.53 462.27 364.1 460.7 365.41 460.44 368.11 460.79 371.12 460.76 372.49 459.54 372.88 457.86 371.75 454.51 366.93 449.83 366.51 447.44 366.6 445.32 367.51 442.94 371.54 439.11 373.44 436.72 376.36 434.13 376.57 432.54 375.23 430.32 376.61 427.73 378.28 426.76 381.23 426.61 385.28 425.78 386.75 424.32 387.71 422.2 388.15 419.88 389.05 417.62 389.15 412.04 393.4 406.27 394.79 403.6 395.61 401.17 395.77 398.64 394.62 398.83 389.69 400.54 387.21 401.08 382.15 400.22 379.46 400.79 377.34 399.33 376.58 396.02 373.92 393.46 373.86 391.88 375.04 389.67 376.91 388.19 380.66 386.1 383.34 381.92 385.04 380.59 389.24 379.68 390.25 378.45 386.73 375.36 385.88 371.97 383.61 369.37 380.98 368.12 378.49 366.45 376.55 363.7 373.67 361.02 368.84 359.67 366.27 356.22 365.93 353.15 367.33 350.61 367.38 349.63 365.77 346.5 367.41 344.14 370.96 341.89 371.78 340.46 370.7 335.68 371.23 332.66 371.47 327.87 370.43 326.81 365.91 326.32 365.24 325.86 364.49 323.79 365.05 322.18 367.09 319.88 368.21 319.27 370.16 317.08 370.82 313.6 372.86 311.22 373.36 309.1 371.98 305.7 371.92 301.72 369.15 297.71 367.64 296.92 367.32 295.73 368.96 294.03 369.99 290.98 367.87 288.15 365.57 283.64 364.59 280.51 363.95 275.96 362.36 272.35 363.13 268.75 365.28 265.94 368.22 264.04 368.85 263.21 368.79 260.28 366.05 257.59 273.64 214.62 214.26 186.33 131.35 146.68 138.34 145.4 140.76 144.74 144.75 145.76 147.19 147.27 149.31 146.93 150.65 144.81 151.99 143.58 153.5 143.03 155.81 143.58 160.29 142.91 163.25 141.37 165.57 141.3 172.38 140.13 175.75 141.52 177.5 141.71 178.95 143.19 178.94 145.14 179.52 146.46 181.42 145.88 184.25 143.12 186.43 141.98 190.07 142.82 191.72 144.22 194.32 144.77 196.85 143.63 200.08 144.81 200.9 144.23 200.5 140.91 199.45 137.09 199.48 135.18 200.59 133.12 201.79 132.45 206.25 133.93 207.5 133.92 208.07 132.18 208.39 129.03 207.36 123.48 209.3 120.7 210.01 118.84 209.06 111.74 207.85 107.19 206.05 105.91 202.87 100.34 199.04 96.42 197.26 90.64 193.74 87.1 192.36 86.32 191.79 83.5 194.29 79.66 196.02 78.65 197.36 76.11 199.05 74.29 199.04 71.9 197.25 69.81 196.49 68.34 196.49 66.58 197.65 64.11 199.5 62.36 199.96 59.05 199.52 57.2 200.82 52.36 202.01 50.63 204.22 48.76 208.96 47.66 212.78 45.21 213.9 42.99 214.16 40.72 215.26 39.76 218.8 39.16 220.07 38.18 222.85 37.26 224.54 37.47 227.48 36.6 229.67 36.52 232.18 37.2 236.83 36.87 238.72 37.67 240.16 39.83 243.28 40.81 246.76 44.61 249.67 45.22 251.18 44.94 253.59 42.03 257.68 39.58 261.48 39.32 262.89 38.48 265.28 36.15 265.21 34.63 264.26 33.29 263.98 31.66 264.49 29.91 265.62 27.96 267.55 25.9 272.41 22.18 278.68 20.88 279.97 17.98 278.4 15.27 271.42 13.86 270.82 12.67 271.56 11.31 273.11 12.85 278.22 11.87 280.89 10.32 282.74 9.96 283.81 10.59 286.15 13.64 291.47 13.9 297.22 11.19 300.73 11.78 302.02 10.81 304.46 7.39 307.23 7.93 308.94 6.82 309.01 4.81 311 3.97 311.99 2.66 313.41 3.25 318.09 1 319.85 2.31 321.14 2.66 324.51 2.44 329.39 4.79 331.19 4.96 330.93 6.38 331.68 7.59 331.56 9.41 332.58 10.05 339.67 10.09 347.21 7.52 353.81 4.52 355.63 4.18 359.83 4.84 364.31 5.07 363.05 8.35 363.2 10.89 365.03 13.52 364.15 15.09 363.77 17.71 364.72 19.43 363.22 21.98 362.52 22.06 360.67 20.51 359.76 21.4 359.28 23.81 361.58 24.5 362.15 25.2 361.64 26.9 362.2 29.48 363.55 30.18 363.6 31.47 360.93 34.09 361.53 35.52 361.2 40.56 362.07 41.52 360.53 43.17 360.43 44.21 361.26 45.96 364.22 46.9 366.66 46.07 367.21 48.03 365.47 50.77 364.3 50.89 364.07 54.58 364.93 56.58 364.76 58.73 366.37 60.56 364.8 64.2 363.46 65.16 363.73 67.19 363.22 69.67 361.37 73.26 358.64 74.94 360.74 77.96 363.51 77.63 365.9 75.58 366.82 76.73 366.62 78.28 366.92 81.02 365.66 83.16 362.86 85.93 360.31 89.4 358.69 89.6 356.09 90.79 354.34 92.78 354.13 96.32 353.13 98.84 353.29 100.97 355.39 102.9 356.2 104.21 355.84 105.43 352.95 107.06 351.35 110.76 349.91 110.86 347.03 114.66 346.51 117.35 347.93 121.91 349.83 121.49 350.6 122.88 352.19 123.53 353.26 126.06 350.23 130.02 347.62 130.46 348.87 131.9 347.81 133.12 347.83 135.46 347.11 136.35 347.65 138.83 349.92 139.93 351.18 139.91 351.92 138.07 356.65 135.5 359.49 138.73 362.47 141.08 363.12 141.96 361.9 145.58 358.96 147.5 358.78 148.17 360.35 150.8 360.93 150.7 362.53 148.51 366.15 147.92 367.71 148.74 368.45 151.21 370.88 152.35 370.89 155.54 373.16 154.85 374.74 156.61 377.77 156.11 379.19 156.98 379.13 159.47 380.36 161.21 382.67 163.48 382.34 165.35 385.42 171.77 385.48 172.79 384.77 176.68 383.44 181.05 383.21 183.57 384.27 184.84 384.34 186.6 383.09 187.89 383.22 189.85 384.07 190.97 385.62 191.26 390.93 189.6 393.58 190.32 394.18 191.19 394.49 193.6 396.22 195.58 397.36 199.15 397.83 199.55 401.63 200.16 403.02 200.67 403.47 201.63 401.99 202.81 399.49 206.35 397.17 207.34 396.81 208.87 399.52 210.86 398.85 213.9 398.84 215.89 400.25 217.89 402.87 220.61 404.04 220.79 404.77 221.87 405.01 224.27 403.62 225.97 401.5 226.45 400.75 227.58 402.69 229.11 407.13 230.59 407.44 231.4 405.73 232.72 404.85 234.04 404.05 238.27 405.55 239.4 407.46 239.13 409.5 241.48 413.54 244.08 414.34 243.06 416.54 243.31 418.8 242.76 418.88 245.14 421.15 246.54 422.94 244.51 424.4 243.76 427.06 243.98 429.76 243.63 432.63 245.29 434.69 245.44 435.78 244.46 437.86 244.94 436.61 249.21 436.07 254.31 434.3 255.07 433.65 256.74 434.45 258.43 432.97 260.84 432.84 262.33 434.03 265.36 437.37 264.78 439.07 265.79 439.45 267.48 439.11 268.66 439.37 272.84 437.76 275.06 436.15 275.25 434.01 280.69 Z"/>
</g>
</svg>