<?xml version="1.0"?>
<svg xmlns="http://www.w3.org/2000/svg" version="1.2" baseProfile="tiny" width="800" height="444" viewBox="0 0 800 444" stroke-linecap="round" stroke-linejoin="round">
<g id="4208005">
<path d="M 790.52 65.27 790.25 66.53 789.74 79.13 788.65 85.75 787.77 89.52 785.14 96.76 781.87 103.57 779.43 106.75 777.9 107.98 774.65 108.83 773.14 107.98 770.91 102.15 768.42 96.94 766.87 95.43 763.07 94.21 760.95 94.09 757.21 94.6 755.11 96.1 753.66 99.03 754.34 102.77 756.72 107.16 759.76 110.09 766.03 115.26 770.65 119.78 773.21 121.84 775.71 123.25 780.22 124.32 784.17 124.33 792.63 123.65 795.89 123.98 798.42 126.23 799 128.41 798.07 130.58 794.85 132.9 790.32 134.84 782.13 137.28 776.73 138.21 773.85 137.78 771.43 136.21 768.98 132.81 765.7 129.89 762.39 129.2 754.78 130.94 751.39 130.45 746.01 129.02 742.89 128.76 740.57 129.92 739.63 131.36 739.89 132.91 743.71 138.29 745.43 142.38 745.49 145.6 744.41 148.46 740.95 155.45 740.18 158.24 740.2 162.6 741.16 168.66 741.48 172.09 741.38 175.35 740.65 178.6 738.66 183.1 735.53 184.09 731.13 186.3 727.33 186.08 721.5 183.44 717.24 181.95 707.65 179.42 703.55 177.53 701.68 175.96 697.42 170.55 693.22 167.51 690.9 166.57 688.69 167.43 684.65 172.11 681.99 176.29 678.8 182.61 676.91 187.67 676.37 190.41 676.45 194.47 678.05 198.8 677.93 200.83 676.43 204.45 673.02 209.45 670.03 213.12 665.16 218.54 658.82 225.33 657.33 227.31 655.33 228.78 650.18 223.9 645.09 220.22 641.97 218.63 639 217.6 635.84 217.03 632.37 216.91 628.54 217.25 624.22 218.15 619.12 219.82 615.8 221.26 609.06 224.69 605.03 227.04 598.48 230.09 595.24 231.36 590.78 234.95 588.48 234.49 582.76 238.36 579.3 241.03 574.96 243.81 573.16 246.62 562.34 250.53 545.38 256.11 537.81 258.15 526.83 259.73 519.66 260.02 511.01 258.97 504.73 257.25 498.93 254.99 487.61 248.45 481.45 246.78 469.98 245.71 462.04 246.9 454.76 248.41 449.34 251.67 444.76 255.66 436.08 264.6 431.58 274.38 431.08 281.43 431.23 288.33 434.04 302.69 435.98 309.05 439.91 321.13 442.21 327.3 444.39 334.24 450.42 344.66 453.73 351.28 458.12 357.68 462.03 362.39 465.95 369.9 468.3 375.2 471.55 381.48 473.67 386.56 478.39 399.27 479.19 404.31 479.39 410.25 477.53 422.22 475.82 427.85 471.9 433.38 466.9 437.64 461.95 439.89 451.57 443 446.67 442.86 440.02 441.66 435.47 439.77 430.74 436.23 423.05 428.3 419.03 423.49 415.9 418.47 409.46 412 398.38 405.67 389.87 401.72 382.51 398.51 375.21 395.51 368.33 392.94 358.66 389.55 353.75 386.18 348.6 382.32 339.3 372.65 336.23 369.1 331.07 363.82 323.39 354.45 317.89 349.77 313.34 347.55 307.65 345.66 301.38 344.89 296 345.06 291.94 345.55 286.15 347.59 281.57 350.63 275.61 354.94 270.67 360.36 266.34 367.43 261.58 375.87 257.66 381.13 247.6 389.86 243.25 393.27 237.35 397 231.8 398.66 225.64 399.58 219.11 399.68 213.67 398.8 208.82 397.06 205.47 394.9 202.47 391.19 199.82 385.47 197.71 380.44 196.14 377.37 194.81 371.97 192.99 365.87 192.44 361.74 189.43 343.57 188.26 335.4 187.52 328.88 187.21 323.58 187.6 317.37 188.46 307.24 188.5 303.31 189.19 294.51 189.83 289.78 192.11 278.85 193.76 270.33 194.33 262.96 194.13 258.88 193.22 255.11 190.99 248.6 188.88 245.63 183.67 239.44 179.47 235.8 170.14 231.58 166.07 230.11 160.87 229.12 156.75 229.23 151.32 230.47 147.03 233.17 143.7 235.72 135.43 245.45 134.43 249.85 134.15 253.89 134.35 259.51 135.27 266.61 139.02 278.98 141.26 287.67 144.82 298.17 146.15 303.46 147.67 311.04 150.51 319.23 153.66 330.47 154.52 335.77 153.93 340.49 153.11 344.31 151.4 348.61 149.08 353.23 147.54 355.62 144.47 357.8 140.59 359.25 134.2 359.11 129.35 358.17 123.07 355.96 112.66 351.48 106.91 347.89 101.05 344.67 95.48 341.39 90.45 338.97 85.07 336.12 80.87 333.21 74.94 328.24 70.27 323.64 64.63 318.49 55.58 310.87 48.93 305.43 38.45 295.43 33.12 290.51 23.11 282.21 16.4 275.55 13.6 273.28 10.78 270.21 6.22 263.12 2.55 254.43 1.58 250.67 1.21 245.15 1 236.6 1.04 231.19 1.33 226.31 3.09 218.45 5.88 211.34 7.3 207.2 9.13 203 10.49 198.39 11.29 193.9 14.61 185.98 16.33 182.48 23.28 171.7 28.69 164.37 30.95 160.65 36.23 150.45 38.19 145.3 39.01 141.64 39.12 137.61 38.5 133.58 37 129.98 34.84 126.91 31.48 123.05 33.08 122.25 35.61 119.78 36.61 117.77 36.62 115.3 38.64 114.2 42.03 116.22 45.67 117.97 48.47 120.11 49.97 119.39 52.33 116.04 54.67 111.1 58.53 108.08 58.89 105.84 54.8 102.56 54.62 101.32 55.94 98.84 56.31 96.16 57.96 95.02 60.69 94.57 64.06 95.86 68.98 97.03 73.41 96 74.9 93.22 77.97 90.66 79.39 90.42 80.89 91.56 82.69 91.36 84.91 87.63 85.13 86.05 84.32 83.68 82.2 83.15 81.53 82.1 81.31 79.56 84.1 77.29 85.92 73.79 86.81 73.56 91.23 77.1 94.91 77.99 97.46 77.27 99.55 73.87 100.24 70.81 96.85 66.57 97.21 64.19 99.43 63.37 100.89 66.07 102.48 66.84 102.98 65.46 104.53 64.01 107.39 64.15 109.77 63.49 110.05 61.95 108.58 60.25 104.93 57.96 104.57 55.71 108.74 54.7 111.73 57.85 113.11 58.28 114.86 54.63 116.61 52.71 117.49 49.63 115.2 46.19 119.31 46.56 121.25 46.16 123.41 44.75 122.42 42.26 123.98 39.03 128.47 37.04 130.55 36.32 131.46 35.25 131.49 32.32 136.87 31.08 139.74 31.4 141.77 33.8 144.44 30.86 147.88 28.68 149.85 26.6 151.43 26.12 154.65 27.02 155.59 26.77 153.89 22.66 153.73 20.59 155.07 19.4 157.28 18.98 159.04 16.97 160.25 16.42 161.92 18.19 163.45 22.86 165.33 24.59 168.42 24.26 169.88 22.83 170.58 19.8 177.44 43.5 193.77 35.73 197.66 38 202.54 39.94 204.27 42 206.42 42.61 209.44 44.92 213.15 48.52 213.22 49.78 215.21 51.8 216.07 56.23 232.78 44.83 255.03 63.11 281.54 84.48 280.79 86.94 279.39 89.81 276.49 90.61 275.36 91.68 272.92 92.78 273.05 95.39 272.26 97.45 274.65 100.2 273.51 105 273.32 107.06 275.18 108.25 274.77 111.62 273.26 113.71 271.29 115.1 273.25 116.27 273.42 118.32 272.36 119.8 272.29 121.81 273.34 123.23 273.07 126.22 271.96 126.72 272.09 129.35 272.63 130.8 274.17 131.65 275.49 135.27 274.88 136.21 272.79 137.07 269.48 142.44 271.11 143.02 270.89 144.82 275.9 145.14 284.29 146.04 292.8 147.17 301.87 149.08 324.26 160.68 316.57 177.34 323.78 179.52 321.36 183.15 320.66 187.28 325.67 186.57 357.26 181.22 357.34 183.8 358.94 184.73 362.92 183.05 365.04 183.03 367.99 183.73 371.38 185.64 373.83 188.15 377.07 188.94 379.68 190.96 381.86 193.2 396.55 192.37 410.15 191.98 409.87 171.01 440.23 162.93 464.16 156.34 508.67 143.31 512.54 142.29 519.15 141.13 520.09 142.26 517.48 144.79 518.34 146.36 523.08 148.6 525.03 149.08 526.51 152.59 529.45 156.26 529.94 158.15 531.03 159.27 531.21 160.84 530.07 162.2 530.17 163.34 531.66 164.6 532.74 166.83 538.34 162.21 542.26 158.69 544.97 153.66 548.6 150.53 550.41 149.88 552.89 149.91 557.94 151.93 561.97 152.52 564.95 154.88 565.69 158.54 565.18 160.66 565.58 163.05 568.4 164.74 569.7 164.15 572.66 160.6 573.65 156.39 574.51 155.24 575.11 151.43 576.85 149.5 579.33 144.74 580.18 141.11 577.43 134.18 574.38 129.62 574.05 127.57 574.83 124.39 577.73 122.29 583.74 118.85 585.78 117.33 587.67 115.24 591.55 113.66 593.05 112.72 594.23 110.73 597.44 109.26 601.25 108.67 602.63 108.87 605.74 111.49 607.2 111.53 610.75 107.16 612.98 101.12 613.02 99.6 610.97 96.58 609.66 95.64 606.98 94.74 599.78 93.08 594.35 89.7 591.68 86.73 590.21 84.36 590.03 82.74 591.39 78.48 593.18 71.61 595.27 70.68 596.3 67.97 597.66 67.99 600.64 69.83 603.86 70.86 609.28 74.01 612.69 75.13 615.85 73.83 616.78 71.85 617.48 67.14 618.13 65.44 618.07 59.57 615.86 55.09 615.15 50.15 615.28 47.63 613.47 44.54 613.12 43.2 611.83 34.16 611.51 29.84 612.14 28.18 614.38 26.72 618.56 27.04 623.9 29.61 625.08 29.72 630.98 26.17 635.73 24.65 638.13 25.72 638.67 29.18 640.68 35.32 642.38 36.68 644.85 37.14 650.83 35.94 656.2 35.23 657.12 35.62 661.91 35.57 665.12 34.22 666.3 33.09 666.51 31.35 664.28 27.22 661.73 26.2 657.89 23.76 655.08 19.21 653.87 16.15 653.26 13.41 654.44 11.87 659.56 8.44 661.82 7.33 664.71 5.04 667.64 5.24 669.09 7.4 668.91 9.24 670.03 13.03 670.67 13.97 674.22 14.75 677.83 14.44 681.68 13.19 687.9 11.95 690.46 11.83 694.14 9.13 696.82 6.28 699.54 5.52 701.2 5.68 704.71 7.12 707.6 6.84 708.83 5.05 709.65 1.17 711.84 1.73 713.77 1 715.24 1.13 716.88 3.32 721.2 5.42 725 5.55 726.3 7.08 726.54 8.74 729.49 10.16 731.59 12.32 734.92 14.44 735.76 16.2 738.41 20.1 739.21 23.12 742.44 25.92 744.72 29.98 747.86 33.68 749.66 36.61 754.71 39.12 756.96 42.22 759.1 42.7 760.85 44.13 765.89 46.3 768.82 47.85 772.42 48.47 774.59 49.43 775.06 50.74 779.91 55.72 780.52 57.54 782 59.41 785.81 61.55 790.52 65.27 Z"/>
</g>
</svg>