<?xml version="1.0"?>
<svg xmlns="http://www.w3.org/2000/svg" version="1.2" baseProfile="tiny" width="800" height="1143" viewBox="0 0 800 1143" stroke-linecap="round" stroke-linejoin="round">
<g id="4208450">
<path d="M 706.51 92.52 704.78 94.57 703.49 97.64 699.86 99.24 696.34 96.91 697.26 94.9 701.77 92.8 706.51 92.52 Z M 799 962.57 789.11 983 780.01 994.27 769.77 1004.21 753.17 1015.96 738.54 1026.63 695.92 1053.32 664.91 1075.75 635.61 1094.09 561.58 1142 547.9 1128.52 538.22 1113.96 530.97 1093.63 529.51 1075.06 530.95 1059.72 535.31 1037.1 536.47 1031.97 28.17 785.79 16.05 779.92 15.64 776.21 16.04 771.46 12.64 768.96 9.84 768.34 3.65 764.8 1.7 761.32 1.9 757.21 3.9 752.98 3.89 750.22 1.4 745.62 1.46 737.01 1 732.61 2.57 730.29 6.94 728.12 7.8 726.34 11.53 724.96 15.9 724.4 19.97 723.01 23.26 720.73 23.87 718.2 28.92 713.94 35.99 710.91 47.52 704.86 50.47 701.92 52.57 698.88 54.82 694.03 59.61 692.44 61.21 690.3 69.56 687.08 74.51 688.07 76.59 690.72 81.11 690.95 84.84 690.52 87.91 689.4 88.7 684.96 92.23 683.75 94.06 684.64 98.88 684.01 99.5 685.5 102.03 685.83 104.8 685.07 107.02 682.98 107.34 679.05 105.81 675.03 107.34 673.18 107.66 670.75 110.21 669.44 118.63 670.05 121.44 668.55 121.81 666.1 124.55 664.43 132.53 653.75 140.61 646.09 143.18 644.47 145.73 641.26 149.35 640.06 152.09 637.35 154.41 633.65 161.9 627.76 166.21 628.42 169.21 628.13 177.77 624.55 190.8 623.01 216.52 619.74 218.72 617.76 241.31 576.29 236.34 573.53 232.15 569.33 229.11 567.57 221.25 564 217.37 562.95 213.38 559.12 210.94 558.06 204.92 552.45 203.45 548.95 199.95 545.69 195.15 539.75 191.33 537.63 188.48 535.27 184.82 533.56 183.27 531.36 183.76 528.03 181.65 525.1 178.55 523.39 175.38 520.05 175.62 516.47 183.6 508.98 186.85 500.27 189.78 497.75 191.57 488.47 193.69 485.05 193.93 482.53 193.04 478.86 193.44 476.99 197.51 470.32 196.54 466.9 191.56 467.95 184.54 466.23 185.26 463.6 191.41 460.71 197.51 456.23 200.45 451.7 201.2 448.45 198.81 442.97 196.61 435.65 195.06 432.6 185.36 426.11 182.66 422.16 177.33 419.2 172.12 419.52 168.17 418.76 162.92 417.06 159.92 415.21 156.03 414.01 151.08 410.41 143.68 408.21 139.41 404.95 133.07 403.49 129.04 399.11 127.7 393.15 127.86 387.62 129.69 380.86 132.54 377.51 136.94 374.21 140.13 371.06 139.46 366.24 136.74 364.21 135.64 361.87 134.69 356.02 135.75 354.08 131.54 348.62 130.44 346.52 127.14 345.12 122.34 344.12 120.44 341.22 120.19 338.67 126.49 334.92 126.74 332.57 130.95 326.24 135.51 325.51 143.58 325.07 145.23 322.87 145.28 320.02 147.43 316.22 147.63 313.07 149.67 310.69 155.2 307.22 162.07 305.37 165.87 305.92 163.07 302.72 159.75 301.27 158.72 298.9 155.58 296.73 156.85 294.8 162.95 294.2 162.12 290.34 163.25 287.6 154.5 287.55 152 285.78 150.75 280.8 147.23 276.7 147.83 273.95 151.13 272.78 154.55 270.6 156.53 268.38 159.2 264.03 163.65 261.16 159.52 257.38 158.92 253.56 156.6 248.03 154.18 248.51 151.48 247.68 150.7 245.11 153.3 240.51 153.71 235.76 159.22 235.05 164.35 237.15 169.99 236.76 174.33 235.75 177.34 234.35 188.13 227.08 191.46 224.11 193.61 221.35 194.06 216.33 196.15 205.07 196.48 201.61 196.13 191.9 197.38 186.28 199.84 185.09 205.23 185.52 208.56 187.29 213.62 189.23 217.15 193.46 221.01 195.85 226.03 197.66 227.95 197.34 228.7 195.29 227.91 192.79 228.4 190.09 230.48 186.57 234.66 182.52 239.59 179.74 256.22 171.64 261.14 169.55 269.17 162.69 276.19 158.68 279.15 156.32 282 151.74 283.42 148.21 286.79 135.94 287.62 127.29 288.8 125.96 289.22 120.75 291.55 116.92 298.99 113.13 304.03 108.91 307.89 103.8 310.85 101.74 316.94 100.62 325.32 100.87 328.96 102.13 336.74 106.66 340.63 108.59 343.84 109.02 347.28 107.18 352.37 98.87 361.21 90.98 364.41 89.47 369.58 88.07 374.37 83.35 376.03 80.41 376.69 77.19 376.85 70.01 375.28 61.98 377.68 58.98 382.61 59.68 389.38 57.23 395.9 53.55 407.1 49.32 411.39 43.98 413.73 41.71 418.77 39.09 424.17 34.42 426.44 29.53 427.84 25.37 428.86 18.33 430.27 16.06 435.24 10.1 437.69 7.93 444.64 4.31 454.86 1.46 458.74 1 463.99 4.7 467.83 9.95 469.81 11.83 476.03 13.2 480.23 15.12 483.87 18.16 487.16 22.97 488.15 26.29 487.74 31.28 485.78 34.61 482.53 38.61 480.01 40.56 477.44 43.77 476.71 46.6 476.92 53.25 484.7 59.49 491.06 61.74 501.16 61.38 504.25 62.26 507.71 66.24 510.57 71.6 511.82 76.9 504.82 84.23 505.03 89.22 503.38 94.82 504.01 97.87 505.5 100.41 508.58 101.29 514.19 100.88 521.78 102.97 529.3 102.83 532.71 101.84 540.1 100.77 543.93 100.92 551.07 99.29 553.34 96.24 557.18 86.86 559.21 85.14 562.29 84.74 564.33 85.9 565.63 88 563.74 93.32 563.93 96.2 565.99 103.35 564.28 107.06 560.97 110.18 560.42 112.56 562.36 119.65 565.02 121.14 567.23 121.35 572.95 116.73 575.84 115.4 582.81 116.65 590.32 115.46 594.08 115.45 596.94 116.19 598.55 118.18 597.22 124.06 598.46 127.27 600.62 128.09 603.7 126.86 607.52 127.07 611.72 130.27 614.8 130.48 618.07 129.42 619.29 127.31 618.73 125.04 609.64 118.48 607.41 115.93 606.29 112.89 606.03 107.9 607.62 106.35 610.95 105.84 616.75 107.32 619.54 111.8 624.23 115.22 627.93 115.31 637.77 110.35 642.45 110.39 653.75 114.29 654.97 112.85 656.07 108.63 658.27 104.02 659.24 99.79 662.36 95.79 665.75 95.5 681.23 95.96 679.78 101.84 678.39 103.71 678.26 106.75 676.99 111.15 673.5 116.46 671.72 124.3 668.45 130.86 667.67 134.56 663.89 147.41 663.68 149.3 661.34 156.52 661.26 158 658.86 165.93 657.37 169.15 657.32 172.56 654.7 184.43 653.59 186.47 651.29 187.4 646.37 192.83 646.38 194.9 649.18 196.94 650.9 200.48 649.76 204.92 649.44 210.63 647.11 219.41 646.84 222 645.1 228.4 644.99 230.89 643.66 236.85 642.23 240.53 640.05 251.03 638.32 255.98 638.34 258.25 636.19 266.72 634.95 274.85 631.24 290.35 629.04 303.98 628.71 304.43 627.17 315.46 626.08 319.44 625.05 328.87 623.99 335.56 623.28 337.26 622.9 344.6 622.4 346.3 621.64 354.13 619.58 366.92 618.87 373.81 619.05 377.16 617.67 385.43 617.02 394.25 615.87 402.41 615.19 412.19 612.84 432.26 612.49 449.98 611.73 462.07 611.7 469.6 612.4 479.57 612.86 490.9 614.03 499.01 616.26 503.69 618.57 506.14 621.83 506.73 623.75 504.53 625.48 504.4 626.82 506.45 623.79 507.96 623.72 509.74 625.2 512.86 628.02 515.67 633.09 519.25 635.48 523.75 638.61 526.4 641.32 527.25 642.99 525.54 648.44 526.92 647.73 529.13 648.01 537.2 646.42 544.41 646.31 551.43 645.57 561.66 645.95 571.49 645.36 574.77 645.75 579.04 645.08 582.82 645.73 586.33 645.3 588.8 645.86 594.44 645.51 606.73 646.13 612.22 645.86 615.34 646.52 619.97 647.26 642.09 647.9 646.04 648.03 655.98 649.28 665.09 649.48 669.08 651.4 685.19 652.24 690 652.12 692.45 654.33 707.44 655.13 709.29 655.18 714.46 656.6 721.08 659.16 740.33 660.63 748.96 662.24 755.7 665.39 764.44 665.94 772.24 667.47 775.7 667.44 778.3 669.22 787.39 671.11 793.39 672.48 794.17 676.92 807.7 679.07 818.07 681.05 823.89 686.54 838.49 691.48 849.24 695.45 859.88 698.75 867.31 700.54 874.02 703.62 881.98 706.07 889.78 708.63 895.75 710.7 902.47 711.85 904.77 716.44 909.62 720.96 918.57 726.25 926.64 729.1 929.8 731.04 933.41 737.16 938.75 746.47 945.14 765.01 953.84 782.68 959.93 799 962.57 Z" fill-rule="evenodd"/>
</g>
</svg>