<?xml version="1.0"?>
<svg xmlns="http://www.w3.org/2000/svg" version="1.2" baseProfile="tiny" width="800" height="615" viewBox="0 0 800 615" stroke-linecap="round" stroke-linejoin="round">
<g id="4208807">
<path d="M 600.45 139.97 602.84 140.27 607.77 138.57 617.66 133.31 623.63 132.47 630.8 133.37 637.47 135.53 643.12 139.02 651.39 146.15 660.41 153.71 664.18 156.68 670.5 161.15 675.54 163.94 679.68 165.41 683.33 165.96 686.82 165.87 690.22 165.2 693.54 163.9 696.8 161.94 700.01 159.35 704.73 155.12 708.55 152.03 712.47 149.6 716.81 147.74 721.61 146.39 726.91 145.46 732.75 144.89 739.28 144.71 746.74 145.09 750.9 145.54 755.39 146.19 760.24 147.07 767.52 147.61 779.29 150.9 786.74 157.74 790.72 166.36 792.53 171.57 793.63 173.29 795.63 179.16 797.11 182.54 799 188.59 797.88 188.42 796.7 189.15 795.49 189.19 793.77 190.11 790.87 190.82 789.77 190.76 785.25 192.94 777.21 196.23 775.76 197.28 773.53 197.84 769.91 199.47 768.76 200.41 767.99 200.3 766.51 201.21 763.24 202.55 760.16 204.24 757.73 204.9 756.49 205.92 754.19 206.56 753.33 207.42 752.24 207.56 749.55 209.03 748.33 209.2 747.6 209.94 745.92 210.38 744.6 211.25 742.42 211.57 741.58 212.4 739.17 213.55 737.9 213.66 736.97 214.55 734.41 215.1 731.91 216.54 730.61 216.79 727.79 218.38 725.49 219.37 724.6 220.08 722.36 221.07 717.96 222.59 713.02 225.37 711.51 225.72 710.97 226.42 707.53 227.81 705.87 228.28 705.35 228.91 703.94 229.09 702.08 229.88 701.33 230.64 698.26 231.74 696.11 233.16 695.4 233.11 694.05 234.27 693.05 234.37 690.2 235.96 688.61 236.4 686.95 237.59 682.64 239.33 677.94 242.02 675.97 242.89 675.07 242.86 674.12 243.76 672.72 244.12 671.78 244.94 667.94 246.63 664.64 248.54 661.77 249.93 659.09 250.92 656.56 252.14 653.03 254.39 650.74 255.12 648.98 256.36 647.76 256.6 647.02 257.41 644.75 258.52 643.07 259.03 639.35 261.13 636.47 262.32 632.4 264.69 630.18 265.51 629.36 266.3 626.99 267.39 622.96 269.67 617.62 272.41 614.38 273.66 613.35 274.41 610.72 275.64 610.22 276.21 607.99 277.27 599.71 280.88 598.5 281.74 594.65 283.72 594.48 284.3 590.25 286.24 586.52 288.47 585.65 288.62 582.46 290.31 581.65 290.39 578.26 292.59 573.38 295.03 570.83 296.82 567.26 298.86 557.72 303.3 551.89 306.33 550.86 306.41 548.28 308.25 546.76 308.41 546.25 309.14 544.32 309.84 543.66 310.81 542.42 310.79 541.68 311.73 539.51 312.24 538.85 313.23 536.76 313.95 535.85 314.83 533.07 315.8 525.93 320.27 520.54 323.39 517.41 325.38 512.95 327.97 509.76 329.33 505.39 332.11 504.45 333.28 502.27 334.84 496.17 338.21 492.56 340.56 486.98 343.77 482.27 346.89 479.15 348.56 477.64 349.79 469.1 354.56 462.2 358.93 459.99 359.29 456.31 362.19 454.72 362.64 452.98 363.98 452.24 363.96 450.18 365.57 449.4 365.78 444.53 368.79 443.4 368.34 440.31 369.29 437.33 370.45 436.45 372.04 434.56 373.01 433.59 374 432.47 374.12 431.27 375.32 430.05 375.3 429.16 376.32 426.54 378.15 424.79 378.32 424.45 379.09 419.99 381.43 418.64 381.93 417.91 383.41 415.69 384.39 415.15 385.06 413.4 385.8 410.64 387.45 409.78 388.43 408.19 388.92 405.72 390.88 404.4 391.26 403.52 392.16 402.42 392.49 400.01 394.53 398.28 395.09 397.55 395.96 396.55 396.02 395.38 397.08 394.69 397.04 393.77 398.18 391.83 398.85 391.53 399.49 388.62 400.56 387.93 401.47 386.62 401.49 383.46 403.42 380.33 404.86 378.72 405.13 377.42 406.42 376.51 406.49 374.17 409.05 370.52 410.98 364.32 414.79 363.97 415.6 359.67 418.2 358.55 418.48 356.88 419.78 350.23 423.66 346.17 426.31 343.56 427.63 341.73 428.27 341.04 429.1 339.37 429.71 337.43 431.03 334.12 432.22 332.48 433.53 330.6 434.32 329 435.85 327.81 436.21 324.75 437.86 321.51 440.05 320.15 440.4 318.21 442.28 317.2 442.53 316.51 443.73 313.73 444.96 312.31 446.14 309.61 446.68 308.14 447.86 305.98 448.56 304.6 449.37 303.45 449.44 302.44 450.57 301.18 450.88 300.09 451.86 298.06 452.88 296.66 454.06 295.41 454.11 292.67 457.16 290.53 457.89 289.71 458.88 283.69 462.15 277.53 466.53 276.42 466.79 275.74 467.64 274.5 467.94 273.86 468.81 272.86 468.88 271.62 469.97 269.57 470.88 268.96 471.63 267.27 472.28 264.99 474.04 264.2 473.85 263.03 474.64 261.53 476.33 260.53 476.5 259.65 477.51 257.78 478.3 257.33 479.08 256.17 479.36 254.94 480.51 254.09 480.62 253.26 481.62 251.01 482.74 250.06 483.66 248.69 484.04 247.38 485.25 244.46 486.66 243.97 487.77 235.86 492.44 228.32 497.42 224.55 499.49 218.44 503.59 217.39 504.01 211.14 507.91 210.33 509 208.71 509.26 206.1 511.31 205.15 511.48 203.71 512.64 202.34 513.05 201.3 514.05 199.31 514.91 198.18 516.24 195.67 517.2 193 519.12 191.74 519.3 189.99 521.26 188.51 521.78 185.2 523.83 183.75 525.21 181.88 526.53 180.2 527.17 179.56 527.87 177.56 528.84 176.56 530.03 175.39 530.07 174.7 531.08 173.18 531.86 171.46 533.31 170.47 533.49 168.92 534.85 167.61 534.88 167.07 535.95 165.23 536.82 164.13 537.94 161.14 539.4 160.3 540.34 159.21 540.52 157.45 542.36 156.3 542.82 153.67 544.84 151.8 545.82 148.79 548.2 142.18 552.17 138.54 553.07 136.11 556.07 133.19 558.17 131.84 558.83 126.92 562 120.52 566.6 118.44 567.47 113.67 571.42 112.3 572.05 109.18 574.36 104.78 576.76 101.65 578.91 98.91 581.29 97.43 581.57 96.51 582.37 92.35 585.21 89.83 587.32 84.06 590.87 81.78 592.86 80.24 591.61 78.86 593.14 75.59 596.13 73.97 597.13 73.67 598.39 72.06 598.99 71.68 599.84 70.26 600.38 69.09 601.71 66.81 602.63 65.64 603.86 63.88 604.79 62.99 605.7 60.92 606.72 60.04 607.76 57 609.09 56.38 610.09 55.38 610.1 53.76 612.21 51.32 613.34 46.5 614 46.88 611.91 46.86 610.03 46.27 608.36 44.79 606.13 43.88 603.35 42.52 601.03 40.81 598.75 38.03 597.47 36.06 597.06 31.32 595.7 22.98 591.91 19.39 589.98 16.97 588.16 4.81 580.77 2.78 579.14 1.93 577.95 1 575.07 1.73 572.77 2.82 570.93 4.48 568.84 4.97 566.48 4.89 564.26 3.77 561.27 4.1 559.53 5.14 557.95 7.41 555.55 8.89 553.6 9.82 550.75 10.02 547.87 9.55 546.06 9.64 544.71 10.6 543.02 13.11 541.5 13.78 540.5 13.61 539.25 11.66 536.31 11.27 534.56 10.21 533.49 8.31 532.79 4.3 532.36 2.74 531.83 2.04 530.85 1.88 529.56 2.25 527.11 2.25 524.59 5.71 519.72 9.5 515.92 13.13 511.75 14.83 511.36 16.54 512.99 16.99 514.42 16.69 516.23 17.23 517.13 20.63 516.68 22.76 514.62 26.25 513.09 25.25 510.93 24.23 510.27 24.61 509.52 27.87 510.51 29.44 509.8 27.85 507.46 24.74 503.9 23.58 501.95 22.26 500.83 20.14 499.93 16.86 499.52 15.39 498.97 12.68 497.03 10.62 494.21 10.46 493.22 10.71 490.15 12.33 489.28 13.78 489.35 15.2 488.52 17 486.64 17.91 485.17 17.9 482.72 18.8 480.88 20.72 479.21 21.28 478.32 23.59 471.21 24.93 469.23 26.41 467.88 31.78 464.64 33.41 462.99 34.18 461.03 36.75 460.37 40.02 460.39 43.05 459.32 45.44 457.01 48.62 450.86 52.14 447.19 53.33 445.45 54.55 444.78 57.88 444.14 59.6 444.03 62.55 443.27 64.94 444.7 65.87 444.67 67.28 443.79 68.55 444.66 69.39 444.33 70.07 443.07 69.95 439.71 69.61 438.78 71.85 436.15 73.13 432.93 73.1 431.78 71.75 426.37 71.05 422.93 70.44 421.04 69.95 418.37 68.09 411.1 67.38 407.86 67.32 405.5 69.83 398.56 74.4 386.91 76.21 381.98 77.55 378.89 78.13 377.85 79.36 376.78 81.06 376.87 82.89 377.79 85.67 376.91 86.52 377.03 88.33 378.84 88.88 379.88 90.4 380.96 91.89 381.03 94.77 380.19 97.88 380.26 99.01 379.83 100.98 379.85 102.15 380.26 105.3 382.51 109.94 384.2 115.39 384.7 121.67 384.61 123.59 384.82 127.2 382.38 128.13 380.75 129.8 380.1 130.34 378.93 131.89 378.77 134.95 377 135.94 376.7 139.23 374.55 140.59 374.14 144.48 371.33 150.3 368.33 151.21 367.64 154.99 367.33 162.9 366.41 171.61 366.34 180.5 365.91 184.21 365.45 186.22 365.51 188.56 366.15 190.88 366.15 195.14 365.09 200.85 364.27 203.49 363.07 205.01 362.11 207.5 362.56 210.07 364.52 211.01 364.91 214.4 364.99 218.52 363.96 219.15 363.3 220.27 360.93 222.83 357.08 224.21 355.66 228.04 353.76 230.55 353.07 231.52 352.37 233.51 351.95 240.96 351.99 249.33 346.96 302.42 310.1 300.98 307.01 299.23 305.61 298.02 304.04 294.39 300.39 292.92 299.18 291.37 299.05 289.35 298.33 286.69 298.54 285.48 297.29 285.33 296.25 282.91 292.47 281.79 286.31 282.25 282.38 281.31 280.21 281.14 278.44 282.16 277.72 288.39 274.54 295.29 270.55 302.7 266.42 304.4 265.08 307.62 261.96 314.9 255.11 306.36 246.77 300.84 243.59 297.96 241.74 296.35 240.95 297.23 240.22 297.03 239.07 298.92 238.05 298.79 236.83 299.65 235.19 300.43 232.56 300.29 231.17 300.65 229.11 301.57 228.27 301.38 226.1 301.75 225.32 305.38 221.82 307.41 220.79 310.22 218.63 312.26 215.46 273.96 173.99 239.48 136.66 300.5 100.76 406.38 38.47 407.27 35.5 406.66 30.61 405.8 25.96 406.58 24.5 409.76 20.45 412.95 10.72 415.28 6.33 418.61 4.09 421.15 3.35 422.28 2.46 423.75 1.9 427.38 2.11 430.58 1.18 432.63 1 434.51 2.22 437.3 3.1 438.9 4.19 440.04 5.72 439.31 9.96 439.66 10.89 443.11 14.72 445.79 14.4 447.67 14.52 450.47 16.91 454.79 19.03 455.37 19.68 456.72 22.81 458.81 28.91 461.01 33.93 461.77 34.81 464.45 40.18 467.11 43.27 469.43 45.25 474.23 48.34 478.07 49.64 479.24 51.05 479.37 53.37 480.83 54.89 482.92 55.76 485.88 55.37 487.22 55.54 489.15 58.3 490.68 58.21 493.18 57.05 496.55 56.35 498.17 55.74 499.45 54.73 500.71 54.79 502.09 55.73 505.17 56.98 507.38 58.95 508.23 59.4 512.3 59.26 514.68 57.72 518.5 57.6 521.82 56.69 524.87 57.08 526.53 57.95 528.86 57.63 531.56 56.85 532.86 54.68 531.99 51.34 532.84 50.19 533.11 48.66 532.11 47.71 532.22 46.74 534.16 44.94 535.35 45.19 536.53 47.39 537.92 47.62 538.11 45.84 539.65 44.8 540.57 44.61 541.68 45.8 543.12 47.97 544.44 49.29 547.74 49.88 549.99 51.96 551.24 56.02 552.89 58.41 555.01 60.22 557.27 63.4 557.54 67.16 556.62 68.65 555.16 70 553.17 70.48 551.83 71.33 550.33 74.36 548.05 76.57 545.89 77.84 544.65 79.14 543.72 82.04 541.66 85.81 540.68 86.7 540.43 87.78 541.23 91.82 543.53 94.28 546.12 95.06 549.29 94.77 551.5 94.35 553.5 94.93 556.21 95.03 560.15 96.01 562.33 96.32 563.1 98.79 564.18 100.35 564.78 102.32 564.66 104.36 565.55 107.11 567.66 111.12 569.56 112.55 571.89 113.09 573.45 113.93 577.15 117.52 579.97 119.91 581.34 121.46 582.36 123.14 583.08 125.29 584.99 127.5 588.88 129.24 589.78 129.95 591.79 133.74 593.3 135.51 595.46 136.71 600.45 139.97 Z"/>
</g>
</svg>