<?xml version="1.0"?>
<svg xmlns="http://www.w3.org/2000/svg" version="1.2" baseProfile="tiny" width="800" height="598" viewBox="0 0 800 598" stroke-linecap="round" stroke-linejoin="round">
<g id="4208401">
<path d="M 535.66 111.43 526.26 120.92 528.28 123.08 526.9 146.42 547.26 159.23 538.17 177 509.74 176.54 509.71 199.64 504.96 199.23 481.24 289.49 521.47 298.08 522.42 299.49 520.84 300.99 517.53 301.1 516.25 303.62 517.9 307.7 518.59 310.69 518.23 312.61 515.19 312.46 511.42 310.35 508.29 310.63 506.51 312.85 505.08 317.65 504.17 319.18 502.36 320.58 500.89 321.09 499.58 320.84 498.41 319.7 495.67 314.4 493.63 312.52 491.71 311.71 488.21 311.65 494.49 317.58 495.42 318.91 502.11 325.86 503.29 326.3 509.64 326.74 514.43 327.89 517.73 329.36 519.96 328.96 522.16 329.31 523.94 330.15 527.09 332.58 531.52 336.89 533.94 338.18 537.45 339.1 540.53 339.5 546.85 339.73 547.95 340.08 548.91 341.5 549.25 343.23 548.94 346.67 546.99 349.65 545.08 350.81 541.25 352.2 540.54 354.06 541.7 360.91 541.77 362.41 541 364.95 538.89 368.67 531.88 376.33 529.62 377.66 523.21 379.89 520.97 381.08 542.54 419.38 566.88 420.78 588.78 442.62 612.31 449.44 615.19 447.06 619.2 445.25 624.83 444.18 628.32 444.15 637.41 442.38 641.7 440.56 643.19 439.05 645.01 435.69 643.45 430.69 641.3 426.21 640.58 423.07 636.03 417.12 635.8 416.06 637.24 414.21 639.47 413.04 642.38 412.05 647.94 411.06 650.18 409.92 653.4 407.81 655.84 406.92 663.83 401.67 664.65 398.81 664.13 395.52 660.78 391.34 659.63 390.45 657.07 387.24 656.1 384.62 655.71 381.06 654.67 380.03 654.38 378.5 656.96 375.04 660.12 370.3 661.66 369.53 662.98 369.99 664.05 371.59 665.72 375.58 667.42 377.12 671.49 379.33 673.04 381.66 676.15 381.2 677.33 381.99 679.55 381.77 680.63 382.36 681.88 383.95 683.08 384.22 684.75 386.01 687.44 387.84 688.84 391.02 691.09 393.46 693.98 395.42 694.44 397.33 696.61 400.89 698.78 402.06 700.15 402.11 700.63 403.92 701.93 404.51 702.98 407.09 705.87 409.02 706.1 411.03 707.78 412.72 707.5 414.41 708.08 415.64 710.85 417.24 711.37 420.3 713.9 419.85 715.94 421.08 721.58 421.82 722.89 422.6 745.45 430.86 746.33 430.04 750.34 428.48 754.58 427.6 761.37 428.08 765.15 429.15 769.4 429.7 771.19 429.23 775.77 425.8 779.14 423.97 784.46 422.33 787.84 421.86 795.87 421.54 798.22 421.27 799 477.18 797.88 476.34 787.62 470.69 781.86 468.39 775.68 466.92 767 466.04 760.55 466.28 757.37 466.73 750.28 469.1 743.19 471.93 738.44 473.6 734.68 475.24 728.73 478.64 725.07 480.51 713.56 487.69 705.88 492.79 697.1 498.06 690.36 501.73 685.03 504.89 678.61 507.82 670.01 509.9 661.88 511.56 656.1 513.01 652.2 512.81 647.52 511.25 644.05 509.43 636.37 506.51 628.32 504.62 618.39 503.54 615.01 503.71 611.31 504.38 604.73 507.44 602.48 509.28 600.28 511.99 596.85 518.21 595.05 522.28 592.44 530.59 590.62 537.2 588.34 543.35 586.63 549.26 583.51 556.37 580.97 561.77 577.17 568.46 574.22 572.84 570.28 579.27 562.41 586.91 558.07 590.4 550.02 594.43 544.75 596.11 538.87 597 534.03 596.83 529.4 596.34 524 594.5 520.64 592.08 514.86 585.15 513.88 577.44 514.4 570.13 515.69 564.44 517.16 556.67 518.23 551.82 518.54 546.26 519.25 541.62 519.23 537.78 522.16 527.61 522.86 518.4 521.75 506.4 520.73 498.02 518.76 489.57 516.77 483.96 513.49 477.73 510.09 473.87 496.58 459.53 486.67 449.84 481.81 446.06 471.89 439.58 468.05 437.61 463.69 436.33 457.75 435.09 451.21 434.08 448.04 433.92 441.27 434.99 434.7 436.52 428.44 438.75 422.82 440.11 417.24 441.97 411.86 444.49 403.35 448.04 388.89 454.29 376.75 459.65 369.49 464.09 363.68 467.48 355.41 474.32 346.69 481.88 341.14 486.57 334.38 491.76 316.19 502.47 303.7 508.64 294.04 512.97 281.98 516.97 273.9 519 268.37 520.53 263.11 521.24 254.73 521.69 247.36 519.88 244.09 518.15 240.22 514.51 238.42 512.09 236.96 509.42 234.76 504.17 233.49 500.65 228.61 488.25 226.28 482.02 223.83 476.59 220.68 468.05 218.97 461.28 218.04 454.03 216.68 448.74 213.65 438.26 211.26 431.67 208.16 424.11 205.65 419.23 199.79 411.34 194.27 406.68 189.77 403.41 185.28 400.78 181.71 399.23 178.23 398.05 175.54 397.47 173.09 397.32 169.61 397.53 167.36 398.11 164.49 399.34 161.62 400.99 153.98 406.49 145.14 415.07 137.75 421.41 131.9 426.1 123.42 432.47 118.49 436.6 111.27 442.01 104.3 447.52 88.41 459.76 82.76 463.56 78.62 467.24 67.32 473.59 62.51 475.87 59.17 476.17 49.25 475.22 34.35 471.36 30.46 469.85 21.7 466.87 6.58 459.17 4.32 457.09 9.8 451.71 12.2 448.96 12.93 446.92 13.41 444.26 12.93 441.55 11.65 438.81 6.01 431.05 2.87 426.33 1 420.01 2.3 415.45 5.7 410.97 10.2 407.32 14.58 404.95 18.8 400.7 22.52 396.42 24.38 393.49 28.69 391.51 34.34 389.81 40.36 388.99 49.72 389.02 59.58 389.62 68.61 390.4 80.93 392.87 93.02 395.07 100.97 395.71 104.88 395.52 107.57 393.26 108.57 390.75 109.1 387.43 108.4 378.27 108.42 372.22 107.66 369.13 105.33 366.91 101.97 366.96 94.89 368.61 81.6 372.05 69.61 375.98 61.5 377.6 55.28 377.39 48.47 374.43 41.67 367.17 36.73 359.53 33.7 351.36 32.69 345.28 34.12 341.71 36.31 340.04 39.1 340.3 44.81 343.34 51.11 346.49 58.65 348.72 64.96 347.02 77.62 340.69 83.32 338.43 88.06 334.97 90.86 329.14 90.53 325.25 89.89 320.7 88.36 316.24 88.11 311.64 88.19 307.64 86.64 301.66 84.14 296.66 78.46 292.92 70.79 288.5 63.56 284.46 55.05 279.56 52.64 276.57 51.32 273.54 52.81 271.19 55.62 267.95 59.08 264.39 64.07 261.4 68.46 260.18 71.75 261.15 75.26 263.75 79.46 268.52 82.24 276.04 86.43 283.16 92.32 288.63 97.48 290.55 107.26 293.51 116.72 294.95 122 293.05 126.63 288.89 133.77 283.96 138.96 281.47 145.13 281.24 160.32 278.46 167.43 276.06 167.18 274.18 164.94 270.74 158.68 267.18 144.66 259.73 130.83 250.01 122.56 242.61 110.45 235.96 99.4 228.71 94.41 223.96 90.72 218.33 88.59 211.49 88.13 207.7 94.01 195.43 97.8 189.45 100.7 185.74 105.47 175.41 108.98 172.76 112.67 173.52 116.11 176.11 118.25 179.5 119.24 182.69 122.32 186.98 127.28 193.42 135.01 199.86 143.54 204.38 151.69 207.69 159.11 208.51 165.08 205.96 170.87 203.14 175.69 200.11 180.27 194.69 179.72 192.08 176.43 189.1 170.65 186.91 161.04 187.92 150.35 189.88 143.04 187.64 134.2 179.3 125.48 168.66 119.1 162.45 111.95 156.38 108.83 153 107.77 148.52 107.54 143.62 108.01 137.59 107.33 133.87 101.04 117.78 96.97 103.87 96.74 101.12 100.41 100.04 106.68 100.73 112.47 99.59 116.85 102.02 121.83 105.51 129.82 114.34 138.18 128.18 144.89 140.24 152.7 149.4 160.3 158.48 168.73 166.2 179.23 173.64 186.07 176.78 191.84 177.81 197.82 176.97 206.01 173.73 213.26 168.74 216 162.79 213.36 157.91 209.04 155.5 202.09 152.71 192.84 149.73 185.37 145.79 178.24 139.56 172.49 134.08 166.19 126.59 163.48 117.91 163.62 115.2 161.97 110.53 161.96 105.64 161.57 99.85 159.77 94.51 156.14 90.55 152.91 85.7 148.45 79.82 143.83 72.47 141.46 66.93 142.01 63 146.06 61.54 151.8 63.12 158.85 66.4 171.29 77.03 178.09 85.37 184.84 93.93 190.16 104.48 193.13 109.1 196.54 113.63 200.53 115.86 204 115.42 206.49 113.55 207.3 108.57 207.53 105.39 208.85 98.87 211.68 89.94 213.04 86.28 214.56 84.43 219.05 83.88 223.91 83.94 230.77 83.8 237.04 83.2 242.85 83.26 246.32 81.11 248.12 77.65 246.81 65.7 245.48 61.8 244.22 57.09 241.84 51.96 238.48 49.47 234.32 47.7 222.92 44.43 218.52 42.74 211.45 34.91 206.92 25.46 202.45 14.7 203.37 12.37 205.95 9.97 210.59 6.85 217.66 5.56 220.84 4.41 227.12 3.77 234.48 5.12 240.88 8.46 245.24 12.44 252.43 19.47 262 30.44 266.14 31.48 269.9 28.45 275.57 23.39 277.01 21.58 279.7 18.96 282.76 17.17 286.38 14.37 288.67 11.56 289.34 7 289.14 2.4 293.54 1 298.03 3.82 297.9 4.74 299.95 5.69 302.78 5.56 304.59 7.01 306.49 9.65 306.93 11.46 308.83 12.02 311.24 12.14 314.16 14.85 317.18 16.52 319.8 17 322.13 16.73 323.42 17.8 325.2 17.1 328.33 17.05 330.81 15.65 333.12 16.02 334.72 15.2 337.54 15.58 338.07 15.1 341.33 15.26 343.83 16.47 346.14 16.37 350.51 17.08 355.09 18.66 356.99 18.34 358.61 19.06 362 18.58 364.69 19.37 367.11 21.39 370.69 27.4 373.8 29.46 374.33 30.24 367.15 32.02 365.83 33.28 364.6 35.62 364.31 37.19 364.73 39.83 368.1 42.99 368.63 45.97 368.4 49.92 370.06 51.28 372.89 54.36 373.29 55.9 377.92 58.92 378.01 60.08 379.48 61.69 381.89 62.76 383.78 65.61 385.08 66.71 386.63 69.81 387.1 72.35 388.41 74.72 389.21 78.66 388.67 79.65 391.72 81.91 392.08 83.55 393.53 85.41 394.13 87.07 395.74 89.11 395.19 91.32 392.82 93.38 392.26 94.77 398.29 98.93 403.27 101.64 406.09 103.38 406.54 105.64 404.94 109.62 402.55 114.1 402.57 116.23 406.08 116.3 414.84 113.41 418.26 113.02 422.53 114.23 427.14 114.84 430.01 115.63 433 115.36 436.04 114.33 437.22 113.39 437.93 111.21 435.9 109.11 432.02 106.68 428.12 103.96 421.32 98.37 419.45 95.99 419.11 93.5 421.07 89.35 422.13 84.65 422.97 82.35 423.7 79.2 425.03 76.76 427.29 75.13 433.21 72.12 438.46 69.19 441.91 68.22 446.51 68.61 449.9 69.43 454.29 71.34 458.1 73.59 458.94 74.74 459.24 79.02 459.91 85.07 461.54 88.42 464.42 91.44 466.55 91.79 467.43 91.22 470.76 85.74 509.76 89.4 513.17 91.28 518.35 95.21 520.89 97.87 522.89 100.5 525.92 103.38 526.96 104.75 530.2 107.09 533 109.81 535.66 111.43 Z"/>
</g>
</svg>