<?xml version="1.0"?>
<svg xmlns="http://www.w3.org/2000/svg" version="1.2" baseProfile="tiny" width="800" height="841" viewBox="0 0 800 841" stroke-linecap="round" stroke-linejoin="round">
<g id="4208955">
<path d="M 799 475.75 794.02 478.68 790.04 491.03 782.9 504.33 777.04 513.58 770.09 516.34 766 516.14 758.72 512.33 754.97 513.36 755.73 518.21 754.17 527.03 749.45 524.21 740.41 527.84 736.72 525.26 731.74 527.76 727.17 528.02 723.12 530.74 713.12 530.76 709.38 535.72 700.26 540.2 690.68 541.49 673.67 542.92 658.74 542.85 647.16 542.14 631.29 540.21 622.32 540.29 613.53 539.44 606.38 539.54 603.75 535 599.68 520.96 595.94 518.01 591.77 519.11 582.89 525.89 577.08 527.71 565.56 534.51 564.22 540.93 551.86 552.36 546.1 555.33 538.27 556.37 531.27 554.82 520.46 555.95 514.24 555.05 510.67 556.41 491.72 568.57 489.57 571.84 471.86 560.26 414.33 515.23 409.58 515.95 403.98 519.12 382.38 521.71 375.84 524.12 373.62 533.81 370.64 539.67 366.1 545.99 364.53 550.19 367.37 559.2 368.49 575.05 366.65 580.75 361.88 587.67 358.6 598.7 351.23 610.17 347.23 621.94 342.12 626.72 326.65 626.76 317.5 623.55 309.19 625.72 305.58 628.5 303.93 635.87 297.57 645.42 295.5 646.76 290.91 656.52 288.22 667.11 286.72 669.74 282.92 671.1 273.09 681.35 265.1 686.08 261.09 687.51 257.32 690.8 250.36 694.68 250.65 698.94 243.38 702.56 243.08 706.2 232.91 711.03 227.97 716.36 221.97 730.23 214.56 733.61 205.93 744.15 202.61 746.71 198.22 746.44 192.58 749.93 186.35 752.46 180.24 759.77 176.63 761.03 176.27 765.95 173.03 774.09 172.86 778.42 161.12 789.41 158.17 794.31 157.51 800.96 148.71 801.75 143.02 803.36 135.9 803.06 129.82 804.57 120.72 802.65 118.4 809.47 111.37 813.32 106.1 814.08 105.08 816.62 105.52 824.86 101.44 833.15 98.55 835.7 89.13 836.84 78.56 835.26 73.44 838.5 68.84 840 63.09 839.79 59.11 835.67 62.04 833.5 63.34 828.16 61.56 820.86 58.79 817.72 46.76 809.4 34.81 803.19 13.21 792.73 6.7 786.58 3.63 782.27 1 775.06 2.66 768.2 7.74 761.47 16.52 757.04 28.3 753.25 48.22 751.14 54.5 751.74 78.76 759.08 87.62 759.56 92.56 756.7 93.22 754.09 89.73 747.86 77.46 736.19 69.98 726.52 63.27 716.46 58.81 712.94 37.14 700.42 28.71 694.47 18.97 685.37 16.86 681.41 16.29 675.94 18.99 671.04 23.13 669.98 32.27 672.37 44.73 677.65 55.11 681.29 70.31 680.75 77.37 679.54 88.67 676.17 100.67 668.85 110.03 665.33 122.07 659.83 130.08 655.43 135.09 650.51 136.49 646.37 136.08 642.59 131.22 622.37 129.24 616.08 120.97 599.58 112.46 593.53 103.18 590.98 96.45 588.31 89.87 587.04 81.27 582.96 76.66 575.15 79.77 570.87 85.13 567.45 98.23 560.34 105.3 554.3 113.16 543.92 124.21 535.93 132.73 531.32 149.33 528.52 155.25 528.29 165.36 530.06 173.31 532.76 183.53 535.11 194.9 535.85 205.54 535.23 210.16 532.79 211.29 529.34 208.7 523.79 190.26 512.03 187.47 508.76 176.1 500.26 172.5 496.45 168.5 488.41 166.61 480.03 165.78 470.3 167.17 463.54 169.87 455.48 169.64 451.87 164.97 441.74 163.05 439.25 157.86 436.71 148.83 436.79 144.87 438.89 136.5 446.73 131.49 455.36 125.23 460 116.85 460.36 113.19 457.24 114.05 447.37 119.17 428.5 119.4 419.32 115.48 408.06 112.72 401.82 106.85 391.09 102.36 381.7 98.76 369.61 90.71 355.02 95.78 348.48 104.73 346.09 107.99 346.07 132.13 353.35 150.73 363.47 163.93 369.52 175.97 377.34 180.85 378.47 185.67 377.13 194.24 377.06 202.94 375.99 212.22 372.36 220.94 365.51 233.68 358.01 239.98 353.75 247.05 351.53 259.79 351.37 272.7 351.81 283.86 347.53 291.43 343.45 291.99 337.66 286.18 331.92 274.01 324.89 271.42 322.39 260.95 316.28 252.79 314.56 245.18 314.82 237.9 313.24 232.91 316.97 229.51 321.34 218.75 323.34 207.45 320.23 203.4 317.71 199.67 313.5 192.81 298.81 189.69 295.01 178.26 290.15 165.43 286.13 161.85 282.77 162.62 267.44 164.43 265.28 168.91 264.37 175.95 265.98 178.2 268.47 186.85 271.24 192.96 271.7 204.62 265.46 212.87 259.92 223.51 258.29 252.38 269.44 253.5 271.18 260.41 273.68 271.65 275.52 282.16 273.7 291.4 268.66 291.34 262.72 287.28 259.6 267.36 252.39 259 247.07 254.41 242.17 240.23 228.92 224.18 215.77 221.64 212.45 214.73 208.8 195.18 204.29 187.19 204.45 179.02 206.49 164.32 206.57 156.13 207.19 151.52 205.71 145.4 201.15 140.79 196.48 138.8 191.2 138.91 184.67 145.05 179.13 149.18 178.41 154.35 179.21 167.78 179.16 175.88 178.45 179.71 177.26 185.19 172.13 186.82 168.91 187.99 162.25 186.75 154.52 182.36 140.02 181.14 134.21 181.76 124.48 184.57 120.23 195.22 112.7 208.04 113.05 216.97 114.85 219.01 116.18 225.56 114.52 230.96 108.59 233.25 101.22 233.26 94.1 231.09 91.6 224.48 89.73 214.65 89.39 202.34 91.53 187 96.63 171.98 93.76 166.98 91.91 160.26 87.91 145.71 77.54 139.5 74.79 131.98 73.14 125.9 74.36 114.12 80.89 108.91 82.39 96.99 83.36 87.06 86.52 80.84 89.38 71.31 91.17 65.44 91.09 62.19 89.68 59.38 86.32 58.79 82.88 61.91 74.46 62.02 69.91 57.56 61.07 56.14 54.27 56.51 50.54 48.2 34.46 43.69 23.51 78.06 29.08 130.97 27.91 194.24 24.15 273.98 21.03 443.24 11.89 595.51 1 584.55 4.13 581.19 6.5 576.23 20.29 576.91 29.6 584.92 38.17 587.05 44.79 590.85 47.46 595.96 46.64 602.58 49.97 609.43 62 611.87 68.32 611.79 75.1 607.45 87.82 604.56 93.37 605.4 98.78 603.57 104.49 606.16 109.97 615.14 115 621.38 121.85 625.8 132.74 626.44 139.14 631.03 146.67 634.33 148.88 648.72 152.92 651.85 155.25 652.27 158.74 656.45 164.44 655.44 174.5 656.09 178.24 659.42 184.46 660.99 190.53 665.47 195.33 673.99 202.19 676.38 206.91 681.36 210.28 695.51 212.77 724.78 222.82 728.43 225.18 733.91 230.82 737.34 238.13 737.95 246.2 734.29 270.64 735.36 282.83 741.6 293.87 750.05 316.25 753.33 327.07 756.68 329.96 761.47 331.63 766.38 329.87 770.53 330.95 774.71 335.83 785.61 341.61 788.61 347.25 784.88 357.7 783.99 366.89 779.93 383.52 778.28 386.89 774.22 390.18 766.28 392.93 764.06 394.84 764 399.86 767.41 405.12 774.8 409.08 778.98 415.09 782.64 426.59 781.73 436.34 776.09 449.89 774.19 455.75 775.86 464.59 783.17 469.61 790.17 470.51 795.3 472.16 799 475.75 Z"/>
</g>
</svg>