<?xml version="1.0"?>
<svg xmlns="http://www.w3.org/2000/svg" version="1.2" baseProfile="tiny" width="800" height="838" viewBox="0 0 800 838" stroke-linecap="round" stroke-linejoin="round">
<g id="4208203">
<path d="M 732.37 242.04 732.38 246.54 735.54 247.18 736.61 248.17 735.44 250.97 734.51 255.3 733.98 261.67 735.05 263.2 735.83 266.11 738.33 266.27 739.68 267.47 739.8 270.3 742.18 271.78 744.71 270.36 746.64 269.9 748.15 272.37 753.35 273.99 753.78 276.24 756.86 280.55 757.75 283.09 759.5 285.28 760.39 287.42 762.56 290.29 765.93 293.61 768.09 295.23 770.15 295.96 771.45 295.11 773.87 294.95 777.64 293.44 778.05 294.48 781.59 293.75 783.6 292.92 783.92 291.08 787.96 288.21 792.04 286.27 794 283.95 796.98 282.81 799 283.6 798.53 286.25 795.14 289.21 791.19 291.21 789.33 292.7 788.17 297.1 789.66 297.66 790.65 299.55 790.56 301.02 789.09 301.08 787.83 299.81 785.41 302.19 785.11 303.89 782.97 308.41 781.63 313.67 781.34 317.2 779.75 323.63 779.67 326.09 777.62 337.15 777 344.26 776.23 347.82 775.66 354.82 774.41 363.83 773.78 372.01 773.44 379.61 774.47 384.42 774.45 385.67 775.68 390.13 777.44 394.84 773.17 394.02 770.36 392.98 767.27 391.25 765.65 389.36 764.12 383.46 763.35 379.37 763.44 378.02 762.28 377.16 760.13 377.49 756.74 376.72 753.09 376.68 748.67 375.8 746.05 376.06 743.49 378.59 743.61 381.11 742.55 381.93 739.68 381.64 737.35 380.16 735.38 379.6 731.99 379.39 730.83 381.04 728.31 382.44 728.52 386.07 726.46 386.61 724.08 388.14 723.06 389.56 720.21 388.15 717.71 388.62 716.55 389.57 712.58 390.08 712.06 391.6 707.06 394.72 704.66 397.31 703.28 397.81 701.75 399.49 698.49 400.76 696.53 402.05 691.42 408.43 689.26 409.5 683.57 409.24 681.72 412.23 679.38 412.07 679.08 413.3 677.64 414.54 673.31 414.12 671.79 413.13 669.92 410.72 669.11 408.16 666.62 404.57 664.35 403.22 662.11 403.74 657.52 403.34 655.88 403.6 651.93 405.84 644.29 409.4 641.25 411.37 636.02 412.63 633.52 413.51 632.59 414.42 631.94 416.57 631.77 419.41 628.29 419 626.13 420.84 626 425.22 624.74 427.51 619.91 431.25 617.46 430.96 612.93 432.31 605.09 433.46 600.95 435.84 599.15 436.76 596.38 434.9 594.78 432.34 504.33 515.82 509.54 523.08 510.27 524.76 509.78 529.29 508.21 533.97 504.07 537.45 501.95 538.68 501.65 542.99 502.86 546.05 498.52 547.26 498.47 548.97 491.76 555.76 487.34 561.65 477.85 569.66 477.4 570.79 475.34 571.51 469.98 571.25 466.82 569.44 466.16 572.09 463.39 572.33 459.78 571.54 457.89 575.45 458.78 577.28 455.7 576.76 455.14 577.51 450.57 577.96 447.06 579.6 445.64 579.46 443.08 580.61 443.11 582.5 440.92 582.23 441.43 585.78 438.25 583.41 436.94 584.07 436.55 582.05 434.07 582.29 431.07 581.91 428.88 582.21 426.31 584.39 424.68 584.83 423.76 587.06 423.54 589.18 418.62 588.57 416.94 589.49 417.67 593.48 414.85 593.78 411.95 595.4 408.6 593.8 405.31 597.49 403.16 598.02 402.74 596.14 399.38 595.88 398.97 597.03 396.46 597.68 395.3 597.29 391.08 598.8 390.39 600.15 387.98 601.78 387.89 604.13 385.86 603.61 383.84 604.48 384.52 606.35 381.5 607.38 384.95 608.39 384.52 610.41 382.04 615.43 382.09 617.26 379.33 616.61 374.54 617.72 373.08 618.8 371.87 618.17 370.63 619.1 371.35 620.79 369.95 623.03 371.08 627.03 369.7 629.09 370.08 630.81 369.03 632.31 373.82 638.87 374.79 645.37 373.53 646.05 373.46 647.77 371.12 649.24 366.98 650.52 366.09 651.85 367.49 653.91 367.52 656 365.75 659.26 365.59 661.09 364.08 662.8 360.86 664.41 358.11 664.95 354.25 666.8 352.01 666.03 347.85 666.99 346.28 667.95 344.1 670.62 340.69 673.13 340.28 674.88 338.28 675.51 337.89 676.94 339.6 678.66 340.21 680.49 342.4 681.82 342.68 683.37 344.04 684.03 348.41 683.61 348.81 684.85 345.96 688.63 342.86 689.35 341.16 693.58 340.45 696.32 335.36 700.51 332.64 703.68 331 703.14 328.73 700.74 326.09 700.33 325.41 699.36 322.89 698.78 321.26 699.56 320.12 704.36 315.91 704.93 314.19 707.79 313.36 707.43 313.24 704.76 312.23 702.39 309.74 702.52 308.46 703.64 306.53 703.47 304.65 702.37 302.26 702.03 301.27 702.6 301.05 704.49 301.53 706.62 300.63 709.43 301.03 710.36 298.79 714.01 300.94 714.86 303.49 716.48 303.76 717.82 305.25 718.81 303.74 721.02 302 720.62 301.04 721.46 297.7 721.18 296.61 722.45 294.82 725.85 294.89 728.15 295.98 730.3 295.94 735.42 297.39 737.57 297.71 739.64 296.23 741.38 296.1 742.84 297.16 746.22 297.18 749.17 295.37 751.66 297.21 754.76 297.38 756.36 295.31 759.51 295.67 762.95 296.94 764.41 299.94 771.16 299.38 776.22 296.53 777.79 295.94 781.23 293.83 784.86 289.42 783.68 285.8 785.86 283.18 789.44 281 790.96 280.52 792.39 278.91 794.08 276.04 798.47 276 800.75 278.14 804.73 278.28 806.26 276.66 807.23 275.68 810.45 273.85 813.14 273.53 814.57 274.16 819.65 274.61 820.99 273 824.84 274.1 828.04 274.31 831.73 270.03 831.54 268.93 832.04 264.14 836.35 260.12 837 258.41 836.84 256.74 836.18 253.95 836.21 251.57 833.93 250.64 831.45 248.46 830.26 245.96 828.2 241.98 829.15 239.63 828.88 232.47 825.3 229.95 825.62 228.22 825.2 223.27 821.48 222.2 819.67 220.31 818.54 214.92 818.52 212.72 817.39 209.44 816.32 206.88 816.16 202.64 814.55 201.02 813.23 199.86 811.15 199.17 804.78 197.67 802.91 194.48 801.01 192.61 799.45 192.32 798.41 190.17 797.73 187.63 796.26 184.97 797.42 181.12 797.01 178.56 795.87 176.79 794.42 172.93 792.94 173.65 789.79 175.07 787.65 175.03 784.86 172.81 780.51 169.68 778.45 166.18 775.45 163.99 774.02 160.53 769.86 157.32 767.18 152.81 763.9 149.07 764.21 146.22 763.7 143.46 762.1 138.58 762.98 132.87 763.42 127.29 762.37 125.61 761.4 123.56 761.17 121.64 761.77 114.65 761.17 112.1 763.82 107.3 764.71 107.06 758.14 105.27 756.04 103.87 753.07 102.74 751.82 98.5 749.85 96.85 748.74 93.59 745.19 84.6 743.21 81.52 742.15 79 737.39 78.19 733.64 76.34 729.28 72.84 724.8 72.14 720.33 69.28 716.73 65.86 714.27 64.35 710.54 63.23 708.9 60.1 706.58 59.95 703.2 56.18 702.2 55.73 700.24 52.88 698.67 51.96 697.28 51.36 694.36 46.86 692.3 46.25 691.27 46.61 687.46 47.18 685.33 45.46 682.67 44.08 672.7 41.39 671.54 37.26 672.12 34.28 668.5 32.48 668.66 30.72 667.53 29.48 665.59 26.31 666.01 24.4 664.33 20.87 664.67 21.33 653.47 16.28 649.39 16.33 646.18 19.32 645.41 20.17 640.78 19.95 639.01 20.67 636.47 19.74 634.6 17.53 633.04 17.66 631.75 21.93 630.75 28.38 630.85 34.07 631.96 36.5 631.95 38.77 631.19 39.67 630.19 40.84 625.97 41.94 623.81 44.13 621.57 42.31 620.27 41.55 618.53 41.99 617.44 44.19 616.23 47.61 615.79 48.99 615.14 51.01 612.07 51.99 609.62 51.53 606.94 50.28 605.6 48.32 604.99 46.49 603.74 40.16 601.81 38.74 601.96 38.35 600.28 37.16 598.93 37.89 596.57 36.76 593.82 29.48 592.46 23.62 591.98 21.22 591.29 17.71 589.31 15.65 588.57 14.72 584.75 14.25 576.38 14.27 572.89 12.17 570.47 10.65 569.4 9.22 566.74 6.5 564.69 2.01 562.04 1 560.04 1.19 556.56 2.97 551.11 5.68 547.78 4.7 544.54 7.96 539.93 9.97 537.59 10.9 534.83 12.55 532.03 15.49 525.74 15.35 523.85 17.12 520.49 21.8 516.69 26.31 512.34 30.85 507.48 33.43 504.06 36.36 501.36 39.77 497.2 42.83 496.56 57.39 459.92 83.76 406.36 163.35 415.43 168.36 412.97 171.74 411.78 175.16 411.45 179.27 411.62 185.01 414.22 189.78 415.57 192.06 415.95 194.6 415.47 198.53 416.45 201.09 416.47 204.01 414.98 208.12 415.43 218.64 416.06 221.51 417.09 225.02 415.88 234.62 411.21 237.69 409.29 241.03 408.18 243.65 406.39 245.51 404.49 248.65 399.05 251.5 396.05 256.4 389.93 261.3 384.07 263.59 381.84 266.56 377.82 267.9 376.73 271.15 375.38 276.4 374.21 282.28 374.61 285.48 375.84 293.8 377.33 300.54 377.21 303.04 376.18 308.51 371.14 312.16 366.8 315.77 364.4 321.08 363.99 325.66 362.08 328.8 358.62 336.58 351.19 337.39 350.1 344.68 342.76 348.22 339.69 350.17 337.58 352.7 331.96 353.27 328.82 354.72 323.58 355.73 317.28 347.53 313.18 342.41 310.44 332.64 302.7 320.48 292.77 312.02 286.24 299.15 275.6 298.36 275.63 292.36 270.68 291.17 269.23 281.93 261.74 275.25 254.11 267.14 251.25 268.23 248.04 271.1 244.25 280.35 232.61 293.79 208.5 296.54 204.08 311.88 191.17 313.81 189.37 315.05 189.26 316.5 187.94 318.79 187.3 321.49 185.58 324.07 186.14 325.33 183.11 331.08 177.76 331.54 175.37 331.12 173.71 331.04 169.95 336.58 165.96 339.75 162.84 342.5 159.55 344.71 154.61 345.96 149.49 346.34 145.53 346.06 142.05 344.36 135.43 344.06 128.52 344.31 120.43 345.2 109.48 345.77 100.66 345.9 95.19 345.74 90.77 344.97 82.59 344.42 74.51 344.2 66.44 344.81 63.42 346.66 59.79 349.27 57.79 352.84 56.51 357.12 56.21 361.8 56.52 364.86 57.21 374.78 60.59 378.79 61.73 386.87 63.31 396.05 63.37 400.32 62.76 404.76 61.19 407.89 59.56 414.44 55.06 420.61 49.48 425.71 43.69 428.55 39.62 431.38 33.36 432.89 26.93 434.01 15.66 434.97 11.92 435.83 10.1 438.17 7.03 443.26 3.16 446.86 1.68 450.28 1.09 453.49 1 457.34 1.45 461.96 3.28 467.28 6.42 473.18 10.38 478.11 15 480.82 18.75 485.6 27.41 486.35 29.77 486.62 32.72 486.28 37.71 484.97 47.99 483.96 52.18 481.4 58.08 478.76 62.78 472.45 72.15 465.49 81.75 462.04 87.9 460.74 92.03 460.35 96.05 460.96 100.4 463.32 107.63 465.42 112.34 470.02 120.43 476.56 125.69 480.27 127.93 484.16 129.03 488.11 128.94 494.61 127.97 498.64 126.82 501.85 125.58 505.72 123.57 510.28 120.43 516.57 113.23 518.81 109.91 521.89 104.67 525.94 98.62 528.55 95.51 532.08 92.26 537.18 88.59 542.3 86.03 546.77 84.74 552.26 83.69 557.4 83.13 563.66 83.61 568.51 85.19 571.95 86.9 574.2 88.43 577.91 91.77 580.55 95.2 583.85 100.94 584.51 103.34 584.37 107.19 580.73 117.35 579.8 120.43 575.41 128.69 573.99 132.46 573.64 135.98 573.57 140.28 574.15 143.49 576.06 147.09 580.02 151.47 586.23 156.21 590.64 157.46 596.11 157.69 601.95 157.62 603.63 157.25 607.56 155.6 609.98 153.49 613.18 151.48 619.27 146.95 624.98 143.86 631.21 141.67 637.04 140.43 640.16 140.22 644.09 140.9 650.83 143.64 653.69 145.65 655.87 147.93 657.25 150.15 659.61 155.44 659.88 158.17 658.9 163.09 656.15 166.69 652.13 169.92 647.44 172.95 644.98 174.99 642.46 178.27 641.59 180.52 641.3 183.01 642.65 188.32 645.85 191.98 648.94 194.31 651.93 195.6 657.67 197.22 663.69 198.53 673.67 200.21 677.13 201.39 686.02 205.93 691.8 210.12 697.65 215.64 703.29 222.42 706.42 226.74 708.57 229.26 713.08 233.42 717.83 236.7 721.83 238.48 728.54 240.59 732.37 242.04 Z"/>
</g>
</svg>