<?xml version="1.0"?>
<svg xmlns="http://www.w3.org/2000/svg" version="1.2" baseProfile="tiny" width="800" height="933" viewBox="0 0 800 933" stroke-linecap="round" stroke-linejoin="round">
<g id="4208104">
<path d="M 616.89 404.77 618.32 406.7 620.12 408.8 619.94 409.44 618.87 410.33 617.31 410.81 616.57 410.2 615.63 410.27 615 410.98 615.21 412.52 615.22 414.82 615.04 416.01 615.62 419.09 617.36 418.95 618.51 419.1 618.01 421.36 618.7 422.36 619.61 424.35 620.69 426.08 621.51 426.65 621.25 427.31 621.81 428.07 622.29 429.43 622.45 430.82 622.25 431.79 622.58 432.71 622.36 434.62 623.2 435.59 623.53 437.69 622.86 438.19 622.43 439.18 622.64 440.16 622.48 441.76 621.8 443.69 622.04 444.35 623.68 443.7 624.16 444.41 623.56 445.48 623.63 446.95 624.81 448.07 626.11 447.84 626.3 448.84 629.16 449.48 632.04 450.66 632.74 451.85 632.95 452.78 632.51 455.13 632.89 456.27 634.43 456.59 634.87 457.4 635.7 457.75 638.48 460.2 641.78 462.47 642.14 463.99 643.58 464.56 645.24 465.98 645.41 467.5 646.45 468.64 647.98 469.92 648.78 471.46 649.95 474.59 649.19 474.89 649.48 476.48 651.83 478.95 652.33 480.92 652.21 482.32 653.81 483.09 654.72 482.92 655.73 482.3 657.23 483.25 657.56 484.23 658.46 485.1 658.38 485.91 657.69 487.05 659.93 489.34 660.66 491.06 660.48 492.79 659.64 493.98 659.93 495.52 660.9 497.14 660.82 498.25 660.11 499.85 659.93 502.31 660.59 504.48 660.75 505.72 661.64 506.67 661.57 508.05 661.79 510.2 662.46 512.85 662.45 513.84 661.75 515.45 661.5 517.1 661.45 520.53 662.66 520.9 662.86 521.61 662.63 522.6 661.24 524.93 661.25 525.26 662.48 526.9 662.41 529.21 662.62 532.66 662.62 534.68 663.85 537.11 665.53 538.82 666.71 539.51 667.67 540.98 669.36 542.8 671.85 544.15 672.74 545.47 673.02 546.3 675.66 549.47 676.79 551.57 677.96 551.57 677.9 550.54 679.41 550.85 681.13 551.97 682.75 552.72 683.61 552.23 684.21 551.21 685.55 550.98 686.06 551.45 686.67 552.94 687.65 554.37 689.81 555.62 691.43 555.71 691.42 558.18 692.11 560.58 693.32 561.2 694.53 562.54 695.83 563.67 697.13 563.62 699.02 564.31 699.88 565.12 700.21 567.89 700.59 568.85 702.59 570.32 704.44 571.33 707.34 573.32 711.4 572.83 712.96 571.1 715.56 570.33 717.58 567.38 718.33 568.18 718.8 569.33 719.97 570.73 721.71 572.23 723.37 573.11 725.23 573.51 726.34 573.48 727.84 573.84 729 574.76 730.25 576.83 730.76 576.91 730.87 580.06 730.19 581.63 730.92 583.06 731.4 585.09 731.26 586.64 732.44 588.27 733.5 589.16 733.34 590.37 734.27 591.89 734.84 593.52 735.41 594.19 735.72 595.66 736.39 596.43 737.82 596.34 739.14 597.48 741.38 597.35 741.19 599.12 740.05 599.31 739.58 598.82 738.68 599.56 739.82 600.67 739.5 602.22 739.68 603.11 740.31 603.64 740.12 605.34 741.28 605.68 740.6 606.45 741.7 608.14 742.39 610.12 741.61 611.49 742.46 612.51 741.36 613.87 740.43 614.64 740.12 617.02 741.02 618.44 740.42 619.13 740.16 620.14 739.29 621.36 740.05 623.01 739.87 623.77 738.05 624.15 737.38 625.28 737.44 625.94 738.4 627.05 738.77 627.96 738.4 628.52 739.14 629.35 740.01 629.4 739.79 630.37 741.43 630.41 740.56 631.52 740.78 633.4 740.44 634.12 740.43 636.12 741.45 636.59 742.56 636.75 742.59 637.82 741.63 639.27 742.6 640.39 742.69 641.61 742.25 643.35 741.54 644.91 742.19 645.94 741.6 647.07 742.57 647.07 743.36 647.72 743.12 648.73 742.4 649.27 744.4 651.49 744.23 653.42 745.29 653.83 745.93 655.74 747.27 656.69 749.09 654.99 749.56 655.9 748.56 657.06 748.5 657.71 749.98 657.36 751.28 658.15 751.65 659.48 753.03 658.49 754.99 658.43 756.65 659.14 757.13 659.99 757.84 660.28 759.28 660.31 758.67 661.03 758.39 663.13 756.12 663.12 755.51 664.17 755.86 665.84 753.81 666.59 753.27 667.17 752.05 667.79 748.54 668.6 748.4 669.62 749.65 669.98 749.49 670.92 747.68 671.13 744.62 668.2 743.45 666.83 743.51 666.4 742.61 665.4 741.79 665.5 740.62 667.27 739.57 669.97 739.54 671.66 738.79 672.09 736.86 672.21 735.47 673.63 735.04 673.75 734.11 675.22 732.07 676.32 731.38 676.15 730.23 675.07 729.53 675.07 727.87 676.96 725.66 678.48 725.15 679.37 726.79 680.03 726.24 680.93 726.49 681.74 724.42 682.53 723.62 681.99 723.02 682.19 721.98 681.58 720.98 679.83 719.42 679.55 717.67 680.88 717.66 682.58 718.79 684.82 718.38 685.79 717.55 686.83 717.39 687.74 716.5 688.32 716.38 690.01 714.82 692.61 714.95 694.18 714.37 694.45 714.48 696.84 713.03 697.86 712.07 697.65 711.65 698.33 710.33 699 710.15 700.06 710.73 700.38 709.42 701.11 707.87 701.14 706.56 700.62 705.81 701.43 705.51 702.33 705.18 704.52 705.43 707.86 706.04 712.96 706.28 714.27 707.25 716.46 706.8 716.56 707.57 717.93 707.42 719.52 708.88 722.67 709.48 725.41 708.05 726.08 707.04 726.85 707.06 728.4 708.82 730.18 709.62 731.31 709.92 732.2 709.68 733.49 709.98 734.35 711.46 736.42 712.94 737.72 714.93 739.1 715.94 740.7 715.62 741.75 716.39 741.73 717.07 742.52 718.36 743.3 719.34 743.46 720.8 745.11 719.77 745.78 719.27 747.27 720.3 748.07 724.23 750.44 724.61 750.99 724.49 753.82 725.84 754.62 727.96 754.43 728.56 756.61 727.97 758.51 728.03 759.16 728.74 760.5 728.86 761.6 728.56 763.14 727.68 764.61 727.67 765.21 728.47 767 729.58 767.85 732.85 771.11 735.3 771.65 736.12 772.98 739.11 773.86 739.21 774.85 740.06 774.63 742.3 776.21 742.88 776.4 745.37 776.14 747.38 776.54 748.45 777 749.7 776.82 751.15 776.92 753.21 777.68 754.77 777.34 756.28 778.22 757.09 778.21 759.01 777.69 760.58 777.94 760.96 776.87 762.52 776.73 762.68 775.97 764.94 775.18 764.69 774.07 767.05 773.91 767.45 772.13 769.88 770.55 774.41 769.63 775.62 769.01 776.1 768.13 778.23 768.59 780.88 768.31 782.3 769.68 783.74 770.12 785.7 770.31 785.99 771.07 787.02 771.72 788.14 772.09 789.48 772.97 793.1 774.56 796.7 776.36 799 777.08 798.49 777.74 796.74 778.68 795.63 778.74 793.95 778.26 790.82 777.81 789.47 778.22 788.2 777.1 786.87 776.69 786.1 776.86 785.04 777.88 784.06 778.27 782.22 778.58 781.48 778.11 780.84 776.92 779.63 776.3 777.32 776.13 775.62 776.56 774.16 777.43 773.21 778.33 771.95 780.73 771.27 781.32 770.77 783.08 768.87 785.72 768.36 787.42 767.56 787.69 767.12 788.89 766.47 789.42 765.35 789.64 764.02 789.57 763.04 789.23 762.04 788.2 760.96 787.98 760.23 788.18 758.51 789.79 757.4 790.36 754.61 791.07 752.69 792.56 751.27 792.57 750.34 793.24 749.1 792.51 744.01 793.09 742.43 793.86 741.58 793.87 739.05 793.48 737.35 793.6 736.86 792.99 737 791.78 736.66 790.84 735.03 788.83 734.76 788.05 733.64 786.26 732.29 785.25 731.27 785.34 730.45 786.71 729.33 787.17 726.82 789.35 724.78 790.66 724.27 791.55 723.23 792.49 721.52 792.83 719.63 793.87 718.46 794.03 717.52 795.22 716.3 795.15 715.41 796.2 714.35 797.94 713.49 798.66 712.96 800.58 711.49 802.1 711.24 804.08 710.56 805.71 710.73 807.59 709.97 809.62 709.77 811.28 708.7 812.17 708.06 813.17 707.93 814.04 706.53 815.61 706.59 816.76 705.87 817.2 704.57 817.4 703.34 818.25 701.96 818.67 702.33 821.09 701.85 821.79 700.45 821.77 699.78 821.11 695.52 822.07 694.51 822.66 692.84 823.23 692.45 823.77 691.45 824.18 689.19 823.86 688.91 826.2 688.34 826.52 686.4 826.23 685.87 827.12 686.03 827.96 685.21 828.86 685.35 830.01 684.9 830.73 686.01 832.33 685.23 833.86 683.77 835.55 683.65 836.63 682.37 837.13 681.29 838.5 680.88 840.37 681.25 843.21 679.6 843.64 680.1 844.24 680.47 849.52 679.57 850.85 679.41 853.77 678.71 854.06 677.79 855.88 676.22 857.75 675.91 858.65 675.29 858.82 674.77 860.27 674.85 861.37 673.94 861.73 673.73 863.17 672.33 865.4 671.06 866 671.7 868.11 671.01 868.91 671.63 869.52 672.02 870.9 671.82 871.97 672.39 872.18 672.67 873.34 673.69 873.48 673.23 875.17 673.88 876.02 673.63 876.67 673.89 878.59 674.74 879.09 674.12 880.6 674.51 881.31 675.46 881.25 675.51 884.2 673.71 884.93 673.85 886.7 673.51 887.14 673.35 888.52 673.98 889.14 674.17 890.62 672.01 893.51 672.19 894.15 673.22 894.77 673.06 895.59 671.86 896.31 671.22 898.53 669.71 898.87 667.75 900.51 668 902.17 667.74 904.1 667.34 905.23 666.37 906.73 665.66 908.33 665.24 909.85 662.34 911.97 659.98 913.2 657.23 914.47 656.1 915.29 655.27 916.43 655.19 917.57 654.4 920.27 651.85 924.13 649.99 926.4 648.14 929.03 644.63 930.76 641.88 931.78 639.3 932 637.24 931.96 635.32 931.66 634.11 931.2 633.63 927.52 633.24 925.72 631.94 922.57 631.03 920.95 628.9 918.39 626.57 916.72 625.11 915.99 621.64 915.06 617 913.32 614.14 913.12 611.17 913.93 609.95 914.1 608.38 914.01 605.16 913.3 603 913.12 598.99 913.04 597.47 912.5 596.51 910.82 596.41 909.83 597.52 907.43 598.71 905.84 599.2 904.46 599.18 901.9 598.86 900.48 597.42 897.88 596.5 896.74 594.93 895.35 593.69 893.83 593.2 892.83 592.67 890.98 591.64 888.44 591.17 887.63 589.38 882.98 586.95 879.83 586.15 878.62 583.23 875.85 581.53 874.41 580.21 873.64 577.23 872.82 575.71 872.69 572.73 873.07 569.95 873.01 566.68 872.34 564.03 871.51 562.99 870.57 561.87 868.05 561.58 864.99 561.67 862.56 561.43 859.33 560.95 856.93 560.22 854.48 558.62 852.05 554.21 847.31 552.79 845.46 551.67 844.42 547.75 839.83 545.62 837.51 544.32 835.55 542.62 832.02 542.27 829.79 542.3 828.85 541.87 826.87 541.79 825.31 541.45 823.48 540.5 821.08 538.91 817.86 536.78 814.07 535.71 811.82 533.22 809.17 531.94 808.65 527.08 807.1 523.78 805.65 521.37 804.38 519.72 803.74 517.07 802.95 512.15 802.02 510.41 801.76 508.47 801.75 507.3 802.06 505.02 801.59 503.77 800.79 502.64 798.83 501.88 797.31 500.53 793.83 500.19 792.66 498.82 789.86 497.99 787.37 494.32 781.51 493.17 780.05 486.9 775.1 485.11 773.13 484.49 771.6 484.23 769.75 484.37 767.13 485.12 762.4 486 757.94 486.37 755.64 487.24 751.38 487.05 749.26 486.27 747.81 485.1 746.58 482.38 744.99 481.12 744.51 478.51 744.19 476.15 744.09 473.38 743.65 471.88 742.9 471.37 742.27 471.12 739.72 472.28 736.08 472.53 734.7 472.26 732.9 471.56 731.45 470.07 729.83 467.69 727.77 464.73 724.5 463.07 722.85 461.3 721.87 460.77 721.24 460.24 718.73 459.5 716.83 459.94 715.57 459.71 714.33 458.81 712.48 457.15 710.34 456.07 709.68 451.88 708.26 450.84 708.63 449.53 708.62 448.08 708.9 446.61 708.63 444.38 707.57 443.18 706 441.78 705.96 439.97 706.34 436.97 707.47 434.57 708.64 432.97 709.18 430.1 709.68 429.2 709.68 427.32 708.16 424.93 704.52 424.03 702.85 423 701.68 422.29 701.23 419.98 700.46 417.4 700.08 414.05 698.61 413.75 697.98 414.08 696.41 415.18 694.46 414.99 693.37 412.28 691.21 411.57 690.1 411.58 689.3 412.24 687.8 413.09 684.12 414.25 680.26 414.98 678.9 416.27 675.23 417.68 672.38 417.88 670.89 417.54 667.65 417.08 666.26 415.28 663.81 414.02 661.57 413.92 660.43 414.24 659.46 414.04 657.99 414.27 655.15 414.12 653.27 412.33 651.62 408.89 650.4 407.68 649.47 407.08 647.93 407.06 645.94 406.72 644.87 405.65 643.15 404.15 641.49 402.43 640.44 401.55 639.7 399.51 637.05 398.37 636.11 397.16 635.46 393.82 634.94 392.45 634.46 391.08 633.47 389.79 631.74 389.73 630.78 390.67 627.64 390.42 626.28 389.51 624.98 387.98 623.5 385.27 622.7 383.16 622.66 379.48 624.2 374.34 624.94 373.38 624.85 371.17 623.91 369.67 623.46 367.82 623.57 366.37 624.32 365.76 624.3 364.87 623.59 364.82 622.07 366.25 619.06 368.51 615.94 368.4 615.31 367.51 614.29 366.75 612.59 366.74 611.54 367.11 609.18 366.9 607.29 365.74 605.08 365.05 603.12 363.7 600.69 362.39 599.01 361.28 595.87 360.12 594.67 357.57 593.21 356 592.64 352.99 592.07 351.25 591.04 350.48 590.2 349.46 587.45 348.05 585.99 347.38 585.66 344.09 584.82 343.45 584.5 341.5 582.72 339.31 581.18 338.44 580.81 335.24 580.62 334.76 579.98 334.31 577.91 333.18 576.02 331.35 575.38 330.4 574.79 329.73 573.91 328.68 573.81 326.22 574.76 323.22 575.02 321.09 576.32 320.07 576.5 318.67 575.75 316.15 574.92 314.6 574.87 311.03 577 309.49 577.8 308.11 577.22 307.72 576.26 307.36 573.16 306.32 571.24 304.66 570.43 302.13 570.58 300.89 571.2 298.83 571.53 297.63 571.99 296.4 572.1 295.18 571.47 294.4 570.73 291.61 568.93 290.57 567.64 290.35 565.96 289.46 564.23 289 561.04 289.63 559.91 290.77 559.13 291.77 558.96 292.46 558.23 292.63 557.37 291.66 555.94 290.12 554.48 288.71 553.38 286.59 550.67 285.82 549.46 285.78 547.63 286.24 546.23 286.02 545.57 283.75 543.73 283.61 542.51 283.84 541.89 285.29 540.26 286.98 539.02 288.94 537.88 289.6 536.76 289.5 534.97 288.63 532.84 288.66 530.69 289.4 530.54 290.16 529.8 289.83 528.53 288.16 527.67 283.53 527.32 281.99 528.14 280.09 528.04 277.69 525.68 276.57 523.72 275.79 521.51 274.64 520.14 273.27 519.62 272.25 517.55 272.27 516.67 272.83 515.51 272.25 514.29 271.02 513.59 269.43 513.45 268.71 513.08 267.9 512.09 267.97 510.28 268.34 509.81 267.68 508.61 265.39 507.07 263.02 506.45 262.2 505.93 261.74 505.07 261.49 503.71 262.18 501.68 263.6 499.8 264.77 498.65 264.79 497.53 263.59 496.3 262.32 495.5 260.87 495.22 256.24 493.19 255.76 492.73 255.1 491.11 254.15 490.25 252.75 490.02 249.89 490.21 247.08 490.14 245.9 489.62 243.81 486.58 243.67 483.08 244.06 481.77 244.58 481.06 244.35 479.95 243.72 479.05 241.71 477.42 240.41 476.85 237.66 476.54 235.32 474.12 232.28 472.78 230.89 471.1 230.43 470.23 229.49 469.32 227.54 468.26 226.04 466.25 225.27 464.52 224.47 463.17 223.17 462.36 219.99 461.93 216.48 462.14 214.74 462.41 213.03 461.7 212.08 460.83 211.11 460.37 206.15 459.53 204.36 459.92 202.1 459.73 201.27 460.37 197.6 461.33 196.18 461.4 195.27 461.03 193.39 460.66 190.68 459.49 188.15 459.37 187.7 458.6 187.41 457.15 186.86 456.81 185.52 456.86 183.06 457.76 179.11 460.68 177.73 462.33 175.87 465.3 174.75 466.83 173.29 467.91 172.28 469.52 171.03 471.02 169.61 472.16 168.75 474.7 168.45 476.39 167.65 477.21 167.42 478.55 166.7 479.84 164.35 481.97 163.09 483.46 162.79 484.25 161.99 484.99 159.64 485.31 155.43 485.04 153.58 484.83 151.45 484.97 150.25 485.24 147.88 486.17 145.39 487.59 143.03 488.53 141.13 488.67 138.91 488.13 133.95 485.74 130 485.78 127.13 486.24 124.26 487.08 121.63 488.83 120.19 489.55 117.33 489.64 115.11 488.97 113.73 488.92 110.33 489.35 108.01 488.64 106.6 487.78 105.2 486.25 104.13 485.63 102.96 485.7 100.15 486.8 96.35 489.01 95.1 489.56 93.03 489.73 90.94 489.55 89.42 489.62 88.31 490.19 86.2 492.14 85.07 494.25 83.45 495.86 82.25 496.46 79.67 496.58 78.53 496.3 75.91 496.28 72.92 496.78 68.47 496.3 67.5 496.04 64.79 494.56 62.39 493.07 62.61 491.79 61.99 491.18 60.32 491.2 59.99 490.23 61.1 489.1 61.02 486.26 60.28 486.3 59.42 487.29 57.72 487.12 57.46 486.6 58.66 485.92 58.73 485.38 57.83 484.3 57.86 483.69 58.84 482.4 59.93 481.68 60.34 481.07 59.95 480.55 58.47 481.01 57.8 480.23 58.64 478.8 58.73 477.77 59.76 476.68 61.76 475.72 62.8 474.54 62.67 473.98 60.57 473.04 60.39 471.98 61.67 471.47 63.88 472.29 64.51 471.77 64.57 469.82 66.56 468.94 67.71 465.53 68.8 464.87 70.11 465.57 70.61 465 70.73 464 71.33 462.62 72.71 461.59 72.19 460.34 72.6 458.96 72.79 456.85 71.07 455.62 70.18 452.98 69.3 453.18 68.86 452.67 68.04 450.34 69.73 448.26 70.14 447.19 71.48 445.71 70.41 444.02 70.49 443.55 71.68 442.61 71.38 441.94 71.72 441.28 71.44 440.01 70.66 439.7 70.5 438.59 69.23 438.24 70.21 436.56 69.69 434.35 71.09 433.57 71.22 431.89 70.46 429.72 70.95 427.08 70.8 424.06 72.17 422.8 73.35 420.84 73.54 419.46 74.47 418.83 76.43 417.93 76.77 415.49 75.52 415.17 76.02 413.1 75.75 410.63 74.99 408.87 74.76 406.27 75.12 405.83 76.92 405.64 77.73 405.29 78.27 404.27 80.57 401.98 83.48 399.93 84.49 399.02 85.78 397.32 86.19 396.28 85.87 395.01 86.67 392.34 87.44 391.16 88.05 389.06 87.31 388.23 87.09 385.58 87.15 384.29 88.12 383.84 88.31 382.26 88.91 380.98 88.84 380.15 90.23 378.25 90.85 377.02 91.39 376.77 92.89 374.9 93.5 374.72 94.43 373.03 95.57 372.34 95.85 371.66 97.15 370.64 97.53 368.98 96.87 366.53 96.9 365.24 93.63 361.89 92.54 360.25 90.02 358.35 89.03 357.84 88.15 356.61 88.23 355.39 88.11 352.22 88.19 351.21 88.8 349.01 88.92 346.11 88.72 345.26 87.68 343.48 87.23 341.77 88.87 339.39 91.07 338.66 91.68 337.88 92.21 336.54 93.26 335.1 93.42 334.39 92.36 333.21 93.16 332.26 93.4 330.93 92.22 330.3 91.45 329.03 90.76 327.42 90.11 327.25 89.24 325.38 88.88 323.15 89.77 322.18 90.83 321.82 90.67 319.95 91.11 319.65 90.8 318.27 91.21 317.44 91.49 315.78 91.41 314.84 92.09 312.16 92.59 311.79 93.16 309.45 93.18 308.27 92.71 307.44 94.06 306.52 94.45 305.43 94.54 304.16 93.75 303.37 93.75 299.82 93.05 298.93 92.76 297.03 92.37 296.41 91.94 294.17 92.18 293.38 91.06 291.02 87.35 287.84 86.37 286.83 85 286.13 85.48 285.17 85.16 284.12 85.16 282.75 84.57 282.02 83.32 281.61 83.54 280.57 82.76 278.82 80.85 277.41 78.8 276.44 77.21 276.54 76.52 275.77 75.1 275.39 73.91 272.37 73.89 271.67 75.05 269.13 76.43 268.67 77.74 267.47 77.77 266.02 75.25 265.04 74.14 264.28 72.32 264.09 70.56 263.36 67.3 262.82 66.28 262.29 66.2 261.56 67.06 260.7 67.63 259.39 67.47 258.15 68.08 256.94 68.07 255.41 67.52 253.92 67.85 252.46 66.25 250.81 65.4 248.77 65.39 246.66 65.75 245.49 66.22 242.07 66.71 240.76 65.99 238.5 65.73 236.32 65.99 235.08 66.71 233.17 68 231.63 67.46 230.33 68.67 229.54 71.6 229.97 73.52 229.93 73.99 228.92 74.4 226.24 74.37 222.86 72.83 221.3 72.68 219.71 71.04 217.18 70.57 215.72 68.49 214.34 67.73 213.13 65.74 211.26 65.55 209.68 63.61 209.97 63.42 208.7 62.23 207.88 60.76 207.62 60.29 205.05 60.05 204.61 57.85 204.51 57.01 203.97 56.97 203.16 58.19 203.02 57.92 202.44 56.65 201.82 55.39 202.35 53.28 202.38 53.2 201.66 54.12 200.53 53.64 199.43 53.12 199 51.17 198.67 49.84 199.95 49.48 199.73 49.82 196.91 49.04 196.44 47.71 196.48 47.64 195.59 46.41 195.63 44.78 196.57 44.5 197.34 44.12 201.08 43.12 199.81 42.29 199.59 41.74 200.22 41.23 202.8 41.38 204.24 40.62 205.37 38.57 205.81 38.72 206.76 38.23 207.45 37.27 207.15 36.17 208.1 35.5 206.97 35.36 205.24 32.97 204.83 32.18 205.19 31.93 206.14 31.05 206.56 30.21 207.48 28.63 206.19 27.68 205.75 27.45 204.71 27.72 203.6 27.73 200.62 28.05 199.58 29.66 198.77 28.36 198.14 28.43 196.33 27.64 195.01 26.41 195.18 25.5 195.81 25.16 193.19 25.58 192.5 25.65 191.48 25.19 190.99 25.76 189.96 24.75 189.72 24.96 188.24 26.36 185.86 26.46 184.28 27.42 184.47 27.6 183.61 26.07 182.43 24.89 182.04 25.92 181.3 22.24 179.77 21.54 179.76 20.42 180.43 19.02 180.58 18.62 179.99 19.23 179.32 20.03 179.64 20.98 178.82 20.59 177.58 20.37 175.7 18.85 173.79 18.79 172.88 19.22 171.84 20.47 171.42 18.69 169.4 18.16 168.43 18.04 167 18.88 166.28 15.77 163.14 13.92 162.83 11.55 163.31 10.13 163.86 9.12 163.49 9.09 162.72 9.7 161.57 9.08 161.38 7.55 159.57 8.36 158 9.32 156.57 9.43 155.26 8.88 155.06 7.83 155.47 7.9 153.44 8.64 150.64 9.34 149.25 8.53 148.22 8.48 147.29 9.23 145.26 9.24 143.84 9.87 143.21 11.53 142.67 12.44 141.57 12.62 140.94 11.91 140.02 14.25 137.38 15.74 136.63 16.13 135.91 17.3 135.99 17.03 135.27 16.25 134.81 16.5 134.14 18.04 134.91 19.01 134.33 18.96 135.79 19.92 135.38 20.06 134.31 19.46 131.81 19.77 130.5 18.97 129.81 19.68 128.23 18.6 126.34 17.45 126.08 16.59 125.36 15.34 125.37 15.53 126.21 14.96 126.77 14.4 125.47 14.55 122.8 12.66 122.68 12.1 122.29 12.68 121.47 14 121.73 15.02 121.37 15.01 120.8 13.76 120.08 13.54 119.27 12.34 119.21 11.75 118.52 11.76 117.43 10.04 117.51 8.59 117.28 7.18 117.32 5.61 114.82 5.35 114.03 6.7 111.86 7.26 112.75 8.09 112.26 8.09 111.64 6.92 109.75 6.54 110.77 4.6 110.44 4.06 111.61 3.5 110.44 2.34 109.45 2.85 108.01 2.34 107.92 1.71 109.02 1 108.41 2.15 106.96 2.18 106.17 1.68 105.41 2.39 104.03 3.03 103.81 2.87 102.97 3.79 102.64 4.33 101.31 6.94 98.95 8.4 97.85 10.1 98.42 11.03 98.31 11.43 97.23 11.59 95.68 10.58 91.96 10.13 89.76 10.79 89.44 13.35 90.85 15.13 91.36 17.3 91.3 17.72 91.61 18.56 93.07 21.04 95.51 21.75 96.62 22.46 96.95 23.53 98.53 23.83 99.71 24.39 100.55 25.82 100.49 27.15 99.43 27.53 98.52 27.9 96.26 27.68 93.61 27.09 93.18 26.3 91.86 26.27 90.53 26.52 89.73 27.61 88.94 28.09 89.78 29.68 90.39 30.88 89.36 34.78 87.28 36.17 87.27 38.53 88.5 38.85 90.66 39.78 91.97 40.34 92.16 42.55 91.82 43.18 91.4 43.6 90.01 43.67 87.1 43.52 85.76 43.04 84.9 43 83.84 43.35 83.22 44.15 82.92 46.31 83.69 47.3 83.69 46.94 81.93 47.22 81.46 49.2 82.15 49.94 81.9 50.1 80.66 51.32 80.47 52.71 79.9 53.48 79.85 55.63 78.89 56.41 78.84 60.05 79.75 59.9 80.84 60.52 81.23 60.8 82.36 61.6 82.63 62.01 81.21 61.44 79.88 60.79 77.21 60.39 76.55 60.5 75.7 61.15 75.01 62.08 74.73 64.2 74.84 64.18 73.89 64.94 73 65.61 71.61 66.18 71.13 66.11 69.76 66.79 69.32 67.55 69.61 68.54 70.78 69.83 71.39 70.98 71.58 71.77 71.4 72.36 70.78 73.54 71.33 74.84 70.45 76.99 70.98 77.86 71.85 79.12 72.31 80.7 73.47 82.47 74.17 83.52 75 84.47 77.26 85.34 78.14 87.21 79.12 88.55 80.54 89.78 80.72 90.89 80.31 91.55 80.49 92.35 81.6 92.15 83.09 92.19 84.81 93.33 85.2 94.27 86.48 94.04 87.55 95.32 88.31 96.77 87.88 98.95 87.7 101.37 85.99 102.44 86.04 103.2 86.97 102.79 88.14 103.29 88.92 104.61 88.42 105.31 87.29 105.17 85.03 105.45 84.12 106.78 83.85 107.93 84.54 108.33 84.18 107.53 82.5 107.53 81.47 108.01 79.66 109.26 78.74 109.91 77.54 109.65 76.2 110.75 74.86 113.31 76.05 114.21 76.23 115.55 75.77 116.52 73.93 117.61 72.86 118.61 72.81 120.01 73.7 121.59 74.18 122.71 73.56 123.7 73.51 126.11 74.46 126.92 74.51 130.95 72.13 131.49 71.69 133.34 70.96 135.01 71 136.21 71.78 136.9 71.68 136.97 70.47 137.5 69.09 138.73 67.97 139.68 67.94 141.04 68.29 141.95 67.96 143.3 66.89 145.74 65.48 148.88 64.58 149.34 61.94 149.24 60.8 148.28 59.05 148.31 57.58 150.03 57.03 150.93 56.23 151.75 55.95 152.18 56.93 151.83 58.55 152.26 59.37 153.33 60.08 154.65 60.17 157.06 62.32 157.77 63.13 159.39 63.63 160.65 64.63 162.5 64.92 164.81 63.07 167.1 62.23 168.4 61.51 169.07 61.59 171.26 64.15 172.18 64.05 172.89 62.37 173.77 60.92 175.38 60.87 176.38 61.77 178.58 60.26 179.65 60.07 180.49 59.09 183 60.19 183.78 59.94 185.47 57.68 186.33 57.99 189.42 60.96 190.56 61.65 191.92 62.08 192.98 62.9 194.31 65.18 195.69 65.19 196.84 65.87 199.53 68 201.14 68.73 201.83 70.41 202.68 70.56 203.68 69.39 206.58 69.5 207.18 70.98 207.64 72.71 207.64 73.76 209.18 75.84 210.76 76.4 211.99 77.16 213.27 78.76 214.22 79.25 214.45 80.05 214.06 80.9 214.02 82.63 214.85 83.46 216.09 83.41 218.24 82.8 219.25 82.14 220.62 81.71 221.38 81.1 223.18 81.2 224.74 80.5 226.35 80.58 227.04 80.33 229.41 80.44 230.76 80.21 231.97 77.61 233.12 77.06 235.04 77.17 235.79 76.83 238.17 76.97 239.89 78.83 240.71 79.05 242.93 78.72 243.81 79.46 245.68 80.37 248.14 80.69 248.92 80.07 250.08 79.79 260.6 65.63 263.52 64.56 264.26 64.73 264.68 64.05 265.41 63.94 266.31 63.23 267.78 61.01 269.66 59.63 269.9 58.94 271.49 56.83 271.61 55.95 273.38 54.08 273.83 52.92 276.22 51.53 277.55 50.2 278.59 49.7 279.51 48.27 280.18 48.21 280.67 47.52 280.46 46.59 279.36 46.05 279.93 45.37 282.87 45.39 284.58 44.79 286.11 44.85 287.3 43.85 288.96 44.13 289.94 43.9 291.42 43.96 292.58 43.26 295.78 43.04 297.13 42.7 299.17 42.71 300.49 41.98 303.69 40.99 307.59 40.67 324.13 38.83 325.53 38.69 327 38.05 328.38 36.72 329.17 36.25 332.94 35.18 334.03 35.03 334.83 34.51 337.41 33.8 340.42 32.14 341.55 31.13 343.71 30.73 344.66 30 346.58 29 347.52 28.28 348.89 27.83 350.27 28.15 352.46 28.25 355.72 27.49 357.09 27.59 359.16 28.2 364.11 28.3 365.31 28.53 366.81 28.14 367.55 27.49 369.28 27.98 370.24 27.5 370.17 25.98 369.02 24.34 368.82 22.45 370.47 21.45 371.32 20.6 371.84 19.64 372.95 15.83 374.47 13.21 374.63 11.7 375.46 11.97 376.24 11.48 377.34 9.58 377.41 8.88 379.89 6.81 380.59 5.36 383.48 2.24 384.48 1 386.19 2 386.85 3.05 386.51 4.61 387.55 5.79 388.27 7.23 389.57 8.39 390.85 8.96 392.05 9.99 393.6 12.14 394.28 15.11 394.93 15.83 395.33 16.85 395.78 20.04 396.62 20.75 397.64 23.04 397.9 24.13 399.13 25.33 399.25 26.13 400.32 28.17 427.45 34.58 427.72 34.13 430.46 32.87 433.22 32.14 435.86 31.11 436.7 31 438.41 30.35 439.83 30.8 441.6 30.01 443.25 28.87 444.72 29.61 445.55 28.4 448.89 26.61 450.82 23.84 451.01 23.01 452.23 22.29 453.49 21.24 454.93 20.93 456.1 21.07 457.79 19.04 458.21 17.61 458.84 16.64 460.42 15.23 462.99 15.36 466.63 16.72 467.13 17.42 468.71 18.01 509.2 79.76 536.57 121.51 535.87 122.3 536.13 123.05 537.34 123.63 537.51 124.52 537.03 126.97 536.29 127.86 534.12 128.45 532.37 128.37 530.63 127.41 528.17 127.87 527.3 128.18 526.88 129.1 527.19 129.85 529.03 132.44 529.52 132.77 530.46 134.4 530.68 136.29 531.01 137.57 530.23 141.86 531.2 142.59 533.7 141.91 535.21 141.04 536.89 140.44 538.8 140.02 539.38 140.69 537.62 141.87 535.82 142.7 536.24 143.88 537.67 145.48 537.37 146.14 536.15 147.59 535.68 148.83 535.74 149.67 536.37 150.78 535.01 150.74 533.68 149.54 530.98 148.89 529.8 149.08 529.56 149.47 530.75 151.78 531.11 153.14 530.83 153.68 528.87 155 528.66 155.47 528.96 156.8 528.65 157.56 527.61 158.82 528.29 159.45 528.84 158.73 530.17 160.45 531.4 159.56 532.23 160.29 534.67 161.06 536.64 160.98 539.02 161.93 540.27 162.58 540.01 163.28 540.13 164.51 539.58 164.9 539.3 165.82 539.89 167.74 539.23 168.6 539.54 169.83 538.32 171.23 538.44 172.07 539.27 173.6 540.27 173.48 541.54 174.02 542.75 177.27 543.28 177.44 545.2 176.21 547.44 175.3 549.47 175.16 549.82 174.29 549.18 173.31 549.91 172.23 551.89 172.87 553.71 174.49 553.64 175.45 551.99 176.19 550.9 177.42 551.1 178.51 550.52 179.68 550.56 181.38 549.97 183.44 549.32 184.12 548.31 184.46 547.25 184.21 545.46 182.96 544.73 183.52 544.96 184.18 547.2 185.67 548.32 188 548.92 188.65 549.47 189.97 549.2 190.95 547.89 191.23 547.38 191.97 547.33 194.57 547.07 195.92 545.98 196.48 544.75 197.44 542.95 197.36 542.28 196.62 542.25 193.77 542.92 193.21 543.35 191.72 543.01 191.3 541.97 191.51 538.57 190.88 535.37 190.63 533.65 191.37 532.76 192.68 532.29 193.89 532.32 194.92 532.77 196.15 533.88 197.76 532.84 198.17 532.89 199.77 531.82 201.03 531.4 202.18 530.13 203.04 529.25 204.26 528.89 205.27 528.99 206.96 528.6 208.71 529.39 210.04 529.2 212.06 527.25 212.25 524.63 211.69 523.06 211.78 522.09 212.74 522.14 213.47 521.41 214.2 519.39 220.57 519.03 221.08 517.35 222.34 517.44 223.29 518.21 224.78 517.04 228 516.83 228.96 517.89 229.79 518.15 231.55 563.49 287.54 569.2 296.11 569.09 297.2 569.58 299.28 569.63 300.8 570.51 302 570.02 303.67 569.83 306.5 570.54 308.01 571.13 310.46 571.98 311.91 572.33 313.07 572.19 314 572.3 316.66 572.56 317.82 572.17 318.57 572.61 320.59 572.69 321.79 572.43 323.05 572.61 324.44 573.59 325.37 573.96 326.71 577.63 328.99 580.63 330.28 581.38 330.4 526.9 400.76 527.16 401.68 526.87 402.74 527.21 404.53 528.72 407.7 529.44 409.73 529.77 411.14 530.59 412.21 530.44 414.2 529.36 415.66 529.78 416.14 529.23 416.91 529.49 417.58 529.32 419.43 527.07 422.52 527.39 423.42 525.91 423.97 525.54 424.4 526.32 426.01 526.29 427.35 528.76 428.14 529.34 428.47 530.92 430.58 532.73 431.9 534.86 432.98 536.28 432.98 537.65 432.44 538.71 432.36 541.94 430.14 543.68 429.13 544.7 427.96 545.61 426.14 546.48 425.08 547.91 424.06 549.83 424.33 550.74 425.76 550.72 427.8 551.23 429.22 552.1 429.69 553.16 429.56 554.82 428.76 556.71 428.37 558.16 427.55 559.63 428.34 560.98 428.77 562.21 428.5 563.47 427.68 565.01 424.94 564.41 421.3 563.87 420.17 563.54 417.49 564.44 417.67 566.29 418.55 567.34 418.78 569.08 420.11 570.85 420.56 572.09 421.31 572.9 421.46 576.35 423.19 577.96 423.77 578.83 423.72 580.03 423.01 580.32 421.76 582.14 419.51 582.89 418.9 583.95 417.59 585.71 417.53 586.96 418.1 587.86 418.11 589.15 415.88 591.64 415.22 592.3 414.6 594.93 413.78 596.72 413.44 597.75 412.14 599.02 411.83 599.58 411.01 601.58 411.08 602.29 409.34 602.9 409.05 606.07 410.07 606.67 409.79 606.7 408.32 606.49 407.04 606.76 403.73 607.6 403.41 608.8 403.87 609.49 404.73 610.3 405.1 611.65 405.26 611.76 405.8 610.97 406.76 610.74 408.6 610.98 408.92 612.71 408.44 613.6 406.32 614.46 405.43 616.18 405.15 616.89 404.77 Z"/>
</g>
</svg>