<?xml version="1.0"?>
<svg xmlns="http://www.w3.org/2000/svg" version="1.2" baseProfile="tiny" width="800" height="715" viewBox="0 0 800 715" stroke-linecap="round" stroke-linejoin="round">
<g id="4208500">
<path d="M 602.3 132.8 599.25 134.59 597.52 136.22 593.9 138.26 589.92 138.21 588.52 137.56 586.91 137.57 582.31 139.12 581.33 142.96 579.01 146.79 577.62 149.7 576.09 151.77 571.62 156.57 570.58 159.13 570.81 162.12 572.36 168.09 572.05 169.95 569.29 173.16 567.68 175.68 567.15 178.48 567.56 180.72 568.5 181.81 572.59 183.58 574.28 185.19 577.16 190.95 577.47 192.47 576.26 194.61 571.11 197.88 569.69 199.06 568.98 200.54 569.21 204.32 570.22 206.82 575.43 210.48 576.34 211.33 577.77 213.65 578.43 217.21 578.49 220.71 578.85 222.91 579.94 225.66 581.87 228.27 583.27 229.51 583.57 230.98 582.42 233.13 578.8 235.06 573.48 237.6 572.76 239.43 572.89 240.82 573.76 243.61 576.04 248.92 579.8 255.64 582.07 258.19 586.21 260.73 590.22 262.41 590.7 263.47 590.03 264.89 586.71 268.58 585.33 271.38 583.71 275.69 581.51 278.76 580.74 280.25 579.28 284.96 578.63 286.14 576.19 288.37 574.89 288.94 573.81 290.07 573.03 294.99 572.25 296.52 571.89 298.93 571.97 300.98 572.52 302.66 572.73 305.31 573.54 308.13 574.31 308.79 577.57 310.16 579.01 311.53 580.85 312.63 583.85 312.72 585.83 312.19 590.19 311.62 594.19 312.81 597.51 315.43 598.7 317.16 601.19 323.44 601.39 325.26 600.93 327.16 598.07 330.06 597.02 331.66 596.25 336.17 594.3 338.48 591.13 341.22 587.78 342.73 583.42 343.78 582.02 344.43 580.75 346.28 580.35 348.04 580.53 350.88 582.79 354.29 584.26 358.9 583.16 363.59 583.05 367.31 582.23 370.18 580.86 372.01 578.38 373.93 577.35 375.93 577.52 378.77 576.48 382.09 574.76 383.95 573.45 386.31 572.28 390.03 571.9 394.18 571.14 396.31 570.15 397.5 567.86 401.45 563.38 404.7 561.58 408.63 560.76 411.1 560.69 413.51 557.66 416.6 555.41 418.34 551.24 418.66 548.77 419.91 543.09 427.77 544 428.49 545 430.66 546.52 431.82 548.84 431.94 550.88 430.83 552.14 429.45 557.23 425.9 558.44 424.38 560.53 422.91 561.46 421.02 563.29 419.78 564.86 417.56 566.08 416.96 566.9 415.81 565.17 411.03 566.52 409.35 569.56 409.64 572.12 408.88 572.82 407.7 572.71 405.16 573.8 402.55 574.44 402.14 577.15 401.99 578.07 401.44 579.52 399.56 580.04 398.01 581.62 397.67 582.93 398.37 583.76 399.46 583.45 404.77 584.92 407.72 584.5 409.73 582.59 411 579.37 410.26 577.97 410.22 576.48 411.44 575.75 413.72 575.91 414.79 574.13 416.87 574.39 418.71 571.4 422.9 568.06 425.96 565.85 430.59 565.69 431.83 566.98 434.34 565.66 437.23 564.94 441.57 566.08 444.62 566.01 450.09 566.83 453.57 567.71 453.73 568.69 452.51 570.11 452.19 571 452.78 571.17 456.03 572.32 457.87 574.7 458.43 576.02 457.97 577.27 458.33 577.38 459.28 576.38 461.25 573.62 463.67 573.1 465.22 573.33 467.35 574.52 469.28 576.01 470.78 577.04 472.43 581.22 474.84 582.28 476 584.56 477.06 586.15 479.06 587.93 480.13 590.33 480.13 592.81 478.73 595.06 478.01 599.75 476.92 602.79 474.63 604.97 474.62 606.43 476.77 605.76 479.28 605.12 480.25 603.5 481.36 601.49 481.68 599.77 483.49 600.97 485.55 600.45 488.85 600.94 490.48 602.9 491.29 604.67 491.08 605.64 490.22 609.2 489.5 612.4 489.3 615.46 487.12 618.64 485.91 622.84 484.68 624.6 483.82 627.83 484.1 628.26 484.86 626.4 486.32 625.63 487.87 623.49 490.79 621.09 493.25 621.38 494.75 623.83 496.37 624.9 496.71 626.68 498.18 629.17 498.72 631.18 499.8 632.6 501.61 635.46 502.77 634.71 504.15 632.8 506.13 631.38 505.93 630.37 504.43 628.19 502.98 626.12 502.42 622.64 502.9 620.89 501.26 618.49 501.2 616.65 503.47 615.67 504.2 613.11 504.45 611.83 505.72 612.19 507.19 611.05 509.85 611.34 511.12 614.1 513.8 613.47 514.86 610.43 514.47 607.82 514.48 606.98 513.75 603.03 509.15 602.22 508.41 599.46 507.94 598.87 507.35 598.28 504.35 596.76 500.68 596.86 499.14 595.8 498.21 593.19 498.34 591.8 500.04 590.43 499.94 588.01 496.7 586.59 493.27 583.81 492.16 582.44 490.92 581.77 488.37 579.91 487.67 578.54 489.22 578.02 492.89 576.86 492.6 576.06 490.85 574.83 489.66 573.09 485.27 570.93 483.62 569.35 483.71 568.33 485.58 566.16 484.85 564.53 486.15 562.99 489.86 563.34 491.93 564.89 493.28 564.43 494.35 562.32 495.55 561.85 498.11 561.79 500.29 560.53 501.02 558.47 499.27 556.9 499.08 555.29 499.67 553.72 501.38 553.64 503.73 554.83 505.57 556.22 506.37 558.23 506.54 559.4 507.66 560.25 509.65 562.57 510.76 566.41 511.14 563.22 513.44 560.4 514.82 558.36 517.54 557.59 520.59 556.56 521.92 554.18 522.67 553.52 523.61 552.61 527.15 552.94 529.61 553.92 531.88 556.04 532.09 556.25 532.97 555.03 537.67 554.93 539.6 553.57 541.88 553.75 544.95 554.1 546.04 555.47 547.4 558.13 546.86 558.7 548.13 557.54 549.99 556.61 550.5 552.53 550.9 551.34 552.54 551.22 553.94 547.19 556.67 546.5 559.68 546.55 562.15 548.61 563.58 549.11 565.18 548.72 567.91 549.03 569.85 550.58 570.39 552.87 568.28 554.6 568.56 555.68 570.63 556.56 571.17 557.46 572.84 559.12 573.34 559.89 574.37 558.19 576.54 559.11 577.88 560.05 578.22 562.47 580.41 568.48 576.77 569.02 575.94 569.05 573.36 569.71 571.97 572.24 571.09 573.09 570.42 573.98 568.44 574.79 568.73 577.89 571.16 579.92 573.76 582.76 576.34 584.72 576.99 584.26 579.15 585.52 580.01 587.19 579.28 588.62 580.27 590.46 579.68 593.33 580.46 595.27 582.58 597.09 581.01 598.68 580.83 600.43 582.22 601.1 584.32 602.03 585.94 603.95 586.35 604.86 587.22 606.14 589.54 609.21 591.22 609.7 592.05 611.18 592.58 614.59 592.6 617.43 591.59 619.64 589.47 625.43 586.41 628.65 583.42 629.91 582.78 634.89 582 636.44 581.14 638.25 579.59 640.7 574.25 641.6 569.14 642.71 565.93 643.58 564.59 645.16 563.79 647.31 560.93 648.98 557.07 650.55 555.3 652.44 551.68 654.5 548.97 657.57 546.57 657.65 545.68 656.9 543.67 654.91 540.28 654.28 536.76 655.22 534.5 661.27 536.34 663.66 539.03 665.42 540.63 667.15 540.91 667.99 541.75 669.9 542.26 671.46 542.19 672.61 541.58 674.29 542.68 675.98 544.81 676.99 545.06 677.61 546.47 680.12 547.64 679.97 548.61 682.02 549.85 682.69 553.2 682.68 555.03 683.47 557.82 685 556.62 685.99 558.26 687.49 559.65 689.29 560.67 692.19 560.5 693.21 561.55 694.89 560.87 696.12 561.18 697.98 559.87 699.95 560.15 700.33 561.01 701.72 561.34 702.39 560.76 704.51 562.33 706.03 562.33 708.35 564.97 709.9 565.7 711.92 564.4 716.62 562.38 719.43 562.61 721.7 564.32 718.23 563.81 716.58 563.99 712.65 567.37 711.54 570.34 710.92 573.11 709.14 574.81 707.45 574.96 705.81 574.6 704.69 573.1 704.82 571.06 703.48 570.18 701.99 570.39 699.23 571.73 696.93 575.12 696.05 575.97 693.76 576.1 690.53 578.21 689.52 580.41 690.56 581.34 694.29 581.06 696.16 581.99 695.8 584.85 696.28 587.98 696.05 588.88 694.06 591.46 692.18 592.14 689.08 590.88 683.59 591.33 681.35 592.61 679.17 593.5 678.72 596.76 680.23 599.66 682.23 600.77 684.56 599.24 685.75 599.42 686.76 601.34 686.35 603.58 687.22 605.36 689.29 605.88 691.59 604.64 692.85 603.37 694.33 602.57 695.75 604.49 697.62 604.53 701.71 602.36 703 600.25 705.57 599.45 707.01 599.45 710.11 598.21 714.75 597.02 721.52 597.3 723.23 597.13 725.15 597.42 727.36 598.43 730.45 597.46 731.95 595.38 731.73 593.03 732.49 591.75 735.87 590.64 737.56 588.08 737.92 586.33 739.17 584.47 739.86 582.35 743.07 581.47 745.87 580.42 748.04 578.73 749.82 578.03 751.71 575.94 753.08 573.64 755.29 571.97 756.53 571.82 759.2 569.83 760.81 569.9 761.94 569.41 762.75 568.1 765.23 565.44 767.22 562.47 769.27 560.26 770.36 559.64 773.15 558.8 775.98 557.35 777.89 555.96 780.81 555.47 782.43 554.87 785.15 554.85 787.95 554.17 789.25 554.27 791.64 553.7 797.07 553.53 798.31 553.14 799 554.15 797.55 555.95 794.12 558.15 791.42 558.28 789.67 559.26 789.14 561.24 789.97 563.79 791.76 565.43 793.41 567.52 793.59 569.8 793.07 571.97 791.39 571.93 788.25 567.9 785.22 565.67 783.83 565.88 780.61 568.41 780.08 569.85 780.96 572.46 779.93 573.55 777.53 574.24 775.8 575.84 775.68 578.73 776.89 581.49 779.16 583.9 780.08 585.83 780.55 588.03 782.67 590.07 782.87 592.05 781.4 593.17 780.16 596.87 780.06 598.46 779 599.52 777.05 598.78 775.44 597.22 773.87 594.25 772.79 592.75 769.3 589.97 767.6 589.15 765.41 589.06 764.53 590.69 765.71 593.46 767.73 595.81 770.38 598.29 770.8 599.91 767.06 603.25 765.3 604.3 765.27 606.47 764.09 607.37 763.7 609.78 762 610.56 759.35 610.39 755.3 611.76 754.8 613.55 752.9 615.2 750.77 615.25 748.69 613.83 746.54 613.76 744.87 615.31 743.03 619.49 741.18 620.29 738.5 619.87 737.34 620.78 737.51 622.51 739.99 624.13 740.1 624.84 737.67 628.27 736.02 628.34 733.8 626.82 731.91 626.88 729.11 627.99 728.07 627.8 726.16 625.68 725.11 622.57 723.82 620.78 723.68 617.3 723.32 616.34 721.99 616.1 720.61 618.1 720.54 620.76 721.11 622.46 722.81 624.96 721.82 627.54 720.7 628.4 719.11 628.28 717.78 626.93 715.38 625.9 714.17 626.03 712.48 627.73 711.82 630.49 711.58 633.13 710.21 634.14 706.89 634.75 705.67 636.97 699.3 638.47 698.01 639.76 694.77 641.9 693.68 643.3 693.36 645.45 694.23 647.88 696.72 649.1 695.82 652.38 694.22 656.12 693.85 658.91 694.15 660.88 695.41 663.28 697.52 663.81 699.34 663.73 703.02 662.1 707.9 657.4 712.43 654.05 715.32 652.79 717.8 652.13 720.39 651.03 721.61 650.08 723.39 650.03 726.39 648.64 728.52 649.48 733.24 650.43 734.68 650.18 735.66 649.33 738.13 648.35 739.5 646.69 740.02 649.16 739.95 651.38 741.24 652.71 741.4 653.79 738.09 654.11 737.44 654.77 734.61 656.19 733.34 655.91 729.8 655.83 727.07 653.98 726.77 653.11 724.46 653.53 722.58 654.82 722.39 657.25 721.38 657.42 719.69 656.52 718.42 656.44 717.01 658.26 716.92 659.57 715.43 661.23 715.52 662.32 712.45 666.06 711.47 668.64 710.42 670.15 709.59 675.19 708.42 675.54 707.42 677.77 706.19 679.49 704.05 681.03 702.99 682.75 702.95 684.44 704.11 684.68 704.31 685.87 703.52 686.93 699.92 688.87 698 691.95 698 693.69 697.18 694.57 695.8 694.35 695.64 696.71 693.41 698.1 691.46 699.77 689.1 699.59 686.79 698.96 684.77 699.58 683.77 703.97 683.67 705.83 681.78 705.91 680.8 705.24 679.23 705.75 679.4 709.59 676.25 711.91 673.79 711.67 672.35 710.39 669.05 709.39 664.33 708.71 663.38 710.05 662.01 710.66 659.42 712.42 658.74 714 657.13 713.8 656.11 712.95 654.22 712.39 653.73 710.83 651.29 708.42 650.4 706.61 646.61 706.08 645.45 705.2 644.86 703.28 642.32 701.79 640.5 701.94 639.42 701.4 638.15 702.11 638.14 704.83 640.09 707.12 639.01 708.83 637.58 709.96 636.6 711.4 635.82 711.59 633.71 709.48 631.97 707.16 631.49 704.28 630.2 703.84 627.82 704.67 626.52 702.54 628.38 702.83 628.87 701.78 628.19 700.26 626.16 700.62 625.39 699.35 623.55 697.79 618.16 694.98 618.11 690.48 617.36 688.32 615.27 687.28 612.59 687.59 610.07 686.64 608.08 686.26 605.76 686.48 601.99 688.56 600.31 688.99 597.06 689.3 592.51 687.86 590.64 686.42 587.71 679.35 587.52 677.89 588.13 675.42 588.79 674.3 588.89 672.16 587.69 670.66 583.73 669.41 579.54 668.68 577.42 669.28 572.93 668.98 568.35 668.25 564.91 666.16 563.28 664.46 562.9 662.93 563.51 661.13 565.88 658.19 568.51 656.48 570.6 654.22 571.12 652.73 570.93 650.87 571.59 645.39 572.2 642.01 571.51 640.46 570.08 639.26 566 638.56 563.15 639.87 559.05 641.26 558.15 641.11 555.77 639.04 552.8 637.72 550.94 637.66 548.87 638.92 543.28 641.13 540.88 643.99 538.73 644.45 535.19 643.13 532.2 642.89 531.3 642.5 529.48 639.6 528.59 637.61 528.74 636.44 530.49 633.78 530.64 632.74 529.47 628.3 528.82 626.6 527.23 624.83 526.41 621.57 525.9 620.57 521.83 616.78 521.07 615.75 520.21 613.03 519.94 609.25 518.38 602.86 518.09 597.6 519.6 593.19 519.34 591.64 518.16 589.43 515.27 586.31 513.76 585.82 512.22 586.11 509.84 587.42 504.91 585.65 503.34 584.39 501.58 582.22 497.34 582.71 495.69 582 494.17 579.86 491.48 578.02 490.42 574.75 490.69 571.73 490.31 570.05 487.71 567.84 485.58 568.26 480.65 567.48 478.85 565.35 476.98 564.18 470.26 564.25 465.96 566.22 465.06 566.26 464.14 565.11 466.08 561.43 466.69 558.8 464.95 557.6 461.32 558.75 458.4 559.92 456.02 559.92 454.45 560.37 452.33 561.71 448.63 563.09 446.55 562.99 445.3 562.46 442.65 560.34 441.06 557.83 441.22 556.23 441.88 554.95 441.72 552.26 440.01 550.08 435.68 547.17 434.03 546.72 428.6 547.61 422.98 548.06 416.94 549.69 414.16 549.7 412.13 548.93 411.6 548.14 412.36 546.14 413.3 542.52 413.14 541.47 411.3 541.01 408.25 541.31 406.62 539.89 404.76 537.23 401.61 534.68 400.29 531 398.31 529.91 393.17 526.21 391.3 525.52 388.45 525.6 386.66 526.04 381.3 527.92 377.11 528.14 376.95 529.94 377.34 531.84 375.69 533.38 374.1 532.88 373.11 534.12 371.61 534.84 370.77 536.36 368.8 538.81 366.13 540.68 365.73 539.29 362.29 539.8 360.55 541.25 358.95 541.97 357.7 543.29 356.21 543.39 355.04 544.56 352.89 545.74 351.46 548.99 349.03 551.05 347.33 553.19 347.09 555.79 346.1 558.16 344.17 559.75 342.78 563.36 340.27 565.72 337.81 567.27 337.54 568.15 335.54 570.55 332.21 572.77 330.02 574.52 329.03 575.71 327.79 576.34 324.23 576.59 325.33 578.72 325.55 580.89 323.88 586.4 323.4 589.95 322.78 590.6 320.21 591.51 316.77 592.16 315.17 594.22 314.84 596.11 313.06 599.3 309.56 602.35 307.5 604.41 305.01 609.58 304.96 612.54 304.29 614.35 301.46 616.44 299.7 618.33 299.25 620.36 299.45 622.28 298.97 624.77 297.58 628.1 297.24 629.77 296.31 631.55 294.3 633.8 292.3 635.02 288.96 636.46 285.86 637 283.79 636.91 282.35 637.31 281.05 638.6 279.98 640.84 277.38 642.05 275.18 643.4 273.02 645.51 271.76 647.36 270.97 650.46 270.88 652.84 269.47 657.1 267.86 660.43 265.26 662.49 264.33 663.62 257.83 668.79 256.33 671.22 256.53 672.18 258.17 675.71 260.51 678.64 261.58 680.61 257.13 680.87 253.9 680.66 252.01 681.4 248.93 680.7 245.29 681.6 242.29 680.91 241 679.26 236.24 681.28 234.51 681.52 231.89 682.88 230.87 682.82 227.35 681.1 225.61 681.45 224.51 680.82 221.42 681.3 219.61 680.68 218.13 681.55 216.83 681.32 212.83 683.42 210.4 683.6 209.57 684.27 206.75 684.68 206.53 685.33 203.9 687.5 203.86 688.82 201.87 689.21 200.2 690 198.26 691.52 197.66 692.65 195.04 694.96 193 694.79 192.04 692.42 192.57 691.49 195.23 689.53 199.09 686.39 203.59 684.76 204.95 682.81 210.47 679.1 212.14 678.34 213.57 678.26 215.98 677.14 220.17 676.38 220.84 675.94 223.07 673.06 226.53 672.02 227.74 671.32 230.75 667.24 232.11 664.92 233.42 659.59 232.58 658.17 231.54 654.94 232.19 652.97 234.61 651.25 234.21 650.46 235.83 648.49 235.4 647.25 235.67 644.75 239.15 644.6 240.74 642.39 241.12 641.15 240.24 639.29 241.08 637.7 240.87 636.01 241.64 634.53 240.91 630.13 240.25 628.31 240.26 625.5 234.98 623.53 231.67 622.83 227.7 620.93 226.16 620.97 223.85 619.06 215.76 617.33 212.98 617.81 210.12 619.59 207.16 620.74 201.68 621.06 198.87 620.13 201.38 618.25 201.86 616.84 201.48 614.78 201.58 613.16 202.76 611.49 203.54 609.69 206.7 607.8 205.6 603.54 206.29 602.01 208.99 599.78 213.86 598.11 219.16 594.76 228.19 592.11 229.06 591.12 228.73 589.7 226.19 586.54 225.63 583.91 226.31 582.65 229.13 579.33 232.39 576.11 233.93 573.32 234.14 571.86 233.25 569.7 230.98 566.63 229.75 563.9 229.26 561.38 229.87 559.38 230.96 557.32 232.39 556.08 234.46 551.46 236.03 549.5 238.71 548.46 240.96 546.42 243.1 543.9 245.39 539.68 246.53 538.87 251.15 537.26 254 534.75 257.03 529.21 257.77 528.32 260.81 525.83 263.7 521.79 264.25 520.46 267.68 513.96 270.31 509.93 270.18 507.93 268.54 505.64 268.38 504.76 270.83 499.79 272.28 497.99 273.13 496.19 273.28 492.99 272.99 490.53 271.85 487.01 270.27 485.08 268.4 483.6 267.09 480.16 267.16 478.35 268.63 473.88 268.46 472.68 267.16 469.62 266.72 467.11 266.83 465.08 267.74 463.2 268.69 462.28 271.35 460.61 273.87 459.81 279.56 456.59 280 454.81 278.61 453.05 277.51 452.38 276.59 450.67 277 447.85 278.56 446 282.01 443.85 283.54 442.56 284.74 440.48 285.04 439.11 226.95 413.89 144.6 375.57 113.94 373 111.96 373.34 107.8 374.67 105.19 375.07 103.52 374.97 101.64 375.42 95.89 375.69 92.67 375.43 90.36 377.11 86.12 379.43 84.1 381.63 82.1 382.64 77.29 384.09 74 386.16 68.51 387.5 66.4 388.62 61.91 389.93 59.83 390.2 56.54 388.76 52.69 389.82 49.06 393.17 38.81 355.76 23.49 299.83 1 218.77 3.46 218.82 6.68 220.01 7.7 221.71 7.76 224.63 10.21 225.53 12.53 225.01 17.97 225.19 21.38 226.61 24.4 227.2 26.95 226.84 31.02 225.49 33.5 223.12 34.54 222.6 38.04 222.7 42.85 223.35 44.48 223.13 46.16 221.76 47.32 221.47 51.03 221.69 57.45 222.64 60.56 221.68 61.99 221.55 64.11 222.7 67.61 223.78 70.59 223.95 76.9 222.96 81.09 222.7 85.76 221.52 86.52 219.01 86.93 214.88 88 212.9 90.31 212.9 97.26 214.38 102.81 214.49 107.24 213.94 113.09 214.61 114.54 215.74 114.34 217.43 113.17 219.52 112.69 221.09 113.21 223.11 113.16 224.88 112.18 226.61 111.84 229.73 113.22 231.52 115.48 233.06 117.58 233.63 119.43 233.44 122.03 233.65 125.06 233.17 128.18 231.9 130.15 231.62 130.63 230.72 129.53 229.42 135.51 228.88 138.15 228.32 139.58 228.37 141.74 230.1 144.97 231.91 146.33 231.51 147.46 232.12 148.66 233.55 151.27 234.29 153.29 234.21 154.64 235.04 156.29 233.53 157.41 233.14 158.94 231.48 163.36 229.97 164.84 229.83 166.43 231.08 168.05 231.3 169.58 231 171.82 231.49 175.39 231.14 175.79 229.39 176.59 228.98 179.25 229.94 180.21 228.78 181.62 228.04 183.87 228.53 184.57 229.28 189.88 227.47 192.3 226.97 193.8 225.73 196.22 225.08 197.71 223.83 199.76 224.13 201.59 223.89 203.24 224.15 205.72 223.18 206.91 222.2 207.37 220.98 208.53 219.85 211.05 218.56 212.45 217.44 212.82 215.15 213.55 214.87 214.14 212.66 213.21 212.44 213.61 209.82 217.76 213.79 222.2 217.03 224.27 218.85 226.93 222.42 228.21 224.82 230.68 224.77 230.81 222.23 231.6 220.64 234.64 219.89 235.64 220.21 235.63 222.95 236.43 224.45 237.87 224.04 239.49 223.01 242.17 222.26 244.97 222.33 247.23 223.76 249.49 226.58 250.66 227.58 255.35 228.38 257.39 228.37 260.79 228.77 261.51 230.33 263.65 232.8 264.35 235.4 267.5 234.03 269.37 233.6 272.27 234.15 273.43 233.66 273.82 230.33 271.9 227.87 272.43 227.09 275.27 225.99 276.86 225.04 281.09 225.82 282.93 225.17 284.38 225.49 283.55 228.17 283.78 230.14 285.07 230.77 290.4 228.98 293.1 227.88 295.02 228.85 295.85 229.77 297.8 233.38 299.8 235.49 301.06 237.37 300.67 238.39 301.31 239.29 306.17 238.52 309.66 238.53 312.68 238.96 312.31 240.97 313.07 243.09 313.88 244.24 315.14 244.6 317.01 243.15 319.67 239.68 320.57 239.35 321.83 240.59 322.99 240.13 324.2 238.33 325.54 238.2 327.26 239.05 329.03 239.31 330.05 237.76 329.63 235.36 330.44 234.39 331.81 234.04 331.74 231.88 333.08 229.63 339.09 227 338.95 228.29 340.82 228.71 340.35 226.61 341.91 226.31 341.78 224.66 343.5 223.64 344.83 224.66 346.08 223.61 346.68 222.33 345.45 220.25 346.9 218.93 348.14 218.78 349.47 219.48 348.95 221.92 351.35 221.28 352.46 220.21 354.15 221.79 355.48 219.84 355.01 218.67 353.38 218.54 352.8 217.46 352.97 216.11 354.02 214.87 352.71 214.08 353.07 212.92 355.48 211.57 358.97 213.16 359.46 211.46 360.79 211.86 361.15 210.34 360.45 208.74 358.52 208.61 357.87 207.52 358.66 206.8 360.24 207.39 363.03 207.54 364.28 206.28 364.94 204.71 366.81 202.01 368.77 201.43 370.84 201.36 372.21 200.81 373.68 201.46 373.42 203.18 375.25 202.98 378.67 202.06 379.3 199.22 380.21 198.21 382.9 197.54 383.53 196.99 383.77 194.81 384.56 193.17 387.26 189.85 388.48 188.74 389.77 188.88 390.39 189.9 391.56 190.14 392.91 188.44 394.71 186.97 394.71 182.56 393.7 180.8 392.13 179.21 392.58 176.04 394.37 174.66 395.94 175.07 397.57 176.17 400.09 175.89 402.13 176.45 405.7 173.99 406.24 171.86 407.81 170.33 410.58 169.01 411.35 168.07 410.64 165.9 409.17 164.24 410.21 163.41 413.1 163.7 416.84 162.23 417.46 160.92 415.92 158.62 416.1 157.93 418.06 156.56 419.1 155.33 420.79 154.42 421.38 152.77 421.48 151.04 422.69 147.66 423.25 147.04 426.22 146.25 428.65 144.65 430.2 142.94 432.47 143.23 433.57 142.36 434.54 140.24 436.07 139.87 437.59 141.03 439.02 140.45 438.96 139.18 438.16 137.04 439.41 136.3 441.02 136.06 442.83 135.16 444.38 133.67 446.59 132.4 447.4 130.95 446.99 128.02 448.93 127.2 451.71 127.48 452.5 125.69 456.51 123.52 457.4 121.3 458.65 119.98 462.61 117.51 466.11 117.27 468.89 116.07 471.01 112.88 471.54 111.66 471.26 109.87 470.23 108.32 474.33 106.93 474.67 104.71 475.65 103.38 475.93 101.09 476.88 100.07 479.14 98.68 480.44 98.31 483.07 99.04 484.78 99.19 484.8 97.6 488.33 95.51 490.08 91.61 489.56 88.92 490.16 88.02 489.28 86.32 491.15 84.69 489.59 83.56 491.15 82.7 491.31 81.99 490.13 80.88 489.93 78.92 492.29 78.72 493.33 79.63 494.23 78.19 491.39 73.81 491.17 71.77 492.6 69.91 492.88 67.74 493.84 66.38 496.12 64.26 498.45 63.17 498.24 61.54 498.41 58.53 499 57.62 499.72 54.45 499.37 50.4 500.4 48.92 502.7 46.68 504.22 45.93 504.93 43.64 506.82 42.24 507.92 39.62 508.04 37.74 506.85 35.27 507.36 33.08 509.82 31.2 510.6 29.98 511.83 26.37 514.7 24.83 518.04 22.74 520.19 22.32 521.14 21.74 523.37 19.17 525.34 16.36 527.46 14.23 531.22 12.19 533.72 9.53 537.79 6.37 540.04 4.05 541.59 3.38 543.68 3.22 545.53 1 550.76 3.41 551.53 4.35 550.98 6.25 548.81 8.5 548.47 10.22 549.73 12.4 549.12 14.03 545.79 16.39 544.41 18.49 542.23 25.33 541.76 36.62 542.34 37.69 544.23 38.49 546.82 38.88 550.38 40.37 554.29 40.94 555.11 42.09 555.32 44.4 559.9 51.91 560.14 53.32 559.66 56.35 559.66 58.2 561.29 61.01 561.36 63.38 560.44 66.41 560.73 73.53 561.06 75.89 561.85 77.77 563.71 79.27 567.87 81.31 569.99 82.15 571.2 83.15 571.68 86.08 572.39 87.46 577.29 92.08 578.61 93.85 580.11 97.34 581.12 100.71 581.68 101.45 584.13 102.94 587.44 106.54 588.07 107.87 590.34 114.47 592.93 118.67 595.26 124.86 595.23 127.91 594.54 129.35 595.34 130.57 597.22 131.72 600.02 132.53 602.3 132.8 Z"/>
</g>
</svg>