<?xml version="1.0"?>
<svg xmlns="http://www.w3.org/2000/svg" version="1.2" baseProfile="tiny" width="800" height="794" viewBox="0 0 800 794" stroke-linecap="round" stroke-linejoin="round">
<g id="4208302">
<path d="M 772.3 102.27 769.6 104.72 763.99 105.9 754.68 104.92 750.5 103.41 743.63 103.18 738.76 106.93 734.82 113.83 732.95 121.95 732.26 141.09 734.75 146.56 740.19 145.82 740.07 155.17 736.33 156.44 728.11 155.75 726.74 157.15 725.57 164.42 726.28 169.73 728.48 173 725.39 179.01 725.21 191.05 726.32 202.79 730.31 221.99 734.62 232.27 745.42 245.92 750.17 249.65 758.96 251.47 764.56 247.91 768.77 242 772.2 240.71 780.37 242.31 775.26 247.13 768.3 256.25 764.56 255.43 761.64 257.24 759.17 253.66 751.55 252.02 744.38 256.12 744.33 258.98 738.46 265.32 736.93 269.07 730.88 273.37 728.02 277.32 723.74 279.4 718.13 285.45 717.45 293.85 718.17 306.25 719.88 313.19 725.28 318.63 725.6 321.51 723.02 324.39 715.22 321.72 713.9 317.77 709.16 314.42 706.05 315.54 704.65 319.16 697.17 323.34 695.11 327.87 690.3 331.93 689 335.89 690.57 338.92 685.13 346.28 684.37 355.06 681.55 357.64 674.78 358.13 670.11 356.5 665.51 358.15 658.1 357.88 655.48 351.02 655.17 346.54 652.42 343.21 654.09 340.5 649.86 334.28 645.54 332.83 634.15 333.82 632.39 332.77 617.53 338.28 610.09 343.61 604.83 348.64 597.77 358.76 594.95 361.49 590.81 373.85 585.92 382.56 583.1 392.83 582.93 403.99 586.95 425.58 592.05 440.56 594.56 450.27 599.57 462.53 602.5 467.79 608.36 481.96 610.23 488.15 615.19 498.83 622.47 517.3 639.52 548.93 651.3 569.12 657.97 577.9 663.04 587.29 666.37 590.92 682.79 613.09 716.84 652.57 733.77 671.69 764.86 704.88 787.62 726.74 795.25 735.45 799 743.36 797.53 744.59 789.52 745.4 777.7 750.68 768.18 752.77 756.82 754.33 753.19 753.59 750.25 750.19 746.88 743.25 740.45 737.67 735.4 735.04 728.57 733.82 721.79 736.38 717.21 740.41 712.71 741.72 710.73 738.46 712.5 733.94 706.3 732.74 699.59 736.26 690.79 733.28 682.52 734.76 677.4 737.31 672.62 747.61 669.47 747.35 663.42 740.55 661.6 733.53 664.6 728.29 668.92 724.76 675.83 724.07 682.41 725.62 687.79 722.74 683.8 718.7 674.07 719.24 673.43 715.93 678.26 708.23 677.53 702.19 675.76 700.92 666.75 700.82 657.1 699 655.15 694.94 658.29 689.55 658.11 680.06 654.35 680.48 652.58 685.57 647.92 682.09 642.78 682.16 635.13 679.05 615.31 676.83 604.8 676.54 594.62 678.47 588.31 681.17 579.5 687.9 576.04 692.91 572.84 700.8 567.25 717.65 563.02 722.96 512.34 747.46 506.14 748.73 492.36 747.74 483.61 746.46 479.7 746.83 469.02 755.47 464.94 769.55 461 774.16 454.75 775.54 431.81 778.67 427.75 776.48 409.73 773.84 388.57 768.05 383.12 763.92 378.82 758.46 366.42 748.88 358.15 745.9 336 745.57 323.11 752.18 310.2 768.99 302.28 780.28 295.83 784.91 278.78 789.33 275.23 791.21 268.58 791.54 255.51 790.46 242.68 793 231.64 789.97 231.34 788.53 238.14 780.78 237.33 777.56 232.43 777.22 226.8 772.07 222.7 770.7 215.12 770.5 203.64 765.87 197.73 770.16 189.82 769.79 182.55 772.48 177.53 769.24 172.43 772.54 166.38 774.4 161.94 773.67 153.99 766.09 143.87 763.58 138.97 764.4 132.06 762.7 126.22 763.31 118.18 761.01 109.36 760.46 104.23 754.75 93.39 754.65 82.52 761.7 77.96 757.53 72.7 756.22 69.82 751.74 64.36 750.57 61.54 748.37 55.9 748.24 43.91 743.88 37.04 742.12 1 716.69 3.47 711.89 6.59 709.79 14.61 706.93 16.38 703.78 22.93 697.49 23.57 692.41 18.73 685.32 20.95 679.06 27.02 677.28 29.41 674.12 35.09 672.22 40.96 672.79 42.74 667.81 55.93 662.3 66.42 652.83 71.27 651.16 75.19 653.8 81.6 652.31 88.33 647.65 99.94 642.4 107.87 641.89 111.83 640.68 126.19 633.87 136.43 630.15 146.28 623.26 152.41 622.27 161.1 624.55 167.5 622.34 172.38 616.53 178.34 611.43 183.07 610.54 189.06 612.63 199.4 610.43 210.75 602.44 214.25 598.88 222.45 594.02 225.56 588.65 226.56 578.94 220.97 572.13 219.45 561.73 216.85 554.95 213.5 555.14 200.9 550.6 197.94 547.78 194.74 541.03 193.06 528.96 194.53 523.13 189.6 506.12 185.91 500.88 172.23 503.33 162.79 505.85 156.51 508.34 148.74 510.12 146.5 508.55 145.24 502.03 137.31 491.4 131.86 488.68 128.57 484.11 127.32 476.16 127.45 470.88 119.45 465.49 109.02 456.19 101 445.73 100.24 437.04 98.45 428.68 91.18 420.9 88.54 416.27 83.45 401.1 93.29 389.16 98.9 380.66 103.11 378.28 107.96 379.06 115.05 376.6 125.87 369.33 130.1 364.36 140.23 357.47 145.95 351.81 155.22 347.34 162.84 340.92 176.25 328.63 186.6 315.52 194.41 306.86 199.24 296.17 203.92 291.15 209.37 287.86 223.02 273.14 224.49 261.51 229.52 249.39 231.1 247.06 239.03 249.86 240.54 251.83 248.09 250.31 258.66 253.01 273.24 260.72 281.53 267.24 288.63 271.03 294.98 270.86 300.77 267.29 304.62 266.3 308.4 267.49 316.43 273.28 328.18 280.47 339.7 283.5 343.44 283.67 353.52 281.62 361.01 276.85 368.94 265.85 375.82 262.76 380.55 255.95 385.85 252.18 394.49 252.39 399.57 250.95 413.04 244.51 427.03 242.56 437.71 234.44 443.21 228.64 450.37 224.88 455.21 223.76 462.06 219.06 471.13 214.95 480.59 212 487.32 208.88 497.52 199.53 503 195.78 510.08 187.02 518.42 180.42 529.46 167.91 533.38 167.18 537.78 163.83 545.23 162.37 552.18 158.54 561.34 160.77 571.98 162.18 575.25 159.4 575.22 153.75 572.48 146.43 562.14 135.52 555.98 126.44 555.78 117.86 548.95 104.39 545.93 101.1 536.54 99.88 530.68 97.76 527.72 94.37 533.42 88.22 537.39 85.79 548.31 82.55 555.38 77.88 556.11 74.34 554.33 61.86 555.3 60.41 564.19 55.04 566.95 51.29 565.42 44.67 564.66 32.05 565.62 26.54 568.41 18.6 573.67 12.74 578.33 11.98 586.54 6.42 594.94 3.79 603.51 4.43 607.35 4.96 617.56 3.46 623.43 1 638.65 11.54 646.07 20.84 655.53 25.39 659.3 29.45 664.64 38.97 668.17 43.61 672.73 52.13 682.45 64.33 686.38 66.33 695.44 67.75 701.45 72.53 707.23 75.59 721.7 75.91 727.4 76.77 748.25 82.64 753.96 92.68 758.12 95.52 769.23 99.65 772.3 102.27 Z"/>
</g>
</svg>