<?xml version="1.0"?>
<svg xmlns="http://www.w3.org/2000/svg" version="1.2" baseProfile="tiny" width="800" height="493" viewBox="0 0 800 493" stroke-linecap="round" stroke-linejoin="round">
<g id="4209458">
<path d="M 457.53 44.05 461.15 46.99 465.09 49.05 468 52.13 468.69 56.15 471.33 58.16 471.63 63.66 473.87 66.61 476.53 68.2 480.46 72.99 481.31 77.82 479.82 82.44 482.68 85.61 483.02 89.21 484.52 94.18 484.23 100.39 485.21 102.93 482.36 106.46 485 110.39 488.48 119.14 488.35 122.97 486.2 123.99 486.34 129.78 485.56 132.76 482.79 135.69 482.35 139.13 485.47 140.92 490.09 150.85 490.77 156.84 495.58 157.7 497.9 154.3 500.38 153.38 507.37 157.72 509.86 157.95 512.16 156.13 517.17 158.27 520.12 162.84 527.54 167.77 528.98 171.71 533.42 173.36 535.71 175.68 538.45 176.76 539.39 179.45 542.72 181.49 552.25 181.2 558.46 181.4 561.76 182.86 564.43 185.26 567.11 185.56 569.26 183.29 577.21 188.27 583.22 189.21 588.07 191.93 590.77 190.2 596.62 192.59 599.82 193.22 603.6 196.84 607.04 208.42 610.76 212.24 618.4 210.57 623.67 210.92 625.93 210.07 628.96 210.59 635.89 213.57 638.81 216.51 645.71 221.16 652.99 220.87 661.05 223.9 667.24 224.42 673.21 225.51 674.39 224.13 680.26 224.42 681.93 226.13 687.32 226.57 690.04 228.51 695.01 229.51 699.45 231.49 710.88 232.36 715.94 233.9 720.9 233.96 724 234.81 731.31 234.79 734.27 234.09 740.51 234.85 744.71 234.4 747.2 237.42 754.05 242.15 764.63 246.93 770.92 247.11 774.71 250.61 777.53 251.11 778.84 253.26 781.91 254.9 784.53 257.9 785.03 259.96 791.5 278.23 799 297.98 794.46 296.5 791.38 293.66 788.13 292.12 784.66 292.74 780.4 291.44 776.67 291.37 772.28 289.87 766.22 290.85 761.25 290.39 757.43 290.76 749.72 293.52 743.95 296.12 740.79 300.34 739.31 300.49 736.36 304.2 731.31 307.06 720.83 310.98 717.75 314.47 713.89 316.93 711.05 321.02 704.72 321.38 697.73 325 697.21 327 692.85 328.66 688.88 336.17 687.6 337.56 682.5 333.67 677.15 336.98 669.08 338.74 663.82 344.6 661.27 343.45 659.69 339.58 656.23 340.22 654.83 343.18 650.91 348.43 648.88 349.56 647.45 352.33 643.87 355.35 642.33 354.14 642.25 351.42 635.97 350.54 630.74 354.2 621.47 355.8 616.2 365.69 612.49 367.83 608.46 371.37 604.44 370.32 603.01 368.46 601.37 363.39 596.21 362.3 592.3 360.69 584.91 358.9 583.25 358.99 581.26 368.39 579 371.06 575.99 376.43 571.28 378.34 567.08 377.72 563.29 378.28 560.05 384.2 557.92 384.15 556.42 382.02 552.6 380.87 549.26 382.09 546.74 381.61 542.36 376.84 540.61 376.92 536.21 379.21 535.31 380.74 534.54 386.01 532.88 387.57 524.62 391.41 520.46 392.13 516.54 390.98 510.97 395.84 505.94 395.91 501.68 400.43 502.12 402.64 500.15 408.25 494.89 407.58 490.06 407.83 480.99 410.27 469.3 401.53 463.38 396.54 455.78 396.86 453.28 398.05 455.82 400.16 450.18 401.83 449.59 404.15 445.44 407.7 444.13 410.59 438.17 409.63 434.27 411.63 430.78 411.98 427.44 406.17 427.78 401.37 432.69 395.92 433.3 393.4 429.82 389.86 427.71 389.51 421.42 390.3 416.26 389.22 405.12 388.73 399.55 389.11 389.75 392.01 383.47 392.96 376.07 392.18 377.72 396.31 375.42 398.15 365.21 396.13 362.85 394.61 338.24 450.43 176.75 492 72.39 450.67 1 340.87 7.96 337.39 20.19 335.14 24.03 332.63 27.02 329.36 34.64 323.88 37.32 320.37 40.9 317.21 54.92 315.23 62.1 315.6 65.99 316.41 71.85 318.56 83.73 319.57 82.78 317.44 76.46 315.43 78.83 312.08 76.91 310.01 72.83 308.71 71.03 302.74 71.43 293.31 72.03 291.65 75.9 287.78 75.53 285.73 70.84 283.29 70.69 279.38 73.23 273.63 76.37 272.03 77.26 268.57 75.89 265.2 75.47 258.94 79.73 252.39 82.04 250.19 86.07 248.52 91.48 248.21 94.09 248.95 98.73 244.04 99.39 241.61 97.55 229.2 106.13 228.65 111.4 224.39 119.48 220.65 120.42 217.8 128.22 219.8 130.24 219.24 133.04 215.2 133.15 213.5 136.04 212.08 140.72 213.42 143.03 210.46 144.23 206.25 146.81 205.92 151.34 209.79 155.15 209.17 159.99 209.33 162 206.19 169.64 210.76 174.79 212.37 178.6 212.76 183.7 216.26 185.2 216.57 190.13 214.86 193.71 215.5 197.27 214.81 201.41 215.01 214.89 222.24 224.97 227.04 230.44 226.91 233.07 222.65 238.54 218.46 242.43 217.73 242.04 214.83 243.85 209.31 243.59 205.51 242.25 202.75 242.24 195.05 243.91 190.36 244.64 185.54 247.52 182.87 250.77 181.59 254.45 181.46 257.22 185.07 261.1 187.18 262.02 189.37 257.25 195.31 258.02 198.34 268.41 218.11 272.55 232.46 277.58 235.75 285.02 232.23 294.47 229.82 301.73 229.35 306.45 231.73 310.28 235.68 315.1 236.52 320.54 238.28 330.31 239.63 336.2 238.47 347.68 234.78 352.22 231.96 354.74 229.27 361.81 216.92 361.75 213.7 359 211.35 353.76 208.93 352.49 205.75 356.01 196.69 353.43 188.39 347.89 181.25 342.09 175.51 337.9 172.05 335.67 168.94 334.98 163.88 335.75 159.59 342.14 150.07 342.89 146.32 342.21 141.94 335.74 136.14 334.64 132.05 339.25 120.13 340.06 110.71 339.41 102.09 338.34 96.02 336.97 73.92 334.37 66.46 330.41 56.96 331 55.37 329.71 50.67 330.58 48.52 336.39 43.92 341.8 35.99 342.42 30.73 341.62 24.53 340.53 22.5 342.68 15.74 345.13 12.15 345.27 8.49 346.77 7.7 352.14 8.1 355.58 6.89 361.26 6.03 372.08 3.53 373.03 1 376.58 4.94 387.23 13.89 392.27 19.14 395.83 22.03 407.07 28.73 413.04 31.38 421.6 34.2 428.69 37.1 440.89 42.84 449.7 46.38 451.91 46.66 457.53 44.05 Z"/>
</g>
</svg>