<?xml version="1.0"?>
<svg xmlns="http://www.w3.org/2000/svg" version="1.2" baseProfile="tiny" width="800" height="973" viewBox="0 0 800 973" stroke-linecap="round" stroke-linejoin="round">
<g id="4209706">
<path d="M 97.95 1 149.03 60.23 207.07 81.79 208.18 79.76 207.57 76.78 209.69 75.33 210.37 73.65 209.91 72.93 210.68 69.43 211.26 68.51 212.29 68.31 212.23 67.34 213.66 64.02 213.8 61.6 215.3 60.81 218.24 61.12 218.76 59.71 221.33 58.57 222.75 58.88 223.94 59.82 224.19 60.67 225.64 61.13 226.63 62.13 229.32 62.5 229.64 62.06 232.1 62.49 233.92 62.49 233.9 63.46 236.06 63.51 236.68 63.06 237.98 63.65 239.04 64.7 238.93 65.75 241.42 66.31 241.66 67.04 243.93 66.71 244.69 67.98 247.56 68.1 250.02 70.04 250.09 71.43 251.74 73.16 253.05 74.15 253.53 75.19 256.5 75.42 257.93 73.67 257.96 72.91 259.2 72.23 260.8 70.13 263.26 68.23 265.02 67.54 266.05 67.53 270.2 64.85 272.45 65.98 274.12 67.44 275.47 66.95 277.67 67.84 278.53 69.06 279.53 69.56 280.11 68.59 281.2 68.6 282.8 69.72 283.74 69.79 286.04 70.98 287.08 70.32 287.3 68.51 289.95 66.54 292.19 66.04 293.62 64.6 293.89 61.27 294.4 60.29 293.65 57.89 294.58 55.37 293.43 54.47 293 53.58 290.12 54.44 289.22 53.16 288.69 50.45 289.27 48.23 290.54 46.91 321.63 42.8 321.88 40.77 321.12 38.17 321.32 35.78 320.93 34.6 319.93 33.43 318.19 29.9 318.89 26.68 318.46 26.11 319.97 23.85 320.47 20.22 321.66 19.56 322.96 17.81 323.73 16.07 323.72 15.04 324.84 13.08 326.23 13.14 328.93 12.68 330.25 13.81 332.35 14.64 334.05 14.45 335.29 13.51 337.75 12.16 339.63 9.4 342.13 7.85 345.04 7.57 346.31 7.68 349.9 8.64 352.4 8.12 357.42 8.5 361.8 9.82 365.27 13.37 365.87 14.34 366.43 16.68 368.91 17.52 370.18 18.44 370.96 20.31 370.86 23.26 372.33 23.6 374.4 21.53 377.24 17.29 378.42 16.11 380.55 15.51 382.01 15.45 383.09 15.88 385.22 17.87 386.42 18.24 386.62 19.03 384.8 22.25 383.53 26.78 384.51 27.72 385.95 29.85 387.83 33.87 388.88 36.44 389.69 37.12 393.07 38.45 393.93 39.15 396.2 39.99 397.5 39.85 400.54 40.76 401.77 41.33 405.99 42.25 408.59 41.33 409.89 41.36 412.61 44.68 413.92 46.89 415.26 47.34 416.6 47.28 418.74 47.89 420.31 47.82 421.89 48.77 422.77 50.27 423.25 51.85 426.08 57.42 425.45 58.71 425.49 59.72 427.12 62.96 428.2 64.57 431.28 66.89 432 67.71 432.41 70.05 431.97 75.42 432.38 77.16 435.02 80.34 436.36 84.48 437.88 86.29 438.78 88.21 438.81 90.45 439.19 92.86 440.12 95.07 441.06 97.98 441.2 100.61 441 102.34 440.01 106.32 439.25 107.41 439.04 108.56 437.18 110.2 434.53 110.95 432.18 109.92 430.29 109.73 428.94 110.34 428.25 111.54 428.83 112.75 430.22 113.63 430.05 115.06 428.89 116.02 428.89 117.16 430 119.24 431.53 119.79 433.93 121.41 435.19 122.71 437.6 123.82 437.8 125.13 440.13 127.9 441.82 129.04 443.46 129.18 448.21 126.45 449.6 124.62 451.8 123.72 453.81 123.76 455.16 124.75 458.05 124.84 460.41 124.71 463.26 125.59 465.74 125.67 467.86 127.06 470.43 127.9 471.08 131.09 472.25 135.02 473.97 135.81 477.28 137.96 477.17 139.1 477.89 140.04 480.2 140.6 482.7 140.84 485.41 142.78 486.64 142.96 489.18 142.4 490.76 140.85 492.51 141.17 493.25 142.41 495.75 143.54 499.79 146.66 502.95 149.67 504.92 152.28 505.75 152.85 509.33 153.72 510.01 155.53 512.67 158.16 514.65 159.61 518.69 161.33 521.38 162.05 522.71 162.69 524.31 164.56 526.69 166.2 527.57 168.62 529.42 168.15 530.83 168.25 532.54 169.19 533.5 171.16 534.9 172.51 535.39 174.8 536.25 176.21 536.4 178.44 536.04 180.59 536.22 181.85 538.49 182.92 540.55 184.18 540.43 185.68 541.55 186.36 542.76 186.46 543.28 185.71 546 185.59 549.01 184.8 550.49 185.63 553.5 184.57 556.34 184.09 558.75 183.44 563.26 183.79 564.81 183.52 567.55 183.99 568.22 184.53 568.15 186.59 569.43 189.04 570.61 192 569.73 195.41 569.69 197.58 570.35 204.07 571.34 205.57 572.7 205.62 574.01 206.53 575.85 208.71 577.13 209.27 576.9 211.22 578.82 213.31 580.88 213.96 582.1 215.98 582.99 219.03 585.61 219.51 587.49 220.8 590.61 220.29 592.33 221.08 595.73 221.33 597 218.88 599.7 218.22 602.92 219.04 604.13 218.91 607.57 221.29 609.35 223.65 611.84 224.8 612.68 226.02 612.62 227.73 612.14 229.59 615.12 233.03 617.65 234.67 618.7 236.21 621.8 239 623.01 241.01 624.54 242.16 623.65 244.66 625 246.56 628.43 248.83 631.03 250.15 632.04 251.73 631.59 252.66 632.28 253.26 633.43 252.52 635.1 252.43 636.94 254.14 638.05 254.52 640.5 254.5 644.04 253.86 644.48 253.45 644.48 251.82 645.37 249.97 647.39 249.99 648.87 250.76 649.76 250.78 650.73 249.77 651.53 248.23 653.63 248.53 654.78 248.25 658.23 244.66 659.49 244.65 660.56 246.91 661.89 248.84 666.3 252.91 666.57 254.8 666.28 257.41 667.03 262.05 667.63 262.38 668.92 261.31 671.55 261.01 672.57 260.09 672.13 257.08 672.69 256.63 674.92 256.02 675.52 256.55 675.87 259.65 677.38 261.88 678.33 262.74 679.76 263.33 682.88 262.19 685.01 262 686.86 262.66 687.12 265.55 687.79 266.2 689.76 266.75 690.71 267.43 692.76 266.76 696.09 268.5 696.01 271.96 696.9 273.49 699.6 275.15 701.32 277.04 703.01 277.51 703.43 276.56 705.21 274.61 706.22 274.39 707.7 275.12 710.23 277.71 711.06 279.87 713.02 279.41 715 279.64 716.49 281.15 716.81 282.29 717.95 282.63 719.57 282.5 721.34 284.24 723.93 282.76 725.54 283.72 725.89 285.37 725.63 287.48 727.61 289.39 729.37 290.3 729.83 291.74 731.23 293.23 733.32 293.91 734.2 295.28 737.75 297.64 738.18 300.61 739.82 300.69 740.6 302.52 740.81 303.83 741.6 304.76 743.92 305.53 744.45 306.3 747.05 308.41 748.96 311.54 747.28 313.19 748.66 315.67 750.43 317.15 750.99 318.81 749.18 320.5 751.76 324.6 752.24 326.66 751.29 328.27 751.54 329.59 752.34 331.06 752.55 332.46 752.15 333.61 753.69 334.23 754.27 335.11 756.73 335.03 758.04 336.08 759.68 336.69 761.83 337.12 763.2 336.86 763.5 337.54 765.23 338.42 765.57 340.42 766.16 341.15 768.37 342.61 770.82 343.45 772.89 343.38 775.61 342.61 776.95 343.44 778.2 344.97 779.27 345.24 781.4 347.85 783.08 347.44 784.34 347.92 786.19 349.11 786.82 349.83 789.57 350.57 789.95 351.2 792.37 352.53 793.21 353.44 797.51 353.32 798.46 353.84 799 355.21 772.58 355.26 770.51 356.87 768.33 359.63 765.19 362.04 762.93 364.57 760.03 366.53 759.65 367.33 756.12 368.3 755.02 367.76 752.19 367.37 751.26 368.18 747.17 368.28 745.53 369.51 742.98 370.88 742.42 371.79 740.84 371.89 739.1 373.5 737.86 373.42 735.82 371.27 734.82 368.63 732.09 366.82 729.63 366.88 728.42 365.58 727.45 365.62 725.42 364.56 723.72 364.63 722.39 363.99 721.33 366.11 719.93 366.09 715.19 367.04 714.35 367.75 714.02 369.75 712.72 369.74 712.42 370.57 710.49 372.59 709.75 374.17 708.41 374.77 706.73 375.03 704.83 375.95 704.2 375.83 701.9 374.11 700.88 374.26 697.9 373.57 697.2 374.63 693.88 375.48 694.57 377.87 694.26 379.2 693.32 380.58 692.27 381.2 690.8 381.31 689.75 380.9 688.67 381.78 688.27 384.57 688.48 385.4 685.76 386.86 683.92 386.24 682.86 386.41 680.88 387.87 680.69 390.25 679.82 390.63 678.6 390.13 676.38 387.37 674.98 386.7 674.09 387.93 675.28 389.93 675.03 392.17 673.54 392.14 671.07 391.05 666.95 388.48 665.4 387.17 659.3 386.2 656.45 384.92 655.58 384.97 654.13 382.63 652.82 381.4 652.52 380.56 650.6 378.92 649.8 380.74 648.71 381.75 648.32 383.17 649.32 384.66 646.72 385.39 642.53 387.79 641.6 387.37 639.86 387.73 638.89 388.48 638.63 389.82 635.9 391 636.48 392.06 635.56 392.55 633.68 394.29 632.84 394.47 630.62 396.5 628.29 397.59 626.83 398.56 626.97 399.82 627.6 400.17 629.24 402.96 629.25 403.53 627.89 405.01 631.01 407.09 630.94 407.71 629.1 410.62 626.84 411.68 624.93 409.43 623.89 410.49 623.93 413.64 623.68 415.61 622.79 415.48 621.97 414.45 622.67 412.92 621.5 411.99 619.55 412.12 618.29 413.09 617.26 414.88 617.12 416.14 615.95 417.4 614.75 416.94 613.17 414.86 613.03 413.13 613.77 412.42 612.44 411.31 611.64 411.64 607.95 411.09 606.94 410.63 606.66 411.7 602.49 411.86 601.2 412.51 600.68 413.27 602.22 414.91 603.21 416.89 602.63 420 602.61 422.45 602.17 424.72 600.69 425.06 600.43 426.88 601.31 428.43 601.43 430.4 600.62 431.95 599.47 432.76 598.55 434.7 598.52 435.7 597.65 436.42 594.67 437.06 592.89 437.01 591.76 438.86 592.07 440.07 591.77 441.18 590.63 441.79 588.06 442.12 584.4 440.79 583.74 442.15 584.56 444.52 584.13 445.19 583.82 447.47 582.46 448.3 579.03 448.98 577.29 450.11 575.72 450.45 574.21 453.06 573.55 455.59 575.32 457.08 574.52 459.06 575.67 459.82 578.03 459.3 580.1 459.36 582.11 459.98 582.75 460.79 582.77 464.16 585.19 465.13 586.79 465.05 590.03 463.31 593.17 461.9 596.57 459.81 599.04 461.73 600.02 463.52 599.71 464.96 601.06 466.71 601.75 468.17 603.54 468.62 603.99 470.36 603.62 471.22 601.08 472.84 599.19 473.57 598.15 474.37 596.52 476.79 594.26 477.2 593.26 476.38 592.93 474.31 587.4 473.04 583.62 474.23 581.9 474.41 578.36 475.6 577.12 475.84 574.51 477.44 573.22 478.89 572.84 480 573.14 480.9 576 481.68 576.37 482.39 575.12 483.2 574.03 484.4 574.57 485.63 577.17 486.08 578.79 488.98 578.74 490.82 577.98 492.36 578.95 495.03 579.13 498.45 580.96 499.33 581.47 500.47 581.07 501.54 579.54 501.93 580 503.47 582.87 504.62 584.12 506.45 582.61 507.17 582.03 508.4 580.68 509.8 580.84 510.96 582.79 514.14 582.59 515.89 582.88 516.96 582.53 518.08 582.83 519.2 584.06 520.97 583.85 521.81 582.65 522.28 580.96 521.86 577.62 521.43 576.02 520.5 574.76 518.23 573.89 517.71 571.75 517.62 570.28 516.45 569.22 516.63 568.17 517.94 567.83 518.98 566.3 520.58 566.99 523.68 568.91 524.11 570.19 525.16 571.45 526.93 571.38 528.66 570.07 528.52 567.74 529.12 566.76 530.23 565.9 534.32 562.91 535.62 560.95 538 561.38 539.78 561.46 541.77 559.22 543.48 559.37 544.56 560.19 546.1 558.5 547.53 556.09 546.65 555.55 547.66 555.3 549.43 554.62 550.6 554.57 552.92 553.21 553.22 550.47 553.28 549.32 552.97 548.6 553.47 548.85 554.67 548.88 557.42 548.09 558.51 547.71 561.99 548.61 562.99 552.2 565.02 555.71 565.99 557.32 565.84 558.2 566.85 557.47 568.14 557.65 568.82 559.05 570.17 562.27 570.13 563.88 570.8 563.84 572.05 563 573.65 560.74 573.59 559.89 574.17 559.5 576.38 559.82 578.71 561.6 579.48 563.71 579.53 566.15 579.02 568.12 579.27 568.69 579.73 568.61 581.7 568.01 583.18 565.76 585.8 565.21 587.73 565.75 589.54 566.79 591.34 567.33 594.57 567.68 595.52 567.11 597 564.15 599.06 563.12 600.5 561.62 601.58 561.04 602.42 560.59 606.1 559.47 609.18 558.08 609.58 555.2 610.98 551.24 614.05 550.09 614.17 549.12 612.2 548.2 611.57 546.63 611.89 544.31 611.99 542.32 611.35 541.58 609.25 540.89 608.9 539.22 608.97 538.24 610.24 538.18 611.54 534.85 614 533.29 616.07 532.04 618.42 530.05 619.37 528.77 619.5 527.11 620.61 526.29 621.6 526.2 623.43 525.03 626.4 524.46 629.22 524.56 630.88 523.96 631.95 525.14 632.98 526.49 633.38 528.9 635.21 529.73 634.45 530.65 634.63 531.03 636.37 530.9 637.93 531.4 641.01 530.41 642.68 528.67 642.83 526.69 643.69 524.4 643.58 523.4 643.91 521.78 648.22 520.43 649.59 519.46 649.49 518.69 648.34 516.12 648.47 514.91 648.97 514.23 649.81 513.38 652.09 512.22 652.41 511.65 649.69 510.3 648.97 508.25 649.03 508.21 649.92 508.96 651.07 506.48 651.19 506.35 651.72 507.56 653.95 510.96 655.52 511.73 656.42 513.19 659.53 514.7 661.73 515.03 663 514.17 663.53 510.75 664.9 510.21 665.57 510.12 667 510.6 668.46 511.43 669.37 513.01 670.3 513.24 671.98 513.91 673.23 513.73 674.79 513.86 677.47 514.36 678.52 518.87 680.96 519.67 682.24 518.71 683.96 519.11 685.31 520.91 686.92 523.83 687.26 524.62 686.9 526.3 685.1 527.99 684.92 528.27 685.79 528.38 688.19 527.31 689.67 524.02 690.6 522.21 690.54 519.9 690.12 518.94 690.32 516.89 691.85 517.39 693.69 517.23 695.52 518.11 698.35 519.59 698.87 521.45 697.74 522.98 697.2 524.64 697.77 526.2 698.98 527.75 698.84 529.87 698.01 533.38 697.06 537.25 694.48 539.6 693.59 540.64 693.65 542.31 695 543.78 697.71 543.19 698.86 539.48 700.14 536.18 701.75 535.78 702.21 535.14 705.03 535.34 705.59 537.44 706.47 540.13 707.01 540.99 707.49 541.53 708.79 543.38 709.78 544.69 712.15 544.58 715.05 545.38 716.29 545.64 718.17 545.31 719.91 544.63 720.75 542.28 721.91 541.56 722.63 539.11 728.29 538.43 729.17 536.79 734.74 536.25 735.51 534.79 735.75 535.39 734.17 534.79 733.21 533.58 732.96 532.24 733.33 532 735.02 530.1 735.08 527.99 733.98 527.26 732.49 525.35 731.53 523.74 729.92 522.52 727.43 521.42 726.75 518.26 726.98 516.24 728.3 514.9 728.7 513.13 728.59 510.53 727.93 506.05 727.79 504.63 729.05 503.1 729.73 500.01 730.18 495.48 730.03 493.57 730.64 492.53 732.77 492.83 733.66 494.1 734.32 497.78 737.06 498.54 738.79 498.76 740.17 500.62 742.39 504.3 742.67 505.23 743.65 506.32 745.57 506.12 748.2 505.1 749.64 503.77 750.69 503.62 751.69 504.31 752.56 506.78 753.37 507.62 754.03 507.44 755.51 505.1 758.18 499.45 761.99 497.86 762.72 495.79 762.87 494.45 763.27 492.86 764.81 490.82 767.37 489.45 768.3 485.69 769.57 484.03 769.95 480.25 772.6 479.15 774.07 479.07 777.33 479.68 780.26 481.4 781.24 481.39 785.04 481.78 788.1 482.19 789.25 482.41 791.36 483.79 795.65 483.01 796.65 480.2 796.95 478.47 797.8 475.35 801.58 474.38 802.43 474.49 804.48 473.42 805.03 473.53 807.53 472.75 809.96 471.65 810.84 469.81 813.72 467.67 815.93 464.95 816.04 462.14 816.76 461.55 817.81 460.37 818.52 459.86 819.39 458.81 819.71 458.7 820.78 457.39 820.77 456.36 818.99 454.86 817.99 452.86 815.57 452.05 813.21 450.59 812.43 445.58 814.44 444.33 814.31 443.31 812.14 442.09 811.09 440.07 811.46 438.09 813.47 436.96 813.97 433.84 813.95 432.83 812.84 430.89 812.21 426.46 811.74 425.3 812.08 426.04 814.01 425.85 815.32 424.68 817.04 424.6 817.69 425.47 819.9 426.63 821.05 427.98 822.92 429.19 824.16 429.96 824.37 430.87 825.66 431.62 829.72 432.26 831.93 433.83 834.94 434.54 837.43 435.71 839.3 437.83 840.94 438.3 842.15 438.07 843.54 436.65 845.13 433.73 847.39 431.66 848.2 431.16 850.53 430.24 852.25 430.56 854.08 430.35 855.14 429.51 856.31 426.41 858.02 425.31 859.59 425.53 860.37 426.79 861.35 430.82 861.85 430.95 862.71 428.33 864.74 427.1 865.94 423.99 871.01 421.78 872.28 420.67 873.24 417.97 873.66 416.7 874.24 415.61 874.1 414.67 869.99 413.34 870.49 412.3 871.96 411.36 875.37 410.27 878.53 409.16 880.89 411.37 884.3 416.56 890.38 418.7 891.4 420.99 891.94 422.94 893.69 422.89 894.73 422.03 895.81 418.44 897.18 415.83 900.01 412.69 902.72 409.4 905.06 405.94 906.58 404.76 907.36 401.91 908.35 400.34 908.3 400.7 905.58 399.54 904.85 397.34 902.16 395.68 902.13 393.97 902.93 391.57 902.94 390.98 904.35 392.3 905.73 394.94 907.01 396.08 907.89 396.49 909.63 395.68 911.05 393.21 913.47 392.19 915.24 392.48 916.11 394.58 918.87 396.17 922.51 397.22 924.3 398.27 925.05 402.55 925.94 404.35 926.99 407.25 928.33 410.77 931.79 413.59 933.55 414.67 935.37 416.44 937.3 419.58 939.53 421.91 941.66 420.93 946.54 420.14 947.4 417.78 947.98 415.89 947.24 411.45 944.47 408.61 943.28 405.48 943.21 399.04 941.99 397.75 941.58 394.26 941.55 391.64 940.74 389.52 938.7 389.75 936.54 390.31 933.99 389.55 931.49 388.59 930.43 387.06 929.48 385.22 928.94 382.3 929.24 377.66 931.38 374.17 933.99 372.78 934.44 369.83 934.2 367.28 934.49 361.41 933.47 357.42 933.6 356.6 935.01 355.04 935.86 353.16 935.65 351.6 935.08 349.57 935.05 348.99 935.38 348.49 936.83 348.27 939.24 349.06 941.82 350.25 942.49 352.06 944.07 353.33 945.6 354.03 947.82 354.25 949.68 354.89 952.08 355.88 953.87 355.96 955.32 355.47 956.35 354.31 956.84 350.37 956.8 345.07 955.7 340.81 955.86 337.5 955.45 334.09 954.38 332.52 954.45 330.88 955.77 330.66 958.22 329.63 960.26 329.15 960.59 325.65 960.75 321.8 963.06 320.03 963.58 317.06 963.54 315.03 964.29 314.67 965.34 314.82 968.97 313.2 972 308.54 971.66 307.07 971.4 303.24 970.23 300.54 970.27 298.21 970.84 295.99 970.94 294.61 970.6 290.34 970.11 289.31 969.8 287.5 968.53 284.86 965.83 284.37 964.65 284.94 962.24 284.68 959.62 283.62 956.11 282.18 955.42 281.1 954.42 280.78 952.72 281.12 951.1 283.36 950.1 286 950.5 288.73 949.45 289.69 948.46 291.28 948.11 294.02 948.89 295.53 950.63 297.15 951.22 299.72 950.75 301.36 950.08 302.49 948.38 302.82 945.63 302.51 942.95 301.23 938.49 299.75 935.48 298.02 933.89 295.84 932.79 293.07 933.1 290.23 932.51 283.7 930.91 282.55 929.78 281.47 928.04 280.33 927.12 279.05 926.98 275.51 927.2 273.85 926.53 273.8 923.78 273.44 922.91 273.8 921.36 273.65 919.72 271.72 916.84 269.75 915.2 266.66 914.23 264.94 914.1 262.73 912.99 262.2 911.63 261.68 908.53 260.79 906.16 258 904.05 255.93 901.43 255.09 900.71 256.18 897.06 256.74 893.58 258.06 890.75 259.39 889.38 260.6 888.89 263.53 889.44 266.01 890.85 267.01 892.43 268.32 891.42 267.91 889.63 266.77 888.1 265.96 885.15 265.24 883.33 264.84 880.36 263.64 879.96 261.31 880.56 259.26 881.55 257.64 880.3 257.77 879.3 259.01 878.26 260.64 877.41 262.23 876.18 262.8 876.25 264.95 877.91 266.93 880.29 268.37 881.22 269.52 882.62 271.44 883.85 274.72 886.32 275.96 888.18 276.33 889.53 278.08 890.45 280.44 890.82 281.76 889.75 282.92 887.66 284.39 885.97 285.09 884.7 285.18 882.83 284.67 881.41 282.56 878.82 280.03 876.95 277.04 876.81 274.56 875.57 273.16 873.53 273.24 872.52 274.88 870.85 275.91 870.27 277.47 866.9 274.97 864.17 273.44 863.68 269.32 863.34 268.7 862.31 267.86 861.98 266.66 862.43 265.23 861.63 267.35 859.76 266.45 859 265.22 860.56 264.1 860.4 263.71 857.87 262.42 857.05 261.64 854.86 262.08 853.87 261.78 852.86 260.53 851.67 260.93 850.87 262.99 850.66 262.16 849.4 262.47 848.49 263.98 848.1 263.9 847.35 262.01 846.6 262.14 845.7 263.61 845.08 266.29 841.72 266.79 839.6 266.28 838.19 265.52 838.13 263.48 838.98 262.48 837.9 261.2 837.78 262.96 833.29 262.55 830.56 261.28 828.67 260.09 827.68 260.2 825.76 259.54 825.7 258.29 827.37 255.93 827.52 254.75 828.24 254.76 830.12 253.51 830.61 253.82 828.96 253.54 828.06 251.86 827.26 250.05 827.1 250.38 828.97 249.17 828.58 248.14 829.25 246.99 828.8 245.79 827.7 244.35 828.07 243.24 827.74 243.29 826.44 241.02 827.15 239.01 825.58 235.74 824.08 233.53 822.61 232.09 822.74 228.44 822.25 227.24 820.52 226.73 817.9 226.03 817.51 223.48 817.94 223.04 820.71 222.4 821.61 221.39 822.01 219.59 821.45 219.54 820.2 221.36 818.52 226.15 813.46 228.08 812.37 232.77 811.28 236.68 809.56 241.57 809.14 246.08 808.51 250.69 808.37 252.4 807.76 253.08 806.93 253.99 802.72 255.07 800.66 256.85 796.27 257.82 791.27 257.16 790.11 255.83 789.42 253.16 789.14 250.88 788.61 248.86 788.62 244.18 788.14 240.35 788.1 236.22 788.23 233.5 786.88 232.14 785.4 229.37 784.04 225.1 779.41 222.82 775.96 220.45 773.67 220.27 772.59 225.08 767.73 226.57 766.63 227.13 765.2 226.01 763.48 226.18 760.9 228.41 760.72 231.28 761.23 234.7 760.09 235.43 758.05 233.71 753.38 228.58 749.86 223.07 748.93 222.38 749.59 219.08 749.63 216.12 750.59 214.84 751.37 209.58 753.7 202.17 758.74 200.75 758.44 198.85 756.36 196.23 754.93 196.7 753.2 199.71 751.37 200.54 749.21 201.67 747.07 200.49 742.49 200.72 739.59 200.57 738.8 199.04 736.19 198.21 734.27 195.75 733.23 195.17 732.69 194.68 730.85 193.54 729.85 192.2 728.09 191.8 727.09 186.75 726.44 185.07 726.66 183.52 727.41 183.37 728.27 185.21 730.9 185.92 732.68 186.49 735.4 187.4 737.57 187.46 739.78 189.32 742.45 190.51 745.81 190.47 746.85 189.71 747.57 185.64 748.51 184.1 749.88 181.18 749.13 179.54 749.28 178.4 748.98 174.78 744.89 172.14 742.38 170.31 740.98 165.3 738.14 161.08 737.12 159.56 736.29 158.77 734.95 156.76 734.92 154.47 735.33 152.51 734.82 152.82 738.13 154.18 739.57 157.94 741.42 159.6 743.66 161.36 745.58 163.09 748.25 163.79 750.51 163.44 751.62 161.97 752.18 160.58 752 157.36 749.84 154.61 748.99 153.69 748.25 151.39 747.48 145.85 748.15 145.14 750.25 145.67 751.57 147.32 753.37 148.86 754.65 151.55 757.28 153.01 758.99 152.73 760.5 151.62 760.95 147.73 761.12 143.3 759.91 141.46 759.62 136.79 760.31 132.25 760.44 131.42 760.72 130.96 763.42 132.2 765.31 133.81 766.44 135.28 767.99 135.31 768.7 134.5 770.21 134.83 771.24 136.74 772.27 136.88 772.85 135.33 774.41 132.37 775.33 128.94 775.28 128.02 775.52 124.46 778.36 120.9 781.91 118.11 782.54 117.13 781.54 116.55 778.88 114.99 777.92 113.87 778.27 112.61 779.19 111.59 780.63 110.33 781.76 108.89 782.41 107.75 782.36 107.36 781.63 107.54 779.42 107.39 777.25 105.56 773.13 105.67 771.18 108 769.27 106.95 767.17 105.53 766.2 106.03 765.19 107.77 765.77 108.59 764.96 108.96 763.68 108.77 760.01 109.55 758.95 110.91 758.94 115.52 758.29 117.11 757.44 118.75 755.48 117.87 753.68 115.79 753.16 114.47 752.39 114.24 750.69 114.79 750.31 117.32 749.74 117.41 748.6 114.69 747.7 112.46 746.54 108.27 745.78 107.22 744.38 105.14 742.63 103.35 742.23 101.44 741.32 100 741.56 100.65 743.93 99.67 744.42 97.62 744.8 95.55 745.49 94.89 745.33 91.9 743.56 89.67 744.18 87.91 743.47 84.67 743.21 83.08 743.97 80.35 744.16 78.97 743.55 77.09 741.3 79.37 739.09 81.19 736.86 81.73 734.55 81.53 733.24 79.53 732.06 77.57 729.3 75.22 729.24 72.72 730.25 69.68 732.41 69.15 733.39 66.75 733.9 62.98 732.43 60.7 732.66 59.27 731.64 57.85 731.12 57.53 729.91 56.39 727.77 57.07 727.14 59.33 726.33 61.48 724.46 63.02 722.74 63.3 721.92 62.87 720.27 62.16 719.58 60.1 718.62 59.83 717.66 60.65 715.88 61.94 715.27 62.61 714.28 62.61 712.06 62.08 710.17 60.68 706.97 61.66 705.65 60.97 704.82 63.39 702.18 62.01 701.58 59.02 700.75 56.83 698.76 54.91 697.41 54.56 696.36 53.25 695.07 51.44 694.27 51.29 691.74 50.09 689.97 50.04 688.84 48.69 686.92 49.48 685.88 48.96 685.43 47.46 685.82 45.35 685.02 42.11 682.95 40.73 682.71 39.6 680.52 40.23 675.04 40.07 673.96 38.87 672.7 38.59 671.79 36.92 668.76 35.93 667.33 36.43 664.01 35.85 661.97 35.72 660.36 35.9 656.29 36.66 654.89 35.85 654.04 36.87 653.28 35.96 651.32 36.84 650.95 36.63 648.94 37.22 647.95 35.13 647.21 34.48 646.53 34.39 643.88 34.79 642.58 38.61 639.65 40.51 639.55 42.35 638.36 40.93 637.06 40.86 635.67 37.78 631.56 37.29 630.02 37.32 628.65 38.1 627.41 38.09 625.14 34.99 621.36 34.22 619.97 32.59 617.82 28.3 616.4 27.18 615.78 25.61 615.6 23.65 614.75 22.75 613.36 20.98 612.27 19.73 610.98 17.66 610.31 16.9 609.52 15.76 605.5 14.4 603.55 14.2 600.58 14.51 599.36 13.56 597.45 13.35 596.1 12.17 593.82 12.53 591.11 10.89 589.78 8.05 585.84 7.76 584.97 7.89 581.8 8.43 578.97 9.15 577.26 9.07 575.18 10.2 574.67 12.55 574.69 13.43 574.33 14.51 571.25 15.81 569.99 16.26 568.38 18.98 565.5 19.37 563.83 18.64 561.68 19.03 560.94 18.86 559.25 19.8 556.62 21.57 555.4 22.4 552.43 26.61 549.65 27.29 547.65 27.94 547.04 27.19 545.24 26.87 543.24 27.67 542.67 28.44 540.78 28.49 539.75 27.47 538.12 26.5 537.82 23.73 535.44 20.44 533.02 19.79 531.81 20.55 531.42 19.57 530.37 19.79 529.08 18.19 528.36 18.85 524.56 22.33 520.45 23.93 517.91 24.54 516.49 24.22 515.44 24.6 513.6 25.6 512.18 24.11 510.71 23.93 510.02 25.5 508.94 24.6 507.29 24.03 505.13 24.32 503.09 24.18 500.98 23.18 498.78 23.09 496.83 22.36 495.12 23.29 491.59 23.03 489.18 22.68 488.23 21.02 487.2 19.61 484.26 20.28 482.27 21.16 480.8 21.94 478.54 22.01 477.39 20.45 474.69 18.11 473.98 16.99 474.15 12.05 475.52 13.54 472.46 15.09 471.01 18.51 470.97 20.28 469.55 20.71 467.62 20.58 466.08 18.66 463.68 15.31 461.07 14.19 460.7 11.19 460.43 9.8 459.96 7.35 458.05 4.22 454.59 2.94 451.47 2.78 447.48 3.15 445.94 4.39 442.68 4.54 441.03 4.15 439.31 1.44 434.38 1 432.69 1.18 431.6 2.55 430.6 4.65 430.13 6.16 429 7.58 426.41 8.13 426.02 11.14 425.78 13.48 425.94 16.02 424.32 16.24 422.78 14.17 420.79 12.98 417.96 13.41 415.39 14.57 413.89 16.1 413.1 18.04 412.54 19.09 411.73 20.32 406.47 19.79 405.28 19.81 403.67 23.01 400.09 24.01 399.5 29.02 397.67 30.64 396.8 33.51 394.76 34.88 393.35 38.05 391.46 39.56 389.4 40.33 386.4 41.84 384.64 44.17 382.51 44.18 380.43 43.71 378.86 42.66 376.97 42.81 375.55 43.32 375.08 46.28 373.75 48.09 368.93 47.95 367.71 46.5 364.53 46.31 363.29 46.8 362.1 48.04 360.64 48.49 359.41 48.32 357.04 48.78 355.92 50.48 354.64 52.1 353.81 57.46 351.99 58.51 350.98 58.21 345.95 58.69 344.21 59.76 343.3 64.04 341.86 66.29 340.15 67.3 338.68 69.43 332.83 69.22 331.16 67.91 329.22 66.84 325.93 66.32 323.37 66.57 319.54 67.92 314.03 68.77 312 70.5 310.23 73.31 308.32 75.09 306.73 77.14 305.27 79.28 303.19 81.04 299.51 83.4 295.34 84.65 294.02 88.24 291.28 91.45 289.99 94.14 288.23 94.47 285 96.09 283.07 101.74 273.28 103.91 270.16 106.01 269.02 107.81 269.15 114.35 270.69 115.9 270.14 116.31 268.28 117.11 267.18 118.92 267.99 120.18 268.14 120.43 266.88 119.84 265.69 117.98 263.32 117.2 259.89 116.09 256.13 116.18 252.49 115.69 251.43 114.09 249.2 112.13 247.85 144.1 234.69 144.04 233.49 146.25 229.5 146.84 227.84 148.13 225.58 148.04 222.49 146.44 221.96 143.71 220.55 142.25 220.32 141 218.79 140.22 218.33 140.14 217.32 138.6 215.83 136.14 215.36 134.61 212.48 132.47 212.13 130.94 211.53 127.98 211.3 126.36 209.05 124.94 207.98 123.36 207.51 122.39 206.84 120.16 206.21 118.61 206.31 117.7 205.61 116.76 203.87 115.09 202.71 115.11 201.88 113.54 202.04 110.54 199.6 109.04 197.57 108.02 196.97 106.02 196.77 103.43 195.1 102.58 196.2 102.11 198.2 101.24 198.35 100.53 197.25 97.78 196.75 96.65 195.78 95.91 193.55 94.66 192.34 90.3 193.32 89.39 192.7 87.74 192.65 88.21 191.13 87.31 189.22 88.21 186.51 87 186.49 86.09 185.32 84.16 180.18 83.76 177.82 85.01 177.06 83.87 175.66 82.99 175.21 82.2 173.61 81.13 172.32 81.36 170.53 80.48 169.26 80.93 168.2 80.11 167.9 79.17 166.39 77.76 164.93 74.51 164.38 71.56 163.31 71.23 160.56 70.68 159.87 68.65 161.07 67.5 161.42 67.23 160.37 66.26 160.02 64.64 158.56 61.3 158.64 59.36 158.3 58.71 159.8 57.75 159.06 56.72 156.07 57.16 154.86 59.17 152.61 59.58 151.16 59.3 148.97 58.4 147.72 57.31 147.75 54.68 149.15 53.8 149.89 52.63 149.09 50.74 148.47 50.67 146.82 49.29 145.12 49.47 143.68 48.6 141.8 49.88 134.55 48.24 131.94 48.13 130.32 46.75 128.47 46.74 126.48 46.13 123.43 45.51 122.8 45.08 121.1 45.42 119.85 44.77 113.55 45.81 110.86 46.04 108.89 48.35 105.61 48.47 105.01 47.79 103.25 46.35 102.05 45.8 100.25 45.68 98.08 45.9 95.73 46.48 93.29 46.48 89.81 47.54 89.21 48.6 87.5 50.51 85.35 50.08 83.58 50.8 81.45 52.14 79.76 52.54 77.39 54.04 74.97 55.33 74.37 58.29 73.6 59.08 70.49 59.79 68.68 60.96 64.79 61.79 63.6 62.3 59.9 63.9 59.37 66.01 57.85 68.19 55.7 69.96 53.4 72.09 51.69 72.06 49.51 70.95 47.54 71.55 45.92 72.87 44.14 75.18 42.01 77.02 41.38 78.62 40.46 81.08 38.17 83.7 37.17 87.3 37.25 89.26 34 91.38 32.2 91.18 29.17 91.88 28.03 94.24 27.19 96.74 27.03 97.05 26.48 96.79 24.02 95.33 21.75 95.41 16.27 94.89 14.73 91.7 12.22 90.84 9.4 91.36 7.33 92.45 6.68 93.75 5.21 96.9 3.24 97.83 2.45 97.95 1 Z"/>
</g>
</svg>