<?xml version="1.0"?>
<svg xmlns="http://www.w3.org/2000/svg" version="1.2" baseProfile="tiny" width="800" height="552" viewBox="0 0 800 552" stroke-linecap="round" stroke-linejoin="round">
<g id="4209607">
<path d="M 791.29 390.64 782.78 394.81 782.83 400.26 783.99 403.72 782.89 404.24 779.89 402.6 777.85 400.77 777.26 397.89 775.88 395.94 770.66 401.25 768.87 401.82 766.65 401.13 764.74 399.83 762.75 397.45 761.28 394.49 760.39 389.57 757.36 388.05 756.09 388.73 754.82 391.69 749.25 392.11 743.9 391.92 737.83 390.87 735.61 390.98 733.35 393.08 730.92 392.73 732.3 386.87 731.97 385.51 729.5 383.35 725.16 383.37 723.53 385.56 724.07 388.43 721.01 388.93 720.49 381.62 720.74 380.09 718.91 378.79 717.23 379.36 717.09 381.69 718.14 383.22 716.23 385.66 711.1 386.65 710.14 384.73 711.86 383.72 711.19 379.95 710.27 378.81 706.46 376.57 703.73 376.58 700.47 375.19 699.58 373.79 699.43 371.17 698.19 369.64 695.53 371.03 695.28 372.66 698.28 378.27 697.41 379.99 695.28 377.82 694.17 379.95 692.48 378.85 691.1 386.55 691.95 389.44 693.89 390.78 695.7 395.89 693.65 397.56 691.44 398.18 690.05 400.54 687.59 401.04 688.68 404.3 687.13 405.42 687.87 409.7 686.19 410.6 684.94 412.21 682.26 413.16 682.49 414.91 679.18 418.63 679.24 419.82 681.04 421.34 682.14 426.01 683.55 427.4 684.3 429.39 683.35 432.18 683.27 434.4 686.54 438.42 687.03 443.54 685.85 447.99 685.12 449.28 683.84 454.8 682.6 457.64 679.87 459.37 675.5 460.78 670.43 463.53 668.54 463.72 666.03 465.83 665.44 466.96 665.45 470.7 664.15 473.19 661.98 475.88 658.24 478.08 654.96 477.02 654.16 479.11 654.4 480.56 653.08 481.32 651.25 480.06 649.95 480.31 649.05 481.89 651.26 484.41 651.29 487.11 652.9 488.65 648.09 492.7 652.93 496.06 651.8 501.74 650.01 503.23 648.25 505.88 645.05 507.36 643.73 509.01 640.7 510.06 639.56 513.01 637.49 514.51 637.76 516.59 636.29 519.46 636.33 521.29 631.97 521.8 628.75 524.42 627.84 526.77 626.48 527.21 624.33 529.4 620.52 530.31 618.22 531.84 612.89 530.93 609.25 532.98 605.55 538.04 605.29 539.67 599.48 540.87 597.3 542.77 593.81 544.57 592.26 545.98 590.35 546.48 585.52 545.43 583.23 546.48 580.05 550.68 578.16 551 577.43 549.24 574.29 546.39 572.02 546.13 560.67 539.48 559.73 540.67 556.06 541.78 551.47 540.15 543.33 539.53 538.73 540.28 536.28 544.82 534.42 546.68 532.01 548.1 527.43 548.26 524.47 547.33 520.15 542.63 516.28 539.32 513.65 538.14 509.86 540.44 507.74 540.08 505.6 538.6 501.58 533.95 496.79 532.36 492.91 531.84 489.81 534.57 488.11 537.77 485.94 537.41 483.55 533.82 481.64 533.55 479.33 531.63 475.86 530.79 471.79 529.42 471 528.12 468.17 527.08 466.27 527.47 464.5 528.98 460.78 529.35 456.07 528.42 452.76 527.15 450.64 524.95 449.66 522.39 444.62 520.96 442.58 520.82 440.37 519.74 437.45 516.86 436.58 514.16 435.16 513.77 432.19 514.05 430.64 513.53 429.53 511.4 428.22 510.64 425.92 510.65 421.59 509.89 417.16 508.58 414.34 506.47 413.8 504.78 414.26 503.25 409.85 500.17 404.35 500.2 403.45 499.16 402.97 494.31 402.17 494 398.33 490.07 392.04 490.2 389.12 489.7 384.37 486.44 378.53 485.61 376.2 484.52 374.86 482.52 372.46 477.63 369.63 476.71 364.29 479.01 362.5 477.64 361.61 476.03 358.15 474.84 358.81 472.87 358.21 471.98 355.59 471.8 353.99 467 352 465.84 348.45 467.98 347.01 468 344.64 465.68 344.29 463.72 345.77 460.77 343.61 458.86 338.31 457.67 336.49 458.87 335.6 460.82 332.06 462.55 330.67 465.27 328.19 465.78 327.47 464.11 321.53 466.09 318.87 468.97 315.34 470.59 314.23 473.09 314.01 475.23 311.51 478.25 309.74 478.62 307.16 476.93 301.82 472.7 300.06 471.72 290.37 470.88 288.31 469.26 285.22 470.9 281.29 471.63 278.18 474.66 275.6 475.04 273.09 474.68 272.35 473.47 271.96 469.87 268 468.11 264.05 467.83 260.39 468.34 258.12 467.58 254.33 464.03 250.61 464.7 245.48 462.5 240.67 462.54 236.64 462.06 233.57 459.55 232.65 459.29 227.77 459.83 224.23 459.42 218.93 457.31 217.35 457.39 214.6 460.42 211.44 462.53 207.68 464.11 205.17 463.01 198.15 459.26 196.12 458.54 191.49 457.83 189.27 458 187.13 459.11 185.35 461.49 179.77 461.51 176.38 459.78 173.8 459.19 170.34 455.96 165.09 454.63 161.72 454.66 158.11 456.92 156.15 458.97 152.51 458.87 148.65 459.41 137.24 462.14 133.64 463.67 125.57 464.82 124.12 464.58 120 462.11 119.21 460.01 115.72 456.58 113.84 455.31 114.68 453.92 112.84 452.38 109.54 452.93 114.81 448.2 114.99 446.68 113.99 445.04 114.16 442.02 113.07 441.34 110.93 438.6 110.26 436.91 110.03 433.08 107.6 430.64 107.9 434.06 106.65 437.81 102.98 438.79 101.82 441.27 99.38 442.55 102.19 447.58 100.8 449.6 96.41 449.04 94.12 449.15 92.35 450.02 87.93 449.04 86.17 447.58 85.31 448.48 87.45 452.87 87.26 454.82 86.13 456.63 82.23 456.66 78.07 455.09 75.78 454.97 74.05 455.88 70.45 456.89 66.17 462.41 63.02 464.4 60.02 468.15 59.27 469.84 57.55 470.69 56 469.66 55.96 466.58 57.77 464.74 58.78 460.08 58.48 455.88 55.78 453.66 54.43 450.92 50.52 452.5 49.1 452.31 47.26 450.44 43.62 449.64 40.24 448.37 34.69 448.37 31.95 448.64 30.75 449.34 22.38 449.19 24.78 446.83 25.47 443.59 27.9 442.43 32.4 435.94 32 432.57 32.1 429.44 28.57 426.17 28.69 423.13 29.89 420.92 33.75 419.15 30.65 412.26 30.6 409.73 29.66 407.74 26.37 406.81 25.38 405.48 22.83 405.54 21.48 403.76 18.11 401.89 14.92 396.38 13.64 390.93 12.63 390.46 9.66 391.81 8.65 387.23 2.01 385.28 1.44 383.89 6.32 381.98 2.53 379.5 1 377.45 3.85 377.02 4.37 377.81 10.75 378.03 12.78 376.91 10.79 375.22 11.72 373.08 14.58 373.04 15.63 371.76 15.4 369.47 16.34 367.18 17.47 367.22 19.53 369.51 23.28 370.37 26.96 369.51 28.38 368.08 31.42 367.71 30.75 365.23 31.09 363.84 33.79 362.75 36.08 361.21 35.33 359.22 36.49 357.49 37.92 356.89 39.15 354.79 41.97 353.66 42.94 352.12 45.98 350.1 50.26 347.73 53.68 344.61 58.44 342.77 59.27 341.73 61.22 341.83 61.97 346.87 63.66 346.75 64.03 344.2 64.97 342.81 67.11 341.8 70.19 341.35 70.79 340.37 74.19 339.09 77.35 338.72 79.15 335.49 79.75 331.58 79.64 329.67 78.25 326.29 72.14 326.85 69.58 327.9 65.16 331.28 63.88 331.43 62.04 329.48 60.05 331.28 58.44 331.47 57.39 330.12 55.55 329.89 50.49 332 49.92 331.43 51.16 328.5 52.47 327.19 53.45 324.97 57.69 319.68 57.6 316.58 61.1 313.86 61.91 311.44 63.47 309.95 63.15 307.98 63.88 306.16 62.7 303.63 64.24 299.42 63.19 298.18 62.81 295.28 67.73 296.04 71.29 297.75 73.47 298.37 75.81 295.8 77.15 295.06 78.98 291.65 81.95 289.68 80.97 288.27 79.47 287.97 75.33 288.21 74.44 287.18 70.82 285.96 71.4 284.74 73.73 283.69 79.51 279.65 79.42 276.61 80.4 274.86 83.19 273.57 85.18 271.13 86.17 268.82 83.66 267.33 77.88 271.37 75.91 271.43 71.78 273.25 66.55 276.2 63.3 278.69 63.07 274.73 61.07 274.86 56.13 277.36 55.48 277.12 54.93 273.38 54.99 268.87 55.89 266.81 55.19 262.9 52.59 262.45 49.79 260.5 48.4 257.68 52.02 255.19 53.07 252.52 48.76 249.89 48.18 249.11 45.61 248.65 41.41 251.62 40.2 253.83 38.4 253.57 39.41 248.86 37.73 244.6 37.92 240.54 35.22 239.14 34.04 237.94 29.22 236.18 31 233.78 35.58 231.06 42.67 227.79 43.85 226.12 47.23 223.93 47.69 222.99 52.19 221.5 57.33 216.99 58.62 214.91 57.99 212.36 57.92 206.26 59.43 204.23 51.66 201.93 48.63 201.44 50.54 199.58 51.78 195.82 53.66 195.22 54.78 193.11 54.66 186.15 58.68 183.61 59.1 182.43 57.54 181.29 53.56 179.77 48.93 177.48 49.54 175.62 52.72 174.1 55.87 171.86 55.18 168.97 60.49 166.79 63.86 166.92 65.76 166.13 68.4 165.98 70.9 166.53 73.67 165.72 74.91 164.75 78.82 165.83 82.21 164.73 82.68 160.5 83.66 159.86 88.61 160.24 93.37 159 95.61 159.49 99.34 159.45 101.89 160.3 106.09 160.76 109.34 161.72 110.63 159.94 112.66 159.8 115.85 157.87 117.37 156.23 117.48 154.95 119.68 152.01 121.87 150.69 124.13 147.83 124.9 144.95 126.69 142.49 127.07 139.57 124.07 139.7 118.96 138.93 117.31 136.83 114.69 136.26 114.22 134.03 113.24 133.13 110.65 133.13 106.71 134.78 104.65 137.07 102.08 136.69 99.02 135.27 87.8 136.66 84.88 137.56 79.58 139.74 77.77 140.01 74.85 141.79 74.4 140.78 80.59 137.15 86.98 132.6 82.99 129.79 85.99 128.04 89.54 127.73 90.45 126.63 90.02 124.21 91.12 123.45 95.14 122.85 97.59 120.5 97.36 115.01 95.1 112.37 94.03 108.98 95.59 106.87 96.68 106.95 99.17 109.87 105.29 111.42 102.87 105.33 103.15 104.12 105.61 102.96 107.24 103.2 107.32 100.92 109.21 98.26 111.97 97.29 110.4 96.17 108.53 92.9 108.33 91.27 110.59 89.56 109.85 86.81 106.96 83.55 107.34 82.55 110.79 78.64 113.02 77.39 116.23 77.25 117.65 75.68 114.05 72.36 113.84 68.12 112.89 66.44 115.29 63.37 114.23 61.17 109.98 54.59 115.76 53.22 114.35 50.91 114.54 47.68 116.73 44.95 117.28 43.14 120.23 40.58 120.18 39.08 115.18 36.77 112.72 37.2 109.92 35.85 110.81 33.89 113.11 30.9 114.04 28.79 114.44 25.58 117.57 23.4 119.38 22.93 119.19 20.57 115.47 19.11 114.28 16.37 115.75 15.66 119.09 15.83 118.58 13.61 119.34 11.65 120.92 11.35 121.71 9.78 123.63 10.14 124.66 9.24 126.13 11.57 126.24 12.83 130.45 11.18 131.96 11.5 133.65 14.11 135.44 12.64 138.28 12.53 142.79 17.55 145.45 16.97 148.97 17.38 149.74 14.3 151.34 11.97 154.49 9.86 158.18 8.07 164.09 4.62 166.47 3.55 170.57 2.78 175.2 1.35 183.76 1 184.59 2.24 187.44 2.39 194.49 4.68 197.55 6.08 199.33 6.14 202.12 7.39 207.44 10.87 211.87 11.16 215.4 15.18 216.36 15.42 219.71 14.52 221.64 12.98 222.62 9.38 223.72 7.98 228.03 4.38 229.79 4.09 230.71 5.1 235.67 5.84 239.38 5.48 244.86 3.57 248.09 5.07 252.46 9.94 256.5 10.12 259.68 8.37 263.48 8.07 270.7 5.45 272.84 5.19 277.21 5.93 281.09 3.55 283.37 2.68 288.23 2.64 291.65 5.29 293.39 8.94 295.98 10.01 298.47 13.61 301.86 15.35 307.95 17.68 314.2 19.12 315.6 20.5 318.01 20.93 323.14 20.46 326.62 21.61 328.32 23.05 330.39 22.74 335.24 26.33 335.46 28.45 337.99 29.15 340.29 30.74 341.82 30.85 345.17 33.36 349.09 37.43 352.98 42.2 354.14 44.59 355.32 44.89 358.08 48.44 359.37 49.06 361.85 48.34 362.48 49.64 364.82 49.51 369.51 53.65 369.04 57.39 371.5 58.57 373.48 60.85 375.88 59.84 380.59 60.03 383.41 61.15 385.34 61.3 388.39 59.42 390.61 62.13 393.25 63.31 399.64 63.6 401.37 62.63 402.72 62.84 404.74 64.71 409.06 66.19 411.8 66.04 412.98 63.6 415.49 63.17 418.38 61.5 420.99 61.34 424.13 58.61 426.84 58.77 427.65 56.67 429.48 54.59 432.5 52.8 434.83 53.35 436.51 52.82 440.14 50.7 442.13 48.94 447.79 47.03 452.1 43.98 454.08 43.58 455.91 44.14 457.8 42.8 459.94 42.94 463.3 44.09 468.22 46.44 470.77 46.16 472.29 46.6 474.91 50.68 480.58 49.94 483.31 52.6 486.09 52.81 487.19 50.83 489.98 51.91 492.05 53.62 490.67 56.41 492.58 58.59 497.13 61.06 501.37 60.47 503.16 62.02 503.68 65.22 505 64.98 504.66 61.74 506.7 61.23 509.35 61.97 511.08 63.98 511.64 67.25 512.88 71.35 512.25 74.8 512.82 75.94 515.05 75.04 514.84 79.62 516.24 80.66 519.66 79.56 525.73 80.9 528.27 82.8 530.06 85.46 533.14 85.93 534.91 87.02 537.43 87.18 537.93 85.43 542.24 87.4 544.86 89.02 545.43 90.97 544.26 92.06 542.25 90.51 541.41 91.71 543.51 93.19 545.47 93.61 546.93 95.69 544.47 96.92 545.84 99.33 547.52 99.79 549.07 97.38 550.28 100.41 549.37 101.27 543.36 103.93 543.85 104.93 545.92 105.82 546.59 107.23 551.23 108.83 553.34 108.81 553.58 104.93 555.61 105.08 555.84 107.57 557.86 109.09 560.15 112.12 561.27 112.64 563.37 112.1 561.26 108.92 562.7 103.9 564.59 104.43 565.22 106.46 567.34 106.68 569.88 105.4 571.79 103.76 572.87 104.45 577.38 105.45 581.49 107.51 583.46 107.86 584.51 108.98 580.51 114.17 581.3 115.18 583.66 115.3 585.66 113.57 588.13 114.13 587.68 111.59 589.96 110.66 590.96 112.48 593.1 114.09 596.55 114.54 599.83 112.77 601.09 115.32 599.53 118.91 601.39 119.89 603.92 119.3 606.07 116.67 609.69 117.4 610.15 116.87 609.5 113.17 612.85 112.07 617.39 112.41 620.45 112.28 621.48 112.74 623.33 116.02 626.96 118.29 628.17 119.53 629.93 119.07 635.47 119.15 634.49 121.99 637.48 124.79 641.53 124.68 645.67 125.59 647.23 131.56 648.18 133.42 649.98 134.51 648.81 136.13 652.8 136.36 652.71 134.03 654.73 131.65 651.71 129.94 652.33 127.53 653.35 127.36 655.99 128.62 657.2 128.28 656.7 124.73 658.86 122.46 660.31 122.71 663.48 122.04 668.14 122.58 671.82 123.85 676.19 124.59 682.35 127.1 683.44 127.26 687.58 126.19 688.92 125.35 696.21 127.34 700.94 126.39 702.87 128.21 704.19 127.79 705.67 128.75 706.62 130.53 706.29 131.9 708.39 132.32 708.61 135.75 709.88 137.71 711.98 138.16 713.72 136.81 715.16 137.92 714.83 141.29 715.95 144.43 715.01 146.96 714.64 149.67 712.15 154.37 711.47 157.73 708.21 157.99 707.61 158.75 709.62 162.62 709.64 166.11 710.18 167.08 713.59 167.62 715.88 166.58 717.67 166.95 718.31 169.03 720 170.44 723.44 171.69 726.32 174.19 726.23 177.85 725.06 178.14 720.01 175.67 718.02 176.58 717.73 180.04 719.57 184.26 718.2 186.98 716.93 188.09 713.1 189.28 714.12 192.94 713 195.89 712.08 196.88 711.62 199.49 712.87 203.51 716.69 205.38 718.06 206.78 719.61 210.12 721.2 211.89 722.97 212.06 726.21 211.01 728.72 209.34 732.18 209.11 734.78 208.31 735.79 205.6 738.27 204.96 741.9 205.58 748.11 205.26 752.05 206.07 755.15 207.98 759.98 206.48 764.99 205.65 770.6 206.64 771.75 207.48 773.4 210.26 774.69 211.33 775.16 246.55 779.07 241.52 779.07 334.05 786.95 329.97 799 344.81 790.25 351.69 786.92 348.33 766.7 362.8 791.29 390.64 Z"/>
</g>
</svg>