<?xml version="1.0"?>
<svg xmlns="http://www.w3.org/2000/svg" version="1.2" baseProfile="tiny" width="800" height="1198" viewBox="0 0 800 1198" stroke-linecap="round" stroke-linejoin="round">
<g id="4209854">
<path d="M 788.39 1048.68 783.78 1047.55 780.08 1047.86 778.63 1050.27 778.96 1053.4 776.34 1057.66 775.92 1062.8 777.98 1069.61 785.27 1077.32 787.04 1080.26 787.84 1087.46 780.12 1103.52 777.75 1110.17 775.29 1112.16 774.15 1123.35 775.04 1132.94 776.07 1136.42 773.87 1143.25 770.94 1145.91 762.63 1145.86 758.98 1144.53 752.82 1139.54 750.33 1136.74 746.11 1133.99 742.77 1132.91 725.86 1131.92 717.33 1129.87 713.49 1127.52 711.65 1125.24 708.59 1117.05 708.2 1112.36 706.37 1102.1 704.64 1097.78 700.02 1091.03 694.62 1087.06 689.29 1088.93 677.36 1088.8 671.69 1089.15 664.39 1090.48 660.51 1093.49 653.23 1101.68 650.97 1106.78 648.16 1110.1 646.7 1117.81 641.65 1125.77 639.64 1129.89 638.3 1135.5 639.6 1140.52 646.34 1149.72 650.05 1152.12 652.85 1156.72 653.75 1160.34 646.59 1169.69 643.04 1171.01 637.38 1167.52 635.47 1164.81 632.19 1162.87 627.63 1161.81 617.24 1160.45 609.51 1159.91 599.77 1160.59 593.48 1162.39 588.59 1165.69 583.59 1173.26 580.43 1188.47 574.89 1194.33 571.75 1196.72 568.34 1197 563.6 1192.71 563.26 1189.71 559.38 1182.9 556.92 1180.42 549.45 1177.54 543.84 1172.77 530.28 1165.24 525.2 1163.35 516.58 1161.8 506.9 1165.93 495.37 1172.5 483.34 1174.85 477.81 1176.96 476.74 1132.46 478.16 1085.91 464.8 1059.21 464.06 1053.24 464.93 1051.78 469.14 1050.39 471.54 1045.14 470.48 1043.25 463.58 1040.44 457.84 1032.85 455.23 1031.22 449.77 1030.25 446.47 1028.66 439.96 1028.49 436.57 1026.2 439.92 1022.62 438.53 1019.63 439.33 1017.43 446.03 1012.89 464.67 1003.05 471.34 1003.74 471.93 996.33 475.45 995.22 483.72 999.27 486.03 997.65 482.7 992.48 481.48 988.76 478.46 986.23 474.19 984.92 470.46 982.72 462.59 981.06 463.97 977.74 469.62 974.95 474.06 971.52 473.6 969.58 469 968.56 466.68 970.89 464.78 969.55 466.42 966.16 469.09 957.81 471.27 956.44 473.97 957.84 477.03 961.89 478.97 960.74 478.42 955.62 480.54 951.7 474.76 950.49 473.72 948.24 474.45 944.24 463.72 938.8 465.22 935.73 472.96 936.01 475.01 934.35 474.62 930.07 471.73 925.1 468.54 925.42 462.04 920.11 384.01 942.93 372.08 937.17 371.88 866.03 374.19 824.77 259.44 825.51 260.31 786.87 214.93 788.58 207.79 778.32 206.13 772.93 206.21 758.63 206.85 754.97 206.2 750.44 203.24 746.57 199.03 737.38 197.7 730.87 191.18 721.29 191.98 719.36 191.17 711.69 191.16 704.22 192.17 695.8 188.08 684.01 187.77 670.56 136.68 670.4 132.32 674.51 127.57 674.98 121.08 668.47 116.96 666.83 99.1 666.79 93.24 662.48 87.29 659.8 84.69 659.4 72.9 659.8 69.31 661.06 65.41 664.35 56.59 668.24 55.09 669.42 52 677.05 47.77 681.96 26.87 590.87 23.41 542.46 23.9 487.99 33.89 431.92 7.07 431.54 1 389.32 63.8 368.53 124.37 327.98 74.78 254.18 52.5 242.8 62.29 225.58 68.45 217.1 64.1 213.69 71.6 203.93 87.26 186.83 58.82 165.29 91.48 122.76 87.74 119.95 93.67 111.54 92.3 105.53 93.74 100.72 96.24 96.09 96.58 93.01 101.52 94.98 103.5 94.48 103.85 89.62 101.53 87.2 101 83.94 107.83 83.58 106.75 79.41 112.68 79.99 118.55 77.69 123.68 73.4 138.13 59.43 144.63 55.07 153.52 49.78 160.28 48.69 174.11 52.66 180.1 56 188 58.71 195.19 58.41 196.78 53.56 194.39 44.64 194.1 41.14 196.71 34.89 197.54 28.15 202.16 26.46 211.8 34.35 225.96 39.71 232.33 45.37 237.84 49.34 248.89 55.41 253.39 56.21 258.3 58.22 266.37 62.55 269.29 63.01 271.3 59.49 269.06 53.66 268.89 49.75 270.23 47.09 272.92 45.61 287.76 41.69 295.12 38.58 300.42 33.7 302.88 29.09 302.83 23.91 306.12 18.28 317.37 8 323.86 4.7 328.41 4.97 332.64 8.8 332.53 11.82 325.12 23.95 323.68 27.69 323.07 32.65 324.41 36.37 328.98 44.36 332.91 48.74 336.72 55.54 338.82 60.8 339.84 71.43 341.43 78.48 344.25 87.44 347.76 93.75 352.29 104.98 355.96 110.14 358.19 111.68 362.27 111.23 369.32 107.7 374.77 106.6 382.06 106.22 384.95 107.09 389.59 112.42 393.33 114.22 396.13 113.32 397.31 109.73 399.44 107.33 404.34 107.06 410.05 111.44 418.42 115.1 425.72 116.27 432.79 114.19 435.34 112.22 440.69 105.71 441.46 102.53 440.41 97.81 437.02 93.96 433.92 86.65 431.06 81.89 430.3 78.96 422.34 66.21 422.56 61.16 427.12 59.42 435.09 60.05 441.81 59.31 449.71 57.64 457.26 57.49 461.3 58.05 469.98 63.9 484.84 78.27 498.53 94.64 501.63 95.48 505.96 91.85 510.45 85.9 518.74 77.62 523.52 72.34 525.14 69.3 525.54 63.18 523.57 52.08 522.07 49.02 514.32 38.97 510.67 33.35 512.54 30.4 515.28 30.41 527.26 34.74 536.29 37.32 540.33 37.32 544.41 35.52 549.77 24.22 553.01 18.61 555.53 10.34 556.74 8.58 560.89 8.01 567.86 10.25 576.37 17.27 576.92 22.06 573.38 25.33 564.57 30.45 564.43 32.8 566.21 35.71 568.7 37.11 579.06 38.07 588.18 39.42 590.33 40.48 597.58 46.18 600.07 48.77 609.16 51.22 614.64 49.68 619.85 45.64 627.88 42.13 630.86 40.07 633.22 35.7 637.04 31.14 635.05 27.04 635.98 23.2 646.23 13.88 648.76 8.98 650.76 6.87 659.63 1.27 665.71 1 668.31 1.64 671.82 5.18 673.23 14.22 675.11 22.19 675.57 28.69 675.15 34.78 676.15 39.75 678.44 41.36 683.04 45.6 682.6 49.24 676.82 47.85 675.91 51.4 680.12 54.6 679.3 58.59 676.99 59.39 674.43 55.76 669.87 56.75 670.2 60.67 674.17 62.55 679.66 63.84 679.2 65.38 671.12 68.35 669.43 70.88 674.95 72.17 676.51 78.64 680.99 82.98 686.98 87.21 691.08 88.72 701.37 90.72 705.2 93.73 708.73 102 714.65 102.06 717.71 104.83 716.18 106.73 717.56 115.04 719.25 115.67 725.43 126.34 727.25 127.73 729.04 132.1 731.01 133.64 734.74 139.2 736.17 143.14 736.17 147.93 740.14 153.76 744.46 161.41 743.61 168.56 744.82 170.76 742.54 172.93 744.09 174.75 742.69 179.46 744.42 184.38 743.71 189.34 744.55 195.59 746.23 198.65 746.99 204.88 746.68 212.54 749.49 218.98 749.09 223.71 754.38 229.14 759.62 232.95 762.71 236.86 764.52 243.35 765.55 249.78 710.78 257.69 712.69 262.56 719.7 267.27 723.74 273.68 725.56 275.48 727.08 281.87 727 288.62 724.93 298.11 723.8 307.06 724.02 309.48 722.74 315.8 725.27 317.98 722.27 321.92 725.14 327.03 722.14 328.98 722.35 331.67 721.05 335.83 722.85 338.49 722.26 340.46 725.09 348.46 721.43 348.74 718.27 353.6 715.45 355.23 713.12 359.03 707.22 358.8 704.89 361.02 703.24 364.53 698.82 364.59 688.92 370.96 685.3 371.76 678.44 370.42 678.33 375.66 675.92 379.54 677.19 383.97 676.82 389.74 670.08 397.96 667.87 405.76 672.22 409.73 668.91 411.77 664.8 415.88 662.68 421.36 657.3 420.16 658.15 425.67 657.4 429.21 652.66 432.19 650.88 435.01 653.3 438.76 652.53 441.44 648.93 442.31 648.13 447.84 644.71 449.68 640.55 453.87 638.69 458.22 634 463.26 638.38 464.25 640.51 463.09 647.3 464.13 649.07 465.06 650.83 468.66 654.8 471.17 660.66 469.82 665.27 471.41 667.67 471.15 676.37 472.83 681.5 475.5 688.02 474.64 699.64 475.74 705.31 475.37 707.81 474.15 715.09 474.15 718.16 513.46 715.16 517.04 713.62 523.05 715.38 530.45 712.31 534.59 711.43 542.16 709.36 546.65 709.45 551.38 707.38 555.19 704.48 556.7 706.35 562.5 708.25 563.37 720.88 557.24 730.85 554.11 737.57 554.34 743.26 555.4 748.14 561.51 755.69 569.36 756.63 572.7 758.51 574.31 770.07 572.79 778.58 579.77 776.46 581.74 775.79 585.85 773.67 589.49 774.48 594.9 773.41 603.3 774.57 611.64 773.82 617.99 772.52 621.5 769.62 624.87 764.9 632.79 763.19 637.15 761.01 639.67 756.66 647.23 753.94 650.71 751.95 654.92 749.91 664.38 756.52 683.87 757.14 695.35 758.1 703.53 756.86 708.02 758.48 713.8 762.15 720.9 764.6 729.86 765.12 749.4 763.89 755.09 763.72 760.2 765.88 770.85 771.36 785.4 771.47 795.45 769.91 802.12 766.96 809.56 766.08 813.29 766.88 820.04 766.56 835.98 764.43 845.71 764.21 850.57 765.55 853.16 769.19 856.73 768.73 864.24 758.22 865.31 757.79 866.66 763.17 871.65 764.79 874.85 767.94 872.95 769.53 876.12 772.56 878.51 772.93 880.42 768.92 887.97 763.09 891.37 762.21 899.59 764.21 907.04 764.28 914.55 757.34 919.3 757.52 921.75 764.32 920.66 769.11 922.34 775.97 925.94 778.67 928.59 778.93 930.63 775.67 933.47 767.38 936.04 766.54 937.45 770.33 942.91 770.04 950.08 771.82 952.04 777.11 950.32 778.49 946.97 784.69 945.29 786.23 946.41 787.04 952.45 786.54 957.68 784.9 959.74 782.09 960.27 779.78 962.66 779.13 965.92 783.28 975.12 783.75 978.05 782.69 983.2 784.95 985.99 788.76 988.42 791.61 993.49 797.3 997.84 798.14 999.77 797.01 1006.76 797.21 1010.14 799 1015.47 797.16 1021.08 792.08 1025.82 791.42 1028.75 789.42 1030.54 780.46 1032.95 778.14 1035.56 778.39 1037.51 783.97 1040.17 789.21 1045.23 788.39 1048.68 Z"/>
</g>
</svg>