<?xml version="1.0"?>
<svg xmlns="http://www.w3.org/2000/svg" version="1.2" baseProfile="tiny" width="800" height="1601" viewBox="0 0 800 1601" stroke-linecap="round" stroke-linejoin="round">
<g id="4209805">
<path d="M 671.48 414.39 664.29 418.16 661.62 419.16 659.84 421.18 653.31 423.45 647.53 421.11 645.12 421.03 637.68 422.1 634.74 424.29 631.27 424.68 623.74 423.02 620.89 421.46 613.14 420.41 610.75 417.81 606.6 414.78 604.14 414.22 599.55 417.8 596.99 421.43 588.91 423.79 584.31 427.64 582.02 428.38 572.05 435.01 569.78 437.78 564.23 439.85 560.08 440.5 556.17 440.4 551.89 444.63 550.64 447.83 546.78 450.14 543.37 453.41 542.57 455.92 539.34 459.37 537.49 462.84 534.37 463.5 532.13 466.94 527.35 468.38 523.63 468.76 514.99 473.44 514.24 476.21 514.62 479.37 513 482.73 515.72 485.21 516.6 487.74 521.08 490.3 526.13 493.94 526.55 496.7 529.34 499.75 532.84 502.11 534.39 504.83 534.38 508.44 535.96 518.15 538.04 522.69 540.92 525.58 543.47 529.55 545.52 530.76 545.91 532.99 544.08 537.33 542.25 539 540.52 543.84 538.53 546.24 534.39 547.25 529.95 550.85 527.77 553.84 523.35 555.32 522.43 558.82 520.97 559.77 519 564.02 517.21 566.08 515.25 566.5 511.45 564.21 509.69 564.43 507.78 567.29 509.98 573.19 509.72 575.31 506.68 577.1 502.88 577.91 501.09 579.95 500.55 583.17 503.27 589.4 508.49 597.44 511.81 603.63 515.98 605.09 517.53 609.28 520.25 611 523.22 615.22 524.67 619.94 523.72 625.43 524.58 629.6 522.42 634.19 519.23 636.47 520.14 638.08 523.16 638.54 526.11 641.8 526.27 645.22 525.1 648.1 516.25 654.38 513.09 652.9 510.02 653.24 507.39 657.66 505.41 662.24 506.37 667.18 508.05 669.52 508.63 674.78 510.14 679.93 513.28 681.47 514.28 684.53 514.08 692.1 516.26 695.66 522.92 700.71 523.43 702.69 521.12 707.77 520.42 717.32 518.9 719.31 510.16 725.36 507.33 727 499.94 726.01 497.82 727.01 495.88 730.94 492.93 733.93 492.28 738.51 489.44 740.9 494.39 745.57 495.96 754.23 495.56 755.83 496.52 760.1 499.28 764.7 504.43 768.09 507.27 772.06 509.17 773.29 514.09 773.4 518.32 775.94 522.97 775.73 526.76 776.41 528.49 777.9 524.1 784.81 522.35 785.85 517.28 786.46 512.52 788.25 502.82 793.24 500.79 796.95 497.17 797.16 494.92 800.1 495.35 802.44 499.58 808.54 500.73 809.41 501.47 814.3 496.03 815.44 493.15 816.53 492.8 818.95 494.43 821.87 494.01 823.57 490.05 827.23 486.52 828.09 478.21 827.12 476.27 828.5 474.53 833.76 469.25 836.35 464.53 839.46 462.6 843.7 456.87 847.81 452.79 853.51 449.78 855.65 447.91 858.01 444.26 859.87 443.79 862.33 441.05 864.53 439.98 866.52 436.25 866.57 433.37 868.27 428.82 869.72 421.92 870.54 418.4 868.98 413.3 868.99 409.15 868.34 408.39 870.66 415.11 874.43 416.47 875.85 415.63 877.72 407.96 878.67 406.6 881.39 407.59 884.98 409.91 888.84 410.61 892.1 409.97 896.46 405.82 903.06 400.06 903.51 394.58 904.89 393.46 906.23 393.46 910.6 396.27 916.55 396.08 919.19 393.33 922.83 393.99 927.16 393.57 930.37 391.89 935.65 391.56 939.85 392 943.05 391.03 944.88 381.43 954.42 380.2 957.98 380.68 963.29 381.73 966.38 383.31 968.04 383.29 972.4 382.36 973.82 379.06 975.42 377.06 980.87 378.07 983.59 379.01 989.37 378.05 991.52 374.95 994.73 371.68 994.99 368.91 994.21 364.99 996.95 363.12 1000.08 359.9 1003.74 359.96 1009.51 357.52 1014.81 353.28 1019.73 346.03 1024.16 341.76 1029.24 340.22 1031.81 339.46 1035.96 340.28 1041.65 339.85 1053.78 336.29 1055.28 334.27 1057.37 332.68 1062.24 332.59 1065.66 335.21 1069.09 336.19 1071.94 334.65 1074.43 327.24 1075.5 326.13 1078.19 327.37 1091.81 328.94 1094.82 336.07 1098.81 338.06 1101.48 338.93 1109.33 337.77 1115.07 338.98 1117.87 343.51 1119.45 345.82 1122.19 346.85 1127.82 345.85 1132.24 341.86 1139.85 339.03 1147.06 335.86 1149.55 335.58 1151.74 339.21 1157.08 339.05 1159.83 333.36 1170.85 330.05 1172.79 327.8 1176.3 324.91 1178.45 318.15 1185.38 315.08 1190.83 313.76 1201.29 314.49 1205.88 319.32 1218.88 321.02 1221.89 325.23 1226.4 327.98 1228.13 340.59 1233.24 347.5 1233.85 354.51 1235.75 360.73 1234.77 363.28 1235.47 368.43 1239.92 372.49 1244.48 374.04 1248.86 372.01 1254.64 370.1 1257.72 366.13 1267.34 363.76 1269.12 362.08 1271.73 361.35 1276.05 364.74 1281.18 366.45 1285 369.58 1287.26 370.38 1291.5 372.87 1297.34 374.82 1300.49 382.05 1304.99 388.08 1306.31 390.82 1311.09 390.93 1314.05 395.46 1315.98 396.94 1317.45 396.99 1321.37 398.59 1323.33 404.23 1327.05 406.74 1330.46 407.17 1334.77 408.18 1337.2 413.56 1342.83 417.09 1345.4 423.19 1347.44 426.39 1347.48 432.17 1345.44 439.58 1342.1 441.23 1342.49 447.86 1349.34 453.81 1353.79 455.7 1355.77 460.43 1362.52 460.31 1369.12 461.33 1371.98 464.03 1374.87 466.43 1379.18 472.81 1392.32 474.27 1402.19 476.66 1407.64 476.71 1410.56 478.83 1414.14 479.6 1419.71 482.06 1423.67 484.75 1425.9 487.11 1429.17 493.18 1435.49 496.83 1436.94 501.03 1433.54 505.41 1432.08 506.94 1432.27 508.84 1434.73 509.62 1437.32 509.85 1444.77 510.59 1447.65 513.67 1451.24 516.14 1452.42 517.84 1454.47 521.86 1456.71 529.67 1457.04 532.94 1460.42 536.48 1462.29 541.14 1462.44 547.53 1461.95 552.31 1464.77 558.45 1471.38 564.32 1474.37 570.32 1475.8 568.08 1477.86 566.89 1481.09 566.38 1485.48 567.57 1500.37 572.09 1505.44 578.85 1510.72 584.67 1516.43 586.17 1518.97 585.82 1522.55 584.19 1527.81 583.83 1531.41 584.34 1535.29 586.43 1537.79 591.83 1541.21 595.84 1546.43 601.5 1549.09 606.65 1552.2 607.7 1559.32 602.74 1566.28 599.01 1567.77 594.2 1570.55 591.03 1571.37 586.26 1574.52 583.77 1579.75 578.7 1585.67 572.17 1590.97 564.82 1595.58 558.18 1597.27 555.18 1595.96 552.88 1596.37 547.61 1600 542.83 1599.73 539.16 1598.54 535.69 1595.26 530.93 1593 527.84 1589.19 524.68 1588.27 518.64 1589.15 515.83 1587.89 512.39 1589.4 508 1588.17 505.9 1588.55 502.74 1591.54 497.8 1592.79 494.92 1591.75 492.64 1588.29 487.03 1586.66 484.33 1586.98 479.89 1588.75 479.46 1591.56 477.99 1594.32 475.15 1595.71 469.56 1595.85 461.75 1594.93 453.5 1590.52 451.42 1588.91 448.95 1585.57 446.8 1583.92 443.41 1582.86 439.8 1582.65 436.22 1583.42 432.04 1585.5 430.3 1587.67 429.65 1594.37 427.54 1596.31 424.17 1595.98 421.25 1594.63 416.93 1594.22 411.67 1594.51 406.1 1593.86 404.18 1592.82 400.14 1592.46 392.33 1593.29 389.32 1592.54 381.57 1588.98 378.14 1588.45 374.69 1589.29 371.17 1592.49 365.15 1595.91 353.05 1598.17 347.5 1597.68 341.29 1595.13 338.21 1592.35 330.89 1591.75 328.75 1592.81 325.6 1592.82 320.29 1590.48 313.66 1584.27 311.71 1580.47 310 1578.93 306.24 1579.06 302.4 1580.3 298.49 1579.08 291.72 1580.19 287.9 1579.14 284.83 1577.1 276.52 1575.03 269.95 1572.43 267.14 1568.38 264.28 1566.84 259.4 1565.3 252.91 1560.7 242.22 1554.67 234.32 1553.59 233.12 1552.95 230.22 1548.39 226.73 1546.75 222.25 1545.64 215.7 1542.78 213.63 1540.43 213.19 1533.81 211.88 1529.54 208.59 1522.52 208.46 1518.91 203.92 1516.67 202.6 1507.12 200.17 1500.28 199.88 1496.84 200.32 1490.08 199.2 1479.36 199.22 1473.13 199.9 1464.38 198.52 1459.59 196.23 1456.78 193.91 1452.19 191.45 1449.21 185.57 1443.86 182.16 1440.26 179.09 1438.54 171.39 1437.46 168.1 1435.2 164.93 1431 160.31 1425.9 157.75 1424.58 151.69 1422.98 148.64 1421.04 145.55 1417.3 135.92 1412 132.11 1406.72 127.08 1405.88 125.45 1403.26 123.63 1393.46 123.99 1390.47 126.34 1386.22 127.2 1379.89 125.75 1377.16 122.13 1376.46 120.79 1374.98 118.85 1368.49 118.68 1366.27 121.18 1360.5 121.85 1356.96 121.42 1354.88 117.24 1349.84 110.38 1345.65 107.1 1342.03 106.15 1339.95 106.7 1335.78 109.31 1332.73 115.02 1329.5 121.36 1319.84 122.94 1317.96 125.54 1312.9 128.75 1309.48 129.81 1307.27 129.15 1304.15 127.82 1302.61 127.68 1300.02 128.87 1292.91 128.69 1283.23 130.24 1272 132.19 1264.44 132.58 1261.06 132.02 1257.7 129.83 1255.32 125.01 1252.54 117.26 1243.68 113.72 1241.88 111.45 1242.34 107.48 1246.1 104.08 1251.24 98.67 1255.58 92.58 1257.14 87.26 1257.99 75.21 1258.48 72.76 1257.44 66.86 1249.07 60.83 1243.9 59.06 1240.53 59.39 1235.79 54.96 1225.64 54.25 1221.15 52.68 1217.75 50.3 1210.26 48.85 1203.95 46.93 1202.73 46.02 1200.01 43.13 1196.02 42.12 1191.25 43.44 1188.49 43.58 1185.27 41.52 1178.44 39.77 1176.16 35.88 1174.51 34.47 1172.24 37.37 1163.1 35.72 1158.88 34.3 1158.13 27.7 1157.89 18.24 1154.68 13.06 1151.34 5.39 1140.46 3.56 1135.81 1 1131.04 2.58 1127.67 6.38 1126.35 19.42 1117.53 24.51 1114.92 29.65 1109.51 29.12 1106.43 26.04 1103.13 26.62 1100.92 28.54 1099.09 32.6 1097.51 35.28 1097.37 37.77 1095.78 41.26 1086.87 43.76 1082.75 44.11 1078.81 41.88 1076.12 31.91 1076.42 26.75 1075.85 22.44 1074.54 20.94 1073.02 19.45 1069.43 19.58 1064.86 21.4 1059.32 23.77 1055.38 25.75 1048.39 26.06 1045.66 24.74 1041.13 25.08 1039.73 28.58 1035.72 28.41 1033.88 24.66 1029.56 15.07 1020.47 11.8 1018.25 8.94 1015.04 9.94 1011.91 15.69 1002.05 16.98 997.85 14.41 990.81 10.84 986.09 8.62 980.95 8.42 978.17 11.55 971.48 16.63 964.01 21.31 954.08 29.69 943.28 32.9 940.11 36.63 938.84 40.73 934.94 45.32 931.76 45.36 928.38 47.35 925.01 57.41 919.97 62.61 916.33 67.96 908.97 68.95 902.3 72.01 896.02 72.75 890.37 76.52 885.59 84.19 880.51 88.13 877.5 89.23 875.61 89.96 869.53 94.82 863.4 103.89 854.39 105.71 850.16 103.34 842.95 103.84 840.8 106.07 838.46 112.1 837.23 114.14 835.67 115.56 831.99 119.58 829.61 122.18 829.98 122.31 827.5 118.5 819.81 115.68 816.8 115.83 813 117.95 812.07 120.22 812.66 122.04 811.33 124.81 806.94 124.86 802.36 127.99 798.08 128.19 783.8 129.18 779.62 133.61 777.86 134.1 772 139.86 768.23 140.72 765.13 139.92 762.43 143.26 763.21 146.81 762.7 148.36 759.81 147.26 755.81 148.01 752.35 152.76 748.62 154.42 746.57 157.08 745.41 160.82 747.39 163.73 746.59 164.99 745.08 169.85 743.38 166.75 740.19 164.15 739.48 164.83 736.07 171.01 732.48 171.41 730.12 169.96 725.38 169.9 721.37 168.01 710.31 169.18 706.2 166.34 704.52 162.07 705.18 157 704.49 153.58 700.88 151.04 699.4 147.68 699.04 149.39 695.04 155.55 692.8 157.08 691.55 156.63 685.59 154.96 676.03 149.08 664.28 148.44 660.22 151.13 658.23 149.44 652.91 135.91 646.49 135.89 641.01 133.25 635.33 131.84 628.94 127.2 625.33 128.18 622.16 130.98 619.74 140.01 616.54 143.95 613.87 147.16 610.01 154.34 595.89 155.83 594.14 160.98 590.05 161.41 588.81 156.61 587.18 156.23 584.15 157.95 577.78 164.83 564.37 159.33 559.88 156.37 558.74 154.99 556.02 153.95 551.72 151.51 545.68 151.77 542.28 154.88 539.8 154.98 537.31 152.38 534.25 152.16 530.19 155.13 524.21 154.97 518.38 153.18 513.72 149.11 509.88 140.4 503.01 139.91 500.92 141.67 496.96 140.99 494.91 135.88 494.36 133.37 492.72 130.16 487.84 123.36 484.77 120.78 478.88 120.19 472.55 119.56 470.92 115.97 469.57 112.04 469.2 109.8 467.71 109.14 463.46 110.15 460.97 110.07 457.1 108.07 453.42 102.21 448.29 99.59 443.78 95.92 434.75 96.91 429.43 95.55 427.09 92.46 426.53 90.46 424.45 90.19 422.33 87.02 419.04 86.99 416.03 88.47 413.29 92.72 410.08 93.14 407.95 91.6 404.27 89.65 395.79 90.23 390.9 88.9 387.01 88.8 383.09 89.96 380.62 89.43 376.08 89.99 372.74 87.94 369 82.83 367.26 81.68 361.96 82.22 359.42 88.82 346.96 93.34 341.03 96.54 335.09 97.86 331.54 100.58 327.65 103.53 318.91 109.3 315.24 109.17 312.54 106.46 311.22 105.02 308.75 105.21 305.86 108.61 303.32 112.43 301.69 115.33 299.05 117 296.37 120.7 293.52 131.22 290.67 134.07 289.52 136.37 289.94 138.24 288.4 138.32 283.1 140.77 281.44 144.01 281.3 147.16 278.2 144.56 271.25 145.88 268.38 150.18 266.37 153.92 265.65 155.4 259.72 156.42 258.18 160.16 256.45 160.32 250.3 166.14 238.21 166.68 234.1 162.88 228.99 162.27 224.07 159.95 219.33 161.41 212.74 160.6 211.67 156.93 211.32 153.7 209.91 151.93 207.85 151.66 205.79 154.25 203.88 154.41 200.95 152.73 198.76 152.43 196.58 153.4 193.06 151.26 191.02 149.08 187.16 149.52 182.7 153.52 179.83 154.13 175.95 157.43 174.73 160.69 171.33 164.83 169.24 166.06 166.67 169.18 165.71 175.49 162.29 186.65 150.71 191.51 147.86 198.4 144.62 201.09 142.06 201.49 138.47 202.48 137.45 210.35 136.49 215.16 134.92 220.34 132.02 223.44 129.58 227.56 128.97 229.16 127.7 230.05 122.49 232.08 119.36 235.84 115.74 234.87 114.18 230.83 113.5 227.61 111.33 227.87 108.62 232.05 104.53 235.87 97.43 237.68 89.79 237.54 83.48 235.95 79.32 232.52 74.85 231.8 70.53 232.85 67.63 235.17 64.43 238.99 61.7 245.91 61.5 255.3 54.82 259.86 54.91 263.68 56.88 268.41 52.54 273.48 52.54 276.63 51.43 288.01 44.15 290.08 43.52 296.9 45.94 301.12 49.02 304.78 50.71 309.5 51.11 314.17 49.75 317.24 46.75 318.17 43.26 319.86 41.92 323.81 43.47 325.85 45.85 329.74 47.63 333.3 47.27 339.99 44.69 342.99 42.38 347.53 40.98 353.07 40.4 358.75 37.42 364.19 32.99 367.8 31.47 372.54 28.6 384.35 26.49 396.17 22.93 398.3 22.66 408.25 25.42 415.48 28.05 422.01 31.26 434.63 31.67 438.63 32.61 446.22 33.58 454.17 32.09 464.73 25.79 475.41 20.71 482.67 17.98 487.48 14.5 492.84 9.64 499.03 1 501.48 4.7 503.19 5.94 509.07 8.17 517.08 9.08 520.91 9.97 526.66 12.98 540.61 17.2 544.29 18.77 549.01 29.34 549.82 32.37 553.46 38.62 557.54 43.2 563.01 45.33 569.04 42.68 571.2 42.3 576.93 43.06 583.25 42.03 587.07 42.38 590.99 40.01 595.13 36.56 598.78 35.03 603.38 34.34 604.78 34.87 606.47 38.42 609.35 41.23 610.97 43.93 615.02 48.78 620.14 52.47 622.45 51.71 625.44 49.02 627.79 45.9 632.52 42.55 641.47 43.62 643.87 45.72 642.53 53.54 643.62 60.36 645.59 63.79 648.91 65.45 658.53 68.05 661.69 72.27 662.95 75.42 664.26 81.51 666.17 87.14 666.94 91.5 668.57 93.91 669.14 97.8 672.1 103.38 670.14 106.43 677.38 111.78 681.22 115.88 683.46 116.97 687.32 115.99 689.76 117.9 694.09 118.94 696.22 121.59 697.09 124.62 694.8 128.06 697.16 130.36 695.3 133.62 694.52 136.62 691.84 138.88 691.23 142.17 694.29 141.52 698.51 141.9 703.91 143.55 708.55 147.01 710.86 150.66 713.81 152.07 720.27 159.63 720.97 163.41 724.04 166.13 734.48 168.05 738.49 170.83 740.7 173.46 744.66 175.89 746.91 181.5 750.33 183.05 749.82 186.66 755.67 189.21 758.57 195.13 760.49 196.15 761.84 198.67 761.79 200.94 763.83 205.26 768.08 207.51 768.66 209.39 773.53 210.3 778.97 212.09 779.91 213.46 779.83 217.67 783.55 220.57 785.74 223.95 788.78 226.05 792.82 232.31 792.93 234.62 799 239.77 798.7 241.91 796.67 243.75 793.58 248.86 790 252.57 784.59 255.6 784.9 260.22 789.14 261.82 789.84 263.61 787.1 267.07 780.28 268.62 775.72 271.53 771.35 272.04 765.6 270.3 763.15 272.4 765.52 276.86 765.89 280.71 763.89 283.42 758.42 287.88 754.69 290.11 751.82 294.34 746.02 296.34 744.59 299.43 738.22 301.34 732.84 300.63 724.95 302.03 719.15 301.66 710.22 301.82 704.76 306.08 705.64 310.43 704.16 314.82 708.93 322.51 705.41 324.16 705.91 328.55 704.26 331.62 706.04 337.19 705.03 340.34 701.1 343.82 694.42 342.59 690.06 344.27 688.86 346.65 689.26 351.84 690.22 356.56 687.95 358.36 685.63 362.5 681.38 363.3 679.18 364.7 677.43 375.37 673.25 377.46 671.94 380.34 673.03 385.06 672.48 398.11 670.67 405.32 666.76 409.51 667.85 411.72 671.52 412.89 671.48 414.39 Z"/>
</g>
</svg>