<?xml version="1.0"?>
<svg xmlns="http://www.w3.org/2000/svg" version="1.2" baseProfile="tiny" width="800" height="693" viewBox="0 0 800 693" stroke-linecap="round" stroke-linejoin="round">
<g id="4209201">
<path d="M 698.82 230.85 707.51 238.18 711.01 239.96 717.58 241.62 731.33 246.78 740.7 250.64 747.09 254.68 752.84 264.08 760.7 276.13 767.68 289.59 768.88 294.16 769.48 303.75 768.12 313.96 765.7 320.09 759.38 326.64 752.34 330.46 742.62 332.6 725.4 339.24 711.47 344.26 703.79 348.23 701.73 351 700.46 357.44 700.32 365.23 699.33 380.71 697.2 387.56 694.57 391.66 690.71 395.43 683.76 399.48 678.99 399.68 674.07 398.37 662.02 393.77 649.68 388.11 637.48 383.3 631.04 381.37 620.81 380.07 617.48 380.76 613.99 383.77 611.52 389.38 612.52 394.28 616.81 405.41 617.38 415.66 619.64 421.86 624.88 426.33 628.23 427.74 637.96 428.92 649.09 429.42 666.01 431.21 703.76 433.91 709.55 434.01 728.62 433.37 743.86 431.91 753.14 430.01 767.74 425.99 775.75 424.63 782.13 424.75 789.43 427.85 793.96 432.23 796.91 437.95 799 448.65 798.98 457.41 798.23 462.54 796.21 468.26 789.48 478.31 785.62 483.01 774.29 491.32 770.67 493.49 765.57 494.9 757.17 495.39 738.86 494.95 724.42 495.2 712.7 496.06 701.34 498.42 692.61 500.48 683.49 503.29 679.19 503.08 658.72 498.6 652.22 496.45 646.55 492.85 637.65 484.56 627.54 475.91 616.71 467.27 600.35 458.35 592.58 455.2 577.97 451.29 564.02 449.01 552.67 448.6 547.56 449.87 543.54 452.39 540.93 455.65 538.75 462.07 539.25 464.15 543.55 470.39 546.46 476.15 554.2 494.02 556.34 502.14 559.28 508.49 562.23 519.82 564.94 534.18 567.38 541.1 568.61 551.51 568.87 557.98 568.11 563.83 565.87 574.54 562.12 586.02 557.94 590.21 553.97 591.69 548.03 592.13 540.36 591.04 528.56 590.91 524.07 592.81 511.49 601.2 507 605.89 501.96 613.18 499.12 621.44 496.6 635.43 495.29 646.09 493.68 655.77 491.43 672.12 489.93 677.36 486.77 683.67 483.72 687.41 476.66 691.69 473.19 692 465.42 689.08 460.13 684.86 457.92 681.98 456.87 677.72 459.28 671.11 459.99 664.11 457.25 659.71 451.98 653.44 450.34 650.55 448.36 643.22 448.1 634.05 451.28 618.07 450.91 612.07 449.5 604.35 449.16 598.81 450.26 590.8 450.23 586.34 448.59 578.12 445.81 573.37 439.87 565.59 432.46 558.83 420.92 553.18 408.56 550.01 404.86 549.5 398.91 550.5 393.15 553.88 383.33 563.91 371.14 578.37 370.06 580.89 367.27 593.4 363.97 592.43 363.66 584.63 362.3 581.09 357.51 580.11 354.86 577.32 353.82 572.54 351.09 568.63 341.04 565.57 336.15 560.9 332.53 559.07 331.25 556.23 330.72 548.54 330.85 539.93 327.85 536.27 319.77 532.81 318 528.09 319.7 524.94 329.24 521.23 331.31 518.61 328.95 512.76 329 508.05 328.03 500.12 329.92 489.03 330.34 478.25 332.35 476.19 336.06 469.31 338.96 466.46 338.01 464.3 338.78 456.82 343.75 450.28 347.53 449.8 356.72 446.88 358.83 443.46 356.35 434 356.26 430.21 170.75 337.3 131.34 372.69 48.51 217.68 52.46 216.19 55.21 216.79 63.03 212.22 63.67 205.92 70.2 202.6 74.91 196.1 75.33 191.22 78.2 186.55 125.11 188.05 139.23 155.79 93.2 120.21 85.76 125.57 54.38 89.27 54.88 104.85 31.44 125.66 32.06 104.37 37.49 101.03 2.84 62 25.43 50.34 1 13.62 3.83 11.28 6.68 11.55 13.38 10.44 15.76 13.11 21.15 16.08 25.82 17.34 31.03 16.96 37.04 14.56 41.71 15.11 40.05 18.42 40.74 21 47.06 23.76 51.13 22.26 54.34 17.77 57.61 14.79 64.97 13.94 68.53 14.61 70.2 18.49 70.52 23.02 76.37 22.69 85.41 13.65 91.47 5.16 94.02 3.72 98.57 6.14 100.31 8.75 102.8 9.01 111.15 4.37 112 2.13 115.62 1 122.34 8.35 126.02 17.8 127.3 18.89 136.4 18.78 138.51 20.57 136.66 26.7 140.26 27.94 144.45 27.34 150.52 29.96 153.43 29.08 159.87 33.25 161.62 35.2 161.52 39.23 162.92 42.05 165.66 43.1 170.41 42.21 174.03 40.12 179.65 40.22 182.14 42.71 191.12 42.16 199.98 44.63 204.21 44.77 211.13 50.53 218.71 53.08 223.72 59.26 225.65 65.43 227.23 66.8 243.17 72.15 246.59 70.16 254.15 73.94 253.66 78.69 255.03 82.87 254.72 87.06 252.62 95.17 256.64 97.32 262.77 101.8 266.31 105.84 270.93 106.94 273.9 106.38 283.4 99.68 287.03 99.17 293.13 103.24 300.61 102.99 305.88 106.1 307.26 109.69 310.66 114.13 312.33 118.28 321.28 120.48 326.02 120.85 331.45 122.75 339.23 123.99 343.27 123.16 345.9 121.05 351.92 121.64 354.01 124.24 359.88 127.19 367.49 131.78 372.28 136.88 385.29 144.79 391.96 147.33 401.68 148.69 406.4 148.87 411.74 150.72 417.3 148.38 429 147.5 433.28 148.66 436.63 153 443.35 150.98 445.97 154.04 449.53 155.71 456.17 155.61 464.18 156.71 466.92 155.85 468.77 150.96 472.46 144.09 475.59 141.87 483.79 143.33 487 146.32 488.06 151.48 487.13 155.95 484.02 158.95 484.07 163.03 488.62 166.01 493.62 166.29 502.62 164.76 506.81 166.15 515.34 174.43 519.09 175.7 522.74 175.31 531.81 171.8 539.01 173.37 548.27 173.29 552.82 174.79 559.05 181.06 560.14 184.06 565.96 186.55 571.54 189.74 577.53 197.82 580.85 201.1 578.7 205.46 575.47 209.42 568.69 212.86 568.7 214.89 575.15 218.44 583.77 221.99 589.7 215.4 602.2 212.07 611.82 208.91 617.57 201.57 621.46 200.97 623.87 203.05 631.77 206.16 634.87 206.55 649.75 210.09 649.05 213.64 650.84 218.59 646.35 221.68 645.66 228.35 647.49 232.55 644.56 237.69 650.1 243.01 647.96 247.65 649.43 249.88 658.4 255.31 664.07 256.15 666.6 253.31 666.56 248.92 668.28 247.29 674.77 247.49 678.88 244.42 684.08 244.1 689.8 241.88 697.13 231.33 698.82 230.85 Z"/>
</g>
</svg>