<?xml version="1.0"?>
<svg xmlns="http://www.w3.org/2000/svg" version="1.2" baseProfile="tiny" width="800" height="803" viewBox="0 0 800 803" stroke-linecap="round" stroke-linejoin="round">
<g id="4209508">
<path d="M 758.29 681.27 753.86 679.55 746.07 678.98 739.49 680.8 734.41 683.91 729.5 689.82 711.9 691.38 701.31 697.85 693.88 704.58 687.93 707.98 677.9 712.05 664.38 715.06 653.24 713.12 643.67 712.89 629.88 717.31 623.44 721.53 619.88 725.09 615.06 727.34 606.98 728.49 601.77 733.63 597.92 735.38 585.88 737.4 582.36 739.68 575.83 742.2 570.62 747.22 564.01 752.22 557.12 754.77 550.51 755.53 539.42 758.98 532.34 760.25 525 763.56 511.94 771.81 506.79 777.38 502.83 779.64 498.72 780.25 494.32 784.99 488.26 790.16 479.09 796.34 475.55 797.83 470.91 797.68 463.52 800.15 460.81 801.92 455.91 799.79 452.56 799.58 446.19 802 441.54 799.49 431.92 790.57 428.58 784.74 429.4 780.18 427.79 777.75 419.7 775.15 414.68 772.7 409.31 768.75 404.29 767.21 401.59 761.7 401.98 756.66 400.89 754.52 395.11 752.78 389.61 752.49 384.2 748.17 377.31 738.37 369.32 728.61 359.52 725.27 354.97 722.19 351.08 717.53 345.9 714.35 340.67 713.23 336.06 713.6 331.53 710.09 331.71 704.3 337.85 693.13 333.75 685.56 329.94 683.49 316.18 680.66 302.98 680.53 296.17 679.31 287.24 681.52 282.56 681.42 279.85 683.1 274.02 694.5 269.57 696.88 258.21 697.04 251.75 699.97 244.67 699.57 236.9 702.64 232.44 702.8 227.81 701.08 216.99 700.02 212.43 697.42 205.43 697.16 199.04 704.4 193.65 721.19 187.6 724.22 181.78 723.28 173.59 725.43 169.09 729.43 165.92 723.85 160.69 721.56 153.05 714.33 147.16 714.06 146.67 716.57 141.33 720.09 137.37 720.05 133.76 716.44 127.44 713.27 121.07 711.55 118.77 709.75 117.28 705.34 113.1 703.41 102.81 708.03 99.56 710.91 91.31 723.42 81.15 734.64 76.94 737.61 74.39 741.42 68.47 739.08 7.92 704.15 31.22 694.93 32.89 681.36 27.29 676.68 23.51 675.18 15.39 668.46 14.31 663.94 11.62 661.09 5.96 659.87 4.71 658.18 3.15 650.88 1.16 647.78 1 639.62 3.46 639.36 10.38 645.22 14.38 647.53 17.73 647.72 23.6 645.17 25.33 638.77 28.21 637.09 34.7 637.29 38.24 640.22 41.29 645.98 42.69 646.61 50.02 645.01 56.31 646.56 64.38 652.45 81.28 648.3 98.83 657.46 101.53 652.66 107.87 648.07 109.78 642.81 115.61 635.96 120.35 632.13 128.99 627.78 135.93 627.41 138.35 625.58 141.28 613.14 146.65 607.44 149.15 597.95 154.05 591.65 168.53 579.19 174.24 573.66 175.68 568.88 176.06 560.96 175.01 553.26 175.17 549.01 177.06 544.82 185.86 538.81 194.86 536.98 203.36 538.63 208.49 538.18 217.21 535.96 228.09 534.56 233.78 532.57 243.11 526.7 250.03 526.65 251.72 525.6 251.4 520.63 252.86 512.17 252.92 506.81 251.17 504.45 244.51 501.66 239.15 494.81 231.97 490.74 229.5 483.21 226.61 471.75 225.46 462.93 226.09 460.05 240.5 437.27 241.76 436.36 248.66 438.09 253.19 440.29 264.15 432.01 266.58 431.67 306.47 393.35 304.47 388.29 301.48 371.87 297.57 366.11 290.5 362.23 286.25 356.65 287.54 353.12 295.22 347.86 296.31 342.52 299.48 341.32 302.25 335.02 306.35 323.57 311.02 317.51 311.07 313.04 314.37 306.98 316.39 297.08 318.83 294.83 322.43 288.45 322.7 285.76 327.55 282.11 328.52 276.53 328.31 270.64 329.75 263.91 334.31 257.73 338.06 248.81 340.6 244.28 336.56 230.04 339.97 219.86 343.25 215.11 348.59 211.13 329.43 211.43 323.88 208.83 318.8 211.13 307.67 211.86 306.16 215.44 307.36 218.81 301.84 219.43 297.24 223.04 294.72 218.55 293.85 214.69 294.79 210.8 293.82 207.52 294.97 202 294.12 200.49 316.05 93.98 318.19 80.16 324.42 74.41 325.51 60.49 327.44 58.75 338.13 58.22 343.1 56.09 347.16 50.73 359.89 46.73 375.87 37.21 381.33 37.1 395.24 23.99 405 18.6 408.28 15.19 409.39 11.94 416.34 21.53 421.05 25.83 428.59 27.61 442.32 23.78 445.36 25.35 447.49 29.38 451.34 33.2 455.27 33.55 473.11 28.42 478.33 24.43 484.85 20.89 500.67 18.15 514.75 8.12 518.57 7.12 528.18 8.9 532.95 8.59 539.81 5.66 547.67 6.97 564.85 6.53 570.16 4.79 575.49 4.36 579.74 1 577.77 6.8 579.42 15.99 581.39 21.6 586.82 28.46 591.76 31.32 596.87 37.64 597.1 45.41 599.81 47.2 606.84 44.32 612.28 44.41 620.72 46.57 626.14 49.01 627.29 52.39 623.98 56.73 622.99 62.06 627.82 70.45 634.02 73.61 642.08 81.31 642.79 82.96 642.91 97.17 646 101.22 652.62 104.33 657.6 108.95 659.42 115.63 658.57 118.91 654.68 123.52 655.35 131.06 656.75 135.06 659.77 138.59 665.08 142.59 666.35 148.1 663.56 152.1 658.06 155.44 656.16 170.26 655.47 182.26 657.04 185.38 657.71 196.28 656.5 201.78 658.44 203.13 665.87 204.25 675.73 212.03 678.52 216.08 683.81 228.71 683.53 232.06 679.98 240.94 680.12 245.42 683.13 252.13 681.99 258.71 676.29 264.9 671.89 267 670.79 271.73 667.34 277.04 660.04 282.95 669.37 286.07 678.65 286.22 683.04 288.57 687.52 293.66 694.58 293.31 699.93 297.88 705.54 297.86 702.74 304.7 702.97 314.58 704.95 313.46 706.47 309.06 713.51 308.86 719.67 311.78 722.01 314.43 726.29 312.69 734.83 314.48 741.09 317.35 747.09 321.55 758.29 334.71 759.82 340.96 762.85 341.1 766.31 346.67 770.93 351.05 777.74 353.66 782.96 356.84 787.28 361.1 799 369.99 796.13 372.11 787.76 374.08 782.98 371.78 781.02 378.91 777.34 381.31 769.49 384.11 757.47 386.84 755.24 386.23 748.91 389.47 739.33 389.17 733.44 386.89 731.59 384.84 726.03 384.01 717.39 387.08 716.07 389.95 720.65 391.8 722.11 395.11 722.16 403.28 720.74 405.86 716.66 408.54 715.2 412.67 709.65 415.4 707.32 420.07 701.63 422.11 701.24 427.27 705.18 425.71 708.53 426.1 711.16 428.93 713.64 420.56 722.69 415.2 724.73 420.07 729.11 416.62 740.11 415.11 742.83 417.01 745.55 424.11 748.08 426.4 751.59 432.04 757.76 438.46 761.81 445.21 755.64 453.08 748.07 457.67 742.22 458.55 729.32 479.01 727.17 480.49 723.09 479.96 718.55 483.12 713.06 484.83 711.93 486.57 700.52 493.33 702.49 499.54 704.81 513.47 706.68 519.07 704.46 523.44 705.69 530.39 708.63 534.56 712.42 542.99 712.99 551.45 712.12 556.68 712.78 562.48 711.67 570.91 713.39 575.05 718.84 575.34 727.68 573.45 731.25 573.35 744.61 576.6 754.9 582.24 757.29 595.03 760.24 604.81 764.89 612.11 770.5 616.2 768.65 620.32 764.3 626.23 763.84 628.47 766.39 632.18 771.38 634.32 774.25 637.65 776.61 645.93 774.66 649.41 766.41 656.35 759.42 661.01 756.49 664.75 758.44 671.82 762.02 676.06 758.29 681.27 Z"/>
</g>
</svg>