<?xml version="1.0"?>
<svg xmlns="http://www.w3.org/2000/svg" version="1.2" baseProfile="tiny" width="800" height="1100" viewBox="0 0 800 1100" stroke-linecap="round" stroke-linejoin="round">
<g id="4209151">
<path d="M 316.88 17.7 315.81 20.63 317.71 24.41 317.32 26.87 315.62 29.8 315.32 32.32 316.5 34.49 319.82 36.79 321.81 39.28 324.57 50.23 326.27 55.76 326.8 61.22 326.28 64.15 326.35 66.79 327.88 68.7 331.8 70.81 332.13 72.69 330.57 75.64 330.05 80.11 329.41 82.56 330.01 84.08 333.42 85.8 334.84 87.14 335.39 90.65 340.26 94.2 340.41 97.68 338.8 101.04 338.98 102.44 341.95 105.63 344.82 110.41 347.66 111.97 347.7 116.54 352.15 117.35 355.1 119.89 354.92 124.33 354.14 127.43 354.28 128.89 355.88 131.03 355.99 132.78 357.12 135.2 356.75 137.09 357.82 139.24 361.52 141.8 360.76 144.53 362.48 146.39 364.89 146.94 367.62 150.85 372.01 151.9 373.87 154.45 376.49 155.34 380.67 153.93 384.1 153.93 387.78 152.27 391 152.59 393.73 152.04 395.78 152.35 399.85 154.69 402.04 161.61 400.71 166.36 399.26 168.79 396.93 175.92 396.41 181.79 397.35 183.95 400.61 188.41 404.82 189.7 406.71 188.46 409.94 189.24 411.89 191.41 412.61 197.04 413.28 198.41 416.07 200.58 415.46 202.72 413.1 206.24 412.74 208.15 414.3 211.85 415.69 213.78 417.24 214.75 418.04 216.32 417.43 220.54 416.35 222.23 416.38 228.43 418.84 229.26 420.93 228.88 427.1 230.18 430.29 227.8 432.19 227.61 433.66 230.22 436.19 232.51 437.64 236.89 440.11 242.1 440.42 244.7 439.07 247.08 439.05 248.51 440.82 251.19 440.46 255.36 442.86 258.37 445.23 260.07 448.89 261.36 448.83 263.28 446.42 264.83 442.81 268.61 443.63 272.32 445.37 273.61 446.2 275.32 445.5 278.53 443.68 281.57 443.63 283.4 445 286.59 445.93 287.55 449.83 289.22 456.29 288.59 459.03 287.86 460.69 285.94 462.13 285.77 464.87 286.72 467.75 286.46 472.01 289.49 474.99 290.07 476.87 293.38 478.8 293.58 482.69 292.4 488.36 295.59 489.03 296.68 491.42 296.98 493.24 296.41 495.51 297.19 498.11 296.59 500.28 294.89 500.99 290.43 503.62 288.78 505.45 288.51 508.93 289.23 510.2 288.86 512.07 286.45 513.63 281.98 514.27 275.91 515.19 274.3 518.17 274.51 518.2 278.46 516.99 281.68 516.57 286.81 517.32 287.82 520.68 287.16 523.28 288.69 525.31 287.15 528.28 287.38 529.26 288.75 529.21 293.34 531.01 294.88 529.16 299.37 530.21 300.27 532.51 300.43 534.13 302.11 535.16 305.85 537.51 306.8 540.04 305.61 541.33 302.23 548.13 300.04 550.71 303.19 558.4 303.7 563.84 303.42 566 304.3 575 304.89 578.38 303.47 581.11 300.08 583.01 298.49 585.21 297.7 587.54 297.93 591.61 297.23 594.39 297.13 599.54 295.68 605.76 297.98 607.28 298.06 611.17 296.28 614.06 297.33 617.52 296.95 621.95 295.17 624.96 295.22 628.15 293.66 635.72 292.15 641.65 291.71 643.64 291.15 648.21 287.58 651.43 287.07 654.47 284.9 662.33 280.21 666.41 276.57 669.04 275.95 672.18 276.11 683.68 278.33 686.57 280.85 692.3 282.25 694 283.02 696.89 286.37 697.71 288.08 697.3 292.46 698.23 294.58 701.17 296.12 708.52 298.2 715.99 299.4 717.23 300.69 718.91 305.83 722.57 308.8 722.54 310.09 721.23 312.25 720.22 316.56 720.69 319.53 720.34 323.3 721.74 325.46 721.87 327.01 718.78 333.12 718.6 335.8 719.37 337.35 721.72 337.99 723.14 339.36 723.7 341.89 722.85 344.49 722.62 348.02 723.99 354.06 722.98 358.06 724.45 362.42 722.75 366.1 720.94 368.06 720.48 369.82 721.18 372.5 722.64 373.74 723.89 376.28 724.5 378.98 728.91 387.26 730.07 388.8 733.81 390.65 735.62 392.36 735.59 396.28 739.72 398.93 740.49 400.48 740.8 403.37 738.84 407.01 738.5 408.58 739.23 411.47 738.58 414.41 736.96 415.88 736.11 417.94 736.96 420.26 736.85 423.43 736.31 424.25 732.21 426.21 731.65 427.37 731.8 430 730.33 437.97 731.57 440.44 731.47 442.76 730.3 445.39 733.06 448.08 734.77 451.76 734.71 453.75 733.81 456.51 735.23 461.51 735.8 464.84 738.71 470.51 740.31 479.69 741.73 483.46 742.94 485.5 746.13 488.26 747.77 491.41 750.57 494.09 752.36 494.76 758.68 499.41 761.07 503.88 762.94 505.46 763.81 508.11 762.31 514.3 762.62 517.68 765.35 521.47 767.11 525.11 766.67 531.3 767.16 537.13 766.85 541.07 768.63 545.79 768.68 549.02 771.55 550.75 775.36 551.31 778.35 552.73 781.6 557.34 778.86 557.05 776.47 557.53 774.78 562.64 774.79 564.96 778.04 571.49 777.55 572.41 773.71 575.37 770.62 581.6 769.95 585.47 767.85 590.07 767.04 594.22 767.08 598.07 767.94 602.39 770.08 606.56 770.67 609.22 768.67 612.57 768.32 616.22 769.31 618.1 769.21 619.88 768.19 622.02 770.23 625.44 770.44 628.95 771.55 631.86 772.32 636.74 775.57 638.57 776.96 640.63 780.08 642.41 783.67 643 785.18 644.86 785.81 650.82 783.08 654.89 783.49 658.07 786.97 663.69 787.25 665.91 786.81 668.56 785.42 672.64 785.01 675.11 785.41 678.66 786.6 679.95 792.49 680.35 798.31 681.36 799 684.36 797.98 686.72 798.51 689.87 798.03 692.02 795.58 694.14 795.74 696.15 796.64 696.97 796.51 704.2 792.46 708.92 793.29 711.47 793.47 713.89 792.56 715.8 792.98 719.98 792.77 722.35 791.58 727.28 789.55 733.98 790.63 737.65 796.2 752.99 796.12 756.37 788.18 767.07 787.3 768.98 783.36 772.88 780.24 776.72 771.57 782.78 769.49 788.32 765.62 790.23 762.14 796.89 758.55 799.67 754.81 804.04 752.44 808.47 752 809.94 748.96 814.01 746.41 815.69 742.18 816.82 737.56 819.59 736.3 821.96 734.31 823.55 730.73 824.09 723.85 827.16 720.54 829.41 718.65 831.51 717.61 833.82 716.14 835.36 712.91 836.73 711.44 837.89 709.64 841.78 707.24 844.03 704.89 851.79 705.07 857.55 701.59 862.73 698.21 867.11 695.53 872.22 692.85 876.03 691.46 878.87 687.33 884.7 685.06 890.63 683.46 892.49 680.68 894.29 679.7 896.2 678.71 901.79 676.86 903.89 675.08 906.9 675.85 909.86 677.82 911.79 678.27 913.35 677.37 921.43 675.85 926.58 675.35 929.81 675.67 935.37 677.06 938.19 679.34 939.4 680.37 940.92 680.87 943.25 680.69 949.17 678.58 953.38 678.27 957.24 679.47 959.36 682.36 961.81 684.29 964.85 683.23 968.23 681.53 971.56 681.49 973.42 684.7 978.24 684.73 980.95 683.77 987.32 686.48 989.2 687.23 990.57 686.69 997.61 685.14 1003.87 684.14 1005.81 682.46 1007.28 679.7 1008.75 678 1011.21 679.55 1016.61 681.51 1018.59 681.56 1021.75 680.01 1024.21 682.26 1030.7 680.15 1032.96 677.96 1033.83 676.35 1036.11 678.11 1037.55 675.82 1042.28 675.35 1044.44 673.78 1046.66 670.49 1049.32 668.2 1050.69 668.44 1052.44 667.81 1057.82 665.53 1059.97 664.98 1061.75 665.2 1064.23 666.18 1068.06 662.3 1069.95 658.22 1071.24 652.12 1074.13 646.05 1076.08 643.64 1079.96 641.15 1080.61 638.6 1082.62 636.45 1083.43 636.5 1090.31 634.28 1091.46 631.61 1090.2 628.27 1090.2 626.2 1089.64 624.69 1090.47 621.5 1090.8 621.3 1093.76 619.87 1095.43 618.95 1097.84 615.52 1098.24 612.88 1096.69 609.57 1096.53 607.71 1094.11 604.66 1093.15 603.42 1092.01 601.39 1093.1 600.97 1095.42 598.79 1097.09 597.28 1099 592.9 1089.87 590.64 1087.99 588.81 1084.93 587.98 1081.79 586.62 1078.87 584.38 1076.51 582.43 1075.39 578.69 1074.4 570.81 1072.81 568.8 1072.61 564.39 1072.93 557.99 1072.47 554.97 1070.96 552.62 1068.2 549.91 1068.36 548.83 1067.06 543.96 1067.97 540.33 1066.34 536.33 1065.95 533.84 1066.13 529.59 1065.38 525.65 1063.1 521.46 1063.08 516.84 1060.55 513.91 1059.76 511.53 1058.35 509.66 1056.27 509.04 1053.77 507.16 1052.21 502.98 1050.66 498.67 1050.38 496.56 1049.48 493.9 1045.85 494.06 1044.91 490.79 1044.76 487.35 1040.89 481.48 1029.72 480.16 1023.4 480.52 1021.58 480.28 1017.74 477.65 1013.94 476.65 1011.72 472.76 1009.46 470.62 1007.4 469.48 1004.64 467.17 1001.51 465.86 998.47 460 987.83 458.39 982.56 455.79 976.5 453.83 974.86 445.9 970.82 441.34 968.87 437.27 965.53 431.18 961.4 426.17 958.89 423.13 956.39 420.72 950.59 417.41 947.7 416.5 946.21 410.13 942.58 408.09 939.79 405.55 937.08 405.77 933.37 405.32 931.19 404.21 929.27 401.92 926.79 401.19 924.73 403.62 922.31 403.55 918.9 401.71 915.77 396.82 913.58 394.34 911.69 387.46 907.17 383.63 905.65 378.68 901.67 371.39 897.32 368.35 895.08 364.86 891.28 359.54 888.58 356.41 887.56 352.73 889.09 350.63 889.33 347.47 887.36 346.25 885.53 343.34 883.19 340.87 883.17 339.05 882.13 334.27 880.64 332.36 877.38 333.5 873.12 329.61 869.57 325.83 867.96 322.76 865.74 320.47 863.07 320.37 861.27 321.97 858.55 321.63 856.15 320.66 854.81 318.34 853.44 314.29 849.06 306.83 839.56 303.83 834.9 302 831.53 296.82 823.93 291.95 815.99 288.32 813.42 286.08 810.79 285.02 805.4 284.69 802.14 285.62 798.9 284.86 796.15 284.56 795.05 285.8 792.65 291.02 787.44 293.43 783.58 294.6 777.37 298.51 774.82 300.55 772.11 304.84 768.85 306.81 765.22 307.25 760.45 306.99 757.69 305.88 756.38 303.48 756.83 301.81 756.29 299.13 754.44 295.75 754.24 289.74 754.88 284.69 756.27 276.72 757.12 271.86 758.62 267.53 759.48 264.98 760.71 261.69 763.36 258.44 763.99 251.54 766.9 245.17 768.6 236.61 770.15 230.09 770.38 227.69 771.03 221.02 771.25 218.71 772.46 215.5 771.38 211.44 772.2 207.57 774.35 204.33 774.27 202.62 772.64 200.44 772 195.82 771.79 193.02 770.56 188.07 770.98 185.18 770.57 179.5 770.78 173.81 772.32 170.15 772.17 166.96 771.07 165.43 767.6 164.41 761.59 163.33 757.32 161.39 752.21 159.02 751.09 152.61 751.36 149.35 752.28 146.04 754.65 140.04 753.57 136.61 754.11 134.78 752.24 132.51 752.18 128.25 754.19 124.44 754.47 119.38 754.06 113.95 754.17 112.68 753.86 104.9 748.78 103.5 747.23 98.6 743.82 95.11 740.36 88.81 736.75 82.59 735.67 75.38 733.47 71.71 733.15 68.77 732.32 65.58 730.79 56.11 728.12 53.53 727.06 49.39 724.31 44.89 723.17 40.9 720.61 35.87 716.59 30.58 714.37 26.84 710.97 23.49 706.45 20.81 705.32 18.31 703 11.89 700.57 8.53 698.51 7.66 694.51 4.9 692.17 2.84 689.82 1 686.57 1.29 684.39 4.73 680.76 5.22 679.05 4.49 674.36 6.99 670.15 15.64 667.03 19.2 665.02 24.9 663.04 30.62 658.88 33.02 657.93 39.23 656.46 43.46 654.96 50.48 654.28 54.87 654.26 63.55 655.25 66.15 654.62 68.76 651.55 71.31 650 75.71 650.36 77.15 649.78 80.18 647.16 85.83 645.86 87.03 645.29 91.64 641.52 92.62 640.2 96.11 638.36 100.08 633.5 104.97 625.06 108.87 623.41 112.49 621.16 117.5 620.03 120.24 618.24 122.81 615.11 127.89 612.2 134.95 607.06 137.65 604.01 183.6 564.49 225.51 599.17 230.58 599.16 231.68 564.51 229.93 563.07 226.44 559.02 224.84 555.86 223.58 552.3 222.35 547.33 221.31 540.5 221.49 537.34 222.57 535.25 225.17 532.84 229.24 530.2 230.9 528.51 231.83 526.02 231.56 523.24 230.82 521.62 227.78 518.38 220.5 513.07 215.61 509.1 210.62 504.56 208.42 501.98 205.36 497.28 197.39 482.56 193.39 475.5 192.73 472.91 188.68 468.92 183.8 466.67 180.62 464.4 172.11 454.01 161.04 444.12 148.11 437.07 142.79 432.36 139.5 428.43 135.43 425.16 130.84 422.32 128.13 419.65 125.83 414.66 122.6 404.74 120.9 402.1 117.16 397.82 113.26 394.35 108.9 391.05 104.18 387.93 101.34 384.97 99.79 380.38 99.59 376.61 99.76 369.21 99.56 364.55 98.58 360.5 96.7 357.82 94.29 356.12 92.31 355.42 84.67 353.86 77.54 351.12 70.59 347.06 66.33 342.59 61.2 336.66 59.21 333.46 58.48 329.29 59.22 327.53 63.57 322.15 69.04 317.28 71.81 315.18 73.32 313.43 74.09 310.18 73.86 306.17 76.39 307.11 80.4 307.74 84.71 307.83 90.09 307.37 95.85 305.25 103.19 301.62 107.07 296.12 110.94 291.37 116.28 283.31 117.94 277.67 118.1 275.29 119.85 272.9 122.19 271.18 127.95 268.53 132.88 265.96 138.94 261.52 139.82 258.35 141.31 255 143.33 251.86 144.17 249.5 144.71 245.47 144.19 241.99 148.3 238.56 151.45 237.85 152.79 233.2 155.3 231.71 155.64 229.99 153.47 228.68 153.09 227.36 157.63 221.32 157.22 218.22 155.91 216.92 156.24 214.05 156.95 213.12 156.66 209.42 160.42 207.89 160.33 201.72 158.32 201.85 157.52 200.36 158.82 197.2 157.03 196.15 156.48 192.15 157.02 190.79 155.66 189.01 156.61 185.47 154.49 185.18 153.91 182.76 152.72 182.32 153.13 180.07 152.32 177.19 151.01 175.92 152.46 174.24 151.12 169.84 153.78 168.58 156.69 163.91 157.15 160.9 159.05 160.16 158.87 157.85 159.96 154.82 161.26 154.48 161.9 152.58 165.19 148.67 167.11 144.87 168.58 144.25 168.92 138.16 170.78 135.37 170.01 124.33 168.96 123.09 172.42 122.19 171.65 116.24 172.5 112.34 174.77 109.48 177.44 108.42 177.68 106.17 180.75 102.64 182.37 99.42 180.05 96.08 181 94.58 180.71 92.18 182.42 90.29 182.08 88.53 183.2 86.68 187.25 87.28 188.44 86.62 189.03 81.72 193.75 82.38 195.84 81.53 196.66 80.41 200.15 79.21 202.25 77.98 211.16 75.98 212.56 77.35 215.5 77.4 216.51 75.93 215.73 70.88 218.6 69.99 221.18 68.21 223.9 67.79 225.4 66.88 225.28 64.47 228.2 61.18 228.49 59.38 229.82 57.28 232.06 55.43 232.48 51.94 234.05 47.71 233.71 43.78 235.13 40.37 235.64 36.24 238.73 33.05 239.83 29.03 241.64 27.54 243.86 23.89 245.72 21.69 248.26 21.84 250.23 19.36 252.67 19.01 256.62 16.84 260.21 16.13 262.37 14.17 263.44 12.3 267.72 9.56 272.95 5.01 275.29 4.04 277 1.19 279.15 1 281.98 3.1 284.31 6.85 284.87 8.48 288.29 12.68 288.99 14.66 288.7 17.17 289.73 18.46 293.27 18.2 298.58 19.02 300.34 18.99 303.65 17.39 314.3 16.17 316.88 17.7 Z"/>
</g>
</svg>