<?xml version="1.0"?>
<svg xmlns="http://www.w3.org/2000/svg" version="1.2" baseProfile="tiny" width="800" height="630" viewBox="0 0 800 630" stroke-linecap="round" stroke-linejoin="round">
<g id="4209102">
<path d="M 243.56 2.91 245.5 3.61 247.81 5.62 249.98 7.23 251.35 7.34 252.37 8.05 252.35 10.48 253.77 13.05 255.84 15.68 256.08 16.24 255.47 17.86 254.59 19.35 254.4 20.81 254.96 21.91 255.62 22.47 257.18 22.41 258.27 22.59 260.32 23.52 261.29 24.98 261.81 26.81 262 28.2 261.88 30.14 262.3 32.42 263.34 34.66 263.14 35.82 261.58 37.92 259.89 39.17 258.71 40.65 258.28 41.79 258.35 42.61 259.13 45.65 259.41 48.41 260.15 50.32 257.76 53.96 257.22 55.21 258.35 57.17 258.71 58.39 259.98 60.44 260.49 61.74 261.53 62.97 263.5 63.65 266.05 65.41 268.3 66.33 306.52 72.74 379.56 84.98 445.61 84.03 530.23 82.81 574.73 82.18 624.1 81.47 623.58 80.7 624.14 79.51 624.76 79.03 626.32 78.52 628.02 78.3 629.17 77.68 631.92 76.64 633.44 76.65 634.03 77.28 634.15 79.05 635.07 81.1 635.62 82.69 635.97 85.6 636.63 86.77 638.02 87.87 640.08 88.47 641.71 90.54 643.33 91.08 645.16 90.19 647.61 90.05 649.85 90.53 651.54 91.31 652.71 92.38 654.12 93.18 656.51 93.55 658.99 93.41 661.79 93.04 665.15 92.85 668.05 92.94 670.96 93.36 673.42 94.03 681.61 95.62 681.88 97.2 683.88 103.85 688.65 113.95 697.39 129.6 698.37 131.32 703.09 139.58 711.05 151.11 727.11 174.92 735.7 188.35 738.11 191.8 742.38 200.32 743.99 204.43 744.63 207.28 744.81 210.24 744.29 214.06 742.34 216.11 740.25 217.62 735.37 220.14 733.28 221.34 731.69 224.01 730.92 226.88 730.5 229.22 730.55 231.87 731.06 234.4 732.69 239.57 737.3 253.7 742.84 266.75 758.91 288.13 760.68 290.28 768.46 311.03 771.22 353.35 764.19 357.35 742.41 365.86 741 368.74 740.86 372.25 741.85 374.78 746.89 376.73 751.38 379.81 756.02 386.2 765.46 398.82 765.23 402.17 776.82 409.9 782.27 414.24 786.33 419.28 792.9 429.5 797.53 438.22 797.76 439.42 798.48 440.84 799 443.03 798.99 444.77 798.14 447.49 797.11 448.91 796.28 449.62 793.33 450.82 792.11 451.53 786.84 455.84 784.05 459.2 783.34 460.53 783.58 462.06 785.95 464.18 786.04 465.02 785.46 465.85 784.52 466.28 782.47 466.86 781.08 467.62 779.53 469.64 777.79 472.27 776.12 472.88 774.35 472.39 773.49 471.89 772.71 470.58 772.37 468.85 771.51 468.3 770.15 468.43 767.28 470.16 765.48 470.96 763.41 471.35 762.67 471.89 762.02 473.3 762.01 475.26 761.33 476.19 760.39 475.93 759.46 475.26 758.06 474.75 756.8 474.77 755.82 475.29 755.3 476.46 754.6 476.88 753.18 477.05 751.86 477.6 750.36 477.46 749.99 476.27 750.17 474.55 749.16 474.21 748.11 476.73 747.62 477.34 745.92 477.99 743.25 478.3 742.88 477.19 743.99 476.07 744.23 475.18 744.06 473.32 742.84 473.02 739.94 475.01 739.19 475.11 738.42 474.54 738.24 473.64 738.42 472.17 739.44 470.1 739.8 468.88 738.83 468.5 737.67 469 736.62 470.31 736.49 471.28 735.55 471.61 734.48 470.11 734.66 468.42 734.97 467.51 734.41 467.11 733.26 468.16 732.44 467.98 731.85 467.26 730.79 466.63 730.76 466.14 731.5 465.14 731.36 464.68 729.96 464.31 729.56 463.84 729.4 462.74 728.22 463.09 727.11 462.98 726.51 463.82 724.37 463.91 724.95 464.85 724.17 465.84 724.44 467.73 723.74 469.68 723.03 470.59 722.08 470.94 720.51 470.92 718.93 470.18 716.83 469.44 715.84 469.59 714.88 469.12 713.15 470.09 711.8 470.51 710.44 469.91 708.22 469.75 708.32 470.14 707.26 471.83 707.41 472.33 706.84 473.35 706.02 473.5 703.7 474.77 703.26 477.09 702.17 478.25 700.43 477.71 698.58 478.75 697.55 479.97 696.31 480.81 695.52 480.47 693.76 481.99 693.14 482.26 691.91 483.71 689.93 483.97 686.18 485.59 684.43 485.98 681 486.34 678.3 487 674.66 487.54 671.32 487.63 670.36 487.84 669.21 488.89 668.76 489.86 667.72 490.57 666.46 490.63 665.33 491.73 665.43 493.19 665.02 493.77 664.11 493.97 662.39 494.98 661.27 497.56 660.82 498.99 659.83 500.56 659.46 501.59 658.88 502.26 658.84 503.2 659.23 504.02 660.46 505.65 662.01 506.67 662.74 507.75 662.72 508.8 662.33 509.88 660.72 511.01 659.31 510.92 658.48 511.46 658.41 512.67 658.94 513.72 659.02 515.69 658.82 516.78 657.98 519.45 657.63 521.24 656.94 522.97 657.04 524.85 657.53 527.38 657.54 528.71 657 529.59 655.22 530.89 652.76 533.32 651.21 533.77 646.53 535.9 642.64 535.8 639.95 536.24 638.75 536.25 637.5 535.79 635.78 536.15 634.81 537.04 632.77 538.46 630.96 540.24 629.64 541.98 629.95 542.6 631.12 542.73 632.22 543.23 632.63 544.04 632.29 545.88 632.22 549.37 632.5 551.45 632.54 554.15 632.94 557.43 632.98 558.99 632.46 560.71 630.7 563.42 630.4 564.49 631.04 565.17 635.86 564.85 638.24 564.59 641.18 564.8 641.86 565.16 642.57 566.41 643.91 567 646.87 568.81 650.27 570.02 653.24 570.01 654.54 568.45 656.49 567.78 657.04 568.46 658.27 568.13 659.59 566.51 661.28 566.46 662.12 566.9 665.12 568.08 665.67 568.68 665.81 569.55 665.48 570.51 665.37 572.63 665.07 574.05 664.46 575.31 663.42 576.72 661.62 578.69 660.92 580.01 660.41 580.35 659.48 582.12 659.48 583.22 657.46 583.02 648.49 591.36 648.04 592.47 647.07 593.73 645.58 594.66 644.24 596.23 642.16 599.41 639.99 598.77 639.4 599.58 637.99 600.85 636.66 602.93 634.92 605.37 633.16 608.11 633.18 609.78 634.76 613.13 634.76 614.25 632.75 618.1 632.09 618.55 628.92 618.95 627.76 619.74 627.8 621.49 628.61 622.21 628.94 623.62 629.37 623.81 629.31 625.09 625.92 626.77 624.92 627.47 624.47 629 621.24 625.91 620.16 625.01 619.66 623.76 619.28 621.99 618.21 621.54 616.85 621.5 615.87 621.93 614.4 623.01 613.24 622.92 609.66 620.65 608.91 619.18 607.34 616.88 607.18 615.91 607.56 615.12 607.32 613.19 606.1 611.19 606.03 610.38 605.96 609.35 603.72 607.07 603.35 605.55 603.2 603.6 600.71 598.79 599.38 597.41 592.67 591.16 591.44 589.73 589.78 588.78 587.66 585.8 587.45 584.83 586.06 583.7 583.78 583.12 582.98 582.67 581.64 581.16 581.38 579.81 581.54 577.1 581.72 571.79 581.63 571.16 580.17 567.88 579.41 566.46 578.79 564.79 578.14 563.76 577.3 561.6 574.84 558.45 573.8 557.59 572.18 555.6 568.51 551.65 564.82 547.34 563.17 545.7 561.08 543.04 560.39 541.75 558.96 540.25 557.24 538.72 556.33 537.5 554.89 536.44 552.54 535.23 551.93 533.6 551.92 531.99 551.5 531.31 550.08 530.55 547.32 528.66 546.64 527.41 546.49 525.96 545.57 524.4 545.26 522 545.11 519.04 545.26 513.63 544.12 512.6 543.5 510.69 542.3 510.18 538.99 510.93 538.17 510.68 535.7 509.53 534.51 508.79 533.72 508.61 532.37 509.26 531.64 509.26 528.1 507.46 526.53 507.23 524.04 505.91 521.98 505.18 517.82 503.47 514.82 502.4 510.92 500.86 509.61 500.52 506.76 500.28 500.53 499.36 498.06 499.06 496.5 499 494.19 498.52 489.71 499.57 480.38 502.29 473.59 504.2 470.86 506.16 470.12 506.53 467.59 508.42 465.98 509.13 465.57 510.15 466.14 512.73 466.21 513.87 465.68 517.21 465.8 518.08 466.47 520.03 469.31 525.09 469.92 527.5 469.95 528.79 468.35 535.06 465.95 543.84 464.4 549.79 464.38 552.67 464.52 560.33 464.44 562.41 464.51 566.34 464.11 567.88 464.16 570.2 463.36 572.02 462.62 572.84 455.32 577.21 453.93 577.98 441.14 573.92 437.52 572.11 434.39 570.41 431.32 568.62 429 567.93 427.97 567.47 427.92 566.58 420.78 562.96 420.24 562.39 415.66 562.22 415.36 560.89 415.41 557.6 415.32 556.44 415.69 554.81 415.23 554.15 407.03 551.84 405.36 551.47 404.16 549.73 404.13 549.06 402.89 549.41 401.78 549.06 400.67 548.09 398.6 548.35 396.99 546.79 396.62 544.24 395.38 543.14 394.36 541.29 391.93 540.67 389.16 541.15 387.16 541.01 384.11 539.71 382.28 538.26 380.83 536.89 380.59 535.32 378.94 534.64 375.16 534.47 373.57 533.97 372.5 533.86 370.23 534.34 368.75 534.47 367.65 534.2 366.58 533.54 364.85 531.17 364.2 530.69 360.83 529.92 358.36 529.67 356.87 528.09 356.26 527.02 355.23 525.82 354.05 524.97 349.05 525.2 344.62 524.49 343.72 524.53 340.93 525.5 338.78 525.78 335.83 526.35 333.36 525.62 332.24 524.53 331.76 523.03 330.96 522.22 329.38 519.95 327.84 518.74 327.12 518.4 327.06 517.44 329.16 515.87 329.56 514.64 329.7 512 329.06 507.35 328.41 504.72 328.9 502.79 328.96 500.43 329.57 499.02 331.81 496.56 332.08 495.91 332.28 491.14 332.03 488.91 329.61 487.75 327.09 486.07 326.49 484.52 324.99 483 323.44 481.76 322.59 481.58 320.81 482.41 318.39 482.69 317.61 480.8 316.83 480.03 314.65 478.87 314.11 478.08 312.09 477.22 310.68 475.88 309.08 472.4 308.09 471.23 307.37 469.08 307.95 465.99 307.82 464.33 306.84 462.88 304.72 461.75 303.85 460.59 303.83 459.6 304.46 458.48 304.87 456.36 306.53 453.74 307.78 452.67 308.91 451.19 309.18 450.44 309.27 447.5 310.15 445.41 310.26 442.31 309.6 440.69 310.33 438.57 311.79 436.37 313.09 432.91 314.26 430.12 314.29 429.06 315.15 427.81 316.9 426.23 317.28 423.44 317.97 420.04 318.57 419.42 323.43 417.84 323.8 416.76 324.47 416.1 326.96 414.84 328.13 413.9 329.49 411.49 331.23 409.14 332.4 407.18 333.46 405.9 334.99 405.05 337.85 404.6 339.46 404.63 340.18 404.28 341.12 402.2 342.71 399.88 344.77 397.62 344.79 396.43 343.53 395 342.11 394.47 338.55 394.27 336.79 393.9 334.68 393.22 333.82 392.42 331.21 391.68 330.48 391.3 329.83 390.48 329.2 390.38 325.9 391.16 324.86 391.6 323.28 391.74 321.24 393.7 319.96 393.95 318.13 393.85 316.24 392.69 315.22 392.83 311.91 393.9 310.49 394.9 308.13 394.63 305.77 394.14 304.12 393.19 302.44 392.67 300.27 391.27 295.88 389.38 293.74 388.1 292.99 387.97 292.19 389.32 291.79 390.69 291.79 392.8 290.55 394.55 289.77 395.14 288.33 395.68 286.58 397.35 285.41 397.17 280.37 399.44 279.11 399.44 279.04 397.41 277.91 396.04 277.44 394.9 276.42 393.32 276.44 391.95 275.03 390.55 273.59 390.14 270.71 390.11 267.72 390.27 265.81 389.12 264.64 388.67 263.75 387.84 262.76 387.4 259.25 387.45 258.01 387.77 256.68 388.9 254.17 390.58 253.84 392.15 253.33 392.66 251.22 393.52 249.23 393.44 247.23 393.73 246.56 394.16 246.34 395.04 246.42 396.38 245.57 398.3 243.26 400.75 241.58 401.56 240.61 401.29 240 400.09 238.16 398.09 235.69 397.29 233.17 397.59 232.84 397.25 233.87 395.73 234.53 393.65 235.16 392.53 236.36 387.95 237.09 386.57 238.05 385.81 238.33 385.2 238.01 383.4 238.28 382.29 239.48 379.48 240.89 378.59 245.65 374.72 246.4 374.31 249.87 371.82 251.13 370.05 251.08 368.31 250.19 367.15 250.4 364.92 249.78 364.25 248.48 363.65 248.02 362.48 248.75 361.43 248.8 360.5 248.43 359.35 249.54 358.3 251.16 357.87 252.44 357.27 254.4 355.75 254.66 355.03 254.34 353.13 254.46 352.42 255.54 350.08 256.86 349.26 258.29 348.99 261.64 348.04 262.75 348.49 263.99 348.45 266.22 347.9 266.58 347.56 266.48 345.86 267.11 344.27 268.9 343.36 269.7 342.18 269.62 340.84 270.87 339.93 273.11 339.46 274.7 340.41 275.38 340.43 276.85 339.79 278.06 340.29 279.77 339.99 281.09 337.65 282.97 336.24 285.46 335.35 287.13 335.59 287.67 335.06 288.13 333.66 290.03 331.25 290.71 329.67 290.5 328.94 289.52 328.68 287.8 327.6 287.03 325.88 285.46 325 285.15 324.44 285.36 323.52 284.35 321.68 283.72 318.5 283.22 316.82 284.41 316.21 285.13 315.17 284.13 313.7 283.69 312.16 282.9 311.72 281.89 312.1 279.45 311.77 276.21 312.88 274.74 313.87 273 313.65 272.38 313.84 271.47 315.07 271.56 316.66 271.28 318.06 270.64 319.56 270.57 322.52 268.26 325.63 264.78 327.95 264.22 328.14 260.03 330.41 259 331.64 258.54 332.62 258.07 334.36 258.25 335.66 260.57 335.45 261.11 335.7 261.06 337.85 261.31 338.48 262.48 338.64 263.95 339.82 263.45 340.71 263.64 341.47 261.41 342.24 259.55 341.47 258.12 341.36 257.12 342.32 254.56 343.28 253.13 343.51 252.58 342.25 250.91 341.48 250.1 342.85 249.59 342.87 248.59 341.72 248.49 341.09 247.5 340.38 245.97 340.29 245.39 339.69 244.81 340.25 243.38 340.66 242.65 341.13 241.03 342.96 241.41 344 241.15 345.34 241.51 346.18 241.12 346.56 241.89 347.95 242.85 348.35 242.46 350.72 240.5 352.93 239.36 353.87 236.44 356.91 233.18 359.64 233.53 361.38 233.36 362.94 234.21 363.8 236.64 365.55 236.52 366.54 235.98 367.5 233.46 368.89 233.81 369.66 234.8 369.9 234.21 370.6 232.43 370.58 231.33 370.24 230.8 370.5 230.11 371.74 225.45 372.39 224.1 372.24 220.1 371.23 219.22 370.9 218.74 369.96 218.45 367.4 217.92 366.25 216.4 365.86 214.34 364.77 213.19 364.76 211.96 365.38 211.48 366.42 208.2 366.81 206.56 366.77 205.83 366.99 205.22 367.67 203.61 367.26 200.43 367.79 200.33 371.14 201.26 372.83 200.79 373.78 198.59 373.91 198.14 374.14 198.46 375.68 197 376.38 196.53 377.64 197.3 379.46 197.46 380.37 196.82 380.69 195.09 379.98 194.78 381.66 195.09 384.44 196.37 385.16 196.55 386.11 195.87 387.07 195.85 388.75 197.63 388.83 198.38 389.74 198.63 391.79 199.7 393.24 199.91 393.84 198.9 395.7 199.02 396.79 198.42 397.99 196.77 398.2 194.26 399.67 193.3 400.78 192.02 402.83 191.66 403.73 191.83 404.54 193.66 406.55 194.9 408.64 195.23 410.05 191.96 412.13 190.58 412.88 188.75 413.61 184.95 415.63 184.36 416.26 183.03 418.34 182.89 419.65 183.03 421.43 181.69 424.07 180.63 425.52 179.44 425.88 178.11 422.7 177.98 421.62 177.41 420.8 175.67 419.64 173.08 419.07 172.69 417.59 169.37 415 169.29 413.61 168.41 412.78 165.07 410.42 164.6 409.3 164.29 407.65 161.94 406.35 160.58 405.81 160.07 404.23 160.15 401.62 161.09 398.92 161.16 398.1 161.98 395.67 162.35 395.11 163.85 394.1 165.82 393.05 166.42 391.84 166.73 390.21 166.03 388.57 165.76 386.18 164.94 384.64 165.9 383.15 166.23 380.63 165.94 377.96 166.06 376.01 166.59 374.02 167.7 372.76 167.98 370.75 167.65 369.78 165.78 368.43 164.48 368.15 163.13 368.21 160.56 368.66 158.41 367.95 157.06 366.46 156.12 366.36 153.68 367.3 153.02 368.47 153.06 370.04 152.45 371.5 152.35 372.35 153.29 373.79 153.14 374.44 151.44 375.35 150.43 376.49 149.9 377.74 147.84 379.28 145.91 379.38 145 379.82 143.32 381.22 142.79 382.03 141.97 382.6 138.15 380.74 136.52 381.43 133.94 381.4 131.64 382.85 131.03 383.51 129.67 386.17 128.98 387 126.12 388.89 124.57 389.41 124.03 390.01 124.29 392.7 122.4 391.25 119.59 391.38 117.82 391.8 116.44 391.57 113.67 391.73 112.4 392.27 112.23 393.64 111.08 395.12 110.41 399.36 109.79 400.57 108.64 401.28 107.14 403.47 105.57 404.83 105.03 404.21 105.26 401.72 104.92 401.1 104.01 401 102.3 401.75 101.61 403.3 100.78 403.58 99.15 402.65 97.31 403.07 98.58 399.85 99.53 399.73 100.49 398.41 100.34 395.93 100.53 395.24 100.31 394.23 99.3 393.63 97.32 393.97 96.62 392.18 96.69 391.29 97.57 389.86 97.1 388.86 97.48 387.87 98.53 387.42 98.85 384.39 99.59 381.86 98.36 381.57 97.71 382.16 96.49 382.07 94.79 381.08 93.19 381.29 91.61 381.16 90.75 381.61 89.69 382.81 88.34 381.97 88.29 380.56 86.95 380.89 85.65 380.74 85.17 381.35 82.78 379.8 81.57 378.41 80.44 378.57 79.55 377.9 80.02 375.39 80.54 374.61 81.56 373.83 81.37 373.34 78.74 372.47 77.59 371.56 78.03 370.89 79.29 370.61 80.12 369.59 79.97 368.17 79.54 367.53 78.85 367.42 77.3 365.81 76.46 364.62 76.47 363.44 76.86 361.64 75.25 360.46 75.47 359.55 76.85 358.96 78.33 356.86 79.21 356.16 78.94 355.59 78.11 355.29 75.86 354.93 75.58 354.69 74.9 352.57 73.88 351.4 73.7 349.97 73.34 349.45 71.77 349.02 68.62 350.01 67.7 349.83 67.2 349.17 67.12 348.01 67.86 347.24 67.82 346.2 67.19 345.45 67.33 343.95 68.11 341.35 68.54 339.05 68.5 338.44 66.68 334.63 66.87 333.52 65.5 332.17 64.78 331.14 64.81 329.67 63.97 329.15 62.17 329.45 61.24 328.4 59.89 328.81 59.88 326.92 58.44 326.24 58 324.78 57.08 324.29 54.94 324.64 53.98 325.94 53.64 326 52.71 324.44 52.82 324.04 54.56 322.9 55.28 320.76 54.89 320.23 53.13 318.84 51.45 316.92 48.64 318.45 48.2 319.54 47.46 319.55 46.11 318.9 45.79 317.43 46.22 316.9 46.2 315.51 46.83 314.78 46.09 313.93 47.64 313.67 49.44 311.32 48.81 309.82 47.86 309.43 47.4 308.61 46.28 308.86 45.44 306.15 45.75 304.56 47.45 302.3 48.31 302.24 49.26 300.04 50.97 299.08 51.18 298.36 50.7 297.58 49.46 296.43 49.36 295.17 49.95 293.67 50.08 291.57 51.12 290.39 52.66 289.68 53.62 289.57 55.13 287.51 56.79 285.86 57.54 284.59 57.36 282.97 57.48 282.05 56.93 281.36 55.51 282.58 53.87 282.78 52.62 280.99 54.25 279.99 55.34 277.86 55.65 276.39 55.49 275.18 56.28 274.61 57.21 272.46 56.26 271.37 56.35 270.09 55.85 268.9 55.98 266.72 56.68 266.64 57.71 265.02 57.38 263.86 55.94 264.35 54.18 263.79 53.69 262.75 53.75 262.13 54.66 261.16 54.14 260.59 54.34 257.6 53.98 256.75 55.56 255.19 55.54 254.43 54.74 254.01 54.41 252.48 54.71 251.47 54.37 251.06 53 250.65 53.29 249.22 53.83 248.69 54.93 249.61 55.34 249.57 56.23 248.05 55.67 247.03 55.89 245.48 56.42 244.55 55.33 242.98 55.24 241.47 55.99 239.53 53.33 239.39 50.84 239 49.76 239.2 45.85 240.98 41.38 242.51 37.17 242.48 36.57 242.11 36.64 241.02 36.2 240.3 36.35 239.47 35.28 239.36 32.39 237.97 30.39 238.1 29.63 237.89 28.59 237.11 25.81 238.45 24.97 238.1 24.38 238.88 23.2 239.37 23.16 240.57 22.15 241.22 20.51 240.9 19.06 242.94 18.3 243.51 16.21 243.16 12.8 244.77 9.65 244.61 8.26 242.8 7.63 242.43 6.53 242.64 4.95 243.56 1.92 244.15 1 243.23 2.53 242.3 2.93 241.03 3.78 239.79 7.5 237.38 8.04 236.47 7.71 235.34 7.03 234.43 6.03 233.61 4.46 233.79 3.39 232.94 3.95 231.31 5.9 229.22 6.96 227.47 8.5 223.78 8.68 220.84 11.64 218.34 13.92 215.99 15.07 215.36 16.53 214.88 17.17 214.23 17.66 212.16 20.32 209.87 21.32 209.55 22.49 209.72 26.26 210.86 28.66 211.14 29.52 210.82 30.86 210.85 33.79 211.85 35.62 215.8 35.67 216.95 36.27 217.75 37.2 218.21 39.87 218.24 41.11 218.8 41.36 220.38 42.98 221.16 44.65 222.7 47.29 221.99 48.6 220.91 48.86 218.95 49.21 217.97 51.24 215.38 52.51 213.14 53.88 211.82 55.89 209.33 56.18 208.26 56.94 206.59 56.92 205.88 56.19 203.82 55.72 200.54 55.74 199.19 56.47 197.2 57.5 195.35 57.63 194.05 58.2 192.94 57.97 191.31 58.13 189.67 57.76 188.54 56.81 187.77 53.93 186.49 52.5 184.26 52.14 183.43 53.38 180.39 52.94 178.57 52.93 177.35 53.47 176.53 53.74 175.22 54.18 174.37 55.36 173.14 55.74 172.33 56.2 170.02 56.17 168.81 55.29 165.4 53.74 162.61 53.43 161.42 51.77 158.1 50.98 157.2 49.19 156.12 47.43 155.61 45.87 156.08 44.51 155.62 43.09 155.41 42.15 155.57 40.53 156.9 38.66 157.6 37.56 157.61 36.54 158.01 35.28 157.71 34.6 156.29 34.5 155.19 33.27 152.9 33.5 151.42 34.13 150.1 34.77 149.51 34.88 147.32 36.41 144.99 37.7 143.72 39.22 144.97 41.96 144.07 42.19 143.63 42.05 142.11 41.63 140.61 40.82 139.48 40.09 137.43 38.87 135.17 37.92 134.11 37.11 133.76 35.5 132.07 34.27 131.31 33.84 129.65 32.92 129.19 29.24 128.17 27.29 128.52 25.15 128.6 23.85 128.27 22.06 126.81 21.13 125.69 21.23 124.9 22.32 123.5 23.99 122.48 24.05 121.6 23.19 120.77 23.09 119.59 23.44 118.5 24.87 117.52 25.43 116.49 27.9 114.2 29.79 113.16 32 111.36 32.91 111.46 34.22 112.53 35.16 112.8 37.25 112.33 40.17 112.6 40.75 112.26 42.32 110.69 42.89 109.33 43.69 108.18 45.83 106.74 46.21 105.9 47.73 105.01 50.78 105.32 51.36 104.23 50.8 103.16 52.12 100.55 53.95 98.9 55.16 98.22 56.17 97.32 57.6 97.56 59.01 98.28 62.09 96.87 62.7 96.72 64.19 97.25 65.66 98.03 66.33 99.08 67.62 99.26 71.08 97.64 70.49 96.21 69.91 92.63 69.54 91.16 70.39 90.04 72.32 89.25 72.65 88.65 72.62 86.77 72.93 85.78 72.62 84.19 70.67 82.73 71.95 80.11 72 78.94 72.42 77.4 71.72 75.86 71.8 73.87 72.5 72.93 74.86 71.75 74.77 69.67 73.7 66.91 73.86 66.07 74.87 65.58 75.9 65.42 76.91 65.81 78.08 65.88 79.98 65.34 81.93 65.34 82.54 64.28 83.78 63.34 86.4 62.56 88.56 63.26 88.56 64.16 90.94 65.57 93.35 65.92 94.65 66.78 95.49 67.86 97.46 68.53 99.88 69.92 100.64 71.1 101.36 71.7 102.4 72.07 103.83 72.11 105.9 71.24 107.74 71.06 109.14 71.12 109.88 70.67 109.83 69.49 109.03 68.36 106.96 66.34 105.8 64.47 105.51 61.44 104.99 59.9 105.45 58.72 106.11 58.44 109.86 57.83 111.47 57.69 112.83 56.94 113.13 56.05 113.21 54.09 112.91 52.73 113.32 51.72 114.73 50.4 115.23 48.83 116.15 48.25 117.41 47.88 118.33 46.24 120.58 45.17 120.88 44.63 120.77 43.53 122.29 43.27 124.51 43.67 126.03 42.8 127.13 42.42 128.26 42.64 128.97 43.47 129.04 45.34 130.42 47.04 130.75 47.86 131.62 47.94 132.99 47.41 136.17 45.83 138.46 43.94 140.03 43.26 144.38 42.35 147.26 40.02 148.65 38.29 149.78 37.26 152.44 34.41 155.34 33.66 157.34 33.52 158.98 33.03 159.63 32.11 159.5 30.89 159.74 30.2 161.21 28.73 162.41 27.93 163.63 27.9 166.86 28.78 168.02 28.7 169.74 27.56 170.34 26.75 171.09 24.25 171.71 23.85 175.77 24.61 181.34 24.3 182.72 24.87 183.79 24.91 186.77 25.72 189.33 25.11 190.54 22.89 192.8 21.88 194.59 21.9 195.69 21.07 198.9 15.28 201.1 13.47 202.86 12.71 205.41 12.56 207.09 12.72 207.81 12.52 210.91 9.93 213.03 8.87 214.28 7.49 214.69 6.32 213.95 4.4 213.93 3.55 214.43 2.65 216.15 1.07 217.62 1 220 1.36 221.75 1.96 222.65 1.96 224.38 1.47 225.65 2.12 226.92 2.41 229.98 1.46 230.98 1.64 233.62 2.49 237.08 4.57 239.52 5.06 242.54 3.89 243.56 2.91 Z"/>
</g>
</svg>