<?xml version="1.0"?>
<svg xmlns="http://www.w3.org/2000/svg" version="1.2" baseProfile="tiny" width="800" height="736" viewBox="0 0 800 736" stroke-linecap="round" stroke-linejoin="round">
<g id="4209177">
<path d="M 799 235.14 775.73 223.21 774.92 227.63 771.36 230.19 769.36 238.58 767.74 242.55 763.99 244.72 758.82 252.5 756.02 258.02 753.5 260.79 747.79 264.3 745.4 266.78 739.35 276.45 733.36 279.29 724.67 282.47 714.04 284.06 710.11 285.52 702.94 286.83 696.95 288.81 691 293.27 687.43 300.22 682.17 304.47 669.69 308.56 666.49 311.46 662.66 317.82 662.56 320.44 664.9 325.04 669.08 330.8 670.49 339.62 675.66 352.49 679.09 354.28 683.12 354.78 686.6 358.43 684.71 364.76 680.17 377.35 674.29 380.08 673.04 385.68 670.14 390.25 661.18 393.38 657.21 393.87 654.11 395.84 650.13 405.33 643.36 414.89 643.68 422.38 642.27 423.54 633.04 423.99 626.96 425.55 618.37 424.99 611.99 423.72 608.91 424.59 605.12 423.91 597.05 424.94 592.78 423.26 581.65 422.79 573.22 426.44 566.66 426.29 560.66 424.67 555.52 421.93 550.26 420.22 545.93 417.02 540.19 414.36 540.57 418.04 536.32 421.52 536.3 427.42 532.02 428.68 529.94 430.76 526.64 431.73 524.88 438.88 521.26 442.26 519.07 441.96 517.57 435.89 511.89 432.37 506.87 433.49 505.58 436.5 500.34 442.36 507.82 448.03 504.98 450.43 506.56 453.21 511.53 457.83 506.53 464.34 511.96 466 519.04 463.8 523.3 468.11 529.45 468.61 538.28 464.81 539.82 465.19 544.32 473.03 543.94 476.87 539.54 480.32 535.28 486.8 525.19 482.06 523.05 482.25 520.19 491.47 516.43 493.23 513.14 487.87 510.53 486.68 500.91 485.59 492.11 481.67 485.13 480.8 482.22 479.03 473.01 476.2 469.67 472.97 465.56 471.46 458.19 471.38 454.6 474.23 452.62 480.5 447.81 483.72 444.99 484.14 442 486.31 436.32 488.22 429.8 487.78 426.28 485.35 422.74 484.73 419.46 489.39 415.43 492.19 415 496.31 411.55 501.23 407 510.63 406.04 515.51 403.09 519.56 395.59 524.89 393.53 527.23 389.82 538.28 389.98 542.9 388.16 545.73 381.87 549.26 377.78 554.21 377.44 560.05 374.17 561.56 371.8 565.47 367.27 565.34 362.92 569.86 356.63 569.84 349.69 570.57 348.79 573.21 345.83 572.96 343.97 569.83 341.38 569.03 337.75 570.53 334.48 576.52 329.95 577.51 326.53 575.07 324.7 572.22 321.62 571.49 314.33 574.02 314.19 577.38 316.25 579.58 320.71 581.4 319.55 584.05 316.7 585.67 312.55 585.94 310.48 584.52 311.2 580.68 305.72 576.9 298.43 578.62 296.12 582.14 302.67 585.21 303.83 587.14 303.61 590.94 301.66 591.47 296.96 587.25 291.02 588.58 287.65 591.52 294.32 597.32 294.64 600.62 286.3 600.7 284.64 601.61 280.91 610.52 281.38 614.5 286.61 616.19 289.89 619.87 292.51 618.64 296.07 623.37 295.29 629.95 298.32 630.54 299.61 636.11 298.19 637.87 299.94 643.9 302.53 646.62 304.61 651.22 307.81 655.55 310.81 664.93 314.07 668.79 319.55 672.87 317.47 681 318.81 687.15 316.73 690.94 309.47 693.03 309.56 694.98 313.02 699.23 312.4 701 301.85 702.99 296.86 707.35 293.66 711.66 288.91 714.45 281.78 711.36 275.41 703.03 273.2 702.57 269.11 705.43 263.64 714.81 260.01 725.38 255.22 727.56 243.41 727.88 240.4 732.55 232.24 735 222.01 729.26 220.29 729.1 222.95 725.99 234.01 721.92 234.9 720.21 232.53 717.61 217.97 711.67 209.3 707.12 205.39 702.41 208.4 700.6 226.76 702.73 237.05 695.08 238.01 691.28 237.22 678.87 231.52 669.6 220.26 662.05 214.71 660.05 210.35 656.29 201.27 652.7 195.2 648.06 193.79 644.46 191.1 628.26 189.34 626.89 183.72 625.98 179.04 627.8 174.86 632.1 175.33 635.1 180.69 644.5 184.72 655.71 186.08 665.68 186.63 673.42 186.18 680.42 183.88 691.75 182.59 694.22 181.3 700.84 180.02 702.61 176.62 702.88 168.01 699.96 165.83 696.05 161.6 692.31 148.81 687.09 143.85 683.75 138.77 681.77 130.42 680.42 127.27 679.64 120.25 679.89 117.58 679.23 111.42 679.63 108.25 681.5 104.01 689.73 97.72 699.21 94.45 701.71 88.22 700.22 83.1 696.45 73.38 693.21 65.33 689.09 63.03 689.33 52.97 684.89 49.12 681.86 46.15 677.71 45.57 673.53 51.61 673.98 55.81 675.4 66.64 676.4 75.77 676.31 78.22 673.35 72.94 668.51 68.74 665.99 69.26 664.09 75.04 661.65 96.15 662.3 100.45 659.55 100.5 656.81 97.93 653.56 89.85 645.63 82.26 639.43 80.41 635.94 80.72 632.97 83.29 626.68 86.86 622.24 88.77 616.82 94.15 610.61 97.97 608.91 101.13 609.24 106.91 614.8 110.98 617.34 117.96 623.28 122.94 622.64 131.01 618.8 135.6 615.27 139.72 613.92 154.97 612.22 161.06 613.92 161.75 615.15 167.07 616.59 171.56 612.73 171.94 607.34 169.97 599.19 162.78 596.56 154.98 594.69 155.21 589.67 159.11 584.47 160.13 579.11 156.54 574.65 156.54 567.3 152.65 565.75 146.74 566.97 144.81 568.78 144.8 571.56 132.53 573.77 131.06 576.73 111.03 575.52 109.19 574.6 109.17 568.03 111.73 564.12 114.53 563.29 115.55 561.06 113.58 556.33 113.43 553.12 115.14 549.85 115.37 542.65 109.16 534.06 104.98 531.59 102.48 535.47 95.54 540.36 96.16 549.62 94.48 551 89.37 549.65 83.56 553.1 81.75 550.93 81.75 547.88 77.96 533.44 73.47 530.3 59.93 529.94 58.19 526.65 62.61 518.86 65.87 518.71 72.62 523.68 76.01 523.88 84.96 517.91 88.83 511.62 89.85 501.69 87.48 500.19 88.36 497.56 91.37 494.88 98.1 494.59 101.17 493.09 102.55 488.77 102.41 484.36 103.48 475.43 99.31 472.95 90 472.84 83.34 466.58 83.08 465.22 89.14 461.45 90.15 459.04 90.19 453.12 91.77 450.28 97.27 449.36 101.2 452.34 104.56 453.04 113.67 453.6 114.64 452 112.14 447.84 110.16 439.15 114.4 434.4 114.26 432.67 107.8 426.25 94.32 420.5 89.87 420.03 87.18 427.95 83.95 432.63 80.51 435.07 78.78 441.06 70.55 447.05 65.05 447.55 64.89 443.95 66.56 439.34 63.82 432.98 62.62 428.01 60.9 425.33 57.14 423.08 43.96 417.72 40.98 414.19 36.76 401.88 37.75 400.49 48.43 394.88 53.59 395.66 56.91 394.88 74.27 397.44 80.38 401.38 84.46 401.37 86.37 400.13 83.93 395.45 80.83 382.27 86.91 380.37 90.88 377.54 92.74 372.38 97.54 367.63 98.46 365.17 98.01 361.23 96.13 358.66 100.05 355.29 101.17 352.82 99.48 349.86 102.05 345.6 99.68 341.46 100.17 333.94 97.68 329.86 91.41 325.24 88.02 325.66 85.65 319.95 77.96 316.57 75.26 316.76 70.06 312.42 65.83 309.85 66.78 307.72 64.01 306.18 61.55 306.65 59.6 304.17 56.72 303.38 56.52 299.31 53.92 294.08 45.3 289.41 43.34 286.94 39.95 286.31 35.48 281.4 34.94 279.27 38.06 277.06 37.2 273.83 33.41 272.05 33.77 268.68 29.88 266.18 23.89 265.53 18.8 256.24 18.35 253.78 12.41 253.01 9.68 246.39 7.5 244.8 2.88 244.16 1 241.63 3.9 235.44 7.17 233.79 6.26 227.26 9.58 224.43 14.53 222.33 20.32 213.38 20.73 208.42 28.29 199.71 31.73 198.92 34.89 194.37 37.41 192.43 39.19 188.64 44.15 183.88 49.4 182.2 56.46 177.46 61.63 164.42 65.38 159.36 67.93 151.92 88.12 120.18 95.76 111.36 97.13 105.68 96.94 100.59 94.45 92.92 91.22 89.63 87.73 83.95 87.15 80.2 85.16 77.46 85.7 69.86 125.48 63.89 124.37 43.72 127.15 36.64 137.92 25.28 152.67 15.42 171.56 12.59 194.02 14.44 199.66 19.93 211.42 20.74 226.99 11.44 237.13 1 242.37 2.09 247.45 9.58 277.34 30.48 304.73 33.97 310.58 38.09 335.22 67.33 342.5 85.09 351.38 92.48 360.91 93.13 412.26 78.67 428.41 82.19 448.53 93.28 464.4 97.19 475.77 94.98 494.64 83.53 503.95 72.31 511.26 68.69 519.36 68.53 551.6 81.97 585.7 64.82 595.17 64.49 606.1 72.21 620.06 98.21 624.61 103.7 649.46 125.65 656.67 139.18 684.97 161.35 709.28 192.76 715.87 197.21 746.25 207.28 786.4 225.26 799 235.14 Z"/>
</g>
</svg>