<?xml version="1.0"?>
<svg xmlns="http://www.w3.org/2000/svg" version="1.2" baseProfile="tiny" width="800" height="991" viewBox="0 0 800 991" stroke-linecap="round" stroke-linejoin="round">
<g id="4209300">
<path d="M 798.18 82.92 797.91 83.37 796.7 84.5 796.02 85.89 796.07 86.66 795.47 89.98 795.62 91.41 796.42 92.1 798.74 93.47 799 94.83 798.32 97.19 798.31 99.47 798.48 101.81 798.59 105.02 797.61 106.23 796.9 106.56 795.81 107.33 795.47 108.11 794.44 108.91 793.05 110.81 793.01 111.13 794.04 112.32 794.91 112.37 795.82 113.27 795.84 113.94 796.41 114.9 795.71 115 795.75 115.43 796.37 115.77 795.59 116.68 795.55 117.29 796.08 118.12 795.7 119.03 795.59 120.58 795.25 121.59 794.44 121.48 794.22 120.54 793.35 120.47 792.96 121.34 791.58 120.91 791.54 120.21 791.2 119.97 790.05 119.79 789.62 120.03 788.84 120.05 787.47 119.73 786.28 119.67 785.35 119.46 784.69 119.13 783.48 119.15 783.49 119.97 782.96 120.42 782.45 121.38 781.78 122.97 781.63 123.85 780.43 124.35 779.75 125.27 779.05 125.9 777.17 125.69 776.58 125.86 775.77 126.9 775.89 127.36 776.76 128.42 776.46 128.79 776.32 129.74 775.84 129.98 775.11 130.89 772.48 132.14 771.88 132.93 772.37 133.28 771.75 133.85 771.9 134.49 771.66 134.87 770.83 134.57 770.38 134.88 770.53 135.41 770.12 136.21 769.69 136.61 770.43 136.91 770.45 137.28 769.64 138.36 769.26 138.31 769.28 139.14 768.85 139.26 768.16 139.85 768.5 140.38 767.95 140.64 766.83 142.07 766.55 143.27 766.84 143.84 767.6 144.71 768.04 144.91 768.68 144.79 769.83 144.3 770.48 144.3 771.08 144.78 771.19 145.31 770.98 145.98 768.51 146.36 766.01 148.27 765.09 149.75 764.9 150.78 764.91 151.73 765.31 152.84 766.28 153.37 766.49 154.92 766.89 155.77 768.92 158.51 769.55 158.83 769.26 159.28 768.77 159.22 767.91 159.7 767.23 160.37 766.52 161.42 765.59 161.66 765.39 162.38 765.65 163.65 765.98 163.64 766.44 161.92 767.48 161.63 767.6 162.6 767.37 163.31 766.3 164.48 765.48 164.58 764.89 165.05 763.5 165.87 762.14 166.52 761.86 167 763.42 166.97 764.03 167.47 764.66 168.68 763.62 169.7 762.8 171.09 762.15 173.72 762.21 174.14 761.99 175.35 762.01 176.48 761.6 177.83 762.19 178.39 764.09 178.77 764.66 179.45 764.93 180.46 764.87 181.62 765.24 182.61 764.98 183.33 765.61 184.64 766.12 185.31 766.43 186.14 766.44 188.22 766.18 189.29 766.69 190.51 766.45 192.92 765.91 193.75 766.4 194.9 766.44 195.41 765.26 197.07 764.66 199.38 764.61 200.13 765.26 201.04 764.13 202.33 763.89 203.44 764.26 204.63 764.17 205.36 763.04 205.82 762.78 206.25 763.03 207.3 763.46 207.97 764.14 210.05 764.23 210.62 763.85 211.38 762.04 213.01 762.06 215.6 761.53 215.93 759.98 216.4 758.4 217.51 757.66 217.75 756.51 217.65 755.88 217.98 755.31 218.55 754.14 218.93 753.64 219.78 752.97 219.97 751.39 220.09 750.46 220.94 750.18 222.19 749.02 223.7 748.81 224.47 748.81 225.7 749.18 226.3 749.04 227.53 749.32 228.4 749.15 228.86 748.27 229.28 747.74 229.94 747.46 230.76 747.45 231.7 747.66 232.3 747.5 233.22 746.7 234.13 746.12 235.07 745.3 235.81 744.54 235.85 743.06 235.04 742.12 234.13 741.05 233.85 740.62 234.31 739.34 233.77 738.47 233.97 737.66 234.45 737.28 235.02 736.49 235.68 735.17 235.69 734.03 234.89 733.38 234.78 732.4 235.34 731.16 235.76 729.45 236.01 727.91 236.98 727.47 236.98 726.46 236.52 725.4 236.64 724.27 237.31 723.38 238.31 722.69 238.66 720.87 238.63 719.55 239 718.7 239.8 717.39 241.89 716.79 242.21 715.39 242.28 714.45 242.15 713.79 242.25 713.05 242.67 711.54 243.84 710.42 244.43 709.62 245.5 709.75 246.1 709.67 247.19 709.85 248.35 710.08 251.09 709.96 252.37 710.59 252.97 711.45 253.13 712.01 253.6 712.14 254.25 711.89 254.65 710.83 255.56 709.96 256.73 709.91 257.4 711 258.04 711.47 258.51 712.39 260.66 712.63 261.49 712.94 261.78 714.32 261.98 715.38 262.41 715.69 262.78 716.17 263.98 717.25 265.4 718.05 266.68 718.43 267.88 718.28 268.78 717.45 269.91 716.15 271.4 716.24 271.9 716.82 272.47 717.5 274.03 718.58 274.56 719.6 275.42 719.9 275.89 720.13 276.84 720.74 277.51 721.69 278.04 719.96 279.45 719.68 280.05 719.6 280.88 719.98 281.47 719.72 281.97 718.47 283.45 718.63 283.85 719.63 284.69 719.63 285.09 720.76 286.09 721.03 287.17 720.96 287.86 720.07 288.93 720.74 289.61 720.98 290.21 721.01 291.03 721.41 291.89 721.06 293.49 721.22 294.07 720.65 294.96 719.95 296.43 719.4 296.95 719.62 297.96 720.74 298.43 720.66 299.23 720.16 299.65 719.93 300.39 719.3 301.29 718.81 301.52 718.16 301.03 716.93 302.31 716.29 303.32 715.55 303.82 715.59 304.54 716.38 304.7 716.82 305.43 716.59 306.21 715.99 306.79 716.21 307.73 715.91 308.04 715.94 308.83 715.64 309.43 715.84 309.95 716.31 310.26 716.16 310.96 715.75 311.12 715.66 311.66 714.82 312.29 714.28 312.07 713.69 312.29 713.6 312.8 712.94 313.35 712.15 313.36 711.32 313.72 709.69 312.72 708.35 310.26 707.57 310.21 707.12 311.28 706.02 311.32 705.74 311.63 705.04 313.78 704.04 315.29 703.16 315.55 701.75 315.57 701.26 315.88 701.17 316.38 700.16 317.76 700.12 318.11 698.87 318.8 697.85 318.44 696.83 318.65 696.76 319.56 696.05 319.93 694.77 321 693.88 321.37 693.55 321.25 692.73 319.61 691.99 318.68 690.5 317.83 689.47 317.67 688.16 318.29 688.04 318.8 688.48 319.47 688.72 320.35 688.93 321.89 689.22 322.95 689.2 323.54 688.85 324.96 687.67 325.48 687.41 325.92 688.12 327.42 687.94 327.95 687.14 327.96 685.81 327.52 685.25 327.8 683.99 328.08 682.68 327.47 681.73 327.68 680.81 328.31 678.05 329.26 675.26 330.67 674.71 330.79 673.95 329.91 673.65 328.93 673.53 327.76 672.81 327 672.75 326.28 669.85 325.18 669.27 325.58 668.96 326.22 668.08 327.45 667.63 328.85 666.82 328.63 666.1 328.69 664.95 329.12 664.15 328.87 663.84 328.24 662.77 328.47 662 328.9 660.39 329.55 659.76 330.17 658.23 330.39 656.81 329.96 656.48 329.64 656.13 328.61 654.84 328.4 654.33 328.76 654.23 329.98 653.79 331.33 653.24 331.36 652.81 330.61 652.21 330.05 651.76 329.92 651.06 330.17 650.61 330.81 649.15 331.87 648.21 332.26 647.71 332.24 647.28 331.73 647.03 330.49 646.32 329.56 645.24 329.42 644.44 328.84 643.18 328.52 641.6 327.54 640.63 326.43 640.01 326.24 638.52 326.24 637.13 325.91 635.99 326.1 635.59 326.54 635.45 327.17 634.75 327.97 634.77 328.94 635.44 330.73 635.25 331.9 634.92 332.11 633.97 331.97 632.77 330.98 631.62 330.6 631.03 330.68 630.21 330.43 629.66 330.96 629.35 331.78 628.69 331.9 627.22 331.49 626.01 331.72 624.92 331.73 624.37 331.15 623.66 331.26 623.25 332.54 621.87 332.31 620.28 332.52 618.81 333.06 617.36 333.08 615.56 334.04 613.87 334.5 612.58 334.68 611.88 334.96 611.58 335.58 611.68 337.14 611.53 337.53 610.51 338.94 609.43 339.57 607.92 340.12 607.27 340.74 606.78 341.5 606.05 343.17 604.98 344.01 604.37 344.17 603.44 343.75 602.69 342.81 600.88 341.99 599.8 341.06 599.31 340.92 598.46 341.07 597.34 340.55 595.74 340.42 594.07 339.73 592.98 338.87 592.43 337.83 591.7 337.43 590.47 337.64 590.17 338.31 590.4 339.13 590.19 340.22 589.64 340.74 588.38 340.47 586.83 339.93 585.45 339.98 584.15 340.49 581.83 340.87 579.93 340.91 577.16 340.13 576.45 339.59 575.77 338.79 573.96 337.55 573.11 337.35 571.91 337.55 570.47 337.97 569.33 337.4 568.65 337.69 568.13 338.41 566.36 339.4 565.45 339.75 564.15 340.79 563.61 341.82 564.45 342.49 565.8 342.15 566.8 342.4 567.84 342.95 568.41 343.9 568.06 344.7 565.76 345.64 565.07 345.76 563.79 346.44 562.79 346.45 561.3 345.96 558.78 345.55 558.52 345.69 557.28 347.69 556.35 349.73 554.89 350.75 554.35 350.94 553.67 350.83 552.96 351.04 553.08 351.51 552.8 352.36 552.89 352.95 553.48 353.51 553.98 353.48 554.58 354.34 555.5 354.18 555.39 354.79 553.8 355.29 554.34 357.15 553.92 358.04 554.31 358.43 553.59 359.12 552.97 360.01 553.31 362.71 554.18 363.1 554.73 363.91 554.36 365.23 554.56 366.79 554.29 367.68 552.97 367.92 553.06 368.87 553.39 369.53 553.42 370.48 553.78 371.06 554.52 370.9 555.08 371.33 554.72 372.2 554.14 372.38 553.67 372.17 553.42 373.21 554 373.94 554.03 375.39 553.9 375.97 554.19 376.6 554.79 377.29 555.4 377.49 555.96 377.29 556.07 376.66 556.9 376.65 556.73 378.32 557.51 381.02 558.23 381.28 558.21 382.1 559.97 383 560.02 383.49 559.73 384.32 560.34 384.7 560.4 385.35 560 386.12 560.21 386.66 561.76 387.39 561.94 388.32 562.62 388.51 562.03 389.38 562.58 389.75 562.87 390.35 563.42 390.54 563.93 391.56 564.96 391.85 565.61 391.72 567.06 391.77 567.75 391.65 567.87 392.12 570.21 392.91 570.71 394.17 570.73 394.64 570.22 395.18 570.74 395.46 571.39 395.47 571.88 395.9 572.65 394.85 573.15 394.73 574.2 395.15 575.03 394.99 575.93 395.29 576.55 396.31 577.66 396.77 577.59 397.47 576.81 397.89 576.49 398.65 576.96 398.77 577.74 399.7 577.25 400.46 576.48 400.57 576.29 400.87 576.34 401.82 576.63 402.49 577.5 402.64 577.93 402.31 578.96 403.63 578.69 404.49 578.68 405.44 579.43 406.06 581.22 407.19 582.28 408.8 582.13 409.25 582.44 409.81 581.93 411.66 583.19 412.88 584.03 413.89 584.34 416.23 585.19 416.72 586 416.11 586.23 417.41 586.84 418.22 587.28 418.33 587.41 419.05 586.93 420.22 587.71 421.19 588.75 421.49 589.63 422.22 590.06 423.73 590.78 424.97 590.63 425.57 590.95 426.26 590.26 426.81 589.66 427.94 589.16 428.21 588.71 429.57 588.12 430.84 586.92 432.68 586.35 434.26 585.62 435.49 584.88 437.39 583.81 439.26 583.78 439.56 582.26 441.49 581.5 443.18 581.25 444.37 579 446.83 577.62 447.42 577.18 448.28 576.36 449.25 575.85 449.57 574.87 451.03 574.41 451.41 574.59 451.86 575.6 453.1 576.04 453.2 575.6 454.47 575.67 455 574.72 455.43 574.48 456.07 574.09 456.26 574.14 456.79 574.54 457.12 574.39 458.06 574.65 458.96 573.78 459.28 573.11 460.28 573.13 460.99 573.39 461.44 572.56 462.45 572.54 462.96 572.16 463.51 571.76 464.6 571.45 466.42 572.07 466.57 573.04 467.51 573.47 468.21 573.67 469.14 574.23 469.42 574.71 470.2 574.5 470.7 574.94 471.32 573.93 472.22 573.63 472.83 573.57 474.18 574.17 474.75 575.09 476.12 574.86 476.64 575.15 477.81 574.18 479.28 573 480.35 572.98 481.27 572.68 481.74 571.43 483.01 571.18 483.78 571.99 484.05 571.77 484.47 571.14 484.77 571.88 485.34 571.78 486.05 571.11 485.92 570.34 485.17 570.04 485.24 569.42 486.22 571.55 512.34 578.39 596.17 578.01 596.97 577.17 597.91 576.74 599 575.85 600.63 574.53 601.74 574.15 602.6 573.4 603.41 574.02 604.43 573.74 605.14 574.32 605.61 573.8 606.13 572.46 606.54 572.18 607.07 571.01 607.51 570.62 607.95 570.92 608.28 570.5 609.52 570.42 610.62 570.1 611.36 570.53 612.45 570.05 613.05 570.58 613.88 570.4 614.62 569.36 615.19 569.11 615.51 569.49 616.54 568.88 617.51 567.6 618.32 567.46 618.87 568.75 620.07 569.23 620.21 569.48 621.07 569.85 621.54 570.97 621.73 571.46 622.95 570.78 623.43 570.87 623.83 571.96 625.1 572.27 625.83 571.65 626.4 571.68 627.21 572.43 627.61 572.78 628.13 573.56 628.24 573.95 628.88 573.82 630.46 574.56 633.04 574.49 634.66 573.56 635.62 573.87 636.88 575.1 638.01 575.7 638.81 574.73 640.64 574.85 640.98 575.85 641.16 576.33 641.77 576.44 642.53 577.32 644.8 577.33 645.52 577.82 645.75 579.36 645.83 580.54 646.18 581.45 646.75 581.84 647.41 582.21 649.59 582.04 651.28 580.79 652.65 580.7 653.74 581.82 654.14 582.89 654.88 584.18 656.35 584.68 657.78 585.48 658.46 586.53 659.13 587.2 659.17 589.82 661.63 590.56 661.91 591.65 662.68 593.73 664.53 595.6 665.38 596.21 665.95 596.93 667.12 597.2 668.03 597.17 668.64 596.84 669.41 596.76 670.09 596.18 672.02 596.56 673.68 597.37 674.32 598.33 675.27 599.41 676.05 600.18 677.23 599.82 678.07 598.93 678.47 596.26 678.56 595.42 678.91 594.45 679.62 593.03 681.36 591.92 682.04 590.68 682.1 589.4 681.49 587.18 679.92 585.86 679.3 584.98 679.08 584 679.31 583.07 680.36 582.46 682.19 582.41 682.71 583.05 684.44 583.36 686.8 584.16 687.68 586.66 688.69 587.45 689.18 588.71 690.42 588.65 690.82 589.28 691.51 589.65 692.67 589.5 694.27 589.66 695.47 589.6 696.16 590.17 697.34 591.36 698.21 593.13 698.98 595.07 699.66 596.16 700.22 598.04 702.04 599.46 702.96 601.31 704.51 602.08 705.8 602.09 706.59 601.65 708.47 601.05 709.31 599.85 709.99 598.46 710.38 596.66 709.45 595.71 709.4 594.52 709.65 590.12 710.93 588.68 711.73 588.19 712.23 588 713.08 588.51 714.23 589.02 714.78 591.79 716.28 593.15 716.88 594.99 717.49 597.34 718.06 598.93 718.3 599.92 718.24 602.02 718.76 603.57 718.99 604.06 719.18 606.34 721.17 607.56 722.75 608.05 723.86 607.94 724.54 607.58 724.92 606.35 725.52 604.7 726.03 602.46 725.84 600.33 725.3 599.41 725.27 597.38 726.01 596.47 726.69 595.96 727.71 595.92 729.42 594.64 731.09 593.71 731.88 592.84 732.19 591.54 732.27 590.59 732.05 589.18 731.1 586.67 728.06 585.6 726.92 584.52 726.07 580.75 723.85 579.53 723.7 577.64 724 576.38 725.07 575.96 726.05 575.89 727.3 576.08 728.28 576.78 729.31 578.86 730.2 579.5 730.67 581.12 732.35 581.81 733.2 583.6 736.09 583.78 736.87 583.55 738.15 583.51 739.17 583.24 739.85 583.16 740.74 582.17 741.96 580.52 742.78 578.67 743.42 577.26 743.62 575.46 743.52 574.32 743.26 573.14 742.81 572.52 742.33 571.14 741.6 569.63 740.52 568.54 739.43 568.02 738.68 567.69 737.88 567.6 736.78 567.6 734.86 567.74 733.35 567.62 731.58 567.1 730.32 566.49 729.8 565.34 729.7 563.94 729.86 562.5 730.19 559.94 731.04 558.55 731.14 555.27 730.93 552.73 731.02 551.68 730.86 549.85 730.78 548.15 731.09 547.73 731.47 547.02 732.96 546.68 733.33 545.73 733.81 544.53 734.14 542.79 734.84 540.58 735.96 539.34 736.92 537.56 738.73 536.02 740.44 534.6 742.38 532.34 745 531.69 746.26 531.65 746.84 533.18 747.88 534.4 748.19 535.75 748.13 537.53 747.64 541.61 746.18 543.38 745.68 545.16 745.47 546.24 745.62 547.4 746.29 548.71 747.86 549.1 748.66 549.32 749.73 549.32 751.32 548.55 754.2 548.44 755.38 548.92 757.22 549.29 758.18 549.36 758.82 549.12 760.63 548.81 762.24 548.25 764.43 547.98 764.83 547.06 765.31 546.19 765.13 545.68 764.8 543.31 762.69 540.94 761.51 540.03 761.36 539.09 761.48 538.64 761.75 538.12 762.44 537.21 764.33 536.72 766.04 536.57 767.87 536.66 768.66 536.04 770.48 536.02 772.07 537.13 772.92 537.71 773.04 538.46 772.86 539.74 772.3 540.29 772.28 541.61 772.63 542.51 773.15 543.84 774.53 545.22 774.93 546.84 775.83 547.67 776.07 548.34 776.56 549.44 777.77 550.2 779.37 550.14 780.47 549.69 781.25 548.47 781.9 546.21 782.71 545.55 783.16 542.95 785.43 540.94 787.51 539.93 788.28 536.67 789.57 534.87 790.36 533.99 790.54 531.9 790.55 529.12 790.7 526.41 790.58 525.29 790.11 524.11 789.25 522.95 788.58 520.57 787.86 518.14 787.75 517.03 788.09 516.61 788.55 516.62 789.78 515.84 791.03 514.97 793.33 514.03 795.34 513.79 796.56 513.9 797.6 514.33 799.72 514.59 800.2 515.65 800.89 517.26 804.86 517.94 806.85 518.05 807.46 518.02 809.56 517.89 812.61 518.28 815.11 518.31 816.43 518.06 817.41 517.99 818.42 518.21 821.04 518.19 825.21 518.31 826.09 518.67 826.81 519.46 827.69 520.24 828.29 521.52 828.82 522.72 829.01 524.69 829.07 525.96 829.32 527.59 829.85 529.61 830.2 530.99 830.67 532.14 831.34 533.44 834.89 533.73 835.9 533.9 837.19 533.84 838.25 533.63 838.77 532.54 839.64 531.2 840 529.58 840.19 528.66 840.15 526.87 839.86 525.45 839.91 523.65 840.42 522.18 841.05 520.31 842.06 518.15 843.32 516.76 843.77 514.99 843.59 513.38 842.96 512.09 842.2 510.5 841.01 508.92 840.22 507.52 840.1 505.88 840.7 505.16 841.28 504.39 842.45 504.34 843.15 504.75 844.84 505.28 845.43 506.3 846.01 510.87 849.04 511.82 849.71 512.71 850.53 513.44 851.74 513.43 852.33 512.95 853.58 512.58 853.99 510.91 854.62 509.82 854.71 508.78 854.58 505.82 853.77 504.86 853.23 503.91 852.45 503.26 852.16 498.27 850.53 496.18 850.01 492.93 849.67 491.72 849.47 488.63 848.79 487.69 848.66 485.26 848.66 483.63 848.97 481.27 849.61 479.95 850.26 479.09 850.96 478.6 851.72 478.13 853.91 478.07 856.08 478.33 858.39 478.61 862.54 480.39 866.29 481.34 867.4 481.7 868.1 483.72 867.33 484.94 867.14 486.92 867.14 487.41 867.32 488.72 868.3 489.84 868.73 492.05 869.03 493.16 869.58 493.58 870.01 494.11 871.11 494.2 872.1 493.78 873.13 493.19 873.91 491.84 875.2 490.76 876.77 490.54 877.29 490 879.98 489.44 881.56 488.92 883.38 488.59 884.08 487.22 886.37 486.07 887.61 485.56 888.01 482.94 889.61 481.29 891.09 480.39 892.1 478.96 893.11 478 893.62 475.98 894.2 475.23 894.1 474.38 893.57 472.88 891.9 471.27 891.04 468 889.82 466.35 889.56 465.45 889.88 464.63 891.15 463.99 891.75 462.77 892.61 459.58 893.08 456 894.08 452.43 895.77 451.08 896.52 448.98 897.92 447.39 898.77 445.9 899.3 444.88 899.51 443.53 899.55 441.76 899.41 439.81 899.74 438.8 900.38 436.97 902.66 436.56 903.42 436.1 905.57 435.6 906.19 433.52 908.03 431.99 909.06 430.47 909.68 428.38 910.78 426.4 911.5 425.22 911.81 422.51 912.07 421.32 912.28 418.17 912.99 416.38 913.45 414.75 914.04 413.2 914.87 412.39 915.91 412.17 916.69 412.28 918 412.61 918.78 413.92 920.96 414.94 922.32 416.77 924.3 417.33 926.01 417.26 926.8 416.43 928.39 415.56 929.33 413.73 930.48 411.74 931.08 408.81 931.61 407.54 931.5 405.9 931.13 403.86 930.51 402.97 930.42 401.59 930.54 399.24 930.49 397.34 930.16 395.17 930.1 392.61 929.82 391.58 929.42 389.86 929.14 387.87 928.55 384.54 928.42 383.2 928.42 381.86 929.03 379.83 929.65 378.77 929.66 378.19 929.42 377.43 928.75 376.87 927.25 377.15 925.39 377.13 924.27 376.89 923.38 375.86 921.39 374.8 920.03 373.96 919.41 373 919 371.27 918.53 370.39 918.41 368.8 918.56 367.27 919.8 365.61 920.64 363.72 921.81 361.92 923.31 360.63 925.32 359.71 926.56 359 927.75 358.55 928.84 357.93 930.95 357.69 932.18 356.83 934.83 355.78 936.56 354.56 937.74 352.86 938.78 350.71 939.7 347.57 939.89 344.35 940.4 340.88 940.71 338.66 941.26 336.97 941.96 335.54 942.76 333.71 944.47 332.85 945.8 332.13 947.81 331.98 948.8 332.01 950.48 332.79 951.92 333.65 956.1 334.07 957.09 335.02 960.15 335.77 963.99 335.89 965.16 335.79 966.22 335.12 968.17 334.79 968.59 334.76 969.67 334.44 970.53 334.04 972.5 333.88 974.76 333.95 976.48 333.55 978.16 332.58 979.57 331.64 979.82 330.02 979.69 329.47 979.43 328.27 978.5 327.31 978.04 326.25 977.8 325.27 977.75 322.73 977.95 320.34 978.32 319.77 978.87 319.32 980.05 318.75 982.25 318.42 983.09 317.93 983.84 316.5 985.28 313.14 988.21 311.87 989.73 309.76 989.97 307.26 990 304.71 989.4 303.4 988.98 300.95 987.96 299.11 987.09 296.86 985.79 294.49 984.35 291.2 982.2 286.88 979.2 285.11 977.79 284.4 977.09 283.82 976.27 282.81 974.11 281.74 972.27 280.84 970.44 279.6 968.88 279.2 968.03 278.05 966.29 277.05 964.98 275.88 964.01 275.14 963.81 273.6 964.31 271.19 964.89 269.89 965.28 266.49 966.53 264.9 967.02 262.18 968.06 259.6 968.68 258.7 968.72 253.97 968.56 251.93 968.36 249.41 967.92 248.12 967.78 245.63 967.17 243.4 966.75 240.76 966.43 238.11 965.91 237.13 965.89 234.34 966.02 231.77 966.46 227.47 966.57 226.27 966.46 224.53 965.97 221.19 963.88 218.74 962.03 218.11 961.33 216.7 960.11 215.8 959.47 213.45 958.12 212.43 957.7 210.19 956.94 207.74 956.49 206.32 956.15 203.82 955.75 199.77 955.34 198.29 955.41 196.35 955.66 193.31 956.37 191.28 957.46 190.02 958.59 189.74 959.5 189.63 960.56 189.75 961.56 190.37 964.27 191.02 966.49 192.08 968.57 192.43 970.31 192.72 971.28 192.79 973.77 193.11 974.98 193.56 978.21 193.5 980.36 193.06 981.62 192.36 982.84 191.16 983.89 190.42 984.35 188.28 985.15 186.03 985.48 183.44 985.63 182.28 985.5 178.2 984.33 176.34 983.69 175.16 983.09 173.57 981.89 172.91 981.01 171.2 977.92 170.43 976.71 168.77 975.08 167.83 974.59 166.16 974.04 164.43 973.63 162.2 972.89 159.32 971.83 157.96 971.53 156.54 970.84 155.01 969.97 152.05 967.78 150.93 966.76 150.12 965.82 148.49 963.66 147.13 961.66 146.75 960.82 146.61 959.6 146.59 956.92 146.43 955.55 146.01 954.63 145.02 953.21 143.12 951.27 140.95 948.58 139.36 946.49 138.52 945.68 138.2 945.06 137.22 944.18 135.02 942.48 133.96 941.4 131.97 939.76 130.57 938.69 126.7 935.36 125.57 934.58 124.52 933.69 122.38 932.09 121.47 931.51 119.17 930.55 115.7 930.06 113.57 930.02 112.3 930.32 110.32 931.22 109.61 931.88 108.51 933.53 107.96 935.25 107.51 936.06 106.11 938.06 103.69 940.17 101.95 941.35 99.35 943.47 98.13 943.92 96.83 944.19 95.48 944.31 88.66 944.09 85.22 943.88 83.85 943.63 82.81 943.15 81.97 942.54 81.29 941.73 79.81 939.46 78.65 937.96 77.9 936.14 76.68 934.6 75.11 932.02 73.27 927.51 73.32 925.81 73.68 924.14 74.27 922.5 75.24 920.92 76.98 918.51 77.94 916.9 78.81 914.72 79.13 912.87 78.81 911.12 78.38 910.46 76.21 908.61 74.85 907.54 73 906.25 71.88 905.33 70.02 904.03 68.56 902.59 66.59 901.11 65.69 900.19 63.65 897.51 61.77 895.48 60 893.18 59.32 892.49 56.17 890.09 55.15 889.39 52.23 886.94 50.32 885.73 48.74 885.04 42.35 883.41 40.1 882.75 37.35 881.19 36.72 880.61 36.37 879.27 37.15 876.87 37.92 875.07 38.32 874.48 40.37 872.02 42.75 869.48 43.43 868.56 44.34 866.71 44.48 865.93 44.39 864.99 44.08 864.1 42.76 861.93 41.66 860.47 41.24 859.07 40.21 856.53 38.79 854.12 37.96 853.22 37.09 851.86 36.37 851.03 35.31 850.05 33.6 848.29 30.77 845.64 28.94 843.48 27.1 841.88 26.08 840.81 22.53 837.23 21.25 836.35 18.44 834.7 17.03 833.97 15.83 833.11 12.89 831.16 11.01 829.83 9.21 828.75 7.17 827.23 5.77 826.42 3.27 824.74 2.41 824.09 1.3 822.16 1.04 820.97 1 820.01 1.57 817.8 2.08 816.87 3.28 814.2 3.61 811.42 3.21 808.04 2.54 805.23 2.25 803.52 1.96 802.8 4.35 800.92 10.25 803.09 11.05 803.13 11.7 802.83 12.64 801.45 12.99 800.36 13.54 799.25 14.78 797.84 15.88 797.16 18.35 796.11 19.12 795.7 20.11 794.69 21.98 792.04 23.76 789.86 25.5 788.36 26.44 787.78 29.39 786.32 30.17 786.05 32.34 785.71 33.7 785.34 34.76 785.26 35.49 785.37 36.18 785.71 36.81 786.36 37.13 786.97 37.27 788.02 37.1 789.65 36.71 791.23 36.13 792.85 35.57 793.75 35 794.2 33.92 795.38 33.34 796.84 33.42 797.85 34.32 798.93 36.2 800.54 37.7 801.5 38.39 802.43 38.64 803.31 38.45 804.5 37.95 805.54 36.57 807.38 31.87 811.44 30 813.36 29.33 814.19 27.79 816.85 27.53 817.72 27.59 818.4 28.21 819.25 30.32 820.76 31.75 822.34 32.43 822.97 33.86 823.61 36.23 823.63 38.89 823.11 39.97 822.47 40.72 820.92 41.4 819.95 41.92 819.6 42.9 819.36 44.07 819.82 44.57 820.47 44.74 822.23 44.43 824.25 43.86 825.89 43.97 827.21 44.27 827.45 44.75 828.49 45.65 828.98 47.73 829.51 48.38 829.53 50.65 829.09 52.31 828.27 54.43 826.77 56.87 825.72 59.25 824.94 61.66 824.62 62.42 824.73 63.16 825.56 63.36 826.23 65.2 828.05 67.59 829.78 68.43 830.56 69.3 830.95 70.06 831.09 72.37 831.86 74.65 833.05 75.76 833.3 76.38 833.23 77.3 832.84 78.02 831.82 78 831.43 77.03 829.29 76.05 828.11 75.85 826.57 76.26 824.78 76.65 824.37 77.1 822.2 77.84 821.59 79.14 821.57 80.34 821.84 82.07 822.55 84.41 823.94 85.54 824.1 86.1 823.62 85.98 822.77 85.33 821.96 84.38 820.46 84.04 819.61 84.12 819.14 84.59 818.87 85.73 818.78 87.41 819.25 89.69 820.14 90.28 820.28 91.84 820.23 93.44 819.8 94.44 819.18 94.88 818.39 95 817.75 95.16 814.69 95.46 813.66 96.1 812.8 97.09 812.4 98.19 812.22 102.31 812.12 104.86 811.91 106.19 811.87 107.19 811.65 108.34 811.12 109.94 809.9 110.07 809.42 109.95 807.79 109.6 806.34 109.41 804.38 109.6 803.25 110.12 801.98 110.59 801.32 111.14 801.29 111.58 801.79 111.91 802.94 112.01 804.55 111.83 805.78 112.04 806.57 112.65 807.06 113.17 807.05 114.12 806.61 115.59 805.08 117.12 804.58 118.35 803.87 119.52 802.97 121.05 801.25 121.96 799.97 122.47 798.91 123.5 798.25 124.4 798.38 125.07 799.24 126.82 802.01 127.62 804.25 127.56 804.88 126.98 806.88 126.8 808.92 127.5 810.42 128.42 810.97 129.29 810.74 131.52 809.62 132.64 808.83 134.99 806.92 135.98 805.82 136.82 804.61 137.8 802.66 139.72 800.59 140.68 799.86 141.14 798.83 141.29 798.01 141.23 796.71 141.54 795.6 143.01 793.25 143.03 792.45 142.56 791.77 141.72 791.62 139.43 792.04 138.46 792 137.92 791.8 137.74 791.08 138.08 790.33 139.15 788.84 139.52 786.89 140.73 785.04 141.16 784.77 142.08 784.74 142.59 784.94 145.07 789.2 145.64 789.92 146.47 790.63 148 791.32 150.8 792.02 152.62 791.79 153.85 790.88 155.04 790.31 155.6 789.77 155.71 788.87 154.96 786.84 153.64 784.65 153.62 783.63 154.18 782.66 156.07 781.73 157.24 781.52 159.65 781.49 163.02 781.26 166.24 780.95 168.73 780.94 169.54 781.03 172.61 780.97 173.9 781.1 174.73 780.95 175.63 780.02 177.69 776.48 178.46 774.68 178.49 774.34 178.31 771.26 177.14 769.6 175.88 768.39 175.25 767.93 173.06 766.9 172.14 766.08 172.03 765.29 172.9 764.47 173.72 764.17 176.96 763.37 178.57 762.72 181.04 762.09 182.9 761.81 183.58 761.51 184.14 762.18 184.47 762.23 184.78 761.39 184.19 760.32 183.46 759.43 181.38 755.93 180.78 754.34 180.49 752.85 179.99 750.82 179.93 749.79 181.29 748.58 182.05 747.7 183.9 746.17 186.21 744.72 188.01 744.63 189.41 744.42 191.23 743.91 192.13 743.48 193.5 742.37 196.26 742.31 198.17 742.5 200.48 743.46 202.91 744.97 203.58 745.24 204.22 745.23 204.79 744.54 205.89 742.54 207.33 740.14 208.2 739.29 209.03 737.98 208.94 736.93 209.79 736.46 210.19 736.01 211.46 736.01 211.5 735.46 210.16 733.8 209.38 733.49 207.79 733.16 205.99 732.57 205.15 732 205.07 731.13 206.69 730.85 207.02 729.71 208.78 728.52 208.88 727.77 209.95 726.98 210.41 727.38 213.4 728.45 214.24 728.41 214.85 728.15 215.18 727.64 215.12 724.98 215.41 724.37 214.98 723.98 214.09 724.17 212.78 724.18 211.97 724.05 211.93 723.27 212.48 721.99 212.38 721.61 213.22 720.84 213.4 719.65 213.73 719.18 215.83 719.11 216.45 718.89 217.28 718.05 218.03 717.63 218.72 717.59 219.21 717.17 219.51 716.15 220.3 715.45 220.27 714.83 219.58 714.61 218.35 713.86 218.02 713.86 217.1 713.18 216.58 712.57 216.03 712.56 214.91 712.18 214.77 710.99 215.24 709.77 215.38 708.87 215.19 707.42 215.53 705.4 215.58 704.5 215.18 703.5 214.5 700.86 214.08 700.3 211.93 700.05 211.54 699.9 211.17 699.24 210.29 698.7 209.81 697.18 210 696.09 209.41 695.17 207.93 694.28 207.31 693.62 206.88 692.66 205.56 691.09 204.75 690.46 204.45 690 204.79 689.31 204.86 687.25 204.58 686.45 203.37 685.82 203.14 684.56 203.99 681.3 203.98 680.62 203.21 678.53 202.89 678.17 200.52 676.71 200.14 676.04 199.62 675.68 200.07 674.7 199.78 673.67 199.77 671.71 200.43 670.13 200.44 669.82 199.78 668.78 199.96 668.2 201.09 667.41 201.25 666.79 199.83 665.92 199.73 664.97 200.71 663.97 201.19 663.02 201.37 661.96 202.45 661.22 203.46 660.79 206.08 660.12 206.81 659.48 206.79 658.7 206.09 658.12 204.41 658.01 203.99 657.71 203.63 656.91 201.59 655.42 200.82 654.61 200.3 653.8 199.79 653.39 197.79 652.57 197.25 652.17 196.9 651.44 196.76 650.67 196.78 649.51 197.11 648.5 197.54 647.9 200.16 647.09 200.75 646.38 200.29 645.64 200.21 644.92 200.46 644.02 200.41 642.11 200.55 641.78 201.47 640.98 201.63 640.15 202.13 639.64 203.61 639.42 204.5 639 205.64 637.71 206.22 637.55 207.22 637.93 207.98 637.9 208.89 638.25 209.95 638.39 210.51 638.12 210.75 635.89 211.65 634.13 212.13 633.63 213.26 633.24 214.19 633.28 215.51 633.78 216.11 633.61 218.35 632.08 219.57 630.88 220.27 629.81 222.12 628.62 222.73 627.72 222.61 626.23 221.85 625.08 222.32 624.46 224.9 623.66 225.5 622.88 225.89 620.64 226.3 619.64 226.96 618.84 227.36 617.85 227.31 617.11 226.6 616.46 225.34 615.93 224.93 615.25 225.7 614.53 226.4 613.09 228.29 612.06 230.07 610.68 230.66 609.43 231.06 608.88 232.8 607.86 234.49 607.64 235.05 607.44 236 606.54 236.23 605.67 237.02 604.84 238.22 604.22 238.54 603.56 239.32 603.38 241.46 604.26 242.19 604.46 243.62 604.3 244.64 603.74 245.06 603.22 244.87 602.09 244.39 601.74 244.5 601.04 246.05 600.13 247.72 598.88 247.74 597.82 249.47 596 250.81 595.43 252.89 595.01 254.03 594.49 255.04 594.47 255.44 594.18 255.6 593.51 255.37 592.51 255.59 591.04 256.45 589.56 257.38 588.95 258.61 588.73 259.89 587.73 261.22 587.86 264.66 586.49 265.65 586.15 268.38 590.61 270.59 589.95 276.92 588.87 280.06 588.37 280.98 588.06 285.51 587.32 287.02 586.74 288.22 585.54 288.65 584.52 289.4 582.33 289.99 581.23 291.24 580.17 294.59 578.56 295.77 577.57 296.29 576.99 297.97 574.27 298.51 573.17 300.45 570.27 301.8 569.63 303.49 567.74 304.09 566.48 305.57 565.33 306.16 564.38 307.77 562.7 308.17 562.02 309.26 561.44 309.82 560.76 309.97 559.85 309.32 558.95 310.2 557.17 311.26 556.25 311.68 555.73 312.05 554.53 312.59 554.51 313.39 555.1 314.17 554.72 314.34 554.18 314.98 553.49 315.19 553 315.41 551.61 316.11 550.71 315.92 549.57 316.22 548.81 317.15 547.96 317.73 547.72 318.88 547.74 319.76 548.11 321.7 549.14 323 550.01 324.82 550.68 325.36 550.61 326.15 550 326.73 550.15 327.67 550.06 328.23 550.34 328.39 551.05 329.03 552.21 329.43 552.53 330.39 552.39 331.47 552.5 332.08 552.18 333.53 550.92 334.93 550.63 335.34 550.42 337.22 548.81 338.6 548.01 339.35 547.29 339.72 546.18 340.46 545.6 340.44 545.28 339.66 544.29 340.33 543.66 340.57 542.95 340.46 541.89 340.56 541.16 341.7 540.36 341.85 539.91 341.63 539.35 341.93 538.74 343.92 538.43 345.4 537.88 347.16 534.73 348.29 533.21 348.5 532.74 348.68 531.28 349.41 529.87 350.42 527.56 351.49 526.74 351.66 526.4 351.5 525.55 351.98 524.09 351.84 523.49 351.21 523.11 350.72 522.46 351.09 521.45 352.27 520.31 352.45 519.91 352.33 518.15 351.75 516.23 349.22 514.49 348.11 513.21 347.62 513.18 347.03 513.63 344.08 513.31 343.45 513.16 343.52 512.2 343.24 510.83 342.63 509.64 340.57 508.44 339.51 508.59 337.2 508.48 335.87 507.67 334.62 507.51 334.51 506.92 334.15 506.63 333.03 506.46 332.4 506.61 330.38 509.12 328.78 509.5 328.34 509.36 328.21 508.86 328.76 508.36 328.88 507.68 328.66 506.97 328.23 504.45 328.19 503.62 327.9 502.96 327.04 502.12 325.24 501.1 324.3 500.71 323.93 499.57 324 499.09 324.77 498.38 325.55 496.35 326.42 494.41 327.13 493.43 328.07 492.71 329.16 491.53 329.59 490.8 330.4 490.73 331.92 489.34 335.46 487.24 336.03 486.31 336.31 485.48 336.17 484.35 336.84 483.05 338.62 480.63 339.1 479.83 340.39 478.2 340.87 477.28 341.09 476.12 340.68 474.77 339.26 473.25 338.83 471.89 338.45 471.25 337.32 470.33 336.28 469.72 335.84 468.27 335.87 467.72 336.39 467.14 338.56 466.14 339.96 465.29 341.03 464.51 341.98 464.04 342.49 464.06 343.77 464.56 345.04 464.63 346.11 464.27 347.19 463.2 347.94 461.79 348.98 460.63 349.71 460.12 350.71 459.72 353.07 459.07 354.96 459.38 356.26 459.15 356.78 458.9 357.48 458.24 358.11 457.16 358.84 456.89 360.83 456.93 362.69 457.23 364.81 456.35 367.53 455.79 368.54 455.34 369.57 454.7 370.46 453.32 371.24 452.42 372.86 451.44 373.68 450.43 374.62 448.35 374.53 447.22 374.16 446.73 372.97 446.15 371.91 445.24 371.88 444.62 372.36 443.71 372.39 443.29 371.56 442.07 371.5 441.01 372.45 439.83 373.42 439.3 374.37 439.25 375.08 438.78 374.95 437.97 374.44 437.74 372.64 437.26 371.74 435.33 372 434.64 373.39 433.97 373.83 433.5 374.43 432.48 374.85 430.6 374.99 429.58 374.84 427.98 374.51 427.43 373.4 426.48 372.22 424.96 371.89 424.22 372.64 421.97 373.39 420.91 374.56 420.43 375.01 420.05 376 418.65 376.25 417.79 376.11 417.02 376.42 416.58 377.37 415.98 378.96 414.69 381.28 414.21 383 414.09 384.05 414.14 385.12 414.39 386.54 415.2 387.17 415.25 387.85 414.5 388.38 412.81 388.64 411.03 389.42 410.12 390.37 409.67 391.88 409.38 392.09 409.08 391.95 408.4 390.05 407.04 389.51 406.53 388.61 404.55 387.98 404.18 386.37 403.98 385.6 403.41 385.48 402.81 386.07 401.53 386.11 400.93 385.67 400.42 384.52 399.95 384.3 399.54 384.5 398.09 383.46 397.05 381.5 395.63 380.59 395.1 380.23 394.45 380.47 393.68 381.35 393.13 381.47 392.6 380.11 391.25 380.16 390.09 379.89 389.2 379.96 388.39 378.77 387.76 377.93 387.5 374.38 387.5 372.27 387.77 371.36 387.66 370.89 386.93 371.08 386.13 371.01 384.83 371.16 384.16 370.97 383.55 370.39 383.09 370.17 382.33 370.58 380.5 370.84 378.52 369.95 377.72 368.63 377.59 367.79 376.54 366.76 376.17 366.44 375.48 367.63 374.78 367.93 373.95 367.26 373.38 365.83 373.22 365.39 372.66 364.33 371.88 364.11 371.24 364.02 370.06 363.48 369.26 363.49 368.32 364.38 367.57 364.73 367.02 364.81 366.23 364.45 365.57 364.34 364.59 364.83 363.76 365.75 362.91 365.89 362.03 365.32 361.46 364.73 360.53 364.08 359.93 363.58 358.53 363.15 357.84 362.13 357.09 361.62 356.99 360.32 357.11 358.36 357.83 357.32 358.54 355.21 360.32 354.31 360.54 353.5 360.5 352.46 359.84 351.71 357.89 350.67 356.58 348.74 354.9 348.41 353.3 347.94 352.37 347.35 351.98 345.94 352.16 345.29 352.09 342.88 351.13 341.8 351.02 340.21 351.07 339.34 351.23 337.42 351.78 337.01 351.79 335.57 351.21 334.26 350.13 332.83 349.34 331.46 348.28 330.75 347.23 329.79 345.22 329.08 344.61 327.9 344.07 327.05 344.08 326.78 345.16 326.36 345.54 325.58 345.64 324.9 345.21 322.22 344.71 321.42 344.07 321.28 343.45 321.42 342.01 321.81 341.34 322.99 340.01 324.27 338.71 324.71 338.08 325.78 336.12 325.88 335.15 325.15 335.02 324.38 335.46 322.87 337.04 321.79 337.73 320.19 338.33 317.74 339.98 314.32 342.75 313.01 343.57 312.17 343.96 311.58 343.99 311.1 343.36 310.96 341.43 311.24 339.52 311.1 338.43 309.75 335.09 309.47 334.54 308.62 333.68 308.18 333.48 307.5 333.86 307.27 335.69 306.76 337.8 306.91 339.72 306.73 341.37 306.33 342.52 305.99 343.04 303.16 345.13 301.1 346.47 300.61 347.02 299.96 348.39 299.35 349.23 298.77 349.62 297.74 349.64 297.46 349.33 297.29 348.29 296.77 346.74 296.01 344.84 293.94 341.37 292.98 339.95 292.6 337.55 292.25 336.8 291.44 336.09 290.52 336.12 289.81 336.46 288.2 338.66 287.76 339.02 287.03 339.18 284.26 339.3 282.62 339.49 280.97 339.93 280.02 340.34 278.42 341.35 277.94 341.53 276.73 341.64 275.93 341.22 275.15 340.2 274.45 339.51 273.3 338.88 272.23 338.76 269.98 339.16 269.05 339.22 267.48 338.77 266.91 338.16 266.94 337.2 267.77 336.06 269.57 334.82 273.84 332.93 274.46 332.41 274.59 331.27 273.43 329.82 273.16 329.17 271.28 329.29 267.8 329.03 265.78 328.96 263.08 329.06 261.56 329.33 260.22 329.71 259.63 330.05 259.1 330.65 258.58 332.1 258.26 333.53 257.44 334.27 255.16 334.45 254.1 334.64 253.02 335 252.21 335.69 249.93 337.01 206.88 348.9 203.02 349.01 202.27 349.14 201.67 348.91 200.84 349.01 198.95 350.13 196.52 350.21 195.74 349.92 194.59 349.81 193.69 350.21 191.4 350.78 190.42 350.41 189.27 350.71 188.83 350.62 187.66 349.8 186.92 349.6 183.01 348 176.55 345.03 176.17 344.57 175.33 344.47 175.34 344.1 174.9 343.4 174.14 342.8 174.15 341.57 174.79 339.98 174.84 339.04 173.72 339.42 173.06 338.81 172.84 337.34 172.43 336.53 171.62 335.5 170.86 334.93 168.3 331.79 167.51 330.18 167.09 329.59 165.95 329.18 164.2 330.26 161.4 332.44 160.29 332.74 159.41 332.78 158.14 333.69 157.79 333.32 158.3 332.55 158.56 331.79 158.93 331.46 159.25 330.04 158.6 328.95 157.67 327.9 157.02 326.73 155.33 325.31 154.91 324.4 154.6 322.56 154.06 322.18 153.13 322.43 151.92 322.94 151.39 322.45 150.94 321.28 149.96 320.93 148.97 320.28 149.56 319.65 149.7 318.76 149.39 318.35 147.89 318.82 147.09 318.84 145.04 318.17 143.87 317.65 143.66 317.33 143.74 316.1 143.17 315.59 142.13 315.64 141.25 315.46 140 314.29 139.7 313.57 138.57 312.47 138.61 311.76 138.25 311.37 136.86 311.31 135.2 310.59 135.11 310.15 133.61 309.19 132.57 309.34 132.63 309.81 131.85 310.43 131.22 310.39 130.39 310.01 130.06 308.71 129.42 307.84 128.64 307.65 128.04 306.86 127.35 306.64 126.85 305.81 125.63 305.36 125.39 305.06 124.06 304.73 123.49 305.08 122.31 305.28 121.46 304.62 119.75 304.31 118.16 303.48 117.32 303.66 116.26 303.59 115.57 303.82 114.78 304.56 113.31 304.45 112.58 304.83 112.05 305.42 111.31 305.07 110.59 305.03 109.51 304.44 108.76 303.69 108.7 302.76 107.52 302.87 106.82 302.69 105.58 302.85 104.94 301.87 104.4 301.47 103.39 299.92 104.12 299.23 104.34 298.07 103.3 297.24 102.06 295.83 101.99 295.37 101.17 295.4 99.82 294.86 99.09 293.75 98.72 291.64 98.81 290.68 99.15 289.43 99.41 289.2 100.52 288.99 101.08 288.51 101.1 288.17 101.82 286.87 102.6 286.86 104.43 285.85 104.81 285.39 104.6 285.01 103.44 284.45 102.81 284.58 102.23 283.46 101.64 282.77 100.23 281.96 99.82 281.94 99.21 281.22 99.55 280 99.94 279.87 100.29 278.87 99.56 277.93 97.52 277.09 96.6 277.41 95.35 276.78 94.89 276.75 94.29 277.3 92.64 277.37 91.33 276.91 90.9 276.29 89.76 276.36 89.3 276.01 88.55 274.76 88.77 274.62 90.08 274.67 90.35 274.33 90.28 273.29 90.97 272.19 92.64 271.65 93.26 271.69 93.71 271.33 93.74 270.81 94.85 269.64 96.39 268.93 98.18 269.31 98.85 268.86 99.29 266.54 99.54 264.73 100.52 263 101.43 260.96 101.71 260.03 101.63 259.52 100.02 258.54 99.49 257.81 99.93 256.65 99.84 255 99.47 254.4 98.62 254.28 97.84 254.45 95.56 254.62 94.75 255.42 92.9 255.59 92.01 255.22 91.2 255.14 89.59 254.52 87.89 253.74 87.08 253.08 84.39 250.53 81.97 250.24 80.56 250.56 80.05 250.49 78.85 249.72 77.97 249.47 76.66 249.33 76.44 248.53 77.97 247.68 78.7 246.86 79.25 245.24 79.31 243.83 79.48 243.07 80.36 242.07 81.2 241.88 81.63 241.24 81.58 240.21 81.07 239.57 80.4 238.25 80.23 236.98 80.44 235.81 81.67 235.48 82.32 235.62 83.38 236.56 84 236.88 83.88 237.74 85.58 238.01 86.08 237.93 86.83 237.35 88.39 237.09 89.17 236.76 90.4 236.55 92.19 236.11 93.31 235.94 94.49 235.08 95.17 233.58 95.23 232.6 94.89 231.96 93.8 231.2 92.96 231.05 91.78 231.28 90.22 231.37 89.2 231.87 87.14 231.12 86.36 230.47 85.33 229.1 84.39 228.04 83.61 227.42 80.67 225.77 80.1 224.9 80.54 223.99 81.45 223.23 82.75 222.85 84.16 222.72 86.97 222.21 87.69 221.91 88.11 221.04 88.17 219.74 88.51 218.57 89.52 217.39 90.24 217.02 91.58 216.59 93.07 215.93 94.05 215.21 94.53 214.65 94.51 214.2 93.14 212.68 92.82 212.66 90.13 214.5 88.49 215.76 87.17 216.66 86.71 217.37 85.99 217.47 84.59 216.9 83.7 216.35 82.75 216.07 82.15 216.13 79.49 217.36 77.06 217.74 75.18 218.21 74.31 218.01 73.01 217.26 72.22 217.29 71.49 217.7 71.93 218.54 71.3 220.04 69.77 220.31 69.32 219.78 68.7 218.51 68.22 217.81 67.2 218.95 66.24 219.33 65.44 218.89 65.59 218.18 65.63 216.49 65.78 215.93 66.35 215.45 68.08 214.41 69.02 213.59 70.3 212.21 72.04 210.8 72.15 209.88 72.93 208.78 73.21 207.99 73.77 207.33 73.91 206.48 73.72 206.06 72.96 205.34 72.5 204.54 72.57 202.76 72.08 201.75 73.3 201.38 74.74 200.58 75.06 200.24 74.85 199.18 74.2 198.57 71.81 197.15 71.57 196.29 71.51 195.11 71.75 194.57 72.5 193.72 73.33 193.65 74.23 193.12 77.93 191.98 78.61 191.6 78.33 190.81 78.38 190.35 79.11 188.05 79.16 186.01 79.03 185.35 76.08 183.97 75.03 184.01 74.1 184.64 72.4 185.38 70.25 185.78 69.63 186.38 69.61 187.07 68.9 187.65 67.45 188.12 66.76 188.02 65.89 187.36 64.78 186.11 63.53 183.76 63.04 182.42 62.34 181.58 61.42 181.04 60.47 180.75 60.22 180.39 60.08 179.2 60.75 177.89 61 176.43 61.64 175.77 62.55 174.54 63.02 174.23 64.37 173.92 64.89 173.4 65.36 172.31 64.84 171.16 64.7 170.38 64.89 169.86 65.51 169.29 66.01 168.14 66.14 167.2 68.4 167.55 70.69 168.11 71.55 167.52 71.96 166.33 71.99 165 71.49 163.08 71.71 162.03 72.46 161.29 74.44 160.32 75.8 159.27 78.36 159.36 78.89 159.57 79.93 160.58 80.33 161.22 81.27 163.6 82.34 165.43 82.75 166.92 83.05 169.13 83.63 171.58 84.18 172.49 84.97 173.05 86.79 173.82 89.79 175.29 90.71 175.61 91.42 176.06 91.63 176.57 91.51 177.99 91.68 179 92.19 179.38 93.64 179.6 95.13 179.47 96.77 179.71 98.8 179.82 101.12 180.32 102.3 180.81 102.79 181.17 104.74 183.36 105.37 183.89 106.36 183.93 106.71 183.65 108.33 181.48 109.12 179.24 109.97 177.67 110.57 176.16 112.26 174.53 112.84 174.1 113.11 173.53 113.03 172.66 111.8 170.92 111.69 169.85 112.22 167.64 113.55 166.32 115.07 164.5 115.6 163.46 117.37 161.1 118.48 160.77 119.05 161 121.1 162.1 121.73 162.83 121.79 163.41 121.43 164.69 121.76 165.41 122.61 166.5 123.48 166.8 126.99 167.21 127.55 167.15 128.29 166.75 129.05 165.63 129.32 164.76 130.16 163.6 130.6 162.53 130.61 161.55 130.8 160.61 131.41 160.03 132.54 159.92 133.33 160.59 134.46 162.5 135.84 164.33 136.73 165.26 138.19 166.57 140.43 168.18 140.62 168.87 140.14 169.74 138.56 170.82 136.42 171.82 135.36 172.86 135.36 173.67 136.05 175.64 135.63 176.62 133.36 179.32 132.82 181.03 132.37 181.75 130.72 182.66 130.7 183.21 131.23 184.44 132.24 185.99 132.84 186.5 134.62 186.94 135.87 186.69 136.62 185.98 136.97 184.9 137.1 183.58 137.45 182.89 137.43 181.2 138.88 178.95 139.26 178.68 140.21 178.49 141.38 178.7 142.94 179.51 143.71 180.09 144.87 181.72 145.35 183.02 145.63 184.49 146.14 185.71 147.34 187.5 147.64 188.39 148.37 188.72 149.46 187.68 150.32 187.31 150.39 186.69 149.85 185.65 149.69 182.79 150.32 182.4 151.77 182.77 152.91 183.68 153.74 184 154.37 184 155.18 183.66 156.04 182.67 157.3 179.79 158.68 178.67 159.36 178.39 160.52 178.28 163.27 178.91 163.75 179.12 164.59 179.91 165.07 181.34 165.08 182.84 165.29 184.45 165.11 186.32 165.31 187.53 167.4 190.68 168.74 191 172.08 190.81 173.38 190.45 174.82 189.64 175.42 189.45 176.29 189.6 177.02 190.68 177.02 191.14 176.5 192.73 175.2 194.21 174.75 196.31 173.84 198.39 173.61 199.96 173.1 200.54 171.41 201.63 170.47 201.97 169.65 202.56 168.1 203.43 167.58 203.91 166.09 205.61 163.89 206.81 163.1 207.5 161.73 209.27 161.22 210.21 161.32 211.09 161.89 211.84 162.7 212.59 163.6 213.88 164.23 214.38 165.16 214.65 165.8 214.64 167.95 214.13 170.48 213.88 172.06 212.91 173.81 211.99 174.91 210.53 176.11 209.93 176.83 209.81 177.6 209.97 178.61 210.96 180.26 215.57 180.38 216.09 180.26 217.53 179.31 218.71 177.24 220.54 176.35 221.05 174.69 221.56 174.35 221.99 174.36 223.26 174.88 224.08 175.67 224.6 177.32 225.45 178.02 225.53 178.86 225.13 180.13 225.45 182.47 225.8 183.56 226.83 185.31 227.1 186.63 227 187.02 226.8 188.08 225.66 189.3 224.81 189.58 224.76 190.34 225.49 192.6 226.82 193.09 226.96 193.9 226.64 195.42 225.82 197.66 226.23 198.7 226.68 199.33 227.5 200.97 228.55 201.28 229.11 201.13 229.64 199.64 230.27 198.6 231.4 196.67 232.24 195.02 232.71 194.52 233.07 192.84 235.01 192.15 236.05 191.85 237.11 192.02 238.23 192.7 238.75 194.52 239.23 195.97 239.29 197.98 239.71 200.04 240.45 201.49 241.38 202.42 242.23 203.57 243.93 204.55 244.99 204.79 245.43 204.72 246.28 204.31 247.31 203.68 248.42 203.67 249.06 204.07 249.85 204.8 250.43 205.46 250.56 207.51 250.36 209.42 250.39 210.43 250.24 211.87 249.7 213.16 248.88 215.81 246.96 216.73 245.96 217.37 244.86 217.78 244.48 218.99 244.04 220.15 244.11 221.05 244.96 221.45 246.21 222.14 246.12 222.92 245.26 224.6 243.93 224.76 243.32 225.57 241.88 226.34 241.42 226.45 240.31 228.35 239.05 229.18 239.6 229.84 239.54 230.04 239.05 230.72 238.97 231.23 238.43 231.04 237.28 231.79 236.45 232.21 235.57 232.29 234.76 232.8 233.65 232.61 232.91 231.74 232.39 230.7 230 230.89 229.33 231.32 229.29 232.61 230.33 234.26 230.63 235.62 230.24 235.74 229.74 235.54 228.96 235.88 228.66 237.03 228.93 237.83 229.71 238.39 229.71 238.59 230.31 239.13 230.66 239.83 230.75 241.24 232.2 242.17 232.21 243.53 231.65 244.52 231.44 245.95 231.53 246.77 232.22 247.9 232.61 248.56 232.01 248.69 231.36 248.47 230.51 249.11 229.46 250.7 228.69 252.18 228.67 252.53 228.86 254.17 230.67 254.79 230.6 256.02 229.43 256.95 229.04 258.34 227.86 259.89 226.99 260.31 227.58 259.71 228.07 259.44 228.58 259.74 229.57 260.48 230.41 261.14 230.76 262.07 231.79 261.31 231.69 260.95 232.08 261.47 232.61 260.23 232.94 259.65 232.34 259.29 233.31 259.37 233.68 258.99 234.72 260.02 234.78 261.02 234.32 261.6 234.8 262.43 235.19 262.58 234.69 262.38 233.68 262.9 233.54 263.21 234.49 263.74 234.01 264.82 233.92 265.27 233.62 265.2 232.55 265.87 231.88 266.46 232.84 266.91 232.57 267.68 232.8 268.57 232.68 269.34 232.94 269.8 232.5 270.23 233.59 270.79 234.12 271.28 233.51 271.96 234.19 273.18 234.01 272.87 233.41 273.75 233.29 275.7 232.53 276.26 232.15 277.23 232.28 279.44 232.37 279.75 231.89 280.74 231.48 281.63 231.79 282.83 233.01 283.56 234.4 284.33 235.05 285 235.26 285.53 235.68 286.81 234.9 287.36 233.97 288.52 233.77 289.23 234 289.88 233.88 290.22 234.31 289.91 235.35 290.14 235.61 289.99 236.51 290.84 236.59 291.9 235.94 292.01 235.55 292.76 235.21 293.51 235.23 293.71 234.53 294.33 233.92 295.29 233.48 295.92 233.43 297.83 232.83 298.17 233.24 300.2 234.92 301.27 235.1 301.62 235.86 302.48 234.93 302.54 234.48 302.2 233.97 301.68 233.81 301.64 232.95 301.18 232.24 301.94 230.62 303.24 228.61 304.03 228.65 304.12 229.19 304.99 228.79 305.65 228.17 306.64 227.6 307.32 227.65 308.52 229.26 309.18 229.48 310.97 226.95 311.27 226.28 312.04 223.16 312.21 222.73 313.29 221.89 314.4 221.35 315.47 221.14 317.65 221.41 320.01 221.38 319.44 220.3 319.23 219.32 319.41 218.92 320.1 218.48 322.39 217.96 323.24 217.5 324.23 216.64 324.91 215.71 325.23 214.79 326.71 213.16 327.04 212.51 328.42 212.97 329.52 213.05 330.6 212.74 332.23 211.9 332.86 211.09 332.91 209.99 333.12 208.9 333.09 208.18 333.46 207.39 333.53 206.32 333.12 205.69 333.65 205.15 334.39 205.03 335.6 205.09 338.05 205.88 337.69 206.55 338.74 206.69 340.07 207.84 340.67 208.2 341.48 208.39 343.53 208.56 345.1 208.23 346.26 207.61 347.71 206.13 348.34 205.25 348.32 204.79 348.66 203.45 349.19 202.82 349.3 202.01 350.2 200.73 350.72 199.14 349.88 198.56 349.51 197.97 349.66 196.97 349.55 195.15 349.28 193.83 349.41 193.25 350.31 192.47 351 191.26 351.49 189.05 351.4 188.43 350.36 187.32 349.96 185.97 350.83 185.32 351.68 185.1 352.58 185.07 354.52 185.39 356.45 186.29 357.66 186.67 358.39 188.14 358.71 188.41 360.26 189.08 360.66 189.63 361.59 189.7 362.4 188.68 362.92 187.48 364.61 184.81 365.35 184.9 366.09 188.91 366.11 190.01 364.93 191.64 365.3 192.46 365.01 193.51 365.31 195.18 366.29 196.11 367.19 197.78 368.27 198.58 369.01 198.61 369.84 198.33 370.62 198.39 371.75 199.04 372.61 200.88 373.29 201.28 373.67 201.94 375.15 202.66 374.84 203.19 375.37 203.86 375.95 203.23 376.22 204.05 376.65 203.8 378.31 204.61 379.7 204.43 380.25 204.8 380.99 204.88 381.16 204.21 381.57 203.96 382.22 204.3 383.25 204.19 384.69 203.38 385.31 202.31 386.26 202.05 386.42 201.6 386.04 200.91 386.51 200.56 386.12 199.68 386.33 198.57 387.09 198.43 387.33 197.82 387.14 197.4 387.1 196.31 387.39 195.38 388.08 194.7 388.92 194.17 389.43 194.15 390.86 194.58 391.01 195.2 391.46 195.84 392.32 195.97 392.49 196.46 392.41 197.24 391.67 198.02 392.28 198.4 393.11 199.59 393.17 200.07 392.7 201 392.88 202.67 393.65 203.57 394.03 204.39 395.01 203.96 396.25 203.66 396.52 204.19 397.16 203.85 397.09 203.05 398.05 202.39 398.27 201.94 399.3 201.57 399.32 200.6 400.31 200.49 400.4 200.15 400.01 199.37 400.52 198.24 401.3 198.35 402.04 198.23 402.37 198.52 403.14 198.52 403.96 198.81 404.47 198.38 404.88 198.98 405.92 198.77 406 198.25 405.53 198.13 405.18 197.33 406.19 197.21 406.79 198.07 407.96 198.56 409.13 199.81 411.05 199.12 411.91 199.05 412.47 199.71 412.54 200.17 413.18 201.39 414.05 202.29 414.41 204.04 414.91 203.82 415.94 203.91 417.01 203.6 417.85 203.84 419.9 203.88 420.4 204.17 421.1 204.18 422.26 203.58 423.04 203.68 424.51 204.67 424.27 205.38 424.49 206.5 424.01 207.61 444.3 206.34 444.57 206.01 445.73 205.22 446.69 204.16 447.02 203.45 447.93 200.05 448.08 199.04 448.6 197.42 449.05 196.6 449.1 195.51 448.9 194.35 449.47 193.76 449.25 192.53 449.39 191.12 449.8 189.85 450.19 189.13 449.92 187.34 450.62 186.68 449.98 183.57 450.29 182.61 449.66 180.06 449.76 178.92 450.4 177.53 450.45 176.21 451.08 174.86 451.98 174.14 454.1 173.42 455.32 172.71 455.62 171.94 454.42 169.19 454.12 168.89 453.93 168.1 454.17 167.02 455.54 165.95 456.57 164.8 457.04 163.89 458.16 162.2 459.16 160.3 459.23 159.65 458.88 158.43 458.89 156.89 457.88 155.82 457.83 155.28 457.38 154.39 457.61 153.28 457.52 152.78 456.64 152.13 457.34 151.34 457.06 150.8 455.83 150.19 454.57 149.34 453.09 147.88 451.38 147.27 451.04 146.77 448.7 145.69 447.57 144.02 447.16 142.53 446.07 141.97 445.3 141.18 445.04 140.37 445.99 140.64 446.56 140.11 445.76 139.22 445.7 138.73 444.81 137.83 444.22 136.84 444.02 136.04 443.31 134.73 442.5 132.23 442.16 130.35 441.81 127.8 442.17 127.2 443.11 126.47 442.88 125.59 463.87 124.41 485.38 123.16 495.14 118.96 513.23 103.85 564.8 78.95 575.52 73.78 575.42 74.5 576.14 74.91 577.56 76.01 576.54 76.94 576.41 77.36 576.96 78.16 577.52 78.01 578.67 78.08 579.41 78.53 579.99 79.22 580.34 80.52 581.06 81.35 581.54 81.54 582.76 82.49 583.98 81.75 584.42 81.99 584.93 82.94 586.56 83.86 586.76 84.49 587.53 84.74 587.77 85.22 587.38 85.66 586.66 85.88 586.38 86.48 586.97 88.15 586.95 88.79 586.33 90.23 585.15 90.42 586.21 91.76 585.2 92.54 584.65 93.46 586.37 94.19 586.76 94.93 586.77 95.97 587.46 96.65 588.21 97.1 588.63 97.73 589.87 98.22 590.06 99.06 590.77 99.41 591.97 99.42 592.06 98.45 592.9 98.5 593.16 99.68 593.61 100.23 593.71 100.95 594.21 101.41 595.26 100.83 594.8 100.1 595.14 99.34 595.98 100.13 597.08 101.6 597.6 101.81 598.41 101.6 599.43 102.29 600.8 102.85 602.15 102.89 603.38 103.78 604.01 104.98 605.01 105.74 606.57 105.89 607.33 106.45 607.7 107.53 608.1 107.73 608.28 108.53 608.69 108.77 608.6 109.24 609.15 110.41 610.17 110.73 611.06 112.11 612.38 113.05 612.76 113.14 613.79 111.76 613.56 110.93 614.11 109.46 613.61 109.09 613.78 108.28 613.39 108.1 613.38 107.33 613.07 106.92 612.93 106.15 613.85 105.3 614.81 104.89 615.12 104.43 614.87 103.71 615.33 103.45 615.92 103.65 616.29 102.86 617.19 102.62 617.8 102.95 618.55 102.85 618.63 102.31 619.77 101.86 620.73 99.65 620.68 98.96 620.33 97.99 620.75 97.82 621.52 98.06 622.3 95.59 622.99 95.48 623.25 96.03 624.15 97.02 624.39 97.64 625.31 96.93 625.54 98.69 625.75 99.45 625.64 100.45 626.09 100.64 626.36 101.27 626.26 102.71 626.56 103.21 626.61 104.66 626.38 105.04 626.69 105.81 627.46 106.28 628.92 108 629.59 109.51 629.81 110.43 629.73 110.94 640.09 154.16 641.44 159.55 641.98 157.83 642.81 156.2 643.51 155.29 644.42 154.8 644.37 154.25 643.97 153.57 644.22 152.09 644.05 150.9 644.4 149.84 643.95 148.43 643.86 146.95 644.15 146.06 644.53 145.76 644.37 144.9 644.7 144.42 645.9 143.44 647.34 143.8 648.27 143.78 649.15 144.02 650.02 143.46 651.09 143.15 651.29 142.42 652.23 141.96 652.95 141.84 654.35 140.73 654.66 139.85 655.12 139.41 655.46 138.69 656.9 137.07 657.16 136.3 657.82 135.97 657.67 135.21 657.82 134.74 659.24 133.55 661.92 132.23 662.76 131.93 663.59 130.73 664.47 130.53 665.01 130.17 665.41 129.37 665.91 128.81 666.78 128.53 667.73 127.85 667.89 127.27 667.75 126.4 668.45 126.49 668.72 125.66 669.71 125.24 669.99 125.78 670.63 126.34 671.32 126.54 672.7 125.84 674.03 125.68 674.49 125.41 675.21 124.55 676.33 123.85 678.15 123.17 678.27 120.41 678.03 119.04 677.53 118.13 678.26 117.82 678.09 116.56 677.71 116.05 678.31 114.78 678.82 112.54 680.17 110.6 680.46 109.15 680.24 107.88 681.66 108.03 682.6 107.43 682.76 106.59 683.61 105.28 684.17 103.89 685.12 102.53 687.66 101.24 688.41 100.64 688.94 99.78 689.65 98.21 690.91 97.37 692.7 96.42 693.43 95.24 693.7 93.97 695.2 93.79 695.42 93.38 694.87 92 694.6 90.78 693.83 89.69 693.93 89.11 694.46 88.84 695.41 88.93 695.49 89.67 696.23 90.06 696.64 90.57 696.75 89.24 697.11 88.56 696.81 87.92 695.29 87.36 695 86.92 695.61 85.5 696.46 84.73 697.03 85.18 698.78 85.1 698.72 84.39 698.06 83.22 698.74 82.59 700.19 82.06 700.37 81.44 699.68 80.73 699.65 80.41 700.95 79.07 701.32 78.44 700.25 78.05 699.45 77.12 699.75 76.76 701.05 75.99 701.31 74.38 701.62 73.66 703.23 74.08 703.51 73.85 703.76 72.63 704.21 71.71 704.87 71.69 706.72 72.32 707.18 72.05 707.21 71.45 706.67 70.9 705.68 69.21 706.12 68.72 705.91 67.71 708.08 65.82 708.02 64.44 708.65 64.3 709.74 64.48 711.1 64.2 711.38 64.37 712.27 65.7 712.35 66.32 713.06 65.75 713.23 64.98 712.87 64.49 713.36 63.79 713.42 63.02 714.44 62.66 715.45 63.04 716.08 63.81 716.62 64.08 716.87 64.67 717.42 65.14 718.43 65.36 718.29 66.07 718.71 66.46 719.35 66.52 719.11 67.05 719.76 67.43 720.82 66.41 721.71 66.22 721.59 65.55 720.21 65.06 722.07 63.45 722.44 63.71 722 64.29 722.5 64.63 723.24 63.64 724.11 62.72 724.59 62.6 726.81 62.52 727.76 62.24 727.74 61.76 727.19 60.74 727 59.71 726.56 58.64 727.1 57.43 727.97 56.97 728.5 57.45 729.57 57.08 730.77 57.54 731.74 57.02 732.38 56.91 732.56 57.28 733.86 57.37 735.27 56.86 734.71 54.2 734.65 53.58 734.27 52.86 734.28 51.7 733.88 51.12 732.93 50.27 732.4 49.26 732.57 48.31 733.04 47.66 733.38 47.58 733.92 46.09 734.59 45.25 734.82 44.48 736.25 43.23 736.58 42.57 736.4 42.09 734.92 41.88 734.33 41.02 734.94 39.73 735.61 38.97 736.66 38.07 736.88 37.01 737.21 36.52 738.11 36.23 738.24 35.57 739.01 35.17 739 34.01 737.27 32.48 736.11 31.62 735.98 31.17 736.27 30.54 735.89 29.37 736.25 28.42 735.94 27.39 736.39 27.12 736.74 26.46 737.4 26.27 737.64 26.72 737.17 27.17 737.26 27.88 738.42 28.27 739.14 28.18 742.06 27.33 742.73 26.79 743.36 26.54 743.58 25.56 742.37 23.58 742.38 23.17 742.95 22.79 742.91 22.4 742.03 21.97 742.6 21.15 742.69 20.11 743.71 18.88 743.27 17.31 742.19 15.98 741.08 15.15 740.67 13.62 740.94 12.86 741.37 12.64 742.35 12.99 743.45 12.89 744.21 12.44 744.65 11.84 745.96 13.81 747.9 17.31 749.27 18.76 750.13 19.31 750.95 19.59 752.01 19.72 752.99 19.62 757.61 18.68 759.69 17.89 760.66 17.23 761.45 16.03 762.27 11.78 762.62 10.86 763.5 9.66 764.81 7.36 765.65 5.13 765.83 3.85 766.49 2.86 767.82 2.09 769.36 1.55 772.39 1.03 772.93 1 775.15 1.4 776.64 2.42 777.17 3.02 778.96 5.6 779.98 6.85 782.22 9.29 783.35 10.72 783.51 12.02 783.02 13.71 782.13 15.45 780.48 17.31 778.83 19.58 777.85 20.56 777.28 20.9 775.24 21.4 773.22 21.31 772.38 21.39 771.53 21.74 770.15 22.69 767.28 24.94 765.15 26.38 764.2 27.32 763.94 27.88 764.19 29.61 764.72 30.98 765.81 32.38 766.38 32.86 769.18 34.02 771.42 35.08 773.54 35.91 775.63 36.93 779.59 38.69 780.28 39.19 781.18 40.38 781.97 41.83 782.94 43.85 783.06 44.73 782.98 46.39 782.55 47.64 781.92 48.36 781.19 48.91 779.54 49.58 778.31 49.69 776.05 49.65 774.75 49.91 773.82 50.81 773.34 51.77 773.24 52.36 773.51 53.42 774.6 54.55 775.72 55.29 776.95 55.93 779.05 56.87 780.78 57.91 782.03 59.42 783.14 61.7 783.53 62.91 783.62 63.87 783.49 64.64 782.74 65.39 781.46 65.7 779.35 65.35 776.76 64.54 775.2 64.51 773.93 64.98 772.92 66.07 771.82 69 771.04 70.49 770.68 71.43 770.73 72.79 771.04 73.59 771.59 74.36 772.3 75.04 773.37 75.25 776.5 75.06 779.2 75.32 780.22 75.25 781.26 74.93 785.04 73.34 786.29 73.1 787.32 72.75 788.73 72.91 789.84 73.38 791.38 74.53 793.47 77.49 794.52 79.1 794.75 79.96 795.48 81.04 796.72 81.82 797.86 82.36 798.18 82.92 Z"/>
</g>
</svg>