<?xml version="1.0"?>
<svg xmlns="http://www.w3.org/2000/svg" version="1.2" baseProfile="tiny" width="800" height="750" viewBox="0 0 800 750" stroke-linecap="round" stroke-linejoin="round">
<g id="4209003">
<path d="M 352.71 40.55 355.7 42.52 357.1 44.08 357.97 46.72 360.44 49.02 361.23 50.9 360.8 52.29 357.39 53.2 355.46 60.27 351.79 60.88 345.81 64.56 345.11 69.63 347.21 73.66 345.41 78.73 346.39 80.76 350.15 83.77 357.28 90.82 357.5 92.75 355.31 97.51 354.66 100.23 355.86 103.38 359.8 105.95 362.73 109.09 363 110.63 365.12 112.48 367.86 114 369.5 115.74 375.46 115.52 377.67 116.39 379.75 118.03 381.39 120.97 382.2 123.53 382.23 126.26 379.42 131.05 379.8 132.08 383.25 136.06 385.05 140.4 386.34 141.8 394.04 144.28 398.95 147.05 402.8 147.41 405.97 148.42 410.52 148.81 412.62 149.57 417.2 153.87 423.2 154.15 427.27 154.69 432.85 153.47 434.87 153.88 439.87 157.76 445.09 158.83 453.3 158.75 456.12 159.71 457.07 161.65 460.97 165.79 465.85 169.75 467.05 174.72 464.86 181.9 465.47 183.73 468.22 187.21 470.21 190.91 472.8 192.34 479.24 194.14 488.89 198.35 492.12 200.55 500.17 208.31 503.41 211.87 505.5 216.67 513 224.35 516.59 226.86 516.78 228.8 515.31 235.47 510.45 240.49 510.66 241.7 513.85 247.84 514.5 253.16 516.62 254.01 519.58 256.07 523.78 258.19 525.9 260.34 532.45 264.63 542.39 269.91 550.47 272.72 554.83 276.15 558.27 281.24 560.81 283.25 567.04 285.44 569.41 287.15 575.9 290.86 582.88 288.78 587.65 289.29 590.49 290.42 591.59 292 592.94 296.69 597.31 305 599.34 305.54 601.9 305.15 606 306.07 607.6 307.93 612.59 309.98 616.32 310.06 626.15 313.92 629.88 319.85 633.72 322.99 634.23 327.38 633.94 329.71 634.59 331.97 636.64 332.69 638.77 332.48 641.3 330.94 642.85 330.95 651.35 333.75 654.63 333.76 657.31 335.07 659.99 335.36 664.2 338.32 665.89 340.17 666.24 342.9 670.68 344.34 674.33 344.58 676.72 347.25 680.45 352.58 679.74 355.14 681.82 355.47 684.18 354.13 689.77 355.37 693.13 353.16 695.75 354.05 696.04 355.31 701.63 356.82 706.25 359.71 708.68 362.84 713.64 364.73 715.28 364.51 720.18 365.81 728.7 363.25 731.2 364.22 735.28 362.74 738.32 364.88 741.81 365.16 744.53 367.89 747.32 367.45 750.36 368.15 752.56 370.28 755.35 369.82 757.69 371.87 761.02 373.22 762.83 376.24 762.18 377.28 764 380.54 766.05 380.97 768.03 382.73 773.24 383.24 775.44 382.86 779.78 385.1 781.52 387.67 782.77 388.44 789.38 387.17 795.82 387.21 798.5 388.26 794.68 394.4 792.74 400.52 791.12 408.32 790.84 418.19 791.36 421.46 792.58 425.54 797.39 438.9 798.82 445.37 799 450.49 798.05 453.61 795.83 456.85 794.1 457.85 790.58 458.79 778.94 460.39 773.25 460.86 766.85 460.43 762.97 461.05 760.24 462.2 756.98 464.57 751.87 470.82 750.15 471.95 742.66 475.55 737.15 478.62 733.95 481.22 725.64 489.77 721.47 493.45 719.41 496.65 717.75 501.05 718.36 507.73 717.56 514.43 717.53 520.14 716.49 527.92 713.67 537.63 713.45 545.31 712.28 549.63 711.53 556.05 709.19 559.15 705.77 561.29 701.3 563.55 694.5 566.3 692.54 567.41 690.39 569.78 689.43 571.64 689.13 576.41 690.07 580.28 691.69 583.41 693.75 589.24 694.18 595.57 693.03 606.74 691.59 610.61 690.3 612.61 683.41 618.81 679.33 620.92 674.6 621.85 670.81 621.63 668.99 620.84 663.69 616.82 660.07 615.24 656.43 614.17 652.66 613.54 647.06 611.93 634.24 606.46 628.96 602.38 623.44 599.63 608.81 595.95 606.16 595.56 602.84 595.77 599.37 597.71 595.48 601.98 592.35 606.41 591.54 611.02 592.35 623.58 596.42 633.67 597.8 636.31 602.82 643.25 605.45 647.42 608.05 653.05 609.49 657.24 610.57 663.03 609.85 667.87 610.1 670.29 611.23 673.7 611.85 679.9 609.29 691.58 608.06 693.96 605.4 696.88 599.35 701.64 591.93 705.86 586.12 709.88 579.2 716.26 576.53 719.5 574.86 723.98 574.78 728.18 575.67 731.65 576.79 733.29 575.74 733.6 571.19 740.14 567.63 741.52 564.41 741.72 561.86 743.63 557.82 743.5 556.76 744.51 556.78 747.24 555.21 749 551.69 748.48 546.12 745.11 545.21 743.72 546.53 740.84 543.09 737.54 544.91 734.35 543.78 731.75 544.2 727.6 546.99 725.69 545.88 722.61 546.31 720.42 537.08 718.22 535.15 717.97 530.25 716.04 528.75 714.75 526.33 715.13 522.76 719.68 516.79 721.64 509.03 723.71 505.34 727.8 499.99 725.6 495.98 723.39 495.97 722.13 500.18 720 502.19 717.54 503.53 714.83 501.47 712.8 497.75 707.78 494.28 705.81 490.67 704.26 489.99 702.39 486.12 698.51 483.29 697.57 477.54 697.62 473.07 696.65 467.44 698.83 465.17 699.07 462.84 698.28 457.55 693.14 454.95 692.28 449.35 693.23 446.25 693.05 443.42 691.2 443.39 688.67 445.32 686.81 445.9 684.03 445.24 680.83 443.25 678.98 438.16 678.07 436.22 679.45 433.92 683.71 432.77 686.75 431.07 687.28 426.1 686.6 421.97 686.66 419.76 685.62 418.13 683.72 413.96 684.98 411.88 682.29 409.22 681.57 401.95 682.11 398.5 683.57 395.19 682.42 392.26 682.31 386.22 681.46 382.07 679.88 373.99 674.97 371.02 671.81 366.3 668.96 362.65 667.13 361.35 665.51 357.62 665.15 355.98 666.46 353.47 666.98 348.64 666.21 345.26 665.03 342.32 664.8 336.76 663.43 335.73 660.86 333.62 658.1 332.76 655.87 329.49 653.94 324.84 654.1 321.05 651.57 318.8 651.89 312.9 656.05 311.06 656.39 308.18 655.71 305.99 653.2 302.18 650.42 299.68 649.09 300.99 644.06 301.18 641.46 300.33 638.86 300.64 635.91 295.94 633.57 293.82 634.8 283.91 631.48 282.93 630.63 281.74 626.8 278.62 622.96 273.92 621.38 269.62 617.81 266.99 617.72 261.49 616.19 255.91 616.53 254.37 614.99 250.88 614.92 248.63 616.22 245.68 616.77 243.97 616.12 243.11 614.37 243.17 611.87 242.08 610.66 238.08 608.07 236.28 608.62 232.5 606.99 229.9 607.36 227.67 606.59 228.81 602.79 227.51 601.68 221.86 601.75 221.06 601.07 218.78 595.2 214.6 590.64 212.35 591.35 211.82 592.73 206.64 595.61 205.09 595.45 204.01 593.83 201.18 592.33 199.6 593.22 195.84 598.49 190.23 604.1 186.59 604.31 186.39 601.49 185.35 599.09 183.14 598.68 178.57 599.2 176.54 601.05 174.55 603.84 172.02 604.77 168.1 603.06 167.67 601.45 168.7 599.4 165.8 599.06 162.07 600.55 158.83 600.78 155.93 600 152.58 598.16 151.11 596.5 146.94 597.19 145.17 597.02 143.42 598.48 140.55 597.84 138.94 598.69 135.17 599.43 134.36 600.95 130.96 600.86 126.55 599.41 119.7 599.15 115.57 600.76 111.88 600.95 109.68 600.01 107.2 597.96 102.21 595.76 98.19 596.63 93.3 590.61 88.66 589.42 89.35 587.07 85.23 585.05 80.14 584.71 78.1 582.43 75.33 581.04 73.41 579.22 69.42 572.11 69.34 566.08 68.37 563.16 67.01 560.9 66.25 557.98 63.26 553.8 60.75 551.45 59.71 549.67 53.27 546.73 51.01 546.08 46.16 546.46 43.41 543.87 42.21 543.44 38.12 543.6 37.12 542.04 37.12 539.54 36.17 537.2 35.48 530.74 34.37 526.61 35.46 523.87 35.1 522.74 36.22 518.99 37.49 516.58 36.75 507.22 35.29 506.1 32.85 501.48 32.64 497.67 31.57 493.49 32.89 488.25 33.27 484.54 32.47 480.02 31.22 476.19 28.32 471.66 26.94 466.46 27.18 463.99 26.61 461.6 24.62 458.88 21.64 456.96 16.87 451.65 13.9 443.06 13.99 438.42 13.59 435.2 11.67 430.69 12.03 425.13 10.47 418.18 7.97 413.91 7.3 411.03 4.27 405.74 1 402.61 5.1 402.11 12.61 402.81 14.6 404.64 17.77 409.58 19.31 414.04 21.91 415.99 21.2 418 24.3 421.16 28.3 423.8 33.72 423.47 37.41 424.72 42.54 423.47 49.46 423.35 54.22 424.57 54.28 420.28 52.71 414.53 50.8 410.73 50.91 407.17 53.02 400.64 54.33 399.55 54 397.09 51.46 394.65 46.18 393.27 45.08 392.08 45.6 388.11 44.1 385.16 44.41 383.5 46.17 380.95 44.5 375.98 46.26 373.24 44.43 368.98 41.86 366.79 41.64 365.71 43.04 363.67 43 361.41 41.5 360.14 41.11 358.08 41.52 355.41 40.91 353.32 37.94 352.17 37.14 349.6 34.86 348.25 34.5 345.15 32.87 343.51 32.96 341.81 30.74 339.46 32.59 337.45 31.97 335.36 29.44 332.91 29.24 330.86 32.32 328.87 32.36 326.07 34.56 317.98 35.85 317.92 37.12 314.96 40.73 310.95 51.85 308.83 55.56 306.1 59.52 305.53 58.38 303.43 58.74 302.01 60.66 300.11 60.83 296.84 65.78 290.36 67.02 286.51 69.03 282.48 72.78 283.21 75.59 284.85 77.24 288.4 80.23 289.65 88.17 289.64 91.49 288.63 94.56 286.89 96.08 286.74 100.09 287.63 101.44 286.73 101.37 283.88 102.11 282.48 104.7 280.61 107.07 278.07 112.25 276.12 114.6 274.33 115.46 272.83 118.21 271.7 119.59 269.73 121.15 269.25 123.68 270.15 125.78 269.06 126.89 267.46 126.79 262.79 130.02 258.36 128.7 254.76 128.78 252.58 131.61 248.44 131.39 244.38 132.03 242.94 134.72 241.16 141.92 240.44 145.01 239.12 148.26 238.74 151.89 239.21 155.17 237.73 157.78 234.73 158.64 232.63 160.54 231.32 163.85 231.15 167.33 232.34 169.28 232.26 171.37 231.16 171.84 228.84 171.04 223.43 171.23 220.04 168.42 217.08 167.56 213.06 170.76 208.35 174.69 207.72 175.07 205.36 176.34 203.13 175.66 200.77 181.04 194.31 182.54 193.1 185.84 192.02 188.97 192.17 194.07 191.33 197.89 189.56 199.51 187.57 200.06 185.28 197.49 180.62 194.21 178.71 192.7 176.9 190.51 172.86 190.23 170.08 191.67 165.75 198.8 159.8 200.56 155.8 202.46 153.99 204.44 150.87 208.82 149.26 213.07 150.18 215.67 148.94 216.69 146.73 218.78 145.68 225.8 145.64 227.49 144.84 229.76 142.48 232.6 133.57 233.12 130.98 232.52 126.1 229.43 121.7 227.27 117.98 225.01 115.43 221.59 113.14 219.51 111.03 217.92 107.02 217.64 103.39 218.23 100.93 219.47 98.89 222.38 96.92 228.22 93.72 236.02 91.39 241.19 90.22 246.37 88.69 253.39 84.87 255.52 82.88 257.49 76.24 258.5 71.12 259.94 70.2 264.02 68.91 268.12 68.81 272.75 67.76 274.11 65.16 273.74 63.05 271.73 61.24 266.27 59.14 263.23 57.54 262.49 54.91 263.25 50.77 261.68 46.54 261.61 44.86 259.64 41.29 257.9 39.76 256.96 36.59 257.85 34.86 257.62 31.67 258.9 29.53 261.34 27.14 264.02 23.25 264.93 20.52 262.68 18.35 262.29 15.3 265.67 13.86 265.89 10.62 264.33 8.91 266.03 7.56 275.86 4.57 282.11 1.72 284.4 1 286.37 1.14 291.51 2.98 294.35 3.02 297.59 3.68 301.91 6.16 314.64 11.74 316.34 11.55 317.87 10.11 320.21 6.49 321.3 6.33 329 11.03 332.45 11.5 335.46 12.56 338.89 13.02 339.93 13.88 339.19 15.65 337.61 16.88 336.62 19.24 338.85 21.5 342.26 23.88 343.05 25.91 346.26 31.02 346.62 39.22 352.71 40.55 Z"/>
</g>
</svg>