<?xml version="1.0"?>
<svg xmlns="http://www.w3.org/2000/svg" version="1.2" baseProfile="tiny" width="800" height="974" viewBox="0 0 800 974" stroke-linecap="round" stroke-linejoin="round">
<g id="4209409">
<path d="M 415.06 957.06 412.82 955.11 414.06 953.74 415.32 955.48 415.06 957.06 Z M 624.59 720.98 622.22 721.35 619.94 719.6 618.82 717.09 622.35 714.96 624.39 715.12 625.13 716.53 623.74 719.05 624.59 720.98 Z M 793.43 404.82 795 404.94 796.43 406.44 796.9 408.7 795.09 409.96 794.66 412.4 792.7 414.02 790.89 414.69 787.85 413.12 786.13 413.62 784.75 411.32 785.33 408.12 789.1 405.92 790.72 406.3 792.27 404.69 793.43 404.82 Z M 291.94 973 289.17 964.13 286.99 959.17 284.07 950.58 282.46 948.06 279.81 940.43 273.97 927.8 263.05 917.78 245.81 912.96 235.15 912.17 228.04 910.89 221.46 909.93 215.36 909.27 204.43 908.71 194.87 908.97 186.31 909.81 178.54 911.17 171.51 913.15 165.15 915.87 159.41 919.43 153.8 923.97 146.89 930.17 142.18 933.95 137.41 936.82 132.54 938.72 127.56 939.71 122.45 939.84 117.1 939.04 111.03 936.88 103.65 932.8 94.38 926.25 88.86 921.89 75.64 910.82 63.52 900.37 55.25 895.27 45.48 892.11 34.97 890.78 26.21 892.01 11.73 899.72 4.5 902.22 1 901.76 17.58 876.08 41.3 840.91 67.84 801.7 139.02 695.76 143.55 694.71 144.52 693.08 143.26 690.84 139.11 689.98 135.63 687.63 134.89 685.98 135.52 684.73 138.41 684.42 140.71 683.08 124.91 675.57 111.5 666.52 101.23 656.5 94.85 648.11 89.27 641.36 86.06 638.51 79.65 633.34 73.36 628.62 76.26 627.44 79.02 624.68 84.26 622.77 88.91 622.53 90.37 623.19 93.33 623.48 94.73 622.8 99.34 623.43 104.13 625.27 108.11 627.21 113.29 630.65 114.31 636.02 115.47 638.11 115.18 640.29 117.41 642.32 117.46 644.65 118.38 645.57 118.91 649.2 117.94 649.88 118.43 651.67 117.56 652.78 117.8 654.67 119.15 656.66 125.74 658.5 128.36 657.92 130.83 656.71 134.29 656.93 136.63 656.09 138.72 655.97 141.39 658.6 144.25 660.29 144.88 661.5 148.61 662.08 151.28 663.58 152.2 666.1 154.38 668.19 160 667.36 162.66 668.19 164.94 666.59 162.57 662.91 161.67 655.61 161.17 647.36 162.13 640.65 162.12 637.71 161.33 634.17 159.95 631.86 155.86 629.33 155.51 627.49 151.07 626.11 149.02 626.2 144.85 627.23 140.66 627.32 136.48 625.72 132.59 622.53 129.09 621.46 123.97 621.44 121.92 621.11 119.82 619.12 118.05 613.18 117.87 610.95 114.43 601.62 112.41 597.49 112.23 595.15 111.24 592.03 110.8 588.82 109.26 585.7 108.91 582.92 107.4 579.41 104.74 575.42 100.63 572.3 98.66 571.21 91.38 568.14 83.13 567.22 73.86 567.36 68.35 566.13 67.32 565.22 66.92 561.64 67.6 558.62 71.04 554.58 72.52 549.6 74.6 544.99 74.37 542.01 72.86 537.68 74.14 537.03 75.5 534.31 74.86 532.77 76.77 531.07 80.02 530.94 82.24 529.85 83.17 528 85.93 524.18 86.65 521.57 90.57 519.49 92.19 517.11 93.38 514.47 97.67 509.33 97.62 506.42 94.53 503.3 93.89 501.57 94.3 498.25 97.84 494.84 99.54 492.27 101.37 490.54 101.66 488.8 104.25 484.27 104.83 479.63 104.35 476.72 156.33 475.38 160.42 476.22 162.48 478.41 163.45 481.97 168.28 484.15 171.54 484.99 173.02 486.92 177.29 483.99 179.57 483.19 183.17 482.86 185.29 480.19 188.37 478.31 188.51 477.06 187.22 475.48 187.22 472.9 188.58 471.15 188.49 469.88 190.11 468.06 191.27 464.56 193.62 462.61 193.95 458.96 199.36 450.79 199.53 448.93 198.89 442.13 198.12 437.03 199.3 435.02 201.2 433.51 206.02 431.28 207.84 429.61 208.76 420.69 210.47 418.35 210.77 414.2 211.5 411.59 210.55 409.03 211.05 406.33 212.53 404.6 216.3 402.45 219.12 402.92 221.75 405.29 225.8 405.44 227.48 404.82 230.09 405.91 233.97 406.46 236.28 408 241.34 410.35 243.11 412.46 244.89 413.03 247.8 411.63 252.31 410.87 254.32 409.45 255.99 406.51 257.36 404.98 259.41 404.71 264.83 406.07 265.19 408.24 267.21 408.8 270.85 407.51 272.8 404.84 273.01 402.95 272.34 401.42 273.39 397.89 273.34 394.92 275.76 389.51 277.85 383.33 279.25 380.69 279.05 379.01 279.97 377.4 282.43 374.84 282.44 372.53 281.59 368.73 282.95 365.05 284.02 363.32 287.33 361.53 288.06 359.85 311.39 342.33 315.49 346.87 318.86 349.19 321.16 349.77 324.11 349.72 336.72 347.72 341.44 348.06 345.26 350.39 365.46 349.29 370.02 348.9 383.13 348.26 392.25 347.48 396.48 346.64 399.97 345.45 402.97 343.9 407.29 340.85 408.71 339.31 410.19 334.45 411.88 327.22 412.69 320.23 412.71 315.05 412.36 307.83 403.45 291.98 396.34 279.92 388.34 266.8 384.3 259.97 381.05 253.95 378.51 248.56 376.58 243.65 375.14 239.05 374.3 234.66 373.87 230.41 374.02 224.14 374.63 219.97 375.6 215.83 376.91 211.79 379.44 206.07 381.6 202.45 384.38 198.8 387.94 194.93 392.7 190.65 399.03 185.73 407.83 179.86 419.96 172.72 427.55 168.58 432.55 161.56 435.93 155.99 437.51 152.83 444.08 137.52 446.62 132.46 449.25 127.95 454.57 120.42 459.69 114.63 464.26 110.31 471.13 104.95 475.02 102.85 477.44 101.92 482.34 100.68 487.35 100.17 492.68 100.27 498.92 100.79 506.05 101.69 512.82 103.22 518.88 105.65 532.35 112.54 537.18 114.8 544.87 117.88 550.16 119.56 555.48 120.91 560.72 121.92 565.82 122.57 570.71 122.88 579.85 122.62 588.14 121.38 596.14 119.07 600.17 117.4 606.41 114.29 610.39 111.88 614.82 108.64 618.77 104.98 621.65 101.68 624.55 97.83 630.97 88.21 637.06 78.15 640.87 70.82 642.67 65.96 644.51 58.33 645.49 52.51 645.93 46.87 645.94 43.39 645.52 37.45 644.85 33.32 637.85 7.65 636.19 1 716.46 28.3 799 56.36 796.16 57.3 792.6 59.35 789.93 61.45 784.64 66.18 782.62 68.31 776.81 75.26 773.53 79.48 768.4 84.57 765.09 89.32 762.82 90.93 759.37 95.79 756.91 98.38 755.3 100.89 751.14 105.9 747.95 110.42 744.56 114.43 739.3 122.25 737.73 123.82 733.41 130.2 729.33 135.59 725.36 140.49 717.06 153.08 716.21 155.34 712.55 160.26 710.09 164.07 708.73 166.74 706.4 170.15 703.62 175.52 699.2 181.99 695.7 189.46 692.46 195.28 685.05 210.85 684.09 213.69 680.21 222.09 676.43 231.98 675.34 236.96 673.37 240.22 672.49 245.51 671.21 249.13 669.25 255.92 668.24 261.27 667.95 264.27 666.67 268.34 666.15 276.33 665.72 278.09 664.12 291.51 663.98 299.15 663.34 303.95 664.18 309.2 666.18 317.03 669.13 322.23 670.59 323.92 674.84 323.56 679.68 321.34 680.83 321.48 682.51 323.77 684.76 324.98 688.17 326.05 689.39 327.14 692.16 327.82 692.2 330.25 690.73 330.76 689.08 332.35 685.73 333.95 684.48 336.82 679.73 336.05 678.09 334.53 672.06 338.04 665.99 342.53 661.97 347.78 658.22 351.76 656.35 355 652.34 359.46 650.51 363.15 648.38 366.07 645.37 368.93 642.35 374.08 639.24 378.03 635.23 384.34 633.1 387.16 630.92 391.24 629.3 393.33 627.58 396.87 624.23 401.24 620.65 407.92 617.74 414.01 615.59 417.69 612.18 426.98 609.05 433.3 607.08 439.28 605.88 443.86 603.88 449.5 602.53 452.39 601.76 458.3 600.16 466.01 599.65 467.13 599.03 471.87 599.31 474.79 597.98 481.26 599.84 482.4 598.68 485.32 598.03 490.91 598.29 496.37 598.15 502.04 598.57 506.36 598.3 508.08 598.91 512.38 598.88 517.58 599.83 528.17 601.2 537.73 602.36 540.87 603.85 543.27 604.19 546.46 606.18 550.24 607.91 555.99 611.77 561.35 613.09 564.19 618.59 570.51 627.79 569.61 635.25 567.75 641.39 567 649.22 566.9 656.14 567.82 659.23 568.75 661 570.07 669.13 574.44 665.09 574.61 656.12 574.56 655.7 575.85 656.73 578.8 658.81 581.45 661.39 579.43 664.67 581.34 661.71 581.82 662.82 584.08 662.2 588.25 660.21 592.92 660.31 594.67 662.91 595.99 663.95 597.88 664.23 600.43 663.43 602.77 664.68 603.39 664.32 605.87 663.01 607.52 663.05 610.11 661.47 613.6 659.65 611.64 658.53 608.97 655.05 607.65 654.5 605.77 652.84 605.92 649.11 607.12 645.53 609.63 641.56 613.38 640.19 615.93 640.23 617.65 643.51 618.98 642.32 622.08 640.67 623.53 638.18 624.25 634.07 622.42 631.55 623.5 627.35 628.34 624.75 630.9 621.87 636.4 619.22 639.32 614.94 645.7 613.96 649.19 614.53 653.28 614.32 656.7 616.73 657.38 614.49 660.03 613.14 662.51 609.73 664.41 610.11 669.25 612.53 673.86 613.38 674.18 615.76 672.57 618.65 673.26 621.7 675.95 622.6 677.85 622.65 679.64 621.77 681.79 619.38 680.92 617.61 681.5 616.76 685.95 615.33 688.76 613.1 691.28 611.42 691.99 611.63 695.65 612.91 698.96 614.96 700.15 615.34 702.64 614.85 704.21 611.62 705.55 610.56 706.86 601.54 708.05 597.01 709.84 594.61 711.33 584.93 714.72 581.69 717.05 577.56 721.2 574.82 722.94 570.64 726.53 566.99 729.27 565.85 729.73 561.32 734.03 554.45 741.04 548.67 745.59 545.21 749.08 543.53 751.3 540.32 754.66 535.91 760.11 533.99 763.44 530 768.04 527.59 772.52 525.64 776.81 524.58 780.22 522.78 782.87 521.95 788.5 522.68 794.84 523.92 798.54 526.42 801.23 528.38 801.89 531.5 799.28 534.03 798.83 535.33 799.82 536.36 802.29 534.93 805.74 533.98 806.32 535.69 808.44 531.96 810.4 531.37 812.33 532.11 812.94 531.81 815 529.05 816.9 528.01 816.55 526.11 818.51 523.56 817.06 523.5 815.87 526.14 812.92 524.67 811.48 520.59 812.02 519.56 810.63 517.4 810.09 516.87 809.2 514.42 809.59 509.84 811.18 504.67 813.81 501.82 814.79 499.26 816.4 495.46 819.7 493.55 821.9 490.96 823.94 485.52 827.39 481.78 830.93 476.61 835.3 472.82 838.2 470.39 841.69 468.82 843.29 466.1 844.93 463.06 848.72 457.94 853.3 454.28 857.78 449.04 863.31 446.85 865.11 445.92 866.53 442.26 870.45 441.17 873.03 438.94 875.3 437.25 878.8 434.14 882.12 433.11 884.73 430.96 887.39 430.26 889.83 428.21 894.5 430.42 897.91 432.42 899.3 431.96 900.48 432.87 903.16 431.42 905.1 431.61 906.4 430.45 908.27 428.3 909.25 427.39 910.56 428.19 914.5 427.24 915.47 426.85 917.89 427.9 919.75 427.26 922.01 427.77 923.79 430.44 926.94 433.09 928.7 434.37 928.92 438.53 925.8 441.12 925.68 444.18 929.07 446.67 930.29 447.22 933.92 444.68 936.02 443.58 938.84 438.35 942.67 436.31 942.54 433.29 940.56 431.52 940.8 430.01 942.65 430.06 944.87 428.54 947.01 426.87 946.61 422.86 948.38 421.97 950.35 418.52 950.61 415.81 951.67 416.81 949.17 411.37 944.3 407.74 943.56 402.62 942.11 392.78 942.57 390.32 943.9 389.41 943.56 386.72 944.86 381.44 946.1 376.43 947.65 373.88 948.85 370.1 951.37 369.37 951.12 365.11 953.71 363.4 955.13 362.41 957.57 363.47 959.99 361.56 961.64 360.42 961.74 358.57 960.47 356.18 956.79 356.31 955.06 354.12 953.64 351 953.12 344.98 953.94 342.74 954.86 340.34 954.91 336.08 956.65 334.88 956.05 331.04 957.9 328 958.87 325.63 959.09 324.6 960.07 320.14 961.03 318.04 962.38 315.84 962.54 313.11 964.2 310.96 964.34 309.24 965.69 306.12 966.9 305.39 966.56 301.85 968.37 300.73 968.46 297.52 970.26 293.05 972.09 291.94 973 Z" fill-rule="evenodd"/>
</g>
</svg>