<?xml version="1.0"?>
<svg xmlns="http://www.w3.org/2000/svg" version="1.2" baseProfile="tiny" width="800" height="546" viewBox="0 0 800 546" stroke-linecap="round" stroke-linejoin="round">
<g id="4210050">
<path d="M 630.84 520.56 631.12 528.51 635.81 533.59 637.29 534.88 639.74 535.68 635.97 537.86 629.45 540.07 617.56 543.47 613.62 545 612.09 544.8 608.91 542.69 604.46 538.63 599.38 533.3 596.92 531.14 590.1 526.54 587.4 523.46 585.64 522.19 582.77 521.51 579.44 519.74 576.88 516.71 574.71 516.3 568.43 518.66 565.28 518.95 561.23 517.63 557.3 518.28 554.42 518.27 550.46 516.47 548.89 515.1 545.9 511.12 543.13 506.59 542.07 505.63 537.11 505.27 531.75 505.96 527.12 504.66 521.08 499.73 519.82 499.05 515.3 499.07 512.85 498.39 509.45 496.76 498.45 494.03 493.33 493.62 491.11 494.21 488.86 496.13 486.99 499.54 483.24 503.26 478.35 505.28 474.55 505.96 471.66 507.03 468.85 508.62 464.54 510.52 460.89 514.26 453.36 519.25 451.57 523.32 450.42 527.74 451.06 529.94 346.37 504.99 344.12 504.6 340.62 503.3 339.32 501.7 338.46 498.73 336.28 495.06 333.02 495.58 330.48 497.82 327.62 496.5 324.21 496.77 321.62 496.52 319.35 495.71 317.83 495.83 315.86 499.43 312.11 503.08 309.81 503 307.09 501.23 302.64 496.88 300.81 494.35 173.23 470.42 113.97 459.3 115.06 457.77 126.46 444.74 131.37 440.26 133.37 438.8 135.99 435.86 139.25 430.7 143.26 426.48 147 423.75 148.69 421.7 150.54 415.14 151.47 413.54 151.51 411.84 148.95 407.76 146.13 404.82 142.75 403.13 138.3 399.25 137.61 397.72 138.32 394.88 139.68 392.54 143.66 389.91 146.05 388.87 147.06 387.8 149.01 383.36 149.72 380.17 147.86 378.56 143.2 377.35 137.08 374.25 132.61 372.56 129.76 370.66 128.45 365.93 128.6 359.35 128.14 352.49 125.12 350.33 121.14 349.12 116.83 349.74 114.03 350.75 109.56 349.16 108.05 347.47 104.65 347.1 102.94 346.19 97.82 344.49 95.45 341.36 94.12 337.53 91.54 335.58 86.1 333.91 82.89 332.21 80.66 331.96 78.18 330.98 74.9 324.9 70.55 321.76 66.83 320.23 65.26 318.73 60.5 316.61 56.22 315.69 51.43 314.25 47.33 313.8 44.17 314.32 39.54 314.36 34.76 315.59 32.97 315.15 28.6 312.02 27.04 309.45 26.21 304.06 26.17 300.7 24.04 297.67 18.04 292.87 12.96 291.73 9.23 289.25 8.06 287.44 7.4 284.33 6.05 282.38 3.16 281.04 1 278.38 2.64 272.4 4.1 268.16 7.47 265.18 5.82 261.86 4.78 260.95 6.08 256.96 6 255.2 2.65 251.64 1.56 249.25 2.42 245.71 5.35 243.47 5.95 241.28 4.38 229.59 4.38 227.52 6.58 225.02 6.88 222.23 7.82 221.09 10.22 220.89 14.34 219.18 18.27 216.12 19.27 216.28 22.39 213.4 26.19 212.31 28.65 210.86 30.66 211.08 32.59 210.46 34.95 205.51 37.75 201.93 39.66 200.39 40.98 198.55 43.48 197.09 44.71 195.24 44.19 192.09 45.09 189.78 43.7 187.95 44.8 185.21 47.03 183.7 48.39 181.7 51.62 180.85 56.73 181.74 63.5 181.42 65.58 180.67 69.29 177.82 74.04 175.64 75.47 174.43 79.09 169.74 79.56 168.09 81.34 166.91 81.66 164.56 82.63 162.89 85.4 161.05 83.71 158.99 83.09 153.08 88.52 148.47 92.31 148.89 95.51 147.28 98.49 147.29 99.56 144.8 99.77 142.79 98.75 137.15 173.23 35.1 198.11 1 203 3.21 210.35 6.18 225.41 11.27 229.16 12.76 245.54 23.37 248.06 24.4 283.4 36.01 287.47 37.74 305.78 53.13 308.52 55.27 311.96 56.22 332.05 55.94 341.27 55.66 345 54.81 350.71 51.86 353.55 50.99 361.67 49.89 363.54 49.95 373.51 51.49 376.97 51.02 378.59 50.3 383.47 46.75 386.34 45.07 390.68 44.47 402.05 45.71 415.64 45.56 423.35 45.18 444.92 46.22 448.21 46.8 458.24 50.16 461.1 52.06 469.25 65.26 473.63 72.01 477.15 74.77 488.31 79.04 508.5 86.43 510.88 86.81 516.52 86.38 521.28 87.6 525.91 89.43 529.15 90.35 531.14 90.2 534.59 88.79 537.16 88.6 539.41 89.89 561.53 105.9 572.34 113.84 575.09 116.25 584.92 126.08 593.32 132.07 599.54 136.73 601.93 138.28 621.46 148.82 626.24 151.54 630.79 153.46 651.34 158.57 657.19 159.74 659.02 159.71 665.49 158.4 667.5 158.49 671.49 159.79 692.14 168.35 698.7 171.58 701.9 173.75 708.29 178.69 711.93 181.01 714.62 182.09 719.89 182.23 729.26 180.95 740.3 229.86 747.59 228.66 750.03 230.34 751.31 232.29 755.29 244.1 757 246.44 761.94 249.51 765.31 252.35 769.13 256.16 773.23 257.89 776.5 260.7 777.56 264.55 779.15 267.11 782.54 270.34 785.19 273.37 787.69 275.21 793.12 318.25 788.94 318.35 785.41 316.38 781.47 317.35 778.05 319.49 774.23 323.77 771.47 322.36 769.89 323.21 768.49 326.15 768.14 328 769.57 328.56 769.99 330.43 773.52 332.78 775.43 332.95 777.87 332.38 782.1 334.48 784.07 336.4 786.13 339.59 790.69 342.33 795.11 347.27 795.35 351.03 797.36 355.54 799 357.99 797.31 359.21 791.84 359.26 790.71 358.17 786.69 356.23 783.83 353.78 782.24 353.39 778.94 354.63 775.68 357 772.95 358.23 771.72 359.56 766.18 361.8 764.97 363.04 765.19 366.6 766.76 369.02 769.92 370.84 770.44 374.16 767.7 376.57 764.72 378.07 760.58 379.03 758.13 378.28 734.65 393.82 720.63 396.83 715.85 398.78 714.55 399.82 713.47 401.97 713.35 405.07 710.94 406.95 708.43 410.58 705.77 413.66 702.21 415.11 699.14 414.44 695.22 415.67 693.87 416.64 689.97 424.91 688.76 428.38 685.64 431.56 675.24 436.53 673.13 436.89 669.87 435.73 664.22 436.32 661.28 437.7 655.81 442.31 655.23 445.22 657.68 449.48 658.08 451.54 656.61 453.54 656.31 456.06 652.85 460.12 650.5 461.79 644.04 465.31 640.66 468.7 639.92 470.49 639.84 476.36 638.62 483.23 638.69 484.69 640.09 486.98 643.3 487.4 649.52 486.26 652.25 484.19 656.16 483.39 659.39 481.71 662.28 479.17 663.34 477.2 666 474.15 668.72 472.6 673.06 471.99 674.33 472.45 675.43 474.7 676.41 479.07 676.19 483.03 674.89 488.33 676.64 494.87 677.61 497.6 676.25 500.28 675.78 503.96 673.97 506.35 671.1 506.83 669.33 506.45 665.95 504.62 663.33 501.35 661.3 500.9 658.84 502.47 653.26 503.45 649.74 503 648.56 504.5 648.48 508.13 646.31 510.73 645.52 513.15 641.92 516.23 636.97 517.16 631.84 519.31 630.84 520.56 Z"/>
</g>
</svg>