<?xml version="1.0"?>
<svg xmlns="http://www.w3.org/2000/svg" version="1.2" baseProfile="tiny" width="800" height="537" viewBox="0 0 800 537" stroke-linecap="round" stroke-linejoin="round">
<g id="4210555">
<path d="M 448.06 92.4 453.19 85.71 457.78 80.46 470.75 70.66 475.57 68.58 480.77 66.92 486.04 66.1 493.2 66.53 503.08 70.04 505.6 70.44 509.77 69.64 512.3 68.24 525.13 57.81 532.45 52.52 534.7 50.05 538.77 48 542.14 48.23 548.1 52 549.97 54.7 551.15 58.52 552.02 66.25 550.29 71.39 546.35 75.3 539.25 78.08 532.96 79.71 521.02 78.17 512.59 77.71 507.1 78.72 502.99 81.78 499.32 86.16 499.13 88.26 505.63 95.36 511.35 102.2 514.39 106.4 517.59 108.41 524.57 113.93 528.27 116.41 532.98 121.63 535.36 126.54 536.27 130.42 535.92 137.85 537.37 145.51 540.67 155.64 542.73 158.94 548.32 169.79 547.8 177.44 549.18 180.66 551.98 184.16 554.96 189.26 563.6 195.15 569.42 195.49 574.16 193.68 577.73 193.72 579.35 194.62 590.44 203.64 594.85 208.59 597.29 215.51 602.44 220.53 609.84 225.16 624.95 233.05 631.86 234.82 637.55 234 641.35 230.36 644.71 225.64 645.92 220.95 645.49 215.56 645.84 209.24 647.23 206.3 648.82 205.36 652.74 205.09 662.24 207.64 670.12 212.45 674.65 214.85 682.34 216.81 688.47 217.06 698.32 214.32 700.89 212.45 709.66 198.16 712.36 194.55 718.47 189.64 722.69 188.01 727.58 188.01 730.17 189.1 736.07 189.94 739.49 191.65 746.88 197.3 755.21 200.86 758.41 201.58 767.52 202.22 774.48 201.71 786.67 203.07 791.03 202.77 797.82 204.85 799 206.94 796.98 212.88 793.78 215.68 791.33 219.33 789.56 225 789.76 228.37 792.16 231.69 791.3 233.96 781.6 236.2 776.51 236.97 773.43 238.05 768.61 237.69 767.27 238.4 767.14 241.68 764.94 244.9 763.02 250.94 763.99 252.76 764.71 258.31 764.16 263.02 759.31 270.12 754.09 274.24 753.32 276.17 754.47 280.37 753.94 281.8 757.49 290.3 759.83 296.98 761.05 316.77 762.01 322.2 762.59 329.93 761.87 338.36 757.73 349.03 758.72 352.69 764.52 357.89 765.13 361.81 764.46 365.17 758.73 373.69 758.04 377.53 758.66 382.07 760.66 384.85 764.42 387.94 769.61 393.08 774.58 399.47 776.9 406.91 773.74 415.02 774.88 417.86 779.58 420.03 782.04 422.14 782.1 425.03 775.75 436.08 773.49 438.49 769.43 441.01 759.14 444.32 753.85 445.36 745.1 444.15 740.22 442.57 735.9 441.82 732.46 438.28 728.23 436.15 721.72 436.57 713.25 438.73 706.58 441.88 702.07 438.94 698.36 426.09 689.04 408.38 688.35 405.68 692.62 400.36 691.8 398.4 688.32 396.5 685.84 393.28 682.54 393.39 679.63 394.53 677.04 396.92 676.39 401.24 674.89 405.44 674.9 412.33 676.1 414.81 676.33 418.21 674.71 423.16 675.06 425.75 671.57 426.4 666.67 430.15 664.31 433.97 659.41 434.08 650.37 429.79 638.28 423.31 634.57 423.13 631.38 423.75 628.17 423.18 623.75 424.71 622.4 424.43 617.83 421.3 614.41 420.95 609.8 419.5 602.95 415.41 601.14 418.23 596.81 418.08 593.39 418.64 589.33 415.17 587.02 415.47 585.94 419.24 583.87 421.88 579.67 420.69 577.08 421.96 576.98 423.49 574.47 427.1 572.67 427.6 565.67 425.81 564.83 428.36 557.58 431.71 552.86 435.53 545.16 436.02 546.82 447.13 546.22 449.3 542.06 453.7 539.73 453.03 534.87 453.32 531.26 454.81 529.19 456.79 525.36 462.64 525.74 468.25 526.97 471.27 526.17 474.37 523.36 475.8 521.08 480.94 521.22 484.45 525.42 486.63 525.75 488.47 522.28 491.93 521.74 493.42 521.38 501.86 523 507.21 526.65 508.38 528.38 510.23 526.26 513.22 531.92 515.02 532.77 516.93 522.12 516.03 516.87 514.1 513.38 513.38 506.94 513.05 494.38 514.82 491.16 517.65 488.76 520.79 481.93 525.7 479.24 528.63 475.8 530.87 464.84 532.89 458.6 536 289.87 482.72 93.76 316.85 88.27 322.42 1 244.82 2.69 239.07 6.03 232.11 8.79 228.93 11.47 227.72 16.34 226.64 26.32 227.12 31.9 228.12 42.63 229.19 55.5 230.94 63.13 231.19 75.38 230.92 100.03 229.41 107.45 229.49 112.52 229.97 117.69 231.84 122.03 235.15 126.13 239.72 131.97 247.18 135.6 251.21 138.78 253.71 147.55 259.55 149.99 260.42 153.28 260.42 157.64 259.06 168.81 251.81 177.49 244.13 181.38 239.63 189.91 231.17 192.74 229.38 198.25 227.27 209.25 225.13 217.8 222.91 228.38 218.99 232.77 215.98 235.61 211.47 238.49 204.04 241.59 194.52 244.09 184.76 245.35 181.25 248.61 174.48 251.38 166.98 251.63 162.71 250.54 159.19 248.7 156 244.38 152.08 240.76 149.6 235.73 147.28 211.12 138.53 201.74 135.7 191.2 131.22 186 127.93 179.93 122.91 157.29 103.14 153.75 100.97 141.15 96.84 136.52 94.6 119.69 88.77 109.56 84.91 103.65 83 98.93 80.97 95.68 78.43 93.66 75.79 92.52 72.87 91.84 63.52 92.2 57.76 91.88 51.39 93.36 48.1 96.68 46.01 103.21 43.89 113.64 43.86 120.21 44.29 133.68 46.53 151.43 51.76 162.19 55.44 172.98 57.27 184.86 58.32 190.67 57.43 195.79 55.56 202.8 52.43 207.83 49.27 218.3 43.26 231.45 33.95 254.58 18.68 274.73 9.37 286.94 2.24 290.53 1.33 299.46 1 308.73 1.51 315.16 3.01 318.32 4.54 321.5 6.98 323.11 11.39 321.93 16.56 317.42 27.44 312.22 36.97 311.41 45.63 312.08 49.68 313.54 53.28 316.4 58 330.49 75.66 340.15 84 345.66 89.96 358.1 106.11 362.43 110.98 375.71 121.15 389.56 129.47 396.07 132.35 399.57 132.98 405.56 132.83 413 131.63 419.58 129.89 432.39 122.77 442.31 118.31 445.22 115.4 451.16 105.88 451.77 101.82 451 97.3 448.06 92.4 Z"/>
</g>
</svg>