<?xml version="1.0"?>
<svg xmlns="http://www.w3.org/2000/svg" version="1.2" baseProfile="tiny" width="800" height="782" viewBox="0 0 800 782" stroke-linecap="round" stroke-linejoin="round">
<g id="4210605">
<path d="M 772.26 143.99 773.68 153.23 774.71 158.61 776.92 164.54 777.25 168.51 778.01 171.78 779.92 173.37 781.19 175.6 781.35 177.35 780.35 182.06 781.69 189.15 781.07 191.1 777.99 195.73 776.45 196.96 774.27 200.66 772.54 202 769.97 202.92 766.89 204.67 764.83 207.14 765.86 211.35 765.76 212.99 768.02 215.46 774.69 219.55 776.55 221.63 777.37 224.2 777.88 227.69 777.87 230.78 781.56 231.26 782.15 231.96 784.02 237.79 786.39 240.13 791.88 242.34 795.53 242.54 796.84 244.31 796.87 246.4 798.61 249.56 799 251.59 797.64 252.69 797.43 253.92 794.14 255.88 791.58 256.6 788.98 255.98 786.54 256.06 786.67 258.47 787.77 259.4 786.23 260.76 786.13 262.69 786.85 267.77 786.75 275.12 787.26 277.79 786.18 279.08 786.23 281.39 784.15 284.81 784.05 287.25 785 291.13 783.84 292.75 783.97 294.13 785.33 295.73 785.49 297.47 785.05 301.17 785.49 305.41 786.05 306.62 785.95 310.32 789.52 314.02 789.57 318.8 792.79 320.07 794.18 322.21 794.37 323.99 793.71 326.12 795.5 327.2 795.68 330.53 794.77 331.73 794.93 335.76 795.65 336.77 793.73 340.52 792.96 345 791.89 347.92 791.87 352.77 790.99 356.58 790.02 357.92 789.29 360.22 787.4 361.01 786.23 362.15 783.49 362.32 780.55 362.91 775.22 363.52 768.77 364.93 767.35 368.87 765.61 370.01 759.71 370.72 758.07 371.65 755.62 371.33 753.08 371.58 750.09 370.54 746.8 370.41 744.9 369.58 741.67 370.22 741.49 372.37 741.86 375.75 740.66 381.19 739.21 384.73 737.74 386 730.45 385.38 729.54 383.02 728.19 382.65 724.62 383.49 722.29 382.94 718.89 383.51 715.5 384.47 712.38 384.29 710.86 386.6 709.33 389.98 709.26 392.02 704.89 397.22 706.18 402.38 707.3 405.04 704.67 405.86 702.23 407.75 699.56 413.51 699.39 419.86 699.09 423.83 697.72 427.12 697.85 430.74 696.03 433.77 694.72 434.39 690.58 433.73 687.06 432.45 683.89 432.32 683.22 431.9 673.4 431.86 670.69 432.78 666.3 432.63 662.42 434.39 660.25 434.98 655.61 435.12 654.43 434.01 654.26 431.69 652.61 423.89 652.5 421.42 651.45 417.92 650.03 411.3 650.72 408.94 650.6 407.56 648.49 404.45 646.73 403.82 644.53 404.67 639.57 405.94 636.5 406.19 631.94 408.39 630.15 410.15 629.6 411.86 625.32 414.99 621.38 415.16 620.66 414.5 619.71 409.78 617.77 407.93 616.21 401.71 612.25 399.17 609.79 396.37 606.84 394.36 605.75 392.77 603.75 393.45 601.78 394.71 598.97 393.93 597.04 393.99 595.18 395.49 591.87 399.32 591.99 402.34 591.27 403.54 589.36 404.43 588.49 408.06 586.68 411.56 585.66 414.33 585.61 418.66 585.21 420.43 583.37 423.94 583.72 425.11 585.92 426.75 586.63 428.26 586.39 431.28 586.56 434.92 589.48 440.12 587.55 445.1 585.4 447.02 581.52 448.45 579.99 449.57 578.19 453.74 578.84 457.75 578.47 463.01 574.48 467.14 571.65 470.9 570.46 471.96 567.52 472.86 563.3 472.61 561.35 474.69 560.93 479.23 559.05 480.69 556.39 480.9 552.14 482.54 550.11 486.38 548.29 489.25 548.47 493.18 547.59 495.96 547.7 499.17 546.81 501.9 543.76 506.06 542.28 510.34 539.73 511.13 536.25 513.56 536 514.75 536.46 521.4 539.22 523.49 538.17 525.37 537.34 530.08 537.64 533.13 538.69 536.85 539.04 539.93 538.41 541.89 536.09 543.93 530.59 546.34 526.49 546.63 523.8 548.26 521.81 550.57 516.69 557.38 513.6 559.75 510.84 562.7 509.73 563.45 506.64 563.75 506.35 565.98 503.19 568.41 501.72 570.7 501.08 573.6 502.37 577.51 483.11 597.3 479.69 598.26 473.44 603.01 469.25 607.22 467.2 609.72 465.23 613.22 462.62 616.62 461.75 617.15 458.36 617.78 453.53 619.12 450.87 621.05 449.44 624.45 447.78 627.55 445.57 630.02 444.32 633.86 444.05 635.94 442.48 636.09 437.76 638.43 428.78 639.94 426.1 640.66 423.37 642.56 423.39 643.46 425.55 646.42 425.88 649.36 425.24 653.91 420.65 658.21 418.56 661.43 414.1 665.26 411.69 666.57 410.5 667.87 408.62 671.39 407.15 672.4 402.89 672.8 400.42 672.3 396.05 672.23 394.33 672.65 391.04 672.65 384.91 674.09 383.03 674.01 379.51 672.53 378.41 674.12 377.75 677.91 374.82 682.6 371.37 690.28 369.2 692.65 365.27 697.85 364.72 700.9 362.19 704.23 351.16 706.42 345.57 704.59 342.34 704.06 338.24 702.97 335.54 702.55 333.97 701.78 329.66 700.87 323.9 699.31 321.06 696.5 319.93 696.45 316.72 698.51 314.68 698.87 311.59 698.46 308.17 699.68 307.57 702.14 305.96 705.76 305.41 709.05 304.1 713.29 303.72 719.14 304.54 721.84 304.09 723.83 304.73 724.94 302.88 727.21 301.33 730.55 301.09 733.16 301.57 737.07 303.86 740.24 305.24 747.66 304.98 750.84 303.27 753.64 302.18 753.29 298.94 754.26 289.59 754.78 283.6 758.54 279.75 758.95 276.39 758.11 272.11 759.63 267.87 760.8 263.7 763.8 261.27 764.89 256.95 763.49 254.34 764.59 251.91 766.59 249.25 771.27 245.5 774.54 243.26 776.9 242.23 779.18 240.16 780.4 237.86 781 235.73 780.16 232.36 775.38 231.35 772.36 229.31 769.32 228.36 766.27 226.33 763.82 222.08 762.52 219.9 761.14 219.19 759.71 218.45 749.97 218.99 746.23 217.13 745.25 217.52 743.44 217.66 739.49 215.85 736.14 214.46 735.26 214.25 732.87 214.73 730 215.58 727.6 210.65 722.07 207.89 719.76 206.22 717.35 204.9 713.19 203.81 711.77 203.97 709.16 205.35 704.63 204.51 703.72 202.53 703.87 200.73 702.77 199.55 699.42 195.91 690.97 195.93 688.7 197.82 686.6 199 684.62 200.94 682.55 207 680.05 209.16 679.34 212.65 676.94 213.2 674.62 217.5 671.86 219.3 670.19 225.49 667.74 225.4 663.21 226.16 659.11 226.78 657.53 225.21 652.85 226.1 647.55 224.13 645.14 220.28 642.14 216.44 638.57 211.75 636.2 210.53 634.71 210.04 632.29 210.26 630.82 209.44 626.32 206.94 621.77 201.02 619.96 200.29 618.64 201.41 613.29 200.15 611.27 200.11 608.77 197.68 605.37 197.94 603.6 201.45 600.91 203.1 598.65 203.22 597.29 201.79 595.72 198.74 594.37 197.83 592.78 198.56 589.15 199.9 586.05 202.5 581.91 203.81 581.41 205.65 579.28 206.03 576.47 207.55 575.44 211.15 574.42 213.8 573.2 214.57 571.37 217.82 568.02 221.39 566.24 226.39 565.08 228.52 564.23 230.91 561.5 232.57 560.34 235.73 559.83 238.44 560.29 239.63 559.89 241.53 557.43 242.36 554.23 243.45 553.67 248.17 549.18 248.85 546.2 248.87 542.58 249.53 541.19 251.53 539.43 252.86 536.24 254.96 534.62 260.11 532.06 263.14 529.46 264.04 527.41 264.71 523.79 266.35 522.12 268.17 518.35 271.4 516.43 275.91 515.9 282.62 516.56 284.48 517.14 286.24 519.07 287.48 518.9 287.49 516.52 289.01 514.17 292.5 514.43 250.63 444.45 246.64 445.66 244.14 443.39 241.85 443.79 241.54 445.53 240.19 445.64 238 444.49 237.36 442.78 234.95 443.78 234.34 445.48 232.49 445.66 232.61 444.15 234.38 443.45 236.29 438.83 235.28 437.87 234 435.47 230 434.64 229.85 433.58 226.77 433.68 220.84 429.97 220.59 428.66 219.31 427.42 215.89 427.33 215.71 426.21 216.96 425.16 216 422.48 214.53 420.37 213.19 419.6 211.89 417.97 210.32 417.33 209.66 416.22 208.18 416.54 207.09 415.48 205.38 416.31 204.3 415.94 204.5 414.13 205.73 413.46 207.61 414.48 206.88 410.39 205.67 410.12 203.49 411.03 200.89 411.44 198.24 411.25 196.68 413.75 193.08 415.49 192.37 417.53 190.11 418.23 187.96 418.36 184.96 417.52 182.93 419.6 183.17 422.42 181.74 426.68 179.29 427.04 176.89 430.28 174.61 429.79 173.78 428.28 171.3 426.07 171.15 424.7 169.47 423.28 168.59 421.07 167.11 420.36 164.01 422.9 162.44 419.88 160.78 420.23 158.6 419.99 154.89 420.83 152.47 422.76 148.49 422.99 145.07 420.82 144.61 419.98 142.54 420.86 140.23 420.39 137.81 418.22 138.13 414.16 139.49 413.08 137.07 411.6 137.4 410.39 135.92 409.95 136.13 407.58 135.32 405.57 136.35 404.85 136.08 403.17 131.59 404.13 130.45 404.84 128.54 404.83 127.02 406.32 124.77 406.21 123.3 407.51 123.76 409.63 122.86 412.27 123 414.96 125.57 415.46 126.46 417.43 125.98 420.96 124.94 421.52 119.34 422.29 117.6 422.91 113.14 423.15 110.66 422.83 107.88 421.44 106.62 419.88 105.27 420.03 104.29 422.75 102.59 422.28 96.44 423.74 94.47 423.62 92.73 424.2 90.1 423.56 88.77 424.48 85.85 424.86 83.61 424.7 83.17 425.35 79.18 425.21 77.97 425.7 76.66 428.18 74.65 428.98 73.42 430.87 70.58 431.46 69.07 433.26 66.08 432.18 61.74 431.98 58.09 432.85 52.13 427.88 50.6 427.36 48.03 427.51 45.31 428.73 44.6 431.13 42.32 434.52 38.9 438.52 35.43 439.36 34.39 438.42 33.92 436.17 31.92 435.14 29.83 434.79 26.4 434.8 25.04 436.44 21.64 435.74 22.46 431.4 22.28 429.77 24.09 427.52 23.17 425.31 23.04 420.11 23.79 418.16 21.44 417.44 19.94 417.51 15.46 421.4 13.29 422.41 10.8 424.49 8.44 424.99 4.93 424.63 3.75 423.32 3.14 417.39 4.2 416.53 4.57 412.07 4.22 411.11 5.19 408.49 6.47 406.65 7.09 401.74 7.56 400.98 6.89 398.43 7.24 396.63 9.31 393.73 13.12 392.05 10.55 391.38 8.44 389.76 5.42 388.91 4.56 387.01 2.21 386.03 2.11 383.64 1 382.16 2.97 379.3 4.24 375.63 3.06 372.91 3.72 370.89 6.05 369.44 9.51 368.88 10.97 367.84 11.96 365.24 12.05 363.05 11.32 359.3 13.54 350.98 10.74 347.22 7.63 340.51 4.63 337.52 3.11 336.53 1.08 333.33 1.15 330.84 3.7 328.37 4.9 324.92 5.74 319.6 5.13 314.59 3.91 311.41 1.52 307.44 1.73 298.31 1.46 297.36 4.46 295.56 8.9 293.51 12.03 291.17 13.29 289.13 13.54 287.57 12.94 286.41 13.25 283.41 11.52 279.86 11.85 277.48 14.83 273 16.47 269.96 17.36 267.62 17.26 264.29 19.12 260.99 20.48 259.23 22.28 258.58 25.52 258.31 26.1 257.79 25.89 254.81 24.55 252.26 25.18 249.23 23.61 246.49 21.31 243.46 22.01 239.3 22.08 237.18 20.49 231.61 20.81 229.99 24.33 227.14 25.03 224.33 24.64 219.85 25.05 212.23 24.05 209.62 23.24 208.71 20.79 207.79 20.04 206.5 20.79 203.58 23.56 200.71 28.16 198.02 31.92 196.07 35.3 195.88 36.85 195.31 35.9 191.11 37.01 189.32 39.21 187.1 41.01 184.43 41.41 182.16 42.39 180.92 45.06 179.1 47.53 174.15 49.77 171.94 54.91 170.38 56.36 170.54 63.06 172.27 65.34 173.39 66.87 173.02 68.43 171.18 72.98 168.04 73.98 166.52 73.84 165.51 72.04 161.02 71 157.1 69.34 155.06 67.51 148.88 65.36 146.54 65.23 144.52 69.28 141.42 71.26 139.46 72.96 136.99 75.32 134.36 77.17 131.23 77.49 129.55 75.55 125.61 73 121.14 70.44 119.54 69.99 118.53 72.04 114.66 72.2 111.85 74.36 109.21 76.17 107.98 76.83 105.69 76.46 104.11 74.94 101.34 75.08 99.5 82.31 99.13 84.93 99.36 86.53 100 90.6 100.71 96.61 100.14 102.42 100.9 103.73 100.62 106.37 96.54 110.08 89.87 111.14 88.47 113.6 88.57 115.07 89.47 118.45 89.45 121.22 88.49 123.03 88.35 126.4 88.92 130.25 88.31 132.17 88.49 135.06 89.43 137.05 89.56 141.29 88.15 146.26 82.4 148.78 81.52 153.11 83.33 155.91 84.06 158.35 86.18 159.46 86.64 161.95 86.47 164.16 84.15 165.62 80.44 165.54 79.03 166.68 72.35 166.79 69.08 168.75 66.34 169.29 64.39 168.51 58.71 166.77 55.76 163.92 53.22 163.27 51.21 163.86 47.46 163.52 45.57 164.44 43.97 168.47 42.22 170.71 41.94 172.01 39.89 171.86 35.74 170.38 31.38 170.88 29.77 170.43 26.4 171.15 24.5 173.24 22.49 173.3 18.43 174.06 16.42 178.12 12.82 179.45 10.08 180.41 9.14 181.07 5.33 182.67 3.95 185.13 2.56 186.87 2.27 189.23 3.04 192.28 1.2 193.63 1 193.54 3.81 192.95 8.04 192.13 16.29 191.38 20.07 194.09 25.67 194.63 30.53 193.33 33.82 195.24 36.66 196.08 39.91 201.96 42.38 205.12 45.54 206.11 48.3 208.94 50.4 209.59 52.95 210.73 54.4 211.01 60.36 212.61 63.19 216.42 62.41 219.53 63.34 225.63 61.88 226.65 61.22 228.43 61.9 230.76 61.16 235.72 62.24 236.91 62.2 240.91 60.76 242.83 60.94 244.28 62.1 246.63 62.2 251.62 59.97 258.5 61.11 261 59.54 261.99 59.45 265.47 61.54 267.96 61.3 270.34 60.59 273.49 58.83 275.92 54.86 276.51 54.4 282 53.64 286.52 53.63 289.85 56.42 290.31 57.38 287.31 58.17 287.39 60.48 285.79 62.6 286.07 65.84 287.7 67.76 287.25 69.98 287.59 71.19 287.2 74.03 285.46 77.84 285.48 80.79 285.9 82.73 289.17 83.43 288.99 85.37 289.61 86.06 291.21 90.67 292.78 92.1 294.4 92.48 297.12 94.07 297.92 95.59 297.17 99.46 297.2 101.61 296.08 107.33 296.49 111.34 296.34 115.82 301.29 121.51 302.55 123.94 304.69 132.21 304.97 144.77 305.57 150.81 305.5 152.46 306.26 160.25 308.22 166.07 309.95 168.86 310.88 172.19 310.95 173.79 312.5 175.08 316.39 174.72 324.18 170.63 326.44 169.65 328.36 167.72 330.77 166.96 336.06 165.9 339.96 165.72 346.2 166.86 349.16 167.78 354.17 168.48 361.17 170.17 371.34 171.6 375 172.55 383.98 174.38 390.14 175.49 402.89 178.05 407.01 178.62 410.05 178.15 413.86 176.95 418.13 174.12 419.51 172.68 426.6 168.29 431.45 164.8 449.76 152.1 452.54 149.93 458.81 145.61 460.85 144.5 468.01 139.21 474.22 135.12 476.42 133.41 483.66 128.36 486.63 126.44 489.6 124.92 492.86 123.76 504.23 120.52 504.49 115 506.25 113.63 507.75 108.91 510.57 107.14 511.78 105.27 512.68 102.48 511.66 97.9 512.25 96.69 517.65 96.22 520.03 95.53 521.26 92.46 522.41 90.65 527.55 89.06 528.83 88.01 537.93 87.75 541.22 86.73 542.79 87.32 544.41 89.66 547.16 88.3 549.81 87.47 555.83 87.43 557.36 86.24 562.3 83.62 560.31 83.11 559.07 82.17 562.19 80.16 562.69 76.89 563.87 75.3 566.26 74.67 570.45 74.67 578.07 76.56 579.87 78.69 582.54 78.64 582.75 79.42 580.86 80.45 580.51 81.9 581.22 82.74 582.85 82.54 585.24 80.48 587.52 81.53 588.96 81.41 590.47 82.41 592.21 82.1 591.73 79.3 595.96 78.99 596.54 76.2 597.93 76.72 598.66 78.77 599.72 78.68 601.31 76.29 604.83 76.88 602.93 78.93 604.49 80.79 608.42 79.25 611.39 80.74 613.12 79.68 614.38 80.11 616.66 79.83 618.3 83.29 620.8 85.82 623.75 86.94 626.89 87.46 629.95 86.04 632.41 85.69 634.77 81.74 638.33 80.92 649.65 81.3 653.33 81.96 654.45 82.87 655.68 85.04 656.27 87.56 656.14 89.06 657.04 91.18 655.2 93.89 655.58 95.11 657.29 96.02 660.77 95.28 662.1 96 663.39 95.41 665.45 97.2 665.49 98.09 663.09 99.06 664.58 101.14 663.65 101.82 661.86 100.09 660.58 101.2 662.44 102.18 662.97 103.81 662.26 105.29 662.47 106.92 664.27 107.33 664.73 105.54 665.78 105.33 667.12 106.44 668.38 108.4 670.58 109.45 670.18 111.14 670.83 111.86 674.47 112.27 673.89 110.37 676.24 110.96 675.37 114.54 678.42 115.79 679.32 117.21 684.3 118.69 686.09 118.65 688.38 121.84 690.58 120.38 693.26 121.32 698.96 121.02 699.34 118.28 702.07 116.98 703.84 115.57 704.44 114.35 706.45 113.62 706.73 132.23 716.9 132.01 717.04 147.21 772.26 143.99 Z"/>
</g>
</svg>