<?xml version="1.0"?>
<svg xmlns="http://www.w3.org/2000/svg" version="1.2" baseProfile="tiny" width="800" height="527" viewBox="0 0 800 527" stroke-linecap="round" stroke-linejoin="round">
<g id="4210704">
<path d="M 691.83 256.56 689.19 257.83 685.11 258.49 675.35 262.6 671.03 264.04 669.69 264.84 669.04 266.29 668.84 268.5 667.59 269.2 663.6 270.2 662.45 270.01 660.46 268.94 659.47 270.25 657.65 270.72 653.76 274.57 652.39 276.2 650.07 277.6 648.5 277.67 647.3 279.37 646.06 280.09 644.82 280.07 642.13 280.88 640.62 280.86 637.29 282.09 633.2 284.51 630.84 285.36 629.07 284.72 628.14 284.97 626.41 286.89 624.43 287.11 623.42 287.66 619.77 292.09 619.06 293.37 619.23 294.87 618.98 297.12 618.33 298.22 615.49 298.66 610.13 301.8 609.62 302.29 607.33 303.05 605.25 304.43 602.51 303.92 601.01 303.16 600.39 301.75 595.33 298.87 593.06 299.23 592.35 298.9 591.4 296.72 590.24 295.38 590.09 294.13 590.74 292.77 592.73 291.44 593.56 290.17 593.51 289.32 534.79 306.14 511.8 345.18 482.45 366.03 484.29 366.98 488.45 368.39 491.14 369.08 492.07 369.84 492.11 370.77 490.23 373.8 489.66 376.67 488.88 377.66 486.78 379.25 485.4 379.87 480.13 380.92 477.12 381.28 475.22 382.38 474.66 384.21 474.69 388.05 473.14 391.27 471.95 393.2 471.43 396.33 470.28 398.78 467.96 401.85 465.46 407.85 464.11 410.32 464.78 412.27 466.18 413.63 467.23 415.71 467.31 419.35 467.84 422.55 467.34 423.95 465.62 426.38 464.54 427.19 460.45 428.73 458.66 429.04 457.42 428.65 454.67 425.65 453.21 423.2 452.01 419.88 450.02 418.56 447.04 418.04 441.39 414.57 439.21 413.99 435.73 414.64 434.25 414.29 432.89 413.11 430.22 411.35 429.09 410.27 427.07 409.37 424.55 408.86 423.24 409.54 421.35 411.08 419.78 410.87 417.71 411.16 416.65 410.31 415.13 408.18 388.36 431.12 394.48 480.72 391.68 480.57 388.74 479.62 386.84 479.51 385.04 480.48 382.26 481.33 381.52 481.98 381.01 483.77 381.21 485.01 385.74 490.87 386.13 492.2 384.66 495.57 383.59 496.92 382.7 500.49 382.64 503.67 382.16 505.02 380.63 505.92 379.56 508.44 377.91 510.22 378.1 511.49 377.45 512.82 374.88 513.46 373.4 513.16 371.9 513.45 368.67 515.05 366.62 516.97 362.53 518.67 358.76 517.81 355.47 517.39 351.14 517.54 349.28 517.79 348.38 517.52 347.37 516.02 346.98 513.84 345.81 512.44 345.14 510.97 343.6 509.87 340.46 510.28 338.04 511.92 336.44 512.22 331.31 511.92 328.23 512 326.62 513.21 325.06 513.55 318.84 512.45 317.43 511.29 314.71 510.28 313.52 509.19 311.6 509.31 309.54 510.56 308.07 512.48 306.3 512.94 302.76 512.73 301.07 511.56 299.43 509.46 297.83 506.48 297.17 503.8 296.44 502.29 294.38 499.52 293.03 496.35 292.17 495.05 289.33 492.28 287.08 491.18 279.82 490.69 278.19 492.97 277.51 495.04 276.81 495.96 275.25 496.83 274.5 498.21 274.54 503.73 273.47 505.24 271.23 507.72 269.6 509.1 269.03 510.89 268.15 512.01 267.56 513.76 262.3 516.97 260.81 518.32 259.47 519 257.29 518.31 255.86 519.9 254.39 524.47 253.73 524.84 249.72 525.59 244.9 526 240.68 525.61 239.31 525.04 237.77 521.53 237.52 520.03 238.01 517.41 237.71 513.75 238.13 511.69 237.42 508.54 237.65 507.11 236.82 506.17 233.75 505.57 231.8 504.07 229.69 503.44 227.81 503.52 226.86 503.99 223.12 504.37 221.8 504.28 220.26 503.61 217.01 503.17 213.96 503.15 187.1 493.9 187.38 492.89 185.48 492.05 184.28 490.81 180.87 488.98 180.15 487.82 179.62 485.38 179.34 480.69 176.58 474.45 176.6 473.36 177.44 471.42 180.74 468.83 182.82 465.92 185.69 462.61 186.7 461.89 187.21 459.39 187.05 458.52 184.78 457.31 182.55 453.92 180.46 452.58 180.65 450.8 181.72 450.27 184.47 450.03 185.78 449.57 189.61 447.14 191.74 443.01 192.92 442.55 195.92 442.74 198.77 442.5 201.57 441.45 204.26 439.62 204.65 437.36 203.74 435.32 202.96 431.46 202.3 430.62 198.49 429.9 196.3 429.95 193.31 430.47 187.04 430.47 184.49 430.22 181.39 428.97 179.84 427.85 176.87 424.75 173.83 423.45 173.37 422.44 172.9 419.61 171.21 416.94 170.69 414.74 171.37 411.63 171.33 410.27 170.66 405.96 170.76 403.59 171.19 402.32 172.87 400.93 178.52 398.79 180.14 397.95 181.81 395.9 182.51 391.33 184.73 390.97 186.13 391.17 186.65 390.5 184.38 388.18 179.7 386.68 174.66 386.7 170.48 387.19 166.56 387.19 164.66 386.73 163.66 385.33 163.59 383.45 162.98 382.61 160.21 381.06 157.18 378.17 156.61 377.27 154.85 376.38 153.22 376.68 145.35 379.21 144.25 379.3 141.78 378.36 140.73 377.6 140.06 375.94 140.26 375.14 145.17 373.1 147.52 370.78 148.8 368.25 147.87 366.56 144.55 364.14 141.15 362.71 138.72 362.57 136.55 362.77 131.06 362.52 128.02 361.62 127.59 359.95 128.37 357.77 128.44 352.91 129.42 349.06 128.85 346.04 128.43 341.78 128.45 335.07 127.06 332.75 124.13 330.62 123.14 329.33 122.41 327.29 122.25 325.67 121.03 319.11 120.24 317.6 118.66 316.66 116.76 316.51 112.82 316.84 104.78 316.71 103.92 316.24 101.74 312.25 97.11 309.37 95.43 307.53 95.27 306.76 95.72 304.02 95.1 301.64 93.2 300.62 89.95 301.92 86.9 302.74 84.72 302.75 83.38 302.02 82.95 300.35 85.77 297.15 88.23 294.04 92.87 291.77 93.77 290.1 93.4 289.04 91.08 287.94 88.23 287.64 85 287.56 80.93 287.06 76.83 287.17 74.13 286.53 72.67 285.88 71.17 284.06 70.62 282.44 70.23 278.89 71.55 276.93 72.58 276.18 78.46 273.83 80.02 272.73 79.69 271.67 77.45 269.89 73.4 268.61 70.16 267.95 66.54 267.73 65.68 267.34 65.22 263.21 65.71 261.56 67.75 260.6 69.6 259.34 74.13 258.33 75.01 257.55 76.57 252.95 77.42 248.53 79.01 246.85 81.61 245.74 85.71 246.98 90.47 248.8 93.09 249.31 95.02 249.17 97.29 248.14 97.55 247.13 96.64 245.2 94.36 242.67 91.43 240.43 87.18 236.04 84.39 232.42 83.75 230.41 83.76 228.69 84.43 226.81 85.1 226.49 88.51 226.19 91.97 225.24 94.37 224.88 100.1 223.22 101.9 222.2 104.44 220.24 106.25 217.61 107.17 214.92 108.16 213.14 110.42 212.88 114.73 213.96 116 213.69 118.3 212.45 120.05 209.62 120.57 207.95 119.93 206.23 118.05 205.07 117.07 204.94 113.67 205.26 108.63 205.22 105.66 205 102.66 205.1 100.13 204.11 98.88 202.8 98.5 200.23 98.98 198.24 100.69 197.32 103.94 196.29 105.15 195.64 107.3 193.9 109.38 191.12 112.65 185.13 113.48 182.82 113.14 181.28 111.18 180.53 108.42 180 105.91 178.74 103.24 177.89 101.84 177.87 97.82 178.35 90.37 178.12 88.94 177.92 85.38 177.97 81.37 177.34 80.66 176.49 77.99 170.65 75.05 168.19 71.45 166.84 69.23 167.44 67.74 168.83 66.07 171.65 63.9 173.84 61.8 174.74 58.8 174.15 55.91 172.68 53.81 169.84 51.33 164.39 51.01 161.71 53.09 159.1 56.79 155.82 59.44 153.17 61.57 149.73 63.91 146.53 64.46 145.26 64.88 142.5 64.39 140.51 62.44 137.74 59.72 136.04 58.8 135.73 51.17 134.81 49.03 134.11 46.79 131.68 46.14 128.88 44.73 126.74 42.55 125.91 40.97 127.3 39.49 127.65 37.35 126.35 35.21 125.76 31.41 125.6 26.7 122.06 22.61 119.65 20.46 117.91 18.86 114.98 18.96 109.28 18.76 107.08 19.7 102.9 19.63 101.05 19.17 99.67 17.72 96.87 16.74 93.64 14.1 90.26 11.18 88.19 9.7 85.63 8.93 84.94 6.95 82.28 4.02 79.06 2.44 78.33 1.13 77.07 1 75.98 3.6 75.46 5.17 74.6 6.73 74.27 9.67 74.41 12.84 74.28 17.39 72.6 22.54 71.22 27.24 70.17 31.16 67.65 33.45 65.28 33.67 63.18 32.79 61.29 28.68 55.41 26.87 51.53 24.4 47.99 22.67 45.88 21.67 43.98 21.7 40.48 24.87 37.65 25.31 36.58 27.33 33.68 29.59 31.48 33.07 29.36 35.61 28.58 37.03 28.91 38.26 30.47 43.14 34.44 45.53 35.85 50.24 39.45 52.41 40.28 53.84 40.14 59.93 37.52 60.99 36.91 62.89 34.69 63.23 32.88 62.89 30.74 61.53 28.2 59.31 25.37 56.93 21.62 55.31 19.62 54.47 17.66 54.43 16.71 55.57 12.22 55.5 10.71 55.99 8.9 57.63 7.35 59.14 6.6 62.55 6.37 64.06 5.99 69.13 3.88 72.36 2.89 80.42 1 80.03 2.81 78.62 4.11 78.53 5.02 79.5 6.62 81.66 7.29 83.08 10.15 83.69 12.73 84.58 13.54 86.29 13.92 87.57 13.72 87.87 14.58 86.74 15.95 86.23 17.79 88.68 17.02 89.69 17.28 91.47 20.58 93.33 22.09 93.95 23.3 94.33 25.51 94.33 28.11 95.63 30.86 97.51 32.47 100.24 33.86 101.37 35.09 102.6 34.8 103.91 35.26 105.51 34.83 107.2 33.29 107.89 33.3 109.83 36.46 112.94 38.31 113.82 39.47 113.7 41.87 115.98 42.6 117.76 43.8 121.03 45.07 122.24 46.02 124.97 44.78 129.8 45.59 133.47 46.64 137.93 47.36 138.18 46.01 139.73 45.41 141.16 47.59 142.57 48.5 147.43 50.06 151.78 49.8 155.46 49.42 158.14 49.42 159.83 50.27 160.7 52.45 163.04 53.06 163.86 52.86 166.06 53.67 167.86 53.83 170.58 55.12 171.13 56.54 174.78 58.78 174.83 61 176.27 62.4 178.93 62.91 180.06 63.94 185.06 65.68 186.59 67.09 187.86 70.87 191.17 72.36 194.27 73.43 194.88 74.16 196.36 77.44 197.39 78.88 200.46 80.9 201.41 82.45 201.71 84.22 202.49 84.82 206.34 85.11 208.81 86.44 210.9 85.99 214.31 87.91 215.75 88.29 216.43 89.93 218.3 90.33 220.85 89.99 222.38 91.07 224.5 93.88 224.87 95.03 226.62 95.02 228.45 99.27 229.85 99.36 231.94 97.65 232.94 97.34 236.16 98.53 236.63 101.12 236.51 102.46 235.23 105.36 235.18 107.05 237.07 110.19 237.88 110.45 238.4 111.76 237.71 112.71 237.07 114.87 235.82 116.6 234.93 118.7 233.3 120.42 230.57 124.9 231.25 127.36 232.9 128.41 232.73 130.73 233.75 132.23 234.6 135.62 235.6 136.64 236.94 136.54 238.03 138.82 239.64 139.73 240.45 140.92 242.71 142.58 243.9 142.88 245.11 143.96 246.15 145.78 249.04 146.73 250.93 148.35 253.46 149.62 254.34 150.87 257.2 151.13 259.47 155.19 262.92 157.77 266.83 156.22 342.04 104.73 341.14 102.05 340 99.58 339 98.44 338.75 97.28 338.74 94.29 339.41 90.77 341.41 87.99 342.85 88.6 344.67 87.2 347.31 87.71 347.21 85.64 349.45 81.54 349.61 78.61 350.85 77.87 351.28 78.98 353.13 78.72 356.68 76.91 358.55 77.05 359.62 75.83 362.28 75.56 363.58 74.65 364.02 73.31 365.09 72.33 366.72 71.97 370.46 71.84 372.35 72.64 375.08 73.23 379.32 72.55 381 72.63 383.2 70.64 383.89 69.44 384.83 69.04 386.17 70.1 387.38 69.3 388.07 65.41 387.81 63.71 390.59 63.02 390.58 62.02 392.21 62.2 393.74 63.24 395.59 61.84 397.01 59.85 398.86 58.6 399.03 55.82 398.72 53.61 401.68 53.32 402.22 52.94 403.35 49.59 406.07 46.2 406.27 42.82 408.05 39.41 409.73 35.57 411.73 34.27 410.66 32.93 411.69 32.02 417.74 33.89 419.68 33.68 421.47 32.97 423.29 32.69 424.55 33 427.65 34.59 430.88 34.07 433.23 32.18 433.45 30.88 432.33 27.63 430.51 25.66 430.97 23.32 432.29 21.04 435.04 18.63 438.31 16.95 438.42 16.07 437.14 14.8 438.55 13.28 441.85 12.31 444.43 13.17 445.86 13.17 447.95 11.96 449.94 12.45 452.31 13.49 453.56 13.74 455.52 16.24 456.45 16.45 457.53 15.72 459.51 15.19 460.89 14.45 463.93 13.32 468.39 14.74 470.86 14.77 472.48 16.75 472.27 19.81 472.69 20.52 474.31 20.32 477.27 18.94 478.25 15.68 479.26 13.79 480.07 13.16 482.38 15.03 483.4 15.3 485.08 16.69 490.23 18.62 492.89 18.33 497.69 18.07 500.26 18.43 502.55 16.47 503.36 15.02 502.63 13.38 538.34 29.84 539.19 29.63 543.31 30.58 544.83 30.26 547.42 30.7 548.69 29.75 551.39 29.79 552.63 30.29 552.97 31.11 552.07 33.06 553.32 33.33 554.39 31.84 555.2 31.57 556.74 31.99 558.07 31.73 558.72 32.4 556.61 34.55 556.82 35.36 558.84 36.6 560.84 36.79 563.55 37.61 565.11 38.59 566.08 38.73 568.26 35.68 567.61 34.32 568.51 28.7 570.52 26.74 572.14 25.89 574.72 23.84 578.95 20.78 580.72 20.35 582.03 20.87 583.13 22.42 582.6 27.39 584.28 28.91 588.06 29.12 588.09 30.24 586.89 31.75 586.97 33.35 588.15 32.97 588.96 34.98 590.28 34.13 593.91 33.36 595.44 33.59 595.27 32.29 597.39 31.61 597.19 28.96 597.98 27.79 600.38 27.19 601.42 24.09 603.66 23.24 604.78 23.32 606.31 22.41 607.19 23.34 609.92 23.66 610.53 23.04 614.14 21.38 614.87 21.91 616.86 22.29 621.34 25.64 623.08 26.31 623.93 27.33 624.78 29.47 626.92 29.75 627.99 30.26 629.54 32.39 632.28 35.55 634.09 37.16 635.83 39.6 636.87 39.93 638.28 42.21 640.22 42.07 642.32 44.14 644.26 45.59 646.22 45.1 647.12 46.18 649.46 47.23 651.32 47.16 654.74 47.92 655.66 47.64 659.38 44.53 661.6 41.92 663.25 42.24 663.72 43.21 668.9 44.51 673.68 44.66 677.94 45.29 679.09 44.86 682.88 45.5 685.04 45.42 687.59 46.19 691.37 45.05 693.56 45.65 697.69 45.29 698.7 44.7 705.74 42.99 707.64 43.06 711.05 43.82 712.66 43.34 716.23 42.72 717.79 42.84 719.69 41.8 721.84 42.01 723.69 41.54 724.6 43.26 730.21 45.86 732.02 47.21 734.9 47.88 749.42 45.56 799 101.59 797.14 101.82 794.63 100.98 790.93 101.57 789.2 101.1 786.31 99.9 785 97.9 784.96 96.31 782.68 96.3 779.69 98.82 776.71 99.95 774.98 101.23 774.96 102.15 772.9 102.81 770.09 102.29 765.49 101.69 763.46 100.22 762.16 99.77 760.55 100.87 760.53 102.82 762.21 105.24 762.62 106.84 762.49 108.82 763.01 110.4 764.14 112.35 765.61 113.97 770.69 116.45 771.18 116.95 770.22 118.95 768.83 120.1 766.63 121.37 766.69 123.72 769.59 127.92 770.19 129.1 770.77 131.81 769.82 133.88 767.84 134.71 766.03 136.15 764.28 136.51 761.76 137.68 760.13 138.72 759.95 140.73 755.92 140.59 750.19 143.98 747.08 146.65 742.58 148.15 741.26 149.56 738.02 150.07 735.94 149.94 731.74 150.26 725.74 147.63 724.02 147.36 722.94 147.67 719.51 150.74 717.56 151.76 716.1 153.39 715.44 156.49 715.49 158.16 717.18 161.37 718.81 162.8 719.04 164.38 717.86 166.75 714.75 169.19 709.83 171.15 705.77 171.54 700.31 173.36 697.6 174.02 696.83 174.48 696.46 176.86 697.08 178.06 698.21 178.86 699.61 182.52 700.98 184.39 702.91 186.32 703.14 187.27 704.98 188.81 706.86 189.05 709.19 187.75 711.58 184.54 713.75 183.69 719.04 183.68 719.94 184.42 722.33 188.57 722.38 189.99 721.86 190.86 719.78 191.83 718.71 192.93 717.3 195.41 717.2 196.52 718.8 199.17 719.31 202.25 718.53 205.37 719.1 207.12 720.76 210.29 721.96 213.4 722.93 216.54 723.52 219.39 723.35 223.12 724.99 226.91 725.41 230.25 726.25 231.64 726.37 232.95 725.17 235.28 722.08 235.45 718.88 234.73 717.38 234.77 711.14 233.58 709.79 234.04 703.26 234.69 701.19 236.34 699.21 240.85 697.84 245.25 695.83 245.91 692.66 245.68 689.96 246.18 689.82 246.75 691.83 249.5 692.74 251.75 692.97 254.33 691.83 256.56 Z"/>
</g>
</svg>