<?xml version="1.0"?>
<svg xmlns="http://www.w3.org/2000/svg" version="1.2" baseProfile="tiny" width="800" height="455" viewBox="0 0 800 455" stroke-linecap="round" stroke-linejoin="round">
<g id="4210035">
<path d="M 659.87 113.04 655.28 114.27 649.35 117.3 649.5 120.66 653.74 122.97 656.88 123.81 671.22 124.61 677.2 127.22 680.46 131.82 685.1 133.86 689.89 133.95 696.51 132.43 698.48 129.49 698.22 124.5 697.21 120.26 700.37 114.67 706.42 111.29 712.33 111.15 715.45 110.12 720.56 109.46 725.61 109.98 730.11 111.27 738.73 117.46 741.2 118.79 753.49 118.43 758.12 116.53 759.69 113 757.4 106.61 754.45 102.66 750.54 99.23 748.61 95.87 749.46 91.67 753 90.96 758.94 91.19 764.36 97.4 768.99 106.99 771.51 110.93 773.25 117.3 772.88 120.11 773.85 126.5 776.68 129.88 781.03 133.85 782.15 136.03 782.08 138.42 780.85 139.84 774.83 142.96 764.24 147.86 758.23 155.18 756.76 158.38 754.89 166.48 755.5 168.55 761.18 170.93 766.95 171.07 779.69 166.84 789.27 162.07 792.82 161.99 795.24 163.85 797.04 171.88 799 178.74 795.43 193.09 795.03 197.77 795.67 208.64 794.57 212.02 792.12 213.43 788.02 213.41 782.56 211.85 777.53 211.31 773.81 212.86 772.61 216.83 763.75 228.18 762.43 230.96 762.75 233.37 767.92 238.9 779.44 245.09 782.74 249.46 783.57 253.1 783.09 256.42 782.86 263.52 779.58 269.73 774.91 273.93 768.84 278.53 764.9 283.02 762.73 286.46 760.08 293.28 755.88 298.24 749.42 303.11 748.2 304.45 748.73 307.56 752.71 312.15 753.03 317.46 751.78 320.38 751.87 322.31 753.45 323.43 764.45 322.94 770.79 323.56 773.94 327.13 770.2 329.44 765.75 334.28 761.97 339.85 760.5 344.9 760.05 356.5 758.19 371.16 756.25 378.8 753.65 385.07 749.18 390.22 744.4 394.71 738.63 398.24 730.34 402.48 725.84 403.83 720.95 403.56 716.65 401.87 704.58 394.38 699.71 392.44 686.85 390.63 680.78 390.48 672.74 391.42 667.91 393.1 659.27 396.73 649.33 400.48 632.04 407.44 625.76 409.05 615.95 409.86 610.55 409.35 597.29 405.3 583.88 401.86 580.17 401.46 575.39 402.13 573.56 403.3 571.28 406.48 570.21 409.31 568.35 420.04 566.52 424.93 562.36 433.2 558.83 443.37 554.12 450.49 552.52 453.78 549.26 452.5 541.42 452.45 533.38 454 531.86 453.05 529.74 449.93 524.46 447.21 521.79 447.67 515.45 447.04 513.04 444.91 510.55 444.38 508.33 440.42 509.12 439.16 506.92 435.47 502.87 433.83 500.03 431.34 496.63 431.9 493.96 429.31 490.26 428.45 486.87 428.99 483.55 425.67 479.31 425.34 475.61 422.73 470.64 424.53 467.61 423.35 457.24 426.47 451.28 424.89 449.29 425.15 443.25 422.85 440.29 419.04 434.69 415.53 427.89 413.68 427.52 412.16 424.34 411.07 420.26 413.77 413.45 412.26 410.58 413.89 408.05 413.49 408.92 410.36 404.37 403.88 401.47 400.63 397.04 400.34 391.63 398.59 391.2 395.27 389.15 393.01 384.03 389.41 380.77 389.06 377.51 387.47 373.52 387.46 363.17 384.05 361.3 384.04 358.22 385.92 355.63 386.16 353.12 385.29 352.35 382.54 352.69 379.71 352.07 374.37 347.4 370.55 342.86 363.33 330.91 358.64 326.37 358.54 320.3 356.05 318.35 353.78 313.36 352.66 310.25 353.14 307.78 352.48 302.47 342.37 300.82 336.66 299.48 334.73 296.03 333.37 290.23 332.75 281.74 335.28 273.84 330.76 270.96 328.68 263.38 326.02 260.3 323.57 256.11 317.38 250.81 313.2 240.98 309.79 228.88 303.36 220.92 298.15 218.34 295.53 213.23 292.94 209.63 290.44 207.05 289.41 206.26 282.93 202.37 275.47 202.12 274 208.04 267.89 209.82 259.77 209.59 257.41 205.23 254.36 196.11 245.01 193.56 239.18 189.62 234.84 179.82 225.4 175.9 222.72 164.16 217.6 156.32 215.41 153.17 213.67 150.76 209.16 147.41 204.94 146.66 202.71 149.33 193.97 147.88 187.93 141.93 183.11 137.19 178.08 136.03 175.71 132.61 174.55 122.61 174.64 116.27 173.34 110.18 168.62 107.73 168.13 100.93 169.6 95.99 168.95 88.69 168.61 83.12 163.37 80.56 162.45 75.03 161.97 71.17 160.75 66.49 160.31 60.52 156.94 51.15 153.92 49.59 152.22 47.39 146.94 43.19 142.09 42.73 140.85 46.15 135.01 46.11 131.69 45.13 128.58 43.14 125.01 40.61 123 37.91 121.95 30.66 122.22 28.67 120.1 25.34 118.25 22.76 116 22.43 114.13 18.87 110.31 14.08 107.18 12.61 103.34 13.41 100.03 16.06 94.24 15.8 91.89 7.13 83.32 2.56 79.65 1.36 77.19 3.55 71.02 1 66.12 1.85 59.95 9.13 55.47 13.59 54.74 15.93 46.13 20.09 45.03 20.61 43.32 19.65 41.04 16.64 38.24 15.59 35.03 13.88 33.13 10.25 30.74 12.19 29.63 13.49 26.49 17.45 25.71 20.93 23.47 25.7 23.74 29.48 23.07 35.79 20.69 41.17 22.2 48.46 27.76 52.1 27.84 55.19 28.88 57.71 30.8 59.35 33.13 63.09 35.65 64.87 35.86 73.59 35 77.37 32.49 83.18 29.73 85.92 29.23 93.29 31.59 96.01 30.98 99.17 28.8 102.28 23.96 108.3 21.28 116.16 14.96 118.36 13.99 123.16 13.91 129.48 14.73 134.32 16.99 149.62 15.79 152.92 17.02 157.98 17.74 164.78 19.88 166.1 22.49 169.71 23.94 173.06 23.97 174.56 25.67 179.47 27.1 183.14 26.66 187.89 27.5 193.22 29.17 195.13 31.35 199.42 33.4 203.22 33.69 204.91 36.35 206.82 36.43 212.24 39.12 215.64 39.37 217.72 40.36 219.02 42.44 223.12 42.6 226.21 44.64 231.95 43.63 240.52 45.67 243.67 44.53 247.83 44.51 252.61 46.65 253.96 48.45 256.82 50.02 264.59 49.6 266.78 51.06 271.96 50.91 279.97 49.52 283.18 47.54 285.57 44.14 288 41.83 292.7 43.36 296.09 42.38 305.84 41.72 311.21 37 314.57 37.8 315.4 35.19 318.49 31.76 323.26 30.02 326.17 30.4 330.55 28.45 335.17 23.06 340.78 20.01 342.43 16.93 345.84 13.12 345.67 9.66 347.06 7.58 352.92 6.47 352.86 9.53 354.71 9.99 357.42 7.33 360.03 6.12 363.16 6.73 367.3 11.09 366.88 12.88 359.34 16.35 359.78 18.18 364.02 19.55 369.48 18.24 373 16.52 374.42 14.8 376.6 7.06 378.12 3.84 381.48 4.47 386.43 8.64 390.16 12.34 400.06 21.15 402.99 21.29 407.19 18.15 408.78 17.65 411.36 19.16 417.76 21.09 422.28 24.69 424.96 27.68 427.23 27.55 437.91 20.89 440.06 21.46 439.18 27.23 436.13 35.5 434.88 37.79 434.44 45.36 435.27 50.62 436.72 51.88 442.39 53.63 449.54 60.96 451.38 60.54 453.47 58.29 455.25 54.06 456.19 48.69 455.68 39.38 457.87 36.66 461.3 36.84 470.14 40.34 474.07 40.46 475.47 39.56 479.35 30.46 479.85 28.59 478.86 21.93 475.83 18.21 476.49 15.53 479.57 15.58 487.07 19.47 491.68 19.81 505.59 17.63 508.51 16.65 511.27 17.3 512.83 19.13 513.05 22.57 504.58 33.4 499.26 41.19 497.86 41.84 488.55 42.54 484.98 43.52 483.02 46.11 483.1 47.92 489.37 55.32 491.89 66.34 494.52 70.89 501.15 76.48 503.72 76.94 507.47 76.11 512.23 73.34 519.51 65.91 522.74 60.86 525.28 57.97 531.5 52.47 537.11 41.9 540.17 38.22 544.88 35.97 550.42 35.6 553.61 34.23 555.39 30.94 553.15 26.46 548.87 21.32 546.64 16.68 544.78 9.34 542.98 6.03 542.82 3.56 544.99 1 548.44 2.34 555.23 2.91 558.08 4.44 560.08 6.72 566.14 17.92 568.94 24.25 569.26 26.23 569.41 37.54 571.7 40.38 574.42 41.37 577.51 41.18 582.66 38.96 596.67 31.45 602.08 27.14 609.3 23.55 612.46 22.66 615.91 25.67 616.43 29.05 615.74 32.07 613.58 34.87 607.15 40.15 601.99 43.83 597.29 48.11 594.8 49.48 588.67 51.14 585.29 53.56 582.76 57.67 581.02 65.02 581.52 69.77 582.89 71.03 586.11 71.53 588.74 70.84 591.48 68.27 594.93 66.24 597.42 65.83 606.92 62 611.44 60.59 619.64 61.16 622.89 62.06 624.05 64.2 624.69 70.97 627.06 76.21 630.84 80.71 632.78 85.24 635.05 88.11 645.54 98.46 650.93 103.03 656.31 106.23 660.23 110.72 659.87 113.04 Z"/>
</g>
</svg>