<?xml version="1.0"?>
<svg xmlns="http://www.w3.org/2000/svg" version="1.2" baseProfile="tiny" width="800" height="799" viewBox="0 0 800 799" stroke-linecap="round" stroke-linejoin="round">
<g id="4210803">
<path d="M 397.26 133.7 397.64 256.42 503 262.57 504.64 264.64 507.81 266.73 510.65 267.6 516.74 271.94 519.56 277.11 522.38 281.07 529.17 284.98 530.01 286.18 529.4 290.14 531.74 293.26 538.71 298.44 543.99 299.51 551.43 299.15 554.75 299.67 557.9 301.14 562.13 305.15 568.47 306.31 571.43 310.05 573.6 317.19 572.68 321.06 575.01 325.7 578.64 336.65 580.81 336.6 581.95 330.45 586.92 331.15 588.21 328.48 586.65 325.97 586.03 322.72 588.83 320.7 592.85 323.79 600.5 327.05 602.33 329.18 603.75 333.12 608.22 337.04 608.84 341.03 606.98 345.13 603.52 347.55 598.9 349.65 599.93 352.8 602.73 354.91 606.17 355.58 613.86 352.28 617.05 351.36 619.7 352.53 619.69 359.06 620.84 361.81 622.27 362.47 630.49 363.81 631.69 365.44 630.74 368.69 631.93 369.86 636.5 368.34 639.6 367.92 641.27 370.72 636.12 379.4 636 380.7 637.92 384.48 640.38 385.23 646.39 385.12 648.49 386.15 653.99 387.21 657.56 386.52 659.51 381.74 661.88 381.09 666.81 383.12 672.19 383.94 678.29 383.05 680.56 385.15 676.72 387.12 669.85 387.76 669.66 389.67 673.14 391.79 675.12 395.46 677.53 395.14 685.46 391.71 687.74 392.27 688.84 398.63 687.06 404.86 682.63 409.96 682.93 413.71 686.47 415.01 700.25 407.62 702.68 408.74 702.81 411.26 701.4 415.26 692.94 419.74 692.25 423.75 693.17 426.43 695.77 429.15 699.51 434.55 699.39 440.71 697.92 445.39 700.81 447.13 708.22 442.49 716.52 436.46 720.53 434.5 725.92 433.36 728.77 433.52 730.25 435.9 731.25 440 731.39 447.7 732.28 451.4 735.22 456.38 734.89 459.06 731.14 467.21 726.16 475.08 724.99 480.2 726.27 481.1 730.48 480.97 737.99 479.98 740.57 482.15 740.33 484.66 738.79 488.13 737.4 495.92 734.07 497.9 729.86 496.88 726.61 498.49 728.1 501.56 731.23 501.31 738.06 498.9 747.42 492.73 752.24 487.57 754.74 486.01 756.6 486.51 758.35 489.63 757.63 492.41 754.89 497.14 752.17 502.99 751.58 507.88 752.48 509.21 756.39 511.75 760.92 515.6 764.57 517.06 764.5 521.44 762.52 523.89 755.96 529.57 752.93 531.39 746.64 533 743.02 536.12 741.36 544.19 739.9 561.32 740.7 569.17 738.97 574.8 735.17 580.77 734.42 585.69 734.44 591.42 735.53 594.1 738.87 596.53 749.57 599.77 753.78 602.51 756.46 605.59 757.31 611.7 758.96 617.65 761.21 621.97 769.8 633.24 772.03 635.51 779.6 641.91 783.84 646.8 785.19 649.19 786.18 653.24 785.92 657.4 784.6 661.3 782.02 666.81 780.07 672.95 779.8 676.1 780.79 680.58 785.12 686.96 787.17 693.5 788.84 708.83 791.09 720.98 793.2 734.46 794.98 740.58 799 750.97 798.71 754.13 797.01 756.86 793.98 759.28 790.14 761.31 785.93 762.75 773.99 765.17 770.56 766.33 768.79 768.04 767.14 773.53 767.7 778.6 769.27 782.66 773.11 789.5 772.76 792.1 768.28 790.68 756.84 783.11 748.44 778.23 739.62 775.6 730.65 774.58 721.4 774.47 711.53 774.74 706.78 775.36 703.86 776.51 700.95 778.64 696.37 783.14 688.21 792.11 685.22 795.05 677.59 793.09 669.89 792.89 668.72 794.32 669.77 796.6 668.84 798 662.83 796.56 660.48 794.86 660.34 792.11 663.37 789.58 666.65 787.9 661.14 785.63 660.41 784.25 663.05 779.39 667.61 775.29 665.16 771.1 661.28 771.11 660.92 767.71 657.87 767.66 655.53 766.05 658.82 762.2 655.91 761.79 653.55 759.97 655.1 756.45 659.5 752.1 657.25 749.96 653.95 751.8 654.48 748.09 651.88 749.48 649.15 748.52 649.23 743.41 647.5 741.73 644.38 743.14 639.22 747.13 636.03 748.27 632.53 745.88 636.51 745.43 636.88 744.1 634.13 740.14 630.05 739.05 631.55 733.95 628.18 730.38 624.68 730.92 622.79 729.51 617.53 730.41 616.59 729.3 618.38 724.81 617.36 723.67 609.37 723.1 608.55 719.92 601.52 716.46 599.09 718.04 595.6 716.57 590.61 715.66 588.65 717.95 586.27 718.33 584.18 716.4 581.84 717.32 582.75 719.18 585.37 720.39 583.84 722.81 579.69 724.46 573.67 723.97 565.15 724.29 565.82 727.1 562.67 730.23 565.54 733.26 561.1 733.84 557.21 736.6 553.87 741.94 552.21 743.04 549.37 743.06 545.88 744.34 544.37 743.66 536.7 737.91 535.18 738.03 533.94 740.95 530.26 742.12 527.46 740.51 524.99 740.3 521.16 736.71 519.08 736.53 518.01 739.18 515.73 741.37 512.3 740.34 510.82 744.6 506.74 748.57 499.28 752.12 497.48 756.67 496.04 757.48 493.75 756.3 487.08 751.54 484.41 750.77 482.24 751.87 481.44 759.07 480.36 762.67 475.36 763.64 470.35 762.07 467.33 760.31 466.6 758.89 472.86 755.86 476.84 753.12 475.19 751.17 465.92 752.79 464.98 752.16 467.97 745.83 464.99 742.95 463.15 745.97 456.87 746.58 458.77 742.53 451.63 740.34 448.62 738.23 448.2 744.33 444.86 746.54 442.77 745.84 440.22 741.06 438.87 739.88 428.94 740.79 420.92 741.09 417.84 738.21 413.77 739.58 408.47 739.83 401.26 740.86 396.17 737.27 389.78 735.07 384.62 734.05 377.34 735.35 373.81 735.51 368.28 734.36 367 733.42 365.23 728.9 362.92 729.11 360.54 732.38 360.8 735.26 363.48 739.17 365.46 744.03 363.77 746.29 351.56 751.84 349.31 751.86 346.87 748.78 343.73 742.66 340.21 738.45 339.66 734.57 344.44 730.52 344.39 727.73 341.01 724.82 340.28 722.68 336.47 723.21 328.93 727 327.71 730.05 330.5 734.03 331.94 741.66 331.46 743.92 334.15 747.13 331.05 751.72 328.72 750.49 321.1 749.64 321.26 744.93 319.36 739.05 314.74 739.13 307.05 741.99 299.35 746.65 294.1 744.62 289.25 744.96 286.38 742.72 286.34 740.55 283.64 735.06 278.16 727.91 275.81 725.75 273.69 725.52 267.57 729.75 265 731.97 263.27 732.22 260.4 730.84 258.2 726.55 258.15 724.83 261.96 722.32 260.87 716.59 256.22 714.73 254.05 715.58 254.82 719.96 253.7 720.85 245.8 719.42 239.22 717.71 227.8 716.8 218.79 713.8 211.66 716.7 200.4 714.29 197.72 713.38 194.04 714.55 191.76 712.03 192.95 703.9 191.31 701.12 179.93 690.44 179.63 686.44 182.95 684.77 184.43 682.78 184.74 673.64 183.22 670.11 180.33 666.89 179.88 664.96 185.1 662.36 186.52 660.95 184.78 654.36 182.77 654.03 178.15 659.77 173.47 662.36 171.02 658.84 163.62 661.58 158.17 659.31 153.82 658.12 150.98 656 154.36 653.77 157.06 649.93 155.29 648.56 150.2 649.21 143.94 652.59 140.94 653.52 130.69 655.07 124.56 657.66 123.04 657.67 116.06 654.21 115.4 652.45 116.77 650.82 120.13 649.38 120.79 647.37 118.77 643.26 111.47 639.66 108.05 648.16 104.74 649.05 102.53 650.78 99.28 650.43 99.27 647.22 97.9 644.58 92.7 642.49 87.84 639.64 87.68 636.71 91.01 634.9 90.16 629.72 88.11 628.09 83.45 628.33 82.14 624.12 79 624.39 76.7 627.32 74.8 625.49 67.93 625.63 67.51 623.57 63.34 620.84 64.8 618.73 67.46 616.8 70.04 616.61 70.95 613.71 67.11 613.14 61.2 608.59 54.35 604.83 52.63 598.79 52.79 596.55 51 595.92 48.24 598.87 44.49 599.55 39.09 599.31 35.98 601.04 33.16 599.64 31.23 601.7 29.09 601.96 28.55 599.44 30.73 597.39 28.64 595.68 25.14 595.48 22.36 593.23 24.24 591.12 23.35 585.88 23.69 583.09 21.43 583.46 20.81 586.49 18.35 587.71 13.31 586.86 12.51 584.03 16.31 585.28 19.26 583.63 18.06 580.17 20.34 576.74 22.96 574.9 19.94 574.06 14.44 573.85 10.99 571.26 9 571.82 5.5 574.46 2.52 574.83 1 572.49 6.24 569.35 7.88 567.67 12.86 565.76 16.92 566.38 18.29 565.57 37.26 416.7 43.5 367.71 50.44 367.26 61.48 369.49 79.72 374.02 88.24 373.86 95.3 371.99 98.86 371.94 102.13 374.79 104.25 378.85 106.21 376.38 106.67 373.66 108.92 370.53 113.08 368.35 119.44 365.76 123.47 359.49 126.05 358.17 128.71 358.08 135.64 356.58 139.96 353.87 147.05 347.45 149.43 348.04 151.69 346.31 150.15 342.98 144.63 341.31 141.91 339.8 139.28 336.85 127.2 324.7 123.84 322.84 113.49 312.61 115.25 308.29 114.89 306.68 109.63 299.54 106.26 297.36 98.58 294.04 93.32 290.47 89.48 286.17 85.12 285.14 84.01 282.88 86.58 275.99 86.38 269.13 87.74 267.42 92.3 266.63 92.96 265.03 91.45 262.52 89.07 260.88 82.22 258.59 80.71 257.44 80.18 254.02 83.45 249.68 82.42 246.78 83.94 244.76 87.46 246.53 89.29 245.34 89.54 242.82 86.27 238.14 84.49 233.37 81.6 229.38 77.39 228.6 75.01 226.17 76.13 221.55 78.78 221.46 81.48 222.82 82.74 220.3 80.25 219.58 70.2 214.37 69.22 212 70.85 208.48 68.3 207.59 64.74 209.62 63.16 208.88 63.32 203.13 61.52 201.75 53.02 198.64 53.04 196.07 54.59 189.39 56.2 188.04 57.56 184.01 57.04 179.75 58.28 178.21 58.94 174.75 63.17 173.15 63.84 171.49 66.54 170.51 67.81 168.94 68.43 165.67 70.26 164.18 71.41 157.51 69.48 154.67 70.35 150.22 69.99 147.88 71.55 143.44 71.98 139.51 77.16 136.16 78.38 133.67 76.68 131.52 77.79 126.46 81.88 121.12 79.04 117.52 78.47 115.54 80.73 112.88 80.76 111.18 78.9 108.39 79.41 104.49 79.33 99.09 76.92 94.71 74.75 92.25 74.79 88.9 72.2 86.16 73.02 79.82 72.27 74.87 68.19 72.05 68.82 66.13 68.46 63.94 64.05 60.69 65.82 57.7 64.62 53.67 66.95 51.88 67.46 49.97 64.43 48.07 63.37 44.41 59.88 43.34 59.35 37.3 55 36 49.01 33.56 49.34 31.25 105.84 12.35 151.44 1 144.91 8.84 144.58 11.9 145.86 13.85 151.48 12.9 153.75 14.06 154.06 17.87 157.53 23.28 160.73 24.58 163.38 28.65 166.49 29.75 173.5 34.77 176.89 38.86 179.36 40.92 184.97 42.65 188.92 41.91 190.03 43.28 194.73 46.11 197.59 49.74 203.05 53.98 208.39 59.37 211.66 61.75 213.51 59.88 213.68 55.3 214.44 52.69 218.21 43.8 219.17 42.36 222.69 40.12 225.41 36.71 227.78 36.21 230.06 33.94 233 28.74 236.2 26.16 239.43 21.49 241.67 20.64 245.25 17.59 354.03 24.29 349.19 36.01 347.81 41.02 345.27 46.68 344.49 51.53 345.02 54.68 349.95 58.82 369.46 69.94 391.35 82.77 394.52 86.11 396.98 91.58 397.26 133.7 Z"/>
</g>
</svg>