<?xml version="1.0"?>
<svg xmlns="http://www.w3.org/2000/svg" version="1.2" baseProfile="tiny" width="800" height="652" viewBox="0 0 800 652" stroke-linecap="round" stroke-linejoin="round">
<g id="4210001">
<path d="M 775.86 180.64 773.1 180.89 769.77 183.24 766.91 185.9 766.72 189.76 766.03 192.25 768.51 197.89 770.08 199.92 771.33 205.14 770.37 207.92 765.92 209.19 764.8 210.43 762.34 210.81 759.39 219.29 759.49 224.17 759.03 226.82 758.89 235.41 759.07 241.59 761.79 243.9 764.38 249.08 764.98 251.89 765.27 256.37 765.76 257.35 768.73 259.37 769.67 261.46 770.24 264.71 771.39 267.6 775.08 272.07 778.9 286.42 770.4 292.8 759.23 301.66 754.96 306.36 753.32 308.96 751.29 313.94 742.53 339.89 735.98 358.57 732.9 367.58 731.5 370.43 728.51 374.08 724.98 376.6 722.39 377.8 709.28 383.82 707.77 384.78 705.64 387.13 704.49 390.34 704.56 392.98 705.92 398.83 705.77 403.62 705.17 405.24 702.56 407.77 702.57 410.98 701.8 412 701.07 415.77 701.63 417.36 704.65 417.94 706.09 419.3 706.4 423.97 706.18 428.33 707.7 431.99 708.7 435.41 708.53 437.12 705.51 440.89 704.12 443.51 705.08 446.28 708.95 448.55 713.03 447.74 716.64 448.53 718.56 450.74 720.97 451.99 723.19 454.19 726.45 458.5 729.03 460.73 732.36 465.59 734.37 466.4 739.94 466.19 744.26 467.97 746.21 469.44 748.22 473.03 748.67 478.28 749.11 479.71 749.29 489.76 752.92 490.07 753.53 492 751.65 492.3 750.32 495.7 749.29 497.29 751.6 498.46 748.57 500.61 749.08 501.68 751.51 502.02 751.48 505.57 747.05 505.75 746.75 507.12 749.99 510.49 749.97 513.65 748.32 513.72 747.13 512.25 745.86 512.67 745.88 515.99 744.33 517.65 744.15 520.57 743.43 521.55 743.98 523.01 746.32 523.76 746.22 524.73 743.89 525.52 745.51 527.39 745.54 528.78 742.36 531.21 742.51 532.27 744.76 533.07 743.47 536.4 745.89 535.9 746.55 536.71 744.53 538.94 747.36 540.38 746.48 542.69 749.26 542.7 749.84 545.68 757.12 548.19 758.45 546.26 760.28 547.42 764.52 549.01 759.45 551.56 762.53 554.72 763.75 554.57 765.79 552.27 766.88 552.91 766.73 555.48 768.14 556.52 769.42 554.45 770.88 556.54 772.64 556.65 772.5 554.09 773.81 553.29 775.5 554.23 775.72 556.58 775.15 558.97 772.84 559.81 772.84 562.09 774.41 562.38 775.34 560.29 776.38 560.89 775.46 565.07 773.4 568.32 774.41 569.36 778.42 567.59 780.83 568.48 780 570.23 782.46 571.03 784.72 569.85 786.63 571.59 789.98 572.97 793.23 575.18 794.32 577.27 792.26 578.06 791.36 579.4 794.32 581.85 796.75 582.53 797.78 586.98 799 589.17 797.28 589.9 797.55 592.69 796.7 594.88 793.54 594.66 792.58 596.86 788.69 599.75 784.72 602.09 780.51 603.25 780.66 605.04 777.78 605.35 776.11 606.04 774.21 608.42 771.53 608.04 766.09 610.83 762.06 611.44 759.83 612.12 760.09 615.08 756.37 617.01 759.28 619.19 757.17 620.09 751.75 620.41 748.88 618.42 746.42 617.57 746.58 614.57 745.38 614.04 740.6 615.47 740.77 617.71 742.65 618.37 743.78 620.7 739.21 620.83 737.89 620.32 736 617.01 735.1 617.55 735.62 620.23 735.01 621.6 732.54 622.81 731.49 623.99 731.49 625.94 730.55 627.73 733.36 628.77 733.58 629.91 731.77 630.95 732.42 632.01 735.85 631.57 736.81 632.08 736.36 634.42 739.24 634.83 740.69 636.31 744.5 638.2 743.92 639.81 742.54 640.62 739.43 639.9 734.34 640.69 733.09 642.69 731.18 642.34 731.17 640.47 730.24 639.58 727.75 639.93 726.48 641.4 726.52 644.47 725.93 646.27 724.54 647.08 722.23 647.12 719.73 646.31 719.43 647.58 720.64 649.03 715.21 651 713.18 649.52 710.27 649.72 709.75 647.08 708.59 644.86 707.09 643.47 706.78 641.36 702.34 638.92 699.52 638.76 698.18 638.09 700.02 636.21 698.73 634.83 699.07 633.62 696.6 628.94 691.46 625.53 688.06 624.33 684.78 622.57 683.48 621.3 679.15 620.88 677.99 620.36 676.07 618.29 671.64 618.33 668.02 618.73 666.45 618.29 664.06 613.09 659.99 610.3 634.15 582.29 555.7 524.03 456.02 450 452.7 451.85 451.35 453.23 447.17 453.96 442.55 453.54 442 453.02 438.26 453.79 436.89 455.49 433.78 458.19 430.54 461.59 428.63 458.28 425.29 457.47 420.91 457.59 417.38 459.85 414.81 462.79 411.47 463.29 408.94 464.12 406.32 468.31 399.85 470.46 395.22 473.53 387.5 477.53 378.33 480.54 375.49 483.29 374.69 485.78 373.35 487.12 371.36 487.29 370.16 488.66 369.37 491.74 366.78 492.75 365.33 494.13 363.98 496.59 361.43 499.24 357.31 500.32 355.1 499.81 352.33 499.8 349.48 500.88 346.68 502.87 343.3 504.42 340.67 506.28 337.39 506.81 330.7 507.16 329.74 509.77 326.8 510.29 325.11 512.62 322.03 515.42 320.72 517.07 314.85 519.36 313.14 520.29 310.57 520.18 308 519.43 304.71 517.63 301.9 518.02 298.25 514.88 296.74 515.07 294.45 516.73 290.31 518 288.14 520.19 284.95 522.55 283.25 525.26 281.11 526.69 279.85 529.1 273.71 534.44 270.4 532.51 269.56 530.88 265.77 532.52 258.37 536.35 253.29 536.3 251.39 536.61 245.39 535.45 243.22 534.42 238.82 535.18 233.3 536.73 224.93 536.91 220.04 538.35 216.33 540.77 212.39 546.58 210.39 547.73 207.86 551.89 204.27 553.22 202.35 555.06 198.52 556.81 196.1 560.47 195.43 563.02 192.46 565.46 189.31 566.45 186.93 568.14 186.71 572.42 187.44 574.32 185.89 575.33 181.65 578.99 181.35 581.22 181.8 582.84 184.34 587.2 183.24 587.29 180.87 589.63 178.77 590.75 176.2 595.27 174.18 596.3 171.84 596.78 167.12 599.73 164.89 600.23 162.77 602.25 161.43 600.93 159.48 600.27 156.97 600.27 155.34 598.93 152.49 598.6 150.21 597.55 141.47 595.85 139.64 594.09 134.18 592.9 131.99 591.67 127.86 591.77 126.86 591.26 124.74 586.68 118.97 582.16 117.92 579.66 117.6 576.56 117.78 572.48 118.17 571.4 120.39 569.74 123.95 566.41 123.52 563.34 122.25 561.66 121.81 558.31 121.97 555.58 120.75 553.26 118.61 550.62 116.99 549.39 114.43 549.5 113.33 547.37 113.19 545.07 114.82 542.82 117.09 541.45 119.47 536.39 120.18 533.67 121.88 532.45 119.64 530.7 117.87 527.87 116.09 526.54 111.22 526.44 106.97 525.53 103.39 521.58 101.08 519.68 96.01 522.81 93.73 525.27 91.59 526.32 87.37 531.14 85.52 533.71 81.81 537.76 73.45 539.4 72.25 539.19 69.98 535.87 67.05 534.81 62.23 535.1 57.47 536.91 54.11 535.93 51.2 536.2 49.98 536.96 47.45 535.84 46.46 533.76 44.64 533.17 41.37 529.93 40.42 528.16 37.2 527.4 35.7 525.89 35.75 522.22 33.89 520.43 31.71 516.65 27.8 510.98 23.04 506.67 22.75 504.14 21.95 502.55 20.35 501.84 18.02 501.06 15.96 498.64 14.62 495.88 11.85 494.55 10.65 492.98 9.05 489.02 6.19 486.75 5.35 485.57 2.34 482.97 1 482.44 3.5 481.79 5.77 480.47 6.88 477.98 9.32 475.41 13.41 471.85 16.31 466.75 18.96 464.56 21.8 463.36 26.5 464.9 29.16 463.71 33.7 460.44 38.31 459.16 42.98 457.5 46.63 458.43 50.83 457.98 57.35 453.88 67.54 453.31 71.07 452.26 72.25 452.64 74.12 449.59 74.4 446.12 72.9 438.04 70.4 434.59 69.89 430.33 70.14 427.49 71.83 423.84 73.85 421.37 73.14 420.16 73.64 418 72.74 415.06 73.17 408.68 74.59 404.06 75.19 400.48 76.94 396.53 77.59 393.85 81.32 392.53 84.69 392.97 86.9 392.58 90.4 390.33 91.64 390.39 94.73 393.46 101.01 395.15 105.7 396.15 107.41 396.98 110.35 397.44 114.82 398.63 118.33 399.2 124.42 401.2 136.44 398.81 139.19 395.18 139.79 391.86 144.08 386.19 146.44 383.61 150.2 375.24 153.38 370.14 154.11 366.01 155.31 364.28 159.14 365.89 161.18 365.97 167.87 364.41 171.45 364.41 173.32 363.95 178.08 364.03 180.77 364.57 185.42 364.13 187.02 363.03 189.07 359.2 190.37 357.79 192.98 356.36 197.85 352.18 200.12 348.68 205.12 344 205.81 339.03 205.45 335.84 203.11 332.6 203.08 331.63 206.06 329.56 208.97 328.78 218.76 327.13 223.9 324.58 225.61 324.42 225.91 322.15 227.26 317.97 229.68 315.28 231.48 311.9 233.04 308.19 235.94 306.09 241.2 304.63 244.89 303.95 245.84 303.37 248.68 299.67 250.83 295.85 253.06 293.12 257.62 288.54 264.44 283.37 268.16 282.32 289.14 260.76 287.74 256.5 288.43 253.34 290.04 250.85 293.47 248.2 293.79 245.78 297.16 245.45 298.37 244.62 301.37 241.41 304.74 238.83 310.32 231.42 312.49 228.9 315.42 227.12 319.88 226.8 325.87 224.18 328.4 221.96 329.09 219.82 328.7 216.46 327.57 212.42 327.23 209.09 328.14 203.97 329.28 201.91 326.28 199.64 325.78 192.39 326.05 191.1 329.84 188.45 332.61 187.59 334.23 182.92 337.55 178.39 338.52 175.42 338.4 171.92 339.36 168.89 339.16 164.61 341.14 161.48 343.35 157.3 347.98 155.52 350.88 155.28 352.94 153.69 353.39 148.75 355.51 146.48 360.11 146.76 363.31 145.78 364.61 144.62 367.7 140.53 372.03 136.03 372.45 130.3 371.73 125.93 373.69 121.38 375.36 120.16 379.58 118.61 381.93 116.51 384.03 111.09 380.85 105.42 380.67 101.46 380.93 98.18 380.15 96.52 377.75 94.74 377.38 93.47 379.38 89.65 379.81 87.71 379.87 82.99 380.98 79.98 382.95 76.17 383.91 72.21 385.98 71.24 386.76 69.93 386.64 66.64 390.24 62.47 392.26 60.83 394.37 60.77 397.43 61.62 399.57 60.24 401.76 59.51 402.95 61.24 406.16 63.43 408.83 66.48 413.15 69.25 414.85 76.02 416.97 78.04 418 83.18 418.78 83.89 423.08 83.72 427.74 80.3 428.34 78.44 430.28 76.52 435.25 74.13 438.6 73.86 444 72.47 446.39 71.55 448.31 72.23 450.62 75.62 450.75 77.12 449.99 79.7 451.53 86.91 452.68 90.72 452.8 93.4 454.6 101.91 454.78 104.43 456.07 105.65 461.12 105.49 463.49 104.85 467.71 102.93 472.5 103.1 475.45 102.09 486.14 102.14 486.88 102.59 490.33 102.73 494.16 104.13 498.67 104.85 500.1 104.18 502.08 100.87 501.95 96.93 503.43 93.34 503.75 89.02 503.95 82.1 506.86 75.83 509.51 73.77 512.38 72.88 511.16 69.98 509.75 64.36 514.52 58.69 514.59 56.46 516.25 52.78 517.92 50.27 521.31 50.47 525 49.42 528.71 48.8 531.25 49.4 535.13 48.48 536.6 48.88 537.59 51.45 545.53 52.14 547.14 50.75 548.71 46.89 550.02 40.97 549.62 37.29 549.82 34.94 553.33 34.25 555.41 35.15 558.98 35.3 562.24 36.42 565.01 36.15 567.68 36.5 569.47 35.49 575.89 34.71 577.79 33.47 579.34 29.18 586.36 27.64 592.17 26.98 595.37 26.34 596.84 27.15 599.99 26.97 603.11 25.45 605.99 24.5 608.32 22.8 609.98 19.1 612.64 17.81 617.25 18.16 624.33 15.8 626.72 15.96 629.4 15.26 632.23 15.28 633.29 14.36 634.11 8.58 636.35 4.21 637.76 3.42 640.44 3.08 642.99 1 644.34 1.21 645.2 2.74 644.49 6.12 652.43 9.42 654.87 9.32 659.01 11.01 662.73 9.78 668.44 9.56 669.22 12.2 668.65 14.46 672.5 20.53 673.04 24.7 674.93 27.67 673.79 32.63 673.05 39.69 673.47 41.37 677.36 44.32 681.82 45.9 686.83 44.81 690.59 42.38 691.92 42.11 693.4 43.13 696.82 42.99 699.43 41.34 703.69 37.06 705.15 37.03 711.27 40.13 712.9 41.69 713.8 40.19 716.76 39 719.28 37.47 723.43 38.6 724.66 39.72 725.11 41.5 724.06 52.46 725.73 56.65 725.29 59.94 726.12 62.94 728.72 66 729.17 68.82 727.48 72.06 728.26 74.88 731.12 79.28 731.88 82.84 731.16 87.99 730.1 90.58 729.89 92.69 730.38 98.2 729.93 101.04 732.38 100.63 738.16 102.9 739.87 102.82 741.68 101.79 746.12 101.63 750.51 102.75 754.6 102.79 753.64 104.43 754.62 108.68 753.55 110.03 754.57 112.29 751.85 116.69 753.42 117.92 754.61 120.15 754.35 121.05 755.46 124.15 757.39 128.11 758.98 129.36 761.66 135.48 761.79 137.43 764.2 140.39 763.77 144.63 766.37 148.39 766.35 150.41 765.5 152.04 763.17 153.64 764.6 156.3 766.15 156.09 769.59 157.36 771.2 159.96 772.06 162.99 773.53 165.75 775.82 167.14 776.94 170.03 776.84 171.85 775.95 172.58 775.86 180.64 Z"/>
</g>
</svg>