<?xml version="1.0"?>
<svg xmlns="http://www.w3.org/2000/svg" version="1.2" baseProfile="tiny" width="800" height="635" viewBox="0 0 800 635" stroke-linecap="round" stroke-linejoin="round">
<g id="4210100">
<path d="M 798.83 289.01 797.93 289.63 797.17 289.68 796.35 288.81 795.5 286.31 794.96 285.76 794.24 285.92 791.94 287.25 791.15 287.54 789.01 287.86 787.8 287.86 787.12 288.43 787.12 289.26 787.41 290.63 787.27 292.17 787.02 293.02 786.38 293.96 785.46 294.22 784.61 294.01 782.97 293.1 782.37 293.52 781.68 295.55 781.13 296.35 779.77 298.93 779.62 299.55 779.84 300.46 781.33 301.58 781.91 302.33 782.35 303.52 783.17 304.39 784.85 305.28 785.65 305.57 785.87 306.26 785.17 307.18 783.21 308.22 781.72 308.26 778.76 307.87 777.33 307.01 776.18 306.52 775.53 306.52 774.93 307.09 774.08 308.49 773.31 310.37 773.37 311.22 774.57 313.73 776 313.72 776.73 314.44 777.07 315.82 777.4 316.42 778.24 317.29 780.35 320.59 780.39 321.83 780.76 323.2 779.8 323.76 779.09 324.86 778.67 325.8 779.18 327.4 779.41 329.12 779.64 329.52 779.03 331.04 778 332.63 776.97 333.4 775.4 334.15 774.6 335.53 774.59 336.17 776.58 339.18 777.66 340.1 777.55 341.06 774.96 341.9 774.32 342.62 774.6 343.66 774.38 344.92 773.57 345.4 772.12 344.9 771.66 344.98 771.34 346.05 769.97 346.98 768.87 346.95 768.38 347.23 767.49 348.26 767.78 349.29 768.35 349.81 768.58 350.44 768.71 351.82 768.58 352.66 768.97 353.07 769.75 354.81 770.27 355.55 771.17 356.4 771.66 356.43 773.59 355.9 774.11 356.25 775.05 357.47 776.19 358.19 776.33 358.58 776.06 359.49 773.98 360.37 773.58 360.33 773.24 358.94 772.39 358.87 771.9 359.84 771.15 362.01 770.89 363.6 769.91 364.91 768.42 366.02 764.87 367.79 764.17 368.29 763.04 368.66 761.36 368.69 759.96 368.95 759.25 369.94 760.13 372.04 760.09 372.75 760.64 373.24 761.71 373.7 763.31 373.77 765.33 372.33 767.18 371.38 768.44 371.31 769.97 371.84 771.35 372.57 771.99 373.14 772.4 373.89 773.57 374.48 775.45 374.95 776.42 375.08 779.24 375.05 779.69 375.22 780 375.93 780.01 376.94 780.38 377.57 780.08 378.43 779.59 378.68 778.18 378.83 776.11 379.46 774.84 379.64 772.18 379.52 770.81 379.57 769.76 380 768.49 379.49 767.75 379.87 766.68 379.85 765.68 379.07 764.82 378.65 763.78 378.67 762.91 378.13 762.65 377.52 761.67 377.57 760.09 378.89 759.95 379.43 760.24 380.43 761.86 381.27 763.13 382.57 762.78 383.84 761.1 386.44 759.85 387.87 759.26 388.76 758.65 391.36 758.27 392.36 758.36 393.84 758.92 394.64 760.79 394.47 763.85 394 769.21 392.12 769.97 392.08 770.7 392.39 771.78 393.75 771.73 394.29 770.92 395.19 769.61 396.05 768.76 397.5 768.76 398.87 770.17 400.7 771.2 400.66 772.39 400.05 773.1 400.14 774.19 400.89 775.11 402.13 776.75 403.88 778.21 404.83 781.21 404.3 784.19 403.57 786.09 402.73 787.69 402.44 788.82 402.91 789.02 403.56 788.63 404.78 787.58 405.84 785.62 406.8 782.15 407.15 779.6 407.25 777.75 407.16 776.56 407.93 776.04 408.62 775.62 410.3 774.51 412.1 774.47 412.72 775.11 414.32 777.26 416.31 779.18 417.89 781.32 419.96 783.91 422.14 785.18 423.75 785.41 425.13 785.45 428.34 785.88 430.33 787.43 431.66 788.09 432.53 788.16 433.08 786.5 434.67 785.37 435.36 783.29 435.94 782.35 436.56 781.8 436.49 779.08 435.34 777.72 434.87 777.46 434.57 778.33 432.64 778.22 431.61 777.26 431.13 776.4 431.12 774.72 431.44 774.4 431.33 774.31 429.68 774.48 428.75 774.47 427.33 771.46 426.25 770.13 425.44 769.14 425.61 766.73 428.35 765.91 430.18 765.46 433.05 765.71 433.58 766.7 434.2 767.98 435.42 769.05 436.79 769.06 437.65 769.45 439.53 769.89 440.14 770.03 441.09 768.71 443.07 767.94 443.84 767.29 443.92 765.09 445.08 762.87 445.46 761.82 444.86 762.42 443.91 763.22 442.18 763.52 441.82 764.82 441.1 764.86 440.37 762.96 440.19 761.7 440.38 760.81 441.36 758.89 441.21 757.96 441.3 756.18 441.93 754.82 442.27 753.25 442.3 752.1 441.7 751.63 441.02 749.94 440.18 748.73 440.44 746.39 441.85 744.98 442.43 744.3 443.53 743.82 444.94 742.89 446.85 742.43 447.13 740.63 447.17 738 447.94 736.68 448.51 735.11 448.87 734.75 449.22 734.23 451.08 733.79 452.17 733.54 454.45 733.9 456.25 733.4 456.54 733.53 457.13 734.31 457.44 735.67 456.62 737.48 455.74 739.85 455.73 741.89 456.16 743.14 456.79 744.14 457.04 744.81 457.55 744.37 458.44 743.46 458.56 741.55 458.37 740.93 457.82 740.11 457.65 738.9 457.71 736.84 458.19 736.6 458.62 737.56 459.9 739.56 461.81 742.03 463.1 742.42 463.96 741.19 464.99 738.28 466.25 737.26 466.83 736.4 467.96 735.77 469.78 735.82 470.87 736.16 471.88 736.83 472.35 737.83 472.22 738.87 472.48 739.4 472.39 740.77 471.31 742.13 471.02 743.35 470.14 744.6 469.87 746.26 469.68 747.15 469.8 749.74 469.31 750.4 468.83 751.79 467.33 753.06 466.85 754.37 465.89 755.42 465.75 756.35 466.43 755.73 468.44 755.6 469.62 756.07 470.87 756 471.23 755.12 471.76 753.45 472.12 750.42 473.14 750.31 473.84 748.97 475.23 749.09 476.57 749.88 477.46 750.99 478.03 755.91 478.77 758.68 479.46 760.71 480.31 760.61 481 759.82 483.77 759.43 485.75 759.66 488.02 759.37 490.13 758.93 491.57 756.7 492.38 755.63 492.61 755.05 492.08 755.1 491.26 755.48 489.95 756.36 488.03 756.67 486.75 755.9 485.46 753.95 484.8 751.67 483.6 751.19 483.6 748.13 485.77 747.97 486.28 748.37 486.82 748.14 487.56 746.83 487.53 745.11 488.15 744.25 488.34 742.12 489.25 741.6 489.78 739.42 490.87 738.14 491.91 738.06 491.26 737.25 489.61 737.03 488.47 737.22 487.72 736.63 487.22 736.22 487.84 735.23 488.42 733.75 488.25 732.73 488.62 731.85 489.73 729.79 491.07 729.15 490.61 729.8 489.8 729.06 489.26 728.45 489.59 727.4 490.51 725.64 491.3 724.81 491.39 722.66 490.85 721.83 490.32 720.98 490.28 720.97 490.97 720.61 491.32 719.65 491.19 718.83 490.6 717.32 489.9 716.8 490.18 717.02 491.29 717.24 494.7 717.08 496.42 716.67 496.8 714.54 497.66 712.66 498.52 711.91 499.11 711.31 500.16 710.34 501.33 709.92 502.16 709.21 504.32 709.09 505.73 708.24 506.17 706.58 506.06 705.56 506.29 704.08 507.01 703.33 508.06 702.7 508.65 701.91 508.73 699.39 506.88 698.81 505.69 697.97 504.76 697.75 504.06 697.1 503.26 694.9 501.93 693.59 500.83 692.44 500.38 691.56 500.58 689.4 501.68 689.17 502.08 689.23 502.97 689.7 504.81 689.46 505.49 687.74 505.82 686.65 505.65 686.19 505.28 685.23 503.84 685.1 502.57 685.26 502.06 684.72 501.59 684 501.8 683.36 502.78 682.73 503.22 682.23 504.16 681.45 504.58 680.69 504.64 680.75 505.16 681.32 505.72 684.59 506.99 685.81 507.21 687.53 507.28 688.16 507.83 687.98 508.79 686.77 510.55 686.04 510.63 684.14 510.52 683.29 510.76 681.98 510.7 680.26 510.8 678.35 511.59 676.55 511.6 674.34 512.26 673.57 512.81 673.37 513.92 674.07 514.65 674.65 515.62 675.04 518.64 675.27 519.63 676.21 520.79 675.45 521.84 674.97 522.88 674.67 526.3 674.11 526.62 673.6 526.11 673.25 524.63 672.63 523.3 672.07 521.45 671.21 520.84 669.12 520.86 668.19 520.51 667.26 520.68 665.73 522.32 665.3 523.12 665.34 523.83 666.31 525 667.73 525.93 669.12 526.27 669.37 526.53 669.59 527.75 669.4 528.97 668.81 529.81 668.05 530.43 666.97 530.67 666.72 529.96 665.48 528.85 665.01 527.75 664.34 526.77 662.69 525.79 662 525.75 660.24 526.15 659.44 526.47 660.61 529.26 661.39 530.76 662.25 531.69 661.99 532.78 661.32 533.49 660.64 533.81 657.59 534.61 656.54 535.19 655.85 536.13 656.18 536.63 656.24 537.88 655.99 538.93 655.87 540.94 655.48 543.33 655.72 544.6 655.42 547.54 654.91 549.55 653.81 549.45 652.89 547.59 652.33 547.06 651.54 545.22 651.94 544.06 651.94 543.05 652.25 541.32 652.15 540.45 652.37 539.18 653.32 536.92 653.47 535.9 653.32 534.95 652.41 534.3 651.7 534.54 650.09 535.8 649.01 536.96 647.59 537.63 646.81 537.56 645.52 536.61 644.85 536.69 643.77 537.44 643.86 538.58 644.54 540.21 642.31 543.02 642.07 543.49 641.74 545.15 641.6 546.78 640.53 548.48 640.01 550.2 639.67 550.77 637.56 553.05 637.43 553.95 636.47 554.62 636.02 555.48 634.59 556.06 633.57 556.12 633.39 554.8 632.82 554.01 633.66 553.77 633.83 553.34 633.43 552.73 632.47 552.17 633.6 551.83 633.64 551.03 632.88 549.18 632.64 548.26 633.11 547.07 633.75 547.04 634.98 547.47 636.62 547.69 637.21 547.14 637.26 546.34 636.91 545.8 636.99 545.18 636.16 544.21 635.47 543.87 634.53 542.36 632.93 541.21 632.25 540.35 631.84 540.23 631.02 541.57 631.12 543.33 631.86 543.33 632.1 544 631.89 545.09 630.52 546.22 629.91 547.09 629.04 547.21 628.52 548 627.14 548.48 624.09 549.36 623.82 549.84 622.69 550.27 621.89 550.24 621.7 551.06 621.08 552.29 620.44 552.2 620.63 553.52 619.79 553.7 619.38 555.11 618.65 555.97 618.99 556.45 618.36 557.03 618.98 558.09 618.88 558.99 618.49 559.26 618.46 559.94 617.87 559.97 618.02 560.67 617.64 561.97 617.15 562.58 616.29 562.86 615.02 562.51 611.74 562.41 611.17 562.71 608.74 562.45 608.48 563.2 609.04 563.52 608.59 564.28 607.55 565.1 608.07 565.7 608.73 565.29 609.61 567.6 610.49 567.98 610.78 568.49 610.19 569.25 611.34 569.49 610.74 570.17 611.64 570.72 612.26 571.43 612.02 572.27 613.21 572.74 612.87 573.82 613.6 574.35 613.79 576 613.39 577.41 612.59 577.32 609.81 578.31 609.16 578.35 607.65 578.96 606.66 579.2 605.08 579.83 604.3 580.64 605.02 580.77 605.39 581.19 604.98 581.61 605.4 582.11 605.08 583.78 605.56 584.65 605.6 585.27 604.75 586.96 604.79 588.09 604.4 589.02 604.75 590.7 604.49 592.77 603.18 592.84 601.81 592.65 600.58 592.2 598.85 592.36 597.09 592.81 594.65 593.71 593.9 594.21 592.99 595.3 592.39 595.54 589.72 597.23 589.33 597.94 589.48 599.08 590.09 599.66 592.26 599.83 593.69 600.11 594.87 600.6 595.79 601.27 596.58 602.37 598.54 603.74 601.33 606.81 603.48 607.22 605.67 608.03 606.33 608.59 605.8 609.09 605.77 609.73 604.9 609.91 603.77 610.74 603.17 611.37 601.81 611.93 600.84 611.89 600.37 611.51 599.28 610.12 598.9 610 595.92 610.24 594.46 610.44 592.75 610.45 591.74 610.87 591.11 611.82 590.55 612.12 589.19 612.34 588.52 613.04 587.82 614.71 586.46 615.08 586.27 614.83 586.45 613.39 587.07 612.64 586.99 612.21 585.93 612.09 585.29 611.79 584.74 611.12 583.81 610.75 583.14 611.01 582.93 613.61 583.1 614.61 583.07 615.77 582.6 615.99 580.11 615.19 579.63 615.42 579.07 616.79 577.49 616.73 577.05 617.37 576.06 617.62 575.25 618.64 573.84 618.9 571.78 619.55 571.26 620.04 569.3 620.56 568.28 622.31 567.58 622.3 566.59 621.86 565.21 621.9 564.38 622.93 563.78 623.41 562.35 625.18 562.12 626.16 561.19 626.72 560.5 626.76 559.23 626.31 556.52 624.94 555.88 624.82 554.91 624.23 553.52 623.88 552.15 622.84 551.33 622.65 549.87 621.96 549.16 621.82 549.42 623.93 549.85 624.81 550.32 627.68 549.1 629.83 548.11 630.48 547.15 630.69 546.09 630.36 544.93 629.73 543.79 630.37 542.31 630.68 541 631.31 540.17 631.41 539.48 631.05 539.08 629.93 539.1 628.32 538.39 627.2 536.88 626.99 535.75 627.79 535.07 628.63 534.35 630.05 533.55 630.97 532.18 631.77 529.64 633.52 528.81 633.58 527.73 634 526.62 634 524.94 633.15 523.52 632.12 522.27 630.46 521.82 630.2 519.87 629.58 519.9 628.52 519.29 627.25 519.58 626.91 520.75 626.49 520.49 625.78 522.26 623.35 522.39 621.9 522.19 621.37 522.62 620.76 522.3 620.38 523.14 619.23 523.26 617.67 522.61 616.83 522.36 615.72 521.79 614.12 520.6 611.63 520.33 610.23 520.56 609.39 520.35 608.67 563.19 553.35 562.6 553.26 560.24 552.24 557.36 550.46 557.06 549.4 556.3 548.67 556.15 547.58 556.35 546.59 556.29 545.65 555.95 544.06 556.26 543.47 556.05 542.55 555.96 540.46 556.07 539.73 555.8 538.82 555.13 537.68 554.67 535.75 554.11 534.57 554.26 532.34 554.64 531.03 553.95 530.08 553.91 528.89 553.53 527.26 553.61 526.4 549.13 519.66 513.48 475.64 513.27 474.26 512.44 473.61 512.6 472.86 513.52 470.32 512.92 469.15 512.85 468.4 514.17 467.42 514.46 467.01 516.04 462 516.62 461.43 516.58 460.85 517.34 460.1 518.57 460.03 520.63 460.47 522.17 460.32 522.31 458.74 521.69 457.69 522 456.31 521.93 454.99 522.2 454.19 522.9 453.23 523.89 452.55 524.23 451.65 525.07 450.66 525.03 449.4 525.85 449.08 524.98 447.81 524.62 446.85 524.6 446.04 524.96 445.09 525.67 444.06 527.02 443.47 529.53 443.68 532.2 444.16 533.02 444 533.29 444.34 532.96 445.5 532.43 445.95 532.45 448.19 532.98 448.77 534.39 448.83 535.36 448.07 536.22 447.64 536.42 446.57 536.46 444.53 536.86 443.94 537.89 443.72 538.1 442.96 537.67 441.92 537.2 441.41 536.31 439.58 534.56 438.41 534.37 437.89 534.95 437.44 536.36 438.42 537.19 438.62 537.98 438.35 538.49 437.83 538.96 436.21 538.93 434.86 539.38 433.95 539.23 433.09 540.08 432.12 541.38 431.54 541.44 430.79 540.01 429.51 538.45 429.01 537.87 429.86 538.37 430.63 538.1 431.32 536.5 431.42 534.75 432.14 533.24 433.11 532.82 432.97 531.87 430.42 530.87 429.99 530.09 430.09 529.43 428.88 529.34 428.22 530.29 427.12 530.05 426.15 530.57 425.48 530.11 423.97 530.33 423.25 530.76 422.94 530.67 421.98 530.86 421.42 529.89 420.91 528.01 420.17 526.47 420.23 524.55 419.62 523.9 419.05 522.93 419.75 521.89 418.39 521.45 418.97 520.91 418.47 521.73 417.48 521.98 416.88 521.74 415.83 521.91 415.47 523.45 414.43 523.66 414 523.39 412.93 522.45 411.11 522.64 410.81 523.57 410.66 525.69 411.17 526.73 412.11 527.8 412.15 527.31 411.27 527.26 410.62 527.63 409.64 528.59 408.5 528.83 407.98 527.7 406.72 527.37 405.8 528.78 405.14 530.17 404.22 529.71 403.69 528.21 404.02 526.89 404.49 525.7 405.17 523.74 405.71 522.97 405.13 523.59 401.76 523.33 400.75 523.16 399.27 522.42 397.99 522.03 397.72 520.59 395.69 520.34 395.11 520.67 394.38 521.36 394.14 523.29 393.77 524.66 394.53 526.03 394.59 527.74 394.13 528.33 393.43 528.7 391.5 528.57 390.8 527.61 390.35 527.41 389.76 527.96 389.13 506.44 356.31 474.61 307.77 473.36 307.31 472.98 306.76 470.11 305.69 468.09 305.59 466.85 306.7 466.36 307.46 466.03 308.58 464.7 310.18 463.77 310.06 462.64 310.31 461.66 311.13 460.7 311.7 460.55 312.35 459.02 314.53 456.4 315.93 455.75 316.89 454.59 316.3 453.3 317.21 451.91 317.82 450.79 317.47 449.45 317.98 448.79 318.06 446.71 318.88 444.54 319.45 442.38 320.44 442.17 320.79 420.84 315.76 420 314.15 419.91 313.53 418.94 312.58 418.73 311.72 417.93 309.92 417.28 309.37 416.92 306.85 416.61 306.06 416.1 305.49 415.56 303.15 414.34 301.47 413.4 300.66 412.39 300.21 411.37 299.3 410.8 298.16 409.99 297.23 410.25 296.01 409.73 295.18 408.39 294.4 407.6 295.37 405.33 297.83 404.79 298.97 402.83 300.59 402.78 301.14 401.92 302.64 401.3 303.02 400.65 302.8 400.52 303.99 399.33 306.05 398.46 309.05 398.04 309.8 397.38 310.47 396.08 311.26 396.23 312.75 397.14 314.03 397.2 315.23 396.44 315.61 395.08 315.22 394.5 315.73 393.32 316.04 392.37 315.86 388.48 315.78 386.86 315.3 385.78 315.22 383.22 315.82 381.49 315.74 380.41 315.49 379.33 315.85 378.6 316.41 377.09 317.19 376.34 317.77 374.64 318.08 373.75 318.87 371.38 320.18 369.36 320.74 368.72 321.15 367.87 321.26 364.91 322.11 364.29 322.48 363.2 323.52 362.04 324.03 360.94 324.13 347.94 325.58 344.88 325.84 342.36 326.61 341.32 327.19 339.72 327.18 338.66 327.45 336.14 327.62 335.23 328.17 334.07 328.12 333.3 328.3 331.99 328.09 331.05 328.87 329.85 328.82 328.5 329.3 326.19 329.28 325.75 329.81 326.62 330.24 326.78 330.97 326.39 331.51 325.86 331.55 325.14 332.68 324.32 333.08 323.28 334.12 321.4 335.22 321.05 336.12 319.65 337.6 319.56 338.29 318.31 339.95 318.12 340.48 316.64 341.57 315.49 343.32 314.78 343.87 314.21 343.97 313.88 344.5 313.29 344.37 311 345.2 302.73 356.33 301.82 356.56 301.2 357.05 299.27 356.79 297.8 356.08 297.11 355.49 295.37 355.76 294.72 355.59 293.37 354.12 291.5 354.01 290.9 354.27 289.4 354.19 288.49 354.62 287.54 356.67 286.48 356.85 284.61 356.77 284.08 356.96 282.8 356.9 281.58 357.45 280.17 357.37 279.57 357.84 278.49 358.18 277.7 358.7 276.01 359.19 275.03 359.23 274.38 358.57 274.41 357.21 274.71 356.54 274.54 355.91 273.79 355.53 272.78 354.27 271.82 353.68 270.57 353.23 269.37 351.6 269.37 350.77 269 349.42 268.53 348.25 266.25 348.16 265.47 349.08 264.8 348.97 264.25 347.64 262.99 347.07 260.88 345.4 259.97 344.86 258.88 344.85 257.84 343.06 257.01 342.41 255.93 342.08 255.04 341.53 252.61 339.2 251.93 338.96 250.61 340.73 249.99 340.93 248.02 340.06 247.36 340.83 246.52 340.98 244.79 342.17 244 341.46 242.74 341.5 242.05 342.64 241.49 343.96 240.76 344.04 239.04 342.03 238.51 341.97 237.49 342.53 235.69 343.19 233.88 344.65 232.42 344.42 231.43 343.63 230.15 343.24 229.6 342.6 227.7 340.91 226.66 340.84 225.83 340.29 225.49 339.64 225.76 338.37 225.43 337.6 224.78 337.81 224.07 338.45 222.72 338.88 222.69 340.03 223.45 341.41 223.53 342.3 223.17 344.38 220.7 345.09 218.78 346.19 217.72 347.04 217.01 347.3 215.93 347.02 215.19 347.05 214.22 347.92 213.81 349.01 213.75 349.96 213.21 350.04 212.26 349.43 210.95 349.4 209.5 349.97 209.07 350.32 205.9 352.19 205.26 352.15 203.37 351.4 202.59 351.44 201.71 351.92 200.47 351.55 199.37 350.85 198.58 350.89 197.73 351.73 196.97 353.17 195.91 353.54 195.2 353.4 193.19 352.46 192.33 353.51 192.53 354.57 192.02 355.51 191.04 356.24 190.66 357.66 190.66 358.47 191.29 359.79 190.98 360.07 190.07 359.53 189.02 359.74 188.81 360.45 188.91 362.24 188.37 363.12 187.33 363.52 186.94 362.9 187.26 361.98 186.66 361.25 185.82 361.21 183.91 362.56 182.2 362.7 181.06 363.04 180.05 362.43 180.23 361.6 179.5 360.59 178.6 360.29 178.57 358.93 178.73 357.76 178.1 356.88 177.58 356.75 176.71 357.06 175.74 356.92 174.69 355.81 173.22 355.04 172.53 354.35 171.78 352.57 170.96 351.92 169.57 351.37 168.33 350.45 167.33 350.1 166.65 349.41 164.96 349 163.94 349.69 163.01 349.26 162.54 349.74 161.92 349.89 161.02 349.73 160.01 349.25 159.23 348.33 158.64 348.1 158.09 348.45 158.15 349.53 157.71 349.9 157.18 351 156.58 351.7 156.6 352.44 154.93 352.36 154.19 352.58 153.68 353.12 153.6 353.79 153.92 354.31 154.42 356.41 154.87 357.46 154.55 358.57 153.92 358.36 153.7 357.47 153.21 357.16 153.33 356.31 150.47 355.59 149.86 355.63 148.17 356.38 147.56 356.43 146.47 356.87 145.51 357.02 144.98 356.68 143.63 356.25 142.39 356.13 140.9 355.59 138.52 355.49 137.14 355.19 136.21 355.15 135.35 354.84 133.35 353.83 131.95 353.38 131.73 353.12 131.09 350.95 130.36 350.46 129.13 351.53 126.98 352.68 125.7 353.93 125.45 354.53 124.75 358.12 125.1 359.35 124.92 359.84 123.18 361.4 122.43 361.23 120.95 360.2 119.74 358.51 117.97 356.59 116.95 354.71 113.86 352.63 113.24 351.99 112.15 350.17 112.03 349.53 112.96 347.42 113.05 345.95 112.85 344.81 114.24 344.75 114.9 344.28 116.28 342.95 117.37 342.53 118.05 343.13 118.7 343.15 119.32 342.77 120.18 341.83 119.3 340.97 119.39 339.78 120.66 338.96 120.91 339.86 121.65 339.71 122.34 338.83 123.26 339.3 123.72 338.61 124.92 337.81 125.03 336.29 124.76 335.71 125.27 333.69 126.18 331.72 127.05 331.02 127.02 330.53 125.57 329.07 124.29 327.61 121.93 326.1 120.35 324.73 119.83 324.63 118.74 324.84 117.37 324.87 116.01 324.51 115.42 323.95 114.74 323.79 113.52 324.44 113.06 325.29 112.82 326.49 112.06 329.27 111.21 329.34 111.25 328.26 110.99 327.94 109.78 328.06 109.24 330.14 109.05 330.1 107.38 327.88 106.22 327.44 105.57 327.77 104.28 326.01 103.24 323.38 102.6 322.74 101.85 321.54 102.14 320.76 103.16 321.52 103.7 321.39 103.34 320.38 102.39 319.88 101.32 319.81 100.08 320.13 99.91 320.74 99.19 321.07 97.77 321.32 97.57 321.88 97.84 322.6 96.9 322.8 96.46 322.46 95.75 321.2 94.83 320.7 93.77 320.6 93.14 321.27 92.07 320.72 91.34 319.15 90.7 319 87.55 319.21 86.32 319.1 85.01 319.25 83.01 317.91 80.66 317.63 79.42 317.69 79.52 317.11 80.44 314.85 82.1 313.08 82.87 312.01 81.88 311.41 82.45 310.39 83.27 309.77 84.34 309.61 84.11 309.15 83.05 309.08 82.94 308.55 84.69 306.88 84.99 305.59 86 304.97 87.38 304.73 88.92 305.05 89.58 305.97 89.68 307.72 88.9 308.24 88.86 308.78 89.7 310 91.26 310.92 91.84 310.94 92.29 309.89 92.01 308.82 91.6 308.58 91.14 309.23 90.66 309.1 91.15 307.87 92.58 307.78 93.46 308.35 93.82 308.23 94.02 307.27 93.01 306.99 93.2 306.28 94.27 306.28 95.01 305.85 95.16 304.96 94.84 303.79 93.99 302.63 93.08 301.04 92.64 299.61 92.17 299 91.21 297.14 90.14 295.94 89.31 294.77 86.97 292.57 87.43 291.94 87.12 291.15 86.64 291.29 86.19 292.51 85.5 292.6 85.08 292.2 84.99 291 85.43 290.51 86.39 290.51 86.44 289.62 85.69 289.04 84.37 290.23 83.59 290.2 83.2 289.42 84.24 288.14 85.61 287.52 87.36 287.66 86.43 286.08 86.47 285.5 88.36 284.52 88.43 285.67 89.34 285.51 90.02 284.03 90.72 283.45 90.66 282.77 88.7 281.58 87.73 281.32 86.49 281.5 84.25 282.48 82.6 283.36 81.47 283.27 80.2 282.43 77.72 281.34 77.45 280.95 77.77 279.99 77.66 279.3 76.94 278.25 75.71 278.52 74.8 277.48 73.78 275.43 73.67 274.75 73.94 274.23 74.87 274.07 75.59 271.82 75.51 271.16 74.33 271.12 74.12 270.45 75.6 270.45 75.88 270.09 76.17 268.18 75.89 267.88 74.13 268.58 73.61 268.53 72.79 267.79 74.36 267.12 73.71 266.24 73.43 265.5 73.04 264.29 73.16 263.9 74.45 262.6 75.91 263.66 77.02 263.89 77.67 263.03 78.17 262.99 78.79 263.66 79.58 264 80.47 263.7 80.86 262.28 81.66 261.71 80.79 261.38 80.32 260.66 80.6 259.36 80.92 258.99 81.77 259.11 82.6 258.82 83.13 257.87 82.86 256.64 84.11 255.67 84.77 254.6 85.67 253.93 86.47 254.41 86.71 256.19 87.25 257.04 88.21 257.05 88.8 257.35 89.01 258.39 89.4 258.41 91.16 257.86 93.47 256.67 94.41 256.78 95.42 257.64 97.35 258.95 98.66 260.42 99.39 260.67 99.29 261.8 101.34 262.09 103.03 261.98 103.67 262.97 104.31 263.23 105.81 262.7 107.02 262.04 109.48 259.84 110.28 258.13 110.41 257.24 109.01 256.94 108.9 255.5 108.56 254.55 108.64 253.87 109.7 253.41 109.79 252.7 109.11 250.3 108.59 250.15 108.05 250.89 107.51 250.7 106.94 249.14 107.54 248.39 107.03 247.33 105.86 245.79 105.91 243.97 106.26 243.14 105.71 242.64 104.85 243.49 104.27 243.3 103.98 241.81 103.29 241.35 102.97 242.58 102.46 242.93 101.78 240.19 102.28 237.96 100.86 237.13 100.94 236.59 101.5 236.38 102.73 237.02 103.21 236.38 103.06 235.04 102.58 234.17 101.92 233.49 101.93 231.7 101.22 231.41 100.65 232.01 100.02 231.79 99.12 230.34 98.86 230.39 98.06 231.99 98.09 232.34 99.26 233.6 99.44 234.46 98.82 234.74 98.19 234.51 96.93 233.6 96.45 232.9 96.97 231 97.98 231.05 97.95 229.7 97.45 228.02 97.94 227.61 98.3 226.5 98.77 226.12 99.83 226.17 100.01 225.3 99.6 225.05 98.25 225.34 97.85 225.05 98.06 221.85 97.52 221.68 96.83 222.37 95.83 222.47 95.75 222.09 97.08 220.63 96.95 220.29 95.63 220.23 95.6 219.09 95.85 218.83 97.8 218.21 98.38 218.74 99.16 219.06 99.51 218.14 98.31 217.32 96.64 216.75 96.67 216.39 98.09 215.48 97.57 215.13 96.44 214.97 95.98 214.48 98.55 213.64 99.8 213.55 100.8 213.08 101.36 213.29 102.31 214.27 104.03 214.98 104.82 214.81 106.21 213.96 106.9 213.05 106.43 211.97 106.42 211.43 106.99 210.58 107.08 209.25 106.5 207.86 106.53 207.45 107.4 207.33 107.63 207 107.16 206.32 106 205.79 103.88 205.53 99.93 205.68 98.85 205.53 96.76 205.7 95.35 206.13 94.29 206.73 93.02 208 92.59 208.59 92.49 209.43 91.42 210.08 90.36 210.05 89.74 211.21 88.88 211.38 87.79 211.09 87.17 211.69 86.31 211.17 86.25 210.37 85.41 209.57 84.99 208.68 84.66 206.73 83.19 204.01 83.03 203.06 83.13 202.24 82.36 202.22 82.89 201.46 82.6 201.09 81.11 200.63 81.01 200.17 81.92 200.05 82.27 199.73 82.32 198.34 81.97 198.05 81.05 198 81.56 196.94 80.41 197.02 80.19 196.3 82.23 195.89 83.06 195.3 83.25 194.61 83 194.23 81.77 194.54 81.54 193.88 83.37 191.72 83.69 190.9 83.36 190.06 82.26 190.15 78.62 189.84 77.7 188.94 76.91 188.78 75.74 188.93 75.68 189.81 74.99 189.77 74.12 189.24 74.6 188.29 74.15 187.61 73.18 188.5 72.32 188.78 71.72 188.59 71.52 187.93 72.12 186.36 73.43 185.48 73.95 185.32 74.37 184.63 70.84 184.28 69.74 184.25 68.57 185.32 68.7 185.64 69.86 185.8 69.96 186.14 69.19 186.56 68.02 186.32 67.12 184.51 66.95 181.86 66.77 181.14 65.96 180.6 65.8 180.14 66.26 179.47 65.35 179.09 63.9 180.04 63.44 179.97 63.22 179.11 63.49 178.58 64.42 178.56 65.03 178.19 64.85 177.66 63.38 177.5 62.95 177.3 63.09 176.46 64.16 175.7 65.48 175.34 66.42 174.82 67.74 173.73 67.58 173.37 66.64 172.72 66.83 172.15 68.49 172.52 68.56 171.44 68.9 171.14 71.47 170.49 72.17 170 72.12 169.55 70.87 169.35 69.89 168.66 69.08 167.66 68.99 167.12 68.15 167.15 66.57 166.66 66.77 165.26 65.32 164.53 64.27 164.49 63.62 163.09 63.37 161.97 63.81 160.78 63.5 160.41 62.8 160.62 61.93 161.47 61.34 161.5 60.45 160.63 60.93 159.86 61.95 160.08 62.79 160 62.99 159.2 60.5 157.32 59.29 155.95 57.79 155.62 57.16 154.82 57.59 154.46 58.65 154.4 58.88 153.86 58.1 153.7 56.87 154.05 56.76 154.76 55.09 155.89 55.56 157.01 56.83 158.74 56.56 159.83 55.86 160.17 55.62 160.78 56.1 161.29 56.04 161.94 55.44 161.98 56.04 164.04 55.75 164.59 55.06 164.7 54.64 165.1 53.27 165.38 53.63 167.01 53.18 167.27 52.19 166.99 51.72 167.37 51.67 168.21 50.98 168.13 49.89 167.06 49.33 166.11 49.29 165.49 49.66 164.38 49.3 163.96 48.34 164.08 47.08 160.86 46.86 159.97 46.29 158.62 46.26 156.58 46.71 154.82 47.72 153.56 47.89 152.5 48.57 152.12 49.55 151.95 51.36 150.71 51.93 151.35 52.5 150.89 53.28 148.79 53.99 148.19 54.46 147.27 54.42 146.78 54.76 143.94 54.22 143.24 53.73 143.08 52.15 143.35 51.12 145.03 49.83 145.86 50.1 146.91 50.87 148.59 50.56 149.33 49.33 149.4 47.33 148.74 43.72 147.2 42.96 147.19 41.75 147.5 41.3 147.29 41.64 146.57 41.69 145.15 41.21 145.06 39.97 145.37 39.26 144.7 38.74 143.65 38.07 143.31 37.03 144.48 36.4 143.59 36.4 142.63 36.13 142.01 35.04 142.33 34.35 142.21 33.99 141.25 32.87 140.38 31.85 138.93 31.44 138.68 31.04 137.79 30.51 133.82 29.85 132.93 29.56 131.92 29.74 130.86 29.67 130.06 29.22 128.92 29.2 127.09 30.04 126.05 29.87 125.54 28.42 125.86 27.73 125.7 27.76 125.12 28.24 124.14 28.75 124.08 29.29 124.52 30.2 124.21 30.24 122.68 29.93 122.07 28.49 121.81 28.4 121.05 29.87 120.76 30.02 120.23 29.65 119.13 30.07 118.55 29.94 117.58 27.97 116.08 26.8 115.42 25.87 115.49 25.82 115.1 26.81 112.51 26.58 111.69 24.89 109.13 23.15 107.72 21.86 107.43 19.85 107.23 18.83 105.5 18.17 104.72 18.04 102.87 17.71 101.3 17.14 100.78 16.05 100.76 15.48 100.98 13.52 101.28 10.99 102.06 10.34 102.02 8.9 101.25 8.35 101.41 7.78 102.12 7.23 101.94 6.88 101.34 6.26 101.42 5.65 102.13 3.84 102.79 2.88 102.91 1.38 101.57 1.31 100.52 1 99.62 1.4 98.37 1.33 97.41 1.01 96.46 1.78 95.68 3.38 94.89 4.78 94.01 6.14 91.67 7.07 90.88 9.08 89.5 10.4 87.93 11.14 87.56 12.62 87.33 15.14 87.24 17.56 87.29 20.04 86.78 23.39 85.77 23.94 85.42 24.38 84.63 24.2 82.64 24.99 82.24 27.6 83.28 28.64 84.07 29.32 84.95 30.15 87.01 30.79 88.24 33.71 92.54 34.28 92.93 36.33 93.94 37.03 94.16 38.42 94.09 40.18 93.76 40.54 93.47 41.86 91.4 42.9 89.35 43.51 87.93 43.89 85.85 43.68 82.85 43.77 80.59 44.24 78.43 44.9 76.85 46.76 73.84 47.22 73.43 48.21 73.33 49.09 73.73 49.99 74.44 51.41 75.04 52.74 75.09 53.39 74.4 53.52 73.36 53.61 70.56 53.89 69.43 54.53 68.57 56.33 67.54 57.25 67.27 59.88 67.19 61.67 66.52 62.93 65.01 64.15 62.17 65.27 60.68 66.61 59.21 68.14 57.34 69.28 56.14 70.8 54.08 71.49 52.47 72.21 48.75 73.02 45.11 73.1 43.08 72.9 42.62 71.72 41.44 70.49 40.5 69.15 39.66 65.74 38 62.48 36.61 60.93 36.86 60.45 38.47 60.65 40.01 61.01 41.07 61.64 42.18 62.15 43.52 61.87 44.54 60.99 45.22 59.17 45.34 57.5 45.2 56.43 44.88 55.38 44.87 52.47 44.46 50.23 43.56 48.81 42.34 48.42 41.15 48.3 38.57 47.94 37.02 47.82 35.88 47.23 34.56 46.24 33.37 45.34 32.9 43.52 32.73 41 33.86 39.31 34.25 37.72 33.73 37.38 33.28 37.34 32.13 38.78 28.8 39.61 27.86 40.71 27.1 42.19 26.68 44.1 26.85 45.34 26.47 46.7 25.8 48.81 24.15 50.09 23.37 51.52 23.01 54.72 22.87 57.59 23.67 59.56 24.49 61.71 24.84 62.33 24.78 63.9 24.08 67.18 22.37 69.08 21.78 72.68 20.97 74.95 20.56 77.43 20.45 79.17 20.68 82.89 21.94 88.18 24.31 90.41 24.97 90.76 25.23 90.59 26.08 88.91 27.83 88.61 28.42 88.71 30.26 88.92 31.62 88.37 33.23 87.02 34.36 85.56 35.8 84.94 36.77 84.69 37.84 84.74 40.75 84.59 42.02 84.13 43.01 82.1 45.56 81.16 46.9 80.34 48.48 79.77 49.89 78.22 54.97 76.95 58.64 77.31 61.3 77.89 62.99 80.17 67.45 81.18 68.35 82.2 68.31 83.21 67.59 84.12 66.5 84.34 65.93 85.22 62.13 86.55 57.87 87.55 55.34 88.53 54.15 89 53.84 90.91 53.04 93.38 51.4 94.71 50.28 95.92 49.49 97.56 48.15 101.24 45.69 102.22 45.86 103.43 47.41 104.54 49.54 106.16 51.94 107.93 54.08 110.26 55.67 111.42 56.9 112.34 58.91 112.95 62.54 113.19 63.46 114.94 67.29 115.37 68.77 116.1 70.59 116.99 72.2 117.73 73.13 119.12 73.84 120.29 73.31 121.18 72.17 121.71 70.08 121.06 67.68 120.88 65.78 121.41 60.92 121.58 58.3 122.06 57.17 124.4 56.65 127.1 56.92 127.89 57.21 130.52 58.49 131.11 59.1 131.9 60.48 132.15 61.61 132.17 65.81 132.37 66.87 132.97 67.18 134.58 66.79 135.5 66.32 136 65.64 141.16 60.6 141.75 60.17 143.08 58.78 145.56 56.63 146.78 55.78 147.62 54.3 148.01 50.99 148.13 50.59 149.38 49.99 151.81 49.1 154.47 48.62 155.87 47.38 157.05 45.92 157.68 44.75 158.64 42.02 159.23 39.85 160.29 36.72 160.5 35.45 160.39 32.91 160.08 29.55 160.81 27.5 162.4 25.26 164.08 23.12 165.6 21.95 167.59 21.36 168.83 21.37 170.22 21.74 170.72 22.03 171.19 23.01 171.13 25.11 170.79 26.7 170.5 30.69 170.65 33.87 170.52 36.36 169.98 39.12 169.83 40.83 169.97 42.57 170.53 44.57 172.18 49.19 172.97 50.27 173.47 50.63 175.2 51.13 176.44 50.55 177.37 49.71 178.24 48.24 178.91 46.09 179 45.18 179.09 39.76 179.41 37.53 179.73 36.83 181.19 35.93 182.8 35.47 184.25 34.92 187.07 33.44 189.03 33.02 190.19 32.99 192.34 33.16 193.22 33.36 195.58 34.19 197.09 34.99 200.69 37.37 201.9 37.65 203.18 37.22 205.71 35.62 206.88 34.61 208.96 32.47 210.71 31.54 212.53 31.43 214.72 31.5 216.53 31.78 219.72 31.61 220.39 31.07 221.57 28.44 222.45 27.17 223.61 26.34 225.94 25.62 228.62 25.61 233.24 26.23 236.32 26.79 238.25 27.46 240.78 28.75 243.23 30.34 244.63 30.96 246.8 32.16 248.38 33.87 250.49 36.98 254.06 40.69 256.57 42.77 259.26 44.52 260.56 45.54 264.13 49.12 265.51 49.97 266.99 50.57 267.95 50.71 269 50.36 270.63 49.46 271.96 47.68 272.48 46.67 272.84 44.23 272.78 42.98 271.99 39.47 271.23 38.59 269.44 37.33 268.36 36.42 267.61 35.35 266.72 33.51 265.19 30.64 264.13 28.94 261.49 26.4 260.91 25.57 260.6 24.64 260.5 23.05 260.53 21.06 260.24 18.47 260.26 15.35 260.54 13.45 260.65 10.45 260.79 9.73 260.69 8.5 260.87 7.48 261.56 7.23 262.64 7.19 264.56 7.41 268.42 8.49 270.58 8.94 272.25 9.12 274.27 10.08 276.37 10.51 277.3 10.26 277.94 9.57 278.7 7.51 279.34 6.49 279.93 5.91 280.93 5.34 282.01 4.98 283.55 4.86 285.25 4.95 288.42 5.69 291.18 6.99 292.62 7.57 294.81 8.29 296.32 8.59 300.96 7.99 303.73 7.85 305.05 7.95 307.22 8.61 308.86 10.11 310.43 11.15 314.1 12.47 315.48 13.09 316.64 13.87 317.4 14.66 318.38 16.54 318.88 17.1 321.16 19.19 321.89 19.98 322.55 21.35 323.48 24.2 323.93 26.31 323.4 27.96 322.72 28.97 322.19 30.24 321.74 33.47 321.8 35.53 321.48 37.4 320.98 38.94 319.18 43.06 318.54 44.89 316.77 46.92 313.82 49.63 308.98 53.68 306.62 55.72 305.95 56.6 304.96 58.53 304.64 59.6 304.64 61.02 305.55 62.76 306.25 63.51 309.31 66.06 310.87 66.77 311.76 66.94 313.41 66.78 315.22 65.68 316.31 64.7 317.26 63.5 318.17 61.34 319.07 58.74 319.48 58.06 320.44 57.22 321.9 56.32 323.4 55.24 324.78 53.98 326.5 51.9 327.55 50.86 329.59 48.55 330.06 47.9 330.82 46.33 331.81 41.12 332.3 39.83 332.74 39.14 334.96 36.73 337.23 34.82 339.2 33.53 342.32 32.24 343.48 30.99 343.96 29.9 344.04 28.74 343.41 27.99 342.22 27.22 340.69 25.94 338.27 23.26 336.71 22.08 335.26 21.37 332.09 20.26 328.22 19.16 327.11 18.63 327.03 17.58 327.6 17.16 329.8 16.54 331.77 16.4 335.9 16.32 336.52 15.96 337.51 14.64 337.71 13.94 340.02 8.9 341.95 6.53 342.88 5.68 347.31 2.62 348.78 1.78 350.36 1.27 352.22 1 352.93 1.63 353.15 2.63 353.02 5.93 353.41 6.94 354.48 8.52 356.13 10.36 356.78 10.83 358.13 11.45 359.13 11.66 361.36 12.4 362.25 12.96 362.5 13.65 362.37 14.72 361.72 15.21 358.94 16.56 357.86 17.47 356.77 18.67 354.55 21.94 353.85 23.5 353.69 25.79 354.28 27.07 355.43 28 356.65 29.18 358.79 31.66 360.96 33.62 361.95 33.48 362.73 32.88 363.5 31.85 364.55 30.81 365.51 30.16 366.54 29.75 370.16 29.32 371.59 28.96 373.11 28.4 376.87 26.21 377.91 25.82 379.2 25.61 382.29 25.71 383.69 25.19 385.52 23.85 386.58 23.53 387.71 23.44 389.2 23.69 391.79 24.3 393.29 24.4 398.5 24.43 399.76 24.51 401.29 25.16 402.68 26.27 404.19 28.32 405.81 29.82 406.42 30.54 406.89 31.61 407.06 34.23 407.56 35.89 408.37 36.07 409.93 35.29 411.97 33.66 412.67 33.21 415.75 30.73 418.98 28.73 419.92 28.67 421.84 29.46 425.65 30.59 428.16 31.16 430.95 31.41 433.85 31.01 436.29 31.18 439.24 31.79 447.53 34.06 448.28 34.82 448 35.98 447.19 36.6 446.89 37.26 447.72 37.84 449.57 37.55 450.9 37.16 453.07 36.7 453.95 37.12 453.81 38.62 453.48 39.58 452.89 40.5 450.59 42.35 449.67 42.95 446.3 46.05 445.32 46.71 445.14 47.14 445.28 48.25 446.28 48.93 447.07 49.11 449.38 49.1 450.67 49.33 451.76 49.8 452.89 50.81 453.89 52.29 454.89 52.99 455.49 53.81 455.47 54.44 454.51 56.91 454.55 58.88 454.95 62.11 455.29 62.53 457.13 64.12 458.85 65.28 460.86 66.08 464.14 67.06 465.01 67.56 466.92 69.11 469.14 70.6 471.03 71.52 472.7 72.46 475.37 73.82 477.29 74.58 480.24 75.39 482.87 75.31 485.18 75.51 485.88 75.42 487.43 74.84 488.19 74.26 488.3 73.86 487.52 71.97 487.46 71.01 487.8 69.43 488.55 67.73 489.3 64.71 489.76 63.27 490.49 61.78 491.96 59.44 493.6 59.41 495.31 59.67 496.48 59.66 497.32 59.95 497.56 60.66 497.24 64.13 497.24 65.42 497.46 67.18 497.44 68.28 497.11 69.5 496.37 71.42 495.94 73.69 495.84 75.51 495.55 77 494.76 78.82 493.33 81.58 492.65 81.66 490.46 81.4 488.42 81.34 486.77 81.41 485.33 81.34 483.64 82.05 482.59 83.04 481.86 84.49 481.71 86.1 482.11 87.34 484.43 91.76 485.12 91.81 485.92 91.25 487.76 89.23 489.56 86.49 490.63 85.33 491.85 84.39 492.98 83.73 497.37 81.59 498.67 81.16 499.62 81.08 500.47 81.79 500.94 82.85 501.7 85.67 501.92 89.08 501.41 91.98 501.15 92.85 499.76 96.52 498.52 99.02 498.53 99.59 499.83 101.7 500.65 103.65 501.18 105.36 501.93 106.9 502.81 107.93 504 110.28 505.42 112.33 506.15 113.16 507.23 113.82 510.07 114.29 513.33 114.52 515.29 114.44 517.35 114.21 518.93 114.21 520 113.83 520.84 112.74 521.89 110.29 522.12 109.13 522.83 108.54 524.92 107.82 527.03 106.74 528.12 106.64 529.34 106.99 530.11 107.4 530.19 108.7 528.43 112.67 528.01 114.07 527.98 115.64 528.3 117.04 529.12 118.4 529.62 119.81 529.77 120.91 529.77 122.94 529.99 124.57 530.63 126.64 532.11 130.32 532.86 132.01 533.5 133.09 535.54 135.04 536.24 135.38 537.57 135.66 539.03 135.25 540.28 135.33 542.9 137.57 544.78 138.69 545.64 139 547.71 139.48 548.97 139.65 550.52 139.67 552.54 139.18 555.15 137.93 555.69 137.45 555.7 136.69 553.57 131.77 553.03 128.44 552.77 124.88 552.75 123.34 553.02 121.23 553.54 120.18 554.78 119.45 555.79 119.8 556.91 121.15 557.08 122.56 556.55 124.73 556.66 126.23 557.59 128.06 558.67 129.61 560.01 133.52 561.15 138.07 562.29 140.64 563.86 143.85 565.52 146.29 566.5 147.29 567.69 148.08 568.77 148.37 570.15 148.35 572.38 148.12 574 147.45 574.99 145.43 575.66 144.56 578.34 141.84 580.9 137.13 581.59 135.51 581.25 134.62 580.1 133.59 577.26 132.28 575.36 131.95 573.98 131.98 569.31 133.32 568.26 133.07 567.42 132.15 566.78 130.7 566.74 129.72 567.07 128.49 567.68 127.76 568.91 126.84 569.3 125.98 569.28 125.15 569.54 124.23 570.43 123.31 571.53 122.82 572.81 122.63 573.76 123.01 574.41 123.94 575.99 125.26 577.75 125.89 579.82 126.81 580.94 127.52 581.58 128.49 581.97 129.68 582.39 132.05 582.89 133.41 583.31 134.08 584.24 136.29 584.52 137.41 584.57 138.47 585.01 140.01 585.3 140.39 587.28 140.81 587.77 141.06 588.69 143.13 589.51 144.19 590.77 145.11 592.2 145.54 593.47 145.66 595.69 145.24 597.72 145.15 599.61 145.62 601.13 146.48 604.14 149.99 604.71 150.49 605.55 151.9 605.82 152.7 606.97 154.3 607.07 155.57 606.54 157.12 606.51 157.76 607.17 161.22 607.01 162.65 606.15 165.85 605.75 167.92 605.59 169.6 605.66 172.27 606.2 174.3 606.76 174.99 607.62 175.08 612.88 173.88 615.64 173.56 616.45 173.54 618.2 173.23 618.97 173.73 619.69 174.91 621.02 176.64 622.07 177.76 622.79 177.95 625.59 178.21 628.51 178.01 633.11 176.98 634.66 177.71 636.73 179.05 638.02 180.1 638.65 181.18 637.98 182.91 635.87 186.54 635.45 186.86 632.76 188.16 631.71 188.96 630.15 190.74 627.44 193.16 625.57 194.45 623.34 196.39 622.07 197.24 621.97 198.29 622.43 199.53 624.32 203.59 625.08 205.1 626.62 207.34 630.15 211.32 632.56 213.9 634.72 216.08 635.24 216.28 635.97 216.05 637.24 214.91 637.76 212.73 638.34 211.98 639.47 211.21 642.95 209.61 644.02 208.9 644.57 208.32 647.65 204.03 649.31 202.13 650.22 200.94 651.49 198.75 652.35 196.88 654.2 193.97 655.1 193.45 655.93 193.5 656.72 194.2 657.79 195.6 659.92 197.2 660.84 197.77 663.35 198.17 666.43 199.04 669.13 200.13 672.39 203.2 672.95 204.34 672.97 205.22 672.72 206.77 672.3 208.12 672.29 208.81 672.76 209.6 673.57 210.48 675.04 211.61 677.26 213.49 679.97 215.21 681.31 217.19 681.77 219.35 682.41 221.66 683.16 223.27 683.99 223.82 684.91 224.07 688.97 223.96 690.5 223.97 692.49 223.52 693.73 222.82 696.24 221.91 700.37 221.64 701.51 222.19 702.13 223.92 698.59 228.46 697.22 229.64 694.77 231.07 691.54 231.78 689.01 232.48 687.57 233.26 684.4 236.65 682.71 237.82 682.37 238.36 682.36 239.42 683.62 239.93 686.92 239.45 689.14 238.98 691.84 238.2 692.85 237.71 695.54 235.97 696.41 235.96 698.59 236.74 699.74 237.49 701.37 239.32 702.5 240.84 704.39 243.15 705.23 243.04 706.5 241.79 706.87 240.29 706.56 239.44 705.26 237.19 704.76 235.19 704.8 234.3 705.54 233.31 706.5 233.1 707.27 233.15 710.24 233.98 711.36 234.98 712.37 236.97 713.92 239.59 715.24 241.28 717.79 243.47 718.3 243.53 719.01 243.03 720.4 239.5 721.3 238.03 722.01 237.54 723.59 236.78 724.71 236.45 726.06 236.33 731.74 236.42 732.47 236.88 733.08 238 733.15 238.98 732.5 241.03 731.71 244.02 731.76 245.01 732.64 245.52 736.06 246.24 738.08 246.41 738.83 246.89 739.04 247.85 738.61 249.21 737.36 250.8 735.4 252.12 734.92 253.11 734.95 254.74 735.29 257.9 735.45 260.71 735.43 263.83 735.79 264.8 736.64 265.66 737.3 266.02 739 266.43 742.76 266.97 745.52 267.06 746.59 266.67 748.66 264.75 751.17 263.19 752.93 261.48 753.78 260.48 755.36 258.94 756.05 258.63 757.67 257.17 758.05 256.3 758.41 254.41 758.08 253.54 756.85 252.57 755.49 251.87 754.85 251.09 754.82 250.27 756.96 247.61 757.37 246.51 757.26 245.73 755.07 243.93 754.54 242.79 754.5 241.96 755.64 241.09 756.64 240.73 758.15 240.44 759.06 240.65 760.6 241.4 762.67 242 763.95 242.63 764.72 243.4 764.97 244.68 765.02 246.72 763.32 249.34 763.64 250.5 764.13 251.08 765.87 251.54 766.85 252.11 768.28 253.8 769.07 254.54 769.52 255.98 768.72 257.78 768.14 258.73 767.42 259.52 766.83 260.73 765.87 261.56 764.74 262.14 763.34 262.41 761.28 262.54 759.63 261.62 758.68 261.9 757.67 262.59 756.88 263.42 756.87 264.79 757.33 265.67 758.61 265.82 759.32 265.33 760.39 265.31 763.51 266.33 765.31 267.09 766.38 267.79 769.2 269.15 769.87 269.79 770.62 271.24 772.09 272.1 772.33 273.76 772.72 274.31 773.78 274.68 775.9 274.94 777.91 274.61 780.05 273.37 780.48 272.1 780.22 271.13 779.55 269.98 779.76 268.8 780.61 267.63 781.04 265.98 781.48 264.97 782.31 264.3 783.57 263.78 785.16 264.01 785.44 265.12 785.44 266.91 785.2 268.39 785.44 270.52 786.26 271.68 787.31 272.07 790.81 272.1 791.8 271.59 792.03 270.45 792.6 269.7 794.02 269.26 795.65 269.35 796.05 269.51 798.15 272.12 798.62 273.13 798.73 274.53 798.64 276.35 798.3 279.04 798.48 282.01 798.86 283.7 799 286.54 798.83 289.01 Z"/>
</g>
</svg>