<?xml version="1.0"?>
<svg xmlns="http://www.w3.org/2000/svg" version="1.2" baseProfile="tiny" width="800" height="467" viewBox="0 0 800 467" stroke-linecap="round" stroke-linejoin="round">
<g id="4210506">
<path d="M 659.33 111.18 660.28 113.89 662.46 117.89 665.34 121.22 670.66 121.79 675.04 117.15 676.94 118.74 677.71 120.49 677.35 126.51 676.19 127.99 677.11 130.56 677.19 132.73 675.5 136.18 673.65 137.72 672.42 139.69 672.91 144.5 675.62 147.27 678.15 147.33 683.11 144.51 684.24 144.86 684.59 147.44 685.48 148.04 688.02 146.96 690.89 147.85 693.32 147.39 696.61 145.12 702.8 142.55 705.97 140.74 709.59 139.23 715.14 138.04 718.27 139.53 721.82 139.22 723.33 137.87 724.3 135.34 725.41 134.89 727.25 136.67 729.42 136.58 731.73 137.32 731.34 140.16 731.84 141.26 738.08 142.81 739.77 144.26 743.02 143.9 744.27 145.33 744.59 148.93 744.34 152.97 744.97 157.87 743.28 161.48 743.17 164.51 744.42 167.45 744.59 171.97 743.56 175.85 739.6 177.27 733.45 176.36 730.15 178.04 728.17 177.48 726.03 178.4 726.04 180.47 727.77 184.11 729.89 185.9 736.02 188.79 740.71 192.3 742.68 192.82 746.17 192.84 749.41 192.29 752.14 193.08 756.89 195.11 758.06 196.39 760.7 201.27 760.48 207.45 759.68 209.63 749.53 221.48 748.21 222.38 745.9 222.34 742.81 220.69 737.77 215.82 734.1 213.5 732.86 213.5 732.54 216.49 729.9 219.5 726.14 223.03 729.16 229.6 733.81 234.09 736.37 236 740.43 237.73 752.31 241.3 755.08 242.85 758.46 245.75 759.55 247.88 759.02 250.8 759.16 254.74 759.87 255.96 763.49 257.83 766.21 258.11 768.83 257.49 771.86 256.1 775.62 257.22 776.08 259.15 779.79 260.46 781.7 261.72 779.75 263.03 779.87 264.86 782.43 267.08 788.58 266.99 791.27 266.15 795.27 267.48 796.62 270.67 798.27 272.67 799 277.23 798.98 281.42 797.82 284.4 795.32 284.84 789.98 284.61 785.14 285.15 783.67 285.85 780.43 288.88 777.97 292.37 777.65 294.91 776.06 298.26 775.98 299.79 777.17 302.47 783.19 305.42 779.49 305.97 775.26 305.62 771.95 304.71 769.83 306.05 766.31 306.72 762.34 304.74 760.69 304.53 758.13 305.37 749.93 309.15 746.9 309.85 743.17 309.89 739.34 312.53 737.87 312.85 733.31 310.9 729.21 311.45 727.13 310.99 725.15 313.11 722.16 314.17 719.78 316.85 718.24 320.6 715.42 321.69 709.39 331.62 707.56 332.69 706.92 335.43 704.99 337.55 704.87 340.71 703.19 345.03 668.28 350.1 670.29 352.81 670.75 356.24 675.34 358.3 676.1 361.34 678.82 362.88 678.38 364.78 675.21 365.94 674.17 367.91 670.14 370.78 668.5 372.7 668.63 374.66 671.89 377.32 675.25 377.3 678.78 379.19 682.15 379.83 684.04 383.31 684.98 386.64 684.09 391.72 682.2 394.02 681.06 396.76 677.63 399.69 676.87 403.24 673.09 410.21 670.96 413.33 673.26 413.86 674.79 416.59 674.91 419.3 676.11 423.61 678.03 426.15 680.19 429.89 683.88 433.41 687.76 438.58 645.09 444 644.18 443.25 640.88 442.76 640.13 441.62 635.29 438.13 633.53 435.84 626.47 436.21 624.55 435.35 623.58 436.8 620.31 434.75 616.69 433.99 614.45 434.35 611.74 433.11 606.19 431.26 602.15 428.42 599.36 422.91 596.63 421.81 594.91 421.99 586.73 421.47 584.95 422.27 581.21 421.52 579.82 419.16 578.32 418.86 576.22 419.68 571.91 417.46 568.4 416.39 567.22 414.78 559.31 414.08 553.82 411.47 519.93 429.47 516.8 428.08 515.63 424.95 512.83 424.07 507.78 423.7 504.28 424.83 502.15 423.76 499.6 424.81 497.16 424.55 494.07 423.4 491.54 423.51 485.89 425.23 483.14 425.66 480.84 427.34 477.24 428.47 473.5 428.56 472.44 429.81 466.12 429.87 462.09 431.8 459.69 432.09 457.73 435.22 454.91 433.95 452.4 432.12 452.65 430.96 451.37 428.4 444.69 424.86 440.09 425.87 436.7 423.08 432.76 425.88 426.37 424.72 421.92 422.61 419.55 420.91 419.01 419.5 416.13 417.13 414.32 416.48 408.43 412.91 405.7 412.19 404.48 413.72 401.69 415.17 399.1 413.84 396.41 414.42 394.4 417.96 392.98 419.02 390.21 418.79 385.12 415.96 381.49 415.46 380.57 416.42 379.68 419.97 377.47 419.95 375.92 422.97 375.63 426.89 376.89 431.29 376.22 435.68 374.14 436.51 370.9 433.95 369.06 431.02 367.73 426.69 359.76 420.61 358.45 420.88 357.88 424.23 356.16 427.74 354.83 432.9 353.64 432.92 350.9 430.64 347.94 429.64 346.77 428.15 346.2 424.96 345.33 424.07 342.62 424.32 340.26 423.24 333.49 421.88 331.72 420.93 330.35 419.09 328.46 418.02 325.91 420.89 325.55 424.83 327.77 427.41 329.45 430.67 329.74 432.76 332.42 434.25 334.24 438.92 333.42 442.17 330.88 443.78 328.33 446.41 326.53 447.16 321.12 447.95 318.72 447.59 316.78 445.78 310.72 445.54 307.2 442.64 306.12 442.44 302.61 444.17 298.03 442.03 294.76 439.48 292.3 438.92 290.45 439.29 285.93 441.63 282.5 442.73 276.63 446.26 272.77 447.9 273.79 451.54 273.43 452.67 271.06 455.1 271.08 458.08 267.45 463.65 266.62 465.59 265.19 466 261.85 464.72 261.07 461.93 258.59 459.33 255.02 457.83 250.38 454.29 245.34 454.85 240.71 454.85 239.17 456.02 229.96 442.38 210.33 401.36 210.65 409.59 210.03 417.4 209.44 418.81 206.68 421.62 204.05 423.03 201.53 422.13 195.99 418.72 195.09 417.72 193.95 413.99 191.99 412.97 186.8 408.05 182.74 405.14 178.4 397.32 174.84 396.13 173.51 395.15 174.37 391.77 172.87 388.56 170.17 386.18 170.37 383.63 169.15 381.87 166.57 374.66 163.73 370.41 162.85 368.14 156.09 369.05 152.81 370.7 151.17 372.49 148.65 377.33 143.37 379.3 140.02 379.9 131.26 378.76 129.58 378.27 105.92 338.79 36.51 348.75 36.34 346.08 35.41 343.5 36.03 339.31 35.69 337.62 37.01 333 36.36 332.26 36.6 325.09 36.01 320.84 37.01 316.48 36.13 311.32 34.48 308 32.12 306.01 31.38 302.58 30.62 301.39 30.6 298.56 28.74 289.91 24.69 288.48 20.92 284.68 18.61 282.91 15.29 281.56 10.85 281.71 7.03 280.79 1 277.76 5.01 272.03 32.33 240.24 33.06 237.12 31.96 235.6 26.26 232.58 24.58 230.42 25.21 226.12 27.2 223.27 27.09 217.01 29.27 215.26 33.64 215.26 35.17 215.75 38.24 219.5 42.83 222.82 45.01 224.98 48.01 225.61 49.66 224.74 52.92 220.56 53.17 216.59 55.44 210.35 57.01 208.52 61.57 207.23 63.07 208.09 45.65 180.61 47.1 177.3 52.2 171.21 54.66 169.64 58.35 168.37 67.23 167.61 68.89 166.98 67.73 164.67 69.26 162.43 70.12 158.43 71.36 154.87 72.68 152.88 76.21 149.75 78.74 148.08 83.95 146.22 87.02 145.96 93.77 147.39 97.36 147.11 101.47 145.26 106.96 144.19 109.74 141.35 112.96 135.88 116.92 130.69 119.96 128.41 125.04 125.4 126.19 124.14 126.15 118.37 125.61 115.64 123.85 112.27 123.62 110.02 124.23 105.86 125.08 104.33 127.9 102.17 130.98 101.13 137.01 100.49 139.22 100.89 146.04 103.21 149.16 104.58 152.11 103.66 159.37 99.76 166.14 97.18 171.15 94.85 174.83 94.25 180.14 94.5 186.27 94.03 257.87 114.22 258.93 112.34 262.8 109.45 272.14 107.25 274.2 107.06 278.3 105.51 282.43 101.85 286.88 102.58 290.78 105.14 293.81 109.79 298.92 114.21 300.18 116.42 301.83 120.82 303.98 122.45 308.81 123.37 312.24 128.11 318.88 134.24 322.88 134.69 325.23 133.82 332.15 132.82 342.92 129.5 345.7 129.24 349.08 129.76 351.61 130.89 354.41 130.62 359.48 128.77 365.96 124.52 371.07 122.04 373.74 119.59 376.26 114.05 380.22 108.99 383.45 100.31 387.08 93.78 390.05 91.51 395.42 89.89 397.64 87.71 398.11 84.27 399.49 82.35 406.36 78.99 407.39 77.21 407.06 75.32 404.12 70.56 401.53 63.43 401.82 61.99 404.31 59.49 405.01 57.08 403.87 54.45 404.09 52.54 406.47 47.76 407.05 45.63 406.86 41.22 407.74 38.38 410.82 34.08 416.71 29.6 473.94 1 479.45 52.88 484.92 53.86 486.07 57.02 490.06 60.29 491.75 62.19 494.31 62.62 498.25 65.21 499.25 67.08 500.82 67.79 502.71 70.03 518.3 102 534.56 86.5 536.98 88.44 539.71 89.78 541.66 92.28 541.7 94.5 543.8 98.49 544.1 101.99 543.64 107.26 567.63 111.89 570.88 113.89 573.6 114.96 575.31 116.8 581.21 116.79 583.36 118.53 585.44 117.8 589.05 118 591.58 117.02 593.67 117.44 597.07 119.75 598.76 119.97 602.83 123.08 605.37 122.66 611.43 123.78 613.4 124.78 615.02 127.89 616.45 129.4 618.83 127.94 622.42 128.28 624.42 129.31 626.29 128.75 632.09 125.24 634.93 122.67 637.9 120.96 641.92 117.66 644.04 117.91 645.44 116.98 650.02 116.57 651.19 115.52 654.54 114.87 656.39 112.19 659.33 111.18 Z"/>
</g>
</svg>