<?xml version="1.0"?>
<svg xmlns="http://www.w3.org/2000/svg" version="1.2" baseProfile="tiny" width="800" height="1359" viewBox="0 0 800 1359" stroke-linecap="round" stroke-linejoin="round">
<g id="4210308">
<path d="M 638.22 66.86 640.56 66.61 642.76 68.7 643.9 70.79 643.01 73.17 643.84 75 648.94 78.84 649.31 79.94 647.73 80.53 643.97 80.04 642.97 80.9 643.42 82.33 643.07 84.45 644.37 87.74 643.2 88.52 642.02 87.34 640.44 87.83 640.65 91.11 642.34 93.02 645.96 93.68 646.67 94.47 645.52 97.96 646.92 99.82 650.13 96.75 650.3 95.02 649.29 93.17 649.32 91.9 650.79 91.62 653.01 93.73 653.88 93.69 655.59 91.81 657.18 89.1 658.44 88.93 659.19 93.12 656.87 96.39 657.77 98.07 660.63 98.68 662.45 99.63 662.2 100.86 660.12 101.15 657.69 102.44 657.18 103.48 658.45 106.27 658.51 108.33 660.51 108.64 662.23 107.11 663.47 107.48 662.48 109.95 662.55 112.76 663.48 115.08 665.06 117.27 663.53 119.12 658.42 122.69 658.09 124.36 660.68 125.01 662.03 125.95 661.45 130.16 659.61 130.47 657.13 128.37 656.82 126.68 655.32 126.82 655.65 128.98 653.41 132.27 652.32 135.56 651.24 136.15 649.72 135.58 648.34 134.26 645.88 134.28 644.33 135.37 641.23 138.69 638.37 141.38 637.38 143.55 637.17 146.03 639.26 148.06 640.35 151.36 641.67 154.25 642.78 155.33 643.89 154.3 643.57 149.36 645.25 148.72 647.35 149.41 650.54 149.65 651.66 150.14 651.87 152.62 650.37 153.63 647.61 154.62 647.07 155.47 648.47 157.02 651.43 156.8 651.6 157.87 650.33 160.56 649.31 161.35 645.99 161.45 644.59 163.29 642.3 165.07 641.26 166.57 641.95 167.69 645.72 167.38 647.72 168.12 647.4 169.17 645.51 169.88 643.28 170.06 642.62 171.72 646.87 174.13 648.82 176.21 648.05 177.46 645.43 178.18 644.44 177.46 643.12 174.63 641.6 174.22 640.94 177.42 643.22 179.08 643.59 180.71 640.23 183.77 636.18 185.58 634.08 185.69 633.53 186.76 636.23 189.49 637.64 190.35 639.48 190.18 640.99 187.9 642.47 187.5 643.37 188.99 642.9 189.98 638.94 192.26 638.09 194.42 640.13 194.82 642.23 192.47 644.54 192.65 647.2 193.78 648.31 195.96 647.73 197.18 646.2 196.85 645.1 194.34 643.31 194.77 641.57 198.12 635.9 203.39 635.7 204.94 638.37 205.55 640.29 206.78 639.19 208.08 634.59 208.19 633.2 209.66 634.02 210.59 637.51 211.87 640.86 212.51 641.48 213.82 640.08 215.57 638.96 216.01 636.04 215.75 633.38 214.69 632.29 215.32 631.79 218.14 632.9 220.59 634.6 221.09 636.36 220.16 637.76 220.84 636.78 225.04 634.6 227.14 634.67 229.27 635.87 230.8 638.97 231.36 640.04 232.49 638.77 234.86 634.48 238.97 630.53 243.91 631.68 247.58 631 251.64 627.54 259.41 626.41 261.4 625.82 263.83 624.31 264.78 621.3 263.67 620.19 265.38 620.74 267.82 622.33 271.23 626.05 276.38 628.96 282.09 631.19 287.35 634.97 291.96 636.91 295.79 639.8 299.68 641.85 303.05 646.37 311.57 648.8 315.61 650.67 319.88 651.63 323.61 653.68 328.1 653.58 329.27 648.7 335.53 646.52 339.49 641.23 346.3 638.96 349.91 634.9 352.44 634.51 355.02 630.88 357.57 628.69 360.84 623.72 362.34 621.19 363.97 621.99 366.42 621.5 367.79 617.47 367.17 615.09 367.79 612.86 369.5 611.34 371.69 612.14 376.43 612.71 377.81 614.03 378.82 614.93 380.61 616.04 385.51 617.51 389.55 619.67 392.61 621.17 393.79 625.04 394.26 628.47 395.07 631.5 393.22 632.91 393.35 635.32 394.46 636.32 396.94 634.59 398.92 631.29 400.39 630.14 402.06 630.69 403.91 633.17 404.43 633.4 403.05 634.7 402.47 636.07 403.35 638.07 402.87 637.92 399.71 640.08 398.28 642.97 400.04 644.03 399.24 644.21 397.58 645.58 396.79 646.44 397.87 646.6 400.32 648.06 401.72 649.28 401.63 651.13 399.69 649.5 397.3 653 395.47 655.97 394.69 657.58 395.31 658.08 396.88 659.63 397.65 661.38 395.45 661.41 393.25 659.01 391.2 654.38 389.92 653.59 388.86 654.05 387.47 657 387.96 658.44 387.8 660.19 386.08 666.17 384.52 667.29 385.73 663.57 388.72 663.59 391.59 665.14 392.01 666.21 390.44 668.1 393.14 669.16 393.08 670.38 391.62 671.49 391.48 674.4 394.55 675.58 393.85 673.86 392.58 673.53 390.99 675.84 387.84 675.52 386.5 671.56 387.53 669.55 387.44 669.4 385.92 670.92 382.26 672.53 381.13 673.7 381.76 676.16 384.59 677.94 385.37 678.66 384.26 679.1 380.78 677.48 379.21 678.31 376.31 676.73 374.79 674.29 374.12 675.2 372.91 681.56 374.04 682.29 372.92 680.13 369.06 679.71 367.11 680.62 364.9 681.8 365.5 681.17 367.57 682.26 368.25 683.72 366.92 687.23 367.36 687.74 366.19 689.15 366.03 690.79 367.78 692.82 366.55 694.26 367.32 694.13 369.4 695.77 370.47 696.68 368.22 697.98 368.49 697.97 370.33 699.22 372.51 699.43 374.12 697.19 375 694.37 372.73 692.64 373.26 691.56 375.19 692.12 376.21 694.53 376.13 695 377.62 694.34 379.57 691.73 380.73 688.15 383.22 687.85 384.87 685.57 387.4 684.17 390.91 685.02 391.87 688.1 391.46 688.74 393.41 686.68 394.9 685.38 398.15 686.83 398.55 689.09 396.39 690.4 395.98 693.19 396.81 693.75 397.81 693.64 400.64 692.48 401.04 690.95 400.28 684.51 402.9 685.24 404.97 684.84 406.13 682.97 407.07 681.56 409.19 679.07 410.75 675.79 411.92 673.41 413.28 672.27 416.06 668.58 417.73 669.56 419.2 673.62 419.5 675.09 420.19 674.55 422.4 671.51 422.72 669.73 424.59 671.05 425.32 674.48 425.3 675.42 426.72 674.99 429.59 673.97 430.24 670.15 429.91 669.58 431.51 671.07 434.63 672.39 438.29 675.8 440.11 675.85 442.44 676.98 444.11 677.79 447.16 678.56 448.36 681.88 451.44 682.64 452.71 682.11 456.61 682.79 457.15 685.69 457.28 686.8 458.91 686.55 460.47 684.21 464.03 684.51 466.69 686.63 467.51 688.29 465.9 689.68 465.69 690.53 467.05 689.52 468.85 685.48 470.82 685.28 471.77 687.77 472.51 688.19 473.99 687.59 475.09 685.71 475.74 684.48 477.07 685.51 480.5 685.17 481.33 683.88 483.17 682.04 486.75 681.74 489.3 679.07 491.98 681.01 493.52 680.36 497.33 682.57 497.92 684.72 496.49 687.73 496.89 689.78 495.72 691.49 495.55 693.65 496.31 694.22 498.43 693.2 499.04 688.3 498.46 687.54 499.75 690.24 502.55 691.57 503.19 692.33 505.21 689.07 505.62 688.62 507.51 686.19 510.78 685.71 514.02 681.6 514.74 681.29 516.54 683.18 517.37 684.9 520.31 683.76 522.19 681.55 520.47 679.25 519.71 677.03 520.71 677.51 522.26 680.48 522.14 681.12 523.74 680.18 526.61 682.67 528.89 681.3 531.67 681.4 532.42 684.13 533.73 685.3 536.79 686.94 536.58 688.48 534.96 690.72 535.25 692.59 538.87 691.33 540.97 696.08 544.18 695.42 545.17 693.65 544.51 692.62 545.76 693.33 547.96 690.6 550.73 687.26 552.95 687.25 556.13 683.67 557.97 683.99 559.07 686.45 559.54 687.86 560.59 688.82 563.23 689.39 566.71 690.03 567.75 692.61 567.87 692.28 565.33 694.1 561.43 695.06 560.67 696.32 561.42 697.75 564.66 695.51 567.51 696.78 568.6 700.21 565.34 701.61 565 702.19 566.3 699.34 567.77 698.67 569.63 700.1 570.12 702.51 568.55 704.08 569.82 701.82 570.59 700.88 571.74 702.57 573.31 704.68 572.48 706.64 572.5 708.81 573.43 709.05 574.79 707.14 574.88 706.91 575.95 708.13 577.91 710.59 578.97 711.93 580.29 713.11 582.72 710.56 586.02 709.61 586.66 703.78 588.21 701.71 590.46 702.57 591.12 704.86 591.1 705.02 592.16 702.83 592.75 702.63 593.77 703.96 595.06 703.83 596.87 701.82 598.22 701.07 600.47 706.66 600.97 709.22 602.37 708.97 604.28 706.91 604.44 704.99 605.89 702.74 606.61 703.43 608.02 705.47 608.86 706.14 610.79 704.96 612.51 705.7 614.47 704.79 616.66 705.68 618.01 708.4 619.73 709.71 621.3 710.52 626.4 710.98 631.96 712.18 632.54 714.96 631.13 716.32 630.86 719.11 631.65 720.94 629.74 721.95 630.8 720.64 631.64 720.48 632.91 723.33 634.79 723.24 636.1 719.44 637.36 720.41 639.76 722.9 639.77 725.41 637.12 726.69 637.04 728.07 639.11 729.75 639.14 730.6 641.53 733.2 642.53 734.67 643.57 735.39 645.42 737.13 643.17 741.67 643.47 744.2 644.69 744.13 646.92 741.41 648.56 741.37 650.25 743.93 651.93 744.06 653.46 743.26 655.01 743.74 655.98 747.08 656.45 748.53 655.56 749.46 653.41 752.34 654.71 752.3 652.72 754.22 653.01 756 652.27 757.57 650.86 759.25 650.18 759.21 647.74 757.17 645.35 757.54 643.61 759.3 643.89 759.76 645.72 761.8 646.86 763.95 645.57 765.53 641.81 767.65 641.72 767.29 644.59 766.16 648.24 766.24 649.87 767.19 651.01 768.71 650.91 768.85 649.5 767.75 647.21 769.52 645.34 771.96 644.95 771.21 646.77 771.52 648.09 773.8 649.11 774.11 651.51 773.58 652.76 772.01 653.94 772.39 655.31 774.04 656.84 774.03 658.05 772.48 660.85 772.92 661.99 774.64 661.83 777.32 659.68 778.54 660.66 777.05 662.64 773.49 664.98 774.54 666.46 776.34 665.26 779.57 667.53 781.77 667.96 783.08 666.24 784.18 666.74 782.68 669.15 784.56 670.18 787.65 668.32 789.24 668.52 789.41 670.26 786.43 671.75 786.12 673.22 787.35 673.81 791.56 677.14 793.08 679.76 794.67 683.82 794.6 686.14 796.09 688.06 795.92 688.87 793.7 690.61 794.47 691.62 797.45 692.67 798.53 693.64 799 695.32 798.6 698.13 797.08 700.03 795.02 701.61 794.76 703.58 795.82 705.11 797.89 706.27 798.3 707.14 793.17 708.22 787.42 707.58 785.92 708.91 786.98 709.68 789.24 709.64 791.04 709.03 792.17 710.51 789.33 710.81 787.34 713.24 784.55 713.69 783.86 714.83 785.95 715.51 786.22 716.4 784.53 720.15 783.36 721.91 781.54 723.03 781.16 724.85 783.53 729.41 784.87 730.61 787.77 732.06 790.66 734.4 792.78 736.52 792.9 737.47 790.72 738.39 791.01 739.52 792.62 740.87 793.05 743.64 791.77 743.7 791.47 741.64 789.87 741.79 787.55 741.12 785.93 739.48 784.83 739.67 783.77 742.81 784.07 746.54 777.64 748.46 777.44 750.11 780.59 750.62 781.74 751.79 783.64 756.76 783.15 757.72 779.76 759.72 777.65 762.36 775.31 762.46 769.96 760.88 768.05 759.91 765.95 758.23 762.45 758.06 755.34 760.4 753.84 762.2 750.94 764.86 751.24 767.04 749.86 771.11 751 772.66 753.72 772.47 753.43 775.52 752.33 776.1 751.43 773.78 748.58 770.89 746.38 766.37 744.2 764.4 739.81 768.34 734.44 768.01 733.57 770.34 732.49 770.52 730.48 765.58 728.41 766.72 726.39 767.1 726.11 765.55 728 762.33 730.68 761.88 732.14 760.88 731.02 759.45 728.11 758.48 727.8 759.75 726.04 760.79 723.43 759.83 721.33 759.76 719.03 762.01 718.84 759.88 716.63 759.9 715.21 760.93 714.71 759.27 712.69 760.06 709.03 759.17 710.27 756.81 707.99 755.81 707.54 754.33 709.93 754.67 711.21 751.39 711.48 747.88 710.82 743.67 709.93 742.65 705.68 739.81 702.53 739.65 700.71 740.06 696.84 739.88 696.34 741.48 698.67 742.3 698.03 743.85 694.72 743.19 693.06 742.5 692.55 744.74 691.22 743.97 688.22 744.42 686.02 745.14 684.66 746.64 679.22 746.51 679.62 748.07 676.6 749.95 675.43 747.93 673.51 747.32 672.45 749.94 673.62 750.73 673.65 754.54 676.57 756.83 674.66 757.02 676.54 759 673.8 759.6 675.85 761.75 680.04 762.33 679.28 764.17 677.92 762.91 676.02 763.15 675.32 764.12 676.99 765 676.05 767.31 678.03 769.85 676.91 771.76 676.06 771.68 674.58 768.93 672.6 768.87 673.34 772.17 674.31 773.68 677.72 773.2 677.13 774.48 679.25 776.43 678.53 776.9 676.4 776.1 676.21 781.42 675.27 782.01 673.65 780.85 671.72 782.66 666.27 783.18 663.46 783.8 661.86 781.98 660.4 781.14 659.67 781.98 659.34 784.83 655.49 789 653.83 788.43 654.99 787.1 653.57 785.49 651.11 786.13 651.3 788.86 649.14 789.3 646.78 786.84 648.7 784.47 647.21 783.43 644.91 784.24 643.48 785.29 641.36 784.12 639.68 785.03 637.01 783.7 635.56 784.66 633.68 784.52 632.11 785.76 630.59 785.37 628.07 785.8 623.95 787.25 624.96 788.44 624.41 789.81 622.38 790.86 621.04 787.92 617.05 788.77 612.47 791.41 611.97 792.48 608.15 796.25 608.42 797.29 610.8 797.03 612.26 800.61 612.02 802.51 611.1 802.66 610.81 800.26 609 800.77 609.37 803.11 609.12 804.84 610 806.31 607.93 807.95 611.36 807.99 611.88 808.86 610.69 813.43 614.3 813.94 613.93 815.7 612.21 815.62 609.93 817.38 610.92 818.96 613.06 817.42 614.32 817.82 614.03 819.99 611.58 822.25 609.09 820.71 608.1 822.77 606.62 822.41 604.74 822.83 603.69 821.97 603.37 820.49 598.92 819.25 595.43 818.94 595.74 820.36 593.59 823.02 590.61 823.36 590.92 824.66 592.24 825.43 591.62 826.56 589.15 826.2 587.63 825.21 584.63 827.36 583.14 829.64 584.75 831.08 583.52 835.45 587.16 837.23 586.64 839.21 584.51 840.02 583.94 842.53 580.57 841.85 580.28 842.78 575.41 845.17 573.87 847.04 571.35 847.83 570.51 845.3 568.72 845.24 567.93 843.93 568.99 842.6 567.99 841.91 565.5 842.24 563.59 841.24 561.44 837.62 557.63 836.65 557.59 835.17 556.45 834.9 555.47 836.06 551.92 834.45 551.78 829.45 549.27 827.2 548.41 828.25 546.49 828.32 545.79 830.53 543.66 829.3 541.47 828.73 536.99 828.14 535.66 829.19 537.33 831.11 537.09 833.3 533.98 835.37 533.61 833.57 529.72 835.18 528.21 834.76 527.42 832.85 524.15 833.87 520.65 833.33 521.5 831.03 518.89 830.54 518.14 831.06 514.11 830.69 513.95 833.48 512.2 832.59 510.5 832.98 511.09 836.61 510.18 837.06 507.86 836.09 505.46 836.04 501.37 834.38 498.85 837.58 500.22 839.51 497.54 839.9 496.81 840.9 497.69 842 500.03 843.31 498.75 845.84 496.37 845.51 494.44 846.71 494.73 850.25 493.75 850.58 493.05 852.27 494.51 853.15 494.62 855.02 492.82 857.56 488.36 856.86 485.58 857.3 482.97 858.18 481.57 858.11 479.09 859.11 478.94 860.08 480.4 862.69 478.96 863.2 477.67 862.39 475.01 862.6 474.38 864.08 472.15 863.96 470 864.71 466.13 868.1 467.44 870.34 467.57 873.32 466.53 874.53 463.11 869.61 460.44 867.62 460.33 869.42 459.03 869.79 451.64 868.42 452.34 870.18 451.89 872.47 451.14 872.69 449.54 870.7 447.46 871.37 449.29 874.1 448.26 876.05 447.06 875.88 445.87 874.59 444.15 873.76 439.52 873.05 436.83 875.07 434.98 874.33 434.22 875.56 431.69 875.66 430.06 872.8 426.87 874.97 424.84 875.56 424.33 876.51 426.53 880.16 422.84 882.27 421.58 877.9 419.42 879.75 418.87 880.98 419.94 883.24 418.82 884.06 416.38 884.5 415.31 887.91 413.8 887.64 411.95 888.43 410.06 888.49 408.45 890.01 406.65 888.04 403.93 887.59 401.48 884.99 400.64 885.36 399.27 883.37 396.1 882.99 393.66 885.13 393.46 886.68 391.41 891.68 392.33 893.44 393.75 894.18 396.11 894.11 396.51 894.84 395.47 896.78 394.07 896.07 391.81 896.02 392.87 897.75 390.87 901.13 390.83 902.73 391.98 904.07 393.23 907.61 392.95 909.37 391.31 910.37 392.6 911.85 393.27 915.15 394.47 916.31 395.37 919.44 396.4 920.96 396.29 922.36 397.19 923.88 397.37 926.1 398.7 927.1 398.35 929.58 400.69 931.38 402.71 934.43 403.1 936.54 404.24 939.08 402.3 940.88 403.44 941.77 404.23 940.22 406.13 941.17 405.93 943.64 402.99 949.55 400.92 951.33 400.3 953.21 399.16 953.98 399.35 955.86 397.58 955.68 396.98 958.68 395.4 959.06 394.88 960.8 389.88 963.88 390.07 965.28 392.65 965.86 392.04 967.18 389.29 967.14 383.17 969.57 383.66 971.05 382.4 972.17 380.58 975.27 380.41 976.83 377.7 977.54 376.39 978.33 375.86 980.77 373.91 981.08 372.35 979.33 368.98 979.56 368.49 981.13 367.08 981.5 365.13 983.19 365.74 983.93 364.31 985.18 364.85 987.52 362.31 990.03 362.57 991.29 363.91 992.93 364.01 995.13 364.66 996.03 364.43 1002.17 365.05 1003.13 364.44 1004.46 364.83 1006.72 363.99 1008.95 364.82 1011.46 364.32 1014.38 362.77 1016.62 364.93 1018.18 364.69 1019.07 359.87 1019.89 358.97 1019.29 356.89 1022.49 357.82 1024.27 356.26 1026.54 356.35 1028.72 358.12 1028.89 359.25 1031.14 361.03 1032.37 359.39 1034.39 361.96 1035.46 361.66 1039.1 360.23 1042.38 356.94 1042.7 354.69 1044.26 354.68 1045.82 350.44 1045.81 350.34 1047.04 347.38 1048.01 344.84 1049.33 341.88 1051.74 342.8 1052.13 342.93 1054.54 342.08 1056.89 339.25 1058.48 337.81 1058.45 337.55 1060.33 335.43 1060.51 335.67 1061.76 337.79 1062.75 337.63 1064.37 335.23 1066.11 332.37 1067.42 329.19 1069.9 330.19 1070.71 329.01 1074.3 327.49 1074.69 324.06 1079.96 326.68 1079.1 326.93 1080.04 326.1 1084.88 323.95 1087.16 319.51 1087.27 318.98 1088.38 317.4 1088.59 316.39 1087.14 313.74 1086.86 311.02 1087.41 308.54 1089.74 308.48 1092.71 310.7 1092.18 310.77 1093.58 307.59 1093.99 306.07 1095.3 305.28 1098.8 302.64 1099.51 297.69 1099.39 295.82 1100.7 294.42 1100.23 292.74 1100.92 293.41 1101.95 292.3 1102.99 292.85 1105.19 291.75 1106.52 287.72 1105.34 286.49 1106.17 284.31 1105.67 279.26 1105.39 275.36 1103.25 276.18 1101.93 273.97 1101.42 272.38 1103.69 269.49 1105.46 265.25 1109.46 263.82 1110.14 261.4 1112.14 258.6 1112.64 256.86 1111.89 256.43 1110.56 258.37 1107.65 257.22 1105.09 256.07 1104.76 254.15 1106.03 252.48 1105.96 251.21 1107.21 249.54 1107.87 247.71 1109.49 246.81 1112.98 245.72 1114.15 243.37 1114.51 242.24 1110.66 240.28 1109.58 239.28 1107.59 233.35 1106.56 231.31 1103.83 228.8 1101.1 227.55 1100.52 226.65 1098.19 227.34 1095.33 225.82 1093.1 222.51 1090.86 219.16 1094.84 218.93 1097.11 217.43 1098 215.85 1100.26 215.49 1103.54 214.74 1104.53 212.3 1105.66 209.44 1105.98 205.98 1105.47 202.7 1105.77 199.48 1108.38 197.84 1111.21 196.62 1112.12 192.87 1113.15 189.7 1115.61 185.68 1116.47 183.91 1117.91 183.67 1119.82 181.11 1119.47 178.75 1119.92 176.99 1121.64 174.08 1121.16 172.03 1121.81 169.95 1121.2 165.98 1122.41 163.51 1122.43 161.27 1121.85 159.04 1123.36 159.48 1125.04 161.14 1127.15 163.4 1129.22 167.85 1130.31 169.95 1132.38 170.1 1135.31 171.63 1136.81 174.58 1137.44 175.93 1139.13 176.13 1140.39 178.08 1142.52 181.29 1142.8 182.77 1144.88 186.57 1147.27 187.93 1150.44 189.28 1152.58 190.9 1153.46 191.35 1154.8 193.32 1156.53 194.5 1158.91 194.98 1161.18 196.16 1162.45 196.87 1164.63 198.68 1166.04 200.63 1166.68 201.61 1168.98 205.83 1173.25 206.34 1174.31 205.05 1176.56 203.16 1178.58 200.97 1179.1 198.81 1180.74 196.8 1184.87 196.05 1185.2 194.83 1189.17 192.7 1189.56 191.64 1192.46 190.3 1193.91 189.89 1195.57 190.15 1197.9 188.72 1198.74 187.2 1201.31 185.34 1202.93 182.92 1203.99 181.11 1205.54 179.5 1208.19 177.72 1209.29 175.89 1211.18 173.99 1212.28 174.28 1214.02 178.56 1216.86 182.93 1220.14 185.25 1224.23 185.62 1228.9 182.65 1236.81 180.93 1243.84 179.07 1247.55 178.83 1250.81 177.03 1252.72 171.81 1254.85 170.4 1256.99 170.93 1259.32 172.63 1261.75 174.41 1265.31 179.92 1270.44 181.85 1278.25 182.63 1279.38 188.27 1281.98 189.91 1283.29 195.09 1288.72 198.29 1289.98 200.5 1289.9 203.81 1290.91 211.9 1294.45 216.5 1295.36 217.84 1296.28 218.07 1297.74 217.62 1301.04 217.89 1302.73 220.68 1304.81 222.88 1308.74 225.89 1311.88 227.98 1313.06 230.92 1313.96 233.97 1316.83 239.07 1326.25 239.96 1329.3 239.83 1334.25 239.29 1336.46 239.38 1341.22 240.67 1343.16 245.24 1345.24 247.64 1346.89 248.58 1349.89 247.66 1354.59 246.69 1358 241.97 1356.78 239.88 1355.19 236.79 1354.27 236.17 1353.46 232.66 1353.04 226.59 1349.19 221.02 1345 217.98 1341.84 217.06 1340.47 214.94 1333.92 212.66 1331.15 207.68 1328.23 206.59 1328.22 203.82 1326.88 200.99 1326.41 196.92 1321.23 195.9 1320.81 190.36 1321.26 187.83 1320.66 184.6 1319.28 183.81 1317.44 185.53 1314.9 186.05 1313.41 185.75 1310.99 183.19 1311.26 178.48 1310.43 174.91 1310.32 174.22 1308.72 171.39 1308.63 169.95 1306.81 162.84 1304.26 162.67 1302.97 160.58 1302.52 158.75 1301.31 157 1301.16 150.83 1299.12 146.81 1301.28 145.9 1302.54 143.83 1302.55 138.6 1303.71 137.88 1303.21 133.33 1302.85 128.54 1301.87 127.78 1302.67 125.21 1302.94 124.54 1302.06 120.98 1301.01 118.6 1300.85 118.06 1297.5 117.44 1296.39 113.47 1292.54 109.45 1291.33 108.41 1290.1 105.92 1288.52 107.18 1286.81 105.61 1286.21 105.69 1285.11 103.78 1284.64 103.1 1282.9 103.69 1281.56 101.59 1279.87 99.78 1277.61 98.91 1275.55 96.57 1275.69 94.35 1276.65 91.96 1274.43 87.66 1273.38 87.63 1271.83 85.69 1271.62 85.39 1269.71 83.12 1270.56 82.79 1269.39 79.92 1268.07 76.32 1269.78 75.01 1271.01 73.46 1271.42 71.11 1270.62 69.61 1271.41 66.77 1269.35 66.68 1268.25 65.02 1267.26 64.79 1265.73 63.71 1264.55 63.37 1261.84 62.33 1260.54 62.44 1258.19 61.87 1255.4 63.98 1252.51 66.59 1249.69 67.51 1248.15 67.45 1245.93 65.04 1240.64 62.89 1236.91 62.56 1233.86 62.9 1232.47 64.91 1228.4 64.96 1226.52 63.38 1223.03 63.37 1221.68 65.17 1219.63 66.07 1216.97 65.69 1215.2 66.26 1212.77 65.08 1209.87 65.21 1208.37 67.36 1205.98 66.89 1203.91 68.39 1203.26 68.92 1201.49 68.3 1200.38 70.91 1197.72 74.02 1196.21 73.87 1194.19 72.37 1194.9 71.37 1191.9 72.93 1192.26 74 1190.66 71 1190.13 72.98 1188.26 70.82 1187.55 72.49 1186.06 71.05 1185.3 72.7 1181.22 72.41 1178.97 70.25 1176.2 72.58 1174.55 72.41 1173.03 69.77 1173.03 70.09 1171.59 73.11 1171.33 72.52 1167.57 71.07 1166.59 71.76 1162.53 74.06 1163.3 75.41 1161.72 72.27 1161.4 73.1 1159.95 75.74 1159.18 75.73 1157.06 74.6 1154.88 73.69 1155.1 73.27 1152.11 71.14 1150.54 68.66 1149.58 68.51 1148.11 67.31 1147.02 65.31 1146.59 60.51 1146.53 57.58 1145.75 56.29 1144.96 53.19 1146.01 51.58 1145.59 51.02 1143.61 51.47 1141.57 53.03 1137.91 52.65 1136.13 50.55 1134.6 48.83 1133.92 48.56 1132.74 46.41 1130.8 44.75 1126.86 42.83 1125.03 40.67 1123.94 37.06 1124.76 32.19 1124.85 28.06 1123.32 26.99 1129.61 24.44 1131.31 21.21 1129.81 18.43 1129.22 15.28 1129.81 14.99 1128.61 15.33 1125.6 13.72 1122 11.94 1121.26 10.22 1121.98 7.69 1119.29 5.72 1117.89 6.4 1115.62 5.47 1114.03 2.45 1111.67 1 1108.53 2.16 1106.4 4.05 1105.25 6.08 1105.5 10.96 1104.72 14.9 1102.41 15.63 1101.52 15.83 1098.46 14.57 1096.26 12.94 1096.35 12.79 1099.28 10.19 1098.58 9.32 1096.33 10.1 1094.44 4.82 1092.33 2.97 1092.53 2.02 1091.28 3.24 1089.61 3.08 1088.33 4.48 1087 4.98 1085.18 4.8 1083.27 5.95 1081.89 5.74 1080.69 6.71 1077.91 8.76 1075.06 8.19 1073.91 11.29 1069.48 12.54 1069.4 14.09 1068.2 16.79 1067.04 17.01 1065.02 18.41 1065.44 18.98 1063.64 21.03 1063.17 24.28 1061.41 24.86 1062.19 27.56 1061.55 27.9 1060.56 29.8 1061.09 36.08 1060.21 37.61 1060.93 41.6 1059.9 44.45 1060.1 47.29 1058.63 49.31 1058.04 50.85 1058.59 54.6 1058.13 55.61 1060.86 56.72 1061.14 57.36 1057.85 58.6 1055.4 60.35 1053.98 62.75 1054.24 63.93 1055.83 65.51 1055.64 65.5 1052.6 66.18 1050.84 69.47 1049.73 72.59 1049.27 73.75 1047.72 78.6 1046.69 81.57 1047.67 83.73 1047.78 83.87 1045.36 86.1 1045.67 86.24 1044.6 88.27 1042.51 90.55 1042.11 92 1042.75 94.61 1041.91 92.7 1035.79 92.78 1033.98 94.86 1034.57 95.49 1036.6 98.82 1036.88 99.89 1036.16 104.71 1028.49 106.14 1027.82 112.49 1021.95 113.28 1020.3 115.25 1018.01 115.01 1016.86 116.32 1015.09 116.12 1013.94 119.73 1011.84 119.96 1010.74 121.83 1009.46 123.93 1008.9 125.48 1007.5 125.82 1005.51 128.45 1005.42 133.28 1006.57 136.84 1006.76 140.01 1007.34 141.74 1008.33 142.96 1011.07 144.05 1011.06 146.17 1009.3 149.43 1008.14 152.44 1008.48 154.34 1010.78 156.49 1011.32 158.33 1011.2 160.23 1011.98 161.29 1013.2 164.03 1012.21 167.01 1012.24 169.26 1010.9 171 1008.6 172.56 1007.68 174.91 1007.38 175.57 1006.08 175.56 1004.18 177.56 1001.54 179.17 998.08 178.73 996.26 179.11 994.84 183.09 991.19 183.35 990 186.21 987.68 188.47 983.86 190.6 981.96 192.39 979.18 193.92 978.13 197.99 978.26 199.27 977.54 202.25 976.84 202.45 976.16 206.36 975.12 208.95 976.33 210.87 976.74 215.86 978.58 216.72 979.52 221.79 981.51 223.1 983.22 227.5 984.05 231.87 984.17 234.37 984.55 235.18 982.24 238.5 981.91 242.02 982.95 242.13 984.68 246.33 985.46 248.02 986.14 250.64 985.63 253.87 987.06 255.36 986.91 254.01 980.83 252.01 975.37 250.33 971.83 249.65 968.46 249.61 965.7 248.75 961.29 247.64 960.74 246.14 961.51 236.48 971.67 229.66 977.73 227.72 978.4 224.65 977.73 223.2 976.09 223.07 974.91 224.46 971.04 223.92 968.56 221.96 966.14 219.97 964.97 213.16 962.41 211.38 960.25 211.08 955.58 210.6 952.91 209.82 951.57 206.56 950.34 204.21 950.25 202.68 950.94 198.91 953.83 196.94 954.66 192.62 955.04 189.94 954.42 188.29 953.39 185.15 950.29 182.95 948.67 178.32 946.92 174.75 946.43 169.67 944.53 167.48 944.86 165.94 943.93 166.34 940.9 166.11 939.39 165.06 937.79 160.21 936.55 154.98 933.81 152.64 931.93 149.88 930.65 146.85 930.11 146.18 928.15 147.32 923.58 149.53 921.49 152.97 917.33 155.32 915.43 155.57 913.36 154.94 912.73 152.18 912 151.16 910.98 150.74 907.99 151.68 902.88 153.74 896.8 154.95 895.14 158.33 892.77 161.49 890.96 162.63 890.72 165.08 891.48 169.69 890.68 173.87 888.05 177.56 886.3 179.67 883.84 182.14 881.83 184.43 881.28 190.15 883.01 192.78 884.25 200.74 889.11 203.55 891.59 213.1 898.23 214.83 900.29 216.14 901.05 219.42 901.57 227.71 900.91 231.97 901.69 234.76 901.23 239.1 897.51 240 896.42 240.21 893.78 243.29 889.46 243.78 885.63 243.64 882.2 239.5 874.96 240.29 872.6 244.46 870.71 252.61 868.86 256.05 868.38 258.21 868.96 259.5 870.98 262.22 871.25 267.31 870.01 270.85 866.17 271.27 863.82 269.97 861.26 272.98 859.16 277.39 855.17 279.76 851.83 282.19 846.94 283.1 843.45 282.35 840.15 281.07 837.64 279.26 835.72 275.73 833.27 273.95 829.93 272.51 828.63 269.84 827.44 267.65 823.36 267.9 821.19 267.41 820.22 264.05 820.57 262.37 820.31 261.31 817.08 258.13 812.63 255.89 809.06 252.65 808.9 252.28 801.37 251.22 799.2 248.11 796.51 246.21 793.88 243.22 791.87 242.06 791.54 237.09 791.99 234.12 790.81 230.29 786.93 228.6 783.75 221.02 776.97 215.19 772.52 212.23 769.17 210.17 766.23 207.82 763.78 206.09 759.71 203.77 759.03 201.59 753.2 199.04 752.56 196.77 753.13 195.33 751.57 194.68 746.68 192.1 742.56 191.13 738.18 187.06 730.36 182.79 724.99 178.3 718.75 176.25 716.87 173.03 715.96 166.95 715.57 160.65 714.45 150.53 708.3 149.07 706.84 145.98 701.81 140.01 696.76 135.78 690.81 131.62 684.46 127.75 680 126.22 678.6 125.65 674.65 124.91 672.61 121.32 668.67 119.68 664.93 119.25 661.14 121.12 650.37 122.29 645.75 123.36 639.12 123.49 635.64 123.98 634.14 128.73 629.3 132.52 624.39 133.28 622.16 135.09 618.95 136.19 618.16 136.77 611.2 137.6 609.57 140.21 606.77 143.16 602.02 146.01 594.99 146.27 592.24 144.64 589.63 144.73 588.48 148.09 583.21 149.13 580.7 149.14 578.94 147.02 576.15 145.76 575.36 142.98 574.64 142.48 573.9 143.85 570.83 145.12 566.81 144.87 564.76 141.32 562.72 138.18 556.12 137.66 552.5 137.79 550.69 136.16 545.61 136.06 544.42 136.94 540.09 139.1 536.18 143.16 531.88 145.08 529.32 146.71 526.45 147.95 522.98 151.23 517.71 154.07 515.3 159.19 514.14 161.03 512.66 165.03 510.32 170.21 507.85 173.77 506.4 175.41 506.11 177.62 504.89 178.2 501.09 178.05 495.92 178.56 491.04 180.03 489.29 182.22 487.69 183.56 485.43 184.33 480.93 185 478.64 186.72 475.97 186.99 474.69 186.61 471.72 185.77 470.12 183.74 463.64 183.08 462.24 180.39 459.31 179.56 455.66 179.97 449.45 180.77 441.35 182.1 435.71 184.51 432.17 186.73 428.21 188.9 426.41 196.53 422.55 200.27 420.97 203.02 416.2 205.7 413.52 207.22 412.73 211.32 411.84 213.78 410.49 214.97 408.81 217.27 397.7 218.31 394.8 221.1 391.22 225.31 387.26 229.22 384.94 231.6 382.04 232.58 379.93 232.69 377.58 231.83 375.05 232.25 371.92 232.31 368.07 231.59 365.14 229.27 361.82 228.19 359.56 228.73 357.36 231.09 355.48 235.41 352.77 237.61 350.2 238.26 346.86 237.98 342.89 238.9 338.95 238.91 337.21 238.1 335.23 235.63 332.66 233.82 329.05 232.5 327.29 230.06 325.2 228.82 322.83 227.61 319.43 224.28 314.66 223.13 312.21 222.4 308.87 221.28 306.82 217.17 300.89 216.64 298.77 217.38 295.02 217.31 293.18 216.27 290.91 214.19 287.52 213.73 286.13 214.49 281.28 216.35 279.1 221.49 274.01 222.64 272.58 223.28 269.77 222.43 266.95 223.39 264.53 226.69 262.49 227.69 261.38 230.05 256.02 230.72 253.72 231.13 250.45 234.3 244.25 235.16 243.76 242.7 242.84 249.85 242.66 251.67 242.32 253.01 241 256.14 236.11 256.41 234.53 255.75 233.28 253.1 230.44 252.01 227.76 251.26 223.42 251.05 220.59 252.24 217.84 255.2 215.68 258.19 209.48 258.69 207.71 257.92 205.56 256.57 204.21 254.3 198.69 253.23 194.69 253.5 192.9 258.49 186.5 259.15 182.39 261.14 178.46 262.38 178.16 266.45 179.51 270.75 178.23 274.96 178.98 277.14 178.7 280.88 178.74 285.22 177.97 288.39 176.66 290.33 176.76 299.12 175.84 301.45 174.67 302.93 173.22 303.23 167.86 304.39 166.67 309.66 165.36 315.33 162.47 317.22 162.1 319.35 162.38 322.03 163.96 323.43 164.3 326.52 163.28 329.94 160.81 333.34 156.97 338.8 156.07 339.98 156.51 342.57 159.28 343.78 159.95 346.29 159.8 348.06 157.59 350.6 151.57 351.73 150.86 357.44 152.82 359.12 152.18 362.34 149.23 365.01 148.02 369.01 144.64 369.88 144.55 372.4 145.86 374.03 147.51 376.25 146.5 377.21 144.02 381.23 138.43 386.17 132.69 388.26 131.67 390.76 132.01 391.89 131.59 393.94 128.82 393.81 125.83 394.51 123.5 397.73 119.38 400.47 117.22 405.74 113.81 407.05 112.24 408.98 111.14 412.54 107.84 416.02 105.06 418.08 104.46 420.95 104.71 424.63 102.74 426.26 100.58 430.02 100.97 432.09 99.6 433.58 97.65 436.11 97.71 436.86 96.84 439 97.75 440.3 96.39 443.55 96.39 445.83 95.41 446.84 94.31 447.37 91.07 448.02 89.46 449.24 88.77 449.69 87.23 451.36 85.85 451.44 84.14 452.93 80.24 452.22 78.17 452.47 77.02 453.92 75.47 455.45 75.07 457.76 71.52 462.24 70.45 468.22 66.11 469.28 62.6 470.44 61.25 472.4 62.26 474.34 64.49 476 64.52 477.42 63.32 480.62 65.68 481.91 66.19 485.46 66.17 487.21 64.79 489.23 64.25 490.32 60.81 493.93 57.47 495.72 56.73 497.07 54.24 496.97 51.97 497.39 49.17 498.1 47.29 502.14 44.93 502.1 42.59 503.34 41.88 506.78 42.36 509.12 41.31 511.26 37.54 513.85 34.68 513.38 32.48 516.35 29.2 518.13 28.48 519.93 28.75 521.29 28.19 525.75 29.39 529.26 28.55 531.97 24.77 533.25 24.11 534.97 21.85 537.08 21.81 537.75 19.79 540.54 20.24 540.61 22.62 541.2 24.03 542.82 25.17 543.24 26.23 544.89 27.03 547.4 30.16 549.5 30.36 551.38 27.02 552.89 22.8 554.24 21.98 556.26 21.63 558.47 22.26 560.48 24.8 564.09 27.66 565.81 28.32 568.08 28.09 570.57 29.17 571.88 28.47 572.17 26.09 573.67 24.55 577.66 22.69 579.7 23.01 583.05 25.57 583.53 28.51 585.08 28.86 586.22 27.82 589.83 28.17 592.78 27.23 595.85 27.11 598.37 23.95 602.31 21.33 606.86 19.61 608.09 18.23 609.84 17.43 609.91 13.89 608.92 9.91 607.65 7.24 605.92 5.93 603.54 1.47 604.91 1 606.14 1.8 607.33 5.26 609.9 4.93 612.23 2.42 613.99 2.56 613.19 6.42 613.38 7.84 615.31 8.9 622.61 11.13 626.36 11.95 627.51 12.59 626.96 14.18 627.56 15.19 629.89 16.29 631.5 19.98 630.55 21.19 628.5 21.6 625.95 22.75 626.15 24.23 629.53 23.25 631.44 23.59 631.42 24.86 630.41 27.15 628.36 28.37 626.14 28.14 625.39 29.09 627.85 31.84 629.65 36.02 632.87 39.48 633.55 42.71 636.68 46.36 636.48 47.12 633.39 48.83 632.79 50.7 633.01 52.17 634.67 53.05 637.54 53.16 638.26 53.68 638.06 56.81 635.73 60.64 632.83 62.92 633.53 64.18 636.34 64.03 637.44 64.53 637.36 66.57 638.22 66.86 Z"/>
</g>
</svg>