<?xml version="1.0"?>
<svg xmlns="http://www.w3.org/2000/svg" version="1.2" baseProfile="tiny" width="800" height="404" viewBox="0 0 800 404" stroke-linecap="round" stroke-linejoin="round">
<g id="4210902">
<path d="M 724.2 57.6 727.3 57.63 730.12 54.94 731.89 54.35 734.84 51.63 740.09 52.38 747.72 58.52 752.31 61.35 756.31 64.48 763.46 67.58 766.95 72.2 766.96 76.37 763.15 77.96 754.84 78.8 748.15 77.93 743.68 79.54 742.13 82.53 743.21 86.69 749.5 91.65 757.74 95.51 761.44 96.87 765.11 98.98 770.47 101.18 775.51 102.58 785.57 103.76 792.65 104.87 799 104.66 794.28 105.86 783.04 105.13 779.96 111.44 775.89 115.67 776.5 121.36 775 123.24 774.99 128.74 776.21 131.95 773.76 134.42 768.39 134.22 757.58 139.83 751.6 139.76 749.22 139.26 747.02 140.55 737.29 141.82 734.47 144.12 732.17 143.42 729.23 145.07 724.88 145.45 723.54 147.73 725.31 149.93 722.73 150.61 718.68 156.73 718.28 158.53 713.43 165.84 710.95 168.75 708.15 169.55 704.11 176.46 698.6 175.26 696.02 177.3 694.64 175.98 687.61 177.93 686.13 180.29 677.89 181.8 673.54 185.49 671.39 188.25 671.34 190.46 666.26 193.66 662.14 193.75 654.75 195.53 649.08 200.42 646.08 199.84 643.23 200.25 638.51 198.15 635.64 197.78 628.42 195.16 620.94 195.57 618.31 196.26 613.43 194.8 606.3 193.99 600.6 191.24 599.31 189.43 595.98 187.17 573.83 200.38 578.83 207.31 561.1 221.39 583.43 260.29 600.87 257.19 599.16 264.83 600.92 266.93 605.01 269.63 613.84 277.3 614.63 279.81 617.7 282.79 618.95 290.03 617.72 292.17 615.09 304.18 611.81 304.84 610.74 307.84 606.34 311.47 605.04 315.14 606.38 319.01 603.17 323.67 601.57 328.88 600.04 329.71 595.75 337.91 591.73 337.77 588.88 339.7 582.42 340.62 579.87 342.55 577.03 342.24 573.57 340.75 570.09 337.71 567.15 336.96 561.44 338.09 554.08 338.02 549.86 339.41 545.76 338.2 542.81 338.26 536.44 340.88 531.77 343.92 528.63 345.11 527.05 347.34 522.8 349.15 516.73 353.52 516.83 355.64 514.66 356.05 511.89 358.7 508.31 357.48 500.99 353.69 497.88 351.41 492.72 352.01 489.44 351.69 484.68 352.8 482.03 352.53 477.74 351.02 476.15 349.17 470.54 347.48 468.83 347.85 466.72 352.2 461.06 354.1 457.71 355.98 457.26 357.61 449.43 360.02 444.66 359.84 440.21 358.71 435.65 358.54 433.83 360.51 435.29 362.68 438.3 364.93 438.61 367.09 435.47 369.03 433.8 370.99 435.79 376.72 435.17 379.49 436.15 383 438.74 387.61 439.29 390.08 437.58 391.72 431.72 392.33 423.61 389.37 411.05 392.33 402.62 389.65 399.18 387.88 401.83 384.2 404.72 383.01 405.63 378.58 401.21 375.54 394.76 374.46 393.52 373.62 391.25 369.43 381.3 366.01 374.34 367.18 368.38 364.16 366.13 363.66 362.05 365.79 359.38 365.28 354.4 365.84 347.72 365.61 342.59 366.84 340.06 368.73 337.94 368.88 336.26 364.81 333.58 363.83 330.66 363.87 328.44 362.54 314.25 363.63 313.94 360.85 307.67 361.03 300.46 359.91 299.37 362.61 295.62 361.68 292.34 362.5 291.65 364.16 288.82 364.52 284.58 363.37 284.17 364.91 280.99 365.35 277.06 367.39 272.06 364.44 270.74 362.76 267.29 362.58 266.36 360.47 263.1 361.86 260.09 361.38 255.8 362.52 254.55 364.13 252.11 362.75 248.51 363.32 247.09 361.85 243.58 361.45 240.02 359.98 235.95 360.01 232.95 361.38 230.99 359.46 225.96 358.99 218.99 359.69 213.19 361.67 204.44 358.8 201.83 357.6 194.28 355.4 192.99 353.98 188.42 352.43 137.46 347.68 138.01 354.92 136.26 357.41 137.66 360.17 135.27 364.24 134.38 367.27 129.94 367.63 127.35 369.48 126.43 371.53 123.88 373.23 120.02 374.68 118.35 376.68 117.3 379.82 115.04 380.82 112.5 383.44 113.3 387.71 106.48 388.3 106.47 391.14 104.64 394.19 102.56 394.6 101.63 397.24 102.19 400.51 101.29 403 48.99 392.72 49.37 389.81 45.72 387.65 39.86 382.92 38.43 380.91 31.11 378.98 30.52 375.89 28.77 375.34 25.02 369.79 23.89 364.11 25.92 363.1 25.85 360.97 20.9 354.36 16.19 349.87 13.44 345.09 10.98 341.86 9.45 336.36 9.31 332.89 7.36 329.41 4.42 328.73 7.13 324.74 11.96 315.85 12.93 311.32 17.3 307.58 18.75 304.09 21.16 301.15 22.3 294.66 21.1 290.42 18.68 285.97 14.39 285.15 9.89 282.74 5.6 282.77 1.44 279.37 1.28 276.87 3.37 274.41 8.52 270.75 9.83 268.24 13.88 266.76 14.44 264.33 10.97 262.36 10 258.48 4.14 255.86 3.56 251.48 1 248.02 45.52 241.54 47.67 236.04 47.82 232 50.28 229.29 51.1 225.8 53.44 224.44 61.12 211.76 64.72 210.36 66.68 205.58 69.71 202.16 73.53 200.8 76.05 198.1 78.71 198.69 83.94 197.98 89.76 200.47 91.62 200.07 96.51 196.7 101.27 196.65 105.14 195.75 115.59 190.93 118.86 189.86 120.96 190.12 126.02 192.64 130.51 191.79 133.21 190.09 137.44 191.24 142.84 191.69 147.55 190.99 139.88 187.23 138.36 183.8 138.45 181.85 140.49 177.57 140.9 174.33 144.03 169.87 148.17 166.02 150.03 165.12 156.22 164.42 163.02 164.72 166.21 164.16 167.69 160.35 167.72 155.01 166.79 149.19 164.68 146.64 162.96 142.56 157.85 140.87 154.43 141.94 146.58 142.05 143.32 139.22 143.16 136.89 145.66 135.22 143.21 133.6 138.48 131.93 137.9 129.47 133.1 128.03 129.24 129.81 125.9 130.6 122.42 130.25 117.81 127.86 116.9 126.3 116.72 121.27 117.4 117.55 116.02 114.82 111.7 111.13 108.17 109.15 93.01 104.59 87.83 102.38 84.57 99.94 78.64 94.21 74.8 85.83 79.58 81.32 82.96 77.48 83.36 73.66 84.94 73.66 89.63 76.63 96.05 82.84 99.99 84.95 102.94 84.99 104.63 83.85 117.57 68.72 118.58 65.94 118.87 58.05 115.5 51.82 114.01 50.19 107.95 47.59 104.47 46.59 100.33 47.29 95.88 47.26 93.37 46.6 87.4 42.12 79.57 38.43 157.11 29.06 187.71 26.06 197.7 26.45 268.3 20.07 268.76 23.77 271.39 25.08 274.42 27.79 282.77 25.61 285.31 22.64 367.15 1 367.15 6 370.79 11.08 370.21 17.66 370.68 21.29 372.8 29.19 375.75 29.92 378.01 32.04 375.16 34.7 369.79 38.6 370.19 42.71 369.68 46.18 367.71 49.49 367.89 51.39 366.63 54.82 364.85 63.48 468.25 47.62 468.56 54.35 471.11 60.4 473.05 61.99 480.07 65.3 483.33 66.21 494.29 67.68 497.38 69.73 498.63 73.84 500.6 83 500.29 86.71 491.72 96.01 491.84 98.25 495.43 101.4 498.75 101.24 508.41 98.44 517.97 96.6 526.99 96.24 532.09 96.81 536.13 94.9 543.14 92.51 546.87 91.82 549.25 88.84 551.95 89.34 557.49 87.82 560.52 84.19 564.51 82.52 566.95 79.34 567.44 75.94 571.1 71.95 572.22 67.97 575.56 65.86 577.35 60.11 581.86 54.69 582.81 51.53 583.51 45.48 584.4 43.18 584 40.18 586.86 39.64 593.36 40.84 595.34 40.43 602.16 40.47 606.24 38.82 611.12 37.92 617.34 39.15 626.5 35.65 628.79 39.43 631.09 41.24 634.58 42.04 636.76 39.6 642.46 42.16 647.15 42.58 650.11 44.94 654.04 46.18 656.63 45.57 659.64 46.71 665.49 45.95 672.61 44.2 674.29 45.69 674.79 49.31 676.9 53.29 682.2 58.52 691.12 57.63 697.3 55.7 701.21 55 703.93 56.2 708.36 60.14 711.54 63.59 718.5 64.81 720.25 61.1 723.25 59.64 724.2 57.6 Z"/>
</g>
</svg>