<?xml version="1.0"?>
<svg xmlns="http://www.w3.org/2000/svg" version="1.2" baseProfile="tiny" width="800" height="387" viewBox="0 0 800 387" stroke-linecap="round" stroke-linejoin="round">
<g id="4210209">
<path d="M 660.03 3.3 662.09 4.88 665.56 9.21 666.18 11.21 664 12.99 664.54 15.17 663.91 17.47 664.65 18.58 665.55 22.64 666.93 23.9 668.42 26.35 670.08 28.41 671.4 31.21 673.62 33.12 676.01 34.22 679.48 34.19 683.87 35.1 685.41 35.24 687.13 36.55 690.54 37.23 694.05 39.21 695.42 41.36 695.65 43.02 697.4 45.6 699.68 47.96 700.76 51.75 700.59 54.97 699.49 57.9 700.38 60.8 698.82 62.51 698.49 64.04 700.47 65.1 701.31 66.95 702.67 68.31 706.46 69.98 707.67 69.96 712.53 68.55 714.84 68.35 716.59 67.87 719.96 68.42 740.8 86.4 756.91 102.15 756.1 104.5 756.45 106.6 756.2 107.38 754.28 107.67 751.81 110.76 749.2 112.02 749.04 112.8 749.39 115.49 749.15 116.52 747.63 119.71 746.54 121.12 746.35 122.13 744.1 124.89 743.35 129.46 743.74 132.19 745.43 133.6 746 134.57 746.38 136.7 748.45 137.16 749.01 137.68 746.95 142.25 747.04 144.7 747.82 146.51 747.79 148.68 748.4 150.06 749.88 151.66 749.96 152.64 748.88 152.86 748.53 153.73 748.83 156.23 749.5 158.41 748.32 161.56 749.68 164.06 744.93 170.05 744.18 171.52 744.29 174.84 743.41 179.09 742.77 181.24 740.86 185.56 739.07 187.62 738.51 189.68 737.2 190.94 737.1 193.47 738.48 197.03 743.55 203.2 745.91 204.44 748.26 206.43 749.96 207.43 751.64 209.65 753.4 209.58 756.58 207.59 759.51 207.78 762.65 207.24 764.31 208.29 766.96 208.98 771.09 210.56 773.92 210 777.43 210.79 782.21 210.92 786.3 211.79 789.53 211.99 792.66 213.35 794.18 213.05 797.39 213.08 799 213.36 798.42 214.61 797.67 218.85 795.89 221.9 792.99 224.06 789.87 226.14 785.26 231.54 783.7 234.26 784.05 236.78 785.29 239.26 785.11 240.02 783.24 241.83 780.31 243.14 779.85 244.26 778.76 245.34 775.36 246.22 773.92 245.86 770.91 247.38 765.83 250.34 763.1 251.71 760.9 253.1 757.44 255.98 754.15 258.19 752.4 257.68 751.39 258.49 751.51 260.49 751.14 261.52 749.76 261.98 748.5 260.75 747.04 260.12 745.86 260.3 743.93 261.29 743.59 262.27 745.11 265.15 745.21 266.72 744.35 268.13 741.85 271.35 740.33 273.75 738.92 274.38 737.4 273.46 735.18 274.2 733.92 276.96 731.67 278.35 730.2 279.76 728.12 279.06 722.44 280.59 720.06 282.27 717.52 286.02 716.79 288.91 713.3 289.28 633.3 270.28 632.56 259.04 630.22 259.55 629.07 259.46 624.16 260.52 622.67 261.21 620.51 260.98 618.29 259.97 614.16 260.65 612.41 261.28 609.51 261.28 608.66 261.52 606.99 264.43 605.25 265.61 603.49 265.38 602.15 265.71 600.66 265 598.01 265.98 596.36 266.86 594.22 268.91 592.64 271.24 592 272.68 590.73 273.86 560.31 263.28 557.18 263.49 553.77 262.46 551.3 262.71 550.27 263.17 547.84 267.2 543.87 269.84 541.12 272.34 540.06 272.97 537.86 273.44 535.8 274.66 534.81 275.79 532.72 276.77 532.08 277.82 531.91 279.83 531.03 282.03 527.77 283.92 526.2 285.15 523.45 288.54 522.04 291.14 519.8 293.25 518.18 293.51 516.55 294.45 515.66 296.07 514.23 297.08 513.99 299.63 511.13 305 510.01 306.62 508.74 307.14 505.64 306.69 502.6 307.02 500.57 307.49 498.49 309.81 499.14 311.28 500.98 311.9 502.8 314.53 502.75 316.53 500.43 319.44 496.95 322.45 495.72 324.75 495.02 325.34 492.45 325.44 490.22 326.17 489.1 326.06 485.36 328.31 483.47 330.1 483.07 331.49 481.88 333.29 481.9 334.87 482.46 336.43 481.64 336.99 480.18 335.74 478.62 335.19 475.55 333.61 473.96 332.4 470.01 331.26 468.25 330.35 466.9 330.74 464.97 332.79 463.56 333.49 461.77 333.83 460.22 335 457.61 335.57 453.79 337.84 452.07 338.47 450.77 340 448.8 340.56 447.92 338.81 446.68 337.63 445.46 337.17 445.97 335.35 444.64 334.67 444.29 333.63 445.06 331.72 446.76 330.7 448.75 330.84 449.44 330.28 448.23 328.71 448.6 323.23 447.44 321.41 443.81 319.53 442.47 317.07 442.33 315.53 439.67 313.61 439.66 312.32 440.75 310.73 440.45 309.8 439.17 309.26 438.75 308.47 436.4 308.57 435.31 308.14 432.69 305.78 431.94 304.35 431.45 302.33 431.36 299.89 432.34 297.39 433.66 295.66 435.86 294.66 435.79 292.74 436.57 291.38 436.61 287.44 434.92 287.11 433.52 289.52 431.17 290.74 430.24 290.86 428.11 290.02 427.8 288.97 426.49 289.17 426.08 290.85 425.06 291 424.73 288.87 424.04 287.79 425.27 285.15 426.52 283.39 427.35 282.86 425.93 280.24 424.13 280.01 421.37 280.4 419.47 280.41 418.58 279.69 415.9 279.93 413.83 279.2 411.95 276.74 412.3 275.02 411.7 273.95 411.35 270.75 412.76 270.15 415.44 264.71 417.86 262.36 420.76 261.55 423.19 259.56 425.53 259.58 426.42 259.21 426.78 257.71 428.14 255.79 428.25 253.1 427.92 250.26 427.24 249.68 421.75 248.12 419.96 248.29 417.69 250.5 416.78 250.5 414.55 249.39 408.72 248.96 406.74 250.05 405.09 254.77 402.67 258.86 401.37 259.97 396.2 261.85 395.57 262.3 394.16 264.43 392.29 265.07 390.58 264.78 387.88 263.6 382.66 261.83 380.79 260.15 380.44 258.31 379.96 257.73 377.03 256.71 375.04 255.73 369.56 254.41 368.49 254.65 365.76 257.94 365.46 260.23 363.69 261.53 359.92 262.14 357.77 262.87 356.48 264.47 355.84 266.9 354.31 269.23 354.33 271.64 353.48 271.95 352.27 271.42 351.68 270.34 350.77 270.05 348.09 270.05 346.26 270.62 343.45 269.05 342.54 269.2 342.15 270.8 340.73 273.35 337.63 273.54 334.5 275.65 332.4 278.41 332.52 280.23 334.32 281.47 334.85 283.11 334.09 284.48 332.75 285.92 332.92 289.92 331.97 291.15 329.91 292.09 327.89 294.08 327.64 295.46 328.03 298.01 326.74 299.3 324.83 298.83 322.61 299.25 320.3 304.13 318.76 305.78 317.4 306.17 315.57 308.35 313.06 308.91 310.97 308.51 307.91 309.13 307.1 310.67 307.29 313.87 306.69 316.11 304.7 318.28 303.99 322.6 304.16 325.07 303.98 326.44 304.25 328.54 301.67 331.49 301.47 332.42 302.07 334.56 301.34 335.84 298.6 337.91 297.54 339.03 298.06 344.53 296.87 344.64 294.59 346.63 292.48 346.05 289.87 347.02 288.09 348.26 286.44 348.13 285.29 347.52 285.05 346.01 285.2 342.21 284.68 341.45 282.8 340.88 281.82 341.5 281.12 344.29 280.68 344.96 276.62 345.81 273.73 345.68 269.77 347.14 267.34 346.57 264.2 347.03 263.09 348.53 261.91 348.93 260.81 350.23 260.83 353.88 259.18 355.39 255.7 354.58 251.91 355.66 249.95 356.64 249.59 357.71 249.92 359.3 248.98 361.74 248.67 363.8 246.47 365.55 244.56 366.68 245.14 368.7 244.51 370.84 242.63 372.57 242.45 373.13 243.66 376.83 243.22 379.53 240.38 381.76 238.41 381.24 236.35 381.58 235.23 382.31 234.44 383.58 233.52 384 230.65 383.92 228.72 382.79 226.79 380.11 223.95 379.16 221.07 377.92 220.01 378.56 216.74 379.3 214.39 380.65 212.13 379.4 210.84 380.28 208.87 380.64 203.47 380.29 202.5 379 200.97 377.8 199.85 376.08 197.16 374.42 197.34 372.45 196.54 371.71 194.6 372.08 192.33 371.41 189.26 367.48 186.42 365 185.02 362.7 182.61 362.69 178.95 360.1 176.63 359.42 175.43 358.24 173.76 357.9 171.25 358.06 166.83 357.96 163.35 358.57 162.62 359.15 161.96 361.48 160.38 362.84 156.39 364.6 154.01 363.74 149.4 362.56 144.85 362.68 141.67 360.8 135.29 361.9 133.49 361.57 129.65 361.68 124.8 363.98 124.03 365.98 123.34 368.83 123.47 370.45 122.86 371.82 120.58 373.94 120.01 375.57 118.3 376.42 116.13 378.39 114.48 378.65 113.11 379.96 111.69 379.95 110.29 381.73 108.53 382.19 108.07 383.46 108.23 384.82 104.07 386 103.19 385.95 98.32 383.49 95.99 383.21 94.22 382 92.56 381.96 90.25 381.41 88.81 379.49 86.94 378.53 86.35 376.65 84.69 376.75 81.84 376.15 79.25 374.62 78.67 372.51 77.6 370.73 76.62 370.78 74.63 373.03 73.23 372.49 72.33 372.8 71.35 374.59 70.12 375.08 68.61 376.59 67.09 377.18 62.65 376.66 60.62 377.18 59.37 377.03 57.96 377.99 56.27 378.07 55.05 379.05 53.81 377.94 51.6 377.33 48.46 378.16 47.16 378.9 45.18 378.27 40.78 377.68 39.37 377.9 37.1 379.28 35.8 378.34 34.25 378.88 33.51 377.3 32.02 376.3 31.44 375.29 30.06 374.69 29.52 373.77 30.41 371.84 30.29 370.27 28.99 368.41 27.93 368.6 26.87 369.48 24.87 369.32 23.92 368.49 23.7 366.72 22.23 366.61 20.31 368.39 18.96 368.01 18.31 366.67 16.62 365.16 15.66 365.08 13.93 366.14 13.02 366.15 11.18 364.27 11.56 362.66 10.59 358.88 9.86 358.63 5.17 358.7 4.19 358.38 6.83 357.82 6.48 355.45 5.92 355.03 3.87 352.07 3.66 350.93 4.75 349.5 6.5 349.41 7.49 347.6 12.19 345.18 14.51 344.31 16.96 344.01 17.81 343.51 19.94 340.16 19.1 339.43 17.27 339.1 15.01 339.2 12.96 337.97 10.57 337.92 9.65 337.32 8.27 335.4 5.77 333.75 4.43 331.51 3.97 329.44 4.16 328.66 3.4 324.46 1 322.19 2.38 321.03 2.69 318.81 4.12 317.36 5.06 315.45 6.09 314.97 9.68 315.45 11.05 314.65 15.29 311.72 16.03 310.75 16.37 306.11 17.49 303.65 17.24 302.68 14.01 300.23 12.95 298.51 13.05 294.83 12.57 293.35 11.04 292.6 10.31 290.1 10.02 287.55 9.21 286.41 8.75 284.01 9.71 281.79 10.98 279.64 12.47 279.48 14.01 280.19 18.3 277.15 18.87 275.75 18.79 274.09 17.36 272.51 15.89 272.29 15.45 271.5 17 270.4 18.05 268.17 17.63 266.14 18.09 263.48 17.38 261.19 15.94 259.14 14.63 258.3 13.88 256.27 11.85 255.56 10.24 252.56 7.71 248.65 6.39 245.63 6.65 244.07 7.52 243.08 9.36 242.68 10.84 241.81 10.96 240.78 9.9 237.92 10.82 236.53 11.68 236.43 13.52 237.54 14.47 237.33 15.34 236.33 16.3 234.27 17 233.81 17.45 232.11 19.59 231.39 20.65 229.94 22.8 228.19 24.81 227.7 25.78 226.54 26.62 224.19 27.51 223.38 28.39 221.27 28.2 220.19 27.21 219.6 25.97 217.67 24.57 216.27 23.57 214.07 22.8 209.35 22.81 207.6 22.05 206.28 20.36 205.13 19 203.65 18.8 202.31 16.35 200.55 14.17 199.3 13.75 198.08 12.43 196.87 13.22 195.24 13.03 193.71 13.39 192.36 17.59 190.09 19.39 189.91 21.71 189.21 22.79 187.54 24.31 187.22 25.21 185.53 26.77 183.86 27.16 182.64 28.82 181.05 30.69 179.93 31.29 178.38 33.37 176.33 35.27 176.38 37.28 176.06 39.97 175.05 41.07 173.71 45.91 170.49 47.02 170.13 49.25 168.26 53.17 167.12 54.42 165.35 56.64 163.62 57.83 163.89 59.85 165.36 61.01 166.62 64.77 167.13 66.15 167.89 69.8 168.7 71.49 168.5 72.91 167.44 76.52 166.92 77.69 166.96 80.5 168.1 83.66 166.99 84.52 166.01 85.82 165.53 89.31 163.7 90.43 163.46 93.25 164.18 97.91 166.61 99.85 167.83 101.07 169.05 101.32 171.16 103.13 174.55 105.14 177.05 108.22 179.25 111.48 179.69 113.4 179.3 114.06 180.28 117.99 181.55 118.54 183.4 119.62 182.94 120.25 181.83 121.96 182.03 123.41 181.73 124.55 180.87 125.91 180.88 130.28 182.98 131.22 184.85 132.67 186.92 135.45 187.72 138.94 187.05 138.45 188.95 138.64 189.73 140.96 190.69 143.33 191.28 145.18 192.79 147.31 192.95 151.27 194.41 153.37 193.26 157.23 191.52 161.91 191.45 163.89 191.11 166.02 191.09 168.43 191.82 171.09 192.35 173.17 193.31 173.62 194.03 175.18 194.97 178.54 194.86 179.88 195.19 181.12 196.1 183.93 195.86 185.84 196.23 186.29 198.09 188.87 199.31 190.12 199.38 191.33 200.47 191.59 202.43 193.06 202.94 193.63 204.09 195.41 205.91 196.78 206.71 198.2 206.61 202.35 204.6 203.2 204.59 204.67 203.11 205.39 201.76 206.57 201.68 208.06 202.38 210.84 201.78 211.94 201.83 213.26 200.78 213.67 199.05 215.27 197.95 217.24 198.2 218.27 197.46 221.64 196.95 222.73 196.34 223.39 194.41 225.15 194.66 226.87 194.07 227.49 192.41 229.83 191.91 230.47 190.91 230.05 187.87 230.5 187.32 232.53 186.51 232.98 184.49 236.03 181.8 236.66 180.98 238.79 179.44 239.55 176.04 239.38 174.69 237.15 173.08 237.32 171.8 236.58 170.55 236.55 168.61 237.95 167.08 238.18 165.53 237.88 163.26 239.24 162.12 243.17 162.48 245.06 161.71 245.69 160.25 245.15 158.34 244.18 157.1 243.88 154.32 242.66 153.32 242.31 152 241.08 150.5 241.06 149.32 243.2 147.2 245.42 146.55 247.32 146.59 247.93 146.01 249.43 143.34 250.54 142.96 251.11 141.21 252.8 140.43 254.66 138.03 255.86 137.54 258.02 138.02 259.99 136.77 261.82 138.42 265.76 137.86 267.63 136.71 270.86 136.81 271.53 137.4 271.8 138.9 272.59 138.76 273.01 137.26 274.05 136.09 277.04 135.09 280.34 136.06 282.38 135.23 283.53 135.43 285.26 134.52 287.41 135.31 289.26 135.38 292.58 137.66 294.9 139.82 297.05 139.29 298.36 138.08 299.61 137.49 301.97 137.68 304.1 138.72 304.35 139.59 307.62 141.14 308.02 142.27 309.78 142.97 315.25 142.15 319.15 142.75 320.47 143.21 323.23 145.25 324 146.07 325.04 149.43 326.64 150.52 327.88 152.79 334.06 154.37 335.34 155.04 336.96 154.41 337.38 152.06 338.7 149.89 338.75 148.96 344.64 146.53 348.96 145.88 349.99 146.07 354.61 145.26 356.62 143.81 359.94 141.09 361.62 140.28 365.73 139.78 368 138.66 369.8 137.44 370.54 137.41 372.1 138.48 374.38 140.49 376.41 140.83 378.41 141.57 379.67 141.62 382.36 137.96 384.87 135.33 387.44 133.67 389.45 132.77 393.15 130.01 393.23 122.98 394.27 121.39 394.42 119.58 394.05 118.62 395.64 115.85 397.27 114.95 398.36 113.85 402.22 113.47 404.14 114.03 408.24 112.95 409.39 113.49 411.3 112.84 413.42 109.52 415.14 108.67 418.08 107.99 422.26 108.19 424.76 108.72 426.23 107.55 427.64 105.68 427.98 103.31 429.07 99.86 430.13 97.68 430.35 96.28 431.51 93 433.5 90.76 435.73 89.51 438.59 88.25 442.95 87.29 445.29 86.96 447.08 86 453.52 84.1 456.4 82.39 459.01 81.16 462.81 80.11 464.81 80.47 467.05 78.73 469.17 78.35 471.05 78.6 472.74 78.16 475.7 77.99 479.82 79.05 482.43 78.42 486.63 77.77 490.14 77.46 493.01 77.47 495.01 78.12 498.66 78.19 500.22 77.66 502.13 80.34 504.68 82.18 504.1 84.99 502.25 88.63 502.56 89.56 506.13 89.61 507.47 90.03 508.85 89.79 510.22 87.23 511.8 86.21 513.86 84.24 516.41 80.57 517.64 77.84 518.03 74.57 519.95 71.42 521.79 69.87 524.2 65.93 525.63 62.47 527.1 61.49 527.37 60.44 528.99 58.74 529.46 57.1 531.82 56.41 535.21 56.42 539.35 55.61 543.08 54.29 544.92 53.43 546.57 51.88 550.44 50.01 552.18 49.45 556.36 48.96 557.71 48.29 558.88 46.16 560.16 45.72 562.14 47.07 563.99 47.43 564.8 46.82 564.73 44.85 566.28 43.29 571 40.44 571.83 37.96 570.36 35.56 570.73 34.59 577.23 32.58 581 33.21 582.62 32.66 583.07 30.56 586.11 28.33 587.56 25.99 591.14 23.77 592.25 21.58 593.95 19.54 594.2 18.7 593.9 16.51 593.2 13.95 593.23 12.81 592.52 10.46 593.7 9.16 594.69 8.68 594.41 6.35 595.59 5.76 596.88 3.55 597.97 2.42 600.7 2.73 603.12 3.86 605.46 3.91 608.04 2.88 608.82 2.84 612.02 3.65 616.46 2.68 619.13 1.89 620.37 1.16 621.49 1.95 623.84 2.48 625.86 1.89 627.46 2.07 630.94 1.33 634.58 1.1 637.51 2.15 640.71 1.95 642.48 2.53 644.19 1.17 645.48 1 649.16 2.53 651.32 2.63 652.72 3.46 653.91 2.59 655.22 2.53 656.84 3.17 660.03 3.3 Z"/>
</g>
</svg>