<?xml version="1.0"?>
<svg xmlns="http://www.w3.org/2000/svg" version="1.2" baseProfile="tiny" width="800" height="611" viewBox="0 0 800 611" stroke-linecap="round" stroke-linejoin="round">
<g id="4210407">
<path d="M 626.88 1 650.29 18.31 731.29 75.29 799 122.31 677.58 356.53 641.57 432.53 577.28 603.46 571.99 604.12 546.87 609.04 533.85 610 525.34 609.81 515.87 607.59 507.73 603.63 503.08 599.04 498.21 584.84 496.01 579.62 492.5 575.11 481.81 566.75 472.53 562.71 462.06 559.11 451.58 556.45 442.78 555.17 431.1 554.21 418.5 554.35 405.17 555.35 402.89 545.14 398.81 542.2 398.23 537.83 394.45 535.16 392.31 528.94 392.01 525.1 388.08 503.76 384.05 496.82 372.13 479.83 370.05 477.6 358.16 470.45 320.38 448.5 312.92 446.89 306.5 447.47 249.25 454.32 227.72 460.45 219.88 435.67 219.4 432.39 213.9 430.85 210.79 433.11 205.6 441.56 199.78 446.06 149.15 466.78 139.01 463.37 134.12 464.65 131.18 467.15 131.26 470.32 129.09 471.79 129.33 479.28 127.54 482.55 124.97 483.77 122.63 487.06 117.45 487.84 110.08 485.67 110.27 490.06 106.11 492.99 102.43 492.63 101.64 489.84 96.88 489.43 93.66 487.14 90.95 494.34 89.42 496.37 85.61 497.64 76.45 498.07 73.81 492.81 68.77 489.53 62.81 492.44 63.17 488.16 65.83 479.8 69.35 472.3 71.14 467 71.5 461.34 70.15 455.83 68.3 452.58 62.54 445.92 52.22 437.23 49.19 434.13 37.48 418.8 34.42 412.93 32.18 404.83 31.02 396.52 27.36 392.33 21.63 388.6 7.06 384.19 2.51 380.89 1.02 377.25 1 369.44 2.02 362.76 7.2 354.62 9.56 346.98 8.46 336.3 10.45 312.98 12.71 302 17.65 297.76 26.21 295.57 30.34 293.09 39.27 285.38 41.97 282.04 42.07 276.07 40.13 263.48 43.43 256.63 50.53 249.05 52.9 247.33 58.92 248.87 63.74 254.87 68.23 257.77 84.36 262.39 101.01 270.52 106.15 270.24 107.1 265.1 102.47 251.94 102.02 242.73 104.86 229.51 107.67 220.63 112.86 218.54 121.8 220.87 133.71 221.15 137.01 222.25 141.09 226.85 142.46 230.94 143.41 241.23 145.37 245.17 151.32 245.69 158.33 241.02 166.25 235.03 169.88 231.34 176.84 229.72 185.23 231.96 189.55 232.08 207.41 228.21 217.03 227.98 220.19 226.77 221.44 222.65 218.89 214.37 210.36 210.84 205.84 207.97 205.14 203.03 209.09 191.68 211.91 189.4 216.8 188.6 224.73 190.72 228.17 193.47 229.52 197.32 228.1 202.37 223.73 209.08 227.14 213.55 239.31 219.03 248.9 220.4 257.69 219.51 263.75 216.5 262.99 213.13 253.82 205.71 250.99 200.65 251.09 198.29 258.76 195.18 264.54 191.91 275.4 195.09 279.39 194.76 296.43 185.49 303.2 183.7 308.53 183.8 318.67 188.3 329.33 190.15 335.48 188.58 340.39 188.31 353.19 180.78 359.13 182.37 361.41 188.39 365.43 193.6 369.75 196.17 375.44 197.7 380.92 200.62 385.43 202.08 396.47 201.93 403.27 202.57 412.07 199.37 421.83 198.01 428.95 195.49 433.96 195.33 440.24 200.76 445.44 198.22 447.35 195.1 449.05 189.18 452.02 185.44 466.79 176.39 471.02 172.33 472.89 172.21 483.16 175.48 487.58 175.45 492.63 172.38 493.81 170.27 493.27 162.05 492.38 159.46 488.88 155.22 490.91 144.89 484.84 138.23 483.48 131.58 489.03 123.66 488.08 119.09 479.65 117.29 477.71 116.09 477.14 111.65 478.98 104.42 480.87 100.26 483.47 97.48 486.89 96.36 494.24 98.92 510.1 97.14 512.79 94.36 513.64 91.07 525.59 89.16 528.36 85.72 528.64 81.41 526.61 74.71 530.69 72.28 541.34 71.18 545.17 72.06 557.56 71.66 561.9 72.83 562.85 74.85 558.5 77.27 560.71 79.51 570.26 81.36 580.5 81.51 582.28 80.3 582.44 74.83 583.53 70.94 589.23 69.44 594.4 64.2 590.35 59.15 592.69 51.67 589.38 49.19 587.18 51.36 584.26 51.51 579.29 48.25 579.82 46.85 588.53 45.63 589.9 42.45 583.89 40.21 583.88 36.87 581.17 31.35 584.91 28.97 587.96 33 590.11 33.28 593.92 28.85 595.18 22.79 598.85 24.98 604.4 24.42 607.07 25.59 607.71 28.92 605.15 32.85 607.48 34.55 611.48 29.71 612.94 24.24 617.92 21.89 608.78 16.54 607.42 13.59 610.59 12.57 615.1 13.3 614.09 6.18 620.06 6.49 627 2.58 626.88 1 Z"/>
</g>
</svg>