<?xml version="1.0"?>
<svg xmlns="http://www.w3.org/2000/svg" version="1.2" baseProfile="tiny" width="800" height="454" viewBox="0 0 800 454" stroke-linecap="round" stroke-linejoin="round">
<g id="4210852">
<path d="M 76.64 7.76 77.25 9.69 78.03 10.61 80.59 12.86 82.12 14.74 82.2 16.18 81.71 17.56 82.17 18.64 83.42 19.21 85.16 18.04 87.88 18.08 89.96 19.34 90.82 22.17 90.75 23.44 89.31 25.1 88.05 24.1 86.92 25.25 86.66 26.16 86.66 29.46 84.5 33.19 83.26 37.11 81.98 38.23 78.48 38.82 77.7 39.59 78.01 40.41 79.38 41.67 82.47 43.09 83.94 44.34 84.65 46.74 85.53 48.2 88.1 51.08 89.11 53.29 89.6 57.49 92.64 62.2 93.13 64.25 93.49 68.41 95.5 70.46 96.17 71.5 96.05 73.8 96.69 75.06 98.02 76.6 99.19 77.42 102.6 79.19 105.14 82.7 106.92 84.38 108.56 85.21 110.91 85.14 113.89 84.29 115.21 83.69 118.35 83.27 122.91 84.77 125.72 84.54 128.08 83.82 131.68 82.19 134.07 81.52 135.85 80.37 137.75 76.41 140.19 75.2 141.05 74.04 140.64 71.95 138.74 68.69 138.77 65.68 139.21 64.34 140.13 63.02 140.99 60.17 143.38 56.1 143.22 54.11 143.53 53.3 145.39 52.09 145.91 51.01 145.87 48.89 147.15 48.15 149.41 48.46 151.07 49.06 152.99 49.22 153.45 50.92 154.28 51.77 155.27 51.94 158.93 51.64 160.57 51.34 161.81 52.61 163.17 53.1 165.67 53.05 168.52 51.34 170.2 49.4 171.6 49.41 173.3 50.59 174.62 52.67 176.32 54.08 178.2 54.69 180.21 56.91 183.28 56.85 185.53 55.56 187.65 54.79 189.76 55.34 192.03 56.83 193.56 56.56 195.31 55.35 196.94 54.66 199.25 55.61 199.84 61.54 200.87 63.63 201.89 63.89 204.87 62.33 207.6 60.41 207.99 61.77 209.2 63.66 209.61 65.2 212.69 66.41 213.21 67.31 214.32 67.41 214.57 66.52 216.74 64 216.74 62.03 217.18 61.42 218.53 61.5 219.67 62.5 221.16 62.62 222.37 62.02 222.79 64.46 223.81 65.39 227.17 66.89 227.97 67.94 228.03 70.2 228.68 71.16 228.03 72.58 228.11 74.45 227.22 76.5 227.38 77.64 228.63 78.7 230.32 79.09 232.05 80.71 232.6 82.15 234.25 83.64 233.04 85.14 232.12 86.86 232.01 88.14 232.54 89.49 231.75 91.63 233.85 93.03 234.71 94.76 236.01 95.66 236.96 98.77 239.1 101.6 241.92 103.57 242.37 105.96 244.46 106.5 247.08 106.37 248.08 108.31 249.88 108.88 250.96 109.7 251.99 112.38 255.41 113.72 256.55 115.62 255.55 118.31 255.48 120.88 257.65 125.95 258.14 126.52 259.89 126.83 262.04 125.79 263.82 128.68 263.84 130.17 263.41 132.97 263.82 135.35 263.32 136.65 262.22 137.7 262.12 139.21 263.59 139.79 265.02 139.89 265.68 141.18 266.13 143.43 266.87 145.54 266.83 147.42 266.32 149.13 265.05 150.19 263.85 152.98 262.35 154.36 262.5 158.41 266.49 162.55 268.23 163.52 268.86 164.53 270.01 165.03 271.14 164.48 271.74 165.57 273.53 166.69 274.81 168.8 275.02 169.81 274.17 173.67 274.47 176.04 275.99 177.2 279.66 178.5 281.35 178.12 282.04 176.25 283.7 174.92 285.05 174.63 288.07 174.75 291.9 173.11 293.18 172.92 296.34 173.23 298.22 172.32 301.68 174.75 304.89 176.65 307.45 176.22 308.69 176.49 311.71 176.12 313.78 176.36 314.7 176.98 315.95 177.05 318.5 177.8 321.03 179.28 324 179.07 325.05 179.8 326.79 182.07 328.19 181.94 332.9 180.01 335.87 178.3 337.31 176.99 339.11 175.77 341.63 174.82 344.57 174.29 346.88 173.32 347.68 173.26 349.59 174.63 351.92 174.49 354.15 173.05 354.35 171.98 355.22 170.95 357.44 169.16 359.21 168.42 361.34 168.48 364.11 170.68 365.06 170.92 366.05 170.41 368.21 168.39 369.58 168.12 372.64 171.15 377.45 172.37 380.04 174.24 381.45 174.27 383.22 174.93 384.37 177.05 385.57 177.16 389.03 175.71 390.73 173.66 392.48 172.12 393.98 171.59 395.49 171.83 396.95 173.87 400.95 172.36 402.57 172.42 405.98 172.98 406.66 172.56 409.59 168.38 410.49 165.36 410.56 163 411.15 162.21 412.87 161.51 414.09 160.44 419.72 157.92 421.26 155.45 424.58 154.25 426.92 154.14 427.98 153.71 430.3 151.9 432.29 148.38 434.81 146.87 435.35 145.88 436.04 143.4 437.27 141.29 439.32 138.7 442.41 138.24 444.2 137.01 446.78 137.19 452.25 136.44 454.01 137.19 455.19 137.15 458.22 139.68 459.64 139.9 462.8 138.85 465.24 138.89 469.6 136.61 471.07 136.92 475.67 139.77 476.99 141.47 479.59 143.65 481.55 147 483.45 148.29 484.8 149.93 484.9 152.07 485.92 153.27 487.35 152.65 488.78 153.64 490.93 152.96 493.76 153.39 494.57 153.15 498.98 154.08 501.97 156.19 503.15 156.27 504.51 157.17 506.16 157.42 507.54 156.93 508.13 155.91 509.56 156.96 511.53 157.52 513.55 157.43 514.45 156.63 517.68 156.46 519.75 157.4 522.17 157.64 523.86 158.34 525.42 158.17 528.33 159.15 531.1 159.36 532.58 159.98 535.28 160.56 535.69 162.6 537.05 163.94 539.87 164.1 541.33 165.13 541.61 166.03 540.81 166.84 541.74 167.81 543.15 167.63 545.33 168.51 546.38 169.43 548.21 168.12 549.33 166.63 551.11 166.36 551.94 165.72 553.77 166.51 554.02 165.73 556.12 165.55 557.19 165.88 558.66 163.58 559.46 163.5 560.39 165.17 561.63 163.87 560.71 163.28 562.69 162.25 562.9 161.42 565.07 160.54 572.95 159.82 573.31 159.68 574.4 165.01 576.41 165.31 578.99 164.45 582.06 166.24 584.04 166.51 588.08 166.57 591.21 166.21 593.46 166.19 596.48 163.78 597.3 163.6 603.76 166.04 605.65 166.89 607.43 167.26 610.18 167.41 614.46 168.78 617.35 170.01 619.36 171.24 622.96 174.56 624.82 174.72 627.32 174.24 631.99 172.66 633.92 171.49 635.59 170.89 637.54 171.1 642.48 174.87 666.19 231.95 667.44 233.05 669.05 232.3 669.93 228.65 670.69 228.72 672.68 230.46 673.53 230.29 673.84 228.23 674.84 227.13 676.54 226.76 676.84 225.14 675.89 223.9 674.75 224.14 672.34 225.96 671.54 227.01 670.34 227.23 668.31 224.54 668.21 223.95 670.06 221.98 674.05 219.77 675.8 218.09 678.19 217.41 679.91 218.21 682.23 219.69 685.32 222.55 687.24 223.77 690.96 225.57 692.7 226.97 694.5 229.08 698.38 230.18 699.65 229.45 701.78 225.93 703.02 224.38 704.94 224.26 707.57 223.08 709.3 223.18 710.51 223.66 712.05 225.61 714.77 225.1 719.03 225.16 722.26 226.09 723.19 227.58 726.53 228.07 728.03 227.94 729.46 227.25 730.99 225.94 733.81 227.7 737.41 228.17 738.95 227.51 740.16 228.47 741.62 230.17 742.51 230.27 747.61 228.61 748.72 227.92 748.98 225.63 749.63 224.82 751.36 224.96 752.95 227.46 755.32 225.9 757.65 226.59 762.36 227.08 763.7 226.33 764.91 226.58 765.75 226.19 770.73 226.39 772.66 229.2 773.9 230.54 773.56 231.86 774.04 233.41 775.51 236.06 776.3 236.95 777.49 237.45 779.35 240.39 779.44 242.68 779.94 243.63 782.37 245.27 783 246.88 783.9 247.82 785.95 248.87 787.61 250.72 791.09 253.71 793.07 256.95 793.75 257.44 793.99 260.41 794.68 261.1 799 262.76 796.21 263.88 795.44 264.85 795.32 269.03 793.61 271.44 793.18 272.69 792.17 274.05 788.49 276.85 788.33 278.52 789.38 281.1 789.2 282.02 786.87 285.39 784.96 286.16 783.26 288.17 782.5 290.56 781.63 291.46 780.98 294.13 779.9 296.52 778.95 297.47 778.26 299.46 778.13 301.34 778.5 304.04 778.36 305.45 777.67 306.89 776.46 307.94 775.29 308.03 772.88 308.79 772.06 311.16 772.74 314.62 745.21 309.93 740.32 314.92 736.07 321.85 730.89 328.25 725.64 333 723.66 334.24 721.44 334.81 715.01 334.21 706.92 331.72 702.76 329.48 699.26 329.06 696.03 329.5 692.42 329.31 687.02 327.43 686.28 325.54 684.42 324.5 683.97 323.52 684.71 321.54 687.47 319.78 689.66 316.76 688.96 316.03 686.71 317.72 686.08 316.8 686.35 314.67 688.56 312.82 686.62 312.47 685.04 313.62 683.8 312.94 683.63 311.41 685.08 311.62 685.39 310.65 682.6 310.17 682.23 311.02 681.03 310.91 679.8 310.24 678.87 309.2 679.75 307.87 678.87 306.79 678.75 305.82 677.69 305.23 679.12 304.03 677.61 298.92 675.53 298.5 672.63 301.57 670.73 302.57 667.81 303.75 667.49 305.24 665.87 307.17 666.12 308.6 665.51 310.87 664.37 311.88 664.47 312.74 663.23 312.92 662.94 313.94 659.73 314.04 658.37 314.9 658.83 315.61 657.86 316.75 657.48 318.82 656.43 318.7 653.8 319.18 652.2 320.39 652.49 321.92 651.21 323.18 650.41 323.03 648.63 323.81 646.66 323.55 645.64 322.19 643.04 323.78 642.21 323.54 640.14 325.09 640.6 326.16 640.19 327.5 638.81 329.15 638.93 331.84 636.58 333.16 636.37 333.98 649.63 344.71 649.43 346.6 647.24 350.19 646.27 350.88 643.17 351.55 641.64 352.21 639.62 353.92 639.9 355.99 638.71 357.48 637.68 359.72 635.05 360.18 633.49 361.29 632.45 362.69 631.97 364.36 630.72 365.54 627.41 367.04 625.65 368.41 623.31 370.87 622 373.1 621.28 373.81 619.34 374.58 612.33 376.35 610.23 376.12 606.79 376.29 605.76 376.7 602.7 376.28 601.22 376.35 600.02 377.63 599.34 379.32 598.26 379.98 596.61 379.76 593.94 380.69 590.83 382.07 588.84 383.39 586.84 384.13 585.68 384 583.65 382.09 582.37 379.67 580.98 377.89 579.25 376.92 578.45 376.98 576.86 379.1 576.07 382.01 575.01 382.41 572.91 382.12 572.1 383 570.92 385.53 570.12 388.12 568.98 390.47 567.38 390.48 565.86 389.55 564 389.06 561.42 389.17 559.44 388.6 557.94 388.49 556.62 389.27 555.04 391.47 554.28 394.98 553.09 397.57 552.1 399.15 550.63 399.82 546.9 402.17 544.15 402.87 538.2 405.76 535.07 407.93 533.99 411.22 532.69 413.64 529.36 414.04 526 416.42 524.93 419.12 522.45 419.58 521.24 420.87 520.24 422.89 519.96 424.48 519.06 425.47 515.76 426.7 513.69 428.3 513.09 429.77 513.22 432.13 512.72 433.87 510.72 436.38 509.16 437.9 508.39 439.47 507.15 443.84 505.01 446.93 501.72 448.76 498.84 447.1 497.58 446.84 496 447.24 492.6 448.82 491.71 450.92 490.56 451.53 488.13 451.9 485.93 450.8 483.58 450.16 480.74 449.97 478.71 449.26 474.75 448.23 473.4 447.22 468.3 447.25 467.04 446.51 462.74 446.87 460.62 447.99 457.61 449.15 455.81 451.31 453.39 452.19 449.16 451.97 447.16 452.42 445.72 452.3 443.47 451.48 441.68 451.85 439.85 452.77 438.02 453 436.91 451.73 435.99 449.78 433.82 448.77 429.97 447.56 427.77 448.17 426.9 447.65 425.07 448.17 421.89 451.27 420.6 451.65 416.44 451.59 412.76 452.44 410.75 451.58 409.21 452.43 408.14 452.38 405.19 450.94 404.31 449.53 402.63 448.64 400.66 448.58 400.04 447.91 400.18 445.93 399.5 445.2 397.91 444.67 396.56 442.1 395.29 441.7 393.19 441.54 389.57 440.22 388.1 439.84 383.86 438.21 382.31 437.28 381.5 436.23 377.97 427.95 377.3 425.77 376.08 423.46 376.03 420.29 375.17 415.39 374.38 413.64 373.1 412.08 372.1 408.85 372.32 407.51 371.35 406.68 366.06 404.67 359.8 401.33 357.25 401.46 356.52 402.29 355.68 402.2 354.31 401.1 353.07 398.47 352.43 396.35 352.05 394.1 350.45 391.42 349.53 389.19 347.9 388.9 347.79 386.73 347.31 384.4 346.69 383.25 344.65 381.58 343.2 380.95 342.71 380.19 343.06 378.11 342.01 375.51 340.93 374.24 338.89 373.71 338.19 373.05 338.09 371.08 337.22 369.22 335.98 368.61 331.26 370.28 329.25 370.57 327.26 369.39 326.84 370.14 329.53 373.7 330.75 376.5 330.51 377.98 329.86 379.17 325.55 382.79 320.86 385.19 316.43 385.97 314.43 387.1 308.82 388.09 306.17 387.94 302.84 389.16 299.84 391.33 298.72 391.87 292.82 391.32 288.36 391.09 286.39 390.31 284.89 389.38 282.18 388.15 279.91 386.03 277.43 384.67 276.28 383.66 275.49 382.32 275.16 379.59 272.18 377.52 271.06 377.67 268.47 378.73 264.48 378.92 262.66 380.07 260.36 381.04 257.21 381.64 253.68 381.2 252.22 380.39 244.37 374.27 242.95 372.85 241.6 370.92 239.91 369.97 238.16 368.27 237.09 368.24 235.06 365.16 234.59 363.33 233.56 361.63 231.33 359.14 229.19 358.66 225.72 359.67 224.38 359.41 222.52 358.41 221.69 358.32 217.42 360.03 215.3 360.08 210.65 359.37 207.49 359.32 203.81 358.63 202.74 356.82 202.72 355.17 203.21 353.28 202.72 352.17 201 351.41 196.83 350.69 194.54 349.22 191.61 348.16 189.12 345.84 187.21 342.87 187.99 341.97 188.14 339.5 186.98 338.43 186.95 336.62 185.95 334.98 184.83 334.67 184.46 333.64 184.49 328.75 185.3 327.51 188.31 324.85 190.86 322.03 191.19 320.06 192.52 317.2 193.96 311.17 193.08 310.18 191.07 308.92 191.02 308.08 191.82 306.62 194.6 302.72 194.58 298.67 195.84 296.97 196.05 296.06 195.55 294.09 196.13 289.97 195.39 286.95 193.36 285.33 190.79 283.66 189.62 282.53 186.59 280.89 184.47 280.23 184.24 280.89 185.37 285.84 185.85 286.99 188.66 289.64 190.27 292.37 190.12 294.64 189.29 297 185.43 300.31 183 302.08 178.89 304.51 177.99 305.57 177.33 308.49 175.12 309.52 171.46 309.96 170.45 309.85 168.91 308.49 167.15 306.27 166 305.39 163.47 305.25 162.32 306.83 158.93 310.77 154.49 313.22 152.34 313.87 149.44 315.82 147.96 316.25 145.91 315.95 142.38 314.91 141.02 315.4 140.18 316.35 137.59 317.23 134.95 317.59 133.52 318.49 133.05 319.32 133.62 321.07 130.1 320.76 130.87 318.25 130.8 316.61 129.83 314.43 130.27 312.66 129.86 311.84 132.35 310.08 134.12 308.04 134.46 305.62 133.89 302.78 134.81 299.84 134.88 297.04 132.66 292.83 131.76 290.3 130.81 289.14 129.92 286.33 130.4 285.16 130.97 281.8 131.49 280.08 132.45 278.75 132.83 277.05 134.21 276.43 135.72 274.8 136.17 272.43 137.55 269.3 137.81 267.62 136.95 264.39 134.74 263.09 135.6 261.53 134.96 259.59 132.48 258.55 132.48 257.98 136.84 255.17 138.18 251.18 138.55 248.7 138.45 245.51 137.52 242.32 137.57 240.51 134.65 240.6 133.68 241.48 135.06 242.8 132.55 243.37 130.94 243.04 130.21 242.24 127.83 242.59 126.89 242.24 125.08 240.12 124.52 238.38 124.52 236.98 126.24 235 127.48 233.96 129.8 232.89 131.54 232.49 132.88 231.68 133.52 230.34 136.17 227.8 136.69 226.8 140.14 222.08 141.04 218.99 140.69 217.22 139.05 216 136.4 215.3 134.09 213.89 132.45 213.42 130.67 211.92 128.56 209.74 125.24 208.67 123.09 208.2 120.11 208.5 116.92 208.54 114.19 208.34 108.97 209.64 107.97 210.54 105.65 216.17 103.71 217.61 101.31 216.8 100.07 215.91 98.69 213.81 97.96 211.54 97.08 210.2 96.93 208.69 95.69 206.09 96.03 204.85 97.13 203.54 97.97 201.16 98.84 200.32 99.38 198.25 100.49 195.77 101.33 191.78 102.33 189.17 102.2 187.93 101.34 186.31 102.14 183.13 101.96 181.83 102.43 180.66 102.4 179.39 101.83 178.82 98.5 179.67 94.43 178.65 92.83 178.03 89.25 178.54 87.36 177.36 85.47 176.99 84.74 174.84 85.88 173.92 89.11 172.91 90.38 171.76 90.16 169.55 89.52 168.87 88.13 168.93 85.42 170.96 84.15 171.51 82.21 171.34 82.08 168.97 78.66 166.02 76.31 165.48 72.55 165.68 68.3 166.66 69.21 164.15 68.47 161.24 70.2 159.77 70.51 158.14 70.1 157.17 70.79 156.47 71.89 152.96 75.06 150.46 75.44 149.22 73.32 144.91 72.52 141.93 72.42 139.48 71.43 137.5 73.49 136.8 74.23 136.1 74.43 134.96 75.17 134.76 77.88 133.05 80.77 130.59 80.94 128.53 80.47 126.35 78.12 124.68 76.88 124.11 74.75 123.98 75.94 119.55 76.44 116.94 76.24 115.43 77.45 114.69 76.61 112.98 74.73 111.68 73.17 108.27 70.17 107.59 68.59 108.21 67.15 108.16 66.11 107.56 65.38 104.21 65.1 101.28 64.3 100.31 62.16 99.68 61.55 98.71 64.37 96.84 66.61 93.4 64.81 89.9 63.53 89.77 61.92 90.87 61.02 88.9 59.21 88.53 57.82 87.19 56.24 86.16 56.8 83.68 56.61 82.23 55.16 79.62 53.71 79.33 51.26 80.25 50.59 81.09 50.35 83.9 49.88 86.78 49.11 87.42 48.71 89.03 47 90.42 44.99 89.28 45.11 85.08 43.61 84.21 42.71 82.09 42.3 79.62 41.72 79.21 39.75 79.88 37.37 79.45 36.57 76.97 37.17 75.56 40.39 73.95 41.06 72.85 39.25 72.01 39.08 71.12 40.5 68.71 40.19 66.4 39.36 65.55 36.87 64.51 35.9 63.23 35.13 60.73 35.13 59.21 32.34 57.07 30.63 56.1 27.31 54.79 24.62 53.43 22.97 53.32 21.69 54.5 22.06 56.6 24.34 58.55 26.76 61.47 28.21 62.33 30.18 62.13 31 63.94 32.29 64.71 33.06 67.01 29.66 68.93 28.65 68.66 26.11 66.58 22.92 65.26 21.04 64.91 19.2 65.76 19.26 64.34 18.28 62.94 17.01 61.87 16.56 59.61 12.49 58.47 12.05 59.28 9.85 61.43 8.64 62.33 7.56 62.45 5.67 61.87 4.93 63.78 2.99 64.48 2.07 63.15 2.95 59.91 1.13 59.42 1 58.09 3.01 56.97 3.55 55.6 3.69 53.06 4.26 52.16 6.56 50.25 5.46 49.18 2.75 49.25 1.44 48.15 1.58 46.23 2.18 45.21 7.95 42.08 9.16 42.27 13.1 41.96 14.6 40.24 14.72 39.16 14.03 33.74 14.33 32.47 15.09 31.44 17.25 30.2 18.14 27.99 19.91 28.48 21.35 28.41 22.3 27.84 24.52 23.71 25.75 22.68 27.18 20.75 28.03 17.83 29.86 16.27 34.35 13.84 36.05 13.13 38.98 10.8 41.05 8.02 41.14 7.1 42.14 6.67 45.36 7.38 47.58 7.05 49.82 5.39 49.72 3.65 51.62 3.93 51.78 1.23 53.02 1 54.23 1.47 54.34 2.5 53.38 3.01 55.02 4.2 57.46 4.39 60.31 5.5 61.06 5.26 62.41 5.87 67.1 6.02 68.92 6.35 69.23 5.16 70.47 5.33 72.6 4.95 72.79 3.44 74.37 4.79 76.45 4.79 75.76 6.39 76.64 7.76 Z"/>
</g>
</svg>