<?xml version="1.0"?>
<svg xmlns="http://www.w3.org/2000/svg" version="1.2" baseProfile="tiny" width="800" height="703" viewBox="0 0 800 703" stroke-linecap="round" stroke-linejoin="round">
<g id="4211009">
<path d="M 617.02 28.65 616.75 33.1 615.86 38.08 610.79 59.96 610.35 62.63 610.7 65.44 610.9 72.08 610.28 74.96 609.14 76.59 602.73 80.59 596.63 83.57 593.9 84.55 589.31 85.29 582.2 83.58 569.59 78.97 566.86 77.71 558.23 72.88 546.94 67.31 544.19 65.57 539.05 63.21 534.44 62.82 529.73 63.28 526.82 64.42 525.56 65.86 524.56 70.83 522.85 75.09 522.45 77.69 528.65 86.85 532.71 91.22 535.29 94.44 539.72 98.71 545.29 102.46 550.18 103.99 570.27 104.82 574.56 104.54 580.56 104.69 587.86 104.46 594.52 103.9 598.16 103.15 608.4 101.95 617.06 100.58 629.83 101.33 635.44 103.14 642.05 106.5 645.5 109.85 645.03 112.98 642.26 115.95 637.1 125.08 635.79 129.84 637.1 136.58 638.72 138.91 641.33 146.75 642.54 149.03 644.02 154.54 645.05 163.9 645.95 168.55 647.03 175.97 647.01 180.77 644.59 188.11 642.04 193.03 640.59 196.75 639.95 201.54 640.91 204.24 644.48 208.63 647.64 214.16 716.2 224.1 716.81 226.27 719.51 230.58 721.12 236.95 721.11 239.26 718.52 244.35 717.74 247.73 715.23 248.91 778.91 290.49 777.8 293.49 780.53 301.2 782.9 304.65 786.96 307.85 792.82 311.3 795.12 312.13 797.89 314.41 797.96 319.11 799 322.74 798.27 326.42 796.55 328.52 794.77 328.58 787.26 324.44 783.52 321.79 776.71 318.53 773.4 317.68 765.16 314.78 763.15 314.93 758.94 319.21 760.39 324.79 763.41 330.46 767.67 335.96 768.2 339.16 766.39 343.61 765.56 344.55 759.33 349.54 753.96 354.34 753.38 356.45 755.19 360.49 760.02 368.52 759.65 370.31 758.09 370.77 753.03 370.58 748.57 369.44 745.18 361.4 743.86 359.1 741.67 352.99 740.43 348.31 739.28 346.67 735.26 344.98 730.79 345.16 728.49 345.83 722.71 348.89 718.57 352.31 717.71 354.33 714.42 359.92 711.01 364.95 709.92 367.17 707.18 370.7 705.4 371.52 700.07 371.32 696.09 369.33 688.32 370.29 683.01 358.14 678.94 351.07 670.75 335.36 662.55 322.11 654.07 309.95 649.45 305.5 644.36 302.13 638.66 299.78 633.89 298.38 624.01 298.64 613.38 299.67 609 301.51 602.26 305.55 596.79 309.12 586.09 319.41 575.06 332.4 568.96 341.23 564.7 346.3 559.82 353.15 553.46 361.44 549.3 367.74 544.87 377.95 541.32 388.16 538.38 398.02 535.44 407.1 531.9 420.51 528.7 428.39 524.89 435.26 516.28 448.14 511.27 454.52 507 460.36 500.44 466.68 493.32 472.14 487.44 477.62 481.1 481.36 474.22 484.86 465.19 488.53 451.06 489.6 440.09 490.75 430.19 492.2 415.63 494.88 408.02 497.42 398.3 502.28 384 509.22 371.93 516.76 364.64 520.73 354.19 525.89 341.72 530.2 331.68 532.9 323.67 533.82 315.8 532.41 307.68 529.56 300.3 526.3 292.07 518.66 285.8 510.26 283.47 505.88 280.75 500.06 277.64 495.21 271.57 486.69 261.49 473.78 256.88 468.79 247.05 460.91 241.49 457.41 236.66 454.7 227.94 451.07 211.49 446.8 203.9 445.32 198.09 445.51 191.29 446.14 175.88 448.99 167.25 451.46 161.32 454 156.93 457.15 152.66 461.61 149.4 466.2 147.29 470.56 145.5 477.45 143.9 485.34 143.04 493.23 143.16 506.28 143.59 513.56 145.55 521.71 147.27 526.38 149.05 533.03 154.12 549.15 157.11 555.8 162.29 563.85 168.23 570.76 173.98 576.65 186.84 586.58 192.92 592.43 198.66 599.63 202.07 603.48 204.4 607.2 209.12 616.8 210.57 621.11 212.08 627.76 213.12 634.47 213.87 642.3 213.9 649.12 214.8 666.09 214.11 670.33 212.45 676.55 209.57 684.85 206.51 690.28 200.82 696.53 197.17 698.96 191.37 700.61 185.31 701.48 177.37 701.92 170.44 702 156.58 701.45 145.82 701.58 135.23 700.15 126.62 698.79 117.68 697.13 107.4 694.33 87.44 684.66 79.66 680.26 73.17 675.08 62.85 667.12 59.04 662.44 51.56 654.2 39.69 640.88 35.47 636.97 31.34 631.51 24.93 623.64 21.2 618.12 15.85 613.78 10.23 608.31 2.04 602.32 1.03 530.05 1 507.3 7.17 505.73 9.06 504.93 12.52 505.13 17.48 503.04 20.09 502.56 23.01 500.25 25.98 499.15 30.61 496.41 34.49 494.72 35.93 490.38 36.44 483.6 36.99 480.36 39.89 473.43 41.28 471.64 44.72 469.12 48.45 464.84 50.19 464.49 53.95 465.06 59.28 464.07 60.75 463.27 65.2 458.74 67.75 455.08 68.6 452.55 70.57 449.5 76.55 443.68 80.59 440.27 81.52 438.17 82.34 427.76 81.66 425.12 79.56 420.89 79.16 418.49 79.41 415.89 77.33 411.81 77.1 410.26 78.13 408.63 84.91 404.03 89.12 400.06 96.84 384.68 97.67 381.58 97.41 379.48 91.91 366.51 91.6 364.65 91.99 361.54 94.03 353.4 93.04 348.05 93.24 343.35 93.96 340.47 92.94 335.57 93.23 330.77 93.03 327.07 90.43 320.98 86.72 316.64 81.97 312.75 81.07 311.39 81.17 308.58 80.59 306.45 78.15 304.8 76.69 303.14 75.67 300.01 102.35 264.65 105.66 264.69 109.29 263.39 112.74 263.59 119.23 260.9 122.31 260.16 126.99 258.47 129.86 259.6 134.22 258.98 136.24 256.94 139.12 256.69 140.84 257.37 141.4 261.26 142.48 264.46 144.18 264.33 146.77 261.1 150.31 261.52 153.8 264.11 154.79 266.42 155.43 270.71 156.99 273.02 160.38 274.23 162.27 275.79 166.31 275.91 168.1 274.74 169.83 275.9 173.84 274.71 177.22 274.39 210.29 267.13 212.66 264.32 214.73 254.98 216.13 250.93 222.44 242.51 224.93 239.92 229.17 236.79 232.71 235.32 238.43 230.75 243.89 229.5 248.86 227.42 255.55 225.03 262.86 223.37 262.28 220.86 259.25 219.68 257.19 217.38 254.82 209.17 252.71 204.19 250.47 200.76 247.41 198.14 303.55 145.92 305.01 146.16 307.81 145.46 313.24 142.75 317.78 140.07 320.24 138.08 325.33 132.71 328.3 131.3 336.57 130.95 342.34 129.72 344.5 127.69 346.03 124.34 348.13 120.93 352.29 116.47 357.11 113.45 357.95 111.38 357.2 106.35 357.71 98.29 359.96 93.58 363.6 87.68 358.9 80.59 358.8 76.24 360.72 73.13 363.16 71.82 364.15 70.33 363.59 65.82 360.51 59.15 356.61 51.62 351.84 44.36 350.18 42.38 345.19 37.59 342.58 34.62 340.12 30.81 339.91 29.15 341.26 24.92 343.7 20.46 348.01 10.78 350.54 6.91 355.42 4.25 362.96 1.49 365.97 1 370.22 1.27 372.57 2.23 377.88 6.18 381.1 6.57 386.45 5.8 387.98 6.06 393.58 8.75 398.33 10.21 401.48 11.75 405.69 14.47 408.07 16.52 411.52 20.2 413.83 21.93 418.5 23.71 422.85 24.46 430.43 25.2 438.46 26.74 442.75 27.83 447.08 29.7 448.72 32.48 450.74 34.47 453.35 38.25 455.71 39.38 460.21 42.71 461.66 43.12 467.4 43.15 471.29 43.95 472.9 42.74 481.15 40.66 483.21 41.43 486.27 40.88 488.63 39.11 490.13 37 496.72 32.29 498.91 28.96 501.77 26.16 504.24 24.99 504.61 23.83 507.6 22.83 509.82 23.49 513.28 22.44 516.06 22.44 520.52 20.96 522.62 21.19 526 19.97 528.89 20.53 530.68 19.74 533.92 16.3 535.72 14.93 537.48 12.02 538.93 8.08 541.01 7.46 543.44 7.54 546.14 8.87 548.84 11.35 551.35 11.37 553.66 14.6 556.09 15.76 557.23 17.32 560.67 20.15 562.84 20.22 565.28 22.22 570.05 21.77 570.57 20.34 575.18 20.02 578.82 18.34 581.12 16.71 582.67 16.73 584.99 17.96 587.2 17.54 589.78 18.46 590.75 17.73 592.67 18.85 592.91 20.04 594.71 20.64 595.55 19.69 603.86 24.28 608.2 28.06 609.5 29.62 611.73 27.98 614.56 28.8 617.02 28.65 Z"/>
</g>
</svg>