<?xml version="1.0"?>
<svg xmlns="http://www.w3.org/2000/svg" version="1.2" baseProfile="tiny" width="800" height="603" viewBox="0 0 800 603" stroke-linecap="round" stroke-linejoin="round">
<g id="4211876">
<path d="M 799 174.95 791.11 178.46 788.35 184.16 790.11 188.54 786.3 191.02 782.89 191.72 775.67 191.07 779.69 197.13 778.15 202.57 775.07 205.94 772 212.37 769.56 211.62 764.31 206.07 756.98 207.85 757.6 211.82 764.03 215.85 766.61 218.84 766.13 221.56 761.94 222.71 756.9 222.46 754.18 225.02 753.3 227.46 750.5 226.1 747.93 221.35 744.03 222.79 743.4 226.97 749.36 234.45 748.15 239.84 744.47 245.83 739.99 247.1 733.51 245.52 725.75 239.29 724.19 239.7 720.98 245.87 716.07 249.87 716.46 254.34 717.64 256.18 721.37 257.11 722.79 261.29 722.4 264.08 718.5 270.64 715.34 271 712.7 269 710.2 269.41 704.79 273.92 702.19 278.82 694.4 280.64 685.74 278.57 679.82 276.29 675.02 277.09 672.12 279.1 671.47 283.82 669.14 288.2 669.46 290.38 676.65 296.16 676.02 300.1 669.23 305.43 665.11 314.13 660.97 320.02 658.32 321.3 653.41 317.53 647 314.44 641.04 310.88 637.49 312.82 637.47 317.18 635.71 320.71 631.26 325.07 628.46 326.47 613.3 319.91 600.17 317.51 584.32 317.55 572.35 318.89 559.97 321.35 552.42 324.08 543.41 328.4 527.69 338.06 505.06 354.47 492.6 364.87 486.74 370.21 481.86 373.83 474.74 380.49 462.06 389.77 453.78 393.71 438.26 399.91 423.57 403.22 402.68 406.44 396.07 408.33 389.98 409.18 379.6 414.44 368.91 421.56 365.46 425.03 362.32 430.45 359.77 436.47 356.54 447.22 355.41 454.23 354.62 470.77 354.64 478.62 355.71 486.74 357.83 492.06 364.38 506.53 372.08 519.03 374.09 525.11 377.58 533.51 380.66 542.38 383.1 550.68 384.37 556.75 384.5 564.42 383.47 570.4 380.55 577.78 376.99 583.96 368.31 594.26 362.22 597.26 354.77 599.71 346.58 601.31 338.08 601.76 315.71 602 305.1 601.74 292 601.02 265.73 596.13 249.33 592.24 231.57 588.82 208.25 584.1 193.85 581.98 176.31 580.43 156.85 577.61 146.34 576.7 137.52 576.9 101.71 577.07 90.99 576.15 78.17 573.19 60.41 566.96 52.84 563.24 48.52 558.58 44.41 551.95 37.97 538.7 30.56 514.23 27.07 498.14 22.53 484.51 18.51 471.15 12.08 461.17 9.13 455.88 5.29 453.22 1 447.49 5.01 446.97 9.22 443.35 9.65 440.21 8.87 436.79 6.5 432.03 5.14 424.2 7.15 419.68 10.28 418.21 20.21 416.8 31.06 416.65 37.47 415.94 45.55 414.28 47.83 412.03 49.8 407.18 49.58 402.44 45.21 396.14 24.2 372.55 20.19 366.47 13.19 353.35 7.78 346.64 6.88 343.49 8.55 337.42 11.57 335.46 15.22 334.41 28.18 332.98 40.11 330.91 53.27 327.22 57.4 322.53 59.3 318.81 60.49 312.36 59.55 307.07 56.39 298.76 56.86 292.6 59.16 287.89 66.5 281.58 74.87 277.05 82.96 273.55 89.79 271.48 94.63 270.7 99.25 270.9 110.5 272.39 116.48 272.54 121.71 270.44 125.85 265.83 138.25 246.38 139.94 242.97 140.6 238.3 140.59 229.77 139.88 225.24 137.6 219.54 135.97 213.81 135.89 209.04 137.77 203.34 143.34 196.96 148.41 195.04 165.03 190.2 169.83 187.61 175.67 181.28 178.04 176.43 178.06 173.61 176.56 171.95 172.47 171.12 168.22 172.19 159.69 176.06 154.43 177.65 149.39 177.62 145.78 176.02 141.84 173.02 132.74 162.76 128.05 155.99 126.19 152.18 120.9 138.28 115.37 128.75 108.1 119.85 103.2 114.82 99.17 112.24 97.94 110.35 99.81 107.5 102.64 106.84 109.13 107.33 124.36 111.02 131.81 111.16 137.06 110.2 143.55 107.01 145.84 103.41 145.3 97.55 143.1 93.2 135.79 81.94 132.99 74.38 130.03 61.14 127.22 54.87 123.23 49.14 121.38 44.36 120.16 37.9 121.85 34.21 125.1 32.03 127.69 31.64 134.74 32.68 143.74 35.49 148.14 36.28 153.5 36.31 161.77 34.28 166.35 32.27 171.41 28.96 180.54 19.95 185.9 14.16 192.08 8.27 198.77 4.2 204.37 2.51 212.8 1.82 217.48 1 221.96 3.3 236 12.5 239.21 16 245.93 19.45 248.4 22.36 274.36 40.93 277.38 39.87 281.91 42.17 285.8 45.64 289.22 45.94 296.93 44.64 302.56 44.96 308.92 43.16 312.76 43.4 316.07 42.41 324.69 44.73 336.41 46.09 339.64 44.31 342.26 46.46 346.77 57.33 356.27 62.37 361.01 66.03 366.19 68.61 368.99 68.68 377.81 62.5 383.17 63.12 389.25 65.23 393.09 69.44 404.53 76.04 416.78 80.75 423.19 81.47 431.82 78.64 434.95 77.05 439.01 76.37 446.63 73.47 454.75 73.12 460.92 73.55 472.16 75.48 477.15 79.01 481.87 80.76 487.12 84.11 492.11 88.94 499.15 92.77 500.27 94.53 501.49 100.64 505.03 104.25 507.6 108.23 508.27 113.32 510.07 118.64 512.11 121.59 512.7 128.08 514.55 128.8 515.11 134.05 518.16 138.61 523.92 144.2 524.75 146.51 532.19 152.85 534.12 155.42 537.7 157.15 543.72 163.03 548 169.89 553.74 175.42 560.79 178.66 562.78 181.24 566.51 183.19 569.69 183.09 571.7 184.58 582.23 188.9 586.65 191.16 591.44 192.12 597.21 195.65 598.21 203.7 595.12 208.35 596.8 209.95 604.27 212.02 609.29 215.34 613.61 217.41 619.25 219.09 621.65 222.67 625.72 222.4 628.06 219.57 626.39 210.16 623.4 203.77 621.83 195.85 622.22 188.04 626.78 180.44 627.53 176.21 626.73 172.27 620.6 166.98 615.17 164.35 611.49 161.25 609.92 157.74 610.79 154.1 609.86 148.21 608.01 144.59 605.22 143.27 600.88 142.83 596.22 140.81 593.5 137.51 593.72 131.77 597.1 130.02 600.88 130.1 608.56 131.82 617.34 130.14 625.73 127.96 629.99 124.56 631.21 122.28 691.48 173.83 733.38 130.52 742.16 135.49 764.71 150.76 788.15 167.65 799 174.95 Z"/>
</g>
</svg>