<?xml version="1.0"?>
<svg xmlns="http://www.w3.org/2000/svg" version="1.2" baseProfile="tiny" width="800" height="965" viewBox="0 0 800 965" stroke-linecap="round" stroke-linejoin="round">
<g id="4211405">
<path d="M 799 327.02 797.64 333.39 793.55 340.78 782.76 351.86 769.63 362.59 754.94 376.03 741.03 385.56 722.69 397.21 714.88 403.71 696.52 422.33 691.61 428.49 685.93 441.23 680.61 457.48 681.45 471.95 685.97 482.83 697.33 496.52 708.42 507.12 734.66 533.19 741.41 541.05 745 549.01 745.03 555.67 743.7 561.32 740.46 565.96 734.48 569.58 712.68 573.24 696.28 574.25 687.23 572.29 674.8 566.7 657.53 553.78 636.09 535.26 612.6 504.11 609.19 498.79 598.63 488.09 588.76 480.33 579.43 470.05 567.39 459.59 559.99 454.3 537.49 433.63 510.47 406.46 505.81 404.17 493.32 402.87 486.88 404.78 482.21 407.39 476.84 412.45 470.82 419.92 460.5 440.37 457.26 452.32 454.58 486.28 454.4 507.12 458.32 518.98 462.22 533.08 471.42 551.46 491.24 587.89 501.91 606.75 510.99 621.13 518.63 631.82 534.98 647.49 546.57 657.46 554.28 665.49 563.2 678.43 569.45 685.42 574.12 689.14 576.66 698.73 575.38 706.55 572.64 710.08 568.7 712.16 557.72 714.95 504.02 717.11 468.93 716.18 429.06 711.03 403.45 705.9 385.06 700.55 373.04 695.88 357.55 680.11 344.12 669.02 334.78 658.56 329.1 653.2 325.91 647.44 322.95 639.08 320.37 619.93 317.14 604.63 313.58 585.47 312.38 563.19 309.93 547.39 304.52 535.53 299.41 528.7 290.59 523.56 278.1 518.53 270.2 516.17 264.39 516.44 258.94 518.27 250.7 524.92 242.8 534.35 237.16 545.94 234.21 560.11 225.21 587.1 224.77 601.65 227.97 630.56 230.32 640.64 241.42 672.43 246.81 685.85 255.5 698.44 266.38 710.29 283.37 724.56 307.73 741.95 324.72 755.87 337.88 767.83 364.11 792.79 398.38 822.5 412.45 840.48 424.66 856.95 432.95 870.63 442.26 893.04 443.61 906.52 439.7 936.53 438.13 940.53 430.25 950.94 428.13 953.3 417.87 957.91 411.36 962.2 399.36 964 382.66 961.59 370.79 955.9 355.5 946.36 345.26 937.68 317.27 920.93 275.14 897.04 254.52 887.96 232 880.05 213.13 873.88 195.96 869.73 176.79 868.89 124.39 874.4 101.05 876.64 88.75 879.04 81.47 879.82 72.64 879.69 65.8 878.37 59.37 875.3 55.32 871.2 54.05 865.21 55.15 858.2 57.82 851.21 63.64 844.09 79.03 829.31 84.09 822.48 89.91 816.25 94.28 809.46 101.05 801.11 114.89 779.26 122.7 762.51 125.58 750.94 125.18 746.89 130.71 749.64 136.67 758.66 136.39 766.35 138.3 769.39 143.24 764.35 151.7 764.86 153.1 760.5 161.49 753.06 159.2 752.18 161.8 746.75 161.52 743.11 157.13 740.5 154.84 737.1 157.03 733.43 156.71 730.2 160.14 726.65 154.92 722.08 155.28 718.75 151.26 710.61 145.89 709.77 143.17 705.99 145.7 703.94 143.53 699.55 147.47 696.58 147.55 689.11 146.22 682.58 140.35 674.88 132.71 673.47 128.38 667.53 130.14 660.9 126.47 656.05 127.95 646.73 127.51 642.42 132.31 639.71 140.09 639.21 145.02 636.62 145.4 632.42 154.24 627.86 158.8 628.79 163.8 632.45 167.93 630.7 163.17 623.86 163.66 619.85 167.37 617.46 170.7 610.94 171.49 605.49 173.65 600.37 169.95 596.32 170.12 593.44 180.68 580.33 170.86 574.46 169.62 566.01 161.82 566.95 160.08 565.33 160.94 557.09 159.84 555.03 149.15 553.39 140.16 551.12 135 557.4 127.87 556.65 125.23 552.62 127.9 544.12 126.13 541.3 119.17 536.49 112.92 529.47 107.88 533.74 100.81 530.64 99.17 532.02 86.59 521.86 84.35 519.19 80.84 519.32 78 521.75 71.62 520.28 69.17 511.75 64.93 506.34 63.31 499.84 65.78 497.21 68.39 489.52 68.4 484.79 64.58 479.23 69.17 476.46 70.54 472.68 68.92 469.65 67.71 454.14 71.51 449.07 70.91 445.13 67.83 438.56 63.58 432.19 70.67 430.79 73.78 424.43 77.66 423.22 79 418.56 74.61 414.53 67.06 405.98 61.89 404.85 58.88 401.94 60.35 397.94 65.18 393.72 64.96 383.35 68.07 377.51 74.64 376.76 77.76 365.17 83.16 363.51 83.61 357.11 79.75 352.16 76.04 351.38 78.54 342.41 78.14 334.62 82.74 330.46 84.98 326.43 78.5 318.6 77.42 307.25 72.01 302.57 67.71 291.29 61.9 286.86 48.83 284.16 39.67 279.5 33.55 277.81 28.55 268.87 27.99 264.1 26.03 261.3 22.8 250.3 25.06 242.22 15.32 206.68 1 138.54 246.49 103.82 340.01 94.02 339.2 100.5 342.51 109.87 348.05 115.96 353.9 118.79 361.58 119.79 372.68 116.5 380.81 113.11 390.51 112.18 397.69 116.4 407.25 118.72 416.2 117.41 418.83 115.05 420.59 107.24 418.17 92.46 413.6 75.23 404.97 44.52 405.61 36.47 411.42 30.72 417.69 27.09 440.13 9.93 449.72 3.42 459.36 1 465.85 1.82 475.65 7.57 483.89 15.47 488.62 24.46 493.27 35.9 494.9 44.71 493.87 48.97 498.18 63.79 502.53 71.79 511.37 82.68 518.34 88.11 532.57 95.15 538.36 96.61 544.77 96.7 555.15 99.03 569.45 105.94 570.97 108.37 571.17 113.65 566.04 119.6 558.65 123.1 549.93 124.27 540.96 123.78 535.65 122.33 529.51 122.29 515.69 124.21 499.49 129.97 497.06 135.52 494.93 148.88 488.82 161.04 484.22 167.01 473.92 171.89 465.3 175.03 447.59 182.66 438.97 185.11 431.33 191.75 431.06 194.61 436.87 200.2 451.39 205.24 472.37 208.05 483.68 207.96 495.36 207.21 515.32 208.23 529.64 211.43 537.5 214.68 542.08 218.66 546.39 224.99 548.89 230.49 551.37 247.92 557.61 260.94 562.32 266.55 567.19 274.88 574.12 278.61 596.68 294.3 597.94 297.29 595.12 305.39 589.34 310.81 577.72 317.62 566.28 326.26 564.54 331.1 567.05 337.93 569.1 340.22 576 343.44 583.83 344.08 585.9 341.59 596.88 337.37 602.83 337.87 607.31 340.29 619.56 342.82 626.55 343.13 635.64 342.3 650.66 342.62 662.36 342.28 678.43 339.81 686.86 340.55 702.07 345.95 706.58 348.72 713.5 354.67 723.46 357.01 728.91 356.9 734.01 355.27 738.33 350.6 738.73 347.24 735.66 334.84 733.17 317.04 730.36 310.67 729.78 304.08 732.31 297.85 735.89 293.51 742.71 291.23 749.67 292.72 761.98 299.27 774.02 306.73 784.43 314.12 791.45 319.83 799 327.02 Z"/>
</g>
</svg>