<?xml version="1.0"?>
<svg xmlns="http://www.w3.org/2000/svg" version="1.2" baseProfile="tiny" width="800" height="841" viewBox="0 0 800 841" stroke-linecap="round" stroke-linejoin="round">
<g id="4211892">
<path d="M 790.34 239.52 791.38 240.51 792.11 243.71 792.89 245.51 791.5 248.98 788.71 253.4 787.88 256.08 789.03 257.27 790.85 258.42 792.67 260.99 794.18 262.52 795.87 263.55 799 264.65 797.4 264.98 689.9 306.65 687.93 307.56 685.91 308.84 683.64 309.38 682.17 308 679.76 306.93 677.65 306.59 675.39 307.13 674.2 308.92 671.57 310.25 668.51 310.26 666.56 312.09 664.28 312.41 663.51 313.56 661.89 314.36 660.58 314.39 659.66 314.95 657.99 314.95 656.79 315.51 656.36 317.74 653.4 318.96 649.92 319.67 648.18 320.43 646.29 320.44 645.46 320.96 642.42 321.95 641.26 322.83 640.64 323.91 638.89 325.22 637.4 325.55 635.65 326.91 634.89 328.29 632.83 330.53 632.55 332.92 631.12 334.42 628.08 335.81 626.77 336.05 627.21 337.01 626.57 338.88 626.76 341.14 626.49 341.92 626.95 344.23 622.93 349.31 623.24 351.07 622.78 352.23 619.31 353.75 616.27 353.91 614.11 354.9 611 354.29 609.7 354.71 608.69 356.59 607.38 356.7 606.32 357.39 604.76 357.31 603.52 357.83 600.25 356.92 599.51 358.41 597.97 358.58 597.17 358.15 595.85 358.45 594.16 359.68 592.96 359.49 591.1 359.91 590.64 360.99 587.96 360.41 586.81 361.15 584.45 361.96 583.4 361.49 581.54 361.46 580.19 361.87 579.04 361.28 577.29 361.19 576.43 362.08 573.7 362.82 573.3 364.07 570.5 366.08 569.79 367.59 570.39 369.88 571.84 371.8 570.29 371.67 569.02 373.74 569.61 374.72 573.93 376.38 575.23 377.56 575.2 378.12 572.51 379.24 573.69 380.89 573.35 381.85 570.08 382.95 569 383.63 568.72 385.93 567.42 386.58 567.92 387.63 569.3 388.56 569.81 389.51 571.59 390.55 572.38 390.13 573.72 390.39 574.48 391.38 576.27 391.57 576.4 392.26 577.82 394.05 577.75 394.77 578.7 395.81 579.17 397.48 578.56 398.49 580.94 399.76 580.3 401.47 580.28 403.44 578.95 404.8 578.72 406.52 577.07 408.31 574.94 408.84 574.33 408.35 574.22 406.49 572.93 407.16 571.58 408.4 568.72 406.83 567.82 407.12 566.88 409.51 565.61 411.13 565.2 412.35 562.24 414.89 561.41 416.65 562.45 417.2 564.4 417.2 564.6 419.6 563.81 421.15 561.69 422 560.91 424.14 560.94 426.45 562.7 427.74 561.94 431.8 562.95 433.13 565.03 434.17 566.68 436.98 568.89 437.48 570.08 439.14 570.37 440.36 571.27 441.49 571.42 442.65 572.66 445.27 571.51 445.56 569.12 445.02 568.22 445.34 568.14 446.49 568.81 449.66 567.23 451.32 565.7 452.12 565.55 453.45 566.01 454.43 568.17 456.67 567.4 458.82 562.91 459.48 560.64 459.32 559.84 458.81 558.38 458.9 554.22 458.14 552.22 458.14 550.54 458.6 549.35 459.87 546.72 460.72 544.46 460.88 540.68 460.07 536.52 460.63 534.19 461.3 532.53 462.85 529.64 463.93 527.27 466.13 526.79 467.24 528.42 470.63 527.98 471.93 524.79 472.02 523.83 473.99 523.44 476.84 522.66 479.29 519.92 480.86 518.13 480.87 514.48 479.29 510.7 479.14 508.87 479.74 507.66 479.7 506.23 477.24 503.3 477.6 499.57 475.57 496.74 473.47 495.33 472.05 493.33 472.58 491.54 473.4 488.04 474.03 487.1 475.08 487.7 477.48 490.4 481.17 490.36 485.24 489.65 488.15 489.54 491.49 489.85 493.95 488.21 496.3 487.19 496.73 487.22 498.35 488.66 502.26 487.48 504.42 486.12 505.78 485.37 507.78 485.99 509.5 487.45 508.89 487.84 509.85 490.39 510.32 491.63 511.2 492.66 514.52 493.93 516.76 494.61 519.8 494.43 520.96 493.52 523.08 494.61 526.03 495.82 526.85 498.85 527.71 500.32 527.84 504.09 529.39 503.79 530.41 499.53 533.58 498.34 534.87 496.77 537.52 497.56 538.58 497.5 539.47 494.55 539.45 494.68 540.21 492.81 540.85 491.89 539.54 490.5 539.81 488.85 541.3 486.61 541.07 485.37 540.57 481.46 539.8 480.56 538.97 478.17 539.03 477.59 540.68 476.36 542.61 474.41 543.57 469.72 544.3 467.83 544.98 464.25 545.87 464.39 548.06 462.46 550.41 462.3 551.98 467.58 554.81 469.34 554.98 471.09 555.99 473.19 557.59 473.11 558.9 473.64 559.6 476 564.33 475.63 567.05 474.81 568.16 471.93 569.02 470.15 569.17 464.18 569 461.59 567.94 460.09 567.63 459.98 565.97 458.91 565.12 457.59 565.58 456.3 566.65 452.99 568.25 450.99 570.52 450.36 571.94 451.42 573.93 453.66 576.13 455.13 578.31 457.63 580.35 458.94 580.52 459.83 581.19 460.95 584.31 461.02 585.83 462.97 588.2 464.79 591.64 466.6 593.73 468.11 596.88 466.95 600.51 466.59 603.35 466.92 604.57 466.97 607.47 466.56 608.63 465.46 609.35 463.22 609.7 460.9 609.12 457.74 607.28 453.76 605.57 451.56 606.04 450.96 607.34 450.99 609.66 451.95 614.21 451.33 615.16 449.49 616.14 448.28 617.38 449.31 618.24 451.08 618.69 454.81 620.36 457.08 622.57 457.91 624.05 457.7 626.26 455.86 629.39 454.69 630.29 452.3 630.88 451.23 629.48 449.16 627.99 447.48 627.33 446.07 627.67 439 631.14 437.84 630.13 437.41 628.81 436.22 626.88 435.27 623.92 434.27 621.94 432.53 620.17 429.56 618.68 426.53 617.89 423.98 618.03 421.46 617.7 419.39 618.5 416.55 621.4 412.82 624.27 410.96 624.39 410.51 621.47 409.82 620.26 408.47 619.62 405.19 622.09 404.37 622.2 403.61 621.27 401.76 621.24 399.32 620.2 398.79 621.65 395.11 626.43 394.32 628.39 393.68 631.41 392.54 633.6 391.76 637.81 391.98 639.42 390.82 641.55 387.37 642.76 383.55 644.61 380.45 645.53 378.17 645.83 375.29 644.33 372.32 643.82 369.81 644.63 369.12 645.58 369.89 648.62 370.58 650.42 370.53 652.76 371.17 654.27 372.29 655.54 373.44 656.19 375.47 656.7 377.8 657.61 381.59 661.6 383.48 662.34 385.99 662.63 389.51 665.3 392.76 668.11 393.6 669.92 393.4 671.2 391.53 671.55 390.14 672.39 386.65 672.7 385.86 673.62 383.35 675.5 380.71 678.41 380.12 680.08 378.09 681.68 376 681.72 373.97 682.19 371.2 682.01 368.68 681.1 366.45 681.62 364.4 679.2 363.07 676.03 360.49 672.52 359.32 671.71 357.92 671.3 355.31 671.21 353.03 671.95 349.17 674.73 347.93 676.32 347.51 678.39 347.06 683.54 347.02 685.48 346.08 689.25 344.74 691.28 339.18 693.29 335.26 693.93 327.92 696.82 325.83 698.55 325.39 700.65 325.36 703.83 325.75 705.94 326.59 707.76 328.66 709.39 333.06 711.22 337.63 711.98 341.01 711.44 342.6 711.94 348.73 715.68 353.98 718.59 355.95 720.52 357.64 722.85 357.14 725.35 355.63 726.47 351.83 726.28 350.17 725.68 345.86 723.39 342.12 722.3 340.74 722.12 338.08 722.37 335.87 722.82 333.89 723.64 331.09 725.18 326.14 728.24 323.38 729.28 321.14 729.62 319.32 729.39 316.98 728.43 315.56 727.49 312.18 724 309.73 720.92 307.81 719.21 306.77 718.91 303.06 719.38 301.8 719.99 301.13 721.1 301.04 722.77 301.55 723.85 303.63 725.82 304.99 728.24 306.38 731.43 307.66 733.45 309.24 735.17 315.42 741.22 317 742.99 318.31 745.65 318.23 747.3 317.2 748.83 315.74 749.33 314.07 749.16 308.64 746.42 303.51 744.33 297.58 742.96 291 740.25 284.84 736.82 281.31 734.7 276.23 730.56 273.79 728.37 270.25 725.62 266.01 720.62 264.35 719.27 262.71 718.86 260.59 719.03 259.78 720.3 259.48 722.21 259.77 724.04 262.32 728.89 263.82 730.53 268.87 734.82 271.28 737.96 273.92 742.72 274.56 744.58 273.73 745.99 272.78 748.8 271.59 750.16 269.79 750.99 267.34 751.52 264.67 751.45 261.81 750.74 259.47 750.44 253.38 750.94 251.86 751.56 249.25 753.65 248.65 759.73 247.35 762.27 245.27 765.05 242.85 766.98 240.94 769.1 238.62 771.32 236.78 773.61 232.99 777.24 228.75 782.36 228 783.89 227.43 786.3 227.18 789.87 227.6 790.94 232.53 796.26 234.05 798.32 234.68 801.51 235.7 805.43 235.84 808.14 236.47 810.68 238.54 814.02 240 815.44 244.97 819.74 246.06 821.86 247.4 825.64 249.31 828.22 253.24 831.31 254.89 833.14 255.25 835.2 253.16 837.13 251.01 837.96 247.51 838.25 243.9 839.71 241.87 840 238.17 839.5 236.71 838.92 235.44 837.11 233.57 833.27 232.4 830.19 230.29 828.32 226.66 827.96 218.05 828.78 215.14 829.35 209.7 830.81 207.7 831.01 204.25 830.65 201.36 829.05 197.07 827.78 192.96 826.18 187.76 823.39 186.65 822.59 185.57 821.08 185.27 819.54 186.35 816.65 189.38 813.24 190.74 810.76 191.12 807.99 191.21 804.92 190.02 803.74 186.65 802.55 183.91 803.94 182.51 804.28 179.32 807.03 177.73 808.95 176.05 811.5 175.08 814.01 174.53 818.2 173.69 821.49 172.19 824.01 171.48 824.65 169.78 824.29 167.59 822.74 165.28 820.29 162.98 815.08 162.2 812.92 160.43 809.63 160.05 804.88 159.37 799.93 158.5 797.78 157.52 796.77 155.21 795.35 152 793.72 149.97 793.59 147.76 794.62 144.04 795.4 141.57 796.59 138.76 799.64 137.47 802.17 136.48 806.07 135.1 810.24 132.84 816.04 130.52 820.85 129.83 821.95 127.68 824.27 124.05 826.2 119.89 826.1 117.4 826.55 115.48 827.4 113.9 828.61 112.36 831.45 111.28 832.96 110.2 835.66 109.27 837.12 107.33 838.36 106.36 838.4 101.94 837.77 98.22 837.4 93.3 836.64 95.08 835.83 95.8 834.14 94.26 831.78 92.09 830.23 90.18 828.33 88.55 827.06 87.79 823.73 88.96 819.87 89.1 818.5 89.76 816.95 89.82 815.73 89.29 813.92 87.85 811.58 86.63 810.44 82.9 808.74 78.72 805.02 76.56 803.48 75.06 802.92 69.83 798 68.49 797.93 66.39 796.57 64.78 795.21 63.78 792.35 61.21 789.41 59.05 787.94 56.81 787.13 56.99 784.95 59.5 782.22 59.84 778.82 59.11 774.47 58.32 773.15 56.49 772 54.14 771.31 51.06 771.13 50.08 770.68 50.05 769.24 48.3 764.7 48.08 763.17 47.12 761.95 45.12 761.59 44.88 760.9 46.81 757.24 45.61 755.64 43.16 753.39 42.53 750.87 44.39 748.94 44.54 745.7 43.06 740.53 43.32 737.38 42.53 736.09 40.97 735.86 40.28 734.84 38.78 734.04 38.71 732.41 39.94 731.27 39.34 729.8 37.16 727.27 36.98 726.47 38.33 725.51 37.36 723.06 35.1 722.68 34.38 721.73 33.88 720.01 32.91 719.73 30.34 717.34 30.61 716.24 33.18 714.61 34.39 712.67 33.63 710.6 34.13 709.96 36.21 708.83 36.57 707.35 35.52 705.68 36.48 704.48 35.6 702.3 36.26 700.83 36.41 698.62 37.24 696.13 36.65 695.47 37.43 694.6 39.77 693.71 40.33 692.65 43.02 691.84 44.05 690.8 42.89 689.84 43.46 688.44 42.22 686.38 43.71 684.77 44.47 683.04 47.11 680.82 48.9 677.56 49.76 675.38 51.44 673.49 52.2 671.9 38.52 504.1 34.25 451.8 35.49 449.84 36.09 449.7 37.63 451.2 38.97 451.46 39.18 450.05 37.7 448.9 38.95 448.31 39.38 447.47 37.77 446.93 38.27 445.39 40.77 442.84 41.38 441.9 41.42 440.05 43.78 437.92 45.72 434.98 45.14 432.62 45.59 431.59 43.75 428.85 42.56 427.71 42.68 425.01 43.28 423.78 45.29 421.97 44.41 420.75 44.84 419.75 43.88 418.18 42.76 417.62 42.35 415.76 41.5 414.35 39.56 412.48 38.31 412.18 38.93 408.52 39.74 406.34 40.49 405.25 40.52 404.23 42.2 402.22 41.66 401.3 41.63 399.89 42.98 397.88 44.71 397.25 44.2 395.44 44.5 393.55 43.7 392.9 43.6 391.85 44.38 391.45 44.86 390.17 46.76 389.32 46.62 388.26 47.49 385.71 46.61 385.5 44.6 383.03 44.24 382.13 45.15 381.37 47.11 378.45 48.14 377.8 49.77 375.87 50.67 374.13 53.42 372.95 57.93 368.04 58.43 365.66 59.93 362.27 62.98 358.42 63.03 357.8 65.19 354.06 66.67 350.27 68.12 347.81 69.26 344.64 71.67 340.95 72.85 338.41 73.75 335.69 74.75 335.14 75.95 332.9 77.33 331.79 76.69 330.41 76.99 329.21 75.54 326.72 74.68 323.7 72.92 322.24 70.84 321.64 69.28 319.69 70.25 317.36 69.99 315.91 69.1 315.7 67.89 314.07 67.43 311.48 65.81 312.7 64.1 311.71 63.47 307.03 61.8 305 59.28 302.56 60.31 298.87 59.69 297.74 59.99 296.83 57.86 293.61 54.29 291.35 52.79 290.11 52.8 288.2 53.34 286.49 51.28 283.84 50.41 284.51 48.68 284.21 48.1 282.86 47.99 280.97 48.38 280.37 49.91 280.15 50.9 278.63 49.34 276.75 48.39 276.53 49.03 275 50.6 274.16 50.73 272.75 48.52 271.84 47.28 269.79 45.47 269.2 43.82 269.51 41.71 268.67 40.71 268.92 39.16 271.02 38.19 270.16 36.89 270.13 35.85 269.57 36.86 268.49 36.84 267.56 35.84 265.02 31.14 263.44 30.91 262.51 29.54 262.75 26.63 262.65 25.32 262.91 23.27 262.32 22.25 260.29 21.14 259.91 20.56 258.7 19.46 257.96 20.64 256.23 19.28 255.84 18.92 253.98 15.83 252.52 15.39 251.45 16.21 249.89 16.08 248.59 14.85 247.83 15.45 246.17 15.34 245.19 11.82 243.39 11.85 241.75 10.41 241.23 8.87 235.82 9.2 232.48 7.53 232.51 7.31 233.76 6.2 234.17 4.98 233.77 3.77 232.38 3.2 231.11 3.46 229.97 3.41 227.05 2.24 225.6 2.74 223.51 3.68 223.94 4.85 223.57 5.55 221.84 4.43 220.98 2.96 221.29 2.23 220.14 2.19 218.24 1.52 216.92 1.33 215 3.98 214.53 4.52 212.74 4.11 209.63 4.86 206.98 3.76 205.37 2.02 204.57 1.33 199.18 2.59 197.4 4.02 196.01 3.23 195.24 4.08 193.46 3 189.74 6.17 188.73 6.41 187.5 4.56 187.82 3.36 186.11 2.35 186.17 1.19 185.04 1 183.86 1.56 182.16 1.33 181.21 2.75 180.79 4.09 181.02 5.17 180.64 8.11 178.6 9.95 174.52 12.44 170.51 12.95 170.22 18.01 171.06 20.98 172.03 22.99 172.01 25.55 170.65 26.93 170.41 31.54 168.53 32.24 166.93 31.09 165.03 29.01 163.93 27.02 163.43 24.31 164.1 22.63 162.75 23.7 160.71 26.31 158.62 28.12 157.92 31.67 155.94 32.71 154.5 34.06 153.92 36.35 155.06 39.23 154.21 41.63 153.81 43.33 154.21 46.95 156.7 48.31 158.3 49.73 159.38 55.29 160.95 59.08 160.85 63.72 160.11 66.32 159.07 69.08 158.99 72.18 160.07 74.71 160.61 75.8 159.57 76.23 157.38 75.77 155.74 76.37 154.4 78.83 153.98 80.29 154.77 81.4 156.86 83.56 158.58 86.92 159.97 90.12 160.23 92.36 161.26 94.05 160.97 95.04 161.24 97.2 163.11 100.81 164.76 102.33 166.63 104.18 167.48 105.4 167.15 107.54 165.47 109.01 162.13 109.97 160.61 111.29 159.36 114.31 158.26 116.46 156.99 118.51 154.17 118.81 153.4 118.61 150.28 119.21 149.02 120.6 148.47 123.18 148.11 126.56 147.19 130.16 145.27 133.07 145.24 136.01 144.15 139.19 143.73 141.94 144.2 142.78 141.63 144.19 141.4 145.29 142.57 147.47 142.55 149.9 142.09 152.85 142.92 154.15 142.66 154.78 141.02 155.87 139.97 157.53 140.46 158.71 140.3 161 141.06 163.4 143.05 165.3 143.32 165.96 142.92 166.35 140.57 165 136.98 164.96 135.05 166.37 133.45 166.64 132.19 167.44 131.3 169.72 130.92 172.51 131.58 175.49 131.57 176.72 131.96 178.67 134.18 181.84 136.14 184.34 136.78 185.95 137.95 188.11 138.22 189.52 140.08 190.03 142.57 190.89 143.59 191.89 143.63 193.78 142.84 196.7 140.72 197.61 139.44 199 138.94 199.91 139.2 201.09 140.32 201.95 141.83 203.06 141.76 203.94 139.06 204.13 136.63 205.15 135.89 207.74 136.32 208.44 138.39 209.09 139.02 211.94 139.88 215.01 139.45 216.25 138.21 219.48 136.91 221.02 136.04 223.17 135.57 223.78 136.85 225.39 137.34 227.69 136.48 229.12 136.37 230.75 136.81 231.65 134.01 233.4 131.54 234.04 130.26 235.2 129.47 241 131.66 241.11 133.1 242.55 134.61 242.8 136.96 243.39 138.92 244.91 140.69 246.02 140.44 251.59 137.63 257.11 135.73 258.95 134.47 260.86 134.04 263.47 135.27 266 134.71 267.13 134.15 269.78 135.02 271.38 135 271.73 133.94 270.32 130.94 270.85 130.05 273.2 129.02 273.91 126.17 273.95 124.99 273.37 122.87 272.94 119.79 272.46 118.03 271.59 116.69 271.82 115.66 274.44 114.42 276.5 114.74 279.49 116.44 280.97 118.31 282.62 121.58 283.27 121.84 285.06 121.1 287.61 118.94 289.03 118.22 289.17 116.38 291.22 115.96 293.26 116.69 295.76 115.31 295.83 114.61 297.85 111.84 298.04 110.84 299.01 110.22 301.83 110.17 303.6 109.66 305.61 106.64 307 102.33 307.56 101.72 309.75 101.63 310.65 99.48 312.23 99.59 314.91 104.52 318.16 106.52 319.82 105.8 321.4 105.79 322.72 104.68 322.91 103.65 324.09 103.21 325.16 103.66 326.84 102.39 327.02 101.32 327.85 101 328.14 99.6 327.21 98.98 326.81 97.94 327.4 96.73 327.35 95.14 327.94 94.52 327.5 92.64 328.72 91.49 329.17 89.91 328.28 88.47 326.7 88.14 326.63 86.7 328.11 85.71 329.39 83.67 331.85 81.11 333.15 82.09 334.13 81.64 335.39 79.84 335.85 78.36 336.85 77.5 337.01 75.91 334.77 74.97 334.32 72.95 335.42 71.9 336.82 68.97 337.97 67.17 337.66 66.02 338.36 62.82 337.56 61.1 337.5 59.45 337 58.26 335.68 56.89 337.45 54.74 337.59 53.37 337.05 51.2 334.79 49.22 334.8 48.4 332.79 46.73 332.47 45.92 334.98 42.96 335.5 41.97 334.73 40.78 334.89 39.12 335.44 37.93 338.92 35.09 341.54 35.41 343.37 36.07 346.19 37.6 347.96 38.21 353.77 38.53 355.32 36.71 356.27 35.14 357.76 33.69 361.31 32.23 364.77 32.2 368.33 33.77 371.65 35.79 375.87 33.45 379.06 33.06 381.81 32.95 382.8 33.22 385.12 32.81 386.02 31.1 386.06 30.1 387.64 29.39 388.25 31.11 390.99 32.09 391.9 32.67 394.31 33.31 394.92 33.91 394.94 35.14 397.26 37.63 397.86 40.82 397.6 43.04 396.8 45.02 396.79 47.76 398.27 47.78 399.34 46.61 403.51 45.52 405.04 43.85 406.66 44.08 408.37 41.87 410.26 42.02 410.91 40.9 410.59 38.79 413.06 39.49 413.78 38.91 413.88 37.61 411.71 37.05 412.21 33.14 413.65 33.02 414.22 35.26 415.37 36.54 416.17 38.55 417.54 39.36 422.14 41.47 425.29 42.04 427.21 44.11 430.85 29.96 431.46 28.81 433.51 27.6 435.43 27.23 437.7 27.28 440.85 28.72 441.93 28.49 443.32 27.44 445.12 27.03 447.63 27.59 449.92 26.63 453.14 26.9 454.53 26.24 457.18 24.33 460.93 24.29 463.45 23.07 464.92 21.15 465.66 18.03 466.48 15.87 467.74 14.58 468.79 14.33 472.5 14.52 476.47 13.47 477.4 13 478.45 11.72 479.04 10.02 478.16 8.71 478.3 5.38 479.33 4 481.78 2.66 482.67 1 485.64 2.45 489.48 2.33 491.11 3.78 491.61 4.95 491.16 6.35 489.59 6.87 489.13 7.97 490.01 9.34 491.86 10.18 494.09 10.13 497.11 10.39 498.71 11.81 499 14.47 498.28 16.41 496.44 18.91 494.4 20.78 494.19 22.21 496.06 23.86 498.04 27.15 497.7 28.45 496.73 29.95 496.92 30.98 498.96 31.23 501.73 31.03 503.1 31.48 505.65 32.86 512.73 38.12 514.33 39.96 514.56 43.01 515.26 43.97 517.64 44.98 521.23 47.38 525.15 49.15 525.38 49.76 522.45 53.1 517.74 56.87 515.99 59.84 514.98 64.97 514.84 68.44 516.04 70.03 519.47 71.44 521.99 71.81 523.57 71.77 526.51 72.21 529.91 73.16 532.65 74.68 534.91 76.78 536.35 78.53 538.38 81.62 539.97 85.9 540.73 87.43 542.73 88.3 544.31 87.99 546.06 89.45 547.59 89.27 548.33 88.4 549.26 86.07 550.48 85.03 552.95 84.72 555.67 85.44 558.67 87.02 560.78 89.48 560.92 91.18 563.87 92.8 566.75 92.19 568.69 92.94 568.91 94.53 567.61 95.94 566.85 101.07 567.44 103.1 570.11 106.12 571.94 108.75 573.35 110.2 577.58 112.79 582.92 114.96 583.11 116.52 584.96 118.63 586.98 119.03 589.84 118.86 594.05 119.75 597.12 121.08 599.46 121.71 600.8 121.67 603.14 120.85 605.96 119.01 608.46 115.17 609.97 114.43 612.59 114.14 614.17 114.38 617.76 113.89 621.63 114.19 627.45 113.86 630.12 113.15 631.77 111.67 633.26 111.15 636.26 111.04 640.84 111.82 643.2 111.78 645.46 111.26 648.1 111.77 649.76 111.75 651.93 111.16 656.05 108.63 660.53 107.56 662.66 107.31 670.99 107.08 673.6 107.57 674.71 109.72 676.34 110.51 680.89 110.42 684.86 110.69 687.77 111.56 689.6 112.78 693.47 112.82 696.8 113.94 699.5 114.37 700.38 115.14 700.99 117.84 699.8 120.64 698.93 121.65 696.42 123.3 694.59 124.9 693.95 126.29 693.86 129.42 694.29 131.82 695.37 132.75 696.29 132.66 697.77 131.71 699.41 129.88 701.36 129.1 703.93 128.96 707.6 129.42 712.67 130.57 714.1 131.34 715.69 133.33 716.48 137.28 717.34 138.32 721 138.75 722.09 139.41 730.1 143.31 733.42 144.42 734.41 144.97 734.49 146.25 733.19 147.07 731.6 147.48 730.1 148.36 728.03 148.74 726.77 149.4 724.96 152.11 723.12 155.89 722.72 157.32 722.87 159.15 723.45 159.81 726 160.44 728.65 161.62 730.26 163.1 732.51 167.68 733.33 170.88 732.65 174.2 733.59 175.94 735.95 177.21 738.24 179.45 742.23 182.79 746.79 183.81 751.36 188.2 752.9 190.41 753.41 192.91 752.84 195.69 752.12 197.33 751.45 200.2 751.83 200.88 753.61 201.92 757.95 203.31 759.9 203.39 763.96 202.9 765.5 203.46 768.02 206.36 768.99 208.46 771.45 209.96 772.02 211.95 771.98 214.82 771.37 216.67 767.25 221.66 764.89 225.7 764.62 228.3 765.57 229.44 767.68 229.94 770.37 230.04 773.94 231.47 776.43 233.23 778.02 234.78 780.87 236.73 782.91 237.74 787.3 238.62 790.34 239.52 Z"/>
</g>
</svg>