<?xml version="1.0"?>
<svg xmlns="http://www.w3.org/2000/svg" version="1.2" baseProfile="tiny" width="800" height="578" viewBox="0 0 800 578" stroke-linecap="round" stroke-linejoin="round">
<g id="4211454">
<path d="M 799 203.71 776.93 304.89 744.95 460.84 607.04 523.25 488.18 577 446.65 571.95 394.91 574.5 396.04 534.5 351.32 535.76 144.81 538.63 133.54 366.47 138.62 359.76 139.63 357.19 142.15 337.85 141.28 329.16 135.27 314.72 129.93 305.9 122.05 295.29 112.98 283.7 90.87 264.55 73.96 248.47 65.47 240.76 54.51 231.79 38.8 220.58 27.84 211.38 20.82 203.75 15.21 195.63 11.74 186.98 4.58 166.5 3.06 160 1 141.37 1.28 131.99 7.09 114.6 8.99 105.47 12.63 97.99 17.72 91.92 23.04 87.64 26.55 86.46 30.3 86.28 35.39 87.8 43.45 91.04 49.14 94.36 52.44 98.76 55.93 106.4 57.51 116.58 58.28 130.94 60.58 143.29 62.66 153.15 64.33 165.49 66.23 170.88 68.29 174.59 71.96 178.05 77.98 184.79 86.64 191.93 96.63 202.1 104.38 205.11 116.25 208.56 132.77 211.86 158.48 215.18 181.12 215.78 215.75 214.38 222.83 212.59 225.38 211.25 227.15 208.97 227.97 203.94 226.33 197.76 223.32 195.36 219.29 190.85 213.53 182.51 208.56 177.34 201.09 170.91 190.54 160.81 185.61 153.92 179.75 144.66 172.87 132.5 160.09 109.02 154.15 97.18 151.64 88.09 149.11 80.45 149.23 67.02 150.96 45.13 153.04 37.43 159.7 24.25 163.58 19.44 167.05 16.17 170.06 14.49 174.21 13.26 182.27 14.1 185.28 15.58 202.7 33.09 217.22 46.41 221.99 49.82 229.75 56.56 235.77 63.18 242.14 68.19 248.95 75.08 251.15 78.51 266.31 98.58 280.13 110.52 291.27 118.85 299.29 122.45 305.13 123.71 315.7 123.06 329.77 120.7 333.62 118.37 335.71 115.38 336.57 111.74 336.55 107.45 334.24 102.31 329.88 97.25 312.95 80.45 321.97 78.08 324.46 76.89 329.03 76.75 333.84 74.96 336.93 72.86 341.97 67.35 347.46 62.85 350.38 61.45 353.61 61.55 381.65 71.97 396.37 49.74 429.83 67.02 431.37 66.28 435.87 56.78 436.18 52.92 440.43 51.05 441.31 46.89 443.87 48.35 445.94 47.63 449.07 48.6 450.54 50.51 454.19 51.61 457.86 51.05 462.05 54.23 482.62 19.85 521.62 7.2 524.17 8.66 527.49 8.4 532.43 6.44 534.94 7.15 538.1 12.86 540.1 14.16 545.08 20.27 547.52 19.51 547.84 15.9 553.23 14.57 555.47 11.49 557.07 4.03 560.55 1 573.19 5.38 578.55 7.71 584.49 8.22 589.16 10.65 587.94 13.01 580.48 17.1 576.39 18.38 575.73 21.85 579.75 24.72 583.23 28.44 585.53 29.92 589.41 34.06 596.1 38.88 600.7 40.51 601.69 44.3 605.49 48.9 610.52 52.99 614.19 58.54 615.22 68.92 616.31 70.94 623.89 74.89 628.82 76.09 636.67 74.52 644.23 75.49 646.58 78.75 645.98 82.76 647.56 83.96 651.24 84.31 653.06 87.63 653 90 648.35 96.73 647 99.92 649.63 103.77 656.77 108.71 656.34 111.25 652.44 113.18 655.41 115.56 663.09 123.23 668.2 131.32 669.81 134.53 674.34 138.68 679.65 138.38 688.54 134.62 689.66 136.87 692.6 139.08 699.31 139.54 702.71 138.03 707.14 137.41 709.17 138.64 710.07 143.11 712.4 145.4 716.76 152.54 717.06 155.58 730.05 156.66 734.84 161.52 743.55 169.1 748.75 173.01 755.18 175.46 758.76 176 765.49 179.26 773.07 184.34 774.16 186.42 774.75 191 777.61 200.75 779.57 203.51 784.74 205.56 788.58 199.29 785.13 194.82 784.11 189.26 785.37 186.93 789.29 185.77 791.92 186.12 792.69 189.79 794.3 191.83 794.68 194.96 796.16 196.13 799 203.71 Z"/>
</g>
</svg>