<?xml version="1.0"?>
<svg xmlns="http://www.w3.org/2000/svg" version="1.2" baseProfile="tiny" width="800" height="1233" viewBox="0 0 800 1233" stroke-linecap="round" stroke-linejoin="round">
<g id="4211108">
<path d="M 650.69 1087.81 649.08 1089.61 647.42 1090.14 645.22 1089.65 643.92 1090.03 643.41 1091.75 641.65 1094.18 640.37 1099.93 641.2 1102.3 641.53 1105.15 639.92 1107.47 638.44 1110.97 638.49 1114.59 636.08 1116.89 634.56 1119.06 632 1121.38 629.31 1124.9 628.38 1125.73 624.06 1128.37 622.57 1130.57 622.4 1132 623.2 1134.97 622.29 1136.97 614.97 1141.98 612.88 1143.16 608.61 1146.87 607.5 1147.36 602.1 1147.49 598.34 1149.34 594.33 1153.91 592.11 1155.85 590.6 1158.9 589.88 1161.97 589.09 1163.55 585.54 1166.43 583.82 1169.22 583.1 1172.86 582.21 1175.36 582.07 1178.19 582.73 1180.76 582.77 1182.84 584.12 1187.64 584.13 1192.55 584.84 1195.16 585.03 1197.97 584.49 1199.87 583.68 1200.48 580.02 1201.46 576.15 1203.2 574.26 1203.25 573.29 1202.33 573.02 1199.54 569.9 1198.05 568.44 1196.92 565.94 1197.75 559.49 1197.45 557.39 1198.4 555.74 1199.97 553.45 1202.93 551.87 1205.82 550.75 1208.61 550.17 1211.05 550.27 1214.73 551.94 1219.35 552.32 1221.06 552.18 1223.63 551.46 1227.26 549.98 1230.23 548.32 1232 549.06 1226.79 549.12 1222.2 548.86 1220.47 546.97 1218.6 543.06 1218.12 539.38 1214.96 535.59 1209.15 533.18 1204.99 532.06 1204.25 527.11 1202.5 524.7 1202.58 522.1 1203.75 518.07 1206.38 515.21 1206.98 509.73 1205.99 506.7 1206.13 504.97 1205.73 505.18 1203.47 506.8 1199.31 506.06 1197.05 502.17 1196.13 499.54 1194.84 496.88 1190.82 496.02 1185.9 493.45 1184.24 490.02 1184.28 487.67 1183.5 484.27 1183.98 482.5 1183.36 481.4 1179.99 478.65 1176.39 473.07 1169.87 471.7 1166.57 471.41 1163.29 474.5 1160.85 475.53 1159.59 475.6 1156.41 474.62 1154.23 472.28 1152.79 467.3 1151.51 464.16 1150.11 455.37 1149.47 451.17 1150 447.16 1151.54 446 1152.57 444.12 1156.12 441.03 1158.08 433.66 1161.09 430.58 1161.93 425.89 1162.48 421.67 1162.41 418.96 1164.58 416.84 1165.79 414.19 1165.9 411.75 1163.89 410.33 1163.47 407.5 1161.7 402.91 1160.36 399.59 1159.09 397.18 1156.96 394.82 1155.36 390.61 1154.33 377.08 1154.74 376.07 1154.58 370.87 1152.56 368.31 1152.17 362.45 1152.04 359.2 1151.63 355.03 1150.06 349.02 1149.28 347.57 1150.6 344.44 1152.63 337.71 1155.58 333.25 1158.57 331.92 1158.68 330.86 1157.3 327.83 1154.86 327.8 1153.73 329.7 1150 332.45 1146.82 333.34 1144.99 332.42 1141.49 331.31 1140.74 327.29 1139.23 314.52 1136.82 308.04 1135.52 305.6 1134.69 294.61 1128.05 292.6 1126.17 291.93 1124.09 291.72 1121.24 292.28 1117.35 293.66 1113.6 293.19 1110.23 290.33 1109.2 288.24 1107.19 288.39 1104.63 290.25 1101.81 290.55 1099.45 290.24 1096.03 290.82 1092.52 290.95 1087.3 291.59 1084.64 292.37 1078.76 293.46 1074.9 294.46 1072.86 298.47 1065.86 299.54 1061.73 297.29 1057.11 296.74 1054.58 297.96 1052.8 303.11 1050.62 305.92 1049.21 307.25 1047.79 308.65 1041.39 310.41 1037.27 311.63 1036.1 313.97 1034.96 314.36 1034.21 314.47 1029.81 313.3 1026.07 310.47 1023.72 308.21 1020.66 306.73 1016.9 307.15 1012.16 307.95 1010.36 310.57 1008.02 311.76 1006.27 311.79 1003.65 311.39 1000.95 308.85 996.26 307.26 991.91 306.37 988.07 306.33 986.49 306.96 982.18 307.6 980.47 310.31 977.85 312.05 976.83 313.71 976.53 316.01 978.61 317.61 979.55 325.34 982.28 330.48 982.24 335.84 980.24 339.17 979.52 343.22 979.01 345.87 979.13 349.02 980.31 350.49 980.34 352.45 978.8 354.22 978.01 356.11 978.07 358.07 976.38 363.96 972.08 369.55 969.19 370.92 967.57 370.41 964.6 368.45 961.54 366.71 959.7 364.45 958.1 362.79 956.19 361.47 955.54 358.63 955.3 356.97 954.55 353.78 949.12 353.21 946.58 353.47 944.53 351.29 942.76 348.24 941.31 346.12 937.8 344.89 936.59 342.4 935.19 339.54 934.13 337.16 934.44 334.64 935.79 328.71 937.4 324.65 936.79 320.68 937.09 319.21 936.91 316.87 935.57 314.2 933.01 312 930.25 308.09 929.42 305.24 929.84 301.81 931.11 298.69 933.74 297.33 936.52 295.7 939 294.03 939.79 290.23 940.28 288.82 939.66 286.56 937.27 285.45 934.66 283.96 933.32 281.67 932.3 279.73 932.33 275.36 934.85 271.81 935.86 270.37 935.84 267.02 934.98 264.86 934 264.11 931.68 265.08 929.38 269.43 926.43 270.83 924.49 271.11 919.84 271.61 917.55 270.25 916.97 261.97 917.15 259.94 916.21 257.06 915.81 256.05 914.8 255.93 912.91 253.69 907.64 253.39 903.01 253.61 899.84 255.51 897.54 259.36 897.22 262.74 894.55 264.47 892.34 266.7 892.01 269.37 892.92 271.98 892.46 276.62 892.7 278.79 892.01 280.91 890.21 281.78 888.83 283.33 884.75 284.53 882.99 284.66 881.69 283.66 879.75 281.41 876.8 277.4 874.4 275.94 873.87 272.28 873.56 267.2 871.86 263.52 869.87 259.11 866.24 258.31 864.93 258.55 862.91 257.42 861.28 255.24 861.33 239.52 863.56 222.5 866.59 219.51 866.81 216.92 866.01 213.5 864.16 210.18 863.15 208.17 863.14 206.24 862.11 205.19 857.25 202.65 857.46 197.37 860.09 194.7 861.86 191.68 864.56 187.32 865.4 186.09 866.35 184.43 866.33 180.3 862.15 177.85 861.58 175.27 862.11 172.66 863.73 170.66 866.11 169.3 867.08 164 868.3 161.73 868.14 154.72 866.09 141.73 859.5 138.84 857.72 133.66 855.66 124.94 852.84 122.99 852.86 118.42 855.25 116.12 854.87 110.95 852.78 106.11 850.14 100.37 845.9 99.02 843.46 98.51 832.41 98.78 831.09 100.77 827.17 101.03 825.58 100.39 824.5 98.47 824.19 94.48 825.29 92.48 826.51 90.67 829.07 88.98 834.36 87.43 838.48 86.51 839.83 84.88 840.43 85.8 837.16 86.68 832.67 85.79 829.8 83.49 828.22 79.12 826.22 77.88 824.37 77.8 819.8 78.31 817.69 78.44 812.95 77.58 810.03 72.71 801.01 69.79 798.27 66.97 797.4 64.97 796.27 62.09 793.26 59.99 789.5 57.32 787.51 57.06 785.89 57.49 782.73 57.27 781.33 55.99 780.45 51.58 779.58 43.84 776.19 40.68 775.23 38.56 775.31 35.5 774.09 30.54 768.89 28.98 767.64 23.57 765.15 22.83 764.07 20.98 756.59 15.71 751.68 14.01 748.27 12.38 745.95 11.87 743.71 13.23 741.66 18.22 739.62 19.94 737.79 20.17 734.68 21.95 731.12 23.6 724.39 26.44 716.82 26.09 712.34 23.87 708.43 19.68 705.29 15.59 702.56 15.31 700.9 17.13 699.85 18.87 698.04 20.58 696.98 22.12 694.45 23.85 692.97 26.17 691.94 27.95 690.39 29.41 687.94 30.77 687.13 30.53 684.9 30.92 683.31 32.2 681.93 33.22 679.14 35.25 678.78 36.42 674.97 37.14 674.65 39.06 670.7 41.13 669.13 43.22 668.63 45.03 666.7 46.27 664.55 45.78 663.53 41.74 659.44 40.8 657.24 38.94 656.62 37.2 655.28 36.53 653.19 35.4 651.97 34.93 649.79 33.8 647.52 31.92 645.86 31.49 644.58 29.94 643.74 28.65 641.69 27.34 638.65 23.71 636.36 22.29 634.38 19.22 634.1 17.36 632.07 17.16 630.86 15.88 629.24 13.05 628.64 11.59 627.2 11.44 624.4 9.44 622.41 5.17 621.37 3.02 619.38 1.42 617.36 1 615.76 3.13 614.32 5.28 614.87 7.65 614.85 11.44 613.69 13.43 614.27 15.39 613.65 18.18 614.11 19.87 612.47 22.12 612.04 24.57 612.37 24.8 610.54 26.5 609.16 30.34 608.34 33.37 605.98 36.96 605 38.13 604.12 39.7 601.41 42.78 598.92 45.92 598.63 49.23 599.12 51.97 598.81 54.3 597.73 55.02 596.78 55.37 593.64 56.88 591.47 58.31 590.62 58.53 588.45 61.74 584.64 64.9 586.78 66.36 588.92 65.7 591.66 66.56 593.89 67.76 594.44 70.16 597.05 72.12 599.67 77.79 600.66 78.75 602.57 80.62 603.6 81.7 607.28 83.95 606.94 84.99 605.82 85.85 602.48 87.6 600.92 89.21 600.29 90.42 599.1 92.01 599.17 93.85 597.95 94.96 598.27 96.05 600.71 94.2 603.5 94.61 604.77 96.27 605.49 98.95 605.01 101.27 603.1 102.64 602.45 106.69 598.62 109.46 596.92 110.98 594.75 113.1 595.24 112.31 596.5 116.04 598.55 120.88 598.82 122.96 599.3 124.14 598.51 128 599.63 129.05 598.36 128.53 596.25 129.59 595.25 128.94 594.27 130.55 593.61 131.89 594.06 133.68 592.81 138.42 592.92 140.94 592.24 141.7 588.89 143.15 587.64 146.19 587.25 146.13 585.9 144 586.41 144.06 583.57 146.43 581.33 149.04 580.81 151.57 581.07 152.54 582.47 154.05 582.26 154.56 581.2 158.81 581.1 160.87 578.91 161.66 574.27 161.43 573.38 158.91 574.2 162.19 569.16 163.66 568.78 164.78 565.34 163.82 564.57 166.86 562.19 169.6 560.94 171.9 559.28 172.06 557.72 170.02 556.77 169.79 555.58 171.82 555.41 172.07 553.6 173.45 553.63 176.16 552.11 176.97 549.86 176.85 547.55 175.97 547.18 178.8 544.88 181.23 543.61 184.06 542.68 184.16 541.5 188.22 541.51 188.23 540.02 190.38 538.53 193.53 538.22 194.89 535.07 195.18 531.59 192.72 530.57 194.29 528.63 192.59 527.45 191.51 525.3 189.81 525.14 189.73 523.05 191.22 520.88 190.33 519.18 192.32 516.1 193.18 516.68 197.8 515.9 198.02 515.04 195.96 513.55 197.44 511.41 197.92 508.61 197.13 506.21 197.92 504.07 197.55 501.91 198.14 500.64 197.54 499.71 197.77 493.83 197.15 492.98 197.05 490.87 195.76 489.3 195.52 488.09 197.95 485.69 197.43 483.44 198.8 482.25 198.21 481.54 200.08 479.92 201.43 479.57 201.9 478.07 205.12 477.84 206.61 479.52 208.49 479.22 208.99 476.89 210.25 476.13 212.84 475.46 213 473.95 214.74 470.99 215.95 469.92 215.48 468.5 221.33 466.17 223.97 466.21 224.55 464.94 222.08 464.39 221.9 463.06 226.69 460.1 227.18 458.43 228.7 458.07 229.26 455.2 230.96 455.37 230.78 453.58 231.87 452.84 232.46 451.03 234.44 449.33 237.26 443.67 237.45 441.31 235.63 440.4 234.88 441.88 233.79 441.03 235.64 439.31 234.55 436.87 234.18 434.85 232.25 431.93 230 430.2 230.34 427.84 229.07 426.88 228.9 424.75 228.03 423.3 228.14 421.95 227.15 420.5 226.29 417.51 225.15 416.39 224.5 413.23 223.27 411.81 224.83 410.86 225.11 409.17 223.91 405.78 222.81 404.5 222.85 402.96 224.76 399.73 223.74 398.08 225.91 398.12 227.25 398.8 228.25 396.95 227.86 396.25 225.6 396.31 224.24 395.6 223.36 393.91 225.33 389.13 225.52 387.65 227.86 385.6 230.89 385.96 232.2 387.87 233 387.51 235.35 390 237.94 390.43 239.67 392.32 241.21 390.86 243.02 390.81 244.79 390.05 246.24 390.31 247.26 387.05 249.59 386.62 250.67 385.84 249.65 383.67 250.16 382.5 252.24 380.72 253.44 384.91 256.98 382.88 254.86 379.39 255.35 378.49 257.29 377.92 260.35 375.84 261.91 378.58 264.33 378.48 265.06 377.31 266.83 378.01 269.4 376.07 273.84 376.76 275.48 377.55 276.61 378.78 277.77 378.95 278.75 377.09 277 374.47 278.99 373.83 280.52 375.73 281.24 375.53 281.67 373.33 281 371.65 288.07 372.96 289.31 372.6 289.42 370.88 291.98 372.78 295.25 377.5 296.25 376.34 296.12 373.49 294.87 371.34 298.57 368.09 300.63 367.38 302.76 367.49 303.36 366.08 305.91 365.87 307.14 366.65 308.52 366.16 307.12 363.66 307.26 362.73 309.65 361.77 310.98 361.84 313.48 361 316.14 360.58 320.41 361.25 322.13 358.82 322.02 357.02 320.63 356.18 321.3 354.56 322.24 354.25 321.95 350.86 323.8 349.71 326.08 350.02 327.31 347.6 325.07 346.35 324.22 345.29 324.92 344.34 327.49 343.96 326.18 342.11 328.58 339.05 332.5 340.64 334.79 340.69 337.02 341.62 337.89 341.19 337.33 337.71 338.95 337.34 340.62 338.18 340.78 335.52 344.64 335.88 345.36 335.37 347.85 335.84 347.04 338.05 350.38 338.57 353.51 337.59 354.27 339.42 355.72 339.81 359.44 338.28 359.79 340 362.77 338.02 363 335.92 361.4 334.08 362.68 333.08 366.96 333.64 369.06 334.19 371.09 335.37 371.76 333.25 373.6 333.18 374.42 332.18 376.82 334.33 376.96 339.12 380.35 340.66 381.29 339.55 382.39 339.81 382.42 341.22 386.07 342.15 388.13 345.62 389.96 346.58 392.33 346.26 393.3 346.92 392.28 348.19 393.03 349.45 394.75 349.51 395.56 351.93 397.97 351.17 399.43 349.38 404.1 347.09 404.37 346.2 407.6 346.86 408.15 344.45 410.18 343.68 410.68 341.78 407.2 340.07 408.38 335.9 406.83 334.51 408.26 332.33 411.13 330.27 412.59 331.22 414.95 331.56 415.55 330.48 414.28 329.74 413.98 328.5 416.84 328.17 418.89 325.63 418.6 324.27 421.94 324.57 426.2 325.75 426.5 327.16 427.5 327.99 429.3 327.59 430.72 327.94 431.67 325.96 434.06 327.44 436.39 325.27 436.67 323.19 435.47 322.81 433.42 324.29 432.47 322.78 434.66 321.09 436.3 321.16 436.66 319.48 433.2 318.99 434.34 314.62 433.84 313.78 430.56 313.74 432.54 312.17 431.69 310.76 431.93 309.11 431.58 306.87 433.32 306.38 433.59 308.68 434.47 308.54 434.7 306.72 433.3 303.29 431.03 303.54 430.76 302.54 434.42 298.93 434.9 297.91 439.28 295.38 443.1 294.57 444.38 297.38 446.33 296.37 446.85 295.07 445.89 293.92 449.83 292.54 452.24 292.12 453.7 292.49 455.2 291.31 456.99 291.44 458.39 290.53 460.94 291.8 462.54 290.93 464.58 292.04 465.95 291.04 468.14 290.27 469.57 291.26 467.73 293.53 469.99 295.89 472.06 295.47 471.88 292.85 474.23 292.24 475.59 293.78 474.48 295.05 476.07 295.6 479.76 291.61 480.07 288.88 480.76 288.08 482.17 288.88 483.69 290.62 486.39 290.03 491.6 289.53 493.45 287.8 494.99 288.91 495.89 288.34 496.08 283.25 498.12 284.01 498.81 283.56 496.78 281.69 497.34 280.47 494.08 280.93 493.15 279.49 492.44 276.32 494.34 276.38 495.76 279.02 496.57 279.09 497.64 277.26 495.75 274.83 496.64 272.61 495.05 271.77 495.71 270.85 497.54 270.62 498.84 271.82 499.56 270.06 495.55 269.5 493.59 267.45 496.21 266.87 494.42 264.97 496.24 264.79 493.44 262.61 493.42 258.95 492.29 258.19 493.31 255.68 495.15 256.27 496.27 258.2 499.16 256.41 498.78 254.91 503.98 255.03 505.28 253.6 507.39 252.91 510.26 252.48 511.53 253.22 512.02 251.07 513.61 251.74 516.78 252.36 517.39 250.88 515.16 250.1 515.64 248.57 519.34 248.73 521.08 248.34 524.09 248.5 528.16 251.21 529.01 252.19 529.64 256.22 529.39 259.58 528.17 262.73 525.88 262.4 526.31 263.82 528.48 264.77 527.3 267.03 530.8 267.89 532.74 267.13 533.22 268.72 534.58 267.74 536.69 267.72 536.87 269.76 539.08 267.6 541.08 267.67 543.58 268.59 545.27 267.59 545.56 266.38 548.34 267.31 549.41 268.67 548.02 269.63 545.45 270.06 543.65 273.14 543.91 274.63 545.85 274.26 547.83 273.18 549.75 277.9 550.78 277.73 551.62 275.5 556.75 275.81 560.96 272.05 563.04 273.93 565.15 278.26 567.88 281.03 568.74 283.25 569.79 282.7 570.07 279.77 567.46 279.96 566.37 278.47 567.7 274.57 567.41 272.49 570.18 269.94 571.62 268.21 578.42 265.98 581.77 266.14 583.78 267.75 585.61 268.67 590.73 270.18 592.97 270.09 594.99 267.56 598.23 265.65 598.7 264.73 596.88 259.97 595.78 258.85 592.77 258.36 592.95 256.79 599.11 254.94 598.82 251.37 599.84 248.36 600.89 248.18 602.44 249.75 604.66 250.39 606.19 250.25 606.48 252.23 607.71 252.16 607.29 249.51 605.75 248.22 605.47 247.14 607.56 246.26 607.44 245.35 605.41 243.31 602.65 241.07 599.87 239.69 598.59 238.54 596.33 234.18 596.69 232.43 598.43 231.36 599.55 229.67 601.16 226.08 600.91 225.23 598.91 224.58 599.57 223.48 602.24 223.06 604.15 220.73 606.86 220.44 605.78 219.02 604.06 219.61 601.9 219.64 600.88 218.91 602.31 217.64 607.82 218.25 612.72 217.22 612.33 216.38 610.36 215.27 609.34 213.81 609.59 211.93 611.56 210.41 613.01 208.59 613.4 205.9 612.94 204.29 611.91 203.36 609.07 202.36 608.33 201.39 610.45 199.72 610.61 198.95 609.18 197.11 609.25 194.89 607.73 191 606.27 188.49 602.25 185.3 601.07 184.74 601.37 183.33 604.22 181.9 604.06 180.24 602.53 180.04 599.58 181.83 597.78 180.84 599.21 178.53 598.16 178.05 596.91 179.7 594.8 179.29 591.71 177.11 589.99 178.27 588.98 176.85 592.39 174.6 593.82 172.71 592.65 171.77 590.09 173.83 588.44 173.99 588.02 172.89 589.5 170.21 589.51 169.05 587.94 167.59 587.57 166.28 589.08 165.14 589.58 163.94 589.28 161.65 587.1 160.67 586.8 159.41 587.52 157.67 585.19 158.04 583.5 159.83 584.55 162.02 584.42 163.37 582.96 163.47 582.05 162.38 581.97 160.81 583.05 157.32 583.4 154.57 581.37 154.66 579.85 158.26 577.8 159.5 575.85 158.4 575.4 156.65 573.72 156.39 573.37 158.05 575.32 160.34 575.36 162.68 573.75 163.33 572.25 164.68 570.55 165.39 568.71 165.11 568.74 167.02 565.99 165.77 565.1 167.83 563.72 168.68 560.52 168.23 560.06 167.3 560.82 165.81 560.7 164.35 558.25 162.74 558.29 161.12 560.89 159.55 560.96 157.42 558.54 156.25 554.19 155.96 552.53 158.11 551.84 156.34 550.43 155.35 547.94 154.4 547.13 152.11 545.52 152.08 544.2 150.09 542.97 150.17 540.58 152.71 538.19 152.7 537.27 150.4 540.9 149.19 540.98 147.93 538.26 146.14 538.41 144.93 539.67 144.12 538.7 143.1 536.95 144.93 534.28 144.18 532.98 144.43 530.32 145.78 529.17 145.23 528.73 139.9 527.95 135.02 526.7 133.52 524.09 131.87 523.25 130.58 524.11 128.48 523.41 126.6 524.53 124.96 523.89 123.11 521.95 122.31 521.29 120.95 523.44 120.26 525.27 118.87 527.25 118.72 527.48 116.89 525.04 115.55 519.69 115.08 520.41 112.92 522.33 111.63 522.45 109.9 521.18 108.66 521.37 107.68 523.46 107.12 523.31 106.11 521.12 106.13 520.3 105.49 522.28 103.33 527.85 101.85 528.77 101.24 531.21 98.08 530.08 95.75 528.8 94.49 526.44 93.47 525.27 91.6 525.49 90.57 527.32 90.48 527.09 89.19 525.01 88.3 523.14 88.28 521.12 89.07 519.5 87.57 520.4 86.46 522.56 85.73 521.07 84.51 518.76 86.01 517.39 85.55 518.03 83.77 520.76 82.36 520.2 81.12 518.87 81.43 515.58 84.56 514.37 83.51 516.51 80.79 515.14 77.69 513.94 76.97 513.01 77.69 511.27 81.43 511.59 83.86 509.12 83.75 508.51 82.75 507.97 79.42 507.05 76.89 505.69 75.88 503.34 75.43 503.03 74.38 506.46 72.61 506.47 69.57 509.66 67.45 512.28 64.8 511.6 62.69 512.58 61.49 514.28 62.13 514.91 61.18 510.36 58.1 511.57 56.09 509.78 52.63 507.64 52.35 506.16 53.9 504.59 54.1 503.48 51.17 500.87 49.92 500.77 49.2 502.08 46.54 499.7 44.35 500.59 41.61 499.98 40.08 497.14 40.19 496.68 38.71 498.81 37.75 501.01 38.48 503.12 40.12 504.21 38.32 502.57 35.5 500.76 34.71 501.05 32.99 504.99 32.3 505.44 29.19 507.77 26.06 508.2 24.25 511.32 23.86 510.59 21.93 509.32 21.32 506.74 18.63 507.46 17.4 512.16 17.96 513.13 17.37 512.59 15.34 510.52 14.61 508.88 14.77 506.92 15.89 504.04 15.51 501.99 16.88 499.86 16.32 500.49 12.67 498.63 11.2 501.19 8.63 501.47 6.18 503.24 2.76 504.47 1 505.48 1.67 507.98 1.78 511.68 4.18 513.93 4.34 516.28 3.84 521.09 6.15 523.94 5.26 526.1 6.06 527.9 6.03 529.43 6.89 532.14 6.39 532.89 8.24 536.16 11.76 536.57 12.78 538.47 13.48 539.44 11.51 543.69 14.77 546.86 12.77 549.26 8.73 552.32 8.62 553.37 8.21 555.03 9 555.85 7.97 558.89 7.78 559.81 9.65 562.6 12.49 564.86 13.95 566.88 16.68 568.07 17.47 569.16 19.67 570.2 23.8 571.78 26.63 573.73 27.05 574.47 23.25 575.84 22.21 578.15 17.41 581.87 15.24 585.61 14.38 587.08 15.02 591.68 18.34 592.88 18.91 595.29 19.13 597.85 21.13 599.08 23.02 600.74 22.23 602.43 20.62 603.49 20.3 605.55 20.9 608 20.55 609.29 21.14 614.37 20.94 619.85 23.34 623.46 22.73 623.9 24.12 627.45 24.04 627.46 22.63 630.42 22.35 632.22 24.01 634.64 24.61 635.97 24.06 637.92 24.23 641.14 23.49 645.74 11.32 648.01 12.86 650.68 13.08 656 12.67 659.58 12.91 661.74 11.86 663.68 12.12 668.43 10.81 669.95 8.48 671.93 9.02 674.13 7.53 677.82 6.42 681.1 6.34 682.7 7.02 683.45 6.42 686.69 6.83 688.3 7.37 691.09 7.27 694.67 8.84 697.28 10.43 700.46 11.29 702.64 11.12 707.85 12.38 716.06 13.62 719.07 14.33 721.16 14.15 723.06 12.89 725.05 12.61 726.58 9.44 726.81 8.07 728.61 4.01 729.31 3.05 731.39 2.79 734.4 5.11 737.35 4.84 739.1 3.61 740.52 3.27 742.63 4.05 744.26 5.46 745.96 5.51 748.89 3.97 751.44 6 751.74 7.74 750.91 10.4 748.93 12.77 748.02 14.68 750.53 17.17 750.46 18.63 749.4 20.16 748.03 25.51 746.98 26.5 747.17 31.55 746.31 35.23 747.63 38.64 749.38 40.09 752.37 39.85 755.14 41.01 756.08 41.86 757.33 44.34 759.01 45.51 760.55 47.47 765.18 49.14 768.24 48.68 771.14 50.02 771.78 51.78 772.2 56.09 773.35 57.18 775.48 57.44 778.41 55.76 779.97 56.27 781 58.32 784.38 59.76 785.43 61.6 784.71 64.68 785.05 67.07 788.42 69.42 788.95 73.91 790.83 74.03 792.61 74.77 796.3 77.15 797.51 78.65 799 79.37 738.04 107.68 739.74 113.17 740.51 116.91 741.85 119.54 741.35 121.26 739.33 122.54 735.71 126.09 731.61 129.08 728.48 132.57 725.79 134.18 725.41 138.42 724.81 141.04 724.94 142.67 726.41 147.51 728.39 150.15 728.88 153.53 728.46 155.47 726.56 158.35 726.09 160.44 726.18 163.89 725.51 166.07 722.95 170.06 722.06 172.08 720.98 173.24 721.68 176.52 720.45 179.07 718.66 180.97 715.8 185.08 714.22 189.55 712.94 192.01 706.68 200.92 702.41 204.62 701.83 206.43 702.82 212.34 702.32 215.29 701.53 217.24 697.07 221.45 695.8 222.03 691.36 223.02 690.22 224.54 690.58 227.89 692.32 233.25 691.72 236.65 691.64 240.19 693.29 246.93 695.3 251.82 696.5 253.35 697.24 258.16 696.98 259.58 693.96 261.54 693.86 262.61 695.4 265.48 696.34 268.52 699.47 272.83 700.23 276.39 701.23 278.9 707.84 282.07 709.43 284.83 709.69 288.31 708.69 290.72 706.31 294.09 707.43 296.39 709.13 303.06 706.98 314.09 705.98 315.57 701.64 319.13 699.12 322.57 698.79 323.45 699.3 326.23 698.99 327.92 696.47 332.67 695.75 334.81 694.77 340.04 695.03 345.62 695.33 347.69 695.76 354.22 696.14 356.64 697.03 359.38 697.86 360.41 699.53 366.84 699.15 371.34 699.01 377.01 697.99 381.17 697.97 385.37 699.02 389.59 698.81 392.95 697.35 402.4 698.83 405.09 702.46 406.86 707.21 408.33 709.04 409.52 709.6 410.86 706.84 417.74 706.79 418.83 707.72 421.38 707.86 425.75 709.06 426.99 712.71 428.54 715.73 428.7 721.31 430.05 721.73 431.62 717.46 437.83 717.25 438.79 720.1 446.83 719.17 448.96 715.8 455.43 714.68 459.2 713.02 463.51 712.99 467.99 712.06 471.21 709.23 475.49 706.56 478.98 704.84 483.31 704.26 486.31 702.23 489.74 698.29 493.74 694.72 495.87 692.71 498.38 691.56 501.68 690.27 504.16 688.74 505.95 686.6 507.43 683.89 510.41 683.39 512 683.68 513.81 685.46 516.75 685.69 519.05 685.35 522.39 686.15 525.23 687.1 526.62 688.22 530.59 687.79 540.13 685.23 547.28 685.22 549.44 686.68 553.26 688.76 554.46 688.94 557.2 686.46 566.88 687.17 569.08 690.62 569.79 691.6 570.95 692.24 574.47 691.38 577.45 689.11 580.87 689.32 583.9 688.71 586.63 687.58 588.24 685.58 589.94 684.11 593.37 684.21 596.26 683 600.65 682.37 605.71 681.45 608.66 679.83 610.24 675.51 612.19 674.97 614.51 676.41 618.4 676 622.12 675.52 623.22 671.75 628.8 671.05 632.29 671.04 635.11 669.07 637.7 665.51 639.57 661.85 640.79 658.64 640.97 657.91 642.95 658.21 647.84 657.58 651.26 655.6 657.72 656.24 660.86 659.27 666.63 659.67 669.01 659.73 674.37 660.11 677.83 659.5 679.55 657.74 679.05 656.89 677.75 654.68 675.93 653.02 675.53 649.91 676.91 648.58 678.89 647.49 681.42 646.62 686.84 644 690.67 641.89 695.11 639.92 696.99 637.95 698.08 634.15 698.78 631.78 702.44 630.91 703.09 625.94 705.14 622.25 706.14 620.23 705.86 618.18 706.44 614.22 710.49 611.51 716.51 607.46 719.36 605.45 722.59 604.5 723.37 597.23 725.36 596.53 725.83 594.99 729.84 592.48 732.71 589.94 734.04 586.15 733.9 584.82 734.78 575.07 745.61 571.6 748.25 570.71 749.5 571.02 750.77 573.68 752.6 574.37 753.88 574.07 755.32 572.85 756.94 572.14 759.38 572.08 765.22 572.92 768.06 574.76 769.96 572.73 773.29 570.16 778.16 568.98 781.1 567.13 784.44 567.38 786.25 570.05 788.6 571.18 791.1 571.71 793.82 571.48 796.36 569.84 798.12 568.59 798.53 565.24 798.7 564.21 799.19 561.8 801.55 559.75 807.16 556.61 808.37 554.29 809.7 554.12 811.57 556.21 813.64 556.56 817.25 557.59 824.07 557.32 825.56 555.8 828.15 555.09 830.47 555.33 833.54 556.59 841.29 556.54 844.45 555.85 847.79 555.15 849.22 552.66 852.51 552.18 854.92 552.84 858.18 553.81 859.9 556.67 861.12 558.6 860.74 559.78 859.22 561 858.6 564.64 861.04 566.79 863.98 567.18 865.49 567.1 868.2 567.82 870.72 569.68 874.17 571.68 876.03 575.25 878.13 577.86 881.2 580.76 882.18 583.13 882.49 583.73 883.31 581.44 885.09 577.54 888.83 576.31 890.54 574.28 895.85 574.1 898.65 574.94 900.96 578.91 904.65 582.6 904.52 582.49 906.54 583.13 908.22 586.51 910.82 587.61 912.42 587.13 915.2 585.56 916.13 584.53 917.61 583.76 920.37 582.55 921.64 582.64 922.66 584.26 926.7 585.75 927.97 588.2 927.82 593.48 929.71 598.02 929.37 601.68 931.6 602.96 932 606.57 931.46 611.16 933.19 614.75 933.55 616.09 934.11 617.66 935.79 620.87 937.04 622.59 938.37 626.29 940.49 629.7 941.91 632.42 941.98 635.07 939.6 636.31 939.57 637.56 940.58 638.98 944.38 641 946.19 641.61 948.65 644.08 954.3 644.65 957.5 645.7 958.36 646.27 964.47 646.92 967.58 648.29 970.94 648.86 973.55 651.73 976.05 653.22 979.39 653.39 981.16 653 983.85 653.83 986.81 654.8 988.69 654.41 990.43 654.71 994.56 655.32 996.76 657.94 999.19 660.44 1002.1 661.21 1003.77 656.12 1008.7 653.7 1012.85 651.61 1015.11 648.57 1015.61 647.84 1016.13 648.35 1018.34 647.54 1020.17 647.05 1025.93 647.94 1032.44 646.93 1035.44 648.6 1041.76 649.38 1043.88 649.02 1046.43 647.75 1048.54 649.2 1049.61 653.44 1051.99 655.35 1054.38 656.07 1055.99 657.84 1057.57 661.71 1059.36 661.82 1061.24 660.78 1063.5 658.37 1066.44 659.23 1069.84 658.36 1071.69 658.26 1073.66 656.37 1077.04 656.35 1080.16 657.02 1082.39 656.52 1083.41 652.86 1085.49 650.69 1087.81 Z"/>
</g>
</svg>