<?xml version="1.0"?>
<svg xmlns="http://www.w3.org/2000/svg" version="1.2" baseProfile="tiny" width="800" height="689" viewBox="0 0 800 689" stroke-linecap="round" stroke-linejoin="round">
<g id="4211751">
<path d="M 399.04 174.94 399.74 176.38 400.17 179.42 400.76 179.69 401.72 179.09 402.78 179.3 403.04 179.9 402.4 180.91 402.34 182.05 402.79 182.48 405.36 183.02 405.98 184.21 407.05 184.65 408.16 185.57 408.42 186.31 408.29 187.48 408.88 189.16 410.3 190.69 411.25 191.03 412.98 190.28 414.18 187.49 415.55 186.26 416.11 183.77 417.21 182.7 417.82 183.34 417.42 184.43 417.72 185.89 417.43 187.1 415.72 188.14 415.06 188.88 414.49 190.67 414.85 192.43 414.02 192.96 413.31 193.91 413.03 195.19 412.53 196 410.68 197.7 408.99 198.14 408.37 200.36 409.01 201.63 410.49 202.43 414.37 203.22 417.17 203.17 419.72 202.72 420.54 202.29 422.2 200.93 424.82 201.99 426.21 201.57 426.54 202.23 425.34 203.6 425.46 206.63 424.78 207.83 423.45 208.82 422.28 209.31 421.51 210.27 420.21 211 419.18 210.94 418.29 211.38 417.52 212.48 417.78 213.63 419.32 215.24 420.86 215.32 421.84 214.89 422.88 215.11 423.48 215.89 424.33 216.28 425.16 215.91 426.14 214.73 427.49 214.37 429.46 214.54 431.31 214.91 432.35 214.86 433.78 213.9 435.33 213.8 436.57 212.75 437 211.62 436.71 211.02 435.43 209.78 435.53 209.19 436.51 208.15 437.86 207.77 441.4 208.21 443.4 208.07 445.57 208.44 447.71 207.96 448.75 206.61 448.63 204.67 448.29 203.19 447.23 202.25 444.75 200.85 444.45 199.63 444.9 199.15 446.72 200.87 447.93 200.85 448.92 201.27 449.55 203.41 450.69 204.88 451.28 206.01 451.97 206.07 454.42 205.21 454.47 203.68 453.69 202.21 454.23 201.53 456.19 202.6 455.92 204.67 456.59 206.14 458.6 207.12 458.64 208.1 457.66 209.51 456.73 210.41 454.1 211.34 453.81 212.24 453.9 213.99 455.7 215.09 457.17 215.32 460.11 214.92 461.26 214.16 463.45 213.11 464.41 213.12 464.61 214.46 465.05 215.24 464.49 215.75 464.82 216.49 465.92 217.28 468.22 218.39 469.05 219.39 467.94 220.4 468 221.34 466.83 222.33 467.5 223.31 466.81 224.53 465.68 227.24 465.69 228.23 467.23 229.43 468.56 229.38 470.36 230.23 472.38 229.57 472.56 230.36 473.54 231.49 474.19 232.95 476.62 233.43 477.34 233.17 477.47 232.42 479.94 231.3 482.68 231.55 484.51 230.68 486.12 228.53 486.48 230.43 487.25 232.69 484.68 232.99 483.09 234.22 482.36 236.62 481.15 237.17 480.19 238.32 480.13 239.39 480.59 241.68 479.7 242.52 480.11 245.41 483.35 246.04 485.45 245.63 486.91 244.95 487.41 245.21 487.35 247.15 487.65 248.01 488.86 248.86 490.1 247.99 491.51 248.4 492.17 249.17 492.03 250.8 491.16 251.54 490.34 252.84 490.28 253.82 491.42 254.1 491.71 255.12 492.63 255.46 492.86 257.27 495.1 257.78 495.63 260.04 496.36 260.2 497.35 261.16 497.78 262.72 497.23 264.24 495.91 265.7 496.07 266.86 495.35 267.65 494.59 269.57 496.5 270.07 496.97 270.81 498.62 271.95 499.14 273.18 501.75 272.96 502.49 273.92 502.64 275.94 504.07 278.19 505.44 277.83 505.82 277.04 507 276.4 509.68 274.31 511.64 274.24 512.13 274.45 513.48 276.81 512.7 277.79 511.15 278.37 510.25 279.26 514.09 280.73 514.88 281.22 515.15 282.2 513.56 283.68 513.55 284.17 515.07 285.44 517.53 286.71 519 287.06 519.85 287.6 519.98 289.16 519 289.76 516.57 290.22 515.69 291.05 513.81 291.6 512.99 292.75 512.6 294.7 511.69 296.64 511.19 298.96 511.47 304.42 510.9 307.3 510.86 309.14 511.36 312.01 510.62 314.59 509.95 315.61 508.54 316.61 508.32 317.09 508.71 318.32 510.89 319.49 512.96 319.57 516.6 318.45 519.95 318.04 520.05 319.05 518.1 320.93 517.49 321.14 516.58 322.17 516.06 323.75 514.96 325.88 513.97 326.86 513.13 328.83 512.13 329.55 510.36 331.24 509.91 333.64 510.91 336.75 510.29 338.02 510.77 339.09 510.61 340.52 512.43 341.87 512.92 343.51 514.47 343.91 514.74 344.88 515.61 345 518.58 344.87 519.1 344.53 521.94 343.81 523.42 342.85 524.4 341.85 525.38 341.35 528.13 341.42 530.15 341.94 531.47 341.12 532.92 340.87 534.19 340.14 535.19 340.37 536.25 341.09 538.88 341.04 539.66 340.6 541.09 340.99 541.24 341.97 542.18 342.27 544.17 342.04 545.06 342.25 545.31 342.92 547.26 343.38 548.43 343.13 551.96 343.29 552.53 343.85 554.03 344.27 554.87 344.07 555.59 344.78 557.03 345.29 557.42 345.98 560.57 346.17 561.18 345.77 561.92 344.35 563.01 343.96 565.65 343.77 565.93 342.57 568.16 342.94 568.54 342.54 568.78 341.15 570.06 340.11 570.98 341.1 572.61 339.59 573.16 339.45 576.51 340.17 577.55 340.64 578.2 339.67 578.89 339.39 579.88 339.74 581.03 339.64 582.98 338.84 584.33 337.7 585.89 338.11 587.25 337.33 588.02 337.32 588.39 338.06 587.88 339 587.81 340.28 588.1 340.92 587.07 342.12 587.41 343.07 588.13 343.74 589.38 343.92 590.21 344.84 589.43 345.48 588.28 347.35 587.83 348.57 586.51 349.19 586.19 350.73 585.5 352.73 585.64 353.36 585.14 354.21 585.53 355.96 585.98 356.63 585.67 357.78 587.38 359.16 589.51 359.27 590.53 359.69 591.1 360.39 590.51 361.7 590.52 362.59 591.26 363.27 591.5 364.68 590.02 366.58 589.94 367.63 590.54 368.28 591.99 369.13 594.25 369.68 595.25 370.24 596.45 371.35 596.23 372.37 595.35 373.05 594.1 373.51 593.9 374.83 594.13 375.75 595.13 376.93 596.08 377.05 597.89 375.91 599.11 376.42 599.61 377.87 599.43 379.93 600.46 381.02 602.17 382.08 603.23 383.7 606.29 385.1 607.63 386.35 607.27 387.28 605.67 387.49 603.91 388.46 603.55 389.26 603.12 393.35 603.57 394.05 604.4 394.2 604.82 393.65 604.75 392.09 605.42 391.82 607.32 392.85 611.41 395.52 615.09 398.4 618.6 399.88 619.62 401.93 619.04 402.81 618.42 402.9 617.51 404.1 615.61 405.52 615.63 406.19 617.27 407.34 620.15 410.61 620.44 411.89 619.61 412.38 618.54 412.49 617.33 413.46 614.67 417.25 614.81 417.98 615.86 418.28 616.6 418.98 617.98 417.98 619.91 417.86 623.12 419.25 624.34 419.17 623.98 420.16 622.19 420.62 621.79 421.24 622.13 422.5 623.84 422.87 624.1 424.2 625.15 425.11 625.73 426.57 626.64 427.06 628.71 427.43 628.74 428.57 629.69 428.82 630.1 429.62 630.86 430.05 631.85 431.22 631.7 431.78 630.7 432.47 630.09 433.73 631.36 434.84 630.17 436.57 631.1 437.24 632.44 437.14 635.15 438.53 637.2 438.83 638.29 439.47 640.29 441.81 641.4 442.51 642.2 443.46 643.3 443.97 644.47 445.42 645.56 446.1 646.58 447.14 647.94 448.15 648.5 450.19 649.46 451 651.02 450.79 652.02 450.11 652.31 448.88 653.33 448.28 654.27 448.45 654.28 449.17 656.1 448.91 656.8 449.65 657.86 452.16 660.61 454.06 661.48 455.63 661.72 457.4 662.26 458.51 663.01 459.3 664.13 459.8 667.42 460.46 671.23 460.85 672.67 460.85 674.21 462.33 677.45 463.94 679.7 464.53 680.36 465.5 680.4 467.04 680.72 467.52 681.98 467.89 685.55 469.71 687.9 471.35 689.46 471.41 691.82 472.86 693.01 474.28 693.71 476.61 695.53 478.41 695.77 481.59 696.31 482.92 697.7 484.54 698.01 486.24 699.91 488.96 701.7 490.8 702.03 492.01 702.75 492.28 704.52 494.2 705.86 494.78 707.18 496.04 711.17 498.57 713.55 500.69 715.33 500.53 717.72 501.14 719.11 501.16 720.06 500.76 720.88 499.25 721.95 498.42 723.37 498.14 725.04 496.62 727.7 495.5 729.64 495.23 730.29 494.58 732.34 493.43 736.17 492.85 737.59 492.43 739.65 491.33 740.77 491.71 740.21 493.05 737.4 495.94 737.52 497.48 738.17 499.77 738.58 500.37 740.55 502.21 740.91 503.19 740.8 504.94 741.19 506.6 744.49 506.39 746.91 506.55 749.24 507.12 750.24 507.09 751.07 508.22 753.58 509.31 754.31 510.78 752.67 513.4 751.97 513.94 752.05 515.28 751.76 516.14 750.25 516.86 751.1 517.92 750.6 519.12 750.99 519.56 753.25 520.27 754.98 522.19 755.73 522.73 756.71 522.41 757.8 520.92 757.87 519.77 757.25 518.7 757.73 517.93 759.74 517.67 761.65 518.45 762.61 517.52 763.35 517.8 764.11 521.35 764.68 522.63 765.79 523.41 766.42 524.82 767.67 526.18 768.31 528.02 769.67 529.92 770.41 531.8 772.11 532.92 773.07 533.04 774.37 531.98 775.13 532.86 775.17 534.66 775.94 536.06 777.7 537.43 778.46 538.39 780.01 541.31 781.23 542.05 782.28 544.96 783.52 546.23 784.06 548.12 785.07 549.99 786.45 551.33 787.88 551.87 789.15 552.64 791.04 554.54 790.79 555.15 789.33 556.12 788.91 557.14 789.41 557.56 791.18 557.69 793.39 557.57 794.48 557.98 795.75 559.27 795.91 560.28 795.49 562.61 794.69 564.71 792.29 566.84 791.68 568.16 792.02 569.34 791.74 570.27 790.81 571.44 789.1 572.98 787.99 574.67 787.6 575.73 785.81 577.13 785.1 578.58 784.55 579.05 782.33 579.95 780.78 579.68 778.22 579.85 778.22 580.91 779.62 582.99 780.27 583.52 780.52 584.53 780.53 586.49 781.59 588.77 781.51 589.59 780.65 591.58 781.28 593.67 781.49 596.14 780.95 600.39 781.18 601.13 782.71 602.38 785.42 602.69 787.09 603.18 785.82 604.09 784.39 604.41 783.3 605.28 783.78 607.37 783.31 608.69 783.74 609.52 784.98 610.07 785.91 611.31 786.66 611.84 788.47 611.57 789.79 612.14 791.68 612.09 792.82 614.16 792.62 615.81 793.42 616.29 797.63 615.37 798.51 616.34 798.03 621.36 799 622.54 798.34 623.54 797.48 623.81 796.88 625.01 797.34 626.96 797.15 627.72 794.99 628.57 793.67 629.43 793.99 630.12 793.4 630.92 793.59 632.18 792.13 633.15 793.53 633.86 793.8 634.39 792.41 636.62 791.81 637.02 791.37 638.32 790.59 637.72 790.31 635.13 789.61 634.77 786.45 635.5 785.1 636.1 784.28 636.05 782.58 637.52 782.55 638.87 782.94 639.39 785.42 639.9 783.84 640.81 782.86 640.91 780.8 640.47 780.28 641.02 779.2 643.41 779.68 645.03 779.6 646.32 777.6 647.19 776.91 646.97 775.19 643.93 774.79 641.95 774.23 641.29 772.48 641.32 771.73 640.96 770.4 641.2 769.75 642.57 771.59 643.88 771.55 644.7 772.39 645.46 771.56 646.81 770.79 647.36 769.48 645.24 768.54 644.86 768.56 644.15 767.41 643.32 764.18 644.66 761.34 645.23 759.54 644.68 754.15 645.24 752.93 644.44 752.28 644.51 751.15 645.41 749.8 647.2 747.8 648.39 747.47 647.6 748.35 646.64 747.5 645.63 747.41 645.04 746.21 644.82 745.87 644.31 746.89 643.02 746.25 642.09 745.01 641.87 744.85 640.98 745.4 640.13 742.76 638.43 740.31 638.36 739.23 637.75 739.9 636.93 740.98 636.89 740.38 634.52 741.06 633.4 740.98 632.04 742.25 631.13 741.99 630.13 740.35 629.47 738.85 629.13 738.11 627.47 736.28 627.5 735.6 628.19 732.02 629.79 730.5 629.4 728.79 629.23 728.18 629.72 729.85 630.2 728.53 631.35 727.25 631.32 725.12 630.37 722.89 630.7 720.55 631.57 719.81 632.01 719.63 633.5 720.13 635.99 719.58 637.23 719.79 638.78 720.67 639.92 720.03 640.25 718.25 639.98 717.73 639.05 717.21 637.12 715.22 637.11 715.15 637.87 712.43 638.22 711.8 638.77 711.44 641.14 711.94 642.79 711.17 642.83 710.56 641.77 708.53 641.19 707.4 641.96 706.3 644.94 706.16 646.08 706.46 647.56 704.33 647.64 702.36 646.13 701.05 646.1 700.86 644.71 700.49 644.17 698.89 644.76 698.5 647.27 698.47 649.74 699.18 652.07 698.54 652.77 697.06 652.59 696.05 651.71 695.14 649.95 693.16 649.6 692.57 650.74 691.48 650.6 691.19 649.37 689.9 649.13 690.17 646.17 689.71 644.21 687.89 643.59 686.83 641.83 685.79 641.84 686 640.73 684.83 640.06 684.17 639.34 683.21 640.09 683.5 641.53 684.25 642.32 684.62 643.39 684.2 644.16 682.39 645.79 680.73 645.43 678.85 645.79 676.92 645.77 677.66 646.99 679.09 648.09 678.94 648.82 676.76 649.57 675.31 650.8 675.04 651.32 675.26 653.3 674.84 654.9 674.82 656.53 675.06 658.33 673.17 658.27 670.09 657.4 668.49 656.71 668.04 657.41 669.1 658.92 671.66 660.51 673.32 661.39 673.17 662.24 670.55 662.73 669.08 663.31 667.23 663.05 666.5 662.01 665.53 662.33 665.66 663.72 666.27 666.22 666.01 666.87 663.72 666.98 662.33 667.55 661.43 667.22 661.3 665.88 660.4 665.22 659.73 665.88 659.95 666.51 659.84 668.44 659.43 670.55 659.89 672.6 659.34 674.75 657.37 673.42 657.18 671.73 655.76 670.51 654.2 669.91 652.51 670.63 652.12 672.27 652.86 674.62 653.85 677.08 653.38 678.82 652.08 678.87 649.13 677.56 648.25 677.8 649.03 678.71 649.95 680.37 649.97 680.91 648.37 681.27 647.07 681.85 643.44 682.11 642.83 681.46 642.59 680.24 643.17 678.69 642.09 678.39 639.69 681.21 638.37 684.32 638.07 685.74 636.82 685.65 636.26 683.74 636.55 682.25 637.85 681.3 639.82 679.37 640.09 677.29 639.27 675.7 636.31 674.22 635.11 673.18 634.08 672.63 633.25 672.71 633.16 674.59 630.43 676.24 628.28 677.02 628.46 678.18 631.41 679.46 631.11 680.23 630 680.69 627.76 680.9 626.74 680.57 625.53 679.68 624.05 677.75 622.44 677.52 620.5 678.36 616.9 678.79 615.58 679.65 614.51 679.2 614.44 677.9 614.81 677.27 617.07 675.41 617.17 674.76 616.64 673.91 614.44 671.79 613.66 670.57 610.31 668.75 608.9 667.47 608.32 665.65 607.84 665.09 606.52 664.44 606.67 663.12 608.5 663.12 612.14 663.56 613.42 663.37 615.26 661.58 616.08 659.19 615.57 654.06 614.53 652.5 612.41 651.33 608.87 649.77 605.03 647.93 603.47 646.96 601.72 646.27 598.88 645.52 597.31 645.31 591.05 646.12 588.55 646.17 586.66 646.38 581.08 648.03 578.01 649.39 575.83 650.5 574.93 651.39 573.38 654.39 571.38 656.42 569.19 657.57 566.91 658.15 566.55 658.42 565.37 660.6 565.19 661.38 566.07 666.14 565.85 666.94 564.29 670.94 563.51 672.63 561.74 675.01 561.61 677.08 562.47 679.27 562.72 680.45 562.32 682.79 562.97 684.95 563.89 686.56 563.99 687.3 563.32 687.95 561.07 688 560.03 687.43 556.76 685.18 552.04 682.67 550.75 681.61 547.77 679.73 546.55 678.46 544.79 675.8 544.78 673.86 545.3 673 547.22 670.83 550.9 667.44 551.55 666.15 551.34 664.83 550.62 663.14 548.67 660.46 547.32 659.2 544.88 658.11 542.34 657.39 541.69 656.63 540.78 654.15 539.81 653.09 532.84 650.38 530.06 648.35 529.45 646.74 526.81 643.02 525.23 640.6 524.66 638.97 524.45 637.28 525.16 633.12 525.4 630.6 525.21 628.59 523.82 624.65 523.77 622.7 525.06 619.23 524.78 617.45 523.63 614.84 524.28 613.49 524.21 612.53 523.55 612.04 519.37 610.48 518.5 610.35 517.01 610.9 516.39 611.52 515.75 613.5 515.73 617.87 515.56 621.47 516.46 625.09 516.41 626.25 515.93 627.55 514.91 629.28 513.17 631.05 512.98 632.38 514.14 634.81 513.24 636.1 511.6 636.94 510.26 636.67 504.96 633.89 503.16 632.74 501.02 630.72 497.61 626.86 497.29 626.18 497.06 623.55 496.56 621.12 495.95 619.03 494.91 618.38 493.79 618.6 488.81 621.31 487.02 621.96 485.54 622.14 482.13 622.06 479.35 621.55 478 621 475.41 619.4 469.47 615.08 467.92 614.79 466.49 615.76 465.91 617.51 464.69 619.75 463.49 621.61 463.12 623.05 463.44 625.01 464.64 626.3 466.55 627.56 468.49 628.55 478.58 630.84 480.56 631.39 481.87 632.34 483.74 634.42 485.25 636.66 485.91 638.44 486.54 640.87 487.43 643.02 488.98 646.27 488.9 647.1 488.22 648.76 487.6 649.5 484.71 651.84 483.19 652.09 481.43 651.61 474.35 649.14 471.97 647.88 470.25 647.28 466.98 646.74 465.63 645.98 464.46 644.92 463.1 643.02 462.1 641.26 460.7 639.86 459 638.98 456.49 637.93 454.47 636.13 453.19 634.47 450.54 630.38 449.44 629.25 447.48 627.65 446.58 626.37 446.18 622.88 445.81 621.69 442.37 618.3 439.24 614.76 435.92 611.99 433.77 609.61 432.95 609.42 430.43 609.34 427.54 609.48 423.59 610.29 419.3 611.53 417.82 611.41 416.1 610.83 413.08 608.78 412.61 607.52 412.84 605.74 416.5 600.85 417.79 599.3 420.03 597.14 420.61 595.69 420.59 594.42 420.09 592.22 418.63 590.91 417.35 590.53 415.2 590.79 413.08 591.47 407.78 593.6 404.53 595.34 401.24 596.61 400.28 598.63 399.77 602.43 399.79 604.02 400.85 608.43 401.23 610.94 402.06 613.92 403.47 617.97 404.79 619.85 405.84 620.87 406.55 621.97 405.78 625.2 404.83 626.62 403.66 627.71 399.52 630.24 396.44 631.53 394.41 631.97 391.75 632.15 388.2 633.23 386.32 632.93 379.88 630.4 378.07 629.86 375.76 628.5 374.71 627.62 373.6 626.08 371.14 621.69 370.25 619.88 368.05 615.91 367.58 614.6 365.8 610.89 364.9 605.28 364.18 604.2 361.69 602.64 358.78 602.07 357.64 601.99 353.93 602.06 347.93 602.57 345.22 602.62 342.1 601.9 339.8 600.57 338.06 599.13 337.72 598.03 337.77 596.79 338.78 593.74 339.71 591.64 341.27 589.69 343.84 587.29 345.6 585.83 348.79 583.79 351.14 583.1 353.35 582.68 355.17 582.74 356.18 583.44 357.29 585.34 358.3 586.44 359.9 587.74 363.05 589.25 365.15 589.6 367.06 589.17 369.02 588.22 370.32 587.12 371.07 586.15 370.57 583.41 369.71 581.22 366.11 577.76 362.47 574.81 358.71 572.24 356.34 569.41 355.29 568.58 351.59 567.08 350.42 565.64 349.53 564.06 348.7 562.02 348.25 560.17 347.76 559.17 346.35 559.14 343.21 560.65 341.9 561.48 338.84 564.62 335.84 568.2 333.88 569.84 332.84 570.41 331.51 570.57 327.15 570.49 324.93 570.2 323.65 569.85 321.38 568.26 320.54 567.25 318.11 563.78 314.16 558.49 312.1 557.35 309.96 557.03 307.64 557.07 306.07 557.5 305.26 559.19 306 564.2 307.04 566.67 308.8 569.41 312.09 573.11 314.67 575.53 316.73 578.23 319.8 580.34 323.7 582.18 327.1 584.51 328.43 585.85 329.3 587.06 330.01 588.6 330.45 591.04 330.11 592.28 328.68 594.7 326.9 596.31 324.35 597.52 323.04 597.11 322.54 596.26 320.78 595.41 318.87 594.21 317.74 592.55 317.38 591.22 315.77 588.73 312.54 584.16 310.16 582.38 308.44 581.66 306.28 581.41 304.68 581.95 302.75 582.32 296.92 584.78 295.31 585.28 293.73 585.38 289.57 584.98 284.74 585.28 283.08 584.95 281.99 583.9 281.13 582.71 280.65 581.47 280.58 579.37 281.13 577.93 282.34 575.63 284.04 571.1 285.6 569.41 287.55 568.68 289.97 568.73 293.97 569.98 297.22 570.52 299.19 570.04 300.35 568.89 300.55 567.69 300.41 566.22 299.82 564.35 298.11 560.82 296.17 558.5 293.51 556.88 290.26 555.44 288.36 554.45 286.63 553.31 284.95 551.57 284.53 549.92 284.69 549.01 285.42 547.53 286.86 546.14 288.87 545.74 292.36 545.8 294.25 545.64 296.81 544.6 297.94 543.75 298.9 542.64 299.57 540.71 299.69 538.14 299.5 536.78 298.02 533.66 296.79 531.42 295.4 529.58 294.33 528.81 288.22 526.09 285 524.53 281.73 523.25 278.27 521.6 273.94 519.81 273.06 519.07 271.37 516.91 270.55 514.79 270.18 512.12 270.58 511.25 272.04 509.8 275.33 507.58 279.76 504.11 281.89 502.64 283.2 502.1 284.51 501.98 287.63 502.11 290.76 501.34 291.65 500.81 293.16 499.3 295.7 495.8 298.26 492.93 299.63 490.24 300.38 487.63 300.14 485.62 298.4 483.41 294.94 479.65 293.37 477.71 290.6 473.73 289.79 472.81 287.47 471.23 284.05 470.61 283.23 470.66 278.53 471.46 276.16 472.3 274.11 473.48 273.09 475.01 272.81 476.99 271.52 480.44 269.5 483.98 268.13 485.84 267.6 487.25 266.33 493.82 265.11 495.67 263.61 496.69 260.4 497.92 253.27 499.36 251.75 499.53 250.11 499.31 248.85 498.88 247.52 498.04 245.41 495.8 242.42 490.39 240.39 487.36 239.14 485.36 238.66 483.4 238.29 478.77 237.52 477.24 234.67 473.89 232.4 471.37 229.79 468.19 228.2 466.03 227.62 464.48 227.7 462.14 228.26 460.69 229.13 459.63 230.31 458.86 231.88 458.54 234.37 459.35 238.34 459.57 239.81 459.45 241.25 459.05 243.06 457.95 244.21 456.95 244.65 455.56 244.46 453.25 243.99 452.12 241.76 449.34 238.52 447.29 237.02 446.83 234.89 447.14 233.26 448.05 229.89 449.27 228.24 450.43 226.15 452.14 223.15 454.11 221.35 455.57 218.24 460.44 217.22 462.36 214.97 465.07 213.12 466.83 210.72 468.23 207.68 469.22 206.63 469.21 205 468.79 203.1 467.53 199.4 465.52 196.04 464.19 195.52 463.7 194.18 461.54 192.26 458.14 191.61 456.47 190.64 452.66 189.81 450.79 187.96 449.35 186.54 449 183.6 449.07 182.29 449.92 180.62 451.62 180.21 453.56 180.27 458.09 181.07 459.87 185.21 463.31 186.06 464.63 185.84 466.39 184.58 467.62 183.63 468.02 181.39 468.49 178.56 468.46 176.21 468.03 171.5 466.88 167.76 466.48 166.13 466.2 164.03 465.36 162.72 464.64 153.24 460.34 150.88 459.47 148.2 459 146.09 457.98 145.05 456.04 144.61 448.32 143.45 445.29 143 443.46 143.09 442.37 143.84 440.44 145.93 437.63 146.84 435.79 147.83 432.99 148.94 431.5 150.53 430.09 154.08 427.59 156.26 425.71 156.83 425 157.18 423.8 157.13 422.39 156.35 421.09 150.63 415.01 149.11 413.27 147.27 411.63 146.07 410.86 141.39 409.1 140.17 408.42 137.22 405.87 134.56 405.76 129.6 404.48 121.21 401.91 120.9 402.39 122.03 403.42 122.43 404.44 120.66 407.88 119.81 407.92 118.52 408.78 118.86 409.24 116.62 409.78 115.23 409.62 114.4 412.06 113.56 411.69 112.49 413.01 111.29 413.08 109.81 411.77 109.41 412.65 108.58 413.01 104.72 413.41 102.5 414.21 101.97 415.26 76.75 397.83 82.83 387.91 84.19 385.38 88.4 375.67 85.19 374.15 81.27 371.89 77.86 370.64 76.65 369.93 76.15 369.25 74.99 364.73 75.24 360.32 75.68 358.68 76.7 356.39 78.43 354.25 79.6 353.27 80.91 352.79 83.59 351.31 87.39 349.52 88.06 349.31 92.57 348.46 94.53 347.88 95.69 347.14 97.83 344.47 98.89 342.25 98.85 339.39 98.39 338.6 98.15 337.19 97.35 335.67 95.66 334.73 93.14 334.75 91.42 335.34 89.49 336.42 88.21 337.91 85.47 342.06 83.27 344.79 82.24 345.58 80.46 346.29 77.82 346.88 75.09 347.29 72.89 347.95 69.04 349.82 67.43 350.31 63.89 350.91 62.02 351.45 56.78 353.36 55.62 353.41 52.79 352.07 50.01 349.79 49.17 348.57 48.94 347 49.37 345.44 49.53 343.94 50.35 341.49 51.57 340.03 53.33 336.96 53.83 336.44 55.55 335.58 57.93 335.66 59.74 336.06 64.84 336.4 66.59 336.13 67.98 335.47 69 334.12 69.27 331.39 69.23 327.88 68.26 326.06 67.08 325.28 64.66 322.71 59.64 317.81 56.91 315.29 49.79 309.35 47 307.88 43.68 306.66 41.04 305.43 40.1 304.46 39.59 303.08 38.98 300.7 38.88 297.99 39.81 295.24 41.39 293.53 46.39 287.69 46.6 286.56 45.28 284.88 41.35 282.81 37.41 280.83 34.68 279.6 30.97 278.39 27.42 277.9 24.54 277.68 19.98 277.71 17.36 277.89 14.78 278.28 12.19 279.02 9.9 279.44 7.92 279.45 7.05 278.97 4.81 276.4 2.86 271.45 2.22 269.12 2.12 267.66 2.33 266.07 3.52 263.16 4.14 260.93 4.25 259.47 4.02 257.4 3.31 255.45 1 252.41 2.61 252.23 3.16 252.8 3.83 254.56 5.49 256.47 7.08 257.43 8.13 258.46 9.81 261.62 11.28 262.8 12.11 263.15 13.68 263.31 14.22 263.04 15.84 261.36 16.79 259.58 16.63 258.7 15.19 258.02 12.04 258.97 10.09 258.93 9.58 258.35 9.56 257.26 10.05 255.48 11.52 252.88 12.39 252.54 13.47 253.54 14.68 253.47 16 252.74 16.69 251.83 16.04 251.05 13.08 251.08 12.3 250.62 13.56 247.79 16.05 247.58 17.33 246.7 19.18 244.36 20.19 243.65 20.62 243.99 21.82 246.82 22.88 248.32 24.04 249.56 24.7 249.84 26.48 248.49 26.54 247.14 25.96 245.97 25.05 243.4 24.49 240.55 24.46 239.64 25.12 238.56 26.2 238.76 26.8 241.83 28.34 243.1 32.3 244.52 33.39 243.53 31.62 242.01 30.85 241.05 30.95 240.14 32.98 239.18 33.03 238.46 31.51 237.15 31.02 236.18 31.15 234.22 30.78 233.77 26.91 233.19 25.69 232.64 25.91 232 28.55 231.41 30.81 230.28 30.84 228.96 29.75 228.56 28.24 228.7 26.98 228.42 27.12 227.84 29.25 226.4 30.62 226.59 32.73 228.21 34.53 229.11 35.57 228.76 37.01 227.76 38.06 226.59 37.93 224.8 36.43 223.37 36.46 222.62 37.27 221.43 35.93 220.1 36.1 219.51 37.57 218.92 38.79 219.45 40.41 221.55 41.73 223.76 42.64 224 44.84 221.2 46.07 217.7 44.51 217.45 43.07 216.57 40.6 216.47 39.95 214.11 40.26 213.62 42.17 213.92 43.9 213.75 43.91 213.14 43.09 212.07 43.03 211.12 44.44 211.22 47.24 212.16 49.32 210.98 49.11 210.29 47.67 209.25 47.58 208.19 46.51 207.81 43.95 205.93 43.64 205.19 44.11 204.14 45.45 202.58 46.32 203.24 50.17 204.73 50.97 204.4 51.58 202.54 49.22 201.97 46.5 200.65 45.62 199.76 45.26 198.85 48.14 198.64 48.53 198.07 48.98 195.29 49.29 194.3 50.16 194.07 50.77 196.21 53.41 197.5 56.48 197.68 57 197.14 57.02 196.1 56.67 193.9 56.18 192.97 54.39 193.35 51.73 193.13 50.88 192.49 52.06 191.44 51.46 190.59 49.25 192.15 47.25 192.75 46.31 192.78 45.31 191.88 46.1 190.55 44.44 188.2 44.12 187.37 44.69 185.52 45.45 185.68 46.19 187.01 46.8 186.81 47.44 185.69 49.48 183.66 50.18 183.39 51.52 184.47 52.69 184.98 55.04 185.17 56.36 184.82 56.41 184.14 55.32 183.5 51.38 182.3 50.87 181.12 51.4 179.7 51.35 178.42 52.34 176.3 53.39 175.5 54.21 175.59 55.14 176.83 57.12 178.49 58.2 178.85 58.9 178.46 58.62 177.77 57.08 176.05 55.81 174.27 55.62 173.46 57.05 172.89 57.66 174.62 60.93 176.56 63.33 176.92 66.18 176.43 66.59 175.92 65.53 174.07 61.71 171.32 61.14 170.64 60.7 169.12 61.69 168.24 62.39 168.97 64.13 169.92 64.89 169.6 65.64 168.68 64.32 167.56 64.54 166.86 65.56 166.3 65.35 165.53 64.31 165.24 64.39 164.15 68.41 162.68 68.59 162.04 66.11 161.92 64.1 161.21 64.04 160.4 65.33 159.54 66.22 160.09 66.86 159.87 67.1 157.26 63.49 153.86 63.32 153.42 64.27 152.08 64.06 150.41 64.73 146.18 64.39 144.71 63.87 143.62 64.89 143.68 65.99 142.93 67.38 142.47 67.62 141.73 65.82 141.84 64.87 141.35 65.31 140.6 66.55 141.09 67.06 140.44 65.92 139.59 65.86 138.96 67.06 138.46 65.87 137.74 65.66 135.02 65.34 133.71 66.45 131.7 68.21 132.45 70.76 133.07 72.35 134.3 73.85 135.09 75.29 135.45 77.54 134.99 76.05 132.59 73.79 130.57 75.52 127.58 74.66 124.65 72.69 124.59 70.69 124.95 70.23 124.29 69.98 122.59 71.07 121.69 74.75 122.59 77.27 122.58 78.38 121.39 77.87 120.25 74.79 119.97 73.48 119.37 73.93 118.32 78.91 118.07 80.9 118.57 80.07 117.15 79.93 116.29 81.49 114.87 81.63 114.46 78.11 109.38 80.03 109.57 80.61 108.6 80.09 107.7 77.57 108.32 77.51 107.64 79.76 105.5 80.97 105.35 82.53 107.49 84.89 108.15 85.26 106.62 87.83 106.55 90.87 103.56 91.85 101.77 92.48 101.2 93.57 101.04 97.37 101.55 97.14 102.63 97.74 102.85 100.17 102.6 100.16 101.66 99.31 100.77 100.27 100.2 100.75 99.02 99.58 98.46 97.91 98.15 99.08 97.28 98.49 96.91 98.26 94.31 98.83 92.32 98.52 91.53 97.5 90.54 98.2 88.65 97.16 86.83 98.17 85.14 99.26 84.21 100.73 84.93 102.81 83.97 102.04 83.15 103.15 82.78 103.69 81.87 104.53 81.43 105.41 81.9 107.51 81.28 107.5 80.49 108.55 80.05 109.76 79.99 111.21 80.66 111.55 81.68 112.97 81.56 111.76 79.97 113.5 79.29 114.29 78.59 115.96 79.52 117.06 79.15 118.09 80.7 119.88 80.71 120.19 81.64 120.06 82.68 120.97 83.87 121.49 83.42 121.25 82.47 122.37 81.83 121.48 79.85 121.22 77.68 122.32 76.95 123.07 77.65 124.11 80.28 125.15 79.61 124.91 78.5 123.79 76.56 123.87 75.54 126.47 76.27 127.22 76.13 127.36 74.89 126.57 73.94 125.28 73.34 125.44 71.66 123.99 70.82 122.06 69.05 121.85 68.24 122.35 67.79 123.5 68.61 123.32 69.64 123.95 69.87 125.03 69.27 126.9 69.29 127.13 68.99 126.67 66.42 127.03 65.35 127.91 64.61 130.37 63.1 132.18 62.76 134.01 65.85 135.46 66.22 136.74 65.81 136.98 65.33 134.93 64.89 134.62 64.01 137.3 64.19 137.84 65.81 140.09 67.38 140.77 67.15 140.03 64.96 142.54 64.01 142.42 63.56 140.33 63.49 139.57 63.16 139.31 62.22 139.61 60.81 140.12 59.77 141.93 57.69 143.22 58.32 144.57 57.57 147.09 57.27 145.91 56.13 146.12 55.07 146.8 55.14 148.26 55.94 149.01 54.97 148.71 54.19 146.3 53.98 144.58 53.61 144.09 53.12 147.16 51.21 147.59 50.33 147.09 49.8 145.83 50.2 145.66 49.45 146.13 48.14 145.26 47.2 144.38 46.91 143.65 45.04 142.68 43.43 142.93 42.77 143.91 42.9 146.39 43.78 147.56 43.13 147.49 41.98 148.74 43.01 150.1 41.31 149.03 39.62 149.81 38.85 151.45 38.81 151.92 40.64 153.11 40.51 153.52 41.08 152.64 41.87 153.63 42.64 153.64 44.08 154.33 46.32 155.31 46.9 156.2 46.96 156.56 46.1 155.78 44.32 157.02 44.03 158.06 44.52 158.81 46.34 159.51 46.78 160.21 46.47 159.51 45.06 159.8 44.53 161.55 45.25 161.98 45.89 161.74 47.22 162.56 48.17 163.11 47.48 162.99 45.1 163.67 43.24 163.22 42.12 164.36 41.67 164.45 38.8 163.94 37.37 163.7 34.73 165.02 32.61 165.03 31.47 163.97 31.11 163.87 29.37 163.43 28.95 163.09 26.63 164.16 26.43 164.05 25.1 165.17 24 166.11 23.83 166.55 22.51 166.52 21.26 167.17 19.45 167.16 18.29 166 18.03 166.34 16.27 166.29 14.9 165.34 12.45 165.41 11.56 166.18 10.47 167.55 9.09 169.05 9.33 188.64 3.77 189.99 2.73 192.05 2.59 193.14 1 194.41 1.48 196.27 1.62 196.41 1.95 195.01 3.18 195.32 4.28 194.84 4.88 193.02 6.31 193.17 7.45 194.33 9.08 195.79 9.19 197.48 9.61 197.84 10.33 197.2 11.43 197.01 12.57 197.8 14.05 198.69 14.11 201.57 13.13 203.47 12.89 204.09 13.67 204.22 15.83 205.23 15.02 206.49 14.88 207.19 14.26 208.2 14.49 208.39 13.58 209.08 13.63 209.73 15.47 210.67 16.41 212.6 15.84 212.66 17.68 211.75 18.61 212.6 19.22 213.52 19.22 214.95 18.46 216.22 18.5 217.49 18.18 218.7 17.36 219.07 18.32 217.86 19.1 215.98 22.07 215.63 23.4 214.56 23.19 212.79 23.64 211.33 24.46 211.2 26.31 210.83 27.13 211.22 29.28 211.55 29.89 213.31 31.14 212.88 31.86 212.92 33.02 213.63 33.37 215.08 34.71 215.33 33.85 216.94 33.02 218.44 31.96 218.77 31.22 218.78 29.79 218.37 29.1 220.29 27.59 222.47 28.06 223.41 30.02 224.84 30.47 226.44 30.17 227.87 30.52 229.18 30.16 231.03 30.17 232.56 29.35 232.98 28.68 232.84 27.61 232.19 26.53 230.39 25.85 228.51 24.04 228.88 23.49 230.33 24.6 231.16 24.89 233.44 24.63 234.55 25.17 236.82 25.37 238.11 24.91 238.77 26.01 240.27 27.1 242.56 26.99 243.26 27.94 244.81 29.04 245.92 30.13 247.46 30.72 248.99 32.24 249.75 33.45 250.61 33.3 251.72 32.42 252.31 32.52 253.01 33.6 255.16 33.42 255.85 34.06 256.71 34.08 258.46 33.33 260.35 33.12 260.7 33.32 260.98 34.91 261.39 35.59 264.93 37.29 267.06 37.25 268.22 38.15 269.6 38.5 270.82 38.17 271.93 38.53 273.48 38.05 274.43 38.27 275.85 39.34 278.02 36.87 278.87 36.7 280.29 37.35 281.01 39 282.13 39.43 286.06 38.82 287.17 39.11 287.42 39.58 290.16 39.86 290.35 38.05 290.68 37.6 293.14 36.8 293.1 36.25 291.15 35.12 290.37 33.85 294.3 33.9 295.86 33.44 298.24 32.01 299.38 31.81 300.61 30.72 303.77 30.35 304.9 29.9 305.92 28.79 307 28.59 307.74 28.88 307.48 29.9 305.55 30.9 302.87 31.33 301.51 31.83 300.88 32.91 300.37 34.92 298.44 36.37 296.43 36.64 295.82 37.54 295.12 40 295.33 41.39 292.81 41.78 292.15 43.03 292.44 44.59 291.25 46.55 291.66 48.81 291.27 50.14 290.17 51.02 289.06 52.29 287.89 50.43 287.14 48.75 285.46 48.3 283.3 47.45 283.39 46.1 282.05 45.8 279.31 46.9 278.43 46.37 277.37 49.54 277.69 50.96 278.59 51.9 279.17 53.81 281.83 56.26 281.22 58.54 282.3 60.63 281.1 60.47 279.89 60.7 279.17 62.43 277.9 64.17 277.02 65.99 278.27 66.18 276.56 67.32 275.21 68.7 274.89 69.5 275.07 71.48 276.46 72.46 280.48 72.65 280.07 73.26 278.67 73.1 276.01 73.14 275.01 73.43 273.35 73.08 271.28 71.75 268.55 71.02 265.85 70.89 264.77 71.32 262.55 71.16 261.51 69.68 261.52 69.14 262.52 67.91 260.52 67.07 258.55 66.92 257.67 65.49 256.42 65.17 254.92 62.96 254.19 60.78 253.35 60.75 252.31 60.12 251.54 58.97 249.68 57.83 249.32 56.9 246.61 56.81 245.32 57.1 244.5 57.63 244.78 58.65 245.01 61.86 246.6 61.6 247.23 61.92 247.42 62.91 248 63.61 248.99 65.93 249.69 69.93 249.43 71 248.42 72.37 247.21 75.12 245.98 76.1 244.8 77.85 244.43 79.05 244.56 80.59 244.95 81.32 246.54 81.16 248.73 81.54 249.2 82.75 250.9 85.53 253.35 86.51 254.65 88.28 254.7 90.2 255.22 91.05 256.23 91.71 257.51 92.04 258.47 91.41 259.56 91.27 260.59 93.49 261.84 93.99 264.72 93.7 265.84 92.43 265.99 90.57 266.88 91.21 266.89 92.78 268.07 94.03 269.27 94.62 269.15 95.22 267.65 95.75 267.1 96.37 266.9 97.53 267.13 99.09 268.65 100.33 268.98 100.94 268.36 102.5 267.88 104.48 267.89 105.46 269.01 105.96 269.52 107.09 270.34 107.21 270.83 108.03 269.68 108.87 268.76 109.18 267.92 110.94 268 112.31 269.56 113.35 271.87 113.48 270.87 116.12 270.19 116.8 268.41 117.76 267.98 118.76 266.81 119.27 267.18 120.8 266.67 121.49 265.42 121.63 264.85 122.41 265.75 122.85 266.97 124.41 267.61 124.85 269.92 125.19 271.9 125.23 272.33 126.44 274.87 126.65 277.01 127.94 278.58 128.68 279.09 128.5 279.83 127.08 281.25 126.65 280.55 125.73 281.45 124.58 283.99 124.74 285.18 124.44 287.7 125.25 288.52 127.04 288.54 128.04 287.39 128.61 287.7 129.58 287.31 130.25 288.58 130.68 288.91 131.28 290.3 132.16 292.84 132.14 292.49 133.13 294.64 133.08 296.2 134.57 297.59 135.48 297.86 136.07 297.3 137.03 297.8 138.36 297.76 140.72 298.08 143.94 298.72 144.94 300.79 146.62 302.04 147.91 304.62 148.91 305.42 149.38 305.5 150.04 304.01 151.86 301.9 153.88 299.78 156.68 298.77 157.7 296.64 156.95 295.68 157.09 294.66 158.2 294.34 159.84 294.98 160.95 293.78 161.84 293.33 162.63 296.2 163.59 296.47 164.88 294.72 165.76 294.11 166.41 291.82 167.91 291.47 168.49 294.25 168.28 295.15 168.72 296.42 168.49 297.11 170.91 298.71 172.41 300.1 173.08 301.35 172.91 302.19 171.34 302.05 169.72 302.58 168.65 304.49 168.97 305.71 168.85 307.72 169.07 310.08 168.48 311.41 168.83 311.67 169.82 311.1 170.46 310.77 172.32 310.65 175.21 311.72 175.67 312.75 177.04 314.34 178.15 316.04 179.09 317.38 180.25 319.08 180.99 321.24 184.36 322.28 184.94 323.01 186.13 324.37 187.51 326.65 189.38 326.73 190.92 327.37 191.61 327.84 193.18 329.39 195.7 330.88 196.56 332.17 196.52 333.51 195.75 334.49 194.56 335.28 194.33 339.57 196.33 339.8 197.31 340.88 198.67 342.75 200.04 343.71 202.68 343.86 204.02 344.26 204.5 345.68 204.8 347.08 204.08 348.59 204.16 350.36 204.82 352.51 204.53 353.47 204.67 354.64 203.77 356.34 203.61 357.05 203.98 358.3 203.63 359.18 202.54 359.2 201.24 358.41 200.56 354.57 199.54 351.15 199.11 350.02 198.03 349.74 195.59 348.58 194.67 347.94 192.84 346.99 191.39 344.07 188.49 342.31 185.11 341.41 183.61 341.02 182.31 341.51 181.73 342.61 181.58 343.57 181.03 343.86 178.96 344.75 179.33 345.77 180.34 346.77 180.9 347.12 181.79 348.46 181.78 350.66 181.17 353.31 181.62 355.09 183.2 355.79 183.53 357.42 183.69 358.71 184.26 359.82 185.93 360.98 185.44 362.23 185.65 365.27 188.04 365.41 188.59 366.39 189.27 368.92 189.73 370.22 190.75 371.91 191.37 372.45 193.05 373.86 193.79 374.7 191.17 376.13 187.6 376.7 185.58 378.04 188.23 380.11 190.31 382.06 191.34 382.68 191.9 383.78 191.4 385.25 191.43 385.4 189.32 385.97 187.47 386.8 186.54 388.1 185.83 387.15 184.59 387.34 183.93 388.98 182.19 390.72 181.3 393.56 181.89 395.63 183.2 399 184.28 399.69 184.03 400.66 182.74 400.43 181.61 398.82 179.09 397.82 176.62 396.28 175.17 399.04 174.94 Z"/>
</g>
</svg>