<?xml version="1.0"?>
<svg xmlns="http://www.w3.org/2000/svg" version="1.2" baseProfile="tiny" width="800" height="561" viewBox="0 0 800 561" stroke-linecap="round" stroke-linejoin="round">
<g id="4211850">
<path d="M 769.96 287.47 767.76 288.9 768.02 291.63 766.63 295.21 767.62 300.05 768.07 306.66 766.43 312.52 763.9 316.22 760.15 319.77 756.18 321.91 755.4 322.93 754.04 329.48 752.17 334.94 749.04 340.28 745.38 345.18 743.77 348.61 743.84 350.66 746.06 357.01 742.79 360.7 740.05 362.05 737.17 364.43 734.24 368.06 732.81 370.84 730.15 374.43 727.63 378.87 722.02 378.88 718.48 377.77 714.34 379.39 712.27 378.96 703.41 380.97 699.6 383.9 696.8 383.84 695.6 385.04 690.99 385.81 682.94 390.74 678.85 391.07 676.33 394.13 675.7 398.2 673.93 399.89 673.52 402.03 667.77 404.53 665.6 404.49 663.69 406.36 665.1 410.65 665.4 417.17 664.62 418.87 665.12 421.09 664.55 427.09 664.95 431.24 666.5 437.94 665.86 439.6 665.27 444.89 666.54 446.36 668.19 450.01 669.74 450.73 670.61 453.61 669.55 455.1 670.4 459.66 673.96 463.04 674.15 465.19 676.71 467.15 677.54 470.3 680.39 472.53 680.99 477.19 683.67 479.83 683.53 484.61 682.75 486.56 682.6 496.08 680.62 497.42 680.12 503.9 678.32 505.08 678.89 508.83 677.31 512.02 672.9 513.67 667.21 515.02 666.14 514.46 663.13 516.49 657.41 516.17 655.07 517.63 651.84 516.59 650.84 514.5 646.39 510.62 642.29 510.33 633.04 511.68 624.48 511 620.45 511.2 617.75 512.7 613.05 517.17 610.71 520.25 608.69 523.93 607.63 527.14 605.93 529.62 604.46 536.1 603.77 545.21 603.01 547.21 603.93 549.28 602.47 551.84 599.76 553.98 593.45 550.92 590.09 547.99 586.75 545.88 584.37 543.72 582.53 539.15 583.44 535.59 585.57 532.01 587.2 531 590.07 527.45 596.89 524.34 599.39 522.42 600.75 519.5 600.57 518.07 598.01 513.56 592.57 507.34 589.89 501.35 588.74 494.52 589.28 489.08 588.77 487.01 585.7 484.25 578.34 481.25 573.45 479.93 567.9 480.18 563.43 481.64 559.82 483.66 551.61 489.35 543.16 493.87 539.57 494.76 535.79 494.52 529.32 493.48 521.41 493.63 506.52 497.17 501.99 497.68 496.5 497.82 492.04 497.47 480.62 496.02 475 494.07 471.74 492.35 471.25 491.14 470.05 483.4 470.79 473.92 470.11 471.45 472.22 468.2 474.28 463.66 473.37 458.96 471.51 456.94 463.33 453.15 458.28 450.2 454.19 448.7 450.81 448.6 441.96 452.12 437.75 455.28 437 457.94 437.57 460.93 439.92 468.31 440.66 472.5 439.89 478.45 438.12 480.64 434.25 481.55 427.46 480.98 418.8 478.37 411.64 475.09 402.1 471.39 398.77 470.81 396.09 471 390.99 472.65 388.18 474.04 386.7 475.67 384.69 484.69 384.28 489.45 385.1 492.77 389.08 499.14 394.91 504.6 397.36 507.61 404.5 519.17 404.82 520.48 403.63 527.99 400.64 532.73 393.02 538.43 384.29 541.9 380.85 542.53 376.65 542.65 371.15 540.96 361.2 534.59 355.56 531.34 352.65 530.07 343.71 527.36 341.39 526.34 336.41 522.49 334.11 519.18 332.13 511.72 328.14 504.64 324.61 500.84 322.56 499.44 317.53 497.15 313.88 495.98 308.55 495.38 292.05 494.73 284.43 495.13 280.21 496.41 277.39 498.73 276.87 500.45 277.19 504.6 278.41 509.71 278.96 515.4 278.62 517.78 275.94 526.33 275.75 528.5 277.25 531.74 280.09 534.49 280.19 537.52 277 542.33 274.23 547.55 270.3 551.96 262.18 557.67 259.52 559.24 255.93 560 252.96 559.3 248.37 557.23 242.95 553.95 237.54 551.15 230.92 547.01 223.57 541.76 221.85 538.77 221.23 536.18 220.14 526.41 218.93 511.71 221.16 504.6 223.82 498.51 227.92 490.18 230.11 484.35 233.01 477.75 234.35 469.02 234.11 463.58 232.93 460.08 231.28 457.81 227.89 455.62 224.63 454.47 220.04 453.99 215.1 455.64 206.91 460.68 204.36 462.64 196.97 465.77 192.09 466.36 189.52 466.07 183.79 464.37 180.37 463.73 175.54 463.79 172.69 464.45 168.66 466.98 166.46 469.98 163.1 473.33 158.89 476.21 149.69 485.45 148.35 487.43 146.05 489.14 142.91 489.86 133.5 485.54 129.92 481.68 127.34 477.17 119.13 473.68 115.67 471.04 112.61 473.19 110.89 472.81 106.54 469.42 103.06 467.28 99.19 465.93 95.26 465.27 90.82 465.31 89.67 466.12 87.09 470.93 83.02 475.41 80.78 479.93 78.56 485.75 76.76 488.41 74.68 490.05 70.92 490.31 69.57 489.33 68.02 486.2 65.32 483.71 59.8 480.76 55.7 480.32 50.17 483.06 46.03 483.1 39.4 480.2 31.67 474 27 468.72 23.88 464.39 18.21 459.15 15.66 453.66 15.52 450.49 16.8 447.54 16.81 444.29 13.67 440.94 11.59 440.77 7.81 443.9 6.28 442 4.33 441.37 1 435.7 1.49 426.87 3.37 420.98 5.27 417.47 7.27 412.45 11.89 408.15 23.11 399.01 25.09 397.64 27.25 393.93 33.47 388.47 36.21 383.48 37.73 378.02 40.66 373.45 42.03 367.6 40.25 357.63 49.62 351.76 55.27 351.3 58.5 350.08 61.92 343.24 64.05 340.65 68.15 336.83 68.78 334.76 71.81 330.6 71.5 321.66 68.85 317.74 65.98 314.96 62.72 312.95 58.7 309.14 56.23 307.6 54.15 302.54 54.27 299.92 49.62 298.75 47.35 295.43 43.35 293.28 37.14 290.84 32.22 288.32 28.54 288.81 31.3 283.49 31.84 281.3 34.49 282.27 36.56 281.33 38.19 278.57 40.97 278.4 41.19 276.39 43.01 273.66 45.71 274.36 48.67 271.97 49.77 268.7 51.38 266.56 49.04 265.2 51.33 260.47 49.97 259.11 47.62 259.19 45.53 256.51 49.14 254.59 48.11 250.48 45.58 251.99 42.81 250.15 37.53 226.27 36.11 218.73 36.5 214.05 40.73 197.31 40.65 189.77 40.25 180.55 39.47 177.03 37.91 174.96 30.39 168.71 18.6 159.18 17.83 156.4 19.98 151.08 20.76 146.37 21 139.59 20.28 137.17 14.32 133.36 12.28 130.53 11.54 127.62 12.86 126.15 18.41 124.62 19.91 121.93 18.54 118.88 15.42 116.99 8.15 113.76 6.53 112.62 3.63 108.56 5.19 106.12 7.05 104.84 7.43 103.29 5.69 98.18 7.23 95.81 9.9 94.56 16.9 88.22 20.35 84.49 22.73 82.94 24.84 82.87 32.81 85.12 38.6 85.53 45.54 84.05 48.58 81.26 49.75 77.37 55.25 74.33 58.43 74.47 62.24 75.93 67.86 76.14 72.59 74.68 75.87 74.51 77.37 75.11 77.81 77.68 80.38 82.4 78.33 85.04 80.73 89.09 83.61 92.16 87.23 93.28 94.62 90.07 96.75 88.06 98.49 84.78 100.44 83.03 102.93 82.53 105.32 83.15 106.86 84.53 107.24 86.76 108.62 87.55 118.99 91.37 125.49 95.3 131.46 96.83 135.34 95.94 139.59 92.99 145.35 90.72 149.82 89.8 150.91 88.77 151.49 84.17 153.92 81.13 157.67 81.29 275.27 37.95 372.35 1 485.68 133.86 571.49 155.34 575.13 153.07 577.77 152.76 581.04 149.35 582.42 146.31 582.51 143.91 585.29 141.23 589.3 141.73 591.09 139.93 594.42 138.67 597.3 139.85 599.13 141.85 600.64 141.45 601.22 139.51 605.45 136.26 608.48 134.7 610.79 134.43 618.7 131.07 620.08 128.94 623.5 128.11 624.88 126.8 631.79 127.07 637.38 123.25 644.25 115.47 644.15 110.88 642.43 108.49 637.53 103.73 636.92 98.47 632.11 99.76 630.39 98.39 627.25 92.9 638.38 95.75 643.99 95.2 646.63 94.16 649.63 95.58 660.24 93.19 664.27 91.87 675.9 86.65 684.41 83.45 688.83 82.61 697.1 81.94 706.78 80.57 711.48 80.87 716.98 83.18 724.56 90.01 732.84 95.82 736.44 100.05 740.55 102.93 745.38 104.29 751.34 103.71 755.12 102.24 757.15 102.16 761.03 103.16 763.98 104.83 766.57 107.15 770.27 112.94 772.19 119.96 776.25 127.74 777.92 130.41 781.4 133.95 789.48 139.67 792.35 143.5 793.38 148.16 793.33 150.17 791.79 153.75 787.68 157.05 779.13 158.86 773.47 160.34 769.58 162.82 767.46 167.16 768.44 175.08 771.99 183.55 773.69 189.16 774.36 193.61 774.09 197.78 772.22 204.38 766.34 217.78 767.14 223.51 770.93 227.11 777.94 230.25 782.78 231.49 788.72 233.47 796.23 234.26 799 237.81 797.39 241.78 797.24 248.9 793.76 255.31 791.15 257.71 789.91 260.84 785.91 261.85 784.49 268.71 783.5 271.21 780.44 276.78 777.27 281.1 769.96 287.47 Z"/>
</g>
</svg>