<?xml version="1.0"?>
<svg xmlns="http://www.w3.org/2000/svg" version="1.2" baseProfile="tiny" width="800" height="861" viewBox="0 0 800 861" stroke-linecap="round" stroke-linejoin="round">
<g id="4211801">
<path d="M 367.9 1.42 368.76 9.47 369.94 12.36 369.94 15.48 371.18 17.42 376.26 17.22 377.75 17.75 381.17 20.97 387.19 20.5 390 21.3 398 24.97 399.29 27.18 402.41 30.1 406.12 35.3 407.07 38.93 408.75 41.74 409.96 45.37 410.06 52.87 415.01 61.7 417.4 63.97 420.84 65.71 423.37 68.53 429.69 68.96 434.82 71.47 433.96 74.4 439.73 75.87 445.8 83.36 450.79 82.28 456.99 85.01 460.07 87.57 462.8 88.73 467.38 88.5 472.52 86.49 481.03 86.81 486.5 88.62 490.72 88.73 491.74 86.84 496.41 85.92 498.42 84.86 501.98 85.65 520.82 113.99 503.39 122.99 530.13 153.11 525.94 155.68 525.46 172.11 543.54 156.06 543.15 144.03 567.36 172.05 573.11 167.91 608.61 195.37 597.72 220.27 561.53 219.1 559.32 222.71 558.99 226.47 555.36 231.5 550.32 234.06 549.83 238.92 543.79 242.44 541.67 241.98 538.63 243.14 602.53 362.76 632.93 335.44 776.04 407.15 776.11 410.08 778.02 417.37 776.39 420.01 769.3 422.27 766.38 422.64 762.55 427.69 761.96 433.45 762.69 435.13 760.45 437.32 757.59 442.64 756.04 444.23 755.72 452.55 754.26 461.1 755.01 467.22 754.97 470.85 756.79 475.37 755.19 477.39 747.83 480.26 746.52 482.68 747.89 486.33 754.12 489 756.43 491.82 756.33 498.47 756.74 504.4 757.73 506.59 760.52 508 764.29 511.61 772.05 513.97 774.16 516.99 774.96 520.68 777 522.83 780.69 523.59 781.74 526.32 781.99 532.34 784.53 533.09 783.19 546.38 782.14 551.97 778.81 562.6 773.21 577.11 772.53 581.55 770.86 584.59 760.42 597.57 751.76 606.4 745.7 611.94 728.72 626.49 724.84 630.33 715.58 641.76 713.12 646.47 708.5 657.47 707.29 663.05 707.4 667.28 708.66 671.44 710.52 674.26 713.92 677.01 718.41 678.96 723.11 679.82 732.54 679.22 736.03 678.51 741.08 676.55 748.51 672.17 756.74 666.58 760.18 664.81 764.34 663.98 771.93 664.44 777.05 665.98 786.3 670.09 789.83 672.74 794.33 677.48 798.15 684.43 798.99 686.99 799 691.23 797.58 694.92 794.38 699.15 790.84 702.77 788.94 703.58 780.66 702.29 775.74 701.14 772.29 701.48 768.67 700.88 760.78 698.43 756.67 697.83 752.26 697.99 747.59 699.81 739.69 706.23 732.46 711.42 719.38 720 707.13 729.05 700.31 732.56 691.36 737.64 684.4 742.47 678.91 747.63 676.92 750.61 675 755.78 672.79 764.77 671.13 768.99 668.49 772.93 665.18 776.48 660.48 780.15 654.98 782.41 647.43 784.09 642.92 783.3 638.25 780.08 635.83 777.66 631.59 772.28 626.48 766.83 622.7 761.57 620.65 757.4 610.09 752.4 598.64 747.88 596.68 747.71 591.15 751.75 578.24 764.6 574.4 767.99 570.12 771.05 563.95 774.7 558.09 776.38 550.82 777.49 542.68 777.19 535.55 775.91 529.89 773.26 523.34 765.56 515.75 757.9 512.38 752.61 508.43 747.4 504.29 739.04 501.55 734.34 498.92 731.16 491.99 726.37 483.6 722.85 472.56 720.65 468.48 719.46 463.42 719.73 457.48 721.72 451.3 729.01 445.57 733.07 440.86 737.06 432.85 745.74 431.55 747.96 431.13 751.9 432.4 757.2 438.14 765.18 440.41 770.84 441.29 775.89 441.49 781.93 441.03 787.79 439.99 791.8 436.53 797.87 430.81 806.07 425.29 812.14 422.49 813.99 416.22 816.13 410.03 816.74 405.6 816.56 400.89 815.55 397.38 813.89 395.39 812.18 395.41 807.79 389.96 800.11 385.43 797.05 376.83 788.46 373.72 786.03 369.01 783.42 363.18 781.07 358.54 780.37 355.58 780.83 352.81 782.23 351.28 784.31 349.99 787.92 350.13 792.29 353.06 800.48 355.78 804.49 358.54 806.53 362.94 807.67 365.1 809.16 366.69 816.11 367.34 823.25 366.46 826.17 363.34 829.82 362 833.79 360.3 836.8 355.46 843.71 351.77 850.9 349.94 852.92 345.48 856.03 340.83 858.29 337.16 859.33 330.25 859.86 321.44 860 307.18 858.61 286.9 858.65 273.05 858.09 264.61 857.13 255.06 855.24 247.65 852.9 242.05 850.39 231.61 844.81 220.66 838.64 213.17 834.08 208.77 830.82 194.5 819.28 187.42 814.37 181.83 811.38 163.34 803 165.18 795.12 167 791.41 167.32 786.88 161.34 779.64 159.66 775.14 156.55 774.41 155.05 777.19 150.25 781.15 144.21 787.77 142.52 787.69 138.59 785.12 134.36 779.62 130.01 776.86 127.95 773.31 126.93 768.82 125.06 766.47 126.31 763.52 128.3 762.28 135.2 759.38 136.77 757.53 135.46 750.82 133.84 746.81 135.84 740.25 131.04 734.67 127.24 730.93 129.59 729.52 134.97 731.08 139.96 729.74 142.41 729.73 151.93 735.78 153.68 737.53 159.81 737.96 166.18 736.04 169.65 734.04 171.88 730.52 171.02 728.48 166.92 721.95 162.19 718.35 160.16 718 158.17 716.24 157.79 712.9 160.35 710.1 162.43 705.45 158.87 700.36 151.4 694.65 145.26 688.79 138.65 684.66 137.14 682.69 134.25 681.1 129.64 679.67 125.27 681.63 117.26 683.31 116.23 677.75 117.29 675.21 116.07 671.6 116.1 666.26 112.93 662.03 113.32 660.38 115.78 657.15 113.52 655.01 108.12 653.07 102.92 648.65 103.47 645 107.48 640.02 110.3 638.02 109.69 635.94 105.57 631.7 99.63 630.63 97.99 628.79 92.99 626.04 85.82 625.95 83.16 620.38 81.28 618.1 80.08 612.95 78.02 610.48 73.97 607.55 71.83 604.43 65.32 602.67 62.64 601.29 56.19 599.2 55.55 595.79 53.79 593.52 45.16 592.26 37.69 589.5 34.97 586 25.28 576 21.26 574.06 20.89 571.85 23.49 566.37 27.14 561.76 29.55 554.7 30.81 552.99 35.12 550.66 36.35 549.15 38.59 543.34 38.15 540.35 41.1 534.39 40.1 529.89 35.56 523.97 34.53 518.96 31.34 516.53 30.65 514.83 30.76 510.02 36.4 506.52 39.17 502.59 39.67 500.52 43.44 498.87 46.3 496.14 48.87 492.16 54.17 482.18 56.97 480.1 64.51 475.6 65.15 474.44 62.32 471.61 57.87 468.45 52.56 462.17 47.06 456.91 40.15 452.39 41.65 446.65 41.42 443.53 39 437.14 36.32 434.89 34.83 431.94 30.21 428.62 23.28 422.07 18.97 420.57 15.31 412.75 17.12 409.87 17.07 404.96 15.67 400 16.8 394.37 12.58 387.06 8.9 378.65 5.3 366.97 3.94 360.48 1 355.13 2.94 352.99 6.96 343.74 13.03 334.08 15.09 330.15 16.95 329.38 20.79 329.35 28.58 331.16 32.72 332.46 35.09 336.35 36.94 344 39.69 346.45 42.28 345.22 44.59 341.4 47.17 341.91 48.42 345.1 50.93 345.74 58.51 342.32 60.76 340.39 62.96 337.11 63.12 332.66 62.11 330.86 59.14 328.49 58.65 327.04 61.04 324.66 64.04 319.8 66.33 319.01 71.41 319.68 75.25 317.66 77.24 314.13 82.09 311.49 86.55 310.17 89.94 308.44 93.34 305.8 91.95 303.23 84.79 301.18 84.54 299.15 86.39 297.18 90.41 294.58 95.76 289.72 98.92 287.65 101.43 287.05 107.22 288.71 113.33 289.22 118.74 292.71 120.78 292.77 120.71 285.99 121.14 284.46 127.77 277.44 131.37 269.92 133.14 267.65 135.67 266.11 140.7 264.99 141.51 261.74 145.25 260.13 145.14 259.04 140.18 258.73 137.78 257.52 137 255.11 141.44 252.12 139.1 247.21 138.07 242.48 139.66 241.16 144.27 239.91 148.06 236.33 149.45 232.3 153.37 229.89 153.84 225.33 155.97 221.51 158.54 220.78 158.16 217.06 158.78 213.02 160.5 211.97 169.3 212.49 172.13 211.7 180.19 206.2 186.23 196.97 187.71 192.46 184.97 187.05 184.77 182.16 186.24 179.14 189.53 176.74 195.5 173.51 198.77 173.89 201.58 169.39 208.16 160.99 209.34 159.02 194.18 127.36 186.46 109.72 191.48 108.93 194.9 107.13 197.81 104.05 200.63 102.72 205.52 102.04 212.84 99.63 218.15 99.2 222.02 98.16 224.07 96.18 224.51 92.68 223.68 87.1 221.66 84.77 220.14 78.44 221.07 76.35 225.92 73.79 228.6 73.19 230.77 69.6 239.63 67.1 245.74 64.28 251.2 59.63 256.18 58.44 261.26 59.76 265.04 58.62 266.92 55.72 267.14 52.15 268.95 49.53 272.36 47.05 277.47 44.18 284.24 39.72 290.06 38.67 295.01 37.23 301.13 33.92 305.12 33.2 306.55 30.18 310.46 28.73 311.5 27.58 313.64 22.17 315.79 19.06 315.2 12.67 316.03 9.64 318.15 7.84 328.61 1.06 331.39 1 334.74 3.41 341.01 4.89 346.63 4.64 356.16 6.09 362.88 4.23 367.9 1.42 Z"/>
</g>
</svg>