<?xml version="1.0"?>
<svg xmlns="http://www.w3.org/2000/svg" version="1.2" baseProfile="tiny" width="800" height="420" viewBox="0 0 800 420" stroke-linecap="round" stroke-linejoin="round">
<g id="4211207">
<path d="M 769.24 225.41 778.39 229.63 780.83 230.32 790.09 234.18 795.39 236.97 797.28 238.99 798.6 241.85 799 245.22 798.66 249.45 798.6 259.28 798.73 282.07 798.29 293.68 797.31 302.19 797.28 305.28 795.49 318.05 792.83 343.77 792.12 351.57 791.27 356.14 791.45 365.65 792.7 386.08 793.34 399.44 793.73 412.99 790.25 410.71 786.36 409.51 777.44 408.94 773.24 409.6 768.86 411.14 761.59 414.96 755 419 746.11 413.7 737.71 405.79 734.73 406.88 726.95 410.92 724.49 411.7 719.47 411.98 713.94 409.88 711.56 407.69 695.53 388.43 691.31 384.91 686.77 382.6 678.29 378.91 651.82 365.65 642.39 360.84 636.3 354.71 633.96 353.48 629.81 352.41 625.4 352.79 623.88 353.53 620.68 353.1 599.68 355.63 583.89 355.23 578.79 354.78 572.49 356.41 566.59 359.29 562.65 362.49 557.15 365.85 550.51 368.15 534.79 370.01 529.5 371.38 526.82 373.06 521.46 378.18 517.61 379.75 513.43 380.26 509.86 379.83 506.03 378.06 503.01 375.19 500.63 370.08 495.96 360.5 491.76 355.79 486.59 353.35 474.56 350.92 469.8 348.93 467.25 346.05 465.52 338.54 463.08 336.43 461.18 336.29 457.91 334.16 456.43 330.62 453.92 327.82 449.96 324.45 438.53 313.65 435.19 309.44 433.3 308.85 424.17 308.26 420.79 307.25 419.4 305.74 412.11 296.19 410.97 291.7 410.88 286.72 409.96 284.58 407.4 282.72 403.34 283.01 401.99 280.36 396.09 276.51 394.37 272.05 390.55 272.16 387.2 270.77 384.77 268.89 381.66 268.8 376.33 270.35 368.54 267.88 368.19 266.69 365.4 265.8 362.77 266.1 361.7 264.83 355.3 263.04 354.1 261.66 353.61 258.16 351.25 257.78 347.04 258.89 342.18 256.21 339.37 255.43 339.01 253.24 335.16 251.48 332.86 251.42 333.31 249.2 332.81 246.11 330.75 245.6 328.84 246.91 323.66 247.45 321.23 246.37 321.11 244.92 317.2 242.48 308.37 233.66 308.66 229.53 307.26 228.97 307.61 225.69 309.42 221.63 308.3 219.83 304.69 216.22 302.77 216.21 299.29 213.99 296.61 213.22 283.39 213.08 276.84 216.52 274.79 216.57 274.01 218.15 265.2 217.55 264.57 219.32 262.07 220.98 251.62 226.51 248.73 228.54 241.53 230.87 239.93 231.92 237.41 236.04 235.26 237.2 232.61 237.27 227.85 234.75 223.66 233.08 216.14 233.15 212.6 232.58 210.16 230.83 207.85 226.06 206.4 225.59 199.26 225.63 190.12 225.23 186 225.51 183.09 224.35 182.82 226.26 179.51 226.15 176.84 229.11 174.65 228.58 171.72 230.1 168.52 228.26 165.53 227.72 164.06 229.02 160.44 228.09 158.09 229.18 154.32 228.73 153.61 229.92 150.31 230.35 150.12 228.55 147.25 228.32 146.87 226.44 142.4 226.39 139.26 227.16 136.06 224.88 131.25 224.45 130.79 221.89 127.63 220.92 125.98 218.99 122.94 217.65 119.92 218.62 117.75 217.73 115.99 218.4 115.4 222.65 113.75 223.37 111.46 226.41 110.98 228.6 109.29 229.91 108.72 233.3 107.26 234.96 107.31 238.8 104.97 239.23 103.04 241.52 103.52 244.11 100.52 243.64 97.55 244.23 92.83 242.43 87.27 242.84 82.68 244.61 82.11 241.56 80.12 238.8 77.84 232.81 75.55 231.11 75.32 229.2 68.4 230.22 62.45 230.17 60 231.36 56.51 231.56 53.03 232.85 52.42 233.91 47.01 233.07 45.13 229.38 41.51 224.21 38.83 222.63 33.29 220.67 29.38 220.75 21.45 221.69 9.51 221.11 5.81 219.87 1 219.58 1.17 205.18 4.98 207.55 11.39 208.58 16.15 208.22 21.61 208.67 24.15 208.25 29.18 204.99 33.48 205.57 41.31 205.39 44.85 204.88 47.7 205.24 50.37 203.41 54.14 202.01 57.98 202.54 64.31 198.91 72.72 198.37 79.73 197 92.16 195.67 96.15 195.73 97.44 194.34 100.96 192.78 102.22 187.49 104.21 187.27 104.97 184.88 106.81 183.9 111.42 180.04 110.04 178.96 109.26 175.28 110.69 173.94 111.19 171.26 110.09 170.09 109.72 166.78 112.51 165.3 113.15 162.07 117.4 158.44 117.61 157.01 119.87 154.06 122.42 153.96 124.99 152.73 134.03 151.13 136.75 151.81 149.1 151.72 152.12 152.5 155.32 154.41 156.74 157.75 159.56 159.81 164.16 161.92 168.41 161.15 174.28 158.73 178.13 159.49 178.88 162.01 182.37 162.01 185.44 161.2 187.49 162.88 190.34 160.53 190.45 158.43 191.78 155.19 197.03 154.86 197.55 151.99 199.87 150.14 203.76 151.4 205.89 150.78 206.56 147.68 209.26 143.96 212.63 140.67 215.05 137.21 217.24 136.22 231.83 139.29 232.68 140.33 235.65 139.71 236.32 141.86 237.99 143.32 241.3 142.42 243.95 143.63 248.42 142.94 252.76 141.42 257.33 140.59 258.63 137.83 261.27 137.29 263.95 135.43 266.38 135.29 269.35 136.98 270.75 139.26 274.17 138.91 276.38 139.52 281.38 138.53 285.43 140.89 287.19 140.81 291.29 139.26 303.03 129.21 311.03 122.05 313.2 118.38 317.77 103.65 347.43 86.61 356.05 82.44 359.38 79.54 361.48 78.93 369.46 74.21 375.55 71.03 380.26 67.26 382.5 64.85 384.16 61.88 394.69 47.53 400.11 42.53 406.11 39.22 409.17 38.08 426.65 29.32 430.42 27.16 438.55 23.51 445.85 19.6 453.73 16.08 457.19 15.6 463.5 16.4 468.54 18.89 472.24 18.81 475.52 16.69 493.16 6.13 501.56 2.51 504.85 1 508.4 2.02 521.11 2.76 528.82 4.49 535.01 9.39 539.67 10.25 542.3 11.44 545.22 18.98 546.1 23.87 550.53 26.88 547.63 34.93 555.54 42.05 558.84 42.99 561.45 46 565 47.86 567.35 46.85 568.78 48.78 572.95 49.6 576.01 51.07 577.43 50.23 579.93 51.52 581.4 48.64 583.56 49.35 587.15 48.85 588.25 55.6 590.25 65.64 593.85 67 594.81 68.05 599.72 70.61 600.51 72.8 602.54 74.76 607.78 72.64 612.62 76.13 613.45 77.96 619.2 82.16 618.39 83.83 623.19 86.02 628.58 86.34 629.58 90.1 635.43 97.18 639.87 98.32 643.59 103.26 646.21 105.76 649.46 106 654.64 108.7 658.59 107.6 665.68 108.48 671.73 108.37 675.76 111.69 676.82 114.48 679.49 116.92 678.93 119.82 684.76 123.14 685.3 126.27 687.44 127.19 686.92 133.72 687.73 135.25 687.22 137.49 688.07 140.58 690.55 141.66 689.72 143.29 686.53 144.66 686.52 147.65 685.62 149.85 686.57 152.11 688.96 153.71 691.22 157.44 692.67 165.77 696.76 168.14 698.44 169.96 700.62 170.48 703.95 176.2 703.04 178.02 704.8 179.43 706.1 182.31 708.96 183.73 708.16 184.9 701.14 189 701.88 191.07 704.59 193.01 704.57 195.44 707.64 198.33 711.64 201.28 716.01 202.85 730.55 209.16 742.58 213.97 761.67 222.44 769.24 225.41 Z"/>
</g>
</svg>