<?xml version="1.0"?>
<svg xmlns="http://www.w3.org/2000/svg" version="1.2" baseProfile="tiny" width="800" height="1415" viewBox="0 0 800 1415" stroke-linecap="round" stroke-linejoin="round">
<g id="4211900">
<path d="M 664.52 255.41 662.03 269.52 660.25 287.09 659.37 308.08 666.48 336.23 671.52 352.57 676 369.06 678.37 374.83 679.86 381.4 681.79 396.68 683.58 409.27 688.09 436.62 688.34 468.13 687.92 475.84 686.73 482.1 681.06 493.35 673.91 504.23 669.32 510.35 669.95 518.84 670.63 523.21 673.48 531.65 676.77 547.13 679.24 565.24 682.69 588.01 684.91 594.48 688.6 601.32 694.43 611.31 703.39 622.18 714.61 634.99 722.47 642.95 730.69 652.05 731.65 655.62 731.2 662.13 727.62 667.25 720.67 673.87 711.94 680.4 700.99 693.26 688.54 705.56 685.66 709.19 684 714 684.25 719.04 686.75 724.84 692.68 732.3 697.21 743.11 696.98 746.43 692.73 754.74 685.34 761.77 682.03 765.82 676.94 769.62 673.46 772.73 670.01 777.18 668.46 780.66 667.64 790.63 668.67 796.86 672.96 803.95 679.28 808.89 691.54 815.31 705.77 822.42 712.36 826.02 714.99 831.69 715.16 839.38 713.18 849.91 710.93 855.13 709.27 860.33 708.96 866.31 707.49 873.78 706.64 882.09 706.61 887.53 707.55 896.68 709.41 907 711.61 912.68 715.46 920.04 720.83 928.71 722.91 931.01 728.15 934.11 732.68 938.01 738.06 940.44 741.68 943.56 747.53 947.18 752.41 953.74 760.27 961.17 765.32 969.04 771.38 976.83 777.5 986.15 779.26 992.23 781.47 998.3 782.57 1014.48 781.25 1028.38 781.18 1058.39 782.23 1065.81 783.84 1071.55 784.26 1076.85 783.11 1081.37 785 1083.23 785.18 1087.95 783.02 1088.62 782.79 1094.87 783.19 1096.92 781.38 1099.9 781.74 1104.39 778.66 1108.79 777.67 1113.12 775.93 1115.9 769.2 1122.7 764.13 1122.34 765.64 1112.75 765.28 1110.49 766 1106.75 765.27 1103.62 762.43 1101.98 758.59 1100.73 749.48 1098.6 746.07 1098.16 735.54 1098.37 729.99 1099.06 723.12 1100.74 714.19 1103.67 707.87 1106.33 702.6 1109.54 697.95 1111.29 695.86 1112.82 693.54 1116.17 685.89 1123.4 683.25 1126.46 680.41 1131.96 678.64 1134.11 676.25 1140.41 672.64 1147.77 669.73 1160.03 667.44 1175.68 667.72 1181.77 667.3 1188.87 669.24 1205.38 672.11 1218.39 676.54 1230.62 679.68 1237.22 685.35 1246.51 693.81 1255.97 698.36 1260.01 702.86 1263.34 708.76 1266.4 714.37 1267.93 719.72 1268.18 724.51 1266.42 728.16 1263.25 729.07 1261.29 727.63 1256.97 728.19 1253.78 729.39 1252.32 733.12 1251.3 736 1251.6 741.2 1250.82 745.76 1254.03 756.9 1258.61 760.24 1259.38 769.86 1260.42 773.18 1260.43 776.68 1255.31 776.71 1248.85 779.99 1245.42 780.76 1242.59 784.41 1238.7 787.32 1236.44 789.33 1233.53 790.48 1234.04 788.67 1237.32 790.01 1239.59 787.15 1241.89 784 1246.77 786.1 1249.98 788.49 1255.62 788.75 1259.29 787.25 1262 787.04 1264.89 788.88 1265.42 790.2 1263.82 794.69 1264.49 796.8 1268.39 799 1270.97 796.95 1273.17 797 1276.09 795.56 1277.07 795.73 1280.2 793.6 1280.69 793.71 1283.77 792.6 1289.96 789.15 1301.18 783.09 1306.94 778.57 1308.59 777.33 1309.77 772.62 1311.15 770.37 1314.94 767.31 1316.08 761.87 1324.21 760.36 1330.02 757.75 1336.07 758.12 1340.53 759.7 1342.6 762.45 1341.93 762.57 1348.69 760.88 1349.3 758.35 1351.95 758.02 1356.06 760.09 1359.2 757.13 1361.71 756.34 1366.63 753.62 1367.33 752.22 1364.87 752.28 1359.93 744.46 1354.78 740.68 1355.89 737.23 1355.59 735.68 1356.28 729.67 1356.16 715.99 1360.67 701.42 1369.65 695.95 1372.3 692.03 1374.86 686.93 1380.45 680.36 1388.76 672.99 1395.25 667.31 1401.07 657.71 1407.21 645.12 1413.53 636.94 1414 633.69 1413.46 627.63 1408.95 616.87 1406.3 614.3 1404.94 611.65 1401.7 609.24 1401.74 608.38 1403.87 608.3 1407.23 607.35 1409.45 604.97 1409.63 602.81 1407.67 602.67 1404.78 603.32 1398.75 601.65 1396.39 596.83 1395.5 588.39 1398.4 579.87 1398.26 574.03 1395.18 570.45 1391.13 569.67 1386.92 568.07 1384.74 562.83 1384.49 558.2 1387.66 555.76 1388.64 550.65 1389.4 541.65 1389.14 536.21 1389.47 528.6 1390.94 524.38 1392.96 523.47 1400.42 521.25 1403.45 517.08 1405.02 513.87 1405.04 507.66 1403.32 502.93 1400.1 501.7 1397.98 501.61 1395.36 504 1392.4 506.64 1390.76 506.23 1388.62 501.73 1386.84 497.94 1384.19 494.93 1380.04 493.37 1376.42 492.68 1371.64 492.86 1361.37 490.7 1359.56 487.98 1359.68 484.06 1362.73 482.71 1366.14 483.08 1369.78 486.27 1372.85 487.09 1375.18 486.49 1377.71 481.38 1381.45 473.35 1384.52 465.01 1389.37 460.89 1390.63 458.49 1389.48 458.32 1385.34 461.13 1381.19 463.81 1378.64 469.83 1374.87 473.96 1370.97 475.86 1368.29 477.31 1364.08 476.94 1361.84 475.21 1359.65 470.74 1358.78 467.71 1359.6 460.64 1364.95 458.27 1365.97 455.86 1364.66 457.19 1362.12 461.82 1359.96 462.65 1358.25 460.89 1350.14 459.07 1347.48 455.33 1346.61 444.41 1346.47 442.15 1344.86 441.35 1341.91 438.48 1342.25 432.99 1349.02 429.07 1356.6 425.83 1364 421.66 1375.79 420.24 1380.99 416.62 1383.03 410.84 1381.83 407.68 1382.16 402.83 1381.72 400 1382 394.22 1380.16 392.11 1376.84 389.19 1375.99 385.23 1375.87 381.01 1373.31 378.67 1372.89 371.53 1372.84 354.45 1371.38 345.33 1370.96 342.84 1370.49 320.59 1369.55 317.63 1369.11 307.47 1368.68 304.63 1367.94 301.89 1364.84 299.17 1362.83 296.96 1362.34 293.9 1363.22 289.12 1363.4 286.67 1362.73 282.82 1360.61 277.45 1359.39 273.17 1356.47 267.77 1351.09 266.39 1348.77 262.57 1346.02 259.12 1345.94 255.51 1347 250.88 1349.16 242.32 1351.88 238.87 1354.28 234.45 1353.84 225.93 1351.33 222.85 1348.36 218.19 1344.75 211.98 1341.48 207.47 1335.47 204.32 1329.03 202.5 1328.06 202.97 1326.12 207.69 1323.55 207.19 1320.65 203.21 1318.92 197.17 1318.87 191.5 1319.7 186.62 1319.87 179.79 1321.37 175.51 1321.68 172.2 1320.21 166.06 1320.55 160.42 1318.8 153.42 1317.1 149.96 1313.65 144.86 1314.34 142.96 1315.56 140 1319.35 137.81 1319.78 134.04 1318.88 131.67 1317.61 124.56 1317.15 119.43 1312.37 115.88 1311.36 111.89 1312.02 111.11 1307.49 113.59 1301.16 113.95 1297.75 111.01 1290.23 110.85 1288.28 111.96 1284.04 112.67 1277.99 110.76 1274.69 108.2 1273.75 101.47 1273.2 98.28 1270.04 94.61 1261.23 94.67 1251.98 93.82 1248.25 91.01 1245.45 89.84 1243.17 89.28 1235.82 87.88 1232.57 82.8 1226.68 82.57 1224.74 85.13 1219.17 85.53 1214.62 83.81 1209.29 80.01 1204.82 75.53 1201.71 73.01 1196.65 70.57 1193.73 66.37 1191.47 64.09 1185.54 59.08 1176.45 55.35 1173.61 50.34 1167.59 49.87 1164.4 51.26 1158.78 48.94 1154.82 49.05 1151.5 50.43 1147.55 48.83 1145.09 50.71 1139.42 49.77 1134.37 49.95 1131.72 51.18 1129.42 56.7 1126.01 58.8 1124.02 62.14 1118.25 61.86 1116.52 59.36 1115.23 58.66 1109.67 57.3 1105.78 55.06 1102.7 55.39 1101.32 58.28 1098.23 57.15 1092.77 52.87 1088.32 50.57 1084.29 51.37 1082.27 55.42 1078.23 52.53 1073.69 50.64 1072.69 49.92 1070.28 50.34 1067.89 49.05 1065.45 38.94 1058.23 34.82 1054.56 29.8 1048.07 27.78 1046.58 26.6 1044.17 26.82 1041.07 22.52 1038.71 19.37 1034.57 19.37 1029.67 17.91 1023.77 12.29 1019.88 9 1014.36 6.56 1012.4 4.1 1009 1 1006.53 2.61 1004.56 9.89 1005.73 12.48 1005.14 12.38 1001.94 15.71 999.6 16.52 997.39 19.14 996.86 26.52 996.91 31.84 996.47 32.75 995.29 30.81 989.46 30.66 982.14 29.44 978.04 27.96 975.77 21.99 970.18 21.11 966.92 18.94 963.19 14.93 959.78 14.2 957.83 15.29 955.55 18.12 953.71 20.18 946.51 23.38 941.96 29.1 936.24 35.3 930.72 36.45 928.89 37.72 921.11 37.98 916.97 39.57 909.72 41.75 903.86 42.25 899.6 44.3 893.55 45.3 885.33 45.02 881.2 45.88 874.97 46.89 870.72 40.96 866.24 39.84 862.04 40.76 858.59 43.58 857.91 44.37 855.47 43.35 851.62 39.18 844.15 48.46 836.6 51.21 835.34 52.47 832.67 52.55 825.91 52 823.23 53.57 819.7 57.34 820.8 60.49 820.4 62.22 816.79 64.11 816.79 70.08 819.14 73.54 821.9 76.14 821.58 79.6 819.22 81.25 816.86 85.73 814.35 91.2 813.3 92.79 811.8 98.64 810.16 102.51 806.39 104.88 802.14 109.76 801.17 112.67 798.37 116.63 796.34 118.47 792.47 119.48 787.2 122.14 784.06 124.37 783.19 126.3 780.48 131.14 780.67 132.97 779.27 132.63 775.79 136.31 774.82 140.66 769.75 144.29 771.34 148.69 767.86 150.83 765.49 153.47 767.33 155.6 766.27 164.01 763.71 168.8 764.77 171.8 764.24 177.02 764.67 182.8 765.98 185.55 764.87 188.04 760.66 190.68 759.82 197.06 760.59 201.49 759.89 204.02 756.33 204.83 751.13 207.49 747.17 212.91 743.85 215.02 740.78 218.82 740.3 223.43 737.71 224.97 733.34 235.73 733.26 242.93 731.48 248.35 729.3 251.34 729.14 255.46 726.95 262.83 725.9 269.38 728.16 273.1 727.11 275.45 724.53 281.03 721.21 282.4 717.09 284.91 712.72 287.38 712.33 291.3 709.73 293.65 705.52 302.3 704.23 305.38 702.37 313.47 700.1 316.67 697.06 319.67 696.19 323.29 693.94 326.53 692.91 332.97 689.9 335.33 687.09 326.58 688.17 318.23 690.02 315.24 691.2 308.37 692.93 303.15 692.34 299.61 687.67 298.14 682.93 295.5 679.28 291.89 675.84 287.23 673.93 285.43 672.14 282.41 665.82 282.72 660.68 275.95 657.11 271.12 652.87 268.9 651.76 264.9 651.02 263.6 649.13 263.94 642.5 262.62 638.17 260.96 630.11 259.76 627.34 258.78 622.07 253.17 621.5 253.61 618.06 251.87 614.17 248.19 611.39 248.31 607.82 247.08 603.67 244.07 601.08 244.02 599.36 245.91 595.76 243.73 589.43 243.93 587.24 239.88 580.79 239.13 572.79 239.89 565.62 241.51 564.07 241.53 561.96 237.52 558.79 236.37 554.03 237.86 550.56 235.86 546.06 230.26 540.57 230.28 535.6 229.42 533.98 226.72 532.63 225.03 529.74 223.03 528.21 217.7 525.73 216.68 524.24 217.38 521.33 219.51 505.53 218.07 502.06 212.31 500.46 205.93 494.64 205.49 493.14 207.44 487.28 207.64 483.04 208.71 481.25 212.13 479.43 213.23 477.37 209.67 473.89 211.23 462.34 212.87 456.41 213.68 451.54 209.12 449.99 208.63 447.06 208.63 441.54 206.23 431.61 203.36 427.77 202.19 424.78 200.42 423.69 194.08 423.99 192.47 422.88 192.46 420.48 196.19 415.2 196.15 413.73 193.15 408.09 188 402.62 182.64 399.91 177.47 395.3 173.37 393.35 170.53 392.63 166.48 390.24 164.71 388.44 158.54 385.87 156 382.93 152.12 381.88 149.28 383.14 144.79 384.03 136.74 383.47 131.15 380.86 120.96 377.79 112.23 376.37 113.3 374.86 112.18 372.2 114.54 365.99 113.15 364.72 115.44 361.72 118.35 361.89 125.3 355.82 129.28 349.95 130.88 345.09 131.14 335.41 127.07 331.67 122.47 329.93 118.19 330.72 111.69 334.52 106.62 335.71 101.31 335.08 95.45 331.83 91.56 330.4 85.46 330.64 80.72 329.94 46.38 230.68 22.71 162.26 26.57 159.62 29.6 155.98 29.13 149.16 29.76 147.03 28.67 136.51 22.53 133.22 23.73 130.48 23.27 128.2 24.61 123.1 22.81 119.74 24.52 116.45 26.54 114.74 26.9 110.66 28.89 104.35 31.55 101.63 28.39 98.14 27.55 94.72 28.91 88.63 30.36 85.36 32.17 85.32 34.6 75.48 37.83 73.27 37.5 68.7 38.86 66.88 38.29 60.68 35.06 55.56 36.36 50.68 39.8 46.67 43.55 43.76 44.18 40.18 46.02 39.76 46.19 36.95 194.51 22.21 270.64 29.83 285.83 36.82 290.45 37.72 302.63 37.75 308.49 39.53 311.96 40 316.92 41.71 321.18 44.33 331.12 49.47 351.28 60.28 353.57 49.78 360.85 44.99 364.76 24.65 368.82 5.11 369.17 1 388.1 9.98 392.42 12.74 397.42 19.08 402.74 28.22 404.94 32.49 409.71 39.98 418.16 54.15 425.91 66.74 429.35 70.57 438.7 77.79 447.65 80.91 465.63 88.53 475.07 95.45 479.46 100.61 482.43 114.11 483.76 119.03 482.76 124.3 483.69 126.72 493.22 135.67 494.5 139.88 494.57 143.47 490.36 150.23 485.61 159.86 483.1 167.83 482.24 172.83 482.33 177.17 495.1 192.8 502.58 200.49 507.3 204.31 514.23 208.75 519.65 211.48 529.45 217.52 538.29 220.19 552.81 226.24 562.64 229.98 576.21 236.91 588.74 241.03 599.92 243.23 621.24 247.85 625.64 248.21 645.22 251.34 656.98 253.53 664.52 255.41 Z"/>
</g>
</svg>