<?xml version="1.0"?>
<svg xmlns="http://www.w3.org/2000/svg" version="1.2" baseProfile="tiny" width="800" height="783" viewBox="0 0 800 783" stroke-linecap="round" stroke-linejoin="round">
<g id="4211652">
<path d="M 525.83 206.34 531.48 207.25 534.92 208.59 538.27 210.85 546.92 214.38 549.79 216.91 551.26 219.55 557.08 221.53 559.39 221.35 560.25 220.15 561.13 215.68 562 214.01 563.55 206.34 563.86 201.61 563.49 196.37 562.57 189.62 559.84 182.04 556.21 175.69 555.9 173.66 558.72 170.75 561.89 169.52 565.69 170.14 566.89 171.06 568.7 182.02 569.66 184.45 573.76 187.59 579.9 190.02 582.85 192.56 586.61 193.92 594.22 199.02 598.09 205.29 598.61 213.68 597.97 216.26 591.01 221.43 578.58 219.99 576.55 221.21 579.19 224.4 585.06 227.48 594.91 231.49 596.52 233.25 595.91 234.41 588.43 237.16 586.63 239.27 585.36 239.81 582.37 242.96 577.13 244.23 572.86 244.45 571.96 245.97 572.62 247.71 575.01 250.1 577.9 255.81 579.84 257.61 585.74 261.8 593.91 265.78 593.2 270 591.83 271.07 585.17 273.72 580.05 274.5 574.81 274.21 573.08 275.28 569.97 278.58 567.21 285.85 566.99 290.82 567.58 294.13 566.41 300.7 562.93 302.87 561.93 305.15 564.58 307.24 568.12 314.25 570.56 315.17 574.53 312.76 581.11 310.02 582.99 310.03 587.11 308 589.65 307.47 592.7 308.35 592.46 310.42 588.04 312.63 585.78 315.02 580.9 318.52 578.99 320.55 577.93 323.41 572.97 325.79 567.84 328.94 563.06 332.63 562.89 335.09 565.82 337.41 570.2 338.43 575.77 338.12 581.33 340.16 588.02 341.12 595.75 340.52 598.56 341.05 599.32 342.15 599 348.33 599.31 351.86 598.58 353.58 596.57 354.14 591.67 353.87 589.21 354.8 575.04 355.24 572.73 354.39 558.96 352.9 557 353.87 556.81 357.04 557.54 360.73 559.15 363.27 561 369.85 560.56 373.33 561.47 378.79 564.01 386.02 565.66 388.68 565.8 390.85 563.45 391.64 560.97 390.68 548.89 383.21 542.66 380.91 537.53 380.38 532.77 380.65 530.44 381.55 522.99 383.16 522.1 385.45 524.57 387.66 529.92 389.55 531.44 388.38 534.61 387.58 536 388.62 542.18 396.81 543.88 398.57 549.48 401.86 558.32 405.38 562.49 406.44 564.18 407.74 568.29 416.84 571.02 423.28 572.17 426.98 571.93 428.16 567.3 437.32 565.31 438.98 562.47 439 556.83 437.92 552.77 436.06 547.67 429.96 542.22 424.81 538.35 420.39 535.66 418.37 533.58 417.61 529.6 418.87 527.58 420.51 524.77 424.68 523.45 427.63 523.22 429.99 524.67 436.97 526.2 440.37 527.9 442.05 532.3 444.2 535.48 444.11 541.38 446.75 547.76 450.08 553.98 451.81 563.29 451.82 567.27 455.08 571.39 460.77 574.35 467.6 578.26 472.51 580.61 477.16 586.16 483.42 589.96 483.08 591.56 483.81 595.42 488.32 597.54 492.41 596.52 496.69 599.72 501.9 602.54 504.78 602.62 507.33 598.5 512.6 598.98 516.23 601.17 517.64 603.73 518.27 607.82 517.83 611.61 516.71 616.8 517.18 618.93 518.12 621.35 517.96 623.87 516.23 626.47 518 628.32 524.17 634.92 528.42 635.31 531.4 631.81 534.62 625.62 538.22 624.81 541.84 624.71 548.01 626.25 554.54 626.5 561.5 628.18 566.17 629.91 568.58 632.61 570.73 636.82 575.18 637.78 577.25 637.71 581.85 639.95 583.66 649.4 583.25 653.92 583.73 659.4 583.77 666.1 585 668.57 587.32 667.42 591.72 667 598.58 662.56 601.83 661.52 604.99 661.78 606.87 663.7 610.19 666.85 613.87 670.15 614.82 671.93 614.67 680.3 615.86 681.85 616.47 684.21 618.83 688.4 626.67 691.88 631.06 693.64 636.12 696.59 643.04 698.88 644.91 700.8 643.43 701.66 641.65 704.57 631.94 705.5 627.01 706.91 624.41 709.53 623.1 712.97 624.14 722.16 630.26 725.01 633.14 727.08 636.76 729.22 638.6 734.63 644.62 737.57 649.18 737.6 652.35 735.82 656.23 732.36 659.14 730.17 659.32 726.81 661.41 725.74 663.09 727.04 664.55 730.64 666.74 735.24 668.93 738.59 669.43 746.15 675.8 752.37 679.61 753.73 679.76 761.87 683.66 763.86 684.15 776.55 685.45 781.02 684.56 784.37 684.45 787.76 683.58 790.75 684.25 790.14 687.55 788.1 693.29 782.59 696.19 778.33 697.74 774.36 698.07 771.37 698.88 763.82 699.72 761.49 700.68 758.52 702.81 755.19 702.17 751.83 703.72 750.84 706.27 751.56 710.15 756.96 717.54 759.73 720.31 768.43 725.83 770.66 725.77 775.82 723.96 778.59 722.26 780.19 720.23 784.44 718.24 787.78 718.27 790.31 719.33 793.38 722.18 796.63 727.05 797.6 731.1 799 732.95 797.59 735.32 791.26 736.43 787.35 736.64 780.95 737.57 775.62 736.76 768.89 736.64 763.85 734.91 760.94 733.05 756.5 731.04 753.55 730.64 750.7 731.91 743.72 731.09 737.32 731.09 734.65 731.43 723.68 734.67 670.26 727.37 669.07 727.36 655.87 732.07 654.67 731.9 647.82 727.47 641.18 725.48 640.02 725.78 636.76 733.42 634.67 735.12 628.81 735.54 623.47 738.13 618.96 737.29 616.52 737.49 611.78 734.75 608.69 735.02 607.98 736.07 608.26 740.62 607.32 742.66 604.29 745.62 600.93 746.5 597.62 749.47 593.16 751.47 591.92 754.58 589.39 755.65 587.19 757.61 586.47 759.22 584.24 760.87 578.86 762.74 577.37 763.92 574.8 767.67 566.84 773.12 561.97 774.12 557.84 776.79 553.97 781.52 549.91 782 543.34 781.44 540.66 780.19 536.28 775.35 536.08 772.67 538.13 770.73 540.49 769.59 536.89 765.98 535.65 762.94 533.81 761.09 529.12 755.07 526 754.96 523.39 753.65 519.29 752.82 516.97 750.12 515.24 749.23 509.49 749.72 505.02 747.26 501.75 743.08 496.22 741.14 493.22 739.66 491.52 737.7 490.69 733.37 488.7 729.93 483.82 727.53 482.83 725.44 483.51 717.97 480.27 713.84 478.6 707.32 474.78 704.34 471.51 697.08 469.28 694.65 465.15 692.59 463.22 689.81 460.97 679.87 460.22 674.42 459.47 672.54 456.33 669.44 453.26 667.43 453.58 663.27 452.71 660.41 453.48 654.26 453.21 648.8 451 646.65 452.41 643.96 459.55 634.98 460.14 631.78 461.58 629.83 465.73 622.66 468.46 619.6 471.2 618.2 474.18 618.22 475.88 617.45 477.71 612.89 479.41 609.91 479.55 603.09 482.52 600.22 482.65 597.66 481.05 596.07 477.19 594.85 475.08 590.71 474.61 587.34 472.39 584.92 468.88 584.89 463.87 586.93 458.81 587.27 455.11 585.58 453.21 583.8 450.49 583.51 446.2 586.41 442.34 588.22 437.74 587.03 433.25 587.5 431.17 586.99 430.39 584.6 427.83 583.31 421.39 584.03 416.92 582.52 411.48 581.45 410.23 580.46 408.67 575.51 405.68 572.13 405.61 568.24 404.18 565.95 400.51 563.91 396.92 562.58 396.16 561.54 392.72 553.97 392.44 550.8 393.54 546.95 392.14 545.26 388.77 544.5 385.07 545.58 381.22 543.73 379.13 543.3 372.88 540.51 367.7 539.76 364.43 539.71 363.2 536.84 365.78 532.06 367.87 530.63 370.76 526.19 372.36 522.29 373.42 517.01 373.28 512.27 372.52 510.38 370.42 508.21 370.06 506.63 366.61 498.59 366.58 496.09 367.67 493.44 366.37 486.26 367.1 483.38 366.03 480.44 366.36 477.54 369.67 475.55 374.27 473.78 377.02 470.26 379.05 465.3 437.58 443.75 437.71 438.11 437.04 433.29 437.28 428.85 436.55 423.81 435.16 420.68 431.71 417.64 430.59 415.51 428.32 413.62 426.2 410.67 423.96 408.95 421.79 408.29 418.89 404.65 416.96 406.26 415.22 410.84 413.63 411.07 409.1 407.38 405.4 405.31 400.62 401.18 396.38 398.06 388.22 392.84 383.87 391.22 377.02 389.37 372.38 389.15 363.56 386.32 359.75 384.14 357.8 383.76 347.92 384.27 344.73 383.69 342.85 381.13 340.65 374.17 340.27 371.95 341.11 368.48 343.16 363.5 273.21 375.91 171.21 394.01 170.73 398.14 167.86 404.4 167.61 406.26 170.67 409.33 171.64 411.34 171.35 413.77 168.67 415.29 166.18 417.99 162.58 425.45 163.09 428.05 164.75 431.89 164.8 433.66 163.04 437.05 161.54 442.01 160.02 443.03 158.59 445.43 155.23 446.61 152.59 445.18 143.65 443.7 137.97 443.83 136.26 445.25 132.88 451.07 132.13 453.73 133.87 458.56 135.09 463.29 134.28 464.99 129.89 466.27 122.99 466.96 118.18 467.08 115.24 469.59 113.27 473.48 110.35 474.33 106.51 472.79 99.62 474.48 98.94 475.72 99.86 480.39 98.84 482.85 90.87 485.34 83.55 489.41 73.48 492.19 71.51 494.68 68.04 495.69 67.14 490.08 64.28 485.14 61.46 478.17 57.06 471.55 55.22 464.98 55.64 459.37 58.63 450.98 58.1 448.78 59.29 445.76 58.82 434.6 58.12 431.1 56.32 428.48 53.39 425.94 51.6 420.82 44.33 416.48 36.91 410.78 33.96 407.33 33.03 404.31 33.91 402.47 33.66 396.43 33.13 393.99 33.25 389.58 28.9 385.76 17.39 379.52 14.97 376.43 10.62 373.51 8.05 371.11 7.41 369.43 8.56 366.48 8.48 364.37 4.7 359.62 2.66 358.23 1 355.93 3.34 349.72 7.14 350.63 10.26 347.92 13.8 348.27 20.4 349.81 24 349.84 25.76 349.23 25.89 344.29 28.74 341.98 27.02 338.76 23.97 335.71 19.87 334.44 19.06 332.51 19.02 328.25 17.04 325.06 18.34 323.09 16.56 315.71 16.42 309.39 14.92 307.88 17.79 306.02 19.31 301.8 17.99 300.06 18.13 297.75 20.39 296.75 22.32 294.21 24.03 289.39 25.19 288.23 27.98 279.65 27.49 277.53 27.46 273.04 30.5 267.14 32.85 265.04 36.7 260.36 38.46 257.24 39.02 253.57 40.29 251.44 43.01 248.9 45.04 244.44 45.34 240.89 44.74 237.73 45.1 235.92 43.57 231.26 45.04 228.28 43.96 226.69 43.93 224.56 45.78 221.33 44.57 215.13 43.79 213.52 44 211.17 47.8 200.33 51.54 193.51 57.2 158.74 61.21 157.34 62.23 156.44 67.62 154.93 72.95 154.25 75.03 151.47 78.72 145.32 82.95 140.27 84.74 136.75 83.81 133.33 84.22 131.43 85.92 128.79 89.39 125.48 89.01 120.88 85.08 118.71 78.47 114.1 77.06 110.38 73.29 105.82 70.78 104.09 65.35 102.19 60.74 102.34 57.72 101.57 54.05 101.48 50.68 62.36 52.06 62.38 54.68 64.36 60.68 62.29 63.33 60.62 64.43 61.2 67.29 60.16 67.46 57.92 69.73 57.71 69.95 55.75 71.77 55.48 74.71 51.97 77.64 49.94 80.91 44.95 81.51 40.9 84.93 35.85 84.72 34.07 86.43 30.8 87.24 27.51 109.55 40.83 114.78 36.91 119.62 35.62 121.77 34.49 125.18 28.95 126 26.8 123.55 17.61 124.26 15.58 129.89 12.29 134.18 11.07 136.34 3.23 138.43 1 148.19 2.07 152.61 2.91 159.43 7.31 166.25 11.03 170.76 14.12 174.41 17.92 177.48 20.54 180.38 22.35 183.31 25.34 187.2 25.63 190.96 27.64 193.99 30.62 196.53 37.98 198.87 42.7 205.98 45.57 208.03 47.07 210.79 50.47 214.63 57.04 214.33 61.15 217.13 61.02 219.21 62.13 222.71 60.93 229.87 61.45 231.95 63.06 233.07 66.84 232.6 70.22 233.06 72.68 235.44 76.17 239.91 77.92 243.01 81.31 247.66 83.72 251.3 84.46 255.94 87.18 260.14 88.06 261.43 89.03 262.47 91.65 260.75 95.57 261.1 97.53 262.77 98.17 267.97 95.22 275.74 93.83 278.2 94.3 281.31 96.1 288.3 98.13 296.29 101.27 297.01 101.84 297.05 106.2 297.76 107.75 301.31 110.18 303.36 113.08 304.01 117.47 306.19 122.43 310.08 125.68 317.38 129.07 324.27 131.12 327.4 132.77 335.94 131.12 342.91 131.48 345.13 132.15 348.8 135.64 356.98 138.58 358.71 140.06 359.29 143.8 360.51 146.76 363.29 151.24 363.13 152.75 364.35 155.65 366.74 157.59 384.04 164.68 388.51 164.69 390.04 166.29 390.6 168.43 395.06 169.14 397 170.79 400.62 172.39 400.95 173.53 400.23 178.75 403.59 184.03 404.08 186.4 405.45 187.97 409.2 189.23 415.24 190.39 419.86 193.55 422.69 194.64 432.56 196.22 438.91 196.19 440.25 199.61 443.42 205.44 444.89 211.83 446.25 214.29 448.81 216.94 453.27 219.22 459.72 221.08 465.52 221.79 469.08 224.15 469.56 225.42 468.2 229.14 468.33 236 470.34 239.79 474.53 243.12 479.68 251.85 482.18 251.69 486.42 248.43 491.34 246.43 500.48 244.23 503.49 243.06 504.33 237.89 505.97 234.27 512.51 228.19 515.46 227.45 516.67 225.62 516.95 221.56 522.39 215.99 522.93 213.77 524.2 212.7 525.83 206.34 Z"/>
</g>
</svg>