<?xml version="1.0"?>
<svg xmlns="http://www.w3.org/2000/svg" version="1.2" baseProfile="tiny" width="800" height="685" viewBox="0 0 800 685" stroke-linecap="round" stroke-linejoin="round">
<g id="4211702">
<path d="M 243.87 16.6 245.09 18.51 244.01 20.7 244.74 21.32 247.1 22.09 249.03 23.86 251.64 22.49 253.15 23.53 254.29 23.89 256.58 25.29 255.64 26.77 254.95 28.83 254.97 29.77 256.94 30.81 257.74 34.05 256.87 38.31 257.06 40.21 256.69 41.81 260.86 43.44 261.89 44.5 261.91 47.38 261.12 49.07 261.24 49.64 263.5 51.28 265.41 52.95 265.91 55.25 267.28 56.23 269.23 54.98 271.68 54.09 273.82 53.89 277.29 53.91 279.34 54.31 281.02 53.66 284.2 54.19 287.67 54.46 288.97 52.34 289.79 51.75 295.94 51.38 297.83 51.95 298.38 52.6 299.45 52.22 302.82 52.66 305.02 54.52 305.38 55.71 306.99 58.65 310.58 57.01 311.79 55.99 312.45 57.17 314.57 57.45 316.45 58.81 320.41 60.99 321.88 61.21 321.64 63.5 322.65 66.4 324.13 67.35 326.21 68.25 328.43 69.76 331.7 70.59 332.78 71.1 334.18 70.94 335.92 71.5 336.17 72.36 338.15 73.2 338.15 74.96 339.14 77.79 339.09 79.87 338.72 81.83 339.97 84.66 339.43 86.53 339.63 90.45 339.31 91.81 339.86 93.69 340.92 94.49 341.92 96.43 343.64 96.82 345.14 98.24 347.08 101.57 348.9 105.94 348.99 107.08 347.36 110.9 346.86 111.64 342.77 114.04 342.12 116.32 342.52 118.7 342.03 119.68 340.8 120.51 339.66 122.98 339.32 130.83 339.69 132.71 339.75 136.9 338.92 140.35 339.35 141.55 340.68 142.93 341.14 147.28 341.88 149.09 342.8 149.93 342.56 151.05 344.09 151.71 345.28 154.25 346.9 153.22 348.25 153.65 349.73 154.92 351.36 155.07 353.67 154.85 354.44 156.15 355.85 157.47 358.27 160.54 359.56 161.09 364.44 161.58 365.92 162.68 366.79 164.49 367.63 165.2 370.06 165.85 371.2 167.18 372.26 170.04 372.22 172.54 372.53 174.12 373.49 175.62 378.15 184.26 381.87 188.01 384.29 189.79 386.6 190.89 387.82 192.11 390.22 195.6 394.7 198.64 396.9 199.57 398.25 200.72 399.14 202.35 399.81 204.56 402.12 206.83 403.69 208.91 404.05 210.66 403.66 212.09 404.83 215.53 405.55 219.02 407.22 221.09 410.8 222.27 414.2 224.85 415.77 225.42 418.81 224.91 420.64 225.16 422.84 225.12 428.97 223.42 431.31 224.08 433.35 226.85 436.5 228.94 437.68 230.45 438.61 233.06 438.18 235.91 437.3 238.03 437.79 241.03 439.91 244.59 442.36 246.96 446.59 250.76 448.23 251.65 449.76 251.71 454.21 251.07 458.29 250.91 461.39 250.35 464.58 250.5 468.14 251.28 471.12 251.69 472.31 251.58 474.46 250.57 477.1 250.35 478.67 250.76 480.37 251.86 483.27 252.14 488.08 252.88 490.34 253.85 491.85 253.91 496.23 253.33 498.32 251.86 499.42 251.73 500.57 252.45 500.95 253.35 501.17 255.58 502.08 255.71 503.65 254.86 506.09 255.04 510.73 256.09 512.52 256.65 516.48 257.31 519.59 258.09 520.84 258.19 522.83 259.35 523.99 260.99 526.28 262.44 527.51 263.73 529.34 265.09 531.39 265.74 536.63 266.86 540.28 267.15 541.45 267.79 541.34 269.67 540.58 272.43 540.55 273.87 541.37 276.8 544.14 278.66 547.26 281.22 549.28 282.03 551.9 280.49 554.12 277.96 555.66 278.09 557.14 279.62 559.32 279.93 561.79 279.72 562.77 279.99 563.9 281.12 567 282.44 572.53 284.11 575.1 284.25 577.84 283.61 580.44 281.56 581.44 280.17 582.72 279.89 583.82 278.99 584.57 277.42 585.81 276.84 586.36 276.03 587.48 276.78 588.77 276.37 589.42 275.32 590.28 275.67 590.91 274.44 592.13 275.08 593.53 275.12 595.48 274.2 597.07 274.24 597.43 273.22 598.49 272.86 599.58 271.45 599.84 269.37 601.03 269.19 602.86 267 603.73 268.3 602.92 269.02 604.5 271.04 605.82 271.13 606.22 271.97 607.88 272.12 608.91 271.83 654.7 285.54 704.48 290.37 736.41 317.89 764.66 328.14 775.84 361.69 736.15 363.5 722.42 376.61 721.73 381.07 721.23 381.63 720.49 383.79 720.99 384 723.75 382.76 725.66 382.59 727.09 383.61 728.83 383.81 732.28 385.25 737.66 387.72 739.7 387.96 742.83 390.37 743.33 391.74 743.37 396.26 742.82 400.48 749.28 450.04 750.68 450.93 748.45 452.74 746.39 454.76 746.92 456.75 748.63 458.37 749.7 460.48 749.25 462.78 749.43 465.5 748.09 467.3 745.97 469.6 743.71 471.56 740.96 473.58 739.66 475.23 737.49 476.81 735.42 477.06 733.65 477.62 732.53 478.56 732.06 479.9 732.03 483.9 733.61 485.11 736.2 485.15 738.19 485.87 738.5 486.95 738.63 489.52 740.08 491.76 740.72 494.08 740.52 495.99 741.26 497.56 743.17 499.3 743.25 500.94 742.32 502 742.22 505.46 741.06 508.3 739.94 509.73 739.94 512.82 740.47 513.85 742.51 515.78 743.13 517.15 742.69 519.24 742.9 520.61 744.13 521.85 744.37 522.79 742.36 525 742.09 526.21 739.19 526.27 733.92 527.55 730.19 527.78 728.92 528.42 726.66 532.94 722.68 533.11 721.33 533.44 720.42 534.19 718.47 537.67 718.18 539.04 718.16 542.02 718.95 544.47 719.59 544.95 721.66 545.46 722.7 546.09 726.41 546.93 727.59 548.2 727.82 550.98 728.22 552.36 727.72 553.86 726.62 554.89 725.5 555.18 724.9 556.06 723.64 560.45 723.2 563.76 723.63 565.78 726.25 567.48 727.31 568.82 731.52 570.11 734.98 572.97 739.25 576.31 739.75 576.99 739.89 578.79 740.43 579.54 740.83 582.34 742.63 583.85 746.71 582.93 747.69 582.34 750.93 578.83 752.46 578.63 753.83 579.46 754.77 580.55 755.93 581.03 758.33 581.18 760.07 581.8 761.86 581.2 764.26 582.34 765.78 582.28 770.73 580.08 774.43 579.19 778.23 576.43 779.7 573.53 782.1 572.11 782.66 570.3 781.83 569.26 782.18 566.46 781.8 563.77 782.77 564.31 784.11 567.24 787.68 569.79 788.81 571.84 789.38 573.77 789.36 576.31 789.66 578.69 790.53 580.77 792 581.78 794.66 582.82 796.55 583.29 799 585.32 751.39 611.01 751.23 615.7 751.69 619.54 751.39 622.61 751.6 624.68 752.35 626.06 754.56 626.77 755.75 628.03 757.1 629.99 759.87 630.43 760.38 631.19 761.05 636.05 761.13 637.66 761.97 640.23 763.61 641.34 765.15 643.3 765.67 645.33 766.73 646.62 767.2 648.3 766.69 649.59 765.27 650.32 765.36 651 767.94 649.56 769.22 649.63 770.57 650.82 772.52 651.35 773.87 653.81 775.49 656.27 778.59 658.53 781.09 660 778.8 660.75 774.68 662.57 772.44 664.05 768.88 665.84 765.04 668.12 763.53 669.39 763 670.63 763 672.29 762.33 673.66 760.87 675.42 760.23 678 759.34 679.08 758.17 678.86 755.81 679.44 754.8 681.18 752.81 683.73 751.18 684 746.36 683.57 744.02 683.65 741.69 682.81 738.55 681.11 736.93 681.01 732.79 681.76 729.24 681.66 728.49 680.28 729.2 678.37 729.54 675.15 728.83 673.82 729.44 669.33 732.45 668.61 739.61 668.64 741.52 668.05 743.69 666.37 744.79 664.06 745.75 662.9 746.61 660.81 746.53 658.87 744.53 657.29 741.09 657.39 736 659.46 733.49 659.97 732.31 659.85 729.82 660.17 728.03 660.02 726.89 658.56 726.48 656.49 725.58 655.9 725.54 653.19 724.31 650.43 722.29 648.66 719.53 648.64 716.29 649.36 712.95 649.57 712.31 649.11 711.02 646.82 708.88 646.07 707.48 646.16 704.98 645.35 703.09 646.23 701.28 646.23 698.89 646.73 698.3 647.43 698.83 650.02 696.95 651.97 695.52 651.68 695.32 650.49 693.27 649.6 691.83 649.65 691.13 650.5 690.25 650.31 690.77 648.89 689.21 649.19 688.55 648.43 689.48 646.01 691.03 643.78 692.03 639.16 691.68 638.44 689.69 638.71 688.5 638.47 682.78 638.99 680.07 639.79 677.74 640.06 676.83 640.66 676.1 642.83 675.08 644.27 674.36 646.25 674.04 648.86 674.84 650.34 675.06 652.37 673.03 652.12 669.34 650.44 667.78 650.45 665.57 651.31 662.6 651.69 659.95 651.21 657.51 652.34 653.85 652.02 648.1 649.6 647.75 647.5 646.5 646.47 644.89 646.45 643.39 647.52 642.46 649.49 642.42 651.24 643.81 652.41 643.67 654.07 644.74 656 643.75 656.15 641.78 655.15 639.33 654.4 637.13 653.41 635.69 653.7 633.23 653.06 632.33 651.33 630.72 649.81 630.38 647.98 629.39 647.66 626.13 647.56 624.54 647.3 623.1 648.76 622.14 648.69 620.14 647.59 615.98 647.34 615.26 646.24 615.39 644.05 614.26 643.31 612.64 645.04 610.44 644.47 608.65 642.34 607.98 642.6 606.24 644.24 604.38 644.81 605.82 646.54 605.25 647.77 604.47 647.56 603.98 645.97 602.27 645.45 600.59 645.46 599.22 644.16 598.32 643.93 596.73 642.51 595.27 641.61 593.63 641.48 591.64 642.72 591.1 642.11 593.56 640.31 595.01 639.65 595.74 638.73 594.73 637.95 591.81 637.56 588.71 638.79 587.85 639.6 584.92 639.88 583.91 638.47 582.96 637.81 580.98 637.52 580.53 636.79 582.98 635 583.51 633.79 583.1 632.13 584.55 631.43 583.21 629.04 581.87 628.86 581.45 630.49 580.14 628.79 581.43 627.82 580.09 627.2 580.1 626.11 581.94 623.81 579.76 623.47 579.97 622.71 581.22 622.67 582.2 623.49 583.23 623.07 582.8 621.79 583.51 620.65 584.86 620.97 585.35 619.73 586.44 619.52 586.84 618.4 588.19 616.62 586.09 616.61 584.2 615.82 582.85 616.62 580.34 616.07 578.15 616.54 577.78 617.5 576.32 617.65 575.22 616.03 573.62 615.36 573.74 614.17 574.55 613.64 576.56 613.53 578.29 612.69 579.78 611.14 579.98 610.45 578.68 608.53 578.73 607.42 579.57 604.65 578.91 602.97 581 599.69 580.66 599.31 577.88 600.21 576.11 600.46 575.19 601.08 575.48 601.95 574.04 603.04 571.04 603.4 567.89 601.73 565.13 603.4 561.19 604.76 560.88 605.1 563.32 608.84 562.85 610.14 560.42 609.75 556.79 609.69 555.11 612.38 554.45 615.13 553.76 614.17 553.87 612.44 551.9 610 550.91 611.69 550.04 611.86 549.57 610.57 550.91 608.56 550.37 607.4 548.76 607.39 547.26 608.17 546.82 609.05 548.19 610.45 547.99 610.92 544.8 613.63 544.91 615.81 544.36 616.53 541.77 616.3 539.98 616.59 536.76 616.77 535.64 617.14 536.81 619.68 536.78 621.4 534.97 624.13 533.53 624.4 530.29 623.39 528.3 622.52 527.84 621.89 528.99 619.88 528.77 618.67 529.85 616.34 531.44 614.53 531.47 613.55 528.35 614.78 526.68 616.03 525.88 618.93 523.44 618.63 519.31 616.86 518.38 616.75 518.28 618.29 519.72 621 518.94 621.83 516.15 620.94 513.02 620.2 511.7 620.92 510.3 620.92 509.75 619.76 507.2 617.42 506.65 617.54 505.53 619.83 505.32 622.76 503.89 623.06 500.09 620.72 498.92 621.17 497.75 622.81 496.87 623.07 494.81 622.68 492.72 623.02 491.56 623.64 489.91 627.19 489.38 629.56 490.16 630.62 492.62 631.95 494.26 632.51 495.35 633.29 495.97 634.42 495.34 634.81 492.65 634.48 491.12 635.05 490.1 636.69 489.65 639.53 486.21 641.89 486.12 643.32 482.85 644.55 481.44 645.86 481.41 647.53 479.77 647.49 478.88 646.5 477.82 646.6 476.11 648.51 460.14 630.44 473.27 621.05 475.43 623.23 481.11 618.77 473.29 609.14 468.17 611.78 468.17 551.73 465.64 554.99 465.33 532.14 464.49 531.44 463.42 529.64 462.67 529.09 459.03 528.45 455.78 528.99 452.65 529.96 450.63 528.72 448.08 528.2 444.04 528.4 441.69 528 440.08 528.42 439.42 530.18 437.74 530.69 435.49 530.84 433.86 531.93 431.76 532.61 430.61 532.5 429.58 531.35 428.57 529.18 427.68 528.27 425.2 527.06 424.39 524.45 424.69 522.75 425.29 522.11 426.01 520.2 425.35 517.83 427.83 517.05 428.66 516.33 429.55 514.56 428.35 511.83 428.55 509.58 429.83 508.99 433.11 510.6 433.87 510.41 433.93 508.03 432.06 506.41 429.83 505.59 428.73 504.68 428.31 503.33 427.16 503.09 425.66 503.77 423.45 503.42 423.1 502.79 423.09 500.52 421.79 498.01 422.17 497.52 424.29 497.35 424.73 495.16 426.35 492.12 426.59 490.36 427.2 488.72 426.47 486.68 426.68 484.49 425.75 483.77 424.62 484.65 423.26 484.36 422.43 483.08 422.29 480.86 420.93 480.58 421.14 479.7 420.53 478.54 419.57 477.92 418.71 478.19 417.46 477 414.38 477.63 409.65 476.34 408.79 476.88 406.09 477.57 405.39 477.47 401.39 475.84 398.55 475.36 396.16 474.54 393.14 474.18 391.08 474.62 390.14 474.46 388.73 475.93 389.06 478.23 388.27 478.45 386.57 477.64 385.9 477.75 385.49 479.31 387.46 480.42 386.15 481.97 386.2 483.48 383.62 483.33 384.38 482.28 383.21 481.57 382.59 480.36 381.58 476.49 378.89 475.9 376.26 475.97 374.32 474.16 374.95 472.31 371.36 472.26 370.22 472.56 369.43 471.75 367.08 470.27 365.87 468.15 365.21 467.85 363.22 467.94 360.27 467.71 358.09 468.43 358.52 470.83 358.22 471.17 355.87 470.7 354.47 472.41 352.83 472.79 351.62 472.15 352.64 469.82 351.82 468.17 349.69 469.32 347.45 469.03 346.06 467.98 345.41 466.8 343.93 467.4 344.22 469.05 342.62 468.69 341.32 469.81 339.79 469.73 339.28 469.08 341.87 465.71 341.19 464.98 339.91 464.75 337.25 463.41 334.32 462.77 333.62 462.32 332.37 463.38 330.73 464.21 329.35 464.07 328.94 462.75 327.72 462.41 326.78 465.67 328.15 467.73 326.79 468.09 326.06 467.75 324.58 465.78 323.26 464.79 323.11 463.18 321.79 463.08 321.64 465.6 320.27 465.61 317.26 464.58 316.82 463.66 315.48 463.08 315.16 462.43 319.06 460.71 319.66 460.15 318.87 458.18 317.86 459.75 316.77 459.45 315.88 457.88 317.48 457.08 316.53 455.73 315.26 455.46 313.9 454.5 314.44 453.72 315.75 454.73 316.51 454.02 316.14 452.75 314.43 451.7 311.63 450.43 311.31 451.56 309.68 451.46 308.52 450.75 306.53 450.44 305.37 448.72 303.72 447.48 299.77 446.61 297.56 447.33 296.65 446.65 296.79 443.68 295.34 444.26 294.96 443.52 295.38 441.29 294.57 438.62 294.21 436.51 293.08 435.2 291.37 434.72 290.04 435.05 290.26 437.15 289.4 437.31 289.07 435.23 287.91 434.23 285.15 434.61 282.2 433.01 280.96 431.59 281.85 429.78 280.51 428.67 278.7 427.97 277.98 429.25 276.18 429.12 274.41 427.39 270.72 427.87 269.02 425.22 268.04 424.94 266.38 425.12 263.19 423.59 261.01 422.85 259.62 422.76 258.39 423.63 257.2 423.26 255.92 423.52 253.12 425.5 249.45 426.74 248.15 427.89 245.8 429.26 244.71 429.61 243.19 429.25 241.24 430.41 240.05 431.76 239.52 433.12 237.76 433.01 235.72 434.79 234.03 434.89 232.15 435.98 230.53 436.26 229.76 437.84 227.98 437.93 225.18 436.98 223.87 435.76 222.99 435.63 221.87 436.26 217.72 436.07 216 435.3 214.57 433.54 212.59 434.76 211.33 434.66 209.5 433.94 206.44 433.82 204.88 434.47 203.6 432.99 202 432.23 202.31 429.8 199.26 427.11 197.75 427.19 197.33 426.35 195.73 426.82 194.88 426.41 193.1 424.11 192.33 423.92 191.58 422.37 189.05 419.27 186.51 416.63 184.33 415 183.34 414.93 181.84 413.9 180.2 413.44 180.06 412.07 176.91 409.74 175.57 409.94 174.46 409 172.21 408.26 168.88 408.56 167.31 408.28 166.4 407.38 162.35 406.45 158.39 404.94 156.19 403.81 154.57 401.47 152.89 400.78 151.76 398.41 149.55 396.69 146.39 396.71 144.91 397.28 142.39 398.83 139.55 398.34 138.16 398.52 133.48 400.22 131.01 400.41 128.94 401.55 126.32 401.43 123.48 398.27 121.39 397.29 117.83 398.54 115.42 398.77 112.2 398.29 111.6 397.63 110.47 397.82 107.67 400.16 106.96 401.07 106.32 403.4 105.06 404.4 102.89 404.98 102.27 404.83 99.97 402.22 97.1 402.03 93.65 399.77 91.83 398.96 90.68 398.92 88.69 398.02 84.12 396.53 82.27 396.43 81.73 395.63 76.17 395.86 73.16 396.78 70.5 397.28 68.96 397.98 65.12 400.22 62.73 401.37 60.68 402.74 60.01 402.52 55.71 402.62 54.92 401.99 55.85 399.33 56.95 397.84 58.03 395.19 59.06 394.1 58.95 392.49 58.32 391.82 59.22 390.31 60.9 389.78 61.64 386.61 63.61 385.03 63.14 383.65 63.04 381.43 62.59 380.45 60.35 380.35 58.19 379.76 58.51 378.13 57.6 377.09 56.15 376.27 56.48 375.51 55.3 371.74 53.31 370.05 53.07 368.36 54.3 367.35 53.99 366.2 52.86 365 52.36 363.51 52.84 361.89 51.36 359.07 51.9 357.94 51.96 356.55 52.77 354.51 52.22 353.04 54.44 348.4 54.95 345.84 55.45 345.13 57.43 344.56 58.65 343.08 59.01 341.65 58.13 338 59.18 333.8 60.72 333.01 63.85 333.87 65.33 333.76 66.31 334.45 67.55 334.45 68.34 332.27 67 331.13 67.43 329.39 66.89 327.79 67.41 326.05 68.27 324.55 69.48 323.34 71.42 322.84 72.09 319.6 73.03 318.04 73.02 316.33 73.49 314.96 74.65 314.4 75.05 313.28 76.97 311.97 78.11 309.3 77.85 307.08 77.01 306.15 76.7 302.17 76.01 301.14 74.7 302.14 74.51 303.76 73.91 304.58 69.83 305.01 69.9 306.31 70.9 308.94 71.96 309.6 71.31 311.73 68.61 312.74 69.27 317.46 67.94 317.94 65.14 317.17 63.57 317.82 62.75 320.16 62.24 322.48 61.37 320.47 60.41 319.89 59.32 319.96 58.2 320.7 53.79 324.6 53.73 321.61 52.94 320.7 53.32 317.86 52.22 315.21 48.58 314.34 47.36 313.31 46.3 313.12 45.04 313.79 40.31 315.57 39.29 316.24 36.57 317.06 36.27 316.01 34.99 315.29 35.99 313.31 36.04 311.61 33.75 312.66 33.08 313.81 31.86 313.48 31.45 314.79 30.66 315.41 28.27 315.86 26.67 316.92 25.29 317.32 25.76 318.45 28.59 317.69 30.69 317.37 31.31 318.01 33.62 317 31.98 319.44 30.76 322.23 29.91 323.28 28.5 322.34 26.93 322.41 25.51 323.21 25.2 324.42 20.92 325.76 18.06 327 18.17 325.93 20.17 323.34 19.51 321.19 18.35 320.62 15.29 322.42 14.14 322.02 13.02 322.56 11.73 323.88 9.75 324.12 8.56 325.14 5.69 326.58 5.79 325.48 6.58 323.94 7.71 322.8 9.86 320.03 10.34 317.97 11.17 317.6 12.37 317.98 12.93 316.77 12.37 315.34 10.34 314.92 8.64 314.14 7.59 314.74 6.62 314.47 6.41 313.33 7.17 312.43 8.69 312.23 9.32 313.12 13.43 313.49 15.45 312.03 15.48 310.07 18.21 308.76 18.03 307.57 17.09 307.25 18.66 305.51 14.02 307.04 13.11 306.98 14.71 305.11 15.56 302.52 18.37 299.61 17.04 295.88 17.29 294.95 18.2 294.65 20.03 295.55 20.81 295.01 23.18 295.2 23.81 296.14 25.43 296.91 26.66 295.84 29.55 296.78 29.64 295.58 28.64 292.59 29.43 291.88 30.45 292.22 31.46 291.89 34.26 289.88 35.46 289.39 38.38 285.69 40.05 284.63 41.79 284.58 42.7 283.25 41.26 283.03 39.95 282.06 38.71 280.35 36.02 278.88 32.84 278.14 31.4 277.2 31.87 276.54 35.37 274.18 35.96 272.25 34.27 271.16 28.99 270.74 24.61 270.7 19.94 270.39 20.35 269.77 24.49 267.61 22.28 266.85 26.07 265.26 27.05 264.17 30.5 263.54 31.51 262.2 33.25 261.13 33.54 259.1 34.25 258.58 35.89 258.91 36.07 257.8 34.85 257.66 29.57 258 27.65 257.95 25.68 256.93 24.04 257.37 21.04 257.31 18.91 257.76 16.72 257.64 11.21 256.38 11.2 254.88 8.6 254.44 5.52 254.82 4.44 253.89 1.84 253.87 1 253.51 5.86 249.63 9.59 247.83 18.3 244.21 20.15 243.31 19.52 241.91 19.79 241.11 23.42 241.07 25.75 238.56 25.66 236.68 24.73 234.98 25.83 233.24 28.91 233.16 29.69 231.21 30.46 230.1 33.91 227.67 35.94 226.94 37.23 225.19 37.99 223.67 39.79 222.14 41.94 221.52 45.04 221.14 45.18 219.81 43.65 219.66 41.46 219.01 38.38 217.24 35.34 216.75 34.42 216.35 34.79 214.5 36.53 213.4 36.69 210.78 37.42 208.76 36.25 208.8 33.65 207.57 33.9 206.84 35.92 204.77 35.86 204.07 37.56 202.64 38.76 201.25 40.85 199.99 41.11 199.38 42.66 198.93 44.52 196.27 46.16 195.48 47.83 198.39 48.8 198.06 49.88 194.52 49.39 191.19 48.69 191.08 49.57 188.47 50.61 188.63 52.01 187.93 53.14 186.8 52.4 186.23 48.13 186.57 46 186.28 46.07 184.91 44.78 185.16 44.03 184.46 43.63 183.1 39.64 182.08 39.95 180.74 41.01 178.52 41.1 177.62 42.65 175.04 42.92 174.13 42.75 171.84 43.54 170.26 43.92 168.47 44.49 167.59 44.04 165.97 42.01 163.83 40.81 163.58 40.1 161.17 42.98 158.7 45.09 156.19 47.02 154.71 46.72 154.02 48.11 151.78 50.22 150.05 51.24 149.6 50.68 148.19 49.66 148.08 47.5 148.57 46.64 147.87 46.92 145.37 46.44 144.55 47.34 143.78 47.76 142.35 47.55 140.54 45.11 139.8 43.73 140.1 42.73 139.38 43.02 138.54 45.93 137.45 47.17 135.64 48.93 135.01 51.7 130.52 52.78 129.48 54.26 128.66 56.55 128.35 57.72 127.23 58.86 127.48 60.42 125.81 61.88 123.37 64.43 120.81 67.6 119.56 71.43 116.91 75.56 116.41 76.98 112.16 78.46 110.86 79.37 109.01 77.27 108.31 79.32 107.17 80.76 107.11 83.52 106.17 84.63 106.31 86.79 105.29 84.81 103.88 82.34 103.54 82.57 102.52 80.2 102.12 76.84 102.41 75.49 101.76 75.1 100.74 74.04 100.23 76.93 99.01 80.75 98.58 84.62 97.07 85 96.51 87.64 95.18 89.97 94.35 89.92 92.15 89.28 90.73 86.63 88.35 88.61 87.33 87.39 85.72 85.48 84.2 84.61 83.84 89.2 82.29 92.27 80.04 94.32 79.15 94.55 78.47 96.64 77.38 95.25 76.3 94.22 76.98 92.56 76.41 89.05 76.02 90.06 73.46 90.65 73.01 90.17 71.81 90.3 70 91.09 69.39 93.43 69.07 92.29 68.01 90.93 68 88.5 67.21 88.36 65.99 89.24 65.15 92.56 64.52 94.25 64.53 93.61 63.4 95.45 60.96 96.47 60.99 98.21 60.37 99.62 60.33 101.05 61.13 104.29 60.33 105.71 61.87 107.83 62.39 107.7 61.35 106.73 61.26 106.6 59.35 109.32 56.81 109.98 55.03 110.83 53.97 109.74 53.22 108.49 50.94 110.03 50.15 112.26 50.01 114.59 48.25 117.51 47.72 118.95 49.35 119.39 48.85 123.31 51.19 125.09 51.48 126.45 49.69 127.43 47.47 129.46 46.74 131.25 45.69 132.77 45.32 132.09 43.28 130.99 42.3 130.28 40.07 128.3 37.46 127.86 36.27 130.34 34.72 133.08 34.18 133.68 33.46 133.15 32.61 129.38 31.53 129.39 30.49 133.26 30.76 133.09 29.69 132.11 28.46 133.46 26.8 133.27 25.85 131.49 26.48 131.41 25.39 132.44 23.47 134.26 21.58 133.65 21 129.79 20.54 129.9 19.82 131.97 18.57 132.28 17.46 133.72 16.41 135.06 16.16 137.38 15.07 137 14.18 137.3 13.11 140.48 13.01 138.97 9.66 138.96 8.16 140 5.88 140.91 5.53 143.04 5.44 143.93 6.07 145.43 6.05 147.42 6.45 147.91 5.89 149.68 5.8 151.46 7.05 154.19 5.38 158.94 3.88 165.15 2.72 166.73 2.26 167.94 1.08 169.28 1.55 171.82 1 176.56 2.81 177 4.65 174.06 7.48 168.78 10.75 166.99 12.01 162.65 13.96 162.25 14.57 163.7 16.85 165.94 18.59 164.91 19.94 166.43 21.77 167.54 21.66 170.09 22.18 172.46 20.95 176.57 22.04 178.4 21.92 179.56 22.51 181.1 22.2 184.8 21.93 187.17 22.78 188.23 24.37 189.98 24.26 193.1 23.17 195.47 22.98 198.33 23.7 198.93 24.1 199.01 27.07 199.57 28.9 198.6 30.04 198.43 31.29 201.81 29.93 203.64 29.58 207.84 28.08 209.3 28.44 211.25 29.98 213.31 31.01 214.94 30.86 215.58 27.56 216.76 25.3 220.21 21.81 222.78 21.67 224.49 23.44 227.9 23.61 229.44 24.46 231.49 22.05 233.05 21.29 233.97 19.76 235.41 19.76 237.78 19.05 239.96 18.68 242.42 17.65 243.87 16.6 Z"/>
</g>
</svg>