<?xml version="1.0"?>
<svg xmlns="http://www.w3.org/2000/svg" version="1.2" baseProfile="tiny" width="800" height="573" viewBox="0 0 800 573" stroke-linecap="round" stroke-linejoin="round">
<g id="4211058">
<path d="M 721.23 237.87 721.25 239.49 718.78 241.93 718.39 243.42 721.17 244.29 727.33 243.33 729.07 244 731.97 247.23 732.23 248.89 735.4 253.93 732.09 255.61 728.06 255.75 726.49 257.58 730.79 257.78 737.15 260.4 744.74 262.2 746.19 260.89 749.3 260.9 751.46 262.95 753.16 265.55 756.93 266.55 760.23 264.63 763.96 264.51 764.2 267.4 765.72 269.47 765.65 271.74 764.22 274.65 761.7 278.48 759.65 280.51 759.75 281.66 765.15 281.46 766.82 283.38 762.31 285.65 760.52 287.58 761.88 290.68 766.5 292.82 765.74 296.05 763.15 297.02 761.62 300.79 763.65 306.26 763.87 309.87 765.91 309.97 769.06 311.05 771.4 311.09 778.04 313.85 784.36 313.91 787.85 315.62 790.24 318.57 791.78 322.12 793.15 322.87 795.18 326.3 794.41 326.98 790.21 325.1 786.51 326.32 784.67 327.42 784.53 328.77 789.52 332.84 789.15 334.42 785.96 337.19 785.64 338.32 789.28 341.83 791.61 343.29 791.64 344.26 787.46 345.56 786.35 346.51 787.98 348.65 790.28 349.63 798.47 349.72 799 351.18 795.15 353.48 786.62 355.41 781.92 356 777.19 359.47 776.96 362.41 778.03 365.28 781.91 368.45 784.27 369.19 789.1 372.71 788.43 374.03 785.55 375.14 779.83 375.03 778.69 375.57 775.85 379.73 777.48 383.36 780.27 386.15 782.24 389.03 785.17 390.95 786.14 393.67 783.63 399.75 783.55 402.03 780.03 403.01 778.44 404.17 778.2 408.32 779.88 412.89 781.9 415.32 788.62 417.53 792 420.05 793.09 423.87 793.54 430.63 793.32 435.15 792.38 439.69 792.99 448.58 791.86 450.07 788.33 449.74 784.67 451.62 781.22 451.07 778.59 449.15 774.67 447.71 770.22 448.78 768.35 448.84 763.35 450.91 756.72 452.57 750 451.08 742.98 449.01 741.2 449.03 740.27 447.62 743.16 439.52 747.39 430.69 747.75 428.74 744.96 425.61 742.78 422.16 742.52 418.87 739.71 411.49 736.18 406.7 737.43 404.74 739.65 403.14 739.85 399.77 738.47 397.36 738.36 394.62 739.37 391.32 738.87 389.87 732.41 388.57 731.55 389.35 730 392.79 725.76 394.51 722.13 395.53 717.08 396.09 714.13 396.86 711.12 396.19 710.51 394.04 707.37 394.06 700.31 401.48 696.72 403.04 693.92 403.79 692.3 404.97 689.81 405.66 686.71 405.59 681.4 400.95 678.67 399.79 674.48 399.4 672.52 398.62 671.15 399.27 672.45 408 674.45 410.78 679.02 411.39 679.53 412.77 678.96 414.79 676.36 418.54 676.42 419.71 678.67 422.12 685.64 421.02 691.66 421.34 695.55 421.19 696.99 422.11 696.93 424.49 693.38 427.73 691.69 432.65 691.84 438.88 692.77 440.11 698.15 444.29 697.78 447.12 695.1 450.49 694.14 455.42 694.29 458.25 695.56 460.06 699.64 461.73 700.62 463.56 699.78 466.03 693.9 470.68 692.3 474.05 689.8 476.78 688.1 477.41 683.61 474.71 675.36 467.86 670.47 466.28 665.64 466.34 663.12 466.84 657.12 469.54 654.43 468.07 653.64 465.63 655.1 462.22 654.1 456.03 652.09 451.66 649.19 448.04 646.94 446.96 643.14 446.44 641.19 447.01 638.53 446.17 638.13 443.44 640.45 438.63 641.08 434.85 637.31 434.73 633.59 436.66 628.37 438.24 622.41 441.15 618.83 445.63 615.45 446.97 610.76 449.44 608.91 448.86 607.57 445.93 604.59 445.24 603.59 444.26 604.14 441.56 599.71 441.02 597 438.51 594.27 433.64 593.03 430.06 593.12 427.96 595.27 425.87 594.96 423.5 593.81 420.93 592.07 420.34 588.03 419.96 587.42 418.79 587.54 414.01 589.77 409.48 588.25 408.16 579.24 403.53 574.41 402.53 571.12 402.9 565.73 404.71 563.94 405.66 562.32 408.33 564.22 412.4 563.86 414.8 560.4 415.62 553.82 414.24 550.28 414.69 548.9 417.56 544.13 417.02 543.13 414.15 539.27 413.5 533.16 415.24 528.53 414.64 527.23 415.34 525.38 418.52 524.04 421.74 521.95 421.83 519.04 422.99 517.67 421.63 518.92 419.59 516.73 418.68 515.18 414.88 516.34 414.31 520.8 414.11 523.98 409.22 525 406.31 527.66 402.72 528.83 402.2 534.89 404.2 539.57 406.59 541.69 404.88 546.24 403.07 543.07 398.64 542.97 397.04 541.21 393.15 540.2 392.17 537.8 392.88 537 391.19 537.61 388.34 534.75 382 533.37 379.72 530.02 380.04 520.51 377.81 519.8 379.59 523.96 380.12 524.26 383.98 520.29 382.39 516.73 382.43 516.53 380.6 513.73 378.61 514.02 375.36 511.54 373.12 510.56 371.49 510.12 367.85 507.67 365.31 509.45 364.16 509.4 360.51 512.49 359.39 512.66 358.39 511.15 356.25 509.24 354.81 506.32 348.77 506.38 347.84 508.87 345.34 508.99 343.09 510.21 336.15 512.9 334.5 516.91 331.22 519.58 332.9 521.35 331.05 521.32 328.09 518.11 326.91 517.13 324.06 514.8 321.66 510.72 319.83 504.56 318.5 499.97 317.79 495.32 318.99 495.36 321.02 497.1 323.77 497.03 324.86 494.47 325.49 493.28 324.66 487.4 321.97 483.21 319.43 481.17 318.61 477.38 320.21 475.2 322.16 468.15 325.51 466.91 329.1 463.97 332.99 462.37 333.2 460.76 330.97 460.8 328.2 459.08 322.99 456.49 321.71 307.73 424.03 306.05 426.2 306.11 428.69 305.36 430.5 304.08 431.18 296.91 430.34 289.12 434.43 286.39 435.41 281.76 435.9 276.08 435.78 271.62 435.37 262.58 433.59 259.14 433.48 255.71 433.88 249.97 435.1 247.39 434.74 247.21 433.42 245.5 432.34 242.98 432.8 242.98 434.05 237.3 435.52 237.72 436.89 235.16 438.51 233.64 440.26 231.62 438.98 231.08 442.29 231.57 445.07 232.72 447.08 232.02 449.07 230.38 450.01 229.15 451.87 223.38 452.42 221.15 453.01 215.17 458.83 212.39 459.26 212.01 457.57 212.84 456.33 211.31 455.39 207.16 456.83 201.46 460.2 198.33 461.03 196.46 462.58 194.23 462.3 193.58 463.43 188.55 467.35 183.74 469.73 181.73 470.36 179.46 472.04 174.24 474.64 172.15 475.12 171.89 476.62 174.41 478.17 176.22 479.99 177.63 482.53 181.34 484.85 184.54 488.12 186.55 489.35 186.8 491.41 183.65 493.75 180.31 495.66 178.77 498.75 179.11 500.51 182.4 506.81 185.57 510.77 191.24 523.9 191.89 527.33 193.35 542.52 194.65 553.43 131.39 571.96 127.32 571.4 125.16 572 120.81 571.83 118.16 571.29 116.01 570.1 117.22 565.82 119.42 564.05 119.82 562.52 119.18 560.42 120.05 558.09 122.65 556.59 122.96 554.39 119.55 551.65 118.75 548.64 113.84 544.49 106.72 539.76 104.95 537.33 104.51 533.07 102.78 530.24 101.08 529.01 97.75 527.68 93.77 527.48 93.2 525.63 94.08 522.36 91.64 521.29 83.63 521.02 82.13 520.21 79.57 516.34 78.57 515.91 72.44 515.31 65.68 512.62 63.02 509.95 60.04 508.79 58.38 506.53 60.04 502.92 60.49 499.19 62.01 498.04 65.09 497.99 67.92 497.18 70.57 497.62 74.4 497.25 78.47 495.97 79.84 494.54 79.97 492.18 77.14 489.31 77.67 486.93 81.04 485.5 81.14 481.71 78.86 476.62 74.51 474.86 71.95 470.9 71.11 468.73 71.75 465.11 71.31 462.44 70.36 460.52 70.55 457.09 63.51 453.05 62.05 451.82 56.88 449.81 52.57 449.43 47.06 446.46 47.03 442.74 50.69 438.2 51.13 435.35 47.46 430.83 42.17 425.77 37.98 423.94 35.58 423.33 30.08 420.02 22.15 418.04 18.56 418.28 15.44 419.06 9.68 416.43 7.11 416.1 1 416.25 4.17 414.3 7.29 411.75 9.98 408.99 13.3 404.09 15.4 398.23 15.99 394.72 17.1 392.8 23.96 385.93 27.04 382.21 33.93 375.08 38.62 371.58 39.36 369.7 37.66 367.73 36.43 364.9 36.33 361.89 35.55 359.72 32.65 356.86 30.32 353.13 28.77 349.05 28.5 346.94 29.89 345.73 34.99 342.88 36.32 340.62 37.08 336.74 38.35 335.03 40.4 334.49 42.54 334.77 44.45 333.76 45.16 329.7 44.31 324.84 43.54 323.06 41.67 321.02 40.41 318.49 40.76 315.26 42.63 312.96 46 310.55 49.5 305.67 49.47 302.94 46.5 298.41 41.35 296.05 40.02 293.71 39.77 287.06 38.61 282.34 38.69 278.04 39.38 276.2 41.36 275.53 43.62 275.73 50.18 274.37 57.58 271.08 64.43 269.99 66.32 267.29 64.91 258.02 65.17 250.12 66.42 247.69 70.54 246.44 73.24 246.82 74.39 247.7 77.39 247.64 82.67 245.67 84.46 243.67 84.98 241.73 85.71 232.02 86.68 228.69 89.93 227.45 94.41 223.88 100.53 219.7 103.69 216.15 103.96 214.45 99.54 208.79 94.3 202.99 94.35 200.74 96.06 199.73 102.98 198.16 105.53 197.16 109.38 194.62 112.51 194.52 117.98 196.98 126.87 194.32 133.05 193.52 139 193.65 146.88 193.23 149.3 192.73 154.29 190.09 156.07 187.39 156.34 183.17 156.92 180.75 160.43 174.77 170.6 167.04 178.7 159.64 180.78 158.04 185.34 155.94 188.05 155.81 193.17 157 201.63 160.75 205.12 161.95 207.07 162.1 212.63 159.83 214.38 157.87 217.91 152.63 218.69 150.57 219.82 145.25 222.17 142.58 223.82 142.77 228.6 145.81 233.15 146.14 238.99 143.48 243.05 143.1 250.4 140.1 254.81 135.86 258.59 127.75 260.8 125.63 264.49 125.75 269.23 128.31 271.46 130.19 274.48 130.98 276.13 130.26 278.81 126.74 279.87 124.68 283.52 111.65 285.24 110.3 291.65 110.06 296.17 108.38 300.35 105.82 301.16 104.57 302.08 99.01 304.51 94.74 308.16 93.02 315.9 91.51 321.74 89.04 325.41 89.07 325.89 87.7 324.33 85.71 323.62 83.55 324.53 80.7 327.13 77.51 327.49 73.62 328.83 70.9 333.86 68.38 336.02 66.23 337.13 64.07 337.89 60.98 341.85 57.23 343.63 53.35 343.84 49.84 344.52 48.43 348.02 44.43 350.94 42.12 355.12 42.3 359.41 44.77 365.59 45.4 366.32 44.16 361.94 40.75 360.89 39.41 356.95 32.13 356.26 29.93 356.72 27.36 358.6 23.76 360.78 21.61 362.79 17.12 368.47 13.66 373.73 11.8 377.74 8.16 378.83 6.27 381.68 3.77 387.6 1 389.69 2.92 395.48 5.32 398.62 5.91 409.03 6.01 411.73 4.69 418.93 3.5 423.35 1.67 428.22 2.13 432.03 1.8 434.34 2.57 437.6 2.65 443.78 2.15 447.62 2.49 450.08 3.46 453.06 5.46 457.48 6.82 461.97 9.28 465.01 11.36 467.97 12.47 471.1 12.06 473.17 14.21 477.34 15.79 479.22 18.86 484.51 22.16 486.88 22.51 491.72 24.6 496.02 25.27 498.47 24.84 499.68 23.02 503.16 22.85 504.78 23.66 505.79 22.54 508.17 22.29 511.42 23.95 512.67 25.12 513.54 27.73 514.56 27.65 516.31 24.61 519.78 23.48 520.82 22.53 524.6 21.82 530.34 19.62 533.79 19.43 536.21 20.37 537.51 21.89 538.32 24.29 540.74 24.84 543.81 23.86 547.21 24.15 549.31 25.09 552.16 27.77 555.07 28.17 558.82 30.55 560.97 30.57 563.37 29.42 566.86 28.93 568 31.77 569.77 32.89 570.12 34.21 573.16 36.6 574.52 36.72 575.94 39.88 573.92 42.05 577.43 44.65 578.07 48.05 580.07 48.27 582.69 47.1 585.09 51.17 582.29 51.37 580.51 52.58 582.39 55.46 584.94 56.19 584.63 60.47 582.26 61.6 581.87 63.27 583.77 64.41 584.6 65.99 583.54 67.79 582.56 73.06 583.06 75.89 581.55 77.52 582.58 79.89 585.81 79.59 587.18 77.9 590.27 78.69 589.99 81.06 592.35 83.34 593.2 85.23 590.02 87.65 591.2 89.31 592.57 89.69 595.74 93.04 592.81 94.05 591.47 93.38 589.18 95.84 586.79 97.25 585.01 97.07 579.89 100.4 581.74 103 584.16 102.93 583.69 106.89 585.27 109.53 587.31 108.97 589.87 109.99 591.19 108.64 594.02 110.81 597.77 111.22 597.8 113.63 598.84 115.2 602.16 116.19 600.68 117.59 599.39 121.88 601.11 123.51 599.52 124.69 601.51 126.63 605.19 128.55 607.95 131.01 611.52 130.31 612.74 130.95 615.17 134.68 615.3 136.6 617.05 137.07 619.39 136.51 620.85 138.78 623.67 140.54 626.73 140.95 627.88 139.08 630.32 139.44 631.5 142.78 632.35 143.1 634.4 139.54 635.73 138.51 637 135.7 640.55 133.69 641.8 130.1 644.38 128.79 650.61 130.78 652.92 130.39 652.7 133.18 656.1 133.13 656.63 131.22 659.36 132.19 661.19 130.27 662.23 130.84 661.1 132.89 662.93 133.39 664.79 131.45 666.13 134.62 664.05 137.25 666.47 137.84 667.24 138.99 669.66 138.27 671.06 139.81 671.41 142.17 673.4 141.91 674.8 143.43 676.28 141.1 684.79 143.25 688.56 142.61 690.37 143.12 691.07 144.75 689.52 146.05 688.9 149.26 687.42 151.33 688.74 153.62 688.84 155.71 694.26 153.67 694.86 154.58 693.77 156.42 693.11 160.04 693.64 160.48 698.85 161.2 700.19 162.1 701.07 166.24 704.17 166.88 705.53 169.03 708.74 169.47 709.14 170.29 706.84 173.52 706.4 174.98 703.79 177.59 701.98 178.16 700.01 177.45 695.95 179.27 696.19 180.35 699.67 183.71 704.14 184.68 705.6 187.75 707.17 189.24 706.46 190.16 703.39 189.63 700.24 190.63 696.78 192.94 695.8 194.1 693.87 194.56 689.86 197.15 686.76 200.42 686.43 201.61 691.9 202.28 695.63 205.43 698.13 206.54 699.13 205.33 703.09 208.06 703.56 208.93 701.6 211.87 706.12 212.34 708.43 213.23 711.01 215.76 711.17 217.69 705.83 222.86 705.95 224.18 704.73 227.63 702.07 231.09 697.08 234.13 695.36 237.71 695.83 238.31 701.12 238.05 704.39 237.09 708.03 239.07 712.97 240.84 715.1 240.03 714.79 237.45 716.66 236.38 719.82 235.51 721.23 237.87 Z"/>
</g>
</svg>