<?xml version="1.0"?>
<svg xmlns="http://www.w3.org/2000/svg" version="1.2" baseProfile="tiny" width="800" height="540" viewBox="0 0 800 540" stroke-linecap="round" stroke-linejoin="round">
<g id="4211504">
<path d="M 762.5 4.76 762.65 5.4 760.82 10.35 759.62 12.67 760.04 13.68 759.37 15.76 756.6 18.45 753.96 20.23 752.28 20.68 751.16 21.37 750.16 22.6 750.53 24.03 750.01 26.19 749.57 29.3 750.13 30.42 749.9 31.57 750.39 34.21 750.43 35.96 748.34 38.83 748.05 40.74 746.49 41.99 745.76 42.97 744.08 44.01 741.77 44.1 739.89 45.66 738.78 46.96 737.62 51.1 738.56 52.92 738.55 54.8 738.91 55.93 738.11 57.97 736.46 59.82 734.94 61.11 733.14 65.61 731.94 66.86 730.07 67.85 728.71 69.63 728.82 71.18 729.7 72.82 731.53 74.14 735.89 76.47 737.26 75.99 738.75 73.69 739.26 73.32 745.61 71.2 747.55 69.91 749.63 69.9 751.3 70.2 754.84 71.82 756.7 72.3 757.96 72.24 760.96 71.01 764.7 70.08 767.11 70.36 768.79 71.29 770.34 73.76 771.56 74.72 772.26 77.06 773.82 78.77 774.24 79.94 775.05 80.45 777.98 80.71 781.53 79.5 783.19 79.21 784.21 78.63 785.46 76.98 786.97 76.3 789.7 76.86 791.56 78.11 793.43 78.71 794.69 80.62 796.68 81.02 799 82.59 795.77 82.68 794.02 81.66 790.8 80.21 789.47 81.11 788.79 82.49 787.1 83.88 784.8 86.46 784.48 88 783.03 88.54 780.75 89.94 777.7 92.4 776.78 93.87 776.7 95.14 775.34 96.68 775.27 99.09 774.52 99.94 773.93 102.89 772.55 104.07 773.14 105.1 775.35 105.35 776.63 104.9 777.13 107.33 776.18 108.59 777.1 112.4 777.86 114.66 778.27 118.26 775.91 117.97 773.44 119.13 772.13 119.08 770.39 117.59 769.61 118.42 768.82 117.35 767.53 116.78 765.57 115.32 765.12 115.9 764.37 118.29 763.59 119.96 762.42 121.35 761.51 121.88 759.7 124.19 760.26 125.37 760.04 126.36 760.47 127.81 759.56 129.28 759.14 130.86 758.02 131.68 757.93 134.74 753.85 137.38 752.03 138.21 751.43 139.54 750.31 140.08 746.91 142.51 740.8 146.05 738.39 146.61 736.51 146.49 731.62 147.2 729.47 148.78 727.95 149.19 750.87 216.8 758.33 238.8 758.9 240.1 760.32 241.58 761.46 242.2 762.17 243.4 761.25 244.76 760.81 247.67 760.08 249.5 758.89 253.74 759.26 256.02 758.7 258.15 759.82 260.27 759.85 261.84 759.48 264.41 759.78 266.45 761.16 270.91 761.43 273.37 758.69 274.69 756.15 273.33 751.07 271.89 748.39 271.51 746.6 272.06 743.23 274.15 741.04 276.23 739.59 277.29 738.51 276.82 735.85 276.58 733.91 277.22 731.87 277.06 731.01 276.67 729.07 274.33 728.32 272.8 726.1 272.8 724.56 273.6 723.7 275.23 723.77 276.82 722.33 278.88 720.63 279.94 720.33 281.09 718.01 285.16 717.4 287.21 716.3 289.01 714.99 290.12 713.32 290.84 711.62 291.19 709.2 293.16 705.71 293.91 703.82 295.89 703.1 297.6 699.58 298.6 699.9 302.45 697.17 304.4 692.55 306.62 691.12 307.57 684.26 309.17 683.23 310.36 683.64 311.42 683.31 312.77 683.92 314.29 684.89 315.7 684.33 316.83 682.87 316.55 680.43 317.6 679.27 321.09 676.95 323.79 674.19 324.95 673.02 326.04 672.1 326.35 668.83 325.98 666.93 325.19 663.12 321.89 659.32 322.46 655.71 324.08 654.07 323.87 651.52 322.93 647.9 324.36 646.11 324.46 643.23 324.11 640.35 324.46 638.8 326.02 638.74 329.12 637.47 330.33 637.05 332.78 635.26 335.13 634.45 337.18 633.01 338.42 631.47 340.22 631.28 341 630.2 341.96 628.73 345.46 625.69 345.33 624.16 344.72 622.91 344.78 621.77 345.61 620.45 344.82 618.38 344.72 614.89 343.26 613.66 343.42 612.03 344.72 610.35 344.17 607.3 344.36 604.51 343.36 601.05 343.58 597.73 344.28 596.21 344.11 594.29 344.67 592.05 344.17 590.98 343.42 589.8 344.11 587.26 344.86 583.04 345.79 579.99 345.01 579.26 345.05 576.8 346.04 574.57 345.98 572.26 344.91 569.67 344.62 568.63 345.69 567.41 347.79 566.28 348.36 566.54 350.57 565.6 351.03 564.48 352.26 565.16 354.5 565.13 355.58 565.79 358.02 566.08 360.11 565.84 360.91 564.22 362.85 563.16 364.93 559.76 367.05 558.38 369.27 555.49 371.39 555.06 373.38 553.52 373.92 549.93 373.31 543.75 375.23 543.4 376.15 544.79 378.43 544 380.79 539.51 383.5 538.03 384.98 538.1 386.86 537.33 387.44 535.57 387.1 533.69 385.81 532.47 386.23 531.35 388.26 530.06 388.9 526.09 389.36 524.43 389.9 520.75 391.68 519.18 393.15 517.43 393.96 513.88 395.23 509.94 395.99 506.72 395.99 504.46 396.65 504.02 398.2 502.48 399.82 502.22 400.82 500.82 401.75 499.47 405.05 497.16 408.79 495.41 410.27 493.59 413.27 493.22 416.38 492.05 418.98 489.62 422.46 487.66 424.34 486.16 425.31 484.85 427.75 483.54 427.97 482.26 427.57 478.86 427.53 478.57 426.65 480.33 423.18 480.88 420.51 478.46 418.76 476.64 416.21 475.16 416.71 471.69 416.64 469.78 416.02 467.05 416.01 463.7 416.31 459.71 416.93 457.23 417.53 453.3 416.52 450.48 416.68 448.88 417.1 447.09 416.86 445.07 417.23 442.94 418.88 441.03 418.54 437.42 419.53 434.93 420.71 432.2 422.33 426.06 424.14 424.36 425.05 422.14 425.37 417.98 426.29 415.26 427.48 413.14 428.67 411.24 430.8 410.14 433.92 409.93 435.25 408.93 437.33 407.89 440.61 407.57 442.87 406.22 444.64 404.82 445.76 402.45 445.26 398.47 445.06 395.67 445.72 394.03 446.52 392.02 449.68 390.19 450.3 389.1 449.79 385.2 450.82 383.37 450.28 379.7 450.64 378.66 451.68 377.11 452.55 375.6 455.18 375.95 456.09 375.8 457.81 374.82 459.32 374.74 466.02 371.22 468.64 369.3 469.5 366.86 471.08 364.47 473.58 361.91 477.06 360.71 477.02 358.81 476.32 356.87 475.99 354.71 474.07 353.22 473.06 352.52 473.08 350.81 474.25 348.64 475.32 344.73 475.79 343.13 476.56 339.98 479.14 338.06 480.52 333.67 481.3 332.68 481.12 328.58 481.73 322.96 484.04 322.92 484.93 321.66 487 321.26 489.23 319.72 489.84 318.5 489.19 312.62 487.69 311.44 485.53 309.92 484.5 308.93 481.3 308.2 480.52 305.56 478.58 304.32 478.14 300.61 477.57 295.4 478.35 293.72 477.68 293.34 476.61 290.23 475.13 289.99 474.31 287.96 473.31 285.72 473.13 284.52 473.69 283.28 474.85 281.23 475.35 279.03 473.3 275.86 471.13 274.1 471.06 272.06 470.31 270.42 471.17 269.32 470.98 267.38 471.78 264.24 470.85 261.39 471.8 260.4 472.91 260 474.35 259.25 474.48 258.99 473.05 258.36 472.49 255.28 472.39 253.5 473.48 249.75 474.02 248.01 472.45 246.13 473.64 244.08 473.18 242.94 473.65 241.16 475.93 239.56 476.68 239.02 478.34 237.96 478.7 236.53 481.24 235.95 481.8 234.14 481.75 232.03 482.37 229.99 484.39 230.01 485.52 231.18 486.94 231.52 488.2 232.68 489.15 232.96 491.8 233.89 492.97 234.4 494.79 233.8 496.18 232 496.91 228.26 496.57 226.97 497.65 227.25 499.82 227.03 501.29 225.7 502.74 225.73 504.59 226.44 505.78 226.28 507 228.39 508.53 228.55 509.82 227.83 513.05 225.81 514.52 225.21 515.3 222.3 517.86 221.88 519.78 219.94 520.54 219.51 521.07 219.91 523.96 219.31 524.91 217.08 525.39 216.49 526.97 214.85 527.53 213.17 527.29 212.55 529.13 211.51 529.71 208.3 530.2 207.32 530.9 205.45 530.66 203.92 531.71 203.53 533.36 202.28 534.35 201.23 534.31 198.59 534.87 197.17 534.21 196.05 534.29 195.37 535.58 193.97 536.98 193.16 536.99 189.21 538.9 187.85 539 186.55 538.24 184.85 536.5 184.32 535.41 182.92 534.93 182.67 533.06 181.51 532.02 180.32 531.96 177.86 530.79 177.44 529.02 175.63 528.68 172.95 528.9 171.77 528.04 170.49 527.72 167.3 527.83 165.81 526.93 165.38 526.24 163.4 525.33 160.88 524.83 158.58 524.14 156.55 524.15 154.66 524.48 150.21 524.54 146.54 526.2 144.54 527.3 140.77 525.91 138.75 525.76 136.99 524.32 134.73 523.76 132.52 522.84 132.34 522.1 132.81 520.29 129.49 520.93 126.84 520.17 125.46 518.19 124.57 516.42 120.41 514.42 119.11 514.41 118.03 515.23 116.64 515.51 115.02 515.32 114.41 516.38 113.39 516.82 112.87 515.06 109.12 513.85 108.5 512.91 106.67 513.29 103.57 512.87 100.64 510.77 98.72 508.4 97 505.18 96.76 503.17 95.6 502 93.76 500.84 89.32 498.53 86.64 497.85 85.57 498.07 85.59 497.38 83.89 496.84 83.39 495.82 85.2 493.88 86.03 490.55 86.29 484.52 85.78 482.35 86.39 481.02 88.32 480.05 89.13 475.12 90.14 474.47 92.1 474.1 93.17 472.19 94.22 471.36 93.78 469.18 93.59 466.78 94.15 465.69 96.16 464.91 99.25 465.48 101.06 463.87 101.53 462.42 100.7 459.84 101.47 458.43 101.23 456.4 102.86 455.63 100.66 452.08 101.34 450.06 100.93 448.05 103.45 446.08 107.58 446 110.26 446.18 113.9 445.53 116.38 445.86 119.32 444.97 119.98 443.55 122.66 442.62 123.99 440.67 125.71 439.64 128.24 437.58 129.16 436.33 128.99 434.55 127.89 432.49 129.03 431.52 131.68 432.32 133.7 432.09 135.8 430.75 138.95 430.03 140.22 428.43 139.89 427.6 137.93 426.87 137.79 424.73 140.29 423.33 141.94 421.62 143.37 419.26 144.3 418.41 144.44 417.42 141.64 415.04 141.59 413.97 139.72 411.08 138.32 410.11 137.31 408.55 135.59 407.21 135.63 405.26 135.2 404.64 132.69 403.81 130.44 403.39 130.17 402.52 128.21 401.48 127.26 399.48 127.29 398.43 126.67 397.27 125.78 396.8 124.44 394.07 121.74 392.89 121.97 391.22 120.39 390.51 119.36 387.91 117.53 386.79 116.51 385.58 114.66 384.29 109.84 383.41 108.42 382.15 108.1 380.41 105.11 376.91 103.75 376.26 102.68 374.57 100.54 372.98 98.05 372.21 96.1 372.04 94.69 372.34 94.97 370.82 96.21 369.78 96.57 368.39 97.43 366.88 96.33 365.82 97.39 364.23 96.99 362.83 96.01 361.61 94.01 361.13 92.89 360.25 91.1 360.7 90.06 360.2 88.29 358.3 84.95 355.83 85.86 354.42 84.49 351.85 84.23 350.05 83.48 348.94 83.12 346.92 82.24 344.32 81.63 341.51 81.05 340.05 79.59 338.1 75.15 336.9 73.62 336.14 72.71 334.55 72.21 331.4 72.82 327.79 71.71 326.82 67.58 326.32 65.4 327.87 64.31 329.32 62.93 330.56 61.87 330.91 59.5 329.2 57.63 326.96 56.88 325.72 55.55 324.42 54.78 322.78 54.13 322.54 52.01 322.85 50.32 323.56 48.41 325.16 46.6 326.25 44.83 326.09 41.92 326.56 39.27 326.21 38.27 326.39 35.49 327.61 32.97 326.62 31.08 324.51 29.4 321.62 29.03 320.22 26.85 315.34 25.15 314.62 18.71 312.67 16.05 311.28 14.29 310.87 10.59 310.45 7.87 309.42 7.08 308.84 5.95 307.13 5.9 306.47 3.46 304.48 2.37 302.68 2.14 299.2 1 296.67 1.3 293.64 1.63 292.9 3.61 290.37 4.6 290.05 5.61 288.9 7.07 286.26 9.37 282.52 9.67 280.96 11.4 279.6 13.6 276.16 16.66 270.54 18.09 269.37 20.53 267.96 21.61 267.86 24.27 268.77 25.36 268.52 25.62 266.81 26.27 266.35 28.09 267 28.68 265.99 30.73 265.49 32.51 264.58 33.92 264.53 36.21 263.37 38.84 262.83 39.69 262.38 41.12 260.18 41.68 257.09 42.53 255.69 43.89 254.5 46.24 253.52 47.29 250.21 48.51 248.76 51.95 247.4 54.85 246.86 56.07 245.86 57.74 245.15 60.95 244.51 63.95 244.64 68.1 246.31 70.39 246.83 71.29 246.71 73.53 245.69 74.5 245.79 76.47 247.25 78.02 247.68 79.41 247.4 80.79 246.41 81.93 246.81 82.86 247.99 84.94 247.93 86.14 246.97 88.55 246.66 89.64 245.86 91.33 245.78 94.26 245.03 96.75 241.71 98.04 241.34 99.87 242.42 101.98 242.26 104.34 243.11 106.3 242.8 107.17 241.54 108.21 241.21 109.4 241.62 110.75 242.92 110.92 243.93 112.69 244.34 112.74 246.28 113.51 247.22 114.97 247.36 116.44 246.94 117.19 247.49 118.42 249.81 120.86 248.48 123.08 246.23 125.27 245.76 126.31 244.77 129.68 243.57 132.74 243.39 134.45 242.79 136.57 243.79 137.77 244.81 138.7 244.17 140.16 244.43 141.97 243.89 143.4 244.43 145.24 242.9 147.6 241.73 148.39 240.35 151.47 239.25 154.34 240.88 155.88 242.1 156.93 241.86 159.22 240.26 162.61 238.23 164.89 238.32 165.56 237.88 165.92 235.85 167.61 233.6 170.37 232.4 170.76 231.16 172.49 229.67 174.04 230.1 176.07 228.48 177.42 224.22 179.73 223.75 183.3 225.11 184.31 224.85 185.85 223.21 188.3 223.96 190.12 225.35 190.84 225.25 192.24 224.11 194.62 223.72 195.78 221.02 196.97 220.05 199.45 219.41 201.35 218.6 202.7 217.08 204.01 216.2 208.76 215.45 209.96 215.65 210.86 217.43 210.68 220.34 212.26 221.44 214.99 220.33 219.27 221.71 221.42 220.8 222.22 217.3 222.86 216.24 224.22 212.91 225.04 211.66 227.05 209.62 228 209.14 229.25 207.5 231.26 206.23 232.84 206.82 233.9 208.11 236.76 210.06 239.13 213.1 240.36 213.33 243.7 211.99 246.15 212.99 248.07 213.49 249.94 215.03 251.66 214.98 254.31 215.41 256.78 216.83 257.69 216.99 259.3 216.27 261.25 214.17 261.65 212.88 261.34 211.85 262.93 208.75 264.94 206.92 267.37 207.78 270.16 208.04 274.43 206.52 277.49 206.82 279.6 208.9 280.57 209.48 284.39 210.39 286.74 210.39 289.38 208.55 291.53 208.41 294.1 207.32 295.31 207.62 296.5 208.9 300.21 209.39 302.2 209.47 304.59 208.77 306.43 209.47 308.55 208.88 310.87 207.72 311.76 206.16 313.31 205.39 314.92 205.52 318.35 206.54 319.68 206.12 324.26 203.05 327.56 201.2 332.11 199 333.52 197.81 335.03 195.83 336.51 195.81 337.93 197.69 339.08 200.87 340.47 202.66 340.17 204.02 338.86 205.37 337.58 206.19 337.59 207.48 338.56 209.08 338.11 211.65 343.89 215.66 345.86 215.92 347.05 214.9 350.37 214.88 351.35 214.19 354.85 206.35 356.47 205.01 359.17 205.62 361.06 205.55 365.8 204.2 367.5 204.06 369.38 203.3 370.6 201.62 371.78 201.99 374.49 201.09 376.62 201.59 381.45 200.42 383.1 198.68 384.2 198.29 387.82 198.35 388.93 197.51 390.29 194.62 391.29 193.15 392.96 192.54 394.25 192.89 394.86 193.69 398.37 194.56 401.76 194.73 403.37 195.85 406.79 196.58 408.39 197.26 410.26 197.52 413.21 196.67 414.3 196.91 415.58 196.4 418.34 197.99 419.18 197.08 420.92 195.93 424.43 193.26 426.18 191.68 428.77 190.39 429.29 189.24 430.93 188.01 432.54 187.4 434.27 187.93 437.49 185.42 438.14 184.45 438.93 182.11 440.29 179.82 442.28 178.89 443.15 178.14 443.69 174.11 445.26 171.95 448.23 169.99 451.46 167.31 452.69 165.87 454.05 164.98 455.44 164.68 458.72 162.85 460.49 162.91 463.4 162.09 464.86 161.07 468.17 159.76 469.26 157.44 469.83 156.86 471.44 156.41 473.29 154.47 474.53 153.56 477.46 149.57 480.73 147.28 481.88 146.9 484.61 146.99 485.64 147.38 487.47 148.81 490.34 149.05 492.71 149.64 494.72 149.21 495.77 150.06 498.51 150.11 499.34 149.68 500.24 148.11 503.47 148.67 504.39 147.28 506.71 145.95 506.99 144.05 508.5 142.75 511.42 142.94 512.9 142.83 516.18 143.91 517.48 144.91 519.03 145.59 521.64 145.86 523.91 146.45 525.23 145.93 528.47 143.47 530.75 142.87 531.9 142.12 535.7 139.09 538.78 139.14 540.83 138.58 542.94 138.51 544.65 136.39 547.03 135.18 548.45 135.58 550.5 132.5 553.09 130.76 555.96 128.37 556.71 128.14 558.91 128.97 561.02 128.4 563.86 124.68 564.49 123.37 566.82 122.45 569.89 121.76 569.06 119.28 568.76 117.14 569.33 114.65 570.41 113.16 572.95 111.98 574.72 112.23 575.65 111.32 578.23 109.85 580.82 109.77 581.26 107.64 582.32 105.69 583.63 104.08 585.6 104.49 586.25 104.23 586.9 102.62 586.83 100.38 587.29 97.19 588.53 95.54 591.39 94.17 593.42 92.68 596.64 92.85 598.29 92.22 599.06 91.45 602.04 85.87 604.49 85.92 607.88 85.36 609.19 85.49 611.23 84.19 614.71 82.44 616.83 80.8 617.58 80.51 620 80.71 622.61 79.84 624.41 77.76 627.55 75.78 628.98 73.42 629.91 72.87 632.67 71.96 634.98 70.66 636.51 70.91 637.48 71.73 638.56 71.56 640.38 69.37 643.08 68.88 644.76 67.55 647.12 66.69 648.82 65.62 649.03 64.84 648.66 61.84 649.83 59.36 650.47 56.54 651.04 55.38 651.79 52.52 652.99 51.01 652.23 47.97 651.64 46.76 653.06 45.31 654.12 42.91 655 42.56 659.37 42.99 662.22 43.46 663.64 43.98 665.19 43.56 667 41.62 668.29 40.71 670.47 39.65 672.24 40.55 673.39 40.58 675.01 39.27 675.79 39.06 677.85 39.58 681.09 39.23 681.47 38.9 682.74 33.56 684.26 32.85 686.66 32.81 687.86 32.41 692.6 33.27 696.07 32.46 696.19 30.57 697.03 26.82 697.54 25.74 699.19 24.2 700.16 22.81 700.85 21.2 702.82 19.7 705.86 18.63 706.96 17.2 709.24 15.49 711.39 15.34 713.74 14.89 714.96 15.23 717.3 16.85 723.34 19.21 724.39 19.3 726.6 18.23 729.49 14.39 730.06 13.27 731.05 9.72 731.89 8.8 732.42 6.15 734.59 3.82 736.32 3.52 739.54 2.16 742.5 2.52 745.51 1.76 748.09 1.63 750.58 1 751.92 1.33 753.25 2.22 758.21 1.79 761.78 4.03 762.5 4.76 Z"/>
</g>
</svg>