<?xml version="1.0"?>
<svg xmlns="http://www.w3.org/2000/svg" version="1.2" baseProfile="tiny" width="800" height="476" viewBox="0 0 800 476" stroke-linecap="round" stroke-linejoin="round">
<g id="4211603">
<path d="M 799 40.63 788.81 110.32 787.74 111.94 787.78 114.65 786.92 116.03 787.36 119.11 787.04 121.65 788.43 125.13 789.13 128.27 787.57 130.61 786.09 131.5 778.38 133.19 777.97 134.36 780.15 134.55 781.19 136.51 778.81 139.18 773.85 142.51 773.3 144.38 771.27 144.77 769.29 147.84 765.24 151.56 762.16 152.94 763.74 155.71 763.88 157.94 761.99 160.93 762.36 163.31 761.14 164.03 759.83 165.95 762.44 168.79 763.13 170.95 765.82 173.29 766.94 173.61 767.63 176.23 769.68 176.63 771.14 177.8 771.4 179.24 772.6 180.59 773.7 183.91 774.8 185.28 772.07 189.35 770.43 189.08 770.06 192.01 768.94 193.71 768.23 196.55 766.4 196.72 765.82 197.54 765.56 200.53 759.28 204.92 758.7 206.62 757.68 207.24 755.7 209.69 752.86 210.21 753.49 212.1 752.42 212.9 752.36 216.46 750.88 217.25 749.13 218.98 744.67 219.63 741.36 219.16 739.65 220.72 741.05 222.28 741.85 226.28 742.6 227.43 741.66 231.37 739.23 234.49 736.58 233.73 734.64 234.37 734 235.59 731.28 234.56 730.43 237.3 730.46 240.11 729.45 241.21 729.97 242.4 729.33 245.22 729.88 247.39 729.38 249.92 728.25 251.87 727.02 252.91 728.14 253.89 728.4 255.81 725.35 257.01 729.4 262.4 730.15 266.09 731.21 268.55 731.37 270.11 730.71 271.9 727.14 273.73 724.8 272.41 720.92 271.73 720.15 273.99 719.97 277.73 720.77 280.17 722.84 282.06 724.15 284.48 722.17 286.79 721.36 290.57 721.92 292.7 726.25 301.69 726.47 305.84 726.24 310.73 725.62 313.96 724.56 315.09 722.31 315.43 720.37 314.54 719.32 313.24 719.59 308.17 718.23 305.17 716.4 303.05 713.05 302.01 710.13 300 707.35 299.29 705.44 299.82 705 303.24 702.79 303.78 697.57 303.73 690.29 302.14 686.02 301.75 685.21 302.52 686.37 305.23 687.95 307.29 611.69 307.05 613.08 331.96 603.8 332.13 603.39 360.95 569.33 399.31 477.08 399.58 477.09 397.31 433.9 396.69 434.35 397.99 434.91 404.61 438.36 406.2 439.49 407.96 439.23 410.57 437.12 414.24 435.45 414.49 432.88 413.76 431.74 415.18 432.41 416.9 434.06 418.43 434.6 419.93 433.76 425.05 436.2 427.03 436.75 429.48 433.84 431.85 432.3 433.94 431.35 437.71 415.78 437.74 404.62 437.94 388.92 438.07 387.17 474.86 358.61 475 358.43 447.41 356.82 443.83 354.74 441.63 340.39 433.23 327.6 425.95 324.37 423.23 324.02 421.17 324.53 417.99 326.2 414.29 327.1 411.01 330.27 403.33 258.97 398.94 256.62 400.93 255.16 401.49 253.04 404.55 250.94 406.24 249.01 409.65 247.52 411.13 245.96 411.46 244.18 413.7 241.88 415.17 241.25 416.11 238.77 421.93 238.27 423.64 238.17 426.64 236.95 427.87 234.81 426.31 231.31 422.78 227.73 420 225.85 417.62 222.77 415.77 222.04 414.87 219.45 415.36 215.78 414.22 214.16 412.87 211.94 410.19 207.34 406.9 205.31 406.18 203.57 403.52 201.47 402.66 199.2 399.12 198.99 396.62 197.51 395.87 193.82 396.48 192.98 395.21 193.2 393.2 197.48 388.07 167.59 395.51 130.55 407.89 128.26 405.97 131.74 402.83 131.09 401.96 129.25 401.92 128.64 400.97 130.2 400.15 130.06 399.16 127.84 397.21 127.21 394.92 123.85 393.06 122.97 390.82 121.04 388.47 120.75 386.92 122.04 386.36 124.06 387.45 125.32 386.83 124.71 385.34 122.6 383.53 120.11 379.01 118.85 377.56 114.92 375.29 112.33 374.81 111.68 372.25 113.11 370.44 111.52 367.38 109.71 366.35 105.6 365.94 103.11 366.63 101.68 366.33 101.43 364.71 99.84 363.08 98.68 360.97 95.97 360.34 95.64 358.77 93.53 357.84 95.28 353.65 95.59 351.64 99.09 350.29 99.29 348.5 100.71 346.91 105.19 344.12 107.87 343.94 110.72 342.81 111.52 340.72 111.63 338.63 114.18 337.57 114.47 335.31 117.05 333.39 117.99 332.13 119.91 331.35 120.24 330.4 119.59 328.03 118.41 326.13 117.11 322.77 117.24 319.08 118.51 317.11 120.47 315.75 123.27 314.43 123.33 313.03 121.27 308.32 118.79 306.59 117.54 304.67 117.56 303.02 115.48 300.82 115.79 297.22 116.36 295.56 115.08 294.43 116.99 293.84 117.38 292.08 116.13 289.95 116 287.46 116.54 286.19 115.36 284.65 116.07 280.42 115.76 277.72 114.6 275.29 115.45 269.18 113.81 269.4 111.61 268.88 111.82 266.8 113.42 265.19 113.4 261.76 116.41 260.05 118.78 259.39 115.87 257.8 117.24 256.84 118.5 254.63 119.19 252.26 118.15 248.64 118.54 245.84 117.26 244.81 116.98 243.34 115.5 240.68 114.69 238.31 112.78 235.23 112.27 233.4 110.64 232.32 109.25 229.69 105.27 228.56 102.48 226.19 99.49 222.43 99.73 220.03 98.39 220.06 95.57 219.11 95.14 216.65 93 215.85 91.04 213.6 89.22 213.21 88.65 210.79 88.91 209.35 86.03 207.07 83.44 207.06 79.9 204.21 78.7 202.75 75 201.57 69.65 202.64 67.43 201.36 65.21 200.81 63.49 198.44 61.79 198.09 60.51 197.06 59.07 197.1 57.08 195.42 55.75 195.71 53.42 194.86 47.62 193.51 43.85 189.84 41.89 188.71 41.19 185.48 39.58 182.57 37.13 179.16 36 178.64 35.32 176.89 32.51 176 31.33 174.59 30.64 171.99 28.81 170.44 28.26 168.74 27.01 168.09 26.82 163.98 24.67 162.91 24.26 161.49 23.05 160.42 22.19 157.66 20.45 157.24 18.66 154.21 17.2 153.21 15.55 150.85 11.86 149.31 12.21 146.75 11.06 146.44 9.61 143.72 8.03 142.88 7.88 141.68 5.09 139.68 4.95 138.91 2.18 137.54 1 133.95 1.97 131.55 1.81 130.57 3.07 127.69 2.66 123.59 3.36 118.17 2.81 115.31 2.94 113.57 5.31 108.66 7.56 104.84 9.73 100.37 9.86 94.79 15.41 85.29 14.72 83.93 15.04 80.45 14.4 75.36 13.62 73.03 12.22 70.42 11.24 66.97 8.47 63.65 7.69 60.12 10.39 57.36 12.72 52.7 14.51 50.89 19.84 48.56 20.91 46.75 23.36 45.86 23.88 40.82 24.51 39.92 24.75 36.9 23.54 34.75 26.07 28.82 28.34 27.56 29.16 25.42 30.23 25.69 24.34 33.73 26.44 32.28 28.83 31.23 28.45 28.85 31.81 29.55 33.31 27.15 36.42 24.14 40.69 23.29 42.45 23.7 45.08 22.42 47.72 21.88 49.26 20.82 52.08 20.21 56.03 17.34 57.52 17.98 61.18 17.86 62.86 19.01 65.63 16.81 66.62 14.69 66.66 12.85 69.18 10.48 69.49 9.61 74.53 9.61 76.47 9.28 78.94 9.9 80.03 9.25 83.64 8.6 83.75 7.35 85.45 5.42 85.88 4.22 83.42 4.14 83.51 1 199.98 7.15 486.42 22.28 550.34 25.66 611.39 29.18 681.23 33.2 799 40.63 Z"/>
</g>
</svg>