<?xml version="1.0"?>
<svg xmlns="http://www.w3.org/2000/svg" version="1.2" baseProfile="tiny" width="800" height="675" viewBox="0 0 800 675" stroke-linecap="round" stroke-linejoin="round">
<g id="4211306">
<path d="M 736.75 673.96 731.89 674 724.35 673.59 721.9 673.06 721.09 671.56 721.78 667.3 726.22 668.56 735.53 672.95 736.75 673.96 Z M 793.77 357.22 790.54 358.06 787.28 356.04 789.03 354.92 792.44 355.94 793.77 357.22 Z M 453.56 293.03 451.78 369.65 449.7 371.58 451.32 375.58 450.19 382.19 448.38 385.93 443.63 393.32 442.37 394.16 442.37 396.57 443.37 397.94 446.44 400.18 452.35 400.28 455.86 400.88 460.9 403.67 465.94 408.68 480.13 410.83 481.04 409.59 483.44 408.77 485.65 406.64 488.43 406.12 492.7 406.77 499.07 406.6 503.66 405.6 506.14 402.88 506.83 400.74 508.26 399.79 510.6 400.03 511.86 399.19 514.98 394.35 518.05 390.69 521.13 388.24 524.2 387.14 529.93 387.65 536.32 387.47 542.43 388.83 546.04 388.83 553.76 386.51 559.4 383.35 563.07 381.72 567.23 380.71 569.61 381.28 571.68 382.98 573.96 386.37 576.72 388.8 578.66 388.7 580.71 390.52 583.38 391.29 586.44 393.77 591.07 394.45 594.94 394.05 597.47 394.32 602.37 392.87 609.08 392.78 616.87 387.38 623.63 385.68 627.35 383.65 630.12 380.4 637.1 375.38 641.2 373.31 644.56 369.15 647.22 366.97 648.43 365.09 649.74 360.28 652.56 356.03 657.19 347.09 658.22 346.75 700.62 353.76 708.34 338.42 711.32 333.64 712.52 332.61 716.31 331.5 719.87 332.73 722.12 335.35 723.98 339.59 728.1 340.11 729.54 338.16 729.09 334.04 729.5 332.06 731.62 330.64 732.2 332.68 735.39 330.81 736.16 329.28 740.08 328.7 741.56 331.46 741.51 333.08 744.93 334.2 746.91 333.32 745.45 331.36 751.16 329.21 751.22 326.27 749.6 325.93 746.64 328.97 744.08 326.71 743.48 322.77 746.04 322.72 746.66 324.43 750.61 324.23 751.68 321.78 748.8 320.71 748.96 317.81 753.15 315.71 757.98 316.84 759.76 315.88 760.8 311.32 762.1 310.55 767.36 314.77 771.48 314.68 772.72 316.05 769.81 317.7 769.39 320.8 771.57 321.47 773.56 320.31 773.21 317.52 773.99 316.1 776.14 315.59 778.56 318.44 780.04 318.15 781.66 315.93 787 312.79 789.24 314.06 787.66 320 788.41 322.11 792.8 321.29 793.87 322.54 793.62 325.01 798.4 325.99 799 328.64 795.83 333.77 794.53 334.46 790.61 336.37 785.19 339.89 782.43 343.53 780.09 350.57 773.81 356.87 769.82 362.39 766.76 369.29 763.87 376.74 763.14 381.16 762.1 382.94 761.41 386.67 758.58 389.78 756.01 394.94 752.35 406.05 750.35 409.75 750.42 412.64 748.63 420 747.02 425.07 746.19 429.34 742.96 441.55 740.52 453.08 738.54 460.98 738.02 464.16 736.68 468.69 735.38 475.03 733.84 484.4 731.38 495.88 730.27 503.47 728.88 510.31 727.66 519.31 726.58 522.75 726.62 525.16 725.39 531.98 724.79 537.62 724.14 539.37 723.33 545.54 720.92 557.35 720.11 559.45 718.79 567.03 717.88 569.76 716.28 577.85 713.9 594.71 713.12 596.44 712.82 599.8 711.5 606.58 711.13 610.74 710.11 617.12 708.58 623.6 708.65 626.42 707.68 632.51 706.76 642.49 706.97 655.11 707.47 661.25 708.58 663.4 710.24 664.75 710.13 667.59 712.37 672.81 707.74 671.04 699.61 668.49 694.77 666.34 689.01 662.36 683.56 657.32 680.95 654.26 677.16 649.03 670.34 640.81 663.25 634.12 656.25 629.05 645.48 623.55 641.3 622.12 629.22 620.08 621.93 618.49 614.98 616.53 611.35 614.96 607.61 612.14 603.74 607.71 602.11 601.27 602.46 598.26 603.51 595.53 606.56 591.56 609.54 589.08 615.22 585.41 620.08 581.5 623.42 577.14 624.6 571.17 624.27 567.86 621.42 561.46 619.74 558.76 617.11 556 613.64 553.57 605.49 550.25 600.72 549.42 596.95 549.68 589.89 551.17 582.35 553.84 575.44 557.57 568.06 563.07 564.19 565.5 561.25 568.06 556.5 570.06 554.46 570.5 547.39 570.59 540.77 570.32 535.43 568.79 527.91 563.05 523.11 557.75 520.81 553.39 520.1 549.5 520.18 544.29 520.61 540.02 522.33 535.45 527.65 525.44 528.77 521.71 533.17 509.4 533.35 504.74 532.54 501.82 528.56 494.87 525.36 490.71 520.86 486.67 518.14 484.82 513.97 482.74 508.1 480.82 500.53 480.24 494.29 480.92 487.66 482.2 482.24 483.76 476.04 486.86 469.86 491.31 465.59 495.25 462.43 499.01 457.53 506.35 453.8 512.7 451.09 516.72 443.47 525.45 437.95 529.25 433.26 531.68 429.38 533.19 424.49 534.58 416.62 535.76 411.84 535.86 407.14 534.53 402.64 531.82 394.72 525.45 389.15 515.64 386.62 509.93 383.75 501.17 383.02 495.9 383.49 491.03 385.06 486.03 389.24 478.57 397.66 466.94 405.3 455.59 408.51 449.89 411.6 442.75 412.83 437.67 414.41 425.2 414.82 419.16 414.49 415.58 413.59 412.72 407.8 402.23 404.52 397.68 398.55 392.09 391.4 387.29 384.96 383.48 379.37 381.27 374.72 380.72 370.83 380.83 366.68 381.54 362.33 383.34 356.16 388.03 353.33 391.75 352.28 393.95 351.12 398.49 349.76 412.15 347.94 419.93 344.51 427.52 341.08 432.45 334.9 439.47 327.43 446.23 319.5 451.68 315.71 453.66 310.34 455.56 305.17 456.3 294.05 456.23 284.26 454.31 279.41 452.94 267.4 448.84 263.69 447.99 258.03 447.63 252.85 447.99 251.67 445.53 251.57 440.1 250.49 438.82 248.32 438.15 246.83 435.05 246.56 432.97 247.28 429.77 248.54 427.19 248.55 423.11 247.11 419.54 245.13 418.04 201.82 359.91 49.23 330.35 17.73 324.25 24.15 321.92 22.72 320.2 23.08 318.7 26.03 319.66 28.76 319.61 30.41 318.65 31.1 316.53 31.06 312.89 32.56 311.15 35.51 310.74 36.6 311.79 36.62 314.01 38.88 314.42 40.36 312.05 46.39 311.11 50.06 311.97 51.69 311.01 52.37 309.11 47.87 306.87 46.16 305.11 42.75 304.63 43.28 301.87 42.14 301.26 38.09 301.78 37.31 300.53 39.47 299.29 39.2 297.95 35.87 296.72 36.99 294.6 36.99 292.29 38.23 290.89 41.16 289.46 41.87 287.84 41.26 284.68 42.32 284.03 44.56 287.95 46.12 288.56 51.52 288.4 50.18 285.65 47.97 284.86 47.76 282.22 53.42 280.52 54.84 281.15 54.64 284.69 57.56 285.7 60.95 288.06 67.37 287.68 69.86 286.61 66.41 284.03 70.82 281.75 70.51 278.25 73.15 277.45 77.91 276.72 84.35 273.42 87.52 273.87 89.77 271.06 91.75 270.24 95.15 269.87 94.98 267.75 99.95 266.39 104.65 263.61 109.25 260.19 110.39 257.58 114.13 257.85 115.13 255.26 114.81 251.96 116.84 251.09 115.41 248.5 114.18 243.23 111.31 242.43 107.81 239.54 108.87 237.95 111.31 237.02 110.02 234.54 106.18 231.92 102.21 230.3 99.96 228.24 97.28 229.63 94.37 228.68 95.36 226.61 92.5 225.56 87.75 227.66 86.56 226.42 89 222.58 90.09 217.63 88.86 216.93 87.76 219.4 85.9 219.05 85.9 216.35 88.63 215.36 89.31 212.53 89.04 209.76 87.05 208.64 85.5 209.58 85.66 212.61 83.58 212.48 81.86 210.01 80.34 212.46 78.68 211.23 78.85 208.2 77.56 207.44 75.15 210.15 73.71 210.34 70.06 206.59 76.06 203.58 71.04 201.7 68.88 200.33 67.3 202.61 58.7 199.64 58.01 196.11 54.72 196.09 55.76 193.36 52.41 191.66 54.8 189.02 54.02 188.06 51.16 188.66 52.69 184.72 50.02 183.77 49.85 182.52 53.6 179.64 53.57 178 51.66 175.79 54.42 174.84 54.53 173.7 51.76 172.82 51.11 171.09 51.96 169.93 52.17 166.48 54.01 164.51 53.99 160.58 55.49 160.08 56.9 161.83 58.85 161.75 58.87 158 55.04 154.02 55.39 152.4 60.64 152.18 60.67 147.97 57.79 147.58 57.19 146.31 60.77 143.76 58.05 142.38 59.27 140.5 60.83 136.49 63.06 136.12 62.34 133.85 58.05 133.47 57.83 121.58 57.31 119.89 56.78 113.68 54.4 109.44 52.09 107.69 46.99 105.59 40.39 105.83 38.02 104.88 34.07 99.13 31.02 96.49 27.17 91.39 24.54 88.79 21.69 87.31 19.42 84.7 15.16 83.75 10.33 84.71 5.75 82.03 4.61 78.75 6.25 75.65 9.83 71.2 10.03 69.17 8.84 65.12 7.05 60.8 7.31 55.63 6.94 50.11 5.24 48.5 1.67 47.81 1 45.93 1.86 41.47 2.78 40.27 2.76 36.46 5.86 33.47 6.56 31.56 6.74 25.89 5.13 18.97 5.04 15.84 6.41 12.04 8.93 9.26 10.71 8.12 26.23 1 29.84 1.09 31.69 1.81 60.44 22.22 62.57 23.46 66.53 24.84 72.67 25.17 76.37 24.37 81.48 22.71 82.46 67.29 84.11 69.31 85.35 75.59 88.09 79.54 90.04 80.89 96.16 81.5 99.73 82.59 103.71 82.25 106.88 85.62 109.2 89.26 111.3 89.86 113.03 83.42 115.3 79.76 117.68 74.42 121.57 73.23 122.73 73.58 125.47 71.29 127.61 70.9 130.18 72.18 134.39 69.27 136.94 69.58 142.91 74.38 146.22 76.03 176.38 98.86 181.61 98.13 183.57 95.28 186 92.85 187.8 91.85 191.01 91.13 192.74 90.08 196.81 89.34 199.15 90.71 200.45 89.66 206.15 89.01 208.28 92.16 208.23 95.03 208.89 97.71 211.29 102.57 210.67 105.65 209.13 107.54 213.65 108.55 213.8 111.49 215.07 112.79 215.81 115.35 218.83 117.52 221.2 120.07 222.66 120.56 226.34 124.61 231.41 124.98 235.33 125.93 239.84 126.22 244.06 127.93 243.78 131.71 247.69 132.31 252.88 135.01 252.41 137.55 253.23 138.61 258.75 141.56 261.63 143.47 262.5 144.98 265.76 146.82 268.05 149.97 272.49 153.16 273.61 155.93 281.22 162.62 282.66 165.48 285.52 164.99 287.72 168.48 291.31 166.82 296.09 168.68 297.52 169.82 302.21 166.38 307.59 183.07 306.65 201.09 305.47 216.04 302.82 253.4 303.09 256.74 305.4 260.92 309.34 263.67 312.89 264.65 320.85 266.23 353.21 273.32 359.29 274.37 362.98 275.45 374.49 277.88 380.38 279.35 388.81 280.92 413.31 286.3 446.12 293.16 449.27 293.4 453.56 293.03 Z" fill-rule="evenodd"/>
</g>
</svg>