<?xml version="1.0"?>
<svg xmlns="http://www.w3.org/2000/svg" version="1.2" baseProfile="tiny" width="800" height="1062" viewBox="0 0 800 1062" stroke-linecap="round" stroke-linejoin="round">
<g id="4211256">
<path d="M 569.02 83.98 565.64 91.92 567.25 94.8 566.93 98.84 566.09 100.06 565.39 106.81 562.11 108 560.68 110.42 553.53 113.54 551.13 115.97 548.01 122.21 544.39 125.92 545.43 130.64 549.14 135.1 550.46 139.72 552.34 143.21 553.39 146.34 554.25 153.16 553.81 157.83 554.73 159.65 547.29 172.37 547.13 179.85 544.21 185.84 541.19 190.96 538.03 197.54 537.85 199.87 538.58 203.7 537.64 210.97 538.19 216.46 536.5 220.32 536.72 221.64 535.42 224.85 537 229.67 540.72 231.5 540.91 232.53 544.64 235.21 544.84 236.82 546.96 237.95 548.9 241.59 550.44 242 549.97 245.43 554.92 247.5 557.14 250.66 559.09 252 561.49 256.06 563.82 256.62 564.98 260.33 566.6 261.76 567.15 263.66 570.04 265.1 570.28 270.6 571.96 271.48 572.7 273.75 575.15 275.83 576.08 279.32 577.66 281.21 581.43 282.4 582.33 284.74 583.85 285.43 587.14 290.01 589.29 293.9 590.23 298.23 592.85 299.74 597.91 304.66 605.69 306.48 608.81 307.61 610.59 307.22 613.26 309.47 615.18 309.42 616.91 310.8 619.18 311.27 621.49 314.45 624.46 315.19 627.44 316.9 634.61 315.47 639.57 317.05 641.17 319 645.93 322.82 649.39 322.84 653.26 325.9 652.9 327.82 653.67 331.06 656.11 331.59 658.74 334.61 661.61 335.67 662.18 338.97 665.96 340.24 667.76 340.21 667.43 343.43 671.45 348.46 675.19 351.64 680.52 353.15 682.39 356.68 684.57 358.13 685.25 360.57 687.82 364.71 688.9 367.87 690.88 371.44 691.25 373.4 692.97 374.79 692.44 378.54 693.85 383.4 692.91 386.57 691.24 389.54 689.39 390.82 693.29 392.95 690.12 393.84 686.08 396.13 686.12 400.72 683.97 402.88 683.68 405.66 686.63 406.36 688.83 406.07 687.7 414.25 689.25 417.51 689.66 421.12 688.71 426.8 690.3 428.87 689.56 430.57 689.74 433.9 691.42 436.75 690.89 439.11 688.33 439.91 690.05 441.42 689.29 443.64 688.86 448.46 691.66 451.41 691.63 453.63 693.3 456.2 696.63 458.52 699.39 464.83 699.32 466.71 695.56 468.48 692.93 470.29 691.23 472.94 691.05 477.88 692.79 482.38 694.38 484.93 695.25 488.11 694.81 489.38 692.24 490.42 690.97 492.11 687.51 494.68 687.13 497.71 683.71 499.13 683.57 501.94 682.49 504.73 678.67 506.25 675.07 506.49 669.07 510.23 667.16 512.36 666.9 514.75 662.21 516.56 661.79 519.26 659.45 524.88 662.28 526.12 662.71 528.23 666.35 529.08 667.91 531.9 670.04 534.08 670.38 536.25 672.29 536.65 675.63 535.73 681.14 536.27 683.57 537.66 685.69 541.76 683.78 544.19 684.65 547.62 688.12 548.26 693.38 551.3 695.08 553.25 698.42 559.3 701.25 561.73 702.06 563.73 700.37 564.56 697.66 563.09 695.94 563.84 696.32 565.92 698.91 569.07 700.09 572.07 704.6 574.57 705.44 577.63 708.42 580.25 708.6 581.58 706.51 582.68 707.33 583.95 709.8 583.99 710.66 585.16 706.01 589.37 709.07 591.94 708.78 593.97 714.05 596.11 717.87 597.25 718.34 602.55 721.4 603.49 722.33 606.71 725 608.37 724.54 610.05 722.5 611.62 723.56 615.16 722 617.78 725.87 620.64 726.19 622.56 725.63 627.76 729.22 630.23 729.88 634.58 729.16 640.14 731.43 642.55 731.4 645.49 733.31 647.65 735.42 651.49 735.5 656.23 735.04 659.66 736.68 662.11 736.65 663.6 734.66 665.93 735.17 667.67 737.66 670.83 734.07 675.52 733.09 679.96 734.59 681.85 733.51 684.03 728.97 686.97 728.58 690.43 727.22 694.32 727.53 696.38 726.77 700.28 728.47 702.78 727.45 708.63 725.85 709.94 725.31 712.81 724.18 714.19 721.81 715.05 721.22 716.5 717.51 717.91 716.93 720.96 715.84 722.3 716.29 726.04 715.1 729.58 713.68 730.76 712.32 736.63 712.31 738.88 719.77 741.61 721.35 742.83 721.22 747.88 722.6 748.52 725.73 746.74 727.97 747.53 726.54 750.61 727.41 752.69 736.23 757.27 738.42 757.9 737.31 760.11 734.94 758.91 732.61 759 731.62 763.06 733.72 765.18 737.42 765.87 739.96 769.38 741.52 773.56 744.39 777.67 744.17 779.89 742.57 780.93 739.47 779.38 738.14 781.15 739.04 783.69 736.17 787.51 736.63 790.51 737.96 791.51 743.98 793.52 746.08 794.96 747.4 797.17 746.82 798.57 742.81 799.27 741.62 800.77 741.8 806.79 739.53 812.84 740.51 814.82 744.34 815.73 747.72 819.5 752.34 822.64 759.08 825.55 762.05 827.47 766.67 833.73 766.99 835.15 765.43 838.94 774.53 847.92 777.48 849.55 788.1 860.22 790.41 862.81 792.8 864.13 797.65 865.59 799 868.52 797.01 870.04 794.92 869.52 788.69 875.16 784.89 877.53 778.81 878.86 776.47 878.93 774.21 880.09 770.67 885.6 765.08 887.87 761.42 889.79 759.45 892.53 759.04 894.92 757.32 897.08 755.46 893.52 752.58 891.02 749.45 891.06 743.26 892.7 735.76 892.85 719.74 888.87 710.04 886.91 703.94 887.31 698.46 930.31 681.8 1061 680.51 1059.07 678.36 1058.15 674.09 1054.32 672.51 1051.29 672.4 1047.35 670.76 1045.17 670.74 1043.03 673.25 1041.49 669.23 1040.4 663.95 1041.45 660.11 1038.64 659.7 1035.51 655.23 1034.66 654.17 1031.67 655.21 1028.71 651.71 1028.42 645.46 1024.6 644.87 1023.45 643.84 1017.61 645.08 1016.93 647.92 1018.49 650.22 1017.03 647.07 1012.93 642.33 1009.3 638.63 1003.36 639.07 1000.56 636.57 999.81 633.8 1001.84 626.5 999.73 619.71 996.8 615.92 995.76 610.39 989.85 606.17 986.62 606.44 984.77 609.08 983.25 614.89 984.27 617.16 983.85 615.08 977.85 613.89 976.58 608.18 977.56 605.74 975.67 603.02 969.38 604.4 966.36 603.4 965.24 599.69 963.46 597.02 963.61 595 966.07 593.14 967.26 589.89 967.71 584.19 966.84 579.21 962.37 574.21 961.67 544.15 907.08 491.22 810.95 488.11 810.39 486.14 810.97 481.61 808.61 480.01 808.91 477.33 812.67 475.56 814.23 473.93 812.61 472.93 808.65 465.98 804.62 462.76 801.21 459.72 799.92 454.93 799.5 452.03 798.15 446.31 796.05 441.71 796.87 437.96 797.03 434.8 795.49 434.73 788.96 432.85 787.13 433.2 784.41 430.45 781.46 426.09 780.02 423.41 776.8 416.3 775.2 411.44 772.27 407.47 771.83 402.6 770.58 398.62 766.97 395.79 760.09 394.5 758.65 387.4 752.35 383.16 746.88 381.75 746.19 375.86 746.32 371.51 746.8 308.12 700.62 303.03 690.67 299.02 685.95 297.64 683.58 294.23 676.19 290.85 671.99 287.76 669.7 286.36 664.53 286.35 658.77 283.05 656.8 281.26 651.98 277.9 649.56 277.61 646.09 273.77 644.13 274.73 638.35 273.73 636.25 273.78 631.56 272.71 627.77 271.43 626.72 271.19 622.94 269.94 620.97 267.87 615.51 262.44 612.52 260.71 609.74 258.14 608.07 249.83 605.87 245.23 606.2 239.29 603.93 232.5 603.48 224.09 602.53 218.28 600.69 212.75 598.04 204.22 594.96 202.31 595.82 199.84 593.17 196.78 593.43 192.58 591.34 189 590.38 185.45 587.95 180.12 582.95 179.53 579.42 180.01 571.52 179.43 565.24 179.31 559.99 179.77 555.16 181 552.04 184.1 547.13 184.77 544.7 184.61 541.68 186.11 535.72 185.87 531.91 184.56 526.27 187.89 521.29 187.39 517.41 185.89 513.71 184.2 508 180.7 504.1 179.98 500.41 180.28 495.7 182.04 487.08 182.11 485.06 181.36 476.66 181.4 471.38 184.45 467.19 181.02 458.97 180.91 454.64 182.53 450.13 181.23 445.3 181.75 436.02 183.14 431.44 181.62 427.69 179.45 426.03 171.77 424.95 167.67 427.29 161.45 432.7 156.67 434.7 152.73 437.09 151.09 440.43 149.17 442.27 144.55 444.28 141.56 444.1 136.47 446.12 134.13 449.24 125.26 448.26 118.75 449.2 113.84 451.07 108.24 452.47 105.25 452.46 103.24 451.39 101.09 449.06 90.64 451.45 84.54 453.18 81.15 456.3 79.43 456.09 78.64 454.16 79.41 449.53 77.25 446.77 74.76 442.38 74.46 440.89 75.72 436.6 72.78 436.99 67.95 436.77 64.1 438.8 58.84 438.56 53.48 439.63 50.33 441.15 44.08 439.44 39.44 436.63 36.41 436.41 28.71 439.58 21.64 440.28 18.33 440.22 14.2 441.99 12.01 441.55 10.64 439.49 9.38 432.07 7.42 429.81 10.72 424.56 13.04 422.47 18.2 416.51 19.25 413.89 23.39 410.38 26.51 405.21 24.45 404.29 13.66 403.89 9.23 405.09 6.49 405.04 3.88 403.95 3.24 401.16 1 400.98 1.46 396.87 6.76 388.81 7.33 386.66 11.1 382.38 12.49 378.21 10.94 375.05 13.52 373.43 18.4 374.55 20.68 373.97 25.62 367.03 30.33 361.81 27.97 359.86 30.08 350.7 32.6 346.11 35.92 343.52 42.7 341.57 50.95 339.65 57.97 338.96 63.58 338.87 67.69 341.5 72.51 343.02 79.87 344.42 85.66 343.22 89.74 341.33 98.44 333.14 107.23 328.25 114.64 323.5 120.28 317.88 117.37 315.12 105.77 319.22 96.95 321.17 82.86 322.82 78.51 320.46 75.01 317.28 69.22 319.61 66.71 319.5 63.07 320.37 52.72 325.9 49.63 326.71 37.9 326 32.98 328.41 29.79 328.51 24.76 330.87 23.13 329.86 19.7 330.11 19.52 328.03 22.5 323.79 24.49 319.38 25.74 314.96 21.83 316.74 13.95 316.99 11.88 316.57 10.31 313.08 11.06 310.98 14.43 305.62 16.49 303.39 18.65 299.97 21.72 296.49 24.09 292.56 24.47 289.89 26.38 284.53 23.67 279.92 17.75 280.57 11.15 280.81 9.54 277.73 6.33 277.17 9.82 273.16 11.02 270.45 13.26 268.26 14.48 265.61 15.22 258.91 16.63 256.28 19.03 254.79 18.54 247.98 17.62 241.06 16.12 236.19 14.91 233.77 17.18 231.05 19.76 229.63 21.74 230.44 26.66 229.98 34.25 230.23 36.34 230.81 38.02 233.17 40.28 234.79 45.07 236.54 49.36 240.7 52.76 241.38 55.72 241.11 57.71 240.2 58.18 237.61 57.8 233.23 59.57 231.33 62.62 230.98 64.13 232.29 68.65 232.17 74.81 230.5 76.86 227.27 78.73 221.79 80 213.92 80.91 211.87 79.47 210.21 76.73 208.76 78.14 205.73 81.79 202.27 90.65 201.72 105.41 202.37 107.78 201.75 112.04 198.7 113.99 195.13 115.54 190.45 116.82 188.67 119.98 185.95 122.55 181.61 126.57 178.73 134.47 175.16 134.23 173.96 131.45 173.72 128.35 175.4 123.82 175.51 118.68 177.65 108.38 179.85 106.29 180.56 97.53 181.41 85.2 184.33 82.32 184.54 83.48 180.64 91.83 175.8 97.3 170.82 102.35 170.07 106.18 167.23 107.45 165.47 111.01 162.31 112.73 159.68 116.87 159.08 121.15 155.89 109.1 155.42 107.46 153.24 107.06 150.57 108.04 148.37 111.21 144.34 111.64 139.67 109.26 138.94 104.45 139.71 97.7 136.67 99.04 134.47 101.17 128.36 105.27 121.89 107.48 117.28 111.59 115.04 114.07 112.5 114.62 109.31 118.17 106.45 121.31 107.94 125.43 108.06 128.39 107.58 132.79 105.81 136.03 106.32 139.53 105.77 143.33 99.31 144.81 95.14 142.91 95.85 138.7 91.02 143.15 85.58 143.83 83.36 141.63 81.59 142.92 78.85 145.02 77.38 152.5 78.58 159.16 77.2 162.51 75.5 164.92 73.13 167.29 68.47 169.07 66.55 172.65 64.24 183.09 59.32 185.23 50.34 184.81 45.52 183.52 42.17 183.94 38.9 183.29 36.02 183.59 33.28 189.39 31.93 194.03 31.68 195.34 26.45 194.8 23.01 195.87 22.29 200.61 22.51 205.03 21.25 205.45 20.02 209.62 19.17 214.26 17.53 214.53 18.55 212.09 24.02 215.29 22.09 217.9 17.75 220.52 16.4 224.24 12.76 225.94 10.49 228.48 8.9 229.92 6.66 231.61 9.75 233.32 9.17 239.38 4.83 241.61 2.82 242.03 1.44 247.24 1 247.57 2.49 249.83 6.1 252.22 8.9 252.39 10.24 249.42 14.59 247.27 16.77 243.57 22.44 241.2 30.73 241.71 31.97 239.8 33.41 239.72 39.13 237.78 44.86 239.11 46.21 239.84 51.32 238.74 53.23 239.61 55.41 239.91 60.81 241.78 61.75 253.27 65.64 257.84 68.52 260.21 72.47 260.35 74.97 258.75 77.81 259.54 80.99 262.23 81.73 268.11 81.03 279.5 78.87 282.5 77.65 283.81 74.46 289.02 74.25 292.03 72.49 292.22 70.08 294.32 68.84 294.95 66.39 297.71 65.21 299.06 63.41 300.16 59.32 303.52 56.78 308.72 55.01 313.13 52.04 316.74 48.53 317.65 46.85 318.42 42.72 317.6 40.06 320.27 38.43 324.03 35.2 326.35 34.84 329.64 38.66 331.74 39.45 333.36 38.46 335.1 36.06 342.86 31.41 347.15 25.73 350.62 24.03 353.63 26.59 355.15 31.67 354.75 38.27 353.61 44.62 352.62 46.57 351.98 50.13 355.4 52.13 359.69 55.5 359.92 58.68 356.8 61.44 357.9 62.56 354.63 69.21 352.14 72.91 357.08 74.84 360.94 75.9 362.51 76.96 364.33 75.56 365.03 73.03 369.31 73.86 375.24 72.95 379.13 74.13 381.23 75.44 378.98 79.18 385.11 79.86 385.72 70.99 390.32 67.38 391.55 65.69 396.79 65.77 399.13 61.76 401.4 60.56 404.23 60.44 411.33 61.42 414.61 60.93 418.98 61.61 421.55 60.29 431.15 58.1 434.99 57.66 438.79 57.85 446.08 58.85 448.64 59.7 445.24 62.21 445.46 64.77 448.26 62.87 453.81 59.86 472.97 60.16 473.54 61.37 482.62 64.65 486.03 67.31 489.89 68.16 492.07 67.09 498.85 65.69 502.47 63.46 506.41 61.77 520.57 58.4 520.59 60.08 523.4 60.17 525.1 62.42 527.92 63.03 526.23 65.13 531.63 65.76 535.46 68.14 538.29 68.84 540.61 68.62 546.13 66.53 547.97 71.08 550.09 71 552.43 69.64 555.19 71.64 553.08 74.17 554.47 74.87 562.11 76.08 557.7 81.13 556.32 81.73 553.53 84.86 557.22 85.77 560.15 85.01 563.5 85.3 569.02 83.98 Z"/>
</g>
</svg>