<?xml version="1.0"?>
<svg xmlns="http://www.w3.org/2000/svg" version="1.2" baseProfile="tiny" width="800" height="645" viewBox="0 0 800 645" stroke-linecap="round" stroke-linejoin="round">
<g id="4212502">
<path d="M 565.16 521.78 567.24 520.67 572.32 512.46 571.36 508.23 563.7 506.65 564.1 502.71 562.39 500.7 555.36 502.01 554.15 498.63 556.69 489.13 553.1 487.11 544.54 492.12 541.94 495.68 539.58 496.15 535.69 491.58 532.25 492.4 531 494.67 531.57 499.14 528.38 500.99 524.88 499.91 525.55 494.96 530.23 492.32 528.23 490.12 521.63 490.27 513.21 483.52 511.12 484.74 509.45 492.05 506.6 493.58 498.87 491.78 492.15 495.14 491.9 499.78 496.52 501.49 494.81 505.41 488.47 505.73 487.49 502.98 483.38 503.07 484.33 509.37 488.44 513 493.18 508.13 495.77 508.67 495.68 513.37 486.53 516.82 488.87 519.95 485.7 521.37 480.22 519.56 480.29 516.97 477.93 512.57 471.64 513.48 470.41 515.94 465.31 518.92 464.37 515.67 460.99 517.94 460.32 521.11 461.05 527.7 458.74 530.82 452.14 529.99 449.16 523.2 445.56 519.01 439.85 517.04 433.79 518.81 431.86 520.46 427.08 528.12 414.72 552.66 346.79 541.44 345.14 541.99 337.73 556.29 333.21 563.09 331.1 570.8 329.16 573.81 324.9 577.29 319.53 583.95 312.96 587.26 301.77 595.3 297.33 600.5 291.37 603.74 280.54 606.47 268.06 615.12 257.32 615.25 249.47 617.56 245.42 617.13 239.22 617.77 231.79 616.7 226.89 612.73 222.62 611.5 219.34 608.57 216.23 608.74 211.81 604.84 208.15 599.42 204.84 596.71 201.03 595.8 194.36 597.41 188.48 600.02 179.44 605.08 167.07 608.79 161.3 608.78 151.5 606.62 141.27 606.9 132.08 606.08 127.18 607.84 122.24 611.77 117.32 617.62 112.32 625.37 110.3 626.72 106.55 626.32 104.27 627.84 103.16 631.28 99.19 635.63 91.83 637.22 81.62 637.5 74.79 636.46 70.34 637.29 66.79 640.7 62.95 642.01 61.49 644 38.75 640.55 30.68 632.54 22.61 628.07 16.99 627.11 7.53 626.95 2.6 623.36 1 621.17 1 617.32 3.02 615.97 10.63 604.15 13.52 598.16 15.34 587.58 12.75 581.18 16.08 578.09 18.93 455.47 21.72 454.97 37.76 449.96 42.51 447.77 50.47 441.32 55.25 435.06 60.72 424.1 201.37 348.74 211.27 344.54 213.47 340.46 220.67 314.8 223.62 305.47 225.93 302.06 237.61 287.12 249.22 271.14 271.48 242.3 275.54 237.43 302.81 202.18 302.5 199.16 298.93 194.7 303.38 191.17 311.07 182.05 313.79 177.95 316.48 176.87 323.18 180.91 337.6 184.99 345.22 185.71 357.86 184.79 365.63 183.13 369.38 179.32 366.86 172.37 371.07 167.13 373.27 162.89 377.78 156.85 380.19 149.01 382.63 147.79 382.92 144.24 387.16 136.12 390.69 133.69 391.82 128.29 394.48 124.53 401.8 121.38 404.24 125.34 409.4 128.45 412.64 127.69 420.25 140.92 422.42 143.58 429.12 146.79 433.17 150.2 436.36 151.37 440.29 148.95 444.92 150.61 444.01 153.74 446.87 164.78 453.26 177.44 458.15 187.97 464.77 197.65 467.8 198.78 469.88 203.91 476.2 215.02 483.26 225.2 490.92 234.81 499.12 243.57 507.04 251.04 518.95 260.97 529.63 268.91 545.59 278.8 556.84 284.92 571.08 291.54 586.1 296.39 600.62 298.92 611.34 298.26 628.35 298.73 641.44 297.52 653.94 294.65 663.62 290.46 666.74 282.11 663.98 276.23 669.52 274.57 674.87 271.23 678.48 268.01 683.66 259.11 685.28 252.86 685.46 246.37 683.9 241.83 680.36 239.18 670.7 235.86 669.96 231.65 682.99 217.95 683.01 215.4 687.04 206.62 692.33 199.92 697.76 198.48 702.3 190.05 703.82 185.78 705.89 184.15 709.17 185.29 710.85 188 718.62 187.42 719.87 189.91 719.38 193.8 707.87 198.47 707.47 201.44 709.4 203.6 708.92 207.14 705.73 209.95 707.71 220.88 712.1 234.2 714.85 239.16 718.19 239.08 718.41 243.58 721.32 249.89 725.67 255.42 730.23 260.1 737.5 265.04 747.68 269.49 753.83 270.99 760.14 268.67 764.3 265.72 769.37 264.19 770.92 260.67 768.26 257.84 770.55 252.37 775.74 250.24 777.89 254.56 785.15 253.85 790.31 255.93 795.74 255.74 794.39 260.25 791.23 264.22 793.06 265.09 792.84 268.78 799 271.37 797.82 276.31 794.4 278.41 792.51 275.17 788.45 273.66 784.33 277.54 782.66 277.46 777.14 289.49 777.41 296.81 775.29 303.51 776.57 309.81 780.47 313.02 781.52 318.69 787.1 320.58 789.87 326.67 793.22 324.14 798.06 327.07 797.12 330.3 790.84 334.77 785.79 333.78 781.35 342.45 779.13 342.56 775.01 345.91 772.42 345.59 771.14 338.48 763.64 335.24 756.73 336.06 749.43 339.47 741.04 347.52 738.5 351.1 735.92 358.08 734.13 359.71 734.09 368.99 730.01 368.28 724.95 370.08 722.12 373.46 717.56 382.43 715.52 390.08 715.81 394.42 718.1 397.58 713.35 401.41 711.86 405.1 713.15 411.27 711.23 415.57 710.83 423.64 712.9 427.25 709.88 429.84 707.25 435.92 704.7 436.74 701.31 443.77 701.54 448.99 697.85 455.08 698.29 458.79 702.86 467.48 705.1 469.3 703.86 472.51 703.84 479.47 701.63 484.72 697.56 486.79 699.48 488.49 698.33 491.45 694.58 495.72 694.39 498.08 691.3 500.06 687.39 500.23 685.51 505.2 685.17 509.7 690.13 513.79 688.69 517.53 685.34 522.03 684.75 524.59 679.7 530.36 677.23 531.22 674.94 528.61 675.47 525.76 672.66 520.56 668.46 518.92 667.68 521.35 661.11 525.83 656.53 523.67 649.56 527.62 645.23 526.99 640.95 534.7 637.17 538.85 631.89 540.38 627.93 538.72 627.72 536.31 633.02 528.27 634.81 523.97 631.64 520.69 626.35 517.58 619.08 515.59 612.9 515.25 601.01 516.52 594.87 518.5 594.99 525.46 590.99 529.49 580.84 534.28 578.19 536.35 570.01 533.93 568.27 530.47 569.58 527.76 565.16 521.78 Z M 464.48 1 467.49 1.96 468.18 4.15 472.84 7.68 475.26 7.56 478.9 10.2 481.7 13.91 484.08 15.09 479.3 19.49 474.5 18.53 469.61 20.81 464.87 21.51 459.38 18.3 453.55 17.34 452.57 14.72 454.47 12.78 458.91 2.94 464.48 1 Z" fill-rule="evenodd"/>
</g>
</svg>