<?xml version="1.0"?>
<svg xmlns="http://www.w3.org/2000/svg" version="1.2" baseProfile="tiny" width="800" height="709" viewBox="0 0 800 709" stroke-linecap="round" stroke-linejoin="round">
<g id="4212908">
<path d="M 631.71 130.72 627.55 130.93 618.09 130.06 605.15 127.87 597.8 126.29 588.06 125.98 583.8 128.52 580.54 133.33 579.68 136.3 580 141.25 581.65 144.31 583.91 145.95 588.37 146.42 593.12 149.01 598.34 154.03 606.5 157.25 610.29 157.54 615.02 159.9 617.96 160.62 627.6 160.98 631.14 161.86 636.39 164.22 644.37 168.93 651.64 170.95 655.46 172.87 659.83 177.73 663.28 184.51 664.7 192.93 661.71 207.7 660.51 212.32 659.23 221.47 654.65 233.93 652.87 237.76 650.01 240.5 647.39 241.33 643.74 241.03 638.66 238.31 628.24 230.69 623.62 226.44 620.27 222.63 615.04 220.75 610.06 217.98 605.15 216.36 592.24 215.43 584.48 215.96 580.07 217.7 576.14 220.13 572.39 224.6 572.11 228.72 572.83 230.9 579.08 238.82 587.15 245.53 592.51 249.3 600.73 254.23 609.59 259.1 616.76 262.3 623.29 261.92 628.4 263.25 633.56 266.04 639.26 265.89 645.63 262.08 655.49 258.23 665.06 255.89 674.07 255.33 685.11 255.51 698.11 256.62 705.39 259.4 709.43 261.53 713.12 266.76 713.56 268.99 712.46 276.67 709.04 285.03 705.95 290.96 701.15 302.16 700.15 307.12 702.72 320.87 705.73 332.46 708.82 342.31 711.85 349.52 714.49 354.57 720.12 358.13 724.37 358.16 731 355.15 735.29 351 740.95 341.9 744.36 333.87 749.35 319.92 755.66 313.56 762.92 311.16 769.95 308.34 773.79 308.16 776.96 310.05 780.13 315.23 780.36 320.9 778.23 326.75 769.79 343.59 750.45 360.13 727.5 380.93 724.39 382.59 715.29 384.17 699.99 385.37 694.2 387.09 682.13 392.78 678.33 394.94 667.93 403.1 648.72 419.91 645.61 425.61 644.71 429.5 645.41 432.76 650.23 439.35 658.42 445.04 661.91 447.04 667.1 448.92 673.31 448.45 680.01 448.93 683.67 449.98 686.42 453.6 686.07 459.41 683.65 469.31 682.86 474.5 683.69 484.13 685.77 486.62 690.73 490.08 701.7 494.08 708.31 497.3 718.05 502.93 722.56 507.07 729.27 517.08 732.64 523.97 734.52 529.3 737.17 534.17 740.7 536.06 743.02 536.14 747.91 533.92 750.61 531 758.75 517.36 764.12 511.82 768.04 509.91 772.92 508.64 776.08 509.06 784.57 514.41 791.92 523.4 797.49 531.78 799 540.71 798.98 543.7 796.2 550.27 794.34 552.76 784.79 559.63 776.74 565 772.36 571.58 770.19 576.01 705.6 582.78 536.05 606.77 545.94 653.85 552.67 678.41 503.58 687.88 486.24 690.62 478.91 693.48 472.49 698.55 470.53 698.87 467.32 696.81 462.45 695.69 455.91 696.4 454.07 697.88 448.07 699.12 446.58 701.57 447.65 705.27 387.71 704.85 392.02 694.1 315.73 693.04 315.38 705.21 238.42 708 238.22 646.53 233.41 646.45 228.23 647.98 225.56 647.64 220.52 642.69 217.28 640.22 213.51 638.72 207.98 638.65 202.94 637.47 200.91 636.04 195.17 634.49 190.83 636.28 184.91 635.96 180.97 639.24 177.37 638.91 172.57 641.09 169.46 641.76 166.03 640.9 164.01 644.61 164.45 647.05 163.2 648.77 158.07 649.17 153.36 648.51 148.08 649.44 138.5 650.33 133.5 648.06 129.39 647.52 124.42 648.35 119.32 650.35 113.33 651.93 108.52 652.64 100.87 652.7 88.36 649.44 83.95 646.67 81.79 642.33 80.17 632.4 81 629.35 85.24 619.8 86.57 614.34 89.17 609.18 90.1 605.95 89.82 602.58 87.57 599.87 82.71 596.9 59 590.78 55.55 588.65 54.58 583.96 52.82 583.17 46.21 573.1 45.8 568.76 47.09 566.74 53.44 561.26 59.68 558.2 69.39 554.62 77.6 551.09 81.41 547.25 81.34 543.8 75.37 538.95 72.04 535.16 68.14 533.56 65.5 534.37 53.46 540.12 47.74 541.42 45.04 540.43 44.23 538.46 44.97 534.51 44.46 531.07 45.25 525.52 43.73 518.26 40.71 511.57 34.88 507.04 27.81 504.63 14.96 501.04 10.88 497.9 9.07 495.32 9.02 488.23 10.57 479.8 10.03 473.26 7.99 469.98 1 455.35 2.37 451.01 4.23 450.45 11.19 453.45 22.42 462.67 25.88 465.1 35 468.21 41.83 468.16 50.57 466.05 53.52 463.82 56.06 460.52 57.62 456.74 57.49 453.35 56.23 451.14 52.62 449 34.51 440.18 28.16 435.57 25.78 429.92 25.93 421.45 26.87 413.48 28.57 411.6 34.18 410.23 38.45 407.82 40.49 405.24 39.08 401.44 39.8 399.44 48.33 399.7 52.06 402.18 55.66 406.05 64.09 408.8 67.11 407.81 69.72 405.45 72.53 404.49 77.46 406.52 83.5 407.26 89.56 407.22 95.69 404.2 101.28 399.09 106.3 395.33 107.99 392.38 108.31 389.18 107.76 381.48 108.43 370.8 108.23 362.1 106.01 353.37 102.13 351.89 94.77 361.87 92.48 366.63 87.13 367.98 83.78 367.01 77.8 359.04 76.69 356.77 73.72 355.79 64.56 356.67 62.14 355.48 59.69 349.53 60.52 344.92 60.08 342.94 57.21 339.59 53.52 334.05 52.4 330.79 52.61 324.49 55.08 324.04 58.53 326.06 62.32 328.01 71.6 330.96 85.43 327.7 94.37 330.97 100.82 330.29 102.7 328.49 102.09 325.77 99.24 320.69 98.16 316.82 98.85 313.77 96.66 307.47 98.49 305.31 101.95 303.16 101.62 300.79 98.3 298.31 96.69 295.92 98.69 293.75 103.71 293.94 108.61 295.18 113.86 295.38 122.49 292.72 122.99 290.94 126.67 288.85 132.91 286.77 135.23 281.98 137.12 281.57 143.3 283.43 145.04 285.47 149.77 287.13 152.69 287.42 157.93 286.21 161.55 286.56 167.23 285.9 170.66 288.41 178.71 292.58 182.66 293.93 185.7 291.01 188.09 290.56 187.99 288.22 194.67 283.41 199.36 281.41 201.09 278.96 204.55 277.65 209.69 274.3 216.71 271.41 219.96 271.35 224.47 272.69 229.12 271.16 237.23 271.23 243.51 269.99 246.75 270.81 250.59 274.16 254.4 275.8 257.52 276.14 260.33 274.01 267.45 273 270.58 270.88 275.02 271.03 279.74 262 281.43 261.09 283.18 255.35 286.72 250.22 285.24 245.96 286.67 241.91 291.52 237.91 292.7 234.61 296.32 233.88 299.21 220.66 300.56 218.3 299.18 210.33 295.8 207.05 294.93 204.29 285.22 195.83 280.7 192.87 278.77 190.55 280.65 182.14 261.45 185.55 236.85 142.72 256.38 127.21 250.87 119.57 275.26 105.03 278.94 107.51 280.35 109.51 286.63 112.54 294.48 113.43 299.86 115.03 302.75 114.28 310.99 113.82 318.95 116.71 322.11 117.12 327.3 119.44 330.44 118.97 333.74 119.62 339.99 114.23 348.13 112.27 352.66 112.17 358.26 108.65 358.32 106.22 360.68 103.17 365.48 99.11 374.55 97.45 376.18 94.85 383.92 92.7 385.44 94.15 388.29 91.91 394.35 93.24 398.8 85.63 401.88 84.74 404.61 81.54 409.96 73.48 410.4 71.5 414.85 64.77 417.7 64.02 415.75 61.6 417.22 59.08 422.01 58.67 425.25 56.84 427.79 57.62 430.9 55.09 441.61 53.69 444.04 52.26 446.66 52.82 453.24 52.89 465.15 46.72 471.06 46.93 473.76 44.21 472.41 40.68 472.42 34.62 474.08 32.55 473.41 26.28 477.88 21.63 481.27 14.68 493.66 15.48 498.85 14.16 501.75 12.73 507.04 4.23 509.58 1.85 512.74 1 516.62 2.91 523.09 12.83 525.93 18.15 529.33 26.66 533.89 35.63 534.99 38.98 531.93 42.53 528.53 43.28 517.61 43.91 512.88 44.69 511.16 47.77 514.39 52.83 516.82 54.14 522.44 55.36 528.28 57.4 538.59 59.39 542.15 59.27 545.12 60.72 549.19 66.98 554.63 73.52 564.84 78.63 566.58 80.39 568.96 85.67 573.39 91.18 576.28 93.93 578.33 94.6 581.55 92.88 586.52 87.07 587.48 82.29 591.6 79.8 596.03 81.84 598.38 84.2 603.15 92.28 607.84 104.33 613.11 111.21 617.36 113.4 622.91 115.19 629.51 115.42 632.54 114.43 637.06 111.79 643.03 104.39 645.37 103.52 647.18 105.78 646.44 107.88 647.47 113.17 645.32 115.23 640.37 124.54 636.65 128.43 631.71 130.72 Z"/>
</g>
</svg>