<?xml version="1.0"?>
<svg xmlns="http://www.w3.org/2000/svg" version="1.2" baseProfile="tiny" width="800" height="905" viewBox="0 0 800 905" stroke-linecap="round" stroke-linejoin="round">
<g id="4212403">
<path d="M 684.83 110.64 686.77 114.06 694.24 117.65 696.87 119.45 702.13 125.07 704.26 127.89 706.58 129.69 716.44 132.18 720.77 132.72 729.93 132.6 735.28 132.9 742.24 135.16 747.67 139.1 748.96 142.03 749.5 147.2 747.91 153.56 748.72 155.9 753.64 163.54 762.75 175.48 767.35 179.5 774 184.5 777.21 186.14 775.11 191.87 774.65 195.4 775.11 198.54 777.11 201.1 781.43 203.17 785.26 207.76 785.42 215.17 789.65 224.77 790.24 227.7 792.2 229 793.79 231.8 796.74 234.5 798.32 239.58 799 244.18 796.88 247.84 791.18 249.03 790.09 250.5 791.87 254.06 790.18 256.33 783.41 257.06 781.79 261.31 778.21 262.39 772.44 267.4 765.42 269.75 759.37 269.54 756.77 267 754.85 267.07 753.61 270.79 754.43 276.79 751.71 281.43 749.34 282.64 746.18 285.45 746.94 287.49 743.63 291.63 747.41 297.39 748.19 301.86 751.62 308.23 756.37 313.72 759.36 315.62 760.09 317.64 759.35 325.19 757.01 330.52 754.32 333.67 752.58 338.5 750.42 342.09 749.5 346.13 750.18 351.32 749.89 358.39 751.55 360.08 755.67 360.55 756.4 362.34 755.07 368.22 752.5 374.01 752.53 376.85 753.52 382.98 747.61 384.77 745.72 383.11 741.54 386.47 739.43 385.29 732.86 383.19 731.04 385.33 726.97 386.14 724.54 387.39 719.35 385.42 717.2 385.79 716.27 384.09 718.13 380.57 717 378.55 711.03 378.61 705.65 377.97 700.85 376.41 691.9 376.37 689.91 377.1 687.11 379.95 680.89 377.58 677.44 377.68 675.08 379.52 671.16 380.63 658.05 380.83 570.38 438 493.76 487.97 447.31 555.38 387.3 642.48 327.88 728.7 210.92 898.45 202.24 902.19 198.09 898.41 189.64 901.38 188.14 902.82 183.09 902.81 179.77 904 177.43 903.76 175.04 901.79 176.79 898.85 175.23 896.69 173.5 898.32 171.88 896.5 173.68 894.61 172.96 892.4 168.2 893.64 169.7 888.87 169.11 885.38 167.71 883.19 164.04 881.2 164.59 878.97 161.94 877.65 162.42 874.99 161.14 874.34 155.02 874.26 152.32 873.09 150.89 870.82 150.24 867.2 148.23 862.86 143.67 862.07 141.8 858.52 144.62 854.35 139.64 854.97 137.28 854.3 135.19 850.68 138.73 848.2 134.95 848.1 134.11 846.17 137.83 843.65 137.2 840.99 137.93 839.19 141.1 836.66 142.47 834.28 141.49 825.25 181.89 797.88 180.65 795.36 181.29 785 179.48 783.85 180.68 780.18 176.4 777.69 176.37 772.69 175.69 769.71 177.68 767.05 175.83 762.69 175.89 755.14 172.77 750.74 169.9 745.48 165.56 743.69 162.82 740.93 160.85 740.98 157.83 742.38 155.3 741.83 153.13 738.73 153.35 735.91 151.46 734.77 153.47 724.69 153.5 714.48 154.99 712.74 161.32 708.46 165.02 704.57 168.54 702.06 171.67 698.46 173.74 694.75 174.16 691.8 172.88 689.19 171.43 688.53 170.01 685.13 167.23 682.38 164.54 678.29 164.86 675.25 166.75 669.74 174.6 659.76 150.49 643.48 133.01 651.18 117.64 634.13 107.78 643.05 88.2 623.12 90.45 621.47 54.88 586.83 58.41 584.72 51.78 584.38 48.02 581.24 45.52 575.53 47.21 570.61 45.78 567.32 42.07 564.41 39.61 563.74 31.62 563.34 21.9 563.38 21.46 561.12 18.02 558.48 17.47 555.8 17.54 551.42 16.02 548.68 15.07 542.12 15.37 539.47 13.63 536.63 13.56 532.31 11.89 528.05 8.49 529.99 5.85 525.05 7.91 519.37 2.38 516.81 1 513.68 2.08 509.62 5 506.31 9.62 506.45 11.36 503.73 11.1 493.1 12.32 490.77 13.25 486.47 18.28 483.81 19.61 482.46 21.54 477.71 23.18 476.49 29.87 474.6 31.77 473.34 32.87 471.12 35.26 469.35 37.87 468.79 38.27 465.09 41.67 460.68 44.15 458.44 44.95 455.52 44.14 451.36 44.91 448.7 46.39 447.87 47.24 444.85 45.89 441.34 46.46 438.29 48.39 435.09 47.92 431.58 51.46 427.05 54.6 426.25 58.1 427.73 62.2 423.61 66.84 422.31 68.76 420.81 72.23 419.71 76.21 417.69 79.33 414.83 85.88 413.72 87.9 412.87 91.03 410.23 96.11 404.35 98.44 400.61 99.65 399.85 113.11 399.67 115.84 399.04 121.27 396.61 125.38 393.77 135.24 388.82 142.33 386.55 148.15 382.61 151.17 381.03 152.21 378.93 151.9 375.56 149.56 373.07 148.09 369.85 149.54 367.27 148.28 364.51 145.66 362.48 144.89 357.06 142.33 354.54 142.64 345.76 145.52 342.67 146.64 339.04 148.96 336.51 152.82 334.79 155.36 330.84 158.06 328.29 161.37 328.06 163.51 325.92 170.71 323.61 174.51 321.49 177.57 321.69 182.69 320.02 187.09 319.74 188.22 318.57 195.32 317.19 199.29 316.91 205.47 314.34 206.51 311.65 206.4 308.51 207.69 299.72 208.72 294.98 211.36 292.86 214.65 293.22 215.59 296.87 217.92 298.94 222.75 299.73 226.28 302.1 227.97 301.74 231.2 303.78 235.19 303.93 237.86 306.68 241.18 307.61 247.08 307.09 250.71 303.04 253.38 301.13 250.04 299.91 247.24 298.01 246.35 295.57 246.35 287.93 244.64 284.19 243.8 280.23 245.86 275.95 247.23 269.64 247 268.05 248.23 262.84 252.48 258.06 255.16 257.05 257.35 253.94 259.26 253.58 260.02 251.17 263.11 250.98 264.86 247.6 266.66 241.92 269.25 241.15 271.35 238.42 276.2 233.9 277.98 231.5 283.03 226.89 283.91 222.17 278.77 220.35 278.95 213.95 281.21 211.08 283.95 204.72 284.4 202.71 287.12 200.26 295.24 198.89 301.34 199.54 304.33 198.59 305.91 197.09 309.9 195.65 317.09 195.85 325.44 194.34 328.71 194.54 335.07 197.97 339.77 199.66 344.51 199.5 354.25 200.37 357.54 199.83 361.56 194.68 363.59 191.17 368.37 189.99 370.72 190.42 372.53 188.25 373.82 183.05 376.78 179.48 378.12 176.71 378.12 173.36 379.19 170.85 382.25 168.28 390 163.68 397.2 160.06 401.72 157.07 410.06 153.41 414.69 151.89 409.63 148.92 403.36 144.34 400.08 139.39 397.37 134.42 393.42 133.33 390.7 130.93 388.12 130.79 382.89 133.7 382.71 132.34 385.58 130.85 386.6 128.25 385.66 124.84 383.51 122.24 382.46 118.14 379.35 114.19 376.04 111.94 374.34 106.75 374.19 103.49 372.82 93.67 371.81 92.13 366.19 91.26 363.48 87.29 361.06 84.74 356.6 83.31 355.08 80.53 354.66 76.34 355.28 70.15 354.34 62.39 354.66 52.91 450.87 1 448.9 7.22 447.17 11.21 446.89 15.01 454.33 19.21 454.27 24.33 455.41 28.22 454.06 30.28 450.84 31.96 448.02 34.78 445.76 40.08 444.7 44.03 445.98 51.1 445.37 53.85 442.29 58.63 441.56 61.63 442.73 68.34 444.27 70.66 447.65 73.94 447.85 78.38 447.22 80.73 448.29 82.22 455.11 84.21 462.05 83.79 465.48 84.61 467.11 87.14 464.99 89.54 463.76 94.77 465.56 100.14 468.46 100.57 470.14 98.54 475.73 96.04 480.41 90.89 483.8 89.41 483.8 92.55 484.83 96.39 486.6 99.97 487.85 104.54 489.25 107.28 490.08 110.9 580.11 73.37 579.82 68.71 580.23 65.22 581.51 61.6 580.67 58.09 581.25 55.27 583.99 53.69 587.08 55.08 593.65 52.84 598.17 51.95 603.68 52.73 605.37 54.36 610.01 62.24 617.25 67.87 625.33 70.98 627.91 72.46 633.75 80.36 635.83 81.8 643.36 84.8 644.98 85.87 646.92 89.37 647.6 93.37 646.18 95.81 645.7 99.07 646.28 101.62 652.47 102.52 660.29 102.08 664.81 103.43 670.01 104.06 678.05 107.32 684.83 110.64 Z"/>
</g>
</svg>