<?xml version="1.0"?>
<svg xmlns="http://www.w3.org/2000/svg" version="1.2" baseProfile="tiny" width="800" height="871" viewBox="0 0 800 871" stroke-linecap="round" stroke-linejoin="round">
<g id="4212106">
<path d="M 678.03 276.79 675.84 280.72 674.75 282.03 670.73 283.5 669.43 284.43 669.62 287.12 670.35 287.85 672 292.34 673.73 294.76 673.54 301.65 675.43 301.82 678.09 301.14 680.27 300.03 681.34 298.15 684.1 298.42 687.37 299.45 689.5 300.91 691.33 301.25 695.18 303.64 695.09 306.41 693.76 307.85 694.46 309.85 696.41 313.48 695.32 315.48 691.21 315.3 686.15 315.58 677.98 314.2 675.34 314.07 669.98 314.83 667.47 315.48 665.65 316.64 665.41 318.83 663.54 320.59 661.66 323.57 661.55 325.51 664 327.21 666.92 328.25 672.76 330.77 682.02 339.46 684.1 340.72 690.6 341.82 696.02 343.08 700.58 346.6 700.5 349.89 696.66 352.73 694.4 353.48 693.09 355.3 688.99 357.53 685.41 360.09 685.81 362.32 688.67 364.98 690.43 368.23 692.61 368.71 695.39 370.65 695.43 373 693.07 376.06 693.8 377.69 692.48 380.32 687.93 382.27 682.08 385.32 682.04 386.86 684.99 388.19 688.77 391.26 689.54 393.14 692.1 394.41 700.37 395.53 705.83 395.57 709.19 394.31 711.17 392.42 712.98 388.86 714.48 387.28 716.09 384.46 717.75 382.71 720.95 383.36 722.7 385.45 723.17 388.98 723.83 390.56 723.46 393.14 723.69 396.7 722.89 402.86 721.74 405.55 719.4 409.83 717.52 412.3 713.68 413.69 710.54 415.45 710.39 418.42 714.88 422.44 714.51 423.32 712.19 424.7 709.94 425.44 706.46 427.32 706.76 428.75 709.7 430.84 711.62 431.57 720.07 433.31 723.33 433.79 732.03 433.49 734.59 432.91 739.14 432.55 744.21 431.51 750.43 434.58 754.35 439.02 755.39 441.89 757.75 445.38 758.35 445.4 765.09 442.13 766.7 443.16 765.93 447.57 764.96 450.25 765.14 451.43 766.56 453.15 771.5 456.73 775.46 457.95 779.74 460.29 781.45 463.61 781.7 466.87 780.88 467.74 775.65 469.37 771.42 469.66 770 470.17 766.4 470.33 760.87 467.5 757.91 466.53 754.02 466.04 752.49 466.8 748.12 469.8 744.1 469.88 742.61 471.08 740.52 474.65 740.36 476.78 741.45 482.93 741.96 484.55 743.21 485.76 748.15 487.01 754.86 489.35 757.74 491 760 493.57 762.86 497.73 764.52 501.12 770.15 510.37 776.95 518.77 774.31 523.8 771.92 529.72 769.88 537.29 768.97 544.12 769.54 552.33 771.61 560.65 774.21 567.33 777.34 574.8 780.53 582.88 789.13 595.29 792.5 603.09 793.98 609.36 795.32 617.84 795.84 625.94 797.13 632.93 798.66 639.56 799 647.88 798.98 656.78 798.13 661.81 796.57 666.88 794.18 673.87 790.05 680.38 785.52 685.83 781.28 689.69 774.49 693.28 765.97 697.08 757.93 699.07 750.3 700.38 739.26 702.06 731.4 703.1 715.14 706.4 697.45 710.87 688.64 713.23 670.23 719.07 661.33 722.07 654.36 725.49 647.39 728.6 641.36 731.88 635.22 736.15 628.54 739.53 623.42 741.85 618.23 744.59 612.1 746.27 605.54 747.47 601.85 747.31 596.2 745.49 589.49 742.56 582.95 738.52 578.47 733.16 576.1 728.97 571.72 719.68 570.72 714.91 570.08 709.83 567.86 697.29 566.68 692.79 565.4 685.26 563.81 679.38 560.92 669.46 559.45 665.22 557.56 658.96 554.2 649.96 550.83 642.64 548.99 639.03 544.73 632.24 542.48 629.79 539.21 626.93 534.22 623.79 531.13 622.24 524.54 620.69 520.13 620.26 515.97 620.3 506.5 622.5 500.78 624.39 491.84 628.61 484.08 633.51 480.38 637.48 477.21 641.92 475.06 645.62 472.48 652.55 471.57 657.53 470.09 670.32 470.23 683.04 468.97 704.38 467.87 712.22 466.59 720.05 464.97 725.82 461.59 740.02 458.88 749.23 457.13 754.42 454.86 758.91 452.46 764.26 447.37 772.69 444.32 776.02 440.14 778.76 432.03 783.19 422.97 786.66 418.26 787.55 413.44 788.01 408.91 787.95 403.08 787.45 396.62 786.53 391.87 784.35 384.92 780.03 372.33 771.42 355.28 760.77 348.22 755.93 340.55 750.98 333.37 745.61 323.17 739.56 309.75 731.15 294.01 722.41 286.58 718.52 280.82 716.86 275.82 717.06 256.37 720.18 251.61 721.54 246.66 723.96 243.19 726.86 239.07 729.66 230.65 736.09 224.5 740.58 211.28 749.52 204.83 753.47 199.82 756.9 190.69 761.56 181.9 765.68 173.55 769.94 165.56 773.46 158.52 776.2 148.8 779.45 141.89 781.97 134.56 783.85 127.7 786.16 117.15 789.25 109.03 792.87 100.03 796.66 94.14 800 84.58 807.81 80.75 811.93 72.79 821.07 68.54 826.35 65.78 831.69 62.95 839.15 60.73 843.94 56.78 850.33 51.86 856.62 47.49 861.96 41.94 866.12 37.58 868.86 30.6 870 22.27 869.23 17.22 867.25 11.16 864.42 7.24 861.01 4.58 856.77 2.76 851.94 1 846.05 2.13 833.29 3.05 827.99 4.17 818.57 5.51 810.78 6.85 804.17 8.69 799.67 11.51 794.44 17.44 786.25 19.72 782.76 26.12 776.32 30.38 770.72 38.94 760.53 43.81 751.67 48.08 740.56 56.4 718.18 60.61 706.31 62.84 700.7 70.2 685.25 76.83 673.2 82.54 661.85 84.94 656.72 90.18 643.5 93.26 632.17 94.55 622.85 93.98 618.61 92.7 611.88 90.4 606.26 87.39 600.95 84.26 596.15 92.03 602.14 97.88 605.04 100.16 605.89 104.35 606.85 110.01 607.38 113.67 606.76 118.19 604.39 120.03 604.81 124.57 609.3 125.84 611.85 125.39 615.42 125.77 617.98 128.44 622.76 130.3 624.62 131.6 625.09 138.68 624.52 140.05 623.28 141.03 621.25 141.3 614.68 141.27 610.58 142.26 605.64 143.76 601.93 145.98 601.32 149.93 599.07 150.26 597.54 149.26 593.99 147.3 593.13 143.14 594.13 140.06 595.4 134.39 596.39 131.24 596.09 127.65 594.22 126.34 592.66 126.54 591.24 131.33 587.18 138.26 579.16 138.14 577.33 135.42 572.95 134.99 571.64 135.07 568.59 133.89 561.82 133.24 559.58 133.16 557.13 133.97 554.2 135.7 553.16 141.78 553.06 146.45 553.9 148.39 555.45 149.18 557.21 151.98 561.84 161.09 563.22 161.62 562.02 160.88 559.03 159.14 555.96 156.82 549.63 156.4 546.65 156.77 545.19 158.91 543.66 166.94 541.75 171.83 540.15 173.77 539.17 177.82 538.77 181.89 536.32 181.75 534.64 178.21 532.06 176.79 531.74 172.34 531.86 168.22 532.74 165.72 532.45 160.93 529.56 160.03 528.11 160.38 526.58 163.04 524.51 166.65 524.24 169.98 523.18 174.99 522.1 178.43 521.08 181.83 519.57 182.93 517.28 182.65 513.81 180.54 510.08 177.82 506.21 177.55 504.2 178.25 502.85 180.52 502.31 186.23 503.52 187.66 502.92 190.49 503.2 195.46 504.74 196.95 505.47 197.19 506.78 195.37 509.08 197.75 510.23 200.2 513.52 202.65 514.91 207.57 515.67 209.36 514.8 209.98 513.29 209.36 509.15 209.73 508.12 212.32 507.75 216.1 508.6 219.4 512.04 222.08 512.46 223.9 511.64 227 509.41 229.36 506.77 231.01 505.83 230.01 500.9 228.65 496.77 227.08 493.74 225.55 492.44 221.56 491.1 219.79 489.26 218.34 488.65 217 486.98 218.54 482.88 219.75 477.86 219.41 476.07 217.14 473.2 214.72 466.41 215.55 464.89 218.19 464.87 223.84 464.3 225.27 463.63 226.5 461.93 230.45 459.38 233.9 458.79 236.19 461.41 240.25 463.97 242.48 466.71 246.14 470.46 248.74 472.13 250.41 472.02 252.01 470.66 254.27 467.46 254.77 466.15 254.96 463.04 251.61 459.53 250.85 455.67 252.54 451.71 252.94 449.15 256.1 446 257.39 445.27 260.52 445.97 264.23 447.77 268.41 450.56 275.19 452.19 278.09 452.56 282.17 450.85 285.48 447.72 287.16 443.77 286.7 440.97 284.78 435.98 284.48 432.8 283.71 431.77 284.01 428.55 283.46 427.39 284.04 425.08 283.67 422.61 282.92 421.02 283.01 419.35 284.6 415.63 284.69 413.95 281.93 409 279.03 404.91 279.49 402.23 282 400.87 285.7 399.45 288.82 397.3 291.21 394.75 293.73 393.73 295.64 393.85 299.66 395.21 306.6 396.25 311.76 397.22 313.14 397.18 318.33 397.92 323.47 397.97 326.6 397.7 331.6 396.78 333.55 395.08 333.13 392.8 331.71 390.4 329.32 388.07 328.14 384.56 328.46 382.02 328.37 377.91 329.95 373.84 335.62 368.86 336.87 364.06 336.52 360.33 335.24 358.96 333.72 358.78 331.58 360.31 326.77 365.18 322.64 366.23 318.43 366.48 316.21 365.29 315.21 365.54 312.63 364.11 310.26 361.76 309.43 360.13 309.28 354.53 309.65 347.68 306.21 344.8 305.57 343.57 303.09 341.62 302.88 340.34 301.49 337.95 301.03 336.17 298.4 334.32 297.12 332.43 297.49 331.38 302.58 326.31 307.7 325.99 310.16 326.68 314.85 327 321.19 328.01 323.65 329.23 324.35 291.07 346.85 213.33 352.87 192.82 361.03 165.35 367.11 145 354.11 141.74 372.19 81.37 373.22 77.64 410.73 82.18 408.68 72.04 416.42 23.92 463.76 23.91 468.61 27.08 472.43 30.87 472.03 32.47 474 33.8 473.91 34.69 475.85 35.54 479.5 35.1 482.19 37.42 484.88 38.38 486.95 40.4 491.13 41.6 493.5 41.34 515.82 26.52 520.66 23.17 532.04 15.66 567.51 1 566.48 2.46 569.58 6.45 571.92 7.56 574.75 12.31 578.17 14.14 580.19 15.61 583.4 17.21 587.2 22.83 585.61 25.41 585.71 28.38 583.45 34.32 583.89 35.47 587.35 38.54 589.37 37.02 591.32 38.9 591.55 39.83 593.67 41.56 595.74 42.33 594.2 45.21 595.05 46.25 593.78 49.15 591.5 48.8 591.4 51.21 589.61 53.82 590.39 55.66 588.54 57.56 586.3 57.3 586.28 59.06 585.2 60.14 583.45 63.8 584.33 66 583.22 68.17 583.52 68.95 585.79 70.1 587.18 72.12 588.91 73.42 589.18 75.42 592.39 76.08 594.6 78.06 598.94 78.87 600.2 79.81 599.83 82.37 598.55 83.43 601.37 84.73 605.2 86.98 606.82 87.06 609.16 84.58 611.3 87.45 611.01 90.49 611.36 91.26 615.31 95.56 615.83 97.21 619.41 98.32 623.03 100.37 623.87 102.36 623.09 104.81 621.42 107.09 621.37 110.16 622.73 111.93 623.11 113.38 621.2 114.68 621.79 116.43 623.05 117.87 623 122.43 622 126.28 621.42 127.24 618.97 128.47 616.17 128.75 612.33 129.9 610.06 129.99 607.55 129.31 602.05 126.07 597.2 124.61 594.87 125.04 593.48 127.23 593.94 128.64 596.27 130.15 598.95 133.14 601.5 134.68 603 134.76 605.47 136.6 605.62 141.1 607.23 142.45 608.31 141.9 610.49 144.16 612.84 144.84 612.93 148.19 611.61 152.29 607.91 153.06 604.71 151.42 602.19 151.22 601.16 152.56 597.97 153.66 592.91 154.41 590.87 155.69 595.17 161.7 598.16 163.01 602.72 162.97 606.15 163.35 608.77 165.07 609.63 166.35 609.61 168.87 610.6 170.02 609.82 173.02 606.92 178.93 605.89 180.47 603.89 181.96 603.74 183.96 605.03 186.46 607.69 188.11 609.02 188.31 617.61 187.5 619.95 186.85 623.32 186.69 624.72 189.71 623.52 197.18 621.46 200.42 620.19 200.78 617.73 205.88 617.74 208.44 619.73 209.49 622.62 212.08 623.13 213.49 622.27 214.4 619.07 214.89 611.85 215.03 606.75 221.29 606.43 223.29 609.59 224.69 618.07 224.49 620.86 224.2 624.52 224.36 625.8 225.45 630.65 234.14 630.41 236.11 634.49 240.75 635.55 241.3 640.67 241.46 644.53 240.79 645.67 241.27 646.54 244.95 647.79 248.42 648.01 250.63 648.96 253.63 648.85 258.43 649.73 259.22 654.62 259.71 655.16 260.27 653.29 264.32 652.88 269.18 653.65 270.2 655.49 270.4 659.56 267.62 662.6 264.5 665.47 265.18 670.12 266.77 672.94 268.22 674.24 269.62 676.54 273.31 678.03 276.79 Z"/>
</g>
</svg>