<?xml version="1.0"?>
<svg xmlns="http://www.w3.org/2000/svg" version="1.2" baseProfile="tiny" width="800" height="855" viewBox="0 0 800 855" stroke-linecap="round" stroke-linejoin="round">
<g id="4212601">
<path d="M 767.82 1 785.89 337.39 799 481.47 664.23 499.23 470.81 689.99 455.89 702.28 449.98 703.66 444.94 707.37 441.82 713.44 443.75 717.69 446.06 719.71 445.51 722.74 442.88 724.51 437.42 723.64 429.67 719.92 422.93 718.44 421.65 721.13 422.6 726.54 417 732.73 416.11 736.37 420.08 741.17 427.11 742.88 428.92 745.23 428.14 749.51 426.26 751.52 413.97 759.37 413.77 761.32 416.61 764.97 412.66 767.48 405.7 764.69 402.54 765.13 400.47 771.52 400.42 775.45 402.06 780.91 404.77 784.46 407.01 790.21 411.42 796.04 409.95 800.61 401.66 807.38 393.56 810.4 391.14 810.17 384.27 805.1 378.86 804.22 371.26 805.46 370.65 808.83 373.43 813.99 377.37 818.1 382.81 821.1 386.42 824.25 390.96 830.29 395.36 841.88 405.58 850.5 405.17 853.19 402.18 854 389.65 852.22 381.79 850.14 376.57 849.51 369.06 841.97 361.48 832.58 314.12 779.84 315.39 774.83 314.34 768.55 311.89 766.39 299.85 752.71 324.32 737.1 278.28 683.23 283.54 681.9 291.64 678.41 302.15 676.96 224.64 645.78 249.01 612.77 158.28 611.94 135.91 568.31 139.56 568.1 144.03 565.56 145.85 558.63 107.56 428.62 117.26 408.04 118.01 404.35 124.05 391.38 123.8 387.65 120.79 384.59 115.58 373.62 115.44 368.72 110.08 364.87 109.47 358.24 106.02 352.18 95.38 344.13 90.44 339.22 86.81 333.03 79.36 328.97 76.7 326.11 73.86 325.4 69.06 321.84 62.49 318.92 59.48 315.32 51.41 310.31 45.82 308.64 36.77 303.73 29.14 297.59 21.66 293.14 13.82 285.4 7.22 269.4 4.58 267.56 3.88 260.79 1 257.44 6.05 254.56 10.85 249.55 31.94 237.36 33.74 233.96 34.25 228.21 32.12 220.49 28.64 214.34 24.7 212.47 18.82 208.2 18.33 205.58 21.13 198.59 24.16 197.24 29.17 198.62 47.04 201.54 51.99 204.17 60.87 206.7 67.8 207.74 75.01 207.77 83.32 205.65 90.53 200.68 104.57 185.88 110.38 172.99 114.5 171.53 120.04 172.25 127.6 178.82 138.79 185.66 147.28 188.62 154.72 185.46 157.72 181.97 159.93 176.99 160.97 169.88 162.46 165.3 163.41 158.58 162.02 155.35 161.54 147.02 163.67 137.2 167.62 134.2 176.12 132.7 189.04 127.25 190.96 119.94 195.19 112.39 197.78 110.45 198.78 100.96 197.94 98.53 193.29 96.67 188.85 91.04 186.22 90.39 174.07 90.58 168.88 89.26 162.38 84.42 155.68 73.98 157.01 70.34 161.76 66.13 171.19 59.48 183.39 47.53 188.05 46.02 203.69 51.2 209.37 58.88 210.57 61.55 214.87 64.74 222.79 67.09 225.93 64.48 229.74 56.47 232.44 52.88 233.16 44.52 230.39 38.79 231.78 31.76 235.72 27.27 239.67 26.37 248.63 27.45 255.03 26.72 259.13 29.14 259.54 31.52 266.25 41.86 272.81 47.07 278.47 48.45 294.97 44.98 299.5 44.94 308.88 46.84 313.77 49.2 317.59 49.45 319.87 46.45 320.28 40.72 317.68 31.04 318.91 28.37 324.94 30.41 326.73 33.21 336.81 39.14 348.41 43.81 355.33 40.14 360.43 35.09 362.93 33.9 369.45 35.96 376.86 45.7 380.13 49.27 385.92 50.18 391.58 49.82 399.39 47.58 407.92 50.03 412.08 53.26 412.55 55.45 407.62 60.64 402.62 69.7 402.73 74.65 405.31 82.05 407.97 85.19 414.31 86.05 427.69 84.85 442.16 86.3 449.21 88.6 455.92 92.46 461.04 98.51 466.12 103.1 469.39 108.09 475.27 111.45 476.22 114.51 474.64 120.19 475.73 126.65 480.5 129.88 484.43 130.73 502.69 126.87 509.87 128.02 512.12 138.15 517.49 144.87 522.07 147.95 530.61 151.02 538.8 152.17 545.07 151.8 551.23 152.33 556.82 150.81 562.11 153.06 566.18 150.78 564.83 144.78 564.49 137.51 565.82 130.41 570.02 131.53 574.81 134.86 576.98 134.08 584.26 125.92 584.59 116.32 587.51 108.53 590.21 106.55 596.94 106.11 602.63 109.63 608.55 110.71 608.8 108.24 606.68 100.17 610.58 98.26 621.83 98.45 623.51 94.92 620.77 92.85 623.13 89.22 626.97 87.23 628.57 82.49 624.14 76.34 624.01 73.54 629.67 67.52 633.03 68.93 639.69 74.17 643.88 78.56 648.42 79.42 649.89 76.83 654.74 74.07 656.5 65.79 660.02 62.78 664.65 62.03 672.43 63.12 680.1 63.41 684.97 66.07 688.64 64.83 690.58 61.98 690.1 57.71 686.68 52.98 687.4 51.09 693.49 48.24 703.17 46.51 711.77 43.25 714.66 40.73 725.37 39.84 733.49 36.82 735.99 30.06 739.3 26.21 743.56 23.56 745.82 20.5 750.08 22.22 753.58 21.47 756.76 18.52 758.73 8.63 760.31 5.97 767.82 1 Z"/>
</g>
</svg>