<?xml version="1.0"?>
<svg xmlns="http://www.w3.org/2000/svg" version="1.2" baseProfile="tiny" width="800" height="678" viewBox="0 0 800 678" stroke-linecap="round" stroke-linejoin="round">
<g id="4212304">
<path d="M 796.33 320.35 796.62 321.28 798.27 320.19 799 320.83 797.57 323.2 797.33 327.77 796.47 330.42 795.64 331.57 794.55 331.9 792.47 330.84 791.69 328.78 790.83 328.57 790.29 327.11 789.64 322.19 788.68 319.41 786.53 317.28 785.68 315.91 785.54 314.22 785.99 312 787.41 309.55 789.5 309.2 791.73 309.46 792.91 310.1 794.22 311.98 794.16 314.51 794.47 316.9 795.74 318.46 796.33 320.35 Z M 692.33 247.35 691.53 247.94 690.02 249.95 687.4 251.85 685.13 253.75 682.64 256.85 680.94 257.98 678.4 260.66 676.63 261.87 669.93 268.2 662.79 275.93 660.39 278.04 659.31 279.27 658.47 280.91 656.85 282.13 655.74 283.77 653.06 285.97 652.41 287.21 651.35 288.1 650.59 289.48 648.93 290.65 647.92 291.89 646.44 294.38 643.75 297.15 640.98 301.04 640.12 301.98 638.76 304.23 637.55 305.01 634.3 309.89 632.98 310.99 630.04 315.79 628.92 316.81 627.67 319.2 626.41 320.37 623.68 324.76 623.03 326.35 622.07 327.18 620.27 330.22 619.04 332.88 616.8 336.49 615.98 338.65 614.68 339.93 611.36 341.57 609.48 342.15 607.81 346.6 605.07 347.34 602.34 347.42 601.17 348.24 600.47 349.49 597.19 351.83 595.59 354.06 593.75 354.17 592.23 355.19 586.77 360.03 584.11 361.47 580.79 364.2 580.01 365.49 579.78 366.82 578.61 367.95 578.61 369.51 579.58 371.46 578.26 374.6 577.25 376.26 576.97 377.89 577.28 380.04 576.65 381.24 575.49 381.96 573.57 382.23 572.4 383.98 569.83 385.12 568.15 386.76 566.7 387.77 565.81 387.69 565.03 386.4 561 384.38 558.47 385.51 554.92 386.17 551.75 385.78 550.82 386.33 550.86 389.14 548.71 392.18 545.08 393.5 543.52 394.29 540.16 397.06 539.11 398.23 538.79 400.18 536.96 407.4 537.82 410.68 536.1 412.2 534.03 412.59 532.24 413.95 531.34 415.55 530.87 418.75 530.01 419.92 528.29 421.06 527.08 422.66 526.42 424.84 526.89 427.57 528.02 428.7 529.43 429.05 529.93 430.15 532 432.22 534.74 434.09 535.36 434.87 535.13 436.7 531.69 439.4 530.13 439.82 528.26 440.8 525.72 442.56 524.94 443.41 524.35 446.3 523.22 447.47 520.57 448.57 519.47 449.27 518.07 451.61 517.09 454.89 516.78 458.59 516.04 459.53 512.88 461.68 511.12 463.08 507.88 464.1 505.69 467.22 502.77 470.14 501.71 471.47 502 475.9 501.29 479.85 498.99 480.4 497.47 481.18 495.65 479.47 490.22 478.21 488.58 478.01 485.43 478.33 483.42 477.79 482.02 476.73 481.18 476.68 479.07 479.48 478.44 481.22 477.47 482.85 474.18 485.8 473.22 488.06 470.42 490.75 471.69 492.84 472.19 494.59 471.49 495.67 472.07 496.85 470.89 498.66 471.92 500.7 471.16 502.73 469.57 504.16 468.88 504.28 466.51 505.81 465.57 506 463.22 504.21 462.54 502.63 461.55 501.32 457.47 503.22 456.44 503.33 451.56 502.87 449.45 502.06 449.24 499.38 447.84 497.55 447.76 494.29 447.15 491.32 446.49 490.63 445.16 491.6 444.1 493.68 444.04 496.59 444.23 498.53 443.62 499.7 441.72 500.97 441.32 501.69 442.96 503.61 443.62 506.91 442.79 509.13 440.3 510.81 438.8 511.19 438.31 511.9 436.55 512.73 434.55 515.3 432.31 516.8 429.93 517.07 428.33 517.76 426.97 519.18 426.2 520.8 425.13 521.24 423.44 524.51 420.74 526.69 420.86 527.84 420 529.17 418.97 529.93 417.66 530.06 415.9 532.69 415.76 533.74 417.21 536.11 416.43 537.74 414.69 537.54 413.51 537.9 413.35 539.75 413.74 541.59 411.39 542.41 410.29 543.68 409.79 544.94 409.76 546.6 408.12 548.6 408.18 550.05 406.53 551.28 406.34 552.25 405.08 553.13 404.61 554.19 402.79 555.48 398.14 557.64 397.48 558.64 397.52 559.81 398.14 560.68 397.86 561.79 396.07 562.17 395.29 563 394.63 564.71 393.13 566.23 393 568.37 394.51 570.42 393.82 572.89 394.61 574.75 393.14 576.44 392.26 579.2 392.66 580.57 394.3 582.4 394.49 583.67 393.03 583.62 391.83 584.28 390.2 584.39 388.49 585.67 386.44 586.06 384.98 587.42 383.28 587.25 382.36 587.61 382.18 590.02 381.31 591.51 381.03 593.37 381.49 594.37 384.63 596.11 385.39 598.21 387.05 599.24 388.17 599.14 389 599.86 390.67 599.81 394.93 598.84 398.56 599.03 400.09 598.46 402.25 598.63 403.02 599.73 404.84 599.73 405.74 599.36 410.07 599.2 413.54 599.5 413.29 601.51 415.25 604.32 417.77 605.3 418.65 606.19 418.72 608.25 420.49 610.79 421.11 614.11 420.08 616.6 419.78 618.97 418.63 620.56 418.68 621.23 421.04 623.46 422.26 627.61 425.71 630.1 426.09 632.83 427.21 634.82 427.17 636.54 427.57 637.9 427.18 638.61 427.71 640.66 425.71 643.02 425.68 645.69 424.55 646.74 422.61 647.65 421.87 649.13 363.13 657.46 298.53 666.63 295.21 665.89 292.43 666.69 291.32 666.08 289.6 665.74 288.04 664.58 285.22 663.2 283.2 661.43 281.75 660.93 280.87 659.92 279.92 659.85 277.64 660.8 274.34 661.01 272.82 660.59 270.36 662.01 269.05 663.44 267.04 663.67 265.49 664.27 262.12 664.38 260.15 663.54 258.85 663.38 257.44 664.85 256.68 666.3 255.37 667.13 253.34 666.95 253.7 668.99 253.38 669.81 251.25 669.56 247.89 670.01 246.53 669.5 244.22 669.45 242.23 668.69 240.47 668.47 239.75 668.8 239.56 670.15 240 670.94 239.79 672.5 237.29 673.59 236.52 674.46 235.05 674.06 233.56 672.78 232.45 672.95 231.25 674.48 230.02 674.66 229.58 675.72 228.73 675.91 227.15 675.32 225.27 676.43 222.74 675.57 222.31 676.91 220.51 676.93 219.67 675.02 217.08 675.39 215.04 674.21 213.99 675.46 212.57 673.59 214.17 672.67 213.84 671.49 212.28 671.45 210.74 672.98 209.59 675.87 207.75 677 207.06 676.23 205.77 676.38 200.01 673.88 195.41 673.48 194.23 672.55 193.63 669.95 191.38 668.91 191.95 668.24 194.77 668.12 196.1 666.87 195.36 664.23 195.16 659.28 194.48 655.81 193.87 653.81 192.93 652.96 192.8 650.6 191.86 647.1 190.77 644.29 190.27 640.53 189.33 639.38 188.4 639.24 186.1 640.33 183.89 640.56 179.88 637.4 177.92 635.34 177.26 632.83 174.57 631.58 171.87 629.65 169.82 629.58 168.05 629.84 163.54 628.74 162.13 630.6 160.24 632.3 158.34 633.06 157.45 632.89 154.78 634.4 153.73 634.52 150.83 632.4 149.15 630.28 148.5 627.19 147.32 626.29 142.7 625.7 139.5 624.3 137.67 624.22 134.82 625.1 132.85 624.82 131.75 625.96 130.46 626.18 128.1 625.68 126.83 625.74 123.7 627.93 122.21 627.67 121.34 628 120.4 629.19 117.24 629.58 115.03 629.5 112.25 630.56 110.04 630.65 109.44 631.8 107.82 631.88 106.39 631.29 103.66 627.37 101.32 628.59 98.71 628.77 97.59 631.04 94.97 632.61 93.19 633.43 91.13 634.87 88.43 635.82 85.8 636.4 83.36 637.25 81.8 637.26 76.75 638.14 74.07 637.35 72.74 637.42 71.9 639.12 69.43 639.36 67.63 638.36 66.33 639.3 65.64 641.8 62.09 643.58 59.89 644.37 57.42 644.77 56.63 643.97 55.56 641.95 56.21 641.14 55.77 639.56 55.95 638.14 58.03 636.66 57.71 635.16 56.24 635.2 54.17 636.08 51.49 636.5 50.75 636.95 50.79 638 50.07 638.6 48.59 636.17 48.59 634.29 45.86 630.18 45.64 629.33 46.06 627.16 45.05 626.12 42.36 628.17 41.73 629.16 40.32 629.81 38.62 631.06 34.32 630.58 32.18 631.63 30.2 631.51 28.68 632 27.73 632.92 26.56 635.45 24.85 636.93 18.09 641.7 16.93 642.95 14.91 645.93 12.35 648.5 7.03 646.85 6.55 645.66 5 644.38 2.6 643.5 1 643.24 1.83 641.67 4.34 639.72 5.63 639.12 7.98 639.09 10.1 637.57 10.96 635.73 11.04 632.8 10.34 630.73 9.91 627.91 10.3 625.61 13 621.97 13.74 619.12 14.52 617.44 16.91 615.79 18.57 615.05 19.07 614.3 19.22 612.64 19.8 611.28 21.37 609.98 23.2 607.58 23.48 605.75 23.2 604.85 21.6 601.92 19.65 599.14 19.16 596.95 19.59 594.56 21.49 593.56 23.44 591.71 23.71 590.58 23.32 585.53 24.3 584.13 27.19 581.98 28.25 578.61 29.23 577.01 30.01 576.54 33.84 575.25 37.87 575.72 38.77 576.86 39 578.69 39.79 579.44 42.25 580.41 44.33 580.47 47.06 579.51 49.68 579.32 52.69 578.34 53.51 577.68 53.75 576.62 53.24 575.13 53.2 572.44 54.14 571.46 55.82 570.95 62.43 569.66 64.27 569.43 68.34 568.41 70.02 567.39 71.31 565.44 73.34 564.38 76.74 560.32 78.89 556.25 79.64 553.79 81.44 552.3 83.55 551.79 85.62 552.58 86.29 553.48 87.77 552.77 87.26 551.13 86.59 546.98 86.79 544.13 87.77 542.25 90.27 540.65 90.2 538.35 88.94 536.33 88.95 534.94 90.2 529.35 90.16 526.15 89.26 522.51 90.24 519.42 90.31 513.75 90.63 511.88 91.41 510.35 93.87 509.65 94.42 508.24 94.77 505.07 95.4 503.78 96.69 502.88 99.31 502.45 101.72 501.35 103.26 498.7 103.3 496.28 103.73 493.81 105.02 492.17 106.15 489.4 108.34 486.58 109.63 484.24 110.61 483.02 112.22 482.38 113.14 481.37 113.07 477.47 115.58 475.6 116.09 473.88 116.21 470.52 117.26 469.22 117.34 467.11 116.24 465 117.34 463.75 118.51 463.32 119.1 462.46 119.53 459.06 117.66 455.25 115.5 453 115.11 451.86 115.38 450.18 116.44 448.11 116.87 446.12 116.36 443.81 114.4 442.68 114.4 441.19 116.16 439 119.64 432.59 120.96 429.47 122.77 427.39 123.83 425.51 124.61 422.42 128.29 417.58 129.19 415.15 128.29 413.35 127.27 412.49 126.8 411.24 127.38 407.41 126.95 405.54 127.74 404.44 129.11 404.24 129.34 402.95 128.76 401.35 127.7 396.11 128.25 394.98 129.93 394.16 130.17 393.38 129.19 392.4 126.23 390.67 126.06 389.94 126.88 386.3 126.8 384.31 125.59 380.44 124.34 379.73 122.23 382 119.37 381.41 118.9 380.67 119.06 378.36 116.83 376.6 115.5 375.94 114.17 373.12 113.35 368.32 111.82 367.14 108.81 362.65 107.52 361.04 106.58 360.61 103.69 357.33 102.67 354.79 101.38 352.79 101.66 350.64 102.59 349.71 105.06 348.57 105.61 347.99 106.9 344.7 108.33 339.79 109.5 337.52 111.68 336.78 113.48 336.7 115 336 116.87 336.51 119.1 336.08 120.97 335.3 122.26 333.74 123.12 331.67 124.45 330.38 124.76 328.47 123.9 326.6 124.41 324.22 124.52 321.45 126.16 319.07 126.71 317.74 126.83 314.77 128.47 311.58 129.17 309.12 128.93 307.21 128.86 303.46 127.84 300.85 127.41 299.01 126.67 297.84 123.86 295.54 123 294.49 121.25 293.28 120.35 291.13 115.04 288.95 113.67 288.79 111.1 289.81 109.19 288.95 108.83 286.99 108.91 285.08 109.61 282.82 109.73 281.18 109.34 277.71 109.5 274.94 108.72 269.44 109.26 267.85 110.23 266.49 110.59 265.26 111.72 263.86 112.46 262.26 113.28 259.06 112.15 256.4 109.85 255.23 109.58 253.91 110.63 251.49 111.41 250.67 114.1 248.91 114.92 247.63 115.47 243.18 116.41 241.89 117.15 240.13 118.32 240.6 121.67 243.14 124.82 244.3 126.05 245.87 126.46 247.09 127.49 248.44 129.6 249.93 132.1 250.94 134.32 253.32 135.84 254.26 139.08 254.84 140.06 253.91 140.14 251.88 140.76 250.71 141.58 250.63 143.02 252 144.62 252.23 147.82 251.76 149.62 251.84 150.79 252.81 151.38 254.53 152.82 257.03 154.15 257.96 154.77 257.57 154.81 252.66 155.79 251.88 157.43 252.19 158.52 250.67 158.87 248.05 159.57 245.71 158.95 242.4 158.09 239.24 158.32 236.97 157.62 232.1 158.29 229.07 158.32 225.27 158.05 220.7 157.58 219.61 155.54 218.65 154.18 217.33 154.06 216.23 154.6 214.55 154.65 212.74 153.8 212.35 152.2 213.17 149.03 213.6 147.4 214.26 144.78 215.79 143.41 216.06 140.76 215.05 138.18 214.3 136.15 212.94 134.63 212.51 133.74 210.87 132.41 209.85 130.04 209.89 128.88 208.91 128.35 205.76 126.96 202.72 127.8 201 129.21 198.97 128.88 197.95 124.56 197.37 123.08 197.02 120.23 195.65 118.98 193.35 119.26 189.84 117.3 185.2 116.68 182.31 115.74 179.81 115.43 176.7 116.41 174.12 118.01 171.15 118.05 169.86 117.38 168.19 114.92 165.26 113.99 164.56 113.21 162.57 114.26 161.08 114.3 159.33 116.76 158.24 118.69 158.11 119.46 155.41 119.32 153.48 118.67 151.87 117.48 150.66 119.12 148.09 122.05 146.62 122.85 145.97 126.21 140.71 127.46 137.09 130.27 132.2 131.91 130.48 133.23 127.74 134.62 125.77 136.59 125.36 139.33 123.94 142.66 123.65 144.7 122.55 145.25 121.93 145.44 119.79 145.83 119.01 148.44 116.59 150.54 113.63 153.11 112.66 155.06 109.63 155.41 107.21 156.35 105.89 158.41 105.58 160.43 104.02 160.9 102.5 161.21 99.97 162.42 97.09 163.9 95.3 164.13 91.99 164.56 91.06 165.96 90.44 167.64 88.14 167.66 86.11 166.98 83.9 167.44 81.44 167.36 80.16 166.39 77.9 167.21 74.01 167.05 72.68 167.6 72.02 170.68 71.12 173.93 71.53 174.63 72.1 175.04 74.32 174.33 79.5 174.43 81 176.2 81.61 178.35 80.56 183 77.64 186.67 76.56 188.41 76.89 189.4 78.52 194.27 78.99 199.76 78.13 203.58 77.67 206.15 76.58 207.74 77.36 210.82 77.86 214.28 78.06 215.8 78.8 216.69 81.86 218.18 83.82 225.38 86.78 227.52 88.45 228.48 90.31 230.03 91.83 231.91 93.02 233.71 93.28 236.71 90.94 238.46 90.84 241.66 91.06 244.27 92.77 246.8 91.6 252.09 90.4 252.95 89.81 252.39 86.6 253.47 85.99 255.67 88.19 257.31 88.49 259.21 87.69 264.2 88.06 266.23 88.88 268.95 91.68 272.77 93.04 274.09 93.32 275.38 92.42 276 89.42 278.57 89.73 280.21 90.86 281.33 92.58 282.56 95.51 284.63 96.99 288.89 97.84 290.29 98.71 291.34 100.01 291.51 100.96 290.67 102.18 290.67 104.46 292.36 106.66 294.18 108.06 296.24 108.94 298.54 108.91 300.2 108.04 301.66 106.85 304 103.37 305.74 101.85 308.2 97.05 306.61 94.33 305.44 90.79 303.45 88.37 301.04 87.13 298.27 86.66 296.17 86.54 294.31 84.7 292.82 82.46 292.78 81.68 294.81 80.86 295.86 79.77 295.39 74.98 294.92 72.22 295.7 70.74 296.87 70 298.27 69.84 299.75 70.47 301.78 70.62 303.33 69.61 303.8 68.05 303.57 65.21 304.11 63.5 303.65 60.7 302.36 59.18 302.21 56.8 303.22 55.09 305.44 53.3 305.79 46.29 306.25 44.74 309.25 42.17 310.38 40.61 315.19 37.02 319.22 35.04 324.95 34.89 325.84 34.38 326.52 30.77 326.15 28.5 325.22 26.95 325.45 25 326.58 23.72 326.89 20.91 327.63 18.89 328.41 17.88 330.24 18.34 332.38 21.03 335.26 21.19 336.2 19.47 337.79 19.08 338.57 19.94 340.05 20.56 341.38 20.1 341.42 18.46 340.56 16.67 340.83 15.66 343.36 14.1 344.88 14.34 346.17 13.09 346.09 11.22 345.19 7.33 345.66 5.93 344.84 4.72 347.73 1.2 348.33 1 347.88 2.71 348.43 4.79 351.37 7 350.86 9.1 350.44 12.19 350.58 14.23 350.08 18.3 349.07 21.3 348.82 23.41 347.74 26.3 346.95 29.89 346.83 31.94 346.2 35.8 345.63 36.7 342.56 39.43 339.73 42.26 338.14 44.52 337.12 48.08 335.72 48.99 335.18 50.12 335.54 51.09 337.53 52.77 338.61 54.62 339.04 56.24 341.99 59 342.73 60.12 343.33 62.16 343.41 65.78 344.37 68.66 343.92 69.25 341.28 69.47 337.63 69.44 336.33 69.7 335.93 70.8 334.28 71.95 334.33 73.54 333.05 73.83 329.45 73.25 328.65 74.23 330.18 75.45 331.4 77.13 332.61 78.1 334.24 80.83 337.02 82.76 337.74 85.68 337.74 88.1 339.3 90.15 341.43 91.32 341.32 92.86 341.91 94.05 342.9 94.79 345.39 98 347.43 99.82 352.43 103.39 353.07 104.6 352.87 105.78 353.22 106.97 354.16 107.47 355.59 109.72 353.58 111.72 353.19 112.71 354.32 114.71 356.44 116.91 357 119.62 355.57 121.15 355.41 121.83 356.52 123.35 357.19 125.28 357.54 128.03 358.78 128.67 358.92 129.53 357.26 132.38 356.22 133.37 353.49 135.06 352.88 136.2 352.79 137.5 353.26 140 352.33 142.81 353.12 144.03 352.44 145.98 352.38 147.63 353.53 149.59 352.84 152.37 353.08 153.95 355.55 156.93 357.4 158.34 359.88 162.83 361.01 165.77 363.09 166.89 364.3 168.33 365.54 170.84 367.76 172.38 369.64 174.59 370.49 177.23 370.3 179.48 369.03 182.24 369.14 183.2 371.66 186.11 372.35 187.72 372.63 191.36 373.21 192.49 374.6 193.87 375.02 195.72 374.99 200.3 376.81 204.66 378.38 206.22 381.72 206.5 382.98 206.96 383.93 208.6 383.58 211.59 383.03 213.69 383.11 214.65 384.56 218.38 384.38 220.07 383.16 223.2 383.54 225.44 385.52 225.11 387.27 225.62 389.82 227.98 393.33 228.21 394.51 228.84 396.38 229.28 397.46 229.07 398.92 227.19 399.86 226.59 402.39 226.25 404.1 227.96 407.56 228.8 410.36 229.66 413.4 229.5 415.04 230.22 417.15 230.07 420.54 229.32 422.95 229.24 425.76 228.83 428.75 228.86 430.72 229.71 430.97 231.15 428.63 232.42 428.4 233.38 429.3 233.86 430.86 237.05 433.09 240.02 436.16 241.64 438.47 243.43 440 244.9 444.21 246.14 446.4 246.36 448.11 245.17 452.35 243.83 454.64 242.76 456.43 242.23 458.13 242.27 460.03 243.63 460.71 244.78 463.38 247.44 465.5 248.89 468.16 249.49 470.06 250.54 471.27 250.87 473.64 250.79 475.16 250.35 476.25 250.59 477.6 251.58 478.95 253.12 480.36 253.49 485.39 253.7 486.85 253.92 497.87 254.38 499.1 254.62 503.62 254.82 512.07 255.55 515.6 255.57 516.76 255.78 518.85 257.04 520.81 257.11 522.26 257.53 523.3 259.17 526.16 260.08 527.56 259.94 529.97 260.16 531.53 259.99 534.39 260.59 536.18 259.58 536.89 257.01 538.95 251.17 540.55 247.51 542.5 243.75 545.21 240.4 546.64 240.24 547.03 241.7 548.15 242.49 553.55 242.56 555.4 242.99 556.31 244.31 557.18 248.32 556.76 249.17 554.48 250.24 553.82 251.5 555.01 252.14 556.18 251.64 559.68 248.99 561.18 248.59 563.39 249.02 564.25 250.1 564.44 251.21 563.72 253.29 562.77 254.62 560.73 256.55 557.75 258.42 556.43 259.68 555.04 261.74 555.12 263.78 556.31 264.35 558.34 263.73 562.48 261.33 566.45 259.81 568.98 257.96 569.28 256.71 568.87 255.55 567.29 254.03 567.11 252.23 567.77 250.54 569.72 249.03 571.06 248.97 572.13 249.87 572.04 254.95 572.39 257.32 573.16 259.11 574.65 261.16 576.52 262.48 578.75 263.36 578.95 264.42 577.65 265.23 576.46 266.69 576.51 267.99 577.12 269.04 579.46 270.64 582.53 271.48 584.12 271.48 586.19 270.7 587.29 269.2 587.74 265.51 589.82 264.5 593.59 263.78 596.29 263.61 600.74 263.74 603.27 263.36 604.47 262.88 606.77 261.31 609.36 261.44 610.16 262.52 610.54 264.6 612.31 266.61 615.2 268.13 619.42 268.2 623.6 266.76 625.99 267.2 626.81 268.37 626.49 271.35 626.56 272.79 627.63 273.75 628.81 273.67 629.28 272.57 629.32 270.91 629.74 269.85 630.93 269.83 632.25 271.43 633.52 272.11 638.84 273.42 641.84 275.65 643.46 275.92 647.5 275.69 653.74 272.56 658.49 269.52 661.3 266.64 664.95 263.43 668.2 259.31 670.73 256.55 672.67 255.28 675.37 253.97 682.59 249.52 689.36 247.29 692.33 247.35 Z" fill-rule="evenodd"/>
</g>
</svg>