<?xml version="1.0"?>
<svg xmlns="http://www.w3.org/2000/svg" version="1.2" baseProfile="tiny" width="800" height="673" viewBox="0 0 800 673" stroke-linecap="round" stroke-linejoin="round">
<g id="4212254">
<path d="M 799 178.29 794.3 182.5 791.17 187.24 788.1 187.93 785.92 192.29 782.21 197.56 780.15 197.88 776.72 201.98 776.54 204.62 773.46 206.22 770.65 210.92 767.3 212.36 766.04 215.76 762.53 217.94 757.73 225.05 755.87 228.84 750.5 236.02 740.76 245.06 737.94 250.05 736.31 250.62 734.06 254.62 732.74 254.99 729.53 259.94 727.33 260.61 725.83 264.04 722.53 266.27 721.41 269.33 718.05 271.05 715.57 275.66 710.93 278.63 708.42 283 703.12 290.56 701.35 291.47 696.72 297.95 686.25 309.47 684.95 311.92 681.66 314.57 678.46 319.19 670.66 327.26 669.19 329.66 666.18 331.85 660.01 338.87 659.44 341.12 651.43 350.38 648.1 352.43 638.8 365.93 630.29 374.34 627.24 378.93 616.84 390.52 615 394.48 612.57 396.34 607.94 401.8 604.74 406.53 595.05 416.75 591.84 421.53 589.64 422.94 585 430.25 583.33 430.72 582.67 433.75 576.76 438.8 572.86 445.46 570.65 447.1 562.63 457.56 561.1 460.62 555.13 466.33 553.14 469.92 544.8 478.86 542.43 483.36 538.74 486.39 537.74 489.44 535.67 490.37 533.1 494.59 529.53 498.75 527.08 500.18 521.86 506.87 516.5 514.98 511.07 521.88 501.89 532.84 498.74 537.8 496.43 538.21 489.45 548.14 484.33 553.99 480 560.03 473.98 566.47 471.9 570.45 469.46 572.65 460.74 585.48 455.91 589.87 455.2 593.08 453.05 593.53 443.66 606.83 440.39 615.36 437.27 621.87 436.8 627.42 434.27 634.34 432.83 643.9 431.28 645.88 431.46 648.37 429.97 652.73 416.37 654.26 403.45 657.52 393.08 658.1 380.37 656.58 373.87 657.75 358.64 667.13 349.91 670.84 339.36 672 332.88 671.65 327.2 669.61 323.46 666.9 315.5 654.51 311.7 652.44 305.68 650.62 297.03 650.9 289.17 653.7 284.97 657.61 276.09 669.53 273.29 671.41 265.25 672 258.89 670.35 253.3 665.93 249.32 660.72 246.31 652.61 246.15 647.08 246.97 643.03 249.18 639.24 253.58 634.07 256.52 628.49 263.37 620.81 271.87 617.21 278.38 616.13 286.92 615.74 304.62 617.78 314.96 617.07 332.68 613.37 335.12 611.79 336.87 606.63 334.34 602.77 324.02 597.45 319.52 593.87 317.39 590.39 313.81 576.7 311.55 573.84 306.13 569.65 301.24 567.42 296.34 567.28 293.93 570.06 293.86 575.15 295.94 580.39 299.79 588.16 299.08 593.38 294.41 595.81 289.31 595.27 285.9 593.91 269.87 582.57 263.23 576.02 258.81 566.8 257.7 563.44 256.87 556.8 257.5 553.08 262.93 549.72 269.8 550.15 276.29 551.86 279.39 550.06 278.95 546.32 271.46 537.92 269.55 534.79 268.4 529.54 269.54 522.68 274.67 522.52 282.64 525.3 286.02 525.39 289.16 523.22 289.48 520.37 287.09 515.99 284.49 513.06 280.05 510.7 271.35 507.11 258.78 504.02 250.11 502.69 241.34 499.82 231.62 499.15 226.79 500.59 215.9 505.79 208.46 508.3 200.97 509.14 186.04 509.75 178.56 511.1 169.4 513.52 161.25 514.96 153.09 515.24 146.18 514.98 131.77 512.89 124.2 511.17 118.34 509.27 109.02 507.07 105.26 505.57 96.28 503.36 87.31 499.44 81.86 494.58 78.02 489.53 75.09 483.56 74 472.84 69.96 466 64.53 463.07 47.47 460.95 43.08 459.32 35.06 453.92 27.31 445.34 22.03 442.35 16.53 440.79 7.83 436.73 1 435.41 3.48 434.98 76.84 173.11 83.26 182.61 89.6 187.87 184.83 239.71 203.97 250.23 212.79 254.42 216.33 257.97 217.94 262.56 218.03 265.46 211.66 296.82 211.68 299.55 235.93 285.6 260 269.21 263.63 266.32 277.09 252.63 282.43 243.51 283.74 227.86 282.6 215.47 284.07 205.87 301.94 175.05 322.91 146.01 347.08 116.66 359.01 96.71 372.1 73.45 389.81 40.12 408.98 14.81 434.44 1 544.56 79.49 714.03 200.29 753.63 148.44 799 178.29 Z"/>
</g>
</svg>