<?xml version="1.0"?>
<svg xmlns="http://www.w3.org/2000/svg" version="1.2" baseProfile="tiny" width="800" height="669" viewBox="0 0 800 669" stroke-linecap="round" stroke-linejoin="round">
<g id="4212650">
<path d="M 799 33.05 787.6 41.97 780 49.15 771.5 58.76 762.66 71.28 758.3 78.79 754.07 87.2 743.16 112.65 740.54 117.89 734.92 127.16 726.61 138.83 714.01 145.7 693.86 157.57 679.24 167.33 668.74 175.52 660.83 182.62 654.91 189.06 650.3 195.13 646.71 201.15 642.5 210.65 640.33 217.36 638.71 224.24 637.71 231.19 637.45 241.61 638.17 248.68 639.56 255.97 641.96 263.61 645.16 271.78 649.39 280.73 654.78 290.74 661.48 302.1 674.79 323.91 686.59 343.95 701.38 370.29 701.96 382.3 701.94 390.91 700.58 402.52 697.79 414.54 695.32 422.63 692.97 425.18 685.8 430.26 680.8 432.84 675.01 434.81 667.99 436.2 652.84 437.49 631.07 438.56 623.49 439.21 589.94 441.04 583.59 437.17 575.75 436.61 554.81 439.93 549.9 440.01 546.09 439.05 540.49 435.19 533.67 427.65 494.93 456.76 493.72 459.56 488.22 462.54 486.44 465.42 484.19 471.52 485.59 477.84 485.58 481.69 481.48 485.94 479.96 488.62 480.29 491.4 477.96 495.79 474.5 506.07 470.48 515.06 470.57 520 468.81 525.86 469.92 528.42 469.58 531.56 466.35 536 460.29 538.14 456.94 537.21 456.34 533.6 447.34 531.33 443.94 531.79 441.67 534.33 438.88 539.22 435.54 541.58 428.05 542.83 423.22 545.16 420.27 544.22 417.32 540.72 408.92 536.81 405.08 534.25 398.63 533.33 394.3 531.51 391.51 532.55 384.78 532.3 380.42 528.36 375.73 527.58 369.47 531.16 367.01 534.03 366.19 538.51 367.77 542.78 366.55 547.12 366.05 554.01 363.21 557.9 361.68 572.72 358.66 575.51 350.65 579.21 347.49 581.72 345.53 585.07 346.81 593.54 347.88 604.85 347.6 607.93 338.61 621.52 338.06 627.58 334.16 630.83 332.23 636.64 329.54 639.67 329.69 641.78 327.43 644.69 327.43 648.97 329.57 651.61 329.35 653.69 324.23 656.8 320.71 661.24 314.73 661.79 310.94 663.12 303.85 668 301.39 664.78 295.97 663.4 287.94 659.76 286.34 653.85 282.92 650.21 276.13 648.8 189.79 651.04 188.29 647.1 187.68 635.69 186.51 626.1 184.55 614.38 180.33 601.98 178.25 598.1 166.84 581.64 165.06 577.39 158.65 571.64 154.51 564.62 152.73 562.68 153.07 557.42 154.73 546.44 155.21 540.11 154.76 533.65 153.83 530.46 150.06 526.96 142.89 525.72 141.04 523.91 143.29 518.95 143.06 513.18 143.82 508.98 140.12 504.48 140.87 495.95 139.65 489.99 137.23 487.12 135.86 481.29 130.51 474.16 121.26 464.21 113.51 459.72 106.68 453.34 99.94 450.79 96.81 448.98 93.39 443.47 92.24 439.4 92.15 434.26 90.92 428.12 89.29 425.42 85.9 416.39 85.83 410.6 80.78 406.58 76 407.8 76.24 403.26 75.23 402.23 66.87 399.58 67.26 397.85 70.97 396.48 70.09 392.76 64.32 389.54 60.82 384.89 62.3 382.95 67.05 381.59 66.64 377.44 61.58 378.55 63.24 374.71 61.65 372.17 57.24 375.37 54.63 379.88 51.97 378.62 52.98 374.52 52.67 371.85 50.47 370.33 48.62 367.15 54.05 360.06 55 355.09 53.09 350.88 47.97 348.82 45.66 346.05 44.75 342.57 46.22 338.49 50.05 334.63 50.25 327.86 52.62 322.33 58.72 313.85 62.45 309.81 63.14 305.14 61.06 295.79 60.13 294.61 59.46 289.1 60.47 287.68 65.35 285.54 68.13 278.55 72.05 274.39 78.28 269.32 80.64 269.15 82.01 264.34 83.86 263.54 86.39 258.6 82.6 252.34 82.87 247.6 80.35 236.59 73.26 231.84 71.77 226.83 68.59 219.94 61.91 214.45 62.57 210.97 59.69 205.48 61.93 199.13 61.07 189.45 61.53 186.53 61.69 183.2 63.09 181.66 69.78 179.47 72.88 176.21 75.13 175.32 85.85 174.27 86.18 169.6 84.8 160.38 83.05 156.42 82.66 151.72 77.52 146.37 76.17 141.18 73.34 137.17 68.66 134.38 65.61 131.02 55 128.25 57.17 125.4 61.15 123 65.14 115.04 69.39 108.38 72.98 101.68 75.89 92.47 80.09 82.97 76.68 82.41 71.82 84 66.93 79.91 61.47 76.82 54.32 76.43 52.24 72.34 48.15 69.22 45.62 68.73 40.05 69.28 35.98 66.14 28.86 63.46 27.17 62.13 20.4 60.47 14.12 60.7 11.81 59.59 3.93 59.08 1.82 55.6 1 50.58 3.27 49.71 10.2 49.71 19.15 50.96 26.92 48.66 32.47 48.17 37.99 44.57 39.98 42.02 46.1 37.68 50.4 32.03 54.74 24.58 56.1 21.32 65.3 17.75 67.45 18.74 73.39 16.04 73.56 9.49 77.64 8.05 78.6 9.37 87.09 6.66 96.34 10.08 102.39 3.15 111.68 2.25 117.93 1 123.45 3.07 126.87 6.01 131.47 11.2 133.01 11.88 140.05 8.24 143.13 7.67 144.23 9.73 144.88 15.42 150.3 18.9 153.19 19.46 159.38 18.86 162.54 25.81 166.32 23.36 168.72 24.02 178.04 21.97 179.16 20.44 184.29 18.93 189.44 20.63 193.07 20.74 197.7 15.24 199.72 15.27 202.38 13.01 208.99 11.82 219.26 13.99 221.83 17.2 223.48 15.97 231.68 17.28 232.7 18.06 226.68 25.34 226.62 28.69 229.37 34.6 229.98 38.07 229.64 44.12 233.09 48 236.38 50.16 241.87 51.64 246.38 51.58 259.58 53.53 262.43 53.54 275.93 56.02 299.42 58.96 313.26 61.31 318.38 61.71 328.95 60.48 331.66 59.34 333.61 56.63 338.81 57.45 347.96 57.69 355.29 59.79 363.71 59.78 373.73 55.87 390.66 57.06 400.75 55.8 407.04 55.93 453.96 54.76 506.92 55.1 544 55.69 799 33.05 Z"/>
</g>
</svg>