<?xml version="1.0"?>
<svg xmlns="http://www.w3.org/2000/svg" version="1.2" baseProfile="tiny" width="800" height="832" viewBox="0 0 800 832" stroke-linecap="round" stroke-linejoin="round">
<g id="4212056">
<path d="M 791.5 429.4 790.3 431.03 788.24 432.26 785.25 432.52 782.59 431.57 781.41 432.16 780.67 434.22 781.79 438.39 784.82 440.64 787.75 444.26 788.94 448.54 786.18 451.88 785.92 454.69 784.38 456.94 786.78 458.12 786.88 459.17 785.33 460.2 785.31 461.3 788.6 466.68 787.99 469.37 786.27 470.04 784.46 471.52 776.53 473.82 774.57 474.06 771.41 473 771.17 471.06 772.43 469.86 771.8 468.62 770.01 469.13 769.05 470.94 767.83 471.67 768.67 474.48 767.7 477.05 768.72 480.24 767.92 481.94 768.27 483.17 771.44 485.51 776.13 489.67 776.18 492.83 774.07 493.91 773.72 495.69 771.27 496.48 770.37 497.83 769.78 500.7 766.94 503.14 765.09 505.23 763.44 508.74 765.06 511.06 769.06 511.65 769.55 512.94 768.67 514.75 764.77 518.13 764.15 520.23 762.33 522.5 760.87 526.57 759.93 526.78 758.65 528.54 758.21 531.13 759.64 533.87 762.21 536.2 763.3 537.77 763.28 540.92 764.32 542.87 764.48 544.56 766.01 551.78 762.16 553.17 758.63 552.93 758.14 551.94 756.41 552.21 753.75 553.63 750.49 552.4 747.58 553.4 746.15 552.09 743.8 553.35 742.32 556.63 743.52 559.54 744.02 562.34 745.53 565.1 745.59 566.43 742.99 567.19 736.96 567.39 735.66 567.72 733.29 570.23 731.28 572.91 729.91 572 731.11 570.42 730.1 569.72 725.05 574.09 728.79 575.41 729.14 577.23 726.71 577.77 723.82 580.54 722.05 579.51 722.7 578.05 720.96 577.89 719.84 576.84 720.2 574.91 717.47 574.31 715.98 573.03 715.3 571.41 713.81 570.69 712.11 568.61 709.35 567.55 706.58 568.53 706.41 570.64 705.1 572.54 706.08 573.86 705.6 575.97 703.67 577.51 703.46 575.83 701.05 572.22 700.28 571.74 696.59 572.51 693.61 572.03 691.9 572.4 692.06 576.16 686.16 581.3 686.73 584.03 685.55 585.37 688.24 589.96 689.69 591.46 689.63 593.09 688.38 593.83 683.33 592.11 681.54 592.15 680.33 594.68 679.66 598 678.88 598.6 674.49 597.47 673.66 599.43 672.96 603.8 669.43 605.9 668.6 606.87 670.79 609.4 673.68 610.47 672.69 612.17 669.15 615.83 669.23 616.68 671.1 618.61 670.62 620.31 666.68 621.76 664.82 623.46 666.61 626.64 666.77 628.58 662.02 628.8 660.48 627.56 658.17 629.66 656.51 633.52 657.3 634.73 661.43 636.24 662.23 637.99 661.25 639.82 660.97 643.43 659.85 642.05 657.82 640.99 657.63 638.99 655.03 638.74 653.6 639.47 653.33 641.05 655.42 644.01 656.16 647.34 657.66 651.09 657.06 652.2 652.97 652.69 652.24 656.15 650.26 659.35 645.38 661.94 641.96 664.22 640.02 668.49 638.58 670.81 636.53 672.44 629.63 675.95 627.07 679.66 625.54 683.43 623.22 686.99 622.79 689.28 620.23 690.92 616.37 690.49 616.96 693.97 616.17 697.9 612.5 703.19 611.11 709.27 609.49 712.73 610.54 714.09 610.99 717.54 609.02 718.37 610.36 720.84 611.03 724.56 610.7 732.08 605.74 733.91 602.7 735.83 600.75 738.18 599.49 738.91 595.88 739.34 592.12 741.23 590.24 740.69 588.51 739.16 587.74 737.72 585.04 738.84 584.32 741.1 582.42 740.86 582.78 743.24 582.37 744.79 579.78 746.64 577.4 747.41 576.05 748.95 574.96 751.1 573.5 752.09 571.1 752.64 568.84 755.89 566.57 756.71 559.27 760.3 555.42 763.52 555.01 764.81 555.4 766.88 553.62 767.78 552.92 769.86 548.98 774.26 548.07 776.24 546.83 777.42 545.97 779.81 542.17 782.84 540.22 783.16 537.65 784.41 537.12 786.39 534.21 787.25 531.85 788.76 529.43 788.11 526.93 788.17 522.99 787.19 519.73 789.85 518.83 791.15 519.29 793.51 518.25 794.3 517.45 796.73 517.71 800.75 518.91 804.59 517.97 807.48 518.44 810.69 517.75 814.74 518.85 816.57 518.97 818.06 516.5 819.4 514.59 821.89 512.33 826.31 510.87 831 507.21 816.34 479.04 698.82 479.24 697.45 478.66 694.95 476.83 690.84 472.87 686.16 470.76 684.89 469.93 682.79 470.55 681.76 470.41 677.81 469.6 676.45 469.88 672.54 469.13 670.81 467.92 670.3 468.22 667.59 467.63 665.52 467.02 660.74 464.51 662.66 463.88 660.98 461.41 658.28 460.7 656.8 458.84 657.1 456.71 663.8 454.62 663.14 453.46 663.63 454.43 666.25 454.55 668.13 451.94 674.13 448.86 675.37 448.65 676.83 446.59 677.11 444.94 676.21 442.49 676.87 441.48 679.02 439.87 678.47 438.62 679.16 439.3 681.13 438.47 682.38 435.86 683.49 433.36 685.79 433.74 687.89 434.58 689 434.61 691.11 435.66 691.6 435.19 693.79 436.56 694.79 435.06 698.79 435.7 701.06 432.9 704.8 431.85 704.55 428.26 702.02 425.86 698.26 423.08 697.38 421.58 694.2 421.83 692.92 420.7 692.28 420.22 690.08 419.14 689.55 418.12 686.62 416.07 685.11 411.81 684.68 409.11 682.61 407.39 679.37 404.06 676.93 400.38 676.82 396.65 675.3 393.86 673.43 391.66 674 390.26 673.43 387.28 669.44 384.97 667.29 384.07 669.35 385.31 671.34 382.44 672.91 381.1 671.67 380.81 669.71 379.6 668.21 378.9 665 376.62 664.88 376.37 667.51 373.09 667.47 371.16 666.54 370.66 664.24 367.27 662.9 366.14 661.2 364.11 659.97 362.22 658.12 362.2 655.31 361.13 653.28 356.46 651.29 357.96 648.79 360.71 646.68 357.83 643.03 361.04 642.51 362.72 638.61 362.77 636.87 361.16 632.33 361.93 630.69 363.89 630.1 364.94 628.9 364.3 627.59 362.19 626.92 361.65 625.19 357.22 622.69 355.83 620.11 354.63 619.45 351.31 621.48 348.02 618.89 346.71 618.38 344.73 616.13 343.78 612.58 342.22 610.71 340.2 609.5 337.08 609.29 335.55 609.69 334.07 607.52 334.42 606.4 337.18 603.85 333.33 600.86 331.37 599.75 331.63 597.79 332.74 597.21 333.6 593.94 335.4 591.05 337.13 589.08 337.09 586.26 336.38 583.45 336.27 580.1 335.06 578.65 335.2 575.2 333.28 573.45 333.51 571.49 335.37 569.62 334.24 567.92 332.08 568.01 329.76 566.91 329.61 566.07 330.25 561.3 331.95 557.87 331.94 555.94 330.58 552.12 331.82 550.49 336.43 549.04 340.02 547.18 340.85 543.44 340.62 541.68 341.39 538.78 342.53 537.16 343.99 536.46 345.81 536.82 347.2 535.25 345.77 532.85 345.28 529.73 342.78 527.53 341.31 526.93 338.53 524.07 335.04 522.01 332.3 518.6 335.13 519.08 335.83 518.41 332.13 516.54 331.36 515.23 335.12 509.97 337.11 506.11 337.3 504.18 338.62 502.99 338.38 501.67 339.01 499.81 340.57 500.01 341.09 501.79 340.84 503.6 342.5 503.41 341.53 500.07 341.95 497.45 341.26 496.89 337.17 497.66 338.72 498.59 337.26 499.51 333.17 498.03 334.5 494.82 334.85 491.78 336.81 490.42 335.38 489.13 335.63 487.83 340.69 484.65 342.2 482.66 342.24 480.81 340.4 478.59 341.71 476.18 340.27 475.32 337.92 474.88 337.55 472.83 336.79 472.13 334.97 472.84 334.87 473.83 337.18 475.92 336.7 476.85 332.72 476.99 331.91 475.84 333.37 474.62 334.19 471.68 333.3 470.37 330.15 468.59 331.39 466.92 329.4 466.59 328.61 465.6 329.9 464.56 326.07 460.03 324.44 459.88 324.34 461.59 323.49 462.99 320.66 463.36 322.68 464.85 321.81 465.51 319.35 464.46 318.51 463.22 318.94 461.42 317.85 460.22 316.58 461.61 317.96 463.89 316.25 463.84 314.41 461.44 311.45 458.77 309.08 457.08 307.83 454.92 306.69 454.24 306.87 452.84 316.7 457.69 317.18 457.56 318.02 453.69 314.61 453.98 311.72 452.66 312.04 451.83 314.04 451.61 315.23 450.25 315.24 448.52 314.25 446.25 316.26 445.67 316.94 447.39 319.37 447.31 320.01 446.49 318.17 444.44 318.81 440.96 315.7 441.47 312.12 440.99 310.85 439.31 312.55 437.07 312.05 436.08 309.46 435.17 311.41 431.99 310.1 430.89 307.5 434.47 304.6 433.66 300.46 433.57 300.15 435.65 296.97 434.92 296.25 434.21 293.64 428.23 291.99 425.55 292.26 423.4 290.04 421.99 289.48 419.05 291.05 418.73 291.87 417.12 293.42 411.63 291.8 411.16 290.24 412.43 288.96 412.64 288.37 411.16 289.79 408.77 287.92 405.19 289.49 401.66 286.72 402.12 285.33 401.39 283.87 397.21 284.59 396.21 286.7 397.38 289.55 398.35 291.08 397.93 291.28 393.5 292.66 393.35 294.75 396.05 296.73 395.71 297.13 393.55 302.24 394.06 301.38 392 301.58 389.69 300.8 388.9 296.56 388.65 294.95 387.28 294.4 385.43 291.68 384.05 284.57 379.5 282.61 378.76 270.68 372.49 267.92 371.73 265.84 370.61 264.8 368.83 266.75 366.27 271.62 363.41 273.65 361.78 275.64 358.19 278.67 355.91 281.69 352.9 281.92 352.1 279.67 350.56 278.42 350.59 275.16 351.68 269.79 348.19 265.5 346.47 264.86 344.43 266.65 341.18 268.2 337.17 267.8 334.42 262.71 334.63 258.68 333.06 252.52 331.93 250.76 331.25 248.52 328.57 246.37 323.38 241.38 322.23 241.84 316.86 241.23 314.25 239.41 311.35 237.25 313.58 234.47 312.48 232.69 309.9 232.23 307.94 233.36 306.14 232.75 303.38 232.87 301.12 234.06 296.49 236.31 292.66 238.45 290.58 237.86 288.77 239.54 285.14 234.59 283.83 227.44 284.94 225.79 284.27 224.71 277.4 223.89 274.68 224.13 270.71 223.09 269.2 220.97 268.88 217.16 269.44 214.89 270.49 211.23 272.75 210.35 272.79 206.47 270.97 207.78 267.14 209.18 259.81 207.03 257.94 207.27 256.42 209.17 255.67 208.7 253.28 207.08 249.54 206.79 247.81 207.32 245.83 209.97 243.63 213.43 241.66 215.84 240.68 224.06 237.95 231.19 236.8 232.98 234.57 235.83 234.31 236.71 231.5 236.07 229.32 234.92 228.03 231.99 225.93 229.13 225.59 223.89 227.24 222.69 227.35 218.62 226.65 216.5 227.6 214.25 230.7 212.02 231.39 206.16 230.57 204.57 231.26 202.43 233.18 199.17 236.98 195.84 238.92 192.25 236.13 190.27 236.74 187.91 239.36 185.97 240.97 184.65 243.93 182.68 250.8 182.35 254.53 182.3 262.05 181.19 264.99 179.65 267.65 178.21 267.62 175.49 266.04 173.52 263.55 172.23 261.16 170.03 254.87 169.03 253.39 165.79 250.98 164.96 246.23 161.98 242.03 159.82 240.09 156.55 237.97 154.45 237.87 153.82 240.37 153.92 245.02 153.6 248.31 157.35 251.88 160.56 254.18 161.61 256.24 161.07 257.36 156.24 257.8 153.48 259.72 151.66 259.95 147.75 257.48 144.76 254.74 142.07 253.35 140.91 252.3 139.26 248.94 138.97 247.13 137.21 244.83 134.54 243.95 131.98 244.38 130.84 245.65 127.4 247.52 123.83 250.75 120.19 251.74 117.55 251.97 113.07 253.19 111.98 252.89 109.35 250.92 107.29 250.7 103.03 252.8 97.73 260.68 97.27 262.94 94.18 260.54 85.96 255.74 83.22 254.65 73.78 251.73 62.99 246.13 59.45 244.47 48.29 240.25 40.99 238.16 31.26 236.35 28.36 234.06 24.55 228.2 19.99 221.94 10.31 212.25 4.59 202.66 2.36 199.32 1.04 195.08 1 192.91 3.26 184.46 3.56 177.02 5.26 173.2 9.02 169.97 10.62 169.55 12.78 171.12 15.5 174.11 19.47 176.58 23 177.66 25.77 178.07 29.05 178.02 32.33 177.27 36.99 175.46 42.86 173.63 48.35 171.23 53.62 169.45 56.38 169.33 58.68 169.68 63.52 171.5 68.62 171.07 71.3 172.56 73.87 174.72 76.69 174.7 79.96 173.33 87.98 171.83 90.47 169.88 91.38 165.98 91.36 164.27 90.26 160.56 88.49 156.93 86.58 153.96 83.54 151.17 81.69 148.79 74.74 140.57 70.81 136.64 68.31 134.82 65.04 133.16 63.18 131.6 59.68 127.71 59.12 124.63 59.93 121.88 62.9 116.94 63.67 114.69 64.89 109.37 65.83 101 67.04 96.92 69.58 93.24 72.97 87.26 74.67 85.21 77.03 83.35 80.21 81.57 85.5 79.22 87.36 78.15 89.23 76.33 90.68 73.84 95.08 70.37 99.89 67.4 102.27 64.5 103.12 62.24 104.93 55.45 107.02 48.85 107.96 45.12 107.97 41.38 106.53 35.33 106.14 32.45 106.21 29.01 106.96 22.69 107.85 18.19 110.15 15.79 113.32 14.64 117.14 15.68 119.81 18.1 122.02 21.61 124.45 23.85 126.69 25.24 132.1 27.93 136.22 30.32 141.37 33.67 151.15 40.64 154.75 43.56 156.43 45.29 157.56 47.2 158.62 50.08 160.1 55.44 160.8 59.92 162.83 67.59 166.92 75.77 167.75 79.83 167.49 85.72 166.87 91.07 167.03 93.56 167.82 97.1 169.8 104.13 171.12 107.58 172.68 109.38 178.8 111.89 191.78 115.16 194.68 116.21 199.05 119.67 202.98 124.36 205.01 127.61 206.79 129.44 210.76 132.52 213.6 134.02 220.6 136.69 222.68 137.02 228.62 137.03 237.75 135.04 243.31 134.27 246.2 132.55 247.52 130.7 247.42 126.51 246.16 122 244.49 118.65 237.8 108.41 234.66 102.12 233.76 97.91 233.98 95.99 236.76 90.24 239.14 87 241.17 85.19 249.93 78.91 252.92 75.65 257.76 70.86 259.87 67.89 262.74 64.63 265.38 62.06 268.99 59.14 272.46 55.45 273.56 52.55 274.04 48.7 275.73 45.7 277.19 44.75 280.7 43.51 283.67 42.81 289.2 42.96 293.89 44.62 297.66 47.31 302.77 52.28 305.89 54.79 309.6 56.82 315.59 57.77 321.45 57.77 326.02 58.27 329.91 59.21 333.29 59.54 338.12 57.79 343.73 55.04 346.24 52.4 347.73 49.13 347.63 47.07 345.2 40.79 344.29 37.56 343.4 30.41 343.7 27.87 345.79 17.82 346.74 14.86 347.98 9.59 349.21 6.45 351.54 2.71 354.05 1.27 355.56 1 357.95 1.65 359.97 3.39 363.64 8.35 369.93 15.75 374.01 21.1 375.25 24.54 375.65 28.17 375.46 30.74 374.37 34.68 372.27 39.8 371.91 42.6 372.07 45.17 373.2 49.27 376.64 57.99 380.58 62.51 382.13 63.36 385.61 63.33 389.65 62.59 394.2 61.29 398.74 60.6 403.35 60.29 411.39 60.24 416.45 60.62 422.71 61.49 429.24 63.62 434.05 65.79 441 69.27 447.91 72.91 450.24 75.87 449.87 77.86 441.06 88.15 438.28 91.15 436.64 96 436.82 100.77 437.88 104.96 438.79 107.39 440.44 109.1 445.09 111.27 450.93 113.4 455.86 116 468.4 126.46 473.19 130.88 482.03 139.51 486.3 144.05 488.39 145.42 490.08 148.63 490.15 154.81 489.69 159.62 487.89 161.99 485.43 163.15 482.35 163.62 473.37 163.02 470.18 162.32 466 162.17 462.97 163.7 462.08 164.6 458.99 170.01 456.84 172.58 455.39 176.9 455.12 179.53 454.35 182.28 454.76 185.05 456.25 187.2 461.13 191.21 466.12 193.58 468.17 193.49 477.4 190.12 480.68 189.17 486.92 188.1 489.76 187.25 496.53 183.96 500.41 182.79 505.21 182.08 509.86 181.03 513 179.78 514.81 178.4 518.68 173.59 523.51 166.28 525.77 163.67 529.16 161.75 532.18 160.71 536.63 160.68 539.6 162.34 541.01 165.01 541.43 167.5 542.25 168.88 542.31 173.93 540.46 177.84 536.68 182.53 534.64 183.84 531.2 184.86 523.25 186.35 522.07 186.72 515.38 189.87 510.65 192.48 508.34 193.32 506.29 195.05 503.24 198.83 501.45 202.85 500.67 205.74 500.24 213.5 502.28 221.46 503.15 222.66 505.29 223.9 511.29 226.1 518.19 230.08 523.84 232.76 516.43 249.85 514.03 254.32 503.33 271.77 547.73 302.47 548.68 300.61 552.59 299.21 559.38 298.51 560.84 297.87 561.55 296.33 564.16 298.62 566.27 298.5 568.16 296.18 569.63 296.82 571.1 292.54 573.53 292.82 577.48 291.87 576.89 291.05 579.15 289.55 580.66 289.47 583.77 283.42 583.07 281.62 581.09 279.8 581.63 278.96 596.4 283.49 605.14 285.74 609.81 285.92 615.02 290.42 617.16 291.63 625.4 294.72 627.53 296.07 630.75 298.96 633.44 302.03 643.51 312.73 644.88 315.03 644.98 317.51 644.36 319.61 643.35 320.86 639.52 324.17 633.26 328.57 630.46 331.06 628.5 333.68 626.76 338.6 625.15 341.85 621.47 346.8 620.16 350.2 620 352.12 620.79 355.34 622.83 360.67 623.61 374.27 625.43 377.68 629.15 379.48 633.88 380.3 638.03 381.83 654.72 389.41 657.03 390.67 660.74 392.15 663.59 392.65 670.2 393.35 678.48 395.37 682.61 396.13 687.6 396.18 691.55 395.35 693.22 394.66 695.44 392.49 695.83 389.39 694.34 387.06 687.04 381 685.63 377.87 685.52 369.89 686.25 366.48 689.18 363.49 691.49 361.99 696.67 361.87 699.18 362.49 702.44 365.02 703.9 368.31 705.61 375.02 706.75 377.96 710.13 383.94 712.49 387.74 713.4 388.61 719.32 390.96 725.84 394.5 729.18 396.71 732.05 397.45 733.91 397.47 739.25 395.73 743.49 393.27 746.73 390.16 750.71 385.38 752.5 382 757.97 373.43 761.15 370.86 766.43 367.4 770.1 364.39 773.01 362.34 778.95 360.2 781.81 358.6 785.58 358.04 788.21 358.85 793.92 362.46 797.85 367.36 798.67 369.36 799 373.41 798.24 375.87 796.2 377.63 793.02 379.56 790.48 380.27 787.9 380.47 780.9 380.09 776.53 378.67 773.75 379.23 771.67 380.59 770.14 382.44 769.16 385 769.01 389.12 770.04 391.85 772.84 395.65 777.44 401.26 781.44 405.7 786.45 411.59 787.81 414.28 788.46 422.43 789.31 425.89 791.5 429.4 Z"/>
</g>
</svg>