<?xml version="1.0"?>
<svg xmlns="http://www.w3.org/2000/svg" version="1.2" baseProfile="tiny" width="800" height="859" viewBox="0 0 800 859" stroke-linecap="round" stroke-linejoin="round">
<g id="4212007">
<path d="M 799 323.74 797.03 328.49 797.22 330.22 796.49 332.62 792.21 338.67 790.83 340.06 787.45 340.12 785.78 341.26 783.26 341.38 781.87 340.95 779.54 341.25 778.3 343.21 778.23 345.23 775.43 345.55 771.33 348.13 770.1 350.79 768.37 353.07 766.21 354.55 763.51 355.39 757.3 355.95 755.88 355.79 753.3 357.28 750.56 358.21 749.67 359.43 747.33 360.1 743.28 363.3 739.44 365.07 738.67 363.54 735.18 363.83 729.3 366.12 726.88 367.52 725.97 367.23 724.11 369.26 719.67 371.94 717.67 374 714.9 373.94 713.26 374.76 711.31 374.57 708.23 375.56 706.57 377.1 705.31 378.98 703.98 379.68 702.43 381.5 698.28 380.48 696.85 378.82 691.81 379.18 688.97 379.13 687.24 378.45 683.59 375.32 680.77 374.04 678.83 371.16 677.31 370.9 675.83 371.69 674.62 373.37 672.17 373.63 672.06 377.03 671.25 378.81 667.96 381.36 663.9 380.15 662.63 380.36 662.2 382.31 661.16 383.01 656.84 383 655.65 383.52 653.53 385.81 651.15 386.88 646.48 386.4 644.19 387.95 641.63 387.5 640.32 385.79 638.34 385.38 636.2 389.04 632.82 388.67 630.81 390.43 630.53 392.23 627.05 392.25 623.79 391.11 621.58 393.2 619.68 395.97 616.88 395.78 615.65 396.46 613.99 396.33 612.23 395.09 609.03 394.11 607.62 391.49 606.11 391.72 604.05 390.92 602.26 391.39 598.57 389.83 594.47 386.33 591.97 383.69 589.47 383.49 585.84 381.31 583.58 381.27 579.75 380.45 575.87 380.74 574.35 381.86 574.17 383.68 572.66 386.5 571 387.69 568.76 386.06 567.24 386.39 563.96 389.66 563.22 389.56 559.56 387.44 558.85 387.52 557.44 389.64 556 390.77 550.79 393.09 549.3 394.6 548.74 398.12 546.87 399.31 544.51 399.05 542.68 399.86 539.43 400.57 536.81 401.91 531.36 402.14 530.53 404.88 528.22 408.29 526.17 409.3 525.11 408.78 522.89 405.96 521.02 404.75 517.99 405.57 516.33 407.04 516.05 411.33 515.44 413.77 515.47 417.15 513.18 418.16 510.19 417.04 508.92 416.02 506.03 415.78 504.35 417.4 499.49 419.5 501.53 422.88 504.08 425.2 505.12 427.95 504.25 430.11 505.61 433.93 504.64 435.38 499.35 436.75 497.87 438.06 496.19 440.72 493.19 443.09 492.4 443.12 490 441.36 487.88 441.39 483.57 442.17 481.14 442.26 481.7 444.28 485.68 445.23 486.74 447.7 485.28 450.13 484.71 452.57 483 453.38 480.62 452.93 479.38 453.22 477.86 454.65 478.23 456.16 478.17 467.13 478.84 469.31 478.18 471.12 476.26 471.69 476.81 473.14 480.6 474.39 482.26 475.59 483.99 477.57 483.84 479.23 478.57 483.4 475.56 485.09 475.75 486.56 479.17 489.24 478.72 490.67 477.19 491.87 474.69 491.92 470.97 490.76 470.19 489.32 469.95 487.1 471.2 483.81 471.45 480.47 469.44 477.79 467.56 477.58 464.28 479.12 462.13 478.85 459.62 476.79 455.55 474.06 453.6 473.27 449.93 473.59 447.84 473.09 446.95 470.91 448.98 467.88 448.8 467.05 446.69 465.99 444.4 467.23 442.04 469.48 441.86 470.83 442.28 474.39 441.51 477.22 442.15 478.09 443.39 481.68 444.81 483.77 444.41 485.16 440.95 489.16 441.1 490.54 445.88 493.54 446.18 497.78 447.43 501.84 449.19 504.02 450.68 504.82 452.95 505.01 460.31 502.65 463.13 500.7 469.46 502.23 473.09 504.49 473.71 505.42 472.91 507.73 469.65 509.82 465.2 510.36 462.2 511.73 456.17 513.49 452.43 513.49 446.44 511.53 443.89 511.41 441.98 510.58 439.09 508.14 433.61 502.69 431.02 499.12 429.7 497.98 427.55 497.36 424.16 496.97 421.94 497.2 419.37 498.24 417.26 500.43 416.69 502.39 415.4 504.55 415.19 506.21 416 508.36 418.11 510.68 418.38 512.31 419.54 514.41 422.31 515.7 424.44 516 427.73 517.57 433.33 519.29 436.56 519.63 438.92 520.32 440.05 521.24 442 524.81 442.44 527.07 442.53 531.25 441.7 532.33 439.2 533.75 435.24 533.03 431.75 531.49 430.42 532.28 428.92 537.11 428.21 538.47 426.22 538.93 423.72 536.6 420.11 534.16 418.03 531.91 416.38 529.21 414.99 528.56 413.52 529.07 409.19 532.33 408.31 534.25 407.86 536.75 407.91 539.2 408.51 541.85 409.64 543.2 411.3 543.61 414.41 543.34 416.69 545.73 417.88 552.61 417.52 557.76 413.6 558.5 412.59 559.48 412.4 561.57 412.98 564.27 414.16 567.55 413.41 570.25 414.04 572.49 414.04 577.33 413.42 578.1 410.67 576.98 408.66 575.58 406.35 572.87 401.79 571.28 399.67 571.19 397.62 571.92 394.76 574.57 394.41 576.07 395.11 579.93 396.51 582.86 397.48 583.79 400.31 584.46 403.23 584.55 404.92 585.36 404.91 589.15 404.04 591.81 404.66 594.74 407.02 595.75 408.15 595.67 410.64 593.92 411.76 593.87 415.68 596.57 418.06 596.51 419.48 594.88 422.25 595.9 425.39 596.51 426.37 597.26 428.06 601.12 428.42 604.37 427.65 605.6 424.21 606.62 421.14 609.29 419.41 611.2 414.85 612.25 412.38 610.49 409.96 611.44 408.54 613.74 409.85 615.19 409.75 620.3 411.15 622.31 413.86 622.72 415.28 623.42 425.68 624.28 425.68 627.23 423.7 633.76 419.62 635.78 415.93 632.94 413.92 633.59 410.29 638.27 406.56 645.11 403.47 646.15 400.14 646.06 399.34 647.41 400.67 649.59 406.61 653.02 406.85 653.85 402.3 660.32 400.06 662.2 398.52 662.52 395.39 661.98 390.37 659.68 386.5 657.03 385.86 655.79 386.87 653.88 386.19 650.17 382.32 649.96 380.25 649.45 377.96 647.64 373.93 648.28 368.67 650.36 363.26 651.27 360.5 653.55 358.03 657.92 357.44 660.09 357.88 661.23 360.08 663.09 360.9 664.78 364.06 666.74 364.19 669.06 363.11 669.73 359.55 670.26 358.33 671.21 353.81 676.07 354.16 677.45 355.4 677.99 360.79 681.72 361.58 683.35 359.9 684.09 353.81 683.71 352.41 683.26 350.77 683.8 349.14 686.38 349.77 689.84 348.88 690.53 343.11 689.2 340.74 688.88 335.92 688.86 331.97 687.39 330.31 685.94 330.07 683.82 328.33 678.11 327.64 673.65 325.91 670.7 324.42 670.46 323.08 671.58 320.37 670.78 318.77 669.59 318.33 667.51 322.01 663.19 327.37 657.33 329.08 654.64 328.09 652.77 325.87 653.45 319.07 654.4 315.18 656.03 313.36 658.73 315.02 662.82 315 664.79 312.7 665.36 308.41 663.06 305.53 663.74 304.53 665.12 304.29 667.61 305.44 671.42 303.28 672.59 300.26 671.29 297.71 671.79 297.12 672.9 297.5 675.06 298.75 677.29 300.83 679.49 302.6 679.77 303.57 681.77 303.95 684.77 302.98 687.44 300.3 688.79 297.8 689.37 295.8 689.36 292 691.32 288.71 694.85 287.19 695.29 285.58 693.85 285.22 692.23 285.79 690.7 286.6 686.01 286.52 683.86 283.73 680.42 281.59 675.37 280.82 674.63 277.87 675.04 276.85 677.55 277.25 679.56 276.09 683.12 274.9 684.25 271.64 685.59 267.1 685.27 265.49 686.28 265.81 688.13 269 689.74 273.36 693.83 273.71 696.17 271.99 700.59 271.14 701.49 270.61 704.51 269.3 707.45 267.97 709.29 265.01 710.99 260.81 711.27 258.62 712.46 257.14 714.07 254.7 717.66 252.75 718.32 250.84 717.77 250.11 714.74 248.5 712.96 246.89 712.5 245.03 713.06 244.34 716.32 245.08 719.31 248.15 723.91 248.72 726.45 246.77 728.12 244 728.25 239.26 727.24 234.49 724.07 230.28 719.01 229.61 717.91 225.37 714.19 223.48 712.94 221.39 713.63 216.03 718.24 215.34 719.37 215.3 721.73 216.08 723.06 220.8 727 221.87 729.17 222 730.87 221.33 735.6 221.97 741.96 220.38 744.23 218.51 744.1 215.29 742.19 211.42 741.83 209.54 743.13 209.32 744.8 210.79 747.57 210.19 750.39 207.28 751.95 205.18 752 197.11 746.44 195.53 745.89 192.18 745.98 190.45 746.96 185.83 746.94 181.82 746.44 179.23 747 177.76 749 178.88 751.45 180.45 753.48 182.39 757.94 184.34 759.63 188.08 761.78 189.02 763.11 193.9 767.75 194.64 770.05 193.83 770.9 191.4 771.34 190.19 772.7 188.04 773.24 183.47 773.1 179.36 773.49 177.94 775.01 178.65 777.97 179.93 777.99 182.04 780.07 188.48 783.63 194.51 784.68 197.55 785 199.98 785.89 203.6 785.83 206.71 786.15 209.19 788.75 209.77 790.9 211.22 791.87 213.19 794.71 213.1 796.23 211.99 797.55 209.48 798.3 205.76 797.58 203.84 797.89 200.4 797.61 198.3 796.51 194.87 793.31 193.8 792.79 191.06 793.43 189.38 795.74 187.48 797.22 182.41 800.29 180.48 800.74 173.71 800.07 171.51 800.62 170.14 802.94 170.55 805.27 169.99 808.41 167.69 810.58 164.31 810.99 160.66 808.91 157.78 808.56 156.1 810.02 156.01 811.39 156.99 815.98 156.24 818.03 154.54 818.08 153.06 817.15 149.61 812.23 146.95 810.46 144.63 810.31 142.84 811.33 140.17 815.56 139.62 818.08 137.49 824.23 134.83 827.38 130.96 831 127.73 831.83 124.93 830.29 122.9 827.45 122.47 825.67 121.16 824.08 118.25 822.59 115.88 822.66 113.1 823.4 110.28 823.38 105.94 822.74 104.62 822.14 101.12 822.92 98.67 827.04 97.63 828.14 95.35 829.18 91.48 829.46 88.86 828.55 86.03 828.82 79.36 830.41 75.91 830.26 74.36 828.58 74.1 827.23 74.64 825.23 72.81 822.89 70.88 821.82 68.09 821.45 62.65 819.63 61.21 819.77 59.73 821.11 57.97 831.76 57.78 834.67 55.96 842.48 56.37 846.09 58.4 852.5 58.51 857.56 56.85 858 54.4 856.52 52.96 854.28 51.71 849.49 49.15 845.03 46.61 843.02 41.41 840.64 38.32 840.19 37.93 838.45 36.31 834.92 34.5 832.38 30.37 828.96 20.88 823.04 14.99 819.7 12.2 817.8 6.86 815.11 1.99 810.98 1.03 808.86 1 806.91 1.8 806.03 5.72 805.97 10.74 809.48 13.42 811.1 17.56 812.34 23.62 814.8 25.41 815.92 28.56 816.45 30.46 816.03 33.09 814.64 37.18 811.79 38.88 808.91 38.59 807.85 35.55 801.28 34.87 798.49 31.83 796.3 27.33 793.61 21.71 789.3 16.45 783.63 14.31 780.33 13.07 779.1 10.9 775.52 9.3 770.62 8.39 768.91 8.68 765.1 10.11 763.6 12.17 762.52 16.24 762.04 18.34 762.3 22.95 761.85 27.03 762.34 33.46 762.76 36.9 763.46 44.88 763.75 46.02 762.57 45.65 759.48 44.04 755.85 41.67 752.49 39.31 750.68 36.22 748.98 29.12 744.09 23.37 738.92 21.3 736.76 17.08 734.17 14.65 732.31 13.06 728.22 11.88 726.31 12.73 725.43 14.94 725.46 20.03 728.47 25.4 733.33 27.6 734.76 30.78 735.26 35.46 734.54 40.75 732.72 44.26 730.79 48.76 729.29 51.59 729.79 54.37 728.14 55.33 726.97 55.3 724.35 51.36 721.63 46.27 720.02 41.92 717.76 37.77 716.71 35 715.38 32.68 715.31 30.85 713.75 30.51 712.29 31.01 710.02 33.38 706.51 39.47 702.99 39.94 700.31 39.07 697.7 37.22 694.56 35.78 690.45 34.84 684.69 33.5 681.85 31.25 678.09 28.83 674.93 28.75 671.15 29.98 668.26 31.69 665.92 33.29 664.63 35.83 663.88 39.23 662.17 42.43 663.45 44.87 667.37 45.87 671.36 46.36 674.95 48.71 680.26 51.05 681.7 51.96 681.71 54.33 679.82 55.43 677.27 57.6 675.39 60.07 675.65 64.47 677.91 67.38 677.31 69.6 675.59 74.16 675.07 77.5 675.23 81.08 674.66 83.21 673.09 87.4 670.72 89.94 665.97 91.19 661.92 92.17 660 93.96 658.02 95.35 657.37 104.16 656.5 107.41 655.58 113.34 656.32 114.35 655.36 113.91 652.88 111.74 649.54 110.77 648.9 110.72 647.28 113.25 644.99 114.19 643.16 115.6 638.04 115.58 632.68 116.06 631.4 118.79 627.82 121.33 626.88 125.24 630.71 127.43 634.04 131.15 637.13 134.04 638.03 138.6 638.95 140.19 639.59 144.09 639.59 146.11 638.36 149.16 637.49 150.69 636.19 150.73 634.62 149.28 632.52 144.82 631.34 140.98 629.91 134.57 626.57 134.64 623.69 133.82 622.32 134.53 621.22 142.23 618.21 143.78 617.84 146.76 619.58 148.87 619.57 151.39 620.65 154.03 620.35 154.33 618.06 153.73 616.06 153.54 610.92 155.03 606.08 156.68 603.54 156.53 602.05 151.61 599.24 148.22 597.9 140.86 598.05 135.83 596.56 132.19 594.95 130.71 593.64 127.62 584.89 126.15 582.61 127.72 581.12 130.14 580.81 132.36 579.87 135.36 580.05 137.34 581.04 140.53 581.54 145.53 581.39 146.78 580.45 145.48 575.87 144.68 570.67 145.61 569.73 149.45 570.52 153.73 571.06 156.81 571.93 160.38 571.98 165.62 573.49 171.02 574.08 174.5 570.71 174.66 566.59 173.3 565.13 167.55 564 166.61 563.39 162.17 562.27 159.86 560.82 156.82 556.88 155.71 552.57 156.59 549.36 158.62 548.5 164.36 547.28 166.19 546.63 169.72 546.89 172.27 545.97 174.78 545.96 180.4 547.72 181.71 547.43 182.5 545.41 181.32 540.87 84.11 551.04 52.3 560.96 50.55 559.69 46.74 558.74 43.37 556.82 40.28 557.64 35.09 557 32.83 555.22 28.6 550.7 27.15 550.14 25.18 551.46 22.46 552.23 20.87 551.47 19.39 549.84 20.24 544.96 19.52 541.36 18.03 539.97 17.62 536.51 20.66 533.42 22.12 530.59 20.01 528.6 16.22 527.82 15.36 527.01 15.29 525.03 16.5 521.89 19.13 520.71 22.66 520.5 24.28 519.07 24.07 517.86 22.44 514.99 23.22 513.1 27.83 510.89 29.24 510.73 32.14 511.36 35.34 514.06 37.27 514.91 38.86 513.49 36.54 507.27 36.86 501.3 36.24 497.92 37.22 496.47 38.98 495.76 41.12 495.74 43.07 494.37 44.93 494.96 46.24 497.4 47.77 498.35 52.08 499.59 53.88 500.67 55.96 500.31 56.01 498 54.92 494.28 54.34 490.49 54.43 487.96 54 483.39 50.79 479.72 50.56 477.26 53.82 473.65 54.42 472.03 54.02 469.58 52.73 467.47 50.56 466.07 48.49 466.17 45.45 467.82 41.61 468.48 40.42 467.8 40.08 462.19 41.27 456.53 40.56 454.01 36.3 453.27 34.28 452.24 33.8 451.33 34.4 447.4 36.64 443.27 38.1 442.35 39.65 443.04 42.06 445.97 48.17 451.01 49.78 452.76 50.5 454.52 52.94 457.04 54.03 456.48 54.6 453.32 54.39 451.56 53.05 448.47 51.49 446.27 51.14 443.34 52.22 442.74 55.94 445.23 61.47 448.03 63.82 448.52 64.55 447.02 63.63 445.41 62.83 442.56 60.52 436.44 60.42 433.04 61.15 432.17 62.87 432.04 65.1 432.84 68.34 434.72 69.97 434.9 73.99 433.33 74.58 430.72 73.24 427.72 70.37 424.39 68.41 421.53 67.05 420.78 64.78 421.32 63.66 424.77 61.61 424.74 61.38 419.66 59.63 417.73 54.92 416.75 54 415.94 48.18 414.56 44.03 411.91 44.42 410.51 49.97 407.8 51.3 407.42 54.38 405.11 55.49 402.62 55.82 400.61 55.4 398.72 52.51 393.25 54.92 390.62 56.9 387.56 58.35 386.39 60.02 386.7 60.98 389.28 62.41 391.34 64.04 390.85 65.9 386.65 68.98 383.74 69.8 381.16 72.23 379.55 74.65 379.65 75.85 380.3 77.56 382.37 78.4 385.66 80.85 385.8 81.04 382.76 82.58 374.67 82.46 373.14 81.29 372.04 78.07 371.26 74.74 370.37 73.05 369.52 71.76 368.16 72.15 365.14 74.86 364.38 76.21 362.42 74.72 360.67 73.27 356.84 74.18 354.09 80.13 353.71 82.18 352.07 84.28 346.1 87.73 343.06 90.29 341.85 93.81 341.65 95.25 339.62 94.99 338.48 91.14 333.3 89.59 332.34 89.89 331.47 93.68 328.64 94.92 329.89 96.02 332.4 99.59 336.14 101.34 339.37 103.43 339.31 103.74 334.89 103.62 332.08 104.98 329.47 107.46 327.47 109.2 328.83 109.56 332.26 113.15 333.25 115.57 334.75 118.13 333.71 120.47 329.61 121.81 328.8 121.57 326.64 120.18 324.42 118.78 323.14 118.78 321.23 122.23 322.97 123.61 323.18 125.37 322.18 126.13 320.59 125.62 318.75 128.01 317.94 129.6 316.7 129.44 313.03 127.96 310.84 124.4 310.34 123.72 308.33 125.22 307.78 127.1 305.99 128.33 305.49 131.34 305.32 132.79 303.94 131.76 301.28 132.1 300.6 134.57 300.01 136.64 300.94 138 304.27 138.12 306.8 139.1 307.45 141.24 306.83 145.83 306.51 148.21 305.64 148.33 304.15 145.85 301.62 143.93 300.18 144.56 298.96 149.37 298.64 151.01 298.18 153.06 296.62 152.15 294.72 149.55 294.9 145.21 296.68 142.44 294.54 140.19 291.3 137.83 290.84 134.62 291.28 133.67 290.28 134.77 285.6 135.23 280.61 134.71 278.07 135.89 277.86 137.55 279.33 139.34 281.68 140.44 281.84 145.42 280.27 147.65 278.96 149.66 278.54 152.23 281.14 152.99 284.04 152.72 286.2 154.2 286.6 155.88 282.51 158.11 281.37 161.15 281.88 161.66 280.69 160.41 278.05 160.84 277.11 163.29 274.92 163.78 272.96 160.78 271.87 156.66 271.83 154.73 270.76 153.59 270.91 153.01 273.98 150.88 275.1 149.27 273.45 150.3 271.08 150.12 270.12 148.22 269.13 146.1 269.49 144.47 269.06 144.17 268.09 146.31 265.84 147.38 263.22 149.26 259.79 149.46 257.02 152.54 256.97 155.01 256.34 157 256.33 157.88 255.66 158.49 252.73 159.86 252.77 162.84 255.29 165.01 255.2 168.39 251.89 168.17 250.66 169.82 250.39 172.91 250.76 174.42 250.03 174.37 248.11 171.86 247.32 169.01 245.03 169.54 244.05 174.84 243.53 175.48 242.67 175.14 239.27 173.94 237.61 172.39 238.73 170.7 239.09 168.07 238.01 167.5 236.15 167.91 234.93 171.82 233.62 172.51 232.62 171.19 229.47 169.42 227.6 167.02 223.84 166.58 220.99 170.94 219.27 172.7 220.38 176.38 220.86 180.6 220.07 181.58 218.38 182.87 218.29 187.96 221.83 188.81 221.38 187.12 214.3 189.59 212.84 191.17 213.22 191.9 211.41 191.47 206.22 190.85 203.9 189.66 202.5 187.15 200.96 186.37 199.96 187.3 198.23 190.36 196.44 191.7 196.36 192.68 197.99 194.52 196.98 195.97 195.22 196.53 191.61 198.82 187.64 201.58 185.11 203.15 184.47 204.15 187.38 212.25 188.88 211.92 190.38 213.62 191.4 214.81 190.77 216.92 187.85 216.89 186.31 216.06 183.62 213.65 182.83 213.97 177.6 212.81 175.29 209.94 174.62 210.44 171.79 210.74 167.73 211.58 167.75 217.99 171.65 220.33 172.74 220.97 169.02 219.14 167.17 219.59 166.08 222.46 163.84 224.88 164.73 225.15 165.76 227.44 166.66 231.75 162.95 232.46 161.8 236.15 159.37 236.14 157.58 233.67 154.85 233.51 153.23 235.39 150.96 233.98 149.39 235.67 146.48 233.78 142.76 232.52 141.5 233.67 136.59 233.1 134.63 231.82 133.4 231.1 131.4 234.24 129.83 234.23 127.55 234.82 125.76 234.87 123.06 236.45 118.3 235.81 117.85 232.89 118.86 233.42 116.6 232.29 115.7 232.31 112.89 234.52 110.68 236.6 109.62 239.13 106.78 238.94 104.45 236.84 101.93 236.86 100.51 239.36 99.14 239.71 97.95 238.94 95.89 239.09 90.19 240.57 88.6 240.51 87.19 239.42 83.8 240.9 80.44 241.31 77.97 242.58 76.12 241.98 75.03 240.17 74.14 238.8 72.72 237.76 67.39 238.94 66.82 240.06 64.39 241.87 53.14 243.01 48.15 242.69 46.76 244.67 42.95 244.09 41.35 243.55 27.91 242.02 24.62 242.22 21.08 239.86 19.19 238.78 16.76 238.87 15.05 236.84 12.66 238.17 11.18 244.93 8.5 247.18 8.34 250.26 9.16 257.52 13.64 263.2 17.34 271.23 22.26 274.53 23.99 277.72 24.9 281.08 25.27 285.01 25.17 287.64 28 290.27 29.91 291.46 30.1 295.03 29.56 297.66 29.94 299.48 30.94 302.14 31.38 302.74 32.04 303.13 35.62 303.73 36.09 308.04 36.12 312.46 36.59 314.1 35.11 318.52 33.15 320.83 33.25 322.04 34.1 320.6 35.48 320.22 37.34 326.19 42.64 327.87 42.23 330.75 44.53 332.06 43.16 333.49 40.33 335.58 41.4 338.15 41.92 338.8 42.94 344.15 44.89 353.46 46.42 354.72 40 356.4 38.59 362.56 36.46 364.59 34.7 372.05 28.95 377.63 24.89 383.92 20.83 390.5 16 395.8 12.47 401.31 8.54 404.56 6.7 411.89 4.69 415.96 2.94 419 1 427.42 2.11 430.99 4.22 433.36 12.13 433.27 14.7 430.27 16.26 431.94 18.27 435.46 18.97 434.64 21.56 432.41 24.42 432.21 28.44 429.76 32.59 428.87 35.02 429.82 37.85 430.09 40.3 431.17 41.95 432.74 43.15 436.62 44.97 444.16 45.36 446.97 44.48 453.67 43.76 454.51 44.25 454.99 49.89 456.19 52.23 463.96 51.9 465.75 52.21 468.77 54.55 469.82 56.36 469.2 59.99 467.72 63.38 468.97 66.99 470.59 69.46 471.89 73.08 473.63 75.68 476.66 77.04 477.17 79.2 474.83 82.17 475.04 85.77 474.72 90.29 475.3 94.41 475.7 95.07 479.54 95.87 482.02 95.56 484.46 96.09 485.06 98.14 484.59 102.56 483.63 107.18 483.31 111.61 481.79 114.08 479.46 122.8 478.36 126.39 477.9 132.79 478.03 135.13 482.6 132.67 484.76 132.34 487.59 131.12 489.46 130.85 491.3 132.4 493.82 132.52 496.65 133.19 499.38 132.61 501.73 133.3 504.19 132.64 506.1 133.12 509.31 131.69 512.51 133.49 513.19 138.99 513.11 140.87 512.09 146.01 512.32 148.73 515.96 151.53 518.17 153.8 520.83 154.67 521.97 155.99 523.61 156.65 527.58 159.31 531.64 161.33 534.86 160.8 538.38 162.02 540.19 164.96 543.36 164.69 545.17 166.99 549.26 167.53 552.32 168.42 553.19 169.08 553.93 171.55 554.06 173.65 557.55 176.52 558.42 180.06 559.17 181.09 562.14 186.86 563.15 189.98 565.89 190.12 566.54 191.36 565.98 195.05 566.2 197.71 567.03 199.2 570.8 201.82 575.13 203.1 577.62 204.37 587.08 213.1 596.21 224.8 600.57 226.33 609.76 226.46 641.01 247.05 652.89 250.83 658.75 258.63 670.9 264.4 674.95 264.88 680.19 259.92 683.69 259.63 689.01 269.66 702.25 273.96 710.52 282.18 717.74 295.75 724.14 302.79 729.43 304.94 743.29 303.79 770.08 315.05 777.8 323.54 782.7 325.79 788.69 325.67 794.93 325.21 799 323.74 Z"/>
</g>
</svg>