<?xml version="1.0"?>
<svg xmlns="http://www.w3.org/2000/svg" version="1.2" baseProfile="tiny" width="800" height="799" viewBox="0 0 800 799" stroke-linecap="round" stroke-linejoin="round">
<g id="4212700">
<path d="M 763.45 467.05 763.51 469.08 764.69 471.27 766.76 473.51 770.13 474.7 770.61 476.32 769.29 478.2 765.13 478.7 761.78 481.98 753.68 487.52 748.89 491.66 745.98 491.25 745 494.43 740.85 494.75 738.64 497.27 733.3 496.59 730.91 494.59 728.24 494.85 726.06 493.72 725.39 491.47 723.24 490.99 722.71 494.71 720.56 496.93 719.8 499.12 717.39 500.69 715.27 503.31 707.75 503.86 704.96 504.66 700.18 508.24 698.51 510.65 694.22 510.67 692.58 512.58 688.52 513.66 686.56 518.59 683.89 518.39 683.77 513.91 681.46 512.94 676.45 515.94 676.31 518.93 675.09 521.37 671.97 521.54 671.71 525.68 668.62 530.67 669.69 534.23 668.45 535.64 670.4 540.13 670.01 542.78 667.39 546.46 666.74 549.33 665.3 550.84 664.36 553.48 662.3 554.18 662.26 556.41 660.35 556.8 660.56 558.71 657.75 559.5 656.21 561.93 657.01 564.84 659.06 566.39 655.96 569.9 655.33 573.23 653.49 576.15 649.08 578.57 650.48 580.19 649.25 582.69 647.9 583.21 645.7 587.75 642.46 587.24 643.15 589.67 646.19 592.18 646.52 596.99 644.63 599.26 645.15 601.9 643.22 602.74 642.23 605.78 645.74 608.48 647.82 611.63 647.66 613.14 649.76 615.18 648.21 618.21 648.03 621.44 646.05 622.98 645.26 625.33 645.41 627.98 651.19 638.86 653.43 642.13 654.15 647.4 651.36 650.33 650.76 651.95 644.88 652.09 643.08 651.36 640.54 648.74 636.93 647.29 633.71 648.55 626.62 647.63 624.35 648.82 621.69 649.13 616.96 651.01 616.68 654.1 615.16 656.13 611.99 658.58 608 664.07 605.14 667.42 605.03 671.79 596.01 680.36 588.77 689.48 582.89 693.89 581.1 694.84 576.36 695.68 572.47 698.58 570.71 701.53 568.78 703.33 565.34 704.62 562.56 706.89 558.83 708.9 557.39 713.09 557.76 715.29 554.76 717.83 549.24 718.93 544.09 720.81 541.24 721.36 538.89 722.89 540.15 728.36 540.12 729.88 535.95 735.58 535.72 741.59 533.97 742.52 532.12 741.91 529.64 743.72 528.43 741.41 526.48 742.46 524.21 742.33 521.53 744.27 520.02 747.14 517.72 746.48 516.46 748.33 513.5 749.21 511.07 749.08 508.56 752.92 505.62 752.26 502.75 753.37 501.53 755.71 496.55 755.62 494.94 756.17 490.4 761.97 489.54 765.1 487.99 766.3 481.43 768.12 478.21 769.58 472.26 770.36 468.61 770.41 461.38 769.62 457.17 768.11 452.22 765.58 448.32 764.39 442.35 764.74 440.84 763.01 436.49 764.89 434.67 768.34 433.49 769.43 430.12 770.34 425.59 774.04 420.95 775.62 416.23 778.93 412.93 780.57 404.44 782.27 402.24 783.44 399.4 783.34 394.1 781.71 389.08 781.64 383.95 780.9 378.72 778.28 375.31 775.6 373.94 773.16 368.86 771.97 366 770.62 363.31 767.83 362.11 764.9 359.02 762.42 351.95 760.28 346.49 761.11 344.05 760.77 339.39 758.96 335.7 758.04 326.33 754.1 322.88 751.51 318.96 750.07 318.73 747.82 316.98 746.5 316.46 748.92 314.91 751.04 313.74 747.6 311.15 748.58 313.08 751.54 312.89 753.14 311.06 753.71 310.33 751.4 308.19 749.51 306.61 749.2 301.04 746.43 297.63 746.55 290.45 749.21 289 750.27 288.91 752.12 285.16 753.12 283.92 755.07 284.58 758.86 281.38 759.81 279.61 761.15 276.17 760.94 275.58 761.72 274.99 766.14 273.86 768.07 270.99 769.66 270.81 772.2 269.17 772.97 267.53 771.92 265.57 773.05 263.56 777.12 265.5 780.4 265.85 782.89 264.08 785.95 261.97 786.01 260.32 784.47 257.47 783.74 257.08 787.78 255.26 791.79 254.91 794.25 251.33 794.16 249.02 791.86 240.54 789.1 239.05 789.39 234.75 794.17 231.76 794.94 231.21 797.36 229.7 798 226.89 795.97 224.76 793.05 226.21 790.87 224.1 788.27 225.14 777.26 223.22 775.15 213.98 777.16 212.22 776.12 212.68 772.49 210.16 767.96 206.03 768.08 203.14 766.81 199.16 767.42 197.52 766.24 195.48 763.53 192.75 762.34 191.82 760.51 192.85 757.61 191.8 753.03 194.19 751.14 197.32 750.43 200.1 748.43 196.44 747.37 190.5 746.69 187.15 743.94 186.64 742.33 187.84 733 187.36 727.59 185.98 723.01 187.88 718.66 188.05 716.87 185.73 711.87 185.7 707.57 185.16 705.36 183.74 704.2 180.65 699.63 180.66 697.32 186.27 696.94 189.66 697.53 194.54 695.57 195.75 694.54 197.3 691.35 201.22 688.3 202.08 685.96 204.5 682.25 208.26 678.9 210.31 676.32 210.9 674.3 210.17 671.71 211.5 668.8 216.76 664.13 218.51 659.55 219.45 654.43 219.08 652.21 216.3 649.39 213.92 648.5 209.08 648.76 205.18 648.48 204.09 647.56 205.02 645.33 208.21 643.18 208.76 641.87 204.61 637.7 201.85 636.01 198.71 634.82 195.68 631.88 193.45 627.79 192.28 623.64 189.56 620.88 187.25 614.5 184.58 612.88 181.18 606.47 179.52 604.38 175.66 601.37 173.97 598.29 173.88 594.35 172.22 592.42 169.37 594.74 167.27 594.48 163.54 592.04 161.9 587.91 158.92 583.74 157.53 579.73 154.79 576.74 153.41 573.65 150.96 571.95 149.71 569.14 148.05 561.36 146.43 560.74 144.33 562.77 140.15 561.07 135.73 561.64 134.68 563.33 136.05 565.68 135.9 568.2 133.51 571.45 131.35 572.15 129.7 570.97 125.92 566.77 120.95 565.21 120.11 564.25 121.19 561.63 119.33 559.29 122.65 557.71 123.29 555.83 123.11 552.91 124.64 551.71 128.23 545.98 126.65 542.75 121.12 540.36 119.31 537.89 117.13 537.96 112.01 536.72 106.71 536.35 99.47 536.81 98.63 533.17 98.87 529.35 98.08 527.2 93.75 523.17 92.85 521.85 91.42 516.83 91.17 513.46 97.33 507.13 98.55 504.19 97.85 500.74 87.92 496.29 83.6 494.84 81.03 494.49 76.69 488.89 75.56 486.65 75.35 481.01 76.56 476.19 77.19 471.35 76.92 467.16 75.67 462.86 71.49 457.41 71.12 455.51 72.59 452.28 73.41 446.79 73.5 440.79 74.24 438.56 76.49 435.46 77.15 432.66 74.52 429.72 78.84 424.4 84.48 414.72 87.59 414.21 89.51 412.87 90.29 409.72 92.03 407.86 94.7 407.37 97.88 405.62 100.08 406.31 101.23 405.3 101.63 403.07 99.92 400.66 95.07 398.31 94.24 397.11 94.85 393.58 92.67 390.54 92.01 388.4 92.01 382 92.42 377.51 94.8 373.57 94.9 371.78 93.42 367.93 95.53 364.08 95.97 362.19 97.65 360.04 98.43 357.4 97.65 354.47 98 352.72 100.78 349.81 102.32 347.16 105.93 342.72 106.63 338.86 106.12 337.01 107.96 330.72 107.93 328.89 106.6 325.54 106.6 323.37 108.64 319.18 109.78 315.49 113 313.42 119.34 312.68 121.2 315.07 121.43 317.45 123.24 317.61 125.09 316.26 127.12 308.23 126.85 303.79 125.84 299.02 127.01 295.73 126.16 291.72 126.98 288.2 127.11 281.01 129.29 277.83 132.58 276.66 134.7 273 133.69 269.92 131.42 268.3 127.91 262.02 125.1 258.09 121.09 255.57 113.31 252.89 109.9 251.01 103.65 246.82 100.71 245.17 99.3 243.64 95.96 242.07 88.41 236.55 82.88 235.39 79.74 233.16 75.82 231.17 73.4 230.64 67.88 226.98 66.02 224.35 61.19 220.11 57.8 217.8 56.92 215.47 54.8 213.74 50.13 213.3 44.37 218.41 41.21 218.94 37.92 214.3 36.83 212.16 36.43 208.53 35.44 206.81 35.52 204.69 37.23 202.97 36.02 200.72 32.34 201.64 28.46 197.8 23.03 196.01 19.92 194.37 16.64 191.42 10.85 187.58 9.73 185.19 8.01 183.27 5.09 182.75 1 184.23 1.08 182.3 3.33 177.98 4.91 173.68 6.81 172.45 9.42 173.4 14.04 173.91 15.96 174.9 21.7 178.93 26.63 178.83 27.76 176.42 26.07 170.28 24.22 166.49 22.51 164.51 23.33 161.81 25.04 160.61 23.4 156.23 22.15 154.5 19.08 152.81 17.16 150.58 14.45 148.55 10.92 143.75 12.38 140.35 15.14 138.09 15 136.61 13.36 133.51 16.54 129.67 21.25 127.36 25.55 126.77 27.49 127.52 32.01 131.47 36.55 132.5 39.51 131.52 40.21 128.6 38.28 125.37 38.46 122.15 40.13 120 40.73 117.5 39.74 109.32 45.09 105.02 48.49 102.77 51.55 101.98 52.06 100 53.99 97.6 56.9 97.13 59.51 94.8 64.89 96.99 67.53 97.03 69.52 95.22 68.91 91.82 71.5 86.87 73.03 86.42 75.02 83.16 77.66 82.99 84.56 79.72 89.46 77.07 95.99 74.07 96.05 70.77 97.29 69.64 103.74 68.05 106.12 68.26 108.96 71.61 111.53 77.2 115.46 86.83 115.15 88.84 120.88 91.94 124.01 93.22 128.53 94.05 132.19 94.14 134.03 94.73 139.51 94.59 140.49 95.46 144.81 96.04 148.21 96.02 151.01 95.2 154.38 96.43 156.25 98.73 160.5 99.95 162.39 99.12 164.04 99.49 165.57 98.26 193.02 91.18 296.75 63.78 376.02 38.47 441.52 31.57 447.02 26.48 452.84 24.88 457.84 27.07 460.98 26.66 467.78 24.67 470.98 22.97 479.3 20.94 484.27 17.8 491.56 15.61 494.6 14.08 497.66 10.74 504.08 7.22 507.57 4.69 512.46 5.08 521.17 4.67 524.02 3.98 526.55 4.14 530.5 3.53 536.8 1.51 539.8 1 586.24 4.89 710.99 62.95 799 101.16 798.54 103.24 796.72 106.39 794.4 108.35 789.18 111.61 786.81 114.4 786.19 118.67 787.59 121.27 789.26 122.29 791.36 124.95 790.7 127.64 782.08 132.53 778.26 133.73 774.22 136.27 772.78 137.66 771.41 140.51 771.24 143.58 771.9 147.39 773.87 152.03 774.13 153.85 771.91 160.62 771.81 163.37 773.79 168.57 776.61 170.81 779.01 173.73 780.75 179.07 781.18 182.8 780.95 187.65 779.66 190.37 777.46 193.1 773.76 200.63 774 201.97 776.49 205.44 776.68 208.46 772.7 214.57 767.51 224.41 766.66 226.44 762.29 232.55 757.68 236.33 756.57 237.68 751.98 246.06 747.66 249.87 740.65 252.31 738.94 253.53 735.45 259.93 732.22 263.75 728.81 266.83 724.74 268.42 722.37 271.39 719.23 278.39 717.08 280.26 715.42 283.38 714.5 286.42 715.24 290.23 717.11 294.37 720.54 299.01 721.89 302.29 721.56 304.5 719.24 308.73 714.3 313.61 710.02 318.64 708.99 320.54 709.84 324.54 713.69 329.31 714.19 331.48 712.88 332.98 699.19 336.99 691.17 342.06 683.79 344.59 679.7 347.98 678.65 350.3 680.32 356.74 675.53 359.61 674.35 362.34 672.56 364.86 672.41 367.32 672.98 370.45 672.26 372.57 668.46 375.42 672.72 376.84 681.01 376.35 685.49 374.6 689.83 371.9 694.04 371.19 706.3 373.81 709.79 376.7 712.13 376.63 718.15 379.52 723.16 380.58 731.16 383.56 731.14 387.82 732.14 390.58 733.25 397.25 732.09 399.48 732.41 402.04 731.12 404.46 732.46 407.27 731.89 409.15 729.48 412.51 724.21 412.72 723.8 416.51 724.45 418.39 722 421.38 722.6 422.58 718.93 425.18 717.95 428.17 719.53 433.06 720.79 435.21 718.81 443.29 716.75 446.81 712.19 452.98 710.35 454.05 705.12 455.62 701.74 459.99 700.72 460.65 694.37 461.8 690.73 463.49 688.56 463.62 686.03 464.77 677.67 470.39 675.62 473.35 668.78 475.81 662.95 480.57 658.91 483.54 658.11 484.95 659.57 488.55 662.66 488.8 666.62 485.3 667.53 483.6 670.48 481.28 673 480.09 676.02 479.49 676.08 477.5 680.07 474.21 680.4 473.22 684.67 472.61 685.92 471.59 689.6 471.32 695.66 468.14 697.63 468.48 699.87 467.17 702.63 468.1 707.3 467.38 708.97 468.33 711.6 467.8 716.93 470.4 718.48 470.49 722.44 468.43 725.07 468.08 732.28 465.01 734.24 467.52 738.77 468.56 744.29 467.2 748.96 468.25 751.82 467.14 756.71 467.46 763.45 467.05 Z"/>
</g>
</svg>