<?xml version="1.0"?>
<svg xmlns="http://www.w3.org/2000/svg" version="1.2" baseProfile="tiny" width="800" height="810" viewBox="0 0 800 810" stroke-linecap="round" stroke-linejoin="round">
<g id="4212239">
<path d="M 759.21 374.49 762.88 376.87 765.24 381.39 768.27 384.17 772.25 389.78 773.37 390.33 775.47 395.13 778.94 399.07 780.35 399.74 781.86 406.94 783.61 410.95 787.64 414.64 795.98 418.43 799 423.27 798.88 430.66 797.6 435 795.46 439.16 791.63 444.1 789.76 445.02 787.59 450.54 788.54 454.11 788.41 458.34 791.17 464.96 790.87 468.61 789.71 471.01 786.82 472.35 780.84 472.46 775.47 474.87 770 475.52 767.23 471.03 760.79 468.13 757.48 469.78 756.4 471.54 751.52 482.39 751.3 484.45 752.8 488.12 756.76 491.02 763.77 493.5 769.39 494.62 775.61 507.05 775.31 510.27 773.25 512.66 770.28 514.5 768.06 514.78 762.6 512.94 758.19 509.63 751.65 503.58 750.26 501.15 746.82 498.33 743.87 498.28 740.46 501.9 739.22 506.47 737.26 519.72 736.11 522.13 734.15 523.56 732.81 528.34 729.53 532.74 725.71 533.77 722.6 531.82 721.84 529.39 722.63 525.9 720.86 523.39 715.61 520.4 715.9 517.29 718.7 515.08 723.46 513.86 727.06 511.8 731.19 506.92 733.19 501.03 732.62 497.02 730.99 495.39 725.39 497.06 715.81 499.34 713.03 499.42 706.77 498.37 701.52 496.26 698.64 498.02 700.04 499.74 702.61 500.76 705.39 503.23 706.25 507.36 705.23 514.57 701.74 516.96 695.93 518.49 691.8 521.2 687.68 521.42 683.07 519.85 677.71 516.67 674.42 514.08 671.18 512.81 668.57 514.4 667.16 518.22 666.77 521.46 668.93 526.29 672.27 526.97 676.87 526.29 683.06 527.95 685.89 527.81 689.29 532.2 690.21 534.29 689.49 536.53 684.59 541.35 685.54 545.11 685.47 547.93 680.71 554.99 678.48 555.69 676.04 554.75 675.47 551.57 675.88 548.48 670.05 537.2 667.81 534.85 666.39 531.37 663.97 529.15 657.45 525.35 655.12 525.99 657.28 530.2 653.89 534.66 644.58 540.15 640.98 541.71 638.74 544.06 642.99 548.79 648.26 552.78 654.56 556.37 658.6 557.98 661.24 561.92 661.73 567.42 661.5 575.33 658.78 579.6 655.9 582.44 655.42 585.04 655.49 596.04 654.66 598.63 652.35 599.05 648.77 597 644.42 591.04 644.11 589.34 641.17 584.34 637.02 580.53 632.18 581.06 630.77 583.2 624.11 586.48 618.11 592.18 614.73 595.98 612.79 601.53 614.3 607.74 615.37 609.51 615.03 612.5 610.27 623.31 608.9 629.93 612.41 632.06 615.55 631.71 619.42 630.41 623.8 629.99 627.49 631.69 630.27 636.79 630.4 638.83 627.69 641.18 625.76 643.97 621.78 647.5 610 647.63 603.74 646.37 596.61 646.15 576.77 649.17 564.65 649.08 556.5 649.43 554.5 649.17 553.42 646.65 555.26 643.26 565.06 636.69 567.02 634.39 567.54 631.45 566.9 629.38 564.15 626.28 556.48 623.1 551.66 622.35 545.66 622.88 538.64 622.99 535.26 623.98 533.08 631.28 532.53 636.7 532.5 645.52 533.43 653.26 533.98 664.05 534.84 669.99 535.94 674.07 539.1 681.32 544.29 685.49 548.19 688.01 552.38 692.47 554.53 698.74 553.05 704.55 549.02 712.81 548.97 718.2 550.45 726.75 554.16 738.64 552.65 740.84 549.35 740.76 546.37 739.71 543.5 737.13 537.51 734.98 532.94 729.63 528.64 721.44 527.06 719.66 523.31 718.24 521.11 718.27 517.68 719.62 514.16 725.42 509.53 730.98 501.99 723.01 493.71 717.07 488.19 715.77 478.88 717.08 466.34 715.15 460.84 713.47 455.27 709.31 453.19 708.69 451.87 705.55 452.12 703.2 455.47 699.65 460.28 697.11 468.65 694.45 478.55 694.98 483.71 697.33 487.68 700.12 494.36 703.28 500.43 704.86 504.37 706.46 506.3 705.66 506.48 703.19 505.11 700.22 501.61 695.28 500.52 692.81 498.85 684.62 498.4 678.02 497.43 673.11 498.25 671.25 498.12 666.74 494.88 664.76 487.41 670.7 484.51 671.74 479.68 670.23 471.52 666.06 465.93 662.47 462.94 661.47 455.22 653.94 450.07 651.18 444.98 654.11 439.92 655.86 433.96 656.76 428.17 654.75 421.68 653.78 418.07 651.59 408.56 651.62 407.04 652.23 405.45 657.06 404.13 658.74 396.16 662.57 393.33 663.05 387.51 669.26 383.76 670.53 376.1 671.98 373.08 671.73 370.82 672.67 366.27 673.29 364.21 672.55 357.99 666.29 356.71 663 353.58 664.5 351.92 666.96 350.02 671.66 347.36 673.77 343.92 674.28 338.12 676.39 334.62 678.63 330.7 683.23 323.99 686.68 318.83 690.57 315.9 694.02 315.8 696.7 318.5 701.49 318.36 704.46 314.58 709.35 317.43 721.69 316.16 725.27 312.62 727.08 307.84 726.75 305.19 729.76 303.5 737.33 303.54 746.47 302.73 749.78 300.38 751.52 293.67 751.5 289.1 750.61 279.95 746.48 269.89 745.68 265.95 746.01 261.17 747.87 257.38 754.29 253.45 759.62 253.14 762.73 254.45 766.53 258.19 772.92 256.14 778.52 252.16 784.57 250.18 789.92 245.76 792.5 241.87 792.98 239.75 794.06 235.29 797.81 214.68 809 213.7 806.89 209.85 804.34 202.65 802.06 194.73 801.97 185.71 798.63 177.58 793.46 172.11 788.57 165.83 779.55 161.85 773.1 157.61 768.7 151.14 764.86 146.44 759.54 144.59 755.47 141.72 742.95 143.16 737.29 144 729.6 143.01 723.18 137.37 717.47 129.96 714.78 124.48 718.64 121.68 728.62 119.67 743.34 117.76 754.61 115.41 760.85 106.88 765 96.18 769.63 81.2 768.79 68.54 767.83 52.17 767.74 47.53 766.63 42.86 758.73 41.98 753.39 44.65 748.34 48.7 743.09 59.72 736.5 65.52 735.08 78.03 728.47 80.29 723.01 79.61 716.39 76.69 711.05 71.41 706.08 64.89 701.09 56.52 694.27 46.31 688.27 37.32 684.02 25.5 680.61 17.53 676.67 12.88 675.66 8.19 668.25 7.46 663.5 8.01 657.25 10.38 650.84 9.76 646.04 9.84 639.46 11.99 633.02 16.69 625.6 21.79 618.26 28.26 617.06 35.71 623.4 41.95 634.76 48.21 653.35 51.58 660.23 58.13 663.39 65.65 664.06 73.66 661.75 80.79 658.26 87.13 658.64 103.23 662.35 112.02 658.86 115.88 655.24 119.26 649.86 118.64 636.71 117.54 628.23 117.49 615.09 119.98 605.35 123.67 594.8 126.14 584.81 126.69 576.04 124.24 572.87 121.92 567.97 118.46 562.7 114.31 554.38 108.67 546.54 98.52 541.59 93.24 538.5 87.67 533.5 82.77 527.88 80.88 516.51 81.58 505.82 80.15 498.11 77.27 492.24 76.26 484.28 78.12 478.63 83.5 476.63 89.62 478.96 98.27 483.41 105.71 491.62 112.8 502.19 118.36 515.65 123.91 524.41 130.24 530.28 139.28 533.41 148.92 534.39 157.65 533.84 169.86 525.41 176.12 518.49 180.34 511.44 186.03 506.17 195.14 501.92 199.08 500.73 201.46 494.6 202.98 488.12 200.99 483.47 195.96 480.47 189.51 477.88 180.93 475.45 171.79 474.4 159.63 474.2 144.93 475.64 138.11 475.51 133.36 474.54 131.26 468.28 133.84 462.87 138.02 458.58 144.81 454.24 151.81 450.57 157.1 445.64 158.31 441.35 157.63 435.27 155.05 430.32 153.19 423.25 154.51 417.64 158.33 416.78 163.25 417.7 169.95 420.06 185.39 424.34 190.21 422.58 193.68 417.23 193.67 408.33 191.13 397.92 190.49 385.59 189.56 373.27 186.25 364.96 183.12 355.81 184.32 347.15 184.43 341.31 180.74 333.23 176.66 328.06 170.3 324.05 163.38 324.96 160.94 329.21 161.74 338.21 165.45 345.27 170.69 357.83 172.77 364.4 171.68 370.5 169.86 375.75 167.57 378.4 159.47 379.22 149.3 376.3 141.06 368.65 139.74 367.95 128.48 359.88 123.46 349.43 122.58 337.99 123.85 331.56 124.08 324.5 122.34 319.27 116.42 315.38 109.54 315.48 102.16 319.34 93.48 325.02 83.64 327.25 72.04 326.94 60.02 322.2 51.36 318.48 32.04 314.66 12.59 309.33 5.58 301.28 1.01 296.7 1 290.66 4.93 284.45 10.78 277.82 21.18 273.18 31.09 269.75 39.95 267.96 48.01 269.87 53.65 275.23 61.41 285.79 66.08 295.07 78.25 307.58 86.77 310.3 92.62 309.84 94.4 306.3 93.78 301.35 87 279.53 86.41 273.9 87.11 266.23 87.88 249.28 89.63 242.69 93.64 238.32 100.29 238.67 107.29 241.99 113.89 245.59 120.69 247.51 124.84 246.99 126.96 243.18 126.82 239.83 124.16 234.66 122.26 229.57 122.34 222.55 130.12 213.22 137.35 207.54 140.85 202.16 141.67 197.07 140.97 185.94 139.56 180.69 131.34 172.3 127.33 170 120.39 166.91 117.4 162.54 115.39 155.97 113.94 148.38 114.23 143.23 116.46 138.26 119.82 136.41 124.69 136.54 138.68 138.58 142.69 138.79 142.94 133.44 142.06 122.48 138.99 116.5 138.21 110.92 138.37 104.56 140.02 106.62 142.04 106.24 148.85 113.96 151.07 115.48 157.51 118.6 159.36 117.22 158.78 110.86 160.29 108.01 166.96 102.06 168.46 99.61 170.06 94.33 170.64 88.97 174.23 87.1 179.39 86.32 184.84 87.06 186.52 88.32 186.79 94.05 184.22 100.66 179.46 107.42 179.83 113.39 180.97 116.43 182.99 119.17 188.23 120.42 192.49 120 196.85 117.84 198.51 115.57 196.24 110.06 195.9 105.61 199.72 102.45 209.73 110.4 214.66 111.69 216.54 113.16 216.98 121.09 216.86 126.54 223.97 130.76 227.19 133.4 228.84 133.74 234.41 128.29 236.71 124.78 235.24 122.01 230.18 118.01 227.71 112.77 228.08 107.38 229.83 101.42 233.48 96.06 240.3 95.05 243.05 97.11 249.25 98.57 256.12 99.22 259.29 98.77 263.73 96.34 265.51 94.63 264.55 92.7 258.6 91.36 252.71 85.52 245.81 79.21 242.08 77.96 238.21 79.33 237.07 81.73 235.41 88.27 233.15 93.08 231.01 93.64 229.36 92.42 224.09 85.26 222.27 83.88 217.69 82.48 220.72 80.27 224.51 81.7 227.91 81.44 230.58 78.43 232.24 72.23 234.53 65.34 237.42 61.83 239.92 61.73 241.73 64.19 248.8 64.99 253.26 71.57 256.28 72.86 258.74 69.52 257.31 66.63 254.69 63.49 251.9 61.34 250.78 58.42 253.16 55.32 257.67 57.39 264.12 58.01 273.15 57.36 275.46 57.75 279.88 61.49 286.82 64.35 289.37 62.48 290.62 59.28 295.03 57.72 294.56 55.91 288.57 49.42 281.7 49.39 280.44 46.79 282.8 45.9 284.35 43.36 284.38 41.4 281.68 37.53 281.81 35 285.24 32.65 286.7 28.86 283.81 27.97 282.72 25.89 283.52 23.46 278.21 22.34 277.27 20.8 281.26 16.25 281.89 12.38 283.42 11.52 287.79 13.24 292.43 15.82 299.56 19.12 305.77 21.45 307.3 23.9 310.44 26.96 313.78 29.04 319.02 30.23 324.51 35.38 328.57 38.55 334.89 40.59 338.91 39.56 340.21 34.91 339.84 32.06 336.3 26.59 336.34 20.58 338.07 19.05 338.15 16.02 341.09 13.73 344.92 8.31 347.58 6.75 349.27 3.92 349.81 1 351.71 1.24 353.61 3.15 356.05 3.89 357.83 1.65 361.3 1.41 365.2 3.62 372.01 9.5 374.33 9.98 378.63 9.26 380.71 7.87 387.31 8.07 393.33 5.69 394.5 4.46 398.75 3.24 420.84 14.45 502.22 56.66 526.53 20.18 551.96 33.82 596.48 62.08 543.41 121.75 604.5 158.61 605.67 160.79 609.62 165.79 613.58 172.57 617.31 172.09 619.88 167.84 624.07 164.57 627.22 165.14 633.4 168.61 636.13 168.39 642.81 171.32 611.73 190.64 603.1 237.17 686.79 304.2 679.8 320.88 709.15 360.65 705.26 362.46 703.35 365 703.64 366.88 707.21 371.45 713.56 374.89 715.16 376.29 721.64 374.63 728.33 375.15 731.14 373.4 735.08 369.32 737.05 361.85 739.1 359.55 741.52 358.87 748.19 368.66 752.97 375.1 755.18 376.88 757.36 376.42 759.21 374.49 Z"/>
</g>
</svg>