<?xml version="1.0"?>
<svg xmlns="http://www.w3.org/2000/svg" version="1.2" baseProfile="tiny" width="800" height="2177" viewBox="0 0 800 2177" stroke-linecap="round" stroke-linejoin="round">
<g id="4212205">
<path d="M 502.81 1 503.56 3.01 505.33 5.4 501.09 7.22 503.32 9.2 504.71 9.35 509.48 7.46 510.25 8.28 509.46 13.43 508.71 14.4 504.7 14.41 505.26 16.23 508.45 16.33 508.67 18.14 506.72 24.21 504.21 24.64 503.47 26.05 503.77 27.9 506.53 33.45 509 36.26 512.33 35.53 514.28 38.38 514.58 40.25 513.71 42.84 514.44 43.91 521.15 46.87 524.6 49.14 527.66 49.37 532.12 47.01 538.18 44.34 541.53 43.85 544.17 44.55 549.47 47.78 549.63 49.62 547.74 51.19 545.89 55.19 543.44 55.63 543.24 52.51 538.12 55.18 538.01 56.73 540.53 61.02 535.8 60.63 532.1 62.31 529.29 65.78 530.34 67.91 532.43 67.99 536.03 64.77 538.04 66.32 537.9 68.74 535.31 68.73 534.11 70.07 534.35 73.32 535.51 74.4 537.37 74.17 538.59 70.84 539.89 70.47 540.73 72.61 539.49 74.33 545.82 80.28 548.08 83.46 550.95 86.7 553.57 91.74 554.85 93.38 556.02 97.27 558.49 101.56 560.8 104.71 561.67 107.87 561.25 110.29 559.24 111.44 556.35 111.46 555.84 113.38 558.58 114.14 558.03 116.72 557.05 117.07 554.68 115.53 550.81 115.76 549.46 119.08 550.77 119.44 552.03 117.69 553.13 118.33 553.88 121.23 552.67 124.06 551.11 124.03 546.89 121.53 544.6 118.23 544.71 116.76 546.81 115.35 546.54 110.61 544.76 108.11 540.58 107.25 536.85 107.9 534.11 109.59 533.3 113.07 528.58 117.6 528.88 119.05 531.75 119.22 532.35 120.46 529.46 120.91 527.24 122.58 525.69 125.35 528.38 126.98 526.28 129.86 521.8 134.65 519.3 140.78 519.04 142.36 522.4 142.2 528.75 142.94 534.16 146.57 537.73 146.16 541.04 146.46 549.58 145.89 551.32 146.3 553.28 150.56 556.2 152.04 557.9 150.22 560.78 150.49 563.25 151.85 565.17 155.26 566.38 156.19 568.91 155.65 568.18 153.69 568.72 152.19 572.57 151.5 574.52 150.61 574.98 148.96 578.34 148.1 581.23 148.28 583.81 149.63 584.78 152.37 583.32 152.72 580.57 150.67 579.78 152.79 581.81 156.03 583.55 157.77 586.37 164.88 589.85 169.65 591.61 168.76 594.75 169.95 599.27 175.95 599.79 176.07 601.24 170.43 604.53 170.12 605.23 170.97 605.12 173.91 607.43 173.71 609.48 166.18 610.15 162.93 611.38 160.62 614.69 158.88 616.53 159.29 618.13 160.83 621.8 161.79 625.52 161.72 628.47 161.13 629.87 161.41 634.16 165.14 640.54 169.22 644.01 173.17 647.95 177.13 648.01 178.45 645.66 180.36 643.2 185.68 641.82 191.14 642.56 192.74 642.26 196.85 638.99 199 637.75 200.87 635.28 199.61 633.4 201.99 631.39 202.4 630.71 199.94 627.28 202.17 627.04 205.41 629.41 207.72 627.09 210.27 625.42 211.32 623.65 211.24 621.8 209.62 618.86 210.75 615.12 214.37 613.32 215.65 609.57 215.79 610.1 218.88 609.88 222.87 607.35 228.59 607.66 230.31 610.62 235.25 612.3 236.99 620.68 242.62 623.43 247.69 628.22 252.91 631.52 257.49 635.5 260.27 637.54 260.74 642.24 256.49 642.74 255.18 641.79 251.84 643.7 242.12 644.37 240.49 647.83 237.1 653.66 234 657 231.1 658.96 232.43 660.7 238.3 661.29 239.02 665.07 240.23 670.5 242.95 672.83 243.81 675.34 243.9 679.08 244.72 685.53 244.98 689.57 246.46 692.93 246.77 696.58 247.93 698.01 248.86 697.68 251.5 696.1 252.03 691.88 250.57 691.28 251.58 692.06 255.32 689.94 255.33 685.34 253.69 683.64 254.31 682.9 255.64 682.99 257.89 684 259.72 684.32 262.57 684.18 268.77 683.29 271.74 681.93 272.62 677.23 273.35 676.04 272.96 674.06 270.16 673.39 265.55 668.36 262.94 665.39 262.96 657.1 267.4 654.54 269.58 651.15 268.28 650.14 266.49 647.81 268.17 647.28 269.87 647.35 272.71 649.03 275.52 650.29 276.45 650.74 282.08 649.97 286.9 649.15 288.82 646.31 291.08 643.28 291.22 642.08 289.42 641.45 286.91 639.16 283.56 637.65 282.84 636.14 280.49 630.87 275.3 629.07 272.17 628.17 271.53 623.56 271.64 619.77 270.57 614.33 267.56 612.92 268.24 613.87 272.93 616.04 280.85 615.69 284.15 614.83 286.44 612.86 286.68 609.24 285.47 606.13 287.81 600.57 292.84 599.42 295.67 597.45 296.37 597.8 298.15 596.45 298.63 594.93 301.56 595.99 303.18 595.93 304.86 593.48 307.95 595 309.24 596.34 306.9 597.42 307.1 596.34 310.17 598.81 312.27 600 314.77 601.14 312.26 605.28 312.98 606.09 310.81 608.57 314.83 608.58 316.15 606.81 317.19 605.61 315.29 602.74 319.91 603.3 321.59 606.63 326.91 609.64 326.84 612.73 327.33 616.38 327.16 616.37 329.48 617.63 330.95 620.18 331.07 620.64 332.81 623.3 334.32 623.33 335.54 621.16 336.3 618.35 335.75 617.12 337.5 618.3 338.33 622.33 338.58 622 344.28 623.2 347.04 624.41 345.86 624.01 344.06 626.66 344.03 628.49 345.57 630.94 346.12 633.24 350.14 631.74 353.5 633.44 354.98 632.78 357.77 634.07 363.08 633.75 365.38 631.71 366.24 631.83 363.13 629.76 364.37 626.48 362.74 625.95 364.15 627.61 365.14 628.19 366.66 625.68 366.5 624.87 368.03 621.68 369.63 616.7 375.25 618.21 377.22 617.84 378.54 615.9 380.9 612.36 382.04 611.02 383.37 611 386.4 609.41 390.72 609.51 392.71 611.24 394.9 609.74 397.86 608.18 403.82 608.01 408.15 610.25 407.28 611.43 407.69 611.19 410.5 609.16 413.52 607.42 416.88 610.67 420.74 612 421.14 610.71 423.58 610.76 425.22 612.91 426.02 615.93 424.84 620.99 423.82 624.93 424.47 631.54 431.16 629.77 432.7 630.01 435.73 631.13 437.8 634.93 442.11 632.27 442.99 631.35 445.2 631.49 447.15 634.72 451.21 635.18 455.23 636.03 457.86 634 459.6 632.3 458.92 631 460.34 631.84 461.62 634.82 461.29 637.22 459.86 638.69 459.88 646.54 463.14 644.33 464.7 646.85 465.54 650.12 468.05 649.73 469.89 647.69 469.47 647.47 472.84 644.49 477.91 644.04 481.06 646.2 481.57 644.99 483.77 645.96 484.8 645.81 486.99 644.91 488.45 645.65 494.04 647.58 492.69 650.19 492.33 651.87 495.14 651.73 498.99 654.5 500.34 651.07 502.06 650.38 504.27 650.37 510.61 649.8 512.98 650.29 515.2 652.31 516.13 655.67 518.87 657.45 516.92 659.32 516.03 659.87 514 661.54 513.24 666.63 514.1 666.94 517.79 668.37 520.19 670.71 518.17 672.74 518.8 673.79 517.35 673.46 515.32 677.82 514.39 679.44 511.99 679.12 508.92 680.22 503.43 681.38 502.08 683.15 502.55 685.28 505.25 686.09 497.28 686.69 495.65 690.16 493.64 692.79 493.55 692.94 495.46 695.76 495.36 697.41 496.38 696.69 502.39 697.47 502.84 700.29 500.11 704.44 500.83 705.56 501.74 706.57 504.09 704.61 506.49 704.78 508.02 709.28 507.95 711.95 506.83 714.66 508.15 715.24 509.38 712.63 509.68 712.74 511.41 714.5 512.56 719.19 512.77 719.7 513.7 720.71 519.18 723.84 519.73 726.36 521.48 726.77 524.18 730.91 523.56 731.32 526.93 735.54 530.9 737.17 533.48 741.59 536.42 742.59 539.52 746.09 544.91 746.41 548.29 749.69 551.62 749.75 558.81 748.87 564.53 747.88 566.67 743.8 566.75 737.55 565.84 734.98 567.53 736.12 570.29 733.37 573.57 731.84 577.64 731.29 580.28 731.85 584.91 733.37 589.73 732.33 592.53 731.33 599.8 730.57 602.29 730.59 606.78 732.39 611.14 735.8 614.64 735.11 617.74 736.28 620.93 736.29 624.18 735 626.75 735.33 629.41 734.13 632.18 732.29 634.02 732.47 635.58 734.64 636.71 741.57 637.85 745.32 639.39 749.21 639.81 751.56 641.42 756.93 643.51 756.85 646.61 754.08 649.16 751.13 650.14 748.66 655.54 748.71 657.02 751.23 663.45 754.27 664.27 755.73 665.9 759.13 665.7 763.47 667.76 767.56 670.76 769.21 674.49 768.74 676.71 771.39 677.58 772.66 679.13 772.66 682.04 773.34 684.28 772.32 686.33 775.24 687.83 777.31 689.97 785.22 696.74 787.61 701.76 787.1 703.44 788 708.22 788.83 709.54 789.46 713.59 790.96 715.48 790.94 723.04 792.63 724.71 792.44 727.41 791.6 729.73 788.73 731.69 789.73 733.48 789.68 735.98 788.47 740.96 787.4 741.75 785.97 747.46 786.13 749.45 785.53 752.99 784.67 754.76 785.32 757.7 784.38 758.33 784.72 762.31 782.48 763.09 780.57 765.14 781.33 769.9 783.19 773.87 784.59 774.24 786.05 777.66 787.68 780.38 790.2 781.72 789.69 784.55 787.99 786.56 790.25 789.07 789.91 790.59 787.66 793.65 786.54 796.5 785.25 798.18 780.56 799.73 777.06 804.78 778.02 808.44 780.24 812.22 780.67 814.03 780.4 820.21 779.11 824.89 778.93 827.04 779.19 833.78 779.02 836.38 780.9 839 783 840.1 788.37 844.14 790.68 847.63 797.65 854.76 797.6 857.51 799 862.72 798.18 866.25 795.42 868.43 794.83 869.87 792.4 871.35 790.42 874.95 789.12 875.33 785.92 879.31 784.76 879.83 783.45 882.46 780.5 886.5 780.64 888.26 779.37 891.01 778.96 894.36 776.89 895.33 776.77 898.07 777.25 903.7 778.81 905.47 777.52 909.94 775.88 912.45 774.17 918.14 774.85 920.84 773.97 923.05 771.24 926.67 769.08 928.62 762.88 932.99 758 937.86 756.83 940.03 755.12 940.76 751.28 941.17 750.53 942.11 751.01 947.66 752.63 951.41 753.2 956.66 752.13 961.07 754.8 961.75 754.06 966.95 749.9 968.86 747.92 970.2 747.51 973.13 744.99 977.31 742.08 980 742.41 986.42 741.36 992.04 742.98 996.66 742.7 1000.23 739.72 1001.89 740.83 1006.6 738.74 1010.17 741.44 1010.93 741.79 1013.29 743.44 1013.95 744.05 1016.66 743.32 1018.07 743.97 1019.49 741.42 1021.49 741.25 1022.49 743.53 1026.09 740.67 1029.24 739.81 1031.52 736.21 1035.93 737.96 1040.91 738.89 1041.99 740.76 1041.56 742.66 1047.18 746.33 1049.8 745.91 1054.3 745.05 1057.24 746.16 1059.89 743.22 1062.08 741.94 1065.04 741.67 1067.14 740.61 1068.36 737.83 1066.88 735.51 1068.29 733.05 1075.54 728.81 1077.41 728.69 1081.58 727.35 1082.67 722.65 1080.92 719.91 1082.02 720.32 1084.27 724.78 1086.28 725.06 1087.47 722.84 1089.99 718.59 1092.01 716.39 1094.35 716.2 1096.53 714.41 1099.59 715.83 1101.25 718.98 1100.25 719.81 1101.38 718.93 1102.67 716.63 1104.21 714.53 1106.96 714.47 1108.25 716.4 1110.55 716.24 1111.69 713.68 1113.14 714.24 1114.25 717.85 1114.62 719.68 1112.49 721.27 1112.42 721.44 1118.47 719.07 1120.86 719.78 1122.94 723.33 1122.9 724.65 1124.2 724.17 1126.92 715.31 1127.23 711.64 1126.69 707.28 1125.37 705.31 1123.97 701.3 1119.73 698.31 1115.55 692.48 1112.39 687.27 1110.97 684.58 1108.76 683 1106.24 678.36 1101.48 676.59 1100.52 673.03 1099.83 667.8 1100.12 665.6 1101.9 663.35 1104.9 657.52 1107.93 652.24 1108.76 650.96 1109.61 649.34 1109.18 645.94 1106.62 645.32 1100.54 641.48 1100.2 638.4 1101.99 635.49 1104.79 632.4 1108.42 630.79 1110.81 629.26 1114.14 628.4 1118.06 628.4 1121.16 627.78 1122.41 625.66 1124.06 623.23 1124.92 618.85 1125.31 612.73 1123.45 607.22 1124.41 603.44 1124.62 601.81 1125.71 599.77 1128.48 599.04 1131.52 599.89 1135.36 602.4 1140.53 602.75 1145.13 602.45 1148.21 601.26 1149.26 600.31 1152.21 600.64 1153.3 602.97 1155.73 605.1 1157.21 606.12 1161.84 605.64 1163.77 604.14 1165.63 602.36 1170.16 600.77 1172.74 599.86 1176.4 600.09 1178.79 601.84 1183.13 603.58 1185.97 604.02 1188.18 603.55 1191.18 600.55 1196.37 597.45 1200.34 594.19 1209.15 592.97 1213.79 592.69 1216.68 589.89 1219.07 586.92 1220.61 584.41 1221.03 580.55 1222.64 578.94 1224.63 579.08 1225.71 582.53 1228.56 587.25 1230.74 590.85 1232.9 599.49 1236.4 605.06 1239.32 607.48 1241.62 609.88 1245.57 610.71 1248.37 610.24 1252.18 609.09 1254.19 601.96 1256.02 593.98 1256.53 586.58 1258.63 583.81 1260.83 584.96 1263.55 589.7 1264.95 596.16 1265 599.68 1264.26 608.91 1263.66 614.6 1262.42 617.31 1263.11 623.32 1266.27 625 1267.64 625.65 1269.33 625.01 1273.73 623.62 1276.56 622.42 1277.73 614.65 1281.88 613.64 1282.99 613.14 1285.45 612.75 1291.61 611.53 1294.51 607.64 1299.08 605.04 1303.99 604.99 1305.86 605.79 1311.08 604.36 1315.27 601.62 1319.36 599.16 1319.31 596.77 1315.66 594.68 1313.31 594.16 1311.81 590.26 1308.9 586.9 1308.82 579.58 1311.12 576.38 1312.8 575.6 1315.21 583.99 1321.32 585.87 1322.33 587.52 1325.13 590.64 1328.8 594.39 1332.07 599 1338 600.82 1339.36 604.4 1343.75 605.55 1347.82 603.7 1350.28 601.4 1350.38 596.54 1349.29 589.89 1348.64 581.39 1349.36 579.75 1350.55 577.33 1354.92 574.32 1358.5 573.17 1360.84 572.49 1365.14 574.37 1367.95 578.62 1371.04 580.33 1371.5 583.65 1370.62 585.25 1368.82 585.11 1365.22 583.77 1361.97 584.05 1360.21 588.63 1360.68 590.14 1361.65 593.45 1362.1 598.05 1364.78 601.86 1369.32 600.44 1371.31 594.27 1371.72 589.97 1371.26 586.29 1371.94 583.21 1373.84 578.48 1377.53 577.36 1381.28 577.56 1383.75 579.36 1386.98 581.11 1388.02 585.28 1387.75 587.78 1389.41 588.21 1390.46 586.73 1399.33 587.57 1405.83 588.44 1406.73 596.14 1410.8 601.65 1413.23 605.58 1413.35 612.15 1408.86 615.67 1407.11 618.68 1406.86 620.67 1407.41 622.72 1410.97 621.8 1414.4 617.91 1417.17 614.12 1418.2 609.31 1418.94 600.59 1420.79 592.62 1423.34 589.98 1423.84 588.25 1425.01 588.85 1427.07 595.53 1432.28 600.37 1439.85 602.97 1440.61 611.44 1438.44 618.24 1437.99 625.3 1440.54 626.35 1443.67 625.39 1444.69 621.51 1445.37 616.2 1446.76 611.11 1447.59 606.49 1447.06 602.97 1446.26 601.81 1446.93 601.87 1450.32 603.9 1453.11 606.25 1457.14 607.41 1457.11 611.89 1453.03 613.96 1453.27 620.91 1459.39 625.42 1462.51 626.86 1462.78 631.48 1460.62 641.57 1456.39 644.16 1455.79 646.03 1456.78 647.02 1459.61 644.13 1465.15 643.87 1468.6 644.58 1474.01 647.18 1478.5 651.39 1479.4 652.94 1480.9 654.08 1486.09 652.47 1488.28 643.26 1487.48 639.48 1487.97 637.78 1491.13 636.75 1495.36 637.31 1497.3 642.86 1501.45 646.36 1502.44 648.07 1505.97 650.55 1509.53 654.26 1512.45 655.2 1513.98 654.74 1516.06 649.55 1520.9 644.22 1524.24 640.14 1525.61 638.75 1525.58 629.89 1523.21 628.06 1522.31 626.42 1520.55 626.91 1519.36 631.29 1515.47 630.3 1509.29 628.89 1507.03 624.3 1506.21 620.53 1504.61 616.26 1504.8 615.4 1516.13 614.08 1519.61 610.96 1521.45 607.91 1522.46 606.93 1524.25 607.69 1525.52 612.03 1529.68 612.55 1531.22 611.82 1532.66 610.03 1533.33 605.14 1533.59 604.04 1534.25 602.62 1539.46 599.8 1540.38 598.45 1541.8 597.39 1544.7 597.31 1547.28 600.04 1552.04 598.77 1553.73 593.34 1555.08 588.91 1554.43 584.47 1551.86 582.56 1545.14 580.68 1543.13 578.75 1542.88 571.87 1547.18 570.2 1547.66 566.97 1547.6 562.64 1546.97 560.75 1547.15 557.19 1549.88 555.77 1551.66 557.23 1561.29 558.36 1562.98 560.05 1562.46 562.59 1560.69 564.19 1557.32 565.91 1556.91 567.75 1557.58 568.93 1559.2 570.97 1567.48 577.48 1568.57 582.06 1571.46 586.8 1572.4 588.77 1573.83 588.1 1581.09 583.26 1584.13 580.47 1586.83 580.09 1588.44 581.85 1591.05 585.5 1590.86 587.03 1591.25 587.63 1593.38 586.09 1597.15 584.45 1599.45 582.66 1603.1 581.23 1604.52 576.81 1611.16 576.97 1612.75 578.43 1615.2 578.61 1616.93 576.74 1619.12 576.77 1620.83 578.15 1624.44 577.58 1626.32 575.64 1627.86 571.33 1627.36 568.95 1626.19 566.99 1627.69 567.79 1633.5 568.42 1635.15 568.73 1638.49 571.97 1642.07 576.31 1648.56 578.51 1651.22 578.28 1653.06 576.38 1656.1 575.17 1659.12 574.95 1661.97 576 1662.82 579.98 1663.37 579.36 1666.71 576.94 1670.15 576.26 1672.12 579.79 1678.3 583.58 1680.33 585.65 1682.61 586.91 1686.38 590.05 1688.07 594.8 1692.88 595.1 1694.33 599.82 1698.91 600.74 1704.22 602.31 1708.16 604.17 1711.11 609.17 1710.8 612.96 1711.83 614.64 1710.67 617.23 1710.64 620.57 1714.01 618.7 1717.14 620.74 1721.84 620.19 1724.17 620.89 1725.28 623.53 1726.52 628.56 1730.84 627.95 1733.73 625.52 1736.48 623.87 1737.41 624.43 1739.32 626.95 1740.75 627.79 1742.66 627.96 1745.2 634.65 1748.8 635.18 1750.54 629.55 1752.76 628 1754.46 625.28 1759.44 625.33 1762.63 627.13 1763.72 630.74 1763.71 634.05 1764.35 635.66 1767.09 635.43 1768.28 633.06 1769.92 634.47 1773.9 633.66 1780.04 639.02 1782.42 639.29 1783.27 637.63 1785.15 638.3 1787.85 641.21 1788.48 644.49 1790.57 645.7 1792.14 644.93 1793.54 642.15 1792.84 640.47 1793.24 638.62 1795.6 638.18 1797.78 638.93 1800.11 640.29 1801.01 638.92 1803.07 636.95 1803.98 639.56 1806.76 639.48 1809.4 641.33 1810.97 641.44 1812.02 637.25 1812.72 637.56 1815.94 635.84 1817.9 632.39 1817.52 630.93 1819.03 630.47 1822.37 633.32 1822.78 634.03 1824.8 632.44 1826.26 630.42 1825.25 628.34 1826.78 625.06 1827.69 628.15 1831.01 629.88 1833.96 630.13 1838.98 629.55 1842.11 625.14 1843.66 625.12 1846.31 624.09 1848.64 627.44 1848.66 628.39 1850.74 627.91 1852.35 628.82 1853.48 629.05 1855.95 625.4 1859.45 625.14 1863.45 623.36 1864.79 621.45 1867.12 623.1 1869.21 627.9 1871.32 627.87 1873.24 625.53 1873.21 624.86 1874.39 626.21 1877.23 623.37 1880.56 620.03 1881.06 619.9 1883.69 618.99 1886.05 616.81 1886.09 615.69 1887.81 617.27 1889.35 621.13 1889.93 622.55 1891.33 622.82 1893.34 621.97 1895.45 626.12 1896.26 624.83 1898.49 626.99 1900.71 627.18 1904.74 629.67 1906.61 633.02 1907.29 637.33 1910.98 635.84 1915.19 635.76 1918.88 634.94 1920.34 635.27 1923.57 636.49 1926.24 636.76 1931.9 641.47 1936.34 643.55 1936.57 646.09 1935.87 648.96 1936.41 652.71 1937.99 653.89 1940.81 655.96 1942.39 657.04 1945.34 659.04 1946.74 663.66 1950.92 665.22 1956.63 667.06 1958.42 667.85 1965.24 668.63 1968.59 668.55 1970.54 670.44 1973.75 671.27 1977.12 670.18 1979.5 667.58 1980.94 668.34 1983.55 667.67 1985.86 668.39 1990.19 667.65 1993.36 667.97 1996.5 668.83 1998.85 670.59 2001.41 671.97 2002.28 671.76 2005.67 672.37 2010.53 673.37 2015.51 674.77 2018.82 674.5 2021.42 675.63 2028.41 675.57 2029.9 673.7 2031.9 673.96 2034.23 676.57 2034.47 677.37 2035.6 677.32 2038.05 675.84 2040.75 678.99 2045.92 679.45 2047.76 676.95 2053.02 677.46 2054.06 676.29 2056.95 677.69 2057.82 675.59 2060.48 676.68 2061.59 675.7 2063.11 677.39 2064.08 675.19 2067.71 671.99 2072.19 671.24 2074.66 672.15 2075.87 672.64 2080.53 671.4 2080.94 671.2 2084.51 673.06 2085.6 673.53 2087.75 675.92 2092.87 678.68 2096.47 679.82 2100.04 679.64 2102.35 683.74 2106.21 684.83 2108.45 688.43 2111.9 689.1 2113.2 691 2112.81 692.98 2115.59 691.96 2116.51 693.05 2118.18 696.06 2118.41 700.48 2122.62 701.09 2124.76 707.07 2126.74 707.91 2128.28 711.93 2129.66 716.49 2130.59 718.17 2131.66 723.17 2132.28 725.09 2133.38 727.51 2136.03 729.26 2137.24 729.83 2138.63 731.67 2139.57 732.81 2142.96 735.39 2144.81 737.99 2145.2 740.98 2146.79 742.4 2148.9 737.21 2148.55 736.22 2149.89 733.55 2157.15 730.19 2162.78 727.66 2162.4 726.7 2161.53 724.68 2157.91 721.94 2156.32 720.85 2157.23 720.18 2160.86 719.36 2161.86 714.74 2165.46 713.65 2168.26 711.55 2169.79 709.19 2168.98 708.71 2166.71 706.99 2165.67 704.9 2166.59 704.89 2169.48 702.22 2174.08 700.53 2174.81 696.41 2173.84 693.92 2173.91 689.95 2175.41 686.53 2176 683.11 2175.28 679.22 2173.21 677.24 2171.1 676.92 2169.78 674.32 2168.41 672.47 2166.21 671.99 2162.02 669.53 2160.57 667.12 2160.26 661.07 2161.38 657.76 2160.92 655.97 2160.09 654.32 2158.38 650.6 2157.8 649.77 2156.75 649.12 2153.38 646.68 2152.42 646.24 2150.51 646.76 2145.71 646.23 2143.52 644.04 2143.28 641.03 2146.26 639.58 2147.02 637.53 2146.7 638 2144.52 636.23 2141.8 634.68 2140.33 633.68 2138.16 633.62 2132.14 633.16 2130.46 630.94 2130.21 628.27 2134.43 623.31 2135.5 622.37 2135.17 618.58 2131.66 616.66 2130.45 615.65 2128.76 612.92 2126.71 611.15 2123.08 609.78 2121.41 607.56 2120.71 602.7 2121.75 598.74 2124.08 590.4 2125.02 588.69 2125.85 586.68 2124.44 584.16 2124.2 579.64 2126.14 578.44 2127.39 576.89 2127.29 572.84 2124.27 569.9 2122.89 567.32 2124.39 564.52 2123.82 562.5 2120.71 561.3 2120.28 556.21 2120.89 553.23 2119.06 549.46 2113.64 545.74 2110.58 542.11 2105.41 537.08 2102.24 535.7 2102.21 535.16 2100.46 537.94 2096.65 538.48 2095 537.08 2094.29 534.73 2095.83 530.79 2096.37 528.42 2095.74 526.99 2096.15 525.52 2098.05 523 2098.05 520.75 2096.31 519.02 2093.18 516.39 2091.53 514.67 2091.87 513.8 2093.92 511.41 2096.69 509.34 2096.64 506.93 2095.6 505.32 2096.02 502.82 2098.24 499.02 2099.31 494.33 2099.65 493.49 2100.16 493.58 2102.51 495.27 2103.77 495.23 2107.4 493.39 2107.68 489.05 2106.57 487.41 2104.33 482.26 2098.4 479.9 2094.84 476.84 2093.13 476.07 2091.14 477.1 2088.82 475.65 2087.2 472.03 2086.69 470.16 2085.42 470.06 2081.27 471.39 2076.86 471.42 2074.99 470.52 2073.87 466.06 2076.29 462.76 2077.37 460.5 2074.79 458.33 2074.58 456.16 2075.55 453.88 2079.15 450.49 2079.2 448.26 2077.49 446.68 2077.47 445.76 2081.22 443.64 2083.37 441.66 2083.63 438.93 2082.9 436.12 2083.88 432.32 2086.07 427.23 2085.76 427.39 2087.19 429.26 2090.18 430.13 2094.03 429.35 2095.47 424.94 2097 423.18 2098.31 421.17 2101.53 420.22 2102.22 417.56 2102.23 415.15 2103.76 414.19 2106.78 405.14 2107.46 403.06 2108.57 400.62 2112.16 400.58 2114.44 396.85 2117.35 395.11 2119.68 393.07 2124.9 392.79 2129.71 389.53 2131.01 387.76 2130.87 384.28 2132.42 382.36 2134.09 381.27 2136.2 379.95 2136.79 377.02 2136.52 375.47 2137 372.9 2139.48 370.76 2140.56 366.57 2141.32 364.11 2141.08 362.72 2141.76 361.82 2143.72 361.34 2147.84 353.81 2152.31 350.59 2155 347.53 2156.6 342.75 2158.23 339.85 2160.53 333.77 2163.22 331.15 2163.47 328.61 2161.6 325.15 2162.27 318.61 2161.02 315.75 2157.77 313 2155.62 311.86 2152.89 309.46 2153.11 306.66 2159.25 301.94 2162.61 298.09 2159.55 296.06 2158.37 291.55 2162.52 290.42 2162.99 283.69 2162.7 275.63 2163.77 272.7 2166.02 269.15 2165.37 267.06 2163.56 265.1 2162.85 267.74 2160.02 272.19 2157.5 272.81 2156.25 271.99 2153.54 272.02 2149.74 274.32 2145.62 274.44 2143.23 275.49 2140.97 274.45 2136.83 277.39 2133.25 278.65 2130.5 278.52 2128.21 273.8 2126.03 271.65 2124.11 270.77 2122.15 268.44 2119.24 263.28 2116.34 261.52 2115.04 263.06 2112.47 263.5 2109.36 262.55 2106.78 260.52 2099.08 261.75 2095.43 260.66 2087.51 261.26 2080.49 262.24 2078.26 261.62 2075.57 262.52 2074.93 266.22 2074.32 268.77 2071.57 271.7 2066.52 277.91 2060.52 276.97 2058.49 273.93 2054.94 270.73 2051.99 269.99 2049.3 269.63 2044.28 270.1 2042.16 268.92 2039.87 267.91 2036.27 268.38 2033 268.18 2030.83 266.37 2026.76 262.87 2023.73 262.17 2020.54 260.5 2016.45 259.71 2012.66 259.02 2005.23 257.74 2004.18 257.05 2000.28 254.04 1993.4 253.3 1990.4 250.84 1988.21 249.11 1983.58 247.58 1982.34 246.07 1982.38 242.86 1985.28 239.54 1985.2 235.38 1983.47 230.87 1980.88 228.79 1979.26 224.87 1977.74 222.97 1975.7 221.33 1975.02 216.96 1974.57 211.37 1972.48 206.97 1973.13 205.41 1972.65 200.96 1969.93 195.43 1970.34 189 1968.04 186.01 1968.22 184.2 1966.67 182.22 1961.76 182.12 1960.51 183.6 1958.97 184.54 1955.6 185.79 1953.8 187.7 1952.68 188.28 1949.28 186.94 1947.35 182.83 1944.17 182.05 1942.13 182.17 1939.67 177.69 1939.83 172.85 1935.33 171.82 1932.52 172.05 1929.11 174.52 1922.65 176.02 1920.56 180.77 1916 183.56 1913.84 182.82 1912.85 179.94 1912.47 176.41 1911.27 173.23 1907.53 168.88 1904.98 166.45 1902.72 164.18 1898.52 163.31 1895.44 163.41 1892.14 162.93 1890.3 160.31 1886.72 155.88 1883.75 154.39 1884.5 152.95 1886.35 150.6 1886.82 147.12 1885.34 145.94 1883.24 145.14 1879.27 145.72 1876.34 148.75 1872.33 149.6 1870.59 150.45 1866.52 150.5 1862.68 148.97 1853.24 148.68 1849.5 149.54 1846.68 151.4 1843.52 151.72 1841.71 150.47 1833.41 150.04 1829.01 147.49 1826.48 147.7 1824.2 150.53 1822.59 154.35 1821.11 156.85 1814.29 159.78 1811.41 161.04 1810.82 165.12 1810.61 166.65 1810.11 168.64 1807.97 168.92 1804.87 168.27 1801.56 166.9 1798.52 163.64 1795.66 163.34 1793.45 165.59 1789.39 167.04 1785.81 170.16 1779.88 172.63 1775.82 170.39 1773.5 169.37 1770.05 169.44 1762.94 170.3 1759.97 171.8 1757.99 172.16 1756.24 171.32 1754.68 168.08 1752.45 167.7 1750.91 168.79 1749.38 173.02 1746.17 184.89 1732.98 186.5 1731.91 191.12 1732.08 194.21 1730.46 197.27 1726.97 199.15 1722.08 199.99 1721.51 208.85 1719.09 210 1718.14 212.46 1714.21 217.39 1710.74 220.69 1703.41 225.51 1698.47 228.01 1697.77 230.46 1698.11 234.96 1696.89 241.02 1694.39 242.07 1693.61 244.96 1689.15 249.59 1688.29 251.99 1686.97 254.38 1684.68 256.95 1679.27 260.14 1674.61 261.2 1668.01 262.53 1664.93 264.15 1662.52 267.94 1660.84 269.95 1661.33 272.64 1663.54 273.68 1665.12 275.82 1665.73 276.57 1663.64 276.11 1659.42 276.03 1652.9 275.55 1650 271.85 1642.98 271.07 1639.15 273.49 1631.28 274.26 1627.12 273.88 1621.17 274.78 1618.75 278.69 1618.53 283.14 1617.05 287.48 1614.77 289.88 1611.61 289.9 1608.19 290.74 1603.93 295.34 1597.14 295.92 1595.8 296.42 1591.28 294.66 1586.54 295.32 1583.71 300.58 1581.33 302.56 1579.41 303.68 1575.82 304.45 1569.66 305.92 1564.32 305.8 1560.79 307.59 1556.62 310.02 1554.55 311.4 1552.59 312.14 1549.26 311.88 1545.57 314.65 1541.41 315.7 1537.78 314.92 1533.49 313.72 1532.08 309.52 1531.21 308.66 1528.53 311.68 1516.75 311.46 1513.41 308.92 1511.95 307.14 1507.3 307.16 1504.67 310.28 1495.96 310.8 1484.35 309.44 1479.51 308.28 1477.83 307.3 1474.37 307.72 1470.3 307.44 1467.5 305.27 1463.92 304.92 1461.71 305.53 1459.77 308.83 1456.15 311.44 1454.35 313.3 1452.17 314.87 1449.14 316.27 1445.12 318.72 1442.07 323.07 1439.48 327.86 1434.61 330.33 1430.43 331.04 1426.77 333.14 1421.5 336.38 1417.26 339.83 1412.05 340.96 1408.12 341.01 1402.67 343.03 1397.42 344.39 1392.83 348.5 1384.96 349.63 1382.36 346.16 1372.57 346.41 1371.4 351.61 1363.83 351.09 1361.93 344.3 1360.28 340.63 1360.09 336.18 1358.2 334.72 1356.69 334.55 1351.37 333.41 1348.26 333.47 1346.94 336.84 1338.56 336.16 1336.92 333.92 1335.48 328.14 1333.69 323.72 1331.53 321.92 1328.26 323.69 1316.75 323.96 1312.66 322.67 1307.52 322.69 1302.41 323.94 1297.34 324.12 1290.43 324.57 1284.96 322.54 1277.13 321.53 1275.87 320.45 1272.54 319.99 1269.59 319.46 1261.64 319.09 1259.12 318.78 1252.32 319.97 1245.96 320.85 1243.35 323.91 1237.57 324.29 1235.51 323.68 1232.13 324.08 1231.05 327.14 1226.86 332.43 1222.53 333.65 1220.73 336.27 1207.3 334.2 1199.17 332.83 1196.37 335.73 1192.27 336.94 1189.34 336.63 1185.09 334.69 1181.74 326.65 1177.88 325.43 1174.82 324.5 1170.49 320.69 1165.24 319.55 1161.53 317.67 1158.04 317.79 1156.74 321.47 1154.35 321.79 1152.62 320.88 1146.76 319.42 1144.9 316.98 1138.94 314.96 1130.75 315.07 1126.43 315.8 1122.3 313.68 1115.76 313.24 1111.68 314.62 1109.84 320.03 1108.63 321.57 1107.92 327.02 1102.8 327.97 1100.43 328.59 1096.83 327.38 1089.63 328.08 1087.43 333.28 1082.93 340.9 1072.08 342.46 1069.08 344.39 1063.64 347.87 1058.63 350.05 1056.32 351.54 1053.21 350.69 1049.21 352.01 1047.8 353.09 1045.35 356.21 1040.48 357.02 1037.83 356.92 1033.64 357.49 1031.09 359.8 1027.58 360.31 1025.22 359.72 1021.11 357.31 1017.89 355.52 1011.99 355.36 1010.02 356.09 1006.82 356.55 1001.66 359.83 999.69 363.64 995.44 368.64 991.81 373.04 987.48 375.5 985.93 376.11 983.83 374.48 980.63 373.54 976.07 371.47 969.39 445.71 934.91 443.89 934.05 442.42 932.22 437.92 929.32 435.76 928.41 433.47 928.27 432.83 922.8 428.72 919.94 428.3 917.03 429.18 913.28 427.9 911.04 423.79 909.28 422.53 906.79 420.63 906.17 417.06 908.22 414.47 907.89 413.07 906.57 412.56 901.33 411.77 899.18 408.24 897.54 404.52 898.11 398.88 896.08 397.01 893.69 394.96 892.27 393.44 889.24 392.29 888.21 388.92 886.8 385.29 887.08 383.15 885.32 381.54 881.17 382.58 876.69 382.36 870.54 383.64 869.34 385.31 862.81 386.59 860.95 386.68 859.18 383.62 856.15 384.73 853.82 387.15 850.93 388.15 847.69 387.79 845.57 384.68 843.11 381.12 844.98 379.05 844.92 377.06 843.21 374.49 842.26 372.77 842.67 370.63 844.17 367.03 844.49 363.38 841.67 360.84 841.99 359.99 843.16 357.8 848.1 357.51 849.77 355.65 853.62 353.23 853.96 350.91 855.5 348.37 855.72 344.7 854.86 334.71 853.35 328.36 851.81 325.71 852.02 321.84 850.97 318.66 849.04 314.3 847.13 310.9 847.25 308.93 846.59 304.99 846.08 304.07 846.82 302.13 845.99 298.14 846.09 293.64 847.44 290.97 849.25 288.56 848.59 286.7 851.43 280.91 853.03 278.55 852.72 275.92 853.99 271.56 853.71 265.09 854.2 261.83 853.93 259.07 852.05 253.46 866.87 249.55 867.77 247.17 867.57 245.55 868.23 242.61 867.51 240.41 865.49 236.81 865.82 236.79 867.54 232.47 867.64 231.93 865.94 227.55 866.69 220.86 863.77 214.69 864.02 213.12 863.29 210.12 863.72 207.63 862.99 206.33 863.38 204.27 865.34 202.25 866.31 200.75 864 197.63 861.57 194.7 861.29 193.24 860.6 187.63 856.56 185.85 855.78 181.29 856.83 176.76 859.47 173.95 865.32 172.28 866.58 171.38 871.21 169.01 870.7 167.08 867.25 165.81 862.23 164.48 859.54 163.04 858.59 160.57 855.25 157.82 853.48 154.43 850.02 153.3 847.74 149.61 847.97 148.61 849.22 146.59 848.26 145.31 848.76 141.57 848.91 138.66 853.82 134.8 856.25 129.62 852.28 128.44 854.68 126.12 853.83 125.63 852.59 121.64 848.3 120.74 846.05 117.43 846.66 115.56 845.62 113.37 845.65 110.75 844.68 107.28 845.75 101.42 842.95 98.56 843.56 95.82 843.37 91.31 840.43 88.27 840.3 87.03 839.49 87.43 838.51 86.23 834.52 87.67 832.96 89.86 832.21 90.56 830.93 90.06 829.2 87.16 828.34 87.39 827.23 92.1 824.93 93.28 822.84 92.29 821.25 90.67 821.49 88.74 823.37 86.26 822.41 85.92 819.32 88.64 815.16 88.93 813.34 87.64 811.44 84.26 811.29 83.46 810.66 84.09 806.12 83.21 804.64 79.33 801.05 78.44 799.64 77.49 796.09 76.18 794.14 76.11 791.43 72.15 789.31 70.61 785.04 68.87 781.4 69.54 779.53 73.98 779.91 75.17 779.15 75.68 775.82 74.58 774.15 70.59 774.18 69.05 773.33 71.12 771.15 74.66 770.77 75.29 768.2 73.58 767.4 68.85 767.05 67.7 765.33 72.01 763.38 73.33 760.14 76.11 758.56 79.92 757.19 82.83 755.38 84.47 752.9 86.65 751.81 87.12 750.45 86.27 748.04 93.77 744.98 95.56 745.87 96.91 745.41 97.03 742.1 96.38 740.93 93.14 739.97 91.6 740.45 88.97 742.97 87.28 742.5 88.8 738.71 91.2 736.98 90.45 734.7 86.86 735.17 85.88 734.06 87.51 729.96 90.17 727.01 90.51 725.1 94.68 722.19 97.72 720.84 98.49 718.57 97.95 716.83 95.13 716.91 94.48 715.74 95.74 713.48 97.75 712.86 101.04 715.51 103.65 714.49 103.41 712.61 101.95 710.06 101.96 707.92 100.45 707.6 99.38 710.23 97.48 708.98 97.63 706.55 95.95 705.66 93.58 707.09 91.68 705.05 90.03 705.24 89.44 706.6 85.35 706.09 83.65 707.64 82.38 706.85 83.11 704.44 81.73 703.73 80.68 706.31 81.16 708.58 83.68 713.09 82.83 714.39 75.42 713.07 74.36 714.48 77.2 715.26 79.05 717.04 78.07 720.42 79.96 722.24 79.45 726.3 78.61 727.6 76.54 726.69 73.67 723.39 72.31 722.66 70.43 723.97 68.65 728.24 68.83 730.01 71.17 730.12 75.79 728.92 76.16 730.48 73.47 734.16 73.86 736 75.86 737.48 74.49 738.31 71.1 734.73 69.8 734.89 68.38 736.59 67.14 736.66 64.94 733.52 63.7 735.34 61.89 734.86 61.86 731.51 66.2 728.02 64.89 726.61 57.92 728.43 55.88 730.43 54.2 730.62 50.77 730.05 50.23 731.66 51.16 732.91 56.55 734.4 59.34 736.79 59.31 739.35 57.27 741.92 55.47 741.02 54.88 739.19 53.01 738.47 49.55 739.38 45.47 741.52 47.37 744.3 45.22 746.56 43.8 746.66 42.09 745.03 41.9 742.18 40.9 740.91 39.3 741.84 39.09 743.77 37.86 744.7 34.49 742.65 31.97 744.32 32.15 748.01 29.82 748.57 28.22 747.54 26.7 748.21 26.44 749.82 23.55 749.22 22.91 747.06 24.24 745.12 28.09 743.4 30.11 741.09 28.95 738.2 26.14 736.9 24.49 736.76 20.96 738.91 16.97 737.96 12.45 737.42 10.7 736.04 8.19 732.47 6.48 727.76 5.18 722.05 4.14 719.96 2.6 718.78 1.93 717.18 1 711.65 2.78 709.1 5.37 707.1 8.15 706.38 12.84 707.1 13.41 705.51 12.48 702.66 15.43 700.75 21.22 699 23.77 695.19 28.01 692.21 28.45 689.21 33.18 686.25 35.83 682.04 42 674.11 44.53 669.49 50.22 662.19 50.34 660.83 47.95 655.59 46.84 651.24 44.66 646.26 41.82 641.56 36.55 631.61 34.16 627.69 30.8 623.15 28.54 618.69 24.14 613.32 21.53 607.19 18.14 600.52 13.8 594.52 11.96 590.55 11.31 587.7 12.61 585.71 16.12 587 17.88 585.9 18.56 583.05 19.88 580.74 23.91 571.68 24.71 566.94 23.36 562.67 27.96 556.91 32.97 552.12 34.44 549.35 33.2 548.04 29.58 547.38 28.19 545.6 28.11 543.11 30.65 540.67 31.78 535.77 30.15 534.97 28.11 536.06 26.13 535.48 24.83 532.62 25.41 529.33 26.69 528.59 29.79 529.83 33.18 530.14 34.49 529.62 36.13 527.58 35.4 526.06 31.5 525.31 27.43 523.82 26.47 522.73 28.09 521.02 33.46 520.89 34.74 519.38 32.5 517.94 29.39 517.23 29.62 515.42 36.23 509.28 38.26 505.38 40.34 504.87 41.62 507.8 43.41 508.19 44.08 506.76 42.79 504.22 39.68 502.91 36.99 502.69 34.55 505.42 32.17 504.96 33.16 502.44 37.78 499.79 38.33 498.63 37.28 496.89 35.55 497.36 33.79 500.02 31.65 500.22 30.01 499.22 26.86 496.04 27.5 494.79 29.95 494.65 34.66 492.55 38.58 488.98 38.15 487.08 35.49 485.15 36.26 481.41 38.03 481.89 39.58 485.19 40.73 486.03 43.78 485.19 44.67 483.73 42.41 481.31 37.45 478.5 38.22 476.57 40.82 476.35 43.02 475.52 43.39 474.3 41.06 473.43 36.67 473.8 35.87 472.5 37.08 470.74 39.75 468.67 41.38 466.52 45.25 466.41 46.44 465.49 47.92 462.35 47.72 461.11 44.27 461.36 42.64 459.56 43.26 458.56 46.48 457.41 48.23 456.22 47.98 453.33 46.68 452.76 42.96 452.48 40.52 451.68 38.56 452.43 38.93 458.18 37.64 459.38 36.34 458.12 34.81 454.76 33.54 450.91 31.1 448.54 31.35 445.65 32.5 443.13 35.83 439.99 39.44 436.11 41.25 434.85 44.12 434.82 45.72 436.36 47.5 437.02 48.76 436.33 50.03 432.5 52.63 428.67 52.25 426.15 54.01 425.99 54.36 427.95 57.26 430.41 59.4 430.04 60.07 425.14 58.5 424.04 55.47 423.27 55.87 421.34 61.81 417.17 63.6 415.01 61.76 412.46 60.68 409.76 60.6 406.47 61.75 403.59 60.3 403.16 58.3 404.95 55.97 404.59 55.9 402.19 54.42 398.93 55.01 397.72 57.84 396.21 60.27 395.88 60.56 394.44 58.44 393.34 55.1 392.63 54.06 390.67 56.76 386.85 55.89 381.97 54.42 382.17 52.56 385.33 50.58 387.52 49.56 387.57 46.98 385.11 45.26 385.43 45.22 386.92 46.41 389.07 46.2 391.09 42.47 394.67 40.83 392.5 42.17 388.43 41.35 387.51 37.12 386.74 35.16 384.51 34.91 380.69 36.75 380.12 38.13 381.49 39.49 380.58 37.98 376.74 38.39 374.27 37.86 372.6 39.02 371.6 43.4 372.18 45.25 371.48 44.82 370.21 38.87 365.72 37.91 363.6 38.94 360.82 37.62 358.38 35.06 355.94 32.33 356.23 250.68 288.78 251.93 286.8 254.92 286.43 257.14 285.29 260.76 286.02 265.88 289.25 272.36 290.68 274.98 290.76 277.7 287.39 281.54 283.66 283.99 282.24 293.45 275.83 295.04 272.41 296.11 272.24 302.07 278.07 303.84 278.08 307.9 274.46 310.44 271.62 313.06 267.46 313.7 265.5 313.61 261.41 314.67 258.53 316.71 256.48 317.4 248.8 318.48 245.58 327.24 240.29 329.86 240.01 332.76 241.36 335.64 240.64 336.58 239.25 342.39 240.54 345.95 239.45 349.04 239.08 353.08 240.07 356.48 237.77 358.91 235.65 365.37 236.75 367.23 235.24 370.37 231.62 375.32 228.88 377.34 227.27 380.01 221.66 379.66 216.72 380.15 212.5 379.99 207.19 380.48 193.58 381.48 191.49 381.29 187.79 380 185.46 378.95 182.21 377.64 180.48 377.06 175.77 379.52 173.27 380.14 171.75 384.93 167.7 385.86 163.75 387.56 160.35 385.95 158.51 385.35 155.25 386.09 152.2 385.5 148.9 383.75 146.16 382.92 142.48 383.39 140.81 385.25 139.32 385.6 137.06 386.62 136 389.04 135.16 389.48 131.38 391.16 128.35 394.05 125.65 394.67 123.82 393.87 122.31 391.59 120.76 390.18 118.74 392.45 117.1 394.59 116.9 393.85 115.12 396.53 113.47 397.84 108.57 395.63 106.93 393.42 102.74 391.44 96.29 388.2 94.19 386.49 92.07 386.4 90.38 387.87 88.95 388.83 85.33 393.75 82.2 395.31 79.2 394.6 75.26 394.85 73.45 396.5 70.85 397.53 66.95 397.63 63.89 395.59 61.18 392.91 60.55 386.93 62.51 383.66 62.42 383.99 57.75 382.55 55.45 380.09 54.41 378.6 52.71 377.53 49.3 374.04 48.39 375.19 46.87 373.22 43.35 375.29 41.19 376.15 38.98 375.6 33.43 377.11 32.27 378.35 29.37 382.03 27.66 385.21 27.55 388.48 28.12 390.09 31.55 392.65 31.75 396.38 29.95 400.84 29.3 402.76 27.78 405.91 26.45 408.42 23.67 404 20.74 404.02 18.06 406.78 15.42 411.16 13.46 418.98 11.92 422.37 11.95 423.98 14.25 426.27 14.52 430.77 14.15 433.4 12.26 440.3 11.41 441.79 10.49 445.99 11.62 446.43 16.1 450.21 20.24 452.73 21.23 458.43 21.35 460.05 21.69 461.49 24.49 467.8 25.2 468.07 21.79 465.92 16.52 465.92 13.55 467.38 12.55 471.28 11.28 471.34 10.1 473.49 6.76 476.94 4.05 482.19 1.08 486.03 1.55 491.01 3.56 492.33 5.51 496.53 6.2 498.8 5.67 498.86 3.82 500.14 1.39 502.81 1 Z"/>
</g>
</svg>