<?xml version="1.0"?>
<svg xmlns="http://www.w3.org/2000/svg" version="1.2" baseProfile="tiny" width="800" height="641" viewBox="0 0 800 641" stroke-linecap="round" stroke-linejoin="round">
<g id="4212270">
<path d="M 662.09 72.66 663.65 71.89 664.47 74.02 665.68 74.69 668.16 76.84 668.95 79.22 669.92 80.49 669.15 82.62 669.38 84.97 668.44 85.46 668.69 86.57 667.99 87.51 667.04 90.56 666.95 92.02 667.7 93.68 667.08 94.04 667.17 95.19 666.71 96.1 666.36 98.19 666.4 102.11 664.7 102.65 663.65 102.65 662.04 103.58 660.14 104.2 659.82 105.72 657.5 107.58 656.8 108.73 655.73 109.48 654.53 111.06 652.39 111.3 650.53 112.38 650.56 113.37 645.81 114.18 644.61 115.2 644.48 116.08 645.47 117.8 645.42 120.15 646.64 121.74 649.02 122.35 650.63 123.47 650.84 125.01 649.34 126.3 647.97 125.96 646.42 126.73 645.9 127.45 645.84 129.53 645.15 130.5 645.2 132.7 643.89 133.43 642.95 133.43 641.41 135.06 642.7 136.41 643.89 136.52 644.58 138.5 644.61 139.42 645.76 141.71 645.7 142.52 647.02 143.75 647.5 145.08 646.47 146.47 643.3 147.76 642.52 149.67 643.46 150.17 643.15 151.68 645.2 153.34 643.52 154.31 643.79 156.19 643.39 157.86 644.43 160.68 643.39 161.32 642.4 163.01 640.13 163.99 638.43 166.41 636.93 169.87 637.22 171.03 635.29 173.11 633.62 173.08 632.22 174.03 632.09 174.82 628.92 175.53 628.59 176.23 629.73 179.11 629.17 181.29 628.47 181.52 626.64 180.65 624.44 182.58 622.93 184.57 621.86 185.22 620.18 185.51 618.83 187.22 618.12 188.67 617.31 189.41 615.68 190.22 613.64 192.71 612.26 193.22 612.97 194.41 616.11 194.23 616.58 194.8 615.68 196.06 614.04 197.65 615.17 199.27 615.97 199.58 616.68 201.41 616.1 203.39 616.92 205.84 616.29 207.46 613.47 209.93 612.74 209.99 611.14 211.11 609.78 210.07 608.01 210.7 608.08 211.78 607.41 212.01 604.67 211.64 603.4 213.01 604.21 213.82 605.18 213.9 606.16 214.7 605.92 216.27 604.09 216.74 604.13 218.23 603.72 219.78 604.83 221.11 605.69 221.01 608.45 219.65 610.24 219.53 610.94 220.71 610.31 222.85 610.51 224.45 611.7 224.21 612.96 228.42 612.42 229.05 611.36 228.95 611.27 228.03 610.3 226.4 608.37 226.3 607.65 227.84 607.78 228.34 610.4 230.96 611.84 231.55 614.43 231.68 616.26 231.33 617.33 231.45 617.35 232.36 616.4 233.69 613.72 233.39 611.6 234.07 609.46 235.33 607.48 236.78 605.7 238.55 605.75 239.9 605.04 240.84 604.75 242.56 603.92 243.27 604.59 246.19 604.13 246.87 602.06 247.91 600.95 248.16 599.53 249.75 599.97 251.76 600.97 251.45 602.76 253.35 602.8 254.07 601.05 254.04 600.72 256.05 599.42 258.23 598.79 258.87 595.5 258.82 593.8 259.9 592.55 259.75 592 260.18 588.61 259.66 587.67 259.75 587.65 260.78 586.88 261.48 585.33 261.72 584.86 262.71 584.83 264.36 583.7 264.73 582.64 263.96 581.73 264.38 579.85 264.18 578.95 261.98 578.05 261.75 576.9 262.16 575.12 261.97 574.83 262.48 575.27 264.37 573.62 265.37 574.05 266.26 570.88 267.37 569.04 267.27 566.71 265.46 563.02 266.18 561.54 265.93 559.12 266.61 558.6 267.37 557.08 267.61 556.2 267 554.75 266.81 551.62 266.9 549.66 267.88 548.25 267.13 546 267.24 545.18 266.06 541.97 265.53 541.1 264.22 539.85 265.17 539.39 266.22 539.25 268.67 540.64 268.44 540.68 269.6 539.43 270.16 539.18 271.69 540.24 272.85 541.78 273.28 541.9 274.3 544.52 275.05 544.69 277.04 546.9 281.43 548.88 281.59 550.26 283.25 551.05 282.77 552.21 282.98 553.36 281.92 556.16 283.4 556.94 283.07 558.21 283.45 560.08 284.85 562.14 284.43 563.31 285.69 565.18 285.91 566.56 286.59 566.96 288.04 566.15 289.01 566.23 291.2 567.25 291.88 567.74 294.76 569.34 294.83 579.44 296.06 580.82 295.19 582.37 293.14 582.04 291.69 582.3 290.69 584.05 289.31 585.76 288.62 587.59 288.21 590.55 288 593.24 286.96 594.81 285.92 596.28 284.58 597.79 285.09 599.11 286.85 600.91 287.39 603.22 285.31 604.42 283.83 606.73 279.75 607.02 278.57 608.18 277.34 609.31 277 612.62 276.67 613.31 277.22 614.1 278.92 614.16 281.28 612.49 282.75 610.94 283.36 610.51 284.78 612.67 289.66 614.85 290.95 614.96 292.36 614.48 294.12 613.09 294.54 610.58 292.84 609.54 291.74 608.18 290.95 606.66 290.96 604.34 290.34 602.39 291.08 601.49 292.28 601.6 292.89 602.87 293.96 603.1 295.54 601.3 296.76 601.16 297.45 603.06 298.5 603.32 299.44 603.01 300.49 600.38 300.95 598.56 302.39 597.82 304.16 598.12 307.82 597.85 310.93 597.1 313.96 596.89 315.75 597.15 318.23 596.82 320.79 596.54 327.06 596.97 328.84 597.26 332.02 598.86 333.96 600.95 335.07 603.18 335.46 603.93 334.76 604 332.85 604.82 331.88 606.9 331.89 608.93 331.23 610.86 329 612.78 329.53 617.36 333.62 618.41 333.79 619.74 333.1 619.78 332.17 618.86 330.05 617.76 328.63 616.18 327.44 615.75 326.21 617.57 323.29 618.13 321.47 620.19 319.61 621.11 318.5 621.48 315.82 622.45 314.44 624.06 314.53 626.31 315.79 628.55 316.51 630.79 316.81 632.25 316.75 634.96 316.99 637.62 317.95 639.41 318.93 641.31 319.57 642.86 319.5 644.09 318.53 645.14 317.01 645.81 316.71 653.93 316.92 658.65 318.08 659.93 318.95 661.11 317.69 661.01 312.85 659.35 309.84 659.58 307.19 660.4 306.45 665.63 305.27 667.89 304.91 669.38 305.16 670.47 306.1 672.22 309.83 673.88 311.88 675.46 312.76 680 313.91 683.87 315.75 685.53 315.2 685.92 314.5 687.4 309.79 688.47 307.07 689.75 306.27 690.32 305.1 690.55 302.75 689.89 300.81 692.02 299.63 693.1 300.34 694.55 300.7 696.51 301.91 697.98 301.94 699.92 301.49 701.21 302.08 700.62 303.74 701.24 304.49 700.52 305.33 702.32 307.87 702.19 308.79 703.15 310.07 704.11 310.38 706.14 309.42 707.26 309.66 709.71 310.83 711.48 310.97 715.02 311.56 718.32 313.06 720.48 313.46 723.29 314.98 724.07 316.75 725.79 316.98 726.87 316.59 728.51 316.86 730.31 319.45 730.46 321.08 730.97 322.58 731.7 323.38 735.09 325.24 736.29 327.57 738.25 329.06 742.11 330.2 743.27 329.49 745.43 329.01 748.94 328.78 749.73 329.1 751.17 330.66 752.09 331.11 754.63 331.5 755.55 332.52 755.96 334.42 755.89 335.51 754.12 338.71 754.42 339.75 755.44 340.95 758.11 342.01 758.81 343.3 759.12 344.78 758.26 345.76 758.44 346.44 759.92 348.06 760.14 349.5 761.18 350.95 763.12 351.74 763.49 353.38 765.46 356.41 765.88 359.73 766.63 361.03 768.23 362.33 769.36 363.89 770.44 364.71 770.94 365.8 771.71 366.2 772.19 367.21 771.82 368.87 772.95 371.79 799 388.83 797.15 389.44 796.12 389.36 794.9 389.84 794.17 390.7 790.65 391.09 789.44 390.95 787.28 391.61 785.74 391.81 783.74 392.41 783.61 394 782.68 393.93 782.14 394.74 778.67 395.94 778.32 396.9 777.24 397.63 774.68 397.83 773.52 398.44 773.78 399.51 772.19 400.06 772.06 401.25 771.35 401.9 769.7 400.95 769.21 402.13 767.07 401.84 764.2 405 762.62 405.64 762.55 406.51 764.13 406.77 764.28 408.57 762.72 411.52 762.17 412.89 762.97 413.2 763.07 414.82 763.62 415.89 763.14 417.13 761.31 417.96 758.71 419.61 757.72 420.62 756.26 422.7 753.82 424.69 752.5 426.25 749.33 427.52 747.84 428.74 746.12 431.3 744.98 434.42 744.72 435.97 744.2 435.88 742.52 437.05 740.37 436.73 737.94 436.76 735.26 436.46 732.61 435.7 729.97 435.65 728.6 436.2 726.84 436.28 725.05 433.99 722.61 434.61 720.97 436.01 720.65 437.33 721.27 439.12 718.98 442.84 717.84 443.32 717.56 444.73 716.6 445.42 717.31 446.51 715.61 448.65 715.43 449.81 715.73 450.87 714.17 451.85 712.73 452.14 713.44 453.08 712.51 453.41 711.85 454.62 710.51 455.73 709.39 455.68 707.74 454.85 706.12 454.35 705.45 453.3 705.59 451.57 707.57 450.38 708.72 449.23 709.58 447.71 709 446.62 705.62 447.05 703.29 445.51 702.07 443.57 702.77 441.39 702.53 439.61 698.98 440.39 697.38 439.7 696.61 438.65 693.97 438.09 693.58 439.14 692.91 443.41 693.14 444.55 694.18 446.5 693.41 447.66 689.74 446.65 686.61 446.41 685.53 445.76 683.65 443.89 681.42 442.4 679.86 442.53 678.54 443.45 676.43 443.6 674.19 443.47 673.03 441.52 673.28 440.67 675.05 440.34 676.49 440.64 676.53 439.36 674.01 438.35 673.14 438.34 669.72 437.33 666.07 435.41 665.62 434.33 665.35 432.48 663.76 430.64 662.21 429.74 661.11 428.75 660.58 427.18 659.74 425.77 658.62 425.69 656.44 424.51 654.87 424.64 653.24 425.74 653.8 427.29 653.35 428.55 654.98 429.21 656.79 430.51 657.26 431.53 656.79 435.15 657.23 437.03 658.62 439.88 658.99 441.3 658.7 441.99 657.19 443 657.12 445.37 658.18 448.41 657.57 450.82 656.06 451.06 654.04 450.76 651.65 452.31 649.8 452.79 648.11 451.1 646.66 450.91 645.09 451.78 642.75 452.19 640.42 450.62 637.63 450.37 636.31 451.18 635.09 452.65 634.26 452.58 633.91 450.72 632.94 449.69 632.4 446.43 631.22 444.51 629.93 442.99 628.43 442.69 627.15 443.96 625.48 446.12 621.33 446.69 619.41 446.42 615.93 446.78 614.78 447.35 614.22 449.63 613.46 451.33 613.5 452.7 615.22 453.44 615.71 453.98 615.79 455.45 616.61 456.39 617.49 458.99 617.68 460.28 616.73 461.21 614.77 461.36 611.49 460.8 605.13 457.38 603.22 456.03 601 456.73 596.59 456.73 595.99 456.24 592.96 455.69 590.49 457.48 588.81 459.25 585.57 462.38 583.02 462.68 580.44 461.9 578.02 462.01 575.96 462.47 574.54 463.25 569.27 467.27 567.56 468.07 565.49 468.54 561.77 468.9 559.43 468.55 556.46 466.06 554.71 465.05 552.81 464.46 551.19 464.48 550.26 465.96 549.47 466.64 546.92 466.94 544.66 467.79 543.26 466.95 542.93 466 542.98 463.89 542.27 462.03 540.64 460.84 539.99 459.96 538.94 459.77 537.19 462.42 535.99 463.81 536.29 464.59 538.45 465.5 539.15 466.15 539.26 467.52 538.15 469.64 535 473.31 533.44 472.49 531.91 470.24 530.63 469.51 528.48 469.81 527.52 471.1 524.84 476.02 524.56 476.87 523.1 477.08 520.63 474.3 519.76 474.06 518.4 472.95 516.34 470.29 514.66 467.59 513.44 467.75 513.62 470.99 514.49 475.14 512.53 475.24 508.62 473.78 507.62 473.67 504.97 474.68 503.82 475.51 503.35 477.37 502.86 478.09 500.22 479.92 499.15 481.65 499.95 482.31 503.01 483.37 503.39 483.89 502.35 485.85 503.47 486.92 505.52 487.53 507.99 489.25 508.94 490.99 508.67 493.07 507.41 493.83 503.1 491.28 502.98 490.6 501.82 490.32 496.55 490.1 493.42 492.35 491.95 493.83 490.83 493.71 489.88 492.41 490.7 487.08 491.17 485.73 490.71 485.42 487.75 484.81 482.94 484.05 479.36 484.07 477.76 483.33 474.36 482.95 471.96 482.35 469.99 481.63 468.93 481.78 467.46 484.25 466.37 485.25 462.85 489.65 460.16 491.11 457.44 490.64 456.77 489.7 452.98 488.35 443.73 489.08 441.81 488.03 441.14 486.93 441.36 486.13 444.02 484.98 444.94 484.09 444.99 482.93 444.62 481.28 445.74 480.63 451.19 479.29 451.98 478.79 452.31 477.66 451.77 474.75 451.66 473.11 451.18 472.02 449.56 470.93 447.11 471.12 445.78 472.53 444.27 475.92 441.68 480.48 438.81 481.67 435.86 482.14 431.03 482.69 429.8 482.38 429.72 481.7 430.87 481.18 430.81 480.07 426.98 480.19 425.24 479.6 424.19 479.99 424.16 481.13 425.75 483.41 427.95 487.04 428.16 488.58 426.64 488.79 423.96 486.61 423.03 485.17 421.42 484.54 419.42 484.48 415.67 481.55 413.62 480.73 412.17 480.81 409.29 480.34 408.1 480.37 405.65 480.96 404.7 480.62 402.93 481.04 396.63 481.79 395.22 481.66 393.16 481.07 391.68 479.74 389.46 479.21 388.08 479.58 385.34 480.81 383.89 480.57 382.8 479.51 381.72 479.09 379.55 478.94 378.78 478.19 377.82 475.1 375.6 476.3 376.42 478.78 376.27 480.08 375.32 482.44 374.39 483.79 372.34 485.21 371.34 485.5 368.96 485.63 365.35 484.66 363.75 485.06 362.37 484.86 361.09 484.04 360.42 482.96 360.55 481.9 361.47 480.37 361.16 479.17 361.78 476.37 362.68 473.49 362.07 471.69 361.08 471.34 358.95 471.9 357.27 472.69 354.79 473.13 350.49 472.09 348.29 471.81 346.33 472.01 343.93 472.88 343.47 473.45 343.64 475.54 343.49 478.95 343.59 483.02 342.14 485.67 340.02 487.88 343.31 489.72 346.25 491.13 348.12 492.54 348.79 493.6 348.66 496.11 347.39 498.6 347.42 499.15 346.39 500.44 343.08 502.39 340.84 502.95 338.19 503.88 337.13 504.79 336.91 505.78 337.27 508.13 336.33 511.69 336.68 512.47 339.38 514.64 341.39 517.78 343.01 519.17 342.7 520.97 342.1 521.67 339.03 522.05 336.63 523.75 335.28 525.35 333.58 525.96 331.09 525.91 330.15 526.23 329.24 527.91 327.62 529.53 326.52 531.05 324.7 532.96 319.89 537.08 319.34 538.46 318.41 539.68 318.16 541.02 315.93 544.34 313.64 545.82 311.24 546.6 294.84 575.8 273.97 612.98 212.3 599.22 208.21 601.32 205.72 603.54 203.28 604.22 199.96 606.02 199.18 607.14 197.38 607.76 197.14 608.32 195.72 609.15 193.57 611.87 191.17 613.61 189.77 615.03 189.47 616.21 189.8 617.81 189.61 619.01 188.7 620.38 188.35 621.78 187.33 622.93 187.61 624.88 186.63 625.58 187.28 628.71 186.53 630.11 186.04 631.74 186.13 632.66 187.12 633.59 183.04 632.49 179.52 631.1 173.42 628.15 169.71 626.24 167.88 625.59 164.53 624.94 156.4 626.02 152.06 626.72 149.9 626.88 137.86 628.53 118.86 631.08 117.24 631.24 113.51 631.09 91.37 628.3 88.14 628.12 84.8 628.59 82.96 629.22 75.74 632.37 74.14 633.19 72.36 634.44 66.92 639.45 64.46 640 61.89 639.45 59.11 639.16 56.34 637.59 54.51 637.34 52.96 636.04 50.52 636.04 49.26 635.25 47.78 634.96 45.41 633.75 45.19 633.24 41.72 631.32 39.35 630.59 36.89 630.37 31.6 626.17 29.32 626.51 27.05 627.08 26.17 627.04 24.6 626.14 24 626.6 22.43 626.32 22.61 625.38 21.9 624.53 22.4 623.15 22.24 621.93 22.77 621.19 22.14 619.36 22.75 617.73 21.79 616.73 21.77 615.61 22.7 614.22 22.58 613.59 23.94 612.54 23.96 609.49 22.56 607.32 22.67 605.24 22.25 603.9 23.24 603.13 23.4 601.88 22.88 600.55 22.06 600.93 20.02 601.22 19.31 599.3 17.25 600.1 15.49 598.52 13.03 594.33 12.12 593.77 11.7 592.84 13.22 592.15 13.92 590.67 15.13 589.65 14.98 588.24 15.69 587.08 15.75 585.84 16.52 585.64 16.12 584.41 15.12 584.75 13.26 584.49 12.81 583.92 11.11 583.56 10.49 582.74 10.99 581.08 10.8 579.49 11.38 578.61 11.2 577.53 15.98 569.46 17.03 566.73 17.22 562.57 16.93 561.4 15.37 558.84 15.06 557.77 15.62 554.58 16.21 553.31 16.22 552.23 15.72 550.3 16.3 549 16.3 547.87 17.13 546.36 17.31 544.85 16.85 543.99 16.83 542.55 17.2 541.11 16.36 539.52 15.79 534.3 14.88 532.99 14.8 531.34 15.45 529.21 15.26 528.66 12.27 527.63 10.26 528.32 9.33 530.4 8.15 529.95 8.08 529.09 5.79 527.89 2.35 527.55 1 526.86 1.18 524.51 1.04 523.03 3.88 521.67 6.79 520.6 7.48 519.8 8.49 517.55 8.81 516.03 9.54 514.64 11.97 511.71 12.57 510.53 16.34 510.68 18.92 507.85 20.61 507.41 22.29 505.87 23.37 503.77 25.89 501.9 26.54 500.45 27.2 499.85 29.2 499.01 32.37 499.85 34.73 500.17 37.96 499.97 41.4 499.29 43.05 498.62 45.19 497.43 46.64 497.23 51.53 495.94 53.75 495.52 55.71 493.75 57.59 493.46 67.53 495.69 71.39 496.83 74.7 497.66 76.88 497.69 78.64 497.33 79.42 496.4 80.25 494.3 81.11 490.5 82.99 484.75 85.03 479.09 86.65 475.39 88.44 472.33 90.15 471.13 92.67 471.57 96.51 473.45 98.02 474.66 100.32 475.81 104.57 478.89 106.76 479.26 112.9 475.74 115.25 473.71 119.43 472.31 121.93 471.18 123.41 471.06 128.32 473.06 131.21 474.81 136.25 478.13 143.75 482.04 144.83 482.41 146.62 482.52 150.28 482.09 151.4 481.28 151.64 479.99 150.38 478.52 151.59 476.46 152.19 476.15 155.32 475.79 157.61 475.78 159.26 476.33 160.96 476.09 163.7 474.34 165.9 473.52 167.71 472.51 172.17 471.09 175.71 469.64 177.83 467.98 179.1 468.41 179.36 469.9 180.81 470.58 182.56 469.07 183.43 469.16 183.82 470.29 184.64 470.6 187.86 468.97 190.83 468.8 191.34 467.93 189.46 466.7 189.77 465.58 192.24 463.71 194.78 463.9 196.66 465.03 198.65 466.67 201.89 468.85 202.59 469.11 207.01 469.23 209.86 468.93 212.26 468.91 219.03 467.35 221.15 466.66 222.71 464.9 224.12 462.14 224.35 461.23 224.22 459.22 222.63 457.58 221.69 456.22 220.55 455.33 218.33 454.81 217.53 454.32 216.13 452.14 214.81 450.82 212.3 449.35 210.01 448.66 207.05 448 206.31 446.89 205.87 444.93 206.23 443.68 207.35 442.96 209.26 442.8 212.17 442.24 212.21 441.66 211.05 440.23 209.13 440.42 208.95 439.74 210.8 439.06 210.95 436.8 209.68 436.45 208.87 434.4 209.24 432.31 210.63 430.58 211.05 429.46 212.04 429.14 212.81 427.63 213.22 426.01 212.96 425.24 211.83 425.34 209.09 424.98 208.59 424.35 206.84 423.53 204.35 421.19 202.6 420.56 201.34 418.54 201.78 418.2 201.93 416.59 201.22 415.48 201.11 413.99 199.53 412.29 198.29 412.06 199.14 408.98 199.11 407.74 197.91 405.92 196.99 405.03 196.98 404.12 199.41 402.81 199.41 400.83 198.37 400.62 198.37 399.8 199.69 398.52 199.92 395.34 198.6 393.53 199.27 392.41 198.72 390.52 197.23 389.69 196.87 386.83 197.01 385.77 196.28 384.38 194.52 382.94 191.23 381.83 190.86 380.86 188.38 379.67 187.37 377.78 184.74 376.1 183.6 374.73 181.63 373.15 179.15 371.73 178.71 370.3 178.79 368.62 179.35 366.88 178.55 363.4 178.12 362.85 179.41 359.56 178.77 356.32 177.34 355.55 176.64 354.61 176.55 352.47 177.64 351.05 178.1 349.89 180.03 349.21 181.88 347.67 183.01 346.02 186.54 343.71 186.9 342.95 188.9 340.65 189.49 339.58 191.39 338.14 192.01 336.89 193.01 335.97 193.87 333.13 195.1 332.4 194.95 331.64 195.74 330.44 196.15 326.15 197.34 322.81 199.2 319.61 200.84 317.71 201.44 314.03 200.67 312.57 202.21 310 202.52 307.37 203.79 303.78 203.15 303.09 199.6 301.72 196.92 300.42 192.36 299.77 187.32 298.58 185.34 298.32 183.23 297.26 183.5 295.85 185.07 293.65 186.95 292.93 189.39 291.61 194.06 289.71 197.83 288.91 200.23 287.26 200.47 286.12 200.05 284.06 199.34 283.62 195.99 282.65 193.48 282.3 192.37 282.39 190.74 283.21 189.59 284.27 186.54 284.8 184.24 285.75 181.84 286.36 179.77 286.43 175.34 286.22 167.22 286.06 160.47 285.3 157.33 284.41 156.52 283.96 156.03 282.86 156.4 281.28 158.83 279.94 160.51 278.79 162.11 277.07 163.95 273.38 164.69 272.22 165.1 270.8 164.26 269.19 165.77 268.27 167.37 266.57 167.77 264.44 167.32 262.3 166.68 261.82 164.79 261.76 164.24 260.71 165.47 259.39 166.03 257.59 166 256.72 167.65 256.37 170.59 256.75 172.18 257.61 174.09 257 174.84 256.07 176.5 255 178.86 254.83 179.38 254.09 178.15 252.87 177.23 251.31 175.65 250.36 173.7 249.9 173.18 250.09 172.03 252.67 171.01 252.97 169.55 252.25 167.71 250.62 166.3 249 165.41 248.4 164.33 246.53 164.83 243.39 165.47 241.98 165.12 240.35 163.12 241.11 162.5 240.88 161.72 238.03 160.03 236.66 159.06 235.19 158.91 234.32 159.57 232.49 159.47 230.75 159.89 230.25 162.12 230.63 163.03 229.92 162.99 229.06 164.44 229.21 165.96 228.92 168.19 226.2 169.03 225.79 170.3 225.89 171.71 228.39 172.27 228.58 175.8 227.64 175.83 226.68 174.24 225.79 172.94 224.47 173.08 223.75 176.58 222.27 177.41 222.48 178.63 221.4 178.61 220.38 176.97 218.72 177.61 217.61 178.75 217.41 180.05 216.66 180.44 215.69 181.47 214.85 181.44 214.28 183.05 213.13 182.99 211.65 183.69 210.62 184.27 208.37 185.7 207.31 186.24 205.81 187.79 202.89 188.63 201.93 189.94 199.34 190 197.83 191.24 196.24 190.84 194.98 191.01 193.85 193.24 193.23 193.74 191.82 192.48 190.22 192.82 188.48 192.28 186.85 189.38 184.55 188.43 181.64 189.75 179.6 191.16 173.29 191.92 170.91 193.38 169.47 194.92 166.95 196.3 165.64 197.72 163.09 200.23 160.78 199.58 156.78 200.76 155.31 201.04 154.25 200.87 152.94 201.38 151.58 199.57 151.53 199.26 150.73 200.87 147.79 201.78 146.96 201.9 144.95 203.1 143.66 203.99 141.91 205.57 141.15 207.04 139.87 207.93 138.62 208.34 136.94 208.64 133.31 209.26 131.6 209.12 130.93 206.06 127.71 205.98 127.21 208.15 124.81 208.04 123.44 210.97 120.78 211.42 119.16 212.28 118.15 212.28 116.97 214.04 114.48 214.07 112.47 214.9 111.71 215.26 110.22 216.04 109.82 215.38 108.63 216.89 107.43 218.98 107.2 221.42 108.97 222.83 108.74 223.4 107.03 225.06 106.65 225.91 104.79 224.52 103.33 224.9 102.55 228.94 102.2 230.71 102.68 232.1 102.03 234.36 102.07 236.7 101.11 239.73 100.54 240.15 99.67 242.3 98.59 243.92 98.3 244.17 96.73 245.42 94.53 243.27 94.4 241.22 94.04 240.36 93.4 241.43 92.23 240.9 91.64 238.76 90.96 237.95 90.32 236.24 90.24 234.34 89.72 233.15 88.09 230.9 86.27 230.44 84.85 231.49 83.91 233.92 83.91 235.25 83 236.78 80.97 239.27 79.54 239.11 78.07 240.52 76.05 241.97 75.19 243.65 73.31 245.98 71.98 246.65 71.37 246.94 67.8 246.94 65.19 245.68 62.35 245.72 61.46 244.85 58.79 244.98 58.06 246.16 56.77 245.99 55.54 246.39 54.74 244.76 53.02 244.32 51.83 245.9 48.88 245.83 47.11 246.97 45.21 245.65 43.71 245.79 41.85 244.35 40.86 244.27 39.73 245.19 38.52 245.53 37.28 246.18 36.87 245.84 35.69 244.86 34.43 243.62 33.62 243.89 32.35 243.36 31.35 244.14 30.45 243.2 29.92 243.02 29.19 243.88 28.47 243.63 25.43 242.69 22.91 243.12 21.94 243.22 19.88 242.92 18.83 244.8 16.95 246.83 16.03 249.17 15.73 250.69 14.97 249.85 14.01 248.47 13.92 246.13 13.27 245.62 12.82 243.01 13.18 240.67 12.14 240.88 10.61 241.58 9.24 242.19 8.88 241.54 6.11 241.95 4.25 242.5 3.32 242.24 1 255.5 2.92 258.4 4.75 257.98 7.66 256.88 8.91 256.17 10.32 258.15 13.45 260.9 14.5 262.96 16.56 267.91 17.95 269.4 17.72 268.9 18.96 268.85 21.84 269.64 23.05 270.6 23.77 271.36 25.1 271.48 27.92 272.55 30.95 276.57 35.1 278.88 36.73 282.1 39.76 283.87 41.24 284.55 41.16 284.74 39.4 285.44 38.22 287.18 37.16 288.67 36.98 292.91 38.73 293.93 38.65 296.34 39.81 297.1 40.98 298.43 42.06 300.54 42.74 302.61 42.3 305.31 40.79 309.61 41.28 313.82 41.15 316.24 41.94 320.6 42.29 322.6 42.28 325.77 41.97 328.74 40.73 330.42 39.12 330.84 37.89 331.48 37.28 333.2 37.08 333.26 39.82 334.94 43.76 337.17 46.24 338.15 47.04 339.62 47.52 342.85 47.41 344.37 46.05 347.09 45.41 350.99 44.17 352.28 43.52 354.31 43.14 357.42 43.15 357.46 45.24 359.2 44.56 362.36 44.38 366.12 47.12 368.81 49.4 371.47 52.43 376.55 54.14 379.35 55.55 384.23 57.43 387.36 57.42 389.96 56.93 391.48 55.9 393.3 54.25 396.5 50.62 397.9 49.7 400.99 48.53 403.66 47.92 408.16 47.38 411.98 48.02 415.95 49.64 417.79 50.73 424.01 56.47 425.62 59.2 426.8 60.86 428 63.24 429.84 64.44 436.83 69.73 440.77 73.18 444.74 76.01 448.48 77.66 450.64 77.88 453.09 77.64 457.79 76.16 462.66 76.1 476.45 74.21 485.07 72.96 487.55 72.49 491.64 70.99 498.6 69.22 501.1 68.75 505.87 67.26 508.15 68.41 513.17 68.69 518.22 71.51 521.27 73.52 525.25 78.13 527.37 78.4 536.01 77.17 539.26 78 540.89 78.58 541.91 79.44 543.4 86.29 543.76 87.51 544.57 88.67 550.36 94.85 551.28 96.32 551.59 98.72 550.52 102.93 551.64 104.69 556.32 106.4 560.8 108.33 565.23 107.98 578.69 105.94 584.16 103.58 587.91 102.1 588.92 101.19 592.81 95.85 595.08 92.51 595.88 91.58 598.16 91.01 602.66 92.22 604.06 92.44 608.1 94.31 614.53 97.53 616.18 97.77 620.85 95.64 630.57 90.51 632.77 89.75 636.59 89.53 639.15 89.59 641.53 89.26 644.39 86.74 648.51 83.43 654.49 77.77 657.57 74.67 660.6 73.63 662.09 72.66 Z"/>
</g>
</svg>