<?xml version="1.0"?>
<svg xmlns="http://www.w3.org/2000/svg" version="1.2" baseProfile="tiny" width="800" height="601" viewBox="0 0 800 601" stroke-linecap="round" stroke-linejoin="round">
<g id="4213708">
<path d="M 798.73 200.77 797.6 201.66 794.79 201.9 791.2 200.84 789.68 200.12 785.89 197.28 783.53 196.61 782.17 197.72 780.02 200.28 776.95 202.55 774.42 204.04 772.59 204.51 769.59 204.63 766.93 205.55 764.9 207.42 763.95 210.12 763.69 213.52 762.26 215.73 760.5 217.23 758.64 220.08 757.1 220.8 752.14 220.19 744.98 218.89 743.17 219.39 741.39 220.75 740.59 222.81 739.85 226.53 738.06 229.7 736.51 230.71 734.28 231.47 728.19 232.08 726.69 232.72 724.55 234.32 722.54 234.8 719.04 235.2 715.43 235.27 711.99 234.19 711.37 234.85 711.91 236.17 710.64 239.05 711.85 241.93 711.32 243.64 709.79 244.82 707.42 245.91 706.04 247.37 704.68 250.41 702.15 252.27 700.27 255.68 698.38 258.01 697.85 260.59 696.67 261.8 694.46 262.06 692.03 263.86 689.3 264.74 686.52 268.07 684.27 270.35 680.04 272.92 678.74 276.85 677.57 278.28 674.81 280.16 671.1 280.32 668.87 281.32 663.66 283.2 662.72 283.87 660.71 286.62 658.63 287.37 657.27 290.34 655.78 291.49 653.73 292.35 650.25 294.23 648.55 295.81 646.82 296.75 644.35 297.43 643.63 298.4 642.78 302.98 641.11 305.96 637.21 307.1 635.42 307.48 631.67 306.97 629.23 307.5 627.81 307.22 626.35 306.17 624.71 305.84 619.73 306.53 616.02 308.02 611.87 310.4 609.08 311.13 605.6 312.56 604.68 313.27 603.7 315.13 602.45 316.19 599 317.49 597.15 318.66 593.06 320.43 590.93 322.61 587.06 323.58 583.89 323.64 582.59 324.8 581.65 326.75 580.62 327.39 577.24 327.94 575.98 328.88 575.32 330.06 574.03 333.8 572.05 336.57 568.1 340.25 565.21 341.84 563.43 342.48 559.25 343.35 550.64 347.13 547.62 348.1 545.78 349.03 540.03 350.09 537 351.63 533.93 352.7 532.25 352.88 527.19 352.88 524.47 352.46 522.87 351.1 522.35 349.99 520.95 349.77 517.81 352.96 516.87 354.83 517.09 357.1 516.36 360.1 515.42 362.13 514.25 363.68 511.71 366.32 505.3 370.69 502.25 372.22 501.47 373.91 502.61 377.56 502.28 378.85 500.42 380.94 498.74 382.26 495.55 383.53 494.11 384.67 492.46 386.83 490.93 391.91 490.84 393.73 491.29 394.97 493.98 397.58 495.47 403.28 493.67 407.91 493.9 411.51 494.49 413.42 498.79 420.48 499.91 423.84 500.62 424.73 504.28 425.68 508.98 427.33 510.83 427.41 514.01 426.95 515.89 427.29 517.54 428.51 517.52 429.67 516.26 432.79 514.38 435.09 510.71 435.69 509.17 435.66 507.82 434.98 506.73 435.19 505.81 436.31 505.61 438.5 506.22 440.99 506.49 445.27 508.18 449.26 509.23 452.44 512.52 456.66 513.79 457.52 517.36 458.7 522.31 459.83 523.21 460.33 526.14 464.65 527.23 467.15 526.6 468.56 524.02 469.95 521.24 472.06 515.66 474.11 514.83 475.15 514.32 477.49 514.89 480.29 514.78 481.97 513.63 484.84 511.84 486.24 510.97 488.95 509.77 490.13 507.7 490.82 502.39 493.33 497.62 494.99 495.27 496.17 491.68 497.15 488.83 498.98 487.39 500.6 486.24 502.6 483.18 503.78 481.26 503.64 478.01 502.16 476.11 503.26 473.14 503.95 467.08 503.27 464.8 503.61 464.25 504.32 465.2 507.58 466.66 509.82 467.36 512.07 467.48 514.75 470.18 523.09 471.82 526.36 471.6 527.96 469.75 528.59 467.55 528.86 465.78 528.47 464.07 529.94 461.48 530.45 459.69 531.27 458.72 532.55 458.19 534.4 459 536.73 458.71 539.96 457.79 541.13 457.69 542.26 458.32 544.43 457.92 547.04 456.08 547.65 454.33 549.27 452.37 554.42 451.47 555.93 447.4 556.28 449.67 558.41 451.14 562.06 453.52 565.78 453.86 567.44 452.42 569.34 451.41 569.7 446.44 568.11 443.38 566.18 439.19 565.32 436.63 566.62 434.2 569.2 433.92 570.16 435.32 571.99 433.41 573.05 432.19 574.42 431.34 577.13 431.13 580.25 428.95 580.2 427.33 580.94 426.42 580.12 423.54 578.61 420.49 575.54 418.51 571.62 417.66 574.6 415.57 579.87 414.33 583.73 412.24 582.64 411.45 580.16 408.95 579.25 407.04 577.74 403.3 577.07 401.86 576.06 401.66 575.25 397.17 571.73 395.32 571.42 393.61 572.14 391.98 569.67 390.07 568.83 387.66 568.6 386.63 568.12 384 565.79 380.1 565.12 376.86 566.03 374.87 566.03 374.35 564.72 372.89 563.9 371.39 562.41 370.06 561.87 369.64 564.91 368.23 565.72 366.6 565.96 365.87 566.81 366.45 568.73 367.78 570.94 370.38 575.92 374.68 580.19 376.08 582.33 377.03 585.03 378.74 586.38 379.16 589.99 380.82 591.57 385.87 592.21 391.53 593.71 392.69 594.71 392.66 596.63 391.36 598.24 389.52 598.76 388.48 598.21 385.97 598.44 384.25 599.78 382.83 599.57 379.66 600 377.04 599.02 374.82 598.91 372.75 599.97 370.66 599.52 370.07 598.82 369.84 596.84 368.43 592.95 365.67 590.92 364.07 588.92 363.73 587.47 357.41 584.52 356.24 584.87 354.81 586.62 352.82 587.75 350.92 587.81 348.72 586.55 346.43 582.83 345.74 580.51 344.8 579.5 344.68 577.22 341.31 574.47 339.31 572.43 338.23 570.69 336.7 569.82 333.52 564.85 331.01 563.76 329.02 562.06 326.52 560.67 324.18 559.03 322.65 557.02 321.08 556.33 321.26 552.07 321.75 549.34 322.58 548.39 322.2 546.93 320.24 546.42 316.76 547.28 313.79 546.96 311.99 547.13 309.18 546.66 308.39 548.24 308.6 550.63 307.35 552.95 305.52 553.2 303.46 552.2 301.11 550 300.09 546.43 298.21 546.77 296.89 546.12 292.78 546.43 293.3 545.58 296.69 543.36 297.58 542.39 300.16 541.1 299.76 539.2 295.53 537.79 296.2 536.62 297.97 535.31 297.02 533.67 297.49 531.26 298.99 529.62 300.4 529.42 303.56 530.51 305.04 529.01 308.17 524.88 311.28 521.9 313.47 519.22 313.37 518.24 312.18 517.55 308.38 516.08 306.54 514.18 303.48 511.7 302.53 510.24 302.07 505.48 302.13 502 301.39 500.05 302.21 498.63 301.81 497.76 299.76 496.41 297.46 494.22 294.29 494.28 294.81 492.83 291.06 492.86 289.01 491.57 288.52 490.67 286.65 490.04 287.23 489.06 286.76 487.62 288.46 486.78 288.44 485.31 287.23 482.66 283.51 481.48 281.75 481.92 278 481.68 276.68 483.38 277.71 484.74 275.61 485.37 274.52 487.46 273.77 487.74 271.46 486.64 268.29 484.74 264.54 484.42 263.91 482.64 261 482.58 257.58 482.07 256.65 481.43 254.84 479.14 253.52 478.48 254.35 477.33 256.2 477.13 256.95 476.11 256.41 473.85 258.13 473.1 258.76 471.63 261.39 470.22 262.4 469.21 263.87 465.32 260.46 465.12 258.16 463.59 258.04 461.58 259.28 458.98 260.64 458.52 262.34 457.28 261.62 456.07 260.41 455.9 259.66 454.23 258 453.49 257.99 452.04 258.69 449.13 259.61 446.82 259.12 445.93 256.88 444.1 256.54 441.8 256.83 440.08 257.64 439.18 259.86 438.4 260.03 437.5 258.26 436.65 256.53 434.79 256.52 432.48 255.2 431.54 254.97 434.28 253.33 436.15 249.08 436.58 247.24 435.85 245.71 432.57 244.11 432.78 242.68 433.7 240.79 433.21 239.31 432.25 238.55 430.99 238.47 428.17 236.56 425.55 232.94 424.11 230.43 420 229.74 418.22 226.5 417.66 224.16 417.89 223.59 416.83 223.4 414.55 223.93 412.78 225.68 410.2 227.49 408.76 229.28 404.7 230.76 402.68 231.15 401.11 230.12 395.2 228.66 391.79 227.81 390.75 227.52 389.3 226.6 388.82 224.25 389.2 223.9 384.47 223.5 382.97 224.71 382.18 226.61 381.76 230.61 381.89 231.14 383.26 233.88 384.95 235.02 386.63 236.56 387.57 237.79 387.61 238.86 390.83 241.08 394.08 242.93 394.56 244.22 396.66 247.13 396.89 250.08 398.12 248.6 399.94 248.59 400.74 250.12 402.91 253.39 403.16 254.99 402.52 258.97 402.71 263 403.79 266.06 405.75 268.51 406.27 269.98 405.84 273.9 405.78 275.97 406.01 276.58 405.12 270.64 404.83 268.59 403.39 268.33 400.48 268.79 399.3 270.78 397.25 273.32 395.58 271.47 395.29 272.77 392.61 274.64 390.05 275.71 387.49 277.49 387.15 279.26 387.4 277.67 384.31 278.56 380.94 274.64 377.34 273.78 374.52 272.45 373.14 271.98 371.03 273.55 366.37 274.85 367.14 278.88 365.53 280.87 365.96 280.73 367.95 283.93 369.22 286.4 369.88 287.5 372.36 289.23 375.1 290.87 373.22 292.49 371.93 293.06 369.97 292.46 366.62 294.21 363.74 293.78 361.44 294.76 359.6 298.48 359.02 298.16 356.97 299.2 353.34 300.09 352.02 303.06 351.61 305.92 349.48 306.67 346.52 307.59 344.93 309.61 344.18 313.55 343.55 316.41 342.08 316.78 340.58 315.69 340.15 314.1 340.44 312.6 342.08 310.93 342.74 306.26 343.29 304.45 344.9 302.77 345.19 299.26 347.29 296.95 347.98 291.16 347.9 292.31 349.77 295.19 351.44 295.25 352.25 291.62 353.43 291.13 354.09 290.86 356.77 286.81 356.35 286.45 355.66 284.8 355.23 279.01 356.14 277.35 355.5 276.29 353.07 274.2 352.1 272.94 352.36 269.75 356 267.64 354.42 266.24 354.09 263.97 354.8 262.32 354.28 260.52 354.76 258.49 354.25 256.78 352.91 253.63 352.98 248.42 350.48 247.81 349.47 247.39 347.12 246.88 346.83 244.09 347.13 241.51 348.24 240.23 348.22 239.22 347.26 236.05 347.54 235.02 345.94 234.15 345.8 232.51 347.09 231.24 347.32 230.12 345.54 227.87 343.29 225.59 342.42 223.95 340.81 221.67 339.2 220.63 337.79 217.26 337.96 215.04 336.35 214.07 334.73 212.16 335.39 208.82 335.11 207.17 334.3 203.82 334.69 202.59 334.27 200.46 332.63 199.91 333.44 202.68 336.12 205.33 337.12 206.3 338.7 206.51 340.29 205.88 341.27 203.63 342.48 200.9 342.46 198.96 343 196.86 342.47 194.49 342.91 192.39 342.25 191 339.37 187.78 338.68 184.95 340.9 185.56 341.92 185.54 344.02 185.05 345.11 182.83 346.67 180.47 347.9 180.09 349.18 177.96 347.19 176.91 346.67 176.85 344.97 177.48 343.91 174.89 342.06 174.4 341.17 173.83 337.99 174.37 336.79 174.57 334.06 176.72 332.85 179.32 332.18 180.91 332.5 181.43 330.54 184.2 326.16 185.98 325.01 185.44 323.6 183.65 324.81 181.77 325.27 179.9 325.21 177.8 326.33 176.44 326.33 175.19 325.43 176.53 324.06 176.44 321.35 173.59 322.19 172.21 320.8 171.24 318.09 170.23 318.02 169.94 319.36 168.46 319.02 167.42 319.94 165.56 320.14 164.08 321.33 163.89 318.15 162.97 317 160.17 317.36 155.92 318.8 154.61 318.71 153.44 316.53 153.72 314.85 154.67 313.22 154.13 312.16 151.64 311.54 149.49 311.38 147.78 308.98 147.55 307.29 150.24 305.19 150.95 304.31 150.49 302.68 152.55 300.87 152.35 300.38 149.61 300.17 147.74 299.47 146.12 301.82 143.08 302.02 141.1 303.55 139.45 303.8 135.12 303.19 133.94 304.89 132.41 303.27 130.3 302.41 128.65 301.02 128.14 299.89 128.16 297.86 129.03 295.24 129.99 293.75 128.52 293.01 126.82 295.73 123.31 300.26 122.5 300.13 118.71 297.94 117.88 296.98 117.47 294.58 115.18 294.96 113.35 297.81 111.44 295.84 106.81 294.07 105.03 294.54 103.73 293.6 105.86 291.83 107.99 288.9 108.83 288.27 109.42 285.85 110.68 284 108.25 283.36 106.34 283.25 104.92 281.85 104.52 283.87 101.9 285.36 98.74 286.36 99.16 284.23 98.32 283.79 95.72 284.81 95.38 285.93 94.15 286.98 93.11 284.68 91.94 284.59 89.65 283.66 86.78 283.89 86.95 281.13 85.29 280.66 83.47 282.43 84.15 283.89 81.79 283.23 80.79 285.61 80.93 286.89 77.84 286.31 79.5 285.53 77.84 283.76 77.82 282.34 77.01 281.32 78.22 279.58 77.63 278.56 76.35 280.58 74.33 281.54 75.38 279.43 74.48 277.99 73.06 277.37 74.55 273.88 73.78 273.37 72.34 275.86 70.53 277.56 69.24 280.3 67.98 279.96 67.81 278.84 70.81 275.61 70.06 274.1 68.66 273.95 68.13 275.71 66.22 275.8 66.84 273.95 65.26 273.39 63.84 275.37 59.97 277.54 59.2 276.84 60.25 275.29 61.06 271.69 59.78 271.29 58.15 273.06 57.11 273.23 57.47 271.29 54.94 271.35 53.14 271.03 53.77 269.87 53.26 267.04 52.5 265.91 50.8 266.5 49.43 266.2 48.24 264.26 49.65 262.99 52.88 262.12 52.01 261.37 48.56 261.41 47.07 260.86 45.81 259.34 44.94 259.01 45.44 256.44 42.29 255.63 42.9 253.15 41.81 252.28 40.81 252.77 38.43 251.48 37.46 250.24 37.14 248.71 35.23 246.81 36.1 244.82 32.56 245.17 29.24 244.79 28.82 242.88 27.42 242.63 26.92 240.64 27.8 239.53 27.5 238.46 24.27 240.82 22.96 241.47 20.41 240.17 17.92 236.48 18.93 233.78 15.1 232.56 12.86 232.23 11.77 230.75 13.03 230.5 14.24 228.13 9.22 226.69 1 223.27 2.03 220.81 6.01 218.97 7.85 218.5 9.32 218.81 12.68 220.74 16.51 218.61 19 215 20.45 209.9 21.35 208.07 23.16 206.29 25.5 203.37 26.08 201.33 25.93 198.59 26.63 196.86 29.05 195 32.89 193.56 33.94 192.41 34.27 190.55 35.44 188.2 36.85 186.69 39.74 186.16 40.99 183.01 44.91 180.23 48.79 179.76 50.31 176.94 51.56 173.11 55.21 170.57 62.15 167.2 65.35 166.39 69.71 163.64 71.42 162.85 72.57 161.01 73.96 157.99 74.85 153.89 76.69 151.33 78.23 150.42 79.98 150.54 82.29 151.21 85.3 151.08 87.47 151.66 89.24 152.74 91.11 152.73 92.43 149.98 93.36 146.96 94.75 144.01 95.68 142.99 98.14 143.32 99.38 142.86 100.29 139.46 102.15 136.98 103.08 136.92 105.09 138.05 106.72 140.12 108.21 142.95 110.58 145.18 111.94 145.33 114.27 144.47 116.58 142.93 120.21 141.32 123.33 140.23 125.24 140.5 126.5 139.71 127.3 137.75 128.7 136.26 130.42 136.17 134 136.66 135.2 136.19 139.21 135.98 141.66 136.26 149.83 134.19 152.09 133.3 152.93 132.46 154.46 129.86 157.18 126.99 159.24 125.39 163.1 123.64 164.56 122.27 165.12 120.32 166.32 118.68 168.15 117.39 171.21 116.85 172.42 114.24 173.8 112.5 173.48 110.09 175.83 108.09 177.62 107.32 181.23 106.54 182.37 105.73 184.92 101.54 185.15 99.33 169.69 86.81 169.93 85.86 172.68 84.32 172.54 81.19 174.14 79.26 174.62 77.69 174.08 76.44 176.5 74.63 177.47 74.92 180.5 73.06 181.68 74.65 183.98 74.95 186.06 74.04 186.99 74.21 188.49 72.75 188.15 70.97 190.01 69.55 193.08 68.98 194.3 69.13 194.74 66.72 195.88 65.39 195.34 64.56 196.93 63.56 200.66 63.44 201 62.25 202.46 62.03 202.34 61.04 203.67 59.85 204.38 57.21 204.09 55.53 205.98 53.29 206.34 51.55 209.76 50.17 211.97 49.01 215.35 45.42 217.78 45.91 219.53 51.87 217.87 53.28 219.11 53.97 219.25 55.09 220.27 56.36 219.25 57.91 220.33 59.11 221.76 59.91 223.16 60.03 223.59 59.04 226.84 59.6 226.49 60.74 224.8 60.49 225 62.27 226.44 63.06 228.28 61.72 230.55 62.13 227.97 64.29 227.65 66.77 228.39 67.84 231.01 65.88 231.83 66.73 229.27 70.25 226.06 72.3 225.19 74.61 225.71 75.76 227.89 76.97 228.76 79.17 235.05 81.37 239.26 81.59 243.02 81.08 247.1 81.57 251.96 84.18 261.39 87.08 268.89 87.79 271.48 87.13 273.78 85.68 279.9 80.13 285.95 72.66 290.91 64.59 296.61 58.76 328.71 64.23 333.88 62.52 337.12 62.53 342.67 65.86 344.45 67.11 347.44 68.19 350.07 65.89 350.44 64.79 351.63 63.6 353.4 62.74 355.27 62.34 358.9 59.72 360.52 55.06 362.03 53.51 362.36 52.13 362.01 50.96 363.49 49.38 365.38 48.86 366.97 46.08 366.76 44.98 368.12 44.04 369.8 44.66 370.45 41.57 371.93 41.25 372.6 43.07 375.42 41.82 375.92 40.65 377.47 39.91 376.91 37.99 380.08 37.02 379.45 38.14 380.55 38.75 383.93 36.81 385.01 35.76 387.47 35.97 386.42 38.18 388.02 38.66 390.45 37.43 390.25 35.83 392.67 35.27 393.54 32.63 395.7 31.91 397.36 31.83 397.4 30.79 399.47 30.63 401.64 29.41 403.65 30.22 403.89 31.06 405.59 31.52 407.37 30.69 408.13 29.44 409.23 30.09 410.46 29.5 412.17 27.36 414.24 28.01 415.89 29.27 417.21 27.7 419.44 27.17 420.19 26.11 420.15 24.52 421.11 24.34 422.19 22.92 421.88 22.08 423.58 21.13 424.51 21.99 426.41 20.65 429.45 20.6 491.59 67.93 513.25 18.09 513.07 2.34 549.1 1 556.86 13.93 565.07 79.74 608.41 92.37 667.53 106.04 735.42 121.73 735.43 118.15 736.72 117.19 739.58 117.48 742.88 121.64 744.07 121.71 748.77 124.06 749.24 129.21 749.98 131.01 751.83 132.84 752.22 134.1 752.65 138.55 754.55 142.45 756.61 144.16 756.97 144.99 759.95 148.05 760.94 150.06 761.93 150.66 763.51 150.6 764.16 152.04 767.02 153.49 768.32 152.09 773.82 154.89 774.88 157.18 775.93 157.77 777.77 161.84 778.47 162.34 780.72 165.4 781.35 167.85 782.5 168.95 782.94 171.38 784.63 174.83 784.18 177.91 784.96 181.3 785.94 182.02 787.79 182.15 791.64 185.66 792.21 191.52 793.5 193.41 797.11 197.35 798.15 197.82 799 199.5 798.73 200.77 Z"/>
</g>
</svg>