<?xml version="1.0"?>
<svg xmlns="http://www.w3.org/2000/svg" version="1.2" baseProfile="tiny" width="800" height="340" viewBox="0 0 800 340" stroke-linecap="round" stroke-linejoin="round">
<g id="4213401">
<path d="M 627.43 10.16 627.89 11.14 627.04 13.1 628.28 13.52 629.96 12.65 630.65 13.9 630.96 15.08 630.12 16.97 628.81 18.95 626.24 19.89 625.73 20.83 625.88 22.16 627.54 23.93 628.75 24.73 629.25 25.48 627.9 26.46 626.86 26.58 625.97 26.25 624.58 26.8 623.97 27.51 624.3 28.4 625.43 29.4 627.44 30.61 628.33 30.54 628.93 29.99 631.76 29.54 632.55 30.23 633.85 29.48 635.22 29.23 635.28 27.44 636.01 25.9 638.15 25.84 638.53 24.67 639.3 25.79 638.81 27.53 638.77 28.73 639.37 32.48 640.35 35.32 640.39 36.8 639.22 40.61 638.13 43.1 638.45 44.51 641.97 45.6 643.24 46.38 645.79 47.09 646.92 47.12 648.52 46.8 649.27 46.98 651.33 50.11 651.38 51.66 651.67 52.36 651.57 53.45 652.15 54.29 652.85 54.53 653.2 55.26 654.3 56.19 656.67 57.04 657.31 56.67 657.68 55.73 659.66 53.05 660.4 51.83 662.07 50.05 662.42 48.71 662.47 46.35 663.3 43.39 663.73 42.52 667.5 40.17 669.33 38.14 670.16 37.53 671.76 36.8 672.23 35.74 675.11 34.63 676.44 34.42 678.42 34.65 679.07 35.24 679.73 36.48 679.52 39.07 680.5 39.82 682.51 39.44 683.06 40.03 683.22 40.99 685.24 42.86 686.11 42.91 687.47 42.19 688.57 43.26 690.33 44.4 690.46 45.76 691.37 46.5 694.68 46.96 695.28 47.55 696.19 49.13 697.32 49.64 698.79 53.28 699.26 54.14 700.17 54.66 701.15 54.35 702.2 54.54 702.47 55.76 703.77 56.25 703.97 56.97 705.12 57.51 707.43 57.85 707.72 56.69 708.28 55.91 708.93 56.17 710.36 58.07 711.01 58.43 711.86 59.55 712.71 60.14 713.41 59.68 713.73 57.8 714.43 56.96 715.28 56.76 716.59 57.13 717.93 57.13 719 56.68 721.02 56.83 721.19 56.24 723.62 54.81 724.71 54.96 725.48 55.42 727.78 55.78 728.39 56.3 731.1 56.83 732.86 58.02 734.36 58.53 736 59.62 736.84 57.92 737.51 57.2 739.46 58.02 739.7 58.58 740.66 59.02 741.73 59.12 742.85 60.75 743.97 61.1 746.51 60.78 747.12 60.17 748.6 60.51 750.24 60.35 751.45 61.01 752.68 60.35 756 62.42 756.85 62.75 759.29 62.14 760.15 62.32 760.85 63.27 761.25 66.14 761.92 67.24 764.36 69.38 766.15 70.22 767.49 70.45 776.47 80.95 799 106.34 798.06 106.84 792.61 108.39 790.83 108.74 788.94 109.32 787.06 110.18 784.34 111.15 783.48 110.87 782.93 109.41 782.94 107.22 781.97 107 779.69 108.26 777.9 107.93 776.98 108.86 775.22 109.16 773 108.99 771.72 110.01 770.07 110.02 768.59 109.55 767.02 109.99 766.23 109.72 763.91 109.81 763.31 110 762.61 111.24 761.67 111.57 760.25 111.58 757.76 113.9 756.45 113.17 755.22 113.86 754.54 114.83 752.56 115.41 751.98 116.9 750.59 117.55 746.19 117.22 745.04 117.53 743.52 117.15 742.6 117.93 742.4 119.38 741.91 120.64 741.31 122.99 742.25 124.09 741.79 124.64 742.79 128 742.71 129.44 741.74 132.29 739.32 134.97 738.6 137.01 736.89 139.42 735.93 140.02 732.96 140.73 732.53 141.36 733.12 142.91 732.89 143.45 731.27 144.37 730.08 145.62 728.22 146.87 725.85 147.66 724.82 147.69 723.89 149.25 723 149.76 722.9 151.17 723.92 152.37 723.17 153.3 721.99 154.21 719.78 152.53 718.15 150.64 717.72 150.41 716.25 150.98 716.69 152.21 717.57 153.19 717.84 154.43 717.87 156.42 718.21 157.69 719.09 159.67 719.61 160.27 719.58 161.26 718.8 162.42 717.97 162.51 715.8 161.61 713.32 159.23 712.67 157.64 711.97 156.8 708.67 155.85 707.43 156.07 706.93 156.81 706.88 158.31 706.22 160.12 706.35 161.26 707.12 161.39 709.57 161.28 710.4 161.55 710.51 162.27 709.44 163.46 708.51 163.55 706.49 163.37 702.92 162.34 700.89 161.39 699.95 160.72 699.6 159.77 700.57 158.35 701.47 156.5 701.7 153.12 701.38 151.94 700.03 151.81 699.24 152.3 697.5 154.31 696.09 155.2 694.79 154.97 693.84 154.36 692.39 152.32 691.79 150.92 691.16 148.07 690.14 146.83 688.13 145.57 687.37 144.75 685.91 143.72 684.84 143.42 683.97 143.5 682.97 144.47 682.06 147.12 682.99 149.55 683.97 150.71 685.17 151.49 683.29 152.43 681.1 151.75 677.69 149.63 676.56 149.04 673.09 148.91 671.49 149.45 670.36 149.35 669.9 148.17 670.4 147.21 672.62 146.39 675.16 146 675.88 145.07 676.58 144.65 677.27 143.25 674.7 142.35 670.96 140.45 668.84 140.45 666.43 141.52 665.83 141.98 664.17 144.75 662.34 146.57 658.49 149.07 656.95 148.62 655.88 147.26 655.58 146.1 655.47 143.8 654.89 141.24 654.04 140.67 652.23 140.48 651 141.44 648.94 141.55 647.76 144.26 647.82 146.63 648.15 147.67 649.66 148.25 650.07 149 649.74 149.84 648.02 151.3 647.7 152.2 648.34 156.41 648.31 157.36 647.91 157.78 645.98 157.76 645.52 158.97 647.28 160.68 648.71 162.99 648.32 164.24 646.53 164.29 644.02 164.03 642.46 164.3 641.08 165.27 640.35 165.47 638.3 165.33 637.85 165.69 636.84 169.56 636.11 169.92 635.26 169.82 634.11 169.12 632.84 167.98 631.47 165.22 631.33 163.5 631.06 162.9 629.14 160.69 627.07 159.76 623.71 158.74 621.6 158.49 620.69 158.62 617.65 159.95 616.14 161.46 614.94 161.97 612.76 162.18 609.91 163.63 609.12 163.74 606.73 163.15 606.17 163.95 606.8 165.07 607.43 167.02 608.74 170.37 609.17 172.07 610.06 173.69 609.7 174.28 603.21 174.09 601.63 174.19 600.69 173.71 599.34 172.1 596.79 171.34 596.17 171.74 596.1 173.75 596.34 174.89 597.03 176.54 596.9 178.37 596.29 179.67 596.77 181.1 597.28 181.69 597.1 182.81 596.08 183.21 593.87 183.03 590.7 181.16 589.74 180.1 589.32 177.51 589.72 174.89 589.66 172.78 589.94 172.17 589.66 171.31 589.01 170.9 584.56 169.62 583.36 168.45 583.66 166.69 584.58 165.14 586.18 164.24 588.02 164.16 589.74 163 590.15 162.32 590.37 159.99 590.32 158.95 589.11 158.36 587.22 159.28 584.09 161.68 582.3 163.21 580.1 164.56 577.88 166.32 576.67 166.06 576.46 164.07 577.2 161.98 578.3 159.71 579.19 158.48 581.06 156.79 580.94 154.9 581.27 152.89 581.84 151.51 581.42 150.33 578.84 149.64 576.08 149.46 573.87 149.78 573.14 151.48 572.26 152.53 570.76 153.69 569.74 153.89 568.79 153.65 566.84 153.77 566.22 154.41 566.45 154.95 567.94 155.73 568.21 156.79 567.19 157.31 563.63 157.34 561.99 157.67 560.97 158.11 559.77 159.3 559.63 160.12 560.86 161.09 563.29 161.67 565.22 161.76 567.72 161.46 568.58 159.59 569.35 159.77 570.85 160.8 571.19 161.3 571.37 163.95 571.61 165.66 571.45 166.52 571.96 167.37 571.9 169.07 570.94 170.57 571.34 171.89 571.21 173.33 570.63 174.81 570.5 176.43 571.22 177.57 571.17 179.33 572.54 182.05 574.1 182.77 574.66 183.8 575.48 184.43 576.56 186.46 576.57 187.82 576.2 188.64 574.96 189.68 573.93 191.21 573.2 193.3 571.94 194.82 569.47 196.49 569.06 197.86 569.42 198.47 570.72 199.68 571.5 201.61 573.23 203.22 573.48 204.24 572.86 205.53 572.85 206.36 573.42 207.4 573.51 208.76 572.69 209.34 571.06 209.34 570.2 209.58 568.34 210.64 566.59 210.95 566.17 211.47 566.17 213.22 566.81 214.58 566.76 217.22 566.95 219.35 567.66 221.53 568.97 223.45 569.44 224.61 568.74 226.4 568.5 228.66 568.93 230.87 568.83 235.86 568.63 236.7 568.56 239.8 568.77 241.71 568.26 243.92 567.81 244.91 566.78 246.44 565.61 247.42 562.61 248.52 559.49 248.94 557.35 249.48 556.21 250.36 555.27 252.08 555.21 254.38 556.18 255.7 558.83 257.19 559.64 257.52 561.42 258.77 561.81 259.88 561.63 260.84 560.86 262.77 561.33 264.38 561.25 266.05 560.57 268.19 559.66 270.01 559.04 272.94 558.24 274.96 557.94 277.19 557.62 278.13 555.49 278.83 554.55 280.11 553.68 283.17 553.16 284.06 552.98 285.19 552.55 286 551.31 285.9 550.3 287.34 551.34 288.91 551.05 289.44 549.69 289.79 549.6 291.32 547.45 290.89 546.43 291.78 545.43 291.29 543.22 289.56 542.55 290.19 541.53 291.68 539.71 293.58 539.49 294.1 539.72 295.61 538.58 295.85 538.43 296.53 539.67 296.35 540.37 296.76 540.19 297.68 538.92 299.01 537.23 301.48 535.18 304.18 534.06 305.34 533.01 305.96 531.2 307.62 529.84 309.67 528.95 310.76 528.63 313.05 528.84 314.26 527.7 315.95 526.45 316.8 525.8 317.94 524.12 318.65 523.71 319.77 522.01 319.41 520.9 319.87 520.43 319.33 521.64 317.53 521.6 316.03 520.58 314.39 520.57 313.35 519.89 312.47 518.25 311.22 516.81 310.73 514.7 310.28 513.8 310.33 512.72 309.16 512.72 308.35 512.12 307.68 510.25 307.71 510.28 306.13 509.1 305.88 508.14 306.79 506.89 306.98 505.3 305.72 504.49 306.22 503.84 305.89 504.41 304.51 504.07 303.89 503.17 303.54 502.17 303.53 500.71 304.99 499.32 304.57 498.27 302.67 497.66 301.16 496.93 300.23 496.09 299.69 496.35 299.02 497.31 298.79 498.7 297.6 499.29 296.55 499.65 295.03 499.37 294.44 497.42 293.44 495.08 293.37 493 292.96 490.46 291.44 489.02 291.39 487.85 290.75 484.5 289.33 482.61 288.36 478.94 287.44 477.92 287.43 477.37 288.07 477.31 291.24 476.84 292.23 476.5 294.59 476.25 295.18 473.35 299.01 472.49 299.87 472.32 300.65 471.61 301.24 470.27 301.76 469.59 301.71 468.35 301.07 466.9 300.83 465.94 301.44 466.02 302.68 467.12 303.82 468.68 304.31 469.38 304.96 468.85 306.41 467.66 307.58 465.37 308.98 463.22 313.75 462.48 314.32 460.76 314.19 458.99 312.91 458.12 311.6 457.28 309.58 456.58 308.68 455.56 307.88 454.87 307.73 452.5 308.87 451.58 309.95 450.57 311.7 449.93 311.72 449.43 310.56 449.62 308.86 449.24 307.04 447.77 305.11 447.04 303.82 446.79 302.02 446.1 300.33 445.2 299.33 444.34 299.13 442.89 299.75 441.64 300.56 440.26 301.89 439.47 302.11 438.68 304.25 437.14 305.35 436.31 305.38 434.24 303.69 431.25 302.85 428.24 300.19 427.87 299.39 428.61 298.08 429.24 297.56 428.72 295.69 428.03 294.89 427.13 295.18 424.4 295.25 422.9 294.99 422.22 295.22 420.08 296.84 418.35 296.75 416.7 295.64 415.62 295.56 413.91 294.76 411.96 294.05 410.22 293.6 408.61 292.96 408.6 291.8 410.18 290.77 410.14 289.61 409.48 289.13 408.03 289.07 406.18 288.66 404.01 289.23 402.02 290.5 399.7 292.49 399.08 292.76 397.88 292.68 393.57 291.22 392.15 290.94 390.62 289.7 390.13 288.84 390.19 288.16 388.22 287.93 387.05 287.61 386.49 287.98 386.46 289.73 387.25 293.58 387.06 294.95 385.76 296.24 382.91 296.25 379.39 296.79 375.54 297.61 373.97 298.07 372.62 299.32 372 301.19 371.79 303.42 371.01 306.17 370.21 307.42 369.41 308.08 368.09 308.63 366.53 308.64 365.46 308.37 361.73 306.39 359.93 305.18 357.06 303.93 355.15 303.67 353.73 303.77 352.36 304.19 351.41 305.01 350.67 306.17 349.3 309 349.24 309.82 348.34 310.63 345.32 311.76 344.14 312.77 343.45 314.67 343.63 315.7 343.44 317.15 342.56 317.97 340.74 317.32 339.82 316.66 337.36 314.14 336.22 314.07 334.92 315.03 334.45 315.71 332.52 317.71 331.8 318.22 330.03 318.32 328.96 317.18 328.54 315.13 327.91 313.98 327.75 312.08 326.95 310.17 325.71 307.91 325.33 307.53 322.68 306.83 320.42 307.08 319.38 306.97 318.49 306.39 317.4 304.44 315.71 303.26 313.26 302.17 311.29 301.01 309.6 300.3 307.81 299.86 306.12 299.83 303.85 302.16 300.47 303.51 300.03 303.96 299.13 305.74 298.19 308.03 297.54 308.75 295.16 309.22 293.39 309.18 289.92 308.4 286.72 307.12 285.33 306.97 282.98 307.79 281.68 308.44 279.94 310.12 279.62 310.82 279.6 312.22 280.83 314.34 281.65 315.45 282.07 316.63 281.62 317.47 280.42 318.33 278.41 318.69 275.89 318.09 273.92 317.91 272.61 317.47 271.76 316.92 271.22 316.13 270.58 313.24 269.95 311.22 269.19 309.69 269.12 308.62 268.37 307.1 265.62 305.04 264.33 304.98 262.98 306.22 262.51 307.46 261.07 309.86 260.32 311.97 260.28 313.84 258.9 314.98 255.32 316.81 253.49 318.14 252.96 318.23 252.33 317.79 252.05 316.41 252.17 314.72 252.04 312.92 251.52 310.71 251.13 308.2 250.15 307.22 249.43 307.04 247.74 307.12 245.29 308.67 244.73 309.26 244.03 310.62 241.19 313.2 240.93 314.26 241.48 315.4 240.42 316.66 239.77 317.87 238.94 318.45 236.71 319.42 235.27 320.54 233.75 320.97 231.23 320.29 230.53 319.57 228.52 317.99 227.93 317.7 225.4 317.32 222.52 317.05 221.83 316.67 221.34 315.86 221.38 315.21 223.82 313.79 224.8 312.88 224.65 311.55 222.29 309.61 220.36 308.99 219.21 309.14 218.87 309.63 218.17 311.93 217.27 313.48 215.79 316.61 214.66 317.11 213.53 317.11 211.03 316.4 207.71 315.2 206.95 315.2 206.43 316.01 207.44 317.57 209.59 320.36 210.01 321.2 210.55 324.28 210.44 325.98 209.99 326.82 208.67 328.29 206.37 330.58 205.12 332.23 203.92 333.24 203.06 333 199.26 328.47 195.14 324.48 192.73 322.86 191.61 322.7 189.52 322.75 187.33 323.21 185.46 323.41 183.25 323.24 181.99 323.72 181.93 325.12 184.13 328.66 184.34 329.47 185.14 330.79 186 332.82 186.94 333.88 187.23 335.19 187.02 336.07 185.53 337.88 184.83 338.42 182.86 339 180.84 338.68 178.52 337.66 176.93 336.45 175.58 336.52 174.98 337.19 174.66 338.18 173.88 338.43 172.84 337.93 171.56 336.46 170.75 336.21 168.73 336.32 167.22 336.62 165.26 337.6 164.13 337.73 163.51 337.3 162.5 335.87 161.24 332.76 160.27 331.01 159.48 328.52 159.04 326.57 158.76 323.62 158.18 322.16 157.12 320.28 156.03 319.07 154.76 316.85 154.39 315.82 154.56 314.44 154.96 313.41 157.01 310.04 157.04 309.21 155.87 308.14 154.61 308.07 152.81 308.99 149.69 311.83 148.78 313.4 148.79 314.83 148.11 316.11 146.64 317.46 144.6 318.33 140.48 319.41 139.73 319.82 139.36 320.56 139.41 321.64 140.03 323.26 139.47 324.24 138.66 324.11 136.42 322.91 135.06 322.35 133.81 322.13 130.75 320.45 129.22 319.34 127.45 317.78 123.53 316.29 120.85 314.1 119.57 314.57 119.34 316.44 118.62 318.17 118.7 319.14 119.36 321.62 118.92 322.96 116.92 323.04 114.73 322.29 113.07 321.37 109.24 320.27 107.36 320.57 104.89 322.03 103.09 323.24 99.08 327.12 97.66 328.31 96.03 328.94 94.39 328.78 94.01 328.17 94.2 327.09 95.07 325.15 96.64 320.61 96.33 319.31 94.92 318.53 92.71 318.61 91.44 319.01 89.15 319.17 86.2 319.56 84.86 319.4 83.46 318.2 83.02 317.47 82.23 314.88 81.45 314.27 80.61 314.26 79.53 314.89 78.31 316.35 77.12 317.45 76.12 318.02 74.09 318.26 72.41 318.01 70.39 317.97 68.77 318.39 66.65 318.51 65.23 318 64.34 316.81 64.1 315.24 63.08 313.62 62.14 313.01 60.38 312.32 58.45 311.92 56.68 311.01 56.34 310.58 56.58 309.26 58.5 306.57 58.27 304.88 57.63 304.32 56.81 302.49 55.35 299.79 54.58 296.87 54.54 295.47 54.13 291.78 53.35 290.44 51.88 290 50.16 290.18 47.99 291.18 46.4 294.05 44.35 295.4 42.73 295.22 39.57 293.33 38.24 292.91 35.14 292.66 32.87 291.69 31.19 289.85 30.24 287.93 31.68 287.68 32.92 286.63 33.74 286.62 33.96 287.57 34.5 288.01 36.69 285.62 36.12 283.16 36.53 281.41 37.08 281.06 38.06 281.25 40.13 281.29 40.7 280.88 41.19 279.8 40.64 278.67 39.04 279.07 38.49 278.87 38.65 278.04 40.18 273.61 40.24 272.03 40.77 271.27 41.93 270.7 44.14 269.98 43.77 269.44 41.64 268.41 41.26 267.35 41.37 266.72 43.07 265.66 42.91 264.68 42.12 263.82 40.1 263.57 39.42 263.2 39.55 261.45 40.22 260.65 40.2 259.57 37.96 258.06 37.82 256.95 39.77 256.97 40.42 256.61 39.6 255.65 39.91 255.09 41.92 254.2 43.74 252.48 44.48 251.08 44.53 249.9 45.53 249.17 45.67 248.68 44.18 247.86 42.26 246.28 41.28 243.46 41.38 241.22 40.63 240.56 41.79 239.09 41.23 238.27 39.68 237.23 39.75 236.48 39.3 235.9 39.64 235.16 38.31 234.72 37 233.83 35.27 233.79 34.13 232.58 32.69 232.89 30.48 231.49 28.13 231.36 26.25 230.53 25.26 230.34 24.12 229.6 23.61 228.59 22.05 228.67 21.62 228.3 21.34 227.19 20.78 226.33 18.87 226.38 16.65 224.87 14.98 224.81 13.14 222.94 11.19 222.27 10.64 221.77 7.88 220 7.1 219.93 5.79 220.28 3.73 220.19 1.59 220.3 1 219.94 29.78 204.25 57.99 188.87 85.43 172.81 89.79 168.81 91.21 167.81 92.49 167.16 98.27 164.63 99.74 164.13 102.41 163.76 104.99 163.9 122.69 166.13 125.67 166.25 126.97 166.12 142.16 164.09 151.79 162.76 153.52 162.64 156.98 162.08 163.49 161.21 166.17 161.74 167.63 162.26 170.6 163.78 175.48 166.14 178.29 167.25 181.56 168.13 180.76 167.39 180.69 166.65 181.08 165.35 181.68 164.23 181.16 161.73 181.94 161.17 181.72 159.61 182.53 158.69 182.81 157.57 183.54 156.48 183.7 155.51 183.43 154.23 183.67 153.3 184.79 152.16 186.71 150.77 188.43 148.6 189.57 147.93 189.75 147.48 191.19 146.98 191.82 146.09 194.47 144.65 196.42 144.11 198.41 142.33 201.69 140.66 251 151.65 267.69 121.94 280.81 98.59 282.72 97.97 284.55 96.79 286.34 94.14 286.54 93.06 287.28 92.08 287.72 90.98 291.57 87.69 293.02 86.16 293.9 84.95 295.2 83.66 295.93 82.31 296.67 82.05 298.66 82.09 300.03 81.61 301.11 80.33 303.03 78.97 305.48 78.67 305.96 78.1 306.21 76.66 304.91 75.56 303.31 73.05 301.15 71.31 300.87 70.69 301.62 67.84 301.33 65.97 301.5 65.17 302.36 64.44 304.47 63.7 306.26 63.26 308.91 61.69 309.74 60.67 309.71 60.22 310.73 58.24 310.83 56.23 310.29 55.38 308.8 54.25 306.45 53.13 303.82 51.65 305.51 49.89 306.67 47.77 306.59 44.52 306.71 41.79 306.58 40.12 306.95 39.66 308.86 38.97 310.43 38.81 312.19 39.03 315.63 39.86 317.61 39.51 318.95 38.88 320.66 38.43 321.45 38.72 321.94 40.16 321.21 42.45 320.72 44.69 320.97 45.65 320.23 46.87 320.13 47.73 320.66 48.59 321.69 49.24 322.79 49.4 324.07 49.08 326.96 49.86 328.86 49.75 329.66 49.52 331.3 48.39 332.05 47.31 332.81 45.42 332.92 44.38 332.27 42.4 334.05 41.44 334.81 43.91 335.43 44.51 337.16 44.63 338.02 44.96 338.9 45.82 340.05 46 342.25 45.02 343.35 44.72 345.12 45.15 346.31 46.21 347.95 46.68 349.09 46.79 354.12 46.18 355.54 45.85 356.3 46.12 358.25 45.65 359.21 45.63 361.51 46.01 362.67 45.94 364.31 46.6 367.31 48.94 368.91 48.98 370.2 49.49 370.94 50.64 373.08 52.39 374.3 52.21 374.13 50.98 372.37 48.08 371.1 46.26 371.12 45.35 371.96 45.03 373.35 45.51 376.42 45.41 376.46 46.3 375.54 46.72 375.61 47.26 376.59 47.51 380.45 47.07 382.82 46.69 385.1 45.74 387.18 42.1 388.39 39.38 389.45 38.26 391.41 38.1 392.7 38.98 393.09 39.85 393.18 41.16 393.61 43.48 393.34 44.39 392.71 44.79 388.35 45.86 387.46 46.38 387.76 47.7 387.71 48.63 386.98 49.33 384.85 50.26 384.68 50.89 385.21 51.77 386.75 52.62 394.14 52.03 397.18 53.11 397.71 53.86 399.88 54.24 402.04 53.07 404.85 49.55 405.72 48.75 406.9 46.78 407.75 46.66 409.32 47.24 411.24 47.72 413.96 48.01 415.24 48.61 418.1 48.6 421.95 49.2 424.32 49.69 424.68 49.94 424.31 51.02 423.65 55.28 424.41 56.31 425.31 56.41 426.48 55.23 428.98 53.43 433.2 53.61 434.13 53.83 434.22 54.37 437.67 56.41 438.67 55.8 438.89 54.14 438.13 52.75 436.16 51.37 434.52 50.89 433.62 50.04 434.45 48.46 434.15 48.05 431.7 47.2 431.06 46.68 431.92 45.29 434.03 43.83 434.42 43.25 434.8 41.77 435.72 41.1 437.84 40.29 438.64 40.38 441.76 41.55 443.33 41.47 442.63 38.15 442.49 35.57 443.46 35.44 444.81 37.6 446.46 39.72 447.55 40.61 448.24 40.8 450.21 43.02 451.38 42.85 451.61 42.18 453.75 38.24 454.51 37.21 456.23 36.97 457.26 37.55 458.48 39.35 459.73 40.01 462.25 37.07 463.14 35.38 463.05 34.29 462.49 33.77 460.76 33.04 460.52 32.41 461.49 31.3 462.88 29.19 463.72 29.34 464.24 30.04 465.54 30.99 466.11 32.48 466.07 34.16 466.33 34.92 467.46 35.59 469.26 34.92 471.3 34.68 471.94 34.13 472.68 32.95 473.97 32.93 475.49 33.4 476.89 34.21 479.27 36.21 481.14 36.49 484.12 36.19 485.77 35.82 487.14 35.18 491.35 31.97 492.48 31.34 494.13 30.98 496.07 30.88 498.13 31.51 500.17 31.27 502.76 28.77 504.1 27.35 506.08 25.92 508.5 26.36 508.98 26.76 512.51 26.76 514.28 26.19 515.81 27.27 520.9 30.01 523.52 30.46 525.09 30.34 525.84 29.59 525.69 28.57 524.99 26.48 524.33 25.73 524.27 24.56 523.88 24.13 522.5 23.53 522.47 22.44 523.08 21.08 523.53 19.25 524.44 18.8 527.23 18.51 528.76 18.73 532.09 18.28 533.42 16.55 534.44 15.53 535.64 15.77 536.67 16.99 537.62 18.52 538.05 21.12 538.82 21.95 539.1 23.44 539.77 23.49 540.74 22.32 541.8 21.67 544.03 21.87 545.89 23.13 547.76 22.8 549.02 22.1 550.18 22.26 551.53 23.6 553.01 23.23 554.92 21.98 556.53 22.22 557.74 22.03 558.23 20.1 557.38 17.68 557.44 15.78 558.64 14.97 558.88 14.42 558.58 13.28 557.47 11.01 557.12 9.5 557.5 6.61 557.12 5.8 555.68 4.76 554.37 4.23 554.73 3.22 554.28 1.99 555.59 1.11 556.84 1 558.58 1.94 559.48 2 560.15 3.14 560.57 4.39 561.46 5.18 562.69 5.9 563.96 7.37 564.18 8.85 564.54 9.72 567.46 11.24 570.2 12.05 570.89 12.06 572.91 12.87 572.87 13.89 571.72 13.66 570.3 13.91 570.1 14.6 571.03 16.16 572.83 16.26 574.51 16.14 575.57 15.4 576.82 15.3 578.6 16.49 580.1 17.98 580.96 18.51 583.46 18.69 586.4 19.51 587.02 18.57 586.19 17.01 586 16.11 586.54 12.7 586.85 11.86 588.96 12.3 589.58 13.14 590.85 13.7 593.69 13.07 593.89 14.49 593.33 16.24 594.3 17.79 596.17 19.02 598.87 18.67 599.33 19.54 598.64 20.76 597.73 21.68 596.14 22.63 596.03 24.02 596.56 24.85 597.86 25.25 599.18 25.92 600.08 25.96 601.15 25.07 601.67 24.1 602.42 23.84 601.85 23.08 603 22.85 604.25 22.07 604.01 21.22 604.15 20.3 605.52 18.59 604.94 17.71 605.72 17.16 605.94 16.04 606.85 15.66 608.68 12.68 608.19 11.25 608.44 10.19 609.75 9.07 611.7 8.58 613.13 10.41 614.54 10.34 615.63 9.9 617.75 9.95 619.86 10.55 622.01 10.79 623.95 10.77 625.68 11.02 627.01 10.09 627.43 10.16 Z"/>
</g>
</svg>