<?xml version="1.0"?>
<svg xmlns="http://www.w3.org/2000/svg" version="1.2" baseProfile="tiny" width="800" height="1460" viewBox="0 0 800 1460" stroke-linecap="round" stroke-linejoin="round">
<g id="4213153">
<path d="M 118.75 19.37 142.98 389.61 586.56 383.42 682.61 380.72 680.19 466.74 686.39 663.25 689 740.57 679.87 746.59 677.97 752.22 663.37 763.18 657.16 770.38 651.94 773.94 649.8 781.84 636.61 790.5 633.79 795.94 638.65 804.64 647.97 810 650.43 821.21 655.4 831.44 654.59 837.24 657.93 851.73 660.93 857.5 660.85 864.33 656.87 870.08 647.79 871.01 649.63 876.82 658.62 876.71 665.68 888.49 662.35 900.06 666.77 907.62 661.45 916.39 657.27 919.84 657.17 923.82 661.2 930.21 641.91 932.94 639.95 938.52 646.73 946.88 647.47 957.82 643.48 965.53 633.8 979.58 637.26 983.06 651.15 981.61 656.84 982.47 672.83 994.71 688.12 1005.26 692.79 1011.72 696.39 1020.1 696.82 1025.25 693.63 1031.22 694.2 1036.4 701.32 1037.1 716.38 1048.35 717.38 1064.08 715.9 1072.45 718.75 1081.64 716.67 1092.7 717.84 1098.57 721.94 1106.49 720.46 1113.18 709.13 1123.54 713.05 1126.96 725.52 1128.58 730.04 1127.8 736.45 1131.38 739.86 1141.79 738.77 1151.26 727.13 1153.71 726.88 1164.61 730.7 1182.87 738.63 1193.09 743.2 1195.01 745.34 1187.75 757.53 1192.95 761.67 1207.32 759.86 1226.94 758.25 1230.63 752.89 1231.45 740.44 1236.36 746.55 1250.31 748.49 1259.67 753.3 1262.96 752.67 1271.14 755.57 1280.53 759.98 1283.48 756.27 1291.98 767.86 1306.75 764.51 1324.78 757.96 1333.97 757.43 1351.61 759.46 1356.1 773.87 1364.44 786.89 1373.77 795.99 1377.52 799 1398.25 794.15 1401.46 790.79 1399.04 780.45 1408.09 761.14 1412.37 753.65 1411.62 737.66 1406.44 731.14 1408.71 730.08 1417.56 736.37 1428.67 741.37 1433.46 741.55 1437.21 735.01 1442.79 730.87 1443.71 717.94 1441.82 689.31 1427.87 677.79 1417.9 668.09 1415.89 647.11 1428.55 641.62 1433.47 634.74 1433.38 622.54 1442.03 618.17 1440.65 607.81 1427.85 600.81 1413.04 598.13 1412.37 591.47 1418.45 577.4 1436.96 559.74 1459 549.98 1452.37 546.61 1442.8 531.47 1443.68 525.27 1440.44 522.14 1429.53 522.17 1422.23 519.1 1413.23 515.53 1409.71 508.99 1409.49 505.34 1402.82 492.96 1393.65 486.41 1385.44 470.11 1382.26 464.73 1374.95 465.02 1363.89 467.05 1357.92 466.84 1347.47 460.1 1343.22 252.88 1235.82 234.48 1224.9 218.97 1217.47 205.3 1209.88 197.52 1202.24 171.33 1187.04 155.71 1179.73 146.34 1178.35 137.11 1180.4 127.56 1178.18 125.52 1180.07 103.46 1187.59 92.65 1183.17 87.74 1178.76 72.65 1182.33 64.63 981.1 63.22 964.27 90.16 964.57 66.79 746.88 54.67 625.08 47.12 541.18 33.55 379.73 22.3 271.72 12.67 141.63 10.06 115.97 1 1 15.19 13.03 36.37 26.24 52.82 34.13 75.95 37.48 92.58 34.99 101.6 29.04 115.81 22.64 118.75 19.37 Z"/>
</g>
</svg>