<?xml version="1.0"?>
<svg xmlns="http://www.w3.org/2000/svg" version="1.2" baseProfile="tiny" width="800" height="357" viewBox="0 0 800 357" stroke-linecap="round" stroke-linejoin="round">
<g id="4213005">
<path d="M 605.46 50.73 607.79 49.21 611.23 48.56 615.45 44.55 615.58 41.81 613.05 40.1 610.08 40.68 609.67 35.82 612.25 34.51 668.31 71.42 691.07 123.4 752.04 262.56 799 353.16 792.79 352.89 788.22 354.24 786.21 356 782.84 355.82 779.27 353.42 771.23 351.4 768.93 349.23 763.5 345.54 759.8 342.23 759.98 338.6 757.85 335.34 753.41 335.9 743.35 340.2 736.47 340.95 729.49 342.58 725.88 344.19 721.74 335.39 721.45 329.07 716.83 322.64 713.04 316.33 568.22 298.51 568.66 275.69 519.15 274.68 520.4 248.11 368.33 228.08 367.75 232.64 365.6 242.21 359.71 250.68 356.55 252.82 351.75 252.8 349.26 250.95 344.92 244.93 342.48 238.81 340.79 231.98 340.23 227.87 336.99 223.21 332.84 219.63 328.25 218.08 324.58 218 320.45 219.8 309.26 223.78 301.7 224.91 294.69 225.53 288.55 226.83 282.14 228.72 276.15 232.71 270.18 233.5 258.52 232.78 250.8 232.83 246.3 234.77 242.36 237.27 236.58 239.06 231.43 241.52 227.38 238.23 221.45 231.29 217.31 227.82 212.37 222.48 207.31 218.74 200.89 215.58 196.24 214.01 192.39 214.14 189.92 210.05 186.12 206.75 181.94 205.37 176.75 205.46 168.14 203.33 167.99 196.19 166.3 160.47 142.17 160.9 141.97 148.47 138.22 157.24 136.21 160.16 135.09 164.04 132.83 166.53 127 171.16 122.09 173.13 115.57 177.72 112.65 178.54 105.93 178.43 100.49 179.32 97.39 182.65 94.15 193.78 1 127.71 1.62 1 73.14 16.5 286.47 62.74 345.38 75.51 428.96 70.25 428.03 68.83 425.09 60.4 426.02 57.11 432.39 48.05 436.18 45.92 439.33 45.63 448.99 46.44 456.63 45.99 462.29 47.63 475.38 55.56 479.75 57.15 493.21 57.31 499.79 55.78 512.2 54.03 519 54.18 525.14 51.97 528.19 48.95 529.58 44.93 527.8 40.65 525.67 38.86 511.83 29.28 507.22 20.93 507.72 15.39 512.85 9.41 516.51 7.91 528.58 7.3 533.56 8.28 539.7 11.8 545.17 16.64 550.02 25.03 554.22 29.42 557.32 34.44 564.59 43.25 571.88 47.49 577.2 52.5 581.76 59.14 584.09 61.03 590.68 64.6 593.18 65.46 598.31 65.44 601.35 62.63 604.39 57.61 605.46 54.13 605.46 50.73 Z"/>
</g>
</svg>