<?xml version="1.0"?>
<svg xmlns="http://www.w3.org/2000/svg" version="1.2" baseProfile="tiny" width="800" height="563" viewBox="0 0 800 563" stroke-linecap="round" stroke-linejoin="round">
<g id="4213302">
<path d="M 696.24 10.15 702.27 12.67 705.95 13.72 705.06 15.46 704.14 15.64 704.94 16.73 706.58 16.97 709.39 17.86 708.65 19.85 710.48 22.55 712.35 23.51 713.31 23.03 715.68 21.3 715.9 22.08 715.26 22.9 715.62 24.35 716.65 24.54 716.96 25.94 719.39 26.22 721.98 25.97 721.35 27.42 722.75 28.82 722.98 29.94 723.69 30.85 725.44 31.79 726.17 31.44 726.97 32.08 726.53 33.89 728.84 34.49 728.47 36.37 729.11 36.61 730.03 37.72 731.13 38.13 733.66 38.1 734.3 38.65 731.93 39.29 730.89 40.22 731.76 41.64 732.77 41.86 734.02 41.43 734.57 42.26 734.95 44.34 734.49 45.19 735.81 45.42 737.66 45.37 737.4 46.8 738.16 46.68 739.35 45.37 740.3 45.67 739.7 48.31 738.93 49.45 739.49 49.96 742.33 48.37 743.37 46.91 744.54 47.33 744.08 48.68 745.48 48.62 745.87 47.33 746.89 47.44 747.45 48.55 745.24 50.92 745.37 51.73 746.3 51.98 747.24 49.97 748.57 48.73 749.62 46.9 750.19 47.27 749.1 49.83 750.14 50.29 750.8 51.34 750.03 52.89 751.51 52.19 752.45 50.71 752.88 51.46 751.99 52.73 752.59 53.48 752.6 54.52 753.82 55.82 752.6 56.39 754.87 56.81 754.76 55.87 755.5 54.13 757.23 54.61 756.73 53.55 758.06 52.25 759.28 52.59 759.16 54.61 761.27 54.45 762.94 55.13 763.8 55.2 764.56 56.88 765.46 56.11 765.71 55.29 767.63 54.54 768.24 54.86 767.93 56.43 770.25 55.69 772.17 54.6 772.46 53.12 773.5 54.14 774.9 54.23 776.69 54.7 775.76 56.05 775.33 57.83 774.72 58.29 773.15 60.44 771.59 61.73 772.55 62.43 773.85 62.08 777.24 63.38 778.64 64.82 779.99 62.73 781.67 62.45 781.97 64.21 782.58 64.92 785.36 66.52 785.95 66.62 788.53 63.3 789.77 61.3 790.85 61.84 790.15 62.94 789.51 64.86 789.5 66.35 789.87 67.18 791.08 68.2 792.63 68.83 793.75 70.01 794.61 68.77 797.79 69.21 799 69.04 777.8 75.05 776.18 74.79 774.69 76.28 773.86 77.46 773.78 78.42 774.82 81.07 774.87 82.56 774.5 84.46 775.75 84.73 775.77 85.99 775.06 87.94 775.1 89.3 774.62 90.72 773.6 90.92 772.39 92.1 772.5 93.54 771.35 93.75 771.72 96.26 772.2 96.72 772.3 98.6 773.45 98.99 773.44 100.22 772.01 102.51 772.28 105.37 772.83 106.91 772.72 110.02 771.49 110.51 771.98 111.72 771.24 113.73 771.37 116.3 770.77 117.05 769.89 116.02 770.15 114.58 769.69 113.89 767.8 113.11 767.47 113.69 768.24 115.21 767.48 115.54 766.72 115.07 765.91 113.1 764.79 112.57 763.44 112.88 764.28 114.81 763.89 115.74 762.94 115.67 761.87 115.04 761.13 112.62 761.12 111.06 760.04 110.23 761 109.39 760.55 108.77 759.26 108.9 758.76 106.92 756.99 106.97 756.14 107.81 757.29 109.63 755.83 111.47 754.47 110.35 754.55 111.59 753.28 112.3 750.6 111.35 749.54 111.21 749.27 111.93 750.32 113.66 751.11 115.68 752.06 116 753 117.02 752.49 118.44 752.68 119.25 754.04 118.81 754.58 119.38 754.11 120.34 750.79 122.4 751.33 122.93 753.18 123.33 755.79 123.56 756.12 124.4 755.31 125.45 753.72 124.58 752.99 124.51 752.76 125.65 754.04 126.89 751.31 127.21 749.85 128.03 748.46 127.35 746.5 129.59 745.95 130.72 745.62 132.24 745.9 133.26 746.73 133.62 748.99 133.69 749.11 134.17 746.4 135.2 747.2 137.57 746.47 137.82 744.03 136.12 743.45 134.38 740.55 134.17 740.88 135.13 743.1 135.61 742.85 136.12 741.46 136.56 739.89 136.16 737.91 132.82 735.95 133.2 733.29 134.82 732.34 135.63 731.94 136.78 732.44 139.56 732.19 139.89 730.18 139.86 729 140.52 728.33 140.27 728.51 139.15 727.27 138.26 726.73 138.75 726.96 139.62 729.04 141.54 730.62 142.45 730.44 144.27 731.83 144.91 732.7 145.94 732.55 147.29 731.73 147.44 728.92 146.65 728.83 147.74 730.04 149.84 730.31 151.05 729.18 151.77 728.05 148.92 727.24 148.17 726.05 148.95 726.33 151.31 727.29 153.45 726.08 154.14 726.34 155.16 725.78 155.65 724.79 154.36 724.94 153.24 724.6 152.23 722.66 152.22 721.55 150.55 720.36 150.95 718.55 149.95 717.7 150.7 715.81 151.43 717.12 153.15 715.59 153.29 715.22 152.18 713.65 151.45 712.34 151.52 711.2 152 711.22 152.85 708.95 153.52 707.99 153.01 707.08 153.49 706.5 154.47 705.3 154.88 706.14 155.76 703.88 156.8 702.29 156.02 701.11 157.02 700.02 158.85 701.14 160.82 700.38 162.87 701.49 163.93 701.83 164.79 701.21 166.94 701.46 169.75 702.1 170.15 700.83 171.1 702.64 171.43 703.9 172.04 703.38 173.31 702.34 173.92 703.26 174.89 703.27 175.91 700.64 176.18 700 175.93 700.24 174.77 696.14 174.21 694.95 174.39 694.28 175.01 693.22 176.95 689.92 180.18 687.14 180.26 686.74 181.91 684.19 181.19 682.5 178.88 681.2 179.04 678.76 181.35 678.82 182.09 681.55 181.42 682.11 182.39 681.49 183.45 679.41 183.24 683.21 188.74 683.06 189.17 681.37 190.71 681.53 191.64 682.42 193.18 680.27 192.63 674.88 192.91 674.4 194.04 675.81 194.69 679.15 194.99 679.7 196.22 678.5 197.51 675.77 197.53 671.78 196.54 670.61 197.52 670.88 199.36 671.37 200.07 673.54 199.68 675.68 199.74 676.6 202.92 674.73 206.15 677.17 208.34 678.79 210.93 676.35 211.43 674.79 211.04 673.18 210.18 671.45 208.86 668.69 208.19 666.79 207.38 665.58 209.54 665.93 210.96 666.17 213.9 667.45 214.68 666.15 215.23 666.22 215.9 667.45 216.82 666.9 217.52 665.55 217 665.08 217.81 666.11 218.34 668.06 218.21 667.79 219.02 666.29 219.52 665.1 220.33 664 220.26 664.56 221.44 664.93 223.03 664.2 227.6 664.43 229.41 663.4 230.86 663.58 231.34 667.49 235.01 667.24 237.84 666.54 238.08 665.58 237.48 664.18 238.4 664.25 239.28 666.42 240.05 669.1 240.18 668.91 240.87 664.56 242.46 664.48 243.64 665.61 243.95 665.83 244.79 664.72 245.39 664.48 246.15 665.91 247.37 665.11 248.36 664.28 248.7 662.4 247.68 661.64 246.88 660.57 247.84 661.04 249.48 661.66 250.22 665.8 253.19 666.94 255.19 666.5 255.74 663.41 256.27 660.82 255.88 657.28 253.79 656.62 251.91 655.07 252.53 655.28 253.41 656.65 255.33 658.32 257.19 658.62 257.94 657.86 258.36 656.7 257.97 654.55 256.18 653.55 254.84 652.66 254.74 651.52 255.6 650.46 257.89 650.51 259.28 649.94 260.81 650.48 262.09 654.75 263.39 655.93 264.07 655.87 264.82 654.45 265.2 651.9 264.98 650.64 264.43 649.19 263.26 648.43 263.56 646.22 265.76 645.53 266.97 644.87 267.18 644.07 265.74 643.25 265.57 642.63 267.57 642.98 268.47 644.77 271.01 643.91 272.45 644.99 273.43 646.01 273.39 648.18 272.74 650.57 271.05 651.22 271.97 649.95 273.11 650.87 273.8 653.74 274.04 655.67 273.62 656.21 274.63 656.59 277.02 656.57 278.13 656 278.72 652.68 278.53 649.82 277.13 649.17 274.82 648.22 275.06 647.89 276.14 647.4 279.15 646.98 279.75 643.86 279.98 644.25 280.97 645.21 281.93 648.15 283.36 650.71 283.97 650.05 285.98 649.18 286.35 645.01 284.73 644.07 284.02 642.62 285.71 642.11 286.84 642.45 287.64 645.22 289.67 646.37 290.08 646.47 291.23 648.03 292.36 648.26 293.11 646 294.38 642.98 293.37 641.45 293.25 641.52 294.28 642.4 295.44 642.39 296.1 640.52 296.28 638.45 295.96 638.12 296.48 638.82 299.04 641.5 299.15 643.05 300.1 644.74 300.37 643.41 304.15 641.02 307.18 640.05 306.92 638.62 304.53 636.87 302.26 635.54 301.68 633.95 302.32 633.77 302.96 635.22 304.4 634.35 305.69 634.31 306.5 635.93 308.04 636.07 309.98 634.93 311.24 633.38 312.33 632.25 312.71 630.3 311.73 628.03 309.98 626.54 309.77 624.23 311.34 624.08 311.96 625.45 312.26 627.08 312.11 628.27 312.54 628.23 313.97 625.79 315.19 622.92 315.83 622.69 316.52 624.01 317.11 628.19 317.75 628.59 318.23 628.45 320.36 628.99 321.4 630.64 322.82 630.58 323.59 628.39 324.63 628.27 325.62 629.11 326.66 631.02 328.3 629.84 329.37 625.56 327.83 623.89 326.46 623.24 323.14 622.08 322.93 621.36 324.1 621.39 325.08 622 328.16 622.98 330.94 623.61 332.21 623.54 333.66 621.61 335.12 620.9 334.82 619.64 333.48 618.51 331.85 617.2 328.79 616.74 328.43 615.65 329.2 613.64 331.73 612.26 332.68 609.56 332.9 608.2 335.97 609.05 336.47 612.25 336.43 612.95 337.27 612.2 338.26 610.78 339.05 609.47 339.12 608.3 338.04 607.36 338.41 605.76 341.22 605.23 343.14 605.26 344.32 605.81 344.95 607.92 344.99 611.33 343.97 612.88 344.71 613.06 345.66 612.04 347.58 610.27 349.4 609.7 349.68 607.99 349.51 607.09 349.14 605.51 347.86 603.69 344.44 602.55 343.33 600.84 342.29 599.04 340.22 598.32 338.32 597.72 337.71 595.98 337.9 592.11 333.36 589.85 330.31 588.61 329.24 587.14 328.84 586.22 329.01 584.68 329.89 583.24 332.19 582.49 334.12 581.73 337.36 581.14 339.17 579.86 345.35 579.68 346.91 580.22 351.3 580.78 353.28 582.27 357.14 582.33 358.4 581.42 360.41 579.88 362.04 576.43 363.72 573.46 364.8 571.39 364.6 569 364.02 566.19 363.71 562.59 363.71 558.91 363.13 556.63 361.88 554.72 360.34 551.57 357.28 549.26 355.64 546.38 354.62 542.98 354.52 541.15 354.95 539 355.71 538.1 356.3 537.06 358.14 536.77 360.5 536.09 362.29 533.96 364.55 531.74 366.34 530.12 367.92 528.36 369.92 527.06 371.75 524.09 374.69 522.25 376.69 516.87 380.55 515.62 381.66 514.16 383.65 512.45 387.18 512.32 388.36 512.87 390.95 514.8 394.81 518.9 401.1 519.93 403.16 520.71 405.93 520.77 408.5 519.96 409.64 518.18 410.7 514.76 411.17 509.16 412.39 505.51 412.39 504.23 412.18 499.93 410.54 498.18 409.62 495.74 407.73 494.65 406.61 493.4 404.61 490.99 401.73 488.3 399.6 486.52 398.96 478.55 396.95 474.79 395.41 473.83 394.3 473.02 392.18 471.8 387.86 471.31 385.69 471.22 384.16 471.6 380.88 471.76 377.26 471.25 374.76 468.73 369.74 467.49 365.03 467.06 362.28 466.15 358.99 465.5 357.22 464.8 356.04 463.77 354.98 461.56 353.19 455.55 348.91 452.39 346.85 449.86 345.39 446.53 343.73 445.15 342.88 443.66 341.5 442.3 339.34 440.66 337.86 438.32 337.22 436.37 337.93 434.95 339.4 434.41 342.16 433.95 346.05 433.9 348.16 434.14 349.93 435.03 353.65 435.03 355.94 434.44 358.23 433.16 362.28 432.05 366.46 431.53 367.84 430.07 369.62 427.11 371.45 424.41 373.58 423.52 375.11 422.37 376.23 421.22 376.88 417.98 378.33 416.02 379.42 414.57 380.56 413.53 381.82 411.44 385.5 409.88 387.76 409.14 390.26 408.56 395.4 407.81 398.67 407.34 400.05 405.51 403.09 405.01 404.78 405.36 406.67 407.51 409.06 408.66 410.01 410.66 411.04 412.2 412.15 414.61 414.56 418.88 419.61 420.02 421.08 421.88 422.79 423.06 424.61 424.15 426.84 424.82 429.12 424.84 430.17 424.28 432.57 422.75 433.77 417.82 434.69 415.81 435.53 414.08 435.54 412.5 434.21 410.85 433.3 407.72 433.56 404.74 432.44 403.33 432.23 401.64 432.3 398.4 433.4 395.02 434.87 391.42 435.99 388.56 437.1 386.54 437.57 384.52 437.6 382.82 437.34 380.65 436.68 378.21 435.16 376.54 433.33 375.22 432.36 374.23 432.62 371.92 434.61 370.88 436.95 370.69 441.52 369.31 446.71 369.33 448.04 370.14 450.65 371.52 452.7 375.03 458.59 380.97 464.54 383.77 468.39 386.12 471.98 387.9 473.39 393.88 474.5 398.36 475.79 405.22 478.38 407.39 479.4 414.03 482.84 419.83 484.63 421.51 485.3 426.56 488.25 428.45 489.72 430.7 491.82 432.93 494.38 436.24 498.82 438.9 502.02 440.27 503.9 441.28 505.63 443.67 511.37 444.07 513.14 444.06 514.47 442.57 515.55 440.68 515.9 438.22 514.14 436.47 513.52 435.51 513.47 430.56 514.61 429.45 514.67 426.95 513.84 424.4 512.28 417.96 507.35 416.3 505.82 412.9 502.16 409.48 499.39 402.56 494.7 396.37 490.69 392.6 488.83 384.99 486.08 382.05 485.24 377.61 484.99 376.23 485.15 373.73 485.84 369.4 487.3 366.63 488.6 363.04 490.81 359.46 492.47 355.3 494.19 352.02 495.34 347.38 497.29 341.48 497.94 339.06 497.83 337.71 497.58 335.87 496.78 331.02 492.7 328.53 491.64 325.33 491.26 322.96 491.35 321.15 491.76 319.39 492.55 317.01 493.9 312.35 497.28 306.41 498.7 301.42 500.13 298.14 501.18 294.5 502.82 291.84 504.54 290.39 505.93 288.18 509.26 286.74 510.93 285.71 511.68 283.06 512.73 280.41 512.94 276.57 512.98 274.2 513.17 272.48 513.57 268.77 514.79 266.15 515.8 262.3 517.67 258.72 518.82 256 518.73 254.51 518.22 253 517.11 248.99 512.71 246.9 510.95 245.38 510.64 243.95 510.96 242.59 511.79 240.49 513.47 234.2 519.55 232.88 521.48 231.69 524.67 229.97 527.9 229.48 529.82 230.44 531.42 232.08 532.48 236.12 534.62 237.59 535.67 239.5 537.36 240.67 538.91 240.97 541.09 240.54 542.61 239.91 543.6 238.8 544.59 236.58 546.99 233.11 550.96 231.52 553.19 229.51 556.7 227.11 560.17 225.78 561.18 223.98 561.87 221.98 562 220.84 561.8 218.09 560.79 217.05 559.86 215.65 559.75 211.97 559.95 209.88 559.22 209.79 558.42 210.41 555.73 210.88 554.56 213.09 552.21 213.72 551.07 214.18 548.33 213.62 546.09 212.67 544.91 210.51 543.29 209.22 542.89 204.6 543.15 202.45 543.92 201.85 544.59 201.47 547 200.71 549.45 199.79 550.75 197.63 552.05 195.3 552.38 191.6 551.4 187.79 550.62 185.22 549.33 180.93 547.78 177.03 546.05 173.26 543.64 169.8 540.25 168.08 538.82 165.28 536.9 163.97 536.38 160.67 535.88 157.83 534.68 157.42 533.18 158.43 531.62 159.76 531.01 160.82 530.93 163.72 531.44 165.84 532.66 170.85 535 172.48 535.67 175.05 536.12 180.76 535.1 183.32 534.19 185.68 533.16 187.9 531.81 188.54 531.05 189.16 527.48 189.71 526.38 192.11 523.62 195.93 519.72 196.8 518.64 198.28 516.25 200.96 510.66 201.4 509.28 201.35 507.31 200.65 505.36 198.59 502.58 197.77 501.78 194.69 501.05 193.57 500.34 192.39 498.82 192.52 497.14 193.52 495.67 194.08 494.02 193.88 491.61 194.26 489.53 195.98 488.77 198.68 488.68 201.87 488.1 204.44 486.92 206.77 485.58 210.95 482.08 211.67 481.32 215.69 476.47 218.15 472.55 219.2 470.28 219.45 469.29 219.38 467.3 218.37 460.83 218.28 457.09 218.9 454.98 219.76 453.37 222.4 449.47 223.62 447.38 224.45 445.51 224.52 444.54 224.02 443.57 222.06 441.64 220.84 440.92 218.96 440.47 212.12 440.89 210.26 440.85 208.37 440.51 206.32 439.25 205.62 438.27 205.48 437.24 206.18 435.49 208.05 432.57 209.09 430.15 209.73 428.05 209.83 426.55 209.4 425.03 208.51 423.87 205.5 421.01 202.23 418.83 199.77 417.44 195.14 415.77 192.98 414.2 192.07 412.92 188.46 405.52 186.66 403.3 183.32 400.42 179.21 397.49 175.76 394.83 174.31 394.05 171.99 393.49 170.16 393.47 166.6 393.94 164.5 394.52 159.81 396.07 155 397.47 149.85 398.54 145.54 398.86 142.76 399.61 140.17 401.26 139.02 402.85 138.54 404.05 137.81 407.51 136.59 410.39 135.83 411.15 134.45 411.63 133.08 411.39 131.56 409.56 130.54 407.57 127.82 400.57 126.29 398.87 123.91 396.86 121.48 395.29 120.07 394.75 118.54 394.57 116.88 394.74 113.61 395.77 112.38 396.46 111.55 397.5 109.43 402.62 108.8 403.7 107.64 404.68 105.78 405.06 104.32 405.04 103.11 404.7 101.9 403.7 99.77 402.36 96.78 401.23 93.6 400.34 90.91 399.85 87.86 399.56 86.79 399.95 85.47 402.81 82.78 406.54 78.3 411.32 77.83 412.5 79 415.95 80.58 419.41 81.76 421.69 82.91 424.74 84 428.61 85.89 433.21 86.29 434.73 86.59 439.13 86.26 440.05 84.21 442.08 82.98 442.53 81.45 442.25 79.58 440.45 77.59 438.12 75.92 435 74.38 433.26 71.23 431.94 68.72 431.47 67.65 430.96 65.14 429.16 62.81 426.33 60.3 423.71 57.55 421.56 53.04 418.81 49.82 416.58 47.52 415.69 42.73 414.65 39.39 414.34 34.29 413.06 31.52 412.18 28.13 411.67 26.72 411.82 25.29 412.78 24.43 415.23 24.28 416.46 22.59 418.83 20.24 419.94 17.88 420.19 14.43 421.29 10.03 422.23 5.95 422.37 3.65 422.01 1.69 421.05 1.72 419.91 1.26 417.55 1 414.65 1.41 412.31 2.01 411.25 2.8 408.94 3.53 407.89 4.99 406.87 8.38 406.51 12.81 405.16 16.59 403.5 17.98 403.04 20.49 402.85 22.82 403.13 24.59 403.59 28.12 403.82 30.1 403.79 34.07 403.42 37.53 403.28 41.07 402.92 43.07 402.16 44.7 401.22 46.63 399.3 47.58 396.93 47.88 394.14 47.87 392.57 47.46 390.42 46.4 386.69 45.04 384.77 42.54 382.55 41.32 382.11 38.93 381.86 37.21 381.28 34.91 380.18 32.23 378.2 28.33 376.55 25.83 375.95 22.67 375.67 20.81 375.22 18.98 373.69 16.15 371.81 15.1 370.7 15.62 369.25 15.66 367.8 16.28 366.26 16.31 365.33 15.82 364.15 14.52 363.23 13.46 362.88 13.76 360.79 14.29 359.18 14.41 355.76 15.09 355.14 16.4 355.12 17.16 354.41 17 351.49 17.33 350.64 18.85 349.97 20.87 349.55 21.4 348.34 21.24 346.74 21.93 344.27 21.54 339.8 21.64 339.26 23.66 337.23 26.46 338.61 27.3 338.41 28.86 337.06 30.75 336.04 32.17 335.96 33.12 335.5 33.48 334.49 32.76 333.33 32.23 331.25 31.79 328.25 31.05 327.54 30.14 327.35 28.84 327.85 27.96 326.58 27.35 324.58 26.89 324.16 25.33 323.83 23.84 322.65 22.63 320.28 21.28 319.15 18.92 318.08 18.48 317.21 17.75 316.96 14.2 318.04 13.17 318.21 12.74 317.7 12.67 316.47 12.96 313.41 13.52 312.32 15.69 310.69 17.25 309.8 18.21 307.35 18.72 307.21 20.96 308.65 20.51 307.47 20.81 306.74 22.32 307.16 22.81 308.65 23.98 308.24 24.23 306.4 23.93 305.42 23.12 304.74 24.77 303.09 25.63 303.67 26.7 302.76 25.71 302.33 25.66 300.92 25.26 299.86 26.69 299.99 26.57 298.86 24.76 298.96 24.97 296.1 25.51 295.01 27.11 295.06 29.54 294.17 28.54 293.5 27.53 293.65 27.57 290.98 28.4 290.37 29.53 290.55 29.94 290.07 29.19 288.68 29.14 287.19 30.92 287.24 31.55 286.7 31.29 285.45 32.66 285.79 32.9 284.14 32.65 283.07 31.98 283.12 30.82 284.22 29.08 283.35 28.99 282.41 30.51 282.04 30.9 280.69 29.79 279.67 29.58 280.76 25.67 280.2 24.96 279.39 25.82 278.74 27.44 278.65 26.63 276.76 27.36 275.51 26.26 274.14 26.92 273.26 25.72 272.92 26.34 271.45 26.35 270.38 25.68 267.54 25.91 265.15 25.03 261.44 24.73 260.83 24.7 259.09 23.95 257.93 23.67 255.6 21.96 254.31 20.51 252.71 18.17 251.81 17.09 252.17 15.79 256 14.41 256.93 13.94 258.61 14.18 259.62 13.86 260.49 12.33 260.16 11.51 261.12 13.05 262.03 12.8 263.03 10.58 262.71 10.12 261.67 8.78 259.77 8.45 258.22 7.34 255.29 7.99 252.45 10.66 249.25 9.8 248.1 9.78 247.47 11.12 246.16 12.85 245.71 14.24 245.74 15.07 244.67 15.89 244.27 17.4 244.21 18.89 243.6 26.58 239.63 25.88 237.58 25.13 236.54 27.26 236.86 28.69 235.39 27.26 235.45 26.85 234.28 27.64 232.69 26.14 231.42 27.01 230.31 28.36 230.54 28.57 229.5 27.15 228.93 26.59 227.82 28.55 227.88 27.94 226.47 28.42 225.38 29.36 225.6 29.94 224.25 31.71 223.95 33.16 224.62 34.36 224.13 34.72 222.81 36.59 223 36.48 221.76 37.84 221.3 36.84 220.56 35.72 220.94 35.75 219.77 37.24 219.19 37.73 217.65 36.73 217.19 35 217.57 35.28 216.78 36.84 216.83 37.12 216.44 35.78 214.53 36.39 214.04 37.67 215.24 38.34 215.09 38.05 211.34 38.84 210.18 40.99 208.17 41.01 207.19 41.78 206.3 43.07 205.73 45.56 203.95 46.46 202.7 49.68 200.73 49.92 200.17 51.05 199.66 50.24 198.82 51.21 198.19 51.35 196.62 49.66 196.56 50.26 195.55 49.93 193.24 50.85 192.8 51.73 194.16 53.06 192.89 55.25 192.53 55.59 191.49 55.04 190.02 57.65 190.2 57.53 187.58 59.38 186.88 59.42 187.66 60.84 187.47 60.94 186.09 62.25 186.13 62.3 184.67 62.9 184.53 63.34 185.85 64.45 186.38 64.57 184.67 67.53 185.27 65.68 186.82 65.72 187.74 66.49 188.15 67.84 187.85 69.95 188.86 70.93 190.04 73.26 190.72 74.91 190.05 77.76 189.9 78.4 187.95 79.28 187.93 80.38 189.12 81.35 188.61 81.58 187.08 82.21 186.91 84.22 187.77 84.93 186.97 84.21 186.47 83.98 185.25 85.85 184.42 86.05 183.01 86.71 183.1 86.74 184.6 87.25 184.7 88.19 183.63 88.17 182.93 87.01 182.35 87.08 180.72 86.29 180.78 86.08 179.54 87.43 180.01 88.24 179.67 87.97 178.89 86.69 178.33 86.32 177.36 90.9 176.56 92.05 175.08 93.66 175.44 95.26 173.87 95.12 172.59 96.14 172.39 98.12 173.09 98.93 171.77 99.74 172.26 99.85 173.13 101.15 173.04 100.6 171.53 100.85 170.9 102.02 171.49 104.01 170.1 104.77 171.6 104.99 173.18 107.1 174.44 108.25 173.46 108.8 174.38 110.13 174.26 110.11 176.02 111.3 177.2 111.88 176.52 114.15 177.64 115.32 177.7 115.88 178.65 117.52 180.02 119.62 181.1 118.92 182.52 120.29 183.12 121.5 182.96 124.18 183.75 124.47 184.04 124.05 186.09 124.22 187.17 126.62 185.24 127.98 185.05 129.69 184.31 131.52 185.97 133.53 185.18 134.85 185.08 135.8 183.87 137.81 183.13 139.75 184.03 141.79 184.32 145.57 184.03 147.5 184.51 148.17 182.15 149.51 182.23 151 182.68 152.68 180.77 154.38 179.7 155.2 180.52 156.97 180.84 157.56 181.51 159.57 181.33 159.93 179.48 160.27 179.25 162.96 179.3 165.87 178.82 167.4 178.83 170.03 178.28 171.4 176.48 172.44 177.2 173.5 177.15 174.27 176.25 175.07 177.26 176.44 176.66 177.14 177.46 177.21 178.56 178.85 178.01 180.09 178.44 180.24 177.19 181.96 176.07 183.18 176.17 185.63 173.56 186.64 173.07 187.06 171.42 188.13 170.15 191.86 170.16 191.89 169.09 192.98 169.6 193.47 170.71 195.64 170.03 196.39 170.04 198.82 168.78 198.64 167.73 199.54 167.16 199.26 164.54 201.03 164.06 202.26 163.1 203.96 161.14 203.83 160.09 204.58 158.85 206.99 157.95 208.63 156.92 210.03 155.31 210.68 155.16 212.44 155.9 213.07 155.74 214.17 154.51 214.95 153.19 216.11 153.29 217.37 154.27 217.48 155.16 219.07 156.86 219.37 157.53 220.35 157.88 222.55 158.11 226.77 158.12 228.25 157.99 230.23 156.15 231.3 153.95 231.61 152.02 232.4 150.28 232.81 148.73 233.34 148.12 235.82 147.11 237.05 147.01 239.17 146.34 239.62 147.18 240.85 147.79 244.57 147.83 245.33 149.33 247.03 150.47 249.13 150.93 251.17 150.51 252.76 150.41 254.06 149.32 255.62 149.25 257.04 148.7 260.14 147.98 261.47 146.4 262.64 145.38 262.68 144.91 261.42 143.84 258.53 142.87 341.57 145.23 419.88 146.64 524.4 148.53 530.4 148.45 536.65 147.76 542.65 147.44 545.51 148.5 546.84 148.38 549.81 146.82 551.97 146.34 552.93 145.81 554.81 143.59 556.91 142.77 559.93 142.62 562.58 141.2 564.7 137.81 565.43 135.38 565.77 129.24 564.74 126.37 561.97 124.78 560.86 122.52 562.48 119.89 564.14 116.62 566.45 113.91 570.44 112.11 575.4 111.69 581.95 109.92 584.82 108.93 587.34 107.09 589.72 104 590.11 102.83 589.33 99.48 589.22 96.01 590.74 93.17 592.18 90.9 593.3 87.46 595.06 83.85 595.73 82.01 595.76 77.12 595.94 72.86 596.75 70.68 597.88 68.42 597.48 66.5 597.91 65.72 599.62 65.35 600.22 63.99 602.32 60.98 603.76 60.05 601.87 57.79 601.97 56.09 600.02 55.08 596.45 54.66 595.23 53.73 594.08 52.43 592.19 51.77 588.6 49.38 585.48 47.13 584.12 45.89 583.55 44.02 583.21 41.01 583.26 39.29 582.85 38.25 582.78 36.65 583.27 32.51 583.39 29.83 583.78 28.17 584.69 25.74 584.76 24.25 585.3 22.16 585.09 21.19 583.23 18.97 583.66 16.72 582.23 14.37 581.97 12.88 582.49 11.72 583.72 10.58 585.83 9.72 588.13 9.57 589.66 9.85 592.64 9.53 594.62 8.73 596.64 8.22 598.65 8.18 600.12 7.6 601.92 5.81 603.04 5.4 604.26 4.31 605.24 2.98 606.72 1.66 608.89 1 611.98 2.13 613.78 2.26 614.86 2.61 616.02 4.81 617.38 5.25 617.96 5.88 617.84 7.57 618.37 8.15 620.06 8.2 621.5 8.96 622.25 10.16 624.77 11.4 625.69 11.44 627 10.72 628.72 11.45 631.87 10.73 635.42 10.77 636.53 10.45 639.25 7.8 640.81 7.35 641.56 7.8 643.44 7.27 646.73 8.31 648.59 9.18 649.38 10.85 650.32 11.93 651.89 11.74 653.45 10.95 654.99 10.63 656.91 11.33 658.14 11.43 659.86 11.05 663.47 11.24 665.54 10.48 667.08 8.64 669.65 7.64 671.47 6.69 675.15 6.38 676.22 7.02 680.58 6.99 681.74 7.85 685.13 8.73 686.86 9.34 689.29 9.5 691.3 10.05 693.18 10.99 695.26 10.67 696.24 10.15 Z"/>
</g>
</svg>