<?xml version="1.0"?>
<svg xmlns="http://www.w3.org/2000/svg" version="1.2" baseProfile="tiny" width="800" height="615" viewBox="0 0 800 615" stroke-linecap="round" stroke-linejoin="round">
<g id="4213104">
<path d="M 594.33 11.65 596.36 12.9 597.04 14.97 595.11 18.29 595.56 21.93 598.47 23.21 600.18 29.67 599.28 33.15 603.6 32.71 607.45 34.06 608.05 36.34 610.03 39.26 611.74 43.37 612.15 47.01 614.86 48.55 619.57 50.31 627.43 52.67 634.91 51.93 634.88 54.18 633.21 57.3 632.91 59.82 636.12 61.86 642.8 63.79 647.54 65.99 655.35 68.35 658.53 69.75 661.39 71.79 663.58 74.26 671.4 81.61 669.59 84.14 665.77 86.44 665.49 90.23 668.88 95.46 672.06 96.48 676.61 96.86 680.08 96.1 682.66 96.96 682.78 101.97 679.95 108.69 681.1 113.35 682.71 114.68 683.77 119.16 686.14 126.55 686.25 129.16 690.86 138.9 695.56 141.8 701.36 147.31 705.37 149.37 710.62 154.37 711.81 156.48 799 184.75 798.6 187.19 794.26 190.17 792.15 194.27 791.28 199.31 794.06 203.62 793.19 209.93 792.26 212.43 784.93 220.95 783.9 226.15 785.01 235.71 784.94 242.77 783.28 243.37 780.96 246.97 780.05 250.6 777.74 253.61 775.05 253.93 772.24 256.44 768.43 258.68 768.23 260.66 765.8 264.71 764.51 269.69 763.42 270.68 759.72 271.82 761.45 274.1 761.63 276.97 760.01 280.2 759.88 282.88 760.72 285.93 763.19 291.17 762.88 293.09 760.34 294.53 760.06 297.12 761.05 300.29 760.81 303.35 761.69 308.35 760.32 310.51 757.8 310.48 756.07 313.57 753.32 316.79 749.85 317.17 748.72 318.34 748.84 321.08 751.73 324.41 752.48 327.07 751.11 329.55 747.7 332.87 739.77 338.46 735.86 342.45 733.74 346.72 731.58 366.73 730.99 379.82 731.29 391.16 731.57 391.37 729.48 392.36 722.4 396.92 715.01 403.16 709.34 408.5 699.15 421.37 694.53 426.06 691.04 432.9 689.38 438.72 685.71 448.71 682.11 457.31 675.33 475.37 673.51 481.78 672.69 490.21 669.26 507.72 666.23 516.17 664.42 523.67 661.68 528.41 656.73 532.66 648.5 537.38 630.57 537.59 622.04 536.34 615.06 534.22 605.1 528.7 595.27 520.56 586.68 512.06 572.05 496.88 567.49 490.52 562.82 481.84 549.88 464.06 545.23 457.12 533.97 443.89 526.62 437.7 520.93 433.67 513.51 427.4 504.96 423.47 497.08 421.57 478.33 421.56 468.29 423.04 456.36 425.16 445 427.57 432.41 429.4 421.3 432.1 407.5 436.27 391.49 439.87 379.14 441.63 366.48 441.94 353.94 439.71 345.08 438.61 329.99 435.3 317.22 435.47 306.04 439.4 301.08 443.64 296.09 452.76 293.11 467.97 292.78 476.47 294.02 486.34 296.47 495.4 300.49 504.89 303.32 510.85 310.61 519.74 318.82 522.07 324.98 524.36 333.04 528.15 339.96 532.75 350.73 538.23 355.94 543.21 360.09 549.06 365.09 559.42 367.73 569.86 367.83 590.36 367.32 596.91 365.72 601.06 363.05 604.06 358.49 607.43 352.78 610.45 344.62 612.91 333.98 614 326.52 613.4 316.59 611.22 309.47 608.96 302.06 605.74 294.08 601.73 285.77 596.92 277.36 591.31 268.63 585.05 262.43 578.92 243.14 556.05 238.59 551.07 231 544.37 224.82 539.61 217.58 536.47 209.54 534.27 201.59 533.67 187.02 534.35 180.98 536.36 173.89 540.69 167.54 545.79 162.59 551.49 158.87 557.4 148.98 568.94 143.39 575.16 135.57 579.79 128.31 583.76 115.58 589.01 107.33 590.88 100.37 591.8 93.32 590.9 86.26 589.13 80.99 585.46 73.36 576.91 68.79 569.74 65.79 563.59 64.27 558 64.23 552.92 65.23 545.79 69.88 533.7 78.59 521.57 85.05 511.14 90.37 500.72 95.83 488.55 101.06 478.3 105.25 469.48 107.22 461.4 110.49 450.48 115.96 430.03 116.81 424.4 116.29 412.13 115.01 405.89 111.93 399.44 108.45 394.45 103.33 389.47 97.65 385.73 85.13 379.33 75.03 375.77 64.94 373.44 52.02 371.07 53.65 371.1 54.77 368.09 55.14 358.59 53.75 350.93 49.19 342.52 46.73 341 31.67 337.45 27.21 316.55 19.67 309.9 19.61 307.87 17.71 303.81 16.8 296.81 15.31 293.45 13.98 292.39 12.15 287.79 12.26 284.68 8 274.77 8.27 272.15 5.69 267.22 3.91 265.23 4.53 263.59 3.4 261.26 1 260.83 7.46 254.21 15.88 247.06 21.3 243.54 25.63 241.21 37.4 235.72 40.61 234.59 47.52 234.04 50.87 234.15 56.97 236.06 63.87 239.26 68.64 243.97 71.42 247.49 75.14 253.15 76.15 256.29 76.57 260.85 76.8 269.01 77.52 279.8 78.24 287.37 80.1 296.05 82.88 302.66 85.18 306.66 93.87 318.29 97.2 321.88 100.21 323.66 103.3 323.95 108.24 322.68 112.59 320.24 117.49 315.4 120.19 311.53 123.29 305.84 126.82 298.52 128.14 294.57 133.76 281.32 135.4 276.1 136.31 270.43 136.83 259.71 136.7 255.3 137.9 246.64 139.61 238.84 141.51 233.33 144.64 226.57 153.33 211.49 155.8 206.6 157.87 204.45 163.64 199.56 172.06 194.04 180.83 188.93 188.03 184.05 195.76 180.21 203.01 177.74 226.07 174.41 229.92 173.43 236.49 169.7 244.31 163.87 249.66 158.74 256.92 156.01 262.98 149.56 265.39 145.76 268.8 143.22 287.32 136.92 294.13 136.59 300.13 138.23 304 140.86 305.62 143.88 305.53 147.27 303.88 151.93 299.54 156.63 291.86 162.13 286.29 166.52 281.74 171.35 280.45 173.42 280.45 177.56 282.17 182.55 284.97 185.67 289.75 189.65 294.38 192.58 302.49 195.6 312.13 198.73 326.45 202.36 336.43 204.19 340.41 205.56 349.22 209.23 356.7 211.65 362.85 214.32 365.13 215.79 373.98 226.5 381.46 233.88 385.27 236.89 392.72 240.69 396 240.99 398.96 240.11 403.03 236.74 405.85 232.22 406.98 227.77 405.18 217.85 403.17 211.4 399.91 203.66 392.26 193.66 386.89 186.03 383.45 181.61 378.26 176.02 369.35 167.77 362.78 162.3 358.26 160.68 353.55 161.56 346.09 164.35 343.09 164.1 341.74 162.69 339.21 157.25 338.34 153.3 339.09 149.92 341.39 146.19 352.13 136.66 359.82 131.82 364.21 130.16 372.21 129.13 378.88 129.82 384.69 131.33 388.45 130.88 395.96 129 416.81 122.41 430.92 118.83 438.3 117.7 447.23 117.56 459.32 118.39 469.94 118.12 477.39 114.29 481.87 111.08 483.44 109.15 484.24 106.44 484.81 93.51 482.82 82.61 482.07 80.66 477.01 74.83 470.95 65.8 469.71 62.39 467.98 55.4 466.76 42.78 464.08 33.2 457.6 20.69 456.98 14.22 458.52 8.79 460.91 6.53 465.71 3.68 470.73 2.18 481.45 1 486.14 1.14 495.57 2.68 505.13 5.69 511.35 8.39 516.75 10.36 527.74 13.03 531.09 13.41 544.35 13.9 556.82 14.77 563.56 15.82 573.18 18.48 575.8 19.56 580.9 20.07 585.95 19.16 590.33 16.55 594.33 11.65 Z"/>
</g>
</svg>