<?xml version="1.0"?>
<svg xmlns="http://www.w3.org/2000/svg" version="1.2" baseProfile="tiny" width="800" height="1396" viewBox="0 0 800 1396" stroke-linecap="round" stroke-linejoin="round">
<g id="4213203">
<path d="M 650.84 134.77 657.42 138.58 655.37 144.02 655.68 146.33 659.96 151.03 664.07 156.66 667.7 164.91 668.02 174.39 666.68 178.28 665.21 186.97 666.77 191.19 669.79 194.68 670.69 197.52 667.32 204.05 655.29 207.15 650.04 208.02 647.74 209.47 646.46 214.83 644.13 220.38 639.49 226.16 631.28 232.5 630.14 236.16 632.11 241.16 634.49 244.59 634.05 254.18 635.16 259.56 641.77 264.59 649.19 272.23 649.84 274.8 649.49 280.81 646 290.14 643.38 294.54 642.79 297.58 645.32 301.53 644.6 311.7 646.42 320.08 650.39 327.77 657.97 333.85 659.37 338.19 658.56 342.8 660.42 351.13 660.58 355.65 659.36 361.19 656.65 367.24 656.01 373.43 659.7 378.35 663.75 380.7 668.73 387.77 668.11 393.18 665.64 400.13 665.15 403.89 666 408.04 669.41 413.04 673.43 411.92 688.35 418.53 691.37 422.25 691.65 432.27 696.86 437.85 697.84 442.39 697.28 447.78 695.45 450.17 692.74 450.53 690.36 448.8 687.91 450.07 690.73 453.66 692.26 459.33 695.03 464.37 693.19 465.1 687.12 461.24 683.93 461.14 677.4 465.61 672.97 465.65 655.1 471.57 650.17 474.13 646.23 479.29 647.69 484.7 637.19 489.16 632.15 495.79 632 499.94 635.3 507.33 635.95 515.36 635.62 522.26 639.23 525.97 644.75 527.94 644.91 530.35 640.41 532.26 639.75 534.08 642.33 541.49 642.05 543.86 638.05 548.21 637.25 550.93 637.77 556.16 637.11 567.82 633.88 579.5 634.51 585.88 640.9 587.23 645.53 591.35 652.96 591.68 656.42 590.3 661.4 585.34 671.3 584.19 678.35 586.75 681.91 584.45 688.8 581.57 691.59 582.32 694.05 586.04 696.57 592.61 696.31 597.13 691.28 601.33 690.76 606.53 689.12 610.95 694.07 611.04 696.68 609.99 705.41 612.88 708.13 618.43 711.67 623.25 713.29 633.38 710.43 637.16 713.75 643.4 713.89 647.81 711.46 651.44 709.83 656.42 709.8 659.7 714.05 667.45 718.25 673.51 721.14 673.11 725.3 669.07 737.17 654.8 740.65 646.96 746.54 639.75 750.64 638.81 753.42 640.18 762.5 654.35 767.44 666.32 768.43 673.22 768.16 676.78 764.38 684.09 759.43 685.91 763.53 700.65 763.14 703.33 760.71 706.51 761.88 711.09 765.41 715.7 765.68 721.91 764.59 726.74 759.75 733.1 750.09 741.5 750.92 746.11 753.58 748.85 758.34 751.62 759.18 755.69 759.46 762.69 762.63 768.22 764.44 775.48 765.71 776.2 772.59 776.06 778.12 777.24 781.67 776.1 784.58 773.07 793.19 769.65 794.53 770.39 793.45 775.85 797.74 780.05 799 783.34 794.96 785.14 790.06 788.57 781.18 793.7 772.28 800.54 766.73 799.12 762.28 799.66 757.72 804.63 751.92 804.48 744.37 802.08 734.35 804.91 725.3 809.35 721.08 814.88 713.49 821.41 705.74 830.31 703.53 831 700.05 827.88 693.9 826.92 686.5 826.55 681.52 828.77 680.7 832.49 680.68 839.57 682.06 846.09 676.17 845.79 671.63 848 669.6 850.17 666.2 856.14 665.44 859.54 666.64 862.12 670.8 862.2 675.17 865.25 674.31 870.95 672.45 873.45 670.76 878.45 670.54 882.88 671.91 887.52 667.93 891.24 668.35 894.03 676.21 900.65 680.48 901.16 688.09 904.74 690.69 907.81 689.93 913.09 686.65 916.77 685.43 925.69 686.4 938.04 686.74 947.66 685.39 953.26 679.62 961.85 676.59 973.35 678.4 987.99 680.05 992.64 685.35 1000.68 684.84 1008.44 687.57 1016.86 690.85 1020.5 694.17 1030.52 697.97 1033.71 701.5 1034.31 705.35 1033.29 712.86 1043.48 715.69 1048.91 716.14 1053.87 710.93 1059.55 710.65 1068.98 709.7 1070.56 705.02 1072.94 705.4 1079.35 711.5 1092.76 711.64 1105.83 710.29 1111.23 705.33 1116 703.11 1120.59 699.69 1123.58 704.81 1133.56 706.04 1140.05 704.86 1143.73 699.09 1152.39 694.8 1161.2 692.18 1163.96 683.74 1169.99 678.15 1176.99 670.23 1183.85 664.07 1191.2 663.06 1194.04 662.56 1201.91 661.46 1209.14 662.16 1212.25 666.14 1217.38 668.84 1225.06 666.46 1228.14 666.2 1230.66 672.1 1234.43 676.54 1239.39 677.29 1250.29 683.92 1260.1 688.71 1264.22 687.56 1268.09 677.49 1270.43 672.56 1273.77 673.57 1279.46 677.27 1286.21 677.4 1288.16 675.23 1295 673.35 1307.69 667.29 1320.44 665.66 1325.45 664.23 1334.02 664.9 1345.95 444.86 1379.04 442.67 1378.43 444.34 1373.28 439.44 1369.15 435.6 1366.98 432.92 1363.53 425.87 1362.88 425.13 1366.07 420.74 1369.05 418.37 1368.38 419.04 1365.08 417.59 1361.57 411.3 1360.35 408.16 1361.82 403.82 1359.14 398.48 1358.63 396.7 1359.8 393.29 1358.33 392.59 1355.59 386.15 1357.95 376.08 1357.04 371.4 1358.49 370.51 1361.58 365.73 1359.63 359.49 1359.05 354.22 1364.19 346.06 1362.8 343.44 1361.57 335.83 1361.26 333.31 1363.74 327.07 1362.99 325.24 1359.66 321.46 1357.61 317.81 1357.1 315.73 1358.59 315.83 1361.35 314.12 1364.38 315.33 1368.37 313.33 1370.2 306.91 1372.24 304.82 1373.74 300.97 1379.21 299.39 1379.44 294.88 1384.89 290.72 1386.44 288.89 1390.04 286.47 1391.93 280.9 1393.06 276.29 1395 267.28 1392 253.62 1386.28 244.46 1388.46 240.26 1386.85 237.57 1388.3 228.95 1387.87 226.97 1386.94 226 1382.85 229.93 1382.64 230.65 1380.3 229.75 1374.18 232.84 1368.81 177.4 1332.54 177.04 1326.51 178.26 1321.21 187.92 1311.2 193.39 1307.84 198.24 1302.37 203.76 1290.4 211.67 1280.9 210.6 1276.71 204.46 1272.55 204.09 1268.14 201.36 1260.49 197.84 1255.37 190.86 1252.12 179.23 1243.47 175.51 1237.56 174.12 1229.18 172.85 1226.39 167.8 1221.27 165.08 1216.75 167.17 1210.12 174.38 1204.32 174.45 1200.33 172.59 1198.07 163.61 1190.36 159.36 1185.51 158.9 1179.73 163.61 1174.58 166.55 1167.12 173.18 1158.32 174.77 1152.23 174.31 1145.69 177.37 1140.64 181.89 1138.98 187.47 1135.26 193.06 1133.46 201.56 1133.13 207.01 1131.34 212.99 1127.15 217.54 1126.46 225.49 1126.88 229.01 1122.76 232 1113.52 235.79 1110.33 242.37 1107.67 249.08 1100.43 248.29 1094.71 244.23 1087.73 244.1 1081.22 238.52 1070.45 238.05 1066.06 234.33 1062.67 227.82 1061.87 225.65 1059.58 222.03 1051.78 217.98 1040.8 214.19 1038.07 209.01 1030.9 203.7 1025.32 197.18 1020.26 189.73 1011.82 185.08 1008.43 185.21 1005.57 189.67 1001.65 190.07 999.99 188.27 992.81 185.15 988.29 176.8 972.11 172.05 968.54 169.6 964.02 171.39 960.04 174.18 956.58 180.61 950.45 184.15 944.68 186.75 938.63 186.85 931.12 182.99 925.27 183.66 922.93 191.34 922.8 193.39 916.65 192.33 909.32 193.39 902.01 193.06 898.75 190.2 892.23 187.54 889.71 181.29 887.65 176.87 887.24 172.86 885.36 163.02 882.66 160.49 881.07 147.8 878.47 134.74 870.42 127.77 873.41 124.96 872.71 118.05 868.11 104.13 862.49 95.83 860.38 85.01 856.58 78.12 852.58 75.1 852.96 65.99 856.1 61.33 854.19 58.46 849.53 54.71 846.34 43.22 844.26 29.33 842.97 27.02 840.48 25.23 827.82 21.26 821.41 22.74 813.14 16.82 810.59 7.21 811.06 4.37 810.06 2.93 807.45 4.15 804.54 10.61 794.59 13.45 789.11 18.08 786.68 18.29 783.07 15.82 778.52 15.06 774.41 18.18 769.74 18.52 764.81 14.36 758.25 12.63 752.3 11.52 742.78 5.75 733.6 1 717.11 3.67 704.71 6.89 697.68 12.84 690.26 16.38 683.2 16.79 680.04 15.7 674.11 16.35 668.34 15.42 658.15 11.46 653.05 10.84 648.92 12.02 644.17 14.74 639.8 16.47 634.26 16.27 631.39 13.31 625.62 11.6 616.07 11.55 606.16 15.8 598.8 18.05 596.69 27.55 585.53 37.71 580.99 38.46 578.8 32.91 573.95 32.58 567.8 33.1 561.95 31.19 556.62 25.22 550.58 18.89 545.95 14.61 535.08 16.19 526.88 13.32 518.5 16.19 512.52 23.9 507.26 24.75 501.18 21.49 491.01 17.74 482.01 11.68 476.03 12.03 472.22 29.01 453.58 40.1 445.29 44.58 441.43 54.84 435.62 60.11 433.95 61.52 430.35 61.72 419.24 62.98 414.82 63.63 407.46 67.73 401.28 69.22 394.39 72.18 389.5 78.16 384.58 81.87 382.73 82.17 381.06 74.25 366.54 74.16 364.49 76.49 359.12 76.81 352.35 74.7 343.3 76.43 336.33 76.05 330.52 77.31 328.79 99.61 328.76 118.15 329.41 120.32 328.18 119.06 323.28 114.73 318.42 112.79 307.99 113.17 305.12 109.57 289.29 110.59 283.58 116.95 277.01 118.33 271.53 124.19 260.02 127.44 252.25 122.58 246.45 120.94 242.46 119.53 235.96 117.3 220.72 115.02 217.03 112.21 205.66 112.5 202.26 115.08 197.57 117.42 189.6 115.31 185.61 107.81 181.74 105.17 181.45 91.73 172.75 89.88 170.2 79.1 145.09 77.95 140.02 78.31 134.59 80.5 129.82 88.41 122.23 91.24 117.6 97.2 110.59 106.42 104.25 110.35 92.35 108.51 87.74 107.64 82.96 101.16 74.81 105.5 72.64 109.22 68.31 114.46 65.32 119.27 60.98 121.08 55.88 120.48 52.71 118.12 50.02 105.13 40 100.82 38.82 89.32 41.1 82.69 43.92 78.65 42.54 104.56 34.81 113.86 32.54 131.27 30.91 137.57 27.97 142.57 28 149 30.37 162.9 26.59 165.91 24.44 172.66 21.7 177.4 21.32 182.5 22.21 189.42 24.74 194.97 27.54 199.27 34.51 201.02 40.07 203.5 44 208.89 49.52 215.22 53.36 224.14 53.38 227.02 52.55 233.63 52.67 238.3 51.59 243.69 48.83 248.12 45.19 254.37 41.35 259.44 35.66 261.38 29.6 266.7 26.19 274.29 26.55 282.82 23.52 288.21 24.28 302.07 19.77 305.85 16.85 314.97 12.95 317.77 10.49 321.6 5.03 324.22 3.08 330.6 1.52 333.21 2.31 342.63 1.32 358.82 1 364.82 1.67 372.63 1.18 375.38 4.95 376.28 10.92 380 14.52 384.92 21.13 388.93 24.59 394.64 27.54 396.35 30.53 397.08 38.89 400.08 40.84 404.88 46.98 407.2 55.74 410.33 60.09 413.65 67.42 414.64 71.55 420.95 75.44 419.38 85.71 422.75 92.12 425.53 100.27 429.45 104.16 433.51 109.7 432.49 114.92 427.82 126.59 431.91 133.84 433.45 140.97 433.04 147.53 435.71 162.04 436.99 165.28 437.31 175.06 438.99 189.13 441.08 197.31 441.28 212.83 443.57 215.53 445.69 215.57 451.49 212.28 460.68 211.58 467.44 201.66 477.4 193.05 493.64 196.1 501 200.81 505.68 200.13 512.12 191.16 517.52 187.68 527.55 185.31 540.42 184.68 542.32 179.69 542.21 176.9 545 172.69 551.51 170.82 566.75 174.28 570.44 174.2 575.97 172.35 580.66 168.07 583.39 163.14 589.72 158.01 601.1 156.22 615.36 155.68 621.96 154.37 627.13 151.33 630.62 142.93 634.52 140.59 644.4 138.5 648.42 135.37 650.84 134.77 Z"/>
</g>
</svg>