<?xml version="1.0"?>
<svg xmlns="http://www.w3.org/2000/svg" version="1.2" baseProfile="tiny" width="800" height="478" viewBox="0 0 800 478" stroke-linecap="round" stroke-linejoin="round">
<g id="4213500">
<path d="M 660.22 109.87 663.1 109.98 663.51 112.64 662.07 115.35 660.82 115.73 659.09 118.7 658.13 122.43 656.87 123.55 656.69 126.69 655.25 131.22 658.84 133.19 659.38 135.16 657.34 136.17 652.2 135.26 648.84 135.9 647.35 136.91 644.17 140.64 634.15 148.79 630.02 150.59 627.98 149.15 625.83 149.47 619.3 148.83 619.84 146.43 622.78 141.59 623.62 138.45 630.45 135 632.79 130.31 635.01 128.87 636.38 126.75 639.44 123.98 647.64 121.8 650.52 118.65 652.14 115.14 654.05 113.38 655.43 110.29 659.44 109.01 660.22 109.87 Z M 799 1 797.69 8.57 797.77 14.27 798.56 18.6 797.97 20.58 793.42 23.54 788.69 27.32 787.1 31.36 783 34.97 782.19 36.32 780.15 43.03 779.25 47.77 776.4 52.33 775.56 54.63 772.84 59.08 766.84 62.19 762.58 67.97 759.98 69.63 755.48 70.63 753.6 71.63 753.08 73.42 755 81.92 753.31 84.82 747.41 88.24 744.39 91.29 742.15 96.54 741.63 100.16 740.12 103.92 735.43 106.91 731.34 110.52 729.47 114.22 731.23 117.25 733.22 119.29 735.56 123.48 736.64 131.74 734.75 133.72 733.75 138.17 729.76 144.86 726.57 146.94 722.28 152.79 723.12 156.88 721.88 159.68 722.45 162.85 720.22 166.76 718.98 170.32 715.86 172.19 713.86 174.34 708.26 178.49 707.75 182.39 706.08 187.1 710.86 193.3 711.59 195.27 711.56 199.46 712.44 202.65 717.09 206.54 717.58 208.08 714.5 215.42 712.64 218.75 710.59 221 707.56 222.8 700.31 231.75 697.86 232.45 688.28 228.55 685.42 229.84 685.49 233.86 683.42 237.91 679.12 241.27 675.22 246.9 674.32 251.9 671.47 254.33 668.63 254.86 667.72 256.46 666.58 263.02 658.99 266.34 657.1 268.2 656.8 270.47 655.51 271.67 652.14 272.69 644.45 271.32 641.5 273.56 639.45 273.85 634.24 273.11 631.11 271.47 628.24 268.54 625.25 268.18 622.3 265.73 619.94 265.1 615.77 265.67 612.44 265.11 609.92 263.66 605.69 265.16 599.08 269.7 598.49 273.71 595.03 281.63 592.81 284.32 591.98 288.24 588.77 289.93 584.16 290.32 579.93 291.92 576.97 295.79 572.32 297.07 571.62 297.9 571.25 303.83 569.93 307.43 568.28 309.93 564.68 312.92 564.23 316.91 562.26 319.25 559.92 319.68 553.06 318.83 547.12 320.72 544.93 322.73 540.3 324.62 537.16 324.73 529.62 326.83 522.51 327.23 512.34 328.82 505.68 329.18 504.45 331.39 501.02 335.11 496.14 337.83 491.83 341.65 491.1 344.19 485.32 347.58 480.56 352.7 476.96 355.36 473.76 359.61 471.78 363.93 469.01 367.52 469.72 370.74 469.19 373.67 467.49 375.4 467.14 378.89 464.9 380.2 469.15 385.23 471.45 389.1 472.68 393.23 474.15 395.26 477.92 398.58 483.4 400.8 489.66 401.54 491.85 404.37 493.29 409.26 498.53 412.66 501.17 416.77 502.17 420.43 496.94 429.84 496.25 433.91 494.28 438.47 492.87 436.81 493.32 434.6 492.07 432.33 489.41 430.74 481.53 428.84 475.48 430.45 472.69 433.05 471.12 433.47 467.31 438.88 467.98 440.03 465.44 442.79 463.97 440.7 460.94 439.15 459.16 439.3 451.49 447.9 448.18 451.06 446.3 451.6 443.29 455.42 440.65 453.85 433.58 456.42 432.55 458.39 429.81 457.64 426.96 460.28 425.95 460.12 422.19 462.86 422.47 464.68 420.82 466.2 418.82 465.43 416.23 466.44 415.06 468.11 410.3 471.22 409.25 470.62 406.21 472.59 402.21 472.42 397.29 473.73 393.33 476.23 391.12 477 389.88 472.82 388.72 466.23 390.34 461.34 389.94 458.62 384.62 457.38 383.45 456.04 385.48 452.02 382.84 449.98 378.69 452.95 376.45 452.73 375.54 450.34 381.48 443.41 381.23 441.74 378.02 440.4 372.75 437.3 370.44 435.47 367.03 434.52 362.85 434.98 359.24 436.44 356.28 436.63 353.8 437.62 337.48 441.8 331.7 443.49 324.8 443.91 320.16 443.31 303.68 436.56 298.73 436.28 286.82 437.88 251.79 441.94 242.54 443.3 238.07 443.58 226.1 444.96 188.47 449.74 180.62 450.52 146.69 454.79 141.6 455.95 137.52 458.53 133.71 459.18 131.29 458.4 110.3 444.71 106.64 440.54 102.86 429.82 96.52 423.4 100.99 395.01 101.16 393.19 97.94 392.21 80.99 387.8 78.48 383.84 76.29 382.56 75.88 378.93 71.13 378.2 67.92 381.08 58.53 378.9 56.13 376.42 49.73 376.54 46.07 373.91 41.39 371.34 38.67 370.9 37.55 368.84 37.93 365.82 35.05 365.37 32.79 362.43 32.12 359.81 28.09 356.6 21.25 352.64 20.66 350.82 22.25 349.27 19.83 347.4 16.57 342.35 16.69 338.39 14.89 334.22 14.91 332.23 10.59 326.01 9.75 320.89 11.13 320.09 15.37 315.77 17.16 313.13 17.15 310.98 18.33 307.62 16.25 306.31 14.94 302.52 15.58 299.95 13.64 294.13 14.87 292.07 14.26 287.46 15.78 285.9 19.1 284.81 21.44 280.9 22.15 278.21 26.76 273.69 26.77 271.34 25.72 264.82 22.27 259.01 19.71 251.95 18.7 250.27 16.07 250.02 11.7 252.31 8.21 255.38 4.9 256.01 1 255.73 1.03 252.87 1.97 251.18 5.48 249.81 7.83 249.74 10.08 247.25 10.36 245.62 19.83 244.14 23.17 246.55 25.78 244.59 32.48 243.89 40.25 245.53 46.99 245.8 52.09 243.94 52.41 239.27 49.32 235.78 47.03 230.73 47.86 227.48 45.52 223.59 42.41 222.46 39.49 217.57 33.08 210.05 33.07 206.66 34.34 202.8 38.73 198.64 41.89 192.24 41 185.97 38.58 183.36 33.72 184.02 32.17 182.92 29.96 177.43 28.52 176.39 23.5 176.72 14.56 176.38 11.25 169.58 5.23 166.55 8.51 161.61 8.05 156.03 8.37 154.73 11.95 150.82 12.15 147.55 11.33 145.8 12.54 143.04 12.58 139.46 10.21 138.32 10.37 134.92 30.8 149.34 34.7 150.34 41.5 152.81 44.7 152.88 46.3 154.13 49.39 154.8 51.02 157.33 54.01 158.08 56.6 160.44 62.76 156.44 68.91 156.5 71.82 159.73 76.82 160.05 81.38 161.35 84.69 161.01 88.61 161.97 91.39 161.51 97.13 162.93 101.63 167.22 104.16 167.64 107.58 166.59 110.48 164.71 113.32 166.55 117.45 165.03 121.93 165.24 125.28 162.8 131.79 165.43 136.09 165.54 138.42 166.32 141.61 169.24 144.39 169.43 144.85 171.26 140.99 175.65 141.16 176.47 147.42 178.18 154.7 176.75 162.11 177.36 165.88 177.17 167.89 176.1 177.57 173.6 181.22 170.98 185.71 164.57 193.03 155.04 200.35 151.3 212.91 151.48 217.59 153.17 224.62 158.61 227.06 161.7 230.16 164.04 242.16 167.32 252.37 168.82 254.68 170.06 267.68 168.28 271.23 167.5 273.47 164.89 275.78 156.91 281.83 152.01 284.05 151.8 289.02 152.53 296.83 153.09 300.34 152.37 329.09 138.48 331.49 135.47 334.65 125.91 336.47 121.44 338.43 118.6 343.43 114.79 347 113.25 352.78 112.16 358.74 112.33 369.98 113.59 374.32 115.35 377.23 115.31 379.87 117.28 380.88 114.39 383.01 114.15 383.11 119.54 381.33 122.59 382.44 124.9 387.91 125.93 393.02 125.98 394.02 126.7 394.44 130.13 391.7 134.49 392.06 136.37 397.58 136.06 399.84 138.35 396.79 139.98 393.06 139.11 389.14 139.5 386.69 141.5 384.99 144.47 386.02 148.45 389.45 152.31 391.24 152.45 393.95 146.61 396.85 145.17 401.54 144.33 406.53 146.02 410.34 144.02 413.86 144.7 412.85 147.27 413.97 149.11 416.52 148.37 419.12 146.09 422.97 144.64 426.84 145.33 429.7 146.82 433.35 149.98 435.26 153.91 436.93 155.84 438.99 156.26 445.43 155.38 450.83 154.19 457.53 151.2 462.07 150.74 462.91 150.05 472.52 152.5 487.34 162.6 499.47 170.44 509.52 176.48 522.41 183.63 533.13 188.6 545.6 193.53 551.94 195.83 556.47 197.01 557.21 194.09 562.6 196.73 567.62 195.82 573.7 192.27 577.11 184.74 578.67 182.93 580.79 182.19 583.66 182.5 584.04 185.02 586.67 186.76 589.91 186.49 593.56 190.44 591.11 193.75 592.41 195.17 591.06 197.87 592.41 200.12 596.35 201.9 599.2 204.03 603.12 204.67 608.24 204.34 615.32 203.07 624.67 200.55 633.29 196.2 640.8 190.99 643.81 186.35 650.71 178.44 659.02 176.89 671.84 174.2 674.34 172.88 674.34 171.1 677.91 168.95 680.51 166.59 683.27 161.92 684.97 160.02 687.98 160.03 691.95 158.12 692.19 151.34 690.5 150.49 688.82 147.44 687.65 148.15 684.85 145.37 679.43 149.81 677.18 146.7 672.68 144.6 673.31 142.02 672.86 139.77 670.8 139.04 673.81 135 675.29 131.88 677.75 129.75 679.16 126.1 681.8 121.17 682.1 119.19 684.41 114.83 689.87 111.39 693.81 111.08 698.63 109.67 701.6 108.08 703.38 105.17 703.47 99.82 702.45 98.66 702.96 96.09 704.14 95.09 708.18 95.97 710.44 94.53 712.75 91.53 717.95 87.79 719.19 85.89 721.92 84.01 723.41 80.94 726.15 70.98 724.53 68.74 721.57 67.64 718.6 65.46 714.58 66.43 711.63 69.63 710.15 72.31 707.54 74.73 702.85 75.18 701.1 76.45 700.78 71.57 703.03 71.64 703.26 69.61 705.74 68.02 705.65 66.15 708.55 61.68 708.37 59.48 710.01 58.27 711.73 55.25 714.59 54.35 718.43 55.7 721 57.35 725.93 52.82 729.21 52.54 731.06 49.45 732.51 48.36 736.83 39.94 736.18 37.41 738.86 32.81 744.38 35.55 746.44 37.02 748.63 41.73 748.34 44.11 749.46 47.21 752.36 48.06 757.49 47.66 763.64 45.46 768.97 39.42 774.96 34.69 779.79 28.78 783.39 23.39 784.87 18.15 787.86 19.03 793.17 15.84 793.59 12.57 793.1 10.68 794.01 8.11 796.09 5.64 799 1 Z" fill-rule="evenodd"/>
</g>
</svg>