<?xml version="1.0"?>
<svg xmlns="http://www.w3.org/2000/svg" version="1.2" baseProfile="tiny" width="800" height="705" viewBox="0 0 800 705" stroke-linecap="round" stroke-linejoin="round">
<g id="4213906">
<path d="M 767.46 150.79 778.09 175.11 799 218.76 797.37 221.47 788.3 233.05 784.43 239.26 779.91 238.74 771.68 243.18 767.14 246.49 765.13 250.67 765.4 257.4 769.17 264.86 767.13 271.08 758.8 283.81 747.69 291.38 743.8 292.47 731.65 291.76 729.28 293.2 728.43 298.77 728.96 303.91 725.4 304.92 722.48 310.17 721.82 316.47 716.41 319.79 714.5 325.35 709.27 330.27 702.92 332 700.73 333.82 702.15 340.34 705.37 347.11 699.26 351.24 700.33 354.56 703.63 356.22 710.48 356.65 710.64 358.16 705.47 360.38 704.36 364.85 697.41 366.4 693.93 368.52 691.49 371.66 686.53 382.02 677.38 391.7 676.8 393.81 676.88 403.15 674.08 403.07 666.61 398.26 658.19 397.55 650.21 395.26 646.75 396.09 642.39 398.95 635.01 405.65 629.47 409.24 626.92 411.95 627.26 414.74 637.13 417.58 639.05 421.12 634.37 424.76 629.69 427.14 623.54 428.96 616.85 432.59 614.11 437.46 608.82 440.26 601.8 439.33 598.65 440.42 594.51 447.12 591.22 450.4 591.89 452.4 595.99 455.66 597.39 458.15 597.16 464.28 594.13 468.81 591.02 471.46 580.58 476.18 577.12 475.3 575.39 470.89 571.83 470.2 568.64 475.46 565.07 477.16 561.28 473.78 558.74 463.23 555.46 457.87 549.76 456.07 539.02 453.59 533.72 453.62 531.16 454.69 528.32 460.1 519.95 473.43 514.4 486.17 511.73 489.13 515.78 496.5 517.66 505.45 522.63 521.55 527.69 533.15 533.51 543.23 531.95 550.98 533.89 557.82 533.95 564.6 531.45 568.57 536.5 579.34 542.45 581.41 552.01 590.44 558.38 595.02 560.43 599.09 564.13 602.19 567.47 611 567.77 615.3 565.71 623.21 562.68 623.18 549.36 621.03 544.26 619.43 538.49 620.94 531.91 621.06 528 624.51 520.06 626 506.34 624.54 501.52 615.5 498.29 606.35 493.91 600.73 487.27 600.73 484.5 602.93 481.81 612.67 479.53 618.09 475.07 621.75 469.49 628.28 450.84 634.01 440.62 634.26 430.79 637.5 417.54 637.52 412.09 635.01 405.44 633.82 401.46 635.66 393.9 642.81 384.06 653.46 380.87 654.8 373.48 654.94 361.65 658.02 356.1 657.26 342.04 657.45 331.95 659.79 327.39 665.73 322.43 684.58 322.83 689.66 319.52 698.57 315.46 703.87 310.9 704 302.49 699.06 298.63 694.33 297.69 689.62 297.84 685.65 292.13 672.57 291.74 663.31 292.26 655.1 289.8 647.53 289.34 642.96 290.86 638.66 293.36 636.68 301.36 632.63 305.92 628.96 311.67 621.57 315.69 615.32 317.47 610.4 318.31 602.61 320.36 598.8 328.53 591.65 335.81 589.42 338.01 587.4 349.59 580.71 351.83 578.26 350.81 571.48 352.06 565.7 356.74 553.25 360.74 548.07 363.54 539.33 361.41 534.77 359.18 527.23 358.63 521.82 356.59 511.83 356.42 499.92 350.86 489.82 351.55 485.33 349.37 483.17 342.28 485.12 337.26 485.24 330.09 483.14 324.47 479.72 322.25 476.99 323.19 468.73 318.63 459.89 317.54 455.06 317.98 448.21 309.48 445.97 295.1 440.88 286.26 437.12 284.03 437.21 278.42 442.38 269.91 444.36 260.04 443.96 254.16 443 247.93 440.46 245.94 436.09 245.94 426.28 241.79 425.6 232.51 431.43 224.22 435.15 218.57 439.26 214.51 440.07 208.05 433.83 204.62 424.61 201.84 420.35 197.95 417.52 193.98 416.02 184.62 413.79 180.68 412.16 177.43 408.72 176.94 403.48 175.12 398.38 168.38 397.06 164.91 402.01 161.67 402.25 157.96 399.85 151.66 397.32 148.11 398.69 143.52 404.51 138.87 412.01 136.36 418.23 138.95 423.85 136.33 427.47 128.37 426.85 123.76 424.84 115.48 424.76 106.04 426.29 101.52 428.24 91.69 435.45 87.55 439.36 84.27 440.12 78.79 437.62 76.99 429.07 77.24 421.69 74.69 416.79 63.06 412.83 51.36 409.61 46.95 410.51 47.81 419.39 44.1 424.25 37.27 414.59 32.65 409.86 32.64 406.27 35.35 399.52 34.49 395.22 29.97 391.77 25.66 389.75 23 386.49 18.69 383.77 21.01 380.63 24.36 378.84 37.27 368.48 39.02 364.14 39.98 357.05 41.55 352.26 39.62 348 36.03 344.88 32.21 343.36 24.43 342.27 18.92 342.47 14.88 339.89 14.58 336.08 16.29 333.32 17.82 327.5 15.79 320.39 6.52 311.66 3.9 307.66 1 299.34 1.31 297.64 5.11 294.72 12.79 293.79 26.14 294.51 36.22 298.43 44.18 300.94 56.25 307.47 64.15 313.4 68.58 317.8 75.94 323.95 82.47 327.64 91.95 328.8 100.48 326.02 104.86 326.2 106.2 324.52 108.26 315.53 106.36 308.26 103.37 303.37 97.6 303.12 87.94 304.45 80.42 303.15 78.01 300.7 74.84 294.53 74.3 287.31 78.95 283.96 88.87 286.88 91.91 286.69 99.96 282.67 104.65 279.43 109.43 279.32 113.49 276.1 115.86 271.87 115.72 265.7 114.34 260.18 114.1 253.18 115.85 247.96 120.9 240.77 124.97 238.43 128.78 239.38 132.01 241.71 134.57 249.76 139.92 256.67 144.36 258.06 149.68 255.68 154.14 252.18 156.77 248.55 162.23 244.35 175.92 238.98 179.53 238.66 187.17 241.62 194.38 248.18 197.03 251.65 201.69 254.96 203.91 254.48 206.94 251.15 209.43 246.01 209.32 243.9 211.64 238.72 211.48 227.51 208.95 215.81 208.05 207.96 205.24 204.24 199.97 201.37 195.51 197.81 193.6 194.32 194.71 190.07 199.94 180.34 192.24 180.44 188.69 175.9 188.46 171.41 190.34 167.07 195.19 163.77 196.04 160.55 189.6 154.43 188.66 148.4 183.32 146.98 179.31 149.26 176.77 148.67 173.7 138.58 181.59 139.58 184.77 135.67 178.61 131.25 178.28 125.54 179.21 123.03 184.44 117.98 184.97 113.74 181.07 104.13 177.56 98.68 180.52 93.41 181.21 89.45 177.9 86.17 178.98 81.52 176.96 75.13 177.98 73.44 182.93 74.34 187.68 78.3 190.35 78.77 197.29 74.82 196.6 71.26 198.06 69.13 194.99 66.44 197.08 63.2 203.51 58.95 203.48 56.57 199.49 55.64 196.63 50.21 198.84 49.12 199.48 45.58 194.97 40.5 196.03 34.38 192.75 32.87 193.8 29.35 198.27 28.63 204.5 24.58 210.17 24.09 213.04 19.22 216.4 16.95 217.83 14.15 221.45 11 222.2 7.41 226.33 4.94 229.23 1 235.38 2.59 237.52 4.5 244.06 6.86 246.55 5.77 252.27 7.11 258 7.03 262.09 5.95 267.39 6.61 276.8 13.82 281.41 20.44 281.38 28.81 284.49 35.12 289.98 39.14 293.79 39.69 297.96 42.19 298.41 44.77 302.35 50.75 302.16 55.56 300.26 64.23 299.59 72.86 301.26 77.38 301.68 81.95 307.51 91.54 308.17 94.45 313.13 99.19 325.93 95.21 342.61 94.73 343.64 96.18 348.59 97.36 359.25 100.95 362.67 101.49 370.99 100.9 376.11 101.91 397.25 113.98 409.2 122 416.66 126.39 424.2 127.81 430.33 127.59 435.73 130.38 439.73 130.96 445.03 129.66 448.73 130.4 452.25 134.79 456.87 138.61 458.53 144.38 465.35 150.3 471.58 150.15 477.17 152.01 481.66 152.36 493.87 154.71 510.58 155.65 513.35 154.04 517.07 149.85 529.65 145.62 536.77 146.73 540.2 143.91 545.62 142.04 550.07 144.05 559.57 140.7 561.86 134.73 567.95 130.03 572.18 129.15 575.35 126.62 578.97 127.46 585.32 131.7 591.75 135 597.17 136.78 610.41 136.42 614.92 136.94 626.03 143.12 635.32 143 638.98 143.89 643.93 143.3 648.7 140.74 657.76 138.91 663.58 139.81 673.17 149.59 677.18 151.9 682.57 153.06 688.54 156.07 693.42 159.85 703.66 160.91 704.83 165.59 706.98 168.79 709.75 169.08 711.01 163.87 713.37 161.3 718.55 159.79 727.38 159.21 731.97 158.32 743.1 153.99 750.93 152.53 757.95 154.93 761.86 152.45 767.46 150.79 Z"/>
</g>
</svg>