<?xml version="1.0"?>
<svg xmlns="http://www.w3.org/2000/svg" version="1.2" baseProfile="tiny" width="800" height="365" viewBox="0 0 800 365" stroke-linecap="round" stroke-linejoin="round">
<g id="4213351">
<path d="M 798.13 297.96 799 300.65 797.96 301.35 797.5 302.42 795.38 303.41 794.96 305.27 792.26 307.59 791.94 308.72 790.18 310.09 788.89 310.15 787.25 311.74 786.77 313.35 785.67 314.48 785.14 315.81 785.45 317.18 785.05 319.6 783.65 320.33 783.48 321.06 782.27 322.23 780.95 322.93 780.17 324.68 778.41 325.94 777.59 325.83 776.3 326.81 775.52 329.03 773.52 328.76 773.36 328.24 771.51 327.75 771.7 329.03 771.04 330.26 769.5 331.12 769.43 332.43 770.71 333.52 771.02 335.21 768.63 336.07 769.58 338.12 768.37 339.03 768.15 339.96 768.6 341.27 767 342.35 767.6 343.23 766.57 345.12 767.85 346.99 767.72 347.83 768.36 348.55 768.48 350.15 769.29 350.42 769.17 351.48 768.08 351.67 766.81 352.76 764.72 353.1 762.96 354.32 761.88 353.87 760.73 355.16 760.75 356.34 758.91 356.27 758.59 357.63 757.2 357.9 756.82 359.26 755.5 358.51 755.54 357.85 754.41 357.52 754.22 358.5 752.48 358.45 750.38 358.83 748.5 361.04 747.76 362.98 742.52 361.01 740.57 361.39 739.63 361.12 737.09 361.5 736.76 362.29 735.24 362.44 734.34 362.13 733.06 360.72 732.14 357.94 729.17 357.35 727.21 354.87 725.7 354.94 725.08 355.44 724.71 356.8 723.54 356.98 721.33 355.62 720.03 353.48 717.87 351.79 717.18 350.19 715.04 347.77 713.31 347.39 710.63 345.67 710.8 343.89 709.16 343.32 708.87 342.38 707.44 341.63 705.77 341.18 703.07 341.09 703 339.78 701.44 337.62 699.2 337.46 698.05 336.96 696.07 334.55 693.46 332.53 693.96 330.01 695.16 329.68 695.39 328.54 692.79 329.06 692.91 327.31 691.57 327.77 691.06 327.02 691.79 326.18 691.63 325.38 690.22 325.57 688.34 325.37 687.44 325.96 687.41 324.26 686.71 323.83 685.31 324.93 684.53 325.13 682.69 327.24 682.16 328.3 680.6 328.7 681.67 329.85 678.22 329.23 677.5 329.61 676.39 328.9 676.06 329.88 674.62 328.84 673.3 330.14 673.52 332.67 672.41 332.64 671.87 333.54 670.67 332.91 668.9 334.5 668.09 334.58 665.69 337.49 664.48 337.71 664.38 339.25 663.05 340.74 662.72 341.99 661.9 342.6 661.61 344.93 661.8 347.42 663.15 348.16 663.32 350.42 662.68 350.94 661.99 352.63 663.19 354.42 661.99 354.63 661.39 355.91 658.37 356.08 657.69 354.68 655.51 353.23 653.94 353.1 650.95 354.04 648.61 356.25 647.6 356.69 646.81 358.9 645.76 360.91 644.21 361.51 644.11 362.68 643.57 363.59 642.48 364 641.61 363.54 639.7 361.45 638.58 361.25 638.07 360.14 635.35 360.31 633.65 359.48 631.6 358.85 629.91 357.03 629.24 357.33 628.6 356.24 627.68 356.15 625.97 356.65 625.25 355.06 624.36 355.74 623.14 354.13 621.99 354.28 621.08 353.42 619.81 353.69 619.76 352.37 617.07 351.26 616.85 350.08 614.69 349.36 613.76 348.7 611.57 350.36 610.76 351.95 608.51 352.19 608.09 352.99 606.47 353.58 605.91 353.05 604.22 354.57 603.6 354.47 603.17 356.38 601.03 356.51 600.11 357.91 599.49 358.25 599.27 359.39 596.61 360.69 595.98 359.55 594.14 359.74 593.95 358.01 592.09 357.22 592.29 355.97 591.24 356.24 591.12 357.53 590.44 358.01 588.69 357.63 586.22 356.6 584.28 356.95 582.8 356.69 582.39 355.2 580.6 354.16 577.34 353.81 571.66 354.38 567.46 354.6 565.95 354.82 563.69 355.91 562.38 355.25 561.71 350.76 562.46 348.57 563.75 346.48 563.53 343.39 562.43 340.29 561.69 339.29 562.84 339.11 562 338.01 560.65 338.13 559.98 338.78 558.35 338.2 557.35 338.4 556.59 339.15 554.49 340.49 553.63 340.69 552 338.88 552.12 337.67 553.38 335.69 553.07 334.41 551.45 333.46 549.13 333.28 546.19 331.57 545.16 330.38 544.95 327.98 545.98 326.91 549.05 326.08 551.73 325.08 552.59 325.17 552.82 327.63 552.27 329.03 552.61 329.99 554.6 330.85 557.69 331.48 558.51 331.97 558.91 332.93 558.57 333.97 559.19 335.26 563.1 332.4 563.44 331.96 563.7 329.35 564.34 327.99 565.53 323.03 565.39 322.27 564.2 320.15 563.47 319.64 562.18 319.7 562.03 318.42 562.79 317.55 561.97 316.51 561.75 315.37 562.15 314.48 561.87 313.63 560.83 312.83 560.59 311.42 562.06 310.83 564.55 307.5 565.63 305 566.82 303.89 570.01 302.57 571.53 301.14 574.04 301.29 577 300.88 577.77 300.53 577.46 298.57 574.69 297.99 573.09 297.25 568.17 297.02 565.43 297.45 563.54 298.27 562.5 299.19 561.63 299.39 560.09 298.47 555.74 296.42 554.8 295.74 552.01 294.98 550.16 296.51 548.99 298.21 545.74 298.77 542.88 299.61 541.78 300.25 542.72 301.69 542.8 303.56 544.32 305.64 541.79 307.63 540.2 307 538.58 305.06 537.63 302.82 536.7 301.58 536.55 299.75 536.92 296.96 536.22 295.03 534.05 293.72 535.36 292.3 535.4 288.58 533.1 285.76 532.57 283.98 531.09 282.64 530.75 280.62 531.01 279.01 530.33 277.81 528.43 276.64 527.22 272.85 527.38 271.47 525.01 270.14 522.73 268.63 519.34 267.98 517.82 266.89 516.7 267.16 515.31 270.4 515.12 271.79 515.73 273.6 517.28 276.31 517.17 277 514.22 280.11 515.39 281.29 515.76 282.27 514.34 283.25 515.07 285.12 515.83 285.65 517.61 285.11 519.45 286.12 520.09 286.8 520.26 288.32 519.85 290.23 520.26 291.91 520.13 293.12 519.45 293.53 517.31 293.62 514.95 294.72 514.25 296.11 513.34 297.15 511.35 298.55 510.96 299.58 510.73 303.24 511.35 304.96 512.35 306.6 512.16 307.72 512.38 309.22 512.91 309.91 514.19 310.07 516.91 309.82 519.83 310.33 521.35 310.96 521.36 311.48 520.36 313.61 520.01 316.01 521.19 318.18 520.46 319.23 517.88 320.22 516.9 320.34 514.43 319.98 509.75 319.74 508.51 319.93 505.28 320.96 501.83 321.07 499.74 321.95 495.51 321.96 493.42 322.15 492.68 322.5 491.79 324.11 492.11 324.93 491.88 327.78 491.33 329.67 493.69 329.53 494.18 329.97 493.41 330.94 492.73 332.7 489.95 333.87 488.34 336.56 486.58 338.28 486.88 341.3 486.21 345.05 483.76 349.51 485.22 350.96 488.1 352.2 490.61 353.92 492.23 355.3 491.75 356.26 489.05 355.81 487.34 353.98 486.05 353.5 484.19 354.01 482.11 353.89 481.22 352.88 483.12 352.62 483.36 351.49 480.77 349.45 474.82 347.62 472.26 347.3 470.72 346.54 470.75 344.96 472.58 343.66 472.66 343.04 471.66 341.69 470.28 341.66 469.44 343.26 468.67 343.6 467.13 343.46 465.09 341.42 464.8 340.15 465.25 338.71 466.57 337.39 467.32 336.18 467.41 333.92 467.02 333.09 465.93 333.12 463.93 333.96 462.66 334.12 459.31 333.9 458.06 333.41 456.39 332.17 454.21 331.5 452.85 327.34 451.91 325.96 450.96 325.63 449.32 326.7 448.23 326.62 447.45 324.83 444.31 323.75 442.97 323.04 440.97 322.38 440.48 321.6 440.84 320.41 442.46 319.41 443.07 318.64 444.53 317.81 445.05 316.32 446.87 315.62 448.4 313.15 450.35 310.52 452.51 307.88 455.24 305.77 455.56 304.92 454.27 304.67 451.9 305.53 449.81 305.27 447.2 304.4 443.72 303.91 443.08 302.7 440.85 300.68 438.67 299.66 436.27 300.11 433.73 297.88 432.55 294.9 431.24 294.38 430.29 293.16 429.94 292.13 427.43 291.23 426.81 291.49 427.24 293.37 426.72 294.99 425.14 295.41 422.35 296.69 420.03 296.22 417.92 296.11 415.64 296.78 413.55 296.49 409.69 295.03 405.89 294.05 403.16 292.89 401.73 291.95 400.08 290.26 398.7 289.81 395.32 290.61 393.71 291.16 390.67 291.13 389.33 289.62 387.79 284.73 387.17 283.78 384.67 281.77 383.87 279.44 383.05 278.69 381.78 278.4 377.79 279.69 374.77 280.37 372.7 280.39 368.9 279.3 366.96 279.9 365.55 279.66 364.12 278.78 363.63 279.23 363.81 281.34 361.76 286.26 360.25 286.28 359.66 284.54 357.15 282.25 355.67 280.61 355.28 279.8 355.26 277.44 354 268.96 352.66 266.1 352.46 263.52 352.69 262.48 350.46 261.37 347.69 259.57 346.93 258.33 347.15 256.53 346.68 255.94 343.04 256.03 340.85 255.57 338.44 254.1 335.01 253.38 333.94 252.56 331.58 252.04 328.69 252.41 326.25 254.42 324.71 256.06 321.76 259.69 320.49 261.48 318.76 265 317.51 269.25 316.42 271.08 316.8 272.82 315.86 273.93 313.77 273.74 312.5 274.46 312.1 276.25 313.41 278.01 312.32 279.56 311.94 280.7 311.03 280.78 310.13 278.69 307.99 277.61 306.6 277.6 305.34 279.08 303.75 278.96 302.69 277.14 302.58 275.01 301.97 274.7 299.74 275.46 298.36 275.25 297.24 275.86 296.59 275 296.58 272.7 296.25 271.6 294.95 271.27 294.07 273.08 293.14 272.98 292.85 269.65 294.28 268.36 292.53 267.99 291.17 267.07 290.75 265.19 289.52 267.14 288.65 265.87 289.64 264.87 288.36 264.58 287.83 265.96 286.98 266.24 285.22 265.24 285.07 264.75 285.97 263.44 286.06 261.85 285.33 260.87 284.52 262.91 283.67 263.46 280.95 262.54 283.71 261.63 283.74 260.48 281.5 259.72 281.22 258.15 280.62 258.06 279.67 259.46 278.57 259.44 277.87 258.03 276.34 258.65 275.18 257.84 272.44 256.83 271.39 257.27 270.88 258.85 268.94 259.22 267.92 258.61 267.47 256.98 265.76 256.71 264.92 257.32 265.73 258.94 265.5 259.81 262.74 259.42 260.99 258.31 259.41 258.05 258.81 257.37 259.91 255.16 259.37 254.06 258.16 253.92 256.92 254.52 256.11 254.01 255.85 252.71 254.54 251.85 254.06 250.73 252.76 250.74 251.96 251.6 250.89 250.49 249.03 250.46 248.7 249.65 250.51 249.04 249.93 247.91 247.97 248.36 246.62 247.68 243.32 247.24 240.33 245.37 237.81 245.19 236.04 244.02 230.81 242.54 228.76 243.57 226.26 244.47 224.08 246.12 222.33 246.91 219.45 247.5 217.41 246.35 214.27 243.83 210.88 242.51 207.01 240.73 205.65 238.63 204.17 236.76 202.2 234.76 199.47 232.7 198.39 232.48 194.45 234.33 189.69 236.15 188.82 237.39 189.33 238.54 191.63 238.1 195.18 238.34 195.7 239.4 194.26 240.16 191.63 242.62 189.44 243.44 186.48 242.14 185.24 241.91 181.5 242.45 179.42 242.19 178.31 240.98 177.77 239.05 177.26 238.82 174.51 239.03 173.32 239.4 172.32 240.64 171.3 242.79 170.05 243.04 167.62 242.71 165.2 243.2 164.26 244.47 165.55 246.79 165.92 248.58 165.66 249.36 163.77 250.73 160.76 253.38 159.97 253.67 158.95 253.05 157.26 252.61 156.31 251.24 155.61 249.05 154.52 246.94 153.84 244.98 151.61 240.72 151.36 238.62 150.05 235.67 149.06 234.13 146.47 232.84 145.42 231.69 142.57 229.35 140.48 227.86 139.8 225.49 139.25 224.72 135.87 222.68 128.93 220.61 127.79 220.64 125.15 221.53 122.49 223.58 120.66 224.38 117.98 223.53 118.23 222.23 120.44 217.26 120.29 215.31 120.68 211.21 120.26 209.41 119.71 208.96 117.82 208.99 114.63 208.69 111.88 209.94 109.17 210.83 106.65 211.26 105.27 210.98 102.02 209.22 99.04 206.78 97.89 206.59 95.63 209.09 93.96 210.16 92.64 210.47 89.31 213.28 88.45 216.06 86.88 216.99 82.76 220.97 81.79 222.73 80.3 223.96 79.49 224.17 73.03 223.44 71.14 222.81 68.97 221.27 67.81 221.07 64.31 221.02 60.88 222.49 57.43 222.82 54.91 221.17 53.32 220.45 50.8 218.64 48.88 218.3 47.25 216.67 46.2 213.93 43.96 211.11 43.04 208.76 42.34 207.8 41.05 206.88 40.78 205.89 39.89 204.69 39.03 202.52 40.02 200.64 40.1 199.64 39.48 197.82 39.1 194.79 36.69 192.24 36.41 189.36 34.4 186.85 34.59 184.64 34.33 183.29 33.49 181.57 32.13 180.36 30.47 179.64 30.68 177.12 32.14 175.04 33.28 173.94 36.06 171.83 38.29 170.96 40.76 170.95 43.7 171.51 46.29 171.46 47.1 170.91 46.53 169.41 42.95 166.68 42.37 166.04 42.66 164.34 43.71 163.34 43.99 161.57 43.19 160.07 42.25 157.32 41.94 155.67 40.95 153.39 39.01 149.78 37.74 146.95 35.41 145.68 33.83 144.53 31.61 143.44 28.35 140.6 26.87 138.72 24.86 138.01 21.74 136.6 20.11 135.54 16.79 133.84 14.22 133.06 10.3 132.51 7.31 132.68 4.31 133.46 2.53 133 1.56 131.06 1.38 128.49 1 126.13 1.24 122.67 1.5 121.25 2.19 120 2.9 119.55 4.01 119.78 6.33 121.05 9.34 122.09 13.46 124.98 16.4 125.82 19.82 126.1 20.87 125.92 23.96 126.19 27.71 124.97 32.04 123.03 34.87 122.82 36.88 121.93 37.43 121.28 37.21 119.91 35.94 118.31 36.17 116.79 36.69 116.02 36.58 113.69 37.32 113.28 39.66 113.25 41.74 112.14 42.33 110.8 43.4 110.05 44.17 108.19 45.31 107.78 48.26 107.98 52.17 109.1 53.89 109.9 56.8 109.47 58.07 110.03 60.11 111.57 61.62 113.16 63.55 114.11 64.93 113.85 65.3 111.12 66.88 108.28 68.16 105.28 69.51 103.86 71.1 101.52 74 97.77 76.68 97.26 79.06 97.48 86.76 98.55 88 98.4 89.85 97.61 91.48 97.48 92.39 98.15 92.07 99.3 90.05 99.8 87.34 100.91 86.11 102.25 85.51 103.92 86 106.09 87.48 106.96 89.69 107.48 91.33 107.48 92.78 108.49 94.58 110.26 95.49 111.89 95.68 113.84 94.22 116.78 94.26 117.47 95.76 119.92 98.94 121.94 99.03 123.41 97.71 126.17 97.61 128.75 98.11 130.85 99.23 131.69 101.47 132.6 105.13 133.62 107.49 133.53 110.68 131.97 113.64 131.45 115.35 130.67 115.79 129.83 115.11 127.45 113.1 121.44 111.79 118.7 109.35 114.42 107.99 110.94 108.15 108.61 108.72 107.4 108.59 106.69 106.52 104.64 104.21 101.92 102.2 100.36 102.42 99.2 103.16 98.8 105.26 99.05 109.64 100.44 112.04 101.51 115.16 102.08 116.03 101.42 116.73 99.08 117.57 97.19 116.58 92.91 115.19 90.64 115.68 88.25 116.66 85.54 118.8 83.22 119.37 81.69 120.37 80.69 122.53 80.35 124.07 81.17 125.56 82.32 126.7 83.64 129.83 84.06 132.84 86.47 134.88 87.47 135.59 88.82 135.98 90.57 135.85 91.95 136.88 93.87 138.55 95.11 138.11 96.36 135.54 97.45 132.96 97.58 131.93 98.99 131.61 101.13 131.08 102.62 131.33 103.99 132.28 105.22 132.06 107.21 129.83 112.83 129.79 114.67 131.14 116.04 133.58 117.65 136.45 120.67 138.52 121.86 139.82 121.36 141.85 118.94 142.96 116.92 142.95 115.79 141.68 112.34 141.48 108.75 142.05 107.79 143.96 106.55 146.59 105.16 148.91 104.7 151.19 104.58 155.53 105.47 159.73 106.05 162.97 107.11 165.56 106.39 166.63 105.24 166.98 103.65 166.1 101.68 167.4 100.42 169.87 101.76 172.88 105.08 173.78 106.31 178.95 109.09 181.01 109.74 184.01 109.37 185.92 108.77 188 108.48 189.73 108.56 190.13 107.51 189.73 105.75 189.65 103.54 188.27 101.32 182.73 98.61 180.56 96.44 179.33 96 178.08 93.76 176.16 92.55 174.2 91.91 168.7 89.59 167.78 87.3 165.15 85.93 164.15 84.91 162.77 85.34 160.34 87.14 159.3 87.57 158.22 87.14 157.47 85.1 156.54 83.75 156.29 82.24 157.24 79.43 157.24 78.18 157.93 77 159.48 76.31 161.88 75.94 163.22 76.08 167.78 77.13 169.94 78.21 173.14 80.28 174.63 81.44 177.01 81.99 180.49 81.82 181.7 82.06 183.38 83.38 186.08 85.17 187.6 87.07 189.23 86.36 191.37 83.68 192.44 82.98 194.17 82.82 196.12 83.3 198.71 83.57 202.52 84.34 206.91 84.61 207.64 83.81 207.63 81.26 207.1 80.48 205.02 79.27 205.06 78.19 206.71 76.41 209.73 69.21 210.62 66.78 211.77 64.61 212.31 62.03 212.65 58.36 211.89 55.7 212.78 54.75 214.28 56.86 215.62 57.51 216.59 58.46 218.08 58.56 218.89 59.66 219.92 60.05 221.1 59.87 222.02 58.33 223.32 58.04 224.58 56.97 225.33 57.72 224.7 58.6 225.05 59.34 227.95 58.85 230.07 58.08 230.99 58.48 232.35 58.27 233.1 59.33 235.35 58.95 355.54 40.95 370.98 38.64 373.11 39.21 373.95 39.97 374.99 38.74 376.3 39.34 377.69 38.7 378.27 39.21 378.4 40.72 379.08 41.74 380.62 42.38 381.43 42.13 382.61 41.01 384.16 40.38 384.11 39.76 382.25 38.94 381.42 37.23 382.34 36.89 384.6 38.24 387.07 38.51 388.48 37.67 390.55 34.68 390.79 32.99 392.28 32.28 394.3 33.7 394.8 34.73 395 36.86 396.18 38.51 396.71 40.84 397.87 42.25 399.46 41.13 401.86 39.91 405.56 37.01 408.17 36.24 410.09 36.39 411.64 37.32 412.93 38.74 414.73 39.07 415.32 38.67 415.28 36.73 414.8 35.08 415.54 34.51 415.7 32.03 413.91 32.05 412.51 31.44 412.71 30.84 414.41 30.89 414.44 29.59 412.99 29.35 413.38 28.4 413.08 26.83 411.25 27.58 410.55 26.82 411.97 26.32 412.19 25.77 411.71 24 412.14 22.86 411.22 21.92 408.64 21.67 409.63 20.15 409.24 17.72 410.12 15.77 411.44 15.59 410.81 14.31 411.19 13.45 412.99 14.43 413.03 12.15 413.58 10.75 414.18 10.65 415.97 11.43 417.15 11.09 416.56 10.07 416.93 9.48 418.35 8.84 418.79 7.84 420.28 6.53 421.86 6.33 423.22 6.86 424.25 6.26 426.26 5.67 427.33 4.6 428.62 7.12 428.4 7.68 426.95 7.88 426.16 9.03 425.53 11.34 425.5 13.39 424.57 16 424.06 18.67 423.73 22.03 424.08 25.71 423.43 27.26 422.34 28.65 422.14 31.14 422.45 31.82 424.26 32.55 427.14 33.16 427.76 33.7 429.98 34.18 431.67 34.99 433.03 35.27 434.07 36.22 435.88 36.74 438.12 36.45 439.33 36.56 441.77 37.58 444 36.12 445.01 36.22 446.29 37.5 446.9 37.27 448.49 35.63 448.82 34.63 447.69 32.68 448.74 32.36 451.26 32.92 453.36 34.72 456.88 36.06 457.7 37.82 458.93 37.18 461.18 36.49 461.42 37.48 463.01 38.04 463.48 36.71 462.71 35.44 463.79 35.15 464.36 35.9 465.7 35.4 466.68 36.6 467.49 36.45 468.66 36.96 469.99 36.67 470.07 37.9 470.67 39.2 471.92 39.41 474.32 39.39 474.47 41.04 475.05 41.44 478.62 41.59 480.27 41.82 484.81 42.81 492.01 44.6 493.65 45.36 497.58 48.41 498.01 49.88 497.89 50.84 499.16 51.43 501.81 51.79 503.45 51.69 504.81 50.77 506.65 48.22 507.65 48.18 507.39 49.79 508.25 50.7 509.71 51.06 515.23 51.65 516.53 50.75 517.27 47.45 516.81 46.9 514.04 45.57 513.71 45.21 512.75 41.83 514.7 39.94 514.37 38.65 515.68 38.77 516.87 35.83 514.66 35.37 513.37 34.47 515.11 33.75 515.53 32.26 517.6 31.22 516.86 30.27 515.19 29.85 515.58 29.05 516.66 28.91 516.91 27.86 518.11 27.58 518.64 26.5 520.32 25.82 520.24 24.85 521.9 24.7 579.55 1 580.77 2.01 583.28 1.96 584.3 2.95 582.17 4.71 581.64 5.55 581.51 7.91 581.01 9.18 579.14 10.22 579.26 11.45 580.95 11.91 580.13 14.91 580.99 16.15 582.79 15.5 583.47 13.73 585.22 14.26 586.23 14.15 587.36 13.32 589.39 11.32 589.8 10.57 593.58 11.63 593.99 13.73 595.17 14.72 596.08 16.02 596.02 17.34 597.73 16.54 599.47 16.87 602.43 18.1 604.79 20.03 605.73 20.27 608.88 18.49 608.17 16.36 606.97 15.65 606.21 13.97 604.38 14.16 603.03 13.35 600.79 10.65 598.68 8.84 598.33 6.89 599.52 5.8 601.05 5.89 603.55 7.16 606.63 8.37 608.22 9.27 610.8 11.26 610.8 12.67 611.51 14.99 612.41 16.17 614.72 17.14 615.49 17.92 615.78 20.07 614.46 22.3 614.62 23.13 616.3 23.91 615.68 24.94 612.69 26.43 612.13 27.73 612.88 30.03 615.09 30.44 616.91 29.81 617.45 30.19 617.83 32.49 618.67 34.45 620.06 35.26 619.94 39.16 621.81 40.22 623.39 38.92 623.76 37.43 624.48 36.84 624.92 34.17 625.14 31.56 625.76 30.78 628.03 29.93 629.38 30.2 630.73 32.62 630.9 33.96 630.38 36.26 631.85 37.21 633.13 38.46 634.81 38.8 635.65 40.63 637.14 39.61 638.32 39.73 640 42.98 637.92 46.17 635.31 47.91 635.87 48.81 637.85 49.39 638.6 50.29 638.85 53 639.54 56.11 640.5 56.67 641.83 56.72 643.3 56.14 646.08 56.77 647.53 59.93 649.27 61.15 650.05 62.73 648.93 63.42 649.12 64.81 648.65 67.24 647.55 71.35 649.52 71.47 650.67 71.99 652.85 73.55 653.29 75.57 653.13 77.48 650.46 79.76 647.94 81.35 647.25 81.54 647.07 82.59 646.38 83.25 644.47 83.9 645.39 85.73 645.48 88 646.23 90.77 648.19 94.76 647.83 95.91 644.9 98.23 643.87 101.49 643.24 102.14 643.61 103.04 643.33 104.55 641.72 105.92 642.41 108.61 641.57 110.94 645.51 110.04 648.99 109.85 651.17 110.35 654.34 113.08 654.46 115.29 656.27 115.44 657.44 114.93 659.96 113.05 661.25 113 661.84 113.62 662.04 115.68 660.86 116.75 657.87 117.68 656.81 118.53 657.49 120.53 659.24 120.87 660.99 121.97 664.32 121.49 665.8 122.06 669.58 123.01 672.66 122.22 673.19 122.75 673.22 123.93 672.79 125.02 672.95 126.22 672.22 129.17 673.01 130.68 673.13 131.83 672.2 134.25 671.42 137.95 670.39 140.25 669.9 142.18 669.09 142.95 668.31 145.16 667.28 146.37 666.97 147.52 668.12 149.93 668.26 151.34 669.07 152.58 669.75 154.69 671.03 156.64 672.18 157.46 674.41 158.21 676.21 156.88 678.36 151.66 679.29 150.82 684.13 149.62 686.66 149.8 689.62 149.76 692.39 149.48 694.38 149.91 697.46 150.91 699.42 152.93 701.06 154.33 702.59 154.76 704.73 156.07 707.19 156.72 708.71 157.85 709.03 159.49 708.2 162.36 705 166.73 704.52 167.66 702.06 170.02 701.47 171.27 700.22 172.01 698.61 172.39 696.46 173.38 695.31 174.34 693.71 176.18 693.71 177.48 694.23 179.09 695.91 181.06 696.78 181.39 698.99 181.06 699.66 181.8 701.16 182.11 703.49 181.59 702.2 180.36 703.11 179.54 705.82 179.45 705.77 181.13 706.63 184.09 706.72 187.06 706.38 189.36 705.14 193.06 701.09 195.67 701.09 196.19 703.4 197.16 703.99 198.96 703.19 200.41 705.24 201.61 706.04 204.61 705.8 206.16 704.52 209.07 704.1 211.27 702.7 212.78 701.42 213.35 701.06 214.94 700.18 216.17 699.69 217.76 699.17 220.88 698.72 221.97 699.55 224.57 700.43 225.65 701.26 228 703.33 231.9 703.25 234.5 702.4 237.23 702.93 239.87 702.62 242.11 700.97 244 698.67 245.63 699.04 246.39 698.64 248.04 699.54 250.06 699.6 251.58 698.89 253.91 702.15 254.19 701.62 252.58 702.06 251.8 703.39 250.97 705.84 250.63 708.24 249.81 709.02 248.93 710.27 248.48 713.56 249.45 715.45 249.73 716.83 249.32 719.51 247.51 721.51 246.91 725.63 244.64 728.77 240.99 729.84 239.52 732.19 239.65 733.26 240.46 734.88 242.52 736.31 243.79 737.25 243.89 740.65 243.48 742.69 242.52 743.31 239.81 744.14 238.84 747.96 236.58 750.21 234.94 753.79 231.87 754.56 229.67 754.69 227.57 753.2 225.04 750.6 222.58 750.15 221.51 749.1 216.92 749.31 216.31 751.28 216.92 754.1 218.44 755.18 219.49 757.56 221.04 759.45 222.54 760.14 225.34 759.59 229.16 760.06 230.99 759.86 231.84 758.69 233.42 758.72 237.17 756.14 240.79 755.4 242.15 755.44 242.92 757.31 244.09 758.12 245.02 756.79 250.61 755.55 253.26 755.24 255.08 752.88 257.7 750.09 260.17 749.34 261.32 749.31 265.86 749.65 266.81 750.69 267.1 751.62 268.63 751.64 270.3 752.72 271.29 752.58 273.59 751.86 274.42 753.63 277.18 755.94 279.33 758.66 280.31 760.78 281.68 764.65 282.35 766.24 283.05 766.69 284.08 766.24 285.83 766.26 287.37 767.26 289.05 770.67 289.68 773.6 289.73 777.91 290.38 779.88 290.34 783.84 288.76 784.61 288.84 786.33 289.77 787.58 290 790.8 289.07 792.78 289.51 794.85 291.83 795.8 293.4 796.24 295.1 798.13 297.96 Z"/>
</g>
</svg>