<?xml version="1.0"?>
<svg xmlns="http://www.w3.org/2000/svg" version="1.2" baseProfile="tiny" width="800" height="638" viewBox="0 0 800 638" stroke-linecap="round" stroke-linejoin="round">
<g id="4213807">
<path d="M 767.78 119.71 770.61 124.8 771.63 126.87 774.56 134.14 775.32 139.51 776.04 142.79 777.31 146.95 777.51 152 778.12 154.28 779.48 161.58 781.85 167.94 789.75 175.39 791.88 179.09 793.8 181.07 797.81 183.59 799 184.13 797.89 184.97 796.45 187.56 795.06 187.54 793.29 187.03 790.98 185.75 790.05 182.55 789.37 181.97 785.92 181.04 782.36 180.79 778.95 181.12 775.53 181.72 773.27 182.78 772.14 183.94 771.65 186.44 772.18 189.52 772.67 190.55 773.6 191.16 775.18 191.43 778.7 191.41 779.32 192.41 777.75 195.05 775.74 196.23 773.98 196.75 771.92 196.85 770.28 196.59 768.91 195.56 767.56 192.25 765.95 192.27 764.19 194.17 761.68 194.92 759.65 194.94 758.38 194.32 756.94 191.99 755.52 190.73 753.63 190.89 752.69 193.22 752.43 195.93 753.7 198.04 754.96 201.83 755.73 202.81 757.22 202.72 761.05 200.59 763.96 200.94 766.56 200.68 767.63 200.98 768.62 202.76 768.31 204.98 765.99 204.99 764.84 204.2 763.55 203.92 762.07 204.12 760.19 203.84 759.5 204.39 759.52 205.52 758.05 207.53 756.45 208.26 755.67 209.54 754.42 210.33 752.42 208.78 751 207.02 750.77 205.29 749.59 204.51 747.77 205.39 746.63 207.32 744.67 208.5 742.67 212.26 742.1 214.36 740.67 214.6 738.88 213.66 736.13 214.1 734.22 214.05 733.14 213.43 731.77 213.51 731.69 215.01 732.91 215.93 733.01 217.22 731.13 217.97 730.08 219.04 728.84 218.03 728.51 215.59 726.86 214.97 723.28 215.24 722.11 215.91 720.7 218.1 718.04 218.45 716.45 219.43 714.25 219.07 712.04 219.12 709.25 217.89 706.56 218.49 706.55 219.74 708.12 220.7 707.89 221.7 706.23 222.61 703.04 225.48 701.1 225.82 700.29 225.08 698.5 224.78 697.39 225.03 696.65 226.01 696.86 228.47 696.56 229.86 695.79 230 693.52 228.23 691.47 227.55 685.77 228.45 683.44 229.52 681.84 229.96 679.06 229.89 676.46 228.85 672.26 227.66 670.45 226.82 666.08 225.53 663.89 226.32 661.21 228.33 661.28 230.42 660.64 231.6 658.98 231.88 656.38 231.13 654.09 229.56 652.1 228.99 650.86 229.11 649.17 230.32 649.08 231.32 650.23 233.57 652.19 235.78 652.03 237.51 650.28 237.77 645.45 236.36 639.82 237.52 635.92 237.93 634.09 239.16 632.21 242.43 630.36 245.2 629.85 246.83 629.73 249.27 629.19 251.99 625.32 255.66 623.56 258.38 616.17 263.37 614.41 265.43 613.84 267.3 613.13 268.31 611.23 269.66 609.57 271.83 608.16 273.05 606.97 273.16 603.62 272.8 600.88 273.05 595.17 274.23 591.6 274.48 589.41 275.42 589.13 276.54 589.3 279.03 589.95 280.28 591.33 281.97 589.91 283.37 588.85 283.47 586.09 282.58 581.29 281.39 578.6 281.14 574.23 281.2 571.75 281.46 567.25 280.54 564.99 280.54 562.97 282.17 563.25 283.24 564.73 286.06 563.81 287.08 562.13 286.79 560 285.6 557.77 285.29 553.6 285.59 551.47 286.16 549.03 288.73 546.91 289.94 545.51 290.33 543.73 289.96 542.29 288.64 538.34 288.23 533.1 288.68 532.11 289.63 531.63 291.8 530.02 293.82 527.44 296.43 525.85 296.59 524.27 296.23 519.59 293.91 517.33 292.93 512.86 291.99 508.12 292.64 504.16 292.83 502.03 292.42 498.54 291.43 493.72 291.39 488.96 292.15 487.5 292.61 483.99 292.72 481.33 291.7 477.58 290.62 475.22 291.82 472.52 291.93 471.95 293.88 472.28 294.85 471.48 296.68 469.43 298.33 466.39 300.39 464.03 300.82 461.43 299.56 460.48 299.5 460.07 301.46 459.35 302.25 458.93 303.72 459.54 306.3 460.62 308.07 461.27 311.72 461.45 314.32 463.48 315.66 463.8 317.22 463.56 318.57 461.29 320.73 458.02 322.45 455.54 324.33 451.73 325.68 449.3 325.65 447.06 325.87 445.61 326.81 444.09 328.47 442.69 331.83 441.03 334.75 439.06 336.28 437.3 337.01 430.02 339.6 428.67 340.18 426.96 341.39 424.84 343.92 422.14 345.71 413.62 349.79 411.51 350.65 408.19 352.52 405.92 352.82 403.38 355.21 401.93 355.87 400.14 354.86 400.1 351.53 397.5 351.55 395.88 351.95 393.93 353.81 393.02 354.13 391.16 353.9 388.88 353.28 387.69 353.48 386.24 352.76 385.57 350.39 383.94 349.59 383.29 350.62 382.3 351.07 380.21 350.63 379.73 349.07 378.75 348.3 377.72 349.85 376.73 350.29 375.08 349.53 372.85 349.51 371.8 350.11 369.69 352.26 368.24 352.58 365.93 352.22 364.77 352.38 363.44 353.89 362.07 354.49 358.77 354.58 357.11 355.71 354.95 355.9 350.93 355.94 348.44 356.31 346.73 357.42 344.65 357.79 341.24 359.87 339.07 360.47 336.35 362.36 331.88 363.54 329.77 364.25 327.74 364.45 325.36 364.24 323.52 364.39 317.61 365.91 316.29 369.52 315.73 373.19 314.48 375.35 313.79 377.08 311.74 377.25 310.42 378.09 309.32 378.22 306.24 377.8 303.97 379.97 303.08 382.05 302.16 382.8 301.15 382.87 298.61 382.26 297.08 380.6 295.05 380.01 293.4 380.01 290.93 380.59 289.15 381.52 287.15 383.62 283.7 385.79 280.33 386.76 279.29 386.69 279.05 385.69 277.7 384.72 273.6 383.11 271.71 383.09 262.46 384.2 259.8 384.72 258.36 385.27 254.16 387.34 253.51 388.6 251.16 390.72 251.55 391.65 254.49 393.75 255.17 395.46 254.94 397.35 253.63 399.95 251.79 402.11 250.46 402.91 247.67 403.39 245.84 402.57 245.63 401.31 245.88 399.51 244.52 396.45 243.83 394.4 242.36 394.19 240.41 397.08 238.12 400.07 236.52 401.19 233.51 402.16 231.71 402.96 225.68 404.21 223.1 405.62 219.07 407.07 216 404.85 213.84 404.01 211.62 404.12 209.88 404.58 205.56 407.08 204.97 407.7 203.72 411.2 201.99 412.21 199.9 412.93 196.66 413.49 193.95 412.79 190.22 411.03 186.42 410.39 185.65 408.09 184.67 407.1 183.35 407.63 180.49 409.94 177.1 412.08 174.05 413.65 171.8 415.68 169.95 417.03 168.48 416.94 167.24 416.03 165.93 414.53 162.5 414.29 159.3 413.31 157.53 411.97 156.02 411.79 154.31 412.96 154.23 413.72 155.16 414.93 159.05 417.02 159.13 418.35 156.41 420.3 153.22 422.09 151.05 422.77 148.98 422.81 146.93 422.17 145.84 421.23 143.37 420.47 142.01 420.41 141.2 420.92 140.94 423.03 140.36 424.93 138.27 427.91 138.63 431.26 139.64 432.66 139.94 434.17 140.99 435.44 142.33 438.13 144.11 439.92 145.15 441.7 145.28 442.72 142.21 443.36 142.51 445.36 145.61 448.21 147.76 451.37 148.78 452.44 150.29 454.71 150.81 457.09 152.2 460.01 153.82 461.55 154.44 462.74 154.29 466.59 152.34 468.93 152.62 469.83 154.19 470.84 156.67 471.15 159.91 472.02 161.55 472.97 164.07 476.95 165.52 477.86 169.68 478.05 171.31 479.25 171.68 481.5 170.81 483.19 171.71 486.01 173.9 489.18 175.61 490.66 177.02 491.4 180.19 493.87 181.71 494.7 185.11 497.47 186.1 500.19 187.91 501.19 189 500.93 190.77 501.43 190.96 502.67 190.53 503.86 188.97 505.79 188.62 506.81 189.08 508.73 189.75 509.53 191.86 510.37 193.92 510.4 196.47 510 198.04 510.47 200.23 512.04 202.67 515.45 203.56 517.28 205.5 519.28 209.5 519.62 211.34 519.94 213.21 522.3 214.67 523.13 216.16 523.45 219.92 525.68 221.02 527.08 222.88 530.05 225.24 532.12 229.54 532.76 230.88 532.78 232.31 533.55 233.11 536.36 235.04 537.77 237.97 538.81 240.27 540.17 241.9 540.8 246.58 539.93 248.84 538.5 250.41 538.22 252.57 538.93 256.67 542.97 256.95 544.96 256.19 547.26 257.65 548.59 259.51 548.98 262.12 549.08 263.47 549.99 267.8 554.36 270.1 557.04 272.24 557.73 273.07 558.65 274.89 561.67 278.04 564.15 279.25 566.25 281.24 568.36 280.83 572.6 282.27 573.63 282.45 574.67 281.74 576.33 281.45 579.95 283.15 583.72 283.78 585.68 285.42 586.97 286.27 588.23 290.31 590.39 292.25 591 292.76 591.68 294.12 592.12 295.25 593.02 297.22 595.8 297.26 597.86 299.41 600.5 299.7 602.74 300.49 604.57 302.14 605.88 302.64 606.89 302.49 608.86 304.93 609.08 305.74 609.95 305.97 611.11 306.9 611.8 309.43 612.42 310.66 613.58 310.62 614.41 314.5 618.17 317.28 620.67 317.36 621.69 316.62 623.76 320.11 625.43 319.36 626.23 316.78 626.34 313.16 629.17 311.24 631.1 307.2 634.3 305.94 636.44 303.9 637 304.6 633.77 306.84 629.08 309.2 625.41 310.27 621.72 309.44 619.66 304.78 616.78 303.38 615.67 300.89 614.14 299.12 612.65 296.74 609.57 291.09 604.39 286.13 602.31 283.53 601.65 281.84 601.5 278 602.76 275.24 604.33 272.71 606.1 271.13 606.64 267.36 610.35 265.77 611.65 262.93 612.95 261.73 612.11 262.29 608.14 262.84 606.26 264.06 605.07 265.45 604.3 267.36 603.92 269.18 603.92 270.3 602.7 270.14 601.3 267.84 601.59 261.2 603.53 255.98 606.31 252.77 606.92 249.76 607.21 244.1 609.16 242.81 608.39 248.07 601.52 250.44 603.13 253.64 601.06 257.03 599.14 259.29 598.69 260.66 600.36 262.19 597.16 262.4 594.28 261.29 593.28 255.76 593.42 252.33 593.23 250.16 593.52 248.73 594.4 247.37 593.64 248.3 591.38 250.6 588.73 252.89 587.37 255.02 585.79 257.08 584.85 259.07 584.84 260.83 584.1 265.43 581.41 265.85 579.78 265.78 576.03 264.91 575.34 261.62 576.29 259.14 576.63 257.83 576.34 251.78 578 248.95 579.17 244.83 579.76 242.82 580.19 239.55 580.48 237.32 580.28 236.19 579.48 234.84 579.43 233.13 577.74 230.93 577.96 229.64 577.42 239.3 571.89 240.46 570.84 242.56 569.71 246.09 567.3 249.22 565.52 248.94 563.5 247.32 563.83 245.64 565.46 242.31 566.84 234.5 569.66 231.53 569.83 229.58 569.6 229.3 568.94 231.29 566.48 233.22 563.78 234.61 561.38 232.96 561.25 231.53 561.78 229.74 563.46 225.87 565.01 221.07 565.24 221.66 562.47 220.21 561.95 218.34 561.92 213.73 563.62 214.39 561.5 211.67 562.88 208.96 564.52 205.36 567.06 201.71 568.52 200.18 568.83 198.62 567.23 198.33 566.41 199.01 562.68 201.84 560.38 204.51 554.89 205.63 550.13 206.42 549.34 205.78 546.98 204.43 547.51 202.36 547.7 200.58 547.3 197.48 544.87 194.55 541.45 194.67 539.6 193.73 539.07 191.87 538.77 185.47 540.41 181.18 540.45 178.55 540.12 174.8 540.25 171.96 539.45 169.12 538.93 166.92 537.97 165.07 536.79 165.3 533.43 164.95 531.29 163.23 530.34 160.4 530.94 154.58 529.47 149.64 527.52 148.01 528.21 145.27 527.65 144.34 526.18 145.19 523.71 148.78 521.67 153.16 519.57 156.66 517.72 158.78 516.39 161.38 513.49 160.26 511.22 156.93 511.02 154.23 511.64 145.65 512.43 141.59 513.07 136.77 512.51 133.42 510.06 130.71 509.5 128.51 507.52 129.84 504.21 130.96 500.63 132.79 498.66 134.56 497.58 135.02 496.73 133.98 495.69 131.34 493.88 129.87 492.48 123.98 489.15 120.39 486.45 119.29 483.99 120.5 482.36 122.53 481.92 123.44 480.11 122.65 476.42 121.93 474.93 118.98 474.13 114.87 473.37 112.6 473.71 111.44 474.39 110.38 476.84 109.88 479.56 107.84 481.39 106.14 483.32 105.59 485.99 106.9 489.14 109.06 491.71 107.65 496.95 106.06 497.25 108.53 504 109.02 507.4 110.22 510.17 110.25 511.26 109.22 513.62 108.12 514.5 106.34 515.12 105.89 516.19 107.61 519.4 110.05 521.4 109.22 522.78 105.81 522.9 104.86 523.43 102.9 522.65 97.4 519.69 97.28 519.01 99.89 515.65 99.9 513.75 99 512.23 98.07 514.9 95.71 514.16 93.26 514.39 92.43 512.56 93.52 508.75 92.48 507.5 91.34 506.98 87.73 500.9 85.98 499.78 87.04 496.24 86.43 494.83 83.66 495.48 81.94 498.49 76.78 500.78 73.29 500.7 73.17 498.16 74.44 496.29 76.22 497.4 76.84 495.77 78.48 493.87 83.41 492.06 82.51 488.98 81.92 487.82 82.42 484.98 80.4 484.57 77.66 484.59 75.71 483.72 76.48 481.48 75.95 479.98 78.87 477.92 82.02 477.12 84.82 475.77 85.04 474.89 81.81 472.95 81.62 471.06 79.07 470.82 76.14 471.64 68.12 477.56 64.25 480.23 60.97 482.31 61.3 480.46 64.59 475.04 66.85 472.32 69.98 469.55 71.02 467.34 75.47 462.94 76.56 461.28 76.97 458.17 76.45 455.36 78.56 452.92 78.63 451.46 77.58 450.23 75.02 449.84 74.02 448.73 73.94 445.24 72.83 442.75 74.73 442.28 75.62 440.43 77.55 440.3 81.46 441.56 84.35 441.88 84.62 440.62 83.29 438.92 79.75 435.27 74.33 434.56 72.79 433.01 72.15 431.53 70.5 430.06 72.37 425.85 71.17 422.48 71.95 420.52 74.31 419.97 75.81 419.35 79.73 419.09 83.72 419.23 86.53 417.35 87.7 415.15 87.77 413.32 87 411.85 84.89 411.05 81.21 411.28 77.96 411.16 74.85 412.03 71.33 412.21 65.28 413.81 61.99 413.23 61.26 410.47 63.25 406.54 63.91 404.71 61.58 401.04 58.54 399.84 56.54 402.05 54.38 403.01 51.87 404.96 50.3 407.48 48.03 410.02 45.94 411.21 42.45 412.61 40.19 413.04 37.09 414.66 35.58 413.24 37.36 412.65 39.28 411.39 37.31 410.12 35.18 409.52 37.59 407.7 41.32 407.38 43.27 406.58 43.93 404.36 45.39 403 48.31 401.87 51.36 400.05 50.44 398.9 47.77 398.66 47.66 399.02 44.32 400.35 41.15 400.36 39.98 401.29 32.55 401.84 23.81 402.11 17.7 402.98 5.99 403.1 2.24 402.74 1 400.75 5.95 399.12 12.55 397.14 27.39 394.12 32.84 393.29 38.61 392.72 44.5 391.43 46.9 389.87 50.25 388.85 57.92 389 61.12 387.8 66.58 383.59 72.84 382.25 78.91 379.95 81.83 378.1 82.72 376.94 82.76 375.82 84.52 372.11 84.89 368.68 85.65 365.59 85.86 363.62 83.04 364.82 80.65 364.19 80.66 359.29 81.63 357.38 82.65 356.16 80.9 356.11 75.36 356.83 71.65 356.92 65.27 358 59.31 360.03 58.86 358.14 60.13 357.26 60.96 351.22 62.3 350.8 64.54 350.86 67.07 350.6 70.46 349.83 72.28 346.14 69.98 347.35 67.95 347.8 65.5 347.91 62.33 348.37 60.56 347.65 61.41 345.73 63.12 345.68 64.54 339.98 65.93 338.26 65.98 337.34 67.97 337.17 68.7 335.45 72.6 336.31 74.22 335.75 76.31 336.31 76.27 334.89 75.46 333.53 75.59 332.11 76.61 330.68 80 330.19 81.69 329.65 84.34 327.55 87.74 326.97 94.01 327.4 95.91 326.58 95.86 325.59 94.68 324.38 92.17 323.19 91.18 322.18 90.76 319.93 91.51 316.37 92.79 314.58 96.74 312.24 97.62 310.7 93.63 309.48 91.45 308.38 89.47 308.11 84.91 309.27 83.67 308.38 83.87 306.84 85.33 305.41 86.9 304.84 86.38 303.73 84.75 303.44 82.64 302.56 79.76 303.24 79.78 302.43 81.05 301.64 82.88 299.79 83.47 298.67 82.79 297.88 80.34 297.52 78.1 296.32 76.35 296.96 71.49 297.17 71 299.91 68.46 300.7 66.76 300.18 69.08 297.2 68.87 296.5 67.09 296.93 64.25 296.62 59.21 297.4 56.63 297.47 54.49 298.22 49.39 299.01 45.96 300.04 41.03 301.14 37.49 302.33 36.42 301.9 39.22 300.61 44.63 297.66 47.54 296.5 49.86 296.06 52.69 295.17 60.01 292.31 62.01 291.14 63.52 289.9 64.84 289.64 68.24 287.97 71.77 288.34 73.54 287.54 78.34 283.61 79.34 281.23 80.56 281.33 83.86 280.44 84.92 279.17 85.01 275.91 86.51 276.13 88.09 277.17 89.1 279.28 88.47 282.08 87.39 284.11 87.95 284.65 88.6 288.45 91.99 289.79 93.87 289.87 98.41 287.57 99.68 287.29 102.73 288.16 106.01 289.43 107.64 288.53 106.32 287.07 105.08 284.92 106.27 284.29 107.91 284.57 111.91 287.82 113.37 288.41 117.35 288.09 120.97 287.97 124.55 288.2 127.79 288.15 127.41 288.76 120.75 292.47 117.18 293.62 114.24 293.76 112.05 294.72 118.25 295.49 118.85 296.72 121.96 297.26 127.09 296.67 130.02 296.79 132.82 297.3 129.63 298.95 127.63 300.67 127.06 301.8 128.9 302.88 134.72 305.04 135.4 304.15 138.57 303.82 140.79 304.19 142.82 303.89 144.55 304.74 142.12 305.55 138.62 307.04 138.25 308.25 138 311.54 138.54 312.72 145.6 311.41 148.26 310.44 152.38 314.59 153.39 316.01 155.76 317.64 157.81 317.33 160.1 317.72 163.85 318 166.56 317.62 169.05 317.6 175.05 317.89 178.79 319.04 185.74 319.78 187.91 321.5 185.48 324.94 179.45 332.4 176.84 334 176.05 336.41 177.44 338.49 177.9 339.76 178.99 340.99 178.32 342.88 174.31 346.39 172.13 347.94 169.24 349.65 163.12 350.2 161 349.96 160.34 348.66 159.2 347.48 155.11 344.97 151.22 343.07 146.39 344.69 145.37 345.79 144.12 349.24 144.23 350.57 145.13 352.09 147.26 354.34 148.27 357.12 150.72 358.71 153.29 359.15 155.49 358.54 158.85 356.68 159.64 358.39 157.88 360.06 155.5 363.03 152.28 368.08 150.61 369.93 148.52 371.28 148.07 375.23 146.48 377.57 144.8 379.05 143.96 381.2 144.83 381.87 147.44 380.1 149.56 376.86 151.45 374.94 153.44 372.04 154.16 370.55 157.76 367.56 162.22 365.39 164.07 364.04 167.07 362.4 169.12 360.85 170.29 358.82 173 355.82 174.8 353.5 178.51 351.07 183.24 348.95 185.15 346.34 187.3 345.67 188.28 345.91 189.66 347.04 190.43 349.13 189.83 352.51 187.05 356.42 185.48 359.16 183.13 361.66 181.97 363.48 180.45 366.58 178.59 369.06 177.97 370.39 176.16 371.96 176.24 373.06 177.54 373.31 181.51 373.18 181.58 374.77 182.63 376.08 183.74 375.9 185.42 374.24 185.09 373.23 185.95 370.96 186.44 368.33 187.85 367.17 190.16 366.15 192.8 365.36 195.47 363.3 195.77 362.2 197.78 360.5 200.05 359.02 204.43 357.06 206.49 355.45 208.19 353.31 208.44 352.27 207.2 350.05 205.13 348.45 201.93 348.93 197.4 345.37 198.97 344.18 199.65 342.36 201.01 340.16 203.69 335.02 205.55 330.82 207.15 328.9 209.01 327.27 210.91 326.76 214.11 326.63 217.09 327.68 222.25 330.04 225.76 330.35 230.54 330.51 235.14 329.46 238.81 328.83 243.72 326.26 245.72 325.57 254.49 325.1 261.42 325.06 266.84 324.9 270.89 325.18 277.77 325.88 280.23 325.1 282.99 325.88 285.58 328.51 286.05 330.37 288.71 332.2 290.6 331.27 288.94 330.84 287.16 328.91 285.22 327.27 284.33 325.45 282.91 324.01 277.91 322.19 264.1 322.64 257.06 322.62 250.84 322.86 247.69 323.2 246.24 322.8 245.3 323.39 241.86 324.44 240.18 325.18 233.89 326.8 230.78 328.09 226.89 328.34 223.77 328.07 218.61 326.76 215.23 325.42 212.22 325.23 208.54 323.84 203.98 325.82 195.01 334.7 193.28 337.14 192.19 337.06 191.66 334.91 192.33 333.51 195.13 331.09 196.82 328.24 189.94 330.03 193.57 324.11 196.35 320.82 194.83 320.78 194.1 319.63 195.03 316.73 198.85 312.55 201.03 310.8 203.35 309.77 205.81 307.01 206.3 304.24 205.3 302.63 204.69 299.24 204.9 295.33 205.47 292.44 206.79 289.34 205.55 288.32 203.54 289.91 198.39 291.9 195.38 293.76 194.38 296 186.82 295.59 185.75 294.3 183.4 294.44 179.86 293.81 181.34 292.09 183.83 290.09 186.75 288.78 189.55 288.16 192.99 286.86 195.99 285.17 197.67 283.02 199.43 281.51 202.22 280.76 205.41 278.96 206.26 277.47 203.41 277.49 200.91 278.58 200.15 279.36 199.24 278.39 200.42 276.74 201.66 274.33 200.08 274.12 197.87 274.34 196.24 276.57 194.49 278.15 192.34 280.47 190.74 281.91 190.19 281.1 191.4 279.23 191.73 277.73 194.72 274.98 196.66 272.54 198.48 271.27 200.12 270.76 202.26 269.65 203.16 268.19 202.5 266.32 200.73 266.19 199.74 264.76 198.53 264.26 195.18 264.42 192.45 265.13 193.51 263.73 198.35 261.83 199.29 260.22 200.43 259.24 200.43 257.13 197 253.94 195.48 253.41 193.08 253.07 192.88 251.97 194.21 249.14 192.56 248.38 190.52 248.51 189 249 183.87 249 181.8 249.37 178.58 250.75 176.58 251.24 176.97 250 181.13 248.06 186.25 245.37 187.7 243.96 187.66 241.34 186.78 240.25 185.45 239.58 183.69 238.1 182.6 237.67 178.82 237.45 178.27 236.74 178.99 235.54 180.84 234.9 181.97 234.01 181.75 232.03 181.15 230.6 179.01 230.72 176.05 232.67 173.37 234.92 173.47 233.6 176.86 229.52 178.66 228.03 180.59 224.44 181.15 218.21 179.33 217.31 178.37 216.29 173.06 213.79 170.54 215.36 168.69 214.13 169.49 210.56 170.66 207.8 172.26 206.5 173.73 204.05 175.37 203.17 180 202.11 181.52 203.48 185.09 203.83 187.15 205.02 188.93 204.99 190.46 204.08 194.51 206.29 198.77 205.25 203.42 204.59 207.92 202.72 211.83 201.75 214.53 200.91 215.57 199.18 216.19 197.36 217.76 194.19 226.39 194.29 230.83 193.65 232.85 194.59 234.92 194.92 238.11 194.7 240.41 194.02 243.32 193.78 247.59 194.7 252.16 194.07 254.45 193.92 255.97 194.2 255.59 195.03 252.28 195.45 248.51 197.09 244.09 198.84 246.18 199.23 250.63 199.19 252.74 199.56 254.18 200.26 256.25 200.53 256.7 201.8 256.84 203.61 257.83 204.57 259.87 204.67 262.45 203.76 264.72 202.24 266.3 199.87 268.06 199.92 268.09 203.65 266.43 204.89 262.95 205.64 262.33 207.2 259.68 207.5 256.11 207.38 255.84 204.55 255.48 203.08 253.53 203.49 250.78 203.6 249.15 203.94 244.5 203.23 240.73 201.69 239.35 200.91 232.91 198.8 230.97 199.32 228.95 199.37 226.84 198.71 221.09 199.25 217.74 200.77 219.34 202.15 221.28 202.76 223.8 202.56 224.74 203.05 221.29 204.42 219.11 205.72 217.51 206.34 215.86 207.41 212.86 208.2 209.33 208.75 206.89 209.77 202.64 212.42 200.58 213.56 199.92 213.27 196.68 214.36 195.41 213.82 193.8 214.6 192.14 216.22 187.58 222.01 187.02 224.28 187.79 224.58 189.44 223.47 190.09 224.25 187.39 227 187.88 228.92 190.36 228.59 192.1 229.25 196.3 229.58 205.09 227.85 207.77 228.16 205.99 230.7 199.45 232.72 196.38 233.14 194.77 233.83 194.44 235.6 195.02 237.93 196.76 238.62 201.61 238.19 210.07 237.74 217.45 237.57 220.27 237.98 221.77 238.43 221.76 240.48 219.62 242.53 218.7 243.98 216.53 245.3 213.95 244.97 209.06 245.86 206.41 246 205.04 246.57 207.13 247.76 209.15 248.02 211.95 248.03 214.37 249.95 213.35 251.75 215.01 253.79 219.39 253.31 224.29 251.69 229.62 250.62 229.16 252.93 229.4 253.51 226.61 255.35 221.8 257.97 220.31 259.52 223.25 260.74 225.79 261.3 226 263.15 226.73 265.79 227.75 267.34 232.3 266.49 235.99 263.02 242.24 256.81 248.44 250.39 250.98 247.99 252.62 245.18 256.25 241.23 258.84 238.12 261.48 237.59 262.35 238.27 262.08 241.51 260.97 246.17 261.28 248.11 257.37 255.05 255.31 258.04 251.98 261.41 246.71 270.65 245.31 273.5 245.86 275.5 245.88 278.11 244.47 280.74 244.28 283.17 246.03 282.19 247.41 280.51 249.94 278.53 249.39 277.3 249.29 275.08 248.81 272.94 249.75 270.41 251.03 268.16 251.99 265.71 253.37 263.86 255.44 261.93 258.02 260.54 259.97 260.27 260.41 261.51 261.55 262.07 265.03 258.87 266.42 257.39 269.18 256.7 275.01 255.68 277.56 254.19 280.5 249.97 282.59 248.11 284.36 248.39 284.14 253.22 282.48 255.73 279.62 253.78 278.04 257.31 279.87 259.56 282.32 260.22 285.46 257.94 287.16 257.18 291.83 256.2 294.72 256.72 298.66 257.1 300.52 256.05 301.46 253.24 304.1 251.39 306.17 250.31 307.2 248.74 307.78 245.73 309.2 243.14 312.16 242.64 316.64 241.26 319.28 240.02 320.79 238.36 323.13 238.25 325.77 243.42 325.66 245.16 328.8 248.2 331.45 249.19 337.24 248.45 342.59 249.49 345.13 250.12 347.76 251.21 350.63 252.13 353.85 252.88 356.1 252.86 358.68 254.97 359.36 257.23 359.38 259.65 359.01 261.43 361.25 263.76 362.75 263.19 364.69 261.02 362.57 259.25 361.08 257.56 361.09 254.61 363.06 253.91 366.09 254.6 368.34 254.53 366.5 252.08 366.79 250.6 366.19 249.67 362.75 251.01 359.48 251.34 356.36 250.48 353.3 249.35 350.96 248.24 346.82 245.42 346.53 244.12 346.91 242.93 348.49 241.19 350.37 239.81 351.36 237.8 353.13 237.57 353.15 236.57 350.8 236.13 346.51 234.87 344.65 234.81 342.44 233.97 338.58 232.15 337.32 230.77 333.86 230.09 332.03 230.71 331.79 229.75 333.95 227.73 334.38 226.41 337.07 223.35 339.21 221.72 341.15 220.57 342.64 219.09 342.05 217.67 337.51 216.91 335.13 216 333.82 215.1 334.93 213.76 339.35 211.96 341.46 212.13 343.19 213.14 344.65 214.79 345.25 216.21 345.01 218.21 345.15 220.03 346.93 222.5 348.64 221.57 350.74 218.82 350.87 217.92 353.74 216.44 354.35 213.75 355.38 212.47 355 210.75 353.28 208.85 351.19 207.04 351.36 204.59 352.09 202.35 351.27 200.7 349.02 199.95 349.07 196.54 350.24 194.91 350.5 193.09 349.66 189.57 349.61 187.95 348.36 185.87 348.15 184.52 349.91 185.08 352.09 187.36 354.01 189.9 355.15 192.69 356.69 192.29 357.89 191.11 358.49 189.66 361.04 192.14 364.43 192.93 367.28 194.87 368.76 196.38 370.61 197.56 373.71 198.57 374.74 197.35 373.99 193.54 373.36 191.59 372.17 189.8 371.97 185.32 371.15 183.86 371.19 181.97 372.4 180.98 376.3 183.29 379.02 184.18 381.08 183.79 381.84 183.21 379.85 180.79 375.82 177.16 374.56 173.19 374.63 171.12 375.64 168.44 377.44 166.97 379.53 166.64 381.71 166.88 383.67 165.85 384.39 164.09 383.99 161.53 378.62 160.07 375.71 159.56 373.7 158.72 373.18 156.95 375.57 155.79 379.66 153.37 380.07 150.19 379.21 147.6 376.45 145.61 373.65 144.11 370.33 142.06 367.59 141.6 365.62 139.63 363.72 136.37 365.11 130.9 369.92 126.37 373.38 123.98 377.3 118.49 381.65 116.21 384.64 115.97 385.52 118.44 378.52 122.76 377.32 124.31 374.28 129.81 376.43 133.06 378.42 134.49 381.68 134.93 383.69 133.48 388.47 131.74 391.21 131.6 393 133.09 396.11 137.75 398.42 139.89 401.98 141.28 404.99 141.17 409.15 140.77 414.29 138.05 416.79 135.77 416.97 139.17 418.42 141.59 413.65 146.52 412.97 150.3 414.27 153.19 416.43 153.75 420.82 152.21 425 151.87 425.76 154.31 428.16 154.58 431.12 154.52 433.22 155.1 433.26 157.81 435.4 158.08 443.35 153.9 444.23 151.05 442.3 147.4 440.43 147.29 435.95 150.48 429.68 152.82 428.43 150.07 429.24 144.04 428.69 140.68 427.43 137.9 425.64 136.66 424.36 136.41 422.76 134.48 423.41 133.18 424.79 132.74 424.89 129.91 424.14 128.5 421.03 126.46 418.24 125.67 414.31 120.92 412.15 117.83 411.42 114.84 411.26 112.66 410.38 111.76 411.3 110.6 413.08 109.68 415.64 110.6 418.16 110.2 420.4 111.01 421.42 113.77 423.94 111.23 427 108.91 428.43 109.38 429.72 109.28 431.63 108.1 432.74 109.11 433.78 113.01 435.53 113.81 437.41 112.78 440.27 111.85 444.97 106.98 445.85 109.69 444.43 112.05 444.1 113.35 446.19 112.38 447.02 111.18 449.46 110.63 450.71 111.28 451.05 112.63 452.84 112.31 455.33 111.2 458.97 108.99 461.75 108.01 463.82 106.96 465.52 107.83 465.51 111.93 464.69 114.2 462.95 116.58 463.18 117.63 469.37 114.41 471.98 113.62 473.91 112.7 477.87 110.19 476.35 107.75 473.96 105.18 471.94 104.46 467.22 106.14 465.28 104.19 464.7 102.04 465.12 99.19 464.94 95.39 465.22 91.79 464.86 90.11 462.85 85.19 460.94 81.54 460.37 74.4 461.99 72.7 465.03 72.21 467.25 71.55 475.87 72.51 477 71.02 475.62 68.7 472.67 64.82 468.64 62.85 467.45 57.51 469.1 54.79 470.66 51.07 470.44 46.89 468.61 44.37 467.51 41.45 465.32 36.44 466.36 33.78 468.81 32.14 472.03 31.41 474.75 31.94 481.87 34.99 484.97 34.97 488.46 36.01 492.18 38 493.44 35.99 493.69 32.31 492.14 29.7 492.38 27.42 494.1 23.53 495.91 21.52 495.24 18.78 492.78 16.69 487.29 15.48 485.4 13.75 485.01 11.61 482.9 6.4 484.01 5.08 486.99 3.4 488.99 1 495.63 11.36 496.31 11.62 498.31 11.26 500.57 11.33 501.5 11.85 503.53 12.27 506.29 14.11 509.99 16.13 511.35 17.13 514.48 20.56 515.59 21.43 520.27 24.32 520.57 25.02 524.37 27.78 527.01 30.14 528.66 31.3 531.59 32.71 533.24 34.91 534.14 35.29 536.79 35.53 538.35 36.38 540.07 36.46 540.81 37.18 542.79 37.26 545.64 37.72 548.02 40.69 548.82 42.69 552.22 45.82 554.4 46.32 555.64 47.19 555.78 48.03 556.77 48.78 557.32 50.32 557.35 52.28 558.4 52.97 558.86 55.29 559.96 56.43 561.82 57.65 565.48 58 567.01 59.35 567.42 60.72 569.02 61.52 570.03 62.59 569.92 64.81 570.39 66.11 572.27 67.07 574.59 68.91 575.85 70.51 578.2 71.96 577.43 73.92 579.24 74.95 579.98 75.85 579.78 76.69 580.26 78.19 581.61 78.33 583.29 79.13 585.81 79.39 587 78.89 590.24 79.13 592.49 78.63 594.74 78.73 596.01 78.1 597.69 76.68 599.3 76.62 601.68 77.57 604.8 78.02 607.35 78.05 609.36 75.98 610.97 75.08 614.07 75.04 615.62 72.08 618.06 70.45 620.09 70.55 623 69.67 625.34 69.68 630.21 71.42 632.46 73.66 633.4 74.2 634.97 74.36 637.29 73.87 639.73 71.52 647.21 69.88 650.74 69.33 654.07 68.27 656.33 67.29 659.18 64.94 665.66 60.82 667.77 59.58 670.54 59.09 671.7 59.38 670.72 61.07 670.66 61.93 672.26 62.5 674.93 62.13 676.56 63.96 679.87 64.83 685.32 64.88 686.08 65.33 686.92 66.9 687.06 68.34 688.66 69.44 689.1 70.62 690.26 71.1 692.02 72.9 692.72 74.13 693.58 74.33 695.02 73.27 695.96 74.94 697.31 75.53 699.8 75.51 700.6 75.82 704.35 76.22 706.24 75.04 707.2 74.81 709.35 76.56 712.29 75.93 713.4 76.05 714.66 76.85 716.04 77.16 716.94 76.17 717.27 75.02 720.14 75.43 724.44 77.62 726.31 79.13 734.43 84.77 740.26 89.11 741.72 90.53 745.94 96.44 747.85 99.31 749.57 101.52 753.38 106.79 755.1 108.32 762.95 113.5 767.78 119.71 Z"/>
</g>
</svg>