<?xml version="1.0"?>
<svg xmlns="http://www.w3.org/2000/svg" version="1.2" baseProfile="tiny" width="800" height="550" viewBox="0 0 800 550" stroke-linecap="round" stroke-linejoin="round">
<g id="4213609">
<path d="M 610.1 102.73 612.89 104.25 612.93 105.09 614.18 106.67 615.93 110.23 619.25 115.25 620.01 116.11 625.52 119.65 628.79 123.02 629.07 124.24 628.86 125.84 628.38 126.48 626.8 127.7 625.92 128.05 622.36 129.01 618.13 129.9 615.43 130.12 613.14 129.83 609.63 128.51 608.86 128.37 607.43 128.98 606.33 130.96 606.05 132.35 606.41 133.55 607.08 134.15 609.42 134.69 610.98 134.75 612.98 135.07 614.45 135.59 616.29 136.64 617.72 138.57 618.25 140.74 618.38 142.69 618.32 144.85 617.75 146.48 617.16 147.05 612.56 150.18 610.83 151.61 609.59 153.71 609.53 154.96 610.56 157.55 612.05 158.91 614.37 160 619.44 163.4 621.75 164.74 622.86 165.09 625.08 165.16 626.97 164.39 628.13 163.35 629.3 161.45 629.68 160.27 629.83 157.47 630.38 154.65 631.57 151.08 632.63 149.45 633.96 148.57 635.06 148.29 637.94 148.71 639.19 149.37 640.44 150.35 641.3 151.62 642.17 153.44 642.77 156.62 642.61 158.83 641.95 160.36 639.92 163.9 638.34 165.68 636.52 167.19 634.64 167.97 633.36 168.23 628.39 168.2 623.54 168.76 619.63 168.79 617.95 169.09 615.71 170.02 614.43 170.81 613.38 171.84 613 172.96 612.93 174.24 613.21 175.21 615.16 177.99 616.26 178.9 618.47 179.85 620.31 180.35 623.84 180.33 625.77 180.61 627.5 181.4 629.29 182.92 630.63 184.5 630.97 186.21 630.86 187.53 630.45 188.72 628.79 190.79 627.1 191.77 624.13 192.69 621.93 193.64 620.19 194.75 619.33 195.94 618.79 197.13 618.7 198.77 619.06 201.6 620.06 204.48 620.91 206.26 622.14 207.97 623.97 208.97 625.55 209.36 628.08 209.67 630.51 210.21 632.71 210.94 635.3 212.67 636.91 214.67 637.37 215.6 638.11 217.87 638.33 222.18 637.46 225.04 635.96 228.33 633.87 232.29 633.38 234.9 633.4 237.08 635.15 242.31 635.67 245.38 635.68 248.1 635.49 250.16 635.89 251.23 639.38 253.77 641.67 255.67 643.32 256.67 647.54 257.67 650.1 258.53 653.24 259.72 656.22 261.02 657.36 261.12 658.66 260.81 659.42 260.3 660.55 258.53 661.68 255.95 662.27 254.95 663.09 254.39 664.97 253.78 666.17 253.63 669.22 253.56 670.68 253.24 671.6 252.78 673.47 251.13 675.29 248.74 676.45 247.76 678.44 246.55 680.73 245.51 683.45 245.01 685.29 245.09 687.68 245.97 690.48 247.69 691.97 247.99 695.11 247.77 696.67 248.01 698.52 248.89 699.91 249.92 701.25 251.56 702.63 253.9 703.22 255.58 703.46 257.03 703.24 258.31 702.35 259.45 700.68 260.95 698.81 263.75 697.8 266.59 697.69 268.1 697.95 270.5 698.57 273.21 699.54 275.42 700.78 277.4 702.01 279.71 703.19 282.48 704.23 285.77 705.35 288.81 706.12 291.61 706.42 293.74 706.62 296.87 706.24 299.31 705.55 300.71 703.27 304.14 703.03 304.92 702.58 308.86 702.1 312.27 701.36 314.12 698.03 320.48 695.99 325.3 694.11 328.45 693.19 329.36 692.85 330.18 693.01 330.93 694.07 331.57 696.01 332.09 698.52 332.58 704.31 333.49 706.4 334.01 708.37 334.82 712.31 335.78 715.03 336.68 716.58 337.54 717.55 337.84 719.56 337.98 720.24 338.31 722.82 340.14 727.76 342.28 739.15 347.51 741.91 348.91 744.24 350.97 745.3 351.44 747.34 351.55 748.25 351.32 749.11 351.66 749.58 352.5 749.84 353.92 750.8 357.19 751.12 357.75 752.62 358.97 753.49 360.21 756.05 363.39 757.08 365.04 757.46 366.48 758.24 371.24 758.48 377.32 758.97 380.8 757.61 382.61 756.29 383.22 753.49 384.03 749.52 384.48 745.39 386.33 741.58 387.24 740.43 388.13 738.53 390.91 738.4 392.91 738.76 394.27 739.46 395.5 740.3 396.39 743.13 397.57 745.66 398.8 747.86 400.95 748.07 401.44 747.88 402.95 746.26 405.88 745.51 408.49 745.54 410.15 746.36 412.35 748.24 414.39 749.75 414.96 750.2 415.49 751.78 415.7 753.49 414.89 755.49 415 756.47 415.4 758.19 417.43 758.46 419.6 758.99 419.79 761.56 419.76 762.61 420.48 765.91 423.91 765.87 424.45 764.92 425.9 763.4 427.09 763.43 427.82 764.01 428.4 766.45 429.73 768.38 430.17 768.77 430.52 768.98 431.87 770.64 436.08 771.22 437.01 772.45 438.11 774.04 438.98 776.8 440.04 780.67 440.32 784.01 440.29 786.09 439.46 788.94 439.85 794.45 439.77 795.52 440.18 796.19 441.4 796.58 446.05 796.54 447.66 796.78 448.64 798.1 450.04 799 451.44 798.91 452.25 798.13 453.02 796.72 453.66 794.57 453.71 791.81 453.23 790.44 453.52 787.24 455.43 786.06 456.48 784.47 458.94 783.43 460.84 781.68 462.28 780.49 462.82 778.31 462.82 777.21 461.48 776.15 461.66 776.1 462.79 774.73 462.71 773.27 463.06 772.98 462.72 773.36 461.69 772.31 461.91 771.91 462.6 771.11 462.6 771.1 463.76 771.48 464.76 771.21 466.37 770.72 467.3 769.8 467.98 768.96 469.05 769.23 471.99 769.13 473.22 770.07 476.7 769.7 477.98 770.24 478.73 770.2 480.22 769.42 480.92 767.91 480.35 767.39 481.27 766.14 482.01 765.11 483.08 762.69 483.1 762.1 483.35 761.06 484.92 759.44 485.06 757.11 486.57 755.95 488.7 755.86 489.87 755.17 490.5 753.26 490.24 752.74 491.64 752.71 492.95 752.35 493.48 751.2 493.16 750.75 493.8 749.98 493.59 748.92 494.68 749.31 496.21 748.43 497.32 748.07 498.92 746.37 500.14 744.87 500.39 743.97 501.3 742.84 503.93 743.87 506.97 743.97 508.49 744.49 510.61 743.56 513.19 743.37 515.02 743.85 516.2 742.5 518.28 740.92 519.14 740.12 520.99 740.35 521.55 739.61 521.94 738.35 522.05 736.77 523.29 735.15 524.21 733.6 526.13 732.76 528.51 731.89 528.81 730.26 528.35 728.04 528.76 727.09 529.46 725.82 529.81 725.18 530.3 723.36 531.04 722.59 531.74 716.55 531.66 715.21 531.4 714.48 531.56 713.1 532.7 712.18 533.04 710.7 533.2 709.26 534.33 707.54 535.03 706.91 535.53 706.26 537.01 706.1 538.06 704.88 539.44 703.12 539.54 701.51 539.97 700.81 540.72 698.74 541.25 697.12 541.19 694.97 542.27 692.4 544.04 689.89 545.43 688.82 545.6 683.07 548.23 682 549 627.93 539.23 624.6 540.57 621.41 540.95 619.56 540.63 617.39 541.35 616.26 541.56 614.21 541.37 613.26 541.64 609.27 541.85 606.61 542.13 605.9 542.01 605.51 540.36 602.53 538.73 602.58 537.96 603.16 536.87 604.63 535.96 604.01 535.19 601.83 533.91 600.28 531.91 600.42 530.6 599.91 529.5 598.85 529.58 598.14 529.02 596.92 528.74 595.59 529.01 594.67 529.44 592.06 529.37 590.79 530.2 590.19 530.15 588.48 528.89 587.19 528.15 587.12 527.68 585.21 526.39 584.22 525.36 584.22 523.7 582.49 525.31 582.03 526.41 582.35 527.27 582.36 528.82 582.91 529.6 581.47 529.5 580.45 529.08 579.99 529.65 579.11 529.53 578.94 530.39 578.21 530.92 578.17 531.84 576.46 532.77 576.07 534.09 576.15 534.98 574.93 535.83 572.98 535.56 569.99 535.87 568.87 535.39 566.98 534.97 564.58 534.8 561.77 533.84 561.06 532.95 558.92 532.05 558.1 532.39 554.54 532.31 553 531.82 552.2 531.89 549.95 532.97 548.05 533.64 546.64 533.66 543.37 532.53 542.84 532.81 541.6 532.2 539.89 532.04 539.14 531.13 539.11 529.79 538.64 528.88 537.87 528.91 537.59 529.77 536.79 529.99 536.31 529.56 535.13 529.43 533.5 527.62 532.57 527.09 530.96 526.59 529.42 525.78 528.92 525.24 526.3 523.82 526.09 523.27 524.76 522.65 524.39 520.37 524.74 518.03 524.07 516.83 523.81 515.78 522.43 513.97 522.02 512.92 520.17 511.66 519.35 510.9 518.36 509.27 517.76 507.12 518.94 505.73 518.79 505.07 517.43 503.68 516.95 502.1 515.73 500.82 515.48 499.85 514.18 499 512.97 499.01 511.6 498.25 509.39 496.46 509.33 494.96 508.63 493.87 509.45 492.1 509.42 488.81 509.28 487.9 508.48 486.3 499.44 490.77 496.98 488.99 494.49 487.98 493.69 487.45 492.05 487.36 491.55 487.11 491 484.65 490.48 483.98 490.32 483.02 490.58 481.07 489.21 479.55 486.68 480.11 485.89 479.25 484.8 479.55 483.99 480.09 482.66 479.27 482.22 479.48 480.34 479.14 479.71 478.23 478.77 477.64 477.93 478.04 476.65 477.39 475.67 476.46 475.77 474.75 476.32 474.15 476.1 472.08 475.71 471.05 474.89 470.18 475.03 469.43 474.67 468.38 473.44 467.45 473.62 465.74 472.65 465.29 471.29 465.4 470.16 463.78 467.94 463.56 466.07 464.4 465.34 464.38 464.26 463.7 461.69 463.54 460.6 463.02 458.77 463.12 456.91 461.97 455.06 462.06 454.48 461.17 452.87 460.35 450.46 458.72 449.1 457.07 447.87 455.04 446.73 455.03 445.14 453.5 444.82 452.48 444.12 451.79 444.02 451.08 443.17 449.94 442.45 449.6 441.02 448.3 441.06 447.25 440.52 446.8 438.4 446.77 437.34 446.29 436.68 445.12 437.62 443.94 436.81 443.37 436.03 443.5 435.17 442.2 435.08 441.48 432.43 441.49 431.27 441.03 430.73 441.59 429.83 439.09 429.48 439.07 430.27 437.53 430.11 435.74 429.49 434.18 428.09 432.27 428.19 431.88 430.06 431.53 432.25 431.69 433.64 431.23 434.59 428.19 435.96 425.06 437.39 423.92 441.91 423.47 442.84 423.15 447.16 423.98 448.2 423.95 450.41 424.44 452.55 424.33 453.37 422.71 453.29 421.8 452.71 420.84 452.42 418.53 451.29 415.9 451.41 413.32 450.99 411.34 450.33 409.17 449.49 407.01 448.35 404.82 447.95 403.61 448.49 401.44 448.14 399.31 447.04 397.47 447.1 396.71 448.08 394.98 448.82 394.22 450.26 393.55 450.61 392.95 450.58 391.96 448.92 389.09 448.31 388.58 444.65 388.58 443.15 389.17 441.49 391.4 439.88 392.29 438.58 392.13 437.31 391.06 437.15 390.41 435.81 389.07 434.87 387.77 433.9 385.24 433.12 384.68 432.68 383.85 432.94 382.2 433.48 381.88 435.35 381.42 439.13 380.16 441.93 379.89 445.34 378.53 447.49 376.85 448.3 375.2 448.14 374.11 447.02 373.12 445.85 370.89 445.82 369.74 446.27 367.59 447.28 366.46 448.63 365.75 451 363.62 451.75 363.41 452.94 363.6 457.09 365.42 459.99 365.19 461.43 365.29 463.67 364.93 464.59 363.95 467.7 362.92 469.85 361.06 473.81 358.72 476.6 358.81 476.73 357.42 477.85 356.7 479.59 355.9 480.81 355.65 482.06 354.64 483.43 354.07 484.09 352.64 483.68 350.76 483.27 349.94 481.26 347.03 481.22 345.4 482.75 344.52 483.7 343.73 484.37 342.34 484.03 341.99 480.51 340.27 479.5 339.15 478.72 337.8 478.36 336.71 478.45 335.33 478.16 334.22 477 332.55 477.02 331.2 478.13 330.43 479.03 330.75 480.44 331.77 483.62 332.18 485.56 332.54 486.99 332.08 486.99 331.45 488.2 330.56 490.26 329.77 492.33 328.03 493.9 328.04 493.93 329.14 494.84 330.53 496.83 331.36 498.03 331.68 500.59 331.27 502.32 331.86 503.61 331.7 469.32 292.87 459.28 294.49 457.28 294.02 456.03 293.08 452.15 291.28 451.52 290.09 450.24 290.42 448.75 290.27 447.44 290.99 446.36 290.91 443.89 291.33 442.78 291.67 440.42 291.14 439.1 291.09 434.23 292.28 433.54 292.69 430.68 292.94 429.17 292.52 426.55 293.31 424.79 292.78 423.29 292.84 420.67 292.39 419.88 292.69 416.93 292.25 413.62 292.15 410.04 291.24 409.71 290.57 408.57 290.35 407.04 292.16 404.47 294.32 403.83 294.51 401.46 293.98 400.18 294.03 398.56 293.3 397.94 292.56 396.58 292.9 395.24 291.89 393.79 290.46 392.45 290.55 391.47 288.98 390.75 288.74 389.55 287.05 388.3 285.94 386.4 283.75 385.32 282.27 384.58 281.92 383.1 281.73 382.52 280.25 381.93 279.54 380.73 279.07 377.63 276.75 376.25 276.49 375.74 276.12 373.25 277.27 372.83 277.7 370.94 277.48 370.33 276.83 369.28 277.47 368.5 277.41 366.95 278 366.23 280.15 364.57 280.56 364.02 281.37 364.16 283.21 362.7 283.68 362.81 284.58 361.76 284.42 359.24 284.95 358.33 285.54 357.77 284.15 356.95 284.42 356.9 283.31 357.73 282.26 357.71 281.49 355.09 281.34 353.93 280.28 354.3 276.84 353.53 275.77 352.63 275.41 351.41 275.7 348.48 277.83 346.7 279.24 345.58 279.83 344.18 281.19 343.56 285.09 344.01 286.03 342.5 288.14 341.83 288.05 340.75 287.36 338.88 286.8 337.5 286.66 336.1 285.81 335.95 285.25 337.41 283.75 336.96 283.29 336.04 283.47 334.98 283.18 334.42 283.37 333.68 284.4 332.81 284.21 333.43 282.87 333.2 282.3 332.35 281.95 330.47 281.92 329.59 282.58 327.81 282.27 326.75 282.5 323.9 281.84 323.31 281.98 298.62 270.58 299.12 271.72 298.56 272.72 296.98 274.08 295.2 273.83 291.88 274.01 290.04 274.21 286.48 272.87 285.32 271.91 284.61 271.72 283.01 270.43 282.45 270.86 281.75 272.17 281.07 274.43 279.03 275.39 277.91 275.53 277.62 275.04 277.76 272.91 276.64 271.54 274.93 271.52 271.84 270.54 269.74 271.32 268.79 271.83 267.42 272.2 266.67 272.71 266.03 272.56 264.68 270.83 263.81 270.66 262.17 269.93 260.79 269.6 259.35 270.44 258.36 270.43 256.58 269.84 254.29 270.51 253.31 271.56 254.2 272.44 254.13 273.05 251.87 274.21 249.96 275.89 249.05 277.46 248.73 279.08 249.99 280.45 250.76 282.71 250.61 283.6 248.99 284.92 246.76 285.28 244.61 284.17 243.73 283.96 242.48 284.15 241.24 284.64 239.9 284.79 235.71 283.5 235 284.12 235.74 285.05 234.36 285.95 233.2 288.61 231.97 290.98 231.83 293.32 229.95 295.67 229.16 297.99 228.79 298.25 226.74 298.45 226.96 299.99 226.84 301.91 225.56 302.78 224.58 304.16 223.3 305.12 222.24 304.41 221.11 304.28 221.12 304.97 219.2 305.45 219.37 306.63 218.9 309.33 218.06 309.88 217.13 309.15 216.48 309.42 216.01 310.25 214.49 311.63 213.32 311.57 210.39 312.05 208.5 311.64 207.19 311.08 204.61 311.18 203.48 311.42 202.74 312.1 202.44 313.03 201.54 313.66 199.7 313.85 198.96 314.69 197.66 314.6 195.21 315.85 193.93 316.03 193.63 315.26 192.78 315.77 192.66 317.8 191.11 320.64 191.18 322.08 189.36 321.72 188.1 322.69 187.1 322.28 185.72 324.2 185.26 326.64 185.26 328.71 185.44 329.51 186.13 330.31 186.91 332.01 187.54 333.87 135.52 369.55 132.81 370.62 130.42 368.84 128.86 366.02 126.88 365.84 126.27 364.97 124.52 364.1 123.21 362.98 121.21 362.32 120.49 361.05 119.65 360.31 118.83 360.1 117.27 358.95 116.71 358.12 115.59 357.49 114.84 355.92 113.91 355.98 113.22 355.27 112.64 352.93 111.93 351.88 112.04 350.28 110.9 349.56 110.43 347.85 112.32 344.74 113.45 343.55 114.07 342.1 114.93 340.9 115.38 339.4 115.85 338.74 115.49 337.83 114.93 337.65 113.63 335.48 113.66 334.31 114.54 332.3 114.63 331.37 114.3 329.57 112.08 328.75 111.38 328.97 109.94 330.15 108.96 330.09 107.7 327.14 106.49 327.15 106.24 326.35 104.77 324.41 103.71 323.66 101.95 323.89 100.65 323.62 100.18 322.48 99.18 322.22 96.83 320.88 95.38 321.2 93.67 320.28 91.01 320.08 90.47 319.66 90.27 318.44 89.61 317.36 87.48 315.96 86.77 314.97 85.75 312.69 85.32 312.18 83.18 311.45 80.89 310.41 80.02 307.79 78.95 306.82 75.49 305.61 74.71 304.9 72.88 304.55 71.88 303.58 71.84 302.03 69.32 300.48 68.94 299.5 67.06 298.6 65.81 298.5 64.29 297.94 63.72 298.07 62.11 297.65 61.5 296.14 60.34 295.55 58.48 295.55 55.93 295.81 52.92 295.99 49.57 294.91 48.59 294.28 47.6 292.77 46.53 293.18 46.36 294.12 43.27 293.63 40.73 292.9 37.39 292.33 35.51 293.19 34.66 292.53 32.41 291.65 31.17 290.83 29.6 290.32 29.68 288.65 29.07 287.85 26.92 286.57 25.58 284.38 25.1 284.37 23.93 285.44 22.83 285.74 21.92 285.42 21.07 285.62 20.29 284.77 18.4 283.8 17.1 282.69 16.2 280.78 16.2 278.99 15.94 277.45 15.51 276.61 14.22 275.57 12.99 273.28 12.29 273.1 10.6 273.63 10.95 272.36 11.73 271.41 11.53 270.81 10.64 270.95 9.46 270.69 8.84 270.12 8.42 268.34 7.43 266.36 5.94 265.89 5.27 264.79 5.33 264.16 6.31 263.26 6.58 262 1 263.31 4.1 261.24 6.3 260.27 8.3 258.86 10.05 258 11.22 257.88 12.74 256.73 12.92 256.22 12.94 253.79 13.16 252.48 13.62 251.29 14.8 250.3 15.82 249.95 17.37 249.81 20.29 250.67 21.29 250.65 21.62 250.24 24.35 248.71 25.71 247.58 29.1 245.95 31.81 243.89 32.82 242.69 32.59 241.64 31.64 241.41 29.78 241.53 28.04 241.44 26.13 240.86 25.22 240.78 22.94 239.34 23.14 236.29 22.42 233.25 21.25 231.45 19.71 229.64 17.99 226.61 17.75 225.35 17.85 223.2 18.1 222.41 19.87 218.62 21.06 216.84 22.61 215.54 24.91 213.86 27.2 210.83 30.31 205.79 31.58 204.27 32.79 201.63 32.64 200.02 31.27 198.46 28.83 197.41 25.76 195.77 24.83 195.09 23.91 193.66 23.78 192.92 25.6 186.06 26.14 183.58 27.11 180.98 27.77 179.95 31.52 176.03 33.61 173.75 34.83 172.65 37.83 169.5 39.54 168.38 41.99 168.06 43.91 167.48 49.56 164.3 51.47 163.53 54.1 163.08 55.51 163 58.41 163.1 59.52 162.95 62.42 162.02 64.56 160.46 66.64 159.28 69.37 159.44 71.82 159.77 73.58 159.14 74.98 157.81 76.51 156.71 77.19 155.86 79.15 152.83 81.33 149.12 83.53 145.58 84.76 145.32 87.32 145.51 89.11 146.49 90.64 146.6 91.12 145.57 91.14 144.44 92.75 143.07 93.65 141.46 94.28 140.72 94.71 136.72 95.04 135.93 96.18 134.21 97.04 132.51 98.2 130.61 97.81 129.12 97.92 128.42 99.08 127.51 98.99 126.12 102.05 121.85 102.72 120.44 102.9 119.44 102.84 117.21 104.81 114.29 105.42 114.17 108.39 114.98 109.39 115.37 111.17 116.98 112.55 118 114.86 118.38 116.11 119.02 118.52 119.88 121.01 120.29 122.08 119.98 122.86 120.29 124.48 121.74 126.38 122.81 127.71 122.45 129.24 123.33 130.22 123.16 131.37 122.14 133.18 121.77 134.46 122.34 136.68 122.28 139.17 120.91 141.68 120.09 146.38 119.37 147.97 118.91 153.95 116.52 155.79 114.73 158 114.01 159.58 112.98 161.96 112.23 162.84 111.51 165 109.13 165.84 107.83 168.58 107.14 173.24 106.67 175.79 106.79 177.75 105.95 179.19 105.61 179.54 105.03 179.76 103.33 179.19 101.31 178.72 100.62 178.4 98.49 177.59 97.06 177.64 96.56 178.44 95.84 178.51 94.99 177.52 94.08 177.18 93.34 177.77 92.8 178.68 93.24 184.04 93.41 185.71 92.49 188.48 91.78 190.05 89.71 190.28 88.64 191.43 86.91 193.13 86.53 196.04 86.6 197.44 85.71 199.51 85.61 200.83 85.27 201.44 85.46 202.99 86.75 206.04 89.98 207.04 91.69 207.17 92.41 208.45 93.18 209.58 93.1 210.52 92.64 210.93 93.09 210.48 94.82 215.61 95.46 216.29 96.23 219.97 97.55 221.36 97.57 222.87 97.21 223.44 96.52 223.35 95.09 222.51 92.77 221.8 91.76 221.98 89.62 221.88 87.95 222.14 87.39 223.38 86.06 225.58 86.51 226.84 86.26 230.15 84.93 231.33 85.19 231.4 86.06 232.99 88.14 234.12 88.16 235.7 86.88 236.39 86.83 238.99 87.36 240.14 87.22 240.89 86.47 241.9 86.2 242.63 86.67 246.13 87.09 248.1 86.77 248.83 85.63 249.47 83.4 251.53 81.74 252.03 81.74 254.25 82.74 255.21 82.79 255.61 81.37 256.69 80.21 257.62 79.64 259.9 79.03 262.71 77.17 263.69 76.66 266.72 77.67 269.18 76.83 270.41 76.97 272.02 77.56 272.82 79.68 273.58 80.96 273.95 80.7 273.55 79.32 273.62 76.89 272.53 75.39 272.98 75.02 274.58 76.04 275.17 76.18 277.3 75.94 278.02 75.43 277.95 74.03 277.32 72.33 277.47 71.51 279.24 70.67 279.31 69.86 278.41 68.32 278.26 67.08 278.61 65.44 278.42 63.84 279.15 62.89 280.98 63.59 281.82 63.11 281.84 62.2 280.24 60.4 279.54 58.7 279.78 57.74 280.45 57.52 282.58 57.55 284.67 57.94 286.1 58.5 286.81 58.49 288.32 57.54 288.4 55.29 288.73 54.31 288.58 53.05 287.51 50.9 287.41 50.07 286.7 49.35 285.26 48.9 284.58 48.25 284.74 46.88 285.38 46.36 288.59 45.34 290.44 44.38 292.8 42.48 295.9 38.56 298.86 35.53 300.24 33.49 301.31 27.78 301.84 23.87 303.17 15.61 304.34 11.11 305.18 9.61 306.46 8 309.37 3.23 310.56 2.39 311.94 1.77 315.71 1 315.82 1.74 316.74 4.28 317.67 6.45 318.17 7.27 322.12 11.45 323.1 12.38 327.23 15.9 330.79 18.75 333.34 21.02 337.18 23.67 341.51 25.81 344 26.65 345.46 26.83 348.37 27.49 350.62 27.76 351.91 28.1 356.29 27.86 361.11 27.25 364.4 26.63 367.27 25.73 371.63 24.15 372.96 23.55 375.98 22.5 379.49 21.78 389.12 20.89 395.51 19.43 402.72 17.66 405.64 17.12 414.59 15.16 419.49 13.62 425.06 11.23 427.75 10.43 430.88 9.08 433.54 8.11 436.54 6.68 437.87 6.34 440.92 5.97 443.57 5.8 444.76 6.1 447.02 6.97 453.62 10.24 458.37 12.91 459.55 13.66 464.92 16.67 472.49 20.64 474.5 21.58 478.86 23.25 480.33 24.03 483.94 26.32 486.6 28.46 488.64 30.63 489.64 31.88 490.79 34.32 492.2 37.96 492.65 40.42 492.9 45.05 492.2 47.9 491.4 52.35 491.67 54.51 492.49 56.78 494.66 59.99 496.11 61.62 497.13 63.06 499.83 65.46 501.18 66.53 503.71 67.6 505.43 68 507.56 68.22 509.58 68.08 511.31 68.17 513.58 68.05 517.96 68.83 519.45 69.21 522.98 70.7 524.46 72.3 526.73 75.68 528.52 79.34 529.34 82.13 531.12 86.38 531.31 87.93 531.81 89.51 532.28 90.26 534.01 91.45 536.13 91.89 539.5 91.14 540.89 90.5 542.64 89.45 547 86.57 548.35 85.29 549.49 83.7 552.48 80.22 553.51 78.67 556.59 73.35 557.03 71.64 557.64 70.06 557.83 68.56 557.49 64.02 557.29 62.75 556.39 58.83 554.46 53.96 552.82 50.28 550.67 46.51 549.23 44.75 547.85 42.09 546.32 40.08 544.64 37.42 542.73 35.11 540.54 31.38 539.39 29.62 538.09 28 537.35 26.55 536.85 24.74 536.55 21.46 537.05 18.48 538.08 16.11 538.87 14.68 540.98 12.54 542.43 11.43 546.34 10.48 551.04 10.94 556.25 12.63 563.55 16.86 567.88 19.59 570.71 21.59 574.41 23.99 581.84 28.4 584.46 30.15 587.35 31.58 591.06 34.63 594.07 37.21 596.2 40.13 596.98 41.97 597.55 44.75 597.91 47.22 598.77 50 599.17 61.5 599.44 64.87 599.45 68.19 599.22 71.3 598.57 73.88 597.6 79.11 596.5 83.55 595.77 86.84 595.14 88.94 594.93 91.73 594.42 93.54 594.66 95.1 595.74 97.11 597.57 98.67 599.6 99.97 604.89 102.37 607.13 102.83 610.1 102.73 Z"/>
</g>
</svg>