<?xml version="1.0"?>
<svg xmlns="http://www.w3.org/2000/svg" version="1.2" baseProfile="tiny" width="800" height="659" viewBox="0 0 800 659" stroke-linecap="round" stroke-linejoin="round">
<g id="4214003">
<path d="M 725.78 254.13 728.7 260.48 730.7 264.14 732.33 266.45 733.65 269.22 734.66 272.84 735.23 276.01 736.49 279.4 739.7 283.09 745.45 287.54 747.84 289.98 748.94 292.11 749.67 295.31 748.29 299.56 746.98 304.41 745.19 313.01 744.79 316.39 744.56 326.3 745.28 330.23 747.3 334.8 748.71 340.57 750.91 344.01 751.44 346.35 753.19 349.88 756.92 354.75 759.03 358.93 759.76 359.76 768.46 413.69 769.03 415.31 771.09 416.35 771.94 417.41 775.02 423.02 777.19 425.4 779.37 428.55 781.4 432.62 786.8 439.42 789.81 441.45 794.44 449.44 796.48 450.98 799 454.49 799 456.38 795 457.5 793.6 458.48 792.97 460.87 791.99 462.34 787.45 465.53 783.5 470.26 781.96 471.52 776.84 474.54 775.28 476.22 771.61 478.21 768.39 477.92 765.39 476.17 761.99 476.35 759.32 477.5 755.53 478.59 752.81 478.11 749.5 476.95 743.54 474.28 741.76 473.8 737.72 473.69 732.54 473.13 731.11 471.5 730.76 469.43 727.68 466.22 725.1 464.41 721.25 463.06 717.06 462.79 711.31 463.11 707.79 462.58 705.54 461.71 697.93 459.79 694.54 459.35 692.18 458.57 690.98 456.98 688.17 456.58 685.73 457.26 682.72 457.08 680.92 459.17 680.39 463.26 675.49 469.21 672.75 474.01 669.53 475.06 662.79 477.59 656.96 479.09 651.53 481.67 648.91 485.7 649.24 487.46 650.81 488.93 650.91 490.23 649.09 491.7 646.1 494.75 644.52 499.84 643.74 500.75 641.4 501.79 639.36 503.74 638.2 507.81 637.12 508.98 634.5 509.27 630.6 512.82 629.21 515.65 628.85 518.03 627.37 524.73 625.88 528.18 625.91 533.35 625.01 535.86 623.96 536.95 621.04 537.47 616.25 539.27 613.58 540.58 609.69 540.92 603.54 539.61 599.38 537.77 596.91 536.24 593.54 534.92 592.6 534.21 591.1 530.58 590.2 530.2 584.01 529.92 580.24 528.78 576.38 526.87 573.38 526.12 570.01 523.11 568.96 522.74 566.16 523.14 557.7 527.71 554.87 528.98 553.15 531.32 551.3 535.76 546.79 538.91 543.09 542.49 539.22 544.73 536.46 548.54 535.89 550.19 534.52 558.42 532.91 561.43 532.28 563.82 532.4 565.48 531.2 567.35 527.86 568.55 520.37 570.37 517.69 571.54 515.47 571.92 510.78 573.46 507.56 573.79 504.38 573.57 501.93 572.27 500.19 571.83 495.47 573.43 492.57 574.77 489.61 575.47 488.44 576.21 486.24 578.64 481.51 579.23 478.45 581.15 474.53 581.54 471.83 582.59 469.52 585.39 466.62 586.7 462.02 587.42 457.32 589.93 454.71 590.43 448.9 585.98 447.11 585.92 443.9 588.59 442.1 591.06 441.93 595.04 441.4 597.13 439.87 599.43 436.6 603.51 436.47 606.12 434 607.34 427.74 608.14 425.31 608.22 422.91 608.76 413.48 609.29 410.4 610.25 408.27 611.57 407.57 613.15 408.43 615.33 409.14 618.88 408.1 623.76 405.59 625.44 402.56 625.96 398.75 627.56 395.53 628.19 393.39 629.4 391.33 631.9 389.6 634.75 384.84 638.64 383.76 640.93 384.88 643.83 383.02 645.29 380.7 645.48 378.39 646.24 370.9 646.42 367.48 645.85 364.49 647.13 362.42 647.27 358.23 646.49 356.57 646.93 350.43 651.29 343.54 652.49 340.7 654.03 338.43 655.76 330.66 658 328.95 657.85 327.27 656.18 326.34 654.43 325.02 653.75 319.04 655.41 315.75 654.64 313.7 652.77 310.67 648.59 307.99 646.89 302.39 645.8 300.97 644.4 301.32 641.53 301.18 638.44 300.34 635.64 297.95 632.48 297.6 631.08 298.51 626.59 298.02 622.95 286.66 620.85 281.47 618.88 278.74 619.3 275.93 621.13 272.15 620.21 267.67 615.83 265.29 616.07 262.42 617.24 259.08 617.6 257.78 617.19 255.79 613.99 254.5 612.58 251.72 612 250.55 610.71 250.72 607.88 248.99 607.74 246.69 610.47 245.75 611.04 240.05 611.08 237.5 614.7 234.28 618.46 233.16 620.36 231.9 625.19 231.13 626.17 228.39 627.16 225.1 627.16 221.38 628.84 217.88 629.12 213.6 629.89 209.74 629.68 205.4 628.21 201.83 626.24 196 624.63 194.11 622.6 193.48 620.07 192.49 618.25 190.11 617.15 185.69 616.43 183.94 614.96 183.64 611.8 185.91 610.57 186.53 609.56 186.21 607.69 184.56 605.9 183.18 605.82 180.36 606.9 176.72 607.18 173.98 606.9 165.3 604.52 163.02 602.45 160.85 602.48 158.21 605.82 157.08 607.68 155.18 607.37 152.25 605.49 144.95 602.34 140.82 600.94 137.31 600.87 135.07 598.83 134.23 594.77 133.74 588.74 131.04 585.13 130.58 581.59 130.72 576.68 131 574.51 128.76 572.82 125.6 571.63 123.64 568.83 121.39 566.8 118.73 566.16 115.5 566.73 112.98 565.74 108.53 559.99 106.25 559.4 103.97 561.62 100.94 562.87 97.48 561.89 94.4 560.28 90.19 556.91 86.44 555.25 82.82 552.2 80.15 551.52 77.45 552.95 74.77 555.23 71.82 556.21 64.95 556.07 62.29 555.25 59.38 556.51 56.58 556.4 53.65 556.68 51.54 557.91 48.56 558.29 43.5 556.93 40.42 557.83 39.56 556.24 42.23 550.18 45.18 545.55 45.53 543.24 43.66 538.57 42.75 534.53 38.73 529.91 37.64 525.26 37.74 520.39 38.87 516.39 40.2 514.78 40.62 513.45 40.34 509.59 39.85 507.63 38.37 503.91 38.23 502.09 39.26 496.82 37.77 493.91 36.67 489.47 37.16 487.1 38.93 482.68 37.67 476.71 35.92 474.54 34.89 470.16 35.57 465.85 35.04 463.1 33.59 460.9 32.02 456.34 30.5 454.84 26.18 454.11 24.63 453.5 21.45 448.14 19.69 445.99 18.53 443.82 17.98 441.61 18.32 436.81 17.68 435.62 16.18 434.66 15.52 432.9 15.74 430.67 12.15 428.5 10.71 427.03 8.85 422.66 9.59 417.02 9.27 415.44 9.68 413.45 10.77 411.51 8.98 403.71 9.03 401.54 9.66 400.29 9.52 398.33 7.82 396.88 8.92 393.5 11.8 390.2 12.15 389.15 12.01 385.3 14.53 378.08 17.09 372.69 18.86 370.61 20.28 367.72 24.28 364.29 26.52 361.26 26.1 359.84 24.4 359.02 21.81 358.63 20.35 357.54 19.65 354.45 20.01 352.49 22.03 347.25 22.37 345.49 21.53 342.57 19.04 340.14 18.07 338.42 17.09 334.57 17.39 332.71 19.82 330.51 20.35 328.35 19.47 327.16 19.97 325.49 23.19 323.92 24.31 321.68 24.58 318.54 23.56 316.6 22.05 316.11 19.71 316.07 18.45 315.04 17.81 313.2 17 307.17 13.1 305.96 11.26 303.19 8.57 300.55 7.63 298.56 7.63 295.76 10.58 290.92 6.23 288.07 3.92 285.48 1.28 278.7 1 277.28 1.97 269.76 3.44 266.63 4.07 263.69 2.68 257.56 2.12 256.3 31.3 255.11 31.27 257.03 33.28 255.96 35.83 256.39 38.25 257.98 38.84 258.91 46.35 259.67 47.2 259.94 48.75 261.8 51.91 262.13 55.05 260.44 55.78 258.89 57.16 258.45 59.94 258.48 62.84 262.22 64.19 261.96 65.89 263.61 67.9 263.52 69.13 262.42 70.03 263.08 70.14 265.52 72.94 266.48 74.33 265.56 74.15 261.63 78.53 262.53 79.1 264.11 81.18 263.19 82.09 263.87 83.37 267.29 84.58 268.44 84.24 272.63 85.32 273.35 87.45 272.51 88.69 272.74 89.68 274.24 93.05 275.21 94.59 273.57 95.62 273.94 95.21 277.21 94.3 278.81 95.77 279.55 100.44 278.06 102.14 278.18 104.06 277 108.78 278.04 113.36 278.06 114.88 278.44 118.61 277.66 124.46 276.84 127.61 275.47 129.18 274.43 133.28 276.23 135.94 278.22 139.35 280.1 141.79 280.6 147.48 280.6 152.19 279.99 157.41 280.74 163.35 283.26 168.82 285.77 174.73 286.62 176.44 286.69 181.26 287.59 185.95 288.03 189.57 287.81 192.34 288.3 194.36 289.53 197.81 290.21 199.58 291.12 203.19 293.72 207.7 295.69 210.44 297.97 212.89 298.31 216.8 295.83 218.56 293.98 221.15 293.01 222.23 294.2 221.72 297.95 222.7 301.95 223.47 307.06 224.49 310.28 225.3 311.44 225.41 313.27 226.48 315.74 228.66 318.17 231.27 319.97 235.49 320.17 241.73 318.02 243.79 317.55 249.39 313.75 251.12 313.5 251.94 314.82 251.87 318.02 252.62 320.93 253.25 321.88 252.1 323.41 252.12 325.82 252.99 327.78 254.21 329.02 253.95 329.89 252.22 331.1 251.68 332.39 251.82 336.77 252.91 338.42 255.86 340.89 262.35 347.79 263.36 348.66 266.05 349.27 267.68 351.2 267.95 353.61 271.06 362.88 272.91 364.69 281.53 368.68 284.33 369.73 287.76 370.16 293.02 372.65 295.81 374.45 300.16 378.19 306.44 379.81 310.36 381.71 321.65 384.44 326.25 385.99 329.4 387.64 331.38 388.22 337.99 392.11 343.91 393.86 350.39 396.61 354.99 397.85 357.91 399.54 360.81 400.09 364.06 400.01 368.94 397.33 370.27 395.75 370.24 394.14 367.88 391.58 365.73 389.76 363.12 387.03 359.38 382.36 353.78 378.09 352.97 376.87 348.49 373.54 346.25 372.61 345.23 369.41 339.23 359.12 337.35 357.05 336.17 356.51 333.82 356.71 332.75 355.47 335.1 352.57 335.32 349.39 332.58 343.12 332.46 341.37 329.74 335.72 328 333.92 327.29 330.98 326.43 329.73 324.8 325.49 323.33 324.04 320.48 322.75 316.98 320.08 317.18 318.61 318.91 317.79 321.3 318.07 323.46 317.29 325.46 318.1 327.01 318.12 327.98 316.5 327.44 314.14 329.48 311.87 329.12 309.64 326.91 306.31 326.48 303.03 327.94 302.46 329.68 303.16 330.9 305.93 332.32 306.69 333.24 308.34 333.57 310.71 335.24 314.34 333.87 316.65 333.87 317.51 335.6 318.48 334.74 320.79 334.79 322.9 336.83 324.75 338.6 324.36 339.25 327.77 340.96 328.92 343.83 329.73 346.93 332.55 350.18 334.33 351.4 335.52 355.22 337.89 357.96 337.46 360.07 335.17 360.63 333.11 362.19 330.13 365.24 325.92 367.3 322.53 367.53 321.08 367.2 318.24 367.6 316.36 367.5 312.4 367.04 310.39 368.72 310.46 371.59 315.24 373.12 319.48 374.03 320.5 376.73 321.3 375.78 325.94 376.98 329.19 377.94 330.74 381.02 333.25 383.96 334.29 388.06 336.81 392.37 338.43 395.86 341.35 399.26 342.83 403.4 343.41 407.09 343.31 413.84 341.7 417.52 341.32 421.53 340.54 424.16 340.54 428.84 341.52 434.53 343.37 438.11 346.94 440.98 348.42 444.28 348.61 447.28 347.01 451.23 345.38 454.08 342.47 454.94 338.48 454.97 335.78 454.55 332.53 454.83 330.18 455.67 328.85 460.05 323.49 461.28 322.44 462.93 319.95 465.34 317.18 468.01 315.78 473.39 311.43 476.06 309.84 480.29 308.08 483.72 306.92 486.45 306.69 488.12 304.14 489.22 303.24 490.38 306.52 491.62 307.36 495.69 308.43 502.27 311.81 503.77 311.58 505.6 315.48 506.94 316.7 510.78 317.63 513.36 317.55 516.51 317.92 523.1 317.76 528.95 317.97 529.06 317.66 527.01 312.8 525.19 309.28 525.15 306.62 526.27 302.35 527.6 298.71 529.95 295.8 531.47 294.56 541.53 291.94 540.92 290.68 538.97 289.15 535.17 287.92 533.11 288.04 529.68 287.62 525 287.93 517.68 287.5 514.93 287.11 510.65 286.03 500.35 282.1 496.93 282.7 494.41 281.73 492.24 280.12 489.26 280.24 486.02 281.19 481.49 283.02 478.6 282.65 473.26 283.66 468.19 285.25 466.03 286.14 462.6 289.01 459.35 290.59 457.42 291.12 455.82 293.28 452.35 295.34 450.28 296.15 444.69 297.56 440.66 298.08 437.16 299.44 433.98 300.25 430.54 300.43 425.66 301.26 424.52 302.74 423.53 302.51 421.99 300.81 420.35 296.73 416.78 291.04 413.57 288.5 411.5 287.76 410 285.52 410.77 280.23 409.65 275.57 409.72 268.93 411.02 266.15 412.5 265.11 416.08 265.51 417.38 265.26 421.66 263.19 424.31 260.14 427.41 253.78 429.58 246.08 430.82 244.44 432.19 241.21 432.91 237.32 434.56 230.87 438.1 226.41 455.1 207.99 484.45 234.34 487.48 233.87 489.31 232.69 489.87 228.99 492.12 226.5 494.57 226.12 498.69 221.03 499 218.95 499.68 218.56 502.83 218.78 506.28 218.07 508.46 218.44 509.35 217.06 509.39 212.72 508.84 211.62 508.81 209.02 506.47 203.39 505.36 202.36 504.77 198.06 504.99 195.09 504.72 193.27 505.57 192.01 502.87 189.87 501.71 189.45 500.4 187.89 499.59 185.84 497.64 186.24 494.95 184.56 493.62 182.87 491.5 183.45 487.69 186.48 485.97 186.92 482.36 186.04 479.71 184.97 475.78 183.93 473.38 181.29 473.68 180.68 476.21 179.82 477.36 178.82 479.05 178.35 479.06 175.75 479.8 174.84 482.19 174.72 484.22 174.05 485.85 169.12 486.02 167.69 487.93 164.03 489.74 154.92 490.29 153.87 489.27 150.95 489.08 146.83 486.27 143.81 486.09 141.73 482.63 139.07 480.39 135.66 476.71 131.81 476.89 130.65 479.63 131.62 480.94 130.97 481.14 129.84 483.49 126.68 483.79 124.09 485.29 122.17 486.78 121.9 488.55 120.36 490.84 120.22 491.93 85 470.8 64.79 469.23 32.72 447.33 12.55 464.56 1 465.19 3.3 464.41 6.01 464.69 8.73 465.58 13.24 467.45 15.44 470.49 17.58 474.56 24.22 478.89 30.57 480.42 33.39 482.92 37.28 489.16 45.22 492.55 48.89 494.49 50.03 495.3 51.15 495.58 53.16 494.25 55.43 494.33 56.93 496.24 59.17 498.82 61.02 501.97 62.36 505.22 65.33 504.27 68.89 505.87 71.62 509.87 72.86 511.39 73.74 513.45 73.75 515.89 75.71 516.91 77.23 519.55 78.88 521.3 78.68 524.38 77.41 527 78.25 531.45 80.51 534.36 83.68 536.9 85.56 543 89.2 547.14 92.52 550.34 93.79 556.1 97.57 558.17 99.15 562.26 100.98 563.79 103.6 563.85 106.44 561.82 108.47 562.43 110.19 564.35 112.26 565.27 113.87 565.65 115.69 565.47 118.79 567.59 121.06 569.3 123.39 574.62 126.42 575.38 127.67 578.15 130.09 580.17 134.93 582.71 137.02 586.9 139.12 591.99 142.57 595.39 145.36 599.2 147 605.83 150.37 607.47 151.74 609.65 156.8 610.99 161.21 615.9 170.1 616.99 172.64 618.92 175.26 619.87 177.56 621.66 179.29 624.92 181.18 625.75 183.03 627.95 186.21 628.15 189.42 627.85 190.94 628.96 196.22 633.86 205.56 636.74 208.79 639.47 208.92 639.34 209.7 641.56 212.74 643.33 213.49 646.93 213.73 650.42 215.02 652 216.32 652.52 218.41 654.08 220.15 656.07 221.33 658.52 221.99 662.38 224.1 665.89 224.12 669.18 226.03 672.73 226.65 674.81 226.5 678.16 226.83 681.2 228.19 685.27 227.43 686.17 228.52 688.44 228.38 690.4 230.69 692.93 231.95 698.27 232.34 701.96 232.07 703.64 232.24 710.23 233.57 713.36 234.39 714.99 235.33 716.87 237.3 718 239.74 718.69 242.37 720.22 244.92 722.12 246.49 725.78 254.13 Z"/>
</g>
</svg>