<?xml version="1.0"?>
<svg xmlns="http://www.w3.org/2000/svg" version="1.2" baseProfile="tiny" width="800" height="649" viewBox="0 0 800 649" stroke-linecap="round" stroke-linejoin="round">
<g id="4214706">
<path d="M 623.42 135.65 624.02 141.46 624 143.45 624.49 146.02 624.47 149.68 625.7 153.92 626.03 156.52 625.7 158.2 625.88 162.15 626.13 163.34 627.56 164.74 627.87 166.02 627.21 167.26 624.53 169.71 621.81 173.16 615.88 178.68 612.3 184.42 611.3 185.42 607.42 188.44 606.37 189.47 606.17 192 606.67 193.09 609.8 195.89 610.45 197.2 611.85 201.55 612.73 203.6 613.95 205.45 615.37 206.6 617.17 208.59 618.15 210.5 618.71 212.6 619.67 214.27 622.25 216.62 623.1 218.77 623.72 219.43 626.66 221.48 627.54 222.86 627.99 226.54 628.4 227.4 630.2 228.74 631.55 231.14 631.7 233.11 630.49 237.6 628.44 241.05 627.68 244.67 627.91 248.63 627.87 252.44 629.07 255.92 632.48 262.67 632.24 264.13 632.59 265.32 634.28 266.65 635.95 268.76 637.02 270.59 638.41 271.94 641.24 273.01 643.62 273.25 646.13 272.32 647.46 272.7 649.23 273.99 651.06 274.4 654.63 274.49 656.95 273.91 659.3 273.71 660.45 274.53 661.64 276.33 662.24 279.28 665.06 281.89 666.04 285.11 667.23 286.64 670.59 288.8 672.27 289.06 679.42 287.1 681.1 285.82 682.43 285.77 685.49 287.64 685.99 291.09 687.16 292.79 689.11 293.85 691.55 292.82 695.9 290.51 698.09 288.79 702.14 287.75 705.38 287.5 711.09 288.34 712.72 288.17 713.92 286.99 715.51 283.2 717.19 281 718.02 280.32 721.42 278.45 723.27 278.46 725.38 279.68 726.36 281.2 727.93 285.64 729.43 287.43 734.38 289.81 736.31 290.01 738.35 289.42 740.71 289.24 742.75 290.4 743.75 291.55 744.78 293.72 747.33 294.22 748.85 293.87 751.66 290.79 756.56 288.43 758.36 288.09 760.39 289.03 762.82 288.04 766.37 285.46 768.83 284.59 771.87 285.09 773.2 284.57 775.06 283.09 776.5 282.45 779.69 282.79 781.13 282.14 782.48 282 783.91 282.7 783.93 287.48 784.12 289.97 784.04 292.3 785.53 296.6 785.36 298.35 784.41 299.22 778.28 302.1 779.78 302.61 782.22 301.56 786.47 300.72 788.06 301.16 792.86 304.86 793.73 305.85 793.96 307.02 793.29 308.9 791.51 310.5 789.57 311.61 788.2 313.21 786.6 314.01 788.99 317.01 789.31 318.78 789.99 320.48 788.54 324.87 785.14 327.21 782.93 329.8 781.89 331.51 778.97 334.31 778.16 336.07 778.03 338.07 778.45 339.94 782.43 349.21 783.11 350.15 788.08 353.37 789.05 353.47 791.82 354.9 792.6 356.37 791.74 359.32 790.79 361.05 790.68 362.3 791.72 366.5 792.56 367.86 793.38 373.48 793.9 375.89 794.51 377.36 796.31 379.5 795.1 382.36 792.94 386.61 792.43 388.64 790.08 391.06 789.7 393.17 791.03 399.01 790.89 400.07 791.61 403.92 793.21 405.71 793.68 407.52 792.87 407.98 786.02 407.74 777.79 407.75 777.32 408.39 777.46 410.53 776.82 413.1 777.6 416.44 777.48 418.94 776.62 420.92 776.66 421.68 779.58 427.04 779.47 427.65 778.1 428.34 775.89 430.15 774.8 431.96 774.25 434.5 772.73 436.78 772.5 439.5 772.03 441.13 771.95 445.23 771.43 446.56 769.49 447.18 765.7 449.32 764.04 450.75 759.95 453.8 753.67 460.69 753.54 462.09 755.78 464.3 757.17 467.62 758.37 471.37 758.06 473.62 755.21 475.56 754.15 477.76 755.21 480.86 754.63 483.89 756.21 487.9 758.54 489.61 760.75 491.84 761.46 493.8 761.27 495.96 761.39 498.23 763.44 500.02 763.16 500.83 759.4 502.51 755.9 506.63 755.06 507.4 753.5 510.12 753.52 513.78 754.15 517.3 755.24 519.43 755.31 520.49 754.68 522.54 753.67 524.15 753.24 525.9 753.46 527.42 754.92 529.31 755.27 533.07 755.03 535.2 755.43 537.39 755.28 538.55 753.97 541.16 751.77 543.9 750.58 546.49 749.6 551.07 751.35 557.16 753.48 560.54 753.9 564.06 754.53 566.25 756.07 568.68 755.95 570.49 754.79 572.22 755.07 573.74 755.98 575.41 755.91 576.74 754.2 577.64 753.15 579.66 750.76 583.34 750.31 584.41 750.84 585.38 751.89 585.74 755.44 585.57 757.63 586.51 757.08 589.57 758.55 591.93 759.21 596.6 760.07 597.52 765.2 598 769.44 598.77 770.82 599.94 771.88 601.66 773.6 602.37 776.97 601.21 778.09 601.07 780.63 602.55 784.63 603.95 787.69 604.73 792.84 606.8 795.39 608.5 796.43 608.76 799 607.65 776.27 648 743.44 641.81 666.41 627.29 636.83 618.89 524.36 586.97 524.45 585.37 524.17 582.17 525.33 576.38 527.12 574.66 529.14 573.31 528.94 571.52 529.43 570.37 529.73 567.74 529.36 562.44 528.23 560.92 526.34 560.94 523.98 561.48 522.14 561.19 520.52 560.21 518.66 559.61 517.81 557.15 515.57 555.36 515.38 550.49 514.41 548.36 514.29 546.78 513.25 544.58 512.52 541.98 511.46 539.85 507.29 538.03 503.41 534.85 502.62 534.76 498.06 537.08 496.97 537.04 493.72 535.77 489.73 534.84 484.79 534.71 483.25 535.36 480.05 535.95 479.15 534.84 478.98 532.24 477.51 529.93 477.68 528 477.11 526.77 476.38 522.45 474.86 519.58 474.81 517.04 475.76 512.49 476.92 508.61 477.04 505.69 476.4 504.84 473.85 502.6 468.37 498.7 466.56 496.72 465.5 496.27 464.03 496.37 462.73 496 462.48 495.05 458.6 493.04 458.19 492.08 458.92 490.78 458.28 489.04 456.96 488.2 454.38 487.37 453.3 486.63 452.76 485.22 452.78 482.27 453.13 481.19 453.12 478.96 452.52 477.09 451.61 476.33 451.8 474.29 449.05 471.68 446.89 471.02 443.51 471.08 440.49 469.65 439.26 469.76 436.72 471.39 434.72 473.09 431.94 473.33 428.29 472.28 424.7 470.99 423.19 470.7 421.68 469.55 421.09 467.77 420.8 465.68 419.18 463.55 417.53 460.26 417.83 458.07 415.84 456.72 413.24 456.01 412.89 453.76 411.57 453.46 410.94 452.75 410.03 450.02 410.22 448.85 409.46 447.28 408.13 446.3 405 445.94 402.93 445 399.86 444.96 396.96 443.13 396.54 441.71 395.15 440.3 394.21 437.81 393.55 437.32 391.29 436.73 390.68 434.29 389.61 432.37 387.46 431.06 386.61 429.02 383.89 427.6 381.75 425.76 381.65 425.1 382.31 422.59 382.08 420.58 381 418.33 379.39 416.26 378.22 415.51 372.77 414.59 370.4 413.77 368.55 414.38 366.89 414.48 365.83 414.06 364.04 414.11 362.87 413.74 361.61 411.07 360.28 410.11 358.64 410.04 355.15 411.39 352.82 411.21 348.62 409.08 346.14 405.62 342.68 402.8 340.74 400.62 339.34 398.34 338.15 394.72 337.52 394.45 335.87 395.35 330.5 396.42 329.25 396.05 326.26 393.89 324.93 392.57 322.16 391.17 316.21 389.28 311.61 387.45 309.32 386.9 306.21 386.53 299.89 386.88 293.46 388.08 291.13 387.39 288.62 385.94 283.37 384.3 280.67 382.63 276.96 379.69 274.92 377.53 273.42 375.62 271.93 373.21 270.21 370.94 267.27 366.66 266.43 364.95 265.75 364.37 263.56 364.13 260.22 364.38 257.42 366.17 254.95 367.26 252.1 368.21 249.76 369.83 242.31 365.77 239.8 365.62 237.66 365.77 235.84 366.95 231.41 371.28 230.04 371.76 226.14 372.23 222.46 371.69 219.54 369.68 213.97 366.49 210.87 364.53 209.72 364.23 206.31 364.55 204.29 366.19 199.5 367.54 198.17 367.3 192.41 363.64 190.3 363.2 189.24 364.4 188.63 367.27 187.31 369.73 185.34 371.58 183.64 372.36 182.25 373.58 181.76 374.61 181.46 378.34 182.13 380.07 181.93 385.16 181.12 386.48 179.3 388.15 176.2 391.68 173.55 391.85 171.32 392.71 170.17 393.45 167.3 394.74 165.49 396.51 164.43 397.08 161.91 397.08 159.16 397.68 155.5 397.51 154.57 396.88 151.86 391.71 152.06 389.28 153.4 386.88 153.24 385.39 151.74 384.56 149.64 385.06 148.74 384.96 147.43 382.79 145.93 381.09 146.07 379.69 146.87 377.59 145.93 374.22 146.38 372.06 146.4 370.42 149.11 368.18 151.62 365.43 154.56 363.53 156.17 361.9 160.2 358.92 160.91 355.93 160.65 354.3 159.42 350.93 157.92 349.42 153.1 348.12 151.9 347.2 150.46 343.6 150.3 341.48 151.52 339.97 154.62 337.7 155.05 336.46 154.85 331.86 154.25 329.09 154.36 325.75 153.82 323.17 154.24 321.85 155.45 320.25 156.47 315.79 157.59 314.21 161.04 312.2 161.59 309.57 162.24 307.9 163.9 306.36 164.32 305.53 166.67 303.04 170.54 301.3 171.36 300.6 171.52 296.12 172.65 294.5 173.89 292.12 176.45 288.7 178.55 287.16 180.15 286.52 182.13 285.22 183.45 282.67 182.76 279.92 181.99 278.61 180.6 278.17 173.57 277.2 169.95 275.61 167.37 273.78 165.94 271.3 164.24 270.27 162.78 270.07 157.74 265.66 156.55 264.28 155.53 264.09 153.04 264.32 151.3 263.6 149.61 261.61 147.8 260.55 142.14 258.99 139.9 258.78 138.41 256.52 134.74 254.75 133.37 253.35 131.91 251.19 132.23 245.69 133.28 243.42 133.96 241.09 130.57 237.23 130.9 236.23 132.84 235.41 133.39 234.63 133.22 233.42 132.44 232.67 131.98 230.21 132.33 228.63 132.18 225.99 131.32 224.1 131.83 222.25 130.72 218.5 130.31 215.37 131.66 214.03 132.26 211.48 132.5 209.24 133.35 207.92 133.05 205.61 131.57 205.33 130.78 203.51 129.7 202.2 128.27 201.65 126.96 202 123.26 204.31 121.54 204.61 120.46 204.03 118.74 202 116.46 200.2 115.56 199.97 111.98 200.48 110.94 200.02 110.17 198.48 106.54 196.42 104.12 193.95 102.19 192.75 100.78 192.76 99.26 190.96 95.91 188.51 94.99 187.34 93.88 182.35 92.44 181.23 88.87 180.12 86.93 180.14 84.94 179.76 82.6 178.91 80.73 177.3 78.78 176.41 72.25 176.1 70.27 176.67 68.35 176.83 66.47 176.55 64.92 176.88 63.06 178.85 60.05 179.89 57.86 181.02 56.4 181.3 54.51 180.62 53.38 178.46 51.88 178.17 48.34 180.3 44.81 179.35 42.36 179.29 39.86 180.64 34.54 182.63 31.82 182.77 29.36 181.06 26.99 177.76 24.89 176.71 22.2 175.99 19.59 175.93 17 176.34 13.46 178.04 9.58 180.25 7.91 180.4 5.74 181.02 4.22 180.68 3.73 178.82 3.23 178.49 3.22 175.74 2.75 170.99 2.5 169.83 1 167.44 1.25 166.27 3.08 162.74 1.69 160.66 1.62 159.22 2.35 158.02 5.95 156.35 6.62 154.9 6.25 153.02 8.24 150.86 8.5 149.51 6.28 147.27 6.24 145.16 8.55 141.3 8.94 138.85 9.66 138.09 11.27 137.54 14.06 137.36 15.99 136.55 17.77 134.68 17.99 133.62 17.84 130.47 19.34 129.23 21.18 128.44 24.27 126.7 27.33 124.52 30.05 123.15 32.66 122.39 33.29 121.46 32.22 119.72 32.13 118.18 33.26 117.47 37.68 113.68 38.24 112.78 38.17 110.75 38.71 107.26 38.43 106.1 37.49 105.74 35.45 106.12 35.03 105.63 34.98 102.2 34.42 100.19 37 99.68 37.98 98.5 38.2 97.42 39.64 95.07 40.08 93.17 40.08 90.81 39.35 89.1 37.98 87.6 37.9 85.22 38.62 84.28 39.78 84.45 42.97 87.99 44.06 88.07 46.81 87.13 49.23 87.17 51.42 88.58 53.71 89.14 54.89 88.95 57.01 87.36 57.63 84.96 59.13 82.87 62.47 80.79 63.78 80.71 66.85 82.84 71.95 84.81 73.78 86.54 75.31 86.84 83.68 86.3 86.3 85.9 92.04 85.85 95.7 85.95 99.91 86.4 103.22 86.49 106.93 85.46 109.5 82.84 115.05 77.74 122.37 74.53 125.98 73.19 131.38 71.86 137.51 69.93 140.18 68.79 143.86 65.84 145.94 63.04 147.69 60.32 149.86 57.73 151.83 56.33 159.39 52.8 160.83 51.97 162.93 50.27 168.27 47.68 170.49 47.83 173.43 48.97 175.14 49.1 178.62 47.73 179.67 47.62 183.14 49.29 190.77 51.07 193.27 52.31 196.17 53.01 197.19 52.8 201.64 51.07 205.88 49.88 207.39 48.23 208.33 47.69 209.97 47.49 212.89 47.58 216.92 46.2 218.15 44.45 219.17 43.83 221.71 43.31 225.21 41.68 227.91 39.82 232.24 35.63 234.91 32.18 236.74 31.5 238.33 32.2 241.52 35.78 244.66 37.07 245.98 37.15 250.13 34.54 252.47 33.64 255.47 33.96 256.71 33.66 257.72 32.76 259.63 28.47 262.55 24.99 264.65 23.13 267 18.45 270.32 15.07 271.75 13.9 275.59 12.49 277.32 11.01 278.44 7.44 281.43 4.32 282.92 3.81 285.85 4.19 286.77 4.84 288.02 6.43 290.31 7.69 291.9 9.18 292.81 9.46 296.54 9.62 298.58 10.15 300.18 12.52 300.37 14.07 299.74 16.19 300.48 17.21 301.95 17.68 311.2 18.54 313.21 19.5 314.15 21.43 314.97 21.95 318.9 23.64 322.15 24.22 322.9 24.89 323.5 27.01 324.75 28.91 325.41 32.77 326.35 35.55 327.49 37.31 329.2 37.39 330.75 38.25 331.77 39.56 332.95 42.94 334.73 44.35 336.21 46.67 336.75 49.94 337.77 51.7 338.61 52.1 341.27 52.61 344.55 51.76 347.87 51.7 350.44 49.97 353.91 48.53 355.35 47.35 356.46 45.89 359.1 43.73 361.48 42.76 362.47 41.69 362.48 40.48 363.08 38.53 364.46 36.2 364.92 33.8 364.86 32.75 365.44 31.76 370.98 29.79 375.06 29.11 376.75 29.32 380.05 30.11 382.22 29.64 383.76 28.51 385.89 27.39 390.7 22.9 391.56 21.63 391.82 20.3 393.03 18.74 395.28 17.96 397.79 16 401.87 18.87 403.39 18.4 404.67 17.48 406.43 15.46 407.84 14.86 410.6 15.81 411.68 15.48 412.67 14.35 413.31 11.57 414.27 10.42 415.6 10.38 418.14 12.29 422.31 12.26 426.06 12.61 427.47 11.4 427.28 8.77 428.05 6.19 428.87 2.55 430.73 1.5 434.51 1 435.62 1.11 437.54 1.92 438.82 2.85 441.83 3.59 442.82 4.59 443.65 7.43 445.39 8.84 446.91 9.31 448.21 9.19 449.65 8.53 451.33 6.93 452.97 7.04 454.87 7.99 455.64 10.93 456.72 13.07 457.69 14.24 460.26 16.31 460.81 19.43 461.16 20.09 464.7 22.32 465.53 24.46 469.73 26.98 470.79 27.03 472.69 25.9 474.14 23.8 474.93 23.62 477.06 26.83 476.78 29.46 476.92 32.04 477.77 33.04 479.02 33.46 480.86 35.85 480.83 37.06 479.51 39.6 480.28 42.86 479.98 43.8 476.75 47.91 476.86 50.01 477.88 53.59 476.53 54.92 475.51 58.27 475.6 58.87 478.36 61.59 479.14 63.13 480.98 64.85 482.61 67.29 486.36 69.3 487.11 70.54 488.09 73.33 489.16 74.46 491.18 74.2 492.93 72.12 494.97 71.42 496.54 71.98 498.19 73.4 499.86 80.59 500.76 81.96 502.97 82.28 505.16 81.81 508.37 81.58 510.79 82.33 513 85.78 515.07 87.35 516.47 88.02 517.33 89.48 516.38 92.15 516.26 94.04 517.54 96.9 517.93 99.69 517.91 101.34 518.83 104.53 521.7 106.65 523.4 107.58 524.16 109.1 524.91 109.53 526.32 111.8 529.69 114.34 531.02 116.25 532.1 116.78 534.03 117.13 535.59 116.86 537.57 116.07 539.11 116.44 541.62 118.54 542.6 119.74 545.26 120.25 547.38 121.47 549.42 123.17 551.13 123.8 555.65 123.7 557.24 124.19 559.57 124.28 561.31 123.83 563.82 122.26 565.85 121.56 572.77 121.09 576.05 120.24 578.59 118.64 580.89 118.25 585.97 120.93 589.36 121.32 592.35 121.36 594.73 121.87 597.77 121.25 601.41 118.91 604.2 117.99 607.45 119.49 609.17 121.1 613.39 123.09 615.57 124.38 619.3 125.54 620.46 127.54 621.03 131.82 622.76 133.61 623.42 135.65 Z"/>
</g>
</svg>