<?xml version="1.0"?>
<svg xmlns="http://www.w3.org/2000/svg" version="1.2" baseProfile="tiny" width="800" height="614" viewBox="0 0 800 614" stroke-linecap="round" stroke-linejoin="round">
<g id="4214300">
<path d="M 767.71 167.82 769.13 171.81 769.29 173.89 768.36 176.13 767.82 178.91 768.59 182.85 770.37 186.17 772.53 188.87 773.07 191.19 772.99 193.89 771.14 201 770 209.71 770.36 212.28 773.05 211.17 774.76 211.43 775.85 213.39 775.92 217.29 777.35 226.39 778.24 227.76 785.02 229.03 786.03 228.88 791.59 229.42 797.28 233.1 798.62 235.4 799 239.73 797.58 242.14 795.29 242.55 792.98 241.54 789.81 241.54 787.96 243.16 787.65 248.34 782.87 254.52 781.17 255.6 778.55 256.14 777.78 257.3 776.46 262.86 775.61 264.48 773.57 266.8 772.91 268.34 770.83 271.04 766.43 275.68 764.66 276.37 760.73 276.54 759.56 277.37 751.69 285.48 749.99 288.57 748.84 291.97 748.76 297.61 747.68 300.31 744.11 304.83 743.74 305.79 742.97 311.82 742.36 313.36 739.73 315.06 734.48 315.83 732.32 316.91 730.32 317.15 725.69 318.61 722.68 320.16 721.21 321.93 719.51 327.34 716.77 329.3 716.04 330.66 715.66 334.45 715.66 339.93 714.27 342.09 709.33 344.1 708.09 345.1 705.24 349.74 702.54 352.21 702.46 356.38 701.84 357.46 701.24 363.07 699.22 368.42 695.41 374.66 694.6 374.8 692.47 373.11 691.06 373.25 689.04 375.47 685.41 376.57 683.48 377.71 681.84 379.6 680.24 378.74 680.77 375.92 680 372.98 677.53 371.05 673.14 369.66 668.38 369.86 664.26 372.98 662.79 375.76 662.64 378.62 661.33 379.93 659.24 380.86 656.08 379.78 655 378.08 652.59 377.37 650.75 377.82 649.7 381.27 653.47 388.54 656.43 392.87 655.86 394.49 654.54 395.01 649.94 395.22 648.75 396.46 647.67 400.4 645.43 401.79 644.12 404.8 642.89 409.9 641.73 412.91 642.04 414.14 643.97 414.99 646.2 414.84 649.44 418.16 651.84 422.48 651.7 423.68 649.21 427.5 648.44 434.92 649.52 437.54 650.99 438.39 651.22 440.63 650.68 443.26 648.06 449.2 645.51 452.91 638.72 457.93 636.87 460.02 635.35 460.47 632.54 460.09 630.92 458.24 629.46 457.93 627.53 459.24 626.14 462.72 623.9 472.91 623.98 476.77 624.52 483.42 624.3 485.91 625.83 492.84 624.83 493.84 621.05 494.61 619.89 495.85 618.98 498.31 613.44 503.59 610.68 505.2 607.91 508.94 607.57 510.91 609.91 513.07 610.7 515.26 608.34 526.71 605.13 534.08 604.61 537.01 602.37 543.34 601.06 546.36 598.82 549.29 598.51 551.76 599.29 554 597.74 558.56 597.76 560.03 596.74 562.57 593.31 565.37 589.56 569.37 589.64 573.08 587.86 575.62 587.79 577.32 588.79 579.87 587.63 583.35 587.25 589.14 586.48 596.24 583.16 600.65 579.38 601.73 577.83 603.35 575.13 607.83 575.36 611.61 574.98 612.38 572.68 613 573.67 608.99 574.13 604.51 572.51 598.33 572.97 590.46 572.9 587.21 572.28 583.74 572.2 579.8 573.9 575.63 574.82 570.77 574.75 566.14 574.21 563.43 576.83 557.18 578.37 555.71 579.68 553.09 579.76 551.78 578.2 546.21 578.9 543.97 578.95 541.79 577.99 537.68 575.81 531.12 575.14 529.83 575.28 527.94 578.58 524.67 579.64 522.01 580.23 517.69 579.8 516.31 576.45 512.1 575.65 510.66 569.84 510.34 568.78 509.43 568.24 507.14 568.19 504.47 566.97 499.52 565.31 496.37 561.64 495.25 560.15 494.24 557.43 490.83 555.34 490.85 553.94 492.67 551.75 494.22 551.04 495.73 551.15 501.38 551.41 503.19 551.2 507.67 551.63 511.62 551.2 513.37 549.87 515.24 547.68 517.11 545.02 521.48 542.52 524.99 542.09 527.87 543.16 530.17 546.43 533.28 546.38 537.12 544.7 539.39 541.85 540.8 539.96 543.28 538.9 547.49 537.32 549.38 535.59 550.58 535.46 553.09 536.34 556.2 540.01 560.33 540.52 561.51 540.09 563.29 536.69 563.53 535.59 564.97 535.11 567.16 532.4 571.5 531.09 574.51 527.18 578.48 524.63 578.97 522.62 580.11 519.06 581.04 517.59 581.95 516.07 584.48 515.94 587.12 515.06 588.74 512.45 590.56 510.03 598.42 507.34 601.67 506.38 605.56 505.53 607.08 504.3 607.56 502.46 606.73 499.56 603.4 498.1 601.27 495.65 599.46 494.74 596.02 492.48 595.46 490.11 595.7 489.07 594.61 486.03 590.08 480.25 588.9 478.07 587.6 476.42 585.39 476.23 580.56 475.25 574.3 475.7 570.67 473.73 569.5 471.95 567.48 471.92 563.67 468.78 562.76 464.44 563.03 460.31 562.97 458.71 564.07 454.69 564.09 451.07 566.01 449.66 569.4 448.16 571.79 447.07 576.91 445.07 578.59 443.1 578.72 441.35 577.98 436.92 573.92 433.22 569.52 430.36 567.59 429.28 566.2 428.05 562.88 425.89 560.95 423.65 560.41 422.34 558.24 422.11 556.85 422.73 554.54 425.12 549.9 428.9 547.43 428.82 544.04 424.71 541.38 420.67 541.66 418 539.64 416.42 539.65 412.85 541.49 408.07 542.26 405.29 541.33 402.1 541.8 399.03 545.22 396.26 549.59 394.25 550.52 392.32 549.52 390.55 546.81 383.45 541.41 381.52 540.33 376.55 539.93 372.88 542.95 371.34 545.12 371.34 548.44 370.8 552.84 368.1 560.87 364.47 566.51 359.78 569.73 358.22 570.44 355.06 573.07 350.89 575.54 347.03 578.71 345.87 580.17 344.53 584.73 342.24 588.15 341.71 591.29 339.7 593.36 337.7 593.76 336.08 594.92 332.22 600.48 330.91 602.87 327.51 602.57 324.12 600.87 319.41 599.79 310.38 601.33 303.8 601.14 301.2 600.17 294.72 594.69 290.94 592.45 288.55 586.12 286.77 583.57 284.76 581.75 279.13 578.09 275.89 576.39 272.73 572.53 271.65 568.98 271.72 563.11 269.56 559.63 267.71 558.32 266.02 556.39 265.01 554 264.39 548.2 265.32 541.95 266.48 538.86 269.33 534.23 270.41 530.99 269.72 528.9 268.18 527.36 263.44 525.5 258.96 524.74 254.3 523.44 247.1 522.49 240.07 521.1 237.74 520.21 233.59 519.24 226.82 518.48 220.8 517.01 218.41 513.23 214.86 510.99 211.7 510.37 209.53 511.14 205.91 514.92 205.14 516.16 203.21 516.85 198.96 517.01 191.33 515.54 184.15 514.69 178.36 514.85 174.21 515.61 168.06 519.28 168.6 518.23 171.06 515.93 172.49 512.46 172.49 507 171.89 506.01 167.26 501.43 166.21 497.74 164.67 496.36 163.85 494.65 165.83 490.13 164.73 485.33 166.43 478.33 166.77 475.35 166.1 472.21 167.98 469.01 171.72 466.04 172.88 464 174.97 457.11 173.6 454.18 174.37 452.31 177.89 450.27 179.77 445.47 179.6 444.2 174.37 436.82 174.09 434.83 175.3 433.23 180.59 430.75 186.98 422.92 190.89 419.51 191.45 417.96 190.84 414.87 189.08 413.83 182.41 413.22 176.68 412.34 175.41 411.51 174.64 408.2 173.43 405.31 170.96 403.63 167.49 399.86 167.09 397.96 168.05 396.72 168.75 393.28 173.48 387.64 183.42 382.74 186.62 380.38 188.8 378.19 190.71 374.43 191.83 373.03 194.86 370.89 197.89 368.2 199.31 364.87 200.93 358.27 200.31 354.75 198.95 352.02 199.13 350.02 200.41 347.83 201.82 341.59 202.21 337.79 201.19 333.91 198.93 331.18 197.53 328.51 196.18 327.05 192.85 325.07 191.5 323.47 188.45 316.17 180.02 303.09 179.12 300.58 177.46 298.63 173.47 296.97 171.41 295.24 169.21 289.87 168.24 288.38 162.69 284.51 159.99 278.79 157.9 275.68 155.75 273.2 155.03 269.54 152.94 262.85 150.9 260.04 147.88 259.4 144.96 256.43 143.75 256.1 138.22 256.54 135.08 257.75 133.13 258.05 131.01 259.05 129 258.96 125.58 257.78 121.4 257.78 118.32 256.21 116.03 255.66 112.79 256.02 106.95 257.59 104.64 256.92 101.31 254.53 98.94 254.5 95.89 256.02 94.57 255.88 91.92 252.38 90.49 251.8 84.55 252.65 79.65 251.06 74.78 249.16 70.26 247.92 67.01 244.92 64.54 244.53 61.32 245.74 56.58 245.63 50.94 241.66 49.7 238.88 49.95 235.58 49.35 233.29 49.29 229.13 48.85 225.22 47.14 222.69 45.82 221.92 40.92 220.15 39.82 219.33 38.01 214.42 34.59 213.27 30.9 209.58 29.43 207.4 27.85 202.24 24.41 200.16 20.64 198.39 17.97 194.91 14.37 192.62 12.98 190.96 12.64 188.37 12.87 185.96 13.96 182.45 14.2 180.06 13.19 178.36 9.31 174.55 4.81 171.03 1.8 167.65 1 157.71 1.34 154.79 2.14 152.63 3.63 151.25 8.58 142.14 8.84 139.67 7.67 136.29 7.86 134.6 10.59 129.85 13.71 127.58 15.79 123.48 15.98 121.14 14.29 118.93 13.45 112.5 13.45 109.9 12.6 107.69 10.33 106.26 9.55 104.76 9.23 98.65 7.15 94.17 6.95 91.83 7.41 87.8 8.77 83.05 10.72 80.13 12.28 76.88 13.58 73.17 15.72 69.92 20.72 67.58 22.93 66.81 23.26 65.18 21.5 62.32 23 60.89 28.19 62.39 29.49 61.67 31.24 59.33 35.92 56.08 37.87 54.46 41.51 52.25 45.34 49.26 47.09 47.05 50.99 44.06 53.98 43.54 58.98 43.28 64.5 43.93 67.03 42.89 70.99 39.38 76.06 38.21 81.45 31.38 83.66 29.76 87.3 28.52 89.18 28.52 91.13 30.67 91.84 34.05 93.92 37.17 96.65 39.25 101.84 42.17 103.55 45.06 106.97 43.62 112.04 39.82 113.71 38.28 114.92 35.84 119.29 33.81 122.16 33.79 125.96 32.52 127.29 34.13 129.21 35.5 134 35.64 136.96 34.18 139.77 31.01 141.35 30.09 145.32 29.97 148.75 28.08 152.01 25.88 153.47 25.33 156.68 25.11 159.61 26.07 165.2 26.06 168.16 27.72 171.37 28.81 176.46 29.15 176.99 29.84 180.27 30.29 182.18 33.09 182.39 36.8 184.69 36.27 187.26 36.26 192.99 37.87 195.23 37.21 199.19 36.63 201.39 33.39 205.66 33.38 208.13 35.19 211.89 35.79 215.48 33.89 217.94 31.57 217.82 27.91 214.77 23.38 214.42 21.18 214.71 17.55 217.02 14.7 220.05 14.01 224.01 12.48 227.65 6.61 228.81 2.35 229.94 1 231.25 1.61 230.6 2.97 231.48 6.89 230.67 9.35 231.43 12.28 232.39 13.04 232.73 17.23 235.15 21.34 235.41 23.92 237.43 27.81 239.07 29.85 239.18 31.34 240.67 33.55 239.9 41.07 241.21 42.42 244.57 44.24 248.6 45.13 253.04 48.43 254.12 53.44 255.34 54.16 256.41 56.21 260.31 59 386.76 10.75 403.22 83.54 414.28 132.47 464.97 214.03 638.72 128.86 636.36 133.8 634.38 135.28 633.71 136.58 634.12 138.51 637.46 141.61 638.26 144.92 640.28 145.48 641.58 148.68 642.63 149.53 641.56 150.89 639.47 152.17 639.83 154.11 641.88 155.28 646.3 155.35 647.76 154.81 652.09 151.63 655.13 149.91 656.1 147.61 660.71 146.46 662.64 144.57 665.34 143.22 666.4 139.13 668.41 140.39 669.83 140.59 671.35 142.49 673.64 143.17 674.4 144.83 676.09 143.67 674.69 142.45 675.64 141.01 678.54 142.64 682.1 141.33 693.09 156.3 705.12 154.04 705.48 159.23 705.02 160.97 705.6 162 707.46 162.07 709.05 162.9 711.94 160.34 713.52 157.07 717.55 156.18 719.27 157.04 721.71 155.48 723.27 152.85 724.23 150.37 727.22 148.85 729.99 148.63 731.89 150.65 734.7 149.99 735.69 148.78 736.95 143.49 738.27 142.72 741.08 143.44 745.15 146.63 750.87 149.77 754.06 151.75 755.6 153.46 756.86 156.15 758.95 162.21 762.64 166.61 766.12 168.28 767.71 167.82 Z"/>
</g>
</svg>