<?xml version="1.0"?>
<svg xmlns="http://www.w3.org/2000/svg" version="1.2" baseProfile="tiny" width="800" height="629" viewBox="0 0 800 629" stroke-linecap="round" stroke-linejoin="round">
<g id="4214201">
<path d="M 759.32 104.85 762.17 109.78 763.28 113.1 763.3 114.52 762.43 119.51 761.37 123.49 761.5 126 761.22 134.2 760.44 138.46 758.51 145.09 756.97 148.96 754.9 151.59 750.84 156.07 746.98 161.15 744.46 163.14 735.68 168.12 732.51 170.34 729.32 173.54 727.34 176.25 726.06 179.85 725.9 184.56 727.05 187.79 730.42 191.81 734.68 194.68 738.13 196.62 741.97 197.97 751.03 200.11 754.58 200.52 757.31 199.82 763.14 196.31 765.31 194.68 768.43 191.62 771.76 189.78 776.54 188.59 779.23 190.08 781.11 194.11 781.77 196.25 782.79 202.16 785.49 209.25 786.4 214.2 787 226.81 786.7 232.9 787.59 235.48 787.66 241.13 789.24 245.04 791.34 246.94 796.41 249.58 797.5 250.56 799 253.77 798.88 257.8 797.82 259.4 793.66 261.14 790.43 261.8 788.11 261.23 785.58 259.87 782.9 259.06 777.85 259 775.2 259.73 770.24 262.77 767.7 263.26 764.99 263.1 760.71 262.16 755.29 260.55 744.6 258.03 741.65 257.73 737.14 258.28 731.72 260.41 727.08 263.44 722.64 266.82 718.79 271.15 716.47 274.38 714.77 279.7 712.05 281.82 710.16 282.52 706.38 283.2 703 283.14 698.08 282.31 692.08 279.46 690.47 278.39 683.3 275.23 679.06 272.35 677.35 272.13 673.98 273.11 668.52 273.23 666.38 273.7 665.39 274.83 664.87 279.95 664.34 282.68 664.75 284.98 665.95 287.06 668.48 289.91 673.42 293.84 680.31 298.21 685.47 302 691.19 304.38 695.19 307.74 697.04 311.45 697.12 314.02 695.55 318.38 691.08 323.13 688.82 324.62 686.41 325.26 681.36 327.27 678.11 327.81 668.55 328.28 659.64 327.38 654.9 326.57 648.91 325.98 645.73 325.9 639.99 326.73 636.38 328.07 633.98 330.7 633 332.5 632.87 335.75 633.87 338.88 636.01 342.39 639.28 345.31 649.34 350.99 653.65 353 657.9 354.44 661.97 355.33 665.43 355.48 672.32 354.43 681.4 354.03 687.62 354.58 691.3 356.26 692.18 359.09 690.96 362.81 689.52 365.32 687.35 367.04 683.01 369.56 677.97 372.05 665.44 376.27 661.71 377.88 659.77 379.54 658.51 382.16 657.94 385.77 659.38 390.05 661.78 393.51 665.63 396.58 670.06 398.16 693.59 403.34 699.5 405.08 703.66 406.66 709.33 409.8 709.93 410.53 711.88 413.79 712.39 416.8 711.98 419.5 708.04 425.82 706.11 427.75 699.53 430.72 691.03 435.45 686.66 436.61 681.72 437.4 677.75 437.5 675.43 437.09 671.1 435.17 661.92 429.64 653.1 422.89 650.23 419.65 641.98 408.91 638.32 404.95 631.91 399.41 622.56 387.67 620.66 384.53 619.69 382.14 619.24 379.44 619.79 373.69 623.23 367.36 626.23 360.13 627.01 356.69 625.94 353.76 623.83 352.14 621.74 351.12 617.47 350.12 611.31 349.78 605.39 350 603.01 350.61 594.9 355.35 581.53 361.53 566.18 371.69 557.46 377.87 550.51 381.87 547.17 383.97 542.52 386.05 539.12 387.29 535.27 387.88 527.39 387.19 520.23 385.97 513.08 383.52 501.3 380.05 492.37 378.56 488 378.27 481.09 378.29 476.75 379.7 474.55 381.09 473.57 383.27 473.77 387.51 473.54 391.34 473.99 397.56 474.75 399.5 476.08 401.25 478.24 402.93 481.38 404.29 485.3 405.56 492.02 408.12 503.19 412 506.26 413.49 514.62 416.23 516.97 417.67 531.99 430.81 536.02 434.15 539.47 436.34 546.47 439.32 552.69 441.2 569.03 447.01 572.36 448.56 574.77 450.2 577.63 452.81 578.85 454.93 579.58 457.27 579.41 460.11 577.57 465.09 575.41 469.59 574.57 471.92 572.91 478.41 570.85 484.74 568.94 489.68 567.06 492.67 564.15 494.68 557.13 497.28 551.45 498.76 544.15 500.18 540.5 501.58 538.62 502.77 532.96 508.4 530.38 511.39 524.62 516.49 517.2 521.31 514.31 522.21 512.13 522.22 510.51 521.64 504.69 517.75 502.58 516.09 500.17 513.42 496.29 508.45 493.57 505.42 490.69 503.22 487.26 501.97 483.89 501.66 478.97 501.6 462.61 502.61 454.49 502.78 449.42 502.62 440.88 501.46 433.76 500.74 430.06 500.08 423.43 499.76 420.2 500.48 418.43 501.28 416.59 503.4 414.37 508.02 413.26 511.84 412.72 513.69 411.99 518.68 412.37 521.64 415.21 529.29 419.16 536.11 422.74 541.22 425.2 545.84 426.95 549.83 429.27 558.4 429.03 561.73 428.08 563.92 426.26 565.91 423.75 567.45 418.72 569.19 415.3 569.74 412.79 569.76 407.38 568.57 403.09 566.72 395.5 564.05 385.46 559.41 380.42 557.63 373.89 556.06 367.95 555.1 363.61 554.65 357.94 554.68 353.02 555.3 347.07 556.92 341.19 558.98 338.49 560.39 335.61 562.56 329 568.67 327.87 572.02 327.52 574.6 328.1 581.96 331.27 591.32 333.36 598.7 333.87 601.17 333.85 604.3 333.43 608.57 332.47 612.45 330.61 616.95 329.45 621.47 329.36 628 326.61 627.41 321.48 624.17 317.57 623.91 313.38 621.66 312.08 619.69 310.36 618.72 309.99 617.27 312 615.07 311.42 612.96 309.14 610.03 307.94 605.93 306.14 604.02 306.98 603.4 305.8 601.14 304.59 600.18 301.97 599.89 299.67 599.14 299.61 596.17 297.95 595.91 296.73 594.76 296.51 593.25 294.68 590.96 293.55 590.49 292.15 588.76 288.43 588.21 285.59 585.05 284.83 582.7 281.78 581.27 278.87 575.43 277.77 573.97 275.57 573.34 274.72 572.37 274.82 570.73 273.35 569.98 272.66 568.58 270.62 567.04 269.27 565.34 267.4 564.35 267.45 563.08 264.52 560.59 264.61 559.35 263.64 557.58 262.36 557.13 261.32 554.84 261.71 552.09 260.59 549.99 261.61 546.08 258.94 543.15 257.62 540.79 257.6 539.56 255.8 537.16 255.75 534.65 254.3 530.86 252.65 529.29 250.28 528.61 246.75 526.96 243.22 526.11 241.38 526.4 238.42 522.26 235.62 517.46 233.04 510.37 230.41 507.94 226.68 505.68 221.32 498.22 214.85 487.86 212.89 483.48 209.94 479.49 208.34 476.19 205.72 472.09 204.66 469.19 204.1 466.42 202.98 463.51 201.51 461.72 197.94 460.18 190.93 460.39 187.55 461.55 184.84 462.91 181.08 464.14 177.28 466.25 171.96 462.88 170.05 460.59 166.91 457.69 164.55 454.26 162.54 450.64 160.8 446.56 157.05 441.06 155.47 434.61 153.48 432.3 149.49 428.48 143.74 424.6 143.1 423 143.2 420.66 144.61 417.77 146.2 411.87 145.31 405.86 145.22 402.11 146.74 398.71 146.49 396.93 142.16 393.31 139.39 390.66 137.38 387.11 139.14 384.47 146.85 378.29 147.63 376.95 148 372.9 146.94 370.81 142.84 365.29 140.73 361.53 140.25 357.03 140.73 351.47 141.86 346.52 141.76 343.39 138.15 340.53 135.37 339.52 132.48 337.93 129.69 336.95 125.39 336.09 122.03 334.86 120.59 333.94 119.32 328.81 117.14 323.41 112.2 318.31 107.65 315.22 106.84 314.23 107.55 310.62 107.65 305.8 104.65 300.68 103.97 298.7 102.88 297.65 99.74 296.48 98.65 295.65 96.59 291.7 95.01 290.16 92.8 289.46 89.8 289.07 86.67 286.91 85.95 283.12 86.76 280.6 89.18 274.78 89.57 270.6 88 265.66 86.21 263.08 83.04 261.38 81.57 259.12 81.6 256.96 82.55 256.14 85.96 254.96 87.7 253.55 88.41 252.1 90.15 244.96 90.53 241.02 92.14 236.53 90.85 234.11 86.17 231.62 84.38 229.53 82.6 229.07 80.49 229.82 78.43 229.1 76.99 227.86 75.59 223.22 71.96 213.61 69.28 208.87 68.83 203.63 70.4 193.14 70.13 189.67 68.66 186.53 66.31 184.12 64.74 183.1 52.18 178.79 46.11 177.72 43.97 176.27 42.95 174.24 39.29 171.3 37.37 169.23 36.7 166.63 35.27 163.96 34.99 162.35 35.42 158.03 33.63 155.59 33.45 154.09 32.11 153.09 25.93 151.35 24.52 150.4 22.55 147.17 22.27 144.42 20.38 139.75 17.7 136.8 13.84 134.65 12.73 132.29 13.52 129.84 13.16 127.52 14.4 125.13 16.26 119.67 16.29 116.76 15.25 114.05 12.31 108.88 9.47 107.45 7.28 107.8 5.64 106.66 4.73 103.81 1.29 100.14 1 96.14 3.13 90.22 4.57 89.2 7.19 91.54 12.45 94.54 14.62 96.7 18.98 96.63 22.54 97.79 25.37 101.3 27.98 102.82 29.57 103.22 34.22 109.33 36.71 114.72 38.74 116.02 39.37 117.67 40.07 122 42.66 123.62 43.76 126 46.91 127 55.11 127.67 59.66 129.24 63.08 128.44 64.82 128.4 66.39 127.48 68.84 128.35 70.84 127.02 76.86 126.89 80.87 125.04 84.36 123.92 86.34 124.05 92.05 121.1 93.73 121.77 94.73 121.1 97.78 121.44 98.43 123.01 102.87 122.85 104.37 121.7 105.47 122.11 107.94 125.22 110.15 125.38 114.03 127.19 115.41 129.45 117.05 129.7 120.09 132.55 123.09 133.93 127.55 135.52 131.32 136.38 136.1 138.2 138.24 139.76 140.88 140.61 144.5 139.98 147.54 136.01 147.57 134.17 148.45 132.92 150.24 132.49 153.46 133.34 152.97 130.5 154.3 128.61 156.95 126.91 162.64 124.35 167.95 120.31 173.22 118.07 177.37 118.55 179.37 117.99 182.27 115.83 185.7 114.24 187.82 111.52 188.32 108.65 190.58 108.27 191.63 106.38 193.79 106.64 197.06 105.71 199.76 104.09 201.57 103.61 202.91 104.15 207.6 103.61 211.82 102.66 213.55 101.38 217.11 100.51 218.9 99.56 223.1 98.13 223.88 97.07 226.78 95.77 283.39 114.62 285.68 113.81 287.16 112.61 289.32 109.57 293.22 107.22 295.45 105.04 298.89 102.65 302.45 101.04 302.79 99.79 302.25 97.73 302.02 94.54 303.37 90.14 304.6 88.03 303.77 85.73 302.49 80.2 301.13 79.19 300.27 76.95 300.61 75 303.92 71.9 305.07 69.79 306.04 64.41 307.67 62.51 310.07 56.64 310.62 53.95 312.01 52.52 315.82 53.41 320 52.66 324.4 54.13 325.97 53.73 328.3 51.44 331.22 50.61 333.42 50.73 336.55 50.32 338.12 50.55 343.82 53.11 347.07 55.71 352.58 57.54 354.58 58.49 359.05 62.48 360.25 65.57 363.29 66.66 372.18 70.77 373.52 72.1 375.65 75.45 380.67 78.92 387.76 84.39 390.75 84.94 392.92 85.91 396.42 86.73 399.81 88.36 400.65 90.23 400.55 91.97 399.02 95.81 399.26 97.24 400.8 98.02 402.23 97.82 405.57 96.47 408.48 95.91 411.17 96.91 413.11 98.5 417.28 98.69 420.33 97.98 424.81 99.95 427.68 99.83 431.32 98.37 436.44 100.18 439.82 100.79 443.04 100.46 450.9 98.88 456.04 98.28 459.44 96.98 467.77 97.41 474.35 97.96 475.09 96.19 477.05 94.05 483.68 94.98 534.66 99.37 537.3 91.09 539.77 89.04 546.11 87 548.53 85.29 550.55 84.4 553.32 82.5 555.31 82.4 558.15 82.95 562.05 84.19 563.68 83 567.1 77.24 568.73 75.39 571.83 72.67 573.93 71.7 580.46 70.14 582.47 68.38 579.21 64.25 578.53 62.46 578.98 60.54 583.87 55.59 585.58 51.91 585.44 49.89 584 47.65 584.65 45.23 586.76 42.98 592.24 39.88 597.06 37.93 603.15 33.09 605.38 30.78 613.6 32.57 618.54 32.54 625.25 31.63 628.56 28.62 630.74 27.51 635.59 26.32 638.9 26.11 641.91 26.5 644.05 25.81 645.68 24.47 648.9 23.31 651.2 23.38 653.57 21.62 656.61 22.23 659.8 20.44 662.64 17.82 666.03 13.76 666.7 11.86 666.51 9.09 669.61 6.24 673.48 4.07 678.82 2.31 683.57 1 699.58 14.48 697.53 16.27 695.25 20.76 693.52 23.2 692.52 29.24 693.93 32.19 696.26 37.99 699.37 42.81 702.64 44.48 707.49 46.06 710.68 46.22 714.13 45.22 717.26 43.41 719.76 40.92 721.93 40.26 723.58 40.82 730.5 41.32 735.12 43.22 735.95 43.24 739.16 41.32 740.41 40.01 741.9 35.9 743.24 31.1 744.36 29.12 748.94 29.6 751.07 30.9 753.14 33.72 756.57 37.47 756.74 40.49 757.48 44.92 758.74 48.19 759.46 52.05 759.66 54.88 758.92 59.91 756.31 68.57 755.08 70.37 751.34 72.46 743.69 74.34 736.46 75.92 730.49 78.39 724.05 80.75 720.71 82.51 719.38 83.82 718.62 87.17 719.83 91.69 721.52 94.55 723.99 96.39 725.75 96.8 737.25 97.07 742.79 98.22 748.42 100.85 759.32 104.85 Z"/>
</g>
</svg>