<?xml version="1.0"?>
<svg xmlns="http://www.w3.org/2000/svg" version="1.2" baseProfile="tiny" width="800" height="524" viewBox="0 0 800 524" stroke-linecap="round" stroke-linejoin="round">
<g id="4214102">
<path d="M 707.84 194.03 705.45 193.87 701.41 194.17 700.09 194.49 698.99 195.62 697.47 196.34 694.84 196.6 687.36 194.91 686.04 192.84 684.06 191.74 675 193.01 674.21 195.34 674.77 196.55 677.13 199.12 676.91 201.74 675.57 202.77 674.36 202.48 671.75 199.87 668.4 198.37 666.83 199.31 665.5 201 664.7 203.32 663.84 204.58 663.61 206.26 662.41 206.33 660.04 204.03 659.15 203.74 655.07 203.77 652.12 202.87 649.41 203.14 648.01 204.2 646.79 207.53 645.04 208.21 642.42 207.77 640.75 207.93 638.37 207.56 635.56 208.05 631.59 210.07 628.71 209.99 626.86 210.36 626.16 211.08 626.55 212.47 629.66 216.62 630.07 220.34 628.55 224.66 629.35 226.18 628.68 227.52 626.28 227.64 623.42 228.63 618.09 231.49 615.16 231.84 614.51 233.47 615.93 235.58 615.65 237.66 613.68 237.43 612.41 236.43 610.8 237.04 607.97 237.25 606.58 236.04 604.45 236.07 600.79 238.42 599.16 238.98 596.1 237.26 593.61 236.9 589.49 238.46 587.08 241.33 585.25 241.76 583.83 241.31 582.64 238.47 582.44 236.38 583.57 232.82 583.38 231 582.65 229.62 581.41 229.15 578.4 229.33 576.81 229.98 574.55 232.56 573.41 232.75 567.98 230.94 567.07 231.08 565.11 232.87 565.48 234.6 566.98 235.35 569.41 235.42 570.77 236.82 571.18 239.45 570.65 241.16 569.16 244.27 569.38 246.7 568.06 248.49 567.27 248.76 565.56 247.59 564.23 246.13 560.47 246.22 558.89 247.31 558.53 248.73 559.52 251.66 561.42 253.33 561.08 255.21 560.07 255.34 556.49 253.28 554.25 253.46 552.17 254.89 549.43 257.9 548.41 259.6 546.08 261.28 544.48 263 544.25 266.71 541.23 269.54 539.74 271.99 537.85 270.97 535.69 268.06 531.61 266.09 526.03 265.13 522.19 264.3 520.83 263.7 518.92 263.98 515.79 264.98 513.96 264.4 512.51 263.36 511.55 263.49 508.64 265.76 507.36 265.71 506.86 263.16 506.09 261.3 505.21 260.56 501.88 259.37 498.48 258.66 497.28 258.01 494.27 258.81 493.22 261.33 492.78 263.19 491.08 267.87 490.55 268.6 490.37 270.6 491.1 272.58 492.75 273.52 496.62 274.55 497.66 275.41 499.25 278.46 500.64 281.67 501.35 284.64 502.81 287.08 503.31 289.1 504.12 290.35 503.44 292.04 501.75 292.05 497.29 291.01 496.23 291 493.44 289.29 492.18 289.38 490.78 290.2 489.3 291.94 489.35 292.83 491.54 293.12 493.39 292.28 495.37 293.1 495.94 295.1 495.9 299.17 494.98 301.37 493.63 302.01 489.58 300.78 488.06 300.59 485.52 301.74 481.94 300.45 479.71 299.38 477.71 299.86 476.63 302.08 476.89 304.44 478.06 306.23 479.19 307.17 479.29 308.5 478.32 308.94 472.37 309.22 471.4 309.59 471.02 310.82 471.5 314.23 472.92 317.4 474.43 322.64 476.72 324.78 477.27 327.13 474.22 329.97 468.2 332.42 465.78 333.91 465.01 336.18 462.97 335.27 460.62 334.69 459.15 335.13 458.36 336.86 458.44 340.74 459.17 341.71 462.81 343.17 467.87 345.49 470.37 345.85 473.18 345.41 473.74 346.74 471.9 348.34 468.31 347.97 466.68 348.1 465.97 349.58 467.79 351.88 465.67 356.24 466.7 358.44 468.07 360.26 471.78 363.59 471.87 364.56 469.47 367.11 469.75 370.43 469.18 370.88 467.22 368.81 466.47 364.53 464.8 363.95 464.37 364.75 464.75 367.76 462.64 371.17 462.82 372.03 465.79 373.61 465.4 375.16 461 376.21 460.42 376.64 459.37 379.26 459.8 380.33 461.99 382.09 462 384.09 453.91 384.02 452.72 385.38 455.86 388.4 458.34 391.38 458.03 392.19 453.38 393.1 452.96 394.2 453.93 395.15 455.91 395.19 461.48 398.54 465.44 404.78 465.96 407.26 467.16 410.31 466.96 411.84 464.99 411.89 460.69 407.84 460.39 405.48 459.64 404.5 457.58 404.5 457.24 408.35 455.95 410.82 455.42 413.15 456.56 414.96 456.65 416.56 455.66 417.17 452.6 417.07 449.42 416.46 448.4 417.74 449.94 420.68 451.18 423.74 450.02 424.26 447.99 424.25 447.44 425.07 447.53 427.79 449.21 433.31 448.57 434.59 447.24 434.5 444.2 431.11 443.72 429.8 442.07 429.13 440.33 429.22 439.86 427.74 440.51 426.72 440.2 425.23 436.19 426.54 434.87 425.24 433.96 422.65 433.2 421.44 431.5 419.95 431.43 416.17 430.97 414.21 429.43 413.55 427.2 413.66 423.75 415.09 420.2 415.44 419.07 415.99 416.58 415.68 413.98 413.78 412.64 413.97 410.84 415.4 409.03 413.85 406.11 413.55 406.08 412.61 402 412.16 398.17 412.33 396.6 412.06 394.63 412.75 393.67 413.88 390.68 412.18 385.78 411.21 382.61 411.41 381.14 410.98 380.1 409.96 378.16 409.74 376.85 410.13 376.15 411.31 372.16 416.34 369.24 419.06 365.92 419.71 363.29 419.57 360.69 420.39 357.16 422.37 354.84 423.11 353.89 424.57 351.31 425.77 349.84 427.36 348.35 428.02 346 428.27 344.74 429.72 344.2 431.14 342.2 432.19 340.68 432.28 339.76 433.89 337.82 434.21 337.01 432.58 334.48 432.75 333.04 432.22 331.74 433.13 325.47 433.96 320.79 436.65 318.42 437.64 319.04 439.07 315.02 440.16 312.35 439.84 309.05 437.47 306.65 436.98 304.84 437.43 304.09 435.8 303.09 435.39 300.2 436.76 295.75 437.58 294.07 438.7 291.82 439.69 289.54 440.07 286.47 440.1 285.32 438.95 282.67 439.31 278.87 441.54 277.2 441.68 272.5 440.85 270.79 440.25 268.75 440.97 266.57 440.12 264.87 440.36 263.66 441.3 261.85 441.67 258.65 442.84 257.39 443.73 255.99 446.08 253.84 445.89 253.04 447.29 249.84 448.31 248.96 449.84 247.77 450.66 247.3 451.84 247.82 453.48 247.55 454.96 247.67 457.49 246.57 459.36 245.32 460.28 243.76 463.34 244.57 466.28 245.22 469.93 246.2 470.95 243.49 475.54 242.16 480.86 240.19 484.97 238.33 487.05 237 487.34 232.68 487.22 228.74 488.74 219.94 495.02 216.72 496.27 215.3 497.11 214.31 498.35 214.08 499.87 215.61 503.64 215.85 505.6 215.56 507.42 214.38 509.83 208.04 515.22 205.99 516.18 203.02 516.25 200.3 515.6 198.68 514.49 197.04 511.78 195.37 510.38 192.43 507.31 190.95 506.68 186.75 505.87 181.61 504.27 179.11 504.1 175.22 505.23 173.3 505.18 168.12 503.9 164.55 503.49 156.82 503.35 153.55 502.21 147.63 501.38 144.27 501.34 141.42 501.8 137.22 503.1 129.45 506.1 126.66 506.29 120.98 504.99 119.34 504.97 114.27 506.46 112.04 506.45 107.91 505.41 103.62 504.75 101.23 505.38 97.03 507.84 95.26 509.62 93.3 512.64 91.92 515.38 90.69 519.12 90.24 521.92 88.28 523 85.95 522.73 83.08 521.9 81.15 520.72 80.33 519.47 81.04 517.99 81.07 514.86 78.69 508.52 76.03 504.22 73.7 497.46 73.06 496.09 69.66 492.41 67.15 490.88 66.58 490.12 65.54 486.67 64 483.09 62.65 481.27 57.63 476.54 56.89 475.12 56.41 472.12 55.17 471.1 53 470.24 48.73 468.14 46.83 466.61 46.02 464.68 45.67 462.27 45.38 454.97 46.32 451.86 46.25 449.43 44.58 446.56 44.57 444.66 45.08 441.55 44.82 440.11 40.13 432.41 39.92 430.05 39.07 428.86 35.07 428.29 31.42 426.75 28.77 426.35 26.82 425.53 26.23 424.44 26.71 412.86 28.94 405.86 30.36 403.71 33.78 401.28 34.4 399.62 33.11 397.39 33.46 395.62 35.68 393.32 36.25 391.37 35.45 390.4 30.09 387.94 30.26 386.36 29.27 385.62 26.19 385.25 19.48 383.29 15.57 381.84 12.27 381.33 9.57 380.36 6.83 379.77 4.8 377.86 2.79 377.05 1 375.86 2.62 375.8 4.07 375.07 5.54 373.33 5.77 370.65 6.62 369.65 10.67 367.44 11.77 366.55 14.95 362.94 15.55 361.8 17.01 356.2 17.96 354.34 21.32 352.25 24.84 349.65 28 349.15 31.33 347.41 36.88 346.32 42.54 344.03 44.08 342.66 46.1 340.13 49.11 338.52 49.97 337.73 51.13 335.2 51.59 332.97 52.77 331.63 55.46 330.4 57.85 327.92 59.5 325.47 61.36 323.51 64.01 322.27 66.3 319.52 71.04 314.94 71.86 318.05 72.8 318.31 75.98 317.71 77.09 317.19 78.5 314.88 80.95 312.45 83.8 311.07 86.04 310.32 88.36 308.77 96.33 306.1 98.49 305.04 100.34 302.77 101.85 299.27 103 298.12 104.87 298.04 106.38 297.08 106.3 295.03 104.98 293.83 105.44 293.12 107.14 293.47 108.2 292.93 108.96 291.69 108.72 290.1 107.95 288.83 109.36 287.93 108.75 285.91 107.85 284.86 105.61 284.81 104.45 282.37 104.74 280.38 106.11 279.81 107.2 280.04 111.4 279.79 111.9 279.46 113.42 275.63 112.72 274.72 111.14 274.23 110.95 273.37 112.99 272.35 113.57 270.45 112.32 266.4 112.55 264.78 113.95 262.81 114.98 262.18 115.91 258.69 117.65 257.03 121.28 256.07 125.27 256.28 128.58 257.5 131.47 259.36 135.04 260.29 138.49 260.41 139.79 259.95 141.54 258.59 148.54 258.26 153.13 258.58 158.07 254.32 160.58 253.57 163.57 254.97 166.58 254.1 169.18 252.48 170.81 251.06 172.2 248.87 179.17 245.75 183.66 244.76 185.46 243.73 186.21 242.1 186.64 237.84 187.88 237.33 190.4 237.11 192.88 236.54 193.68 234.55 192.87 231.2 192.95 229.5 194.81 226.56 197.1 221.65 197.32 220.67 197.14 217.47 197.67 215.36 199.78 214.11 200.43 212.35 201.44 211.12 204.55 209.34 205.92 209 208.81 209.57 211.39 207.93 212.69 205.98 213.36 201.86 214.37 201.22 217.92 202.27 219.56 203.22 221.45 203.09 226.95 198.39 231.38 196.49 232.42 195.3 233.51 195.35 236.01 198.71 239.75 201.59 241.27 202.4 247.34 203.4 249.96 203.5 254.23 204.55 257.96 204.52 262.66 205.14 265.93 204.81 267.36 204.41 269.67 202.31 271.76 201.59 274.52 201.46 276.14 200.89 279.42 200.96 282.29 200.5 282.92 200 283.37 198.03 285.22 197.59 289.01 195.38 290.38 196.15 293.27 194.23 293.31 192.38 294.03 190.79 293.4 189 295.23 188.14 297.36 188.55 297.6 190.14 299.45 189.89 300.59 188.44 304.78 187.65 306.99 186.52 307.1 185.32 309.2 184.33 308.79 181.66 309.53 179.61 310.62 179.57 311.35 182.05 312.33 182.96 312.93 185.41 314.42 186.81 315.01 189.48 315.62 190.57 321.61 191.41 322.85 193.44 330.29 192.67 333.28 191.49 337 191.85 339.25 192.8 341.6 191.25 346.13 191.87 350.34 193.56 352.49 196.21 355.72 196.83 359.59 198.41 363.02 198.23 364.32 200.35 364.52 202.06 366.9 204.03 368.56 206.08 370.73 207.25 372.81 207.58 379.09 208.02 380.69 209.63 381.75 210.02 384.33 210.08 386.53 211.48 389.44 212.88 392.05 212.87 394.3 211.41 396.31 208.97 397.27 206.7 398.6 205.35 401.08 203.63 403.34 202.76 405.14 202.72 408.46 201.92 411.08 200.13 412.81 199.75 418.79 197.78 422.35 197.77 425.89 197.18 427.48 197.98 428.89 200.33 429.88 200.38 431.75 199.17 432.81 199.73 435.12 199.51 436.8 197.4 441.38 193.03 442.88 193.39 444.23 194.9 445.84 193.63 446.53 192.47 447.7 192.04 449.73 189.22 452.16 188.33 454.04 184.47 456.88 180.81 457.36 178.92 459.08 178.73 459.79 177.1 461.64 176.91 465.35 174.69 466.47 171.34 467.93 170.53 468.58 169.45 471.29 167.7 473.13 162.17 475.78 157.86 476.35 156.48 478.09 149.39 479.53 147.07 482.77 147.67 489.31 146.66 493.54 146.4 499.54 146.3 502.54 146.58 504.61 147.91 505.91 149.68 510.53 150.75 513.03 150.91 517.33 151.95 518.94 153.81 519.92 154.14 522.22 153.04 527.46 148.51 529.58 146.44 532.45 145.89 537.83 143.02 542.04 139.88 544.65 138.84 549.82 138.03 554.77 137.89 557.79 136.94 559.41 136.75 562.4 137.56 565.79 136.7 571.63 136.56 574.99 136.17 577.42 135.08 581.53 132.45 583.4 132.17 588.11 133.75 592.79 134.65 594.65 135.44 596.04 137.13 599.74 140.65 601.18 139.72 603.15 137.38 602.89 135.49 604.34 134.68 605.29 132.32 607.08 132.51 610.74 130.01 613.19 127.04 614.21 125.2 614.98 122.94 616.32 120.93 617.35 120.11 619.86 119.61 622.53 120.01 629.04 120.03 630.02 118.88 629.56 116.81 628.43 114.09 628.89 113.5 630.77 113.99 632.99 113.57 637.3 109.77 638.8 107.14 641.4 105.42 643.14 104.74 641.33 101.42 641.44 99.71 642.15 98.23 641.9 96.39 642.34 94.64 643.71 92.98 643.42 86.47 644.09 82.26 645.1 80.33 647.08 79.31 648.37 78.03 648.8 76.71 648.52 74.04 646.61 72.72 646.78 71.61 649.84 67.47 650.52 64.91 652.12 63.4 652.61 61.44 655.22 60.45 659.46 60.57 659.9 58.2 661.77 54.17 663.05 53.44 665.69 53.08 668.77 51.44 669.39 48.38 670.72 45.95 674.78 41.66 677.18 41.04 681.84 40.75 684.84 41.23 688.44 43.63 689.12 43.75 692.62 41.31 696.68 39.95 697.79 39.25 698.77 34.22 699.21 28.48 698.56 23.81 698.88 22.61 702.99 22.52 703.97 21 706.84 20.31 711.73 20.2 712.77 17.72 711.45 16.27 713.47 17.01 716.37 17.38 722.94 16.58 725.24 16.87 726.88 18.54 728.06 19.1 730.01 17.36 733.36 16.91 736.88 14.59 737.53 12.33 736.35 8.44 736.33 5.66 735.87 3.72 736.28 1 738.73 4.31 739.56 5.93 742.55 8.25 745.79 9.32 749.95 12.07 751.72 12.28 753.32 13.61 755.47 14.01 756.8 15.13 757.1 17.59 758.3 19.1 757.73 22.39 759.72 24.78 759.78 26.61 761.92 27.7 764.14 31.28 763.69 32.05 764.81 34.4 764.72 36.64 765.56 41.69 766.81 42.49 768.25 44.76 768.31 46.04 771.02 48.81 769.91 50.78 770.04 51.86 772.1 53.96 771.85 54.4 772.78 58.99 773.37 60.67 774.92 62.55 775.4 64.73 774.7 66.11 775.67 67.3 778.64 68.45 778.72 69.67 775.32 69.7 774.14 71.45 774.91 72.07 775.27 74.01 773.78 74.42 771.69 74.08 771.35 76.88 773.68 77.31 773.32 78.57 773.34 81.03 774.88 81.15 775.28 83.26 774.72 83.72 771.98 83.93 771.4 84.6 771.05 87.17 768.2 86.99 768.63 88.88 770.91 89.5 769.7 90.73 770.08 93.07 771.03 94.75 771.44 96.74 770.66 97.17 765.57 95.97 762.63 96.73 761.73 97.36 761.25 98.77 763.01 99.21 764.36 98.96 765.18 101.34 767.16 101.21 768.66 102.5 771 103.29 772.66 103.11 772.27 105.52 773.05 106.56 775.03 106.44 776.28 109.49 777.18 110.58 778.23 110.73 783.58 112.75 788.3 110.5 789.88 111.28 790.79 112.31 792.05 111.36 793.17 111.88 794.03 113.34 795.28 113.19 796.27 116.26 797.94 119.88 799 121.61 798.47 123.09 797.03 123.28 794.49 122.81 790.9 121.42 787.66 121.25 783.86 123.28 782.03 125.56 780.39 133.38 779.55 134.34 778.19 134.41 776.61 133.44 775.5 131.23 773.55 130.21 770.04 130.44 767.58 131.4 764.69 134.21 764.15 136.72 762.06 141.99 761.61 144.59 761.56 146.97 761.1 148.26 757.6 149.89 755.26 149.3 754.33 148.41 753.34 145.18 754.83 143.14 753.4 142.85 752.21 143.76 749.03 147.64 746.11 148.69 742.33 148.47 738.69 152.4 738.52 153.83 739.47 155.36 740.86 156.31 741.51 157.96 740.44 160.37 739.9 164.06 738.75 166.03 738.88 167.51 740.2 168.72 739.69 170.72 733.35 172.19 731.48 173.64 730.97 176.22 731.26 177.78 733.42 181.27 732.83 182.98 729.66 186.81 728.34 187.39 727.88 188.97 726.93 189.28 724.17 187.48 722.66 185.02 722.11 183.14 720.13 182.8 717.21 183.31 715.66 184.49 714.94 186.3 717.63 188.48 717.68 190.68 716.97 191.07 713.47 191.51 708.65 193.85 707.84 194.03 Z"/>
</g>
</svg>