<?xml version="1.0"?>
<svg xmlns="http://www.w3.org/2000/svg" version="1.2" baseProfile="tiny" width="800" height="370" viewBox="0 0 800 370" stroke-linecap="round" stroke-linejoin="round">
<g id="4214409">
<path d="M 798.08 96.48 476.25 294.52 465.84 300.93 466.9 301.66 468.26 303.76 470.07 310.06 472.07 311.95 473.84 313.12 475.12 315.58 476.54 317.23 477.79 318.07 479.61 318.61 481.11 320.45 483.21 322.1 484.25 323.98 475.27 341.11 436.77 337.57 436.72 346.76 385.33 343.38 378.53 325.77 376.35 325.94 374.69 325.16 373.99 323.63 370.79 322.3 368.92 322.45 369.03 323.32 367.58 324.3 365.99 323.61 363.69 323.6 362.16 324.43 360.35 326.34 359.82 327.34 359.22 330.31 358.98 333.52 359.67 338.43 360.75 339.56 360.39 340.77 358.67 341.95 357.28 343.76 353.76 343.79 351.62 344.18 347.96 340.77 345.35 340.89 343.92 342.46 342.43 341.91 337.78 339.53 334.58 340.62 333.78 341.84 331.7 343.19 329.2 347.34 329.31 348.54 331.42 350.58 334.16 352.85 335.1 354.68 336.68 355.55 338.8 355.48 339.77 356.72 339.04 357.51 337.83 358.28 338.28 360.35 336.63 364.1 334.16 367.89 331.93 369 329.65 368.79 328.06 367.74 325.53 364.4 324.14 363.33 320.68 361.75 318.94 361.32 317.37 361.51 312.22 360.09 308.4 360.55 306.92 360.34 304.87 359.48 303.2 359.75 300.61 360.86 297.2 360.78 296.88 360.35 298.46 358.8 300.35 354.41 300.55 351.66 299.98 350.46 299.1 350.48 296.87 352.13 293.77 352.15 293.27 350.08 291.57 348.99 289.47 347.07 286.51 344.87 283.96 343.75 282.82 343.73 281.69 344.38 173.14 352.89 171.3 351.48 169.65 349.39 165.56 346.96 162.72 339.23 161.41 338.41 160.57 336.45 160.98 334.77 160.19 333.13 161.51 331.18 161.32 328.59 160.46 325.96 158.85 324.3 159.06 321.94 158.56 321 158.32 318.02 158.88 315.68 159.29 312.39 156.75 311.26 155.82 310.22 154.81 308.26 154.5 306 155.36 304.28 154.81 301.53 153.75 300.44 152.65 300.16 148.2 302.34 145.04 303.34 142.25 304.62 139.16 305.76 133.03 307.21 131.13 306.99 127.41 305.78 126.49 304.88 126.67 303.92 132.19 299.93 133.74 297.47 133.84 293.96 133.17 292.8 131.49 291.23 129.07 288.24 127.16 285.55 123.63 282.01 121.89 280.66 117.53 279.07 114.87 277.87 113.16 277.96 111.75 279.12 110.51 281.3 107.31 284.15 103.2 288.32 101.27 290.84 98.34 292.35 96.66 293.51 94.91 294.29 93.08 294.59 90.59 294.04 89.4 292.85 85.82 286.29 84.81 285.33 81.99 284.47 75.81 284.02 75.56 282.4 74.17 281.08 73.44 279.32 73.44 277.61 71.94 275.22 71.81 270.44 72 269.76 70.84 268.62 69.91 266 70.15 264.76 69.48 263.32 69.42 262 68.18 257.71 67.2 255.93 68.3 253.88 69.39 250.7 68.41 248.73 67.12 247.18 66.04 245.24 65.81 244 63.95 241.15 61.82 239.42 60.28 237.37 60.38 236.36 62.94 232.15 63.6 228.12 64.52 226.58 67.92 223.5 67.91 222.9 65.86 221.88 62.49 219.63 61.61 217.66 61.75 214.27 61.34 212.83 59.07 210.01 54.86 208.5 50.01 207.31 47.8 206.07 38.99 201.98 34.18 200.24 32.13 198.89 31.17 196.94 30.73 193.78 30.98 189.72 30.72 186.71 31.49 183.97 32.68 181.3 33.09 177.57 32.77 172.81 32.33 171.43 30.66 168.22 29.92 167.39 28.05 166.26 26.75 165.08 25.3 163.12 24.91 161.74 26.96 158.44 27.01 156.67 26.64 154.97 27.37 153.95 28.6 153.63 31.18 152.36 31.85 151.53 32.89 148.56 32.42 147.52 28.34 144.13 26.57 140.9 25.61 137.79 24.39 128.97 23.3 125.52 22.61 121.89 22.81 120.69 23.87 118.47 26.03 116.82 29.17 115.23 29.57 114.56 29.21 112.11 29.28 109.47 29.77 105.87 30.35 103.86 31.81 101.12 34.71 97.73 35.74 95.36 35.9 92.5 35.34 89.08 34.29 85.94 31.52 83.79 29.75 79.83 26.5 76.52 25.06 75.49 22.93 74.78 20.32 74.29 18.31 73.17 15.4 72.23 14.36 69.02 13.5 67.7 10.8 65.6 7.82 62.37 5.93 59.35 5.66 56.74 5.98 54.08 7.4 51.94 8.13 49.21 7.34 48.4 5.41 48.18 2.81 46.92 1 46.69 20.3 5 20.94 4.27 23.87 2.5 25.33 2.18 27.85 2.24 32.21 1.65 33.78 1.67 34.79 2.61 36.52 2.86 37.67 3.59 39.9 3.79 41.43 4.54 44.61 5.23 47.36 5.25 48.55 5.62 50.8 8.48 52.54 9.39 56.01 8.55 59.18 9.09 61.21 8.93 65.01 9.03 71.19 6.89 72.58 7.46 74.05 7.43 78.2 8.14 80.46 8.02 82.57 9.46 83.15 10.43 85.34 11.73 89.31 11.88 93.36 13.16 94.85 13.27 98.72 12.88 101.42 13.46 102.94 14.52 105.12 14.47 108.04 14.83 109.72 14.77 111.87 15.53 114.39 15.18 116.91 15.23 118.91 15.94 121.47 16.19 121.57 17.22 122.57 17.92 124.88 17.34 127.23 15.92 128.25 14.66 130.11 13.78 131.44 13.79 135.17 12.94 138.34 12.89 140.88 13.56 142.52 13.31 145.36 11.7 146.73 11.57 149.71 13.21 150.04 14.11 149.77 15.98 151.3 18.66 152.1 19.43 152.9 21.32 152.51 22.95 153.24 23.75 156.8 25.76 157.84 24.71 162.91 22.98 166.14 21.76 166.25 19.11 168.24 17.49 169.98 14.42 171.95 13.28 171.67 11.29 173.01 9.49 174.96 8.33 176.96 8.87 177.97 10.03 180.15 10.72 182.26 10.53 182.91 9.21 184.89 9.05 186.08 8.24 186.79 6.97 188.44 6.41 191.03 4.93 196.01 2.99 199.13 2.26 201.39 1 204.4 1.47 207.06 3.65 210.19 4.93 211.51 6.1 212.82 8.74 214.49 10.66 214.79 12.77 216.83 14.96 217.84 15.59 220.98 16.57 223.65 18.59 225.93 19.54 232.31 18.29 234.23 18.29 235.94 18.68 238.25 17.19 241.14 16.31 242.78 16.35 245.71 17.86 246.65 18.88 249.11 19.96 249.73 22.29 251.39 23.46 252.73 23.19 257.04 23.62 259.75 23.18 262.15 23.66 264.82 24.46 267.38 24.95 271.7 24.79 273.52 24.01 277.16 23.72 280.15 23.09 285.38 22.91 287.92 22.35 291.87 22.53 295.22 23.23 296.75 22.96 298.65 20.78 299.91 20.14 302.29 20.84 304.45 21.1 307.6 20.54 308.53 20.73 310.86 22.09 312.16 21.91 313.4 20.8 314.91 20.77 316.64 21.25 318.35 23.51 320.77 26.23 323.35 25.97 326.66 26.64 329.25 27.44 330.19 29.12 328.18 31.04 328.1 32.24 325.61 35.4 325.39 39.28 324.93 40.66 325.78 42.33 325.67 43.37 322.52 44.61 319.36 45.26 314.68 46.42 313.63 46.88 311.26 46.49 309.22 46.62 310.88 48.87 313.8 51.35 318.25 52.97 319.84 54.08 320.56 55.09 320.5 56.62 319.94 58.64 318.53 61.86 319.14 63.33 322.44 64.29 324.49 64.32 328.07 63.04 329.78 61.64 330.92 59.88 331.88 57.39 333.45 55.8 335.06 53.38 336.13 51.32 339.63 48.67 342.42 47.64 346.9 48.2 348.24 49.66 349.71 52.24 349.88 53.51 348.92 56.32 347.29 62.53 346.06 65.42 346.02 66.59 346.91 67.18 349.98 66.66 351.51 68.2 351.44 69.63 349.84 70.83 349.11 71.94 348.68 74.58 349.51 78.66 350.62 81.7 351.97 83.49 353.31 83.18 356.58 79.55 356.62 78.18 358.13 76.1 360.73 75.57 364.07 73.51 365.36 70.91 368.84 70.26 370.8 71.09 372.81 71.46 376.18 74.57 378.49 74.59 379.31 75.5 379.38 76.64 380.54 77.13 384.33 78.12 387.96 77.4 390.55 76.28 390.08 75.49 390.2 73.84 391.26 72.03 390.98 70.48 389.43 67.51 388.68 64.74 389.84 63.13 391.16 62.48 393.69 60.17 395.12 59.64 397.23 59.71 399.14 62.05 400.71 66.4 401.69 67.52 404.35 69.22 405.13 70.35 405.45 72.38 406.57 73.74 408.65 74.53 412.13 74.72 413.51 73.77 417.95 73.41 419.97 73.78 421.52 71.81 423.73 72.48 424.77 71.85 425.3 72.85 427.11 74.17 427.48 75.17 426.87 76.64 427.52 78.02 428.04 81.32 426.9 86.74 427.77 88.09 429.91 90.48 430 92.32 431.13 92.11 432.68 90.13 433.43 89.93 434.09 91.31 434.98 91.32 435.67 89.35 436.87 88.41 436.99 87.58 438.62 87.92 441.1 85.53 442.28 85.67 442.76 84.78 444.58 84.03 446.17 83.91 448.37 83.05 450.9 81.57 451.9 80.24 452.13 77.43 450.61 73.97 451.07 72.09 453.35 70.88 455.27 70.7 457.88 71.6 458.07 72.53 457.13 74.55 458.56 75.22 462.92 75.14 464.44 75.82 463.74 80.05 464.44 82.35 465.47 83.55 468.92 85.27 470.66 85.05 472.84 85.44 474.33 86.16 475.93 87.96 478.11 88.22 480.99 87.84 483.29 88.05 483.93 89.53 482.4 91.56 481.31 92.32 479.34 94.93 477.2 96.89 474.34 98.47 472.76 98.83 469.63 97.77 468.16 98.47 467.51 100.38 465.41 103.76 465.43 105.02 466.05 105.61 468.46 106.63 470.31 109.14 470.03 110.21 471.14 110.73 471.84 113.01 472.92 114.12 478.16 114.47 480.71 114.39 481.75 115.03 484.36 114.96 483.74 112.85 484.09 112.06 486.58 112.27 486.63 110.53 489.56 109.02 492.61 108.32 493.49 109.54 494.86 109.15 498.06 107.27 499.59 106.89 500.91 107.28 500.95 108.2 499.89 109.37 498.99 111.54 498.27 112.11 495.44 112.92 494.95 113.52 495.27 115.11 496.04 116.66 496.05 117.91 498.11 118.52 499.88 118 502.83 117.95 504.85 119.49 505.53 120.61 507.36 121.33 509.5 121.27 510.3 119.55 511.16 118.89 513.58 118.18 514.93 118.11 518.91 120.53 519.68 121.34 519.85 122.57 518.26 123.98 514.44 124.74 512.34 127.31 510.88 128.39 509.21 128.88 507.29 128.95 506.11 128.27 505.73 126.54 502.98 126.73 502.13 127.39 501.62 129.25 501.28 133.26 501.82 135.53 503.84 139.53 504.22 141.11 503.95 143.87 504.31 144.79 506.11 145.74 508.35 146.26 508.82 147.33 507.89 149.38 507.99 150.38 509.19 151.78 508.44 153.29 508.76 154.18 511.19 152.95 511.76 150.86 512.93 150.76 516.47 146.26 517.96 145.15 519.84 145.46 522.49 143.92 524.89 143.43 525.9 142.67 529.13 137.74 530.66 137.96 531.5 139.29 533.05 140.13 533.98 141.79 537.83 142.98 541.14 143.22 541.9 142.88 541.87 141.58 542.84 140.19 545.45 138.99 547.2 135.58 548.74 134.79 551.35 134.78 553.91 133.87 555.75 133.68 556.83 134.88 558.07 134.15 556.51 131.68 554.81 130.28 553.04 129.79 553.07 128.92 557.08 128.87 559.42 128.03 561.82 130.9 563.27 131.66 564.27 130.13 565.03 129.65 566.65 130.14 567.47 129.4 568.56 127.27 570.64 127.72 571.48 128.99 572.17 129.03 573.81 128.06 574.78 129.05 573.32 131.51 573.87 133.94 575.81 134.69 577.14 134.73 578.67 133.56 580.13 134.36 580.75 136.63 582.22 139.16 583.68 139.61 583.7 140.34 580.75 143.04 581.25 143.97 584.92 145.21 585.19 145.55 585.75 149.42 586.95 150.17 587.79 151.5 587.8 153.56 588.64 154.1 591.11 154.32 591.86 155.33 592.01 156.54 593.38 156.24 594.28 157.41 595.1 157.28 596.02 156.23 599.19 155.51 600.35 155.88 600.21 159.67 601.23 159.68 600.96 157.63 601.35 157.26 603.89 157.43 604.52 158.35 603.03 158.97 602.68 159.67 604.68 161.04 608.36 162.3 610.57 162.71 612.85 163.53 613.74 164.25 613.37 165.31 614.98 165.32 616.21 163.51 616.33 160.76 617.46 160.03 618.81 161.24 620.24 160.26 622.12 158 620.42 157.37 621.24 154.75 623.43 152.8 624.42 151.33 625.06 149.34 623.2 148.01 622.9 147.06 623.66 145.73 624.78 145.09 626.76 144.87 629.38 144.98 632.57 145.68 635.1 145.43 638.08 144.5 639.21 145.49 640.28 147.25 643.09 147.9 644.34 148.61 647.08 148.32 649.89 146.94 654.33 145.33 656.25 144.98 655.34 140.57 655.57 138.37 656.65 138.05 659.36 138.05 660.37 138.64 661.56 138 661.41 136.91 659.99 135.11 662.22 134 663.93 132.21 664.68 131.04 665.01 128.73 663.86 126.42 663.93 125.27 665.45 125.13 668.32 126.83 670.19 125.9 672.75 123.59 674.53 123.2 675.98 125.34 682.5 129.17 684.68 129.42 686.41 127.88 687.61 127.44 689.3 125.93 692.21 124.94 694.87 124.62 696.35 123.79 699.39 123.55 701.97 122.25 703.63 122.05 705.17 121.15 706.52 121.57 708.47 124.11 710.14 126.69 712.07 128.3 713.92 128.94 716.85 126.15 720.38 126.15 722.25 124.51 722.84 123.2 724.42 121.21 724.23 118.98 724.74 117.45 725.53 116.65 727.48 115.63 728.02 114.98 728.44 112.85 729.75 111.04 730.91 110.29 731.1 109.02 732.1 107.59 735.24 106.96 740.57 107.06 742.44 107.86 745.44 107.98 748.91 107.11 750.32 106.36 753.08 106.03 754.18 105.65 757.2 105.47 763.9 102.93 765.8 101.84 768.25 101.45 769.88 99.99 772.02 99.39 772.75 97.74 777.35 94.58 778.33 94.31 782.39 94.81 784.28 94 785.18 93.26 790.36 90.91 791.85 89.51 795.54 89.07 797.85 89.4 799 91.36 798.08 96.48 Z"/>
</g>
</svg>