<?xml version="1.0"?>
<svg xmlns="http://www.w3.org/2000/svg" version="1.2" baseProfile="tiny" width="800" height="567" viewBox="0 0 800 567" stroke-linecap="round" stroke-linejoin="round">
<g id="4214904">
<path d="M 717.9 232.05 718.07 234.71 717.79 236.67 718.97 238.6 719.15 241.43 718.82 243.48 718.13 244.93 716.33 244.48 712.91 246.81 711.46 249.3 712.12 252.08 714.13 254.67 713.26 256.84 713.69 261.21 715.49 265 717.31 269.74 717.15 270.57 715.64 272.16 715.06 274.76 715.69 277.8 716.87 279.72 716.63 281.96 716.08 282.79 715.26 288.41 715.87 290.73 715.39 295.8 715.94 296.99 715.49 298.08 713.28 299.39 712.91 301.27 714.54 302.72 715.28 304.59 718.23 305.51 720.66 305.76 723.38 308.42 722.01 309.3 719.85 314.18 719.73 316.17 718.48 319.42 718.09 322.46 716.75 324.14 715.07 325.56 714.09 328.1 714.53 329.83 715.9 331.12 717.37 333.87 716.46 335.53 716.64 337.53 715.53 340.84 717.16 342.12 718.43 346.42 715.61 348.05 715.72 350.55 713.98 351.81 710.93 354.72 711.23 358.24 710.52 361.3 709.36 363.33 711.85 362.79 713.18 362.87 715.66 365.33 715.5 367.08 714.22 370.67 711.64 372.26 714.16 373.5 716.4 377.49 717.93 379.01 720.86 380 724.71 381.94 727.59 383.72 727.61 386.68 729.74 391.32 728.71 393.22 730.55 394.38 730.33 396.75 732.67 400.07 728.27 402.29 731.47 405.72 732.26 407.46 732.95 411.11 732.46 414.29 734.5 415.44 733.42 417.08 733.32 419.34 732.13 421.75 735.01 424.94 736.08 425.63 736.54 427.25 736.51 429.38 735.23 430.14 736.39 431.18 736.4 432.58 737.9 433.57 739.62 432.96 738.9 435.4 739.45 436.56 742.17 438.22 742.2 439.06 743.87 440.74 743.69 443 745.98 444.56 748.7 443.96 753.61 445.24 753.2 447.32 754.78 447.99 756.17 449.12 756.38 446.57 757.28 446.13 759.12 446.92 761.12 449.03 763.14 448.99 764.77 450.37 765.29 452.86 767.76 452.47 769.34 457.61 770.06 457.96 773.93 457.73 774.18 459.14 773.36 460.41 774.91 460.97 774.79 462.32 775.46 463.26 777.1 463.83 778.38 462.55 779.63 460.52 781.01 459.69 781.45 458.67 783.11 457.89 785.07 457.69 787.18 458.43 789.23 457.39 791.51 459.33 791.34 460.28 793.73 462.69 795.51 462.72 798.64 464.18 798 465.35 799 466.36 798.79 467.49 796.97 469.3 796.43 471.61 796.51 475.41 794.2 477.32 789.05 478.17 784.6 480.1 783.32 482.27 781.06 484.29 779.44 486.48 779.31 487.84 777.63 487.62 773.21 489.48 772.4 491.7 770.68 490.3 767.32 489.83 765.71 490.7 763.26 489.12 762.45 487.22 761.81 484.57 760.3 483.37 760.35 482.08 755.67 482.85 754.23 484.01 753.39 485.72 750.71 484.82 748.73 487.61 746.05 488.94 745.43 490.52 743.01 492.47 738.94 494.52 736.77 496.53 736.43 497.83 735.47 498.45 734.75 499.88 733.29 500.44 731.87 500.18 729.93 497.94 727.16 496.74 725.79 497.75 725.91 499.8 724.94 502.22 724.2 502.71 723.33 505.5 723.11 508.74 721.56 510.31 720.8 510.45 718.23 512.08 718.1 512.94 715.58 514.37 713.96 514.75 709.61 517.3 706.69 519.85 705.71 519.98 701.62 523.1 700.51 525.05 700.97 525.91 700.28 528.02 699.08 529.51 698.08 529.18 694.53 530.94 693.54 532.42 693.19 533.84 691.9 534.93 689.91 537.62 688.24 538.47 686.56 541.07 686.35 544.16 684.02 545.07 682.51 545.07 682.09 545.98 682.61 547.79 680.95 549.38 679.29 549.77 676.85 552.17 674.7 553.23 673.08 557.07 674.07 558.46 673.66 559.96 675.02 561.87 676.49 563.28 680.04 564.6 679.43 565.92 677.84 566 674.69 563.59 671.37 561.9 668.8 558.31 667.11 555.29 667.59 552.91 668.85 552.02 670.94 549.37 672.22 548.23 672.53 545.42 671.57 543 671.85 542.08 673.51 540.05 673.84 538.02 673.11 532.62 671.52 530.51 668.07 528.59 664.73 527.55 663.88 525.64 668.04 520.49 665.78 520.03 660.75 520.46 653.63 523.02 650.41 525.47 647.35 525.64 644.11 526.23 644.11 526.9 641.95 527.56 641.39 529.12 639.16 529.48 636.89 530.8 633.93 528.63 632.57 526.65 632.12 525.05 630.78 522.42 631.21 520.99 630.33 519.78 629.08 519.63 628.05 518.31 628.54 517.75 627.79 515.76 627.8 514.13 627.01 513.16 624.28 512 622.68 513.15 621.78 514.79 618.47 516.88 617.18 517.25 615.22 516.4 612.95 517.23 610.61 515.37 608.99 514.74 607.96 516.29 604.85 516.13 602.26 517.49 599.27 518.23 597.6 517.33 596.18 517.99 594.69 517.93 593.26 516.61 591.63 517.79 586.16 516.42 583.06 517.23 580.95 518.09 579.56 519.89 578.59 518.07 577.43 517.04 575.46 514.17 574.33 513.96 573.44 512.87 574.08 511.99 570.15 508.84 568.34 509.11 568.14 507.49 566.86 504.92 565.54 504.83 564.54 506.74 563.01 505.58 563.35 504.77 560.77 501.44 558.39 499.87 557.63 500.15 555.05 499.47 554.01 497.92 552.51 497.02 550.26 493.87 547.97 492.67 546.64 492.68 545.76 493.46 545.05 495.69 544.81 497.74 543.54 498.25 541.59 499.79 538.02 500.56 535.09 500.79 532.94 502.16 529.7 502.67 528.51 501.89 527.12 499.08 524.23 497.16 521.51 496.96 519.75 496.35 517.19 498.19 513.75 499.27 511.95 500.65 510.2 503.7 507.7 512.24 505.9 516.46 504.67 516.89 501.81 516.39 500.56 515.75 498.73 515.99 495.53 517.01 495.63 515.43 493.8 513.12 492.77 510.8 493.38 508.13 492.01 507.66 491.18 506.53 491.14 504.55 492.42 502.81 495.22 497.54 493.96 495.46 494.43 493.89 493.69 492.95 492.06 492.25 490.2 494.28 488.29 493.82 488.08 491.91 489.92 490.2 489.9 488.2 490.72 487.64 488.06 485.02 487.33 486.69 485.34 487.77 485.33 486.41 482.75 486.38 482.52 484.47 482.84 483.38 482.23 480.58 483.58 478.15 482.79 476.71 480.24 475.95 480.93 478.78 478.25 480.19 474.92 481.16 472.88 483.76 471.77 484.64 468.68 484.11 465.79 484.52 464.36 485.21 462.37 484.36 460.94 484.25 460.04 482.95 460.13 481.72 458.98 480.68 458.97 479.32 459.65 478.71 459.91 476.61 459.38 472.04 458.96 471.52 456.67 470.97 456.5 466.84 452.42 465.82 450.42 464.47 446.18 464.55 443.88 463.8 441.95 462.69 442.02 460.46 440.72 460.03 441.62 457.03 441.37 455.84 440.27 454.24 438.17 452.65 437.98 451.4 436.72 449.43 437 446.96 437.93 445.33 437.05 442.27 436.16 440.41 437.36 438.27 368.11 473.45 322.94 496.23 319.51 495.33 317.14 494.31 314.7 494.32 312.48 494.73 308.54 494.39 305.34 493.28 303.43 489.87 302.18 488.55 298.23 485.77 295.03 484.68 290.75 484.13 287.08 483.2 284.92 482.01 280.37 480.02 277.14 477.87 273.97 476.94 273.22 477.88 271.43 478.72 270.22 478.78 264.71 478.05 262.84 478.65 260.98 481.66 259.84 482.46 254.33 482.67 254.03 481.04 251.23 479.07 248.33 478.41 246.38 476.85 245.77 473.94 246.28 472.29 245.84 470.43 244.21 469.76 241.71 469.86 239.25 470.69 237.52 470.73 234.79 467.94 233.8 465.84 231.72 464.5 230.28 463.12 230.18 460.54 230.69 458.38 232.55 452.84 234.06 451.93 236.74 446.69 239.49 443.32 242.5 440.78 241.02 438.75 239.31 437.87 238.82 437.1 238.11 433.99 238.88 430.28 237.99 429.67 234.59 429.44 230.89 428.5 230.37 427.04 230.54 422.84 231.02 421.15 231.1 418.94 229.76 415.09 230 413.13 229.57 411.77 225.39 410.87 224.36 410.1 223.58 408.06 225.29 405.16 224.73 403.47 221.8 402.26 220.57 400.92 220.26 399.44 217.24 398.16 215.95 393.95 214.8 392.66 213.74 392.51 211.42 390.61 210.25 388.99 208.99 383.62 208.48 382.97 204.97 381.06 203.16 380.46 198.94 377.99 192.64 375.38 193.09 374.07 192.62 368.9 191.74 366.49 190.52 364.86 186.86 363.1 183.25 362.94 181.37 362.36 179.05 360.8 175.92 360.86 173.35 360.36 171.81 359.39 168.55 358.91 164.65 359.36 159.17 361.01 157.33 361.94 154.24 362.52 152.27 362.52 149.69 364.42 148.55 364.42 144.68 363.26 139.7 362.62 137.66 362.62 136.38 361.83 132.02 357.45 128.23 356.34 126.32 355.1 125.11 354.84 123.67 352.07 120.86 350.03 120.45 347.02 117.99 345.49 116.91 344.28 117.34 341.61 119.73 337.28 118.16 335.32 114.27 329.12 111.56 326.62 108.81 322.42 107.33 320.97 110.29 317.36 108.88 313.85 108.53 310.93 107.91 308.59 106.52 306.94 106.24 303.44 106.64 302.25 104.21 301.21 104.29 299.5 105.08 298.37 105.54 296.47 105.29 294.56 103.24 291.91 102.75 289.08 100.68 287.4 100.61 285.47 98.49 284.35 98.69 282.62 97.77 279.83 98.33 278.31 100.09 276.63 100.07 275.97 97.46 273.46 96.71 272.34 96.82 270.82 97.9 269.02 97.86 267.87 96.25 265.6 96.31 263 98.1 260.7 99.19 257.73 98.42 256.67 93.83 256.02 94.07 254.34 93.08 253.05 90.79 251.91 89.92 247.81 90.36 246.62 92.72 243.15 93.69 240.32 91.73 238.3 91.09 237.18 91.54 233.77 89.16 231.92 88.61 230.87 89.33 226.63 88.53 225.76 90.21 223.56 89.37 221.18 87.75 219.41 83.75 218.83 82.62 217.93 82.37 216.09 82.75 213.91 81.27 212.44 77.87 212.29 76.48 211.6 75.31 208.53 71.47 207.37 70.47 205.79 69.25 205.38 66.43 203.01 59.82 201.23 56.97 200.67 56.18 198.65 55.4 198.14 51.23 197.88 49.61 197.35 47.71 195.66 44.61 195.12 43.97 193.32 42.73 193.11 41.14 191.22 40.36 189.28 38.95 188.31 38.97 187.46 37.38 185.46 37.06 183.63 35.17 182.31 34.7 179.36 33.44 179.06 32.3 178.09 32.96 174.27 31.83 173.31 31.1 171.32 31.26 167.72 30.63 166.8 28.54 166.29 27.26 165.45 25.68 163.01 23.66 162.19 21.21 160.35 20.92 157.78 18.42 157.54 17.38 155.28 16.28 154.48 15.02 152.39 12.25 150.88 10 150.6 8.03 149.27 7.36 147.17 6.11 146.52 5.04 143.78 3.69 138.12 5.51 137.05 3.77 134.91 3.25 132.21 3.6 131.17 3.21 128.8 2.19 127.18 2.87 125.11 1.88 123.69 2.25 122.78 1 121.21 1.49 119.85 1.03 118.27 1.21 116.77 2.53 115.71 2.09 113.28 2.81 112.35 3.22 109.98 4.02 107.56 3.39 105.74 3.22 103.51 4.16 101.85 3.65 98.44 3.98 96.49 6.27 94.84 8.82 93.4 11.24 92.7 12.66 90.77 13.39 87.6 13.19 83.74 12.75 82.29 13.56 79.78 14.72 79.15 15.48 77.65 15.8 74.84 16.7 74.07 16.04 72.44 16.21 69.74 16.88 68.25 15.83 67.32 17.01 66.41 17.12 64.93 18.12 64.36 21.88 64.16 22.52 66.5 23.5 68.64 24.56 69.8 27.08 70.09 29.01 69.55 32.47 70.94 32.99 73.67 34.3 73.5 35.44 71.9 38.4 70.98 38.83 70.02 36.31 66.28 35.25 66.4 33.65 65.58 32.18 63.88 32.29 62.67 34.96 59.91 34.87 58.59 35.62 57 37.63 54.72 37.63 52.63 37.07 50.82 39.27 48.48 39.58 44.79 41.13 43.65 41.99 40.68 45.15 38.17 46.82 36.22 48.36 35.57 50.96 35.29 53.88 34.75 56.72 34.99 61.53 35.08 62.7 34.62 64.2 33.06 65.53 32.3 66.02 30.82 67.72 28.54 70.44 24.01 71.57 23.12 72.15 20.74 73.05 18.95 74.76 17.37 74.93 15.41 77.13 14.14 79.15 10.88 78.12 9.04 79.14 6.03 81.64 4.12 84.11 4.02 85.61 3.22 86 1.66 86.9 1 89.7 2.52 91.29 3.69 92.67 5.63 94.39 9.25 94.72 12 96 15.81 97.43 17.12 99.17 19.54 99.27 22 99.99 25.8 101.91 28.66 102.51 30.13 101.69 32.95 103.4 36.66 104.53 38.26 105.05 41.38 108.67 42.48 109.65 44.28 111.12 45.5 113.49 45.19 114.93 46.85 116.78 47.1 117.28 48.62 118.47 49.33 121.06 48.86 122.02 49.05 122.82 50.25 125.54 51.43 126.26 52.19 127.97 52.74 128.06 54.01 129.57 56.29 130.02 57.66 131.66 58.28 131.77 60.94 133.92 61.09 134.87 62.24 134.06 63.67 135.91 65.19 135.79 66.98 136.71 68.35 136.28 70.96 135.61 72.54 135.42 76.49 135.61 77.97 135.09 80.25 133.95 82.04 132.14 82.85 131.5 83.87 131.07 86.92 132.48 90.55 134.29 91.27 134.02 92.47 134.68 94.19 135.97 94.98 135.42 96.49 136.1 98.34 137.26 99.32 137.3 101.58 138.95 104.57 141.55 106.88 141.98 109.31 143.58 111.69 143.9 113.15 145.51 115.69 147.3 116.48 149.64 118.18 152.99 119.08 153.94 120.93 155.33 122.12 154.74 125.32 153.64 127.25 153.84 128.15 156.73 129.13 156.57 130.31 158.17 133.44 158.34 134.4 159.58 136.38 161.55 136.72 162.55 137.51 164.38 135.49 165.9 134.98 167.12 135.15 167.9 136.03 168.13 138.28 168.79 139.2 169.75 142.31 170.13 144.83 171.62 144.32 174.37 144.46 175.26 146.63 178.1 146.33 181.34 147.74 182.79 149.75 186.36 151.14 189.17 153.09 191.07 153.72 195.32 152.22 196.89 152.2 201.46 154.02 203.16 152.12 204.51 151.6 207.54 151.87 208.96 151.37 210.26 149.69 209.92 147.19 212.13 145.88 215.14 145.23 218.31 145.32 220.59 144.14 221.87 143.09 222.6 141.6 223.57 140.82 225.43 138.12 228.44 135.45 228.28 133.55 229.11 132.35 230.69 131.51 230.94 130.33 237.26 129.08 238.49 129.63 241.31 128.71 242.34 127.45 243.67 127.63 244.04 129.54 245.8 130.48 247.55 128.05 248.42 128.62 249.95 132.06 252.72 131.36 253.89 129.24 254.02 127.72 256.52 127.1 257.88 127.25 259.87 128.17 261.25 128.26 261.74 125.95 260.73 124.25 259.89 121.57 263.96 123.13 269.02 120.56 269.67 121.54 269.62 123.68 268.99 125.03 272.59 127.06 275.51 127.26 276.65 128.2 276.68 129.56 274.31 130.61 274.14 132.82 274.89 133.94 277.59 133.82 279.22 132.09 280.27 133.3 279.36 135.93 280.26 138.28 281.76 137.87 285.72 134.77 287.83 133.42 290.22 130.96 291.41 130.39 293.84 130.48 300.78 132.64 302.66 133.64 304.67 133.33 307.22 133.75 308.53 135.4 308.42 137.18 309.1 138.31 313.68 141.54 315.65 143.4 316.61 146.35 315.51 149.05 314.34 149.68 310.6 153.04 311.08 153.91 313.01 154.35 314.62 157.28 312.24 160.73 311.75 162.77 310.36 165.32 310.64 166.26 314.63 168.68 315.74 169.57 319.43 169.86 322.34 169.4 326.26 170.14 328.02 170.06 329.26 170.94 330.18 175.25 330.04 176.54 328.95 178.16 326.43 179.39 324.86 181.27 326.56 182.33 327.82 184.32 329.14 185.68 330.78 186.31 333.16 188.31 335.25 189.44 339.24 192.82 344.58 195.67 346 195.84 345.82 193.5 347.79 192.86 350.72 192.95 352.06 193.45 351.43 195.72 355.81 197.71 359.2 199.67 362.05 203.22 365.09 204.95 367.39 206.78 368.06 207.85 368.28 209.78 374.71 212.31 376 213.76 375.89 216.92 378.1 219.2 379.74 221.73 381.02 220.75 383.19 222.67 383.35 225.93 383.69 227.64 383.35 232.6 389.45 234.13 391.66 234.03 395.14 236.85 396.58 238.46 398.05 240.67 399.67 242.11 403.47 244.24 403.82 245.58 402.93 246.13 398.42 245.8 394.51 248.5 393.67 250.84 392.3 252.28 388.65 257.87 387.77 259.79 387.63 262.36 388.56 264.26 390.42 265.37 392.7 265.68 394.92 264.19 396.2 262.13 398.37 260.41 401.08 255.88 402.49 255.79 404.07 258.63 406.1 260.68 410.76 262.17 409.57 263.79 409.38 265.47 411.56 265.64 413.4 264.8 415.42 264.75 416.17 266.67 418.38 267.13 421.03 270.49 422.77 272.35 424.38 271.93 426.87 272.1 427.7 273.92 430.58 277.47 434.21 279.53 436.28 279.83 439.12 278.6 440.67 277.19 442.07 277.46 445.15 280.4 451.14 282.95 454.07 283.98 456.56 283.77 459.5 284.16 460.09 285.64 456.78 286.26 454.49 288.82 455.25 289.9 457 289.17 460.36 289.64 464.07 290.68 466.3 292.29 468.37 292.71 470.42 294.62 473.8 295.91 480.83 307.4 668.1 195.41 698.39 212.17 717.9 232.05 Z"/>
</g>
</svg>