<?xml version="1.0"?>
<svg xmlns="http://www.w3.org/2000/svg" version="1.2" baseProfile="tiny" width="800" height="887" viewBox="0 0 800 887" stroke-linecap="round" stroke-linejoin="round">
<g id="4214805">
<path d="M 554.91 31.89 551.69 35.02 551.33 41.84 545.61 45.64 544.13 50.36 543.61 55.35 542.25 57.51 537.6 60.81 532.14 66.19 525.79 70.89 521.86 72.42 518.4 73.12 516.91 74.35 515.93 78.84 514.23 83.12 514.57 93.63 513.03 100.78 513.76 105.89 512.38 113.27 512.38 118.58 514.81 126.47 517.08 132.01 514.87 134.53 514.67 137.95 518.21 140.41 524.32 141.3 527.24 144.62 531.49 146.64 532.79 149.64 534.22 150.75 541.02 152.5 543.02 153.95 544.34 156.47 543.41 158.19 538.29 156.84 530.04 162.18 528.96 163.23 529.19 165.33 533.11 167.95 533.63 172.89 532.02 176.12 531.27 179.17 531.4 185.67 528.61 188.06 525.18 188.89 524.31 192.35 522.62 194.77 520.3 196.54 521 198.54 524.39 199.49 527.64 201.92 534.84 263.53 610.88 265.23 595.11 380.24 604.61 397.56 612.1 411.56 644.49 471.3 641.41 471.56 639.27 472.62 637.7 476.3 642.43 481.95 646.87 485.5 648.14 489.92 654.18 495.99 657.53 498.48 663.88 505.82 667.2 508.23 670.54 513.29 673.44 518.76 674.08 522.35 673.96 530.81 675.96 535.67 678.98 538.19 681.24 538.7 685.27 538.35 686.38 538.95 686.81 541.7 691.89 543.38 692.71 544.13 692.53 547.33 698.02 552.9 699.26 553.26 703.57 550.77 708.22 552.53 710.31 554.51 710.69 556.06 710.36 562.9 713.95 571.96 715.27 572.88 719.48 574.12 721.11 576.97 723.15 578.83 729.23 579.29 731.24 580.86 731.58 583.14 730.13 588.65 727.98 591.67 727.54 593.33 728.73 595.35 728.24 598.26 728.34 603.68 727.58 610.66 730.7 618.95 730.62 621.83 729.52 623.58 727.21 625 724.57 627.69 723.32 629.97 721.55 631.1 717.7 632.11 714.69 631.77 711.74 632.37 707.27 634.81 702.97 636.16 700.29 638.67 700.02 641.52 696.34 643.03 694.85 646.24 696.34 652.45 695.23 656.99 695.28 659.44 698.57 662.26 699.29 667.54 698.52 669.91 700.52 671.28 704.14 671.3 706.16 672.57 706.26 679.11 707.71 682.04 710.66 685.4 711.51 687.35 713.4 694.36 714.02 695.24 718.32 696.65 720.09 700.05 719.18 703.25 719.9 706.44 721.39 709.12 724.34 712.76 729.22 714.75 730.76 715.85 731.85 721.38 732.69 723.58 740.76 725.97 745.09 726.1 748.1 725.62 750.69 727.2 752.64 730.23 757.61 735.68 759.7 737.14 764.23 737.17 765.41 740.75 767.53 742.45 769.96 745.86 769.97 748.38 767.36 752.45 766.51 754.77 766.65 757.21 768.95 761.43 775.99 766.97 776.95 769.11 779.83 772.14 780.3 776.14 783.22 783.13 782.67 788.42 780.78 792.19 781.35 796.23 786.01 800.49 789.18 801.5 794.92 802.07 798.25 803.54 799 805.35 794.7 807.62 788.86 811.76 781.1 813.05 774.84 815.01 765.89 817 758.25 819.13 752.6 821.18 744.55 822.85 737.61 824.86 730.14 823.13 728.08 823.39 717.78 826.88 713.51 825.93 711.1 826.45 708.06 824.89 704.01 821.79 701.89 818.79 700.5 818.36 697.24 819.95 690.29 822.51 686.79 824.29 680.97 825.07 678.53 826.98 675.63 827.49 672.03 826.29 670.09 824.82 665.39 824.58 663.14 823.8 660.08 821.55 656.77 821.39 652.67 823.71 651.45 823.56 648.45 821.21 643.95 820.09 641.15 820.82 639.72 820.07 638.28 816.18 636.54 813.39 634.55 807.81 632.26 804.56 628.61 802.06 626.36 798.45 624.74 794.6 620.45 792.54 616.22 789.03 611.93 788.53 609.47 786.87 607.43 784.52 605.28 780.69 600.78 776.7 595.86 771.53 594.05 767.67 591 759.84 587.42 756.47 583.92 754.6 571 759.96 562.28 765.05 553.33 772.94 551.19 779.74 549.91 781.9 539.99 789.34 533.51 792.42 530.09 794.47 526.23 798.22 523.92 799.78 519.93 801.31 515.97 802.22 510.23 802.7 504.22 802.42 502.33 802.94 500.54 804.92 494.7 810.06 493.05 812.05 492.75 816.09 485.87 822.49 483.64 823.67 480.41 826.78 476.36 829.36 471.18 831.73 467.65 832.3 464.81 832.06 457.45 832.4 453.26 834.08 450.31 834.07 446.94 830.89 442.79 830.61 434.52 833.95 429.57 838.65 425.22 841.44 423.1 843.43 421.95 845.72 421.53 848.85 416.94 850.76 413.17 853.78 411.01 857.19 409.14 858.8 405.49 858.52 403.46 857.69 400.6 857.63 396.44 859.41 393.25 859.55 388.69 858.3 383.13 852.1 379.5 847.14 374.91 845.98 373 843.88 373.26 842.19 371.94 840.05 367.08 836.43 362.76 831.83 359.82 831.08 356.05 832.73 351.16 833.85 344.46 832.13 342.35 831.05 336.26 826.71 334.41 822.86 332.89 822.01 329.06 821.53 325.8 820.26 248.94 833.61 248.04 836.82 249.96 840.27 246.99 849.92 245.41 852.35 238.19 855.52 236.97 855.73 233.15 854.39 230.42 852.73 224.04 852.84 222.73 853.92 220.42 861.57 218.01 862.66 214.25 861.86 212.7 862.41 210.76 868.28 209.07 869.1 204.07 865.61 202 867 197.61 873.32 194.94 875.98 189.46 876.89 186.91 877.89 184.62 879.8 180.52 881.05 174.3 881.64 171.44 883.46 166.28 883.24 156.99 884.21 152.17 886 151.31 883.06 149.01 880.59 146.22 879.04 142.64 878.08 139.54 878.08 130.28 879.68 127.23 879.63 112.51 881.02 106.41 880.59 104.05 875.99 101.06 872.99 99.51 870.16 100.47 864.49 100.04 862.72 97.63 858.06 96.13 853.78 93.83 853.25 88.27 850.79 85.81 846.99 86.18 844.04 90.78 837.35 93.19 830.88 96.46 826.76 98.44 822.53 101 818.14 101.16 816.32 100.26 810.7 96.62 805.4 95.17 800.64 91.53 792.5 90.84 789.61 90.6 785.17 90.1 758.68 90.55 753.49 90.39 740.24 88.38 733.09 86.58 722.04 84.9 721.1 80.35 721.16 78.65 720.69 77.6 718.8 79.03 714.38 81.77 711.86 85.65 709.5 89.48 705.49 92.78 703.36 99.32 700.59 101.33 697.46 105.4 694.04 111.82 691.72 113.66 691.6 115.98 688.36 113.75 685.73 112.54 681.33 114.36 679 118.71 676.1 123.84 671.79 125.06 669.62 123.59 664.47 121.8 662.4 118.7 661.07 117.11 658.77 117.4 657.37 120.1 653.69 121.25 651.13 117.77 648.59 114.87 644.04 113.04 637.96 111.55 630.01 105.15 626.5 96.84 624.48 94.62 624.54 89.12 625.72 85.73 625.53 84.66 622.96 85.35 617.72 84.94 614.11 85.48 610.86 85.12 605.59 82.77 600.35 80.94 597.76 80.18 593.44 81.55 590.72 80.39 587.23 78.95 578.57 77.72 574.71 84.82 570.5 85.52 569.42 88.94 568.36 91.76 566.39 94.3 566.72 95.64 565.8 103.66 553.08 107.3 552.53 112.01 549.67 115.85 544.78 113.33 540.58 109.49 536.58 107.31 533.07 105.74 531.65 104.04 527.23 102.35 526.05 95.51 526.99 92.78 529.14 91.51 526.11 85.88 529.44 84.34 534.65 82.71 532.89 80.62 532.65 78.17 533.62 78.41 530.41 81.95 529.14 83.4 526.23 86.85 524.54 87.76 521.97 90.3 520.3 91.18 518.7 91.15 513.61 90.24 511.56 87.4 510.41 88.21 508.62 93.59 506.71 97.05 507.23 98.2 508.5 101.86 509.92 107.82 510.1 111.76 508.09 113.15 508.47 120.63 506.78 125.51 505.03 127.8 503.54 129.02 499.1 131.99 500.54 137.2 499.31 138.98 497.99 131.69 492.46 129.01 489.81 125.76 487.83 121.52 486.21 118.65 483.48 116.5 480.02 114.61 479.93 113.66 476.04 106.69 467.86 102.96 465.25 99.07 463.46 93.75 462.35 91.09 463.43 89.63 461.78 85.8 459.97 81.42 460.09 80.48 462.83 79.24 463.52 79.11 457.38 80.85 453.12 77.35 453.14 74.03 450.3 69.63 450.51 66.85 447.35 64.12 445.89 58.34 445.79 52.54 443.85 57.08 440.17 59.23 436.87 59.91 433.93 62.65 432.63 66.19 428.77 66.9 424.68 65.03 420.51 64.94 417.72 67.15 412.2 67.33 410.12 64.04 402.26 62.3 399.74 56.17 394.9 51.54 394.2 50.34 393.37 51.09 389.94 50.67 383.16 49.7 381.22 50.12 373.76 51.31 364.54 54.73 362.47 56.47 359.98 55.68 356.55 52.37 354.06 50.49 351.87 49.62 349.38 49.21 344.69 51.62 341.82 52.15 339.78 51.02 335.62 47.92 332.75 43.8 330.81 41.88 328.3 41.81 319.46 41.37 318.44 36.35 313.65 32.5 311.68 29.49 306.46 30.11 303.14 32.17 300.45 31.45 298.34 28.08 296.83 22.83 295.48 19.44 295.43 15.07 297.21 13.39 296.1 13.24 291.27 10.06 287.34 6.99 285.56 3.62 281.29 2.39 277.8 1.36 272.09 2.59 268.48 1 264.35 2.54 261.07 9.34 255.51 11.8 251.44 14.74 247.88 17.81 246.14 22.4 245.24 27.84 242.96 32.17 242.21 35.76 239.82 37.24 232.84 36.23 227.78 34.99 224.67 36 222.4 39.03 220.51 43.43 219.14 56.91 218.39 60.33 217.62 63.8 217.51 72.75 216.36 76.27 214.61 76.46 210.89 81.13 205.06 83.31 201.78 84.07 198.79 84.31 193.11 86.88 189.58 91.47 185.76 94.03 185.85 102.32 192.21 106.05 191.49 112.76 187.91 119.34 186.87 123.48 185.01 126.78 181 130.62 179.5 136.23 178.95 140.6 176.21 147.36 175.36 150.49 171.88 152.17 170.84 156.4 169.83 160.53 167.92 167.27 165.64 169.76 166.26 173.25 168.11 177.8 168.44 182.4 167.95 189.09 165.76 192.27 165.22 196.09 163.55 206.79 160.95 211.57 159.23 213.28 156.56 213.1 154.19 214 150.77 216.31 146.47 218.26 134.72 219.08 132.36 223.01 126.91 228.54 123.72 233.83 118.61 240.27 114.11 242.91 107.76 245.37 104.42 249.4 102.61 261.5 96.08 265.49 95.5 266.99 96.04 271.81 100.33 276.08 101.41 281.59 104.13 286.98 105.76 295.83 106.17 297.11 106.7 299.25 111.89 300.59 112.91 305.41 114.78 308.94 116.98 314.88 119.6 323.66 121.47 329.22 120.99 333.02 119.12 339.87 116.55 344.05 115.8 345.54 114.25 346.83 110.66 346.78 103.28 348.92 98.35 351.02 88.78 351.53 85.38 353.52 81.34 359.09 76.27 362.84 75.84 364.37 74.17 366.04 68.36 368.95 65.58 372.29 64.09 373.4 62.79 375.67 55.52 379.93 51.17 382.53 49.07 382.38 47.21 380.15 45.11 379.67 42.59 383.41 36.84 391.17 33.15 399.5 31.01 409.12 27.39 413.72 25.89 417.63 19.04 424.63 10.53 425.39 4.7 427.96 1.7 432.26 1.96 435.74 1 439.76 1.57 441.47 3.84 444.84 4.96 449.69 5.58 460.56 8.32 463.76 9.57 468.79 10.32 477.01 9.87 482.99 10.25 488.48 12.18 492.16 14.76 496.56 19.35 497.07 22.3 499.1 24.63 506.51 25.43 512.28 25.59 514.82 26.28 523.34 30.09 528.06 31.75 531.94 32.44 537.36 30.87 541.17 29.24 546.02 28.98 550.31 31.48 554.91 31.89 Z"/>
</g>
</svg>