<?xml version="1.0"?>
<svg xmlns="http://www.w3.org/2000/svg" version="1.2" baseProfile="tiny" width="800" height="1035" viewBox="0 0 800 1035" stroke-linecap="round" stroke-linejoin="round">
<g id="4214607">
<path d="M 370.25 13.23 366.04 20.15 366.04 24.16 367.38 26.99 371.23 30.77 373.85 34.74 379.42 36.46 380.58 45.08 381.5 47.71 383.29 49.17 386.64 49.23 388.8 49.93 390.25 52.71 389.86 57.2 388.26 60.4 383.67 62.64 382.95 65.03 384.21 66.73 383.46 69.81 379.98 72.95 379.55 75.62 380.95 81.13 382.34 83.58 385.89 87.06 387.1 91.23 386.61 93.74 383.72 101.24 383.21 104.03 384.22 108.44 386.29 110.01 390 110.57 392.43 111.73 393.03 113.77 389.82 118.1 384.11 122.99 382.09 127.12 379.56 130.1 375.9 137.8 372.29 148.12 372.5 153.63 371.99 155.13 367.89 159.84 366.3 164.68 368.73 166.75 368.94 169.55 368.03 171.34 367.97 174.44 370.52 185.58 368.97 188.36 368.37 191.2 368.84 193.45 367.79 201.52 370.43 207.76 372.5 209.87 377.63 212.97 377.3 216.15 378.25 218.67 380.4 220.04 381.31 221.74 380.83 228.6 381.61 231.76 383.27 234.86 385.79 237.94 390.33 245.59 392.54 246.46 398.71 247.51 400.89 249.66 403.13 256.16 405.2 259.31 405.95 263.24 404.99 269.41 406.46 275.67 408.96 278.77 410.76 287.3 408.22 293.62 407.53 297 409.09 303.35 411.23 307.51 409.76 315.04 409.96 317.65 412.07 322.96 412.77 325.76 413.17 331.27 412.57 333.18 410.66 335.48 409.06 341.19 408.91 348.16 410.47 354.8 416.21 361.41 417.51 367.18 420.18 373.85 419.68 377.16 415.47 383.77 411.65 392.43 412.89 394.71 417.29 393.42 424.51 395.36 428.77 394.82 431.78 393.06 435.98 392.67 439.97 392.81 444.13 391.02 447.93 392.19 457.75 392.39 461.95 390.99 465.8 387.74 469.64 385.68 473.46 386.66 478.63 391.01 483.99 393.39 490 398.2 494.41 400.51 499.35 401.91 503.67 400.12 506.94 396.94 510.19 397.8 516.55 406.02 520.16 407.42 524.77 406.62 528.57 407.52 531.78 410.43 534.58 414.43 539.09 416.14 542.3 418.54 541.9 421.65 541.7 428.66 542.35 433.73 546.2 438.88 546.91 447.5 548.11 453.31 551.31 456.21 556.32 456.31 562.23 458.32 572.65 462.83 576.84 465.51 579.56 465.95 581.18 463.29 584.94 458.52 588.04 458.48 591.3 461.43 603.71 464.83 607.61 465.23 612.82 464.83 616.85 463.29 618.82 463.4 621.17 465.97 621.63 468.64 620.75 470.08 617.51 471.84 617.93 476.35 620.44 478.46 626.75 479.49 630.15 481.06 631.56 483.67 632.46 487.27 635.16 490.18 643.5 492.48 648.59 495.29 654.8 497.39 660.31 497.69 666.42 496.59 671.43 496.19 676.74 493.79 681.45 493.79 685.35 492.38 686.45 490.98 688.26 484.07 689.86 481.36 694.45 475.99 698.1 470.81 706.24 470.76 707.58 469.94 710.88 466.04 713.34 466.24 713.09 470.29 714.77 472.13 718.75 472.96 720.58 474.96 723.43 479.54 725.29 480.13 730.06 479.62 734.15 477.94 737.56 477.6 743.96 483.87 749.37 485.17 753.37 482.56 757.28 481.96 764.69 484.77 780.92 487.77 781.62 492.98 780.32 499.4 780.82 501.4 784.23 505.91 785.43 509.92 785.63 514.33 785.13 518.43 787.17 520.43 795.17 521.99 799 524.42 798.3 526.44 796.27 528.56 790.19 531.92 781.53 540.08 778.14 540.14 768.19 546.07 760.27 548.56 757.74 551.9 754.65 553.22 748 553.55 746.8 554.63 746.12 563.29 742.24 566.87 740.91 575.47 727.26 641.76 727.79 642.69 727.07 646.13 727.68 648.17 727.09 650.59 727.64 652.99 729.2 655.79 732.07 653.54 735.51 653.15 734.75 651.06 735.69 648.83 742.62 648.37 745.78 646.94 749.24 648.56 761.16 648.37 757.84 650.85 755.79 653.81 753.68 660.14 756.19 669 754.61 671.82 752.27 677.37 749.43 681.22 748.54 685.41 748.67 689.07 748.07 692.55 745.05 694.82 744.88 696.49 742.64 700.46 741.12 701.86 739.87 708.02 737.81 711.79 737.78 714.58 734.87 718.34 732.32 725.47 730.6 729.39 728.63 730.14 727.95 733.46 723.17 736.73 722.37 738.93 725.01 742.4 729.41 744.82 731.84 748.4 733.71 758.62 734.95 761.77 710.13 785.61 708.61 785.83 701.79 790.98 698.97 789.61 694.68 788.53 693.89 789.1 684.93 803.28 684.54 805.07 685.25 810.56 687.05 817.69 688.59 822.37 693.05 824.91 696.39 829.17 700.53 830.91 701.62 832.37 701.59 835.71 700.68 840.97 700.87 844.07 699.82 844.72 695.52 844.75 689.71 848.4 686.17 849.64 679.4 850.51 673.97 851.9 670.78 852.17 665.49 851.15 659.89 852.29 654.41 856.03 653.24 858.64 653.14 861.28 653.79 866.07 653.55 871 652.66 873.98 649.11 877.42 640.09 885.17 637.04 889.09 635.49 895 632.15 898.54 630.32 906.28 628.82 907.43 624.5 907.65 619.12 910.36 616.17 912.74 612.55 917 611.36 920.28 607.41 923.13 605.73 926.12 594.81 920.42 584.29 923 579.27 919.34 575.35 918.37 570.79 919.37 569.92 918.98 568.02 915.39 565.82 913.57 561.78 913.45 559.99 914.49 558.91 918.48 555.26 920.06 553.18 919.95 550.68 918.51 546.38 914.86 544.85 915.02 544.95 920.1 546.18 922.03 547.15 926.57 547.93 927.62 551.46 928.38 553.13 930.16 553.8 932.97 558.86 937.15 561.21 938.08 564.69 940.99 563.66 949.44 549.15 955.18 548.11 957.41 548.9 964.44 548.61 968.59 546.34 970.66 539.08 975.24 536.24 979.44 535.07 982.72 533.81 990.07 531.55 993.68 526.14 999.1 524.52 1002.05 523.89 1004.97 523.23 1012.46 521.95 1016.2 511.82 1023.64 509.26 1029.07 506.3 1030.86 503.95 1031.36 497.07 1031.8 490.29 1034 486.67 1032.07 480.77 1025.77 476.39 1022.2 473.4 1022.57 467.29 1027.42 465.36 1028.23 462.68 1028.11 460.41 1026.82 460.84 1024.78 459.48 1022.08 457.81 1021.31 452 1014.98 449.92 1011.93 449.01 1002.51 442.82 996.86 439.84 996.65 438.26 995.49 437.01 990.04 437.73 985.08 435.02 979.53 434.3 975.62 432.45 973.84 431.44 969.91 427.82 964.98 426.71 964.18 423.73 957.62 422.06 956.69 420.35 953 411.5 948.49 409.42 950.74 404.81 948.41 403.77 946.09 401.23 946.18 399.63 945.22 398.05 941.99 393.24 937.06 392.67 935.73 389.35 932.98 386.31 926.7 385.61 919.54 384.98 917.52 382 914.57 380.82 911.67 380.07 903.39 372.5 899.6 370.6 899.49 365.28 892.79 360.68 892.33 358.61 893.87 358.59 899.64 249.4 874.38 154.33 852.39 84.63 832.07 71.42 726.18 58.94 705.37 1 707.53 6.87 699.9 12.05 687.48 21.79 678.44 25.68 673.97 27.28 669.07 25.97 666.31 24.61 661.78 23.95 657.15 27.08 654.25 31.73 652.21 36.45 648.05 37.39 637.43 40.45 630.12 44.18 627.97 45.68 623.55 45.17 618.18 46.74 612.78 49.8 608 51.14 601.71 56.53 593.95 58.72 588.31 62.27 582.84 66.39 580.76 69.01 578.45 68.39 573.42 69.83 567.37 68 559.78 69.67 553.53 70.67 545.11 72.27 541.9 73.29 537.43 73.02 531.92 75.52 529.76 74.24 527.97 75.7 522.54 84.01 530.57 90.94 537.95 98.06 548.82 101.65 550.42 104.57 546.96 105.54 543.47 105.09 541.37 94.86 529.79 93.95 527.76 93.95 524.25 95.18 520.36 98.83 515.65 105.26 502.83 107.78 499.73 118.61 494.83 134 489.82 138.11 491.7 140.45 494.33 139.03 497.03 129.26 502.49 128.17 504.29 128.1 509.23 128.57 521.87 128.62 529.34 127.97 536.67 129.41 541.38 129.57 544.92 132.92 548.09 135.18 548.02 142.63 543.37 150.33 536.64 155.31 533.64 160.39 534.43 163.93 536.82 166.36 534.19 166.49 531.02 169.7 527.54 174.42 523.96 173.06 521.41 178.89 515.58 180.18 512.27 179.68 504.71 178.32 499.19 174.94 489.93 176.77 487.06 178.89 485.95 181.79 483.04 182.27 481.04 178.92 477.73 176.55 473.67 176.75 466.88 175.88 460.23 174.99 456.3 174.4 449.77 175.11 446.92 173.47 441.83 170.5 439.88 170.12 438.31 171.34 435.92 169.35 430.77 170.53 424.87 169.22 423.17 168.09 415.68 165.63 408.66 164.73 402.72 162.39 398.65 158.67 383.26 154.12 377.61 155.62 372.06 155.38 370.63 159.44 367.2 161.09 364.34 159.63 363.28 156.66 363.55 153.94 362.88 150.58 355.1 146.53 350.8 144.82 347.28 145.8 344.76 211.85 103.77 240.01 1 250.39 11.6 255.83 17.55 258.01 18.5 265.63 20.6 269.1 22.97 273.35 23.76 275.5 23.23 277.83 21.55 281.25 17.68 290.98 13 295.75 12.48 370.25 13.23 Z"/>
</g>
</svg>