<?xml version="1.0"?>
<svg xmlns="http://www.w3.org/2000/svg" version="1.2" baseProfile="tiny" width="800" height="568" viewBox="0 0 800 568" stroke-linecap="round" stroke-linejoin="round">
<g id="4214508">
<path d="M 476.58 49.73 478.42 48.35 479.06 46.49 480 46.36 482.2 48.09 483.3 48.14 485.83 47.64 488.12 48.17 490.46 47.1 491.59 47.15 493.08 48.37 494.14 48.65 497.66 47.13 498.68 46.4 501.69 45.11 502.35 44.31 503.8 44.44 504.98 43.72 507.97 42.87 509.5 42.01 512.33 42.87 513.95 41.86 514.93 42.45 516.95 42.82 518.68 42.63 520.18 43.55 523.44 47.95 523.07 48.74 521.22 50.58 519.57 53.15 517.87 57.33 517.78 60.1 516.57 62.01 514.73 63.12 513.53 66.02 511.45 67.69 510.85 68.87 510.82 70.53 511.37 72.2 511.32 73.54 509.2 75.87 508.61 79.68 508.95 83.66 508.41 84.96 508.19 87.05 508.38 89.64 509.24 92.51 510.15 94.06 508.66 98.13 508.55 100.94 509.23 104.18 510.85 105.69 511.44 107.32 513.47 109.29 515.68 113.36 517.33 116 520.44 117.07 523.23 118.3 525.26 118.53 526.11 118.04 527 116.09 527.53 113.39 527.45 111.4 526.67 109.64 527.25 108.57 529.31 106.48 528.78 102.37 529.44 101.08 529.45 100.01 530.34 99.29 530.41 98.32 531.63 98.06 532.8 96.06 534.39 92.49 536.44 89.99 536.74 89.05 538.72 85.7 540.57 83.91 541.61 81.9 542.6 79.24 542.74 78.15 544.69 76.96 545.79 75.88 548.14 74.44 547.49 72.49 551.23 68.59 553.75 66.89 555.79 67.28 557.3 67.06 558.05 65.95 559.51 65.25 561.04 65.5 561.7 64.72 566.61 63.45 568.65 61.27 570.23 57.55 571.51 57.38 573.67 57.85 574.99 57.56 577.08 58 578.76 57.81 580.77 58.29 583.93 57.68 586.19 56.84 588 57.09 588.59 58.15 589.69 57.99 590.88 57.11 593.63 58.07 598.61 57.92 600.55 58.53 602.1 59.38 606.04 58.43 607.29 57.63 608.66 54.73 608.82 53.3 609.79 51.7 610.65 52.68 611.45 54.39 613.42 54.37 615.77 54.9 619.69 55.3 622.65 55.02 623.78 55.34 624.64 56.34 626.12 56.22 626.19 55.1 630 54.7 632.86 53.82 634.35 53.68 634.56 51.45 636.44 49.22 637.46 49.25 639.01 50.52 641.22 51.51 641.59 51.11 641.02 48.96 641.71 47.02 643.43 44.89 642.95 43.65 646.53 43.68 648.19 44.45 649.93 44.23 651.69 44.62 653.28 43.42 652.69 42.06 653.14 40.96 654.4 40.89 654.9 41.79 656.49 41.69 658.01 39.92 661.03 39.38 662.48 39.42 664.39 39.92 664.11 38.41 665.24 37.74 666.74 38.67 669.38 39.15 670.44 38.4 673.03 38.84 674.7 37.59 678.38 37.95 682.33 36.12 683.17 36.09 685.87 37.74 687.25 39.03 688.27 38.84 690.26 37.34 689.78 36.54 686.89 36.98 684.36 35.31 684.13 34.65 685.5 33.74 687.35 33.45 687.9 32.84 687.63 31.05 689.67 31.14 691.8 30.89 693.32 31.45 693.51 32.05 696.73 35.3 697.73 34.55 696.83 33.51 697.16 31.08 697.25 27.79 697.86 27.29 699.26 27.5 702.51 27.52 701.76 25.52 701.57 23.98 704.89 22.46 706.05 21.49 707.44 21.71 709.83 23.17 711.56 24.91 712.72 24.86 714.18 22.46 716.79 19.1 721.15 17.92 722.68 16.99 722.89 16.29 722.28 14.85 722.82 13.85 724.13 14.08 726.36 15.23 727.85 17.4 729.79 19.66 732.31 21.32 733.63 23.19 737.64 22.88 738.89 23.18 743.33 27.22 743.73 28.33 743.68 30.07 744.64 31.35 747.46 33.12 754.38 34.13 756.53 35.18 758.21 35.2 759.48 34.15 763.06 34.86 765.5 33.55 769.42 34.07 769.9 32.1 770.87 29.72 771.58 29.71 772.21 31.28 774.96 32.11 776.36 32.01 777.35 31.4 777.38 29.23 777.79 28.11 778.84 27.83 780.54 28.72 783.59 29.02 787.07 30.17 788.09 31.52 787.81 33.19 788.73 35.5 791.39 38.4 791.97 40.88 792.16 44.46 791.3 46.39 792.72 47.23 793.03 48.47 792.22 49.91 792.41 51.72 792 53.04 792.16 54.61 793.71 56.85 796.37 58.32 797.37 59.85 798.26 60.31 799 62.97 798.4 63.45 796.68 63.43 794.67 63.94 792.94 65.02 793.33 66.31 795.48 68.37 795.89 69.24 796 71.43 795.46 72.34 793.66 72.62 792.25 72.41 789.34 74.9 788.44 76 790.06 77.44 788.14 79.3 787.73 80.17 788.26 81.18 787.92 82.51 789.95 85.56 791.78 87.46 790.08 89.17 792.5 92.32 792.51 93.83 791.66 93.99 789.87 95.54 789.36 96.59 790.28 97.93 790.07 99.45 790.56 101.89 789.69 103.16 787.82 104.66 787.29 105.81 788.11 107.08 787.53 109.39 786.49 111.15 785.64 115.18 786.13 116.17 785.51 118.26 785.73 119.7 783.48 122.11 780.01 126.24 777.96 128.22 776.26 130.26 776.05 130.99 776.44 135.49 777.37 136.36 780.05 136.26 780.71 136.65 780.82 138.11 777.32 141.45 778.3 144.3 780.15 145.31 779.63 146.36 778.37 147.17 779.75 148.76 778.93 150.05 776.89 150.14 775 154.01 774.69 156.15 774.96 158.08 772.82 161.05 773.28 161.58 773.07 163.27 772.04 164.79 770.21 166.69 770.14 168.29 769.09 169.49 767.27 170.64 766.22 172.1 766.04 173.35 764.11 174.27 764.01 175.42 762.11 176.97 761.35 178.25 758.88 178.76 758.28 178.45 754.59 178.96 753.34 179.49 751.21 184.39 750.21 185.57 747.13 186.64 745.94 186.17 742.75 186.51 739.3 185.81 738.17 185.11 736.59 185.91 736.24 186.85 734.32 189.64 730.04 189.73 728.19 189.22 725.91 189.7 725.23 190.65 723.05 190.41 718.9 196.43 717.81 195.47 715.56 194.24 713.41 194.66 711.9 196.65 711.21 198.72 709.61 201.12 708.56 201.72 704.38 200.15 702.81 201.39 696.92 201.95 694.02 201.15 690.99 201.15 688.16 203.07 685.06 202.5 684.05 202.75 682.52 204.22 680.53 202.16 679.47 201.89 676.98 202.34 675.13 203.16 673.85 204.62 673.45 206.55 671.95 207.81 668.99 209 667.57 208.98 664.5 209.61 663.09 210.81 660.59 211.51 659.81 212.69 659.21 214.8 656.67 218.18 656.65 220.47 655.79 221.3 656.85 222.22 657.09 223.9 655.19 225.85 655.21 230.83 654.19 231.59 650.54 232.77 650.13 233.82 647.67 236.81 640.61 240.3 638.7 243.73 636.2 245.31 636.54 247.66 636.11 249.99 636.72 252.76 635.95 254.02 631.56 256.49 630.85 259.29 629.44 260.7 629.49 261.31 632.99 262.71 634.58 263.83 635.44 265.83 635.42 268.26 636.25 270 637.14 273.22 638.87 275.23 641.15 276.47 641.12 278.14 641.62 279.78 640.28 283.77 639.29 286 637.83 288.34 635.88 288.85 631.64 289.3 628.42 290.14 624.21 290.4 623.32 291.93 623.12 293.4 623.39 296.6 622.28 302.27 620.58 306.59 617.09 310.62 614.8 312.08 609.93 312.83 607.5 313.41 601.74 311.78 600.13 312.86 598.75 314.32 597.44 315.03 596.21 316.93 594.71 318.03 593.52 318.36 589.93 321.47 587.01 322.07 580.71 323.96 579.76 325.42 576.01 329.02 575.04 330.53 573.77 330.97 567.65 331.57 564.1 331.42 562.04 332.67 559.77 333.55 557.5 337.2 556.09 338.34 553.61 339.68 550.68 340.91 547.49 343.2 546.26 344.56 544.98 346.73 542.71 351.32 542.37 352.4 540.89 354.86 539.6 358.4 538.83 359.78 537.47 361.13 534.85 364.74 531.8 366.87 529.64 370.17 529.3 372.02 527.6 374.73 527.51 376.98 526.72 377.68 520.38 384.89 519.3 388.28 519.22 390.02 517.6 392.94 517.13 395.53 517.09 398.96 515.55 401.1 513.77 402.05 513.57 405.73 511.71 408.26 511.12 409.73 511.98 411.84 511.99 413.15 510.05 413.81 508.93 414.99 509.21 416.45 511.58 418.77 514.56 420.15 514.78 420.89 513.99 423.04 512.08 424.49 509.22 423.75 507.6 422.84 504 422.69 502.6 423.36 502.2 424.67 501.28 425.9 495.98 428.23 494.95 432.04 493.04 433.19 491.89 433.15 490.47 431.89 487.66 431.23 486.65 430.15 485.2 430.55 482.8 432.6 481.93 432.76 479.12 432.28 477.37 432.83 475.12 433.04 474.08 435.34 472.07 436.43 470.71 436.79 469.6 437.8 467.09 437.4 465.43 438.47 464.66 440.14 464.63 445.68 465.44 447.42 465.9 449.39 467.86 452.46 467.2 453.85 467.72 455.78 468.3 456.4 468 457.93 467.04 459.25 464.47 461.13 461.66 462.47 461.89 462.93 519.2 567 513.6 562.91 508.66 558 502.61 555.94 500.61 555.03 497.57 553.27 494.35 553.91 490.31 553.92 488.86 553.48 488.21 552.79 484.35 550.34 482.19 549.56 477.66 548.29 475.7 547.47 473.64 547.05 468.56 545.64 466.34 544.19 463.84 544.07 460.81 542.5 459.26 540.48 459.41 539.58 457.55 539.99 457.01 543.08 457.99 545.76 457.41 547.74 454.66 547.65 451.97 546.25 450.95 545.17 449.25 542.24 442.69 536.76 439.6 535.79 436.14 534.29 433.45 532.42 431.47 531.56 430 530.02 423 527.29 421.17 526.9 418.27 525.75 406.92 524.49 406.26 523.73 406.76 522.82 410 520.96 415.74 519.4 420.44 517.51 422.07 517.27 423.95 515.85 426.88 512.75 428.61 512.18 431 512.26 432.39 513.23 433.75 511.99 434.68 511.71 437.89 512.5 438.54 511.77 438.15 510.7 436.59 509.6 434.66 509.15 431.22 507.19 429.31 506.72 426.93 504.24 421.36 503.82 419.2 503.17 418.05 500.38 416.88 499.14 415.62 496.76 416.33 494.51 418.22 492.04 420.45 490.17 423.26 489.5 428.57 491.24 430.03 491.09 430.5 490.25 434.03 487.68 438.27 487.15 439.88 487.57 439.98 485.67 441.43 483.79 442.82 483.75 444.23 483 443.54 482.09 440.12 482.15 437.13 482.78 436.01 482.47 433.98 481.13 433.04 480.16 432.89 478.72 434.26 475.16 434.75 472.88 434.11 468.67 432.57 467.55 430.49 467.8 429.08 467.6 427.69 468.08 426.21 467.1 423.38 466.97 419.61 468.34 416.77 467.86 414.45 466.53 411.48 466.01 409.88 466.56 408.31 465.05 405.02 462.92 401.95 461.78 398.6 459.53 396.04 459.38 392.94 458.77 389.22 459.18 386.67 459.03 381.15 459.22 374.39 458.41 370.47 457.24 365.84 455.32 363.73 455.69 357.55 457.63 355.95 458.46 354.3 458.41 351.18 458.84 349.33 460.22 348.94 461.2 346.71 462.54 345.84 462.09 341.15 463.29 336.75 463.91 335.63 464.58 334.2 464.7 332.34 463.27 331.16 463.53 329.08 463.21 326.33 462.12 324.82 460.25 323.31 458.92 320.56 459.44 315.02 459.34 313.22 458.71 285.7 454.04 264.65 448.95 169.09 455.21 129.05 457.83 77.28 442.43 61.08 437.24 1 420.75 1.77 417.73 3.16 416.73 5.28 415.94 5.24 414.9 3.58 413.85 3.52 412.8 4.5 411.26 7.36 408.37 9.86 406.34 10.63 405.3 11.39 403.15 12.02 399.78 11.49 398.91 11.66 395.87 10.46 393.29 9.63 392.32 7.17 391.14 6.8 387.82 8.24 386.65 21.3 380.23 22.38 378.77 23.03 376.09 23.64 374.81 23.63 372.83 22.8 370.01 22.8 369.19 24.49 368.05 24.62 367.39 23.04 366.14 22.56 364.53 24.47 361.98 26.45 359.76 26.15 358.05 25.24 356.88 20.57 353.64 20.78 352.41 25.04 351.09 27.64 349.46 29.04 346.61 30.08 343.48 32.41 341.58 33.7 339.58 36.95 337.73 37.77 334.83 39.21 332.85 40.48 331.65 42.29 332.31 44.25 332.23 45.27 330.94 45.92 329.05 45.73 328.17 43.58 325.77 42.68 323.78 42.31 321.2 41.98 316.12 41.34 314.75 42.04 313.84 42.13 312.33 41.6 310.63 40.47 309.34 37 303.87 34.12 303.73 33.4 302.3 34.03 301.22 36.61 298.22 38.75 297.92 39.96 295.12 41.18 294.03 41.77 292.71 43.02 291.67 44.35 289.15 43.82 287.09 43.77 284.92 43.01 282.6 43.67 279.86 45.56 275.26 45.36 273.8 46.61 270.74 46.81 268.12 45.57 266.28 46.19 264.72 49.01 264.24 51.64 264.6 54.03 263.39 55.67 262.98 57.23 260.68 57.99 258.82 59.18 258.64 59.92 257.34 61.29 252.73 61.3 251.44 60.09 249.29 60.28 248.12 61.38 245.23 63.48 243.43 65.91 243.37 67.79 242.3 71.19 239.06 71.34 236.25 67.47 233.76 66.68 232.5 68.61 228.74 69.81 223.56 70.37 221.97 70.41 218.27 69.69 216.81 69.86 215.19 68.39 214.65 66.81 214.56 58.49 210.61 56.77 210.28 54.72 210.52 51.27 209.88 47.3 210.54 45.97 211.21 45.23 212.76 42.68 213.82 40.38 216.31 38.19 216.71 36.57 217.32 34.46 217.02 32.55 215.36 31.17 214.78 29.28 214.8 28.71 212.85 25.18 210.77 22.96 208.47 22.57 207.06 24.68 203.06 26.6 201.29 27.87 199.74 31.64 197.26 33.33 195.42 35.7 191.59 36.25 189.84 37.22 188.79 38.98 185.2 41.9 184.57 44.47 186.19 45.41 186.41 46.49 185.83 48.13 183.63 50.31 183.43 54.5 186.21 54.79 187.41 57.42 190.7 59.42 190.19 61.46 188.92 64.21 187.63 68.3 185.19 69.57 183.59 70.18 179.44 70.02 178.74 70.54 176.45 73.42 173.37 74.88 172.9 78.28 173.45 79.43 174.31 80.99 174.54 83.21 174.3 85.39 172.83 86.7 171.43 87.88 169.08 88.45 166.21 88.56 164.17 88.26 162.83 86.94 159.17 86.86 156.26 87.32 154.33 88.2 152.12 89.46 149.84 91.27 147.49 92.58 146.25 94.23 145.5 99.34 145.74 101.32 145.08 102.47 145.98 104.94 147.16 105.15 149.36 105.92 150.09 107.41 150.05 110.48 148.67 113.37 147.9 114.02 147.42 114.45 145.91 114.29 143.69 113.73 141.63 113.73 137.74 112.65 133.95 112.62 132.3 112.1 130.27 112.21 128.03 112.92 126.06 113.49 123.18 114.85 120.97 117.66 118.69 118.29 117.45 118.85 115.02 120.05 112.6 121.8 111.07 124.98 107.45 127.95 106 132.23 105.89 133.11 105.5 136.49 102.57 138.14 101.63 143.93 97.67 144.65 96.09 144.02 93.74 144.15 92.61 145.33 90.87 148.75 88.78 149.49 88.13 151.62 85.34 153.64 83.51 154.85 81.79 156.75 79.97 156.71 77.11 157.89 74.34 159.15 72.5 158.9 70.26 158.24 68.38 159.25 63.83 160.64 61.91 161.05 60.55 162.08 60.25 163.82 60.64 165.13 60.22 166.41 58.79 167.68 59.25 169.04 60.43 171.35 60.85 173.25 59.39 178.49 58.69 182.86 58.88 183.59 58.58 186.53 55.88 187.85 56.65 190.35 58.63 193.42 56.45 195.23 52.47 196.8 52.32 197.53 54.09 199.32 55.49 201.18 57.6 205.43 58.42 207.68 57.98 209.33 59.19 211.03 59.03 214.98 57.28 216.87 55.79 219.97 54.73 221.96 53.69 224.05 51.95 228.95 49.04 229.26 46.37 229.85 45.09 230.75 44.65 232.35 44.81 235.07 44.31 236.46 43.61 238.13 42 239.14 41.69 241.04 41.87 241.9 41.48 242.61 40.11 243.86 39.03 246.11 38.02 247.27 38.11 249.38 37.26 249.57 34.14 250.89 30.75 252.02 29.24 254.45 27.35 254.47 25.87 256.06 23.54 257.41 22.82 263.29 22.37 263.92 20.41 265.48 19.42 267.21 19.41 267.83 18.96 269.14 16.87 270.28 16.02 273.14 15.03 273.65 14.09 273.09 11.59 271.87 9.65 271.77 8.72 275.07 8.92 277.54 7.5 279.37 6.86 281.15 7.34 282.43 7.17 283.8 5.77 284.41 3.34 285.43 3.35 286.88 4.46 289.08 4.43 290.56 2.09 291.98 1.46 293.39 1.6 294.86 3.27 297 2.57 299.9 1 300.49 1.73 300.46 2.94 299.6 5.8 299.66 8.5 300.88 9.33 303.23 9.65 304.17 10.71 303.51 12.22 304 13.51 305.99 14.62 307.53 16.93 310.87 20.78 311.94 22.24 314.76 22.96 315.95 22.78 315.98 20.42 314.88 19.6 314.82 18.08 315.37 17.74 318.42 17.52 320.89 16.83 322.51 15.39 323.56 15.11 325.12 15.79 326.47 15.82 328.02 14.02 328.58 12.69 329.7 12.47 331.41 13.54 332.54 15.57 334 16.71 335.64 16.7 336.59 15.47 337.53 15.2 339.06 15.61 341.62 15.26 343.15 14.26 344.06 14.72 343.71 15.8 341.9 18.27 342.25 19.41 343.15 19.43 346.42 21.48 348.78 24.84 351.2 26.83 353.65 30.35 355.58 31.54 358.89 31.14 359.67 31.42 360.98 33.44 362.8 33.81 364.48 32.84 366.39 33.73 369.02 35.69 370.03 35.76 370.81 34.95 373.74 33.69 375.38 33.84 376.69 34.76 377.8 34.22 383.22 33.61 385.79 32.1 388.95 31.42 390.39 31.88 391.28 32.96 392.43 35.32 394.21 36.65 394.86 37.75 396.12 38.53 398.58 40.82 399.18 41.03 402.41 40.33 404.15 37.59 405.59 37.76 405.89 38.84 405.92 42.76 406.58 44.17 407.58 45.12 408.73 46.89 408.43 48.3 409.76 48.51 410.7 48.02 412.66 46.08 414.08 46.23 414.42 47.66 414.08 50.78 414.37 52.02 415.96 52.64 416.38 54.83 416.92 55.51 419.34 55.89 420.41 57 421.57 57.54 423.72 57.84 427.66 57.11 429.22 57.31 430.82 58.25 431.13 60.97 432.33 62.4 434.02 63.29 434.23 64.15 435.52 65.52 438.05 66.86 440.27 67.33 442.49 66.95 445.07 65.97 446.69 65.93 449.36 66.56 450.46 66.09 452.2 63.1 452.21 61.22 453.56 60.62 454.68 61.3 454.99 62.77 456.53 63.3 457.89 62.3 458.6 60.48 461.61 58.15 462.14 57.5 462.57 55.14 463.28 54.55 465.06 55.58 466.38 57.93 466.99 58.5 468.64 58.74 470.82 55.09 472.56 50.38 473.2 49.5 476.58 49.73 Z"/>
</g>
</svg>