<?xml version="1.0"?>
<svg xmlns="http://www.w3.org/2000/svg" version="1.2" baseProfile="tiny" width="800" height="573" viewBox="0 0 800 573" stroke-linecap="round" stroke-linejoin="round">
<g id="4214151">
<path d="M 568.78 197.81 648.53 218.15 678.56 225.98 728.9 238.89 792.97 261.99 799 264.42 796.38 267.2 796.47 273.97 790.37 274.68 785.67 273.1 778.9 269.19 745.88 327.82 744.18 327.19 719.37 362.01 715.94 361.47 699.86 398.32 702.4 400.12 710.36 401.65 709.61 419.04 691.57 418.84 691.15 494.72 686.32 493.27 678 492.03 673.44 490.07 670.67 487.45 658.98 479.48 655.94 478.87 651.9 475.9 646.39 474.45 636.37 491.17 653.4 507.63 610.4 572 607.3 568.06 605.51 562.58 603.48 560.15 601.62 555.71 593 551.52 588.46 551.19 586.7 549.34 583.68 543 580 542.74 575.06 538.56 364.41 519.91 346.39 518.38 343.97 515.93 340.06 513.72 338.08 509.7 336.14 508.85 335.98 506.41 330.27 502.9 325.11 503.73 321.58 501.59 322.26 498.47 320.15 495.87 314.73 492.81 311.86 489.69 312.08 486.01 305.29 487.11 304.44 488.37 303.21 494.89 303.84 501.03 296.37 502.22 290.78 497.7 288.8 493.33 286.98 484.85 281.39 482.58 276.84 479.6 267.95 475.93 264.87 473.98 267.35 470.34 266.48 463.35 266.83 461.3 264.91 458.22 265.38 453.63 264.21 451.08 264.46 448.38 267.46 443.39 266.76 436.24 264.38 432.04 264.22 420.8 262.69 409.3 263.69 404.59 268.84 397.87 274.64 392.92 273.32 390.94 125.22 363.44 120.3 362.56 10.83 359.31 4.6 359.88 6.85 358.4 9.59 353.8 9.91 347.92 8.91 342.9 1 323.08 2.35 313.01 7.86 300.68 8.2 296.33 7.2 292.26 4.69 289.54 2.16 281.34 6.83 277.99 10.53 276.83 12.87 277.09 21.29 282.9 25.36 284.63 29.47 283.52 30.44 280.03 25.08 266.51 25.65 264.14 28.05 263.18 38.05 263.34 42.15 260.67 42.11 257.78 40.55 253.41 40.82 245.22 42.22 241.79 47.5 235.12 48.2 232.82 47.4 229.32 41.94 220.04 39.22 217.58 38.7 215.13 41.01 211.77 46.47 213.13 47.8 217.48 50.45 222.2 62.34 235.53 65.58 237.75 71.06 239.73 77.26 241.24 81.23 244.31 85.8 245.98 92.96 254.01 100.25 257.85 106.68 261.86 112.67 264.14 120.44 264.83 124.33 261.64 119.21 252.84 118.64 249.4 122.14 245.64 123.35 238.43 124.23 227.47 123.51 223.81 118.11 220.39 103.99 214.27 100.54 212.01 98.67 209.63 97.85 205.14 103.38 199.9 110.8 196.16 120.11 195.64 126.87 197.49 133.77 203.5 140.54 207.86 148.69 215.86 151.52 217.93 157.05 223.71 162.69 228 167.76 229.06 169.5 226.6 167.19 218.85 163.99 210.4 164.17 208.39 167.52 206.08 172.87 205.71 174.07 204.45 176.22 198.22 179.67 193.95 181.31 186.62 180.42 184.7 175.63 185.14 168.05 181.13 164.86 175.69 164.64 173.14 167.96 170.13 172.42 167.53 176.43 163.98 183.76 162.56 187.39 162.44 196.22 171.16 203.29 175.91 209.13 181.49 213.62 182.53 220.85 177.17 225.63 169.78 226.65 159.14 229.47 156.62 231.84 152.17 236.97 150.58 239.58 147.63 239.64 145.08 243.18 142.43 245.43 139.37 245.19 134.05 247.17 132.54 250.02 126.26 253.1 124.43 253.5 121.01 256.26 119.45 257.61 117.02 265.36 116.39 267.42 115.58 276.67 116.06 281.52 114.16 287.31 108.34 290.11 107.53 294.17 108.67 296.63 108.34 301.97 105.08 301.46 101.95 295.86 99.71 294.05 95.15 296.07 91.48 297.7 90.53 302 90.55 305.07 87.78 305.44 85.24 315.57 77.83 319.19 74.63 324.12 74.67 329.65 68.68 329.85 65.27 326.71 61.58 326.81 60.04 331.01 56.2 333.11 53.13 339.61 49.67 343.34 49.78 346.26 47.6 348.82 47.04 352.49 48.48 356.41 44.56 360.13 38.24 360.36 35.3 367.72 28.68 371.3 28.02 371.52 23.8 374.13 18.58 373.22 13.27 375.38 10.5 378.45 3.19 455.92 1 526.77 179.84 534.53 185.21 541.49 191.08 544.95 193.03 545.81 199.04 549.69 203.53 557.02 208.36 563.14 213.28 566.98 215.48 569.09 214.39 570.63 204.95 568.78 197.81 Z"/>
</g>
</svg>