<?xml version="1.0"?>
<svg xmlns="http://www.w3.org/2000/svg" version="1.2" baseProfile="tiny" width="800" height="694" viewBox="0 0 800 694" stroke-linecap="round" stroke-linejoin="round">
<g id="4215059">
<path d="M 799 295.11 796.01 296.68 792.13 297.57 787.29 298.04 781.08 300.41 778.23 302.93 774.95 307.45 772.84 308.39 769.14 307.89 767.45 308.37 765.49 310.17 760.4 312.04 758.45 313.17 757.68 314.47 754.35 315.93 751.65 316 749.56 314.1 749.48 311.32 748.97 310.53 746.06 310.39 744.37 309.59 740.01 309.72 737.79 308.99 734.7 310.65 726.02 312.96 719.51 315.2 713.42 315.77 712.11 315.4 710.08 313.52 708.74 312.97 705.22 313.2 703.16 312.06 701.7 311.85 698.6 312.94 697.62 315.48 694.03 314.5 688.3 315.02 685.72 315.91 679.89 314.51 671.32 312.83 667.85 311.55 664.61 312.29 659.98 315.67 656.96 316.55 654.77 317.58 647.73 318.05 646.21 320.52 644.2 321.4 641.76 321.74 633.86 321.86 627.97 323.61 624.79 323.59 619 321.94 617 322.07 615.29 322.95 613.03 325.84 609.84 327.38 604.66 328.89 594.46 329.12 592.37 329.51 589.24 331.02 582.59 335.52 579.24 337.11 576.7 337.21 574.24 337.77 571.24 340.02 566.21 342.83 560.82 345.19 552.7 347.13 550.21 347.58 545.22 347.83 542.13 348.46 538.9 347.01 536.57 347.14 534.45 345.2 531.42 343.87 528.46 344.47 526.88 345.44 522.75 345.78 518.33 344.63 516.53 343.84 512.92 344.3 510.69 345.63 509.42 347 508.54 349.63 508.72 353.04 508.11 355.25 505.57 358.16 503.3 365.17 501.44 367.5 497.45 370.09 498.2 371.96 495.75 372.9 497.16 373.89 497.83 376.32 496.2 377.38 495.51 379.15 496.1 380.96 494.36 384 493.06 383.54 491.8 384.61 491.97 386.49 492.81 387 491.48 388.86 491.5 390.21 492.76 392.89 493.9 393.02 494.92 394.51 494.46 395.61 495.5 397.56 495.01 399.57 492.56 401.62 493.45 402.63 493.67 404.37 491.97 407.04 489.59 408.62 488.33 410.97 485.06 414.62 482.89 416.14 479.34 419.6 477.88 419.97 472.96 420.08 472.05 423.33 473.14 424.72 472.32 426.35 472.09 428.66 471.01 430.5 470.41 439.52 470.76 441.48 467.54 443.96 468.68 446.13 468.34 448.66 471.78 450.52 475.27 450.59 477.56 453.25 477.33 454.4 479.54 455.8 479.64 456.98 477.38 459.31 475.11 462.57 474.1 465.35 474.78 466.25 474.11 467.98 475.67 470.11 475.2 475.17 476.54 475.98 476.18 477.19 474.6 478.72 475.74 484.05 475.36 486.41 474.22 488.73 474.1 490.09 472.76 491.9 473.42 493.67 473.13 495.11 471.72 497.21 472.97 499.13 474.21 502.17 474.07 507.82 473.02 510.68 473.14 512.58 475.32 516.85 473.64 518.54 472.91 520.04 474.02 523.08 473.76 524.13 474.6 527.11 475.67 528.04 476.21 530.78 479.27 532.19 480.4 531.77 482.64 534.05 481.94 536.26 479.81 540.36 479.58 541.7 480.9 542.56 480.44 545.44 479.03 547.71 478.37 551.11 479.6 552.36 480.06 554.46 477.17 556.78 475.59 560.12 475.5 563.8 476.97 567.48 480.29 568.96 479.66 570.3 480.09 571.86 479.44 573.02 479.41 576.61 480.88 579.28 481.14 581.59 482.19 582.6 485.03 583.54 485.62 584.72 485.11 586.95 483.06 589.21 482.75 590.82 483.7 593.2 483.18 596.29 484.07 599.25 484.33 602.4 483.88 604.18 484.74 609.53 486.99 611.9 484.53 613.37 484.15 614.35 486.02 617.07 486.28 618.23 485.13 620.39 484.13 620.75 482.83 622.59 481 623.55 479.95 626.14 478.51 627.45 476.56 631.69 474.24 634.4 472.87 635.34 471.13 637.41 469.23 638.81 469.58 644.36 469.41 652.8 470.71 653.95 471.13 658.13 471.73 660.51 471.97 664.54 473.31 666.25 472.87 669.37 472 671.71 472.33 675.82 472.14 678.93 470.97 681.09 470.48 683.4 466.62 683.69 461.9 682.75 456.51 678.86 451.86 676.65 450.07 675.21 448.15 672.22 444.42 670.75 437.09 671.19 434.81 671.58 428.41 675.32 422.33 680.11 419 684.84 416.72 687.12 415.16 687.33 412.68 684.14 411.72 683.68 408.76 683.7 406.03 683.04 403.56 681.94 399.83 679.21 398.32 678.87 394.56 679.97 390.26 679.88 389.05 681.43 389.03 683.41 388.24 685.4 386.77 687.51 385.59 690.35 384.55 691.63 382.06 693 381.25 691.61 377.86 690 374.71 684.09 372.63 681.52 370.88 680.46 364.01 677.76 361.49 676.33 359.38 674.34 357.49 671.63 353.15 663.44 351.75 662.18 349.28 662.08 344.32 664.56 341.78 664.02 339.26 662.21 335.23 658.45 333.15 654.66 333.22 653.44 331.53 647.54 328.4 642.44 327.12 640.86 326.1 637.98 323.8 637.12 320.95 634.94 319.4 632.26 318.2 628.07 318.59 624.53 316.16 623.06 315.17 619.51 316.08 613.96 314.39 611.64 306.54 607.02 302.63 605.01 299.5 603.69 295.96 600.48 295.26 598.52 294.28 591.24 294.25 589.07 293.17 587.77 288.31 587.32 280.94 588.69 277.97 589.54 275.75 590.94 272.69 593.9 269.26 598.96 266.6 599.92 265.34 599.28 263.16 595.68 261.3 590.45 259.71 588.99 257.25 587.81 244.85 580.91 238.79 577.39 235.54 574.93 234.42 573.67 234.22 571.65 234.68 568.58 236.01 563.82 238.09 557.73 238.14 555.9 237.53 553.23 234.93 549.82 233.49 544.48 232.02 542.83 229 542.97 226.11 542.62 222.65 541.37 217.23 538.67 212.02 535.38 205.05 529.11 202.31 526.22 200.9 525.8 198.66 523.97 198.72 522.37 199.58 520.6 199.06 517.19 200.81 513.78 200.32 510.92 201.24 507.77 198.91 504.67 197.07 498.41 195.1 493.57 193.09 491.82 186.56 487.54 179.76 484.94 178.19 485.01 171.58 486.06 169.56 486.59 168.47 487.6 165.29 494.52 162.05 499.83 160.3 503.29 157.69 506.78 155.54 508.39 152.08 509.25 148.14 509.28 145.66 508.8 138.33 505.56 134.9 503.88 130.66 500.95 128.18 500.19 123.27 497.58 118.57 496.02 113.99 491.78 112.9 490.37 112.35 488.47 111.24 486.81 109.19 485.29 106.46 484.87 98.91 480.1 95.45 478.78 91.19 478.5 86.61 477.65 83.81 474.53 77.14 469.33 73.07 466.95 72.81 466.07 74.57 464.15 75.47 462.4 75.94 459.67 75.32 456.69 71.44 454.57 70.32 453.28 67.83 452.13 60.34 451.07 55.9 449.83 55.02 447.98 52.54 446.79 49.9 447.53 47.57 447.5 47.14 445.52 50.12 444.55 52.85 443.25 54.09 442.19 54.81 438.64 57.41 432.87 58.5 431.17 63.53 429.42 68.56 426.5 72.92 424.66 74.05 423.85 78.04 417.37 80.47 415 83.97 413.47 86.38 410.82 91.17 406.53 92.53 404.18 90.1 403.13 84.5 399.96 73.07 395.93 70.44 395.4 69.15 394.63 61.99 387.19 61.05 386 57.05 378.9 53.32 373.27 48.59 364.33 47.96 360.99 48.17 355.95 47.83 352.7 48.29 348.58 47.54 347.37 38.76 340.8 35.57 336.27 34.5 335.51 31.15 334.49 25.59 333.29 23.48 331.38 19.38 328.92 15.74 327.66 11.6 326.21 9.36 324.85 7.35 322.82 4.94 319.41 2.53 317.89 1 316.31 2.1 312.76 5.81 306.91 7.64 302.31 6.61 299.93 5.64 295.69 4.26 294.37 15.5 284.99 18.35 281.84 21.15 279.66 30.17 271.52 36.92 264.85 39.13 263.92 43.52 263.6 49.95 261.12 56.62 256.65 59.23 255.59 62.77 252.3 65.42 250.92 67.1 248.96 70.37 246.75 73.06 246.03 80.42 248.24 84.62 249.96 88.73 252.92 91.12 254.01 94.77 254.71 98.27 255.79 100.64 255.41 104.73 252.33 109.59 247.48 111.21 244.85 110.9 241.63 109.17 238.6 109.55 236.65 114.12 230.49 115.75 224.18 116.47 222.69 120.97 220.41 123.07 219.9 126.02 219.97 129.51 220.77 131.77 221.82 134.16 220.74 134.84 217.35 136.61 213.59 138.84 211.4 145.14 206.47 150.72 204.04 154.89 202.51 161.18 198.66 164.16 196.44 169.96 195.47 175.38 195.6 176.05 194.19 178.5 194.02 180.24 194.96 182.89 194.95 186.81 194.43 188.13 193.36 187.4 191.11 186.5 186.34 186.88 183.46 191.09 177.03 192.94 174.74 195.75 172.25 198.11 170.58 198.23 168.26 196.21 163.54 196.13 159.22 194.73 157.43 194.48 155.42 194.79 151.95 196.9 147.35 196.31 146.29 197.5 145.14 197.05 142.54 198.07 139.69 199.08 138.79 201.16 138.68 204.06 134.57 207.49 128.49 208.58 127.14 211.73 125.13 214.17 121.91 216.06 120.04 217.36 115.89 220.12 112.74 222.78 112.05 227.64 107.37 229.72 101.84 229.31 100.21 227.19 99.92 228.52 97.94 229.14 94.79 232.32 92.88 235.13 92.39 234.88 90.71 237.1 86.17 239.37 82.82 241.05 77.18 240.78 74.95 241.67 73.66 244.05 73.03 246.32 71.34 248.58 68.31 251.32 63.04 252.52 61.58 252.88 60.06 250.89 60.3 249.88 59.15 250.16 56.12 251.41 52.71 252.64 51.34 252.96 49.23 256.04 47.49 256.5 46.38 259.94 43.28 259.93 42.13 261.98 41.6 263.64 40.17 264.55 38.67 264.61 34.98 266.66 32.58 270.83 30.82 272.44 28.43 273.61 23.9 275.05 21.94 274.54 18.51 276.76 15.03 276.45 10.93 277.73 11.07 277.54 9.23 278.38 6.64 277.3 5.61 279.03 4.56 278.83 3.34 280.48 1 282.14 2.29 283.77 7.48 282.97 11.87 281.66 15.39 281.48 18.09 282.86 21.48 282.26 23.49 282.24 26.23 283.29 28.6 285.49 32.2 286.19 34.84 286.01 39.69 285.38 43.09 282.28 46.17 280.25 48.69 279.77 50.09 280.42 53.78 279.81 55.47 276.37 56.82 273.37 58.48 269.07 63.65 265.32 70.57 261.28 82.42 262.57 83.86 267.81 83.42 269.94 82.97 271.47 83.36 272.98 85.8 275.15 86.84 280.32 86.05 281.82 85.33 285.73 82.33 287.4 82.25 295.25 85.26 300.27 86.12 302.81 85.56 303.96 83.9 309.8 79.95 310.82 77.18 308.3 71.78 307.32 67.77 312.59 62.17 315.57 60.74 322.57 55.67 323.89 51.78 328.19 44.55 330.09 42.22 336.05 38.29 338.86 35.96 343.23 35.24 345.88 35.67 348.57 39.04 352.63 47.98 353.17 50.18 354.26 52.35 357.03 55.57 362.02 59.44 367.07 65.81 370.25 68.84 379.31 71.9 383.55 72.69 385.31 72.57 390.22 69.56 391.28 69.22 396.84 65.93 412.01 59.01 416.39 57.3 418.64 56.84 419.37 58.1 417.03 62.27 414.1 66.5 415.47 69.48 415.8 71.12 414.16 72.2 411.73 72.96 410 74.1 407.85 77.44 407.59 78.84 407.93 82.52 408.01 89.59 407.73 93.89 407.22 97.57 405.67 101.51 403.66 103.34 397.32 104.76 388.92 107.39 386.92 106.92 386.61 102.88 384.28 96.62 382.11 93.48 377.73 88.51 370.35 81.76 367.31 79.55 356.76 74.45 355.08 73.12 352.02 72.73 349.09 73.49 345.77 75.77 342.96 78.99 338.93 84.16 335.87 88.69 335.3 89.95 334.23 95.86 333.22 99.84 332.85 105.22 333.74 108.43 334.8 110.03 336.84 110.61 339.08 110.09 349.93 104.37 352.41 104.13 355.79 104.96 356.44 107.48 356.42 112.69 356.01 114.79 355.11 116.42 354.19 120.16 354.83 121.01 357.62 122.41 358.48 123.64 359.14 126.43 358.69 129.36 357.85 131.7 356.22 134.6 354.42 140.27 352.61 144.63 352.64 146.53 353.27 148.71 354.75 151.67 356.91 153.85 360.21 155.83 363.52 156 367.08 153.76 371.28 149.11 372.53 147.2 375.31 144.45 382.61 138.99 390.21 135.38 394.98 133.62 397.62 133.74 398.61 135.4 397.63 141.56 395.33 147.26 396.25 149.7 397.89 149.86 403.07 148.4 411.3 147.61 414.11 146.66 415.47 143.73 415.35 141.23 413.59 137.16 412.46 135.78 412.29 133.96 414.55 131.37 417.45 130.83 421.61 131.79 424.52 131.18 426.84 128.81 426.85 126.82 429.78 125.33 429.77 122.67 432.08 121.71 434.88 119.63 436.49 119.59 436.9 117.9 441.16 116.74 444.13 115.31 446.17 115.33 447.64 114.19 449.01 114.15 452.05 113.1 454.13 111 456.57 110.32 461.56 106.7 465.02 106.68 470.75 105.45 473.87 107.14 474.48 108.19 478.14 109.55 481.96 114.18 486.93 114.43 490.02 113.18 491.6 113.68 494.41 112.5 495.81 112.49 496.67 113.62 501.44 114.48 505.08 116.14 508.55 115.88 510.78 113.57 513.43 111.96 518.78 110.45 524.56 108.3 527.1 107.14 529.08 105.74 530.14 103.97 532.54 102.81 536.4 100.35 540.29 96.67 541.31 93.76 544.32 92.7 547.23 93 549.49 91.99 554.55 91.12 558.6 90.91 560.1 91.59 561 93.96 560.28 99.17 560.52 103.01 561.58 105.11 563.89 105.42 570.5 105.23 572.18 105.44 577.91 108.68 582.36 112.73 584.53 115.35 587.48 119.97 589.97 123.26 592.01 125.42 594.15 126.91 603.94 134.54 606.29 136.03 613.56 139.83 617.79 139.69 619.1 140.88 619.05 142.31 619.86 143.6 622.27 145.98 626.6 149.09 628.51 151.68 630.1 153.15 630.36 155.6 631.3 156.8 635.17 159.28 637.33 160.28 639.35 160.35 641.46 161.9 644.1 163.11 647.19 166.93 649.45 168.34 651.02 171.3 652.54 173.02 654.67 174.48 657.31 179.37 658.23 182.2 659.42 184.07 661.49 185.85 661.16 189.77 662.51 193.11 663.01 195.92 662.77 201.46 663.07 205.34 664.08 206.21 668.9 208.2 675.51 210.16 678.92 212.4 680.15 214.12 681 216.3 679.98 223.11 680.09 226.23 680.7 227.59 685.36 231.83 687.55 232.84 691.46 234.05 695.79 235.88 701.43 236.15 705.63 237.53 707.98 238.87 718.7 244.14 720.13 245.87 721.6 246.42 724.03 246.04 726.99 246.83 729.59 248.42 731.47 250.38 732.99 252.57 739.12 258.02 742.43 259.97 748.03 265.48 752.77 269.43 755.6 270.86 762.79 274.03 769.04 276.25 777.43 277.51 781.13 276.31 784.89 273.06 790.02 272.42 793.93 273.68 796.39 275.05 796.71 276.99 794.77 279.5 794.24 281.11 794.96 283.51 794.84 286.53 795.94 289.43 799 293.67 799 295.11 Z"/>
</g>
</svg>