<?xml version="1.0"?>
<svg xmlns="http://www.w3.org/2000/svg" version="1.2" baseProfile="tiny" width="800" height="907" viewBox="0 0 800 907" stroke-linecap="round" stroke-linejoin="round">
<g id="4215505">
<path d="M 496.79 156.47 497.85 156.08 498.45 155.19 499.46 152.51 500.56 149.07 501.74 147.4 503.04 146.61 505.64 145.9 506.89 146.1 507.3 146.8 507.13 147.84 505.84 150.39 505.67 151.24 506 158.43 506.87 160.02 510.61 162.78 513.76 164.5 517.13 165.86 518.63 166.11 521.6 164.55 522.87 164.54 528.55 166.37 531.92 167.71 533.8 168.88 542.26 173.16 546.81 174.49 548.29 174.6 551.75 173.81 552.63 173.18 553.93 171.63 555.63 170.57 557.31 170.23 558.9 170.6 561.6 173.32 562.67 173.33 563.47 172.72 566.31 172.17 568.28 170.41 570.02 169.26 573.45 167.55 575.11 167.41 575.79 170.57 577.05 171.24 578.36 171.25 580.52 171.91 582.74 173.11 584.43 173.63 586.38 173.49 597.46 171.52 607.69 170.06 609.11 170.03 609.84 171.09 609.69 172.41 610.21 173.26 613.08 175.62 615.48 176.92 618.78 178.02 621.16 178.22 622.12 178.57 624.72 180.14 626.19 182.05 626.84 183.32 626.75 184.16 625.98 185.31 624.97 187.96 624.4 188.86 623.02 190.03 621.61 190.48 618.58 190.32 616.89 190.62 615.15 190.03 613.7 190.24 612.57 191.69 610.37 193.42 607.86 193.63 606.63 195.13 606.48 197.19 606.68 200.21 608.14 203.63 608.22 204.87 608.88 205.52 610.75 205.79 612.07 206.39 617.46 206.28 618.34 206.66 618.02 208.14 617.84 211.17 616.93 212.44 614.1 214.35 613.47 215.85 613.95 217.36 615.36 218 617.54 218.56 618.47 218.57 620.79 217.91 623.63 216.27 624.89 216.25 626.39 216.92 627.35 217.79 628.08 219.49 629.55 221.05 630.47 221.45 632.94 221.13 634.03 220.61 635.09 219 635.98 217.19 638.01 215.48 640.24 214.65 642.09 214.38 644.64 214.92 646.07 216.71 647.81 218.38 649.34 219.25 650.29 219.37 652.87 219.17 655.52 219.57 659.38 218.52 661.02 217.65 662.57 217.44 664.43 218.13 666.05 219.05 666.85 219.84 668.23 222.11 670.22 223.06 671.63 224.21 671.47 225.55 671.84 227.2 673.91 230.74 674.99 231.23 676.84 231.38 677.7 231.8 678.78 233.04 680.26 234.08 681.39 235.29 682.66 237.27 683 239.21 682.1 240.26 678.46 242.15 674.63 244.94 673.35 246.04 672.12 246.01 670.97 246.52 669.7 247.52 668.74 247.5 666.69 246.73 664.96 246.65 662.33 246.99 660.16 247.45 656.67 248.75 653.32 248.78 648.29 247 647.25 246.4 645.75 245.04 644.67 245.24 643.54 245.9 641.78 247.6 641.36 248.72 640.95 251.52 640.97 252.55 641.55 255.05 642.59 257.88 644.24 260.93 644.5 262.69 644.48 264.39 643.71 265.54 642 267.06 641.48 268.23 641.21 271.31 642.17 273.76 643.64 275.75 645.49 277.28 646.25 279.71 646.18 282.58 645.92 283.07 644.4 283.81 643.6 284.57 642.46 287.25 641.55 291.42 640.68 292.34 638.85 293.26 635.5 294.68 634.7 295.84 635.06 297.48 636.53 300.49 635.83 303.18 633.22 307.73 632.57 309.06 631.86 311.57 631.35 315.4 630.94 317.13 630.85 320.53 630.47 322.81 630.67 325.04 630.48 326.58 629.27 328.41 629.17 330.08 630.53 331.38 632.39 332.05 632.7 334.25 631.8 336.69 631.44 339.22 631.58 341.08 632.01 342.43 633.32 343.65 640.47 347.97 642.06 348.51 646.28 349.36 654.59 350.93 657.21 351.91 657.93 352.4 658.53 354.68 657.95 355.87 656.16 357.93 654.92 360.37 654.95 361.1 656.92 362.69 657.61 363.59 658.47 363.51 661.38 361.57 665.76 359.65 667.79 358.33 668.74 357.47 672.65 357.98 675.36 359 677.48 359.26 681.3 359.35 682.96 359.6 686.35 360.92 687.01 361.02 695.81 360.76 698.55 361.43 700.09 362.46 701.66 363.86 703.82 364.68 706.81 365.55 708.65 366.71 709.57 366.97 711.16 368.28 712.89 368.21 714.27 367.43 716.03 366.01 718.78 366.06 721.83 365.7 723.84 365.15 728.64 363.2 730.65 361.92 731.87 359.61 732.62 358.94 735.23 357.93 737.97 357.59 743.69 358.01 745.74 358.92 748.98 359.75 750.5 360.69 751.14 362.11 751.09 364.18 750.42 365 748.41 366.59 748.6 368.72 749.49 370.87 753.12 375.11 754.91 377.45 755.63 379.65 756.78 380.05 759 379.74 760.52 380.25 762.75 380.22 764.43 381.3 764.99 384.5 766.72 387.12 768.43 387.96 770.96 388.56 771.45 390.03 770.39 392.73 770.26 394.2 771.38 394.46 773.35 394.38 776.92 395.02 778.79 394.63 781.41 392.92 783.1 392.16 784.67 392.1 787.89 393.24 788.62 393.73 790.19 396.43 792.66 400.21 795.05 402.27 797.6 402.58 798.83 403.8 799 404.93 798.96 407.92 798.47 411.3 796.68 412.52 794.86 412.71 793.57 412.52 792.63 411.82 789.83 411.36 788.63 411.75 786.26 414.29 785.83 416.17 785.96 416.74 785.46 420.16 784.41 421.48 781.05 423.49 778.79 424.55 777.11 425.59 775.47 426.01 773.3 423.31 773.07 422.31 769.61 420.03 767.82 420.2 766.47 422 765.59 422.48 764.81 422.3 762.7 420.97 760.29 421.49 758.85 424.44 758.05 425.3 757.6 426.74 755.65 429.9 754.26 431.41 751.15 433.45 750.12 434.73 748.53 436.18 746.8 439.48 747.12 440.63 748.94 442.53 751.84 444.24 752.32 445.84 753.87 445.82 755 446.31 756.58 447.67 758.32 447.92 759.64 447.41 761.45 447.09 763.34 445.04 765.44 444.17 766.04 442.89 767.14 442.34 770.41 441.79 773.25 442.32 774.93 442.13 776.34 442.39 783.19 445.65 784.49 445.72 785.7 446.16 785.56 447.5 786.15 448.7 786.12 451.74 785.66 453.05 784.67 457.32 783.08 460.41 783.73 461.45 786.92 463.5 786.79 465.81 784 468.47 782.45 469.36 780.45 469.41 778.72 470.88 777.82 473.27 777.66 474.23 778.66 476 778.64 477.06 777.52 480.85 776.91 481.92 775.93 482.07 775.31 483.6 774.02 485.5 772.67 485.83 770.71 486.83 768.54 486.53 766.23 486.93 765.72 488.21 766.74 489.72 766.57 491.88 765.54 494.39 765.71 495.6 764.15 499.38 763.61 501.64 764.24 503.55 764.28 505.33 764.72 507.03 763.62 509.11 762.59 509.96 762.1 511.05 761.1 511.94 760.11 514.25 758.35 514.5 756.22 516.96 755.71 517.85 756.3 519.03 758.67 519.14 761.52 523.64 762.45 524.7 762.89 526.1 762.81 527.34 762.24 528.1 762.77 529.22 763.04 533.4 763.34 535.53 764.08 537.16 765.85 539.14 766.01 539.87 765.47 541.42 764.63 542.48 763.02 542.55 761.53 542 760.49 542.99 759.3 544.62 758.63 547 755.95 548.53 754.9 550.18 752.97 551.74 752.12 554.32 750.97 556.66 748.83 558 745.32 559.09 745.15 560.1 749 562.76 749.74 563.73 749.99 565.14 748.36 566.96 746.79 569.06 747.19 570.38 748.49 571.41 748.38 571.95 746.99 572.9 746.98 573.57 747.67 575.89 747.68 577.52 747.18 578.57 746.64 580.78 745.75 581.98 735.01 587.26 733.83 588.23 734.13 590.96 736.15 591.93 736.84 592.73 737.82 594.85 737.68 597.35 738.12 598.07 737.6 600.84 736.97 602.61 736.34 603.47 734.28 605.14 731.93 607.51 731.13 608.78 731.17 609.64 732.54 610.51 732.57 611.37 730.83 612.02 729.69 612.84 729.05 615.32 727.58 615.33 726.1 616.22 724.53 617.95 723.16 618.98 721.32 619.87 720.45 621.21 720.28 622.21 720.87 624.59 722.46 625.75 723.46 627.42 722.25 629.95 722.5 631.13 723.83 632.24 723.95 632.71 722.59 636.99 722.66 638.85 722.45 640.28 723.06 641.95 725.91 643.62 726.87 644.85 729.45 646.06 729.38 647.58 727.41 648.06 726.27 648.62 725.97 649.34 727.7 650.27 727.62 651.13 725.53 653.1 723.83 656.44 721.75 658.61 720.09 659.28 717.46 658.99 714.4 658.14 713.48 657.24 711.1 657.41 709.52 656.87 707.51 654.82 706.78 655.06 704.11 657.96 701.68 658.17 699.51 659.04 697.32 659.52 695.14 658.94 694.05 659.51 692.25 661.65 690.95 664.17 690.27 666.01 688.73 668.08 688.83 668.95 689.61 669.76 690.92 670.39 691.95 672.25 690.73 673.46 690.73 674.12 691.79 677.04 694.02 680.07 694.56 682.04 694.63 684.45 693.42 686.65 693.47 687.91 694.08 688.82 695.77 689.85 697.17 691.07 697.1 692.21 695.59 692.81 692.74 691.25 689.88 690.55 688.31 689.19 687.97 688.31 686.9 687.33 684.3 687.29 679.4 687.65 678.59 688.47 678.74 689.38 680.28 692.21 681.54 693.83 682.23 695.47 681.32 696.15 680.38 696.1 679.09 696.68 678.49 697.94 676.61 699.18 675.17 700.49 674.28 702.3 674.39 703.8 674.97 705.76 676.73 706.86 678.26 708.14 677.66 709.93 676.9 710.82 675.03 715.5 675.85 716.47 679.05 716.54 680.27 716.92 681.16 717.88 681.45 718.87 681.11 721.99 680.26 725.7 678.63 727.63 678.57 728.42 679.25 729.18 682.02 729.52 684.86 730.46 685.21 732.8 684.84 735.09 685 737.32 684.53 738.37 682.59 738.3 680.36 741.08 680.02 742.55 677.92 743.96 678.24 745.15 677.19 746.3 676.27 746.77 676.84 747.74 676.6 748.38 674.04 750.47 670.61 752.29 669.53 754.21 668.23 754.78 667.39 757.2 667.79 758.9 667.68 761.06 669.84 762.4 670.76 763.97 671.78 763.58 672.43 764.82 674.46 766.55 675.84 767.49 677 767.88 678.17 768.99 677.5 770.18 678.26 770.97 677.82 771.94 678.34 773.12 678.78 775.02 679.77 776.05 679.33 776.6 677.77 776.35 676.26 778.78 674.8 778.65 672.96 776.38 671.84 776.63 671.91 777.33 670.99 779.41 669.78 780.79 669.9 782.17 668.82 784.58 668.39 786.44 666.56 786.59 664.82 785.65 663.9 784.2 662.07 784.11 662.5 782.88 662.13 781.42 660.99 780.64 660.04 780.67 659.46 781.28 658.46 783.11 656.89 783.46 655.08 783.46 654.1 782.42 653.18 784.31 653.58 785.77 651.74 785.65 651 788.7 650.05 789.46 650.07 790.27 651.17 791.19 652.52 790.43 656.1 790.81 656.35 792.19 658.01 792.17 659.59 793.55 661.07 793.12 663.49 795.43 665.49 796.09 667.06 797.11 667.9 796.95 668.4 798 669.35 797.44 671.12 798.38 672.32 797.6 675.77 798.31 677.07 798.89 678.09 799.75 679.14 798.5 681.28 798.44 684.09 799.48 685.22 800.2 685.79 801.57 689.15 801.74 690.01 802.22 690.23 803.15 689.31 804.34 685.68 806.79 684.91 807.55 684.24 809.92 684.27 812.74 684.71 813.63 684.76 815.38 684.1 816.52 682.36 817.01 681.61 815.83 682.2 814.47 680.43 814.47 679.08 813.31 678.91 814.61 677.09 814.92 676.03 814.78 675.77 815.8 674.22 815.52 670.2 815.39 669.05 814.87 668.41 815.08 665.98 814.12 663.89 813.96 662.49 812.94 663.31 812.5 663.22 811.63 662.18 811.22 661.12 811.42 660.98 813.73 659.37 813.49 659.45 814.98 657.53 816.4 655.64 816.69 652.89 816.07 652.03 816.44 651.95 817.23 650.19 819.61 647.68 821.6 646.23 822.21 642.39 824.29 640.83 825.62 640.1 828.12 638.88 829.77 637.83 830.65 635.93 834.18 635.12 834.67 633.89 834.73 632.38 834.31 631.62 836.2 629.77 837.26 629.12 838.14 628.86 839.23 629.45 843.87 629.36 844.79 628.08 846.26 624.71 846.52 623.67 846.36 618.74 849.04 618.23 849.91 618.11 851.56 565 873.41 563.47 873.55 563.55 874.44 561.99 875.07 561.51 876.06 560.4 876.32 560.17 877.29 559.17 877.42 558.81 878.16 560.35 878.54 561.03 879.43 559.13 880.38 558.75 881.76 557.14 882.42 558.32 883.25 560.36 883.67 559.27 886.38 558.06 886.27 558.36 887.46 556.56 889.2 557.45 892.32 557.75 892.65 560.3 893.88 560.73 894.39 560.05 897.43 558.86 898.25 553.77 897.71 552.43 897.38 551.63 896.54 551.87 895.06 550.95 895.09 549.25 897.45 548 898.29 546.49 898.39 544.05 898.05 542.88 897.51 542.99 896.62 542.59 895.27 538.98 892.46 537.47 891.75 530.83 890.11 526.65 889.19 525.13 888.99 521.84 888.85 521.3 888.47 521.17 886.95 518.95 886.97 517.81 886.78 517.25 885.58 517.18 884.44 515.95 884.71 514.87 884.24 514.12 884.38 513.23 883.28 511.99 883.74 511.46 883.04 510.47 883.32 511.18 884.48 510.75 885.71 509.28 885.19 509.06 884.28 506.99 884.91 505.86 885.51 505.1 883.89 501.86 882.65 499.92 880.99 497.6 880.47 496.63 880.77 497.67 882.56 497.37 883.49 495.9 885 495.35 885.21 494.17 884.03 493.23 883.94 491.18 885.28 488.93 884.35 487.82 884.24 485.75 884.51 484.08 884.03 483.12 883.15 481.87 882.9 480.32 882.15 478.28 881.7 477.7 881.21 475.04 880.64 473.38 879.98 473.1 879.35 473.28 877.05 474.28 875.77 474.88 874.34 474.56 870.94 474.87 867.85 475.33 865.39 476.19 862.98 476.22 861.09 476.8 858.96 477.53 857.9 478.86 857.72 479.07 857.2 477.88 854.88 476.89 855.86 475.04 856.41 474.09 856.96 472.84 856.47 471.38 856.66 470.01 857.87 469.6 858.79 468.29 859.37 467.95 859.92 468.5 860.86 467.41 861.18 465.76 860.45 465.21 860.55 464.7 861.84 464.67 863.94 463.01 863.04 462.66 863.83 463.24 865.01 462.02 865.17 461.21 866.97 461.57 869.21 460.66 870.61 463.04 870.84 463.88 871.71 463.48 872.77 463.93 874.39 463.73 874.9 462.42 875.36 463.06 876.07 464.74 875.38 465.03 876.82 464.67 877.7 466 877.92 465.98 879.12 464.41 879.07 464.23 879.62 465.51 880.19 467.16 880.17 467.02 882.46 466.33 882.98 466.77 884.5 466.82 886.29 466.27 886.66 464.61 886.35 463.43 885.04 461.99 884.19 460.23 884.04 457.82 884.76 454.41 887.43 452.2 888.56 450.73 889.59 449.67 888.29 449.18 886.14 448.09 884.62 447.91 882.66 447.45 881.71 445.59 880.39 444.21 881.06 444 882.61 442.09 885.36 440.79 886.14 438.51 885.89 436.43 884.65 435.58 884.96 436.35 886.54 438.06 887.29 438.11 887.87 436.68 888.45 435.59 889.48 434.84 889.71 433.43 889.12 432.8 888.18 432.68 886.79 432.15 886.32 430.86 886.9 429.66 886.36 428.7 887.48 427.93 886.79 425.97 886.26 411.74 888.4 301.02 904.99 298.94 905.34 298.25 904.36 297 904.55 296.15 904.18 294.2 904.89 291.53 905.35 291.21 904.67 291.78 903.86 291.09 903.16 289.93 904.15 288.74 904.42 287.89 905.84 286.8 906 285.85 905.64 285.11 904.63 283.73 904.54 282.84 903.66 281.61 903.06 280.22 901.12 279.4 901.99 278.48 901.52 279.18 899.95 277.35 896.97 277.85 896.22 276.88 894.97 276.04 892.84 275.31 892.17 275.87 891.33 275.43 890.21 274.3 889.32 275 886.77 275.02 884.99 274.51 884.24 274.46 881.49 276.15 880.35 276.85 879.22 276.78 878.14 277.77 876.99 278.57 876.73 280.04 874.76 280.18 873.55 279.46 872.6 276.82 870.85 272.93 869.54 272.12 869.94 271.18 869.46 272.94 867.85 272.73 866.92 273.42 865.72 274.33 865.13 274.93 863.78 274.46 863.1 272.59 863.03 271.76 862.47 271.32 861.26 271.34 860.24 272.54 858.56 271.22 856.64 272.2 854.56 271.96 852.2 271.57 851.12 271.91 850.31 272.19 847.73 271.89 847.04 272.41 844.99 271.28 844.06 269.97 842.31 268.38 839.12 268.01 837.27 267.49 836.06 264.46 833.94 262.27 832.69 262.24 831.74 262.68 829.9 262.24 829.27 262.38 828.34 260.31 826.58 256.21 826.1 253.84 825.19 252.76 824.21 253.1 823.31 252.86 822.17 251.8 822.04 252.45 821.08 252.04 820.35 249.76 818.66 249.08 817.21 249.11 816.42 248.32 814.85 247.39 813.86 246.16 813.49 245.13 813.59 245.1 814.85 223.08 838.33 220.28 837.8 219.37 836.74 218.74 837.16 217.91 836.59 218.31 834.95 218.01 833.25 217.2 831.93 218.36 829.6 219.87 828.02 221.9 827.03 222.09 824.73 222.96 823.35 222.65 821.74 224.48 819.9 224.28 818.55 222.39 816.73 220.72 815.51 220.33 814.54 218.92 814.15 218.55 813.22 215.41 812.14 214.67 812.5 212.48 812.72 211.81 812.45 211.7 811.1 210.86 809.6 211.16 807.51 211.66 807.21 211.72 804.76 212.26 804.15 212.46 802.8 212.19 800.04 213.64 798.94 213.64 797.08 212.54 795.61 211.62 795.15 210.82 794.1 210.79 792.3 211.37 791.49 211.23 789.38 209.48 787.33 210.04 786.15 207.95 785.84 206.52 781.97 205.54 780.97 203.81 782.36 199.74 783.48 198.99 781.9 196.18 781.18 194.27 778.18 191.95 777.83 190.74 777.02 189.76 776.78 189.34 775.6 188.18 774.53 185.25 774.24 185.34 772.87 184.48 772.94 182.87 774.06 183.3 774.99 182.69 775.81 181.67 775.75 181.74 774.08 180.98 773.45 179.97 774.04 179.07 773.93 178.7 773.04 177.13 773.22 176.67 774.2 174.78 774.55 173.43 773.83 172.09 774.2 171.36 776.23 172.03 776.48 172.09 777.52 170.01 778.37 168.8 778.31 166.86 778.63 165.05 778.4 163.38 778.68 161.32 779.57 160.29 778.54 157.43 778.57 157.53 780.27 156.94 780.84 158.6 782.34 156.62 783.14 155.88 782.73 154.5 782.72 153.31 783.06 152.77 781.75 152.74 780.15 151.93 779.39 151.85 778.29 150.25 778.47 150.34 777.3 148.6 777.13 148.16 775.88 146.52 774.77 147.35 773.47 147.21 772.46 144.79 771.75 143.72 770.59 143.44 769.44 142.36 769.25 140.62 770.13 139.69 771.67 138.56 771.36 138.88 770.02 137.37 769.37 136.46 770.49 135.11 771.57 135.28 772.57 134.21 773.7 133.73 774.69 133.16 777.02 132.36 777.72 132.35 779.74 129.66 779.36 128.9 780.16 129.88 781.44 131.65 783.23 131.86 784.66 131.35 785.3 128.63 787.64 127.22 789.66 123.85 794.12 122.7 795.2 120.71 796.32 119.15 796.31 115.48 795.16 109.09 793.32 104.03 792.52 102.04 791.81 100.19 791.54 99.22 791.69 97.16 792.48 94.11 793.89 91.6 795.41 90.93 795.6 88.64 795.02 87.7 794.17 86.95 792.46 85.77 790.45 85.42 789.1 85.69 786.25 85.52 784.02 84.51 782.68 84.47 781.84 86.26 780.18 90.93 777.25 93.52 776.32 94.77 775.68 94.95 774.72 93.63 772.94 92.44 772.44 88.9 772.32 85.35 771.79 84.31 771.98 83.33 774.11 82.52 775.13 82.07 776.47 81.43 779.43 81 780.01 79.68 780.67 78.27 780.8 76.8 780.4 75.53 780.39 70.77 779.94 66.78 780.17 64.7 780.83 62.55 782.06 58.47 783.43 54.14 787.75 51.72 789.2 50.02 789.91 49.15 791.79 47.01 793.51 46.97 794.34 48.42 796.47 48.95 799.11 49.79 800.38 52.71 801.4 56.8 805.91 59.56 808.72 59.68 809.47 59.03 810.24 57.77 810.81 55.6 811.39 53.62 812.62 50.69 813.9 48.81 813.75 44.95 813.76 42.6 813.52 41.37 813.03 40.45 811.8 38.91 810.41 37.98 810.2 36.02 810.36 34.08 811.02 32.65 811.82 32.17 813.48 30.82 814.69 30.82 815.92 32.42 817.42 34.33 818.75 37.15 819.82 38.71 820.73 40.49 822.35 40.73 823.21 40.17 825.94 39.48 827.41 35.25 831.7 34.95 832.91 33.6 834.54 31.94 835.51 30.45 837.11 28.11 838.66 26.07 836.8 23.31 834.83 21.77 833.15 20.82 831.55 18.35 830.01 15.26 826.98 12.72 825.81 11.14 824.88 7.39 824.1 6.47 823.44 5.55 821.87 4.16 818.69 2.32 816.27 2.06 815.5 2.96 813.95 5.12 811.84 5.83 810.59 5.48 809.06 4.47 808.29 2.16 807.17 1 805.96 1.52 804.73 3.62 804.72 5.12 804.02 6.58 804.05 8.5 806.4 9.52 807.04 9.21 809.42 10.58 809.47 13.08 808.6 14.12 807.92 17.15 806.58 20.03 804.54 22.78 802.16 25.07 799.68 28.22 798.48 28.97 797.54 29.01 796.62 27.3 795.09 25.3 794.62 23.42 793.72 18.87 788.39 16.93 785.41 17.91 783.34 18.87 780.56 19.69 777.57 20.6 776.28 21.77 775.85 22.59 779.45 23.54 779.57 24.66 779.06 27.02 778.7 27.99 777.86 29.93 776.74 32.66 772.3 33.74 771.25 36.04 769.47 35.92 768.72 32.39 768.28 31.28 767.42 31.09 766.73 32.06 765.36 34.77 763.86 35.51 762.84 35.69 761.91 35.41 760.31 36.22 758.8 36.66 756.75 38.47 756.05 41.03 754.07 42.28 752.67 42.48 751.45 42.06 750.39 40.21 748.96 39.18 747.31 38.56 745.13 37.18 742.49 36.62 740.56 35.96 737 35.17 735.87 34.49 735.69 33.43 734.6 32.25 732.96 31.23 731.95 30.46 730.02 30.54 729.44 31.57 727.94 31.73 726.79 31.08 725.1 32.1 724.8 35.99 725.21 37.68 725.76 38.56 726.74 41.3 726.76 42.29 726.32 44.03 724.56 45.8 724.23 46.87 725.16 47.76 727.05 48.85 727.17 53.25 725.4 54.53 726.09 55.24 728.16 56.99 730.28 58.3 731.16 59.21 732.72 60.35 732.72 60.45 731.79 61.37 731.51 61.82 730.74 62.85 730.12 63.37 729.2 65.83 728.57 68.22 728.48 70.09 726.54 71.71 724.01 72.67 723.24 73.35 721.11 73.26 718.92 74.2 718.44 74.1 716.64 74.95 715.9 77.69 712.59 79.2 711.84 81.66 711.58 82.35 710.7 81.13 706.94 80.95 705.09 80.59 704.08 80.25 701.4 80.25 698.08 78.74 697.21 78.21 694.65 78.28 691.79 79.24 690.5 82.56 688.17 84.01 687.84 87.31 686.73 88.51 685.92 90.3 683.67 91.69 682.33 92.87 681.97 94.68 681.84 96.08 681.2 101.02 677.86 103.07 675.53 103.24 674.23 102.49 673.65 100.33 672.94 99.72 672.18 99.86 671.3 101.02 670.38 101.92 669.12 102.1 666.81 101.14 665.13 100.33 664.27 97.1 664.03 95.47 662.08 95.27 660.87 94.61 659.36 91.38 656.95 90.27 656.38 90.01 655.6 90.92 653.72 92.6 653.2 96.56 653.32 99.27 652.93 100.62 652.34 101.86 651.23 105.79 651.35 108.06 651.93 109.62 652.03 110.79 651.67 112.56 650.52 115.33 650.32 116.29 650.92 117.37 653.09 118.77 654.51 120.45 655.35 121.09 656.66 122.93 657.62 124.6 657.57 124.81 656.09 125.99 655.76 127.05 655.98 127.58 656.83 127.05 658.21 128.33 658 128.8 657.32 130.24 652.44 130.83 651.67 132.99 646.71 133.62 646.07 135.68 645.06 136.27 644.33 136.56 642.8 136.33 641.16 135.63 640.06 135.72 637.53 134.57 635.45 132.96 634.58 132.48 633.44 131.73 633.02 129.37 632.54 127.53 631.78 127.35 631.29 127.92 628.81 128.26 628.41 131.16 627 134.41 625.87 134.93 624.87 133.64 622.49 132.18 621.31 131.26 621.26 129.2 622.04 125.81 624.3 122.73 625.13 120.88 625.86 119.52 625.98 118.15 624.92 116.69 624.43 115.35 624.89 113.72 625.89 112.43 625.43 111.66 622.95 111.8 621.35 111.36 619.73 113.16 618.39 114 618.22 116.02 618.59 117.61 618.64 120.49 617.82 121.43 616.53 121.34 614.42 121.09 613.66 119.61 613.82 118.13 615.4 117.44 615.72 114.88 615.41 113.31 614 112.96 612.82 113.79 611.31 113.1 610.19 109.14 608.05 108.71 607.13 108.59 604.78 108.74 603.41 108.16 602.32 107.96 600.85 106.57 600.03 105.84 599.24 105.43 597.96 105.5 596.7 105.98 596.11 108.97 594.91 109.73 594.45 109.44 593.34 108.12 591.41 106.83 588.68 106.16 587.89 103.19 586.52 102.12 584.57 102.23 584.1 104.41 584 103.75 582.99 103.78 582.21 105.58 582.15 106.77 582.79 107.26 585.17 108.28 584.89 109.03 582.9 109.63 582.16 110.69 581.72 112.94 581.6 113.61 582.61 114.47 582.7 115.65 581.5 117.06 577.72 117.94 577.43 119.95 577.53 121.68 576.78 123.21 576.64 124.08 575.18 123.64 572.48 123.75 571.12 123.42 569.59 122.62 569.43 121.89 570.1 119.77 568.49 118.59 568.14 117.56 567.24 118.09 566.3 117.99 564.85 118.5 562.37 119.52 559.78 119.6 558.17 120.31 557.3 121.77 556.33 122.89 556.21 124.64 555.38 125.74 553.32 127.1 551.51 130.02 549.35 130.07 548.22 130.93 547.1 132.39 547.04 133 547.35 133.65 549.19 135.39 549.75 137.42 549.66 138.8 549.38 139.61 549.93 140.46 551.66 141.46 551.56 144.94 548.86 147.46 547.64 148.68 547.28 149.67 544.58 150.06 541.36 150.57 540.62 151.88 539.68 152.78 538.42 155.38 536.61 155.88 535.31 155.57 534.48 155.1 531.65 154.19 530.08 153.71 528.49 154.19 526.8 156.16 524.5 156.69 523.2 156.76 521.48 156.26 521.07 154.54 520.85 152.39 521.3 150.54 521.25 148.99 520.58 148.7 518.54 149.05 516.6 149.79 516.09 151.77 516.15 152.51 514.74 152.54 513.65 151.13 513.06 148.31 513.1 147.08 511.91 146.92 511.32 147.56 510.19 146.8 509.3 145.39 509.43 142.3 508.58 139.17 506.8 138.37 505.93 138.71 502.88 139.4 501.92 139.37 499.51 139.15 498.46 139.78 498.02 140.79 498.29 143.19 498.24 144.38 497.98 144.43 495.94 145.03 494.92 145.25 493.37 145.71 492.49 147.83 493.26 149.31 492 148.59 490.65 148.46 489.71 150.42 488.21 150.36 486.46 149.98 484.9 151.7 482.82 154.32 481.68 155.07 478.09 155.93 477.13 157.97 476.6 159.12 476.72 159.18 475.21 158.08 473.65 156.95 472.73 155.27 472.36 154.67 469.63 156.01 468.23 156.31 467.33 157.22 466.18 158.16 466.02 159.45 467.04 161.32 467.12 162.08 467.58 163.18 469.57 164.58 470.38 167.52 470.76 168.99 471.13 170.05 470.72 170.24 469.98 169.15 468.43 168.89 467.45 169.2 466.46 168.94 465.53 169.12 463.99 167.41 461.21 167.27 460.2 168.46 458.96 168.96 457.89 170.28 457.25 169.19 455.65 166.67 454.64 166.27 453.3 167.61 452.95 167.97 452.02 167.52 451.02 165.91 450.25 165.75 447.24 164.91 444.9 165.57 443.55 165.61 441.95 164.19 439.4 161.92 439.01 161.44 437.93 162.39 436.88 163.5 436.17 163.17 435.55 160.66 434.86 160.39 434.08 160.73 433.1 161.86 431.83 164.15 430.43 165.24 430.22 168.34 429.18 169.85 429.02 173.16 427.97 178.01 429.09 178.29 430.9 179.17 431.62 181.16 431.26 182.58 429.14 183.49 428.44 185.15 427.8 187.38 426.38 187.7 425.62 187.31 424.1 185.73 423.71 185.13 422.43 183.95 420.89 184.22 419.63 183.36 418.06 181.2 416.38 178.22 418.21 175.46 419.45 172.63 420.97 171.23 421.04 169.1 420.2 169.09 417.24 168.52 416.53 166.76 415.99 164.95 415.93 162.88 416.39 161.87 415.72 162.58 413.99 161.02 412.69 161.59 410.47 162.93 408.18 164.3 407.88 165.82 406.89 168.83 406.29 170.02 405.57 170.29 403.57 170.67 402.98 169.96 400.9 170.53 399.72 173.74 400.88 175.99 400.59 176.99 400.05 177.25 399.08 176.98 398.02 177.97 396.4 179.53 396.44 182.15 395.89 182.9 395.26 182.93 394.37 183.74 392.67 184.75 391.97 185.46 390.61 185.35 388.88 184.58 387.52 184.81 385.93 186.11 385.63 186.5 383.64 186.51 381.49 187.02 378.77 186.15 377.04 184.8 375.59 185.25 374.93 186.39 374.36 190.05 374.22 190.29 373.28 191.17 373.69 194.4 374.17 195.11 373.88 196.28 374.85 195.62 375.47 195.75 376.99 197.13 378.82 198.18 379.21 199.21 378.11 199.33 377 200.23 375.43 201.34 374.59 203.05 374.47 204.07 375.29 203.46 376.63 204.18 377.54 204.96 377.65 205.18 375.92 205.14 373.16 206.05 372.23 207.73 374.2 209.71 373.28 211.32 370.72 211.38 370.18 208.65 368.36 209.84 367.06 209.83 366.56 208.39 364.12 207.85 363.81 207.72 362.7 209 361.85 211.04 360.9 212.99 359.12 213.72 358.96 215.37 357.44 216.18 357.01 215.67 356.08 218.06 355.05 218.29 353.87 219.14 353.21 220.66 352.9 221.48 353.26 225.16 351.16 227.43 350.52 226.56 349.21 226.9 347.97 227.85 347.08 228.55 345.49 230.24 346.93 230.5 347.67 231.65 348.75 232.92 350.79 233.68 350.75 236.18 351.87 241.53 352.72 242.88 353.87 246.49 356.12 248.66 357.07 249.97 357.1 250.18 355.14 249.14 353.39 249.92 352.31 251.15 352.89 253.1 355.32 254.17 355.75 254.93 355.42 255.09 353.34 256.83 352.06 257.76 351.91 259.37 352.45 261.75 351.17 261.57 350.44 261.93 348 262.87 347.22 263.79 347.59 265.08 347.49 266 346.95 266.82 345.74 267.09 344.57 266.49 342.48 269.39 341.73 270.01 340.8 272.62 341.41 273.52 341.27 275.54 342.78 276.09 342.89 277.75 342.08 279.23 341.85 280.4 341.33 281.04 339.94 282.74 338.17 283 337.45 284.14 337.46 284.43 335.7 285.17 335.08 289.32 334.25 290.54 334.27 291.48 332.41 292.64 332.97 294.13 332.91 295.92 333.83 296.76 333.8 297.82 334.94 299.98 334.89 302.37 336.48 303.25 338.79 305.04 340.67 306.13 340.74 307.65 339.33 309.03 339.25 309.52 338.44 311.75 337.25 313.2 336.17 316.78 336.08 317.6 335.37 320.08 335.71 321.04 336.18 324.14 335.34 324.46 334.64 327.01 332.92 328.99 330.7 331.75 328.59 333.65 326.16 335.46 324.76 358.62 324.71 358.15 323.51 357.32 323.05 353.55 323.16 352.81 322.36 350.69 321.2 350.35 320.65 347.95 320 347.4 319.36 345.77 318.33 344.67 317.9 343.2 318.26 341.33 315.97 340.4 315.74 339.3 314.4 338.13 313.67 335.74 314.35 333.93 314.41 331.78 313.67 329.84 312.39 329.32 311.75 329.03 310 327.51 309.23 327.25 308.63 326.05 308.86 324.16 308.48 322.72 307.94 321.58 307.03 319.42 307.09 318.91 306.32 317.56 305.78 317.91 304.78 317.73 303.55 317.03 302.26 316.8 301.1 317.64 299.7 317.22 297.89 314.96 294.3 316.54 292.82 316.05 291.36 314.5 290.06 313.29 287.88 314.76 286.44 313.09 283.7 310.81 281.85 310.35 281.17 308.31 280.5 307.62 279.68 307.43 278.54 306.75 276.93 305.31 276.86 304.94 274.26 301.83 272.19 301.06 270.99 299.23 270.39 298 269.09 297.59 267.83 296.05 267.03 294.31 265.35 294.54 263.51 294.24 262.06 292.83 261.22 290.56 262.52 289.01 260.99 287.58 261.1 286.59 260.8 286.3 259.81 285 258.48 283.27 258.28 281.54 258.69 280.82 256.79 278.6 254.53 278.46 253.11 277.71 251.44 277.58 249.89 279.04 248.73 278.43 246.67 279.14 245.53 281.38 245.6 282.66 245.28 282.86 243.82 282.64 242.74 283.44 242.23 285.31 244.75 285.31 246.01 286.91 247.02 288.12 248.67 289.66 249.61 290.21 248.67 290.5 247.1 292.45 246.24 294.57 246.67 295.11 246.04 295.11 243.69 296.75 240.41 297.31 239.79 298.86 238.91 300.95 238.34 302.27 237.45 304.4 236.89 305.64 237.39 308.76 237.23 309.88 236.95 310.58 237.81 311.89 238.3 312.89 238.27 315.26 239.09 316.17 238.94 316.41 236.51 317.09 235.76 319.05 234.79 318.36 233.04 318.51 232.2 319.26 231.73 320.9 231.81 322.89 232.45 323.66 234.02 324.4 234.31 326.35 233.91 327.21 234.02 328.52 235.62 329.5 235.23 329.71 233.86 329.26 232.16 330.13 231.58 340.73 213.96 341.47 212.08 339.31 209.68 337.57 208.73 335.52 208.81 334.56 208.41 332.97 208.76 331.56 208.04 331.35 207.26 330.16 207.21 329.43 206.55 329.05 204.98 328.53 204.44 328.82 203.14 328.73 201.92 328.24 200.63 326.95 198.65 325.59 197.55 324.52 195.86 325.61 194.43 325.39 193.16 324.3 191.71 322.74 191.4 322.77 189.73 322.35 189.18 322.64 187.72 322.1 186.04 322.49 183.62 322.22 182.16 321.17 180.28 320.1 179.03 319.05 177.31 318.63 174.53 318.26 173.94 318.08 172.39 318.29 171.48 317.18 170.78 315.45 170.21 314.03 168.79 314.51 167.48 312.55 166.43 312.14 165.13 313.08 164.62 312.51 163.95 311.41 163.52 310 162.02 309.73 159.62 309.83 157.89 309.03 157.42 308.27 156.35 306.28 155.77 305.86 155.16 306.53 152.69 305.06 151.47 304.77 150.41 303.32 147.59 302.95 146.18 303.23 142.73 303.67 140.91 303.07 140.07 303.49 138.26 302.27 137.72 301.89 135.5 300.88 134.5 300.22 133.38 299.89 131.95 300.08 130.26 299.19 130.14 298.23 129.3 319.15 91.27 317.87 91.59 316.98 92.28 314.91 92.84 313.01 93.06 310.39 92.94 309.16 92.34 306.25 91.78 304.86 89.9 305.26 88.69 305.02 87.45 304.4 86.32 304.53 85.4 303.53 83.88 303.31 81.89 303.68 80.57 302.99 76.08 303.67 75.49 303.48 73.81 304.5 72.88 304.6 71.67 304.1 71.07 304.38 70 305.06 69.22 304.78 68.41 305.27 65.15 305.6 64.31 307.72 63.21 308.94 61.58 309.57 60.34 308.94 57.54 309.74 56.31 313.5 53.27 315.26 50.29 318.2 47.21 318.44 45.72 318.99 44.96 318.64 44.19 319.01 41.76 318.78 40.45 320.97 39.35 321.64 38.49 322.94 39.33 324.1 38.77 323.77 37.45 325.75 35.3 325.79 33.8 325.25 32.34 325.75 30.75 326.91 29.95 327.59 28.44 327.36 27.2 328.26 26.33 328.33 25.43 329.51 25.13 329.82 24.41 329.64 22.38 329.83 19.25 332.45 18.39 333.59 17.15 334.32 17.16 335.54 15.19 336.36 14.65 336.61 13.64 337.59 13.38 337.4 12.58 337.99 11.98 338.61 10.22 338.39 9.49 338.98 8 340.68 6.1 341.28 4.64 342.22 3.45 343.74 1 344.64 2.96 346.53 4.43 347.11 5.42 346.68 6.84 347.91 7.71 349.49 9.39 350.56 8.93 351.66 9.4 352.67 11.64 352.45 13.52 352.64 14.26 354.6 13.9 356.33 14.26 358.34 15.2 359.93 14.13 360.6 10.22 363.17 11.17 366.2 11.11 368.45 10.6 369.8 11.28 370.99 12.42 372.03 14.88 373.37 16.09 373.53 16.82 374.61 17.25 375.92 18.2 376.16 19.31 375.18 21.59 374.9 22.86 375.25 24.1 376.25 24.36 378.19 23.71 378.99 24.19 380.81 24.68 383.8 24.72 385.05 24.99 385.79 25.66 385.89 26.58 387.43 27.18 388.76 28.16 389.02 30.03 389.59 29.89 390.29 31.25 390.3 32.56 388.65 33.04 388.14 33.95 390.1 34.15 389.25 35.13 387.82 34.65 387.39 37.18 388.29 37.79 388.66 40.14 386.78 40.3 386.58 41.19 388.22 41.19 388.33 42.14 386.88 43.17 388.23 44.9 388.41 46.3 387.38 48.84 388.28 49.32 387.23 50.24 388.58 50.69 387.34 51.85 389.22 52.18 388.55 53.18 387.58 52.96 388.2 54.82 389.13 54.38 389.23 55.64 387.29 56.58 385.67 58.24 386.05 58.93 385.72 60.04 384.79 60.44 385.08 61.73 383.74 63.22 383.66 64.15 384.4 65.96 384.04 67.48 384.28 68.58 383.72 70.24 382.59 71.52 382.6 72.35 383.58 74.53 383.55 75.7 382.3 78.23 382.09 79.1 382.3 81 383.64 83.33 385.13 86.63 385.17 88.01 384.6 88.97 382.97 90.73 381.66 92.53 382.01 94.26 381.95 95.73 382.59 96.54 382.81 98.23 383.48 98.96 383.62 99.92 384.65 100.53 384.71 101.22 386.48 102.5 387.42 102.01 388.88 102.51 389.85 102.26 390.66 101.49 392.9 100.42 394.69 101.24 394.9 101.97 396.31 101.44 396.5 102.63 397.71 102.76 397.72 103.73 400.4 104.39 401.89 105.77 403.27 105.17 404.73 105.09 405.27 106.37 406.4 107.78 407.71 108.83 407.34 109.67 407.76 110.75 408.95 111.04 408.91 111.72 409.88 112.1 409.1 113.17 410.65 114.15 411.3 114.92 413.8 115.67 416.28 118.07 416.66 118.76 417 120.85 418.48 120.95 420.7 121.61 421.11 122.15 422.71 121.98 423.19 121.49 426.17 122.1 429.01 122.32 429.46 122.63 432.71 121.91 434 121.9 434.57 121.12 437.08 119.77 440.92 121.05 442.01 121.14 443.15 121.89 444.45 122.17 444.56 122.97 448.99 124.56 449.88 125.7 451.64 125.75 452.08 126.75 454.3 126.82 457.23 127.33 458.83 127.17 459.02 128.68 458.69 129.61 457.62 131.19 458.11 132.34 460.12 133.19 461.7 133.57 465.15 133.29 465.79 133.55 468.32 136.78 470.08 137.07 471.81 137.9 472.49 137.91 475.59 139.73 477.01 141.46 478.33 145.54 478.91 146.39 480.8 148.36 484.27 150.97 488.05 153.37 490.23 153.63 490.62 154.14 492.55 154.71 493.85 155.7 496.79 156.47 Z"/>
</g>
</svg>