<?xml version="1.0"?>
<svg xmlns="http://www.w3.org/2000/svg" version="1.2" baseProfile="tiny" width="800" height="661" viewBox="0 0 800 661" stroke-linecap="round" stroke-linejoin="round">
<g id="4215802">
<path d="M 153.58 20.99 154.3 22.52 157.39 23.85 159.23 25.16 162.53 26.59 164.14 28.79 164.36 29.8 162.97 32.99 163.14 33.98 165.43 36.43 166.88 38.74 167.42 44.04 167.36 45.42 166.7 46.46 167.41 49.05 168.48 51.12 167.93 52.68 168.33 53.26 170.72 54.3 172.64 55.57 173.27 56.81 175.17 58 176.09 59.47 178.97 60.95 181.69 63.1 181.96 66.43 181.35 67.72 182.17 68.65 181.94 70.34 185.88 71.13 189.76 71.67 190.59 71.02 190.88 67.92 189.72 67.46 189.45 65.15 190.1 63.85 190.91 60.85 192.5 59.09 194.13 59.09 194.4 58.33 197.69 55.84 199.03 56.04 201.65 55.3 206.42 54.84 208.7 55.62 208.63 57.72 213.52 64.25 216.58 66.41 218.49 66.87 222.08 67.2 225.06 68.32 227.1 71.5 230.42 73.83 237.59 77.17 239.56 76.45 241.52 76.37 242.56 76.95 244.07 80.22 245.83 82.82 247.36 85.84 248.85 87.65 247.55 89.71 248.56 91.51 248.55 94.09 248.01 95.93 248.81 96.25 251.24 94.21 255.16 94.18 256 92 258.75 90.87 262.05 90.52 263.19 90.97 264.38 90.6 267.11 92 268.16 92.93 270.62 94.03 271.06 94.65 272.76 94.38 273.67 92.07 274.65 91.39 275.6 92.28 277.19 91.43 280.06 90.49 281.56 90.83 283.02 93.07 285.82 94.61 286.6 96.13 289.57 96.93 291.27 98.06 292.17 99.83 305.82 75.76 365.06 75.95 408.56 95.79 409.72 149.67 432.16 166.93 530.09 227.13 570.12 251.73 591.53 265.24 664.74 300.28 717.17 325.29 798.77 363.26 799 364.69 797.73 366.84 795.81 368.47 794.74 368.75 787.17 367.71 784.75 368.25 782.72 369.43 781.43 369.32 780.7 367.85 777.77 368.22 776.24 369.73 775.84 370.77 774.22 372.69 773.39 372.75 771.37 371.84 771.62 376.03 772.68 380.4 773.42 381.31 772.91 385.24 771.76 387.62 772.55 388.69 771.67 390.41 771.8 392.41 771.35 393.93 770.4 394.26 769.64 395.58 769.58 397.42 767.89 399.43 769.43 401.74 770.12 403.31 766.96 403.61 767.55 405.09 763.63 407.86 764.1 409.55 763.41 410.29 763.5 413.43 762.61 414.37 761.53 414.39 761.08 415.98 759.73 416.34 759.78 418.06 756.85 418.64 755.62 419.54 755.3 420.63 755.31 422.98 756.69 423.67 756.09 426.38 757.23 427.07 754.87 428.33 754.53 430.11 755.86 431.27 757.06 431.39 758.28 434.76 758.08 436.19 759.52 437.17 758.4 437.8 758.26 438.8 756.86 439.05 758.66 440.92 757.57 444.42 758.51 445.21 758.3 446.68 756.95 447.73 759.83 452.22 759.28 453.94 758 454.65 754.81 455.37 754.9 457.51 756.75 457.6 757.21 459.62 756.85 460.51 758.04 464.71 758.77 466.07 759.62 469.94 760.78 469.96 762.45 471.98 763.94 472.87 763.64 473.72 764.4 475.23 764.59 476.69 766.37 479.87 769.44 482.83 770.66 484.33 773.92 485.41 775.02 486.25 776.03 488.65 775.59 490.53 776.41 492.52 778.79 493.81 779.2 495.01 777.4 497.19 777.73 498.76 777.44 500.88 779.18 503.26 781.66 504.73 781.53 506.25 779.52 508.11 778.11 509.84 774.75 512.54 774.22 514.85 773.24 515.94 770.63 516.56 768.97 518.11 764.7 518.98 762.16 519.17 760.5 520.03 758.72 520.31 757.15 521.75 754.07 521.76 752.89 520.49 752.77 518.52 750.02 516.34 747.96 516.45 741.72 519.08 737.31 519.04 732.64 519.79 730.2 521.05 728.39 522.98 725.84 524.03 724.73 525.37 724.67 526.73 725.24 528.22 726.7 530.45 726.81 533.59 726.01 535.76 724.96 537.06 723.82 541.85 721.21 544.47 718.95 545.82 717.61 548.8 714.31 548.6 712.53 550.76 710.85 551.36 709.26 551.11 707.88 551.77 705.53 553.6 703.35 554.01 700.87 555.5 697.9 555.82 696.09 555.2 693.84 557.19 687.6 555.82 686.66 556.47 685.21 558.53 684.27 558.73 680.56 557.77 679.18 556.4 678.56 555.1 677.25 555.07 674.38 556.73 670.1 557.82 669.76 558.74 670.42 561.45 670.69 563.77 670.4 564.28 667.37 566.52 665.32 569.19 663.85 569.76 661.55 570.11 659.25 571.67 658.56 573.1 657.03 573.75 657.64 576.22 657.39 577.46 655.75 579.48 652.42 581.52 647.91 582.18 646.25 582.9 645.03 584.39 606.06 573.21 549.09 556.85 547.29 557.87 546.33 559.38 543.76 559.92 539.65 563.28 535.45 563.58 534.78 562.77 534.83 561.03 535.93 557.49 536.78 556.4 538.8 555.55 540.44 552.7 539.9 550.43 538.04 550.17 535.18 551.07 533.66 550.87 532.46 548.56 529.32 545.35 529.21 543.44 527.95 541.86 524.54 539.52 523.85 534.27 522.69 532.4 521.66 532.01 519.44 532.06 518.4 532.6 517.85 534.35 516.44 537.38 512.9 540.33 510.08 540.5 507.5 539.38 505.05 536.87 502.46 535.15 500.43 533.14 500.71 529.66 500.22 527.74 499.15 526.96 499.36 524.77 497.85 522.38 497.57 519.73 496.8 518.75 493.87 519.32 491.92 521.7 489.48 521.21 486.8 519.99 485.23 519.57 483.92 520.03 482.5 521.4 482.46 524.9 481.01 527.58 479.43 528.07 476.24 527.84 475.46 527.22 473.25 524.47 472.88 522.16 473.66 519.88 473.38 518.92 471.46 517.84 469.24 517.93 468.2 516.72 468.89 515.47 470.63 514.34 471.12 513.14 469.98 511.55 467.81 512.15 465.23 513.26 460.81 514.51 458.44 515.64 452.86 519.35 451.01 520.35 449.74 520.48 447.54 519.93 443.34 517.3 440.01 517.02 438.57 517.45 435.58 519.05 434.42 519.33 432.05 517.88 427.55 517.71 425.3 519.55 424.23 519.53 422.44 521.87 420.37 523.08 418.09 523.58 414.85 526.35 412.31 527.95 410.14 529.68 408.63 530.31 409.24 533.14 410.31 534.6 411.32 535.22 413.68 535.52 414.35 536.29 414.17 538.62 416.23 540.87 416.03 542.48 417.4 544.4 417.39 546.71 419.39 548.93 418.37 550.97 418.59 551.73 420.61 553.93 421.1 555.49 422.31 556.57 420.73 558.61 419.03 559.22 417.09 560.66 415.31 561.34 411.82 561.57 408.05 560.96 404.87 560.84 402.18 558.85 399.94 553.38 398.58 552.09 396.74 551.85 392.1 550.77 389.97 550.98 386.09 551.87 383.89 551.97 382.81 551.62 381.13 546.81 378.18 541.48 373.85 538.45 371.74 538.31 370.59 538.71 364.04 539.91 362.66 539.06 361.09 536.67 359.45 536.23 357.4 534.34 354.02 533.64 352.21 533.72 348.36 534.96 344.12 535.55 341.99 536.35 339.14 534.33 337.69 533.77 333.92 534.14 333.1 533.65 331.2 529.67 330.34 527.23 328.77 523.86 326.06 520.7 326.03 519.58 326.83 517.8 329.92 515.01 330.62 512.97 330.39 511.89 330.43 508.29 329.59 507.27 326.63 505.79 325.37 504.67 324.27 501.6 321.27 496.78 317.83 494.2 315.72 493.15 313.5 493.71 311.91 495.42 308.77 496.61 306.67 496.45 302.78 495.35 298.96 493.94 294.78 492.63 289.3 491.86 287.78 491.06 285.51 488.72 279.59 487.01 276.82 487.01 275.78 486.51 271.27 482.34 269.19 479.37 266.27 479.04 265.22 477.08 263.02 473.82 261.28 473.36 259.39 474.05 258.78 475.04 255.9 476.24 253.28 477.69 248.74 477.91 244.8 475.85 241.66 471.31 239.07 468.79 235.45 466.96 233.06 465.25 229.76 464.9 226.15 465.51 220.96 464.34 219.79 464.83 218.8 466.01 216.7 469.54 214.66 472.23 213.82 474.25 214.08 477.88 212.44 478.11 211.15 477.45 209.02 473.17 207.85 473.12 206.35 474.64 202.54 475.44 199.87 476.47 198.21 478.12 197.08 478.77 194.38 478.07 190.53 478.06 188.31 478.63 188.06 479.88 188.63 481.87 187.72 482.72 185.88 483.4 183.66 485.56 180.18 484.52 179.35 485.02 179.58 486.95 179.18 488.4 180.62 489.45 180.79 490.3 179.87 492.26 178.81 493.37 174.82 494.72 173.76 495.61 172.97 497.83 173.23 499.07 172.31 500.97 171 502 169.15 504.25 168.92 506.71 168.43 507.78 167.28 508.3 164.19 508.18 162.39 508.59 158.81 510.08 156.3 512.23 154.99 514.1 152.82 515.68 149.24 514.73 148.07 513.14 145.87 513.12 142.85 514.13 141.64 515.62 139.14 517.76 138.49 521.53 137.52 522.58 134.44 522.98 133.81 523.97 133.53 528.16 133.79 529.42 133.31 533.21 133.85 535.8 133.55 538.56 134.53 541.84 133.81 543.85 131.58 545.73 129.95 546.55 127.56 546.97 126.06 548.93 125.92 551.56 125.4 552.38 122.53 554.13 121.61 556.22 122.08 560.36 121.71 562.17 119.27 563.36 118.17 564.67 117.92 566.38 118.34 569.01 123.82 574.2 124.01 575.42 122.56 576.82 119.08 576.13 118.35 577.04 119 578.55 119.3 581.14 118.62 583.03 118.59 586.69 117.39 588.09 116.11 591.18 114.81 592.91 115.36 595.58 117.91 597.68 120.09 600.72 123.11 603.96 123.36 605.24 122.73 609.2 125.35 613.46 126.05 615.29 126.64 619.04 125.8 620.49 123.44 621.49 122.9 622.74 124.54 625.17 125.17 627.32 125.52 630.13 125.61 633.5 127.06 636.58 127.01 638.26 123.74 644.02 120.12 646.13 119.01 648.21 119.06 651.96 117.99 652.97 115.9 654.16 115.18 657.04 112.77 658.59 105.5 659.67 103.83 659.4 100.2 660 98.53 659.67 93.88 657.57 90.31 658 88.8 657.4 87.67 656.16 81.83 652.91 80.14 651.77 79.11 649.03 75.99 647.07 71.25 646.64 69.13 647.29 68.7 648.16 68.86 650.37 68.59 653.4 67.94 654.54 66.16 656 64.05 656.05 62.48 652.86 62.17 649.97 60.72 648.47 56.69 647.32 52.24 647.49 49.67 648.1 47.19 649.8 45.69 651.72 43.82 652.45 39 655.96 37.43 656.22 36.14 654.35 32.33 651.72 27.46 649.4 24.92 646.97 20.76 644.37 18.71 641.1 22.02 640.77 26.43 643.1 29.04 644.02 31.34 643.46 36.11 643.63 38.98 643.96 39.98 643.65 41.37 644.44 43.35 642.81 44.07 641.35 45.82 640.29 48.56 637.57 48.47 636.33 51.3 632.15 53.15 630.89 54.1 629.8 56.58 627.9 57.73 625.2 57.8 622.97 60.26 616.11 61.78 613.44 62.97 612.65 64.09 611.23 64.87 607.08 66.22 604.2 66.25 600.26 66.79 598.83 66.81 596.84 67.97 595.14 68.66 591.18 70.41 589.72 70.75 587.69 73.08 586.76 74.34 584.04 75.98 581.87 77.83 580.48 80.05 579.77 80.59 579.18 80.3 576.11 81.11 574.02 82.81 573.52 88.41 572.82 88.56 571.92 90.56 570.76 92.29 567.98 93.75 567.7 93.14 566.5 89.23 562.2 88.25 561.96 87.9 560.2 85.61 553.68 83.93 551.65 82.57 550.66 81.9 548.75 80.7 547.5 80.74 544.86 79.64 542.2 78.95 541.8 78.41 538.87 76.34 536.32 74.73 533.22 73.82 530.36 74.84 529.19 74.37 525 73.75 522.41 71 518.53 69.12 516.81 67.92 514.24 67.05 510.82 65.61 509.95 65.2 507.84 63.25 507.28 64.54 504.26 64.01 502.45 62.67 500.68 61.58 500.43 59.4 501.1 58.06 501.04 56.78 500.03 53.29 498.83 50.8 496.47 53.97 492.27 55.71 490.46 57.69 489.22 61.7 490.09 63.46 489.36 63.05 487.28 61.86 485.36 59.42 485.1 59.07 484.52 59.14 481.82 59.61 481.21 62.02 481.35 62.89 480.47 62.94 479.24 62.11 477.17 62.22 475.57 63.42 473.56 63.43 471.64 61.5 468.33 61.66 463.57 60.69 459.44 59.38 459.16 59.07 458.24 60.44 455.28 62.98 455.23 67.31 450.64 62.15 449.28 61.28 447.02 62.28 446.02 66.33 444.72 67.44 442.91 67.87 441.47 67.19 438.54 65.58 436.85 62.64 436.3 60.71 435.28 60.6 434.13 62.4 430.21 61.65 428.7 62.7 427.57 63.91 427.62 64.7 425.49 63.89 423.02 62.15 420.57 61.28 418.77 59.2 416.32 57.47 415.46 57.01 412.4 58.91 410.01 58.41 408 56.03 407.19 55.03 406.29 54.38 403.94 55.05 402.49 56.58 402.43 57.52 401.86 59.6 399.67 61.91 398.2 62.06 397.45 58.95 392.67 54.82 389.23 54.37 385.75 54.73 384.65 54.22 383.02 54.64 381.71 58.3 380.14 60.49 378.11 62.06 376.08 62.08 373.3 60.96 371.92 58.76 371.82 57.52 370.45 56.21 370.57 55.89 369.66 59.9 365.87 59.54 364.3 60.21 362.82 62.78 360.26 63.54 358.73 63.68 355.18 61.96 353.95 62.17 350.38 58 347.95 58.44 345.34 56.45 344.9 55.85 346.32 55.07 346.51 53.43 349.07 53.41 350.64 54.7 353.66 53.4 353.84 53.46 354.91 54.46 355.9 53.54 357.29 52.45 357.85 50.24 357.71 49.77 354.94 48.61 352.93 47.53 352.79 47.12 351.22 47.99 349.96 47.16 348.94 45.14 349.45 41.14 349.62 38.93 349.27 35.29 350.74 36.01 347.23 35.19 345.17 37.05 344.4 37.41 342.24 38.68 342.16 38.63 341.03 37.67 340.55 36.26 340.96 36.8 338.82 38.38 337.83 39.45 336.54 40.69 336.57 40.29 334.1 41.75 333.19 40.88 331.55 40.99 330.23 42.6 330.54 45.44 330.47 46.2 329.43 49.73 328.58 49.83 327.66 46.72 324.67 45.45 322.29 43.4 321.23 40.77 321.44 38.3 324.42 37.16 324.87 35.43 327.09 34.32 326.59 33.67 324.86 33.69 322.23 36.14 319.85 36.1 318.87 33.4 317.51 31.69 316.12 30.54 315.93 28.24 316.44 26.5 316.02 25.85 315.4 25.63 313.09 23.52 311.48 23.21 310.78 26.86 309.38 28.8 308.07 29.07 306.8 28.03 305.36 28.35 303.36 29.62 302.44 29.27 298.35 30.45 296.49 33.04 296.11 37.28 298.64 41.43 301.92 43.15 303 45.44 303.27 47.64 302.23 48.38 301.41 49.17 298.96 50.07 298.24 53.11 297.09 51.56 239.45 50.43 197.39 49.87 196.39 46.76 195.39 45.31 194.25 45.06 192.79 47.37 190.16 47.38 189.04 45.89 187.73 43.85 185.29 43.52 183.43 41.26 180.21 41.13 177.55 39.07 175.51 38.4 173.75 36.25 172.47 35.11 170.86 34.84 168.52 32.83 165.53 32.43 164.01 33.02 161.86 35.79 160.37 35.99 159.67 35.01 157.37 32.96 156.69 32.15 154.54 30.86 153.82 28.39 148.15 28.45 147.19 29.57 146.34 31.31 144.31 32.2 141.05 32.12 138.08 27.04 130.14 25.32 128.31 23.18 127.77 19.84 125.28 18.89 123.26 19.04 119.51 19.65 115.69 17.77 110.53 16.31 109.18 16.19 107.55 16.76 105.36 18.08 102.98 18.83 99.58 18.96 95.16 19.7 91.02 19.53 90.05 17.51 88.49 18.31 86.14 18.1 82.94 17.51 81.97 14.76 82.3 10.09 80.93 9.73 81.11 10.37 78.08 10.09 76.67 9.27 75.35 7.38 74.47 5.09 74.96 2.58 75.04 1.22 74.46 1 72.81 3.17 70.21 7.02 69.56 9.93 68.6 10.78 67.42 11.22 63.58 11.2 60.7 12.11 59.13 13.79 57.9 15.73 54.7 15.6 52.42 13.58 50.97 11.43 50.25 9.63 47.34 10.67 46.7 13.92 46.47 16.76 47.72 18.07 48.92 20.99 50.09 20.98 53.88 19.88 56.09 20.15 57.17 24.68 60.84 27.14 62.03 28.39 62.31 30.34 61.42 30.6 59.4 28.85 56.94 29.2 55.83 31.66 54.04 34.02 52.8 39.84 51.26 41.93 48.9 44.46 44.47 44.54 42.94 46.01 41.35 49.66 39.43 54.08 38.07 57.48 36.82 58.2 36.27 58.18 34.56 57.04 32.51 57.64 28.91 59.88 29.05 61.78 30.99 64.61 30.87 65.95 29.82 67.87 25.94 71.68 23.93 71.68 23.38 69.19 20.45 67.65 16.82 68.67 13.1 69.52 11.76 72.21 6.44 74.65 4.18 74.45 2.82 75.54 1.65 77.32 2.16 80.86 4.01 84.85 4.89 85.92 4.66 88.78 3.09 91.86 2.48 94.82 2.32 96.14 1 98.23 1.61 100.48 2.91 105.63 4.8 108.3 4.68 111.55 3.92 113.67 4.08 114.57 4.54 115.79 6.67 116.89 9.41 119.59 8.71 122.66 7.32 124.84 6.03 126.53 5.58 127.4 5.82 130.16 8.19 132.32 10.8 135.33 12.85 134.75 18.09 134.74 22.28 133.28 24.92 131.1 26.01 129.8 25.56 128.97 26.62 130.66 28.18 133.15 28.26 135.52 27.47 136.88 26.35 138.42 23.91 139.37 22.93 140.94 20.51 141.44 18.98 142.57 17.61 144.6 17.91 147.93 21.05 149.58 22.16 152.9 22.75 153.91 22.71 153.58 20.99 Z"/>
</g>
</svg>