<?xml version="1.0"?>
<svg xmlns="http://www.w3.org/2000/svg" version="1.2" baseProfile="tiny" width="800" height="904" viewBox="0 0 800 904" stroke-linecap="round" stroke-linejoin="round">
<g id="4215109">
<path d="M 710.11 229.21 685.15 357.05 652.96 521.93 723.88 662.75 799 811.94 795.76 817.23 792.1 821.41 788.75 823.21 775.55 824.04 764.34 825.21 754.91 827.23 742.78 830.54 713.88 840.28 707.55 840.55 702.35 839.89 687.5 835.69 676.27 836.15 667.65 835.56 659.17 833.9 652.77 831.94 647.98 828.5 635.98 818.76 628.29 814.61 623.01 813.01 614.82 812.48 607.47 815.36 601.27 817.05 597.38 820.07 595.39 822.94 596.42 832.98 599.86 837.16 608 842.78 614.07 846.31 626.42 851.1 635.43 855.5 636.46 856.66 648.76 861.89 650.91 863.95 651.55 866.73 651.11 871.94 647.64 878.15 643.39 881.49 636.56 885.01 623.75 889.89 613.17 892.03 599.62 892.13 578.55 892.96 567.47 894.18 560.23 896.17 544.49 899.9 533.38 900.08 525.18 902.61 521.46 903 516.65 901.9 506.8 898.69 500.43 895.61 485.85 887.19 470.58 877.17 466.83 874.38 458.61 870.5 445.03 860.16 439.52 856.66 437.24 853.29 432.91 849.47 430.49 845.88 424.12 839.27 417.24 830.99 411.13 826.68 407.02 821.46 400.15 815.26 394.6 812.76 388.82 812.07 387.37 810.9 384.73 805.68 381.21 805.43 371.85 800.21 367.14 799.6 366.66 794.64 368.32 788.4 366.9 782.91 362.78 780.05 356.55 772.8 346.34 776.2 342.5 775.27 331.8 778.59 323.94 778.19 307.64 776.69 300.38 777.96 296.88 776.1 285.6 772.4 277.34 768.32 272.92 764.84 269.62 759.41 278.45 755.47 278.91 751.93 275.37 745.93 273.97 738.13 273.05 736.1 263.81 734.36 255.53 734.89 252.58 733.73 246.09 729.17 245.7 724.19 244.01 722.64 236.94 721.81 230.99 718.18 228.15 712.99 226.78 703.9 224.89 700.27 219.61 700.22 210.47 702.45 201.8 698 193.65 697.27 191.24 697.97 187.27 701.24 184.11 702.74 181.48 702.26 177.66 699.45 172.13 697.51 163.22 697.3 158.89 699.61 150.34 710.36 147.66 712.6 138.53 717.01 135.47 717.85 127.99 715.86 120.1 710.53 114.39 707.48 112.74 705.59 112.26 701.62 110.08 698.28 104.4 693.26 98.08 686.03 91.11 680.03 87.72 676.35 82.72 674.21 78.38 671.12 75.28 667.78 67.92 661.53 66.52 658.48 65.7 652.9 63.62 648.65 56.74 638.67 52 635.43 39.27 631.02 27.41 628.55 25.96 627.44 23.1 620.9 20.93 618.68 14.15 616.79 1 611.86 13.49 614.27 20.04 613.93 24.47 612.35 28.35 609.04 29.47 602.2 30.8 600.35 35.71 598.41 38.77 591.89 37.92 586.99 34.45 581.2 33.75 577.05 34.53 566.66 36.5 561.98 41.44 559.22 51.65 551.83 54.85 548.1 63.37 551.55 66.37 552.03 72.29 550.73 82.7 546.38 93.77 538.16 98.68 534.11 104.8 526.3 107.87 523.4 111.69 521.86 112.39 519.24 108.75 510.52 108.18 503.47 108.58 500.09 113.97 488.87 113.34 484.55 114.52 471.9 116.98 467.65 121.66 464.18 133.08 459.76 135.95 457.99 137.93 452.67 135.24 443.54 134.78 439.69 132.42 432.5 132.3 427.01 138.21 419.09 143.8 413.63 147.2 411.52 158.77 400.11 155.93 390.24 153.06 385.66 152.54 379.72 154.05 368.67 150.81 360.72 150.78 356.22 157.58 352.51 160.46 349.36 164.21 343.05 165.75 341.67 172.33 341.67 176.61 340.85 184.05 343.55 191.03 344.79 200.2 343.92 203.74 344.28 208.28 342.72 215.79 343.97 221.98 338.92 226.17 336.58 242 331.4 255.92 325.94 260.39 323.06 267.6 314.45 276.6 307.97 280.93 302.55 289.2 290.6 291.14 284.44 291.26 278.54 292.91 276.51 297.47 274.35 296.75 270.15 295.41 268.5 296.48 264.27 303.32 259.45 317.05 259.09 321.46 258.27 330.26 255.07 335.66 251.74 337.07 249.32 336.12 240.45 345.4 230.77 346.5 227.77 345.77 223.66 342.22 218.39 336.87 214.78 334.8 212.47 332.14 204.1 328.41 195.51 330.13 191.67 334.14 188.45 338.86 189.21 343.31 187.18 347.94 187.16 353.63 184.95 358.05 178.15 362.18 176.83 363.73 171.23 369.09 168.42 369.92 164.72 369.64 159.44 372.55 156.57 377.23 156.13 385.48 153.65 387.91 151.27 389.28 146.54 390.83 145.04 398.42 143.98 404.6 145.75 409.89 144.25 414.88 139.66 418.66 138.05 418.94 136.16 414.11 130.67 408.49 118.33 407.95 109.23 404.71 103.92 398.66 95.8 398.06 93.25 400.32 89.03 410.29 79.48 417.88 74.88 435.89 73.55 442.55 75.8 452.86 77.64 458.67 78.04 464.42 80.27 468.21 80.4 473.39 83.04 476.99 82.23 481.18 78.44 483.45 70.9 487.01 65.48 489.17 64.24 493.51 58.95 497.13 55.99 502.35 54.93 504.2 51.61 508.62 48.61 509.95 45.07 513 43.79 518.65 44.05 524.25 34.99 532.38 33.39 534 30.78 537.68 28.95 548.29 20.59 550.96 16.64 551.3 13.22 553.71 5.83 560.13 2.01 563.91 1 567.5 1.12 577.52 18.47 581.49 21.27 583.52 28.59 588.12 39.96 593.01 46.74 595.04 51.25 595.86 61.75 595.77 66.89 599.79 76.23 602.74 79.72 610.92 82.58 615.61 85.29 626.02 88.39 628.58 89.94 631.73 93.57 636.69 96.9 640.2 97.75 641.5 100.49 643.01 111.96 645.6 123.16 650.89 124.79 653.36 123.9 656.95 120.02 668.67 113.51 674.5 107.79 679.1 112.84 679.95 115.53 677.52 119.36 680.93 125.82 681.87 129.61 680.82 132.7 683.99 132.68 685.16 137.48 684.61 144.02 683.21 147.49 710.11 229.21 Z"/>
</g>
</svg>