<?xml version="1.0"?>
<svg xmlns="http://www.w3.org/2000/svg" version="1.2" baseProfile="tiny" width="800" height="452" viewBox="0 0 800 452" stroke-linecap="round" stroke-linejoin="round">
<g id="4215356">
<path d="M 710.73 145.3 710.5 148.35 712.5 152.57 713.97 153.55 719.39 152.33 726.36 154.75 732.48 156.35 740.46 157.48 745.83 160.44 751.76 163.12 755.43 165.15 758.61 166.2 762.8 166.86 771.39 166.06 781.19 165.98 786.44 167.28 791.24 174.56 792.72 176.37 792.66 178.38 794.26 183.24 794.85 188.48 793.72 196.77 793.69 199.88 791.45 206.12 789.97 207.52 786.81 207.25 783.14 205.98 779.86 205.97 773.23 204.51 766.7 201.68 759.14 200.24 755.6 200.24 752.23 201.73 750.45 203.2 749.69 205.31 751.69 209.09 752.44 214.29 753.58 216.77 755.53 219.12 758.39 220.82 760.13 220.43 764.26 220.93 768.15 224.54 772.98 226.22 779.53 228.07 781.64 229.52 783.6 232.72 785.06 239.23 784.93 247.94 781.56 253.11 777.82 257.21 773.38 261.54 769.48 264.77 769.74 267.35 772.37 268.88 782.23 269.8 788.92 268.81 793.12 269.37 797.15 271.49 799 274.54 797.98 279.36 796.94 281.52 794.22 284.75 789.94 288.43 787.56 289.28 785.71 291.02 785.16 298.33 783.35 301.47 775.65 302.83 771.14 302.54 764.89 301.48 759.92 298.51 754.02 296.34 751.05 297.72 751.46 300.83 753.08 305.18 759.16 311.67 763.29 317.68 762.52 321.11 759.48 323.3 756.44 324.22 751.8 324.83 749.97 323.76 744 321.44 740.76 323.02 735 330.11 733.49 332.38 732.21 332.96 504.16 417.3 317.2 441.76 241.27 451 252.38 441.07 251.1 439.87 250.24 435.93 245.5 431.6 243.18 427.92 240.03 424.95 238.12 421.34 236.84 420.42 230.6 417.62 227.08 414.29 224.77 410.99 224.04 409.06 220.07 409.19 213.42 411.99 211.71 413.66 209.17 414.52 207.25 414.19 205.65 411.5 203.09 411.97 199.59 411.42 197.24 411.91 194.24 410.95 188.8 412.01 185.21 409.84 182.96 409.43 180.4 411.01 178.57 411.2 178.52 415.68 175.32 417.33 173.13 416.63 171 417.77 170.14 420.07 167 421.64 163.01 426.46 161.57 427.34 157.18 431.87 151.97 432.87 146.9 431.13 144.57 427.24 142.09 424.42 139.3 423.99 135.74 419.52 128.04 411.05 124.91 406.67 123.37 403.79 122.09 399.83 114.13 395.39 109.34 391.74 107.52 389.85 104.41 389.21 101.37 387.49 96.05 385.6 85.43 385.24 83.4 386.96 75.1 389.73 70.91 390.69 68.93 392.37 63.01 393.5 59.82 393.05 55.72 394.24 49.8 394.04 47.89 394.81 46.95 398.2 44.48 397.93 38.72 395 40.03 392.93 37.34 388.97 35.67 388.16 34.9 385.52 36.05 382.36 37.15 381.68 40.35 383.41 41.52 382.64 41.59 379.44 43.26 377.13 44.01 372.38 45.77 369.92 47.74 369.09 50.53 369.28 50.95 367.64 49.04 363.12 49.56 361.92 52.88 359.56 55.21 359.07 57.35 357.44 61.83 355.88 65.54 353.15 68.24 349.69 72.36 348.55 73.33 345.76 76.42 344.3 78.41 337.4 78.51 335.96 80.25 331.44 82.92 330.13 84.24 328.67 87.74 328.11 90.62 326.39 90.72 324.85 94.97 323.24 94.95 320.06 99.08 313.33 101.07 310.81 102.52 306.22 107.09 301.16 110.67 299.02 111.31 295.7 112.99 293.8 113.31 290.75 114.7 287.43 116.25 285.29 115.55 281.18 113.82 276.6 110.7 272.58 110.25 270.46 112.41 267.26 119.08 264.62 124.43 259.54 124.55 257.92 121.91 250.93 121.79 247.27 118.28 244.64 114.08 242.39 109.53 238.43 105.89 236.27 100.64 233.97 97.22 231.64 95.45 229.1 93.68 225.43 89.46 225.62 83 222.96 80.65 220.83 77.14 218.6 75.25 217.99 72.4 214.89 68.11 214.16 65.28 212.13 63.64 212.21 59.81 210.58 57.99 208.94 53.46 207.41 48.14 204.92 37.4 198.92 33.18 197.7 29.51 195.39 24.21 189.11 21.41 187.69 17.73 183.41 13.76 180.15 12.32 176.94 4.89 173.19 2.24 171.29 1 169.03 4.27 169.25 8.68 167.99 10.21 165.88 14.08 163.78 21.71 163.26 22.8 161.8 23.04 157.3 24 156.02 28.92 153.54 35.19 155.97 36.79 155.78 37.95 152.66 41.48 150.04 45.37 150.15 49.95 152 50.87 151.81 51.68 148.51 50.85 147.01 45.73 145.65 45.23 144.3 46.24 142.32 47.87 141.91 49.72 139.29 54.04 138.78 56.71 137.92 60.46 138.16 63.97 136.72 69.12 139.74 74.71 140.41 76.13 139.62 76.99 136.39 78.99 134.43 84.67 132.12 88.78 132.19 91.63 129.57 93.83 130.11 98.96 129.73 103.22 130.92 108.32 131.05 112.13 130.02 117.5 124.95 118.91 124.53 123.2 126.36 124.77 126.09 124.81 122.77 126.68 121.9 129.81 122.16 131.55 124.37 134.88 123.45 135.9 120.37 139.36 119.62 144.04 120.5 145.89 118.68 151.77 116.85 157.62 115.77 161.43 114.25 165.51 111.36 171.05 109.34 173.1 109.23 179.26 106.65 182.63 104.68 185.45 104.3 190.06 102.41 192.09 99.09 192.66 95.98 198.66 93.33 200.95 90.97 203.1 87.8 204.77 87.06 207.51 84.06 211.81 80.46 217.86 81.04 221.98 82.39 226.86 82.59 228.59 84.13 237.71 84.87 244.75 82.39 247.07 80.86 250.63 79.92 258.14 76.33 270.38 69.72 272.03 69.51 279.56 65.92 281.53 66.13 287.68 63.12 293.3 62.66 298 61.71 299.25 60.99 302.85 61.35 310 58.23 313.87 57.08 316.28 57.17 320.15 59.11 327.74 60.87 327.54 57.51 326.78 57.03 326.72 53.11 326.05 51.91 320.81 48.18 317.97 46.89 316.03 44.58 315.22 40.65 315.64 38.01 420.31 1 421.22 4.51 416.18 9.25 415.81 10.87 416.76 12.77 416.38 14.88 412.14 20.63 416.83 30.36 416.74 33.94 414.27 36.22 413.64 38.26 414.87 39.96 418.68 40.36 423.32 39.46 425.9 41 428.13 45.46 426.76 49.9 427.07 51.44 429.13 52.51 432.8 53.2 438.25 52.51 441.48 51.45 442.82 49.42 446.63 46.27 453.74 43.3 457.25 43.27 460.76 42.51 468.19 42.9 474.52 41.04 483.95 42.71 491.18 44.77 494.3 47.14 497.58 50.36 502.59 52.43 507.53 53.16 510.62 54.14 516.33 58.01 518.4 60.17 527.07 63.54 528.23 65.81 554.72 36.23 556.35 32.79 553.76 27.57 555.8 21.01 557.21 18.88 560.25 17.35 569.32 15.07 575.9 13.71 581.85 14.16 584.02 15.35 586.32 17.96 591.67 25.56 595.28 29.57 597.93 33.86 600.32 41.75 602.74 47.77 605.76 52.35 612.65 58.6 613.8 60.64 615.63 61.75 617.75 64.26 625.25 71 632.39 78.39 634.53 82.95 637.19 87.21 710.73 145.3 Z"/>
</g>
</svg>