<?xml version="1.0"?>
<svg xmlns="http://www.w3.org/2000/svg" version="1.2" baseProfile="tiny" width="800" height="1273" viewBox="0 0 800 1273" stroke-linecap="round" stroke-linejoin="round">
<g id="4215000">
<path d="M 693.91 562.96 694.02 564.9 693.39 566.71 689.51 568.16 688.76 569.15 688.52 571.99 688.01 573.99 685.47 577.84 681.8 580.68 676.06 579.14 674.24 579.23 670.55 581.29 666.09 581.72 664.14 581.03 663.55 581.95 665.17 585.1 665.95 586.02 668.6 587.82 669 588.48 669.52 591.42 670.55 593.37 670.58 594.69 669.66 596.64 669.64 597.79 670.65 599.71 671.82 602.74 671.88 604.86 670.21 607.74 670.26 608.96 671.58 610.4 671.75 611.94 672.63 612.19 674.82 611.51 677.32 611.86 680 611.71 681.86 613.4 681.86 615.26 685.24 616.25 686.73 618.54 688.59 618.86 688.92 619.73 687.78 621.95 687.67 623.58 688.87 625.26 691.37 627.25 694.65 628.07 696.68 627.81 700.34 629.85 703.78 629.36 705.86 630.13 708.78 632.75 709.81 634.21 711.44 640.16 712.48 642.56 711.44 645.82 711.71 646.53 714.59 648.92 717.63 649.19 721.86 648.86 724.57 649.29 725.66 650.76 726.23 652.72 726.42 655.14 724.4 657.84 723.67 659.87 725.44 666.73 726.27 668.16 726.43 670.25 727.99 674.6 728.46 676.6 728.29 678.1 729.65 678.69 732.22 677.96 734.45 679.11 735.9 680.21 737.34 683.34 738.18 684.56 737.76 686.93 736.77 688.72 736.49 690.6 736.87 691.8 738.9 693.51 740.58 694.33 742.54 695.9 743.38 697.86 743.82 700.4 745.19 702.35 748.9 706.22 751.39 707.92 752.94 708.53 755.01 710.27 759.74 713.1 764.11 714.17 766.01 715.86 769.56 717.2 771.04 718.82 774.78 719.99 776.7 721.57 778.62 725.03 779.98 726.73 783.34 728.4 786.71 728.16 790.52 729.99 792.61 733.82 793.36 734.62 794.81 734.81 796.6 734.44 799 734.79 797.37 735.35 794.1 738.78 792.86 742.69 790.96 744.32 786.76 745.87 785.18 747.14 781.55 750.86 778.97 755.99 776.66 758.03 773.46 761.85 771.37 766.55 770.26 767.54 768.9 767.87 765.61 767.52 763.04 768.51 758.5 771.37 757.05 771.28 753.6 769.87 750.1 765.94 748.36 765.17 746.35 765.92 743.43 769.71 738.68 774.3 735.71 776.34 731.87 778.13 729.09 778.7 727.97 779.38 726.62 781.31 722.2 782.81 718.99 782.72 717.2 782.94 716.17 783.53 714.52 785.34 709.86 786.64 704.99 788.54 703.86 788.78 700.69 788 697.94 786.64 689.57 784.69 685.76 782.86 684.61 782.98 680.8 784.48 678.92 784.34 675.7 783.09 673.26 782.93 667.41 785.77 665.11 787.63 663.53 788.54 655.23 792.42 653.07 793.95 650.7 796.79 648.77 799.77 646.49 802.85 642.46 806.09 639.53 807.34 632.8 809.45 626.89 810.92 622.92 812.38 614.89 815.91 608.82 821.5 605.99 824.37 601.92 825.51 598.29 825.4 593.67 824.92 589.66 824.81 583.36 824.86 580.49 825.29 571.32 825.89 569.63 825.57 567.63 823.67 562.04 821.5 558.67 819.16 557.24 819.25 553.57 821.53 551.92 823.83 551.24 826.47 548.92 828.2 547.62 828.42 545.11 827.8 542.71 826.25 540.06 826.21 537.04 827.24 535.84 827.15 532.35 823.27 531.08 823.08 530.28 824.12 530.37 826.72 531.88 828.37 532.68 830.25 532.68 832.84 532.19 834.93 530.62 837.5 530.37 838.68 529.29 839.97 526.47 840.54 527.08 842.75 527.13 846.51 527.6 847.05 529.83 846.62 530.87 847.02 531.17 848.29 530.59 852.12 530.66 854.35 530.05 855.34 525.2 859.5 523.96 860.28 524.05 861.97 525.23 863.88 524.53 864.89 521.68 865.73 518.69 867.23 515.33 869.63 511.95 871.53 509.93 872.4 508.28 873.76 508.45 877.22 508.21 878.38 506.26 880.43 504.14 881.32 501.08 881.52 499.31 882.12 498.52 882.95 498.09 885.65 495.57 889.88 495.6 892.2 498.04 894.65 497.75 896.13 495.57 898.5 495.97 900.57 495.25 902.16 491.3 903.99 490.49 905.31 490.57 906.89 492.09 909.16 490.09 913.04 489.81 914.32 491.46 916.95 491.74 918.21 492.25 923.44 492.27 926.45 490.52 927.43 486.45 928.75 485.08 932.08 484.75 933.62 485.24 935.39 484.14 940.15 483.68 940.93 480.94 942.59 479.15 945.28 478.36 948.77 477.06 949.7 472.94 947.18 471.45 946.95 469.07 947.93 468.17 950.36 465.9 951.93 464.41 954.12 461.59 956.84 457.14 957.6 453.46 960.58 452.81 962.46 450.78 965.67 450.11 968.79 448.49 971.07 447.87 972.44 448.06 974.2 449.35 977.39 450.64 979.04 452.21 980.28 455.12 981.26 456.96 987.55 456.2 989.21 455.52 992.2 454.61 993.91 454.63 994.84 455.91 997.4 457.49 998.41 457.74 1000.27 456.56 1002.81 455.39 1008.12 453.32 1010.35 452.78 1012.09 451.92 1013.19 449.94 1014.57 446.07 1016.68 444.24 1018.08 443.37 1019.27 442.8 1022.04 443 1023.95 442.46 1029.08 442.99 1032.54 444.82 1036.4 445.52 1041.53 445 1042.83 442.31 1046.6 440.92 1048.12 441.43 1053.73 442.04 1056.01 442.1 1058.51 441.52 1059.42 438.91 1061.36 438.68 1064.54 438.96 1065.42 440.43 1067.23 440.62 1068 439.86 1070.02 439.68 1072.2 439.09 1072.94 435.51 1074.65 434.18 1076.74 431.7 1079.03 429.13 1078.29 426.82 1078.8 424.44 1078.78 422.41 1078.17 419.78 1078.13 416.28 1080.38 415.54 1081.5 414.79 1087.65 413.1 1091.1 411.77 1092.99 407.8 1096.5 406.93 1096.81 401.8 1096.25 398.14 1096.39 397.08 1096.83 395.54 1099.46 394.27 1102.43 392.15 1103.55 389.13 1101.72 386.19 1101.4 383.6 1102.39 380.95 1104.59 378.92 1106.91 374.86 1108.94 371.63 1108.59 367.33 1108.49 364.7 1108.68 363.29 1109.44 361.45 1113.46 357.34 1117.73 357.64 1120.25 356.69 1125.68 356.91 1126.72 358.89 1128.89 359.11 1132.01 358.56 1133.11 355.18 1136.6 353.76 1139.22 353.12 1142.96 353.72 1145.69 354.25 1149.84 355.55 1151.44 355.72 1152.83 354.94 1155.12 352.85 1157.44 350.04 1161.41 349.21 1164.6 347.56 1166.72 346.45 1168.82 346.34 1171.25 348.26 1174.31 351.19 1177.34 351.92 1178.88 354.73 1182.97 355.98 1185.22 356.68 1185.77 360.28 1186.36 361.54 1187.52 360.6 1190.82 357.97 1193.08 357.1 1195.22 359.87 1198.73 361.09 1200.71 360.85 1202.25 359.35 1204.47 359.39 1205.85 360.25 1207.11 361.82 1210.54 361.27 1213.95 361.53 1215.51 362.69 1217.54 365.11 1218.77 366.17 1220.62 365.88 1221.81 364.21 1225.15 365.06 1228.54 366.51 1230.91 367.82 1234.01 368.87 1235.9 368.77 1237.48 366.76 1239.27 363.17 1241.84 362.81 1242.48 363.23 1248.33 362.65 1252.06 362.65 1254.47 363.32 1257.12 364.46 1259.48 364.37 1261.78 363.83 1262.46 360.9 1264.66 360.06 1266.28 360.33 1269.26 358.23 1270.46 354.2 1271.91 351.84 1272 348.73 1271.06 345.7 1268.76 343.51 1268.57 339.7 1266.44 338.76 1265.31 338.56 1262.32 337.76 1261.04 334.73 1258.48 331.11 1257.83 328.68 1255.69 326.14 1252.35 325.35 1251.95 322.3 1252.29 319.71 1251.39 318.33 1250.11 316.66 1247.02 315.83 1246.2 314.49 1245.91 312.48 1246.68 311.04 1248.18 308.7 1248.12 307.94 1246.98 307.93 1245.44 306.73 1243.48 306.37 1240.82 304.47 1239.52 302.44 1239.11 299.81 1239.73 298.59 1240.65 295.14 1244.17 294.27 1244.57 291.97 1244.46 288.83 1243.37 287.69 1242.09 285.19 1241.4 283.12 1241.56 274.53 1243.06 271.12 1241.99 265.77 1239.33 260.41 1236.96 258.42 1235.66 256.75 1235.12 255.24 1234.15 254.8 1233.03 251.89 1232.75 249.75 1232.1 247.65 1230.06 243.71 1230.48 240.55 1229.79 239.84 1231.1 238.05 1232.02 231.32 1233.38 227.72 1235.72 227.13 1238.36 223.62 1238.6 224 1240.24 220.65 1241.42 220.41 1242.55 218.09 1242.76 217.53 1244.34 215.2 1243.97 212.34 1244.75 211.15 1244.76 208.91 1243.46 206.59 1243.96 203.53 1242.83 201.38 1242.68 199.53 1242.95 197.94 1242.27 194.96 1241.68 191.27 1242.05 190.41 1241.78 187.08 1239.43 185.82 1239.75 185.67 1238.28 181.24 1236.99 180.02 1235.01 176.39 1234.21 171.53 1229.37 169.9 1228.11 168.71 1225.46 168.71 1224.57 170.03 1222.4 170.46 1220.11 170.29 1218.48 169.24 1216.5 169.15 1215.53 170.03 1212.72 169.13 1209.48 165.99 1209.76 163.99 1208.58 164.17 1204.37 163.61 1203.55 157.78 1200.04 156.24 1198.85 156.99 1196.64 158.5 1195.66 156.35 1193.22 154.89 1192.97 152.98 1191.81 151.97 1190.65 150.83 1190.67 151.29 1189.12 149.8 1186.75 146.85 1184.7 144.66 1182.77 142.46 1179.7 142.01 1178.42 142.36 1176.51 141.92 1175.2 140.73 1173.51 138.12 1170.88 138.09 1168.57 139.6 1167.43 141.71 1166.44 140.82 1162.37 138.66 1157.7 138.88 1155.35 137.74 1153.32 138.4 1153.17 136.96 1149.93 136.61 1147.98 135.71 1140.41 135.33 1135.45 135.82 1132.22 136.26 1130.88 137.38 1129.67 139.33 1130.45 141.62 1130.41 143.57 1129.32 142.71 1128.84 142.98 1127.27 144.93 1126.28 145.57 1125.27 146.99 1125.59 149.13 1124.07 148.98 1120.53 149.82 1120.12 149.63 1117.8 151.95 1113.94 152.13 1111.43 153.45 1110.57 153.68 1109.22 154.92 1107.68 155.53 1106.24 153.85 1102.92 153.87 1100.41 156.46 1098.42 158.78 1098.85 160.26 1101.45 161.8 1102.34 162.69 1102.05 163.88 1102.85 166.95 1101.68 166.58 1100.47 167.39 1099.14 164.97 1098.16 165.71 1096.84 169.01 1094.59 171.46 1091.79 172.5 1091.78 174.2 1093.39 175.23 1093.65 178.26 1092 179.64 1089.83 180.27 1089.65 182.34 1087.55 185.19 1087.36 186.31 1086.72 186.36 1084.22 187.92 1080.22 189.65 1077.59 190.87 1077.45 192.21 1078.93 192.12 1079.57 193.85 1081.59 198.4 1085.95 201.07 1085.63 201.31 1084.24 199.46 1083.71 199.67 1082.2 204.88 1080.99 206.69 1080.07 207.49 1079.21 210.52 1078.1 210 1075.62 210.91 1074.06 214.27 1074.07 214.69 1070.96 215.59 1069.89 213.46 1069.85 212.42 1069.43 211.7 1068.16 209.24 1067.11 206.33 1067.2 204.28 1068.67 203.73 1066.69 201.8 1065.53 199.61 1066.04 199.7 1065.07 201.18 1063.36 200.49 1062.01 197.79 1064.53 195.79 1063.13 194.85 1060.28 193.27 1059.68 193.52 1056.81 190.56 1053.52 191.63 1052.72 191.97 1051.23 190.81 1050.26 189.37 1050.26 190.24 1048.58 189.28 1047.06 190.34 1044.74 190.99 1042.17 190.85 1040.36 189.42 1038.69 190.84 1036.54 190.8 1034.96 189.14 1034.72 187.63 1034.03 187.64 1031.05 188.15 1029.99 187.82 1027.2 189.12 1025.55 186.69 1025.5 187.02 1024.05 185.71 1023.99 184.62 1022.76 185.17 1021.93 184.62 1020.58 183.2 1018.93 183.1 1017.95 184.1 1016.28 186.81 1015.71 187.08 1014.58 185.94 1012.13 187.23 1010.33 187.61 1008.82 188.5 1007.8 187.18 1005.7 187.63 1002.17 189.01 1001.02 190.64 999.01 189.38 997.49 190.53 995.46 189.52 992.53 187.88 990.02 188.89 988.87 187.17 988.38 187.46 985.85 186.52 985.07 186.25 983.75 186.72 981.45 185.04 979.81 186.37 978.7 187.08 979.43 188.76 979.16 189.04 976.53 185.71 976.71 183.76 975.03 181.64 975.16 180.64 974.02 180.18 971.85 179.34 970.84 178.49 968.44 177.11 966.18 177.36 964.39 175.79 963.06 174.03 960.64 174.23 958.35 173.52 955.34 172.44 953.22 173.44 950.89 173.28 946.21 172.52 946.1 170.68 943.03 168.95 941.66 166.73 941.12 165.08 941.17 162.32 940.57 159.86 939.28 157.28 937.06 155.55 934.97 154.84 933.27 153.73 932.08 150.73 936.46 146.88 937.6 144.56 940.17 138.54 940.89 134.24 937.95 131.5 936.45 128.53 934.26 127.97 932.84 127.48 928.72 126.2 927.53 123.4 926.5 121.47 926.58 119.54 924.9 117.73 922.92 115.94 922 114.92 918.44 114.94 914.78 112.53 914.65 109.33 912.79 107.88 910.67 106.97 908.45 106.21 907.76 104.23 908.09 103.33 909.61 102.06 910.34 99.65 909.23 97.1 907.57 94.86 907.11 94.95 908.63 93.22 908.64 91.54 905.52 87.62 900.83 87.21 899.59 85.89 897.63 82.19 895.63 79.69 892.93 78.27 890.76 76.51 889.73 74.02 887.2 72.19 883.59 72.19 880.59 71.88 875.47 71.99 872.06 70.17 869.62 70.14 869.13 72.2 865.68 72.55 864.2 72.26 863.16 70.46 862.6 70.54 857.52 70.9 855.07 71.94 852.67 71.96 851.21 70.96 847.29 70.63 844.1 70.74 842.05 69.42 840.65 69.18 838.8 68.2 835.58 68.47 831.93 69.52 829.57 69.65 827.91 68.2 825.51 67.77 823.22 69.01 821.46 69.29 818.9 68.21 816.35 64.87 812.95 65.91 811.27 66.02 810.06 64.68 808.77 64.19 807.31 61.97 805.9 60.48 806.82 59.12 807.07 56.75 805.94 56.93 803.86 56.18 800.94 52.69 797.27 52.27 794.92 53.39 794.47 51.65 789.83 50.47 787.55 48.2 785.65 46.65 783.96 46.4 781.71 43.94 779.6 41.8 778.75 41.27 776.49 36.38 773.13 32.26 769.5 31.02 768.98 30.37 767.78 28.08 767.31 27.52 765.61 28.17 762.13 27.86 760.75 26.82 758.99 22.55 757.23 18.31 756.29 18.03 754.81 16.1 755.15 14.35 753.48 14.24 751.3 15.13 749.71 14.42 748.67 11.99 749.63 11.63 748.65 12.64 745.78 12.88 743.41 12.57 741.96 13.21 740.49 14.2 739.75 13.71 736.63 12.47 735.2 12.8 732.37 12.3 731 12.59 729.57 12.36 727.49 11.65 725.48 10.82 724.36 11.2 723.38 9.98 722.54 8.38 719.97 7.04 717.02 6.01 715.54 6.75 712.17 5.04 711.96 2.46 712.17 1.6 707.6 1.87 705.83 1.85 702.42 1.54 700.13 2.47 699.08 3.87 698.98 4.97 699.89 7.28 699.18 8.87 697.86 9.14 696.91 6.48 693.79 4.35 690.93 5.54 689.13 7.44 688.35 10.67 688.32 13.43 687.95 19.05 687.49 19.76 687.73 21.83 690.33 22.71 691.06 24.55 691.14 27.1 690.08 28.24 688.88 30.37 687.32 32.02 686.98 32.08 685.78 33.08 684.83 31.84 683.77 27.7 682.26 23.64 681.47 18.38 675.68 14.68 673.1 13.19 671.02 11.45 669.75 9.22 668.84 6.53 668.31 2.44 667.98 1.29 666.89 1 664.74 1.73 663.41 6.77 660.21 7.9 659.76 9.61 657.7 11.04 656.77 15.65 655.06 18.95 654.22 22.23 653.91 24.56 654.77 27.13 655.12 29.61 655 30.1 651.09 29.44 647.91 30.17 646.16 30.1 644.03 31.7 640.84 31.63 639.68 30.73 638.03 31.32 634.89 30.53 633.95 31.3 633.15 30.61 632.36 29.24 632.11 30.73 630.58 33.7 629.4 35.57 628.94 38.42 627.79 39.64 627.71 44.88 625.85 46.4 626.02 47.15 623.36 46.79 620.24 45.41 619.24 46.06 617.2 43.81 616.31 44.27 614.74 43.1 613.4 41.4 612.36 42.53 611.07 40.36 610.62 41.48 609.19 40.93 608.24 39.27 607.51 37.61 603.16 36.36 603.93 35.39 602.8 37.34 601.25 38.19 599.82 37.13 599.22 37.63 597.79 42.21 598.29 43.28 597.72 49.48 597.9 51.87 598.57 53.49 598.04 54.43 596.89 55.14 594.44 54.85 593.11 55.96 593.06 56.03 591.79 56.76 591.28 56.96 589.57 55.78 587.58 56.96 586.48 56.32 585.58 57.71 583.95 58.48 581.29 60.06 580.94 59.7 578.45 60.91 578.62 62.09 576.31 62.43 574.76 63.95 574.82 66.09 574 66.59 573.1 72.35 571.44 74.95 570.53 75.94 569.04 77.57 568.83 78.73 567.18 81.32 565.05 81.7 562.99 81.26 561.73 79.87 561.72 79.67 558.41 81.23 555.89 81.98 556.1 83.27 557.74 86.29 559.9 88.08 562.75 89.37 563.39 90.93 565.22 90.79 566.39 91.45 567.4 91.35 568.92 90.23 569.95 87.15 569.53 84.83 568.72 83.62 568.78 82.73 571.03 83.18 572.76 84.61 576.25 84.53 577.76 82.42 578.39 84.23 579.45 84.98 580.61 84.66 581.43 83.07 581.87 84.14 583.37 84.48 585.86 86.41 585.74 89.11 584.64 89.96 583.02 91.76 581.77 92.01 580.07 96 575.77 96.63 574.68 97.61 571.44 99.64 568.23 99.9 565.17 100.52 562.03 100.97 561.14 105.18 555.85 103.89 552.76 103.73 550.62 105.77 549.2 107.03 549.05 109.47 550.83 110.94 550.98 113.62 549.71 115.65 547.51 118.69 545.15 120.05 544.7 121.76 545.92 122.04 547.71 121.76 549.64 119.97 553.89 119.55 556.29 119.74 557.93 119.15 561.2 119.15 563.11 118.4 565.3 119.89 568.76 120.95 569.76 122.69 573.26 124.76 573.47 125.72 569.67 126.29 564.12 125.82 561.73 126.56 557.21 126.8 553.42 127.27 551.45 127.15 549.09 126.53 548.14 127.83 546.37 129.8 545.27 135.57 543.77 136.86 543.16 138.11 541.82 138.6 539.76 136.99 538.01 135.52 535.18 133.3 529.91 134.82 529.31 138.13 528.56 139.43 528.63 142.56 530.49 143.82 532.33 144.71 534.41 147.04 536.51 147.52 537.85 149.56 537.4 150.98 536.23 152.11 534.64 152.46 532.33 152.03 530.03 151.57 529.54 148.96 528.9 146.28 527.14 144.45 524.94 144.37 523.61 145.18 522.09 148.06 519 149.82 518.67 151.58 519.34 155.51 519.3 157.14 520.45 158.19 523.95 159.36 526.46 160.02 529.24 161 530.2 162.04 529.61 162.6 523.15 163.51 521.19 164.96 519.2 163.17 517.02 162.75 515.16 162.01 509.45 160.92 507.62 159.6 506.25 159.97 504.15 161.42 503.11 165.6 501.88 169 501.85 172.6 500.36 175.83 500.17 178.31 500.29 179.92 499.84 183.5 500.04 184.88 499.88 187.16 496.58 187.5 494.76 186.31 493.73 183.07 493.59 180.78 493.17 174.59 490.77 173.52 489.73 173.41 488.74 174.85 488.63 176.3 487.83 177.26 486.07 178.45 485.24 179.66 483.38 181.02 483 182.04 483.88 181.73 484.84 181.98 487.24 183.79 489.95 184.66 490.65 186.71 490.98 189.96 490.34 190.4 489.06 189.53 485.59 189.41 483.92 189.84 483.15 193.91 481.08 195.57 480.7 197.75 481.56 200.22 483.64 204.37 486.15 205.6 487.65 206.02 488.97 207.61 490.73 208.7 492.96 213.45 496.45 214.95 496.31 216.13 495.2 217.54 493.22 220.34 491.85 222.26 491.42 225.39 491.62 227 490.8 227.24 488.14 228.56 484.07 229.35 482.51 231.19 480.29 232.33 478.3 233.75 477.21 237.29 475.57 241.31 473.96 242.08 473.24 242.39 469.98 241.97 463.56 241.55 461.47 242.53 460.93 245.39 462.25 246.92 463.37 248.74 463.62 249.42 462.95 249.43 461.65 251.03 461.73 252.6 462.72 256.68 463.75 258.23 463.57 261.55 462.09 263.53 460.36 264.69 459.73 266.08 460.74 264.86 462.27 266.07 463.15 269.95 460.62 271.61 458.51 273.53 457.82 276.33 458.15 278.21 457.05 278.96 455.89 280.09 456.82 279.74 458.24 280.15 460.39 281.66 463.5 281.82 464.72 284.25 462.76 288.36 460.71 289.33 459.7 293.34 458 294.97 457.64 298.22 456.46 300.69 456.51 301.12 455.12 300.37 454.11 300.68 453.14 306.46 449.06 307.35 449.06 311.66 451.32 315.33 452.55 316.79 454.99 316.2 457.4 314.54 461.04 313.83 463.5 313.74 465.05 314.83 466.05 316.84 465.61 321.06 464.09 321.88 461.38 322.44 457.4 322.01 453.1 322.73 449.37 324.24 444.15 324.41 442.85 320.58 441.25 315.36 439.94 306.07 438.55 303.99 437.48 302.48 435.8 302.26 433.27 304.8 430.64 305 429.31 310.72 427.4 313.87 426.72 315.53 425.71 315.67 425.04 314.78 422.69 315.01 420.46 316.2 416.67 314.43 415.38 312.45 415.64 309.98 417.46 307.59 418.36 304.95 421.2 303.72 422.1 298.82 423.02 297.14 422.8 294.01 423.15 291.65 423.67 289.35 425.32 286.79 425.86 284.2 427.9 283.2 428.07 281.24 427.59 279.35 427.83 278.08 426.94 277.44 425.04 277.34 422.98 278.53 419.55 280.17 417.42 282.09 416.32 287.57 413.94 289.9 412 289.17 410.37 284.49 407.95 280.72 404.34 278.91 401.93 279.37 401.12 283.25 400.2 285.54 400.1 287.1 400.43 288.25 401.46 291.86 401.82 293.58 401.59 294.41 399.91 293.14 398.94 291.26 398.47 288.91 397.28 285.05 396.48 280.57 396.49 277.16 398.16 274.59 399.71 273.12 399.12 272.89 398 273.83 397.46 273.13 394.06 273.62 389.77 274.45 387.7 275.43 384.2 276.11 383.53 279.07 382.86 281.57 381.78 286.52 380.33 289.92 380.26 290.79 379.73 292.54 376.12 293.44 373.46 294.72 371.39 297.39 370.29 301.8 367.64 304.09 367.15 307.28 368.72 308.18 370.02 310.33 371.15 313.3 371.09 315.87 370.45 319.23 369.25 320.98 369.08 324.6 369.36 326.28 367.52 328.66 367.16 332.25 367.51 332.17 368.88 329.72 370.24 329.16 370.91 327.65 374.18 326.51 375.96 328.5 377.1 332.69 376.39 336.83 374.2 338.06 374.06 339.52 372.59 342 368.87 341.73 367.07 340.9 365.91 340.18 362.38 340.16 360.75 338.13 358.17 335.72 355.87 333.86 354.7 333.38 353.69 334.22 348.28 335.78 344.82 340.32 339.65 342.2 339.34 344.7 340.87 350.39 342.9 350.4 345.59 350.09 347.33 350.25 350.44 350.86 350.66 354.02 350.06 355.65 350.07 357.46 350.97 357.66 352.92 356.02 356.56 356.52 357.13 359.08 358.02 364.22 360.19 365.26 360.31 367.03 359.14 370.95 358.05 373.09 356.75 376.23 353.75 376.09 352.71 374.85 351.07 371.91 348.56 371.1 344.82 371.02 338.75 370.59 336.15 368.2 333.1 363.32 329 359.27 325.1 355.64 322.11 351.6 318.37 350.39 315.35 350.46 314.18 352.56 310.77 353.34 307.62 354.33 306.31 356.58 304.86 360.07 305.03 364.88 304.83 371.43 304.17 375.13 302.37 377.1 300.36 377.83 298.07 377.47 296.84 375.34 295.95 372.31 296.5 368.73 298.08 363.1 299.47 357.45 300.45 354.68 298.66 351.59 295.37 349.86 293.04 347.81 291.62 346.45 291.45 344.22 292.59 342.27 292.67 339.61 289.22 339.6 286.63 341.21 283.89 343.68 282.28 345.21 280.58 345.3 279.56 343.26 276.99 341.9 276.41 340.46 276.48 330.35 280.03 324.57 280.92 321.04 281.23 319.97 279.74 319.81 276.93 320.52 275.06 321.69 270.14 322.79 268.47 325.16 265.78 328.33 260.86 328.98 258.46 326.59 256.01 323.52 254.43 322.98 252.54 323.24 251.52 326.23 249.03 328.08 248.94 328.57 250.1 330.22 251.12 332.18 251.07 333.79 251.87 335.67 253.34 337.71 253.37 339.09 252.65 341.5 253.63 343.47 252.8 346.06 252.72 351.09 252.93 353.48 252.59 357.38 251.42 360.05 251.13 360.97 250.65 361.54 249.03 360.83 247.84 360.82 245.93 360.24 244.6 359.39 244.28 354.06 244.33 352.23 244.1 348.68 243.21 346.48 242.1 345.71 240.67 344.5 239.61 341.9 238.22 339.01 237.23 336.63 237.36 333.14 239.16 329.32 241.86 326.31 241.73 324.28 240.87 323.25 239.94 323.33 238.6 321.66 234.64 323.01 232.78 325.64 232.29 328.82 232.23 330.94 231.52 332.26 230.59 338.97 227.26 341.79 225.15 343.63 222.68 344.11 219.68 345.54 215.58 346.46 213.77 348.07 213.9 348.71 216.51 349.46 216.59 353.38 214.93 353.89 213.21 353.63 212.48 351.47 211.12 349.71 208.82 348.73 208.16 345.08 209.16 344.16 209.11 342.46 207.5 341.47 206.1 339.99 202.83 339.27 202.05 339.52 200.47 339.27 197.86 338.83 196.67 337.76 195.7 337.21 193.75 338.88 191.81 339.81 191.27 341.89 191.32 344.48 189.57 345.08 187.57 345.96 187.4 348.68 188.35 350.21 187.44 350.64 185.06 350.09 183.11 351.31 181.74 356.2 180.16 356.41 178.35 354.37 176.62 350.61 170.94 350.63 169.73 352.14 167.14 355.09 165.71 357.04 164.27 358.98 161.27 360.15 158.4 359.7 157.64 359.27 154.39 358.31 151.38 359.09 149.6 360.44 147.54 362.25 146.48 361.55 143.89 361.48 141.55 357.51 135.33 355.91 133.69 355.3 132.55 354.66 129.95 353.27 128.59 350.57 128.61 348.3 123.87 348.2 122.28 349.65 118.73 351.25 116.08 352.39 115.01 353.61 115.01 355.78 115.94 358.48 117.55 364.07 118.3 366.88 118.21 370.58 116.25 371.9 114.52 371.48 113.22 369.98 112.67 366.8 111 365.26 109.35 364.42 107.11 363.33 105.7 360.52 103.57 360.1 101.86 360.38 100.69 362.96 95.82 364 94.31 365.29 90.48 366.43 89.69 369.51 91.41 371.12 91.81 372.86 91.31 374.07 89.54 374.53 87.94 374.8 85.02 374.26 82.44 374.25 80.88 375.53 79.8 377.82 79.8 381.85 79.2 383.36 78.66 387.68 76.15 389.05 75.85 390.08 76.88 391.67 81.6 393.22 83.25 394.65 83.16 396.36 81.97 396.58 82.8 399.09 86.29 400.54 86.84 402.52 86.25 402.75 79.96 403.52 75.92 404.92 72.07 405.63 70.81 408.25 67.45 409.13 67.04 410.79 67.53 414.89 70.07 422.26 73.17 423.18 72.9 423.81 71.72 424.01 68.62 426.01 65.7 427.24 65.08 430.72 64.46 431.54 63.59 432.36 61.56 433.19 58.46 434.27 57.89 435.53 59.07 436.34 62.69 436.31 64.84 435.44 68.56 435.28 74.68 434.23 78.68 432.54 81.28 424.67 88.32 424.26 89.43 426.04 94.14 427.09 94.25 430.03 93.33 438.67 92.3 443.92 90.79 446.43 89.91 451.21 86.99 456.85 84.07 458.22 82.39 458.36 80.39 457.09 79.57 453.87 80.04 452.18 78.06 452.06 76.57 453.34 74.48 455.49 69.85 455.47 68.22 454.2 64.15 453.79 59.82 454.13 56.56 455.43 51.23 456.19 49.91 457.23 49.12 458.29 49.51 460.9 51.84 463.15 54.19 463.26 56.3 463.73 58.08 465.54 60.31 467.63 61.25 468.24 61.98 469.21 65.07 471.63 67.68 472.51 71.44 473.13 72.57 477.37 77.4 477.75 79.42 477.63 81.85 478.01 83.5 480.04 86.63 482.68 89.32 483.86 91.38 484.73 95.87 486.24 98.7 487.42 99.89 491.21 102.77 494.36 104.3 496.4 104.6 498.7 105.35 501.43 106.76 504.59 107.52 510.89 107.8 512.96 108.45 515.69 108.3 519.21 106.5 520.34 102.52 522.76 97.9 523.93 97.6 528.99 98.55 529.88 96 534.19 91.61 535.9 88.88 536.7 87.07 536.3 85.17 534.31 83.95 531.9 82.9 528.28 81.69 524.04 80.56 522.32 79.09 523.68 78.02 525.23 77.82 532.89 79.8 537.14 77.96 540.08 78.16 541.29 78.98 542.59 80.91 544.2 81.34 546.7 81.47 549.05 82.57 550.83 85.83 552.55 87.7 555.63 90.04 557.8 90.38 559.65 87.35 560.56 86.42 562.93 82.72 563.54 80.81 562.77 79.69 560.75 79.18 558.77 79.18 554.83 79.65 550.1 79.65 547.24 77.21 546.39 74.99 547.27 72.21 550.48 68.87 551.55 67.28 552.69 64.41 552.43 62.98 551.09 61.16 549.23 57.9 548.72 56.32 549.09 55.07 548.74 51.2 549.74 50.3 554.99 48.54 556.69 48.32 558.57 47.48 560.6 47.94 562.15 50.41 563.67 51.8 565.49 52.93 567.29 53.51 568.21 54.5 571.22 63.6 571.99 66.65 573.12 68.2 573.85 70.05 575.78 73.32 578.3 75.82 580.01 76.33 581.21 75.34 580.3 73.49 577.13 69.74 575.97 65.99 575.47 63.05 576.72 61.11 579.15 59.23 580.7 58.52 582.29 58.74 584.51 60.94 588.53 64.57 592.48 66.24 594.8 67 597.15 68.47 601.63 75.17 602.14 77.02 602.14 78.82 601.37 80.37 601.53 81.7 603.53 82.92 605.75 82.31 606.7 79.99 609.01 78.24 612.6 76.39 614.83 74.95 617.01 72.72 622.09 68.44 623.81 68.42 624.94 69.84 630 77.01 631.5 78.27 633.44 79.18 637.33 80.54 641.8 81.66 643.17 81.03 644.91 79.14 644.66 76.54 643.56 74.91 643.2 73.44 644.09 71.55 644.11 69.88 644.93 67.72 647.34 65.42 648.87 64.92 651.47 66.78 654.61 68.33 657.95 69.06 662.24 68.64 662.79 67.34 661.99 66.04 660.25 64.77 656.92 63.14 656.77 62.24 659.27 61.17 659.93 60.53 661.4 57.79 662.56 56.34 665.62 54.54 669.96 53.08 671.82 52.73 674.95 51.45 675.95 50.44 676.56 48.68 676.84 42.32 676.23 41.03 673.86 39.16 671.84 38.55 669.84 38.88 667.85 41.61 666.52 44.04 664.95 43.46 663.15 40.87 663.23 38.65 662.4 37.77 658.13 35.16 658.19 33.09 657.73 31.87 654.1 26.06 652.69 24.82 653.18 23.31 655.55 21.79 657.89 20.99 660.67 20.63 661.91 21.07 664.59 22.79 666.68 24.61 668.6 24.6 669.54 23.03 669.96 19.35 670.75 17.98 674.72 16.19 677.85 14.08 678.59 13.25 680.86 6.45 682.36 3.89 684.05 2.47 684.89 1.18 685.25 1 689.95 2.37 692.7 2.04 693.3 3.01 693.51 6.23 692.7 8.58 694.73 10.15 694.9 11.12 694.16 15.28 694.03 19.7 693.27 23.12 691.95 25.5 691.38 27.71 691.5 29.33 692.97 30.69 694.86 35.87 694.24 39.7 694.09 43.46 695.05 45.49 698.4 47.99 700.55 48.53 702.28 50.36 707.38 58.33 707.45 61.31 706.56 64.58 704.81 66.62 703.69 67.47 703.63 68.44 706.12 74.12 707.4 74.84 708.22 77 710.28 77.68 711.26 79.99 711.06 80.69 708.28 82.18 707.69 84.35 708.09 85.87 710.1 88.87 710.38 91.21 711.52 92.83 713.69 94.11 714.36 95.88 716.43 97.93 716.56 100.6 718.82 103.83 719.15 105.69 721.2 108.14 722.7 109.45 722.69 110.58 720.37 113.22 720.63 114.68 722.08 115.82 725.2 116.83 725.76 117.83 726.9 160.03 728.46 217.85 725.4 219 724.49 219.73 723.71 222.18 722.96 223.01 720.75 224.05 718.45 223.77 716.73 222.69 712.55 219.4 708.3 216.87 705.7 217.25 704.52 219.11 704.87 223.22 703.59 224.14 703.27 226.14 704.31 227.59 704.04 228.87 702.1 230.18 698.43 231.59 698.74 232.29 700.86 233.9 701.08 236.21 701.74 236.84 703.48 237.26 705.79 236.75 706.94 236.94 708.66 238.33 711.37 239.7 711.41 240.68 708.95 243.07 708.93 245.71 709.59 247.44 710.7 247.94 712.43 245.71 713.59 245.26 716.06 242.27 718.71 242.07 720.76 243.13 722.03 245.52 725.16 248.52 725.06 249.44 721.51 250.29 720.75 251.33 717.9 251.4 716.29 251.1 716.18 252.42 717.04 254.06 715.58 254.98 715.98 257.46 714.74 257.43 713.66 258.72 712.08 259.71 711.53 261.86 712.95 261.45 713.91 261.93 713.96 263.07 712.69 263.14 712.33 265.31 710.46 266.08 711.28 268.15 710.56 271.67 714.21 270.2 716.44 270.54 720.45 270.37 722.48 269.86 723.31 270.89 722.43 272.15 722.85 273.72 723.93 273.86 725.1 275.88 725.57 278.66 727.79 278.81 728.88 278.24 729.81 276.84 728.8 275.85 728.74 274.78 730.05 274.6 728.75 271.57 728.77 269.99 730.42 267.43 731.21 267.24 731.8 265.81 733.81 266.25 733.36 268.87 737.55 271.31 737.34 274.89 739.07 276.12 738.93 279.68 738.17 281.22 735.58 283.79 734.91 285.27 735.27 286.84 731.24 290.65 731.56 291.57 732.88 291.44 734.13 292.82 736.33 292.92 737.46 294.3 737.44 297.09 735.86 299.13 733.66 301.16 729.99 302.74 729.57 304.05 730.08 305.69 729.72 306.79 730.17 310.28 734.32 313.73 737.44 318.53 737.29 319.28 734.96 320.76 732.88 322.95 731.94 323.52 730.41 323.59 729.73 325.04 730.38 327.4 731.39 328.3 733.78 329.12 734.28 331.13 732.37 333.52 732.83 336.6 734.57 337.46 736.65 339.92 737.53 341.72 739.28 344.18 740.09 346.66 739.3 348.79 738.08 348.75 737.03 349.88 737.78 351.39 735.98 355.33 736.09 356.48 738.02 357.5 740.98 358.06 742.6 359.75 743.27 362.69 742.85 364.14 741.72 365.95 737.66 367.25 736.66 368.26 737.53 370.52 742.71 371.89 738.37 376.49 735.81 376.55 734.44 379.52 734.75 380.44 736.07 380.72 737.03 384.86 736.87 389.64 738.81 392.95 738.8 394.88 737.6 396.9 737.49 398.5 738.32 400.58 738.27 401.81 737.4 402.7 734.98 402.56 734.5 403.17 734.44 405.88 734.79 406.46 737.24 406.72 738.43 408.65 738.84 410.74 737.08 411.46 733.06 410.59 731.06 411.84 729.32 413.65 726.14 417.86 728.63 420.23 732.13 421.44 733.42 422.45 734.77 422.51 736.96 421.84 738.05 422.08 739.4 423.86 739.93 425.68 738.64 428.71 740.6 429.27 741.01 431.38 742.45 432.26 743.33 435.69 744.53 438.27 746.42 440 749.18 443.89 749.8 446.49 750.27 450.69 749.25 451.86 750.16 454.73 751.78 457.85 753.85 460.4 754.4 463.34 755.1 463.74 756.2 466.41 756.16 469.06 757.36 470.31 758.03 472.23 759.4 473.22 761.08 475.26 763.39 481.8 763.74 483.57 764.72 483.81 768.65 488.12 769.26 489.32 767.79 489.61 766.06 492.39 764.05 493.55 763.9 494.45 758.28 495.16 756.57 495.66 755.75 497.76 756.05 500.84 755.5 501.43 753.27 502.14 751.42 503.54 749.78 505.72 748.5 508.45 746.16 509.38 745.83 511.41 744.07 512.87 743.37 516.85 742.21 518.56 742.19 520.55 741.65 521.99 741.62 525.94 740.26 528.83 739.48 532.99 738.36 534.41 737.16 535.21 735.64 537.88 733.16 544.77 733.09 547.01 731.94 549.72 729.45 551.62 728.49 552.71 726.63 553.98 723.79 558.17 723.88 559.41 721.14 562.15 719.38 563.21 718.65 564.68 716.66 566.31 715.27 565.51 714.27 565.82 711.39 565.49 706.59 565.33 704.28 565.89 701.66 564.97 697.23 562.63 693.91 562.96 Z"/>
</g>
</svg>