<?xml version="1.0"?>
<svg xmlns="http://www.w3.org/2000/svg" version="1.2" baseProfile="tiny" width="800" height="348" viewBox="0 0 800 348" stroke-linecap="round" stroke-linejoin="round">
<g id="4215554">
<path d="M 602.44 55.23 602.05 57.73 597.01 65.33 595.44 69.08 595.72 71.62 599.33 73.43 601.96 78.36 603.03 83.26 604.44 85.36 608.05 88.47 611.58 97.11 612.72 102.22 613.99 104.24 621.07 108.72 624.53 110 631.3 115.71 631.43 118.59 633.48 122.29 633.54 124.62 636.49 131.57 641.32 134.8 643.45 137.46 647.51 145.5 647.95 148.67 650.86 152.23 653.86 154.43 656.72 158.97 658.92 160.43 659.37 162.38 661.64 164.76 662.83 167.61 667.08 169.07 670.24 172.56 669.99 176.48 670.73 179.18 677.5 186.38 671.94 188.53 667.33 198.52 669.1 204.13 673.41 206.67 677.73 206.47 682.86 205.36 687.08 203.79 694.64 199.53 697.62 197.31 699.68 197.91 700.94 202.03 701.07 205.58 702.92 216.78 704.2 218.87 714.06 228.29 717.79 230.88 723.59 227.71 729.04 227.41 736.01 233.01 740.58 234.95 745.21 239.14 751.07 242.72 757.4 242.84 761.2 243.9 767.33 247.43 775.23 254.75 778 256.64 784.85 263.2 786.03 264.91 799 302.66 790.5 299.84 783.26 300.05 778.36 299.25 771.85 300.9 769.42 302.34 766.37 308.92 765.43 312.07 760.53 315.78 755.65 315.01 753.53 313.03 751.76 309.15 749.47 306.46 746.29 305.14 737.15 308.47 732.18 308.1 728.55 305.24 728.52 302.1 724.32 302.13 719.26 301.26 711.5 302.39 706.18 302.36 698.62 300.12 697.57 298.34 694.09 297.23 691.86 297.55 685.35 305.62 679.12 309.59 678.64 315.7 686.69 321.63 685.63 323.14 681.98 324.7 676.82 324.51 668.59 321.8 663.95 319.38 661.91 317.47 661.38 310.65 652.24 307.59 646.41 306.8 642.86 307.44 637.98 309.4 630.67 311.08 627.89 312.63 627.02 316.83 629.07 319.7 639.07 324.24 639.01 325.66 635.55 327.04 624.45 324.19 620.79 322.62 618.79 322.83 614.78 328.18 615.22 330.74 616.89 332.94 620.26 335.12 625.59 337.53 625.63 338.78 617.61 341.51 614.98 341.26 611.8 339.04 608.3 339.5 608.52 344.88 607.04 347 601.57 346.22 593.96 342.41 590.36 339.67 581.01 336.44 573.44 336.44 569.29 337.7 567.49 339.54 321.56 328.32 318.03 333.43 311.59 336.35 307.9 339.48 305.51 340.52 296.05 338.26 291.67 336.33 284.82 334.33 277.06 330.23 272.69 328.46 267.71 329.17 262.55 329 256.9 324.34 253.67 323.32 249.13 322.99 240.54 323.09 234.26 324.5 229.5 323.18 221.7 317.71 220.3 315.17 216.33 310.9 212.57 308.42 203.86 304.75 194.58 302.84 191.35 307.5 188.61 307.32 186.38 305.49 177.52 304.5 172.83 304.44 165.35 305.71 162.8 304.87 154.33 298.81 150.31 298.02 146.87 295.8 134.2 291.53 131.84 288.51 129.18 283.48 127.83 287.93 125.96 283.36 120.52 278.36 105.31 275.5 85.48 266.91 58.67 259.15 39.82 251.03 24.5 244.2 12.04 235.55 2.82 223.38 1 216.13 2.63 211.63 6.79 208.17 15.17 199.76 40.52 180.84 93.62 151.62 103.87 147.96 111.11 146.12 117.84 142.96 120.52 138.65 119.44 135.61 113.64 131.55 108.23 129.98 96.23 128.66 90.64 126.42 86.55 123.05 86.01 117.01 87.76 109.71 86.5 91.76 89.39 84.49 98.37 74.77 103.1 71.12 122.23 62.03 129.15 56.89 128.95 48.98 118.31 42.59 109.58 40.83 128.21 42.17 353.77 1 387.89 39.83 428.73 19.68 434.68 19.49 450.25 21.08 458.35 14.98 461.82 13.5 471.57 11.11 483.02 9.86 484.55 10.21 487.81 13.13 494.12 16.5 507.29 20.66 514.5 21.49 518.66 23.97 521.45 26.37 523.28 26.62 529.46 21.28 532.49 20.84 539.39 24.45 546.96 25.27 551.99 27.07 556.18 26.82 560.27 31.87 565.21 35.85 569.08 37.35 573.52 40.55 576.4 41.22 578.51 44.12 580.83 45.57 588.24 48.8 598.21 52.32 602.44 55.23 Z"/>
</g>
</svg>