<?xml version="1.0"?>
<svg xmlns="http://www.w3.org/2000/svg" version="1.2" baseProfile="tiny" width="800" height="566" viewBox="0 0 800 566" stroke-linecap="round" stroke-linejoin="round">
<g id="4215695">
<path d="M 254.05 14.73 251.9 17.5 252.88 32.04 256.83 36.03 262.23 38.14 266.66 40.8 273.42 47.08 278.36 47.55 286.01 45.67 305.87 42.21 314.94 38.77 318.18 38.31 327.99 40.77 334.46 45.58 339.88 50.37 354.14 64.49 359.38 68.26 368.3 73.75 372.71 77.27 383.13 82.52 387.65 84.32 399.03 94.55 409.12 97.94 417.54 102.31 419.23 105.29 422.99 108.79 429.14 118.86 430.93 120.81 434.94 122.01 439.56 121.56 449.8 118.51 460.08 110.77 463.65 110.93 470.11 124.35 473.48 130.78 474.56 136.41 473.4 141.96 474.55 153.38 473.25 160.06 473.12 164.79 474.9 172.5 475.5 178.4 478.9 185.92 478.65 190.62 479.6 193.19 482.2 194.88 492.79 193.24 498.72 191.57 502.35 193.65 498 198.67 489.92 201.15 474.59 204.64 470.2 206.43 465.05 210.15 460.46 214.94 452.53 220.98 448.3 225.5 448.91 231.32 451.36 237.1 453.47 239.73 460.45 245.43 469.07 246.27 475.95 244.48 491.91 242.06 503.43 237.76 505.68 235.85 515.46 232.91 525.3 230.61 529.68 231.55 534.36 252.33 532.99 258.86 528.82 257.96 522.25 258.61 520.67 263.23 521.83 272.04 521.28 284.78 522.16 290.64 525.11 296.89 528.66 302.02 533.93 304.32 538.54 299.37 544.97 297.35 548.44 297.44 551.72 301.21 562.7 306.95 567.17 308.81 577.03 316.78 581.54 321.06 588.37 319.83 597.07 315.63 600.85 312.5 605.28 305.24 608.95 294.04 608.28 287.5 610.94 278.12 613.16 275.09 619.97 276.07 627.15 282.22 630.21 286.59 632.72 292.85 636.11 306.89 641.1 321.86 642.16 323.78 647.56 324.02 651.88 322.76 661.2 318 667.62 311.45 670.28 307.52 667.29 301.85 664.12 293.76 662.22 287.46 661.23 276.56 659.81 269.72 658.91 254.32 661.55 251 665.18 249.76 677.3 259.76 680.64 265.03 682.88 270.67 686.64 275.16 696.75 277.44 707 278.72 712.34 284.65 712 289 712.95 294.12 712.78 300.65 709.89 310.69 708.44 322.05 707.6 331.95 709.8 335.5 715.7 336.85 732.12 333.42 743.63 331.86 752.83 331.54 758.05 332.14 765.11 334.38 772.15 335.6 785.37 340.1 790.88 343.74 793.9 347.67 796.38 353.42 799 364.23 797.34 369.4 792.17 371.89 775.71 381.12 761.63 390.2 752.5 394.75 747.4 398.11 716.45 372.05 707.27 374.58 696.94 377.99 689.47 382.18 683.47 387.7 683.84 393.05 682.53 396.72 675.98 404.57 670.49 409.64 664.33 413.1 658.44 411.92 653.86 415.33 649.41 415.19 643.19 417.43 640.04 420.03 635.9 421.36 630.07 420.6 623.68 421.02 614.31 423.31 610.09 425.46 603.7 431.28 590.72 433.04 581.17 433.09 565.27 429.63 560.97 434.11 549.19 443.46 539.86 447.23 529.28 453.22 525.19 457.57 523.94 462.25 526.71 466.59 526.98 470.48 523.67 477.61 514.22 487.17 513.36 490.88 514.68 494.34 520.97 502.33 517.09 505.73 504.47 508.76 500.4 510.64 494.4 515.88 491.25 519.47 484.64 530.61 481.49 532.9 473.96 530.51 468.47 529.44 464.62 529.63 459.25 533.31 455.35 535.04 450.67 538.35 438.42 542.28 433.64 546.25 428.53 562.26 329.97 553.77 317.15 551.98 313.35 556.12 311.93 559.54 299.2 558.46 283.1 557.64 276.52 560.15 266.59 561.31 251.39 564.36 245.16 565 238.63 563.83 228.73 560.32 221.68 563.16 216.14 563.38 207.47 559.58 201.58 560.94 193.52 560.59 189.76 557.51 184.57 555.57 178.94 556.64 172.48 559.26 169.71 559.64 166.74 558.14 166.28 555.37 169.23 547.94 169.43 544.59 167.8 540.97 161.25 537.82 154.49 536.24 150.28 534.36 144.5 533.3 130.79 522.71 121.09 516 116.97 509.53 114.38 506.96 97.18 499.01 91.31 496.9 89 490.94 80.35 483.22 76.49 481.38 65.82 477.85 59.54 472.81 48.51 467.87 45.48 467.42 39.43 468.21 35.18 467.98 29.53 469.58 27.19 465.08 26.94 454.1 24.98 447.41 24.7 443.43 26.27 439.78 32.52 433.31 34.25 425.79 31.27 409.5 29.98 404.54 31.83 396.86 30.07 381.18 28.68 376.76 29.01 368.97 34.8 362.65 36.49 356.83 38.56 352.96 42.14 349.65 54.12 345.03 59.9 340.46 62.01 340.27 73.95 342.5 80 341.71 87.41 336.55 97.14 331.44 99.88 330.93 105.37 328.04 112.6 329.09 118.09 334.11 124.68 336.46 125.27 343.91 130.01 343.74 134.53 344.91 127.9 295.78 124.19 255.25 115.8 253.12 108.6 252.27 103.64 249.95 101.26 246.66 95.93 245.4 90.58 245.48 82.9 239.7 81.65 233.09 78.35 227.74 72.44 222.25 70.9 219.58 73.9 213.37 67.01 202.16 64.08 195.72 65.31 189.7 65.31 183.74 63.99 180.52 59.23 176.86 51.76 174.73 50.43 171.74 50.92 163.51 49.64 159.08 46.27 157.63 37.69 158.95 34.21 155.4 33.7 152.92 34.24 142.67 33.09 140.46 21.74 129.24 19.15 127.29 14.81 121.97 7.01 102.58 5.74 92.35 3.87 86.59 1 84.68 6.77 77.61 12.93 73.62 20.19 72.14 32.05 64 35.9 58.4 38.11 56.64 46.13 53.85 49.46 51.38 50.53 48.97 53.81 46.05 57.58 44.45 59.43 39.82 66.09 36.82 71.02 32.39 76.04 31.08 80.56 26.66 81.96 23.6 81.54 16.81 82.6 15.24 87.2 14.85 94.27 18.94 97.9 18.64 104.63 19.88 112.6 16.02 121.33 15.4 124.45 12.86 129.31 1.44 131.05 1 140.95 3.97 151.15 10.59 152.94 10.84 172.63 3.81 174.4 3.83 254.05 14.73 Z"/>
</g>
</svg>