<?xml version="1.0"?>
<svg xmlns="http://www.w3.org/2000/svg" version="1.2" baseProfile="tiny" width="800" height="937" viewBox="0 0 800 937" stroke-linecap="round" stroke-linejoin="round">
<g id="4215208">
<path d="M 789.22 151.21 788.7 152.37 782.95 155.79 778.94 158.8 773.04 164.55 769.6 165.48 767.1 164.89 759.2 161.37 756.5 159.32 754.14 158.84 752.47 159.58 751.82 162.17 752.94 168.01 755.52 171.73 757.1 179.83 760.93 184.62 763 185.95 766.28 186.81 773.73 185.6 779.12 185.78 783.17 182.66 787.58 176.22 791.09 175.47 795.67 179.54 798.93 185.85 799 188.4 795.74 192.35 792.43 194.89 789.14 200.09 787.03 201.41 781.13 201.82 776.88 200.64 774.59 199.25 769.24 195 765.44 191.28 763.89 190.9 759.12 191.44 754.08 193.87 746.61 196.73 744.4 196.92 740.13 194.87 738.37 193.33 732.61 186.65 730.98 185.97 729.12 187.05 725.3 191.43 720.53 194.47 706.67 195.67 704.56 197.77 706.98 200.65 713.54 206.53 718.28 211.29 722.06 216.04 724.27 217.18 728.62 217.86 735.11 217.14 738.53 218.88 743.67 228.13 743.97 231.54 745.02 234.18 750.1 239.59 752.27 240.73 755.39 240.68 757.78 242.35 757.24 244.13 753.7 248.1 748.73 250.48 745.67 254.05 746.69 258.43 749.59 259.23 751.19 260.49 750.32 262.63 748.26 264.7 744.58 265.72 735.74 265.8 733.62 267.39 728.37 270.06 727.24 272.71 729.02 275.26 731.14 276.66 735.51 286.55 737.25 288.3 744.01 289.39 745.2 290.95 743.73 299.18 741.65 304.83 738.48 309.86 739.04 311.76 741.49 313.96 744.07 314.81 749.02 311.48 750.87 311.85 753.14 318.77 752.45 322.33 749.7 323.81 744.33 325.37 743.02 326.58 740.2 331.37 739.81 334.76 739.7 343.65 738.66 348.12 739.3 352.15 742 354.38 745.48 355.27 751.15 353.44 754.87 352.73 761.64 354.18 763.28 354.95 767.95 359.5 770.82 363.87 770.72 365.93 764.14 367.43 761.38 367.67 759.35 368.88 752.32 371.55 749.52 375.16 749.48 378.62 752.62 383.04 756.26 385.62 764.25 392.76 765.32 394.11 769.74 402.48 773.1 406.96 774.16 409.16 774.19 411.68 775.2 413.88 775.6 416.97 774.79 423 773 426.86 771.27 434.57 768.43 436.21 763.88 433.44 761.43 430.68 758.54 428.66 753.63 424.39 750.49 422.37 742.86 419.29 738.09 416.88 734.51 414.46 731.02 412.93 728.15 414.73 728.14 419.07 728.72 422.95 728.38 425.26 728.78 435.33 729.84 438.42 732.76 439.75 737.01 440.24 746.38 442.72 750.51 444.24 754.89 447.08 756.47 449.88 756.89 455.29 756.71 463.13 755.24 470.15 751.09 472.52 746.41 471.42 732.91 465.46 716.45 456.79 711.87 453.65 704.17 450.12 700.3 447.81 697.33 445.18 692.88 440.49 687.18 433.82 683.67 431.04 681.7 428.6 676.32 424.15 671.07 422.75 668.21 423.69 664.01 426.08 662.57 428.11 662.83 431.77 665.61 435.88 668.22 438.22 670.82 444.9 671.15 448.7 670.15 450.66 665.95 453.54 650.97 462.12 646.45 465.63 644.22 468.16 642.08 473.37 642.77 476.03 645.92 478.16 652.07 480.61 664.3 483.72 670.82 485.05 679.37 487.67 691.71 493.94 692.76 496.54 689.69 500.96 685.09 505.96 676.93 509.97 671.25 512.27 668.14 514.2 664.41 518.28 661.54 522.81 659.85 526.48 658.7 527.56 655.39 526.68 651.43 520.65 646.95 512.49 645.13 511.28 636.52 509.83 631.52 510.66 628.69 512.37 626.74 514.61 626.2 517.67 626.55 520.52 628.11 524.58 630.69 526.51 631.03 532.49 632.4 539.95 635.32 545.16 636.17 547.78 638.53 551.24 640.05 555.13 642.98 560.83 648.19 568.84 649.02 572.42 647.3 574.2 645.01 574.88 641.72 574.63 633.22 570.9 631.64 569.68 621.98 564.27 619.55 563.44 615.52 563.49 609.39 562.65 603.88 561.25 601.22 562.46 591.08 565.69 586.17 565.83 580.3 566.87 575.25 567.12 570.68 565.09 566.42 564.24 564.63 564.73 563.44 566.87 563.24 573.28 565.23 581.11 567.91 583.59 570.47 589.36 569.02 592.66 563.87 597.29 562.46 597.78 558.06 596.08 554.91 593.33 547.09 582.98 545.16 579.5 535.48 567.63 530.92 564.92 528.68 564.72 528.48 567.2 524.15 572.93 523.32 577.04 523.76 583.31 524.48 586.93 522.29 592.09 520.82 593.63 512.41 597.4 506.88 599.39 501.85 601.62 497.63 604.42 495.6 608.59 498.21 624.02 499.21 626.92 502.83 627.28 506 625.72 513.31 624.58 516 623.27 519.02 623.14 521.81 624.41 525.02 626.75 526.73 630.31 530.57 631.93 535.16 634.62 535.35 636.3 533.32 639.49 528.58 641.9 520.19 644.79 516.08 644.51 509.31 643.05 503.85 642.24 495.79 645.29 490.65 648.65 489.42 652.14 491 656.58 492.81 658.19 496.29 658.89 510.04 658.77 512.45 659.38 519.45 662.81 524.72 664.84 531.08 668.48 536.93 673.55 538.64 676.06 538.73 678.32 536.98 680.22 529.42 684.51 524.29 686.41 517.9 687.64 509.27 690.19 499.06 694.07 494.28 694.58 491.39 693.49 478.77 685.16 473.38 682.72 469.31 682.53 464.03 682.88 458.49 682.3 452.12 680.71 449.52 678.85 447.76 676.47 447.44 673.11 449.11 668.77 450.5 661.33 449.25 655.53 447.49 653.02 440.38 647.73 434.83 646.56 428.01 646.38 424.92 648.93 424.46 653.06 424.64 660.02 423.22 666.41 420.12 670.78 417.32 673.72 412.32 681.15 411.26 694.66 412.1 698.66 414.04 702.9 417.95 706.56 422.51 709.59 432.42 714.25 434.68 715.68 438.55 719.58 442.41 726.54 444.52 733.27 446.32 740.32 446.07 743.32 442.58 745.86 440.13 745.81 438.42 745.46 432.16 741.57 424.41 737.36 421.27 736.4 416.65 735.91 412.79 736.32 402.68 735.86 395.04 734.7 391.64 733.21 388.82 731.28 387.41 729.47 386.84 726.03 387.38 722.59 389.27 719.07 390.82 714.98 393.03 712.72 394.99 707.28 395.22 703.54 394.64 699.56 391.52 697.29 385.24 691.31 379.47 680.44 372.59 671.62 369.19 668.95 365.13 668.05 362.91 668.15 359.49 669.4 357.26 671.17 355.43 674.68 354.07 681.55 354.22 684.86 353.68 690.69 352.46 698.57 351.91 706.43 350.09 715.68 345.74 729.5 344.26 735.57 340.49 744.03 336.64 748.87 335.18 749.79 329.24 751.16 325.72 750.43 319.93 750.63 315.94 749.96 311.29 748.23 307.12 745.85 305.31 743.9 303.91 739.82 305.13 734.17 309.43 728.09 315.85 722.54 318.71 718.47 318.97 716.15 317.66 713.86 314.33 712.53 309.85 712.75 303.32 716.44 300.78 718.35 295.35 723.45 293.37 725.87 288.79 733.19 283.03 739.76 279.27 746.01 279.52 749.11 281.26 751.98 285.73 754.67 292.91 755.99 300.19 756.86 305.14 758.02 311.22 761.63 315.1 764.71 318.31 766.52 326.06 772.4 330.22 775.89 334.74 778.95 342.8 785.72 349.91 790.28 356.05 796.43 360 799.73 360.69 802.27 359.96 804.27 357.51 806.59 350.34 809.71 345.11 808.72 339.35 806.32 335.56 805.18 329.73 804.65 328.22 804.11 321.7 804.76 318.39 806.88 318.01 811.01 318.47 813.37 321.15 818.19 322.88 819.81 325.09 819.29 334.19 826.1 340.81 834.78 343.67 839.33 347.19 843.55 350.28 852.09 349.69 855.77 347.74 857.3 344.78 857.52 341.07 856.08 338.34 853.43 335.35 851.43 330.45 846.64 328.1 841.73 325.74 839.26 323.5 836.01 319.83 832.06 316.9 828.32 312.12 825.05 302.5 821.45 293.83 818.91 282.15 816.07 277.3 815.17 269.31 816.52 265.88 817.65 260.7 817.75 258.16 816.59 255.32 813.63 254.89 809.24 256.88 803.67 257.35 797.17 255.92 791.97 252.48 786.64 249.1 784.64 243.24 783.87 242.41 785.67 240.19 787.61 237.99 791.96 237.55 795.91 239.5 809.94 240.05 812.17 243.08 819.58 243.71 822.28 243.8 827.38 240.95 836.06 239.35 838.97 236.84 845.11 235.74 849.63 235.53 853.24 236.97 858.34 239.8 862.16 244.99 866.59 252.43 875.61 255.89 884.37 255.79 886.99 253.56 888.9 248.81 889.03 244.69 886.39 241.15 883.4 234.33 876.6 232.83 875.78 228.76 871.69 223.55 868.9 219.02 867.48 214.81 866.7 210.26 866.58 201.72 865.52 199.16 865.46 190.45 863.68 186.92 864.37 185.48 866.58 185.63 869.59 186.73 871.75 191.17 875.43 195.51 877.47 204.91 883.42 207.51 885.64 210.78 889.38 213.01 893.4 215.06 898.32 219.4 907.3 221.93 913.33 224.44 921.96 224.76 924.51 223.36 928.37 220.65 931.18 208.65 935.75 204.41 936 198.13 933.87 192.19 933.65 197.27 932.4 198.61 930.56 200.93 924.11 201.98 922.31 202.98 914.12 202.02 907.63 199.77 902.8 196.83 899.15 192.96 895.3 182.56 885.94 179.02 884.67 176.42 885.45 174.94 887.36 173.37 894.27 173.18 898.9 172.51 902.6 170.77 905.9 167.91 908.47 166.15 908.73 162.38 906.67 156.11 900.94 151.7 895.98 150.16 893.33 140.32 881.57 138.16 880.01 132.33 878.78 126.5 879.29 119.61 881.29 116.31 881.68 103.07 880.53 96.1 878.91 89.32 875.2 84.65 871.26 81.34 869.37 77.87 864.56 76.01 860.77 74.32 856.13 72.08 851.56 69.99 846.19 70.19 842.7 70.82 841.61 74.65 838.53 81.23 837.88 84.38 838.12 87.01 839.18 91.67 842.27 96.35 844.25 101.04 845.57 107.91 846.5 110.2 847.34 112.85 845.83 113.41 843.37 112.41 838.94 107.46 828.23 107.36 826.97 108.92 823.8 111.09 822.14 117.7 819.25 135.23 812.73 138.35 812.06 149.61 812.57 159.29 814.64 162.57 814.68 170.85 814.12 176.15 812.69 179.47 810.97 182.32 807.13 182.69 803.68 180.56 797.21 178.45 788.92 176.7 784.47 175.34 779.09 177.02 773.92 179.04 770.41 181 768.89 179.81 765.66 176.14 763.39 172.6 762.13 164.29 757.71 158.97 755.97 154.62 753.29 151.8 750.07 147.21 746.05 145.66 743.91 139.72 737.63 136.93 736.05 126.13 732.18 123.13 732.78 118.61 735.3 116.99 737.24 115.48 742.41 111.99 751.45 110.3 754.75 109.43 758.05 107.71 761.83 107.43 766.56 105.32 774.86 103.67 778.25 100.68 780.9 95.43 782.74 83.83 784.4 82.22 784.82 73.32 784.76 67.13 785.77 58.03 782.16 56.38 779.86 51.43 764.93 49.8 758.28 49.61 752.04 50.1 750.58 49.66 746.26 48.84 744.61 41.63 736.72 30.17 727.35 29.53 725.68 31.1 722.3 34.65 718.26 38.24 714.82 42.96 712.04 47.4 708.2 49.24 705.64 50.89 704.6 57.62 702.41 62.08 701.4 75.14 701.56 79.15 704.29 84.04 712.52 90.27 719.49 94.94 722.23 102.98 725.67 106.15 724.78 106.85 723.08 103.06 714.21 101.49 709.11 100.18 703.36 96.93 692.62 95.1 689.51 91.14 681.15 91.41 677.2 90.25 674.18 87.26 669.94 84.65 668.01 81.26 664.5 75.45 657.09 74.61 652.61 75.23 651.06 79.48 645.89 83.21 640.51 83.99 636.01 82.74 633.97 77.45 629.87 74.48 628.3 69.98 627.41 66.44 627.32 61.47 621.06 61.04 618.85 59.3 617.95 55.08 617.4 52.47 618.54 49.82 624.92 49.15 627.66 49.16 631.29 47.42 634.52 44.79 635.6 34.75 634.08 31.23 634.11 19.56 635.9 12.05 638.62 7.72 638.32 3.67 636.96 2.32 635.89 1 632.9 1.47 628.85 2.68 625.32 3.66 620.42 3.51 614.83 2.6 611.25 1.96 605.77 2.55 603.84 5.06 601.4 9.19 598.51 18.67 594.13 26.14 591.19 32.67 589.1 41.61 585.71 51.41 580.19 58.2 576.95 61.35 576.65 62.07 571.64 61.77 567.29 60.19 563.3 57.59 562.28 45.02 562.56 36.84 563.62 57.76 546.23 82.26 572.24 85.52 573.25 87.54 572.7 85.84 567.38 85.85 565.43 91.5 562.23 87.61 559.22 85.17 556.4 85.44 554.83 90.29 550.41 93.59 545.02 89.06 544.11 87.98 541.7 88.62 538.99 94.6 537.13 97.17 539.84 100.18 537.69 100.52 534.1 102.26 530.8 102.67 526.67 104.23 524.57 109.06 522.46 110.73 520.63 110.37 517.23 111.78 515.58 115.1 515.19 71.24 500.83 98.43 431.67 90.18 374.51 91.92 372.4 95.91 369.44 73.73 333.09 81.9 326.65 113.67 302.19 142.82 279.63 192.57 242.21 260.1 190.71 277.53 177.04 281.38 178.19 283.56 181.8 287.46 185.6 290.75 185.98 294.67 187.81 300 193.51 305.14 194.98 312.98 196.79 319.49 196.68 322.54 198.74 337.35 193.83 455.15 169.72 453.12 161.43 580.58 135.33 568.96 92.45 619.97 100.59 658.32 114.55 637.05 30.32 721.65 1 726.74 4.08 728.18 5.99 728.27 8.69 725.58 11.31 721.42 12.22 718.9 14.39 717.63 18.42 714.11 21.81 709.84 25.23 709.32 26.97 710.47 29.27 712.35 30.1 721.06 30.86 725.93 32.22 730.8 34.16 739.02 36.2 741.35 37.34 742.39 38.85 739.88 40.99 736.34 41.59 732.9 42.92 731.7 44.89 733.58 48.36 735.21 56.16 738 62.31 741.71 64.98 747.09 65.75 758.04 67.78 763.19 68.1 765.27 68.8 770.98 75.16 776.75 78.07 785.01 79.07 786.68 79.64 787.32 82.12 785.67 84.37 785.39 86.37 786.24 89.02 790 94.18 791.43 96.72 791.91 101.03 791.19 104.07 788.72 107.08 785.21 108.58 783.09 108.22 773.12 104.38 764.14 101.32 759.91 101.21 755.79 103.13 754.83 105.44 756.16 108.36 760.08 108.94 764.94 113 770.78 116.18 771.91 118.46 772.15 121.51 770.86 124.32 769.16 126.27 761.24 132.22 757.8 135.24 756.45 137.93 757.14 140.9 761.85 143.31 766.53 144.43 773.16 143.9 781.15 144.73 785.66 147.53 789.22 151.21 Z"/>
</g>
</svg>