<?xml version="1.0"?>
<svg xmlns="http://www.w3.org/2000/svg" version="1.2" baseProfile="tiny" width="800" height="459" viewBox="0 0 800 459" stroke-linecap="round" stroke-linejoin="round">
<g id="4215604">
<path d="M 773.59 161.72 772.78 162.18 772.55 165.47 773.48 169.43 774.36 170.34 773.89 173.61 772.8 174.15 773.4 175.93 776.92 179.09 780.3 179.66 780.53 180.66 784.94 184.45 785.59 186.52 783.87 189.72 783.86 192.23 785.39 193.78 786.64 194.05 786.96 196.22 785.2 199.42 785.37 203.24 783.29 204.57 781.61 207.08 781.72 209.34 783.79 212.2 785.73 213.35 785.82 214.79 786.78 215.95 788.72 216.07 790.66 218.32 790.73 220.3 791.92 221.2 792.14 222.76 795.07 224.08 795.53 226.29 797.74 226.9 798.12 228.31 796.76 229.47 794.38 232.66 795.42 236.28 797.68 239.66 798.47 242.42 797.1 246.85 799 248.24 797.58 248.88 795.45 250.85 791.67 255.48 790.84 258.37 789.96 259.14 789.44 261.11 789.62 262.89 788.8 264.56 788.74 267.51 790.15 270.86 789.69 272.69 790.47 274.63 788.42 277.55 783.62 278.22 782.12 277.44 781.29 279.25 779.22 279.86 776.57 283.35 776.72 285.25 775.11 287.77 773.87 289 772.33 293.97 771.17 294.73 768.2 295.55 767.08 294.32 762.57 294.75 761.29 293.53 759.82 291.05 758.26 290.14 750.8 292.58 747.13 297.89 746.94 299.62 744.99 303.36 744.07 305.89 742.34 307.79 740.71 310.8 739.07 312.17 739.51 313.52 742.63 315.43 744.99 316.12 747.54 314.61 748.94 314.66 750.26 316.71 751.7 318.07 753.21 321.05 754.43 321.32 756.67 323.77 758.6 324.93 759.03 327.68 759.89 329.64 758.17 329.95 755.83 329.54 754.5 330.28 753.53 332.22 754.29 336.94 753.52 340.21 758.43 340.66 759.79 343.43 758.41 346.69 760.36 347.45 762.54 350.78 761.52 352.06 762.06 353.82 760.52 356.91 761.47 360.08 761.19 360.97 757 365.25 755.28 366.52 750.99 368.26 748.36 368.11 747.86 369.26 744.84 369.93 744.02 370.9 742.25 370.78 719.7 347.77 684.68 328.36 468.19 458 460.07 444.7 456.16 443.2 453.79 440.99 451.39 440.51 448.82 438.64 444.53 437.45 440.65 436.9 438.62 437.75 437.74 436.49 440.39 433.53 444.22 432.81 443.54 431.1 440.14 430.65 437.26 430.89 433.87 429.7 426.95 426.75 423.39 423.34 421.77 423.04 419.98 424.66 416.69 426.08 414.3 425.74 410.1 423.35 406.77 419.24 405.81 417.14 402.93 416.94 401.08 417.43 399.07 415.28 396 411.38 393.44 410.86 392.58 408.63 390.25 408.69 388.12 409.66 385.6 409.47 385.82 407.52 387.19 405.65 381.8 403.92 379.45 401.54 377.63 398.26 376 398.36 372.86 403.61 370.36 405.61 368.88 407.99 366.31 409.71 363.68 409.35 361.52 408.06 360.46 405.86 360.61 402.9 361.63 400.66 365.86 394.2 367.43 392.54 368.4 389.82 372.93 386.7 378.14 387.08 379.17 386.44 378.76 384.89 374.37 382.42 372.5 380.76 370.8 378.2 369.14 376.34 365.11 373.08 362.56 373.19 355.51 371.41 355.89 365.68 355.5 363.7 355.32 359.93 352.81 357.7 351.33 358.84 349.44 355.9 346.88 353.27 347.01 349.6 345.51 347.93 338.09 345 337.83 342.77 337.06 341.52 334.4 339.41 330.88 337.41 327.58 333.3 323.67 331.04 318.6 328.73 319.33 326.1 317.79 325.52 314.4 325.42 312.11 326.16 312.32 328.87 310.68 328.67 304.51 325.37 299.9 321.46 297.48 320.15 294.73 317.84 292.83 317.11 291.31 315.53 289.85 313.23 287.89 312.01 289.7 309.83 292.62 308.4 293.88 306.53 294.04 305.04 292.98 300.05 291.54 299.02 289.51 299.12 284.98 298.26 281.62 298.8 277.34 298.46 276.06 297.42 271.45 294.62 271.13 293.54 272.74 290.58 273.3 288.22 276.06 284.24 274.19 280.85 271.96 280.34 271.41 279.33 275.72 275.43 277.08 274.71 278.35 271.58 277.24 268.16 274.96 266.01 269.67 262.28 268.88 260.96 269.01 258.91 267.5 257 264.55 256.51 262.22 256.87 260.05 255.71 252.03 253.21 249.22 253.1 247.85 253.76 245.08 256.61 242.64 258.17 238.06 261.77 236.33 262.24 235.29 259.51 236.34 256.47 235.13 255.07 233.25 257.07 230.12 257.22 229.25 255.92 229.46 253.35 232.19 252.15 232.15 250.57 230.84 249.48 227.46 249.25 223.3 246.9 224.02 245.34 224.09 242.86 223.34 241.73 217.49 244.71 212.78 242.9 213.75 246 214.92 247.97 214.36 250.64 212.76 250.53 210.46 249.47 208.88 249.3 206 250.01 205.84 251.77 204.49 254.23 201.29 255.03 199.52 251.06 198.52 250.4 196.49 253.21 194.46 252.12 194.03 249.91 192.49 249.7 191.3 251.15 188.04 252.22 186.62 251.59 179.31 253.03 179.02 254.4 177.19 255.37 176.24 256.77 176.42 258.96 172.94 262.05 170.79 265.18 169.67 266.08 168.83 267.81 167.35 269.02 164.71 270.38 161.05 270.29 157.57 271.03 155.01 272.56 155.41 275.44 153.91 277.39 152.27 277.97 148.76 277.65 147.19 278.26 145.23 280.46 139.95 278.35 138.13 278.38 133.22 280.11 131.02 279.38 127.78 277.12 123.65 275.52 121.97 273.19 118.23 271.55 114.95 271.9 113.92 269.39 110.74 269.22 109.02 269.82 108.57 266.91 107.46 263.3 106.71 262.24 106.44 259.63 105.54 258.62 104.13 258.42 102.37 259.01 100.25 261.34 99.1 260.44 96.82 260.04 95.39 257.75 95.19 256.64 93.34 253.01 93.53 251.64 90.19 250.51 89.96 249.48 91.23 247.23 91.9 243.54 90.3 242.15 89.2 240.02 85.33 238.97 82.62 237.01 80.55 236.09 78.69 233.15 78.32 231.46 76.48 228.7 75.97 225.89 72.97 223.22 71.07 219.76 71.02 217.14 69.68 216.01 68.89 213.86 69.52 212.12 68.03 211.2 67.27 209.21 67.59 207.83 65.49 206.99 63.86 202.79 64.36 199.26 65.1 198.08 67.18 197.14 68.5 195.07 69.1 192.43 68.89 190.71 69.11 186.14 69.88 184.31 70.38 181.3 69.32 179.7 69.46 177.63 67.32 175.87 68.25 174.21 67.16 172.88 64.66 172.71 64.54 169.64 62.64 168.92 62.13 167.33 60.38 164.7 60.28 163.22 58.3 162.59 57.47 161.71 54.33 160.34 53.39 158.95 52.29 158.74 49.29 159.27 47.92 158.45 47.34 156.69 45.2 156.41 43.53 154.48 40.79 154.85 39.1 153.43 37.97 151.35 33.78 150.07 33.18 146.46 31.88 144.61 29.9 140.31 30.85 137.06 30.15 135.35 27.93 132.03 27.1 127.64 26.99 124.79 24.97 121.98 23.32 120.48 21.83 116.06 21.46 112.88 19.47 108.69 17.88 106.45 16.03 105.09 12.8 103.33 14.78 98.22 15.03 95.57 14.32 94.25 10.56 92.13 10.24 90.61 11.05 87.08 11.32 83.35 11.04 79.84 10.19 79.57 6.77 81.04 7.1 77.96 6.81 75.82 5.37 71.67 2.95 70.76 1.32 69.64 1 67.93 2.16 66.7 2.78 64.8 2.5 61.39 4.02 55.76 3.92 54 4.72 49.53 5.22 48.26 7.97 46.41 10.04 43.44 11.41 39.49 12.57 38.29 14.52 33.78 14.13 31.37 15.37 26.23 14.83 18.68 14.35 16 16.58 14.12 18.95 14.02 20.63 14.45 22.24 15.72 26.12 17.43 27.94 16.24 30.1 10.69 31.28 9.94 33.49 10.59 35.74 11.85 40.07 12.57 51.52 10.28 54.74 10 56.35 8.66 58.61 4.14 59.67 2.83 62.11 1.51 64.73 1 65.81 1.33 68.04 3.93 71.23 4.83 73.62 4.09 75.18 2.49 77.62 3.31 79.32 5.86 81.91 6.66 82.92 8.56 85.25 10.1 85.74 11.59 88.64 14.83 91.08 16.53 92.88 17.02 96.5 17.22 99 18.3 99.74 19.18 102.57 20.56 105.44 21.01 107.55 22.36 108.99 24.09 110.58 27.38 113.25 28.04 116.64 27.61 121.22 30.13 122.58 31.33 124.32 35.06 125.74 36.37 132.29 39.38 140.43 42.9 142.38 45.01 143.41 45.34 147.55 44.5 150.14 46.32 152.58 47.12 157.54 47.71 161.44 49.05 163.75 50.51 165.27 50.56 173.03 47.43 175.13 46.89 183.05 46.45 187.44 45.96 190.68 44.57 198.43 42.49 202.29 42.62 207.19 44.21 209.71 44.44 212.95 46.3 213.87 48.3 214.05 51.31 217.16 54.73 219.7 54.86 222.3 54.39 224.66 55.22 227.69 58.12 232.24 59.56 233.24 61.23 235.42 63.76 237.86 65.09 239.76 66.89 242.1 67.86 244.07 68.19 246.59 69.69 250.5 73.21 253.74 73.7 257.75 72.95 259.26 72.95 263.19 74.37 268.07 74.83 273.24 77.35 275.14 78.66 277.53 81.77 278.35 82.18 283.48 82.34 290.06 82.08 296.3 84.44 298.92 85.63 302.6 85.57 305.45 86.37 308.17 85.32 310.02 86.5 312.1 86.96 315.29 87.09 318.34 88.12 320.99 89.94 323.33 90.41 326.82 89.35 328.62 88.02 330.83 88.48 332.09 89.51 333.96 92.57 336.45 93.65 338.71 93.18 340.87 94.03 342.52 97.08 349.37 98.89 353.97 99.71 356.23 101 356.62 102.49 358.62 104.44 360.06 107.22 361.81 111.54 363.66 114.42 367.77 119.15 368.61 122.36 370.13 124.19 371.88 127.07 375.99 132.48 376.81 133.13 381.53 132.93 384.85 134.38 386.99 134.21 388.49 133.12 390.69 132.39 391.15 131.63 394.1 131.44 395.1 129.48 397.01 128.24 400.03 132.42 402.59 135.4 403.76 134.65 405.45 135.08 406.62 133.68 407.27 131.03 408.67 129.51 408.83 127.78 414 126.49 415.69 125.24 420.48 123.73 421.1 122.62 421.55 118.29 422.8 116.68 425.86 113.99 428.26 112.44 429.52 110.92 429.82 109.43 431.91 109.76 438.18 109.25 441.98 109.46 444.24 105.03 446.15 103.4 450.42 101.6 451.28 99.94 450.73 97.58 452.57 94.54 454.84 86.41 457.27 84.35 459.36 84.25 461.62 85.89 462.86 87.33 463.47 89.8 463.06 93.2 463.16 95.26 465.63 97.01 468.1 97.73 470.16 97.62 471.7 99.06 473.14 102.77 472.93 108.02 473.8 110.24 476.6 111.06 477.26 112.26 476.7 116.25 474.38 120.34 473.76 123.55 474.06 126.13 475.3 128.6 477.62 132.35 480.95 137.15 483.1 139.18 484.76 143.52 485.01 150.77 485.64 151.83 488.41 153.62 489.69 156.17 490.08 158.24 489.49 162.35 490.47 164.87 492.15 166.94 493.65 168 494.78 170.1 495.42 173.27 494.83 174.64 494.83 176.75 495.55 178.5 498.12 181.79 498.59 185.2 497.3 187.97 495.35 188.89 493.39 190.85 492.23 193.7 491.64 196.81 490.62 199.9 490.62 202.37 492.16 203.4 495.54 203.28 497.58 204.28 501.54 205.11 502.35 204.35 507.04 203.56 510.62 204.46 513.62 203.62 515.3 202.02 518.05 200.65 518.65 198.53 520.33 197.34 522.46 196.63 523.4 195.15 527.31 195.67 529.35 195.2 530.95 196.09 532.88 198.72 533.47 200.66 537.52 203.13 538.86 203.35 541.21 202.41 545.64 203.48 546.97 205.2 548.28 205.54 551.01 203.36 553.1 201.2 553.82 199.57 556.42 199.01 558.63 196.91 560.07 197.79 562.61 197.21 563.28 200.96 562.82 203.73 563.71 205.91 569.52 206.66 572.01 206.4 573.75 208.43 575.42 209.15 578.29 208.52 582.88 208.47 583.43 209.04 585.56 207.48 586.65 207.34 588.98 205.47 589.72 203.36 590.82 204.53 592.28 204.97 597.43 203.47 599.91 203.54 601.09 202.39 602.74 201.92 605.41 202.03 606.58 201.66 608.48 203.39 607.74 204.69 608.01 206.52 611.81 206.7 613.53 208.51 613.83 209.93 615.54 212.05 618.14 212.03 619.27 213.23 621.08 212.4 620.76 210.72 773.59 161.72 Z"/>
</g>
</svg>