<?xml version="1.0"?>
<svg xmlns="http://www.w3.org/2000/svg" version="1.2" baseProfile="tiny" width="800" height="872" viewBox="0 0 800 872" stroke-linecap="round" stroke-linejoin="round">
<g id="4215679">
<path d="M 799 526.7 794.89 524.42 793.27 523.77 790.02 523.2 787.74 523.2 785.13 525.03 783 524.73 780.79 523.49 779.06 523.76 777.31 527.31 776.27 528.25 773.84 529.36 771.22 531.74 768.31 532.01 767.17 532.69 766.36 534.7 764.72 537.37 762.19 537.15 759.93 535.29 758.37 534.62 753.26 534.78 751.22 535.45 750.67 537.3 751.31 539.98 750.74 540.79 747.65 542.29 743.32 545.11 741.84 545.66 739.85 545.82 737.7 545.5 733.43 546.9 732.06 547.72 730.94 549 730.08 551.67 729.06 552.6 728.04 555.37 726.49 558.47 724.45 560.22 718.46 560.7 715.63 562.69 715.2 563.56 713.44 565.1 710.96 568.02 707.45 569.96 705.21 574.88 703.6 576.4 702.72 576.45 701.07 575.56 699.97 573.71 697.32 574.03 696.07 576.35 696.13 577.89 696.87 579.6 693.53 580.48 691.39 581.55 688.31 582.37 688.04 582.87 689.51 585.41 686.45 586.74 683.06 588.51 680.17 591.11 680.29 592.9 677.94 596.2 675.17 598.34 673.7 598.38 671.39 596.91 667.38 595.6 666.29 596.57 667.32 601.81 667.21 603.6 663.43 602.48 661.34 602.54 658.8 604.34 657.46 606.48 658.45 607.98 661.86 607.44 663.38 608.68 664.59 611.37 663.44 613.95 662.29 614.57 655.61 614.41 654.3 615.15 654.01 616.35 654.25 619.57 653.03 620.94 650.31 622.4 648.61 624.67 647.09 624.58 647.59 622.59 647.35 620.65 646.06 618.47 643.83 617.47 642.54 617.5 638.89 620.9 638.87 621.66 639.99 624.07 640.43 626.17 643.87 629.26 644.76 630.61 644.2 631.69 640.77 632.89 639.47 633.7 636.33 636.94 636.8 638.12 639.88 639.06 640.44 639.68 639.66 641.98 639.69 643.73 640.72 646.57 639.87 651.85 638.62 653.04 635.44 655.04 632.57 658.2 628.31 662.2 626.67 663.17 625.1 666.03 624.47 668.64 623.31 670.44 622.86 674.65 622.76 679.18 625.5 681.13 625.25 682.5 624 684.02 622.15 684.81 621.43 685.84 621.43 690.12 620.05 690.48 616.43 690.7 615.21 690.47 613.73 690.93 611.72 692.38 611.38 693.33 611.93 696.75 610.43 701.38 609.28 702.87 607.66 702.93 606.45 700.08 605.14 700.62 604.3 702.49 610.94 706.55 611.41 708.2 608.75 710.57 607.32 710.58 605.44 708.51 604.79 708.85 603.86 711.87 600.47 714.89 598.71 718.23 598.89 721.45 598.75 725.08 598.42 727.08 598.64 729.68 600.15 734.73 599.42 736 597.7 735.8 593.5 734.3 590.03 732.7 586.62 732.4 585.43 731.11 585.83 727.72 585.43 726.77 582.93 726.04 579.88 727.06 578.64 728.01 573.97 733.69 573.18 735.69 573.87 741.69 573.62 743.31 572.11 745.86 569.49 746.87 568.46 745.57 568.35 743.41 567.51 742.28 564.89 742.24 562.9 742.61 561.84 741.99 561.14 740.39 558.39 738.4 556.31 738.87 554.41 741.35 552.27 741.53 549.48 738.32 548.8 738.51 547.86 740.35 542.66 740.89 539.97 742.41 539.41 743.19 539.63 744.68 540.98 745.84 540.91 747.39 538.68 749.2 538.9 750.12 540.78 751.4 541.6 752.4 540.84 753.49 535.86 755.37 534.24 756.45 535.37 758 536.93 758.4 538.98 760.37 539.47 762.19 538.87 763.33 535.06 763.07 533 762.25 532.5 759.65 531.91 758.94 528.45 758.11 525.19 758.1 521.02 759.14 519.05 759.85 518.06 761.33 518.46 762.42 520.71 764.89 521.47 766.67 520.86 767.69 518.46 769.67 518.04 770.5 514.27 774.62 512.55 775.69 509.02 776.86 508.07 776.79 503.97 774.46 502.68 775.19 502.42 777.21 500.99 779.77 499.92 781.08 497.38 782.76 496.53 783.8 496.61 785.92 493.38 787.61 490.23 790.25 487.26 789.6 486.17 788.66 485.97 784.69 485.32 781.93 482.36 778.71 481.35 776.13 481.66 774.28 480.52 772.79 476.66 771.51 473.27 771.18 471.39 770.18 470.22 770.49 469.76 771.74 469.73 774.15 468.63 774.83 467.07 774.94 464.01 774.02 463.32 772.27 462.53 772.29 461.45 774.92 460.92 777.12 456.57 776.54 453.86 778 449.88 777.2 448.47 778.38 446.61 778.36 444.21 777.19 436.53 776.07 433.39 774.09 432.34 772.67 432.39 770.74 431.94 769.5 427.02 765.01 425.63 764.68 421.17 765.03 419.71 762.94 416.9 761.1 414.75 758.59 413.1 756.17 410.62 754.9 409.16 754.65 408.57 755.75 409.24 757.35 409.02 758.13 407.31 759.17 402.47 760.48 399.57 764.21 397.95 766.88 396.66 766.93 394.74 765 392.09 763.37 390.55 763.13 389.26 764.21 385.57 765.91 385.78 767.62 386.61 769.84 383 769.82 381.45 769.58 380.77 770.13 380.67 773.79 380.3 776.49 381.3 777.65 380.19 778.49 376.62 774.87 376.41 774.21 374.72 773.58 372.35 773.86 370.09 773.76 370.39 775.75 369.77 776.43 367.71 776.75 366.2 777.76 366.45 778.49 369.27 780.35 372.48 779.87 373.01 780.75 370.79 782.41 369.67 782.63 368.13 781.19 365.13 779.36 364.2 779.39 359.81 781.43 355.73 781.03 353.86 782.42 350.99 781.93 349.81 782.77 346.88 782.23 345.22 781.2 343.96 781.95 344.27 783.62 342.16 783.06 340.54 783.02 337.18 783.62 335.5 785.58 333.74 785.7 333.18 784.69 331.78 784.77 331.28 786 331.93 787.51 330.16 788.84 328.21 788.41 326.29 788.66 324.44 787.8 320.46 787.77 320.99 789.14 319.09 791.51 318.32 793.67 318.95 796.05 318.54 796.5 316.09 795.41 314.37 793.98 313.23 793.96 311.15 796.43 310.92 798.91 309.25 799.07 306.08 800.04 301.85 800.49 301.77 801.74 300.13 801.87 299.18 800.76 297.92 800.4 294.63 800.71 290.27 800.28 287.67 799.68 285.48 799.7 284.59 797.8 283.63 796.71 282.56 798.5 282.38 800.08 280.86 803.31 279.47 804.2 275.1 805.25 273.37 804.3 271.22 803.63 265.69 803.8 262.64 802.73 261.32 803.71 260.09 803.88 259.44 802.71 257.43 802.43 254.91 803.36 251.41 804.04 249.17 803.5 247.31 803.72 244.99 803.23 243.52 803.55 241.12 803.02 239.7 803.22 237.95 807.35 235.68 809.77 230.23 811.19 229.49 812.05 227.79 811.77 226.17 812.56 225.34 813.79 223.66 814.04 221.39 813.6 218.6 815.48 214.45 819.82 215.17 821.99 212.55 823.59 211.34 824.79 209.17 826.11 209.01 827.32 207.92 830.29 206.76 832.52 204.71 834.5 202.51 838.23 202.18 839.28 199.9 842.05 198.14 846.02 196.83 848.24 195.47 848.53 195.4 849.61 194.41 850.41 194.4 851.6 193.67 853.03 194.25 857.6 191.97 859.92 191.33 861.11 192.19 863.07 192.27 865.29 191.7 868.28 190.7 870.45 189.76 871 187.5 870.74 184.41 869.37 180.95 868.18 179.11 865.25 176.66 860.73 174.4 858.54 173.75 856.73 171.95 855.04 171.2 851.45 171.33 848.32 172.97 843.8 171.96 842.07 171.01 838.88 170.8 836.01 171.04 833.68 171.64 832.24 171.27 827.82 171.92 823.57 174.27 820.99 174.33 819.5 173.72 817.65 173.75 815.8 174.42 814.48 176.73 812.63 178.06 809.41 180.11 808.17 181.45 806.05 181.55 802.97 183.44 798.32 185.27 795.47 187.32 793.42 187.74 792.55 184.11 787.66 182.45 786.63 180.53 786.84 178.29 786.44 177.19 785.77 175.4 786.9 172.26 785.95 170.55 786.89 167.24 787.84 165.93 788.65 164.32 788.5 163.58 789.39 160.24 790.82 159.1 791.64 155.2 793.33 154.02 793.01 152.36 791.66 151.11 791.6 148.51 792.79 145.96 792.2 143.16 792.75 141.94 792.7 139.49 790.78 138.45 790.92 137.74 793 135.69 794.53 134.66 793 132.51 791.85 130.63 791.57 128.77 790.24 127.94 787.79 126.62 787.11 126.21 786.1 124.95 785.24 123.2 783.32 121.81 782.52 118.21 782.08 116.99 781.3 113.7 780.64 110.8 779.63 110.19 778.53 105.88 777.1 105.43 775.55 102.25 772.51 100.07 772.34 99.29 771.14 100.02 770.48 98.59 768.47 97.23 768.75 96.74 767.81 94.14 765.33 93.35 763.71 90.39 760.92 90.53 759.25 89.71 756.67 87.71 754.07 85.99 750.38 85.65 748.82 84.3 748.04 84.45 745.47 85.35 745.17 84.99 741.8 84.33 740.93 84.87 739.15 87.19 735.91 88.77 733.29 87.55 732.59 88.26 731.49 87.47 730.69 88.99 728.77 87.97 728.14 88.82 726.06 88.46 725.31 90.26 721.51 89.93 720.18 87.65 716.45 88.72 714.5 88.75 712.73 88.18 711.91 86.3 711.74 86.11 710.06 87.46 708.61 87.5 707.54 86.69 702.49 86.88 700.62 85.87 698.23 85.15 694.63 84.71 691.13 84.86 688.68 83.87 688.05 82.59 686.2 81.98 684.5 81.74 682.24 82.28 679.95 81.76 676.83 82.24 675.16 81.69 673.27 83.57 672.23 84.35 670.51 83.76 668.08 82.39 665.76 82.45 664.35 81.88 661.93 81.32 657.01 79.99 655.72 78.86 651.6 75.53 648.58 74.08 647.57 73.3 645.44 71.81 644.3 70.96 642.26 68.25 641.13 66.18 640.74 64.35 641.24 62.84 641.07 59.45 637.86 59.25 633.78 58.37 631.86 58.13 629.52 58.73 628.47 58.79 625.81 59.86 622.76 56.75 620.1 54.33 619.61 52.53 618.26 52.4 615.35 50.84 613.75 51.77 612.14 48.78 611.55 49.39 610.03 49.19 608.58 48.17 607.57 45.38 607.15 44.24 606.03 45.05 604.8 46.63 604.77 47.28 603.07 47.37 601.17 49.79 600.8 51.83 598.4 50.86 596.35 51.34 595.5 53.03 595.52 53.06 594.13 49.59 592.61 48.4 591.1 49.77 589.42 51.06 588.45 51.25 585.56 53.89 583.04 53.72 581.26 53.06 580.44 53.4 579.28 52.72 577.78 50.3 577.76 51.05 576.08 51.06 574.16 54.24 573.05 54.67 570.79 54.49 567.16 53.24 565.03 51 562.63 53.37 561.98 54.88 560.88 56.33 561.6 57.48 560.55 56.97 559.09 54.91 558.8 55.24 556.38 56.3 555.3 58.79 555.57 60.02 554.15 59.8 551.83 62.82 551.32 62.74 550.56 61.41 549.43 61.47 547.53 59.58 545.52 61.01 544.86 62 543.38 61.01 542.72 60.47 541.04 60.79 539.47 62.12 537.77 63.34 537.48 65.34 537.98 65.9 536.97 65.03 535.84 62.66 534.33 60.56 533.87 60.08 531.92 61.27 530.57 61.08 529.96 57.21 528.23 57.79 523.81 56.78 520.93 58.49 519.74 58.65 518.89 57.5 516.91 55.11 516.45 52.5 516.46 51.2 515.67 51.16 513.37 53.13 509.77 54.24 508.54 58.31 506.94 57.93 505.68 53.1 503.08 52.98 501.25 52.37 499.87 50.55 498.84 50.15 497.46 51.34 496.79 53.09 494.8 53.53 492.71 49.9 489.6 47.99 488.7 47.49 487.9 47.88 486.22 46.41 482.83 47.77 480.57 45.35 478.14 43.49 478.16 42.28 478.99 39.53 478.25 35.93 478.47 34.59 476.34 33.45 473.5 32.79 469.67 29.38 466.36 29.16 465.31 25.74 461.84 23.47 460.62 22.56 457.9 21.07 456.25 18.33 454.79 15.78 450.33 16.28 448.9 18.02 446.42 18.47 444.01 15.6 443.61 14.84 443 15 440.94 15.87 438.76 17.24 436.57 17.41 435.24 15.82 433.32 12.69 428.63 10.35 426.05 10.13 423.63 9.67 422.45 9.1 418.25 10.51 417.17 12.23 418.01 15.34 418.37 16.74 417.26 17.15 415.91 16.15 413.3 16.13 412.07 17.48 410.49 17.35 409.23 16.3 407.46 16.18 406.32 19.37 401.52 20.41 400.5 21.7 397.87 22.88 396.2 23.99 393.48 23.56 391.94 22.45 391.66 19.82 391.8 18.55 389.91 18.83 388.75 20.83 386.81 24.33 384.61 24.81 379.37 23.4 378.33 19.97 377.66 16.66 375.57 11.97 374.78 10.49 368.81 9.64 367.64 8.32 367.15 7.07 367.45 5.92 369.88 4.08 371.16 2.87 371.54 2.05 370.31 1 363.36 2.02 362.08 4.59 360.1 5.96 359.98 9.08 360.44 11.41 360.48 12.62 360.13 17.58 357.03 18.98 357.2 20.34 358.65 21.71 363.51 24.92 365.36 28.11 365.84 32.03 364.85 32.94 363.64 30.98 360.2 31.03 358.34 31.8 356.25 32.77 355.22 34.81 354.55 35.84 350.8 36.63 350.32 40.16 350.13 41.45 349.64 41.97 348.6 41.6 347.49 38.47 344.49 37.92 343.57 38.63 342.29 40.83 341.55 43.08 340.23 44.03 337.71 44.65 329.53 47.73 329.4 50.45 330.55 53.77 331.14 54.79 332.78 55.5 337.24 52.34 340.05 51.98 340.91 53.17 342.17 54.49 342.83 60.89 344.53 61.89 344.56 64.83 343.57 68.68 341.16 72.42 337.66 72.75 336.16 72.08 335.06 69.4 332.95 67.61 330.38 66.37 327.83 63.85 327.11 59.84 324.12 59.44 322.72 60.18 319.66 61.41 317.38 64.14 317.03 70.79 317.61 71.95 316.02 71.13 312.28 70.01 311.2 66.97 310.55 65.09 307.3 64.58 303.4 64.77 300.91 66.85 296.91 66.14 294.87 64.79 294.15 62.92 294.59 55.64 297.64 52.31 299.2 51.27 299.01 48.01 296.75 42.99 292.33 41.5 292.16 38.27 295.11 37.43 295.12 35.73 292.22 34.27 290.2 34.23 287.76 35.06 287.27 37.6 287.85 40.93 288.24 44.61 287.64 48.44 286.63 51.24 286.14 51.94 285.4 51.18 283.15 46.08 281.3 41.18 281.63 35.06 283.19 33.19 282.65 29.69 277.18 24.87 273.42 24.44 271.93 25.69 271.09 27.59 270.73 33.34 268.88 39.64 267.55 43.11 267.02 45.84 266.27 48.65 264.27 49.31 261.8 47.84 259.22 46.4 258.83 44.23 259.01 41.69 260.28 36.95 263.52 34.11 263.42 30.13 261.67 24.57 258.73 23.95 258.09 23.34 253.4 24.41 246.99 24.1 246.23 22.3 245.03 19.28 245.23 18.02 244.47 16.73 242.15 16.58 240.36 17.39 237.65 20.8 234.99 23.03 233.62 25.68 233.13 28.79 233.46 33.23 233.16 34.26 231.73 31.51 228.45 28.19 226.52 25.81 226.19 24.71 225.49 21.41 225.15 21.21 226.42 22.17 228.77 22.27 231.37 21.12 232.67 18.72 233.3 17.49 232.97 14.42 230.74 13.06 228.71 13.55 225.6 14.39 223.92 16.56 221.34 18.3 218.18 19.49 217.32 25.62 216.8 30.42 217.26 33.93 218.06 35.59 217.99 36.92 216.21 36.09 213.27 33.51 210.1 32.2 209.12 28.87 204.84 26.16 202.48 23.91 199.83 22.72 197.81 21.36 197.07 15.31 192.66 15.87 190.92 18.18 189.71 23.46 188.05 25.89 188.11 28.7 190.21 29.08 191.29 30.59 192.99 32.31 195.62 34.09 195.66 36.07 192.71 37.1 189.68 36.52 185.92 36.56 184.56 38.44 181.02 41.24 177.72 42.12 175.62 42.4 171.18 42.76 169.4 43.49 168.6 49.1 165.61 49.96 164.76 50.97 162.72 51.43 159.54 50.96 158.32 49.75 157.33 45.41 155.05 43.45 154.55 39.35 155.45 32.69 155.88 30.15 156.41 25.49 156.38 22.07 155.37 21.24 153.41 23.23 151.82 28.57 150.3 34.33 149.93 39.48 148.61 40.31 147.16 40.65 144.41 40.05 142.39 38.32 139.54 36.57 137.88 32.55 135.77 26.31 133.24 23.72 131.69 20.31 130.11 17.82 128.05 17.72 127.27 18.88 125.84 21.67 124.67 23.48 124.37 25.62 123.26 27.64 121.53 27.85 119.45 28.72 116.1 31.08 109.74 33.31 106.87 35.48 103.13 35.82 100.96 35.5 99.36 34.24 97.31 32.99 94.18 32.82 92.45 33.48 89.82 34.62 87.95 35.91 84.68 36.99 83.34 37.34 81.94 36.6 78.6 35.06 77.53 33.38 75.78 33.14 74.99 33.83 72.86 34.68 72.1 34.91 69.88 34.65 66.56 32.84 62.83 32.22 60.05 32.75 57.86 34.23 55.86 35.4 55.08 38.13 54.92 42.1 54.23 46.52 55.57 49.68 55.29 51.44 54.67 52.97 53.48 53.41 52.57 53.42 50.34 54.03 47.51 55.14 45.1 56.3 43.38 58.53 40.76 60.63 38.74 62.86 37.45 65.63 37.69 66.07 42.08 68.53 43.93 69.7 44.24 70.62 43.62 74.43 43.03 78.64 40.84 80.26 38.67 81.85 37.38 85.63 37.18 88.19 37.68 89.47 38.37 92.82 41.8 93.96 43.62 95.9 45.22 99.66 46.25 103.87 48.53 106.02 51.54 108.92 54.61 110.34 55.61 113.49 56.57 116.14 56.96 122.54 56.73 126.23 59.02 130.39 61.3 131.89 61.7 138.73 62.43 143.32 61.66 147.34 61.69 149.08 62.12 153.06 61.95 154.9 61.01 157.38 58.54 159.12 55.3 162.36 52.31 164.08 51.43 166.41 51.32 169.62 51.59 172.79 51.33 174.72 50.49 180.55 47.09 184.87 45.4 186.67 45.3 188.32 46.25 190.48 48.6 192.64 49.93 196.2 51.01 201.43 50.36 203.55 50.42 206.95 51.45 211.35 51.33 213.57 50.22 217.61 47.53 222.02 46.23 226.42 45.53 232.49 45.47 240.11 49.15 243.53 49.97 246.44 49.76 250.07 48.31 253.89 46.13 257.54 44.7 259.39 44.28 262.65 44.07 265.5 44.39 271.96 44.81 275.58 44.31 276.81 43.18 277.27 41.96 279.21 39.68 282.82 36.4 283.93 34.42 284.27 32.35 285.51 31.1 285.97 28.5 287.28 24.59 289.47 22.83 291.39 20.54 292.94 18.06 295.18 16.39 296.91 14.04 299.76 9.48 301.88 6.95 307.95 2.46 311.72 1.07 313.79 1 314.64 1.52 315.08 3.75 315.78 4.93 319.66 5.12 323.83 6.92 326.72 7.49 328.1 8.06 330.29 7.94 335.93 6.48 337.2 5.48 340.68 5.78 343.43 5.18 351.05 6.47 352.54 7.17 354 8.52 356.62 9.61 359.31 9.19 364.7 8.88 369.59 9.53 371.59 10.78 372.81 12.85 373.99 15.51 376.29 18.6 379.29 20.23 380.74 21.63 381.45 22.96 383.58 25.55 388.25 27.6 391.85 31.33 396.06 31.8 398.06 32.68 401.15 35.18 402.13 36.56 402.48 38.27 401.69 39.36 401.09 41.38 401.3 46.75 404.51 51.42 406.32 52.24 410.64 52.34 415.04 52.04 417.18 52.4 418.65 53.71 419.66 56.2 420.4 56.92 427.51 60.03 429.74 60.46 431.69 61.7 433.54 63.59 433.5 65.31 431.71 67.08 429.53 69.97 428.46 73.09 428.85 75.18 429.56 76.5 430.81 77.3 434.45 78.25 437.97 80.62 438.98 82.46 438.42 83.18 438.31 85.97 439.56 87.49 440.66 88.06 443.11 88.27 445 89.35 445.88 91.23 445.02 93 444.99 94.36 446.57 97.54 448.67 98.34 450.43 100.44 451.64 103.84 453.36 106.86 457.04 110.48 459.95 110.63 462.33 109.38 469.44 109.91 472.01 111.24 472.51 113.19 471.35 114.32 470.2 114.55 470.16 117.86 471.5 121.13 471.66 123.89 470.63 125.6 467.62 127.35 465.04 129.26 462.8 131.77 462.45 132.72 462.66 134.59 466.16 137.42 466.5 138.44 465.78 140.59 465.85 143.41 467.03 145.27 470.29 149.43 472.45 151.12 474.82 153.37 476.31 155.57 476.05 156.89 474.99 158.01 473.45 158.27 471.7 159.47 470.74 161.21 471.44 166.11 472.81 168.76 473.15 171.34 474.74 173.32 479.04 176.09 480.24 177.23 482.11 178.2 483.99 178.03 485.84 177.33 489 176.82 490.91 175.87 494.8 175.63 497.34 176.88 498.94 179.83 499.5 184.59 500.1 186.08 502.22 186.97 504.58 185.73 510.07 182.46 512.45 182.53 516.32 183.81 518.46 184.97 520.03 184.68 523.31 182.69 527.92 182.29 531.69 180.82 533.31 180.98 534.34 182.34 535.8 183.24 538.62 184.22 540.36 187.14 541.04 190.32 541.78 191.3 546.69 191.58 548.04 192.16 551.4 194.53 554.4 197.26 555.38 197.75 560.44 199.05 561.46 199.56 563.63 201.79 565.2 206.02 566.38 207.31 569.06 208.89 573.68 209.77 576.09 210.65 580.01 212.9 581.79 214.74 583.5 219.57 585.5 222.15 587.58 225.89 588.64 228.9 590.42 232.3 590.74 235.19 590.18 238.82 590.19 240.43 591.36 243.04 592.74 244.62 592.91 245.59 589.43 250.38 587.23 255 587.3 257.35 588.68 258.44 589.61 258.47 591.84 257.32 594.69 257.14 596.99 257.84 600.39 259.28 601.86 259.42 609.76 258.28 615.41 255.91 618.66 255.98 622.82 257.21 625.17 259.47 626.56 261.47 626.96 263.56 625.5 268.39 625.6 269.87 627.58 272.53 629.69 274.05 631.78 274.8 636.93 275.59 638.79 276.59 640.53 278.03 643.67 282.1 645.02 283.24 647.67 284.86 649.97 287.41 651.61 290.05 652.14 291.7 652.17 294.75 653.08 297.13 654.94 298.54 660.22 300.43 662.98 302.97 663.2 305.85 662.86 310.22 663.16 312.48 662.67 313.97 662.83 315.72 664.76 319.17 667.53 322.92 668.24 325.07 668.76 330.05 668.45 332.33 666.29 336.72 664.31 342.35 663.19 344.45 661.4 350.38 660.1 356.04 659.08 358.35 659.07 359.58 660.15 361.28 664.31 364.59 664.61 366.27 662.92 369.27 662.41 371.68 662.87 372.65 668.03 374.91 671.98 375.49 675.53 376.68 676.63 377.37 678.21 379.16 679.6 381.74 683.26 387.33 686.15 389.67 687.53 389.67 691.94 388.89 694.4 388.06 698.09 386.28 702.71 384.54 705.48 383.95 707.64 384.01 709.47 386.42 712.9 388.05 715.17 388.47 717.4 388.04 719.41 388.06 721 387.48 727.44 389.66 729.09 390.69 731.65 393.98 733.03 396.81 733.39 398.72 732.71 400.66 733.84 403.58 734.65 407.43 735.47 408.41 738.2 409.91 740.74 412.45 745.29 417.47 748.94 420.64 751.24 423.13 752.31 425.35 752.73 428.12 752.35 430.24 750.56 435.84 750.95 439.76 751.72 440.72 754.04 441.87 758.29 442.55 761.92 442.71 765.92 443.19 767.87 443.93 772.04 446.38 773.83 448.28 775.03 450.51 775.33 453.77 773.99 460.3 773.43 463.84 772.07 470.69 770.92 477.97 770.71 481.99 771.11 484.83 772.06 487.19 774.8 490.22 784.44 497.83 786.21 500.07 791.84 509.07 793.12 512.9 795.23 517.21 795.75 519 797.82 524.35 799 526.7 Z"/>
</g>
</svg>