<?xml version="1.0"?>
<svg xmlns="http://www.w3.org/2000/svg" version="1.2" baseProfile="tiny" width="800" height="749" viewBox="0 0 800 749" stroke-linecap="round" stroke-linejoin="round">
<g id="4215653">
<path d="M 799 466.32 792.5 470.34 774.2 487.39 733.54 522.18 710.43 544.4 687.85 557.59 659.1 572.38 635.78 600.95 625.62 613.87 611.96 646.87 602.67 684.59 583.79 717.53 576.94 727.27 566.25 736.53 548.61 748 365.2 618.78 317.62 585.24 193.11 454.05 1 251.64 1.05 238.26 2.26 235.88 5.59 234.6 20.24 234.81 21.95 234.4 28.05 230.28 42.92 222.63 44.7 219.72 45.07 194.94 52.94 187.97 56.6 183.68 64.49 186.64 72.49 188.02 75.93 190.77 76.32 188.7 80.27 189.39 83.45 192.15 87.02 193.1 86.66 194.36 90.36 195.76 94.36 198.08 95.62 194.36 97.87 195.33 107.43 201.17 108.05 201.07 113.82 193.91 115.05 191.61 131.29 201.37 134.69 198.57 141.17 190.39 144.25 186.1 147.88 184.94 148.51 172.04 150.44 170.16 152.93 169.95 154.58 168.29 156.82 164.13 159.69 161.46 161.73 157.01 163.92 153.78 162.36 150.28 163.09 146.57 160.19 137.46 160.3 130.44 255.03 81.17 409.2 1 413.48 1.02 416.27 2 420.99 1.59 426.96 2.45 431.9 5.18 436.48 5.48 440.52 3.81 444.8 5.23 446.78 8.36 452.44 12.72 455.86 16.6 462.48 23.27 464.99 24.55 408.51 80.31 406.62 82.29 404.71 86.06 399.95 89.94 398.55 92.77 393.67 98.7 394.74 102.92 403.29 106.05 407.55 109.44 409.34 111.96 408.63 116.76 406.59 118.7 406.22 120.98 406.9 125.56 408.16 128.33 410.21 130.64 414.66 137.38 418.3 144.28 417.02 146.92 414.1 149.49 414.06 152.39 418.99 151.94 421.98 153.06 424.39 155.8 427.08 156.99 429.39 156.23 431.03 154.47 434.59 152.36 440.82 149.54 443.52 149.34 447.09 151.33 450.41 152.25 454.37 155.8 456.29 156.4 461.99 153.69 465.46 153.22 468.01 148 473.05 143.5 478.23 141.15 481.9 143.49 489.47 147.29 493.34 147.35 497 145.68 500.09 145.68 502.58 146.97 508.32 147.97 511.67 147.37 515.58 148.96 520.49 149.81 528.73 150.2 530.44 149.7 538.3 164.2 539.66 168.84 544.12 169.77 550.99 172.76 561.89 172.73 566.37 173.01 568.33 173.83 572.29 176.91 577.13 179.55 583.59 184.36 588.64 191.03 588.35 194.74 604.79 288.86 603.96 295.94 605.3 302.94 608.09 307.72 610.87 310.42 614.61 311.63 614.79 314.5 616.95 318.12 616.62 320.91 613.7 323.48 611.06 327.19 612.73 333.11 614.3 334.64 620.82 334.93 632.31 334.97 642.37 332.84 646.79 333.66 700.37 384.5 725.46 387.85 729.06 389.92 731.17 394.64 731.22 402.61 734.91 406.46 737.55 413.62 740.21 414.74 746.96 415.51 753.25 420.38 758.68 422.87 758.9 433.33 764.06 440.26 799 466.32 Z"/>
</g>
</svg>