<?xml version="1.0"?>
<svg xmlns="http://www.w3.org/2000/svg" version="1.2" baseProfile="tiny" width="800" height="1048" viewBox="0 0 800 1048" stroke-linecap="round" stroke-linejoin="round">
<g id="4215901">
<path d="M 592.94 23.61 589.15 24.7 588.19 25.42 586.07 28.68 583 29.52 579.98 27.95 575.76 26.69 573.95 25.6 569.43 29.94 566.89 30.85 563.46 33.08 560.86 33.81 557.12 33.48 554.47 34.11 552.54 40.62 553.26 45.21 545.83 49.08 542.71 48.22 540.66 47.08 541.68 44.85 541.32 41.17 538.06 38.57 537.4 36.58 534.32 36.28 529.32 39.48 525.88 42.01 523.59 46.35 520.93 48.1 517.93 51.76 515.65 56.42 512.43 61.26 507.9 63.91 506.39 67.79 505.91 75.55 505.13 77 501.21 80.08 500.24 81.77 500.12 84 497.65 86.29 495.54 89.07 491.5 92.02 488.66 97.03 486.43 99.69 483.6 103.79 481.85 108.07 482.21 113.2 483.66 116.16 486.43 119.29 489.15 121.47 493.25 123.7 499.04 124.24 501.99 123.76 505.05 122.29 513.21 120.5 518.22 120.68 525.7 122.01 528.89 123.03 532.94 128.65 533.42 130.52 533 134.56 536.19 138.12 540.48 144.51 542.16 145.9 545.96 153.98 546.02 155.61 548.56 158.45 548.62 162.79 550.49 164.36 556.82 164.6 558.45 164.42 564.06 165.15 568.88 163.82 576.24 164.3 578.78 165.33 580.53 169.67 584.2 175.04 586.14 178.3 592.41 178.9 596.09 178.66 600.61 177.63 603.33 177.75 607.67 179.63 611.59 179.5 614.06 181.19 615.51 184.93 612.43 196.28 611.36 199.05 610.43 203.15 610.74 206.53 612.25 213.11 611.29 216.61 612.01 219.5 614.18 221.37 622.99 224.87 625.94 228.67 627.63 233.62 627.81 236.4 628.66 237.12 631.86 236.7 639.52 234.71 640.84 233.68 645.43 228.49 647.36 227.47 650.55 227.17 654.84 224.15 661.11 220.35 663.22 219.68 664.25 220.35 667.68 225.6 669.85 225.36 670.4 223.3 671.85 221.25 675.34 220.11 678.12 218.6 681.68 217.51 684.81 215.4 691.51 215.52 695.25 214.86 697.42 211.36 698.32 208.16 701.76 202.37 701.52 199.29 702.29 196.94 704.01 194.32 705.37 190.75 705.43 187.13 707.43 183.91 714.67 182.34 717.63 183.91 719.01 183.43 722.69 180.77 725.04 181.86 725.04 186.8 726.31 187.47 730.41 187.53 733.87 185.31 735.71 187.19 736.72 189.69 736.93 192.67 735.74 196.85 732.75 197.04 728.94 198.74 728.88 201.45 727.25 203.75 728.46 206.83 729.91 207.92 733.72 212.45 734.74 215.05 734.68 217.04 732.2 221.63 730.69 225.63 731.18 230.45 732.62 234.32 733.59 238.79 736.61 245.98 736.19 251.41 738.12 254.98 742.53 257.09 744.82 257.64 751.5 258.54 752.01 260.11 749.84 263.25 748.54 265.92 750.68 270.62 751.5 275.5 753.3 277.03 756.96 276.96 759.02 278.54 760.41 281.07 762.76 281.74 765.9 283.85 769.89 285 774 286.57 776.11 286.15 780.16 283.79 782.69 282.77 787.59 282.1 790.06 280.83 791.39 281.44 791.31 284.24 790.46 286.83 790.66 288.54 792.77 290.58 795.92 292.07 796.64 293.76 797.07 300.83 797.02 306.71 795.98 311.4 797.07 318.95 796.71 322.46 798.03 327.35 799 332.48 797.91 336.11 797.37 340.16 795.68 342.51 793.14 342.03 791.63 343.24 791.57 350.85 790.61 351.45 788.55 350 786.32 346.14 785.41 343.48 783.6 341.97 780.82 341.85 775.87 342.57 773.39 342.21 771.16 340.09 769.89 340.22 768.92 342.03 768.8 345.17 767.29 346.62 762.28 345.71 759.92 344.26 756.48 340.58 752.62 339.01 749.35 336.7 747.76 334.61 747.13 332.73 745.23 330.3 740.36 328.5 735.16 324.57 733.35 323.84 732.2 326.56 730.75 328.56 729.91 335.44 728.64 337.44 724.47 340.16 723.26 341.42 721.63 345.17 722.06 347.22 725.62 349.04 727.37 353.14 726.1 358.1 724.95 360.57 723.2 362.75 722.64 364.64 721.15 366.76 720.3 369.21 721.51 377.73 721.27 382.02 721.87 387.4 721.69 389.93 720.61 393.44 720.49 396.4 721.04 399.42 724 400.76 727.97 399.18 730.09 399.42 738.3 402.8 739.69 406.12 742.41 408 743.74 409.63 748.09 413.19 749.23 415 749.9 417.84 751.47 421.89 751.59 427.69 751.95 430.65 750.86 434.46 748.33 439.41 748.15 444 747.3 446.05 744.76 449.74 744.58 454.03 743.8 457.71 745.13 460.61 744.64 463.57 742.59 465.57 741.26 468.77 739.27 471.18 736.37 472.39 732.93 473.06 730.03 472.27 727.67 473.36 724.89 473.48 721.51 474.63 719.7 478.13 717.49 485.74 715.5 490.83 714.64 491.74 710.83 493.49 709.38 494.94 708.95 498.27 710.95 501.36 712.52 505.29 717 510.38 718.45 511.05 720.45 513.53 725.11 520.49 727.47 522.3 728.74 529.75 730.8 534.11 732.86 535.14 736.31 537.86 736.06 541.43 736.79 542.58 741.21 543.49 744.48 539.98 746.41 541.07 748.29 547.06 748.41 550.15 747.14 555.78 747.4 556.92 751.98 559.59 753.49 561.1 753.13 562.32 750.53 563.59 749.68 565.34 751.31 573.45 752.22 575.93 751.86 577.93 749.74 578.24 748.53 579.94 749.18 582.84 748.29 588.77 749.02 590.7 750.59 592.04 751.98 594.82 750.59 598.57 744.9 606.08 743.69 610.86 742.06 613.77 739.25 616.99 737.21 621.82 731.83 631.75 729.11 635.13 729.11 637.43 732.13 639.19 732.92 642.76 732.25 645.85 730.62 649.06 730.19 651.66 730.8 653.42 734.14 656.9 737.03 662.8 736.37 668.06 735.46 669.4 733.64 670.06 731.95 672 733.64 675.27 733.52 678.54 731.89 680.54 731.71 685.74 730.92 688.4 727.05 691.31 727.15 697.35 725.72 698.91 723.23 699.9 721.72 701.78 719.72 705.41 716.34 709.77 714.58 714.07 712.58 716.61 711.92 720.42 711.86 724.18 709.48 728.28 705.75 729.99 701.69 730.65 699.69 732.05 698.73 734.04 698.18 738.95 697.33 741.13 693.52 742.22 692.31 744.58 691.83 747.48 691.71 756.26 690.19 761.04 691.58 766.67 691.64 771.63 689.71 780.29 689.71 782.44 691.64 785.56 691.77 789.13 687.89 791.61 686.38 794.51 686.07 798.92 687.11 805.35 687.89 807.89 685.59 808.98 684.56 807.59 681.36 806.38 678.09 807.17 675.31 809.47 674.16 813.28 670.83 819.57 665.56 825.87 662.42 827.5 660.42 830.53 657.82 832.1 651.52 833.68 648.68 834.04 638.45 836.04 635.85 836.83 634.4 838.34 634.46 842.52 635.24 844.82 634.88 846.45 633.61 847.48 628.95 848.99 624.89 849.3 620.67 850.77 617.45 850.69 613.64 849.17 612.43 848.02 612.06 845.18 610.67 843.42 604.44 842.7 598.51 844.69 597.3 845.42 595.79 847.9 594.15 853.11 589.67 856.44 588.16 858.62 588.77 866.43 588.34 868.18 585.33 871.05 582.39 872.6 581.72 876.3 582.47 879.68 585.5 883.98 587.98 888.52 588.4 889.91 587.98 892.76 585.14 896.47 582.71 898.48 581.82 900.58 581.59 903.16 580.81 904.31 578.24 905.47 574.54 908.01 573.33 910.61 572.18 915.03 568.01 920.66 567.4 924.23 568.07 928.59 569.16 931.8 569.04 936.34 567.71 939.18 564.42 941.53 560.79 941.58 558.78 942.52 554.9 945.53 553.62 947.96 525.7 881.02 420.4 920.59 414.13 920.93 403.34 922.92 402.66 927.27 402.23 936.56 401.72 940.57 400.52 944.36 398.22 948.65 395.74 949.55 394.94 950.93 392.66 951.3 390 952.65 387.83 956.15 385.57 958.21 384.05 958.39 386.2 962.86 385.4 963.37 385.61 967.85 389.19 969.23 392.5 971.91 396.15 973.84 400.54 978.2 401.51 983.25 398.18 986.09 395.98 986.7 392.03 985.2 388.37 984.36 384.64 981.32 383.44 981.1 380.96 982.23 376.76 986.18 375.73 988.5 374.56 994 373.31 996.13 370.72 1003.39 368.92 1006.26 365.1 1008.42 362.02 1005.4 359.91 1004.25 356.02 1004.05 353.69 1004.82 351.44 1008.39 351.34 1010.73 353.86 1021.05 354.38 1024.74 355.85 1028.5 357.79 1035.38 358.16 1037.99 357.87 1043.4 357.11 1044.6 354.61 1045.58 350.07 1046.02 348.23 1046.84 345.08 1047 339.06 1044.97 336.03 1043.5 330.64 1042.6 328.09 1043.14 325.49 1045.32 316.82 1045.59 309.7 1046.57 306.63 1046.72 303.41 1045.52 298.22 1045.09 294.82 1046.33 289.09 1046.03 288.32 1045.61 286.27 1042.11 284.88 1037.38 283.47 1034.1 282.54 1028.07 281.43 1025.86 278.74 1024.37 281.77 1023.47 283.57 1021.44 286.24 1023.87 288.29 1024 290.08 1021.96 289.32 1018.44 290.43 1015.34 292.43 1014.82 290.76 1012.77 286.29 1010.65 286.03 1009.78 288.8 1006.69 288.66 1004.09 285.59 1004.24 283.56 1002.26 284.88 999.97 283.65 995.49 281.29 994.32 282.43 992.44 280.56 992.04 279.46 990.93 279.61 989.16 281.64 987.69 283.57 987.17 286.96 983.64 288.82 982.49 285.72 981.51 284.56 980.46 283.9 976.15 281.65 974.84 281.49 970.26 279.59 967.9 280.03 966.39 282.76 965.09 286.07 962.55 289.31 961.06 291.57 962.61 295.97 963.09 295.29 960.09 293.93 958.83 291.74 955.6 289.13 955.56 287.85 954.74 282.27 955.39 279.82 953.69 275.83 953.05 273.43 951.4 272.76 948.88 271.34 948.49 271.83 946.14 270.14 945.54 270.67 943.81 267.23 941.57 266.68 940.35 264.76 939.53 264.25 937.35 260.66 937.69 257.43 939.83 254.28 938.26 252.85 937.03 251.64 934.76 254.37 932.8 252.85 931.44 252.53 929.01 250.87 930.28 246.61 930.02 245.13 932.52 240.73 935.17 238.58 933.66 237.57 930.34 236.31 928.74 236.81 927.5 234.73 926.24 233.94 924.79 231.49 924.12 228.43 922.21 226.66 922.42 224.91 920.09 223.3 914.79 223.62 912.12 222.2 909.44 220.78 909.53 220.69 907.56 215.44 907.41 213.56 906.69 212.38 907.72 209.47 907.28 208.47 902.18 205.2 900.19 199.69 900.88 190.98 896.05 189.78 894.08 189.64 891.76 190.59 890.64 188.67 888.42 189.22 886.29 185.45 883.87 183.59 883.83 181.93 885.09 181.94 882.11 180.35 880.67 178.94 880.43 178.07 878.77 176.74 878.28 174.88 880.65 171.69 877.67 171.51 876.36 169.34 873.1 168.86 871 169.12 868.83 167.32 866.99 167 865.41 168.26 862.74 165.93 860.36 165.82 858.01 163.5 858.25 163 856.99 159.65 856.48 158.92 854.91 157.38 854.93 156.53 853.3 154.65 856.5 150.3 855.47 149.89 854.3 147.81 854.77 146.13 856.43 146.78 858.53 144.17 857.9 141.52 860.06 140.2 858.38 138.59 853.69 136.25 852.81 135.25 851.38 130.38 848.36 128.25 847.76 128.05 845.12 125.25 845.09 121.79 844.45 122.93 842.31 121.22 840.22 118.92 840.06 117.79 841.35 115.46 838.81 112.37 840.1 111.07 837.27 106.58 838.52 102.86 836.89 105.28 829.67 109.8 826.03 110.4 824.11 107.82 822.57 106.45 820.88 105.27 816.92 103.59 815.61 99.67 813.64 99.32 811.19 96.12 811.21 93.87 808.18 92.06 807.9 89.89 808.68 88.77 810.16 86.73 808.69 81.7 807.51 78.91 807.74 74.95 806.33 74.09 801.51 76.01 800.7 72.08 798.42 71.57 796.05 69.9 794.59 66.84 794.85 66.76 791.87 64.44 790.6 62.48 791.96 61.27 789.72 61.6 785.81 63.26 782.8 62.69 781.09 59.19 777.61 57.2 775.13 55.03 770.72 55.17 768.2 54.22 766.81 53.52 764.06 55 760.68 54.93 759.45 53.46 757.29 49.87 753.92 48.16 748.09 48.59 744.35 47.78 740.58 47.71 738.18 48.56 733.92 49.94 731.56 50.33 727.92 52.16 724.17 53.41 723.28 55.97 723.23 59.46 721.75 60 718.98 61.13 718.02 60.78 716.16 57.75 714.92 59.16 711.86 57.1 711.3 59.11 705.45 57.61 703.34 55.33 702.31 54.1 700.61 50.84 698.61 52.06 694.7 51.84 692.21 48.37 690.89 42.28 692.78 39.8 691.88 39.86 689.12 40.91 685.66 37.73 684.64 37.04 686.19 35.68 686.72 34.09 684.7 33.22 681.92 28.17 681.66 27.35 680.5 27.57 675.39 26.35 673.35 26.25 666.63 27.23 661.83 29.04 658.65 29.64 655.27 27.65 651.57 25.99 647.39 21.45 647.34 19.29 646.71 16.06 644.36 12.99 646.08 9.75 645.05 7.91 642.12 5.92 635.45 4.71 634.38 1.3 633.94 1 632.41 2.65 630.5 6.83 629.12 8.72 626.75 12.51 623.3 12.55 621.58 9.01 616.94 7.4 612.18 7.51 610.44 9.68 606.59 15.31 601.69 16.23 599.14 16.39 592.46 16.08 589.44 16.23 584.92 15.46 583.32 13.18 580.95 12.93 577.39 14.96 575.02 20.79 573.16 26.8 568.08 28.93 565.64 29.89 563.36 34.87 560.9 38.6 559.65 39.87 559.8 43.1 561.64 43.81 561.3 44.91 555.47 46.69 549.29 46.94 547.26 46.01 544.72 43.39 543.62 39.49 543.46 33.99 537.45 33.4 535.75 29 529.07 26.46 526.36 26.12 524.92 27.65 522.81 31.54 520.27 34.16 520.61 39.24 523.91 41.95 524.84 47.45 525.34 52.95 524.33 59.55 520.86 64.2 519.42 65.98 517.56 67.48 511.6 67.84 506.2 67.64 503.84 66.14 501.69 56.58 495.04 54.1 494.09 51.89 492.52 49.26 489.5 48.16 486.27 45.97 483.17 44.43 482.17 42.37 482.01 38.39 482.78 35.52 482.27 29.76 480.07 27.9 475.75 30.27 472.37 32.24 470.68 33.15 467.83 33.52 461.87 33.23 456.29 31.54 452.48 24.81 446.71 24.04 445.08 24.77 443.25 28.07 442.41 30.61 441.05 32.81 440.8 39.83 444.44 40.85 443.93 41.44 440.88 44.23 436.74 53.37 428.78 54.4 425.74 53.55 423.35 51.62 419.72 51.51 415.41 53.37 412.45 54.47 408.3 56.5 405.85 61.15 403.98 64.89 400.95 69.53 397.64 77.65 396.2 80.73 394.13 81.53 391.46 84.01 386.83 87.59 384.84 91.24 384.34 92.59 382.55 95.21 375.73 94.97 374.19 91.74 370.08 90.92 368.12 91.11 366.49 93.07 365.01 95.39 365.51 103.61 366.03 108 365.18 110.54 363.91 113.33 360.11 114.09 358.08 115.91 355.47 118.99 354.28 124.74 353.85 127.19 351.99 128.29 348.61 130.4 346.33 130.31 344.47 126.76 341.56 125.62 339.6 125.56 335.24 128.26 328.43 128.88 326.21 129.72 319.11 128.29 316.74 126.43 316.24 122.96 316.15 119.5 315.39 117.72 314.12 116.79 312.52 117.3 310.83 118.99 309.39 121.1 306.09 123.57 301.1 124.06 296.03 123.98 292.91 123.13 288.17 120.93 284.45 120.85 283.52 122.54 280.82 122.62 278.03 123.64 274.39 124.91 271.35 127.78 268.82 129.38 266.03 128.54 264.67 124.65 264.25 123.81 261.63 123.38 258.5 124.06 257.49 126.85 255.8 130.65 256.05 133.19 257.32 137.67 256.39 140.71 256.73 142.57 255.63 143.41 253.8 145.05 252.72 155.35 252.78 158.54 250.45 159.46 247.03 158.89 244.65 155.81 240.24 157.27 236.19 159.72 233.14 159.89 231.54 158.37 229.17 156.09 228.24 149.51 228.16 148.79 227.28 148.37 222.78 146.35 220.02 142.61 217.56 140.03 214.55 138.17 213.11 136.15 210.15 132.76 208.88 129.86 204.74 126.59 203.75 125.19 202.8 130.1 201.82 132.78 200 142.3 196.93 150.38 196.81 153.33 196.33 155.41 193.4 160.38 190.24 163.52 186.74 169.54 184.93 170.87 184.03 173.78 180.78 177.98 177.34 182.93 169.26 187.99 171.67 189.25 171.01 191.97 166.18 192.75 163.41 191.91 160.7 192.81 157.2 194.86 153.89 198.72 152.86 203 153.95 207.88 149.67 208.66 147.13 209.51 140.98 212.58 139.54 220.41 137.85 224.15 137.31 226.62 133.57 229.94 131.88 230.84 129.47 234.4 125.73 236.45 124.29 237.95 121.33 240.48 119.1 242.96 117.96 245.55 117.41 247.84 115.91 250.07 110.54 250.07 104.15 252.96 101.01 256.28 100.59 260.31 101.38 266.46 99.69 268.09 97.64 272.85 95.05 274.66 92.39 273.85 90.66 274.42 87.57 273.76 84.98 277.37 80.34 280.18 80.02 283.95 81.47 289.49 82.21 293.71 79.79 296.36 79.55 300.7 75.88 309.92 73.22 311.06 70.03 314.02 69.3 317.15 70.15 320.41 71.66 324.53 72.35 326.13 70.09 328.78 67.5 331.98 66.71 335.53 66.95 337.22 65.45 338.13 62.97 338 59.12 338.61 55.08 339.75 53.75 345.78 53.27 349.58 49.47 353.8 47.84 354.58 46.15 354.82 42.9 355.66 41.15 358.02 39.88 364.22 34.76 364.22 32.71 361.39 28.43 362.78 26.32 364.04 26.2 368.62 27.41 370.61 29.27 375.01 31.26 384.96 32.23 389.48 34.1 392.97 32.17 397.61 30.96 399.78 33.25 404.67 31.75 407.26 31.38 412.42 30.07 419.31 31.81 420.88 34.88 423.11 36.45 426.12 34.34 428.21 33.9 432.09 35.91 435.1 36.69 441.55 37.35 443.96 39.16 447.4 40.79 449.99 42.84 451.26 42.84 453.91 41.21 457.52 39.8 460.54 37.89 464.76 32.41 467.71 31.44 468.37 29.58 469.88 28.13 471.51 24.21 475.06 19.63 475.85 17.88 476.09 14.56 474.94 8.23 475.97 6.12 477.23 1.06 481.57 1.48 483.02 2.03 483.8 4.5 488.02 4.8 489.71 5.46 490.13 9.02 491.94 10.47 495.74 9.86 502.31 9.26 504.8 8.55 507.43 6.73 508.88 4.62 510.86 3.77 513.52 3.47 520.81 3.53 523.82 1 525.03 1.36 526.11 5.22 528.16 8.96 530.33 11.43 529.61 12.88 525.15 15.83 524.06 17.88 525.93 18.72 530.94 17.88 533.89 15.95 542.39 15.71 545.58 17.1 548.53 16.25 550.22 15.17 553.42 10.59 554.14 7.93 556.43 8.17 560.11 7.39 561.37 6.12 562.94 6.43 563.3 8.84 572.55 14.82 574.44 15.43 577.68 15.61 583.23 17.32 588.88 21.2 592.94 23.61 Z"/>
</g>
</svg>