<?xml version="1.0"?>
<svg xmlns="http://www.w3.org/2000/svg" version="1.2" baseProfile="tiny" width="800" height="875" viewBox="0 0 800 875" stroke-linecap="round" stroke-linejoin="round">
<g id="4215703">
<path d="M 583.33 602.96 582.43 603.27 578.16 608.47 579.37 610.26 578.68 612.33 580.01 618.09 580.12 620.86 578.22 622.7 575.97 622.36 572.23 624.66 571.83 626.16 573.1 628.81 573.04 631.23 571.08 631.92 568.89 631 567.74 629.73 565.38 630.31 564 632.84 559.73 632.61 556.57 628.64 553.86 627.94 552.71 629.44 551.61 632.44 551.15 636.59 549.48 638.49 549.14 641.37 550.52 643.67 551.07 647.02 550.05 652.38 548.73 653.12 540.27 653.35 534.3 656.28 527.2 661.59 525.52 663.9 521.09 667.7 520.4 670 519.88 680.37 516.6 683.02 515.1 685.56 515.33 689.07 517.23 691.32 517.92 695.47 517.12 698 517.46 702.21 516.77 704.51 514.47 706.01 511.47 705.78 509.28 704.86 507.21 705.09 505.48 706.18 504.33 708.37 505.02 712.46 505.71 719.55 504.16 721.16 501.16 722.37 501.22 723.53 503.42 726.84 506.17 729.58 509.28 729.75 513.37 730.44 516.94 732.28 519.88 735.86 521.61 741.1 523.97 745.13 520.33 752.23 517.76 754.48 514.3 759.63 512.13 761.39 509.68 762.67 506.28 762.73 503.24 761.42 500.55 759.35 498.03 756.1 498.04 752.71 499.27 750.92 499.04 749.51 497.47 747.58 495.41 746.29 489.1 745.04 486.05 742.84 484.22 738.52 482.56 735.97 480.14 734.3 476.34 733.84 475.42 738.28 473.52 739.6 471.56 739.2 465.92 737.18 461.89 733.03 458.89 731.82 451.51 731.27 448.69 732.45 446.28 732.01 443.01 728.76 441.41 729.67 442.25 734.42 440.98 735.28 433.15 737.07 429.41 738.79 425.55 736.26 420.81 735.94 418.23 736.09 413.8 739.54 411.13 739.16 408.35 737.4 406.06 735.15 404.64 732.4 401.47 729.92 390.82 725.54 388.62 722.64 387.31 718.11 385.06 717.02 379.94 716.73 375.39 715.98 373.02 714.83 369.22 716.44 363.58 717.13 355.46 718.4 348.26 717.71 346.79 715.28 344.22 714.8 338.78 716.4 331.92 720.72 328.73 722.27 326.11 721.37 325.97 719.15 327.01 711.48 326.42 708.2 325.37 707.35 320.57 706.75 316.01 708.09 315.2 709.07 315.43 711.02 314.22 716.79 315.66 720.13 315.78 722.03 315.09 725.66 316.1 728.93 316.07 731.94 313.59 735.34 311.52 736.26 310.88 737.64 310.54 742.54 308.35 745.19 306.56 749.45 306.1 753.2 305.41 755.44 302.42 757.75 299.37 758.21 297.98 760.17 297.46 763.74 294.59 768.23 290.78 769.67 287.67 774.05 283.82 777.63 283.24 778.78 282.95 781.95 282.15 782.87 279.12 784.5 274.2 784.93 270.15 787.04 267.23 787.63 265.17 790.55 263.23 794.61 260.8 797.15 256.63 804.39 254.8 809.74 249.83 817.53 248.64 818.5 244.31 820.67 241.88 824.47 238.58 826.59 234.66 826.53 233.45 825.9 233.45 821.17 231.2 820.13 227.69 822.67 226.36 823.13 223.54 821.63 216.62 823.13 214.71 826.21 214.65 829.67 213.35 833.08 211.7 835.59 210.97 837.84 211.2 840.78 207.91 846.32 207.05 849.37 204.97 852.72 201.4 853.35 195 853.24 192 855.26 188.6 856.29 185.95 857.74 182.6 858.83 181.22 860.79 180.7 862.75 178.62 862.98 175.34 857.97 174.36 857.33 172.34 857.97 166.34 861.6 162.25 864.48 159.2 864.77 157.35 865.75 152.97 870.71 151.7 871.69 144.38 873.6 141.32 874 140.52 873.31 140.34 870.65 138.73 865.93 135.9 862.29 127.49 858.95 125.41 857.16 124.72 854.39 125.64 851.05 124.2 844.76 123.9 841.52 124.79 837.61 125.82 834.95 128.76 824.11 127.37 820.54 125.01 818.92 121.26 819.04 117.11 817.25 114.52 817.13 110.19 818.11 106.68 818.34 100.68 817.77 98.83 814.65 95.32 809.52 93.65 805.37 91.22 804.39 84.19 803.93 79.58 805.19 74.22 804.5 72.66 804.68 66.61 804.44 64.82 802.94 64.76 798.79 62.34 796.08 62.28 794.52 58.65 786.8 57.04 785.47 52.94 779.36 49.89 775.95 50.29 772.09 49.83 770.3 45.97 764.94 42.91 763.96 35.76 762.69 30.98 762.52 23.17 764.23 20.26 765.63 17.43 766.09 11.9 765.57 7.98 763.44 5.38 761.36 2.73 758.36 1.35 755.54 1 750.63 2.67 746.54 5.38 742.62 7.51 740.08 10.22 735.29 14.09 732.47 16.1 729.81 18.47 727.62 18.58 725.49 19.51 723.87 23.25 720.93 24 719.55 24.46 712.12 25.91 708.42 30.23 705.88 33.31 701.26 35.48 696.8 38.36 693.31 40.89 691.63 43.09 687.48 46.37 685.06 51.16 682 54.1 682.29 54.73 684.19 57.84 686.67 58.19 690.19 57.21 692.33 59.17 693.42 62.15 694.24 69.26 690.54 68.57 686.15 70.41 679.93 72.95 679.33 76.52 679.64 79 678.94 82.29 676.81 84.71 675.95 89.03 671.79 90.76 672.83 94.8 674.04 97.68 675.54 100.62 674.73 102.64 671.62 103.56 670.93 107.18 669.89 107.56 667.8 109.16 666.32 112.5 664.41 120.1 663.55 124.88 663.2 125.63 660.55 124.45 657.59 124.48 653.06 125.17 651.1 123.9 648.74 121.77 647.12 120.45 643.84 120.39 640.38 118.95 639.63 116.01 640.04 113.25 639.11 112.33 637.15 112.79 635.08 113.82 634.27 120.62 630.64 122.64 629.95 124.88 628.22 127.19 622.34 125.58 621.59 122.35 622.52 120.45 622.52 117.05 623.61 114.57 621.6 116.76 618.08 117.39 615.43 116.36 613.7 114.28 613.06 111.52 611.39 109.79 609.78 107.83 604.94 106.45 602.75 106.33 601.42 107.26 598.94 107.31 597.08 108.41 595.6 110.76 594.09 110.83 591.91 107.12 590.29 105.55 588.06 106.11 581.37 105.79 577.61 106.51 573.38 106.56 565.56 106.31 562.56 106.71 561.52 108.87 560.24 110.18 557.11 112.78 555.48 115.13 551.07 119.95 547.46 120.46 545.75 121.83 544.45 122.62 541.14 122.61 539.1 124.9 538.25 131.26 533.77 132.91 531.95 131.52 530.74 132.52 528.55 134.57 527.41 134.96 525.62 136.78 521.18 138.6 518.12 138.97 516.58 140.21 515.4 139.31 511.76 139.98 510.21 139.11 509.13 135.18 509.31 133.07 510.1 131.94 509.24 131.94 507.2 133.17 504.96 139.47 502.67 141.92 500.87 144.8 500.3 149.27 498.06 151.67 496.38 152.91 493.45 154.56 491.28 159.76 489.74 162.32 487.69 164.92 486.75 167.95 484.61 174.63 478.39 176.34 477.03 179.88 475.66 183.75 470.84 182.06 466.79 181.89 464.08 182.25 459.62 181.6 458.47 179.34 458.64 177.66 457.21 178.12 452.19 179.33 450.13 179.47 447.18 177.71 443.36 171.3 435.14 172.46 433.61 172.81 430.79 171.82 428.18 169.71 426.07 167.6 425.28 164.7 422.25 162.68 418.82 162.93 417.59 165.43 414.23 166.56 409.41 168.04 406.69 169.88 404.72 170.9 402.04 170.76 396.77 172.85 394.52 173.02 393.49 170.93 390.94 172.61 385.41 173.71 383.2 173.78 381.75 172.49 377.78 172.51 376.4 169.03 372 168.79 369.37 170.48 367.75 169.69 365.21 166.94 362.21 165.27 356.9 162.43 353.53 159.41 348.38 158.01 347.92 155.16 348.13 152.36 345.27 152.15 343.16 153.21 340.53 156.53 338.06 159.12 338.86 161.79 340.68 169.22 341.36 171.24 340.77 171.63 338.21 173.02 335.84 174.3 330.95 176.88 328.8 179.19 329.05 183.94 330.8 190.48 333.71 192.46 334.29 195.25 333.46 201.71 327.76 205.48 325.55 208.6 322.78 210.56 320.04 214.27 317.93 216.28 317.52 218.59 317.86 223.74 316.38 230.18 316.88 231.79 317.76 235.81 322.33 235.98 326.65 237.5 328.04 240.71 327.4 244.62 327.3 245.53 328.05 249.09 335.36 251.67 339.47 253.58 340.86 263.02 343.94 265.13 345.44 268.58 349.55 271.97 351.61 273.66 351.64 276.08 350.54 277.79 349.13 279.76 346.41 280.8 341.65 280 338.78 277.13 336.67 276.22 334.75 277.14 332.13 277 330 278.16 327.17 281.53 326.43 282.35 326.89 283.7 329.69 284.01 331.63 283.55 333.81 283.95 335.45 285.36 337.48 290.59 339.02 291.95 339.91 292.84 341.75 294.32 342.89 296.07 342.84 297.47 340.52 297.81 334.78 297.32 332.5 297.39 329.36 298.73 324.68 301.19 323.8 305.55 321.65 307.97 319.59 308.98 319.64 310.69 321.75 313.09 322.45 316.61 322.43 317.8 324.22 322.27 327.32 322.96 328.34 325.62 329.3 330.04 328.56 331.32 327.86 338.76 320.53 340.92 319.48 345.68 318.42 350.9 316.67 353.24 315.58 356.29 312.9 358.58 310.12 363.04 306.64 364.64 304.59 363.54 303.86 362.16 305.3 359.1 306.43 356.29 303.86 356.57 300.95 355.18 299.23 351.77 300.9 351.82 303.88 349.56 303.48 347.71 301.98 347.59 300.17 348.56 298.05 345.53 297.82 342.44 298.64 341.72 294.21 340.35 291.09 340.03 288.07 338.24 285.78 339.23 283.65 341.47 282.21 340.81 280.79 338.23 280.32 335.96 283.62 334.48 284.28 333.23 282.42 334.29 279.58 332.27 276.84 333.07 274.38 331.26 273.44 332.32 271.75 335.99 273.14 335.84 271.31 338.13 268.83 336.95 268.32 337.63 265.51 337.21 263.57 339.78 261.88 338.46 259.54 336.69 259.3 334.4 261.37 334.01 262.62 331.04 263.49 323.88 262.78 320.11 261.7 316.07 260.92 313.71 258.71 311.3 258.7 309.93 260.37 307.65 256.96 305.07 257.88 302.83 256.79 300.88 257.33 299.69 258.6 298.11 258.05 296.57 259.63 295.07 257.64 294.35 254.71 293.02 254.56 287.27 258.7 283.67 260.28 281.02 260.57 274.66 260.44 271.91 261.61 270.01 261.18 269.74 258.43 268.48 256.56 266.43 256.44 264.93 257.49 262.5 260.6 260.03 260.68 259.62 259.58 260.83 257.82 262.43 253.36 261.71 252.3 259.62 251.25 255.25 250.16 252.72 249.08 251.77 245.85 250.72 244.56 246.74 244.29 245.8 240.8 245.92 237.27 249.28 233.54 250.11 231.25 248.7 228.83 247.88 223.89 246.1 219.87 245.75 218.14 244.39 216.16 242.28 214.82 241.31 213.47 237.93 211.69 236.49 211.53 231.77 209.55 227.23 209.59 225.07 210.38 223.85 211.94 220.36 210.53 216.48 207.69 212.58 203.65 211.19 201.74 211.08 200.28 214.71 198.32 215.65 196.81 215.42 193.37 214.52 191.8 211.71 191.66 209.48 190.49 207.13 189.94 203.34 189.65 199.16 185.57 198.32 181.1 195.21 177.91 194.54 174.61 197.42 170.87 197.8 168.73 193.62 166.83 189.1 163.73 186.03 163.31 183.51 163.69 179.88 162.96 175.84 157.7 174.77 157.21 171.77 151.96 176.01 149.37 176.89 145.83 175.16 142.23 176.21 140.41 176.81 137.9 177.96 136.35 179.83 135.63 180.74 133.15 182.65 131.86 184.87 131.19 189.03 128.93 191.38 128.06 192.71 126.96 192.06 125.68 192.94 121.26 194.73 119.85 194.32 116.06 197.94 114.86 200.63 112.99 200.77 110.77 197.24 109.04 197.06 107.57 198.46 105.67 202.79 106.55 206.25 104.95 204.64 102.53 208.28 100.49 209.64 96.82 211.6 96.22 213.49 93.24 218.56 90.87 217.54 87.23 221.09 85.71 223.36 85.71 224.68 87.05 227.98 88.95 229.39 88.57 230.55 86.96 233.32 86.78 234.78 87.62 236.41 85.78 237.52 82.47 239.38 80.53 238.48 79.48 239.23 77.88 240.98 77.41 243.78 74.04 243.66 72.09 245.49 71.12 245.64 67.77 248.01 64.66 247.54 63.39 248 59.77 246.98 57.83 243.12 55.9 241.22 53.73 237.82 52.19 234.28 49.64 232.71 47.9 231.78 43.7 232.13 41.3 233.55 36.18 351.7 24.43 562.03 3.51 587.3 1 587.17 3.06 585.83 3.37 585.37 5.99 582.62 8.13 580.1 11.06 579.15 14.64 581.52 18.39 581.94 22.93 580.94 24.27 581.18 27.61 578.81 29.23 577.03 36.44 575.71 36.47 574.65 38.86 573.65 43.33 574.27 45.84 576.58 48.39 574.64 50.38 573.17 55 572.91 57.99 571.43 59.25 570.18 61.66 571.5 64.12 570.52 67.85 570.86 69.53 569.98 71.53 574.47 73.95 575.27 81.65 574.81 83.21 575.16 88.21 572.93 90.87 570.11 92.81 587.44 142.94 612.58 215.66 616.05 216.17 620.52 216 623.36 217.04 627.66 219.42 631.54 219.89 635.26 219.01 640.02 216.23 643.15 215.65 646.51 216.92 649.5 219.66 649.31 226.76 648.13 230.32 645.23 234.62 640.14 239.06 638 238.94 636.33 241.14 637.34 242.07 635.62 246.62 636.44 248.57 635.65 249.67 642.04 250.71 649.51 252.96 653.6 254.88 659.49 255.29 662.78 254.64 664.86 253.71 667.7 254.48 669.56 256.63 674.07 258.51 675.37 259.84 678.34 261.59 680.42 262.11 683.42 263.54 687.21 266.92 691.13 268.91 694.9 272.91 697.09 277.04 697.13 278.12 694.4 281.99 694.4 283.75 695.58 284.56 700.22 284.34 701.52 285.14 702.37 287.33 704.47 290.15 706.24 297.42 706.23 301.46 706.59 303.61 709.93 304.75 709.34 308.31 708.14 312.65 706.99 321.12 709.6 323.67 708.79 325.17 706.29 326.51 705.51 327.83 705.36 330.93 703.94 335.22 704.26 336.32 708.93 340.58 713.15 341.76 714.2 344.3 712.64 355.88 712.12 358.01 712.88 359.1 716.78 360.91 718.24 362.04 719.48 364.15 721.45 365.15 722.09 366.33 722.07 369.97 726.17 373.99 727.63 377.29 726.54 379.83 727.39 383.32 730.32 385.64 730.31 387.19 729.12 388.32 728.57 393.58 729.11 399.44 732.08 404.16 731.94 405.76 733.53 410.4 732.14 413.04 732.18 414.3 734.39 416.2 735.29 419.24 735.2 421.85 737.9 423.89 739.17 426.74 738.84 429.26 742.95 429.68 743.67 433.54 744.55 435.57 745.76 441.48 746.73 444.65 746.48 449.5 747.44 450.89 750.36 451.43 751.99 452.24 755.53 455.35 760.48 457.97 760.25 461.73 762.46 466.36 763.78 467.67 767.19 469.07 769.84 471.59 771.77 474.27 772.84 477.74 775.44 481.16 779.26 481.59 784.29 480.33 786.48 479.46 792.6 478.11 799 477.31 797.28 479.37 792.56 481.58 790.19 482.33 787.53 483.98 785.34 484.62 782.99 486.85 777.07 488.51 774.82 489.87 768.48 490.82 766.76 493.9 763.89 495.81 762.08 496.09 760.25 499.29 759.24 502.31 755.15 504.74 753.44 506.64 750.71 507.41 745.91 505.75 740.52 506.52 737.5 508.12 735.31 508.24 731.34 509.84 726.07 511.14 718.2 511.2 717.07 514.4 713.69 516.3 710.91 516.65 709.37 518.9 705.4 521.33 703.45 524.24 702.86 528.05 701 530.65 697.76 531.16 693.09 530.6 691.16 531.22 689.34 534.3 687.32 535.11 683.09 534.16 679.27 533.84 677.07 534.23 673.57 533.45 667.41 535.32 665.85 536.1 663.92 534.75 662.34 536.49 659.12 539.04 656.47 537.87 653.28 541.59 650.59 542.3 650.84 544.85 649.49 545.88 645.95 545.74 644.54 547.72 642.91 548.36 640.96 550.66 640.22 554.52 638.87 557.35 635.97 558.84 633.85 560.89 630.27 561.6 628.54 564.72 625.7 567.48 621.42 568.68 620.25 569.78 616.25 570.55 612.97 572.39 611.76 574.12 609.23 575.85 607.33 576.08 604.79 574.06 600.42 572.33 599.04 572.33 597.77 574.98 595.47 575.27 592.7 574.47 591.55 577.06 591.95 579.02 591.9 583.97 590.98 585.93 588.96 586.85 582.17 592.38 585.22 597.85 585.97 600.68 585.39 602.46 583.33 602.96 Z"/>
</g>
</svg>