<?xml version="1.0"?>
<svg xmlns="http://www.w3.org/2000/svg" version="1.2" baseProfile="tiny" width="800" height="1198" viewBox="0 0 800 1198" stroke-linecap="round" stroke-linejoin="round">
<g id="4215075">
<path d="M 735.22 289.05 729.93 292.31 729.67 296.69 733.78 301.97 734.15 305.75 736.08 311.39 735.87 313.5 738.86 326.21 741.33 328.59 745.36 329.72 751.08 330.1 758.33 329.71 761.6 329.01 766.5 329.59 770.05 329.08 775.26 329.44 783.57 327.84 788.73 328.86 793.64 335.15 792.54 342.47 789.01 344.27 781 341.68 776.24 342.73 766.46 348.08 760.56 352.9 759.42 354.81 751.6 362.69 748.08 368.05 745.75 373.19 742.68 374.52 736.8 374.86 730.57 376.45 727.74 375.94 725.04 377.12 718.16 376.61 713.69 379.52 716.54 381.39 722.11 382.7 730.46 388.03 733.88 391.66 737.45 393.59 748.12 397.47 756.24 401.58 760.96 401.82 770.33 407.16 781.65 407.41 786.82 409.42 788.7 413.14 787.84 416.81 785.33 422.1 783.06 424.87 777.14 427.34 772.67 428.3 760.28 428.3 757.79 429.19 749.01 435.72 744.38 442.22 742.99 445.35 741.98 451.12 740.7 453.6 733.65 461.83 730.56 464.39 719.95 470.11 715.17 471.21 712.49 476.38 714.33 481.9 716.93 485.33 725.54 494.43 728.25 501.81 731.54 509.17 734.45 511.83 742.56 514.73 750.25 515.52 755.67 515.58 764.49 514.2 766.03 513.11 774.19 513.74 775.06 518.4 772.9 521.49 768.36 525.02 763.56 527.54 759.75 531.11 759.51 536.87 762.52 548.29 766.77 555.77 767.81 560.27 769.69 563.67 769.9 569.69 769.3 574.49 765.9 584.9 756.17 596.57 750.07 599.5 746.42 599.66 731.76 595.2 725.81 597.01 716.23 604.48 701.87 613.82 692.89 618.48 683.51 619.68 677.54 622.81 676.72 626.81 685.12 637.51 690.14 648.61 696.18 656.69 699.11 659.42 705.44 663.13 718 667.43 720.17 667.56 723.09 665.79 729.27 658 731.2 654.49 735.82 650.88 742.37 647.92 744.95 645.6 745.69 643.26 745.01 627.67 746.42 626.03 750.89 626.16 755.68 629.1 758.84 632.96 765.35 643.04 766.15 645.75 771.03 654.18 770.96 658.84 772.94 662.95 775.9 664.21 782.82 665.21 791.79 668.06 799 671.77 798.7 674.83 795.25 679.77 790.59 680.87 786.81 678.28 781.8 677.14 769.95 672.52 765.39 671.6 760.84 674.8 759.22 678.63 758.34 683.13 756.53 686.18 753.39 694.18 751.1 696.87 745.95 699.9 733.11 701.28 724.5 701.8 720.37 701.5 716.29 702.56 714.73 704.57 715.13 708.52 717.25 711.47 725.53 718.25 729.69 720.7 741.52 723.43 748.61 723.27 758.08 727.3 761.74 729.73 765.36 735.95 772.61 738.24 774.16 741.09 774.26 744.52 772.33 749.66 768.83 753.59 762.26 758.11 757.23 760.72 755.11 762.93 754.63 767.14 754.45 778.01 749.75 779.06 742 774.37 736.43 769.57 725.31 761.99 719.76 759.98 714.37 760.57 710.21 762.73 705.24 770.4 705.25 773.86 707.17 778.64 712.33 784.65 717.74 789.15 722.27 794.43 722.35 798.98 720.61 804.08 718.41 807.44 714.89 809.27 711.68 813.61 710.42 820.05 710.99 822.41 716.42 828.12 720.88 831.37 723.1 831.74 736.86 829.23 738.53 827.93 742.7 828.69 746.76 827.46 753.33 828.01 760.62 827.85 766.23 829.25 771.18 829.19 774.28 831.05 775.37 835.24 773.96 838.51 774.75 846.77 773.23 851.48 773.09 856.03 771.37 859.18 768.27 862.56 765.31 863.86 760.22 863.82 748.44 861.09 739.43 858.05 733.58 857.55 728.42 858.19 723.84 859.56 705.03 863 691.46 869.11 684.48 872.95 680.91 878.21 680.83 887.22 681.47 891.68 682.94 894.65 687.84 898.99 697.22 899.59 705.98 899.26 712.89 898.47 725.7 899.31 728.75 899.84 733.35 903.34 738.49 909.94 741.59 916.83 747.95 925.26 754.12 932.56 761.45 939.47 762.29 942.74 761.55 944.7 758.4 947.67 753.81 948.22 740.56 946.06 729.76 941.67 725.5 941.63 718.3 946.13 712.84 952.28 711.65 957.03 713.5 965.01 716.51 972.75 722.69 981 729.91 989.13 732.47 996.13 730.61 1003.04 729.02 1004.05 723.72 1002.98 721.92 1005.24 721.42 1008.9 722.32 1015.6 725.69 1021.38 729.41 1024.28 740.66 1031.32 744.01 1038.82 740.9 1043.75 737.77 1046.12 726.03 1048.46 724.3 1048.22 719.05 1044.36 715.68 1040.81 711.34 1031.8 708.01 1028.97 701.74 1027.51 696.44 1028.55 691.57 1030.69 686.22 1032.17 681.84 1034.52 666.89 1035.12 662.45 1034.82 658.43 1037.28 652.71 1037.86 645.54 1036.15 641.23 1033.64 633.06 1026.88 629.71 1026.26 626.36 1029.35 625.78 1031.96 627.61 1046.67 627.64 1053.62 627.08 1055.87 623.33 1062.22 612.61 1073.79 612.26 1078.56 614.38 1080.4 627.62 1086.11 639.88 1087.21 648.42 1089.23 655.23 1089.51 657.03 1090.43 658.06 1093.73 650.21 1097.78 639.19 1099.9 636.65 1100.93 625.28 1110.71 617.81 1115.22 613.46 1116.76 607.07 1115.8 604.12 1112.52 602.3 1105.44 600.07 1099.15 599.84 1093.29 598.74 1090.32 595.82 1089.28 591.98 1090.61 582.99 1097.11 576.87 1101.09 574.91 1103.51 567.27 1107.63 558.92 1110.66 551.74 1115.22 551.37 1118.57 552.12 1122.18 554.55 1125.56 564.04 1132.47 570.04 1133.32 578.3 1135.41 584.3 1138.4 586.79 1141.92 587.54 1144.79 588.73 1154.43 586.1 1160.82 579.83 1167.5 574.43 1171.73 570.7 1175.57 570.32 1177.14 572.79 1181.2 572.52 1183.99 560.94 1194.4 556.81 1196.8 554.77 1197 550.06 1194.2 547.31 1191.14 541.53 1180.11 538.84 1176.02 534.99 1173.71 527.98 1173.59 522.04 1175.51 521.45 1178.75 422.48 1114.1 426.37 1112.27 427.58 1107.01 431.6 1099.1 431.63 1095.5 429.12 1085.6 424.92 1078.9 423.97 1075.52 317.42 1060.07 312.51 1051.47 306.96 1044.65 305.47 1040.45 306.45 1033 308.71 1027.22 312.67 1019.56 316.44 1008.15 316.46 1000.69 314.79 989.15 313.39 981.92 311.79 967.36 309.49 958.8 307.6 955.26 303.56 943.07 301.04 939.44 299 928.96 301.03 921.56 309.05 907.36 313.36 902.74 314.1 897.88 308.73 892.66 298.45 887.44 289.73 884.63 269.88 883.46 256.43 885.6 240.51 887.46 234.85 888.63 224.5 889.49 213.15 889.85 203.84 889.63 197.16 890.06 165.94 888.76 158.34 886.39 149.67 880.56 142.8 873.92 138.78 868.91 132.47 862.11 122.84 847.87 123.46 843.84 126.11 837.21 127.67 829.48 129.62 827.24 134.15 825.47 141.48 824.76 148.64 825.37 156.63 829.03 160.9 831.73 178.45 840.39 191.87 847.91 196.11 849.86 215.71 857.04 226.75 859.7 233.89 858.55 238.14 857.02 247.61 852.39 257.57 846.16 259.35 843.63 260.31 839.16 260.01 828.83 259.45 824.46 260.14 820.3 268.03 786.28 269.41 778.54 269.82 771.62 268.14 767.49 264.72 763.19 259.73 755.11 255.34 745.06 250.61 731.35 247.16 723.49 245.62 713.15 247.63 694.99 248.49 691.01 248.14 685.14 248.98 675.9 250.38 667.11 248.37 659.32 243.35 648.14 240.92 645.46 235.58 644.49 231.95 646.11 229.14 649.14 224.89 655.22 217.14 664.6 215.37 667.48 210.06 673.86 205.82 676.75 202.59 677.95 197.97 676.54 192.76 673.37 189.36 670.22 176.27 660.71 173.91 657.55 165.25 640.9 157.57 628.14 152.8 617.22 150 612.19 148.39 601.44 149.15 598.72 151.75 596.57 162.75 591.09 166.76 589.64 174.33 588.41 179.67 585.59 184.01 581.83 186.98 577.45 187.55 574.29 185.11 570.88 179.29 568.08 172.2 565.39 154.94 557.75 145.93 554.6 142.82 552.41 141.48 543.63 142.57 529.63 144.26 520.26 144.25 507.86 145.63 490.56 146.07 481.05 147.37 470.53 147.38 466.79 149.49 456.6 150.65 445.65 150.79 438.51 149.84 434.42 147.53 429.15 142.08 424.65 135.95 422.55 130.76 421.57 119.38 421.84 111.31 423.57 105.15 425.44 95.92 427.5 89.61 427.91 81.1 427.17 77.42 425.44 74.08 422.2 72.79 418.26 73.67 398.95 72.93 391.25 73.07 384.81 76.21 374.69 80.72 367.68 85.53 363.78 90.42 361.93 101.96 359.55 106.43 359.63 116.8 362.03 129.81 366.12 141.39 368.88 146.54 369.49 156.64 369.38 162.74 368.15 172.09 363.45 180.4 356.14 187.05 348.28 189.81 343.88 190.64 339.22 188.9 331.24 186.05 327.41 180.76 322.77 171.07 316.75 145.01 299.11 138.23 295.42 131.1 292.82 126.34 292.11 110.7 291.99 106.65 291.65 90.65 288.37 76.24 283.93 72.26 280.28 72.79 275.58 78.01 265.26 82.76 259.54 88.78 255.04 90.19 250.8 90.35 245.07 89.41 238.23 87.09 231.16 86.65 224.21 87.53 218.63 91.53 205.19 95.38 195.78 98.88 184.44 102.16 163.92 99.83 151.92 96.18 144.74 89.08 133.72 84.38 130.39 77.1 127.07 65.66 124.54 49.78 119.33 45.19 117.56 33.99 115.34 27.09 112.87 15.39 102.93 9.44 94.62 2.99 82.38 1.16 77.72 1 73.36 3.32 69.51 5.28 68.22 10.75 68.04 25.93 70.72 33.61 72.65 47.09 77.26 56.42 79.34 71.09 79.4 77.15 78.68 83.98 76.1 86.03 74.28 88.42 68.35 90.84 69.21 96.13 73.76 98.73 74.63 104.68 74.37 112.56 69.12 118.99 68.3 121.82 69.74 127.27 71.13 129.86 73.89 131.58 83.55 132.78 87.19 136.5 89.8 142.15 91.99 146.83 95.77 153.19 99.46 161.04 105.04 164.44 105.47 166.62 103.03 167.51 92.09 167.33 88.76 170.63 87.12 176.82 90.6 183.31 95.42 195.74 102.27 197.07 102.04 199.8 98.2 199.88 95.32 197.73 89.82 198.41 83.54 201.76 82.55 207.64 85.5 211.17 85.57 216.59 81.22 219.87 77.32 223.14 71.63 225.53 68.68 230.64 65.64 230.5 60.47 226.82 56.7 222.57 53.8 220.84 48.58 221.77 46.07 224.07 45.88 232.98 49.71 246.68 52.73 253.14 54.91 258.35 57.67 268.61 60.21 275.35 61.4 277.74 60.99 278.31 56.59 273.31 51.39 265.06 46.54 263.14 43.97 263.11 40.16 272.9 29.18 272.95 25.98 271.05 21.37 268.03 16.43 261.1 7.5 262.01 4.34 269.29 1.09 270.74 1 274.21 6.7 277.82 8.87 279.22 11.21 287.81 19.03 293.78 22.57 297.73 22.5 302.94 26.26 307.44 27.91 309.28 32.51 316.7 40.73 320.56 43.24 326.58 50.26 328.5 53.26 331.13 55 338.19 61.73 342.27 64.74 355.85 72.37 359.42 72.98 367.5 76.94 370.14 80.5 373.12 80.71 379.61 86.1 381.63 89.24 384.73 91.45 386.3 96.42 393.14 100.38 394.54 102.35 394.3 105.43 397.3 109.58 397.37 112.23 491.41 128.97 495.87 126.9 498.35 124.17 507.5 134.78 550.91 179.08 544.43 183.32 574.83 197.78 582.93 185.01 687.63 235.19 686.03 239.54 695.55 247.87 698.01 248.5 701.43 251.61 711.44 255.9 717.02 262.38 723.51 266.2 732.08 276.7 734.05 280.64 736.95 282.65 738.43 286.53 735.22 289.05 Z"/>
</g>
</svg>