<?xml version="1.0"?>
<svg xmlns="http://www.w3.org/2000/svg" version="1.2" baseProfile="tiny" width="800" height="630" viewBox="0 0 800 630" stroke-linecap="round" stroke-linejoin="round">
<g id="4215687">
<path d="M 635.54 253.04 637.18 256.02 640.68 258.54 650.51 263.49 652.42 267.73 657.67 272.04 662.54 277.7 666.25 279.58 673.26 287.87 678.12 290.93 683.69 292.54 697.91 300.47 704.95 303.76 710.94 305.77 713.35 307.94 718.42 310.1 720.59 309.99 724.32 312.67 730 313.64 733.77 317.74 736.28 318.55 740.91 321.48 744.02 324.3 752.58 327.82 758.16 327.57 760.5 332.42 762.85 335.77 767.37 338.85 774.32 341.89 779.14 344.74 785.16 349.97 790.7 352.95 795.35 356.43 795.51 361.26 799 370.5 798.85 372.64 791.76 379.35 782.95 382.84 780.08 387.06 780.67 389.87 784.81 395.18 787.1 401.23 788.02 406.66 785.97 409.49 784.13 413.88 783.7 417.9 781.49 420.41 780.63 424.8 775.91 427.63 769.86 434.32 767.94 440.38 765.3 443.72 759.85 452.61 759.86 456.81 754.25 458.93 754.11 460.98 750.3 463.24 745.66 463.98 743.92 465.91 740.4 467.65 738.08 473.61 737.96 475.52 735.33 484.63 731.23 486.57 729.95 490.26 724.5 491.76 720.94 496.33 716.02 499.94 710.09 501.99 707.26 504.15 704.18 504.8 699.79 507.92 699.09 509.5 701.62 515.48 701.07 517.64 697.38 517.39 694.78 518.49 692.45 521.74 691.46 528.02 689.24 531.06 689.14 535.29 687.6 536.31 683.37 534.03 681.91 534.92 680.39 539.1 681.4 542.59 683.62 543.66 687.17 548.9 685.44 551.63 680.7 552.45 677.62 556.28 675.8 557.12 669.7 557.56 668.13 559.7 663.67 560.17 662.23 557.92 657.67 553.95 651.49 556.82 647.36 557.54 643.25 559.84 643.14 561.57 648.23 566.27 648.37 568.06 645.67 572.33 642.81 574.64 638.97 573.38 636.56 570.36 632.12 569.3 629.77 569.94 627.59 576.56 623.45 576.65 622.03 583.3 624.07 584.1 623.82 586.85 620.16 588.24 611.41 595 609.55 597.68 603.81 598.41 596.98 598.35 589.51 595.81 580.51 595.86 576.14 600.08 572.79 605.55 570.34 605.97 565.02 604.45 559.44 600.29 554.97 592.37 551.77 590.82 549.74 592.69 549.06 595.32 546.87 595.56 542.94 594.05 541.11 594.33 539.47 597.43 533.04 603.19 529.57 602.87 525.07 600.64 522.45 600.58 518.93 603.23 517.19 607.26 513.02 608.78 505.29 607.9 500.97 604 493.45 599.74 490.92 597.39 489 594.21 494.01 592.5 492.08 586.12 490.22 582.44 487.17 581.06 480.52 582.14 475.59 581.52 468.99 582.63 464.89 586.47 457.49 597.16 456.31 597.46 447.75 594.66 445.55 592.37 443.95 587.45 446.4 576.68 444.65 572.21 438.36 569.32 432.4 565.3 425.05 559.52 420.73 559.97 417.01 564.23 416.44 569.12 412.21 575.49 411.12 579.22 411.8 583.87 413.61 590.96 412.88 592.72 407.35 595.73 403.47 596.44 400.12 595.54 396.93 592 391.26 586.98 389.18 587.4 387.4 590.44 385.39 597.56 383.49 599.04 378.48 598.96 372.69 586.07 369.35 576.61 366.96 568.47 362.79 568.23 351.07 576.64 350.99 578.45 355.48 584.22 354.57 586.19 348.68 589.07 346.19 589.69 339.37 594.07 332.33 596.98 329.91 596.14 328.55 591.05 329.7 586.74 328.26 582.56 323.93 581.23 320.01 581.96 316.61 583.99 312.71 588.99 309.26 597.36 305.6 601.09 300.16 602.34 292.45 599.84 286.09 596.26 281.5 592.42 278.9 595.29 278.45 599.18 278.84 605.96 277.62 610.34 275.22 610.93 270.78 607.29 269.31 605.08 267.89 599.89 264.37 594.7 262.59 593.59 257.58 593.69 254.72 595.25 252.71 598.48 249.4 601.98 247.9 605 243.18 609.22 241.55 609.28 238.72 612.34 236.2 613.77 234.06 613.16 232.64 609.79 232.26 601.71 233.57 595.61 233.04 587.46 233.54 581.19 231.03 575.44 227.68 572.16 223.62 569.99 220.44 569.74 216.14 571.55 214.42 575.37 214.42 580.07 215.81 584.32 218.11 586.9 218.99 589.78 222.67 591.63 222.77 598.73 221.71 603.42 220.15 606.79 217.27 608.48 211.18 614.75 203.77 617.49 201.02 619.05 196.08 621.77 192.61 624.5 184.98 629 179.45 627.69 175.2 623.7 171.18 621.08 167.24 616.63 162.68 613.25 159.77 611.89 152.53 610.8 149.09 611.37 145.03 613.37 137.91 618.82 131.48 620.83 129.85 620.48 126.73 622.33 122.39 621.54 115.4 617.25 106.73 617.81 102.41 615.85 96.61 610.99 91.87 605.28 90.72 603.16 85.86 600.94 83.63 601.83 78.03 591.23 76.67 589.51 66.54 580.47 61.93 577.2 57.94 571.61 57.99 567.22 61.54 562.65 70.46 559.27 73.03 557.74 76.53 557.43 84.88 555.53 84.99 552.93 81.36 547.39 75.45 541.63 73.36 540.65 64.78 538.82 60.07 539.72 52.88 542.03 48.47 540.9 45.04 538.08 44.23 532.97 45.54 527.31 45.69 516.04 46.18 511.76 49.76 505.69 51.41 504.15 58.22 502.18 61.71 500.31 62.59 495.8 59.71 487.03 57.37 486.56 51.08 490.79 47.82 489.71 44.7 486.92 44.01 484.52 48.02 478.14 50.66 470.98 52.52 460.56 51.01 458.58 42.45 457.2 40.24 454.98 34.7 442.46 32.01 440.68 29.75 437.45 31.18 434.1 37.84 430.71 40.53 428.7 51.73 428.6 56.4 427.3 59.01 424.69 60.12 421.97 58.08 420.38 54.41 419.37 53.12 413.81 56.99 409.29 63.3 406.28 67.79 401.25 68.46 399 65.44 396.88 61.48 396.94 58.73 395.5 52.29 388.65 50.97 385.3 50.58 380.99 44.07 369.26 39.73 367.06 31.5 367.98 25.99 367.12 23.18 365.66 18.39 359.65 12.38 353.63 4.06 346.17 1 342.53 3.67 339.87 21.25 338.35 27.29 334.5 32.14 328.95 34.49 327.58 36.55 328.45 43.87 336.9 46.1 338.86 51.51 341.45 54.31 341.21 63.78 337.58 70.17 334.51 76.21 333.83 78.17 334.31 83 339.02 89.78 344.4 92.69 346.16 98.07 347.65 105.55 347.14 108.23 345.47 112.39 338.88 116.6 335.66 120.73 330.66 120.64 327.43 116.51 319.44 110.7 314.28 106.24 315.23 100.66 323.39 95.52 327.35 88.7 327.12 79.24 328.65 75.09 327.55 72.46 325.87 67.6 319.8 65.6 309.54 62.33 304.83 60.92 297.43 61.74 294.15 63.86 293.22 66.85 293.82 70.27 296.42 80.29 300.88 83.45 301.63 87.81 300.44 95.3 293.17 100.38 289.36 107.67 285.02 108.33 283.55 113.67 278.37 117.2 270.47 116.08 266.23 110.93 262.47 107.83 256.15 108.44 253.66 111.65 251.09 116.04 250.65 127.28 263.32 130.94 266.53 137.3 269.27 143.27 274.2 147.25 276.8 158.44 276.59 158.98 273.4 157.96 266.41 152.25 261.79 145.78 258.2 143.62 256.31 144.74 253.46 150.31 247.62 154.16 239.9 153.96 233.34 150.43 230.97 144.14 228.06 137.32 208.09 136.36 203.66 136.76 201.28 141.17 199.23 145.86 198.56 155.24 195.89 159.19 196.22 162.2 199.62 164.39 205.39 167.65 210.72 170.07 212.59 174.62 212.76 191.25 209.03 193.33 206.04 190.04 204.87 185.82 205.07 181.13 202.6 179.67 196.21 177.46 194.61 169.94 192.15 163.81 185.11 163.28 181.4 166.79 181.5 177.93 183.89 179.29 182.43 178.93 177.63 187.42 168.44 187.47 159.27 188.18 154.24 190.35 149.7 195.54 146.07 196.6 142.44 197.59 135.31 200.87 127.52 199.98 124.15 194.57 118.79 194.15 115.05 196.12 109.57 196.14 103.5 198.21 100.97 203.84 99.38 208.79 98.84 211.06 99.87 213.04 102.85 214.84 103.55 221.82 102.27 223.03 100.64 225.5 90.42 225.65 84.87 227.47 80.38 229.47 78.55 235.76 77.5 239 78.2 242.56 80.87 244.59 84.86 248.05 88.13 250.49 88.21 253.27 85.83 253.89 83.71 252.78 74.04 253.18 70.82 257.36 68.86 261.8 71.14 265.26 70.09 266.21 68.18 262.77 63.78 262.86 61.1 264.66 56.17 265.86 40.36 269.44 37.07 271.1 37.13 274.96 43.28 275.87 46.45 277.52 48.07 289.76 42.77 294.69 41.41 301.22 41.4 304.51 45.15 307.95 50.68 310.19 50.59 313.3 41.37 320.75 37.64 324.97 31.57 328.98 30.43 330.2 28.68 334.98 28.29 339.91 30.12 346.42 33.43 348.06 33.32 353.81 35.63 360.82 36.84 366.3 39.3 372.33 43.48 376.9 45.16 379.52 47.1 391.06 45.79 395.42 46.55 401.55 48.57 406.36 47.84 412.63 50.04 417.92 53.1 422.47 53.62 427.83 51.32 437.37 36.94 442.11 35.1 446.39 34.71 449.02 32.47 451.67 32.11 458.43 33.75 458.73 31.6 456.38 29.8 445.79 23.66 441.27 22.15 435.44 16.17 433.7 7.68 433.37 1 440.07 3.25 444.13 5.62 451.72 5.36 458.33 6.57 464.32 9.38 470.21 9.12 479.13 10.31 482.89 9.82 489.74 10.22 504.36 13.44 508.43 13.13 511.28 14.28 513.93 18.11 514.18 21.04 516.3 24.11 514.98 28.23 520.55 29.04 528.92 37.07 527.71 41.54 524.42 43.57 524.76 46.27 527.6 47.96 528.84 50.53 532.62 55.01 531.97 57.32 529.8 58.84 525.73 66.81 523.13 70.61 522.38 74.53 524.28 78.06 528.05 80.44 532.99 82.18 532.78 85.09 528.81 85.66 526 88.23 525.87 93.66 529.41 97.5 533.6 99.84 533.04 101.56 530.16 102.26 528.53 106.56 521.93 105.23 517.81 106.42 518.15 108 522.09 108.93 521.02 113.81 517.88 117.77 517.08 123.96 517.47 126.89 523.02 135.32 523.73 139.09 521.69 142.81 521.5 149.41 517.51 153.33 611.34 207.26 610.34 214.78 610.8 217.56 619.05 216.64 620.59 216.96 622.32 220.09 621.47 222.8 614.84 231.83 611.49 234.14 603.49 235.63 603.14 241.37 604.94 243.32 612.66 245.6 613.91 248.24 611.82 253.41 612.22 254.97 616.29 258.31 621.08 251.49 625.74 249.18 631.47 251.84 635.54 253.04 Z"/>
</g>
</svg>