<?xml version="1.0"?>
<svg xmlns="http://www.w3.org/2000/svg" version="1.2" baseProfile="tiny" width="800" height="781" viewBox="0 0 800 781" stroke-linecap="round" stroke-linejoin="round">
<g id="4215455">
<path d="M 53.83 761.39 56.8 752.98 64.42 735.24 65.45 729.2 64.18 722.52 55.8 700.65 42.81 669.39 41.47 656.84 40.83 634.44 39.76 612.35 37.7 578.57 37.41 562.85 38.82 555.29 39.98 542.39 44.37 499.87 47.34 478.76 47.39 473.65 49 459.58 49.73 440.38 49.52 402.7 49.62 386.45 50.18 379.45 49.51 373.89 47.34 369.16 44.21 365.82 35.46 361.21 20.15 354.83 16.13 353.68 1 346.71 110.21 281.26 191.3 232.24 276.27 181.13 472.05 56.47 562.2 1 670.45 118.18 790.71 248.35 784.29 258.32 775.48 265.1 769.1 268.34 757.7 279.3 756.56 281.77 757.14 288.58 754.24 291.21 753.12 297.68 753.56 302.03 751.11 310.3 748.4 315.46 748.81 319.28 742.88 322.49 743.5 326.1 740.76 328.37 745.79 330.85 754.85 336.68 772.17 346.66 799 372.82 776.12 394.33 766.01 404.13 760.7 408.32 737.43 421.3 715.77 433.81 696.18 443.82 692.99 446.06 693.53 451.63 696.48 458.43 695.05 470.77 698.54 490.1 706.16 501.96 706.63 505.24 710.42 509.18 718.77 508.51 725.12 510.76 729.98 511.17 734.58 514.97 745.98 526.42 749.8 531.35 755.29 535.76 759.8 545.45 593.13 661.14 566.84 676.95 543.45 676.82 537.2 678.15 534.17 680.34 526.28 682.49 514.27 688.46 509.93 692.92 501.89 705.01 498.38 712.46 496.41 714.51 483.45 717.77 472.83 717.5 469.88 716.27 461.8 710.14 453.99 708.72 449.2 711.72 440.93 715.48 422.98 718.06 409.62 721.39 402.33 721.38 395 719.4 388.67 719.2 377.04 720.64 349.13 721.98 321.77 722.22 296.96 725.11 285.07 726.08 282.21 728.25 263.96 737.64 251.74 746.47 247.47 747.76 237.13 754.51 234.01 755.46 224.42 761.01 219.55 761.53 217.86 765.18 212.62 767.23 209.68 772.35 198.35 780 192.34 779.35 172.61 779.63 155.51 778.07 140.94 772.76 131.04 765.7 127.36 764.41 121.18 764.32 117.63 765.68 107.88 765.48 98.82 768.1 94.14 767.89 89.38 764.49 87.65 761.24 81.96 755.55 79.29 755.17 70.59 757.93 64.84 755.05 59.49 754.77 55.63 758.11 53.83 761.39 Z"/>
</g>
</svg>