<?xml version="1.0"?>
<svg xmlns="http://www.w3.org/2000/svg" version="1.2" baseProfile="tiny" width="800" height="817" viewBox="0 0 800 817" stroke-linecap="round" stroke-linejoin="round">
<g id="4215752">
<path d="M 498.12 173.79 498.01 175.44 500.69 181.63 508.99 188.98 522.32 183.1 527.71 178.61 528.42 171.98 529.53 169.5 531.42 169.5 537.24 178.32 537.19 180.91 531.19 182.34 531.16 186.31 535.02 190.7 547.78 189.98 572.75 187.89 606.15 186.63 650.8 183.8 650.81 191.11 649.39 194.21 649.09 198.68 650.53 203.24 653.23 207.3 656.99 210.2 671.36 217.19 682.83 224.2 685.53 227.58 685.31 231.26 684.04 234.37 680.67 238.44 678.82 244.02 679.85 248.93 678.22 255.97 679.75 259.65 684.05 266.47 687.2 269.94 687.4 273.26 682.49 276.33 679.6 279.51 674.26 287.11 672.45 291.65 673.31 297.72 672.03 304.08 669.12 311.74 668.57 315.88 666.67 320.65 664.39 322.71 662.91 325.75 667.33 328.4 669.79 332.45 672.96 334.4 677.21 335.94 678.07 340.62 680.81 343.72 687.35 349.11 692.18 355.66 694.06 361.1 697.61 377.16 697.31 380.88 699.91 385.8 706.9 396.38 711.7 399.33 714.55 402.42 715.63 405.97 718.27 409.16 719.45 412.63 724.04 414.57 726.17 416.77 730.35 417.86 734.33 420.67 737.81 421.99 743.57 426.29 748.18 427.85 748.28 428.89 743.21 433.01 739.75 438.02 736.03 439.19 735.95 441.45 739.92 444.89 746.63 448.07 751.88 448.06 754.65 446.95 761.91 447.77 767.29 450.65 768.48 452.35 772.08 454.16 773.1 457.34 760.55 463.57 757.54 463.56 754.42 465.35 753.08 468.06 756.28 473.65 760.72 475.69 766.88 476.26 772.13 476.14 777.66 475.38 786.78 472.67 788.56 472.53 795.52 477.01 799 480.61 798.54 482.67 794.12 484.12 792.03 485.66 788.89 492.11 784.3 498.27 783.19 503.65 781.18 506.67 779.38 507.39 768.24 507.52 760.91 505.19 757.72 503.26 755.68 500.64 754.89 495.83 754.87 486.82 753.72 483.57 751.56 482.7 746.14 486.48 740.77 493.86 736.41 506.6 732.08 507.92 729.24 505.77 724.64 498.91 722.72 498.44 716.78 504.75 713.99 509.65 706.54 525.23 704.75 535.85 706.46 538.26 708.14 545.19 711.43 551.95 714.26 555.16 717.49 555.6 723.94 557.92 725.86 559.76 726.05 567.53 724.32 569.88 721.96 570.65 713.02 569.05 699.77 564.09 696.4 561.37 696.36 556.98 695.15 550.04 694.4 540.43 690.43 533.1 687.25 533.48 683.2 536.74 681.12 539.95 678.69 547.85 677.14 555.56 676.36 561.99 674.4 564.83 670.39 568.03 661.48 578.01 660.69 580.47 662.12 586.61 665.28 591.81 667.33 596.17 667.88 599.32 665.77 601.12 659.41 597.71 656.23 592.38 654.2 590.73 648.51 588.74 638.31 588.38 633.88 592.38 633.39 596.5 636.05 602.09 638.04 608.96 636.07 611.66 630.57 608.87 627.63 606.57 623.45 602.08 620.4 596.51 614.13 595.29 610.73 592.77 607.09 591.88 604.55 593.1 604.25 596.52 605.94 600.26 615.4 610.95 620.15 613.98 624.41 617.58 632.91 622.84 638.36 628.74 640.58 633.77 646.09 637.06 649.5 640.83 651.21 644.09 653.04 650 655.36 654.59 658.71 657.15 664.57 659.37 668.55 659.13 682.04 656.32 688.1 656.93 690.41 657.79 694.05 661.87 697.65 667.96 700.75 670.73 709.18 677.24 712.77 681.56 713.02 684.65 709.17 688.97 702.91 694.22 700.72 695.29 696.96 695.06 694.91 693.52 693.55 689.39 691.83 688.48 684.66 691.16 682.68 692.76 680.33 697.83 679.77 700.61 682.58 707.72 680.57 713.21 678.17 725.37 679.82 730.28 684.04 734.57 692 739.17 699.38 742.36 703.61 745.35 706.41 749.67 706.95 751.72 706.02 755.2 705.3 761.55 703.13 770.46 703.82 775.21 708.12 777.53 712.89 776.09 717.57 772.96 725.95 768.86 728.21 767.25 733.31 768.89 734.72 774.92 732.82 781.67 729.77 784.7 724.22 787.45 720.27 788.83 716.75 788.81 711.06 789.74 706.54 789.1 694.27 785.32 690.89 784.67 684.79 785.91 670.34 789.64 662.7 793.71 658.87 797.41 653.6 805.57 652.65 810.99 648.28 813.75 642.51 814.18 629.48 810.66 623.46 807.39 619.25 807.46 614.27 806.48 609.87 807.43 608.21 809.11 605.28 816 512.42 742.69 509.05 737.3 506.35 731.55 497.33 722.22 487.86 713.71 485.19 710.55 482.87 709.15 481.43 706.58 472.71 698.68 468.9 692.9 465.85 685.3 462.83 675.34 459.48 669.94 454.93 664.86 448.17 655.27 445.27 651.99 442.52 650.48 435.01 649.92 426.7 651.63 415.24 654.51 411.4 656.44 409.62 659.12 407.05 667.41 410.32 674 408.27 678.34 374.8 715.67 373.34 712.8 362.39 708.55 359.78 705.83 352.57 700.95 348.67 699.7 342.42 698.78 336.1 696.18 331.95 692.11 328.02 689.12 318.89 686.51 306.97 684.4 298.98 686.75 289.6 686.27 285.17 687.22 280.74 687.26 271.76 691.01 266.94 694.98 265.25 697.55 261.17 698.89 254.28 699.76 249.65 698.88 247.05 697.53 246.66 695.59 248.39 689.99 245.58 684.35 242.32 682.41 236.45 683.55 231.65 683.05 230.08 680.89 230.89 678.32 234.01 675.45 234.12 670.93 228.19 658.65 233.55 651.39 234.03 648.73 232.83 646.33 233.3 644.28 239.66 638.31 238.51 633.87 237.37 630.8 235.19 627.81 238.78 621.96 238.85 616.93 237.58 613.44 232.58 607.43 228.75 605.27 223.07 602.91 220.62 601.07 219.83 594.78 218.53 593.73 213.02 593.07 207.9 593.51 204.84 592.6 200.92 589.88 198.72 585.09 199.65 580.36 202.94 576.95 204.07 573.74 203.65 571.54 200.07 569.48 198.93 567.24 200.78 563.82 199.22 561.21 195.13 560.19 186.38 559.77 183.6 557.85 180.87 554.77 178.11 549.84 174.75 547.1 174.45 545.41 176.65 539.02 176.39 536.74 174.54 533.11 171.16 528.77 169.26 528.09 163.44 527.84 152.51 524.7 144.16 525.12 137.4 521.68 133.52 521.59 130.23 523.2 126.43 526.74 123.56 530.88 121.36 532.33 104.26 535.54 99.57 535.35 97.04 533.7 96.49 531.3 96.7 526.28 96.03 522.06 93.83 518.39 90.54 514.95 88.8 511.93 86.31 511.17 76.7 510.88 72.9 509.86 72.61 506.68 74.42 504.4 74.25 502.54 69.78 499.1 67.59 495.22 70.29 488.34 70.37 485.52 67.74 483.18 62.22 481.7 50.7 483.09 40.02 482.86 36.06 480.37 34.07 475.05 31.42 471.17 29.05 469.31 27.87 466.07 30.87 464.63 38 463.49 41.83 461.55 41.03 457.58 32.85 455.18 32.81 451.72 36.73 446.38 37.28 443.89 35.25 440.52 28.21 438.93 26.56 432.6 24.96 429.69 20.1 423.19 18.41 418.13 19.43 415.51 22.72 412.05 23.22 410.28 20.94 408 12.76 404.21 6.35 401.84 1.77 398.26 1.48 396.86 3.19 390.47 2.03 381.32 4.54 374.68 4.09 372.66 1 370.3 3.19 367.8 9.29 364.22 12.9 363.13 21.79 361.48 23.34 359.92 26.74 353.61 36.21 343.72 38.53 339.5 42.44 335.89 43.31 333.36 46.3 331.24 49.73 323.91 112.45 191.83 157.19 169.87 160.44 166.99 168.69 165.57 168.05 161.14 166.37 155.86 166.58 153.61 164.3 149.56 170.79 149.42 177.79 150.73 180.31 148.76 180.85 146.47 175.6 144.1 174.46 142.26 174.08 138.22 169.27 136.12 166.68 133.96 166.63 130.73 163.14 124.62 160.05 121.7 164.36 119.53 167.87 112.19 171.51 112.85 175.59 115.39 176.94 113.2 179.31 112.12 180.24 110.06 180 106.16 174.62 104.46 171.43 101.43 170.18 98.37 166.04 97.52 165.36 96.04 170.74 94.31 176.79 91.43 181.12 86.45 184.54 88.15 187.28 86.36 187.37 82.49 188.56 79.02 187.62 76.45 184.09 77.36 181.94 76.03 184.84 71.68 182.9 67.35 182.57 64.6 183.79 61.83 187.39 61.48 188.1 59.73 181.86 54.33 181.6 52.89 184.25 46.85 186.87 43.51 186.56 39.3 188.76 35.98 191.1 35.36 194.58 37.66 198.78 36.5 201.44 32.65 201.64 28.99 196.99 28.52 194.84 27.29 191.12 23.43 192.25 21.27 195.47 19.81 197.71 15.62 197.62 11.53 200.29 9.23 199.91 7.61 196.19 6.61 195.91 4.47 197.88 2.75 202.24 1 204.85 4.18 209.64 4.37 218.5 6.43 226.51 7.88 233.15 7.54 238.36 8.3 239.49 9.16 240.42 13.61 238.98 17.11 241.39 19.14 252.95 17.38 255.1 17.84 256.24 20.75 256.44 24.22 259.41 26.35 262.91 26.18 267.02 24.29 270.97 24.69 275.99 27.5 278.46 32.31 281.48 34.67 283.14 37.12 283 41.67 278.99 47.49 274.24 53.56 274.5 55.24 277.89 56.85 285.25 57.04 289.7 58.84 291.25 62.87 295.76 66.53 299.09 66.83 303.54 64.55 305.44 61.49 309.38 61.3 311.13 63.24 314.86 64.26 319.85 63.16 328.82 62.65 334.56 59.28 339.39 60.37 339.91 62.64 337.15 65.26 337.28 67.66 339.67 71.98 342.26 80.52 344.55 83.74 350.85 84.84 356.28 88.17 363.15 93.4 365.85 93.79 369.31 96.72 376.64 99.74 383.61 103.7 386.42 103.16 390.45 103.8 392.63 106.12 393.28 111.41 392.71 116.2 396.48 117.69 414.35 129.13 419.51 133.45 422.75 137.23 427.7 140.9 430.86 144.01 438.23 145.79 447.56 146.18 450.85 148.41 454.81 149.1 463.86 149.22 465.84 150.19 467.2 155.65 469.31 158.9 473.26 158.34 481.16 156.2 484.87 158.1 484.35 162.2 496.74 165.54 494.88 168.39 498.12 173.79 Z"/>
</g>
</svg>