<?xml version="1.0"?>
<svg xmlns="http://www.w3.org/2000/svg" version="1.2" baseProfile="tiny" width="800" height="585" viewBox="0 0 800 585" stroke-linecap="round" stroke-linejoin="round">
<g id="4215406">
<path d="M 397.2 92.92 490.67 110.44 691.92 148.17 694.8 152.14 701.83 159 706.12 161.8 709.75 161.92 715.67 156.17 718.78 150.49 721.17 150.3 724.75 151.58 728.83 151.97 734.21 151.55 738.73 153.63 742.73 150.1 747.87 149.29 751.32 155.07 752.67 159.74 754.72 162.27 760.24 164.31 763.78 164.94 764.03 166.52 761.44 168.37 759.91 171.11 761.43 177.8 759.03 179.55 755.98 178.58 750.76 174.66 744.56 167.01 739.36 166.58 736.42 164.91 730.1 167.63 724.95 171.28 720.3 176.39 718.99 180.04 719.23 182.68 721.57 186.32 724.05 187.98 730.12 190.26 731.26 191.91 728.31 193.3 725.49 198.01 729.24 204.14 733.77 208.18 738.15 206.32 742.36 201.97 744.59 198.33 746.4 197.59 749.64 202.54 754.92 220.19 751.02 222.36 744.1 221.78 741.73 222.14 739.92 225.11 740.65 228.06 746.61 231.82 749.8 233.14 757.41 234.68 759.63 237.78 757.02 242.5 752.11 243.31 743.6 243.68 742.53 245.24 744.21 251.14 744.66 255.94 746.54 258.62 760.23 262.83 765.79 270.74 768.66 272.4 770.95 271.97 773.15 269.59 777.19 259.05 779.19 257.36 786.3 259.64 793.39 262.49 797.95 263.03 799 264.93 797.13 267.86 793.56 268.34 782.54 272.4 777.85 273.63 770.96 277.1 769.78 279.15 769.51 282.88 763.28 290.43 762.62 297.52 765.31 304.33 766.49 309.44 768.06 310.51 773.39 309.97 780.84 308.35 790.12 307.44 794.25 308.42 795.72 311.53 796.56 316.22 793.93 318.66 787.96 321.72 785.47 327.06 787.26 331.56 787.4 337.22 785.66 340 782.76 341.16 776.61 342.05 774.3 341.1 766.97 344.07 758.83 348.72 757.06 351.74 757.49 357.59 758.97 360.26 764.3 361.75 768.93 362.18 777.03 365.26 782.85 364.69 785.23 365.08 793.5 369.94 795.88 373.07 795.7 376.52 789.24 380.22 781.64 385.52 776.07 385.08 773.88 380.69 770.78 379.28 767.47 379.64 757.85 381.94 748.4 382.86 746.03 384.33 747 387.9 754.01 392.27 760.79 399.01 764.18 401.43 766.26 405.02 764.81 409.06 762.81 412.05 758.88 420.56 760.15 424.09 766.72 431.98 771.85 436.17 783.02 436.13 786.67 437.64 789.95 441.83 790.14 444.45 787.1 446.73 774.41 449.93 769.12 452.77 768.11 455.33 769.34 458.97 779.85 466.36 782.83 471.19 781.91 480.14 779.91 484.78 776.48 488.84 774.58 488.32 772.61 479.82 771.37 477.46 768.69 475.36 764.85 474.66 755.88 476.9 754.65 477.78 753.61 482.33 755.5 486.78 759.45 490.3 767.1 495.52 771.62 497.63 774.1 500.5 776.45 506.22 779.26 509.9 785.61 516.19 786.02 519.02 784.93 520.82 779.7 523.64 778.56 530.58 775.62 536.24 777.92 540.02 780.39 541.25 788.45 543.63 695.06 551.23 560.31 560.74 557.64 557.25 554.06 554.65 549.61 554.4 547.48 556.35 544.82 561.79 543.26 567.4 539.77 571.23 538.49 578.66 538.67 583.38 534.86 584 531.07 583.09 529.43 580.85 526.44 569.97 527.43 565.88 526.81 561.65 524.82 559.22 524.05 555.14 521.62 554.58 517.45 560.05 515.68 566.64 514.74 572.64 507.93 574.03 501.72 573.45 499.75 571.99 497.8 568.11 497.93 564.36 493.33 563.89 488.24 567.7 486.15 567.9 483 564.55 478.04 557.59 474.43 555.61 471.75 556.04 464.9 560.42 459.3 560.6 449.52 554.16 445.71 552.77 441.75 550.17 436.84 551.56 427.43 551.12 424.46 551.62 420.01 550.45 418.87 549.16 409.8 548.16 401.54 544.42 396.13 543.78 391.94 541.6 389.63 537.7 389.62 532.68 390.53 526.58 389.33 523.2 389.39 516.79 390.9 514.66 396.66 513.87 401.79 512.37 403.27 509.94 402.64 507.32 396.57 507.38 393.34 502.27 393.09 495.37 389.61 489.5 384.65 486 381.43 486.01 380.6 488.11 381.44 496.71 380.18 499.07 371.91 498.71 368.57 499.7 367.47 501.2 366.06 508 362.89 512.36 355.56 516.73 349.76 522.5 349.66 525.93 347.05 526.81 344.37 525.42 340.51 521.61 341.55 516.3 343.57 510.7 340.9 508.38 333.62 509.07 331.2 508.39 329.81 505.31 329.77 494.35 327.11 488.34 323.38 488.38 307.93 495.52 305.23 495.43 302.85 493.77 293.29 495.58 290.81 494.4 290.85 487.6 286.09 486.26 274.99 485.25 270.88 484.41 266.86 484.96 259.51 487.85 256.58 495.93 255.01 498.92 251.39 502.7 250.25 505.46 248.23 505.51 243.48 503.01 239.48 502.29 238.6 500.75 238.93 495.87 236.92 494.18 231.63 496.13 229.45 496.14 225.77 492.54 222.54 490.58 211.18 489.14 206.95 487.04 204.16 484.54 199.48 483.62 192.14 485 190.4 483.59 190.2 480.51 185.14 478.47 184.42 473.11 180.13 472.75 177.83 471.07 173.65 464.71 170.66 462.7 169.13 457.79 169.89 452.42 169.19 446.69 173.21 439.92 170.16 435.57 167.15 429.3 169.49 428.44 175.22 428.16 174.06 423.36 176.47 419.81 175.55 411.65 171.71 406.44 168.14 400.64 168.51 397.79 175.16 392.77 177.96 389.37 177.88 386.56 175.86 383.42 164.75 376.03 162.31 372.69 163.38 369.14 165.35 367.51 168.72 367.19 172.03 367.97 177.63 367.69 182.5 364.36 180.83 362.6 175.17 360.64 172.64 355.02 173.52 349.34 171.18 346.99 165.41 344.55 161.56 341.46 158.91 337.95 160.23 336.05 164.25 334.34 164.02 329.28 168.23 325.83 167.93 323.7 171.22 320.21 167.63 318.55 166.23 316.62 165.77 312.15 164.24 310.4 159.05 309.38 155.97 309.8 149.54 309.08 148.55 307.06 150.93 304.19 142.98 299.32 141.62 297.43 135.24 294.16 133.01 290.7 133.28 287.73 130.97 282.65 130.98 277.8 130.09 273.4 132.08 267.66 131.19 265.84 125.96 265.58 124.32 263.39 127.05 260.36 127.61 254.1 127.17 251.58 125.14 249.58 120.31 249.01 119.64 245.19 121.6 240.33 123.85 239.43 129.96 241.8 133.22 241.58 132.73 237.84 130.01 235.26 125.27 233.82 124.27 232.4 127.72 225.88 127.94 219.05 123.39 213.65 123.69 212.03 127.06 206.98 126.32 204.35 117.97 200.11 119.81 192.84 117.13 187.99 113.43 187.39 111.85 181.8 106.89 176.84 101.58 178.56 100.33 176.5 100.5 173.53 99.4 167.71 101.07 165.67 96.66 162.03 94.33 161.14 94.07 156.12 92.73 151.2 88.11 149.45 89.41 144.57 90.84 142.47 90.62 139.61 96.33 139.52 97.69 136.04 100.44 133.76 104.07 132.72 107.13 130.54 111.77 123.79 116.04 121.53 119.41 115.93 122.61 112.13 120.53 108.01 117.48 104.97 115.99 101.8 114.92 94.46 113.16 92.14 107.99 91.62 106.51 90.67 104.25 83.81 100.86 83.28 98.51 79.03 97.31 75.21 92.98 73.09 92.2 69.12 94.91 62.34 94.32 59.63 91.94 56.68 90.96 52.46 89.06 48.2 88.89 44.3 84.75 38.91 81.51 36.08 77.33 35.22 75.58 33.06 72.23 35.5 69.34 36.46 63.24 35.8 57.49 37.82 53.07 40.54 47.31 37.99 43.09 31.74 37.7 31.67 33.99 30.07 31.54 30.59 27.15 33.71 25.05 33.63 21.72 29.16 19.06 28.7 18.29 26 10.55 24.79 7.48 21.3 3.9 18.59 1.2 14.9 3.34 11.45 3.35 6.13 1 1 325.21 75.91 397.2 92.92 Z"/>
</g>
</svg>