<?xml version="1.0"?>
<svg xmlns="http://www.w3.org/2000/svg" version="1.2" baseProfile="tiny" width="800" height="865" viewBox="0 0 800 865" stroke-linecap="round" stroke-linejoin="round">
<g id="4216206">
<path d="M 681.76 685.87 680.87 685.02 680.7 683.16 681.23 680.75 682.06 679.29 683.63 679.69 684.57 682.63 684.43 684.09 683.66 685.12 681.76 685.87 Z M 683.52 675.79 682.78 675.68 682.31 673.51 682.67 669.24 684.39 667.44 686.66 667.76 687.94 668.93 688.26 671.74 686.81 674.02 683.52 675.79 Z M 694.73 641.04 693.96 642.69 693.7 645.77 690.63 649.01 689.16 651.16 687.38 650.89 687.9 645.4 690.12 641.77 691.78 641.07 693.59 641.37 694.73 641.04 Z M 690.53 639.6 688.13 639.31 687.21 637.52 687.35 635.67 688.31 633.98 690.38 633.89 692.37 636.07 691.3 637.49 690.53 639.6 Z M 773.26 200.1 771.24 200.42 766.21 199.34 765.89 197.94 768.48 196.81 771.36 196.15 772.94 197.18 773.26 200.1 Z M 784.05 140.63 782.58 144.57 781.55 144.93 779.22 144.68 777.62 143.98 776.88 142.62 777.21 141.59 778.56 141.22 779.63 140.23 782.46 139.46 784.05 140.63 Z M 796.36 128 794.72 128.07 793.37 129.47 793.82 131.6 792.22 133.77 792.67 135.91 794.56 136.75 796.4 137.12 797.51 138.92 796.4 140.06 795.21 139.03 793.21 138.19 790.63 137.93 790.22 138.85 792.35 141.39 791.94 143.52 790.54 146.5 789.35 145.21 789.35 142.78 788.74 139.69 788.21 138.52 786.57 137.52 785.34 134.32 784.69 131.68 785.59 127.38 786.82 124.54 787.8 124.1 791.2 123.77 792.55 124.21 795.95 126.24 796.36 128 Z M 798.51 103.53 796.64 104.74 795.06 104.44 795.05 99.82 796.39 99.2 798.51 98.99 799 102.68 798.51 103.53 Z M 790.55 96.45 791.77 97.07 791.18 98.7 789.46 98.63 786.78 101.37 785.02 97.7 785.43 97.1 787.7 97.21 789.32 96.18 790.55 96.45 Z M 110.85 1 117.89 4.41 413.08 147.3 412.41 150.28 409.88 163.41 409.04 172.31 409.89 183.09 414.1 194.89 419.72 203.35 427.67 211.17 470.66 183.36 487.67 172.71 505.68 159.69 530.43 144.2 538.93 138.01 548.57 131.19 554.52 125.42 559.8 118.88 565.55 107.02 578.76 108.56 594.83 110.77 606.27 112.6 609.55 112.81 617.15 115.24 624.15 115.85 629.2 115.26 634.48 114.16 639.64 113.71 641.81 113.29 643.19 111.96 650.67 108.38 653.69 106.62 656.67 105.25 657.91 104.22 653.71 103.34 653.82 101.24 657.91 100 661.44 97.05 661.28 95.88 662.48 94.69 664.39 94.13 665.67 94.95 670.15 96.46 672.56 96.55 675.88 97.36 676.21 100.26 677.33 102.24 680.98 106.82 683.66 106.64 684.56 107.71 685.35 109.92 685.4 111.64 684.71 112.57 684.2 116.03 685.3 119.72 684.79 122.29 683.85 123.74 683.07 126.86 683.58 127.36 681.84 129.17 681.42 131.85 680.44 132.21 679.44 136.56 678.41 139.11 677.1 146 676.51 147.18 675.79 151.81 675.34 152.8 674.61 163.32 675.16 167.78 675.06 171.35 675.46 174.03 675.19 176.13 675.63 178.61 676.54 180.08 676.64 182.63 675.71 184.73 676.5 186.93 676.42 188.05 676.97 192.44 677.77 195.16 678.16 198.42 679.15 201.05 679.51 205.72 680.5 208.65 681.66 213.56 682.75 216.17 683.07 218.02 684.16 220.09 684.85 222.34 687.39 227.36 688.22 228.66 690.44 233.81 695.54 242.56 699.16 247.24 700.32 247.24 701.41 248.67 702.76 249.11 709.31 254.51 712 256.35 716.57 258.69 721.64 260.44 724.67 261.14 728.04 261.62 731.6 261.81 735.27 261.5 738.83 260.8 740.11 260.17 743.28 256.16 744.82 253.6 745.21 251.67 744.16 246.76 743.78 243.46 745.85 242.04 746.59 241.07 748.46 241.77 750.28 244.88 751.33 244.05 751.76 242.21 747.36 239.87 747.91 239.41 749.9 240.23 752.44 240.73 753.93 240.55 754.97 237.55 756.52 235.28 760.63 237.86 763.25 237.03 765.18 238.31 765.73 240.01 766.73 240.47 765.61 242.78 763.11 244.49 762.98 245.55 761.51 246.62 760.89 248.25 759.33 249.18 759.6 250.92 759.32 252.58 760.05 253.4 759.38 254.86 758.91 257.48 757.99 258.59 757.64 260.54 756.43 263.86 757.79 264.88 757.01 266.46 754.1 268.25 751.87 268.7 751.04 267.58 749.09 268.45 747.32 272.94 746.91 275.09 747.2 277.2 747.99 278.77 749.13 278.12 751.37 278.51 752.12 279.52 751.6 280.99 749.09 282.61 748.14 282.71 747.1 284.47 747.19 286.02 744.61 285.67 743.42 284.43 741.73 284.82 740.25 286.35 737.48 290.21 735.17 294.01 734.45 295.73 732.5 298.58 731.21 300.94 729.78 302.79 727.47 307.29 726.4 308.42 724.46 311.86 721.45 316.35 720.4 318.7 719.18 320.11 718.25 321.92 716.6 324.12 714.61 327.86 712.53 331.04 711.28 333.53 708.87 336.79 707.27 339.84 703.64 345.26 700.92 349.71 698.87 353.78 695.27 359.01 693.31 362.74 690.94 366.74 688.7 370 683.22 379.34 681.04 382.43 680.11 384.66 679.12 385.9 675.21 392.85 670.33 401 662.73 414.43 661.13 417.77 657.11 424.86 655.81 427.8 653.82 430.45 650.86 436.74 647.71 441.57 646.84 443.74 645.24 446.35 638.51 459 635.92 463.69 635.26 465.37 633.18 468.82 630.83 474 628.63 477.69 625.79 482.99 624.54 485.92 624.36 487.21 622.64 490.89 620.41 494.14 618.59 498.58 616.7 501.98 613.5 509.2 610.33 515.97 604.49 529.82 604.24 531.08 603.11 532.59 599.36 544.26 598.03 547.61 596.37 550.37 595.84 554.15 594.45 557.3 593.75 560.18 592.8 562.45 592.49 564.49 592.69 566.06 591.95 569.32 589.47 579.06 588.92 579.67 588.29 582.6 587.71 583.39 587.04 587.4 586.04 590.63 584.2 593.85 584.19 595.28 583.54 597.15 582.02 600.14 578.23 608.2 570.85 622.71 568.67 625.67 565.08 632.24 562.69 636.24 556.03 646.71 551.82 653.01 547.98 659.33 545.65 662.62 543.03 666.95 541.96 668.22 535.95 678.54 532.16 684.58 531.53 685.96 529.67 688.6 527.36 693.13 524.2 698.7 522.39 702.34 519.91 706.8 518.21 710.5 517.47 711.34 515.71 715.46 513.52 719.24 512.39 721.92 510.83 724.84 508.66 730.43 506.97 733.9 504.02 740.9 503.78 741.89 501.16 747.7 496.2 761.47 495.37 763.55 492.04 773.95 490.66 779.71 490.44 781.85 488.86 787.91 488.97 788.62 487.65 794.57 486.21 804.16 486.03 811.36 485.76 816.59 485.93 821.3 486.3 824.79 488.07 834.03 489.68 841.61 492.18 848.8 494.87 852.62 497.25 855.03 498.4 856.66 499.98 856.3 500.42 857.77 493.98 860.93 490.35 861.63 486.46 860.47 484.45 860.8 480.78 862.58 471.99 864 467.36 863.98 463.75 863.21 460.68 861.8 454.71 858.28 440.3 846.31 426.15 832.95 423.98 829.74 420.8 825.69 417.2 819.06 415.54 810.62 415.4 803.49 416.95 794.54 423.52 775.53 433.74 746.12 435.18 742.08 436.54 735.82 436.39 728.47 435.51 722.02 433.89 715.13 428 705.87 422.1 695.49 420.53 693.32 413.23 677.06 410.06 667.12 408.38 659.28 405.39 653.67 397.86 644.07 392.53 639.61 387.55 636.3 370.76 632.3 356.39 632.91 350.49 632.25 339.77 627.77 324.8 618.81 320.22 615.51 315.34 612.5 297.85 603.19 272.59 593.09 260.78 585.87 255.63 582.95 251.72 581.76 245.76 580.83 238.39 579.21 226.51 573.62 218.57 572.74 210.74 570.16 208.22 568.24 207.05 566.56 203.98 553.98 201.41 547.33 197.36 542.9 194.81 541.07 186.57 537.53 175.88 534.39 168.17 532.31 157.99 525.1 154.58 521.25 151.66 513.52 152.71 508.21 155.89 503.4 164.03 495.72 166.26 491.37 167.34 483.09 166.58 475.16 164.62 468.59 161.21 462.86 158.6 460.68 152.84 453.89 136.4 438.48 124.71 428.85 116.3 419.5 111.93 352.57 99.61 319.76 96.82 316.37 71.37 282.55 62.62 261.91 55.31 239.57 52.74 231.4 51.92 227.39 51.84 223.2 52.52 219.5 53.73 214.96 56.25 210.73 59.56 208.84 67.28 204.86 70.58 202.47 73.68 199.23 74.49 193.19 74.21 188.5 73.2 183.99 70.66 177.5 63.9 164.03 60.08 158.56 46.49 137.32 21.07 99.68 8.47 81.44 1 68.39 4.9 63.25 9.29 59.58 12.42 56.65 14.53 55.36 16.2 54.75 18.74 54.6 20.61 54.1 22.66 52.97 24.02 50.27 25.74 50.15 27.23 49.35 29.15 49.09 29.97 48.28 29.8 46.26 30.75 43.88 32.43 42.53 33.94 40.54 35.33 39.47 35.68 36 36.05 34.99 37.7 33.19 39.63 32.32 46.92 32.19 48.14 32.57 51.41 34.3 53.76 34.47 60.43 29.32 61.66 28.68 66.17 27.76 68.02 27.06 74.86 20.51 77.24 18.73 82.25 15.85 83.5 14.1 88.79 10.59 90.44 7.11 93.72 4.91 97.86 3.18 100.54 1.72 104.9 1.09 110.85 1 Z" fill-rule="evenodd"/>
</g>
</svg>