<?xml version="1.0"?>
<svg xmlns="http://www.w3.org/2000/svg" version="1.2" baseProfile="tiny" width="800" height="880" viewBox="0 0 800 880" stroke-linecap="round" stroke-linejoin="round">
<g id="4216255">
<path d="M 421.83 3.58 424.41 5.52 426.86 9.28 426.03 10.9 433.48 14.56 438.39 21.3 439.87 24.77 443.69 28.36 450.85 29.38 455.75 32.58 458.71 33.45 460.66 36.43 467.45 41.95 472.35 45.32 475.38 50.03 477.75 51.94 478.38 55.05 481.67 60.51 481.58 63.47 484.04 67.9 484.31 70.08 488.43 75.29 490.91 80.75 495 83.22 504.32 93.69 647.41 90.97 653.07 96.63 656.46 99.1 663.15 102.46 666.37 105.64 668.95 110.09 670.5 117.89 672.63 121.51 671.64 126.01 667.51 129.79 660.83 134.36 657.6 138.55 657.63 144.5 663.98 154.45 665.88 159.64 667.61 161.76 671.58 164.22 679.14 171.1 681.43 177.42 677.83 189.04 671.63 202.8 668.6 205.74 667.31 208.68 669.15 215.19 669.17 217.8 665.01 223.81 661.59 232.23 655.93 244.8 645.47 259.17 644.53 263.52 648.03 272.84 649.97 285.68 653.38 291.46 654.2 295.08 651.86 307.59 653.05 314.18 661.42 329.41 662.52 335.61 661.77 341.5 659.79 346.62 652.86 351.79 648.45 356.57 645.47 362.44 640.95 376.89 674.82 375.69 671.9 377.99 672.68 382.36 671.62 392.41 670.71 396.29 667.11 397.52 657.46 396.28 655.42 396.71 656.36 400.34 663.36 404.19 665.4 406.44 668.09 412.56 671.34 426.9 672.37 433.11 674.6 439.07 670.15 440.85 664.06 440.32 660.49 440.64 653.56 443.31 647.39 445.07 645.67 446.54 646.43 451.49 718.04 454.22 757.86 381.05 759.88 382.88 761.92 386.88 766.08 390.41 771.28 397.1 772.46 397.85 779.71 397.91 784.69 402.38 788.07 402.78 792.61 405.5 799 407.4 757.36 462.65 758.95 467.54 761.23 470.13 765.04 472.71 765.94 476.04 765.78 480.44 767.19 482.56 774.6 488.63 780.41 495.42 784.46 504.94 784.76 510.73 784.32 518.22 785.91 525.87 784.78 530.38 784.47 537.73 786.02 546.07 782.84 558.8 782.22 563.66 782.71 566.57 791.29 586.83 791.69 590.11 790.4 594.96 778.35 618.99 771.79 625.2 761.19 632.39 759.59 634.93 759.95 637.35 763.19 643.73 762.81 647.78 763.44 651.54 766.71 658.14 767.77 662.27 766.49 678.55 765.03 681.83 758.73 687.15 749.4 696.25 746.33 701.02 744.99 704.97 741.02 710.68 734.07 717.76 731.79 719.02 723.46 720.56 717.6 719.66 714.88 720.21 709.05 726.9 703.69 730.84 701.52 733.64 696.99 744.47 696.13 749.52 695.34 760.12 693.09 766.9 687.03 769.55 679.81 773.82 675.17 775.55 670.62 779.16 666.54 779.9 658.8 783.17 653.4 782.86 650.45 784.11 640.82 786.56 640.87 822.11 636.12 822.66 619.91 823.31 613.09 824.26 602.36 827.56 595.54 831.26 586.31 838.19 582.69 839.13 574.11 838.03 566.47 835.86 552.77 834.91 544.21 836.68 536.12 839.82 534.35 841.49 488.81 824.81 486.15 823.22 474.78 821.73 470.67 819.25 465.54 820.17 464.5 813.98 458.91 810.74 457.74 808.26 458.31 804.84 454.91 801.45 454.44 797.37 448.61 793.48 446.49 788.28 443.86 787.08 442.91 783.42 440.15 783.32 435.75 780.97 431.38 773.77 430.44 769.91 424.62 765.96 420.08 761.04 417.24 754.61 411.82 750.92 408.45 747.3 406.02 746.76 403.5 743.54 401.32 742.36 396.83 742.79 394.45 741.21 388.18 742.13 385.05 737.42 376.84 732.97 373.39 729.86 370.03 721.79 367.88 718.56 365.21 717.64 362.09 719.19 355.71 728.76 350.5 735.74 351.1 738.83 353.2 740.92 353.98 748.11 355.94 753.41 361.1 759.88 363.42 761.69 370.18 770.13 371.23 776.76 369.59 782.53 353.45 793.13 348.53 794.94 342.03 799.19 337.51 801.51 326.3 803.51 320.42 805.5 315.92 807.86 313.01 811.59 313.47 813.75 322.66 825.75 324.1 832.1 328.44 841.15 331.6 851.24 327.92 858.02 324.91 861.08 316.26 864.75 297.9 868.32 290.87 868.39 279.49 870.54 271.39 874.2 265.58 879 218.1 865.24 173.89 821.12 124.75 818.29 81.2 740.96 85.72 738.55 98.67 734.06 103.22 731.37 117.37 715.9 121.65 708.39 123.2 703.26 123.06 700.23 120.71 686.4 122.14 682.64 129.87 679.83 133.73 677.48 137.67 671.46 138.3 664.53 137.61 661.03 135.67 658.17 133.44 657.45 120.69 656.99 114.48 656.18 107.39 654.33 102.49 651.72 93.56 643.03 87.19 638.11 83.62 636.42 79.16 635.7 74.66 636.51 68 633.54 58.34 631.22 45.52 630.34 43.13 629.46 29.63 615.41 27.76 612.72 15.07 600.75 22.14 600.89 26.02 602.51 30.14 606.31 35.67 617 38.02 619.32 40.67 619.82 43.64 618.79 47.3 615.95 49.14 612.88 52.02 603.18 55.61 598.69 61.92 598.14 69.53 602.38 75.67 602.7 76.4 598.82 75 592.78 71.69 584.53 74.27 579.44 80.94 579.22 84.14 576.21 82.22 573.36 1 556 48.89 373.74 58.47 374.57 58.54 327.92 115.93 328.84 134.28 292.97 93.17 267.1 95.96 219.97 91.89 215.59 110.86 196.43 124.12 182.46 145.33 199.45 173.47 170.01 218.08 146.63 221.12 142.69 227.99 139.91 229.14 134.8 228.04 126.02 226.58 122.93 221.24 118.19 219.96 116.07 221.02 110.21 221.12 103.57 221.96 101.93 220.03 93.88 218.12 90.57 219.49 86.07 219.3 82.55 217.37 79.14 215.9 74.45 216.05 69.6 220.02 69.38 221.41 67.56 221.16 63.75 219.27 58.83 220.38 56.06 224.35 55.08 239.95 53.49 241.44 55.95 240.61 62.27 238.8 68.35 238.36 74.5 240.57 81.08 244.57 81.7 252.68 75.92 255.99 73.05 260.3 71.96 261.48 76.38 261.19 82.75 259.76 88.21 263.88 88.91 269.39 85.77 274.39 85.59 284.38 91.54 291.94 95.35 293.98 95.54 296.73 92.92 298.81 88.72 298.77 79.35 299.32 78.25 305.31 78.27 312.79 79.41 314.55 78.16 314.42 74.84 311.01 70.66 306.97 64.3 306.48 62.39 307.81 57.25 310.17 56.07 314.85 49.23 316.1 43.5 319.92 39.54 326.58 35.91 330.02 35.81 333.23 38.35 331.1 44.34 330.23 49.74 332.19 51.58 338.09 49.58 342.47 46.48 345.7 45.92 354.64 47.02 362.44 46.67 364.93 44.24 364.66 41.21 360.71 34.35 354.35 32.44 354.77 27.82 358.56 21.59 362.13 13.48 365.23 11.14 374.13 15.97 378.44 17.33 383.44 15.76 386.76 13.72 389.84 13.38 392.38 10.16 393.54 5.86 397.02 1.63 401.53 1 404.81 1.96 416.44 11.19 420.43 12.81 422.51 11.11 421.48 5.66 421.83 3.58 Z"/>
</g>
</svg>