<?xml version="1.0"?>
<svg xmlns="http://www.w3.org/2000/svg" version="1.2" baseProfile="tiny" width="800" height="966" viewBox="0 0 800 966" stroke-linecap="round" stroke-linejoin="round">
<g id="4216107">
<path d="M 799 134.56 790.83 143.97 790 147.78 788.39 150.14 786.3 151.52 785.73 153.45 784.36 154.99 784.12 156.76 781.48 157.54 778.27 160.27 775.24 163.63 773.5 166.63 771.29 168.33 770.76 170.87 766.62 174.4 763.1 173.67 759.49 174.34 757.21 173.86 756.41 174.93 753.76 176.02 752.99 175.46 749.53 177.26 745.68 180.17 745.86 181.25 743.5 183.36 740.04 184.68 739.68 186 737.84 186.28 734.88 187.99 733.7 187.81 728.43 188.89 727.26 188.46 722.62 188.29 721.65 187.82 718.92 188.74 715.37 189.09 713.93 191.27 706.5 193.84 701.88 194.8 699.08 196.76 697.66 199.33 694.85 200.4 691.67 201 686.45 203.6 686.65 206.57 683.24 208.51 682 209.7 680.99 213.52 678.93 216.02 675.29 218.93 673.93 222.44 673.87 224.91 674.88 227.41 674.61 229.01 673 231.71 672.88 234.4 668.85 235.37 667.23 238.58 669.42 242.23 668.67 243.67 669.51 244.83 668.2 246.18 667.43 248.42 668.33 250.51 668.17 252.15 666.82 255.85 668 258.45 666.46 259.69 666.16 261.89 664.58 265 665.5 266.32 667.77 266.92 667.84 270.25 668.84 272.56 670.59 273.47 673.93 276.22 675.82 280.24 675.9 283.68 675.45 288.07 675.38 293.62 674.44 296.02 674.7 298.43 673.18 300.09 674.61 301.55 673.43 304.38 671.92 306.04 669.22 307.72 668.87 309.23 669.91 310.06 674.35 308.77 675.65 309.7 676.85 313.89 678.84 315.77 683.9 316.03 687.65 320.86 687.96 325.18 686.53 331.92 685.59 334.03 685.62 336.89 686.42 337.35 691.02 337.71 691.72 338.98 691.79 343.65 692.29 345.72 692.29 353.85 691.63 359.68 690.18 363.77 690.57 365.31 693.36 365.89 694.9 368.57 694.89 370.4 697.43 373.66 698.68 374.03 701.23 372.86 704.1 373.07 707.42 371.99 710.61 374.86 711.11 377.43 714.83 379.6 716.45 378.93 718.32 379.34 715.69 383.59 716.41 386.56 710.52 390.83 705.29 397.67 703.06 397.19 701.48 398.37 700.48 400.08 698.31 399.93 697.51 397.51 695.76 397.01 694.78 395.63 690.69 398.09 690.11 399.32 687.94 400.99 689.89 403.07 688.26 405.63 688.82 407.91 688.06 411.66 686.87 415.15 688.59 416.93 686.66 419.46 686.89 421.75 688.45 423.95 684.09 430.35 683.91 432.64 682.6 435.91 679.59 435.32 680.18 439.44 678.05 439.73 677.92 441.79 672.69 444.96 672.22 446.81 669.77 447.68 668.75 451 667.82 452.5 668.08 454.11 669.5 454.37 669.84 456.36 676.32 456.79 674.41 459.6 670.66 462.15 671.39 463.42 673.16 463.6 675.06 462.39 675.99 465.87 673.81 468.22 676.92 471 679.55 472.48 678.18 473.4 677.36 476.32 678.1 478.49 677.23 480.54 678.28 481.54 678.48 486.28 680.23 486.53 681.32 485.27 683.8 486.35 684 491.8 684.88 496 684.2 498.49 686.31 500.85 689.64 502.83 693.58 504.62 696.87 504.6 699.14 506.02 698.19 508.27 695.48 509.55 697.17 511.64 698.69 511.94 699.58 514.43 704.26 516.66 706.51 518.06 707.04 520.55 710.61 521.25 712.41 522.58 710.55 528.76 710.72 531.59 713.25 533.02 715.44 533.17 722.1 531 725.44 533.68 726.67 538.03 729.28 543.53 729.88 547.59 727.76 552.29 727.4 555.39 728.14 558.87 728.11 563.45 728.55 565.67 730.4 578.26 730.04 580.5 727.11 584.11 723.51 586.49 714.14 580.94 702.33 577.61 696.93 577.13 689.53 577.67 682.64 579.84 678.9 581.92 676.95 583.95 675.25 587.36 675.48 592.11 677.75 598.25 678.76 602.56 678.44 605.59 676.36 611.28 674.98 612.99 672.54 614.44 669.82 615.12 663.35 615.76 657.21 616.01 652.5 615.71 646.65 614.81 634.56 611.48 628.59 609.11 619.47 606.25 615.78 606.34 614.69 607.14 615.32 616.1 615.2 619.15 616.2 622.71 617.97 624.99 623.88 629.87 625.88 631.8 632.15 633.51 639.58 635.13 642.67 636.05 645.29 637.96 647.85 639.15 651.97 640.35 657.67 642.98 665.21 647.26 669.65 649.1 678.38 650.81 683.5 650.81 689.3 651.17 692.94 651.72 695.86 652.57 699.13 654.97 700.09 656.6 700.08 659.33 698.94 661.07 696.21 663.15 688.86 665.82 684.39 667.02 678.66 668.95 673.45 671.35 669.88 674.07 662.35 682.22 657.82 690.11 657.16 692.35 656.11 698.8 655.15 700.29 652.85 701.76 649.88 701.68 646.34 702.27 644.5 703.16 641.42 707.29 638.03 709.3 636.18 709.44 633.27 708.35 631.7 706.23 627.96 703.47 626.63 700.82 626.05 696.95 624.3 690.9 624.49 688.17 627.57 677.67 629.3 674.11 633.78 666.27 634.38 662.64 633.09 658.82 630.59 656.88 626.81 655.75 623.93 656.11 621.01 658.29 615.99 663.38 608.55 668.41 605.07 669.91 601.86 671.75 599.75 671.87 596.85 673.84 593.33 677.68 592.31 681.36 590.67 683.42 586.06 685.91 582.12 687.22 579.48 688.52 571.75 693.14 568.95 694.58 565.76 695.6 562.75 697.69 561.02 700.06 559 703.82 556.98 706.55 552.7 710.31 548.75 711.65 542.28 712.68 539.4 712.52 530.37 709.54 524.53 706.94 519.42 705.26 512.41 701.65 505.82 697.92 502.92 696.66 497.82 695.37 493.03 695.16 486.84 694.31 482.41 695.05 477.68 694.67 476.17 695.41 473.01 700.04 468.34 706.11 463.47 711.57 461.94 714.95 462.15 716.52 464.46 719.28 466.33 719.49 469.02 718.68 472.33 718.65 475.23 720.05 481.87 725 488.39 728.93 493.81 729.8 495.22 730.4 497.35 732.72 498.63 735.62 500.45 736.87 506 737.85 507.74 736.16 508.63 733.16 511.88 730.23 515.41 730.63 518.04 731.86 521.56 732.64 524.87 734.26 526.93 736.65 527.32 738.57 527.05 742.42 527.55 744.22 530.57 748.21 531.11 751.11 530.92 753.45 531.47 756.25 532.72 757.89 535.77 759.35 538.63 761.96 538.97 765.92 537.69 772.83 535.79 777.31 535.47 782.24 535.77 785.58 536.84 788.29 540.05 790.86 544.3 793.42 549.23 795.97 552.98 798.86 555.23 801.38 557.35 804.75 557.82 808.03 556.91 811.87 555.49 814.82 553.64 816.63 551.42 817.13 549.04 816.77 542.16 814.08 538.47 813.2 531.66 813.46 527.06 811.98 521.68 810.78 509.16 803.96 502.36 799.85 500.38 796.29 499.46 791.5 499.43 785.22 497.35 778.08 495.7 774.76 492.89 771.35 490.37 768.99 487.46 766.92 482.36 764.14 477.37 761.97 466.57 756.94 462.12 755.67 459.33 755.54 454.78 757.27 453.59 758.7 452.36 762.53 452.12 769.27 452.69 774.31 453.83 779.94 455.9 786.7 458.46 791.45 461.79 795.87 468.97 801.91 475.79 806.82 479.4 808.88 481.14 810.3 483.22 813.81 484.56 817.31 484.99 822.27 484.68 826.65 483.29 836.75 481.57 844.1 480.9 856.35 481.2 861.76 482.28 865.82 485.59 870.91 488.18 873.86 500.26 881.45 502.48 883.38 504.26 885.8 504.82 890.68 503.83 894.43 502.9 896 494.62 901.73 485.25 906.17 477.78 908.65 468.44 911.18 463.06 911.85 458.31 911.44 454.08 909.85 451.08 906.81 449.4 903.89 446.62 894.45 443.89 887.12 440.86 880.95 439.5 876.38 438.48 875.61 434.56 874.95 427.35 875.81 419.57 875.45 408.08 873.54 406.23 872.81 403.56 870.44 396.95 868.31 390.88 864.85 387.8 863.41 385.46 863.13 382.69 860.96 367.68 860.59 355.67 861.08 351.2 861.8 347.82 862.98 345.37 865.56 344.35 868.38 343.98 871.43 344.22 875.03 344.04 879.11 340.26 891.98 339.74 894.98 340 899.95 340.73 903.45 341.68 905.49 344.8 908.29 347.33 909.72 350.1 910.23 353.63 909.87 358.41 907.42 364.92 906.21 371.25 903.92 374.84 903.61 381.85 903.77 384.77 904.31 387.8 905.62 398.55 911.66 401.39 913.84 404.33 917.47 405.61 920.69 406.52 925.48 408.34 930.81 407.83 932.94 404.39 934.78 397.44 936.09 387.8 936.42 385.98 936.16 383.82 936.18 374.85 938.82 370.76 939.41 366.73 943.08 363.47 944.65 360.5 945.39 354.88 947.79 348.12 954.54 345.37 956.51 340.32 959.44 336.38 961 332.99 961.41 329.8 960.85 328.15 958.8 326.72 954.41 326.43 950.38 326.76 944.12 328.51 937.64 329.02 933.55 329.12 929.84 328.01 922.91 325.75 920.44 322.89 916.48 321.21 915.22 316.81 913.29 311.04 912.33 309.36 913.21 308.85 915.94 309.13 918.48 310.6 923.3 310.74 927.76 309.99 931.47 308.25 934.37 304.02 940.51 302.28 944.07 299.83 951.17 295.73 959.44 291.47 964.08 289.84 965 288.19 964.91 286.45 963.8 285.17 961.28 284.19 957.09 282.16 953.78 279.39 950.32 276.86 943.46 276.09 930.7 275.24 926.27 273.89 924.41 269.44 921.61 262.29 918.48 257.94 917.44 254.65 917.4 252.35 917.88 249.18 919.31 246.44 923.61 242.68 926.31 239.6 929.12 236.13 936.71 233.89 943.44 233.88 946.55 222.04 942.2 215.93 939.35 209.91 938.11 197.42 937.81 195.51 937.36 192.83 935.37 190.99 932.26 189.67 927.36 190.5 923.73 191.94 922.3 195.57 920.39 202.57 917.83 209.05 915.15 216.91 913.44 225.21 911.39 229.27 909.13 230.61 907.18 233.45 897.78 234.25 892.32 234.03 889.25 233.25 885.05 231.88 881.51 231.07 876.7 230.89 873.43 227.16 869.36 224.92 866.3 222.6 864.88 217.63 864.36 216.41 866.51 214.96 871.72 213.34 876.18 211.98 877.61 208.5 879.69 207.59 879.67 202.58 877.6 195.07 877.06 193.28 876.45 190.91 877.17 188.2 879.87 184.8 881.83 181.05 882.93 177.59 882.75 172.32 881.04 168.77 879.22 165.39 873.99 162.86 867.7 161.33 864.49 162.41 857.94 164.3 855.29 166.77 850.42 168.99 848.47 171.86 846.59 176.98 844.03 184.9 838.94 194.14 833.76 197.04 832.36 197.98 829.46 196.51 823.4 195.11 820.17 193.42 817.96 190.32 815.92 182.9 813.39 178.94 812.71 174.98 811.45 172.04 811.12 166.88 811.3 160.41 812.17 151.19 814.09 147.88 813.34 146.64 811.34 147.11 805.79 147.93 799.41 149.55 793.78 149.65 790.11 149.11 787.24 149.3 784.8 146.3 781.47 140.55 780.75 134.87 779.47 132.76 776.95 131.5 773.79 129.62 770.83 122.81 765.22 120.77 765.91 119.29 767.78 119.8 776.42 120.6 780.26 121.15 786.37 122.22 789.91 124 794.45 125.68 797.63 124.18 799.84 120.58 803.52 115.34 806.19 112.91 806.89 109.89 806.76 109.29 805.68 106.49 797.28 104.58 789.4 103.17 785.89 101.45 783.43 97.42 779.98 93.6 779.43 92.35 781.14 90.85 786.4 91.23 790.07 89.17 796.35 86.68 800.43 84.56 802.18 79.67 804.54 75.83 805.23 73.3 802.83 67.77 798.36 65.26 797.32 59.09 794.09 57.24 791.98 55.29 791.93 51.68 793.06 49.09 795.84 46.13 794.54 44.14 791.67 42.48 788.16 41.99 784.87 42.3 777.72 41.65 772.78 42.54 770.18 46.22 769.82 48.56 770.32 49.33 766.66 46.7 755 44.25 754.47 38.72 755.76 33.23 757.41 31.96 758.48 25.49 760.9 16.53 762.26 12.66 763.26 7.82 762.79 3.9 759.59 2.72 758.11 1.34 754.87 1 751.6 3.37 749.06 7.83 745.68 10.4 742.99 13.3 740.9 15.76 739.9 24.38 737.94 28.91 736.54 31.35 733.73 29.32 732.56 25.98 733.5 20.04 734.42 18.58 733.47 18.04 732.03 18.18 729.39 16.27 725.17 15.94 721.86 14.94 717.53 15.01 714.87 15.74 711.13 15.09 704.72 15.75 701.6 15.14 698.44 13.25 694.84 16.24 694.46 18.25 695.52 19.92 694.01 21.03 691.18 28.24 687.71 30.6 685.57 30.6 683.66 32.35 682.49 34.26 682.13 35.74 680.89 37.59 680.7 41.36 679.05 44.49 676.02 46.87 675 50.47 669.48 53.28 669.06 56.1 667.18 56.69 665.89 55.99 661.73 53.56 657.44 49.93 655.36 91.07 645.16 83.88 642.13 79.17 639.5 75.62 636.03 76.87 633.53 80.16 631.8 84.16 630.42 88.52 631.49 88.8 630.18 85.33 626.36 89.99 620.87 92.04 616.95 92.01 615.63 90.81 613.91 91.4 612.37 95.79 611.84 96.09 610.61 91.42 607.03 90.89 604.87 89.12 601.85 89.36 600.84 93.73 596.57 94.79 593.19 94.09 591.64 89.65 586.49 90.43 584.32 92.1 583.89 96.41 585.83 99.23 586.27 104.77 586.5 105.99 585.1 98.64 580.92 100.1 579.62 103 578.22 105.15 576.66 108.45 576.21 113 576.81 116.65 576.43 117.56 575.68 117.84 570.56 121.08 569.62 123.94 571.52 127.66 570.07 133.18 567.37 137.04 566.6 137.51 563.7 133.87 559.43 133.21 556.45 134.26 554.52 136.06 553.95 138.07 552.32 139.6 551.95 141.47 552.65 143.23 551.22 145.92 552.17 149.71 551.63 154.68 550.18 155.57 548.71 155.51 546.94 156.68 545.36 161.07 545.29 163.74 542.99 167.66 543.48 171.74 543.19 172.77 540.39 170.96 536.69 171.87 535.06 175.8 532.94 177.29 530.51 179.51 529.66 180.06 528.73 179.68 525.82 181.21 524.28 183.51 524.19 186.93 522.65 190.9 522.47 191.89 521.16 194.11 519.92 199.88 520.46 201.49 519.97 203.75 520.38 204.13 521.51 207.14 521.72 208.03 522.77 211.12 522.95 213.07 521.33 214.87 518.6 217.29 516.08 217.82 513.69 219.02 512.55 224.33 504.98 225.57 499.75 227.51 498.91 229.22 497.23 228.88 495 230.36 491.63 232.87 488.18 233.57 485.92 229.16 483.73 228.07 482.04 226.91 478 227.17 473.84 227.05 469.6 225.98 458.2 227.08 453.28 230.49 445.39 230.96 442.67 230.76 440.42 229.44 438.27 225.55 435.53 220.94 433.86 218.45 431.03 218.04 428.42 218.88 421.74 218.24 416.07 219.86 409.65 219.41 408.09 215.61 404.69 211.37 403.14 207.01 397.65 204.96 395.71 203.42 392.8 202.56 389.66 202.78 387.1 203.73 385.05 209.04 381.43 211.89 378.55 215.69 376.56 220.93 375.91 223.22 374.26 224.06 369.76 225 368.05 228.33 364.86 228.1 362.58 227.04 359.6 227 351.78 228.43 345.49 230.09 343.1 230.65 340.79 230.3 338.25 227.91 330.71 227.44 327.29 227.51 323.56 225.95 316.61 222.85 311.71 223.42 309.08 225.53 304.74 228.5 302.89 230.52 303.05 233.77 304.98 236.3 304.08 237.32 300.89 237.58 296.99 235.95 286.75 235.95 283.79 235.07 282.11 232.13 279.9 227.56 278.39 224.72 276.95 222.57 275.15 220.89 271.53 221.43 268.78 226 265.09 228.63 261.84 233.12 261.32 237.43 260.1 243.48 261.32 245.84 261.16 252.85 263.07 256.64 262.92 257.82 262 260.47 257.61 263.09 255.52 264.49 253.35 267.63 249.59 267.63 247.77 268.75 242.62 266.17 242.34 263.89 240.91 264.33 239.04 263.75 236.7 263.69 233 260.51 229.99 260.1 227.6 257.87 225.14 256.13 224.42 252.71 220.36 252.93 218.09 251.81 214.86 251.74 212.07 252.69 209.49 254.15 208.42 261.54 206.66 265.99 207.04 269.48 208.38 271.77 207.8 276.02 205.33 278.63 204.2 279.66 203.16 282.32 202.66 286.09 199.6 288.35 196.99 288.68 194.46 289.78 190.75 293.67 191.05 295.47 190.71 296.97 191.85 300.09 190.99 301.38 191.68 302.79 191.05 307.97 193.69 311.43 194.54 313.03 194.2 314.71 195.69 320.25 197 322.14 196.67 323.95 195.01 327.07 194.29 327.8 192.75 326.67 191.02 324.53 189.49 326.06 187.77 323.73 185.55 326.06 184.52 324.08 182.03 321.55 183.68 320.67 180.57 319.23 178.19 322.04 179.12 322.87 177.84 322.59 175.33 319.15 173.61 318.38 171.23 315.89 170.69 314.78 168.77 315.97 167.16 318.17 168.07 319.33 165.61 318.37 163.87 320.69 158.03 322.96 155.77 323.88 153.28 324.98 153.56 325.5 150.92 326.4 149.24 325.33 146.5 324.23 145.45 321.63 145.97 319.8 144.2 318.26 141.66 319.03 139.31 317.4 137.93 318.55 133.94 317.96 131.24 317.06 130.02 315.58 125.93 317.79 124.65 318.63 122.96 320.55 122.91 320.96 121.38 319.92 119.48 322.23 118.16 326.66 119.2 327.94 117.63 326.95 116.44 326.41 113.92 328.2 111.67 329.56 111.42 332.14 112.38 337.46 112.74 340.62 110.68 340.92 109.17 338.65 107.65 341.44 104.65 340.98 102.27 345.12 100.81 344.88 95.6 344.27 94.2 346.94 93.55 349.66 94.73 349.57 91.9 350.53 89.3 349.87 88.42 351.78 86.57 353.89 87.25 355.64 85.9 356.79 83.05 353.81 80.45 353.76 77.79 355.1 76.17 353.68 73.42 354.17 70.64 355.95 70.43 355.79 67.04 356.7 64.8 358.17 64.17 359.64 61.31 368.36 59.18 368.92 58.83 371.03 53.75 374.44 52.58 377.88 52.66 386.04 54.27 388.79 53.52 392.1 50.02 392.76 46.7 396.77 39.51 397.05 38.01 398.65 36.54 403.83 33.74 405.59 30.31 406.79 30.42 407.64 32.32 408.21 37.3 410.62 40.07 411.96 43.18 415.88 43.96 418.65 44.06 420.97 43.5 424.21 39.66 427.58 39.02 435.89 34.66 440.06 32.9 445.09 29.59 447.19 29.7 451.59 30.86 453.67 30.65 462.81 24.47 467.13 21.05 467.95 15.96 472.23 14.63 475.17 15.59 479.01 15.81 481.22 15.48 487.38 11.96 491.77 8.6 493.65 7.52 498.15 5.84 504.37 4.6 508.24 5.4 511.94 4.66 515.81 1.62 519.07 1 525.48 3.72 528.01 7.41 529.88 8.49 535.19 8.25 537.92 9.03 540.31 10.86 540.6 14.55 543.21 16.52 546.15 16.39 549.61 17.58 552.72 22.71 555.32 25.19 559.68 27.5 562.78 31.45 586.42 47.3 590.93 52.67 605.11 58.42 614.96 72.48 629.8 76.25 636.79 76.36 650.32 73.61 662.68 76.13 677.55 75.33 682.01 77.34 688.21 82.68 689.89 84.75 695.42 90.24 697.75 90.59 701.39 90.26 702.44 90.66 705.35 94.15 706.8 96.63 708.53 118.21 717.97 128.91 727.01 139.65 736.95 141.19 742.2 144.86 759.44 145.01 775.27 144.35 779.96 143.26 799 134.56 Z"/>
</g>
</svg>