<?xml version="1.0"?>
<svg xmlns="http://www.w3.org/2000/svg" version="1.2" baseProfile="tiny" width="800" height="369" viewBox="0 0 800 369" stroke-linecap="round" stroke-linejoin="round">
<g id="4216057">
<path d="M 636.06 53.93 637.2 53.96 639.07 55.78 640.88 56.8 642.32 58.86 643.84 60.37 652.22 66.92 653.79 67.79 657.55 68.26 660.92 67.62 663.39 66.57 665.32 65.35 669.59 65.15 672.35 64.02 673.55 63.85 676.74 66.07 677.09 68.99 677.93 70.42 679.17 71.5 681.82 72.96 684.23 75.22 687.13 76.53 688.73 77.53 690.84 78.37 695.61 78.6 701.91 79.2 703.11 78.62 706.32 76.3 709.87 74.99 712.71 75.16 718.7 74.1 720.84 72.89 725.57 72.05 730.58 69.49 735.19 65.62 735.89 64.34 736.14 62.76 734.84 59.77 731.96 55.96 732.41 55.15 734.54 56.42 736.68 56.11 741.73 54.33 743.05 54.98 743.98 56.97 744.1 59.07 744.84 59.77 747.02 60.34 748.18 61.7 749.29 64.49 748.92 66.71 749.44 67.52 751 68.2 753.17 69.98 753.84 71.21 754.35 73.7 754.47 76.02 756.21 76.33 757.2 78.72 758.9 81.58 759.31 83.99 759.99 86.26 761.32 89.07 762.78 90.24 763.68 90.34 764.46 89.45 767.18 89.32 773.88 92.88 779.52 95.04 780.57 95.92 780.32 97.36 781.39 100.81 782.77 102.48 783.61 104.34 784.53 109.59 784.58 112.98 785.88 115.45 786.6 117.78 790.38 126.63 791.24 127.76 792.89 128.76 797.43 130.5 799 130.9 796.29 131.73 794.44 133.38 793.21 135.04 791.69 136.41 790.3 136.91 788.04 139.16 786.21 139.88 783.7 139.93 781.18 140.56 778.7 141.56 774.97 141.96 773.06 141.62 770.19 141.8 767.56 142.88 766.02 144.3 765.37 145.75 765.69 147.62 767.48 150.55 766.94 153.37 769.26 156.14 769.53 157.35 768.85 159.95 768.76 161.83 767.63 164.85 767.14 166.94 766.99 170.28 766.38 175.45 766.46 177.45 766.97 178.75 766.91 180.9 767.34 184.67 768.05 187.01 769.75 188.55 773.65 191.37 778.14 194.35 780.5 195.18 781.93 196.8 783.45 197.96 787.91 198.49 790.36 199.76 790.24 201.88 792.6 204.7 790.8 205.86 788.17 209.62 787.42 211.33 785.29 211.78 784.75 212.76 785.24 215.16 783.83 217.98 782.83 220.7 782.59 226.03 782.55 232.14 781.72 234.44 779.52 238.95 778.12 243.26 776.33 246.09 774.43 249.64 774.56 253.98 775.54 258.16 775.04 259.62 772.08 263.48 768.93 265.79 765.34 267.02 757.16 269.24 750.96 269.76 745.98 272.01 743.09 275.39 741.02 279.48 738.99 282.76 740.38 285.6 743.83 287.58 745.12 291.16 744.7 298.84 743.79 301.88 741.14 306.11 737.83 307.89 734.05 308.08 731.43 309.1 729.09 311.87 727.89 312.53 725.18 313.14 721.47 315.08 719.82 315.24 716.24 313.91 708.75 314.31 700.94 315.17 693.44 315.28 562.85 312.91 465 311.14 361.25 308.2 364.87 309.41 366.44 310.75 366.39 311.34 364.93 312.62 363.27 314.58 359.39 315.49 357.62 316.17 355.68 316.27 354.05 317.62 352.07 317.74 349.52 318.27 346.89 317.7 344.76 316.28 343.82 314.4 339.16 314.35 337.62 313.58 337.06 312.54 334.42 313.38 332.88 313.5 329.79 314.76 329.12 315.52 328.6 317.45 327.62 319.63 327.24 322.04 325.89 324.8 323.42 327.09 321.57 327.26 316.3 327.25 313.55 326.96 312.33 326.53 311.95 325.68 309.97 323.56 309.83 322.45 308.26 321.23 306.81 321.09 305.83 322.75 304.45 324.29 303.67 324.49 301.47 323.56 300.66 323.75 298.91 325.75 296.86 327.05 293.84 328.16 292.91 329.73 293.08 331.03 290.95 333.49 289.42 334.68 287.21 335.28 287.55 338.55 286.42 339.26 286.65 340.58 283.62 342.15 282.68 342.15 279.97 342.99 279.36 341.6 278 340.96 277.96 342.3 273.29 342.29 271.96 343.88 271.44 345.95 270.17 346.56 267.11 349.82 265.59 349.69 263.43 351.09 263.26 352.65 261.71 352.11 259.65 352.81 259.57 351.43 258.69 350.42 256.97 351.18 255.98 349.91 255.02 351.04 253.69 351.1 252.39 350.2 250.68 352.45 247.4 353.13 245.48 353.12 241.85 353.72 238.49 353.67 238.07 353.95 237.62 356.26 235.1 356.48 234.36 355.66 232.15 355.26 231.13 354.23 229.01 355.57 226.91 357.94 225.05 357.38 223.37 357.28 222.53 360.24 220.13 359.63 215.4 360.01 212.84 359.64 210.42 358.51 207.91 359.44 206.73 360.95 205.08 361.07 202.57 362.06 200.28 359.99 198.14 360.91 196.45 361.15 193.45 363.56 193.24 362.21 193.76 359.65 193.39 359.29 190.04 358.3 188.53 358.51 186.82 357.75 187.7 355.97 185.07 354.62 183.02 352.91 182.32 351.73 180.86 351.66 178.03 350.25 177.3 351.1 175.82 349.62 175.84 347.42 174.18 347.58 173.49 346.43 172.06 347.65 169.42 346.08 169.14 344.1 168.2 342.23 165.71 343.96 164.25 343.23 163.93 344.01 164.62 345.9 163 346.01 162.86 344.93 161.85 344.32 160.83 345.96 158.36 345.09 157.09 345.34 157.27 346.94 155.26 348.91 153.25 348.45 151.82 350.3 146.09 351.3 146.55 352.51 148.16 353.22 148.5 354.18 147.47 354.61 145.79 354.03 146.06 355.58 147.04 355.5 146.96 357.54 148.4 358.26 148.43 359.14 147.26 360.47 146.62 360.34 146.58 358.48 145.76 358.37 145.5 360.12 143.18 361.16 143.45 362.68 144.35 363.31 143.47 364.31 140.96 363.23 140.17 363.45 139.88 365.36 138.67 366 137.29 364.51 136.2 364.53 135.39 366.97 131.84 367.15 129.78 368 126.86 367.15 125.64 365.67 123 364.41 121.31 364.79 120.36 364.27 120.31 363.12 122.62 361.18 118.92 360.44 118.77 362.58 117.38 361.91 116.84 360.26 116.09 360.43 116.03 362.26 114.39 362.21 114.26 363.94 112.49 364.18 112.43 363.2 110.13 364.08 108.49 363.14 107.98 360.5 108.2 359.31 106.58 357.41 106.93 355.41 106.12 354.39 105.51 352.54 106.78 350.88 105.22 350.11 102.98 351.03 102.07 351.03 100.93 349.86 101.88 348.64 100.76 347.57 102.02 346.43 104.49 345.81 104.79 344.31 102.56 344.64 101.43 343.45 102.3 342.62 101.2 341.79 103.7 341.37 104.02 339.92 105.04 339.24 104.59 338.23 102.7 339.83 102.55 338.76 103.69 338.26 103.2 337.35 105.91 335.42 104.34 333.18 103.34 332.27 104.51 331.7 103.7 330.28 103.84 329.15 105.75 326.77 105.81 326.04 107.91 324.77 107.38 323.29 109.16 321.73 108 319.74 108.3 318.92 112.34 317.29 112.77 316.82 111.68 315.24 112.6 314.41 112.37 313.07 113.39 312.74 112.18 308.52 111.73 307.9 113.38 307.01 111.79 306.54 112.72 305.29 112.49 302.68 111.58 300.89 111.78 300.16 110.72 299.33 110.59 297.93 108.94 296.92 109.21 296.2 108.05 295.37 108.98 294.17 108.95 292.86 110.7 292.71 111.26 290.65 111.3 288.29 110.87 286.97 110.95 285.44 109.87 284.74 109.07 282.26 110.2 280.4 109.93 279.41 110.77 278.64 111.41 276.04 111.47 274.22 112.42 273.17 110.41 271.92 109.94 270.51 110.96 269.22 110.11 268.48 105.87 268.52 104.58 264.72 103.25 263.44 104.14 260.91 103.31 259.17 103.15 257.76 102.03 257.13 102.61 256.36 102.45 253.62 99.32 251.05 99.09 248.51 98.29 247.47 98.47 246.62 97.46 245.33 96.21 244.7 96.17 242.56 93.44 240.98 90.93 240.57 86.99 240.36 79.96 238.73 77.84 238.67 77.18 237.75 76.58 235.3 75.42 233.84 74.92 231.62 73.48 230.15 70.31 229.86 69.17 226.7 67.96 226.32 67.88 225.5 66.08 224.41 63.47 224.53 61.47 223.41 59.96 223.56 58.27 222.89 54.31 223.04 43.06 227.11 43.59 225.87 42.39 224.82 40.3 221.25 40.86 219.32 40.26 218.25 38.65 218.17 37.02 217.54 35.96 216.57 33.95 215.79 33.32 213.8 31.31 210.69 29.3 208.76 27.9 205.97 24.56 203.89 24.56 203.13 26.32 200.93 25.95 199.95 26.4 198.05 25.97 193.08 26.82 192.21 26.34 188.28 24.27 186.49 24.52 184.85 25.85 182.7 25.38 180.51 25.92 180.38 25.78 177.99 26.29 177.67 26.49 175.64 26.28 173.78 24.08 170.71 23.86 168.52 22.8 167.31 23.97 164.31 24.28 162.48 23.44 159.43 23.6 158.33 22.57 155.77 21.84 155.43 22.54 153.13 21.15 151.46 21.17 150.77 22.63 148.8 22.21 147.97 20.14 146.93 19.38 145.02 18.85 142.18 16.21 137.54 15.3 137.43 14.32 136.25 12.09 135.16 11.26 134.03 10.92 128.65 9.58 127.81 9.02 126.6 10.08 125.17 12.11 121.25 12.43 117.83 11.15 115.53 10.26 114.83 8.65 114.49 9.23 112.9 8.73 109.52 8.12 108.75 4.48 105.59 3.01 105.03 1 104.75 1.01 103.11 2.52 102.2 4.05 102.21 6.56 102.8 8.49 100.84 10.6 100.45 13.01 98.69 14.51 96.66 14.37 95.28 13.54 94 12.27 93.07 10.17 92.46 9.59 91.3 10.97 91.13 11.66 89.17 11.73 87.09 16.82 83.07 20.68 81.37 23.22 80.99 25.7 82.06 28.51 82.4 31.24 81.34 30.33 79.94 32.03 78.03 33.95 74.99 33.65 74.37 31.54 73.2 29.1 71.46 27.38 69 29.74 66.92 30.77 64.89 32.04 63.71 31.82 60.93 30.77 58.85 31.23 56.17 32 54.03 33.7 52.48 32.84 51.17 31.09 51.65 31.05 50.55 31.95 48.47 34.01 46 33.74 45.47 31.9 45.26 28.84 44.26 28.34 43.61 28.44 41.94 27.8 40.21 25.92 38.8 24.12 38.49 22.9 37.18 21.26 34.53 22.92 30.41 24.72 28.83 25.45 27.69 24.36 26.79 24.23 25.77 25.36 25.45 23.93 22.61 24.44 21.03 24.63 18.79 22.75 17.66 23.32 16.24 23.12 14.66 22.22 12.88 23.43 12.09 22.6 11.14 21.49 11.53 20.46 11.1 19.25 9.51 22.43 9.96 22.69 8.96 21.76 7.09 22.73 6.39 24.7 6.69 25.22 8.58 26.4 9.28 28.63 8.86 29.21 7.03 30.42 6.52 33.58 7.69 34.92 8.62 36.68 7.91 37.49 9.54 38.76 9.56 39.84 7.94 40.54 8.04 40.86 9.86 43.44 10.73 43.4 12.05 40.22 13.1 43.36 14.17 44.35 13.53 45.28 11.18 46.11 12.31 46.02 14.14 44.98 15.66 45.15 16.22 47.18 17.36 48.15 17.05 48.77 15.46 50.24 15.79 49.1 16.94 50.1 18.41 51.52 16.16 52 18.32 53.57 19.39 55.59 19.81 53.94 21.3 54.27 25.13 55.34 25.25 56.36 23.17 57.86 23.55 58.23 24.82 58.25 27.46 58.99 28.46 60.28 27.75 61.87 27.99 64.45 27.12 65.14 27.47 65.28 29.93 66.49 32.03 68.33 32.17 69.78 30.47 71.38 30.47 73.85 31.72 74.89 34.13 75.93 34.04 76.36 32.72 77.62 30.93 76.12 28.91 76.58 26.85 78.04 26.02 80.45 26.24 81.53 24.96 81.09 22.95 82.35 20.84 83.78 15.94 85.79 11.88 87.25 9.82 90.64 5.63 92.42 3.75 95.23 1.42 98.56 1 101.27 1.6 102.51 2.55 106.46 3.38 109.24 5.07 111.76 5.6 115.95 5.49 116.5 6.18 116.25 8.25 117.12 9.68 120.31 11.75 122.88 13.03 122.61 14.24 122.85 17.21 124.38 20.51 125.84 30.28 125.86 33 126.31 33.94 128.02 35.82 130.9 38.46 131.59 40.47 133.33 40.44 135.69 34.77 135.48 32.34 136.04 31.82 137.69 32.84 139.32 33.11 141.56 32.42 145.94 33.68 148.31 33.66 151.8 32.88 156.4 31.39 157.86 31.72 158.8 32.59 159.72 35.27 162.6 37.58 163.32 38.68 165.09 44.31 166.64 46.06 170.14 46.09 171.99 45.46 175.88 44.54 177.48 45.06 179.37 47 181.02 48.09 184.17 49.42 188.55 50.55 192.99 52.24 195.41 52.57 198.03 51.8 200.46 51.92 203.14 52.47 206.34 50.99 208.17 50.51 208.77 48.64 208.27 46.47 208.99 46.18 211.88 47.21 212.28 48.4 213.37 49.8 214.88 50.4 216.24 53.84 219.18 56.41 221.94 55.89 224.44 57.07 227.02 59.4 227.75 60.79 231.76 61.36 234.77 62.36 237.18 62.66 239.9 61.67 241.39 61.95 241.03 62.94 237.88 65.37 235.4 68.41 233.15 71.44 231.38 74.28 229.29 75.09 228.68 76.81 227 77.77 226.3 78.66 224.44 79.81 224.02 81.18 224.58 82.08 226.89 82.84 228.43 83.66 232.05 84.91 232.94 86.97 234.2 87.05 236.09 85.82 237.19 86.2 238.28 87.8 239.84 92.59 242.35 93.37 244.27 94.79 245.71 95.36 249.57 95.61 251.03 95.43 253.34 94.46 254.6 94.42 255.05 95.38 254.94 97.98 254.07 99.37 252.56 100.9 252.03 102.56 252.37 104.02 254.72 106.38 256.5 106.53 257.38 106.14 258.35 104.3 259.94 104.34 261.1 105.89 261.01 106.61 258.89 108.11 258.86 109.93 260.64 110.8 263.58 111.17 270.43 113.28 273.42 115.63 273.14 116.94 270.95 117.23 271.98 118.4 274.38 118.53 276.52 117.95 278 118.5 279.98 120.62 283.09 121.13 283.64 120.02 281.78 118.44 278.89 116.45 275.57 115.02 273.88 113.35 276.71 108.21 277.48 103.88 277.13 100.41 279.16 98.42 281.02 95.33 284.22 93.98 285 91.95 285.89 90.82 285.32 90.32 282.61 90.48 283.24 88.31 283.5 85.02 283.14 84.08 284.16 82.22 285.01 81.81 287.42 81.6 292.29 81.59 294.7 80.57 298.67 80.45 302.4 79.26 303.82 79.04 309.21 79.31 312.06 79.73 313.2 79.58 316.16 78.44 317 77.24 315.65 74.74 316.05 71.97 317.21 69.52 317.18 68.92 315.44 68.19 312.07 67.61 308.95 67.89 307.47 67.7 306.86 66.9 306.6 65.18 306.82 63.89 305.66 62 304.96 60.02 305.22 55.8 305.67 54.61 307.96 52.99 309.01 51.8 309.81 50.2 312.53 48.93 315 48.83 315.79 48.36 315.93 46.96 315.46 45.02 315.93 42.82 315.74 41.07 315 40.29 312.88 39.12 310.82 39.75 309.95 39.13 309.11 36.97 310.75 35.85 310.32 34.71 308.98 33.35 312.37 29.78 312.5 28.98 310.71 25.85 310.01 23.77 310.23 22.17 311.83 18.43 313.13 18.11 314.87 19.38 318.78 20.13 321.4 21.86 324.14 23.39 323.95 24.99 325.35 29.35 327.53 30.7 328.31 32.09 328.02 33.94 328.41 36.27 330.11 37.82 330.72 39.86 333.37 43.12 333.33 47.41 331.82 49.04 334.32 50.56 335.13 52.77 334.7 56 334.88 58.1 335.94 59.54 337.04 62.11 338.9 64.35 340.74 65.08 343.65 62.78 341.91 60.38 341.81 58.23 340.73 56.57 341.99 55.84 345.29 54.87 349.03 54.22 350.38 52.26 352.51 50.5 355.73 51.37 356.8 52.16 361.82 54.52 363.6 55.57 364.59 55.34 365.8 54.29 367.97 53.34 371.13 52.85 376.8 53.11 378.64 53.97 381.84 54.63 382.19 56.9 381.3 57.3 377.89 57.77 375 57.6 373.25 59.24 369.57 60.77 368.2 62.04 366.96 64.93 364.09 68.76 362.4 69.44 362.68 71.07 363.88 72 364.2 72.97 363.73 74 363.99 75.31 364.93 76.51 364.06 77.52 364.23 78.99 365.71 78.92 366.56 79.51 367.92 81.95 368.09 82.82 366.72 88.54 365.98 90.11 365.68 93.12 365.29 93.63 360.78 96.93 360.08 95.44 360.46 94.24 360 93.13 359.05 92.56 355.49 91.84 353.2 90.85 352.81 89.74 353.45 88.13 353.18 85.29 352.19 85.19 349.1 86.34 345.57 87.3 344.38 88.53 344.62 91.3 345.81 92.67 349.19 94.64 351.87 94.85 353.73 95.94 354.09 97.42 352.63 99.7 352.5 101.1 354.37 103.19 355.37 102.95 357.79 101.41 358.66 100.54 359.82 100.32 361.69 100.98 362.46 100.23 364.02 100.1 364.99 101.37 363.66 101.57 364.52 102.72 365.78 106.3 366.04 109.85 364.55 112.26 363.68 114.79 364.46 119.97 365.96 120.72 368.58 119.47 370.31 119.21 375.15 118.97 381.7 118.31 385.45 118.71 387.52 119.91 387.99 121.63 389.69 121.93 391.93 121.53 394.77 122.71 396.78 123.15 397.57 122.59 397.71 121.1 398.92 120.8 398.69 122.23 400.83 123.15 401.05 125.14 403.16 124.92 403.9 126.23 406.96 124.74 407.21 123.43 407.93 123.04 408.99 121.42 411.45 121.26 411.95 119.06 412.67 119.18 414.61 117.43 415.25 118.04 417.12 117.36 417.61 116.44 420.19 116.16 421.13 114.33 423.66 112.42 424.72 113.18 427.21 114 427.47 115.37 430.56 116.65 430.62 118.17 432.09 117.85 433.14 118.85 434.46 118.68 435.87 120.54 436.89 119.74 437.72 121.58 439.69 121.01 440.75 121.11 441.49 122.36 442.26 122.02 444.21 124.12 446.57 124.84 448.53 125.8 451.67 125.6 452.24 126.89 453.54 127.11 455.73 129.52 456.74 130.05 457.99 129.58 458.62 128.53 458.73 127.18 460.52 126.49 461.73 124.17 462.64 121.63 463.81 121.12 466.5 118.57 469.95 117.49 471.75 117.64 474.26 119.31 475.04 120.93 478.53 120.73 479.22 119.25 480.61 119.01 479.22 116.95 480.02 115 480.75 114.39 480.56 111.79 479 110.95 478.78 108.07 479.11 105.38 480.06 104.68 480.43 103.24 481.97 101.53 482.09 99.75 483.48 99.5 486.25 96.14 487.17 96.04 489.22 94.21 490.6 94.95 491.22 93.91 492.5 93.94 492.25 91.02 493.77 89.53 495.43 90.73 495.81 89.6 497.08 90.41 497.92 89.97 501.89 90.69 500.66 89.36 502.46 88.9 503.07 87.68 505.19 85.25 506.08 85.02 507.7 83.75 508.5 84.24 508.54 86.2 509.57 85.52 511.75 85.75 513.37 85.54 513.56 86.46 512.71 87.42 513.3 88.3 514.84 87.76 514.7 89.78 517.7 89.18 517.43 90.5 516.05 90.87 515.48 93.77 518.48 96.1 520.77 98.88 522.08 99.46 524.67 99.65 526.47 102.14 526.54 103.64 529.66 103.75 531.59 104.27 533.23 105.13 533.57 106.21 535.46 106.87 535.26 108.92 538.34 110.91 540.33 111.35 542.81 114.13 543.59 115.98 546.08 117.93 547.58 120.39 550.13 121.96 551.48 121.75 551.9 120.18 552.61 119.61 554.35 119.53 556.61 122.39 560.04 123.07 561.1 126.27 562.58 127.9 563.61 128.26 565.36 128.08 565.74 127.17 568.67 126.73 569.74 127.04 572 126.6 578.04 128.88 578.89 126.64 581.05 124.09 583.47 123.66 585.48 123.71 585.69 122.58 587 122.96 586.95 123.73 588.47 124.58 588.91 123.02 590.51 122.7 590.87 121.14 593 121.23 592.98 119.86 594.3 118.38 595.55 118.89 597.57 117.49 599.98 117.1 601.45 115.84 602.7 115.62 602.84 114.4 601.91 114.09 601.76 112.24 601.03 111.41 601.18 110.44 599.7 108.29 600.89 106.11 600.2 105.1 602.04 103.85 601.53 102.34 601.78 101.27 603.17 100.22 602.08 97.86 604.84 96.86 604.47 94.92 603 93.66 603.08 92.16 604.85 91.16 605.61 89.74 605.4 88.27 607.52 88.83 607.71 89.43 610.01 89.74 610.91 87.18 612.4 86.06 613.34 86.19 615.38 84.72 616.27 82.71 617.8 81.91 619.18 80.56 619.38 79.72 621 78.87 621.46 76.09 621.09 74.51 621.71 72.98 622.97 71.67 623.53 69.81 625.42 67.98 626.9 67.91 628.93 66.33 629.3 65.03 632.41 62.36 632.9 60.21 635.33 59.07 635.87 57.84 637.07 57.04 636.06 53.93 Z"/>
</g>
</svg>