<?xml version="1.0"?>
<svg xmlns="http://www.w3.org/2000/svg" version="1.2" baseProfile="tiny" width="800" height="729" viewBox="0 0 800 729" stroke-linecap="round" stroke-linejoin="round">
<g id="4216008">
<path d="M 707.42 37.15 693.24 50.35 677.63 67.61 654.93 91.03 642.68 107.79 638.19 118.22 636.15 125.45 635.62 135.08 636.27 138.95 640.83 146.73 649.55 158.25 657.32 166.64 672.84 180.12 679.41 184.37 689.8 189.04 706.54 192 714.5 193.04 723.1 195.46 732.33 200.01 748.32 207.11 757.24 213 766.12 219.23 774.23 226.78 776.35 230.82 776.14 236.05 773.94 240.05 768.44 245.91 761.73 251.98 755.67 257.04 728.65 278.96 720.31 284.84 704.47 292.44 695.8 298.1 690.23 302.89 687.12 308.86 686.02 314.33 685.76 320.03 686.14 323.89 688.02 329.36 690.12 333.08 693.22 336.9 699.34 341.46 709.73 346.81 720.42 350.88 727.68 352.56 748.24 356.56 758.57 358.97 768.29 361.69 776.49 364.64 785.67 369.61 790.31 373.41 793.91 377.44 796.49 381.49 798.15 385.58 798.99 389.65 799 393.37 798.11 396.41 795.16 399.57 791.13 401.83 786.07 403.76 780.24 405.29 771.53 406.69 763.65 407.42 755.79 407.78 744.67 407.51 737.5 406.71 728.88 405.16 715.66 402.27 694.47 398.58 682.23 395.91 675.05 393.64 663.18 389.37 654.78 386.72 643.45 384.54 635.76 384.03 631.01 384.35 627.61 385.42 625.35 387.25 623.84 389.81 622.96 393.33 622.76 398.47 623.95 411.01 624.7 411.98 627.35 427.05 629.16 433.13 637.17 447.63 641.42 454.45 646.37 459.27 653.02 468.22 661.05 480.02 672.48 495.16 680.51 504.3 685.96 512.68 688.65 518.11 689.79 524.42 689.56 529.18 688.01 534.67 685.63 539.63 682.61 541.33 678.74 541.65 669.36 540.83 661.58 539.48 650.52 535.71 641.58 533.34 624.55 527.05 611.45 521.45 602.88 519 590.24 518.9 576.84 521.58 574.44 523.17 572.64 526.94 571.81 534.16 572.68 540.25 573.72 554.5 574.81 563.23 577.73 573.94 582.64 583.68 587.8 595.35 589.73 600.75 591.2 608.99 591.39 612.72 588.94 621.81 586.85 634.93 585.09 649.11 583.28 661.02 578.8 678.22 576.46 683.9 571.78 686.41 567.78 686.64 562.34 685.98 557.33 684.69 541.55 681.29 532.2 680.63 520.89 680.82 512.26 680.61 493.22 678.02 485.52 676.31 477.65 673.34 472.53 670.53 468.74 667.55 464.59 662.58 456.29 653.63 456.5 657.6 451.85 646.6 448.67 638.41 444 630.95 439.34 626.06 433.59 621.72 426.31 617.06 411.04 610.22 399.17 607.32 388.38 606.02 377.67 606.08 369.49 606.63 358.51 607.73 347.17 609.23 335.03 610.02 324.32 610.96 311.46 612.46 299.94 615.08 291.2 618.99 280.13 623.62 259.78 634.4 250.32 639.99 244.46 645.43 235.44 653.03 225.68 663.99 217.2 672.47 207.01 683.35 199.16 693.11 193.3 699.91 186.44 709.67 175.51 728 165.24 715.28 156.72 701.29 154.21 696.17 149.88 689.87 146.46 685.99 142.11 683.5 131.96 679.96 124.49 678.07 122.59 676.23 121.83 673.78 120.19 664.48 120.42 661.25 123.58 655.85 125.83 654.04 131.91 653.93 138.52 649.38 140.84 648.23 146.72 648.97 151.19 650.44 159.56 654.73 165 654.48 167.15 653.7 173.56 653.27 181.45 650.81 182.7 649.5 182.32 644.56 179.73 639.53 173.26 636 167.27 634.16 159.8 628.73 157.65 626.14 157.39 624.35 158.85 620.3 160.01 613.63 157.58 612.06 147.38 617.02 146.48 616.98 142.91 611.71 141.33 607.37 135.41 600.64 126 596 118.33 597.58 111.45 598.13 107.59 598.99 94.42 599.46 89.5 598.73 76.71 596.09 73.81 594.99 69.37 591.83 68.92 589.67 74.17 586.83 77.58 585.71 81.08 583.62 81.65 582.29 74.85 576.21 75.08 571.71 79.83 569.05 85.64 566.95 88.48 563.22 92.02 556.73 93.77 552.67 94.98 543.36 94.63 537.96 95.19 534.06 94.18 531.68 93.47 526.33 90.82 523.17 85.99 522.2 83.48 524.83 81.04 529.11 78.78 531.49 76.03 536.88 73.05 539.74 67.97 541.64 59.71 541.59 47.2 539.89 43.33 537.97 42.16 535.12 36.44 530.48 31.99 528.47 32.05 526.14 40.89 521.53 47.78 518.57 49.76 514.6 48.66 512.13 52.23 507.5 52.18 503.95 47.96 501.02 44.68 500.29 42.02 495.38 37.69 491.36 37.08 487.98 42.49 484.1 48.7 480.73 50.68 477.98 54.1 476.84 59.89 472.54 60.02 467.57 53.13 462.24 44.92 460.34 35.1 458.68 31.96 456.77 17.94 443.63 9.12 439.82 4.7 438.24 1 435.68 1.16 432.74 4.01 428.23 6.84 425.57 7.2 422.26 9.94 420.5 13.75 419.52 21.85 418.37 25.85 418.57 38.19 420.65 45.86 420.23 52.07 420.5 53.72 417.47 50.76 411.98 49.7 408.96 51.72 406.78 51.86 402.59 46.03 398.97 43.27 398.47 40.05 396.26 35.1 394.7 30.92 394.29 29.31 397.14 26.02 398.81 21.98 399.84 19.12 399.58 19.42 389.16 16.8 385.5 14.3 378.7 13.2 377.61 12.91 373.54 14.88 372.13 20.96 369.91 22.61 367.92 25.92 361.98 30.75 360.13 32.83 358.51 35.43 354.17 39.69 352.28 42.45 350.1 46.63 348.04 47.91 345.29 86.77 345.32 107.94 220.66 108.47 212.49 109.81 171.39 208.13 171.06 208.59 127.51 211.17 129.01 223.44 134.17 225.56 133.93 295.06 90.32 294.68 71.86 319.73 71.53 319.13 59.43 333.96 58.62 344.07 53.21 444.48 54.83 580.6 58.16 625.44 1 629.6 5.07 633.64 6.14 649.35 6.88 658.91 3.53 663.72 2.53 666.42 2.89 667.58 4.69 669.05 14.02 670.1 27.83 671.92 31.79 674.08 33.24 679.01 34.19 688.07 33.9 698.3 33.1 703.53 33.57 707.42 37.15 Z"/>
</g>
</svg>