<?xml version="1.0"?>
<svg xmlns="http://www.w3.org/2000/svg" version="1.2" baseProfile="tiny" width="800" height="633" viewBox="0 0 800 633" stroke-linecap="round" stroke-linejoin="round">
<g id="4216404">
<path d="M 799 360.27 783.79 368.51 772.33 383.62 761.75 403.52 753.92 417.41 746.79 429.32 732.35 446.84 719.82 464.19 709.14 482.59 708.26 488.32 708.94 495.71 708.16 505.06 704.97 510.5 696.92 518.67 694.76 520.4 680.37 530.19 665.88 538.52 665.87 536.89 669.68 518.16 669.62 516.43 668.66 513.69 666.54 511.57 661.27 509.07 649.84 502.79 592.93 471.83 589.14 468.7 585.3 463.02 541.46 619.37 539.98 619.63 537.5 620.91 535.68 624.08 534.34 625.45 532.13 626.21 529.68 628.04 528.84 631.34 527.51 632 524.33 630.4 521.94 628.51 519.24 626.98 515.17 625.53 511.13 625.55 507.26 626.47 505.26 626.53 500.21 625.9 494.69 625.62 490.87 624.13 485.07 624.17 481.14 623.4 476.71 621.6 474.54 620.35 473.99 618.47 475.45 613.88 473.88 613.27 471 614.53 466.68 618.32 464.51 619.68 462.18 620.37 458.46 620.23 456.11 619.23 453.53 616.01 450.14 615.16 447.15 612.28 444.03 611.63 440.6 609.79 438.83 607.71 437.83 604.8 437.71 603.07 434.84 595.01 433.19 595.12 430.29 597.78 428.47 598.74 422.84 595.66 421.93 594.33 421 590.22 418.52 588.25 416.8 588.18 414.15 589.47 411.99 591.22 408.15 592.4 406 592.26 401.78 590.68 397.82 588.63 396.17 584.99 395.04 584.24 392.55 584.89 389.71 587.82 389.05 590.18 389.05 597.09 387.78 598.89 385.75 598.29 384.68 594.01 381.08 589.91 379.12 589.8 377.28 590.91 374.1 594.07 372.78 594.72 371.48 593.57 371.46 589.11 370.98 586.73 369.4 583.07 367.6 580.75 366.02 579.8 359.03 580.71 357.61 579.21 358.17 576.4 361.27 574.24 363.42 574.54 368.08 576.18 370.31 576.19 372.91 575.58 373.46 573.09 371.02 571.53 368.2 568.98 367.18 567.1 367.03 563.65 368.5 559.05 370.46 555.17 372.98 551.74 376.42 546.38 377.61 540.61 377.67 538.06 375.22 535.84 371.8 534.1 365.63 531.96 362.85 531.37 357.16 530.7 347.61 530.63 338.97 528.6 337.15 528.61 335.57 527.56 333.88 525.17 333.76 522.49 334.67 520.18 336.49 518.74 342.61 517.05 343.71 514.68 340.07 510.76 339.34 507.36 340.6 503.53 341.4 502.71 346.95 501.17 349.39 501.5 350.67 502.85 351.48 504.93 353.24 505.41 354.39 503.36 354.36 498.63 354.89 495.02 354.27 492.94 349.55 490.85 347.51 490.27 342.28 485.7 339.86 486.6 340.06 488.68 338.29 489.07 337.2 488.34 335.44 485.37 330.86 486.05 329.11 488.04 326.65 488.16 326.45 486.71 327.24 484.57 327.19 481.94 326.49 480.16 322.71 476.63 325.33 473.9 331.01 473.71 332.32 471.88 327.45 465.2 327.24 461.2 327.73 459.96 325.41 454.19 325.5 453.07 327.02 451.77 327.69 448.82 324.44 446.21 320.66 444.84 318.86 443.58 315.71 440.35 313.35 439.54 311.92 438.15 308.92 437.16 304.8 434.54 303.18 431.91 297.55 427.57 295.22 425.23 292.97 423.55 287.3 420.63 281.67 421.33 277.04 421.29 274.59 420.68 270.36 420.54 268.54 421.76 264.45 422.86 260.91 422.26 259.85 418.51 260.39 417.42 260.43 414.74 259.14 413.06 258.45 411.02 256.76 411.13 251.63 408.79 250.02 407.52 247.02 408.5 243.78 408.16 242.25 409.07 237.81 407.29 235.24 407.32 229.83 405.39 228.47 402.76 226.52 402.54 222.21 405.21 217.95 403.97 216.71 403.21 214.13 400.51 212.5 397.64 209.71 397.38 205.45 394.24 202.96 393.28 199.74 390.84 198.08 390.12 197 388.43 194.64 387.29 191.78 389.66 187.14 391.2 184.64 391.37 181.44 390.75 177.54 389.24 173.36 385.36 172.04 382.61 168.77 379.14 164.02 377.35 160.56 376.91 158.65 375.44 156.43 374.68 154.97 372.1 153.4 370.62 150.5 369.6 146.43 367.23 144.06 367.49 141.11 366.69 138.44 366.6 136.67 368.15 134.68 368.84 131.97 368.28 123.4 362.69 117.04 362.38 114.96 362.58 112.35 361.98 107 361.54 101.89 362.51 98.9 364.13 98.63 365.7 94.82 367.18 93.11 367.3 89.71 366.32 87.53 364.39 86.53 365.57 80.24 368.69 78.04 368.92 76.35 368.37 73.07 368.33 70.5 367.23 66.11 366.57 64.76 365.97 64.43 363.57 59.19 362.79 54.98 360.75 53.11 361.09 49.87 360.01 47.44 357.77 47.15 351.67 45.3 348.86 40.91 346.33 37.04 347.14 33.66 348.45 32.08 348.6 27.95 346.03 26.26 343.78 24.66 343.66 17.29 344.38 15.92 344.03 13.19 344.95 11.24 343.6 7.34 343.15 5.37 341.83 1 339.96 7.97 338.84 15.04 338.9 20.15 340.35 23.27 340.95 29.07 340.67 36.01 339.71 42.56 341.09 45.86 342.52 52.72 345.92 55.05 346.45 57.37 346.21 61.15 342.4 63.51 339.44 64.21 336.25 65.67 334.87 73.34 334.2 79.13 334.8 81.24 336.75 83.84 337.28 85.89 336.71 89 334.94 92.57 331.18 95.69 330.34 101.81 329.9 105.06 330.35 108.19 332.09 110.66 332.52 112 331.02 109.83 326.9 109.43 325.33 112.39 322.95 115.69 322.95 122.28 324.29 125.92 323.91 132.32 323.82 136.26 324.19 143.29 325.93 147.34 327.24 148.88 327.09 150.97 325.04 148.95 322.55 148 320.72 147.74 317.08 148.16 315.44 151.36 314.06 156.59 313.69 164.96 311.97 168.97 311.61 173.88 312.13 175.62 311.97 177.69 310.19 180.12 307 182.9 305.03 183.94 303.54 184.77 300.81 187.35 297.79 198.18 290.47 200.76 286.49 206.43 281.12 207.22 277.13 207.4 273.55 208.14 271.17 210.85 267.1 213.61 262.32 216.29 260.52 222 259.92 230.24 258.22 237.32 260.29 239.89 259.9 240.12 257.37 237.25 254.13 235.57 250.84 235.69 249.37 238.17 247.59 239.99 247.42 242.91 248.25 246.26 250.56 250.07 251.66 252.5 251.25 253.44 249.51 253.33 246.46 257.26 243.5 260.47 242.35 266.87 244.24 269.52 245.48 275.68 247.22 279.48 248.75 283.55 248.85 285.91 248.2 289.32 246.63 297.67 245.31 300.67 246.31 304 248.89 305.12 248.7 305.56 246.66 305.25 243.06 306.34 241.62 307.97 241.26 310.58 241.69 311.78 242.78 314.62 242.27 319.29 238.08 321.72 236.74 322.06 235.28 319.75 233.87 319.77 232.04 323.71 231.16 327.81 232.96 331.04 232.89 334.25 233.42 336.6 231.98 340.48 231.46 342.55 228.26 344.27 227.28 349.52 226.88 351.93 227.79 352.42 231.36 354.22 232.85 355.76 231.27 358.52 230.18 358.37 228.29 356.59 226.94 356.7 224.74 358.72 224.62 360.29 225.53 363.09 225.61 367.11 224.96 369.75 226.35 371.83 225.98 372.67 222.91 375.6 217.4 378.47 215.68 380.14 212.85 382.81 211.56 384.54 212.7 384.88 215.23 386.95 217.81 389.88 220.08 391.72 218.92 392.85 217.06 395.2 215.98 397.36 213.03 397.33 211.39 398.34 210.57 401.09 210.99 403.26 210.69 405.16 211.11 406.83 212.26 410.23 212.25 410.69 208.99 409.24 206.39 407.67 205.94 403.86 206.33 399.6 205.81 393.99 208.94 391.81 209.07 390.67 207.63 388.83 202.08 386.97 198.99 387.35 195.02 388.73 191.6 391.49 191.38 393.57 193.22 395.68 196.62 397.54 197.54 400.52 197.51 404.19 196.41 406.77 193.63 409.13 193.6 411.11 198.45 413.12 199.95 415.52 200.34 418.53 200.2 421.11 199.42 424.07 197.7 426.37 193.83 425.46 192.37 420.3 192.39 417.99 192 416.62 191.11 415.91 189.6 415.13 185.09 415.85 181.42 417.5 179.72 420.81 178.17 425.82 177.29 430.81 176.8 436.02 177.18 441.09 178.53 442.08 179.39 443.45 184.07 446.83 185.95 449.41 186.7 451.46 186.72 453.57 182.93 455.19 181.7 453.45 180.92 447.57 177.22 444.77 174.32 441.64 168.9 430.07 157.98 426.59 148.67 424.6 137.97 423.72 134.63 423.41 127.24 421.56 121.15 420.51 116.33 419.39 108.47 415.09 97.82 413.61 94.79 409.46 87.33 411.23 76.91 411.06 61.16 410.21 58.26 405.69 53.44 402.98 49.44 400.7 42.43 400.43 40.79 402.78 21.02 406.05 10.11 405.64 6.29 403.9 2.91 402.43 1 541.56 147.51 631.72 242.46 666.18 266.74 799 360.27 Z"/>
</g>
</svg>