<?xml version="1.0"?>
<svg xmlns="http://www.w3.org/2000/svg" version="1.2" baseProfile="tiny" width="800" height="314" viewBox="0 0 800 314" stroke-linecap="round" stroke-linejoin="round">
<g id="4216701">
<path d="M 708.04 47.83 730.26 40.9 798.18 33.79 799 36.96 798.45 38.38 797.53 38.58 793.6 37.35 791.85 37.35 790.08 38 787.6 37.81 786.33 38.27 782.32 39.12 780.9 39.72 780.29 41.97 781.06 44.98 783.18 47.73 784.79 48.75 787.9 49.53 788.56 49.96 792.57 50.75 793.52 51.77 793.41 54.65 790.98 57 787.21 56.6 783.55 55.54 781.05 55.51 778.9 54.89 775.91 54.52 773.23 53.97 772.58 54.62 773.14 58.26 774.05 61.46 773.17 62.12 769.68 62.23 767.45 61.88 766.07 61.18 763.97 61.06 762.42 61.71 760.73 61.93 759.63 62.97 760.66 64.57 762.82 70.68 763.85 71.6 766.4 72.72 769.91 73.77 775.05 73.66 777.42 74.6 780.85 76.57 780.96 77.61 779.81 79.38 778.77 82.77 778.9 86.36 779.32 87.76 779.11 89.36 777.26 89.57 775.5 88.82 774.03 88.82 771.95 87.61 770.87 87.86 765.49 89.97 764.99 90.74 765.56 91.7 765.51 93.71 769.99 96.04 772.68 97.04 775.79 97.87 776.8 99.34 776.78 100.44 775.71 101.35 773.58 101.95 772.17 102.81 769.44 102.81 768.33 102.36 765.14 101.72 763.13 101.09 760.53 98.94 759 96.61 756.27 93.93 754.49 94.58 752.58 97.09 752.25 97.98 752.26 101.73 751.28 105.31 750.62 106.59 748.85 108.19 748.89 109.33 749.56 109.77 751.08 112.1 751.39 113.84 750.68 114.51 746.54 113.99 744.27 114.64 738.11 115.25 737.14 115.7 735.89 117.09 735.21 118.43 734.33 121.26 732.56 124.58 729.63 126.24 728.14 127.34 725.64 127.74 723.31 127.62 720.12 127.99 718.57 129.19 716.54 129.61 713.46 128.03 711.74 127.84 710.22 129.16 709.45 130.94 707.8 132.27 707.16 132.26 705.53 131.25 703.89 127.54 703.55 125.03 702.85 122.24 701.14 119.5 698.9 118.6 696.53 119.8 694.75 120.32 693.64 121.22 692.44 122.86 691.58 124.88 691.64 127.52 693.33 129.74 694.9 132.37 695.84 134.35 696.49 138.38 697.5 141.25 698.79 143.45 699.4 145.27 699.07 147.14 694.82 149.61 693.16 152.06 692.81 153.65 693.05 154.67 694.33 155.76 695.95 155.81 697.88 156.74 700.78 157.47 703.83 159.05 707.38 160.18 710.13 162.08 710.16 163.91 709.48 164.73 707.54 165.89 705.56 165.54 702.42 166.58 699.96 167.93 696.27 169.21 693 169.71 690.78 169.36 689.24 168.36 685.49 164.96 681.94 162.85 680.39 162.84 679.79 163.45 680.62 164.79 681.73 167.65 683.43 168.94 686.38 170.76 687.83 172.27 691.84 175.88 696.8 179.3 698.96 180.49 700.61 181.76 702.26 184.11 703.39 186.64 703.65 188.8 702.85 189.63 697.27 189.43 694.88 188.94 690.38 188.65 687.53 188.31 684.31 188.61 682.84 188.43 680 188.77 678.56 189.53 677.56 190.58 677.35 193.23 677.99 194.43 679.11 197.86 680.63 200.36 681.49 201.22 682.99 203.53 686.66 207.49 690.59 210.51 693.74 212.39 695.86 213.92 696.33 215.87 698.46 220.46 698.66 221.2 697.47 223.22 694.62 225.21 692.78 226.19 691.45 226.48 689.25 226.11 688 225.32 683.76 223.6 680.87 222.74 679 221.61 675.49 219.15 672.75 219.19 672.19 219.81 672.21 221.17 672.89 222.65 676.29 225.54 680.02 227.42 681.97 228.75 686.08 231.09 692.71 235.23 695.6 237.62 696.87 239.39 697.99 241.86 698.27 243.08 698.14 243.92 696.6 245.61 696.09 246.75 696.09 248.16 697.5 251.91 698.89 254.7 700.63 257.45 701.01 258.38 700.67 259.64 699.44 260.79 696.81 260.46 692.23 257.96 689.6 255.76 684.89 252.67 682.71 252.11 677.46 251.35 673.95 251.21 672.38 249.83 672.72 248.3 673.64 247.79 677.19 244.61 678.49 243.04 678.74 241.33 678.03 239.05 675.18 235.53 674.31 234.7 671.47 233.11 663.2 230.31 660.44 229.72 658.03 230.37 656.44 230.53 652.54 229.67 651.13 230.95 651.46 232.47 652.22 233.41 653.6 236.37 656.16 239.71 659.15 243.04 660.07 244.71 660.13 246.26 659.73 247.43 658.1 247.81 656.74 249.54 652.97 255.96 652.73 258.66 652.8 263.12 653.02 265.72 652.85 268.38 652.04 270.42 650.81 271.86 648.81 272.92 643.52 276.86 642.02 276.51 640.87 275.55 636.8 272.67 634.56 272.05 626.43 270.5 622.33 269.42 618.51 268.02 614.55 266.23 612.52 265.87 610.99 266.28 610.33 267.33 609.77 270.56 609.96 272.38 609.81 277.19 609.97 280.28 610.78 281.41 614.68 283.03 617.3 283.78 621.11 284.63 630.94 289.85 633.1 291.21 638.22 293.48 641.61 295.17 643.64 295.64 652.66 294.75 654.44 295.02 656.33 296.14 656.94 296.88 657.11 298.82 654.98 301.19 652.77 302.5 651.02 303 646.96 303.8 642.73 304.06 641.34 304.72 639.78 305.87 638.64 307.31 631.02 313 629.82 312.85 629.37 311.76 627.4 310.77 619.7 308.93 617.83 308.29 616.62 307.03 614.07 301.86 612.02 301.05 609.79 301.17 607.47 301.77 605.14 302.72 603 305.49 601.49 306.47 598.95 307.13 595.67 307.42 589.28 307.28 587.37 307.43 587.85 306.27 589.6 304.37 561.89 305.42 512.17 249.23 511.34 239.99 463.8 243.27 462.44 246.72 460.6 249.23 446.06 250.61 444.84 251.49 443.37 253.05 442.09 252.86 440.81 252.09 438.54 251.84 436.74 250.97 434.26 250.2 433 250.43 431.88 249.75 430.56 249.99 427.95 248.8 425.56 248.49 422.75 248.4 419.44 249.16 418.52 249.64 416.7 249.79 415.64 248.79 412.85 249.52 410.87 250.38 410.67 251.79 409.32 253.02 407.69 252.95 406.24 254.3 403.43 254.79 400.91 256.31 398.84 255.27 396.4 255.48 394.87 256.17 390.7 256.82 389.65 255.03 386.46 255.85 384.3 256.11 383.36 256.92 383.83 258.58 383.66 259.45 382.47 260.08 382.15 260.97 381.12 261.49 380.1 262.69 379.63 263.85 379.7 265.21 377.78 265.66 376.07 265.1 374.58 265.74 373.33 265.65 372.72 265.04 368.45 265.29 367.94 264.12 367.25 263.77 365.37 264.05 363.46 263.94 362.1 265.32 361.33 268.22 359.19 267.73 356.04 267.48 354.6 266.34 353.19 266.64 352.08 266.25 351.53 265.21 349.35 264.59 348.58 263.6 346.4 264.16 344.61 263.14 342.07 260.87 339.63 258.34 338.34 256.29 337.67 254.36 337.03 254.48 336.19 256.39 334.25 256.42 333.35 257.09 331.99 259.39 331.74 260.55 330.35 259.96 328.51 260.19 327.32 261.32 325.08 259.46 325.54 257.2 325.29 255.78 323.92 253.95 322.17 253.74 320.39 254.29 318.9 254.06 317.96 252.1 318.69 249.89 319.72 249.64 321.44 251 323.26 251.78 326.22 251.89 326.96 251.32 327.59 249.49 326.58 246.64 323.72 242.4 323.68 237.04 266.31 238.68 266.75 240.59 266.57 242.26 266.85 242.96 267 246.71 246.85 249.17 245.19 252.62 242.53 257.22 204.74 259.64 202.96 238.85 200.86 238.21 199.01 239.56 197.14 239.54 194.35 238.76 191.99 238.35 189.08 237.36 186.78 236.86 186.53 235.91 185.22 236.14 183.15 235.82 182.03 235.24 180.46 235.49 180 234.34 178.89 233.7 177.14 234.06 175.82 233.96 172.39 232.45 170.04 232.12 169.2 231.4 168.15 231.57 167.48 232.67 166.07 232.76 164.72 232.31 164.47 233.21 162.07 232.56 161.66 231.12 159.38 231 156.09 228.78 155.27 227.45 152.91 227.04 150 227.5 147.35 226.9 145.07 225.87 144.2 223.83 141.52 222.05 139.12 219.04 136.17 217.26 135.14 215.47 133.32 215.35 130.32 213.72 129.39 213.44 128.54 214.71 130.7 215.85 132.34 217.53 132.45 219.71 131.52 221.08 131.1 222.62 129.86 224.51 127.56 226.56 124.41 228.3 123.29 227.85 121.58 225.57 120.75 223.5 119.26 220.71 116.96 217.59 114.95 216.59 111.18 216.47 106.02 215.2 104.56 214.46 103.54 211.09 103.95 209.77 107.51 207.51 108.34 206.05 107.38 205.14 101.51 204.53 98.31 204.8 94.61 204.07 92.84 204.58 91.72 205.51 90.69 210.04 88.51 213.84 88.31 215.25 88.68 218.2 89.74 219.85 89.89 220.83 89.67 223.35 88.46 226.07 89.12 227.18 94.43 227.83 96.21 228.68 96 230.07 92.61 231.81 90.21 232.22 87.71 231.78 83.1 230.2 81.9 229.45 80.68 229.45 80.3 230.89 80.62 232.18 82.06 234.35 85.87 237.75 86.46 239.1 85.96 239.62 82.14 241.34 79.54 242.14 78.83 242.98 77.59 246.47 75.2 247.33 74.6 246.17 74.56 243.11 74.76 240.55 74.22 235.4 74.57 232.22 73.62 230.74 72.77 230.03 70.89 229.16 68.46 229.01 66.19 229.42 61.62 229.02 60.67 229.11 57.76 230.23 54.73 231.05 52.48 232.09 51.25 233.47 50.84 234.9 51.19 235.95 54.09 239.48 54.56 241.52 53.37 245.79 54.03 247.63 55.34 248.46 59.07 249.63 60.52 250.59 64.02 251.31 65.99 252.53 66.44 254.74 66.62 258.53 66.56 261.17 66.76 262.63 66.63 266.66 66.14 267.27 64.32 268.16 62.4 268.38 58.58 267.45 57.5 267.67 56.3 269.85 55.86 272.05 56.36 273.42 60.8 276.56 60.95 277.06 60.52 280.29 60.08 281.37 58.83 282.17 57.03 282.08 55.3 281.09 55.42 280.23 54.22 277 53.44 273.6 52.6 270.77 51.79 269.78 47.56 267.7 45.81 266.61 45.1 265.17 46.52 263.8 48.5 262.55 49.81 261.33 50.01 260.34 48.61 258.52 45.97 256.5 44.28 255.68 42.88 255.8 42.16 256.48 41.4 258.86 40.93 261.62 40.8 264.65 38.48 267.52 37.42 269.24 37.44 271.47 39.32 277.27 39.38 279.76 40.04 283.27 40.74 284.78 42.74 286.94 45.69 288.96 52.29 292.85 53.97 294.43 54.86 296.02 54.96 297.24 54.53 300.21 53.86 301.32 52.56 301.84 50.96 301.94 48.39 301.16 45.84 299.81 43.88 297.32 40.39 291.04 39.45 290.06 36.83 288.81 35.32 288.45 33.16 288.72 29.64 290.65 27.76 290.73 27.59 289.05 28.53 287.78 29.16 285.78 28.34 279.53 27.32 277.99 25.84 278.86 25.18 280.18 24.74 283.23 23.39 284.82 23.18 284.16 21.35 282.71 19.42 282.09 17.61 281.2 15.49 279.35 14.07 276.35 14.24 274.51 17.08 270.11 18.42 269.17 23.23 267.63 28.56 266.22 30.61 264.97 31.29 263.84 31.26 261.45 29.81 257.89 29 256.9 28 256.6 26.26 257.16 24.31 258.29 19.42 263.08 16.88 262.56 14.03 261.21 11.34 260.23 9.72 258.7 8.91 255.55 7.81 252.27 6.64 249.74 5.8 247.08 5.43 244.25 5.85 240.25 6.5 235.82 6.15 231.04 1.49 227.09 1 225.89 1.38 218.26 1.73 214.74 3.06 209.49 3.72 207.43 5.48 205.87 7.68 204.8 11.33 204.81 14.89 205.62 16.5 206.78 18.23 210.27 20.72 214.48 23.19 218.34 24.54 219.6 26.18 218.56 28.91 214.62 31.77 211.26 34.27 210.45 38.04 210.67 40.8 211.61 44.83 213.24 47.34 215.69 51.4 218.41 54.01 222.04 55.66 223.16 57.81 222.72 60.01 219.73 60.23 217.58 59.06 214.11 57.92 212.45 56.52 211 54.72 210.13 52.1 209.68 49.18 208.29 48.53 206.2 49.86 204.17 51.94 202.84 52.44 200.98 54.24 198.63 55.54 194.83 55.93 190.29 57.03 188.8 58.22 187.72 59.39 186 60.42 185.17 61.14 183.18 62.98 181.67 65.13 181.59 68.57 183.14 72.71 184.12 75.29 184.29 76.08 182.99 75.85 181.43 73.36 177.47 71.65 174.03 71.1 171.9 70.15 166.64 68.76 162.2 67.47 160.67 67.34 158.75 68.26 156.61 70.06 155.9 72.44 155.56 74.87 154.02 76.63 152.24 76.73 150.4 74.52 149.25 66.38 146.43 63.31 146.43 60.93 148.53 59.48 151.85 58.16 155.8 57.26 159.91 56.31 162.1 54.21 163.61 51.62 163.64 50.17 162.33 49.37 159.59 49.23 156.83 48.53 151.92 48.4 148.54 47.39 147.61 45.77 147.06 40.4 146.19 37.76 145.44 35.47 143.99 34.67 142.11 34.53 140.15 35.76 139.02 37.55 136.82 39.44 135.25 41.71 133.94 44.25 131.69 47.77 128.92 53.7 125.84 57.1 125.01 59.53 125.55 60.68 126.74 61.56 129.48 62.86 132.31 64.39 135 66.36 136.95 69.8 139.22 71.1 138.83 71.16 137.05 70.51 135.4 69.83 129.97 69.91 122.34 70.47 119.19 72.52 114.24 73.07 112.49 74.24 107.3 73.3 105.47 71.95 104.29 70 103.1 67.78 102.43 65.47 101.15 63.3 98.47 61.89 96.17 61.55 93.51 59.64 87.72 58.68 85.6 57.85 82.65 58.13 79.96 58.81 78.13 59.78 76.78 61.22 76.09 66.12 75.43 69.56 75.26 73.05 74.82 74.95 75.46 75.9 76.73 75.98 78.51 73.73 82.57 72.65 84.86 75.24 85.22 76.82 84.49 79.26 81.22 80.63 80.84 82.3 80.94 84.24 81.43 89.84 82.45 92.56 81.94 93.38 81.4 95.88 81.17 139.77 82.48 141.74 82.83 201.1 93.85 201.63 94.65 199.31 96.63 197.25 99.32 196.84 101.21 197.46 105.82 197.52 110.32 198.48 112.01 198.76 114.87 197.55 116.87 197.46 117.95 197.92 118.98 197.74 120.81 198.5 122.05 198.37 122.87 198.71 125.67 197.72 127.13 198.95 127.92 202.52 129.38 204.34 130.58 206.58 131.49 207.31 134.89 208.1 136.64 210.34 138.45 213.34 137.97 213.09 135.51 213.58 132.9 213.92 132.4 216.64 131.95 216.55 133.43 217.7 134.68 219.88 135.9 220.72 136.95 220.45 138.2 221.87 139.06 223.94 138.72 226.23 140.13 226.29 141.11 227.07 141.45 227.86 143.06 229.43 143.94 230.4 144.93 237.62 145.54 322.06 153.01 324.04 154.69 325.52 154.79 326.73 157.34 327.43 158.08 329.26 158.21 332.71 159.89 333.46 161.67 334.27 162.64 334.99 164.84 336.23 166.42 353.47 140.62 346.64 134.02 350.66 127.32 352.87 127.9 354.48 129.09 355.71 129.34 360.39 132.53 361.5 133.58 363.33 134.37 366.67 134.86 368.6 135.45 368.77 105.04 376 105.11 376.3 98.14 373.11 97.53 372.09 96.81 378.54 82.04 379.91 82.25 389.86 68.3 390.54 68.55 403.78 45.06 406.49 46.62 408.38 47.25 410.82 46.97 410.74 48.48 413.15 48.38 414.89 49.39 415.92 49.16 416.96 49.7 419.32 50.15 421.08 51.42 423.47 52.13 424.66 53.47 427.72 54.74 431.19 55.54 434.19 55.4 439.05 56.45 440.94 57.34 442.47 57.35 443.94 56.17 444.45 54.21 446.52 53.36 447.95 53.52 448.73 52.43 449.96 52.26 450.24 51.43 451.48 50.45 451.93 48.3 452.63 48.02 457.8 48.43 463.06 49.34 463.12 48.61 465.81 48.72 467.05 49.71 467.88 48.78 468.88 48.72 469.23 49.54 470.16 49.72 470.91 48.85 472.15 48.26 473.34 48.73 474.75 50 477.76 49.16 479.2 49.77 479.96 49.15 482.84 48.93 483.66 48.13 486.21 48.55 489.57 48.38 491.46 49.08 492.51 48.72 494.67 48.66 495.68 49.17 498.07 48.5 500.68 49.01 502.05 50.04 503.28 50.53 504.89 50.39 508.2 49.37 509.01 49.88 512.78 49.24 513.18 48.49 514.33 48.06 515.14 46.61 517.52 46.23 518.98 45.06 521 44.48 523.29 42.9 526.04 42.31 524.84 39.84 524.78 38.14 526.77 37.38 528.48 37.58 565.89 35.22 573.79 1 574.72 2.12 574.96 3.72 575.88 4.65 578.22 5.41 580.68 6.95 584.43 8.38 585.8 9.5 586.99 11.05 589.5 13.01 590.78 15.23 593.34 16.97 593.53 18.51 592.49 19.31 593.2 20.5 594.35 21.32 595.26 22.72 597.76 25.41 597.9 26.23 597.14 27.53 597.51 29.03 597.55 30.78 596.76 33.43 597.62 34.85 599.85 37.09 601.53 39.72 604.23 40.24 606.97 41.43 609.59 41.72 613.06 42.46 614.12 41.81 616.52 42.32 618.26 44.16 620.37 43.67 621.69 43.69 624.01 45.8 625.71 44.8 628.18 44.98 629.49 46.77 631.81 48.17 632.55 49.75 635.96 51.88 638.99 52.41 640.47 52.08 640.4 55.67 641.22 56.19 644.12 55.89 644.32 56.2 643.48 58.69 644.39 58.84 646.49 57.7 647.65 58.09 649.38 57.36 651.72 57.36 652.79 59.4 654.02 60.18 656.47 60.11 657.71 60.49 659.14 61.68 660.61 63.89 661.44 64.61 664.64 65.58 664.67 64.04 665.87 63.45 667.03 63.47 670.15 62.82 676.02 62.1 678.18 61.44 679.22 60.81 680.87 59.05 685.14 56.06 688.28 54.25 690.81 53.31 691.79 53.57 693.42 55.23 697.54 57.92 699.19 57.97 701.88 56.67 703.32 56.41 705.38 57.01 706.19 57.58 708.29 57.63 709.83 56.83 709.3 54.07 708.68 52.55 708.55 49.78 708.04 47.83 Z"/>
</g>
</svg>