<?xml version="1.0"?>
<svg xmlns="http://www.w3.org/2000/svg" version="1.2" baseProfile="tiny" width="800" height="1096" viewBox="0 0 800 1096" stroke-linecap="round" stroke-linejoin="round">
<g id="4216354">
<path d="M 789.06 304.98 780.5 349.35 772.85 380 773.52 384.43 778.7 393.5 784.27 399.65 788.19 407.53 791.57 421.29 792.74 433.98 792.71 439.59 795.93 444.04 795.35 458.04 798.26 464.4 799 470.2 798.77 478.99 796.33 483.13 788.9 487.74 785.4 492.28 781.1 508.07 773.18 513.04 770.36 518.88 769.81 532.6 770.63 537.84 772.22 540.13 777.06 766.2 772.4 768.03 764.78 767.57 756.17 765.61 743.54 768.62 736.05 773.25 729.91 775.1 722.45 770.58 719.07 771.81 719.38 779.09 722.45 788.02 716.23 788.13 709.03 790.73 706.12 792.6 698.23 800 696.88 802.76 696.11 808.75 694.3 810.53 687.67 811.91 684.35 814.59 683.16 819.1 683.31 828.16 685.95 838.32 687.48 841.36 692.83 845.32 693.07 848.98 691.66 852.26 687.91 855.92 684.75 862.24 681.99 866.05 674.25 870.66 671.61 874.16 672.53 877.66 682.48 885.95 695.01 892.03 700.26 896.72 701.53 901.62 698.93 904.44 694.91 904.7 684.98 908.62 683.98 915.28 684.48 926.15 685.46 928.66 689.26 931.37 698.47 932.2 702.37 936.53 701.64 944.2 707.81 952.12 707.68 956.58 705.32 966.34 706.22 974.84 705.57 983.6 708.27 988.82 708.02 990.42 701.7 994.04 694.21 989.56 684.63 986.43 680.95 983.42 674.62 979.92 668.88 979.95 660.47 986.76 653.87 990.02 646.13 991.68 636.19 992.04 633.24 993.64 630.48 997.33 628.94 1005.8 626.79 1009.85 620.96 1011.27 601.99 1011.45 594.1 1009.15 587.47 1009.03 584.62 1007.98 580.32 1003.22 574.79 998.43 563.31 997.05 560.12 998.43 557.69 1003.28 554.04 1003.28 546.18 999.2 542.56 995.33 542.07 992.9 543.48 984.4 542.5 979.64 537.56 970.64 534 966.19 526.08 965.51 508.26 961.87 506.35 963.04 502.45 972.07 501.66 977.63 495.36 990.03 491.62 995.59 490.39 999.15 491.46 1004.22 491.19 1008.3 487.44 1014.51 486.72 1018.44 488.18 1023.29 489 1030.6 490.73 1036.68 447.09 1038.71 432.94 1038.55 429.32 1046.56 419.07 1055.35 418.13 1063.36 414.62 1072.99 411.64 1074.57 403.25 1084.54 400.1 1092.24 396.34 1095 396.53 1079.12 398.27 1077.69 398.46 1074.12 396.26 1068.41 391.76 1065.68 388.85 1060.25 387.17 1054.29 384 1049.17 377.22 1046.66 374.17 1047.08 371.35 1041.83 375.96 1038.69 377.63 1035.49 377.66 1031.51 372.53 1024.11 373.39 1015.74 368.65 1009.92 368.39 1006.09 363.11 994.03 359.98 991.57 356.17 983.77 353.99 977.68 354.51 975.9 352.16 971.51 349.07 969.09 354.44 960.43 352.43 955.98 354.52 953.32 352.59 944.96 354.48 941.73 346.44 941.64 337.79 939.43 329.06 939.76 325.49 941.78 322.11 941.94 310.75 937.48 305.91 938.27 306.8 932.7 305.83 921.84 306.25 917.69 308.34 912.59 309.76 902.44 308.27 895.43 302.62 886.78 301.1 881.22 304.42 874.85 303.53 869.29 298.42 863.26 296.79 857.36 297.65 850.89 294.36 842.63 296.43 821.05 295.55 817.56 293.11 815.35 284.95 813.13 279.99 816.13 274.15 818.47 272.39 821.42 269.18 818.36 257.13 812.25 254.27 812.31 245.87 820.73 240.74 823.99 233.99 824.26 231.09 822.25 228.47 822.79 221.06 827.57 211.2 829.72 202.41 826.61 194.76 820.79 193.94 817.5 195.4 803.6 197.64 793.83 193.91 787.98 192.85 779.77 185.27 767.83 186.4 763.36 184.86 758.17 173.63 758.6 166.29 761.03 158.15 757.71 153.34 757.9 137.7 751.4 139.1 744.74 137.41 741.73 134.75 741.32 129.73 745.42 124.47 746.08 121.68 747.64 117.27 756.24 115.66 767.63 113.56 769.43 108.01 769.39 102.73 770.77 98.01 770.46 84.08 775.1 75.01 774.42 69.77 776.95 66.5 784.24 61.92 787.58 56.25 789.45 50.1 792.44 43.9 792.79 41.01 791.21 46.89 790.83 49.39 788.4 53.44 786.69 55.01 781.75 57.09 778.89 58.99 770.72 59.02 760.31 61.32 754.05 62.97 744.45 67.09 736.4 65.53 734.22 65.19 725.59 67.15 723.03 66.76 715.87 62.93 713.56 64.34 708.98 63.92 705.17 60.96 700.57 54.05 697.86 53.94 687.61 46.29 679.67 46.51 671.74 45.29 669.15 44.36 660.05 45.29 652.12 44.96 648.37 42.04 644.95 41.77 641.98 44.25 638.51 42.21 630.19 42.43 624.95 46.89 617.62 46.78 612.66 49.09 609.91 47.99 604.17 48.21 588.41 46.67 577.5 46.89 573.37 50.2 570.45 47.83 568.46 47.55 563.28 52.79 563.12 58.35 564.44 63.86 562.9 70.91 558.71 71.35 556.06 74.27 553.69 73.44 549.34 69.7 542.56 69.64 538.1 66.83 534.3 59.01 533.86 47.22 529.12 42.15 524.1 38.13 511.59 36.86 510.1 28.96 509.07 28.99 502.44 27.88 494.95 26.12 489.44 22.13 484.99 7.83 476.21 2.98 470.92 3.2 467.39 1 458.36 5.41 453.07 12.02 449.32 17.53 447.34 21.23 444.48 25.9 436.53 29.21 433.89 35.82 423.97 37.14 419.78 34.28 404.57 36.43 394.47 36.08 390.72 33.35 385.94 29.26 382.52 27.62 375.51 26.93 366.99 22.17 354.29 19.97 342.73 16.92 322.93 15.97 310.9 17.6 300.13 27.46 273.28 34.29 254.17 39.13 244.84 39.66 240.89 51.02 232.34 65.64 222.1 92.57 202.34 98.12 200.08 104.46 199.59 108.49 200.23 169.46 221.02 175.15 221.89 180.81 221.06 193.75 214.52 197.98 210.65 201.22 203.99 202.78 188.56 201.51 184.02 190.6 166.75 189.47 162.03 189.74 157.04 194.61 139.99 198.03 129.83 200.09 121.92 199.01 115.68 213.25 111.34 217.4 107.65 217.98 104.47 216.57 100.32 212.65 95.79 205.72 90.6 200.66 88.55 191.41 86.52 187.8 82.17 187.48 77.7 197.14 61.27 202.89 52.91 207.2 50.2 214.45 50.32 224.81 52.54 228.97 52.63 236.86 48.2 238.81 45.15 238.95 39 233.5 25.87 233.68 21.79 237.99 16.66 243.43 14.16 263.62 17.14 276.13 21.36 289.21 24.98 294.52 28.6 298.41 32.72 301.56 37.54 305.47 41.64 310.26 42.7 315.74 41.49 319.44 35.51 318.83 25.28 315.21 18.05 313.22 12.49 313.46 7.51 315.74 4.27 319.19 1.86 325.63 1.73 336.03 5.47 342.22 5.77 348.73 4.79 354.71 2.06 361.01 1 369.67 3.7 378.78 11.09 384.41 14.09 395.56 16.36 405.03 18.85 419.1 25.05 437.93 31.78 446.63 37.58 457.64 48.44 463.57 53.06 468.29 60.92 476.05 70.07 486.74 78.1 491.45 81.07 502.04 86.26 517.61 89.4 530.56 90.69 540.53 95.13 544.98 98.12 550.19 103.29 559.07 109.68 570.32 115.78 582.02 119.85 589.12 120.22 593.96 118.57 600.75 118.01 608.69 118.31 621.54 120.77 628.92 124.66 634.22 129.49 639.53 133.24 651.7 140.21 662.14 144.77 676.88 150.43 688.9 154.44 705.66 165.62 717.94 172.66 722.04 176.33 726.03 181.93 728.29 186.77 732.1 199.56 737.27 207.91 744.97 213.84 749.27 219.97 752.71 228.55 756.31 234.82 764.38 252.71 767.91 262.37 777.64 283.72 780.71 289.13 782.9 295.19 787.39 301.42 789.06 304.98 Z"/>
</g>
</svg>