<?xml version="1.0"?>
<svg xmlns="http://www.w3.org/2000/svg" version="1.2" baseProfile="tiny" width="800" height="656" viewBox="0 0 800 656" stroke-linecap="round" stroke-linejoin="round">
<g id="4216602">
<path d="M 645.79 655 638.35 653.14 626.73 650.98 607.39 647.89 603.05 647.54 581.99 642.97 570.95 640.8 558.57 636.73 545.17 629.88 535.46 626.19 521.12 620.22 512.39 617.58 502.71 611.61 497.35 608.92 490.51 604.53 485.86 600.76 478.46 593.17 465.85 577.73 465.76 573.45 466.61 568.5 469.09 560.63 473.78 551.13 477.94 544.45 477.88 540.9 476.6 536.74 467.19 527.9 466.28 525.52 467.27 520.31 465.95 515.45 463.02 502.12 458.68 497.02 449.36 490.19 431.6 482.66 422.76 479.58 413.53 472.46 410.13 468.67 402.47 456.24 394.12 442.24 389.42 434.85 387.24 430.62 381.99 421.61 377.05 415.34 372.78 412.62 354.09 403.75 353.74 407.81 349.73 427.1 345.87 447.19 338.68 451.92 336.42 462.29 316.51 451.61 306.69 446.54 302.48 443.95 297.58 442.27 294.16 441.79 288.37 440.04 276.33 440.01 271.77 439.12 256.78 432.22 181.58 424.7 35.09 439.25 1 442.63 2.2 437.27 1.66 434.17 4.06 425.81 6.3 421.55 9.09 418.84 9.71 413.49 7.39 410.09 7.7 404.2 6.77 400.33 5.68 398.7 3.75 389.18 4.29 387.4 8.24 383.37 10.57 377.1 10.49 374.85 8.63 372.99 8.55 369.51 7.08 367.26 7.88 362.9 10.1 359.98 11.03 357.5 15.99 350.77 19.84 348.17 22.88 347.36 26.76 344.49 30.01 340.93 36.4 336.47 38.39 335.68 45.04 334.89 46.07 333.88 46.51 329.7 48.14 326.61 48.14 323.35 46.97 319.09 46.82 313.9 54.95 311.03 57.91 309.19 61.16 304.29 65.21 300.46 68.86 296.14 68.33 292.5 65.78 290.27 56.04 293.35 54.64 295.05 51.11 295.55 46.76 295.14 45.35 294.37 46.59 288.12 49.76 286.72 49.92 284.25 52.47 283.09 52.94 280.46 51.7 277.28 55.65 274.73 59.75 272.71 61.14 271.32 67.96 261.49 68.89 256.86 68.65 252.67 66.72 248.26 66.64 242.84 64.32 238.58 63.62 230.3 61.99 227.67 63.39 223.88 67.8 214.28 66.57 211.05 67.88 207.39 71.52 206.54 76.6 203.55 81.5 202.05 83.05 198.88 86.31 196.63 84.68 193.69 83.9 188.35 82.43 185.02 79.03 181.28 76.24 179.14 77.48 176.82 78.29 172.52 80.57 167.3 84.13 164.58 85.65 159.02 89.36 152.21 89.83 149.04 89.13 145.33 89.05 139.99 87.81 136.82 88.35 133.96 91.14 129.78 90.52 124.13 84.64 115.85 84.33 111.14 83.4 108.74 77.75 107.34 79.07 102.16 84.64 96.82 86.65 96.75 91.84 100.54 93.93 100.23 97.1 95.04 101.12 94.74 103.21 93.19 104.17 90.68 104.47 87.99 107.46 82.07 110.4 79.75 111.87 76.73 115.74 73.56 114.65 69.54 115.2 67.07 120.3 64.13 122.08 61.73 123.78 55.78 126.57 53.22 130.9 51.91 136.55 52.84 139.64 52.14 141.42 48.35 144.67 44.1 153.49 39.15 155.97 38.22 164.79 38.68 168.11 38.53 173.68 37.45 175.31 39.22 179.18 38.45 187.22 38.22 192.79 35.98 197.2 37.83 201.92 36.52 203.8 34.21 209.35 33.35 213.68 33.96 222.35 33.66 225.83 34.89 229.85 38.56 232.81 37.7 237.08 30.78 242.77 22.52 246.1 23.21 249.89 21.13 251.9 18.42 253.21 14.01 257.55 14.01 262.34 15.56 265.13 20.12 271.08 20.74 275.73 21.82 281.06 21.05 286.64 21.98 288.65 23.52 294 23.41 298.01 25.53 302.96 26.28 305.43 30.18 305.74 33.42 305.43 40.31 304.51 45.64 300.87 50.44 299.86 56.16 300.48 59.72 302.88 62.35 305.05 68.92 307.69 74.77 308.76 80.37 311.93 83.85 316.95 84.73 318.98 86.24 321.91 91.89 326.4 96.22 330.81 106.74 334.21 108.75 338.08 108.52 339.86 107.13 339.47 104.96 344.12 97.54 348.45 97.46 350.69 96.22 352.09 92.9 354.25 90.27 356.26 89.11 356.57 84.93 355.03 82.69 355.8 78.44 357.66 74.34 358.88 70.18 362.72 66.27 366.4 65.08 369.68 65.63 374.22 68.98 383.56 74.52 386.21 76.92 387.05 82.3 389.68 87.49 393.32 90.35 398.12 90.73 400.36 92.74 400.01 101.03 400.61 104.59 402.57 109.36 404.69 113.09 408.73 115.54 411.49 119.79 413.08 119.38 418.13 116.34 422.08 115.25 430.08 108.78 433.27 108.81 436.49 115.81 471.4 94.31 477.49 94.87 495.03 84.29 497.53 82.43 503.75 74.11 503.22 68.14 510.57 62.13 516.39 59.02 519.62 58.17 534.21 56.9 547.7 53.93 592.38 45.01 628.83 34.08 656.53 28.86 697.69 19.04 723.1 10.64 742.47 6.3 754.7 3.36 759.88 1.89 764.95 1 765.19 2.83 755.86 42 759.03 61.49 763.63 74.67 767.06 88.22 771.24 100.01 778.51 110.35 782.47 112.38 788.51 119.6 797.72 128.86 799 133.73 796.77 138.93 794.31 142.63 789.49 146.03 781.61 152.63 764.28 166.2 720.25 199 701.2 214.52 691.22 223.6 690.27 225.01 682.93 229.68 670.82 240.01 662.46 250.44 660.63 252.23 657.07 259.36 654.99 261.22 647.39 275.55 648.58 279.69 652.16 279.42 650.77 282.54 652.71 285.85 641.59 309.3 629.56 324.57 630.68 326.89 631.2 333.59 631.73 352.7 634.8 354.73 637.4 358.63 637.09 367.06 635.74 369.85 636.12 373.73 633.17 377.66 632.09 380.22 629.24 389.64 623.91 397.94 613.61 416.13 608.12 429.43 603.28 439.57 598.15 456.07 597.23 467.6 599.39 476.99 606.65 490.99 620.22 516 631.83 527.31 652.86 539.51 664.8 548.02 683.47 564.83 683.23 570.68 680.8 581.73 678.36 589.85 663.84 609.59 661.2 616.07 652.79 631.04 648.36 641.26 645.79 655 Z"/>
</g>
</svg>