<?xml version="1.0"?>
<svg xmlns="http://www.w3.org/2000/svg" version="1.2" baseProfile="tiny" width="800" height="1120" viewBox="0 0 800 1120" stroke-linecap="round" stroke-linejoin="round">
<g id="4216305">
<path d="M 392.74 6.48 393.16 8.39 391.46 12.03 391.3 14.94 395.15 19.71 403.63 22.52 406.94 25.36 415.86 29.58 419.35 26.94 424.78 25.73 430.85 25.66 437.92 23.79 441.32 24.73 445.04 29.65 446.87 29.57 451.08 25.55 457.2 25.43 461.2 25.9 465.71 27.84 474.06 33.76 478.41 33.34 485.26 34.1 488.03 35.83 491.99 39.61 495.71 41.45 498.82 41.07 501.64 42.61 506.67 42.38 515.55 47.33 519.31 50.41 521.92 54.29 524.45 55.16 531.51 53.99 533.44 55.3 536.57 59.77 541.87 65.24 549.05 67.29 549.17 73.56 547.47 77.48 551.15 87.45 551.59 91.15 550.24 95.19 555.39 99.97 557.92 101.33 562.36 99.83 574.55 100.16 576.35 100.6 583.15 107.43 582.21 113.29 583.87 117.23 588.48 119.54 589.51 124.58 593.45 128.19 596.87 128.74 601.31 131.85 602.34 139.23 609.6 147.27 616.01 148.07 618.78 149.81 623.93 151.67 624.88 155.19 622.23 159.58 623.27 161.94 628.59 162.06 640.08 156.61 643.47 154.62 646.32 154.19 648.69 156.88 654.13 160.68 657.15 163.84 658.47 166.42 660.07 172.26 659.08 176.9 656.61 181.48 657.82 186.11 655.46 189.22 655.5 191.64 657.85 192.13 658.94 197.65 655.74 201.17 652.99 201.77 648.57 205.21 646.93 210.65 644.01 212.29 640.24 217.24 644.46 222.45 642.95 233.58 647.51 235.96 652.47 237.77 654.59 239.39 658.49 244.63 661.87 247.71 666.33 254.93 663.32 257.67 662.89 263.69 660.48 268.64 664.01 275.24 666.81 282.99 671.33 286.59 677.57 288.36 685.44 285.86 703.58 283.88 710.1 284.81 714.6 286.08 721.69 289.74 724.07 291.99 725.41 294.81 725.31 297.16 722.68 305.59 722.69 309.25 726.57 313.18 730.47 313.6 734.95 311.23 739.72 304.74 741.03 300.13 742.36 289.83 744.08 285.69 749.75 281.99 753.3 281.43 757.69 282.1 763.67 285.35 770.36 292.09 775.08 293.87 780.75 293.58 788.06 290.19 792.5 289.79 796.68 291.11 798.51 293.42 799 297.7 798.24 305.2 792.27 306.57 788.69 306.64 786.69 308.31 784.21 306.45 779.79 314.64 779.37 318.34 774.57 323.94 771.73 324.17 771.85 326.73 769.95 328.86 766.34 330.74 763.36 334.27 761.65 338.25 758.82 338.07 758.42 340.68 754.9 342.8 755.95 347.28 758.31 349.43 759.2 352.21 756.6 353.35 753.43 357.2 751.78 360.24 749.49 361.1 751.81 365.48 750.41 367.13 752.18 370.98 751.26 373.54 746.76 377.28 747.6 380.15 741.68 382.61 743.47 386.89 742.22 391.55 739.54 391.66 737.83 393.46 742.03 401.43 745.5 406.03 744.89 410.92 745.83 415.41 743.18 415.34 743.44 420.05 741.42 420.68 743.54 424.17 743.59 426.64 738.47 427.96 734.01 432.49 729.5 431.54 728.49 433.87 726.91 440.72 724.89 446.09 722.7 448.72 719.38 451.13 718.87 453.85 719.65 456.62 718.5 460.18 718.43 463.31 720.94 467.77 724.77 469.51 728.97 468.54 731.4 469.44 733.25 472.71 736.53 476.52 735.64 481.7 736.85 484.76 739.04 486.72 743.86 489.1 745.23 491.51 745.58 495.87 748.08 500.68 750.72 503.85 750.44 508.3 749.42 511.28 754.16 514.34 753.3 528.01 752.41 531.14 753.82 535.07 753.05 541.48 749.02 545.47 747.07 553.09 743.94 556.34 740.14 556.62 736.57 558.79 733.99 561.39 729.28 564.62 724.65 570.9 722.92 578.09 719.87 583.08 719.6 588.39 726.3 596.53 725.57 604.52 729.62 613.28 733.48 618.57 734.36 622.96 736.66 628.45 741.78 631.35 744.1 636.21 744.43 643.26 743.5 645.47 738.92 650.88 738.4 652.29 738.06 665.41 738.96 672.68 738.65 675.32 736.11 678.97 733.64 680.7 727.41 683.44 723.39 690.07 720.78 692.44 714.87 696.33 712.46 700.43 713.09 704.04 719.46 708.9 722.16 711.82 719.31 714.76 719.91 717.89 713.65 719.26 711.94 724.06 708.95 728.64 709.72 732.96 708.25 737.09 705.93 738.47 704.03 742.87 698.36 745.65 691.26 750.38 686.96 751.63 679.02 762.91 670.91 767.82 669.97 769.14 669.25 776.56 669.36 783.21 666.19 787.67 665.7 793.05 664.35 795.17 660.59 797.97 656.29 800.03 652.11 797.48 644.83 805.75 637.97 814.5 636.31 815.73 636.24 818.58 639.1 820.44 643.46 826.01 643.31 830.72 639.52 833.39 636.09 837.5 635.7 843.36 632.5 847.67 631.84 854.2 632.16 856.61 628.9 859.72 622.85 863.88 619.02 863.45 612.34 866.85 610.67 870.39 596.71 875.07 595.29 876.18 590.27 877.51 586.2 879.69 582.47 885.38 580.36 887.39 577.42 886.6 572.41 887.24 568.6 888.4 563.14 887.87 559.01 891.12 554.08 893.67 552.91 895.47 552.66 898.74 551.18 901.48 546.63 906.25 548.38 909.71 543.99 917.01 540.37 921.73 540.12 923.47 537.11 927.15 532.28 929.05 527.81 932.98 525.26 934.31 524.7 939.7 523.37 942.71 520.79 944.78 518.39 950.41 512.68 956.99 508.71 960.77 509.18 964.68 511.3 965.45 511.64 967.74 508.62 972.45 506.41 973.72 502.59 971.31 498.89 970.46 496.71 971.76 493.57 975.76 489.81 976.88 486.73 978.78 482.92 982.86 480.18 984.14 476.97 984.23 475.41 985.68 471.79 993.55 468.71 995.41 463.24 993.84 460.6 997.22 460.1 1002.94 457.57 1008.1 453.44 1011.91 453.04 1013.63 454.63 1019.51 447.23 1025.54 446.32 1029.18 447.22 1033.39 446.25 1035.66 440.22 1039.38 436.31 1044.67 428.83 1048.1 426.65 1050.24 426.58 1054.22 418.24 1059.62 414.52 1060 410.94 1062.7 413.13 1066.32 413.38 1068.72 411.92 1072.19 404.44 1074.03 401.74 1077.69 396.39 1079.02 388.76 1084.17 386.84 1088.39 381.81 1089.6 380.08 1092.25 381.12 1097.13 379.58 1103.28 377.05 1108.41 371.55 1112.27 367.13 1118.09 364.52 1119 361.07 1118.84 358.54 1117.54 357.51 1115.6 358.19 1111.6 356.05 1103.84 353.97 1100.1 351.3 1098.48 349.24 1098.6 345.86 1102.56 343.85 1102.93 340.02 1098.61 335.41 1098 332.41 1093.68 329.06 1087.31 326.51 1085.77 323.14 1081.9 314.24 1082.23 303.94 1087.61 298.49 1090.05 302.37 1083.37 304.02 1074.08 305.29 1071.34 301.77 1070.75 294.74 1070.67 291.42 1071.32 284.56 1068.34 277.49 1067.91 268.52 1066.01 258.06 1065.72 250.37 1063.99 244.19 1065.22 235.14 1061.76 229.34 1060.25 225.7 1057.95 218.82 1059.14 212.4 1058.72 205.46 1063.08 201.59 1063.23 197.91 1058.36 194.19 1056.18 189.05 1051.83 183.87 1049.1 172.79 1035.6 169.75 1027.8 169.98 1022.25 172.85 1019.5 174.06 1014.99 177.98 1010.48 182.17 1001.03 183.56 996.32 185.49 987 185.25 979.73 186.9 976.53 197.3 963.41 194.33 957.92 196.9 951.03 195.43 946.26 194.77 940.79 195.56 938.87 197.91 938.4 197.73 936.26 194.5 932.75 193.16 929.72 193.23 924.97 191.51 921 191.31 915.65 195.82 905.63 194.6 904.49 190.07 903.5 189.24 898.83 187.99 896.71 184.3 893.62 183.44 887.65 185.08 877.63 190.01 871.58 190.43 869.39 192.8 866.3 196.14 859.31 196.66 857.05 195.91 851.15 196.26 849.44 201.96 846.68 207.36 839.93 211.58 839.3 212.13 837.59 211.36 832.99 213.13 827.83 177.85 793.35 132.23 753.99 124.85 752.78 121.02 753.84 115.95 754.26 105.3 757.36 102.65 757.4 94.36 753.74 91.39 750.76 89.55 746.71 85.22 744.4 85.93 741.03 89.35 737.3 87.41 730.94 89.82 724.53 90.18 717.47 87.83 709.18 82.82 704.02 79 698.36 78.48 694.74 75.49 690.03 67.81 685.67 60.34 684.2 56.56 681.33 53.2 681.03 43.58 679.02 35.98 679.09 30.77 676.69 25.89 672.51 23.01 666.37 19.36 661.86 16.11 656.49 13.09 653.74 11.11 644.84 9.49 642.43 10.87 637.37 9.68 632.61 14.46 628.72 13.11 624.32 5.5 614.86 1 611.4 4.37 603.35 6.87 601.14 7.31 599.35 10.84 595.21 14.15 592.37 16.02 587.63 20.14 582.24 21.1 576.58 24.03 573.81 24.17 566.67 27.73 563.08 34.36 562.27 40.97 563.08 45.1 562.86 53.43 559.55 59.3 561.72 63.06 562.2 71.37 558.47 80.12 557.18 88.88 564.76 93.26 566.58 100.78 567.44 102.9 566.71 105.59 564.2 111.93 561.54 117.28 555.34 119.94 547.3 125.56 544.88 128.93 545.51 130.22 542.93 127.97 539.69 126.58 536.19 127.34 533.07 126.4 530.64 128.76 527.89 144.53 524.22 147.83 522.02 158.45 516.92 164.74 512.43 163.99 503.57 172.11 501.27 173.76 497.34 178.1 492.78 186.14 491.05 191.71 486.52 195.61 485.72 199.46 484.05 202.47 481.5 205 477.35 206.39 472.63 211.75 463.28 212.43 460.63 216.35 458.19 219.66 453.45 219.5 449.79 221.47 446.03 225.01 444.2 230.12 444.21 231.86 447.72 236.3 453.11 238.3 454 242.99 454.36 247.46 452.89 253.58 453.46 256.05 454.53 259.39 452.1 264.44 447.32 272.18 442.5 276.31 441.23 282.47 442.11 294.15 445.41 300 448.55 306.3 445.52 305.68 439.84 302.5 429.58 301.82 424.9 302.67 418.97 302.61 415.36 300.02 410.48 301.31 405.59 300.46 400.33 303.2 390.59 304.89 386.37 305.89 379.67 308.01 376.55 306.38 373.79 303.76 372.34 300.49 368.94 299.17 365.94 282.01 315.33 229.28 159.74 232.76 158.8 237.72 155.15 248.97 153.52 253.29 153.79 258.84 152.5 272.9 144.36 280.73 138.78 283.3 137.53 284.67 134.47 288.86 132.55 298.26 126.5 298.45 119.44 301.03 117.56 302.01 113.92 304.09 110.54 303.1 107.2 303.62 104.91 302.33 102.21 306.49 96.88 308.59 95.68 311.26 92.47 313.06 88.62 314.78 83.13 315.82 81.79 320.33 85.16 323.31 86.47 325.13 88.94 326.92 87.03 330.91 90.44 333.93 90.55 339.63 87.88 345.05 88.56 344.11 80.27 342.35 75.07 340.23 66.3 342.43 63.41 341.27 57.82 338.32 58.86 333.24 58.28 331.9 55.9 335.06 53.19 336.42 46.4 338.15 44.46 338.3 38.9 341.44 35.35 341.61 32.43 343.74 29.05 350.76 23.38 356 20.16 359.33 18.92 360.08 15.38 365.37 9.44 369.24 6.25 370.81 3.06 373.87 1 381.28 4.33 385.3 6.69 392.74 6.48 Z"/>
</g>
</svg>