<?xml version="1.0"?>
<svg xmlns="http://www.w3.org/2000/svg" version="1.2" baseProfile="tiny" width="800" height="903" viewBox="0 0 800 903" stroke-linecap="round" stroke-linejoin="round">
<g id="4216909">
<path d="M 747.89 35.33 747.58 39.84 748.75 41.46 749.1 43.69 751.17 47.06 753.08 49.01 754.55 53.56 754.67 56.58 753.86 59.95 749.33 65.17 737.37 83.99 735.86 88.41 733.63 91.41 730.57 99.14 726.38 101.95 723.27 102.95 720.33 105.77 719.28 108.02 717.79 109.17 715.91 111.87 713.87 112.34 709.39 117.5 709.15 120.45 705.72 125.75 702.79 127 700.82 128.68 701.36 132.54 699.42 133.53 697.7 137.2 698.82 138.7 701.56 139.07 702.85 140.02 704.47 143.94 707.98 144.4 708.25 145.86 711.27 151.37 714.82 151.76 717.12 153.24 716.91 155.23 719.15 156.29 719.66 158.21 717.82 159.52 718.14 160.78 720.79 163.69 722.79 164.07 723.95 165.53 729.06 168.3 730.6 171.4 730.73 173.82 732.43 174.29 733.58 175.76 735.04 175.47 736.68 176.39 736.12 177.65 738.63 179.17 741.71 181.75 743.31 181.64 747.87 183.65 749.27 187.03 751.28 186.78 754.99 189.52 756.47 191.94 756.18 196.4 757.58 198.86 756.06 201.38 757.06 203.13 756.4 204.6 754.07 206.6 755.19 208.12 755.45 210.46 754.91 211.92 752.07 214.73 750.97 217.8 748.61 219.47 745.01 220.6 746.85 228.41 748.29 231.19 747.16 231.93 744.74 231.93 741.12 229.6 730.84 228.08 728.87 228.54 725.81 228.08 719.48 231.4 718.9 232.23 721.4 239.53 723.16 241.63 730.97 244.8 733.2 246.14 734.22 247.73 734.93 250.67 736.55 254.44 735.56 257.18 735.66 259.31 738.92 259.01 743.79 255.46 744.82 251.91 746.86 250.46 748.77 247.69 750.37 242.99 753 243.27 760.99 246.68 764.82 250.49 764.9 251.52 762.39 254.33 763.56 259.48 765.04 261.95 764.47 262.9 759.07 262.57 757.08 262.15 754.75 260.39 751.49 260.93 750.56 262.61 750.53 266.13 749.93 267.55 746.35 269.79 746.5 270.6 750.44 274.31 755.96 274.37 758.43 275.85 757.8 281.14 757.88 283.76 757.06 286.32 755.24 287.21 751.25 287.38 749.47 288.97 748.95 290.53 750.36 291.42 749.75 297.31 747.45 301.04 742.15 304.58 740.15 304.46 736.15 301.51 734.21 301.6 731.59 306.22 732.63 308.17 740.65 308.39 743.31 310.25 745.55 318.81 745.56 320.62 746.63 321.91 750.07 319.86 753.1 320.66 754.09 319.84 753.73 314.35 757.84 311.45 759.32 309.15 761.8 310.62 765.48 315.71 765.34 319.98 764.33 321.92 764.42 323.82 765.58 326.63 764.98 327.95 763.32 328.44 761.8 330.76 761.82 334.66 762.91 335.2 774.77 335.92 775.65 334.16 782.92 332.86 782.92 331.2 784.06 330.13 787.57 329.41 789.87 330.33 789.87 334.69 792 337.33 791.4 340.51 789.08 343.6 788.95 346.57 793.57 347.68 797.83 349.24 799 354.07 798.78 357.27 796.11 359.56 792.96 358.7 792.55 357.98 788.94 356.97 779.91 357.97 777.46 358.78 774.75 360.87 769.97 363.15 767.01 363.52 762.87 360 760.46 358.49 757.04 355.2 755.16 355 752.9 356.01 749.72 359.7 748.58 362.91 746.47 365.54 744.95 369.27 744.76 371.03 745.86 373.1 750.35 376.78 755.14 381.48 756.67 383.41 756.64 385.04 754.09 386.66 741.58 386.28 738.15 387.73 737.85 388.85 740.33 390.35 743.46 393.22 742.01 394.97 736.6 395.03 730.18 394.44 727.69 393.59 724.12 393.33 724.46 395.8 726.22 398.26 728.5 400.06 734.46 402.69 735.83 402.55 740.59 405 746.35 406.92 749.39 409.15 753.08 410.03 755.02 408.55 758.75 402.93 761.26 398.05 763.14 396.94 766.79 396.7 768.37 397.1 772.53 396.95 774.39 397.41 772.97 402.98 771.85 403.93 771.38 405.87 766.61 410.76 766.36 414.32 765.31 415.92 762.72 416.57 756.99 421.9 755.56 425.07 754.82 429.6 752.19 430.63 744.18 432.56 739.87 434.32 736.16 437.18 733.96 437.31 729.45 429.66 725.79 426.74 724.02 423.42 723.91 417.4 725.1 414.14 724.68 413.03 721.56 410.95 716.49 410.34 710.83 408.7 706.93 406.71 704.68 404.38 703.49 402.22 702.2 396.62 699.42 391.51 698.26 388.51 692.69 388.54 684.05 387.15 681.57 386.19 677.51 383.42 672.23 382.41 668.94 381.3 667.75 379.93 667.31 377.85 664.37 373.22 665 368.64 664.71 367.64 661.54 366.24 659.84 364.79 655.93 364.17 655.44 362.29 654.1 360.9 650.19 360.88 635.03 354.67 632.94 352.96 631.87 350.42 632.01 349.1 629.58 345.17 628.5 342.57 628 339.3 626.49 338 619.32 335.42 616.1 332.36 614.16 331.77 608.06 331.46 600.57 332.9 597.83 331.46 591.8 329.66 585.4 326.69 582 323.84 580.09 319.49 579.51 315.64 577.72 313.1 574.61 310.96 573.99 309.6 573.95 305.79 573.32 305.29 566.32 302.53 560.2 300.75 557.47 299.18 555.32 298.76 548.52 299.98 543.96 302.57 542.5 302 542.19 300.29 543.69 296.85 542.78 294.55 541.65 293.7 537.98 292.93 533.91 290.54 530.72 289.89 526.65 287.78 523.94 284.81 520.02 283.28 517.93 280.21 517.53 278.06 517.94 275.09 516.96 271.78 515.14 270.37 508.87 269.91 505.8 270.96 503.98 269.99 501.52 270.11 501.79 266.51 498.43 260.74 496.01 257.76 494.21 256.45 487.98 253.93 485.94 249.79 483.71 243.34 481.05 240.73 477.76 238.97 474.35 238.71 471.79 236.08 469.25 234.5 466.56 232.2 463.36 228.87 459.41 226.16 453.44 222.9 447.46 219.04 443.59 218.31 435.04 217.37 433.21 219.32 431.32 226.19 427.56 227.27 422.63 230.15 422 231.93 424.15 239.99 423.44 241.87 420.45 246.73 418.56 247.72 414.32 248.85 409.75 252.29 390.2 240.61 389.49 243.49 387.99 246.37 388.17 247.93 385.18 252.35 384.66 255.9 381.79 260.27 379.22 262.06 376.65 265.14 375.05 265.38 374.86 267.09 372.87 267.27 372.72 269.24 370.22 270.15 369.25 269.64 366.93 271.11 361.68 272.92 359.38 271.18 358.17 271.17 361.13 305.47 364.34 305.55 366.98 306.22 371.03 306.09 375.78 307.76 377.98 309.27 381.28 313.28 382.51 316.53 388.31 320.57 391.75 322.48 392.08 326.51 389.05 329.41 387.56 331.73 387.19 333.39 388.01 336.4 386.44 339.48 382.73 343.91 379.5 349.3 377.69 351.73 373.01 352.33 368.29 353.66 367.39 354.45 363.88 355.68 358.92 386.16 355.65 392.14 352.32 401.64 352.14 403.7 352.82 405.12 353.88 410.55 352.26 413.39 352.29 415.25 353.24 416.65 351.95 419.26 353.28 423.34 352.97 424.93 353.5 427.71 353.23 430.81 351.46 434.73 349.07 436.95 347.96 438.82 347.47 442.04 345.93 444.78 342.55 448.88 340.5 450.72 337.83 455.9 337.86 459.83 338.29 461.69 335.84 469.21 334.83 470.23 333.33 474.45 331.64 476.68 329.66 477.56 329.53 479.59 330.7 481.11 329.36 484.81 326.85 486.44 328.16 487.76 328.29 493.3 329.84 499.78 328.71 501.51 330.44 504.3 330.48 508.04 331.19 509.73 334.78 510.84 337.45 513.51 338.95 516.34 336.46 518.36 336.35 522.7 334.81 523.23 331.65 523.21 325.87 521.86 322.77 521.55 320.04 523.92 316.7 523.13 314.66 528.57 316.11 530.59 317.9 531.8 321.2 535.97 321.27 537.82 320.27 540.4 320.83 541.89 323.08 543.98 326.89 546.55 329.01 549.25 339.1 554.72 342.9 558.08 342.8 561.94 343.26 564.09 343.49 569.37 342.71 570.99 343.53 573.64 346.11 576.67 352.61 581.66 358.98 585.47 360.55 589.96 363.11 592.19 364.69 594.48 365.31 597.55 365.72 607.34 364.67 609.98 365.14 611.91 362.52 619.27 362.15 624.18 363.76 629.95 367.62 635.76 370.08 641.86 372.59 646.2 373.38 651.11 376.42 650.22 378.15 648.05 386.97 645.61 393.38 642.04 400.36 639.86 401.25 637.7 400.45 633.61 401.05 632.52 407.08 631.04 410.44 632.38 413 631.64 414.73 628.23 417.3 626.03 421.51 625.92 427.56 625.32 431.4 624.2 432.12 622.7 431.04 618.56 429.52 614.32 430.18 611.99 433.14 606.89 434.63 605.65 439.61 605.53 447.44 606.83 449.76 608.08 452.7 607.05 453.95 604.95 455.28 604.05 456.6 599.7 458.14 596.72 458.09 595.17 456.64 591.81 456.2 589.52 459.35 582.99 461.53 580.62 463.88 579.29 464.13 577.16 463.28 575.39 460.6 572.7 460.82 571.07 463.34 565.58 463.76 561.96 553.11 546.09 614.38 535.21 612.58 539.57 611.84 542.62 612.18 544.57 614.11 550.67 615.75 552.91 618.54 553.42 627.2 552.98 628.91 553.31 632.25 555.22 639.97 557.7 644.04 557.89 650.04 559.51 653.85 560.93 660.99 565.51 664.71 568.24 668.9 571.87 672.14 573.68 676.11 576.92 677.5 576.72 679.02 572.7 680.71 571.29 683.25 574.48 685.16 575.06 687.12 576.57 688.98 579.15 690.96 580.81 691.95 582.68 694.96 585.34 696.18 588.08 696.82 592.51 696.62 596.4 697.2 600.63 697.08 605.57 645.82 624.46 644.04 628.82 641.63 631.9 637.6 633.46 634.7 635.2 634.42 637.74 635.35 640.32 634.71 642.84 635.85 649.14 634.89 651.47 634.92 653.66 637.94 660.71 638.25 662.09 640.1 664 640.77 665.65 640.88 669.81 639.95 674.43 638.56 677.86 636.03 681.75 634.19 683 631.93 687.19 633.01 689.71 635.87 689.76 640.41 690.41 645.89 692.86 647.71 693.23 651.09 694.85 654.33 693.91 657.28 694.58 658.51 696.06 657.54 699.43 657.79 702.22 660.8 708.85 661.47 709.76 664.62 710.93 667.83 712.72 669.08 714.73 669.14 718.13 671.77 721.1 673.13 725.44 674.22 726.31 678.99 727.25 682.9 728.57 688.55 727.94 690.79 729.07 691.48 731.16 693.3 731.61 697.23 731.2 701.26 732.24 704.63 730.66 708.4 728.11 710.78 728.36 712.44 729.93 715.68 731.41 720.11 731.11 724.5 729.32 727.58 729.35 729.52 731.47 729.94 734.43 731.79 738.06 735.17 739.13 736.57 740.52 736.45 742.76 733.85 745.28 733.73 751.26 732.24 753.88 730.64 757.87 729.15 758.55 726.53 758.53 724.14 759.76 721.75 762.44 718.11 768.73 716.85 770.44 716.33 773.24 710.08 781.12 708.84 783.48 710.77 785.36 711.01 790.15 710.34 795.54 711.1 798.05 710.82 801.7 713.51 803.46 716.26 806.18 716.92 807.82 717.58 812.6 719.55 821.32 721.24 823.75 724.85 825.56 726.81 827.69 729.67 834.06 733.02 836.67 734.48 842.39 737.32 846.01 736.72 852.56 737.6 854.39 741.87 856.5 743.61 859.51 744.33 863.31 745.83 865.03 748.45 866.33 753.3 868.02 756.16 871.69 718.2 875.69 600.63 885.37 527.14 891.29 506.64 892.68 472.31 894.68 407.29 898.48 337.08 902 337.76 899.19 335.69 896.76 333.86 890.6 329.6 888.75 326.06 885.13 323.23 883.6 321.97 882.34 323.06 878.76 322.77 875.8 318.73 875.02 316.31 875.84 308.57 876.52 307.28 875.62 303.94 875.53 300.76 876.32 298.85 877.69 295.94 878.58 294.27 880.66 290.16 882.43 286.82 882.17 284.78 880.79 282.67 877.2 278.05 874.69 271.81 870.05 270.53 867.59 269.26 867.51 264.65 863.05 264.09 860.96 262.37 859.5 259.43 858.62 257.4 856.66 253.42 855.01 250.77 852.52 249.89 853.88 246.46 857 243.55 854.48 241.76 854.87 237.46 854.46 232.93 853.17 231.82 853.49 228.63 856.42 225.19 858.08 218.39 859.12 215.19 857.37 213.48 857.12 211.01 858.05 207.92 857.17 202.84 856.69 199.8 855.98 198.58 858.18 197.68 861.87 196.14 862.29 194.57 861.07 191.29 859.63 189.86 856.65 188.5 855.89 188.5 853.11 187.46 852.58 183.8 852.5 181.73 853.17 178.04 852.88 173.27 849.23 172.15 848.93 170.06 850.07 168.14 849.83 167 850.7 163.28 851.72 163.31 848.94 164.32 841.53 163.79 836.85 162.35 832.5 162.41 830.71 161.08 829.09 156.8 822.58 152.1 821.43 143.34 821.5 135.66 822.21 131.91 821.62 129.07 820.69 125.79 818.87 120.48 816.48 115.68 813.83 108.55 812.82 103.08 811.39 96.85 809.23 92 810.32 90.68 809.45 88.89 805.68 89.1 802.95 91.17 798.07 92.35 796.88 95.47 796.21 98.99 796.9 101.97 796.85 106.23 799.17 115.45 801.66 119.54 801.35 122.63 799.4 123.31 795.57 127.03 789.79 129.75 787.17 135.16 784.28 145.39 781.64 149.71 780.77 152.1 781.23 160.78 783.9 163.99 784.36 168.02 783.7 170.51 783.71 173.3 782.73 177.23 780.79 179.39 778.64 180.74 773.86 179.73 769.59 176.12 768.43 174.52 769.57 168.59 772.48 165.28 774.69 161.91 775.71 158.86 774.07 158.37 770.71 159.91 764.4 160.42 759.9 161.08 757.44 160.69 755.98 158.71 752.93 155.72 750.81 150.49 748.55 144.85 745.29 141.87 742.26 140.7 738.78 142.4 730.17 143.83 726.29 141.83 721.25 142.23 719.28 143.89 715.7 145.3 714.56 150.37 712.67 151.59 713.31 152.55 716.23 154.01 717.32 156.66 717.49 158.22 716.73 162.65 713.01 165.37 709.95 165.2 707.76 162.65 704.71 156.69 700.1 154.49 698.14 151.94 693.82 149.37 690.94 147.73 690.32 143.44 689.89 133.89 691.88 131.08 692.06 126.92 690.48 124.55 688.67 122.91 685.42 121.62 681.24 120.4 678.93 117.99 676.26 114.09 673.93 112.52 670.37 108.66 666.19 102.64 662.46 99.63 659.92 96.26 657.77 89.56 650.2 88.37 647.56 88.58 645.13 90.38 644.28 92.96 644.9 95.36 646.69 99.8 647.55 101.96 651.49 104.92 654.68 107 656.3 110.9 658.28 112.29 656.36 110.89 651.5 109 647.54 109.34 644.63 112.48 641.79 119.7 642.05 123.73 643.46 125.17 644.63 127.42 648.4 131.93 650.82 133.42 649.54 133.03 647.31 131.57 644.22 129.34 640.54 128.33 636.2 128.88 634.45 135.19 627.38 138.03 625.12 139.42 623.11 139.97 618.56 141.07 613.1 142.79 607.51 144.27 605.24 147.13 602.92 149.38 602.66 152.19 607.84 152.72 614.65 153.58 619.56 153.6 622.67 156 624.6 165.38 628.11 171.7 629.24 173.37 628.7 174.6 627.04 174.46 621.53 173.11 620.23 168.54 618.59 166.25 618.28 164.25 616 161.91 611.22 160.73 606.31 159.52 604.6 160.79 597.09 166.06 586.06 168.03 582.58 172.24 578.11 173.6 578.45 176.85 583.31 178.87 584.83 181.93 583.89 185.02 574.88 188.82 569.65 192.66 566.97 194.19 567.59 195 569.89 195.01 576.27 195.57 579.67 197.02 581.53 199.28 582.9 204.47 584.55 212.36 584.46 213.63 583.94 215.05 581.81 215.84 578 219.08 573.64 221.31 569.07 222.79 567.98 225.92 566.95 226.24 565.49 223.78 562.95 218.85 559.77 217.59 559.87 211.14 561.79 207.22 562.33 203.5 562.42 199.15 562.01 196 560.57 193.73 556.61 194.69 554.69 196.89 553.42 199.02 553.43 207.91 549.02 207.19 546.77 204.64 545.49 203.79 544.29 199.99 542.24 194.85 541.66 192.88 542.45 189.17 542.46 184.42 540.21 181.61 537.77 181.66 536.17 184.3 535.34 186.75 531.8 190.34 528.88 190.27 528.14 187 527.03 182.92 523.99 180.46 523.06 177.64 521.06 174.68 520.3 173.18 518.74 169.93 517.36 169.09 514.91 167.22 512.65 166.46 510.14 164.44 507.95 161.04 505.86 156.09 498.37 154.25 494.88 154.46 492.26 151.95 480.88 150.62 477.03 147.2 472.39 142.57 468.58 140.63 466.38 140.02 463.07 137.01 461.98 134.77 460.6 133.02 457.73 129.9 455.86 130.95 453.7 132.56 452.24 133.9 448.86 134.29 445.94 136.35 440.51 137.26 436.01 136.65 431.71 137.93 428.5 141.71 423.12 143.76 420.86 147.24 418.69 147.09 416.34 144.86 413.89 141.82 409.05 140.73 406.45 141.89 401.47 141.16 397.99 142.47 394.04 144.86 391.16 145.76 388.96 145.91 386.35 144 383.96 135.88 379 125.71 374.05 123.05 372 121.13 369.12 120.11 365.89 120.32 362.73 121.33 360.53 121.33 355.35 89.71 357.36 66.06 358.25 48.39 359.73 39.36 360.24 36.62 357.13 36.64 354.32 40.9 353.31 40.93 351.48 36.81 345.23 35.47 345.23 34.69 346.99 34.18 351.68 30.36 354.86 20.93 359.02 15.05 353.82 13.16 349.43 13.23 348.27 14.68 346.15 19.34 344.68 17.93 340.94 15.19 338.02 11.12 337.19 10.06 334.77 8.35 326.75 8.61 322.83 9.25 320.83 9.85 316.45 9.34 312.56 4.71 312.63 1.46 311.65 1.19 309.78 1.56 302.21 3.24 299.69 1 295.85 4.73 295.2 6.88 295.83 8.15 291.89 10.72 292.36 12.69 290.87 13.66 288.24 16.67 285.75 19.08 285.68 22.44 286.82 24.37 285.46 24.74 282.9 20.1 278.04 19.68 276.57 20.15 274.01 21.39 272.79 22.2 269.38 24.89 269.06 26.56 267.17 28.81 265.82 30.57 263.75 29.2 261.55 28.7 259.45 25.04 255.98 25.16 253.64 27.11 252.22 27.35 249.72 29.17 249.82 30 248.56 28.34 246.16 30.17 243.49 29.18 241.23 29.76 240.14 32.76 238.64 33.03 235.37 31.52 233.83 26.84 232.48 24.72 231.08 24.83 228.2 27.49 227.03 31.87 223.67 29.76 222 28.38 219.88 29.76 218.16 33.68 219.19 34.3 216.69 32.73 213.24 33.16 210.94 34.58 209.79 35.12 206.09 34.03 203.1 34.45 201.31 34.32 197.76 35.17 197.3 38.19 198.58 41.65 198.82 43.91 198.4 47.27 195.17 49.83 194.74 50.8 193.91 52.49 190.37 52.77 188.78 54.42 186.26 57.42 186.38 56.3 181.36 58.47 174.77 60.78 173 61.39 171.34 60.65 167.48 61.67 166.12 60.47 165.01 60.5 162.8 61.45 160.82 63.26 160 66.39 160.13 67.56 159.02 66.78 154.76 69.1 152.69 67.81 149.7 70.1 147.21 69.82 145.04 65.52 142.84 67.52 140.61 65.88 137.12 65.86 134.58 68.3 132.57 68.44 130.36 66.81 127.63 69.11 124.06 71.54 123 73.53 120.51 76.22 119.14 79.87 116.66 81.42 116.11 81.38 114.21 82.52 113.63 86.77 109.56 89.91 108.98 92.65 107.82 94.24 105.58 95.64 105.34 97.44 103.06 99.05 103.07 102.29 101.04 105.11 100.14 106.99 98.86 108.72 96.65 109.88 93.25 113.16 87.38 116.99 84 118.65 80.34 118.91 77.94 121.07 74.65 122.82 67.92 120.45 68.98 120.5 66.36 125.89 65.6 126.27 62.52 127.51 61.05 129.6 60.17 133.26 59.62 138.6 57.88 143.28 58.55 147.81 58.73 156.97 62.67 163.01 60.96 178.36 46.93 185.71 43.9 195.41 42.51 205.07 43.91 218.91 49.98 226.64 57.17 233.45 60.54 266.42 61.06 283.44 60.26 304.69 56.68 321.05 56.98 348.65 62.17 348.35 60.06 348.15 53.34 349.04 51.13 351.23 50.72 354.57 52.09 361.76 53.15 367.55 51.99 371.84 52.49 374.91 52.48 376.39 51.82 379.99 45.69 381.24 44.2 383.48 43.56 389.46 41.06 397.33 37.25 404.88 30.11 411.73 22.56 415.27 20.23 416.69 18.83 422.56 14.25 425.47 12.26 430.63 10.02 446 2.47 450.93 6.06 452.36 6.47 454.2 9.24 456.56 9.02 458.64 10.46 463.03 18.21 473.42 15.81 473.81 13.06 473.51 10.17 481.83 11.44 486.33 11.19 492.31 6.16 509.98 5.17 525.37 1.26 548.26 1 570.06 3.39 585.26 9.47 601.47 10.08 627.66 14.62 640.28 28.01 646.83 29.97 669.77 14.7 674.48 14.36 687.37 20.48 696.77 14.43 702.64 14.97 720.74 25.61 739.07 30.69 745.32 35.72 747.89 35.33 Z"/>
</g>
</svg>