<?xml version="1.0"?>
<svg xmlns="http://www.w3.org/2000/svg" version="1.2" baseProfile="tiny" width="800" height="515" viewBox="0 0 800 515" stroke-linecap="round" stroke-linejoin="round">
<g id="4216800">
<path d="M 547.99 117.58 549.06 118.07 550.9 118.1 553.84 118.7 555.54 118.23 557.55 117.13 558.63 116.84 560.08 117.22 560.45 118.35 559.18 120.45 558.84 121.62 558.15 122.44 557.49 122.73 557.89 123.44 557.55 124.34 558.82 124.63 558.76 125.09 557.78 125.35 557.36 125.8 557.36 126.81 557.84 127.78 558.56 128 558.47 128.82 559.49 130.93 560.06 131.56 561.89 133.09 563.09 134.43 563.73 135.57 564.87 136.47 564.74 137.71 565.06 138.6 564.38 138.99 564.11 140.41 564.84 141.6 565.43 141.54 566.04 142.68 567.17 142.65 567.43 142.97 567.26 143.97 567.72 144.47 569.04 144.81 569.31 145.43 571.86 148.64 573.56 149.21 574.78 149.99 575.93 150.01 575.88 151 576.69 151.51 576.62 151.94 577.47 152.45 577.39 153.3 576.68 153.77 576.92 154.69 576.01 155.19 576.02 156.17 576.99 156.33 577.72 156.1 577.66 157.01 576.66 157.37 576.34 158.8 575.58 159.29 575.73 159.9 576.87 159.92 576.9 161.09 577.84 161.65 578.85 161.68 579.35 162.06 578.94 163.09 578.83 164.15 579.4 164.28 580.78 163.17 581.09 164.34 580.41 164.86 580.25 165.82 580.49 167.49 579.25 168.96 579.58 169.89 580.94 170.18 581 171.08 581.81 172.23 581.18 173.01 581.09 173.67 581.48 174.46 581.63 175.74 582.51 176.32 583.6 176.58 584.55 178.25 586.53 179.65 587.4 180.76 589.3 182.48 589.66 183.76 588.45 184.78 589.46 185.83 589.85 186.59 589.98 187.5 591.32 186.96 591.72 188.05 591.1 188.49 591.42 190.16 590.25 190.21 590.04 191.13 590.13 192.08 590.67 191.93 592.08 192.5 592.74 192.54 593 193.58 593.88 193.7 594.53 194.72 593.61 195.03 593.58 195.58 594.54 195.76 594.33 196.41 593.65 197.12 594.66 197.38 595.32 197.26 595.77 197.63 596.91 197.71 597.85 197.56 598 196.54 598.68 196.17 598.02 195.61 598.23 194.99 599.36 195.01 599.94 195.67 601.22 196.51 603.05 197.29 603.27 198.24 605.48 198.91 605.38 199.72 606.19 200.32 606.69 201.86 607.27 202.43 607.61 204.13 608.04 205.46 608.64 206.54 608.64 207.04 609.15 208.08 609.35 209.43 608.66 210.39 608.67 211.02 609.81 212.88 610.08 214.34 609.47 215.19 609.22 216.22 610.02 218.08 609.26 219.51 609.66 220.46 608.65 220.97 609.22 223.33 610.42 224.71 611.05 226.1 610.95 226.81 611.25 227.3 611.27 228.53 611.04 229.03 609.6 230.23 608.73 230.66 604.14 231.94 602 232.2 600.93 233.45 601.16 234.6 600.04 234.7 599.18 234.33 598.69 234.85 597.81 236.41 597.04 236.99 596.66 239.4 596.28 240.58 596.25 242.42 594.6 244.16 593.57 244.63 592.65 246.42 590.33 246.68 589.53 246.96 589.31 248.34 587.98 248.36 588.4 249.65 587.72 250.12 587.74 251.05 587.11 251.66 586.59 253.34 586.96 254.09 585.41 256.69 585.45 257.31 586.57 257.85 586.85 259.1 587.68 259.47 589.68 260.03 590.45 260.06 591.55 260.54 592.71 260.49 594.09 260.73 595.59 259.35 596.86 258.46 598 258.1 600.56 257.51 602.27 256.86 603.2 256.11 603.73 255.11 604.53 252.79 605.52 251.42 606.9 250 608.8 248.53 610.31 246.73 610.9 246.49 612.28 246.88 613.56 247.96 615.02 248.6 616.4 248.25 617.41 248.4 618.28 247.98 620.64 246.5 621.14 246.34 628.44 246.75 629.55 247.63 629.32 248.45 628.04 249.52 628.27 250.05 628.04 251.11 628.7 251.71 629.83 251.74 630.04 252.51 629.84 253.77 629.09 254.77 628.4 256.76 628.47 257.55 627.97 258.65 627.22 259.03 627.47 260.13 628.68 260.85 629.93 261.06 630.29 261.99 632.06 262.08 632.78 262.92 632.99 264 633.34 264.34 633.61 265.73 634.83 266.41 635.46 267.39 634.98 269.21 634.95 269.97 635.33 270.36 635.78 272.1 635.66 273.5 634.43 273.58 634.01 273.87 634.28 274.92 634.44 276.5 635.44 277.59 636.5 278.04 637.15 279.08 636.96 279.84 634.96 281.7 633.98 282.2 632.6 283.38 630.83 284.35 629.48 284.92 628.59 285.49 627.09 286.13 626.06 286.4 625.35 286.34 624.55 286.69 624.14 287.37 622.58 288.34 621.72 289.99 621.22 290.49 621.06 291.34 620.5 291.87 619.65 293.16 618.91 293.24 616.41 294.18 615.46 294.38 614.66 295.21 614.59 296.1 614.17 297.55 614.35 298.33 615.78 298.32 616.74 298.49 617.72 299.21 618.43 299.22 618.99 300.06 619.62 300.56 620.55 300.62 622.79 300.08 624.73 299.72 625.23 299.41 626.07 297.76 627.29 297.16 629.25 296.72 630.15 296.34 634.25 293.58 636.13 292.93 637.13 292.88 639.78 293.95 641.45 293.34 641.87 292.25 642.53 291.64 644.13 290.93 645.65 289.89 648.04 290.06 648.83 290.45 649.46 291.38 650.05 291.67 651.81 291.79 652.85 292.35 653.6 293.79 653.58 294.13 652.76 295.36 652.61 295.93 652.62 297.56 652.77 298.45 653.46 300.45 653.89 300.83 655.12 301.1 656.79 301.13 657.87 301.49 658.39 301.41 659.75 300.7 661.55 300.73 662.25 301.19 662.44 302.23 660.68 303.17 659.75 304.89 658.07 307.33 658.2 308.64 659.33 309.7 659.72 310.37 659.48 311.34 658.69 311.62 657.91 312.44 657.22 314.51 656.85 316.92 657.42 317.61 659.04 317.42 659.83 317.51 661.83 318.13 663.22 318.09 663.79 317.89 665.45 316.38 666.83 315.93 668.51 316.52 669.54 317.15 671.16 318.56 672.41 319.46 672.79 320.03 672.95 321.08 671.53 321.71 670.8 322.42 670.31 325.75 670.39 326.53 671.03 328.84 671.67 329.78 672.53 330.09 674.31 329.63 675.76 328.84 676.77 328.88 677.51 329.55 678.66 329.55 679.38 329.81 679.87 330.88 680.52 331.37 682.72 332.08 684.15 332.72 685.48 333.54 686.73 334.6 688.04 335.97 688.39 336.98 687.98 340.2 688.16 341.1 689.47 342.43 692.79 344.19 695.69 344.68 700.78 344.73 704.21 345.65 705.58 346.47 706.73 348.35 707.78 351.28 708.35 351.81 709.71 351.79 711.09 350.36 712.99 349.05 713.99 349.19 713.56 350.96 713.69 351.39 714.93 351.71 715.99 352.62 717.2 352.98 718.6 352.95 719.51 353.15 720.47 354.07 720.95 355.26 720.93 356.89 721.21 357.93 721.73 358.95 722.6 359.02 723.66 358.42 724.94 358.28 727.15 358.86 728.61 359.02 729.25 358.47 730.21 356.46 731.18 355.7 733.17 355.33 735.65 355.59 736.91 355.95 737.31 356.5 737.59 357.55 738.23 358.37 739.12 358.6 740.84 358.62 742.49 358.15 742.92 357.81 743.77 357.84 746.06 358.52 747.34 358.48 748.93 358.98 750.18 360.13 750.51 361.63 751.01 362.47 750.97 363.12 750.4 363.59 748.83 363.78 747.78 364.14 746.87 364.88 746.71 365.57 747.12 367.23 748.15 368.62 751.79 369.35 752.23 369.57 753.9 369.83 755.47 371.74 756.6 372.95 757.39 373.56 758.55 374.85 759.19 376.16 759.09 376.75 757.67 378.16 756.41 379.12 755.62 380.18 754.06 381.84 754.16 382.83 755.29 383.63 756.69 384.31 757.32 385.26 757.73 385.46 759.32 385.64 760.24 386.31 760.04 387.16 758.52 388.76 757.3 391.67 756.28 395.32 756.28 396.32 756.61 397.28 757.82 399.61 758.8 400.82 759.86 401.35 761.58 403.16 762.19 403.51 763.1 403.45 764.24 403.04 765.53 402.99 766.76 402.67 768.1 401.46 799 433.88 797.97 434.14 796.9 434.94 797.38 436.6 798.66 437.95 798.77 438.72 798.16 441.42 797.33 442.9 796.22 443.85 796.06 444.56 796.4 446.18 796.53 448.41 796.34 449.63 796.8 450.35 797.82 451.07 797.19 453.01 796.08 454.58 795.95 455.56 795.31 456.34 794.89 457.97 794.92 458.54 794.14 459.61 792.37 461.43 790.95 462.19 789.03 462.59 786.53 462.38 785.54 462.15 784.8 461.71 783.18 460.3 781.89 460.13 782.34 459.31 779.33 458.34 777.86 458.27 776.95 458.42 776.3 459.07 776.8 459.85 776.72 461.17 776.26 462.12 776.3 463 776.04 464.35 775.98 465.68 775.21 466.68 773.22 467.71 771.9 468.09 770.56 467.98 768.87 467.42 768.45 468.22 766.66 470.21 766.26 471.35 765.43 472.48 764.22 473.54 763.18 474.09 760.38 474.73 759.53 475.27 759.31 475.76 759.57 476.96 760.26 478.28 757.38 478.32 754.72 477.98 753.41 478.24 752.04 478.91 750.73 479.94 750.52 480.46 749.58 484.28 749.21 485.09 747.03 488.19 746.21 487.92 744.75 485.95 743.92 485.9 742.7 486.59 741.9 487.35 740.83 487.84 740.72 487.17 739.76 487.13 738.17 489.59 737.23 491.57 737.8 492.45 737.85 493.5 738.49 493.69 738.9 494.31 738.83 494.87 737.78 496 737.35 495.07 736.04 494.85 733.56 492.8 733.14 492.29 730.81 493.03 730.03 493.09 728.85 493.62 728.1 494.37 727.85 495.23 726.94 495.2 726.02 495.63 725.88 496.1 724.59 496.89 723.55 496.79 723.73 495.7 723.45 495.38 723.83 494.1 723.42 493.58 722.62 493.73 721.75 493.44 720.33 493.69 719.66 494.83 718.1 495.78 717.45 495.26 716.63 495.01 715.69 494.22 714.79 492.52 713.32 491.02 712.24 490.64 711.03 491.14 710.65 491.73 707.94 491.63 706.76 491.47 706.07 491.92 703.68 492.85 702.61 493.01 702.99 493.73 701.5 493.96 700.67 493.13 700.07 493.87 699.39 493.22 698.86 491.89 698.29 492.43 697.35 492.12 696.26 492.25 695.32 491.98 694.77 492.3 694.06 491.13 693.23 491.95 693.32 493.26 692.76 493.62 691.44 493.73 690.8 494.33 690.42 493.16 689.78 493.33 690.03 494.56 689.84 495.18 688.83 494.7 688.12 494.12 686.9 494.68 685.64 494.61 686.1 493.33 686.01 492.88 686.44 491.69 687.15 492.43 688.67 492.02 688.03 491.38 688.47 490.9 689.4 491.02 688.26 489.76 687.46 489.33 686.55 488.31 686.18 487.09 686.52 486.47 687.25 485.87 686.73 485.14 684.84 486.21 683.13 487.66 682 488.14 680.5 489.57 679.74 489.65 677.73 487.44 677.31 487.21 675.5 487.23 673.55 488.17 672.76 489.46 673.03 490.5 672.88 491.29 672.07 492.02 670.69 491.55 669.69 490.7 667.94 490.59 666.73 490.85 665.06 491.53 663.92 491.53 662.2 489.74 661.34 489.64 660.68 489.21 660.44 488.48 659.75 488.47 658.78 487.52 657.37 487.19 656.96 487.56 657.2 488.52 657.05 489.13 655.39 489.6 653.37 489.24 651.79 487.96 651.26 488.01 651.03 488.83 652.3 491.76 653.37 492.39 653.61 493.29 652.98 494.66 652.88 495.65 652.37 496.72 651.45 497.74 651.68 499.14 651.06 499.81 650.22 499.9 649.99 500.5 649.18 500.59 648.16 499.9 645.84 501.44 645.71 502.81 644.76 503.38 643.77 505.13 643.57 505.88 641.52 507.51 640.56 508.55 639.72 508.67 639.24 507.13 638.13 506.1 636.72 506.02 635.23 506.55 634.73 507.01 633.95 508.36 632.82 509.59 629.58 511.94 628 512.94 626.24 513.6 625.01 513.78 622.67 513.75 620.16 514 619.36 513.83 618.47 513.13 617.98 512.16 617.99 511.38 618.76 510.02 619.25 508.76 619.34 507.72 619.05 507.17 617.86 505.88 616.45 503.8 615.31 502.76 613.54 501.62 611.01 500.71 608.56 500.2 606.78 500.13 604.56 499.54 603.72 498.91 603.51 497.53 603.89 496.24 604.73 494.97 606.79 492.58 607.39 492.15 609.41 491.57 611.78 490.55 613.05 489.17 614.87 488.39 615.05 487.74 614.67 487.06 612.66 485.77 611.9 484.77 610.63 484.22 607.88 483.71 606.02 484.72 605.03 485.11 604.44 484.94 601.67 483.31 600.74 482.42 600.4 482.48 598.9 483.52 597.61 484.92 597.14 485.16 595.53 485.29 593.38 484.96 592.05 483.69 589.19 483.27 587.63 482.87 586.61 483.35 585.75 483.26 583.74 482.22 582.77 481.58 582.13 480.59 582.11 479.03 582.54 478.51 584.56 477.88 585.64 477.26 588.19 475.02 589.35 473.56 589.49 471.81 589.34 471.18 587.32 465.53 586.1 464.32 585.15 464.12 584.27 464.27 582.8 465 581.46 466.79 579.31 467.92 577.38 469.1 574.29 469.41 571.66 470.04 570.87 470.04 569.73 469.72 568.97 469.1 567.87 467.52 566.87 466.61 566.18 465.69 566.06 464.61 566.68 463.46 568.36 461.29 569.33 460.45 572.01 458.98 573.83 456.9 574.47 456.31 576.37 455.25 577.37 454.53 578.52 454.11 580.59 452.78 581.21 452.07 581.49 450.14 582.6 447.6 583.15 445.03 584.75 443.22 585.38 441.27 585.38 440.71 584.49 439.38 583.43 439.21 582.69 439.44 580.93 440.42 579.34 440.87 575.25 441.1 573.61 440.71 571.06 436.86 570.81 435.37 571.04 433.08 570.77 431.11 570.77 429.28 570.18 427.53 569.15 426.57 568.56 426.31 565.2 425.53 563.78 425.66 562.94 426.01 561.27 427.38 559.73 430.9 558.67 432.11 557.68 432.54 556.91 432.53 555.9 432.14 554.5 431.03 552.73 430.57 551.96 431.05 552.16 434.55 552.81 435.83 552.72 436.58 551.67 437.04 550.34 438.31 549.45 437.91 549.09 436.81 547.61 434.63 546.98 433.14 546.65 431.33 546.06 429.75 544.64 427.74 543.7 427.03 541.8 426.04 540.36 425.79 539.2 426.02 538.74 426.35 536.96 429.11 536.98 431.17 536.55 432.02 536.4 433.64 535.97 434.95 535.05 435.83 533.53 436.13 531.34 435.59 530.61 434.97 529.37 433.07 528.73 431.57 528.76 430.89 530.77 429.78 531.32 428.9 531.99 426.81 534.76 423.5 535.27 422.3 534.43 419.89 534.43 418.89 535.72 417.62 538.34 416.41 540.27 415.08 540.86 414.02 540.63 413.17 537.89 411.2 536.1 409.6 535.01 408.46 533.33 406.22 531.95 403.89 530.98 403.07 529.6 403.19 528.86 403.9 528.62 405.05 528.61 406.26 528.07 407.57 527.04 408.98 526.71 410.06 525.78 411.42 524.88 411.91 524.19 411.99 519.9 411.49 518.83 411.12 517.79 409.78 517.39 408.91 517.84 407.33 517.76 406.62 516.98 405.73 514.48 404.38 513.78 404.11 512.43 404.51 510.26 407.39 509.62 408.66 507.76 410.89 506.12 412.52 505.48 415.21 505.62 416.53 507.12 418.65 507.22 419.72 506.89 420.41 506.18 420.94 504.11 422.94 503.38 424.79 502.33 426.71 501.36 429.44 499.39 432.1 498.95 432.44 497.75 432.39 496.98 431.75 494.59 429.08 493.99 428.63 492.55 428.02 489.71 427.42 487.24 427.28 485.23 426.99 483.4 427.15 481.62 426.87 481.01 426.41 480.8 425.17 480.94 423.44 480.68 422.81 479.82 422.27 478.69 421.87 475.03 420.08 472.8 419.13 471.83 418.45 471.17 417.33 470.46 414.33 470.09 411.63 469.58 409.8 468.27 407.56 467.12 404.65 466.64 403.87 465.36 402.63 464.72 402.38 461.59 402.27 459.92 403.55 457.5 404.74 456.58 405.65 456.31 406.93 456.92 409.28 456.89 410.91 456.39 412.37 455.33 413.08 452.53 412.4 449.76 411.97 448.67 411.97 446.55 412.59 443.74 414.35 442.19 415.03 439.74 414.99 438.35 415.08 436.11 415.72 435.03 416.74 434.61 418.3 434.75 419.31 435.58 421.28 435.66 423 435.09 424.87 433.48 428.83 432.82 429.59 432.16 429.85 431.08 429.74 430.08 428.65 428.71 425.81 428.07 424.14 427.11 422.68 426.29 420.57 425.12 419.24 424.78 418.5 424.5 414.87 424.3 414.39 422.62 413.83 421.6 413.06 419.69 409.79 417.99 407.5 417.01 406.39 415.51 405.4 412.85 404.54 411.13 404.19 410.13 404.46 409.54 405.01 409.2 405.9 409.46 407.48 408.7 409.08 407.85 409.74 406.32 410.09 405.41 410.62 403.48 411.41 402.36 411.7 401.23 412.82 400.84 414.05 399.68 414.54 398.7 414.25 397.14 413.34 396.66 412.85 396.18 411.75 393.68 408.85 391.52 406.53 389.1 403.55 388.29 402.05 387.54 401.31 386.5 400.67 385.29 400.33 383.8 399.54 383.5 398.98 383.56 398.19 384.37 395.77 384.48 394.27 384.27 393.22 383.27 391.94 379.19 389.68 373.17 385.73 372.03 384.33 371.71 382.37 370.94 381.91 368.63 381.55 367.38 381.18 365.79 380.4 363.15 379.68 361.14 379.49 360.06 379.06 359.05 378.21 357.55 377.21 356.92 376.26 356.93 372.95 357.14 371.78 357.47 371.33 358.48 370.79 359.26 370.03 359.55 369.01 361.97 367.55 363.55 366.38 365.64 364.44 366.9 363.51 367.22 362.75 366.99 361.68 365.93 360.72 364.74 359.3 364.41 358.55 364.28 357.23 364.86 355.92 366.05 354.83 367.94 353.54 369.04 352.61 370.12 351.27 370.4 350.49 370.05 349.59 368.96 349.01 365.93 348.3 360.98 347.68 358.93 347.65 356.82 348.26 355.17 349.25 354.36 351.23 353.66 351.83 351.69 352.77 349.41 354.19 347.17 355.36 346 356.46 344.6 358.53 344.13 359 342.99 359.37 340.9 359.13 339.68 358.67 336.79 357.29 334.2 355.69 333.51 355.01 332.74 353.44 331.72 351.86 329.68 349.28 329.18 348.4 328.77 346.64 328.43 342.24 328.77 340.37 331.03 337.27 333.2 333.24 333.74 331.66 333.91 330.44 334.26 329.7 335.5 328.59 336.69 327.25 338.46 325.67 338.99 324.77 339.47 323.43 340.08 322.23 340.13 321.43 339.11 320.18 338.73 319.42 337.65 318.4 333.76 317.1 332.05 317.14 329.88 317.98 327.69 319.54 326.67 320.08 325.07 320.1 324.14 319.51 322.65 318.3 321.85 317.97 319.84 318.08 318.38 318.03 317.77 317.81 317 317.09 315.86 315.07 315 313.91 314.32 312.62 314.27 311.94 314.8 310.26 314.84 308.42 314.33 306.92 312.56 303.16 311.14 299.93 310.12 297.92 309.14 296.36 308.27 295.8 306.73 295.55 304.12 296.3 303.14 297.15 302.59 298.63 302.69 299.41 303.57 301.38 303.47 302.89 303.04 303.68 302.53 305.38 302.65 306.09 303.24 307 304.97 310.76 306.3 312.97 306.53 313.71 306.51 315.3 306.22 316.76 305.88 317.58 304.42 318.93 302.47 319.83 300.67 319.86 299.67 319.45 297.5 318.16 295.96 317.68 294.87 317.58 293.05 317.08 291.19 316.29 289.49 315.25 288.74 314.22 288.03 311.37 287.59 310.51 286.44 308.93 285.22 307.7 284.34 306.58 283.83 305.46 283.72 304.58 283.67 301.85 284.13 300.36 283.77 299.06 283.33 295.9 283.67 293.84 283.98 291.08 284.65 289.29 285.16 288.41 286.37 286.86 286.64 285.67 286.58 284.84 286.14 282.91 284.88 280.79 284.05 279.85 283.55 279.73 281.97 280.03 281.08 280.55 280.59 281.64 280.73 282.67 280.17 283.86 278.92 284.97 277.9 286.18 276.54 287.31 275.58 288.39 275.2 289.29 274.63 291.38 272.52 294.04 271.19 294.85 269.26 295.38 267.98 296.21 265.51 297.35 261.3 298.74 257.97 299.77 256.36 300.53 255.75 301.35 254.99 301.42 254.62 300.69 252.18 300.52 251.21 300.07 248.62 296.97 248.06 295.9 245.74 294.31 240.95 291.9 239.53 291.01 238.05 289.72 237.57 289.06 237.06 286.87 237.46 285.52 237.93 284.84 239.92 283.35 241.69 281.39 243.51 278.89 244.59 276.57 244.51 275.29 244.08 274.54 242.49 273.62 240.6 273.09 236.97 272.84 235.02 272.53 231.51 272.72 229.06 273.11 226.49 272.92 224.61 272.3 222.91 270.76 222.44 270.1 222.07 268.41 222.33 267.17 223.27 265.28 224.91 262.92 225.39 261.85 226.54 257.78 227.47 255.04 227.37 254 226.33 251.86 225.67 251.04 224.68 250.58 223.29 250.63 221.87 251.28 217.75 254.1 216.58 255.29 215.53 256.94 214.9 257.69 212.38 259.65 209.02 262.61 208.39 263.31 207.71 264.5 207.39 265.72 207.26 267.31 207.02 267.76 206.49 269.98 206.19 271.98 206.11 273.63 206.16 275.88 205.99 277.17 205.39 278.03 204.36 278.67 202.61 278.75 201.63 278.44 199.89 277.31 198.34 275.37 197 274.06 194.79 272.54 193.03 270.78 191.93 269.84 188.91 267.67 184.97 265.41 183.23 264.54 181.72 263.64 179.27 262.52 178 261.66 176.3 260.91 174.55 260.32 173.45 259.79 171.94 259.4 170.47 258.74 166.32 257.15 164.15 256.44 163.08 256.39 161.72 256.66 160.53 257.23 157.35 259.61 156.56 259.89 154.23 259.9 152.9 259.05 151.8 257.61 152.22 256.59 153.11 255.7 154.17 255.24 155.44 254.95 156.94 253.85 158.08 253.17 160.61 252.22 164.45 249.74 165.25 249.12 166.2 247.93 166.46 247.05 166.38 245.52 165.55 244.28 163.96 243.25 163.41 243.14 161.66 243.4 160.2 244.02 159.14 244.03 158.6 243.73 153.69 242.99 149.82 242.74 149.07 242.91 146.48 244.26 145.05 244.91 142.75 245.69 141.43 246.85 139.38 247.57 136.98 247.43 134.59 247.06 132.23 247.19 129.9 246.84 128.21 247.2 126.08 248.24 125.47 248.77 124.66 250.16 123.25 252.07 121.17 253.98 120.3 255 118.15 257.4 114.6 261.83 111.84 264.76 110.47 265.83 109.42 266.2 108.2 266.08 107 265.11 105.61 263.52 104.68 262.08 104.37 261.1 104.35 260.02 104.96 257.48 105.01 256.18 104.56 254.65 103.32 251.73 102.91 250.07 102.81 247.88 103.4 246.54 104.51 245.45 107.46 242.9 110.64 239.84 112.03 238.22 112.77 237.15 113.38 235.57 113.28 234.41 112.29 232.92 110.39 231.69 109.3 231.62 106.03 232.29 104.15 232.85 103.61 233.2 101.28 236.11 99.28 239.02 98.75 239.28 97.77 239.19 96.56 238.62 90.86 235.33 88.91 233.89 88.23 232.71 87.77 230.95 87.55 228.53 87.92 227.82 88.07 226.1 86.61 223.49 86.24 222.18 86.34 221.5 87.37 218.51 87.58 217.01 87.44 216.36 86.7 215.29 85.4 214.6 83.38 214.42 81.96 214.78 80.15 215.64 77.83 216.26 76.04 216.42 74.59 216.27 72.32 215.62 70.29 215.19 69.09 215.09 66.78 215.17 64.12 215.71 61.84 216.64 59.02 218.29 54.94 220.98 53.36 222.15 50.24 225.06 48.94 225.75 48.17 225.94 45.93 226.15 42.98 226.29 41.37 226.21 39.52 225.62 37.52 224.35 36.37 223.36 37.65 222.62 39.43 222.22 40.06 221.66 40.69 220.64 40.9 219.21 40.74 218.12 39.84 215.98 37.8 212.59 36.66 210.29 35.44 208.6 32.79 205.65 31.68 205.1 28.51 203.26 26.35 202.44 24.97 202.23 21.33 201.2 19.07 200.77 15.48 199.21 12.37 197.57 10.42 196.73 8.59 196.17 5.71 195.52 3.63 194.91 2.84 194.52 1.96 193.61 1.43 192.56 1 190.31 1.13 189.11 2.04 187.4 2.98 186.48 4.87 185.59 9.58 184.15 12.46 183.17 13.38 182.97 15.02 183.06 19.79 183.9 24.42 184.48 26.84 184.86 29.31 185.4 32.79 186.32 35.16 188.24 39.33 191.48 40.7 192.39 42.69 193.43 45.16 194.33 48.26 195.23 51.08 195.93 55.3 196.74 59.34 197.2 61.26 197.07 63.2 196.46 65.04 195.43 67.07 193.85 67.93 192.41 68.1 190.92 67.98 188.47 67.54 184.89 67.1 182.32 66.6 180.06 65.03 174.01 64.31 169.98 63.76 168.73 63.66 167.07 63.91 166.11 65.29 164.34 66.14 163.75 67.32 162.35 68.44 161.5 68.94 160.86 70.3 159.82 72.5 159.04 74.21 158.16 75.94 158.07 76.83 158.57 78.23 160.33 79.07 161.76 80.67 163.99 81.5 164.66 82.53 166.19 82.74 168.3 82.59 172.06 82.09 174.7 80.13 179.48 79.81 180.84 79.73 182.32 79.85 184.02 80.13 185.73 80.53 187.31 81.53 189.91 82.3 191.25 84.16 193.59 84.62 194.43 85.52 196.6 85.93 197.26 86.7 197.88 88.05 198.19 89.32 198.1 91.08 197.5 92.93 195.91 94.45 194.06 96.16 191.32 100.33 183.26 103.07 178.44 103.67 177.2 103.93 175.56 103.71 173.95 102.4 172.11 101.81 170.18 101.85 167.24 102.13 165.63 102.54 164.27 103.29 163.3 104.83 162.4 106.58 161.82 108.54 161.69 110.38 162.08 111.33 162.57 112.18 163.52 112.4 164.31 112.32 165.48 113.29 166.98 115.7 168.41 117.16 169 117.72 170.18 119.1 171.7 119.73 172.2 121.4 174.63 123.21 175.63 124.45 175.44 126.74 175.39 129.1 174.9 131.87 174.53 134.24 173.65 136.35 173.33 137.59 173.34 139.31 173.67 139.97 173.52 140.58 172.76 140.79 171.84 140.89 170.09 139.79 167.87 139.68 165.79 138.93 164.2 138.05 163.11 135.59 160.62 133.69 158.89 132.16 156.99 132.25 156.3 133.05 155.03 134.04 153.79 136.08 151.66 139.27 148.95 147.3 142.4 151.28 138.63 152.24 137.48 152.53 136.16 152.35 134.03 152.4 131.8 152.71 129.14 153.09 127.47 154.06 125.96 156.4 124.73 157.54 124.33 158.15 124.34 159.25 123.89 159.91 124 162.7 126.16 165.94 126.91 166.95 127.29 168.57 128.27 172.23 130.92 175.08 133.34 176.71 134.31 177.77 134.44 179.29 134.23 180.93 133.44 181.53 132.82 182.03 131.71 182.28 130.04 182.52 127.44 182.75 126.15 183.72 123.58 184.87 121.54 185.77 120.26 187.47 118.38 189.71 116.53 191.74 115.74 195.37 114.94 199.96 113.77 204.03 112.54 206.33 111.94 207.99 111.37 209.97 110.23 212.32 109.93 214.88 108.81 216.5 107.91 218.43 106.6 220.05 105.88 222.01 104.69 223.09 103.63 223.96 101.9 224.16 99.49 223.99 97.33 223.48 95.49 222.45 93.45 221.37 91.77 220.23 90.37 218.92 89.26 216.44 87.76 213.67 86.58 209.73 85.99 204.59 85.36 200.09 85.35 196.16 85.07 193.13 84.56 188.37 83.53 186.75 83.08 184.28 82.24 181.46 81.02 178.87 79.42 178.11 78.45 177.84 77.33 177.71 74.47 177.77 71.38 177.97 68.05 178.19 66.67 178.85 64.09 179.6 62.17 180.48 60.5 182.25 57.58 183.78 54.92 185.54 52.09 187.03 50.1 188.45 47.98 190.06 46.14 192.39 44.39 193.06 44.12 194.27 44.1 195.04 44.31 196.35 45.04 197.82 46.09 199.27 46.62 200.49 47.56 201.59 49.81 201.81 50.66 201.36 52.09 201.36 53.4 202.63 55.83 203.39 58.28 203.47 60.25 204.52 62.59 205.41 63.59 206.27 64.9 208.45 67.43 209.99 68.9 211.07 69.59 213.05 69.6 214.4 68.88 215.18 67.6 215.43 65.53 215.25 62.85 214.48 58.76 214.29 57.11 214.48 55.2 215.65 52.95 216.71 51.42 217.44 50.89 219.4 50 220.57 49.6 221.75 49.42 223.59 49.46 225.61 50.05 227.73 50.88 229.09 51.25 235.31 52.63 237.33 53.4 240.04 54.57 242.38 55.39 243.53 55.46 244.87 55.21 245.97 54.69 247.3 53.5 248.08 52.27 249.82 48.88 251.48 44.98 252.33 42.36 252.26 40.66 251.33 39.16 250.32 38.34 248 36.15 246.61 35 244.84 32.89 243.34 31.34 242.37 30.54 239.67 28.82 238.55 27.38 236.26 24.97 233.86 23.35 233.27 22.69 231.75 20.24 231.34 19.3 231.27 18.29 231.58 17.46 232.39 16.14 233.6 14.78 234.43 14.04 238.09 12.54 239.83 11.94 240.64 11.86 243.15 12.12 245.99 12.19 246.6 12.37 250.23 15.05 251.69 17.06 253.32 20.76 254.44 22.6 254.94 24.37 256.45 28.02 257.71 29.65 259.21 30.95 261.13 31.6 263.85 31.52 265.7 31.32 267.34 30.99 270.57 29.85 271.3 29.38 272.23 28.3 273.13 26.69 273.45 25.76 273.29 23.97 273.41 23.12 274.38 21.86 275.68 18.89 277.17 17.5 277.66 16.53 278.19 14.4 277.99 11.22 278.26 10.32 278.67 9.95 280.25 9.16 283.01 8.43 284.71 7.59 287.7 5.39 289.01 3.82 289.49 3.03 290.62 2.4 292.62 2.32 293.47 2.14 295.1 1.34 296.83 1 298.91 1.48 301.01 2.21 302.41 2.95 303.17 3.61 303.97 4.78 305.3 7.8 306.25 9.25 306.42 10.18 305.93 10.88 302.41 12.51 301.06 12.85 297.07 13.21 294.55 13.17 291.78 14.1 290.96 15.03 290.97 17.65 291.56 20.4 291.87 21.18 292.6 23.87 292.81 27.3 292.95 28.19 293.62 30.31 293.98 34.28 294.42 35.79 294.76 39.1 295.17 40.51 296.64 42 297.54 42.4 298.85 42.43 300.33 42.07 301.65 41.2 303.99 37.79 305.41 36.33 306.22 35.18 307.13 33.49 307.37 32.65 307.7 30.15 308.53 28.46 309.97 26.91 311.87 25.69 313.47 25.21 315.54 25.46 316.32 25.82 317.42 26.86 318.34 28.12 318.57 28.83 318.91 31.06 319.43 32.1 320.47 33.49 321.61 34.75 322.99 37.24 323.88 38.12 325.95 39.75 327.95 41.17 328.84 41.56 330.1 42.41 331.44 43.04 333.5 43.25 334.95 43.05 336.45 42.61 337.85 42.52 341.04 42.72 343.74 43.2 345.44 42.73 346.77 41.55 347.42 40.65 347.88 39.6 348.43 37.14 348.48 36.16 347.54 33.16 346.78 31.85 346.23 31.25 344.47 29.98 342.71 29.07 341.32 28.49 339.79 27.08 339.53 26.32 338.63 24.66 338.1 23.18 337.87 20.03 337.92 17.88 337.67 16.23 337.7 15.38 338.13 13.91 338.97 11.82 338.97 9.54 339.27 8.91 340.87 8.25 342.05 8.14 343.32 8.68 345.01 10.55 347.32 13.44 348.46 14.25 350.88 15.62 355.13 18.44 355.73 18.97 356.07 19.92 356.19 21.42 356.51 22.15 357.4 23.35 359.07 26.42 360.26 29.8 360.94 30.81 361.98 31.67 363.55 32.01 364.25 31.93 364.62 29.23 364.57 28.25 364.09 26.43 363.75 24.55 363.04 21.82 362.28 19.48 362.2 18.17 363.21 15.01 363.99 13.64 364.63 12.17 365.59 11.09 366.36 10.54 368.26 10.05 369.22 9.51 370.71 9.02 374.63 8.61 376.57 8.49 377.88 8.26 378.87 8.47 379.53 8.86 380.47 9.95 381.05 11.13 382.04 14.42 382.34 16.06 382.45 18.7 382.39 22.17 382.25 23.63 381.69 25.36 381.49 26.5 380.69 28.74 380.07 31.16 380.13 32.06 380.87 32.92 382 33.07 383.58 32.94 384.7 32.62 385.87 31.85 386.53 30.96 386.88 29.98 387.28 28.14 387.84 27.35 388.6 26.77 391.28 25.25 392.1 24.4 393.58 23.3 394.91 23.17 396.38 23.71 399.19 25.41 400.12 26.21 400.96 27.75 400.84 28.23 399.52 29.36 398.73 30.44 398.42 31.36 398.24 33.28 398.44 36.79 399.99 39.97 400.42 40.59 404.44 43.67 406.19 46.01 406.36 47.09 406.16 49.51 406.15 51.42 405.55 52.35 404.37 53.29 402.74 54.37 400.68 55.51 399.26 56.79 396.02 58.93 395.68 59.85 395.98 61.44 397.44 63.93 398.23 64.74 401.12 66.98 404.37 68.71 406.14 70.13 407.51 70.91 408.92 70.79 410.66 69.53 411.54 68.58 413.15 66.41 413.57 65.28 413.63 63.28 414.3 62.13 416.67 60.74 418.97 60.01 421.43 59.76 423.07 59.39 425.76 58.46 426.78 57.8 427.36 57.08 427.71 55.93 427.61 54.93 426.84 53.7 427.35 52.49 427.71 50.44 428.04 49.82 429.93 47.8 431.94 46.7 434.17 45.11 435.44 45.14 437.13 45.83 437.94 46.35 439.86 48.74 440.13 49.58 439.99 51.16 438.93 52.42 438.35 53.5 438.14 54.94 438.49 56.6 438.66 58.55 438.97 59.58 440.55 61.66 442.17 63.05 443.21 63.75 445.59 64.71 447.18 65.57 449.2 67.46 451.3 68.18 452.23 68.8 452.91 70.26 453.5 70.87 454.42 70.84 455.81 69.95 456.86 68.56 456.83 66.47 456.03 63.76 455.9 62.76 455.35 61.41 454.39 60.41 452.26 58.65 451.91 58.16 451.32 56.51 450.39 55.34 449.81 54.02 449.27 52.2 449.05 50.03 449.45 49.27 450.45 49.17 454.17 49.62 455.34 49.12 456.67 47.9 457.35 47.65 458.47 48.13 459.83 49.35 462.27 51.11 462.95 51.44 466.49 52.77 468.66 54.18 469.86 54.76 471.89 54.63 473.03 54.81 476.86 56.22 480.06 56.91 482.77 57.31 483.95 57.64 484.83 58.16 487.17 60.53 489.12 62.2 490.62 63.12 493.18 64.87 496.89 67.62 498.76 69.55 499.41 69.85 500.68 69.76 502.42 69.18 503.91 68.42 505.42 67.09 506.01 65.98 506.93 63.4 507.53 60.97 507.82 58.15 508.69 56.7 509.43 56.05 510.88 55.33 512.24 55.16 514.07 55.67 515.63 56.54 518.18 58.51 520.57 61.21 522.74 64.23 524.48 66.15 527.82 68.61 528.4 68.85 529.57 68.77 530.95 68.2 532.66 66.92 534.48 65.09 535.91 63.82 537.22 62.94 538.36 62.43 539.61 62.18 540.57 62.2 542.36 62.51 544.28 63.14 544.71 63.44 545.68 64.97 546.26 65.41 548.03 65.71 549.43 65.36 551.48 64.38 552.74 64.26 553.82 64.54 554.93 65.56 555.67 67.36 555.85 68.85 555.61 70.75 554.93 73.05 552.9 78.39 552 79.87 548.84 83.53 546.81 85.07 546.35 85.59 545.13 87.69 544.58 88.23 542.67 89.33 540.79 89.45 539.19 90.2 538.67 91.67 538.82 92.96 539.3 94 541.16 96.4 541.63 97.21 541.68 98.22 540.16 99.85 539.88 100.41 539.93 101.52 540.52 103.31 540.47 104.73 539.94 106.34 538.06 110.13 536.08 115.89 536.22 116.64 537.07 117.49 538.55 117.96 540.86 118.13 542.91 118.09 547 117.74 547.99 117.58 Z"/>
</g>
</svg>