<?xml version="1.0"?>
<svg xmlns="http://www.w3.org/2000/svg" version="1.2" baseProfile="tiny" width="800" height="437" viewBox="0 0 800 437" stroke-linecap="round" stroke-linejoin="round">
<g id="4216503">
<path d="M 610.53 16.99 610.52 17.96 610.23 19.05 609.62 20.36 609.16 20.76 608.02 21.13 606.92 21.79 606.75 22.69 606.88 24.02 606.65 24.79 607.67 25.14 609.72 25.3 610.81 25.64 611.48 25.39 611.68 25 612.62 24.13 613.57 23.76 614.39 23.75 615.58 23.53 617.57 23.77 618.66 24.49 620.14 24.87 620.92 24.9 623.02 24.63 623.82 25.47 624.23 25.54 625.08 25.24 626.64 24.87 627.19 24.61 628.11 24.54 630.35 24.76 631.8 25 633.77 24.64 636.27 24.77 636.65 25.02 637.53 26.34 637.53 27.4 637.13 28.01 636 28.61 634.87 28.95 633.59 29.82 632.07 31.29 631.53 31.67 631.31 32.25 631.89 33.43 632.67 34.4 633.81 34.53 636 33.97 638.78 32.99 639.79 32.49 640.7 31.61 640.96 31.1 641.85 30.73 642.76 30.79 643.75 31.38 645.47 33.07 646.34 33.63 647.96 33.84 649.54 33.84 651.55 33.36 652.9 33.2 654.03 32.83 654.62 32.78 656.28 33.17 657.25 33.14 659.2 33.53 660.35 33.29 660.61 33.03 661.13 31.78 661.53 30.36 661.39 27.92 661.24 26.52 660.92 26 660.99 25.58 661.43 25.4 662.51 25.4 663.34 25.62 663.76 25.47 664.72 24.76 665.1 23.95 665.47 23.72 667.65 24.69 668.48 24.96 669.93 25.75 671.03 25.93 671.33 27.4 670.8 29.1 670.8 30.83 670.6 31.92 669.93 33.69 668.43 35.84 668.11 37.02 668.57 38.23 669.45 39.57 669.58 40.49 669.01 41.38 668.95 41.88 669.45 42.27 670.26 42.5 671.53 42.6 672.41 43.09 673.44 44.99 673.56 45.57 674.32 46.14 674.77 46.05 676.25 44.5 677.08 43.78 677.91 43.44 678.46 43.42 679.2 43.94 679.49 45.12 679.38 45.98 679.83 47.16 679.81 47.87 679.57 48.64 680.55 49.22 681.04 49.82 681.73 50.35 682.44 51.45 682.42 52.07 682.16 52.86 682.07 53.81 682.3 55.32 683.12 56.42 684.38 57.33 687.45 58.8 687.48 59.56 686.96 60.92 687.27 61.87 689.65 63.2 690.24 63.36 691.42 64.09 691.98 64.59 693.41 65.24 695.99 66.68 697.46 67.36 698.73 68.12 700.34 68.27 702.51 68.7 703.66 68.85 704.59 69.34 706.13 70.61 706.66 71.76 707.07 73.1 707.1 73.73 707.67 74.68 708.73 75.8 709.59 78.24 710.07 79.08 710.74 79.86 711.68 80.61 713.53 82.38 713.75 82.68 714.98 83.67 715.29 84.61 717.17 84.51 719.17 83.99 719.98 84.46 720.24 85.67 720.48 86.18 720.38 86.83 719.39 87.51 720.18 88.3 720.6 89 721.22 89.65 722.22 90.17 723.42 90.37 723.88 90.56 724.62 91.55 724.62 92.53 723.66 93.63 723.39 94.36 723.91 95.16 724.61 95.62 725.32 95.78 727.76 95.62 728.82 96.62 728.96 97.62 729.34 98.3 730.28 98.9 731.01 100.03 733.52 101.71 734.19 101.74 736.1 101.11 737.25 100.64 737.63 100.84 737.92 101.43 738.38 103.02 739.13 104.33 739.64 104.7 740.48 104.84 742.08 104.17 742.95 103.47 743.96 102.49 744.89 101.95 746.22 101.54 746.96 101.94 747.12 102.38 746.39 103.38 746.18 105.07 746.31 105.48 747.25 106.78 747.36 107.14 748.05 107.73 749.59 108.71 750.78 110.59 751.64 111.36 753.39 112.34 754.74 113.31 756.16 113.99 758.68 114.41 759.59 114.73 760.07 115.46 759.75 115.82 759.88 116.24 760.66 117.6 761.66 118.01 761.99 118.33 762.59 119.69 763.08 120.23 764.34 120.03 765.88 119.94 766.83 120.15 767.28 120.62 767.11 121.01 767.76 122.15 767.76 122.49 768.21 123.93 768.3 124.95 768.08 125.67 768.36 126.53 768.42 127.37 769.88 128.4 770.45 129.51 770.95 129.89 771.63 130.71 771.78 131.2 772.73 131.67 774.21 131.93 775.61 131.99 777.05 132.48 778.2 132.47 778.92 132.26 780.09 132.16 780.89 132.39 782.2 132.16 783.19 132.47 784.51 133.3 785.32 133.48 785.61 134.29 785.71 135.21 786.69 136.51 787.09 136.85 786.97 137.35 787.23 138.74 787.01 139.24 787.49 140.4 787.53 140.87 787.94 141.6 788.98 141.92 789.47 142.71 792 144.28 792.27 146.16 792.54 146.6 793.91 146.74 794.92 147.07 795.27 148.02 795.69 148.78 797.73 150.11 798.37 150.66 798.75 151.33 798.69 151.99 799 153.05 796.04 153.26 795.35 153.56 793.66 155.15 793.19 155.1 792.47 154.63 791.39 154.29 789.99 153.62 789.32 153.53 788.22 154.33 787.72 154.43 787.3 153.83 787.07 152.83 786.75 152.17 785.85 151.56 784.44 150.96 782.47 150.22 782 149.89 781.5 149.18 780.29 148.19 779.37 147.85 778.48 147.82 776.59 148.11 775.25 148.13 773.92 148.86 773.12 149.19 771.55 148.99 768.95 149.8 767.74 150.01 766.71 149.57 766.3 149.11 765.74 146.99 765.52 146.5 764.54 145.26 764.08 144.96 763.22 145.04 762.74 144.87 762.37 144.33 761.43 144.12 760.67 144.12 760.3 143.8 759.67 142.51 759.38 142.52 758.92 143.25 758.29 143.65 757.27 143.75 756.4 143.35 756.08 143.54 754.87 144.8 753.87 146.03 753.5 146.29 752.48 146.25 751.11 145.59 749.66 144.42 748.43 144.56 747.3 143.96 746.37 144.09 746.14 144.41 745.76 145.95 745.46 146.4 744.63 147.09 742.93 147.78 741.67 148.87 741.5 150 741.75 150.58 741.53 151.17 741.08 151.57 739.97 152.15 738.73 152.45 738.09 152.97 737.42 153.78 737.52 154.67 737.38 156.07 737.51 157.34 736.95 159.34 736.04 160.13 736.01 160.8 734.96 161.67 734.89 161.89 733.9 162.32 733.12 162.36 732.17 162.65 731.26 162.75 729.88 163.07 728.27 162.94 727.57 163.41 726.16 163.74 724.87 164.65 724.21 164.73 723.7 164.37 722.95 164.55 722.34 164.5 720.58 163.45 719.87 163.49 719.31 164.33 718.59 164.76 717.25 165.18 717.09 166.11 716.5 166.56 715.15 166.86 714.52 167.59 714.23 168.52 712.5 169.98 711.72 170.41 709.75 173.09 709.83 173.28 710.99 174.03 711.23 174.54 710.98 174.88 710.21 175.1 708.61 175.11 708.07 175.38 707.69 175.99 707.47 177.44 707.59 178.84 707.05 179.32 705.27 180.13 704.35 180.82 703.49 181.89 703.58 182.26 704.27 183.15 704.45 184.37 704.24 184.98 704.2 186.08 703.82 186.59 702.9 187.11 702.4 187.61 702.56 188.57 702.35 188.75 701.97 189.79 701.27 189.9 700.83 189.47 700.43 189.55 699.89 190.14 700.07 190.46 700.8 190.65 701.04 191.02 701.28 193.05 700.92 193.65 700.35 194.02 700.02 194.98 699.38 195.6 697.52 196.14 697.06 197.23 697.14 197.74 696.89 199.05 696.37 199.52 695.37 200.01 694.76 200.64 693.34 200.74 691.66 201.19 691.55 201.79 690.8 203.6 690.88 204.09 691.59 205.63 692.15 206.24 693.02 206.82 693.27 207.52 692.69 208.79 691.15 209.48 690.54 209.89 690.79 210.74 692 212.69 691.85 213.84 691.98 214.34 692.66 215.05 693.14 215.78 693.19 216.3 692.71 217.01 692.7 217.63 693.44 218.33 694.36 218.59 694.97 219.27 694.66 219.69 693.42 220.12 693.11 220.69 693.76 221 694.4 221.65 694.35 222.29 693.81 223.64 694.15 224.22 694.84 223.78 696.17 223.54 697.72 223.69 698.58 224.15 698.8 224.68 698.38 225.51 697.8 226.22 697.11 226.61 695.37 227.31 694.37 227.85 694.32 228.25 695.29 229.46 695.29 230.65 694.94 231.25 693.54 232.47 693.08 233.05 693.11 233.91 692.74 235.24 692.81 236.2 693.12 236.5 694.92 235.9 695.33 235.99 695.82 236.53 696.3 237.56 697.08 238.38 697.09 239.24 695.6 239.58 695.06 239.89 694.63 241.25 693.96 241.77 693.15 242.74 693.05 243.23 693.46 244.5 693.35 244.9 691.57 245.98 691.26 246.49 691.67 246.86 693.09 246.8 693.44 246.99 695.15 247.16 695.44 247.78 694.75 247.92 693.93 248.59 693.68 249.3 694.04 251.07 694.27 251.74 695 253.21 695.09 253.65 694.68 254.19 692.44 254.17 691.7 254.59 691.33 255.1 690.86 256.5 690.54 258.22 690.65 259.35 691.06 259.71 692.24 259.91 692.59 260.54 692.73 261.2 693.21 262.25 693.87 262.32 694.51 262.07 695.67 260.98 697.49 259.71 698.25 259.62 698.68 259.92 698.68 260.43 697.88 261.72 699.15 262.65 700.23 263.01 700.49 263.52 700.26 264.89 699.73 265.2 698.47 265.23 697.8 265.85 697.76 266.23 698.95 267.23 698.92 267.8 698.22 268.33 697.7 269.15 698.1 269.58 700.46 270.69 700.85 271.19 700.93 272.42 700.54 273.42 700.02 276 700.08 276.62 700.8 278.14 700.87 278.74 700.44 279.65 699.34 280.55 698.46 280.84 696.87 280.75 696.14 281.64 695.44 281.83 694.71 282.36 693.53 283.86 692.6 284.36 691.66 284.4 690.4 284.19 688.22 283.95 687.11 284.28 686.75 284.75 686.66 286.1 686.92 286.81 689.17 287.78 689.47 288.03 690.34 288.26 690.75 288.63 690.92 289.57 691.88 291.63 691.65 292.86 691.82 293.66 692.92 295.97 693.29 296.88 693.39 297.88 693.28 298.93 692.87 300.72 692.69 302.19 692.87 303.64 692.84 305.96 692.69 306.75 692.3 307.07 691.71 307.07 690.25 305.96 688.25 304.64 686.47 303.66 684.27 302.15 683.72 301.58 682.97 300.41 682.17 298.56 681.32 297.15 680.38 296.32 679.51 296.13 678.61 296.17 676.85 296.6 674.49 297.38 673.39 298.38 672.95 298.46 668.9 298.78 667.96 298.78 667.33 299.26 666.82 300.28 666.76 303.42 666.52 304.02 665.85 304.29 665.26 304.24 664.43 303.87 663.4 303.05 662.23 301.85 660.04 298.64 658.4 296.96 657.54 296.47 656.46 296.24 655.65 296.52 654.95 297.46 653.69 298.76 653.25 299.47 652.73 301.39 652.74 302.75 652.91 304.26 653.2 305.82 653.54 307.17 653.39 307.69 653.7 309.17 653.82 310.95 653.96 311.5 653.84 312.25 653.34 313.34 653.37 314.04 653.16 315.47 653.4 316.12 654.32 316.43 655.6 316.69 658.43 316.75 660.34 316.85 662.76 317.23 665.38 317.37 668 317.09 669.07 316.9 669.96 316.59 670.78 316.46 673.94 316.41 675.82 316.74 676.68 317.05 678.54 318.29 679.05 319.48 679.25 321.81 679.5 322.73 679.48 323.35 680.45 324.65 680.96 325.07 681.74 325.38 682.54 325.38 684.54 324.5 686.22 323.87 687.38 323.59 688.7 323.66 689.53 323.94 690.98 324.6 693.05 325.78 693.7 326.87 693.83 328.08 693.74 328.65 693.3 329.84 692.96 330.24 692.64 331.03 692.76 331.95 692.77 333.25 692.5 334.33 692.32 336.75 692.71 337.67 693.52 338.25 694.07 338.4 695.38 338.41 695.97 338.56 697.23 338.55 698.03 338.23 700 338.33 701.45 338.65 701.7 338.83 702.22 339.83 702.85 340.66 702.84 341.16 702.18 341.79 701.36 342.08 698.9 342.34 698.16 342.87 697.61 343.63 696.84 345.1 696.23 346.06 695.54 346.87 694.87 348.38 695.13 349.28 695.66 349.82 696.53 349.94 698.31 349.72 699.8 349.25 700.99 349.14 702.24 349.55 703.4 349.39 705.16 349.5 706.24 349.31 707.68 349.5 709.96 350.29 710.93 350.88 711.78 352.04 712.07 352.73 712.03 353.61 711.62 354.3 710.53 354.57 708.6 354.56 707.24 354.26 705.37 353.99 704.5 354.15 703.22 354.82 701.26 355.36 700.73 355.65 699.68 355.89 698.47 356.53 693.68 357.91 691.91 358.29 689.66 359.32 688.34 360.22 686.38 362.06 684.8 363.15 683.07 363.96 681.64 364.07 680.99 363.64 680.6 362.26 681.39 360.31 681.95 359.52 682.53 358.44 682.77 357.49 682.65 356.22 681.95 355.4 680.37 355.02 679.16 355.09 678.28 355.48 676.54 356.67 676.85 358.03 676.37 359.14 676.1 360.59 675.33 361.65 674.74 361.93 673.65 361.99 672.23 361.49 670.79 360.48 668.72 359.62 664.1 358.51 663.44 358.57 662.95 358.86 662.29 360.27 662.36 360.76 662.9 361.75 663.25 363.08 663.67 365.72 663.36 367.15 663.02 367.22 662.19 368.06 661.52 368.14 660.43 367.63 659.29 366.39 658.68 365.38 658.39 363.35 657.34 362.16 656.84 361.41 656.56 360.31 656.57 358.98 656.44 358.18 656.85 354.92 657.19 354.16 658.69 352.29 659.31 351.13 659.5 350.17 659.24 349.61 658.64 349.06 657.71 348.77 655.96 348.8 654.64 349.36 653.02 350.71 652.4 352.78 652.65 353.94 652.58 354.4 651.39 355.66 650.71 355.92 649.76 356.01 648.92 355.73 648.19 355.3 646.23 355.32 641.42 354.77 639.86 354.75 638.81 355.12 638.38 355.46 637.09 356.08 635.53 356.6 633.96 356.93 632.78 357.34 632.37 357.73 631.22 358.24 630.38 358.9 629.89 359.75 629.78 360.4 630.04 361.34 631.46 362.53 632.55 363.33 633.08 363.58 635.39 365.11 637.36 366.04 638.87 366.51 640.2 367.26 640.94 368.05 641.48 368.94 641.65 369.9 642.2 371.04 643.26 372.27 644.18 372.97 646.36 373.95 647.33 374.11 648.15 373.71 648.55 373.13 648.75 372.16 648.76 370.89 648.62 369.83 648.37 369.5 648.19 367.87 648.22 366.74 648.55 363.34 648.72 362.7 649.65 362.25 650.48 362.35 652.14 362.94 654.16 363.39 654.91 363.99 655.04 365.13 654.62 366.81 654.57 368.61 654.25 369.44 653.79 370.2 653.12 370.9 652.39 371.28 651.68 372.01 649.41 375.16 648.94 376.77 648.99 378.16 648.91 379.08 648.96 380.29 649.25 381.88 649.51 382.7 650.23 384.4 650.88 386.66 651.41 387.18 651.75 388 651.99 389 652.57 389.44 653.25 389.51 655.01 389.95 656.24 390.47 658.36 391.17 659.17 391.65 659.55 392.28 659.59 393.27 659.18 394.06 657.88 394.88 656.76 395.35 655.61 396.01 653.62 398.22 651.96 399.53 651.24 399.93 649.9 400.39 649.03 400.39 648.2 400.18 645.82 399.32 644.36 399.42 643.88 399.77 643.7 400.63 643.26 401.61 643.07 402.97 642.53 404.42 642.41 405.04 642.66 405.57 643.26 405.84 644.52 406.15 646.93 404.11 645.99 405.4 645.14 405.9 644.94 406.28 645.51 408.85 645.73 411.03 645.85 413 645.77 415.49 646.45 416.95 647.06 417.52 648.73 418.54 649.96 419.03 651.49 420.29 651.61 421.59 651.01 422.04 650.06 422.25 649.18 422.16 648.15 421.86 647.58 421.4 643.85 420.9 642.91 420.48 641.62 419.47 641 418.79 639.8 417.77 638.59 416.46 637.64 415.72 636.95 415.52 635.64 415.37 634.96 415.68 634.53 416.17 634.32 416.8 634.14 418.9 633.94 420.18 633.14 422.06 632.81 422.58 631.02 423.73 630.28 424.08 629.25 424.38 628.82 424.78 627.87 426.98 627.37 427.81 626.07 430.52 624.92 432.16 622.85 433.91 621.54 434.49 620.01 434.44 618.12 434.14 616.81 433.48 615.76 432.56 615.27 431.55 615.14 430.9 615.33 429.65 615.68 428.87 616.62 427.8 617.21 427.36 619.88 425.88 620.99 424.77 621.07 423.81 620.32 423.12 618.23 422.58 616.68 422.53 612.62 423.83 609.41 425.13 607.99 425.59 606.77 425.8 604.3 426 602.19 425.94 600.95 426.05 598.67 426.49 595.49 426.93 594.35 426.82 592.6 426.17 592.28 425.61 591.7 423.66 590.62 421.57 590.09 420.68 589.77 419.76 589.69 418.91 590.09 417.68 590.75 416.88 592.57 415.07 594.25 412.9 595.88 410.15 596.54 408.57 596.59 407.74 596.45 405.99 596.12 404.33 596.03 402.34 596.16 400.1 595.86 398.84 595.1 398.02 594.38 397.66 591.99 397.16 588.34 395.92 585.41 395.06 584.51 394.6 583.01 393.62 581.93 392.49 581.12 391.38 580.83 390.7 580.81 390.02 581.13 389.41 582.11 388.41 584.12 387.32 585.26 386.88 586.22 386.39 587.99 385.91 589.81 385.97 593.17 386.39 594.4 386.38 595.57 386.2 597.28 385.76 599.11 385.47 601.55 384.52 603.37 383.32 605.4 381.12 605.7 380.62 605.77 379.57 604.96 378.89 603.29 378.67 602.73 378.49 601.2 377.3 599.85 377.05 596.57 377.03 594.86 377.08 592.04 376.75 588.81 376.29 587.25 376.38 585.7 376.7 583.08 377.71 581.48 378.68 580.87 379.2 580.5 379.85 579.43 380.93 578.21 381.97 577.54 382.32 576.5 382.65 575.54 382.77 574.6 382.71 573.67 382.41 572.27 381.41 571.53 380.18 571.29 379.46 571.22 378.2 570.3 376.88 567.28 375.03 566.64 374.8 564.76 374.95 563.23 375.7 559.79 377.93 559.23 378.57 558.9 379.27 558.93 380.04 559.32 380.59 560.61 381.74 562.36 383.61 563.19 384.25 564.24 385.42 565.45 387.09 567.25 390.08 568.03 391.16 568.65 392.22 569.02 393.31 569.18 394.24 569.07 395.21 568.22 396.8 567.61 397.47 565.79 398.59 564.78 399.02 561.71 399.86 559.32 400.26 556.8 400.82 554.3 400.98 552.48 400.71 551.45 400.38 550.64 399.98 550.46 399.35 549.69 398.46 548.3 397.7 546.8 397.23 546.13 397.13 542.82 396.3 539.28 395.02 537.53 393.99 536.53 392.82 535.15 391.38 534.7 390.63 533.45 389.23 532.62 388.4 530.7 387 529.71 386.56 528.82 386.34 527.02 386.53 526.17 386.97 525.63 387.48 524.88 388.84 523.25 389.91 521.55 390.68 519.81 391.22 519.08 391.57 517.61 392.58 516.53 393.86 516.38 394.37 516.9 395.73 518.01 396.24 519.56 396.22 521.09 396.99 522.19 398.1 523.55 399.28 525.06 401.08 525.63 401.61 526.65 403.05 527.22 404.45 527.36 405.18 527.31 406.92 527.09 407.92 526.68 408.68 525.78 409.68 525 410.3 522.01 411.85 521.08 412.44 520.26 412.63 519.34 413.02 518.61 413.5 517.74 414.33 515.62 416.52 514.92 417.39 513.08 419.09 512.38 419.6 510.94 419.92 510.19 419.92 509.37 419.59 508.53 418.85 508.05 417.95 507.86 417.06 507.89 413.83 507.15 411.13 506.4 409.46 505.81 408.72 504.07 406.24 503.27 404.76 502.81 403.17 502.81 400.24 502.35 396.77 501.93 391.23 502.12 389.56 502.09 387.61 501.87 386.03 501.15 385.06 499.69 384.46 498.15 384.23 496.48 384.45 494.57 385.13 492.7 386.04 491.13 387.1 490.68 387.6 489.34 389.89 488.64 390.62 487.89 391.18 487.26 391.44 485.98 391.5 485.17 390.99 484.21 389.68 483.71 387.9 483.64 386.16 483.35 384.48 483.08 381.47 483 378.26 482.59 375.93 482.22 374.86 481.35 373.85 480.19 373.57 477.37 373.63 476.21 373.8 472.62 374.84 471.4 375.32 467.19 377.66 464.1 379.53 463.29 380.2 462.67 381 462.28 381.91 462.21 382.71 462.35 383.34 463.06 384.88 463.61 385.6 464.13 386.03 465.05 387.24 465.44 387.92 465.65 388.67 465.71 390.27 465.27 391.24 464.24 392.2 462.49 392.81 460.15 392.9 459.14 392.81 456.68 392.21 455.67 392.4 452.61 393.3 449.63 393.79 448.64 393.74 446.8 392.86 445.71 392.08 444 390.49 442.56 389.24 440.78 388.14 439.67 387.53 436.53 386.05 435.62 385.85 433.82 385.71 432.02 386.17 430.39 387.27 429.82 387.9 428.5 389.95 427.29 392.48 426.26 394.14 425.89 395.15 425.36 398.32 425.42 401.01 425.56 402.1 425.4 404.81 424.34 408.81 423.87 409.69 423.13 410.49 422.44 410.95 419.19 411.92 416.37 412.88 415.59 413.26 413.71 414.84 412.83 415.47 411.23 416.35 409.33 417.06 407.36 417.15 406.49 416.96 404.79 416.36 403.92 415.97 402.34 414.97 400.63 414.06 399.82 413.74 396.78 412.88 394.86 412.63 392.47 412.53 387.25 412.7 385.09 412.99 383.89 413.28 381.7 413.69 380.86 414.15 379.55 415.16 378.87 415.9 377.07 417.31 376.36 417.7 374.73 417.95 374.06 417.87 372.9 417.15 372.46 416.49 371.04 414.74 369.43 413.49 367.79 412.43 367 411.82 364.34 409.98 363.39 409.6 361.29 409.2 359.72 409.27 356.78 410.71 356.09 411.16 354.84 412.37 354.17 413.26 352.56 416.03 351.31 417.76 350.61 418.6 349.55 420.15 348.24 421.66 346.58 422.91 344.79 423.74 344.19 423.73 343.45 423.41 343.05 422.84 342.42 421.35 341.76 418.95 341.57 417.39 341.05 415.38 340.64 414.34 340.16 412.5 339.66 411.71 338.61 410.56 337.91 409.97 337 409.61 336.04 409.48 334.06 409.54 331.81 409.96 330.75 410.25 327.57 411.35 325.44 411.7 321.66 413.06 320.56 413.16 319.14 412.83 317.87 411.83 317.26 410.68 316.99 409.34 316.99 408.47 317.31 404.86 317.15 404.04 316.5 401.67 316.46 400.78 316.79 399.4 317.15 398.79 317.63 398.42 318.7 397.93 319.37 397.78 320.58 397.27 322.73 395.64 323.33 395.27 327.36 391.49 328.79 389.88 329.43 389.27 330.5 387.87 330.96 387.12 332.1 384.55 333.18 380.37 333.2 379.37 333.07 377.85 332.2 375.71 330.46 373.55 328.5 371.56 326.55 370.08 325.02 369.14 323.45 367.83 322.7 367.06 319.17 364.21 317.78 363.21 316.86 362.94 315.23 362.88 314.46 363.19 313.72 363.72 313.27 364.25 313.07 365.04 313.22 365.86 314.15 367.71 315.47 369.38 316.53 370.53 317.08 371.33 317.32 372.6 317.18 373.36 316.69 374.35 316.02 374.96 314.08 375.72 312.07 375.82 310.87 375.99 307.85 376.63 305 377.46 303.68 378.03 301.19 379.55 300.01 380.41 298.58 381.29 297.25 382.23 296.19 383.1 295.63 383.79 295.13 384.73 295.15 386.47 295.38 387.71 295.54 390.44 295.84 392.9 295.59 394.01 295.16 395.29 294.53 396.3 293.68 397.14 292.91 397.17 292.36 396.83 292.31 395.89 291.83 395.38 290.99 394.92 288.5 394.2 284.75 393.75 283.01 394.02 282.22 394.34 281.08 395.32 280.89 395.94 281.02 397.8 281.53 399.23 282.54 400.81 283.1 401.36 284.36 402.18 286.41 404.47 288.62 406.6 290.31 408.06 291.51 408.89 293.97 411.08 296.22 413.36 296.94 414.44 297.8 416.02 298.73 418.11 299.43 420.41 299.86 422.33 299.81 424.98 300.11 425.96 301.25 428.32 301.81 429.06 302.72 430 303.5 431.11 303.58 432.38 303.13 433.33 301.38 433.85 299.45 433.86 296.96 433.5 296.03 433.49 293.71 433.95 291.4 434.7 288.96 435.26 287.54 435.72 285.52 436 284.75 435.93 282.83 435.5 280.92 434.7 279.43 433.79 278.86 433.25 278.98 432.3 279.45 431.25 279.65 430.14 279.64 428.67 279.25 426.27 279.08 423.18 279.4 421.29 279.42 419.46 279.51 418.49 279.34 416.28 278.71 414.65 277.91 411.78 277.5 410.94 276.19 407.37 275.75 406.47 275.04 405.41 272.73 401.46 271.89 399.58 269.94 396.63 268.33 394.3 267.46 393.44 266.27 391.7 264.42 389.46 263.11 388.13 262.03 387.24 261.38 387.08 260.77 387.19 259.63 387.88 258.16 388.51 257.19 388.71 255.36 388.92 253.35 389.26 251.63 388.93 250.97 388.59 250.43 388.03 248.74 386.78 248.09 386.03 246.25 384.45 243.69 382.54 242.78 381.73 240.21 379.76 238.55 378.89 237.6 378.5 236.69 378.35 235 378.68 234.19 379.25 233.29 380.47 232.6 382.11 231.84 385.71 231.1 386.81 228.79 389.28 228.21 389.96 226.31 391.72 224.51 393.92 222.45 396.16 220.35 397.71 218.43 398.86 217.65 399.15 216 399.35 215.23 399.29 213.17 398.41 210.88 397.49 209.14 396.63 205.95 395.13 204.21 394.6 203.18 394.17 201.92 393.37 201.39 392.68 200.68 390.87 200.58 389.39 200.2 387.61 199.57 386.03 199.09 384.3 198.95 383.45 198.85 381.7 198.26 379.9 197.71 378.76 196.54 376.92 195.42 374.82 195.19 373.96 195.11 371.55 194.93 370 194.74 367.33 194.29 366.19 193.21 365.18 191.27 363.21 190.12 362.38 189.63 362.21 188.6 362.52 187.54 363.51 186.46 364.28 184.99 366.01 184.32 367.05 182.84 368.64 180.27 371.21 179.21 372.19 176.39 373.57 175.07 374.33 173.85 375.45 172.4 376.55 171.18 377.74 170.92 378.37 170.97 379.11 171.22 379.54 172.42 380.99 173.24 381.24 175.53 381.11 177.58 380.62 178.31 380.53 180.56 380.69 182.96 381.12 185.37 381.88 185.93 382.15 185.82 383.31 185.06 384.36 184.56 384.57 183.43 384.29 180.47 384.53 178.11 385.24 176.64 385.78 173.18 387.51 170.1 388.67 169.06 389.12 168.23 389.72 165.59 391.36 163.76 392.22 161.95 392.72 161.12 392.66 160.26 392.32 157.92 391.12 156.71 390.72 155.62 390.48 153.13 390.28 151.64 389.83 149.91 389.17 147.79 388.27 145.54 387.61 142.98 387.15 141.66 386.81 140.82 386.33 139.47 385.17 138.72 384.39 137.64 382.64 137.52 381.98 136.88 380.45 135.93 378.9 133.37 375.49 131.83 373.86 130.28 372.98 129.12 372.41 127.64 372 126.78 371.86 124.31 371.94 119.47 372.6 117.79 372.26 114.41 370.65 113.2 370 110.99 369.06 109.64 368.6 108.68 368.15 106.6 367.77 105.5 367.83 102.88 368.24 100.83 368.92 98.53 370 96.39 370.76 95.13 371.29 93.95 371.96 92.01 373.36 91.31 374.15 90.37 375.66 90.27 376.49 90.41 377.4 90.73 378.31 91.55 379.98 92.57 381.55 93.03 382.48 93.25 383.36 93.47 385.82 93.88 387.82 94.17 390 94.23 391.34 94.08 393.09 93.5 394.95 93.15 395.56 92.39 396.46 90.96 397.54 90.08 398 87.44 399.07 85.57 399.51 84.64 399.59 84.08 399.32 83.02 398.37 81.55 397.48 80.28 396.47 79.46 395.38 78.07 392.95 77.97 392 78.03 389.92 78.31 388.83 78.15 388.27 78.04 386.93 78.11 384.36 78.61 382.39 79.56 379.35 80.02 378.34 80.89 375.53 81.53 373.97 81.95 372.21 82.82 369.13 82.92 367.19 82.78 365.98 81.97 363.91 81.21 362.21 80.03 359.96 79.2 358.59 78.18 357.88 76.97 357.63 76.43 357.21 75.47 356.17 73.8 354.91 71.56 353.82 69.65 353.27 68.43 353.06 67.19 353.05 64.96 353.41 63.67 353.91 61.77 354.39 60.74 354.75 59.45 355.58 58.67 356.37 58.61 357.59 58.45 358.25 57.68 359.58 56.63 360.97 54.93 362.98 53.88 364.45 52.26 367.32 51.75 369.27 52.04 372.57 52.6 374.76 52.59 375.75 52.26 377.43 51.79 378.53 50.75 380.21 49.61 381.24 48.03 381.86 47.22 382.08 46.34 382.04 45.49 381.76 44.26 381.12 42.11 380.19 40.77 379.8 38.79 378.92 38.12 378.5 37.03 377.27 36.47 375.99 36.25 374.1 36.07 373.45 35.68 371.35 35.23 370.19 34.66 369.53 33.62 368.06 33.12 367.68 31.32 367.08 30.55 366.94 29.23 367.31 28.6 368 28.2 368.16 26.93 368.18 24.35 368.38 21.68 368.67 19.16 368.68 17.65 368.39 16.93 368.37 14.35 367.3 13.46 367.14 9.93 366.84 8.1 366.91 6.8 367.47 4.73 367.73 3.36 367.75 1.81 367.54 1 367.54 2.17 366.14 5.3 363.42 6.61 362.08 7.07 361.39 7.37 360.61 7.9 358.58 8.32 357.49 8.85 356.98 11.06 356.63 13.42 356.44 14.33 356.5 15.31 356.72 16.2 357.14 17.31 358 17.82 358.24 19.32 358.37 20.19 358.13 21.08 356.83 21.45 355.27 21.39 353.68 21.54 351.59 21.91 349.76 22.21 348.96 22.24 347.96 22.54 347.57 23.17 345.77 23.26 344.79 23.15 343.7 22.45 340.14 21.57 337.31 21.18 336.39 20.38 332.52 19.66 331.19 19.63 329.64 19.77 328.72 20.44 326.86 21.24 325.62 22.93 324.04 24.25 323.3 25.82 322.65 27.88 322.14 31.09 321.86 34.08 321.39 36.98 321.21 38.98 320.36 40.55 319.39 41.68 318.3 42.66 316.69 43.45 314.24 43.68 313.1 44.25 311.15 44.66 310.13 45.32 309.04 46.17 307.88 47.37 306.02 49.04 304.63 50.79 303.55 52.33 302.77 53.74 301.63 55.22 301.49 56.04 301.6 57.63 302.03 58.53 302.41 59.3 302.99 60.28 304.25 61.24 306.09 61.46 306.91 61.48 307.96 61.22 309.67 61.74 311.06 62.44 311.68 62.98 311.91 63.97 311.9 65.84 311.33 67.08 310.76 68.32 310.76 71.41 310.88 73.26 311.42 74.85 311.68 75.81 312.05 78.18 312.31 80.19 312.37 81.95 312.67 84.12 312.72 85.41 312.61 86.23 312.69 88.12 313.27 89.63 313.61 90.81 313.71 93.53 313.23 95.37 312.67 97.06 311.6 97.87 310.73 98.64 309.26 98.71 308.52 98.19 306.94 96.49 305.11 95.54 303.85 94.33 301.83 94.03 301.11 93.93 299.89 94.13 299.18 94.88 298.21 96.32 297.44 97.82 296.9 99.49 296.47 102.41 295.81 103.5 295.62 106.01 295.37 107.11 295.09 108.94 294.42 110.87 293.4 112.29 292.83 113.71 291.87 115.64 290.17 116.1 289.6 116.52 287.61 116.9 286.9 118.6 284.79 119.53 284.19 121.34 283.89 122.98 284.02 124.23 283.98 125.17 283.79 126.56 283.29 128.03 282.51 129.97 281.22 131.22 280.52 134.53 278.95 137.84 278.02 140.8 277.59 141.94 276.8 142.52 276.24 143.28 275.07 144.12 274.77 145.65 275.01 148.68 276.14 150.17 276.93 151.56 278.48 152.35 278.98 153.04 279.07 154.91 278.53 155.8 278.05 157.13 277.12 157.96 276.19 159.49 274.82 161.92 273.33 162.39 272.96 163.45 271.82 164.73 269.69 165.03 269.05 165.51 267.36 166.03 265.9 166.53 263.4 166.74 262.92 167.74 261.47 168.98 260.28 169.53 259.55 169.92 258.6 169.83 257.68 169.35 256.66 168.95 256.26 167.93 255.76 165.88 255.48 164.84 255.07 163.63 254.17 163.17 254 161.34 254 160.21 254.18 158.34 254.9 158 254.24 157.13 253.22 155.48 249.75 155.22 245.9 154.98 243.76 155.03 241.75 155.47 239.72 155.92 239.02 156.72 238.37 157.94 237.77 160.13 237.17 161.64 236.89 163.89 236.89 164.76 237.01 167.63 237.64 168.75 237.83 171.76 238.13 173.69 238.62 178.32 240.13 178.92 240.4 179.8 241.12 180.69 241.62 183.43 242.37 184.39 242.49 185.41 242.41 186.95 241.82 187.29 241.45 187.74 240.28 187.75 239.74 187.07 238.62 186.24 237.86 185.37 237.24 181.13 234.44 180.18 233.9 179.7 233.35 179.32 231.78 179.36 231.13 180.07 230.05 180.74 229.51 182.26 228.96 183.56 229.07 185.02 229.81 186.49 230.91 187.69 231.61 189.18 232.2 190.82 232.36 192.11 231.94 194.11 230.77 195.84 229.84 197.2 229.26 198.87 228.78 200.19 228.73 201.84 229.01 202.7 229.04 204.2 228.87 205.44 228.53 206.45 227.73 206.65 227.25 206.7 226.26 206.55 225.07 206.28 224.13 205.07 220.84 204 220.23 202.73 219.79 200.86 219.47 199.34 218.97 198.17 218.74 196.34 218.69 195.23 218.52 194.04 218.02 193.32 217.46 192.59 216.65 192.26 215.99 192.15 215.17 192.16 211.31 191.96 208.88 192.02 207.94 192.26 207.04 192.23 205.81 191.87 203.5 191.99 200.68 192.02 198.73 191.91 198.17 191.29 196.32 189.79 192.64 188.81 192 188.57 191.56 188.18 189.59 188.07 188.64 188.3 187.51 189.16 185.64 189.97 183.51 190.69 182.36 190.68 181.22 191.07 180.79 192.1 180.48 194.35 180.57 196.56 181.25 197.63 181.86 198.73 182.66 199.76 183.1 202.27 183.21 204.85 183.07 206.78 183.06 207.6 182.89 209.27 182.17 212.29 180.97 213.23 180.26 215.08 178.33 217.5 176.23 218.1 175.81 220.2 175.06 221.33 174.46 221.74 173.73 221.8 172.71 221.1 171.23 220.08 170.11 219.46 169.66 218.69 169.43 217.19 168.6 215.91 168.23 214.68 166.96 213.85 166.48 212.62 166.14 212.11 166.17 210.93 166.69 210.23 166.85 209.7 166.74 208.67 165.95 208.69 164.48 209.26 162.8 209.18 162.07 209.31 160.37 209.77 158.79 210.61 157.03 211.09 156.39 211.51 156.15 212.38 156.03 213.22 156.17 215.42 157.27 217.62 159.22 218.09 159.53 218.89 159.69 219.75 159.24 220 158.88 220.52 156.85 220.8 155.36 221.03 153.68 220.96 153.09 220.62 152.2 220.18 150.5 220.27 149.4 220.98 146.74 220.99 145.26 220.78 144.27 220.43 143.53 219.21 142.07 218.13 141.45 217.13 141.32 215.49 141.51 213.84 141.98 210.06 143.33 208.41 143.78 207.17 143.84 206.04 143.55 204.61 142.59 204.66 142.05 205.26 140.88 207.35 138.46 208.66 136.66 210.09 135.07 211.74 133.4 212.89 132.51 214.94 131.48 216.55 130.82 217.67 130.52 218.54 130.07 218.86 129.73 219.51 128.35 219.9 128 221.48 127.71 223.17 127.79 224.15 127.94 226.5 127.85 229.54 128.04 230.83 127.95 233.19 127.17 234.53 126.86 235.83 126.71 236.9 126.81 237.46 127.29 237.94 128.46 238.06 130.1 237.92 131.49 237.92 133.27 238.01 134.29 238.32 135.03 238.79 135.72 239.8 136.73 241.2 137.73 242.48 138.41 243.05 138.85 244.15 139.27 245.21 139.51 246.87 139.6 248.18 139.42 249.9 138.83 251.42 138.06 252.33 136.93 252.42 136.11 252.66 135.48 252.7 134.53 252.91 133.36 252.74 132.63 251.09 129.95 250.45 129.16 248.94 127.62 248.36 127.17 246.43 126.35 245.78 125.4 245.6 124.49 245.67 123.33 246.06 122.42 247.22 121.44 248.97 121.16 250.11 121.29 253.6 123.35 254.6 124.13 255.59 125.19 257.91 128.01 259.22 128.89 260.1 129.09 261.31 129.01 262.11 128.73 262.98 128 264.16 126.46 264.19 124.87 264.67 123.92 265.51 123.29 267.39 122.61 268.24 122.63 270.22 123.14 272.3 123.31 273.82 122.84 274.96 122.29 275.29 121.93 275.4 121.3 274.94 120.27 273.81 118.81 271.7 116.97 271.24 116.79 269.81 116.58 267.87 116.1 266.95 116.16 265.47 115.93 263.3 115.4 261.6 114.84 260.34 114.28 257.77 112.9 257.29 112.39 256.82 111.32 257 110.54 257.45 110.07 258.79 109.33 262.86 108.15 263.96 107.91 264.84 107.96 266.51 108.82 267.8 108.46 268.91 107.83 269.47 107.05 269.88 105.31 269.87 104.58 269.15 103.38 267.44 101.95 266.13 101.1 264.38 99.41 263.37 98.89 261.57 98.26 259.93 97.55 258.84 96.74 258.31 95.65 258.36 95.01 258.21 93.9 258.35 92.42 258.01 91.34 257.42 90.71 257.48 90.33 256.31 89.18 255.58 88.73 253.27 87.79 252.53 86.98 252.24 84.79 251.64 83.2 251.69 82.71 252.25 81.02 253.12 80.04 254.02 79.83 254.84 80.03 256.06 80.6 258.11 82.06 259.31 82.62 260.46 82.57 261.48 81.94 262.79 80.33 263.7 79.67 264.47 79.35 266.95 79.27 269.23 79.62 270.95 79.79 273 80.08 273.45 80.06 274.35 79.49 274.78 78.81 275.28 77.56 275.78 76.87 276.49 75.55 277.22 74.99 278.11 74.6 279.26 74.39 281.19 74.44 282.87 73.55 283.86 72.47 284.18 71.96 285.26 69.74 286.31 67.05 286.94 65.12 287.4 63.32 288 62.15 289.3 60.74 290.45 60.19 292.17 59.82 293.19 59.35 294.13 59.41 295.62 60.16 296.69 60.82 297.14 61.29 297.54 62.28 297.86 64.57 298.04 66.77 298.86 68.29 299.21 69.29 300.28 71.7 301.35 72.84 302.36 73.55 303.15 73.72 303.48 73.42 304.17 72.26 304.56 70.74 304.82 68.8 305.27 67.63 306.05 66.45 306.78 65.57 308.26 64.3 308.91 64.14 310.18 63.49 311.74 64.05 312.29 64.59 312.24 66.01 312.07 67.29 311.44 68.44 310.04 70.02 309.54 71.36 309.67 72.07 310.18 72.76 310.69 73.14 313.1 74.43 315 75.17 316.99 75.76 318.33 76.5 319.92 76.66 320.85 76.57 323.37 75.9 324.72 75.63 328.7 75.25 330.38 75.42 331.36 76.29 331.9 77.71 332.77 79.48 333.36 80.32 334.03 80.59 335.75 80.82 336.68 80.69 338.36 80.01 339.98 79.88 340.97 79.49 341.94 78.6 341.77 77.65 341.01 76.8 339.19 75.37 338.31 74.18 337.68 72.43 337.18 71.45 334.88 69.46 334.2 68.8 333.25 67.26 332.95 66.08 332.89 64.83 332.41 63.01 332.13 61.54 331.42 60.58 329.14 58.12 328.94 57.63 329.06 55.98 329.32 54.86 329.67 54.16 331.63 51.78 333.39 50.11 334.24 49.04 335.31 48.02 336.2 47.04 337.32 46.14 338.28 44.86 338.88 43.68 339.16 40.87 340.37 39.9 341.07 39.62 343.89 39.38 344.98 39.52 346.3 39.85 347.54 39.88 348.67 39.64 349.51 39.26 350.06 38.62 350.5 37.33 350.88 36.67 350.58 35.81 349.36 33.61 348.25 32.16 345.91 30.17 345.21 29.41 344.03 27.17 343.9 26.32 344.04 25.44 344.41 24.85 345.39 24.77 346.15 24.96 346.92 25.59 348.89 27.9 350.52 29.17 351.66 30.19 354.01 32.1 355.64 33.08 358.5 34.67 361.54 35.92 364.29 36.56 366.66 37.52 369.18 38.79 369.95 38.87 370.63 38.64 371.1 37.93 371.14 37.17 370.53 35.94 369.8 35.12 366.94 32.32 366.21 31.52 365.62 30.59 364.97 29.11 364.34 27.99 363.38 27.08 363.14 26.58 363.18 25.81 363.49 25.3 364.08 25.01 365.79 24.8 366.28 24.94 367.17 25.73 368.3 27.15 369.87 28.77 370.52 29.2 371.61 29.64 372.45 29.75 373.49 29.59 374.76 29.11 377.06 27.7 378.35 26.99 379.27 26.61 380.29 26.39 381.53 26.28 382.16 26.37 383.89 26.87 385.89 27.93 386.66 28.21 388.42 28.29 389.12 27.78 389.35 26.62 388.57 25.54 387.66 24.65 385.22 23.3 382.38 21.57 381.65 21.34 380.08 21.59 377.97 21.24 375.93 20.39 374.97 19.64 374.58 18.8 374.4 17.82 374.42 16.35 374.62 15.38 375.59 14.57 378.99 13.24 380.81 12.94 383.38 12.01 384 11.07 384.43 9.33 384.45 8.43 384.66 6.05 384.86 5.09 385.43 4.36 387.22 3.07 388.27 2.73 389.48 2.77 390.13 2.95 390.67 3.33 391.86 4.95 392.48 6.42 393.43 7.54 394.04 8.26 394.38 9.58 394.78 10.19 395.6 10.87 396.62 11.5 399.35 12.4 401.58 12.63 403.3 12.26 405.48 12.44 406.98 12.76 409.39 12.83 410.28 13.15 410.95 14.27 411.29 15.37 411.3 16.49 411.5 16.98 412.49 17.62 413.79 18.32 415.22 18.36 416.1 17.77 416.23 17.1 415.95 16.08 416.13 15.28 415.33 14.18 415.2 13.4 415.7 12.79 416.44 12.52 417.26 12.47 418.69 12.07 419.67 12.11 421.76 13.51 421.89 14.21 422.3 14.8 422.66 15.78 423.33 16.42 425.27 17.07 426.37 17.18 427.08 17.09 428.19 16.19 428.5 15.1 428.5 13.01 428.62 11.24 428.77 10.43 429.24 9.42 429.87 8.4 430.91 7.37 431.65 6.34 431.78 5.92 432.48 5.32 434.16 4.89 434.85 4.12 435.75 3.47 436.33 3.34 438.21 2.52 439.47 1.34 440.44 1.1 442.06 1.13 443.07 1 444.69 1.29 445.5 1.3 447.95 2.03 449.46 3.99 449.96 4.28 450.14 5.47 450.04 6.22 448.18 8.26 448.36 9.01 447.01 9.83 445.86 10.14 444.98 10.25 441.72 11.41 440.39 12.15 439.35 12.16 438.54 12.73 438.3 13.36 438.38 15.17 439.23 17.32 440.59 18.3 442.98 18.86 443.71 18.7 444.87 17.84 445.85 16.86 446.34 15.97 446.74 14.4 447.67 13.73 448.32 13.5 449.11 12.95 450.07 12.68 451.24 12.61 452.09 12.77 452.56 13.11 452.77 13.67 454.02 14.33 455.08 14.52 456.98 15.75 457.65 15.87 458.92 16.6 459.91 17.65 460.16 18.16 460.95 18.5 462.13 18.66 463.56 18.27 465.55 16.56 466.09 16.37 466.25 15.79 465.3 13.79 465.16 13.04 465.25 12.35 466.44 9.77 467.23 8.68 467.91 8.25 469.16 8.06 470.47 8.23 473.07 9.28 473.6 10.08 474.22 11.51 474.89 12.5 475.6 13.22 477.08 14.45 477.36 15.21 477.24 15.71 476.61 16.35 475.78 16.52 474.28 16.66 473.4 17.41 473.62 18.2 474.56 19.11 475.42 19.69 475.98 20.47 476.55 22.04 477.76 24.26 478.18 24.46 478.97 23.86 479.3 22.51 480.9 20.97 483.18 18.49 483.47 17.73 483.66 16.13 484.33 14.08 484.47 13.27 484.23 12.35 484.45 12.05 485.38 11.98 487.69 12.42 489.23 13.01 489.79 13.37 490.44 13.29 491.78 12.26 492.12 11.48 492.91 10.81 494.32 10.32 495.44 10.19 497.2 10.7 497.95 10.83 499.69 11.56 500.54 13.13 501.76 15.94 502.01 16.72 502.56 17.76 503.12 18.23 503.76 19.51 504.82 20.8 505.36 21.8 506.82 23.37 508.07 24.25 509.35 24.88 510.61 25.73 512.25 26.23 513.11 26.18 513.98 25.61 514.32 24.8 514.58 23.28 514.54 21.92 514.39 21.15 513.43 19.03 513.02 18.34 512.65 16.66 512.7 15.31 513.12 13.96 513.18 13.03 513.93 12.58 514.83 12.61 516.24 13.08 517.69 13.14 518.66 13.47 519.32 13.85 520.82 15.52 522.33 16.7 523.27 17.15 524.54 17.49 525.29 17.42 526.13 16.23 526.29 15.75 527 14.56 527.59 12.34 528.01 11.21 528.91 10.51 529.9 10.77 530.53 11.4 531.01 12.17 532.28 12.81 534.02 13.11 535.16 13.18 535.78 13.36 537.17 14.08 537.61 14.59 538.14 16.87 538.15 17.71 537.71 18.48 537.82 19.83 537.71 20.45 538.13 21.36 539.6 22.51 541.23 23.55 542.1 24.27 544.38 24.73 546.14 25.17 546.71 25.19 547.58 25.58 548.21 26.19 549.52 26.56 550.72 26.44 551.45 26.18 552.42 25.57 552.76 25.18 552.95 23.67 553.17 22.72 553.04 22.2 552.55 21.54 551.85 20.92 550.27 20.1 549.64 19.95 548.5 19.33 547.09 18.28 546.95 17.72 547.36 17.44 549.59 17.56 550.87 18.06 552.91 18.4 553.93 17.91 554.28 17.06 553.92 16.31 553.21 15.46 552.07 13.84 551.68 12.89 551.91 11.88 553.2 10.11 554.6 9.1 556.42 8.06 557.59 6.94 558.4 6.64 559.2 6.58 561.11 6.85 562.11 7.18 562.78 7.6 563.26 8.11 564.31 9.71 564.95 10.2 565.86 10.45 568.47 10.25 569.13 10.1 569.86 10.23 570.83 10.89 571.49 10.9 572.38 11.18 573.1 12.11 573.36 13.18 573.36 14.27 573.6 15.19 573.63 16.01 574.12 16.73 574.26 17.85 574.51 18.5 575.02 18.96 575.67 19.84 575.8 20.41 574.89 23.06 575.2 24.21 576.23 25.05 577.08 25.55 578.78 26.35 579.95 26.8 581.11 26.98 584.25 27.21 585.08 26.85 585.35 25.95 585.03 24.99 584.83 23.81 584.13 22.72 582.94 21.46 581.72 20.71 580.6 19.38 580.4 18.79 580.49 17.72 581.06 16.97 582.8 15.64 584.08 14.88 584.54 14.82 585.32 14.37 586.11 14.27 587.12 13.29 587.61 12.55 588.44 11.69 589.47 10.85 590.19 10.71 592.71 11.38 593.23 11.7 594.07 12.72 594.5 14.38 594.86 15.24 595.45 15.66 595.58 16.13 596.59 16.4 597.89 16.47 599.61 16.76 600.45 16.79 601.42 16.57 602.33 16.87 604.12 17.16 604.85 16.88 605.64 15.87 606.41 15.34 607.21 15.13 609.26 15.19 609.87 15.69 610.53 16.99 Z"/>
</g>
</svg>