<?xml version="1.0"?>
<svg xmlns="http://www.w3.org/2000/svg" version="1.2" baseProfile="tiny" width="800" height="633" viewBox="0 0 800 633" stroke-linecap="round" stroke-linejoin="round">
<g id="4217303">
<path d="M 351.01 33.97 348.44 32.46 346.6 32.8 346.45 37.49 347.28 39.92 350.03 44.04 352.17 46.53 352.49 48.01 351.87 51.44 353.7 55.87 355.5 56.76 362.32 56.1 364.53 56.83 365.36 58.52 369.81 64.46 372.31 65.18 376.29 64.18 377.99 60.64 383.48 53.2 386.36 54.31 388.02 60.81 388.17 67.29 387.67 75.23 388.08 80.97 387.84 83.36 386.58 85.55 382.85 88.35 378.68 92.15 374.12 94.4 369.6 94.44 365.11 93.89 361.43 92.37 359.34 93.09 357.4 94.84 355.15 95.58 348.87 93.53 346.19 90.65 343.42 88.8 337.06 88.61 336.53 90.1 337.58 92.93 336.06 94.85 332.88 96.65 328.7 97.66 327.44 99.07 326.73 105 326.63 111.31 328.39 115.52 333.12 118.95 346.61 125.52 349.3 127.11 350.24 128.76 350.33 131.28 349.17 134.1 347.28 136.55 345.08 138.22 338.57 139.79 333.49 139.82 326.7 137.51 324.12 135.7 315.76 128.83 310.58 126.6 309.19 127.02 308.17 130.25 313.37 141.15 314.9 143.59 315.3 148.45 314.14 154.74 314.18 160.02 315.53 161.94 318.57 164.27 328.13 166.95 333.4 168.74 337.74 172.12 339.99 177.1 341.12 182.5 340.53 186.64 340.92 189.2 340.36 192.14 340.97 193.61 342.97 194.34 347.23 193.37 356.2 189.1 358.17 188.5 361.07 189.68 363.55 192.51 368 196.12 368.05 198.69 365.21 201.55 359.1 204.17 351.87 206.84 347.22 209.12 342.49 213.2 341.53 214.7 341.84 217.94 346.76 225.44 348.07 226.03 348.79 229.52 351.36 231.11 369.02 235.66 372.63 237.87 374.31 239.89 374.52 242.4 373.83 244.8 371.89 248.65 370.9 252.71 367.74 259.82 367.12 262.1 368.33 269.49 369.94 272.72 373.23 274.79 382.54 277.22 388.23 277.17 391.82 276.64 396.27 275.46 400.08 273.98 403.78 273.36 406.84 273.76 410.56 275.45 417.69 274.79 421.62 274.09 425.13 274.59 428.95 274.29 429.88 273.01 429.56 271.19 431.06 268.43 433.61 269.07 435.93 268.57 439.5 266.94 442.18 267.2 445.12 264.75 449.53 264.99 452.76 263.65 457.03 264.81 458.54 265.87 462.29 266.75 466.41 266.8 469.22 267.92 471.64 269.76 475.38 273.44 477.37 273.7 481.24 272.56 484.81 272.62 484.96 318.4 542.27 316.32 542.53 307.26 599.34 308.05 596.13 316.05 640.76 316.37 639.97 313.61 641.08 311.78 645.54 310.86 646.92 309.76 651.78 309.23 655.41 310.07 657.81 311.6 659.26 311.36 664.04 307.59 669.5 305.46 682.41 303.42 718.97 296.36 717.8 300.52 719.47 306.18 720.47 307.62 720.76 310.08 723.33 314.68 726.48 315.55 731.19 317.94 737.92 319.34 740.9 321.61 743.11 327.42 745.9 329.83 746.45 335.67 749.78 339.7 748.63 341.77 746.27 343.91 746.47 347.92 745.19 352.53 747.1 352.94 749.08 355.48 748.85 358.78 746.07 359.63 744.47 365.59 741.09 365.98 739.49 368.99 739.6 374.32 737.12 376.5 736.36 378.55 737.91 380.05 740.57 380.63 744.45 385.03 746.71 387.11 746.02 389.5 744.02 390.12 742.43 393.4 738.78 394.12 740.96 397.4 742.55 400.78 742.85 402.8 740.9 405.41 741.52 413.4 742.35 414.96 741.65 416.9 739.29 418.32 741.26 421.19 741.25 423.62 739.91 427.58 738.64 428.93 739.47 432.28 741.65 435.06 742.91 439.45 746.19 440.21 747.66 438.96 749.46 438.89 750.61 440.26 757.08 445.49 757.92 444.78 761.56 446.38 764.15 444.18 767.37 447.79 770.95 450.26 771.86 451.72 770.48 456.09 771.84 458.16 775.51 458.55 778.16 455.32 782.78 456.49 788.28 457.33 788.85 458.39 788.41 462.63 789.3 463.46 793.31 462.98 793.95 467.33 799 470.35 793.57 477.09 793.48 478.58 795.38 480.66 794.27 483.3 793.87 486.1 792.16 489.45 790.25 490.69 789.99 492.75 792.44 496.27 790.32 497.17 787.75 495.28 785.4 494.81 780.85 497.15 780.66 499.31 778.12 500.65 774.12 500.91 771.65 502.3 771.88 504.52 771.12 509.31 773.01 511.81 772.1 515.22 774.33 518.28 778.26 519 781.28 522.96 781.96 526.32 781.92 530.17 779.89 531.69 781.01 533.95 779.71 535.01 781.11 536.95 783.87 537.39 785.94 541.58 785.75 543.29 788.44 545.64 786.67 547.47 786.84 549.13 785.71 551.02 786.89 552.77 789.14 554.11 789.29 555.99 787.95 558.78 789.13 559.23 784.81 563.06 784.1 565.3 779.75 565.04 777.21 567.64 776.22 566.07 776.37 562.11 773.3 557.47 770.46 556.06 769.56 553.41 767.06 551.78 759.64 549.23 758.05 549.07 750.85 549.87 739.8 551.93 727.63 555.53 718.11 559.45 712.06 562.14 696.84 570.66 688.05 577.11 681.68 581.44 672.03 590.57 663.48 600.59 650.05 613.83 646.87 610.91 642.61 610.52 634.27 611.18 626.88 611.41 622.86 610.64 621.09 609.45 619.61 606.23 618.75 594.96 617.55 587.36 616.6 585.89 614.41 585.6 610.48 586.41 602.68 589.14 589.87 588.54 586.57 587.67 583.18 584.35 546.61 630.97 435.58 628.25 353.68 626.92 345.43 631.34 333.34 632 333.53 619.93 310.98 620.43 312.36 617.57 311.94 614.38 312.83 612.09 316.2 609.47 317.74 606.02 317.78 604.16 319.65 598.84 320.29 595.18 323.06 591.22 324.31 588.21 318.16 587.02 314.56 585.64 310.4 587.85 306.3 587.76 303.26 587.02 299.4 588.54 295.84 586.5 291.52 586.05 289.29 586.27 280.9 585.58 277.44 584.5 271.8 587.06 267.73 587.73 265.93 585.26 263.65 583.76 259.75 583.81 257.65 582.21 256.13 582.04 252.81 579.89 248.87 578.44 243.77 577.9 241.07 578.83 239.11 564.49 236.34 568.02 172.02 547.66 176.61 535.63 112.72 518.86 112.18 516.28 111.8 510.05 110.98 508.08 113.32 504.4 114.52 503.68 116.2 500.31 130.5 474.28 127.75 472.84 125.23 472.62 124.19 471.49 121.51 470.95 119.09 468.62 112.95 467.94 110.41 466.96 107.37 464.76 105.04 461.86 100.48 459.93 96.09 462.11 92.55 463.04 90.31 464.18 79.42 463.04 86.25 446.83 80.09 417.72 78.94 413.49 78.51 408.05 79.28 406.12 78.56 402.32 78.63 399.97 80.71 396.35 82.2 384.32 83.38 378.25 82.88 375.05 85.06 372.85 85.54 371.44 87.43 370.18 87.24 366.94 89.76 365.36 89.5 362.65 91.65 358.29 96.72 353.79 103.79 348.99 105.92 346.72 106.88 343.96 106.4 341.27 107.67 338.24 107.74 331.77 102.34 332.64 99.67 334.58 97.08 335.23 94.48 332.79 88.63 333.96 86.54 332.7 84.71 328.8 82.47 327.12 80.93 326.86 72.8 326.74 71.57 329.86 67.44 331.6 64.57 329.89 62.79 327.59 62.18 325.26 60.24 324.85 55.87 288.89 39.53 263.04 44.93 257.75 49.2 256.02 55.48 254.21 58.2 250.61 60.86 244.35 66.51 243.43 27.42 214.8 27.19 212.26 26.04 210.32 26.46 207.13 25.66 204 27.71 198.45 31.25 198.53 35.5 194.97 39.02 195.11 41.48 194.1 42.03 191.98 43.96 190.29 45.44 187.3 46.65 186.69 53.52 187.49 58.25 186.5 60.79 186.4 63.43 185.54 63.69 182.92 62.06 178.2 62.44 176.52 56.43 177.44 54.23 176.58 51.99 177.33 49.11 175.29 45.98 176.35 44.42 174.64 41.51 174.07 36.72 171.86 34.34 172.23 33.35 168.69 26.83 162.75 25.61 160.72 23.97 154.08 21.62 150.63 18.69 147.16 17.72 143.87 16.15 142.11 1 76.59 9.07 84.12 11.22 85.14 13.31 85.21 16.57 83.91 18.86 81.76 21.09 83.07 26.44 87.39 28.79 86.45 33.05 82.35 35.61 80.5 36.4 77.32 37.26 76.64 33.57 74.68 32.94 73.12 34.6 70.61 39.15 69.56 44.25 67.52 45.22 65 45.45 61.3 43.72 56.05 47.59 55.92 50.22 58.89 52.37 60.37 53.71 59 55.45 53.3 56.2 53.07 60.9 54.69 62.83 52.24 59.4 46.02 57.93 44.08 58.27 42.8 62.19 40.53 63.82 37.93 106.71 46.37 107.45 44.32 107 41.64 107.76 39.48 109.46 39.14 110.96 36.64 110.97 34.31 116.57 33.83 115.91 30.32 117.99 28.18 119.85 27.35 120.7 24.78 122.08 23.14 125.24 21.95 127.33 20.56 128.09 18.88 130.21 17.36 133.85 17.06 134.58 14.58 136.54 11.24 135.39 8.98 136.83 6.94 136.38 1 178.16 4.89 181.92 6.16 182.98 7.33 189.17 9.13 191.31 10.12 198.48 12.47 203.23 10.85 208.95 10.28 213.08 10.66 214.69 12.24 217.15 11.11 220.49 11.08 223.4 12.29 226.28 12.62 227.44 13.82 230.4 13.36 232.4 14.49 233.43 13.17 236.94 12.24 239.41 12.62 242.08 11.48 242.85 13.22 245.68 13.36 246.76 14.74 250.86 17.16 254.08 15.49 256.69 15.13 257.03 13.87 260.51 14.81 262.83 14.51 263.39 13.15 266.08 12.48 269.16 13.24 270.05 11.03 275.96 11.95 281.1 11.8 281.36 14.08 292.99 13.18 294.82 14.27 297.21 14.24 299.41 15.05 300.79 18.39 302.53 18.26 304.6 16.71 308.8 15.7 314.28 15.89 318.37 15.43 320.56 15.85 323.91 14.1 325.75 14.52 330.64 16.99 336.34 16.03 344.5 18.84 346.36 22.27 347.39 22.96 352.67 23.85 356.3 26.34 355.55 29.97 353.18 30.95 351.01 33.97 Z"/>
</g>
</svg>