<?xml version="1.0"?>
<svg xmlns="http://www.w3.org/2000/svg" version="1.2" baseProfile="tiny" width="800" height="1012" viewBox="0 0 800 1012" stroke-linecap="round" stroke-linejoin="round">
<g id="4217105">
<path d="M 696.79 364.74 699.65 365.22 703.95 366.78 706.73 369.08 707.59 371.22 717.12 374.18 721.72 369.56 725.34 364.22 727.42 361.98 739.53 353.44 742.6 350.76 744.68 346.24 746.4 344.58 749.12 343.71 752.66 343.92 756.5 342.03 764.21 342.9 767.25 340.65 769.79 339.48 770.91 337.73 775.73 334.04 777.54 335.91 776.78 339.8 777.18 341.33 782.08 348.69 782.07 352.07 784.74 356.43 786.02 355.35 785.95 353.46 787.28 352.66 792.07 351.91 795.79 350.32 798.42 350.25 799 352.94 795.26 355.59 794.94 358.14 795.74 360.98 794.57 362.42 796.48 366.05 793.83 368.28 793.13 370.88 791.99 371.87 789.18 372.04 787.96 374.21 784.29 375.73 783.09 377.49 784.51 378.88 785.57 382.47 785.19 386.14 785.84 389.35 787.09 390.79 787.06 392.83 788.59 397.3 791.77 404.12 791.44 410.01 793.02 414.32 793.32 417.17 793.09 421.84 794.1 422.98 794.92 427.43 793.33 429.82 771.9 513.35 737.67 646.73 734.93 647.89 731.79 650.06 720.85 658.95 716.66 660.71 712.45 659.2 710.33 658.99 704.56 659.73 702.12 660.45 694.13 660.81 688.94 663.12 685.38 663.38 680.6 663.04 675.84 661.76 674.12 661.99 671.7 666.05 670.11 666.37 667.69 665.19 663.26 660.24 662.64 657.46 659.4 653.91 660.15 648.02 658.16 646.04 652.5 646.47 650.44 645.78 648.97 642.28 647.79 642.35 646.37 645.22 644.51 645.66 642.78 642.84 639.64 642.58 638.11 644.26 635.24 644.16 633.44 643.05 632.07 639.65 632.15 633.2 630.09 630.84 631.53 627.1 629.15 626.85 627.95 625.25 625.37 624.84 623.6 622.23 616.32 617.53 613.1 616.36 609.81 614.37 608.02 613.96 604.63 618.73 602.43 618.79 601.43 620.64 599.69 621.19 593.06 619.69 591.04 619.95 589.13 623.46 588.43 626.37 585.62 631.43 584.75 630.32 581.73 630.15 577.88 632 575.16 630.8 575.9 627.11 571.92 624.58 571.76 622.83 573.24 616.87 568.78 612.75 565.58 612.11 515.24 748.91 535.36 779.13 625.06 913.87 623.75 919.73 624.57 921.72 632.94 931.22 634.04 935.01 635.2 936.84 634.95 939.01 631.5 942.39 630.55 944.3 630.26 947.52 627.8 954.27 629.14 958.62 633.9 960.51 635.65 962.76 634.75 966.43 631.14 970.49 629.28 973.92 628.46 978.05 626.2 981.96 626.28 983.89 627.68 985.62 632.11 989.27 631 990.21 624.39 992.21 620.08 994.18 612.29 994.6 607.97 996.69 602.99 997.19 599.13 998.15 590.02 992.6 584.23 991.05 580.06 991.95 574.02 992.43 569.59 994.83 562.27 997.44 553.71 1000.84 548.36 1001.17 546.13 1001.72 540.9 1001.83 534.18 1001.23 531.43 1002.28 528.68 1001.8 521.14 1001.79 516.63 1000.88 512.93 1001.22 504.9 1000.54 503.95 1000.79 501.69 1004.93 494.29 1007.54 492.49 1009.17 488.9 1011 479.5 1010.78 477.99 1010.26 477.01 1006.88 471.37 1005.4 466.22 1005.15 461.95 1000.54 458.79 999.86 454.16 1001.54 448.65 1004.11 445.88 1004.34 442.57 1005.85 440.62 1005.71 440.37 1004.13 441.44 1001.88 431.64 996.87 430.77 996.75 425.8 998.83 423.42 998.92 419.97 998.02 417.5 998.17 411.84 1002.41 410.1 1002.52 409.23 1000.42 406.35 999.07 403.23 993.83 402.4 991.17 397.5 985.68 391.34 976.09 391.07 971.95 395.13 975.32 401.09 976.76 405.87 976.6 408.63 975.74 412.21 972.38 413.6 969.59 415.58 963.93 417.2 957.57 417.11 955.11 419.56 952.13 419.53 949.98 420.55 946.99 420.18 945.78 419.82 938.42 419.05 937.12 412.64 934.27 409.45 933.95 402.07 932.54 399.64 931.29 392.44 928.77 389.57 927.34 384.33 925.75 381.27 924.01 377.58 920.06 375.15 918.25 371.78 913.14 366.69 908.68 363.45 904.55 356.62 897.7 356.28 894.87 357.23 892.29 366.68 883.33 369.65 881.04 380.12 873.87 385.86 870.39 387.97 868.14 387.7 866.5 380.88 860.61 377.6 856.09 369.36 854.23 363.44 853.62 358.26 850.63 353.61 848.68 353.56 846.42 356.61 843.76 362.71 839.2 366.82 835.21 370.18 833.37 371.45 832.02 371.54 825.45 371.06 822.58 368.57 818.98 368.27 816.47 370.02 811.36 374.11 807.62 376.3 806.77 379.47 807.94 382.84 808.14 385.7 806.52 386.27 800.51 385.21 799.21 377.46 793.26 376.23 790.57 376.21 780.75 375.72 775.64 372.75 775.11 371.25 776.1 369.36 779.11 367.98 783.37 364.49 784.13 364.93 788.31 367.77 791.77 365.61 793.14 363.62 793.37 361.86 796.42 357.72 797.06 353.79 795.27 349.64 791.01 347.44 790.96 347.76 788.07 347.04 784.58 347.29 782.68 344.49 778.74 345.73 777.18 342.89 776.43 342.16 775.29 342.98 773.26 339.12 773.73 335.51 772.78 332.6 773.1 331.22 775.11 329.42 774.27 327.18 775.54 323.75 773.1 320.57 773.14 321.06 770.95 319.31 769.53 316.82 769.2 316.44 768.03 319.9 766.84 324.06 766.17 321.16 761.7 318.44 761.23 317.44 757.1 313.28 753.6 309.55 748.46 311.3 745.87 310.03 745.29 307.05 740.93 301.66 740.59 300.75 736.85 298.29 734.03 296.7 733.95 293.59 735.16 288.13 738.7 279.02 742.72 277.33 742.54 274.26 737.79 274.52 735.52 277.35 727.09 280.97 724.48 283.88 724.92 285.94 724.49 286.65 721.34 285.77 716.69 284.11 712.96 283.76 709.29 284.33 707.86 282.46 706.82 280.28 707.7 279.16 705.47 279.16 701.56 276.59 701.9 276.68 704.74 275.17 705.72 271.91 705.13 269.05 707.96 265.58 709.4 260.1 708.12 258.06 708.31 254.44 710.31 253.48 712.41 249.63 716.05 244.54 716.92 246.24 711.41 245.59 709.93 243.48 709.4 239.3 710.07 236 711.51 235.42 706.67 235.88 704.92 234.09 703.14 230.23 705.61 228.45 701.17 226.98 700.63 224 704.18 221.11 705.83 216.86 705.66 215.4 703.24 216.37 700.44 217.39 694.59 215.78 689.57 218.58 686.5 220.52 687.08 222.41 685.16 225.87 685.57 227.18 682.71 226.72 678.11 228.8 678.19 227.54 673.81 226.52 674.69 222.72 672.32 221.31 667.31 216.87 660.38 215.26 659.54 215.4 657.91 212.72 651.6 209.47 650.82 207.06 653.86 205.39 654.72 198.13 652.72 196.09 651.63 195.33 649.25 192.21 645.14 192.56 643.81 187.06 644 183.76 645.04 177.92 645.15 172.74 648.09 169.57 645.83 167.32 651.07 165.56 652.44 161.46 652.07 155.02 649.88 154.5 647.04 150.93 646.24 148.6 647.45 144.71 650.68 144 652.13 141.52 651.22 136.6 648.93 133.8 648.89 130.04 645.09 130.3 643.6 126.71 640.53 123.49 642.18 120.17 641 117.08 641.33 114.48 642.55 113.78 644.15 111.6 645.46 109.64 648.66 107.62 650.68 105.04 649.78 103.98 648.3 104.17 646.18 101.73 645.29 103.03 643.3 102.63 641.06 96.54 641.42 95.41 640.87 92.92 632.79 89.04 633.4 88.22 629.47 85.66 627.3 82.47 627.37 79.32 624.04 76.43 622.79 75.02 623.5 74.68 627.51 72.49 625.72 70 624.67 70.65 621.4 62.92 619.38 58.65 620.33 55.04 617.87 55.32 614.3 52.7 611.66 52.64 610.34 48.37 607.72 47.49 605.89 48.64 602.05 45.92 603.01 43.56 601.44 43.54 599.24 41.72 597.61 43.74 596.41 43.79 593.04 43.06 590.5 41.38 589.42 36.84 584.39 38.72 580.59 38.87 577.02 40.58 574.45 37.37 572.64 38.14 567.62 37.05 561.87 35.81 559.14 30.76 553.73 37.69 550.22 34.01 545.01 34.36 541.27 31.45 539.44 33.07 536.44 29.73 529.14 29.7 524.48 25.16 521.67 19.1 518.61 14.5 517.05 12.09 514.66 8.57 508.37 4.59 506.42 8.65 503.91 10.68 498.26 10.92 495.51 7.02 491.62 4.93 491.5 1 492.36 2.84 489.16 3.96 484.34 3.48 478.79 8.28 474.21 11.02 472.22 10.84 468.28 15.27 465.71 13.28 458.93 10.72 456.92 12.47 451.71 12.17 448.56 13.62 445.95 11.31 441.61 9.14 439.57 8.45 436.84 10 432.85 12.64 430.62 14.75 427.97 15.36 423.18 17.33 418.06 17.52 414.92 20.92 407.24 23.08 405.84 18.78 401.65 14.96 401.26 10.33 399.81 9.16 396.87 6.59 394.59 7.17 391.62 10.65 389.56 11.36 387.83 10.5 385.97 11.25 377.98 10.3 374.33 11.58 365.47 12.45 364.17 12.83 360.63 10.98 357.61 9.97 352.81 10.88 348.72 13.27 346.22 13.52 344.92 10.66 337.44 7.82 331.48 7.15 324.59 8.51 321.17 5.35 317.08 4.31 312.71 6.6 308.78 11.97 305.11 14.81 305.83 15.9 303.55 16.42 300.31 16.13 295.85 14.28 292.81 14.72 289.72 14.44 285.53 16.85 285.7 17.97 284.37 22.07 283.46 22.76 281.9 26.34 282.1 32.18 279.74 34.52 278.01 40.22 272.19 40.6 270.97 39.32 266.66 41.41 262.45 40.68 260.05 42.06 258.31 39.09 253.79 36.44 252.74 38.32 248.31 36.46 244.54 29.79 243.92 30.83 239.48 29.79 233.06 31.11 230.42 32.92 229.4 36.11 229.96 38.46 229.55 37.28 226.87 36.7 223.13 34.07 221.55 31.02 218.23 29.35 217.85 27.31 213.8 25.34 211.94 23.55 209.15 21.64 209.09 18.17 211.14 14.96 210.21 10.71 207.6 10.11 205.77 12.34 203.9 14.56 199.8 16.91 197.23 18.16 193.78 20.83 188.68 21.08 186.34 26.07 179.11 36.24 175.78 38.36 177.02 40.36 180.4 42.11 182.06 48.24 181.48 49.77 183.15 53.81 182.03 55.39 181 57.49 174.24 59.18 172.56 61.37 169.13 61.17 166.54 64.77 161.79 67.59 160.96 68.72 158.5 70.76 159.56 77.29 158.64 80.08 154.67 79.03 152.04 79.65 149.55 77.74 144.98 77.81 140.97 78.93 138.7 78.68 136.27 79.4 133.6 80.59 132.54 81.73 128.62 86.86 122.31 89.76 119.63 91.7 118.75 89.11 116.87 90.98 110.84 89.9 107.08 86.83 102.47 85.41 97.55 88.65 93.21 90.51 91.63 89.99 89.72 86.98 88.89 86.35 85.87 82.37 84.09 82.06 81.95 80.44 80.73 80.34 78.03 77.71 74.98 75.07 74.81 73.76 73.24 73.63 71.28 70.99 69.7 68.18 65.82 68.03 62.73 70.32 59.32 73.14 57.51 72.91 52.31 75.32 47.96 74.87 45.01 73.18 44.63 71.08 42.53 71.1 39.12 73.44 34.76 72.56 31.94 66.56 26.78 66.24 25.42 61.63 24.64 56.85 20.34 56.02 17.92 57.52 17.18 58.15 12.74 56.95 11.49 55.69 6.11 56 1.64 57.1 1 61.06 1.52 62.45 2.75 64.76 10.48 66.89 13.87 70.64 15.06 74.2 13.07 77.94 15.8 80.44 16.52 85.7 16.58 87.62 21.42 89.93 25.71 89.23 29.63 87.14 33.31 86 38.86 86.11 46.66 87.53 49.01 87.27 54.93 88.23 56.28 94.07 56.58 95.08 59.8 96.92 62.14 98.49 61.53 99.29 59.73 102.98 60.92 101.76 64.91 101.69 68.12 104.56 69.15 111.62 66.97 115.64 68.5 115.89 71.38 114.47 75.91 118.26 78.22 119.68 80.2 122.32 81.39 124.05 83.83 121.72 90.61 124.12 91.26 122.48 94.81 125.99 96.24 126.4 98.4 125.08 99.51 124.46 102.71 120.42 104.43 117.45 104.49 116.01 105.52 113.89 109.87 113.44 114.08 111.84 116.82 110.85 121.75 110.94 124.53 111.87 128.89 111.38 133.23 113.35 139.98 117.51 143.88 119.22 146.39 119.29 147.81 117.58 151.73 118.39 154.91 119.49 156.52 119.33 159.44 121.85 164.55 124.15 167.42 128.21 171.45 128.86 173.43 126.94 176.92 126.56 181.45 127.96 184.04 130.23 182.47 132.92 183.93 133 187.39 136.55 187.09 138.48 188.78 139.08 191.53 143.63 194.17 141.41 195.11 142.41 200.69 146.99 202.33 150.22 202.06 156.04 203.42 158.41 205.12 159.7 203.41 162.22 202.51 164.32 202.84 166.92 206.34 170.63 206.32 171.04 209.15 175.57 211.43 177.52 212.95 178.89 217.54 180.47 219.5 183.46 221.28 182.77 223.51 177.52 227.73 174.73 236.09 179.04 237.97 184.24 236.53 185.74 239.81 189.32 238.31 192.02 241.26 193.32 239.76 195.99 239.95 197.97 242.37 196.65 244.84 200.66 245.58 203.9 245.62 204.13 248.68 206.6 249.37 212.24 252.87 213.39 254.53 216.11 255.54 217.98 260.98 219.5 262.93 222.58 260.42 225.6 261.16 224.84 258.72 226.79 256.79 229.19 256.25 229.67 257.61 234.71 258.8 236.89 255.09 237.88 256.99 239.66 256.96 240.5 258.78 244.38 259.37 244.96 260.83 247.64 260.55 247.78 263.27 250.48 266.03 249.01 269.12 249.39 270.95 251.46 273.08 251.16 275.59 251.72 278.03 254.23 281.8 254.45 283.33 258.14 286.77 260.29 284.03 261.83 284.6 262.85 286.52 264.47 286.8 266.31 288.47 266.31 291.91 268.22 290.46 270.38 290.51 274.75 293.3 274.11 295.78 276.33 298.34 275.24 299.65 275.39 302.33 276.79 304.62 286.87 310.21 293.26 309.41 297.04 311.72 298.2 317.62 301.57 318.13 302.93 316.94 305.12 317.77 311.2 317.95 311.3 320.23 312.94 320.12 314.59 323.22 314.22 326.32 316.08 332.46 318.12 335.15 320.16 334.91 323.7 337.13 326.54 337.91 327.46 339.58 329.87 341.04 329.29 342.48 330.74 344.34 331.92 348.18 334.41 349.93 339.5 346.86 341.21 343.96 346.14 344.26 348.07 342.79 348.44 345.6 350.2 347.19 347.04 349.45 348.44 352.09 350.1 353.51 353.75 355.32 357.49 352.85 361.64 352.45 362.24 354.98 364.46 355.93 365.1 357.34 369.08 359.94 368.47 361.94 370.43 362.63 369.86 365.36 371.51 365.81 372.28 368.73 375.06 370.64 379.67 371.38 382.51 373.35 388.98 372.6 390.46 373.55 393.48 373.59 396.02 377.33 397.59 378.79 398.38 382.27 393.28 381.71 390.67 379.92 386.91 381.64 383.09 384.59 379.92 386.09 379.42 387.84 381.62 390.57 381.8 395.88 384.41 397.4 385.17 402.39 386.51 403.61 390.1 404.74 387.95 406.08 384.02 410.17 381.79 410.77 379.44 412.47 379.26 414.52 380.54 415.81 382.7 416.27 381.38 418.44 384.12 419.79 385.54 424.98 384.01 427.64 386.36 429.93 389.92 429.76 390.08 432.77 386.87 436.35 387.17 437.35 392.35 439.81 394.28 442.19 391.96 442.79 390.68 446.39 391.56 450.46 389.48 452.83 387.11 452.68 384.02 449.85 381.93 452.21 378.43 453.25 381.54 454.98 382.83 457.54 383.9 464.52 385.54 468.33 387.15 473.8 389.52 477.85 390.42 478.34 397.05 478.69 400.98 477.25 407 477.75 410.73 479.14 414.29 478.97 422.53 477.82 432.57 477.52 435.58 475 438.53 474.37 444.77 475.41 448.29 477.12 455.26 479.46 458.91 479.28 461.04 478.33 466.3 477.82 469.19 476.69 470.07 475.29 470.41 469.03 469.98 466.01 467.74 458.04 466.04 453.68 465.43 449.41 462.52 437.45 462.63 434.74 465.24 430.6 467.93 429.71 472.44 429.94 474.88 431.28 478.44 434.77 482.87 432.27 484.96 428.95 487.96 420.54 489.41 418.08 490.76 411.7 491.96 409.02 496.82 404.44 499.69 403.13 501.08 403.39 505.39 406.91 509.64 407.88 514.21 409.62 516.76 408.91 520.62 405.63 519.5 399.77 514.41 394.72 510.18 392.49 506.35 389.38 502.21 387.79 501.95 382.59 502.88 382 500.4 376.82 502.16 376.61 504.77 374.23 507.29 370.18 510.37 368.62 513.01 368.18 513.93 366.59 516.8 365.54 519.48 360.58 520.86 356.19 521.45 351.53 521.95 340.77 522.74 335.74 535.23 333.44 542.49 333.04 664.45 287.21 696.79 364.74 Z"/>
</g>
</svg>