<?xml version="1.0"?>
<svg xmlns="http://www.w3.org/2000/svg" version="1.2" baseProfile="tiny" width="800" height="611" viewBox="0 0 800 611" stroke-linecap="round" stroke-linejoin="round">
<g id="4217154">
<path d="M 683.43 22.63 686.51 24.64 688.3 32.83 692.18 35.98 697.48 41.96 701.97 43.82 708.66 50.27 711.09 53.52 714.27 60.74 718.03 64.23 719.56 68.93 725.32 73.76 728.6 86.43 730.36 95.01 729.81 98.7 731.56 102.74 735.62 120.23 771.99 115.77 773.07 122.41 775.5 128.99 776.93 135.58 783.42 140.4 788.93 146.81 791.37 151.07 799 201.23 756.91 379.93 746.88 387.57 741.64 394.88 740.14 399.73 740.46 407.23 739.48 410.86 735.42 419 735.05 422.25 736.99 426.75 735.8 430.85 731.56 435.1 731.07 437.55 735.48 449.7 740.48 457.81 741.04 461.02 739.28 464.06 727.59 469.79 725.25 473.05 724.45 478.92 720.67 482.63 711.54 485.38 706.47 489.26 700.3 500.38 694.79 515.16 688.05 523.79 683.77 533.23 679.22 537.4 670.52 541.61 659.49 548.86 650.86 552.01 646.1 552.47 641.8 550.54 636.05 549.66 631.31 550.1 612.97 555.76 601.2 557.47 597.2 558.95 590.4 558.17 579.09 547.73 573.24 539.67 565.03 538.09 561.37 535.31 558.55 527.82 556.42 524.06 547.72 516.53 542.55 508.61 535.92 504.24 528.34 503 521.31 509.24 514.33 511.87 510.83 512.2 494.94 515.95 488.34 520.87 486.54 524.07 364.66 489.68 354.23 490.48 345.2 490.06 338.93 491.08 330.41 495.05 318.88 499.45 306.53 506.08 301.5 507.65 296.18 505.31 284.59 501.37 280.82 500.69 270.56 501.78 265.31 503.54 260.52 507.23 259.06 509.82 258.02 516.92 258.42 520.74 261.41 526.49 262.33 531.14 262.4 540.96 260.44 543.11 251.8 548.24 246.62 552.13 239.89 560.97 234.41 570.29 229.67 575.11 220.33 576.95 213.33 580.1 207.21 580.58 195.73 578.14 190.5 578.58 181.63 581.74 177.34 584.59 171.31 589.93 169.07 593.31 166.96 599.38 165.5 606.19 162.9 610 159.07 607.12 150.25 603.35 146.06 597.21 142.62 596.42 136.21 589.35 132.14 585.99 126.08 584.7 113.27 571.62 111.66 565.56 109.51 561.13 105.8 559.18 104.49 561.21 100.14 562.46 97.49 561.24 92.8 562.88 88.64 566.06 87.26 569.14 83.88 571.18 78.24 570.31 72.05 565.16 69.04 564.76 65.03 567.51 65.21 572.76 68.18 578.28 67.36 581.46 65.25 582.63 57.85 581.07 44.67 521.41 48.39 521.48 53.67 517.64 54.05 513.11 51.31 502.44 48.12 492.26 42.29 481.73 36.44 475.84 33.01 473.67 18.02 466.62 11.13 462.04 5.2 456.5 2.27 450.08 1 444.03 2.6 423.6 10.17 412.36 14.41 407.92 19.09 401.3 21.24 391.64 20.98 381.11 21.67 374.85 26.34 371 36.66 371.28 45.05 373.05 55.81 381.04 58.47 384.84 60.36 393.61 58.26 404.88 55.73 411.43 56.21 416.52 58.88 420.11 62.81 422.93 72.46 425.33 80.84 426.22 88.83 425.68 94.98 425.98 103.14 429.67 122.22 442.27 126.6 443.91 133.84 443.14 149.28 437.27 162.33 433.41 172 431.55 179.76 428.68 191.2 422.18 193.84 419.32 193.71 415.9 191.13 412.1 182.27 404.43 172.66 398.92 164.67 395.86 154.09 390.66 150.44 389.75 129.64 389.92 124.37 388.87 121.63 386.42 119.24 379.72 121.1 374.43 128.89 369.36 141.08 364.74 149.33 365.96 159.58 368.18 165.8 368.6 178.49 364.23 185.67 360.58 188.73 355.75 188.44 353.21 181.5 349.15 175.7 346.7 173.11 341.3 168.24 337.77 164.03 335.85 159.45 336.04 155.39 338.02 144.33 339.75 139.54 342.1 134.06 341.56 132.55 337.17 128.6 313.84 131.67 307.53 138.06 303.29 145.67 299.93 154.04 296.91 166.75 291.21 168.98 288.87 172.29 281.07 171.2 275.6 170.54 266.11 171.79 259.89 178.34 251.23 178.65 247.47 182.04 247.78 188.93 251.88 203.58 269.83 206.49 275.11 218.32 290.76 223.09 294.91 229.75 297.49 231.89 296.75 239.67 289.74 241.87 284.75 237.99 276.02 233.94 272.27 230.93 260.42 231.23 250.73 233.03 247.49 235.74 246.75 242.19 248.03 249.1 251.11 256.74 250.72 265.62 249.15 273.05 248.95 288.38 244.06 292.41 242.23 300.76 244.35 310.03 245.61 316.12 245.55 319.79 246.79 334.4 254.98 336.8 256.83 349.66 262.46 354.63 262.85 358.1 261.82 360.71 259.13 359.45 253.71 351.57 241.59 347.13 232.97 344.84 227.09 341.26 221.86 339.98 217.88 335.56 210.02 333.49 198.72 332.98 189.69 329.07 186.77 326.71 180.61 326.18 176.3 327 171.68 329.94 168.29 334.23 165.7 341.79 164.44 354.82 166.63 357.58 168.47 364.35 180.82 370.34 189.94 375.35 191.26 377.08 189.64 379.65 184.08 383.99 177.23 389.63 171.06 394.33 168.13 402.93 164.65 415.27 158.59 422.24 151.03 426.88 144.35 425.29 140.41 406.62 130.92 393.69 126.96 383.81 124.95 365.33 120.25 356.02 116.53 351.25 113.32 350.21 109.3 353.44 101.41 356.82 97.59 363.65 92.28 386.32 79.29 392.67 74.94 394.19 71.98 393.68 66.22 389.76 56.12 385.81 52.59 381.6 46.37 381.21 40.83 383.38 37.76 389.73 34.15 394.06 32.72 402.01 34.85 410.14 41.58 413.12 45.26 418.43 49.47 427.06 59.55 433.79 66.65 438.29 70.63 444.14 74.12 455.79 79.47 462.72 84.21 487.62 97.33 508.05 106.35 515.13 108.02 521.4 104.42 523.63 93.8 523.9 81.95 523.26 73.76 520.88 69.53 514.25 65.24 508 62.93 493.82 59.18 487.39 58.44 482.97 56.42 481.37 51.76 480.77 36.52 481.28 33.02 480.4 27.16 480.42 20.59 484.75 17.87 490.04 20.18 495.46 23.84 502.68 27.5 514.22 32.15 518.97 35.21 526.39 41.66 530.76 44.72 534.47 48.9 541.35 53.09 545.66 50.6 548.27 38.94 550.98 33.11 552.21 23.98 551.6 19.3 550.07 15.98 550.03 12.16 548.42 8.84 543.34 2.06 546 1 551.8 3.65 553.17 6.18 558.83 13 565.74 18.81 570.9 21.14 581.25 20.47 589.59 25.6 594.77 26.54 598.5 24.34 600.43 24.75 608.11 22.35 616.6 15.84 621.45 13.45 625.55 12.78 634.19 14.08 637.67 15.69 643.12 19.74 647.81 25.05 652.61 28.17 657.68 32.94 664.28 34.51 673.38 29.13 677.53 25.88 683.43 22.63 Z"/>
</g>
</svg>