<?xml version="1.0"?>
<svg xmlns="http://www.w3.org/2000/svg" version="1.2" baseProfile="tiny" width="800" height="529" viewBox="0 0 800 529" stroke-linecap="round" stroke-linejoin="round">
<g id="4217204">
<path d="M 354.13 50.2 415.21 105.21 520.74 200.26 525.89 218.06 553.1 212.64 567.41 209.87 566.68 213.97 569.09 216.41 569.56 218.71 572.08 221.07 576.78 229.45 578.05 235.75 577.26 239.75 579.03 244.11 581.01 246.01 581.1 251.03 580.6 252.66 582.53 253.62 584.28 255.54 584.82 257.39 586 258.56 585.62 261.14 587.4 263.14 587.99 266.02 589.01 266.78 591.31 266.12 594.97 269.41 595.43 271.11 594.89 274.24 593.27 277.25 593.79 279.17 599.41 278.73 600.18 282.52 598.9 286.11 601.95 288.31 604.54 292.1 605.88 292.9 609.81 293.14 610.37 294.45 608.21 296.25 608.22 298.42 612.97 298.91 617.11 300.66 617.92 301.47 619.14 306.21 622.3 308.19 625.85 307.76 626.93 306.59 628.83 306.51 629.69 308.29 632.38 311.27 636.58 314.36 639.34 314.78 643.07 314.49 646.15 316.19 652.69 316.36 656.99 314.16 658.87 313.85 660.37 314.89 663.49 315.85 665.19 317.87 668.94 319.47 670.56 320.61 672.21 323.1 674.84 324.56 676.16 325.94 679.84 328.58 684.68 330.72 685.81 329.77 688.49 331.8 692.44 333.77 692.28 336.57 693.96 340.87 695.76 344.54 697.11 348.26 698.6 351.3 701.39 355.16 704.04 356.67 707.79 359.83 713.23 362.81 718.82 364.11 729.45 365.03 732.1 364.72 737.63 363.11 742.3 362.71 746.99 363.69 748.72 364.94 756.61 374.37 757.85 376.5 761.39 380.47 766.42 385.07 769.44 386.72 770.86 386.51 773.15 384.45 774.55 381.81 775.08 378.84 775.24 375.13 776.5 369.58 777.69 368.05 779.77 367.43 782.61 368.45 790.96 375.95 794.06 379.04 796.42 381.97 798.23 385.84 799 391.04 798.19 397.61 797.35 399.05 795.49 404.23 794.41 405.7 790.34 406.7 785.1 407.27 779.69 409.92 774.47 411.04 765.49 411.17 760.81 410.18 749.52 405.69 745.22 404.25 741.63 403.9 728.94 404.04 718.71 403.81 715.75 404.09 710.47 405.96 709.3 406.94 708.07 409.96 708.15 415.68 710.21 423.08 613.03 428.11 507.7 432.76 437.14 435.3 318.18 439.87 325.41 458.96 326.95 464.61 326.94 466.66 322.13 475.86 319.06 479.03 315.22 486.85 313.73 490.53 310.03 496.78 309.76 498.27 310.21 502.49 312.3 510.76 316.35 517.62 316.68 518.7 315.45 520.16 313.17 520.9 307.3 520.32 231.08 528 197.57 527.86 159.17 527.57 111.6 527.34 75.37 527.09 44.54 527.25 44.67 525.14 47.06 524.03 53.06 526.25 54.36 525.77 56.03 523.42 56.24 521.82 55.05 518.87 49.16 515.4 48 513.12 47.26 508.33 47.61 506.39 48.86 504.8 51.56 503.78 55.91 503.95 61.56 503.71 63.5 505.13 64.61 508.68 66.81 510.18 70.48 508.67 72.91 505.4 75.17 504.53 78.41 504.54 82.48 506.32 84.35 506.21 85.55 503.62 85.4 500.3 87.88 492.89 88.97 490.76 89.08 489.18 87.97 487.41 86.59 491.64 85.61 493.39 81.37 496.18 78.26 496.91 73.36 496.13 70.24 493.05 69.83 491.57 67.89 488.81 66.31 485.63 63.93 483.14 61.21 480.97 60.77 479.89 61.88 476.82 63.87 476.9 70.61 480.03 73.05 478.66 72.9 476.22 70.61 471.59 70.08 469.23 71.88 467.84 74.99 467.77 78.3 466.53 79.63 465.54 80.52 462.68 80.96 458.09 80.24 453.31 78.13 450.07 75.1 447.82 73.63 447.59 71.47 448.34 69.92 446.92 68.24 440.99 65.69 440.23 61.62 440.82 59.4 440.21 57.62 437.23 56.01 433.71 55.25 433 52.12 432.52 50.89 431.47 50.93 429.77 49.33 425.62 48.03 423.29 49.95 419.26 47.32 416.24 44.49 414.28 44.6 411.1 43.9 407.63 41.85 405.68 42.96 402.95 45.51 402.14 45.19 399.68 45.87 398 44.38 395.15 42.23 394.84 41.74 378.78 39.66 357.3 37.42 332.6 26.58 241.93 21.03 194.81 15.75 150.29 14.58 145.16 16.71 143.84 18.19 142.13 18.4 139.83 13.95 130.92 9.92 130.13 4.91 128.35 2.07 126.27 1 123.64 1.15 122.17 4.65 114.4 5.42 113.14 7.79 111.96 12.4 114.04 14.38 117.25 18.3 116.79 22.14 115.06 26.42 114.98 28.49 114.02 29.32 112.3 29.54 109.69 27.56 104.95 27.65 101.92 26.97 99.37 28.52 95.41 29.87 94.75 32.61 91.22 34.14 88.24 35.06 85.13 35.14 79.84 32.98 76.38 27.01 73.66 24.12 71.02 22.87 68.15 21.79 63 20.78 62.51 18.3 59.69 16.8 56.26 15.99 55.86 13.14 51.84 10.98 49.86 9.28 46.62 6.66 44.91 9.66 41.67 10.67 33.52 12.48 31.35 14.57 31.2 16.14 31.93 18.77 34.07 20.25 35.97 24.67 37.39 30.5 38.16 36.26 36.92 32.97 29.6 32.32 27.3 35.01 24.5 37.03 23.78 40.29 23.32 42.28 23.51 44.84 25.09 47.01 27.32 49.58 28.98 51.58 29.07 53.61 27.28 53.75 25.51 52.98 24.36 48.82 20.82 48.63 18.65 50.35 17.18 56.93 19.23 60.5 20.8 61.55 21.84 64.76 22.74 70 24.69 71.14 24.62 74.86 27.34 78.66 28.56 79.9 30.19 81.8 30.96 85.49 30.55 87.65 31.08 90.71 34.6 92.6 34.5 94.89 35.81 102.07 36.27 103.65 36.65 117.63 22.78 122.91 25.17 133.49 5.82 135.7 5.86 138.93 6.67 142.1 6.02 145.14 7.57 149.16 6.34 151.85 6.61 154.25 3.39 155.54 2.5 159.16 1.89 160.31 1 161.83 1.35 164.32 2.97 167.38 6.48 168.51 6.94 170.76 5.44 171.69 3.18 173.11 2.08 180.24 3.88 181.73 4.55 185.26 4.29 191.5 6.91 194.96 7.83 198.29 6.98 204.49 8.76 205.63 6.66 209.17 7.19 215.02 6.77 216.61 8.55 220.04 10.73 227.83 13.6 228.98 14.54 233.38 16.05 235.38 15.76 236.51 17.63 239.48 18.73 242.23 21.01 243.94 20.78 247.1 21.74 248.82 21.67 251.99 22.45 253.48 23.73 258.76 24.85 263.24 24.74 264.88 25.31 266.2 27.2 272.22 28.32 273.16 29.51 275.02 30.22 276.14 31.71 278.79 33.86 332.29 30.6 354.13 50.2 Z"/>
</g>
</svg>