<?xml version="1.0"?>
<svg xmlns="http://www.w3.org/2000/svg" version="1.2" baseProfile="tiny" width="800" height="348" viewBox="0 0 800 348" stroke-linecap="round" stroke-linejoin="round">
<g id="4217600">
<path d="M 293.51 7.61 294 9.62 297.31 12 299.61 14.83 300.62 17.84 298.95 20.19 297.61 23.02 295.49 25.53 294.77 27.66 295.77 30.07 297.21 32.2 300.24 34.1 302.61 34.91 311.54 37.1 317.37 36.92 319.16 38.4 321.72 38.78 323.1 39.43 325.13 39.62 327.96 42.4 330.23 42.74 332.27 44.46 333.17 46.76 333.05 48.09 333.54 49.78 334.45 51.2 337.1 53.71 340.67 56.04 342.31 58.13 345.36 60.38 346.75 61.71 347.7 63.25 347.06 65.97 347.3 69.07 346.44 72.27 347.29 73.08 348.02 76.2 346.95 79.43 348.03 81.41 350.37 83.63 354.87 83.92 357.99 84.37 359.14 84.08 360.48 85.27 362.4 84.91 365.98 85.07 368.88 86.37 370.94 86.9 372.52 87.75 376.53 91.82 379.35 93.02 381.73 92.34 384.04 95.41 386.43 97.5 391.68 101.53 391.75 104.07 392.88 106.73 395.5 109.62 396.3 111.06 395.92 113.75 396.57 114.34 396.03 117.66 396.1 119.11 396.89 120.63 399.04 122.3 400.03 123.61 400.2 125.76 399.95 128.54 400.18 130.03 490.56 129.63 490.27 133.49 492.67 134.09 494.09 133.72 495.46 132.25 497.54 132.71 500.1 133.88 500.46 135.28 499.45 136.39 499.56 138.5 497.92 140.21 497.35 141.67 496.5 142.36 494.64 141.83 493.02 142.3 494.16 144.3 494.39 149.85 493.84 152.75 494.49 154.32 496.2 154.76 497.06 156.92 498.14 158.15 499.17 158.56 500.78 160.25 502.47 162.55 504.98 164.23 507.09 165.05 507.35 166.61 507.09 169.43 509.02 170.9 510.07 173.51 511.15 175.01 512.93 175.56 514.77 177 516.52 180.3 515.06 183.81 515.59 185.1 514.87 186.17 513.31 186.48 513.18 187.59 514.98 188.79 515.32 193.45 514.09 195.2 514.47 197.17 512.4 198.2 511.35 199.57 513.13 200.66 512.22 202.41 506.56 206.29 508.24 207.26 509.59 208.86 513.5 211.57 515.32 212 516.91 211.57 519.03 207.15 521.61 205.12 523.66 203.06 530.36 199.09 531.97 197.64 533.53 195.72 534.65 194.93 539.6 193.74 541.56 191.89 541.58 189.7 540.57 188.22 538.82 186.99 534.89 185.11 534.13 184.15 534.62 182.31 537.35 180.64 540.56 179.95 544.33 180.08 546.42 180.73 549.47 182.87 551.42 183.32 553.54 182.81 554.45 181.84 555.25 179.28 555.18 177.58 554.62 176.02 553.15 173.88 549.53 171.02 549.37 167.07 549.99 164.5 551 163.47 554.74 162.09 557.82 161.84 559.06 160.09 559.15 158.62 557.12 154.16 557.17 151.65 558.27 149.45 574.64 162.16 578.53 163.84 580.04 163.93 581.34 162.98 582.82 163.52 585.96 163.7 587.27 165.45 590.35 164.13 592.76 163.96 594.04 164.48 595.71 164.45 598.93 162.65 600.61 162.67 603.19 161.73 606.36 160.9 607.4 160.14 609.11 156.87 610.97 155.39 611.54 153.16 612.27 151.8 612.13 149.69 613.09 146.67 614.5 144.07 615.16 140.84 615.95 139.61 618.82 137.02 623.81 131.87 626.07 129.75 627.94 128.69 630.14 126.35 631.66 120.97 634.61 118.66 637.13 117.36 640.73 115.07 643.29 113.19 645.92 110.61 649.32 108.67 650.6 107.54 651.39 105.11 654.98 100.57 656.49 98.27 657.45 97.45 660.34 98.51 662.09 95.84 663.21 95.47 664.18 93.56 666.02 93.53 666.22 104.16 696.41 103.85 701.26 65.15 704.94 64.89 709.21 64.09 712.41 64.61 714.9 63.76 716.25 63.79 718.53 65.14 718.61 66.97 717.18 69.58 717.29 70.65 718.75 71.47 719.38 73.97 721.69 76.6 721.44 78.05 719.53 78.6 719.31 79.49 719.85 81.81 718.92 84.9 716.87 88.26 715.97 91.4 716.17 93.71 715.52 96.2 715.6 97.66 713.94 99.83 713.99 100.77 715.61 104.71 716.57 106.3 716.48 108.01 716.92 109.95 717.28 113.54 717.72 115.61 717.53 116.95 719.99 120.33 723.37 122.63 725.15 124.25 726.66 126.56 728.76 128.7 733.45 130.96 733.65 133.22 736.87 133.58 738.42 134.69 738.88 135.68 738.92 138.29 739.83 139.72 743.7 140.57 746.77 142.21 747.43 142.87 748.22 145.1 748.03 147.77 746.62 149.78 746.5 150.75 747.35 153.42 748.63 156.37 752.35 158.96 755.55 161.51 753.05 163.7 752.62 166.04 751.73 167.71 751.35 172.16 752.22 173.33 751.79 176.44 747.64 178.56 746.27 180.62 748.75 181.31 749.45 181.95 748.29 183.01 749.96 185.42 751.89 191.65 753.65 192.95 754.7 196.49 756.14 198.06 757.06 200.21 757.36 202.52 756.27 205.06 754 209.05 752.23 212.91 749.27 216.02 747.61 218.24 745.79 219.73 742.59 223.46 739.69 226.49 737.51 227.7 737 228.36 732.52 232.37 731.99 234 729.54 235.71 726.28 236.63 722.36 238.2 720.3 238.75 718.18 240.88 716.25 247.28 716.13 249.57 717.7 251.1 717.62 255.3 721.15 260.56 723.19 262.6 724.55 264.77 727.95 269.35 727.64 273.56 728.07 275.11 730.24 276.41 735 276.72 736.25 277.26 740.43 280.43 744.21 281.72 745.12 283.11 747.22 283.12 749.72 283.84 750.44 284.72 753.88 285.03 756.1 286.41 758.35 286.79 759.58 287.95 760.9 290.85 764.33 292.58 767.57 295.81 770.59 297.88 771.52 298.89 774.45 300.99 776.13 301.29 777.6 302.18 778.49 303.34 782.43 306.91 783.27 308.62 787.78 316.1 789.4 317.73 792.22 327.52 791.94 330.56 793.22 331.71 794.9 336.44 796.3 338.43 799 340.2 796.88 339.34 794.44 338.89 792.1 339.33 789.07 340.76 786.56 342.21 782.7 343.13 781.19 344.5 780.45 345.87 778.18 346.08 777 345.46 775.41 343.93 773.48 343.54 771.73 342.4 765.59 339.9 764.29 339.06 715.43 347 653.08 343.14 591.04 339.3 493.92 333.17 436.32 329.85 385.98 326.95 333.27 324.16 97.05 311.67 1 306.59 2.16 304.62 5.03 302.45 7.43 301.74 9.17 302.4 11.5 302.55 13.48 302.05 15.97 302.6 16.64 303.33 17.83 302.96 21.57 300.06 23.55 300.09 25.77 299.52 28.18 298.45 30.33 296.71 30.22 294.98 32.62 294.69 33.98 293.55 35.28 293.56 36.12 292.79 37.77 292.89 41.14 289.79 41.34 288.58 42.59 287.9 44.19 285.94 44.35 284.9 46.59 284.22 47.98 280.94 45.48 280.07 42.78 277.64 40.19 276.59 38.49 274.95 36.81 272.34 37.16 270.51 39.97 269.05 45.45 268.27 47.34 267.2 47.18 266.04 45.9 263.98 46.61 262.08 50 260.76 52.31 261.05 53.44 260.26 54.35 261.15 59.54 261.84 63.28 260.67 65.95 260.82 67.77 259.9 69.62 260.2 70.52 259.28 73.93 259.48 75.26 260.31 79.68 260.85 80.96 261.47 82.59 259.75 81.7 256.15 83.45 254.44 84.24 252.87 85.97 252.41 87.75 252.87 89.99 252.94 93.38 252.62 96.21 251.41 97.78 250.1 95.3 248.79 93.14 248.98 91.25 247.62 88.98 247.7 87.11 246.93 84.34 246.4 85.99 244.28 85.97 243.2 85.04 241.66 82.63 241.02 82.95 238.21 84.24 236.9 85.93 236.63 87.02 238.24 89.34 238.43 90.03 236.76 92.76 236.59 93.94 234.74 95.45 233.49 95.84 231.33 97.1 228.98 98.37 227.72 101.29 226.86 101.1 224.65 98.17 224.29 96.22 224.56 92.94 223.18 92.84 220.39 94.3 218.67 97.24 218.49 97.92 217.18 99.5 217.24 101.89 215.75 102.13 214.51 99.88 213.93 96.3 210.48 97.04 208.62 96.8 206.94 99.44 205.77 99.76 204.11 98.43 204.01 96.75 202.83 96.02 201.55 97.54 200.48 99.41 200.25 99.72 199.35 98.04 198.54 95.28 192.42 95.56 190.9 95.14 188.17 94.26 187.6 94.53 185.25 96.07 182.18 95.49 180.09 94.04 179.41 94.04 177.34 93.58 176.6 93.96 174.77 92.87 172.95 93.77 172.14 94.33 170.61 94.1 168.56 93.2 168.1 91.2 170.14 90.91 171.41 89.72 173.17 89.97 174.94 87.44 177.58 86.44 176.54 83.49 178.42 79.7 177.91 79.95 176.42 82.42 175.17 81.73 174.64 80.47 171.09 78.29 169.3 77.55 167.81 75.37 167 74.98 166.43 76.41 165.15 79.48 163.3 79.52 161.83 80.86 159.41 83.8 158.97 84.85 157.88 85 156.67 86.37 156.69 87.07 154.8 86.63 153.04 87.86 151.74 87.77 149.11 88.99 148.17 90.8 148.88 92.38 148.6 92.15 146.29 94.05 145.06 93.4 143.03 93.43 141.23 91.12 140.36 88.72 139.82 87.72 139.04 86.02 138.7 89.61 136.02 91.75 135.3 91.53 132.31 92.1 130.95 91.84 128.11 90.87 127.71 91.09 124.7 92.81 122.99 91.64 119.48 92.55 118.65 98.23 117.26 97.25 114.65 97.19 113.59 98.65 112.15 99.75 111.66 101.3 112.08 102.63 111.57 102.09 108.47 103.96 106.94 108.19 106.93 111.61 107.64 112.56 107.42 114.94 108.02 116.92 111 119.4 111.38 119.94 107.9 119.14 105.88 119.17 104.28 120.15 102.76 123.57 99.39 125.5 98.64 128.22 99.17 129.92 96.93 132.85 97.01 132.96 96 134.65 94.04 135.33 93.85 140.84 94.66 140.96 93.45 142.04 92.96 145.2 94.16 148.27 94.59 149.72 94.03 149.42 92.04 150.17 90.48 149.33 83.42 150.79 81.48 153.84 80.76 155.88 81.96 159.6 81.45 163.09 82.05 164.83 83.01 167.45 83.38 169.09 83.05 170.28 80.84 173.68 79.36 176.09 79.38 178.57 78.29 178.01 77.79 175.91 77.58 177.57 76.31 180.72 73.09 181.22 71.77 183.38 70.15 182.02 68.7 181.81 67.28 184.4 65.15 186.5 64.42 189.22 65.55 191.19 64.8 192.83 62.69 194.28 61.85 193.91 60.84 194.73 59.06 198.5 58.17 197.62 56.58 200.31 56.06 201.32 54.74 202.58 51.7 204.52 50.49 205.34 52.26 206.86 52.73 207.6 51.44 210.05 48.94 211.75 46.75 212.79 46.32 213.05 44.11 212.62 40.97 211.6 40.42 214.59 35.82 217.66 34.45 220.18 31.92 220.48 30.06 221.86 28.9 222.08 27.38 222.88 26.78 222.94 25.58 225.07 25.33 226.23 24.8 224.25 23.16 224.97 21.1 226.21 20.57 223.72 18.69 223.05 17 223.68 16.58 230 15.42 231.56 12.68 232.95 11.01 233.84 9.36 235.43 7.88 236.79 8.34 239.67 11.11 241.44 13.92 242.61 13.81 242.34 11.96 241.11 10.7 240.82 9.25 239.59 6.24 240.34 2.15 241.76 1.68 244.05 3.08 244.94 3.09 248.11 1.85 249.14 1 252.48 1.49 253.47 3.57 256.19 2.21 257.06 2.19 258 3.96 257.24 5.11 258.11 5.9 259.28 4.55 260.53 4.27 260.8 2.93 261.91 2.06 264.49 2.16 265.01 4.2 266.96 5.28 266.93 6.73 266.03 9.09 267.95 9.87 269.15 9.54 270.27 7.45 270.31 5.69 270.86 3.68 271.84 1.92 273.68 1.18 276.44 1.93 278.94 5.1 280.54 5.37 281.5 6.59 283.49 4.83 286.04 3.8 288.78 4.97 289.28 6.18 292.24 7.37 293.51 7.61 Z"/>
</g>
</svg>