<?xml version="1.0"?>
<svg xmlns="http://www.w3.org/2000/svg" version="1.2" baseProfile="tiny" width="800" height="283" viewBox="0 0 800 283" stroke-linecap="round" stroke-linejoin="round">
<g id="4217253">
<path d="M 797.33 29.53 794.6 31.61 792.85 35.62 792.23 38.93 791.27 40.71 793.42 42.36 796.03 45.23 797.16 47.79 797.75 51.89 799 54.15 796.5 55.88 795.32 58.32 791.55 59.47 787.65 61.77 784.86 62.42 783.85 65.24 784.8 67.72 781.41 75.09 780.34 78.01 781.59 80.03 782.12 86.39 783.9 89.66 783.96 93.83 785.45 97.22 785.64 100.44 784.92 104 779.69 111.55 778.62 112.62 775.47 114.17 772.43 116.13 773.39 118.57 773.03 120.59 771.07 121.48 770.95 123.39 768.51 124.46 767.56 129.26 768.64 129.85 771.98 130.17 774.7 129.79 775.77 128.48 783.25 126.11 785.2 127.82 785.61 130.62 782.81 133.95 779.7 136.89 777.2 140.65 774.93 142.06 768.69 144.27 768.81 148.26 769.7 151.53 769.7 154.03 768.45 156.41 768.12 159.62 767.32 160.4 762.22 161.01 760.69 161.62 755.79 165.04 753.29 167.78 750.32 169.98 747.98 170.61 745.02 172.6 741.22 177.78 740.51 179.68 738.8 181.93 738.19 185.28 739.32 187 739.38 189.68 740.8 191.11 740.86 192.83 739.08 197.66 736.05 200.75 735.63 202.12 737.12 209.44 737.95 210.69 738.66 213.66 738.42 218.19 740.21 220.8 739.73 224.91 737.59 226.99 735.87 230.27 734.02 236.69 734.44 239.07 733.52 243.19 515.74 264.87 393.4 277.04 300.45 278.3 237.09 279.16 149.56 280.36 28.75 282 30.85 280.79 32.99 278.1 33.65 276.19 35.85 275.24 36.74 273.45 34.95 269.59 33.94 265.78 27.46 261.67 25.62 260.96 23.42 258.64 21.69 258.75 19.67 260.18 15.81 261.43 13.79 260.48 6.35 259.47 5.82 256.14 4.87 253.75 4.87 249.35 5.58 247.09 8.79 243.28 8.43 240.72 6.83 238.52 1.71 236.91 1 234.71 1.83 232.33 4.45 229.95 7.48 228.52 10.43 225.83 11.76 223.76 13.13 216.92 12.66 215.43 8.73 212.45 8.71 209.12 10.87 206.38 12 195.97 13.73 193.65 15.93 193.17 20.8 195.91 24.13 193.41 27.11 194.06 29.84 193.82 31.54 195.92 32.58 196.15 35.19 195.13 38.05 191.5 41.56 188.77 44.94 186.98 46.61 187.04 48.57 186.03 50.42 183.17 52.79 182.52 56.01 183.47 59.34 182.52 61.89 182.34 65.76 182.7 68.6 181.4 70.34 179.07 72.36 175.02 73.43 171.63 74.68 170.02 77.71 168.06 84.43 165.32 85.38 164.13 85.14 161.63 83.89 159.54 82.94 153.3 81.63 148.53 82.35 145.02 81.19 139.21 83.89 138.3 89.19 138.48 93.41 136.81 94.96 137.23 98.5 136.81 99.47 133.48 101.26 131.75 104.17 131.22 106.55 132.59 108.39 132.35 109.58 129.67 109.29 120.44 114.1 110.45 117.61 108.66 119.99 108.54 122.54 106.61 124.03 104.05 124.45 101.67 126.76 98.99 126.23 95.9 124.15 93.64 120.05 93.76 114.05 92.15 112.98 89.24 111.79 87.81 110.66 84.72 110.72 82.58 111.73 81.81 118.5 80.44 119.81 77.76 120.11 74.49 123.02 72.94 123.38 70.51 124.56 68.07 128.01 65.15 128.96 61.94 127.89 60.22 128.07 57.3 126.59 55.64 123.14 55.28 123.14 54.57 127.63 51.3 129.73 48.98 131.33 48.21 133.06 45.41 132.65 43.86 130.59 41.58 133.39 43.51 135.05 43.98 138.73 43.8 143.25 47.13 145.09 51.77 146.93 53.38 152.51 59.8 157.08 59.62 162.77 60.64 164.51 62.59 170.1 65.68 171.76 71.27 172.71 72.34 174.61 72.22 181.27 74.13 183.94 73.89 185.66 72.94 189.29 71.81 194.53 72.58 196.95 72.58 203.01 73.71 205.98 73.06 208.12 75.91 212.1 77.16 215.37 79.83 217.03 80.43 219.88 79.18 221.48 76.74 225.29 76.15 227.07 77.52 228.91 77.87 234.44 77.57 240.14 76.15 241.39 74.9 242.1 71.93 243.58 70.68 247.21 71.21 250.24 74.42 253.8 75.85 254.99 75.55 259.09 66.93 259.45 62.59 260.93 61.4 262.59 62.47 265.33 62.18 267.82 62.59 269.84 63.66 270.14 64.73 269.07 68.42 269.72 69.96 275.41 73.6 281.01 73.89 289.03 74.78 296.57 74.26 307.87 73.95 315.35 74.42 317.01 75.2 317.78 78.59 319.21 79.66 326.16 83.82 326.93 84.89 327.05 87.62 329.37 89.11 332.28 88.16 336.73 89.23 338.99 92.14 340.89 92.14 342.2 91.19 344.1 88.51 345.58 87.56 349.33 87.27 357.94 84.41 358.65 84.77 360.49 88.4 361.15 92.02 360.79 94.82 361.27 97.43 362.51 100.41 363.41 105.4 368.51 104.09 373.68 100.64 377.96 99.93 380.34 98.8 382.89 96.36 386.02 96.22 389.07 94.58 390.55 92.56 391.37 87.99 392.42 86.3 395.35 84.81 402.1 82.89 403.9 81.86 406.13 79.66 412.21 76.96 418.49 73.44 419.66 72.29 421.02 69.59 421.92 65.51 424.18 63.66 431.36 63.95 434.89 64.36 437.6 63.84 441.17 64.5 446.28 68.12 449.54 69.67 453.11 68.6 457.44 69.55 459.7 68.48 461.37 66.16 462.61 63.37 464.81 62.41 468.08 58.55 469.5 55.7 470.04 53.2 469.44 51 469.86 49.81 473.07 47.07 478.83 44.22 477.82 41.9 481.39 41.72 482.69 40.71 482.1 38.34 480.02 37.62 479.07 36.18 479.89 33.87 481.39 32.51 483.41 32.27 486.02 31.2 487.86 29.36 488.1 27.43 485.37 25.79 485.54 23.89 485.07 20.02 488.57 18.77 492.85 15.8 493.62 13.6 497.78 16.1 502.83 17.35 509.07 18.37 511.56 17.35 513.52 17.17 515.31 18.42 519.05 22.88 522.91 18.42 524.4 17.47 527.78 17.29 532 15.15 536.78 14.2 537.9 15 541.05 19.85 542.47 20.45 544.87 20.32 547.8 21.33 549.35 21.27 549.82 19.31 548.93 16.69 550.77 14.49 550.36 13.72 546.91 11.16 545.66 9.26 545.96 8.01 549.23 8.96 551.19 8.19 553.5 6.29 556.95 5.58 559.56 1.77 561.57 1 564.57 1 565.96 2.12 567.81 5.58 570.38 9.5 571.62 13.01 574.41 14.14 578.1 14.67 584.34 14.14 587.01 14.67 589.98 20.02 590.81 22.58 592.06 24.36 593.42 24.9 597.76 24.13 598.95 22.28 600.43 21.57 607.03 15.92 611.6 10.81 613.39 7.95 614.45 7.3 616 8.73 619.96 9.4 623.31 5.69 625.33 4.92 627.29 5.22 629.84 4.68 631.68 5.69 632.51 7.72 633.29 11.76 635.84 17.35 641.24 18.56 642.58 20 645.94 20.73 647.66 23 648.43 35.3 648.08 38.04 648.43 41.66 649.09 42.85 652.41 45.23 655.39 44.82 656.1 42.32 660.49 40.36 664.47 39.82 665.84 38.1 672.96 38.57 675.4 37.68 676.18 33.76 675.58 30.61 676.59 29.89 679.15 30.72 681.4 30.43 685.27 31.91 689.13 30.55 691.27 31.32 694.41 33.82 696.61 35.07 698.93 35.66 703.62 34.83 705.76 36.67 707.01 39.46 708.61 40.06 713.6 37.03 716.69 34.59 719.19 33.52 721.21 33.52 722.99 35.24 726.08 34.95 730.77 33.64 733.86 33.94 737.13 32.63 740.22 32.03 746.1 32.03 750.45 31.12 755.25 31.02 756.67 30.07 760.89 30.25 767.9 27.57 771.82 28.88 778.24 30.25 782.69 30.55 785.25 31.5 788.69 31.08 793.76 29.37 797.33 29.53 Z"/>
</g>
</svg>