<?xml version="1.0"?>
<svg xmlns="http://www.w3.org/2000/svg" version="1.2" baseProfile="tiny" width="800" height="806" viewBox="0 0 800 806" stroke-linecap="round" stroke-linejoin="round">
<g id="4217956">
<path d="M 584.67 73.08 584.59 82.57 579.33 88.76 581.34 96.05 580.31 98.58 585.24 107.8 593.51 114 598.55 121.65 599.38 133.65 601.92 137.02 606.3 149.06 613.43 156.24 621.15 160.89 622.32 164.05 636.35 179.93 641.36 182.2 650.75 184.18 656.25 187.12 661.83 192.29 663.39 197.38 669.91 199.93 671.82 203.59 678.91 230.91 670.72 240.05 665.65 243.3 660.91 255.5 660.7 263.97 658.3 274.44 656.24 276.82 655.7 287 656.72 294.4 665.26 303.97 670.32 313.14 678.57 324.27 797.76 414.82 799 418.22 796.51 422.89 788.47 429.88 775.7 432.64 769.17 429.75 757.54 432.5 752.8 440.71 753.28 445.15 759.52 449.81 759.49 455.72 750.66 463.6 745.79 476.23 736.84 481.99 735.18 489.1 735.6 492.92 740.53 499.7 740.34 501.45 733.06 505.65 732.83 510.74 734.71 524.25 733.19 533.02 734.06 538.93 724.75 551.22 718.22 550.42 708.42 556.21 706.9 562.25 714.28 570.07 706.04 573.24 707.17 577.86 712.97 582.95 712.64 585.98 704.86 589.52 705.26 595.13 698.82 596.57 700.02 605.58 690.12 614.26 691.04 616.43 697.39 619.84 697.03 622.14 690.36 627.33 693.12 631.4 687.5 631.78 685.47 635.09 689.28 642.66 685.22 650.81 678.5 645.85 673.04 646.02 666.1 643.16 662.03 646.78 661.18 651.74 652.78 656.79 660.84 665.66 661.76 672.85 665.64 675.37 668.73 681.38 668.86 686.38 657.92 688.99 647.36 689.19 640.52 685.89 635.61 687.25 635.18 694.39 646.01 714.51 645.65 719.75 641.66 729.94 639.04 732.37 642.71 739.29 641.15 744.52 636.97 747.44 636.81 755.04 640.78 758.18 648.48 757.43 653.21 759.93 654.68 763.29 647.94 765.6 643.72 771.74 636.07 773.22 633.39 775.63 622.89 776.57 619.71 778.69 614.84 778.12 605.67 785.67 598.87 789.6 592.37 795.46 579.11 803.5 574.82 804.79 570.26 802.44 562.03 801.65 556.6 805 553.33 801.54 549.62 794.42 545.11 792.14 531.25 789.58 525.43 790.52 516.13 783.42 512.27 782.89 504.5 777.63 499.71 776.66 493.92 778.91 485.68 778.45 480.9 780.11 475.99 776.12 462.5 776.15 458.58 771.95 452.36 769.5 444.93 764.92 390.06 754.31 391.11 742.27 390.42 734.25 385.63 725.13 385.54 720.05 381.08 714.31 374.83 711.24 369.3 706.8 332.1 742.29 296.44 669.12 292.13 663.98 288.54 662.38 286.24 658.09 277.24 652.15 271.38 651.17 267.52 646.82 258.39 639.34 255.76 632.11 243.24 629.87 230.65 511.13 99.75 576.59 156.3 336.48 146.05 269.09 142.77 263.36 135.36 254.76 126.64 248.28 124.72 239.43 121.46 230.58 120.01 221.66 71.13 227.66 65.68 204.16 63.32 198.72 64.07 193.76 61.7 182.24 57.29 165.22 49.55 158.73 47.5 152.42 42.45 147.72 38.17 138.02 34.91 133.65 25.91 124.99 19.89 122.49 12.77 114.45 7.55 110.22 5.14 99.22 1 96.52 5.4 94.01 17.29 89.62 27.05 79.56 31.67 76.85 34.16 71.43 35.86 63.91 35.72 52.52 29.81 49.55 28.4 44.93 24.71 40.79 22.48 33.97 22.48 26.44 25.25 20.3 32.13 17.4 37.23 17.79 43.75 21.28 49.12 26.54 53.14 35.77 52.34 45.84 53.19 58.9 51.09 68.69 51.7 81.66 53.97 87.06 57.4 88.05 61.45 85.75 65.99 80.83 68.6 80.75 76.16 73.97 78.57 69.12 83.88 63.52 87.11 58.33 91.69 55.82 99.72 55.67 102.57 57.45 108.22 65.78 110.5 74.1 112.86 77.64 119.98 83.48 123.81 82.54 125.78 75.52 125.16 64.63 125.88 58.39 130.05 53.79 137.41 59.94 147.61 65.69 159.97 69.7 168.68 67.69 174.55 61.71 180.09 48.28 186.34 40.26 191.8 37 198.08 35.83 205.03 37.97 207.33 44.67 205.5 51.59 207.67 59.76 211.55 61.11 222.85 56.43 233.77 49.4 237.77 48.41 247.22 43.78 248.67 40.63 241.48 31.37 241.6 28.46 260.39 14.97 267.09 15.35 270.92 28.42 276.28 43.6 285.55 64.28 293.59 64.41 296.63 62.03 299.86 50.61 302.71 45.73 306.05 45.05 315.13 53.11 320.26 58.79 325.63 60.24 331.85 59.1 340.72 54.27 341.89 51.45 338.99 40.07 337.9 32.6 339.65 26.63 346.42 16.4 347.34 8.55 353.31 1.73 360.22 1 372.02 10.27 381.58 16.72 391.66 21.37 394.47 28.54 390.54 45.82 393.1 53.71 396.63 57.38 410.36 61.87 412.25 61.4 424.11 44.24 430.69 38.07 441.27 36.29 449.18 37.29 459.84 35.57 464.74 37.77 467.72 43.68 470.81 53.91 462.78 56.66 465.86 61.76 469.92 65.54 481.97 72.37 488.9 78.63 501.3 80.03 507.98 77.6 510.78 71.12 516.41 66.88 520.61 66.98 527.83 70.56 533.4 71.07 543.71 61.83 546.34 56.85 549.28 56.4 555.57 58.82 559.09 58.44 560.18 54.22 563.43 51.22 568.57 53.7 575.73 66.41 584.67 73.08 Z"/>
</g>
</svg>