<?xml version="1.0"?>
<svg xmlns="http://www.w3.org/2000/svg" version="1.2" baseProfile="tiny" width="800" height="1182" viewBox="0 0 800 1182" stroke-linecap="round" stroke-linejoin="round">
<g id="4217758">
<path d="M 563.18 409.88 567.46 420.28 575.36 435.55 575.01 439.09 576.35 445.55 580.59 453.93 580.48 458.26 577.52 466.25 578.08 469.51 580.75 472.7 583.84 474.05 589.42 474.12 598.46 472.42 604.37 469.7 613.8 466.71 625.12 465.79 630.07 464.36 641.25 458.16 647.03 457.01 654.18 458.57 660.07 461.18 673.89 471.03 680.27 474.82 685.02 476.58 699.28 479.31 713.85 474.46 725.55 472.44 734.88 472.76 741.16 474.53 743.22 476.9 743.22 483.67 741.04 490.66 735.91 496.29 729.69 497.87 727.75 496.6 719.27 494.9 707.09 494.56 696.98 501.71 694.31 505.75 693.72 514.98 694.88 520.51 699.05 534.27 700.23 541.61 699.11 547.93 697.56 550.99 692.36 555.87 688.72 556.99 681.03 557.67 668.28 557.71 663.37 556.95 659.45 557.64 653.61 562.89 653.51 569.09 655.4 574.11 659.77 578.55 665.59 582.88 669.96 584.28 677.75 583.69 691.71 583.62 699.47 581.68 707.05 581.52 725.62 585.8 732.18 589.28 734.59 592.43 749.84 604.91 763.3 617.49 767.67 622.15 775.6 627.2 794.52 634.04 798.38 637 798.44 642.64 789.66 647.42 779.68 649.16 769.01 647.41 762.44 645.03 761.38 643.38 733.96 632.79 723.85 634.34 716.02 639.61 704.95 645.53 699.14 645.09 690.92 642.47 688.79 640.1 682.11 638.57 677.85 639.44 676.13 641.49 675.4 656.04 678.8 659.24 690.99 663.05 701.84 667.66 704.8 671.27 711.32 685.22 714.86 689.21 718.71 691.6 729.44 694.56 739.65 692.67 742.89 688.51 747.63 684.97 754.54 686.47 761.77 686.23 769.52 687.86 779.47 693.66 781.92 696.03 793.48 702.71 799 708.16 798.47 713.65 791.28 717.53 780.68 721.59 768.41 721.18 756.32 721.33 749.6 723.44 743.62 727.48 731.52 734.6 723.24 741.1 714.43 744.56 706.16 745.57 698.02 745.63 693.44 746.9 688.81 745.83 677.37 738.41 664.84 732.67 647.17 723.06 624.25 716.14 621.16 716.16 612.65 718.43 607.84 724.64 615.48 738.5 618.9 749.98 623.16 758.89 628.74 769.08 631.36 775 635.09 785.69 634.87 794.41 630 812.32 629.18 821.7 632.67 824.65 640.62 824.32 646.56 819.91 651.33 811.72 659.28 804.27 663.04 802.28 671.61 802.2 676.54 804.61 678.36 806.98 682.79 816.6 683.01 820.02 680.46 827.67 679.13 834.1 679.92 843.33 681.72 851.29 685.51 858.92 688.93 862.54 699.73 870.61 702.38 873.71 719.9 884.88 722.36 890.16 721.28 893.43 716.89 895.74 706.79 896.33 695.99 895.63 686.29 893.4 678.73 890.83 669.13 889.15 663.51 889.37 647.74 892.03 639.66 896.41 629.16 904 621.69 913.85 614.98 919.59 602.53 926.34 597.45 929.59 594.49 933.65 598.87 941.07 607.04 944.94 613.29 946.14 619.68 948.68 628.49 951.1 636.58 956.85 644.43 972.51 646.31 978.48 650.92 997.68 651.32 1001.27 649.98 1005.2 645.22 1009.87 637.62 1014.05 626.18 1019.28 617.29 1022.61 605.9 1029.57 595.17 1032.77 588.46 1033.91 574.03 1034.43 564.17 1030.97 552.33 1025.96 543.65 1023.69 539.72 1024.69 537.16 1029.34 537.7 1034.53 539.7 1038.3 548.96 1046.94 556.96 1052.59 577.54 1064.48 581.78 1067.82 588.15 1077.37 595.25 1086.55 606.91 1097.63 610.22 1103.54 609.59 1106.03 604.9 1108.74 596.49 1108.28 573.45 1101.31 567.48 1100.74 548.56 1102.75 537.37 1106.35 529.04 1110.56 524.22 1116.95 522.64 1123.45 525.14 1130.3 528.05 1134.4 534.24 1140.23 554.75 1150.16 566.1 1156.07 577.52 1163.96 580.15 1166.94 581.84 1173.88 580.6 1178.94 577.83 1181 574.35 1180.5 571.88 1177.94 563.42 1175.18 555.07 1173.48 545.84 1169.44 535.81 1162.55 529.53 1157.34 521.01 1151.29 516.18 1149 511.04 1148.39 488.16 1142.13 475.18 1139.68 481.79 1136.63 486.76 1131.42 493.38 1118.98 496.26 1116.24 494.88 1109.17 495.87 1106.35 493.45 1103.33 490.32 1104.5 482.34 1114.38 476.29 1117.91 472.24 1119.24 463.42 1118.93 455.99 1116.53 450.31 1113.61 443.26 1104.43 436.99 1088.32 430.61 1077.52 427.47 1074.37 421.55 1071.63 416.04 1074.97 414.76 1081.35 408.11 1089.12 403.81 1091.41 401.06 1090.53 397.2 1086.84 391.28 1079.49 388.09 1072.43 385.77 1070.08 372.11 1063.25 364.84 1054.5 359.39 1046.14 355.42 1044.2 350.66 1044.36 336.87 1041.71 329.07 1038.97 321.55 1037.35 318.3 1035.59 313.99 1028.83 316.28 1024.72 322.61 1023.67 337.21 1022.83 341.75 1021.83 345.86 1017.09 344.38 1012.62 338.29 1000.62 333.74 989.25 329.93 982.14 321.28 968.89 316.1 966.33 311.87 967.46 308.47 970.65 301.4 982.01 297.53 983.92 288.18 984.23 277.75 982.6 262.94 980.86 255.52 978.79 247.62 975.56 242.21 972.46 236.77 970.46 224.63 964.77 215.38 957.47 213.78 951.35 216.07 946.95 222.64 944.58 232.5 945.86 244.73 944.62 250.34 942.28 250.34 936.15 245.19 929.35 234.66 924.78 228.78 920.17 222.02 916.01 210.78 906.98 203.05 905.87 198.7 909.88 196.1 910.75 191.94 914.71 187.38 914.66 184.37 910.28 183.88 906.33 190.8 897.93 194.14 890.71 208.14 876.01 213.81 866.82 214.21 860.09 208.7 851.86 204.78 848.8 200.3 846.95 193.19 845.96 186.72 847.51 174.88 858.34 166.96 866.31 166.39 867.71 156.92 874.71 148.01 879.96 140.17 882.6 134.88 882.9 131.45 880.44 130.33 873.98 131.91 869.78 141.23 856.8 143.85 852.1 145.45 841.06 145.27 835.52 142.69 823.92 133.19 813.47 128.68 809.42 117.75 795.31 117.18 791.38 110.94 779.75 107.63 777.18 100.92 776.6 89.15 772.57 78.82 770.39 76.62 765.59 79.42 762.45 87.25 756.62 110.18 750.04 114.47 749.37 116.58 747.38 115.47 738.54 116.38 730.98 119.88 720.4 116.75 716.1 111.37 712.91 93.39 709.76 87.75 710.51 84.63 708.33 84.83 697.24 86.12 693.15 95.17 676.67 93.31 674.41 81.96 672.02 79.25 663.48 77.78 661.16 77.13 653.05 78.48 647.04 76.42 641.24 72.81 635.29 69.72 632.85 67.14 627.65 58.37 627 56.22 625.72 56.55 621.68 61.97 620.03 74.29 621.95 76.74 620.51 83.41 613.77 89.42 613.84 94.52 612.6 101.32 612.17 107.59 612.67 111.52 619.07 124.5 625.37 131.98 625.4 138.16 621.42 141.07 616.76 145.97 601.88 145.17 598.03 133.37 593.17 132.86 588.59 137.11 585.43 131.96 582.53 122.39 582.53 112.59 587.9 105.95 589.06 102.47 587.69 101.08 584.65 106.35 578.31 108.92 576.89 104.76 568.74 107.35 564.2 113.24 563.86 120.55 559.02 128.39 551.26 128.87 548.7 123.79 542.67 127.69 535.92 127.14 526.7 124.55 525.24 115.61 526.63 112.77 524.44 110.3 515.01 105.73 504.49 104.71 500.09 102.73 498.1 87.8 497.02 83.77 495.48 71.66 501.27 68.47 500.27 62.73 491.01 62.69 487.61 66.27 484.98 71.53 484.77 79.84 483.23 83.5 480.77 89.05 471.62 89.72 466.07 88.02 463.83 82.2 462.76 77.82 460.74 71.54 461.84 58.07 460.84 49.37 457.14 42.23 451.24 42.98 448.08 55.1 439.2 57.97 430.76 65.88 424.66 71.92 421.11 78.52 419.34 85.96 431.86 90.88 435.31 98.55 437.94 101.77 436.45 99.73 429.22 96.6 426.63 96.63 424.24 91.21 417.61 91.98 415.47 103.85 410.01 105.53 404.88 99.48 394.98 93.43 391.39 85.26 391.33 73.23 388.45 69.48 386.54 63.81 381.2 58.57 373.63 55.87 370.92 52.31 369.76 44.78 369.91 41.26 367.93 44.79 362.88 49.42 364.64 52.61 362.34 56.93 347.21 60.81 342.62 70.6 338.54 83.3 331.29 86.35 330.47 89.85 333.4 93.58 340.03 99.52 343.32 102.42 341.27 103.65 336.57 105.64 318.01 104.97 313.62 99.27 308.28 89.35 302.75 80.45 300.6 72.72 297.92 69.69 293.83 67.12 286.45 63.19 283.23 57.61 282.62 50.81 285.65 47.43 290.29 44.05 292.05 38.43 291.56 35.7 290.18 34.53 286.84 40.82 278.47 45.8 268.83 46.74 252.44 48.14 246.48 45.05 237.92 38.02 231.37 32.3 227.6 31.32 224.28 27.96 221.34 27.5 217.52 25.48 215.45 21.91 215.36 19.93 219.97 22.13 222.92 18.84 224.77 14.85 224.29 11.43 220.4 10.6 210.06 9.46 203.56 3.49 190.25 1 183.38 3.28 177.54 7.64 177.39 10.64 187.05 15.31 189.23 19.78 189.75 28.71 185.41 34.24 181.98 38.42 176.52 40.05 168.61 37.18 164.84 25.15 160.94 17.5 148.79 414.8 2.01 417.02 1 410.1 11.62 408.34 12.8 397.72 24.33 391.35 36.1 389.83 40.26 391.11 45.63 397.98 55.33 403.66 61.44 405.88 67.18 415.2 83.28 417.42 84.46 422.06 82.95 423.8 80.39 430.82 75.8 436.43 65.85 444.66 55.37 452.05 55.99 455.8 58.93 454.82 69.43 456.53 77.6 461 80.73 461.88 89.17 461.52 94.3 458.94 102.52 458.93 105.6 462.86 117.16 464.96 125.35 466.42 134.29 466.01 138.31 463.6 142.05 458.24 147.67 454.61 154.19 444.93 168.68 445.1 175.39 448.93 177.79 455.25 183.47 464.31 192.96 467.76 197.24 471.31 210.02 469.8 214.04 459.07 234.01 453.33 240.86 452.11 243.42 452.87 248.12 459.1 254.35 466.72 258.02 475.83 259.52 482.69 259.18 497.63 256.57 514.98 251.68 521.06 249.34 527.54 248.58 532.07 252.24 536.3 258.93 542.98 273.72 543.47 279.75 542.44 283.42 539.36 287.39 528.81 296.7 520.41 301.97 517.35 304.61 497.87 315.25 497.15 318.93 501.25 323.18 514.25 332.86 530.3 343.92 542.7 354.32 547.39 356.54 551.58 351.62 554.42 345.28 557.77 334.87 569.47 311.67 570.91 305.59 576.35 296.79 579.88 294.76 604.41 291.17 609.62 291.35 642.73 301.25 649.77 304.32 651.87 307.67 653.19 314.51 652.93 325.94 654.42 331.43 654.39 336.94 653.21 347.11 650.74 354.09 644.3 364.46 639.02 371.85 634.19 373.44 630.86 373.07 626.56 368.91 620.87 364.89 610.32 359.97 594.41 357.92 588.46 358.04 582.63 359.53 579.96 361.73 573.14 370.82 565.04 391.92 563.62 398.89 563.18 409.88 Z"/>
</g>
</svg>