<?xml version="1.0"?>
<svg xmlns="http://www.w3.org/2000/svg" version="1.2" baseProfile="tiny" width="800" height="567" viewBox="0 0 800 567" stroke-linecap="round" stroke-linejoin="round">
<g id="4217501">
<path d="M 766.74 113.48 763.8 116.99 761.94 118.71 760.81 120.31 757.35 123.53 753.74 127.17 751.23 130.48 751.37 131.36 750.14 133.53 748.69 134.96 748.25 137.73 746.77 140.88 744.5 143.15 743.78 144.74 744.06 145.98 742.65 147.37 739.96 147.57 739.15 148.34 738.72 150.16 737.04 151.1 737.14 152.6 735.85 154.41 732.08 155.81 730.81 156.56 730.54 157.84 729.29 159.35 730.34 161.17 730.04 162.41 727.91 163.18 727.87 164.62 726.86 165.3 724.26 165.56 723.52 167.06 723.29 170.17 724.14 172.12 724.1 173.5 722.66 176.59 721.21 177.64 723.23 180.28 722.84 181.28 721.33 181.43 720.16 182.6 719.18 184.75 719.07 186.51 716.28 190.08 716.01 193.17 716.81 195.15 715.32 196.37 714.63 197.59 716.88 198.64 716.67 199.74 715.53 200.17 712.68 202.72 713.93 204.03 713.32 205.82 715.91 206.24 716.29 208.81 715.65 210.34 715.58 212.38 714.72 213.25 714.85 214.4 712.93 219.31 711.64 219.85 711.86 221.13 710.79 222.31 711.96 223.5 713.12 230.41 712.28 230.94 709.3 230.43 706.93 233.04 707.55 235.42 710.07 236.57 708.9 239.04 708.61 240.6 709.69 241.58 708.62 243.87 709.14 246.49 708.26 249.24 708.91 251.64 710.05 253.64 710.26 255.36 711.35 257.65 710.93 259.21 709.08 261.79 706.87 263.04 706.56 264.96 708.81 266.84 708.29 268.13 706.41 269.32 705.09 269.4 703.88 270.85 702.31 270.73 701.61 271.75 702.94 273.4 702.95 274.78 701.95 275.95 701.31 280.51 702.42 281.43 704.19 283.89 705.81 284.43 706.78 283.81 713.28 284 714.34 284.32 715.59 286.04 716.31 291.3 718.79 292.99 721.52 296.17 721.57 297.1 720.49 298.48 719.51 303.07 719.1 303.92 717.26 303.26 714.5 301.44 712.55 300.72 710.62 300.58 708.43 300.9 708.1 301.95 709.13 302.99 712.21 304.54 717.44 308.12 719.89 309.43 722.55 312.94 725.06 314.7 727.3 315.23 729.52 315.21 730.47 314.74 732.86 312.45 734.3 312.49 735.06 313.27 734.43 316.01 733.61 316.92 732.69 319.88 733.02 320.91 734.59 322.19 736.84 322.43 738.24 323.03 739.28 325 739.12 329.32 737.07 331.66 739.29 333.69 740.59 335.34 742.11 336.36 747.39 337.87 751.06 339.91 752.64 342.58 753.1 345.6 748.46 350.44 749.06 352.7 751.71 355.39 751.96 356.83 751.47 357.97 748.7 360.16 747.79 361.53 745.39 362.02 745.57 363.09 747.87 366.15 750.32 367.48 750.16 369.82 749.16 371.42 751.23 373.04 753.74 374.57 754.68 375.94 755.14 379.91 755.73 382.11 755.46 382.69 748.51 385.32 743.33 384.94 742.96 386.46 744.21 388.88 744.04 390.24 744.42 392.93 745.51 392.96 746.66 391.48 748.09 391.67 748.48 394.64 748.24 397.6 750.62 399.81 752.26 400.63 753.03 402.23 753.59 407.26 752.15 411.1 750.27 412.02 746.01 414.88 745.02 416.16 745.53 418.45 746.54 421 748.88 424.79 752.08 426.83 754.2 427.67 756.06 431.11 755.89 432.56 754.9 433.51 752.23 434.63 748.24 434.68 747.47 434.35 743 434.94 738.01 435.94 735.95 435.56 734.54 434.42 732.87 429.31 732.42 426.42 730.42 425.53 726.46 426.8 721.55 429.75 720.56 429.66 716.12 427.52 712.63 427.26 710.77 428.47 710.24 429.86 710.51 433.46 711.58 440.99 711.88 442.11 713.39 444.68 713.27 446.78 713.87 450.9 715.71 454.63 715.76 459.52 715.21 460.94 714.63 464.87 713.86 466.52 711.23 467.6 708.39 466.67 703.87 464.05 701.19 463.18 698.7 461.65 697.57 461.63 696.71 463.89 694.98 464.66 693.49 470.39 692.35 473.94 692.5 475.3 693.72 477.27 695.94 479.74 700.47 482.56 706.47 483.94 708.7 484.69 709.79 485.47 711.5 487.99 711.47 489.26 709.61 494.29 706.65 497.93 705.44 497.9 702.85 495.72 701.7 495.55 698.53 496.04 695.85 497.27 694.86 498.93 693.61 499.71 690.39 501.03 688.81 502.77 687.11 504.04 682.1 506.9 679.69 508.65 679.04 511.3 679.32 513.01 681.86 516.81 684.14 522.58 683.44 525.61 681.37 529.58 679.92 531.19 679.42 534.37 678.71 535.32 677.88 538.83 675.41 541.78 674.33 542.28 671.98 540.87 671.65 538.88 672.08 537.11 671.46 534.06 668.98 532.1 665.62 531.6 661.41 529.92 659.34 529.89 657.84 530.43 654.82 533.04 652.56 537.24 649.29 540.17 644.63 544.02 643.72 542.16 642.48 541.12 642.4 540.17 643.36 539.03 643.2 537.72 642.3 536.79 641.88 535.21 639.44 532.15 638.2 529.23 636.58 528.83 632.63 526.96 631.91 525.65 634.09 523.54 633.31 522.6 627.8 523.57 624.58 524.42 587.5 535.28 567.56 540.77 542.28 547.5 542.51 564.98 531.18 565.3 518.94 566 517.13 564.13 514.95 562.45 512.25 561.79 510.21 559.7 507.39 558.1 504.93 557.52 503.17 557.54 499.85 558.94 498.52 558.16 498.45 556.01 472.14 560.47 467.96 561.07 468.55 557.62 470.56 554.59 464.55 552.78 470.96 538.89 452.31 529.23 444.75 527.64 437.67 526.7 430.68 525.94 426.5 525.68 426.69 524.18 425.33 523.7 428.08 519.22 429.82 518.5 430.34 517.72 429.23 514.7 427.95 514 427.5 512.79 427.4 510.6 428.32 510.18 428.54 507.69 427.67 506.51 427.73 504.82 428.61 503.6 428.47 501.88 426.84 500.91 428.48 499.75 429.73 498.01 430.07 495.2 428.52 494.21 428.69 492.5 429.63 488.49 427.64 486.2 428.3 484.49 428.2 482.31 430.23 481.4 431.16 480.5 433.58 479.83 434.75 477.44 435.37 475.39 413.29 457.58 394.76 442.35 380.84 451.85 380.12 448.16 378.46 446.47 378.41 445.42 375.31 442.42 372.79 440.5 371.01 439.99 369.57 438.27 365.5 436.65 362.26 434.77 348.66 441.24 342.95 421.49 342.36 424.02 341.14 425.2 338.57 425.48 337 424.04 335.73 420.15 334.34 418.67 333.33 419.13 331.87 420.81 330.03 421.16 328.91 422.14 329.04 423.87 330.46 427.3 329.67 427.5 326.99 426.76 325.68 427.16 324.03 428.89 321.16 430.71 318.94 433.16 317.25 431.16 314.86 430.89 310.38 431.92 310.36 434.36 309.59 435.25 307.86 435.85 302.72 432.4 291.62 424.41 280.94 417.19 276.78 414.84 256.93 435.32 228.38 410.94 227.8 412.02 225.78 413.63 221.81 414.65 217.65 415.45 214.01 414.64 212.22 414.6 210.62 415.43 210.51 418.14 211.8 419.7 214.01 420.66 216.06 420.87 217.39 421.49 218.26 423.2 218.7 425.99 218.29 427.71 219.03 429.37 220.78 430.84 223.35 432.09 226.25 434.58 226.63 436.45 226.28 438.45 224.12 442.05 223.93 445.74 224.68 449.49 226.09 452.51 226.89 456.96 225.77 458.3 223.85 458.43 222.71 456.74 220.04 455.94 217.99 454.96 215.61 453.39 212.07 452.41 211.28 451.65 212.74 449.45 212.27 445.65 209.54 443.98 207.27 443.52 205.17 442.45 200.18 440.41 199.23 439.71 197.72 439.75 195.96 438.83 195.01 437.61 191.68 436.08 188.96 433.46 186.93 430.22 184.08 427.43 182.38 426.62 181.47 425.4 177.94 422.4 177.55 421.31 174.82 418.66 173.38 416.51 173.11 414.02 172.23 413.68 171.96 410.61 170.99 409.22 170.13 406.7 169.82 404.29 168.6 402.41 166.92 400.7 166.35 397.81 165.82 396.98 162.48 395.17 160.12 392.88 157.63 391.29 155.39 390.47 153.03 388.8 147.7 387.88 144.78 387.68 140.93 387.85 137.32 389.22 135.4 389.54 133.92 390.29 129.83 391.63 126.79 391.29 120.99 389.06 115.57 385.94 113.75 383.95 110.87 382.95 108.33 382.66 104.15 385.58 102.83 385.55 100.37 384.33 98.13 382.6 93.63 380.21 91.49 375.07 90.25 374.05 88.72 374.89 83.16 374.25 79.08 373.15 77.52 373.62 75.7 373.51 72.68 374.36 70.01 374.21 66.36 374.82 64.75 374.68 62.9 373.04 60.75 371.95 59.33 372.45 47.03 363.67 45.85 362.29 42.67 360.66 41.15 359 34.5 354.65 32.38 353.56 30.16 353.95 33.54 352.03 34.3 350.71 34.27 349.53 33.47 347.62 31.81 345.35 29.01 342.04 24.1 337.7 18.43 333.76 9.95 329.47 6.16 327.26 3.27 326.57 1.29 325.01 1 323.38 1.56 322.58 3.36 321.97 9.39 321.12 16.08 319.85 20.15 319.89 23.07 318.81 24.67 317.41 25.78 315.03 25.75 313.4 24.51 305.52 24.86 303.04 27.16 302.22 30.37 303.63 33.7 306.02 38.87 310.71 41.38 312.04 45.68 313.04 48.05 313.06 51.53 312.5 53.94 311.15 58.18 310.08 63.03 309.41 70.11 309.16 75.42 309.47 78.41 308.6 79.67 307.21 80.37 305.31 80.78 301.97 80.45 299.99 78.64 293.15 79.59 290.32 79.2 288.69 77.84 286.89 73.17 283.57 67.7 280.7 61.01 277.63 55.83 275.97 49.28 272.97 46.7 270.76 45.75 269.48 44.63 266.6 44.48 265.27 42.56 258.48 41.61 255.59 39.26 250.7 38.08 249.12 35.19 247.76 33.98 246.38 34.06 243.86 35.56 242.66 40.24 240.37 43.21 239.15 46 236.92 47.67 233.7 48.29 230.05 49.28 229.13 54.25 229.31 58.7 230.15 61.75 231.37 67.18 233.96 68.99 234.59 72.23 234.9 77.4 234.46 79.94 237.14 80.29 238.63 79.91 240.59 80.53 241.81 82.89 242.49 83.98 243.73 84.16 245.58 85.27 246.41 89.7 246.36 93.34 247.66 94.36 248.44 96.98 251.84 100.18 253.56 101.69 253.69 102.49 251.71 103.92 251.44 105.74 253.41 107.38 254.43 109.85 255.32 113.52 259.16 114.11 260.88 117.13 263.47 118.69 265.79 120.29 267.02 121.49 267.23 124.53 266.78 125.32 267.28 125.49 269.75 128.5 272.16 130.22 274.01 129.75 276.28 130.8 277.3 134.12 276.86 137.19 277.46 138.16 276.21 140.55 278.42 143.47 277.7 148.88 277.77 152.6 276.98 154.08 276.37 155.78 276.7 158.55 275.04 159.88 274.97 164.18 272.06 164.93 271.13 167.36 269.37 168.4 267.53 170.51 267.32 171.92 266.73 174.21 267.64 177.9 268.33 180.41 267.11 183.66 267.27 184.82 265.74 188.78 265.64 190.42 264.35 192.49 263.62 196.69 262.71 198.44 261.17 200.2 261.28 201.77 259.54 202.4 257.74 202.2 256.46 204.96 254.61 206.63 252.82 209.62 252.77 211.62 253.41 212.8 253.18 213.53 252.05 216.5 250.49 218.03 248.6 218.25 246.26 217.92 244.26 219.57 243.03 220.03 241.67 221.87 240.2 223.24 239.73 222.57 238.59 223.9 238.15 224.36 236.41 226.63 234.28 300.17 247.3 303.94 246 306.87 245.23 308.52 243.25 309.39 240.65 309.38 238.57 309.94 236.39 309.97 234.76 310.56 233.59 312.1 232.51 315.52 232.31 318.11 231.02 319.24 230.88 319.68 229.62 319.39 227.23 318.66 226.05 317.1 224.88 314.97 224.63 309.74 225.18 306.1 225.2 301.91 224.46 300.31 223.59 300.49 222.23 302.89 221.19 307.65 220.88 310.83 218.83 312.23 217.21 312.25 215.14 311.19 213.03 309.8 212.28 307.83 212.76 306.6 213.58 305.27 213.21 304.56 212.15 302.98 208.57 303.14 206.73 305.46 202.79 307.84 199.79 309.41 198.29 313.57 197.62 316.56 198.17 318.36 197.45 318.96 191.63 320.55 191.16 322.79 192.26 326.35 192.42 327.85 191.6 330.91 188.45 333.04 185.27 334.37 182.03 334.63 178.74 336.14 174.69 336.89 172.11 337.68 170.66 363.39 171.33 363.47 163.35 458.3 157.57 459.04 172.63 490.98 169.19 490.94 173.27 518.4 170.24 518.45 174.04 543.55 173.71 543.59 164.46 580.01 158.47 579.92 149.72 649.59 142.43 649.41 136.84 672.81 136.23 672.76 121.76 693.98 120.59 692.27 115.3 704.57 114.51 710.48 73.78 713.61 50 715.08 41.81 716.38 31.41 719.92 30.33 721.63 28.68 723.35 30.21 725.17 30.67 725.11 28.39 724.49 27.3 724.55 25.79 725.39 24.86 727.38 23.9 727.9 21.04 728.94 19.58 730.26 19.7 730.92 18.2 732.72 17.67 732.39 16.17 733.04 15.02 737.83 14.09 739.3 12.72 740.36 10.91 742.87 10.1 744.2 8.57 747.04 7.02 749.77 7.92 751.35 7.78 752.59 6.27 756.65 4.2 759.28 5.09 761.48 4.56 763.06 5.04 765.74 4.44 766.5 2.93 767.79 3.18 769.02 2.12 770.87 2.96 772.36 2.04 776.42 1 779.68 2.17 781.57 3.21 784.38 6 783.69 8.45 784.49 9.89 784.83 14.49 786.03 18.76 787.92 20.39 789.12 22.31 791.61 23.94 793.56 24.78 794.68 26.01 797.1 26.79 797.88 27.46 799 29.88 797.75 31.54 797.17 33.9 796.03 35.04 789.1 39.84 788.02 41.97 789.79 45.65 793.6 49.47 794.16 50.66 794.32 53.19 795.64 57.27 795.15 61.06 794.61 62.08 792.4 64.46 790.39 67.2 789.79 70.09 789 71.4 787.92 72.05 785.44 72.61 779.81 74.6 777.97 75.81 774.05 79.4 770.68 83.26 768.99 84.36 767.36 86.21 766.73 87.85 767 88.82 768.33 90.31 770.65 91.65 772.56 95.84 774.02 97.41 773.24 98.72 769.63 100.94 769.36 104.37 768.77 108.58 768.25 110.39 766.74 113.48 Z"/>
</g>
</svg>