<?xml version="1.0"?>
<svg xmlns="http://www.w3.org/2000/svg" version="1.2" baseProfile="tiny" width="800" height="404" viewBox="0 0 800 404" stroke-linecap="round" stroke-linejoin="round">
<g id="4217907">
<path d="M 353.88 81.44 354.4 79.52 356.71 77.47 357.38 75.83 358.5 74.78 360.4 74.11 361.21 77.05 361.42 80.09 362.46 82.35 363 85.05 363.52 86.24 364.23 86.89 364.76 88.47 367.68 88.9 368.87 89.9 370.63 90.4 371.53 91.41 373.53 92.99 374.98 94.73 375.65 96.24 379.39 97.82 380.51 97.84 381.51 98.39 381.87 99.33 383.04 100.21 382.84 100.9 383.63 102.15 384 103.59 383.88 104.74 384.24 106.97 384.16 108.01 385.45 110 384.97 111.57 386.05 112.03 386.46 113.53 385.71 114.59 385.77 116.39 386.53 117.83 386.43 118.76 385.4 119.57 383.99 121.46 383.68 123.18 379.3 125.79 380.72 127.56 383.28 128.74 385.1 129.82 387.71 129.6 389.9 128.78 391.64 128.7 393.38 129.25 394.85 130.03 397.73 130.84 400.46 130.89 402.63 130.47 405.56 129.61 408.05 128.47 409.26 127.7 409.96 126.2 409.78 125.54 408.41 123.89 407.73 122.17 406.02 121.73 403.51 122.7 401.78 122.57 397.58 121.39 396.39 120.35 396.71 119.38 397.99 118.82 400.26 116.78 400.84 115.22 401.54 114.83 402.78 114.89 404.68 115.51 406.94 115.33 410.61 112.77 411.06 112.01 411.22 110.62 410.94 109.61 410.01 108.85 407.68 108.04 406.52 107.39 404.04 104.24 404.25 103.06 406.33 101.55 407.65 99.22 409.12 98.5 412.9 98.1 413.4 98.45 414.86 100.83 415.63 103.62 417.03 107.62 417.71 108.18 421.97 109.46 423.88 110.32 425.15 110.37 426.19 109.51 427.54 107.31 427.78 106.07 427.3 103.48 427.82 102.68 430.1 101.3 431.21 100.93 433.24 100.94 434.51 99.08 434.58 97.59 434.98 96.69 436.16 95.7 438.07 94.85 440.24 94.91 440.99 95.5 441.59 96.88 442.86 98.22 443.75 98.63 446.18 100.51 448.26 102.87 448.92 104.7 450.04 106.7 451.13 107.07 453.22 106.31 455.86 104.77 456.84 104.67 459.82 105.92 461.18 106.02 461.98 105.61 464.31 101.83 465.72 100.45 466.86 100.67 469.33 100.35 470.35 100.45 472.01 101.44 475.13 102.22 475.87 102.2 478.43 101.22 481.18 100.42 483.07 99.64 485.32 98.11 486.46 96.32 487.75 95.05 488.87 93.06 489.89 93.12 491.28 94.38 492.72 96.2 492.6 98.7 492.32 100.87 491.5 101.01 490.29 99.99 489.4 100.66 489.33 102.1 489.62 103.98 488.33 106.98 485.61 108.71 485.51 110.31 484.9 111.48 483.84 112.48 481.13 114.48 479.54 115.33 478.83 116.04 477.49 116.65 474.95 117.4 473.31 117.6 470.55 118.53 469.5 119.1 467.91 120.73 467.21 121.91 466.95 123.29 467.11 124.47 469.47 128.07 470.38 129.76 472.31 131.62 473.17 131.82 477.27 131.95 478.89 131.42 482.69 130.6 483.68 130.81 484.84 132.7 486.89 133.4 488.69 134.46 489.5 136.24 489.49 137.37 490.29 139.45 492.48 141.05 493.86 141.42 496.33 143.13 497.89 144.61 497.66 145.41 496.7 145.84 495.74 147.31 497.09 149.12 498.63 150.36 499.87 150.85 501.42 150.96 503.61 149.79 506.24 147.18 507.2 147.04 508.54 147.51 510.5 146.95 513.15 147.48 516.56 146.69 518.69 146.37 522.5 146.7 523.45 147.36 523.62 148.14 523.1 149.23 523.96 150.56 524.63 150.6 526.45 149.29 526.81 147.55 526.18 145.77 526.99 142.63 526.29 141.16 524.98 140.06 522.64 138.6 520.28 137.7 518.7 138.66 514.48 140.24 511.79 140.78 510.52 140.73 510.33 140.18 511.85 138.8 512.73 137.21 512.94 134.41 512.56 134.17 508.76 136.91 508.41 135.77 510.09 131.16 510.34 129.6 510.81 128.78 512.32 128.63 513.29 129.76 515.4 129.84 515.67 129.39 513.88 126.69 511.87 124.13 512.05 123.14 513.4 122.59 515.4 123.17 518.81 125.35 520.19 126.53 523.37 128.36 524.15 129.38 523.94 130.4 520.58 131.2 520.54 132.25 521.02 133.41 521.87 134.07 523.22 134.44 524.96 135.82 525.98 136.25 526.92 135.82 526.83 132.84 527.45 132.07 528.51 132.32 530.5 134.41 531.38 135.08 534.06 135.55 535.81 135.39 537.32 134.92 537.13 133.23 537.33 131.62 535.72 131.39 535.26 130.87 533.75 127.98 532.52 123.44 532.61 122.92 535.43 121.18 536.61 121.3 536.68 120.41 534.11 118.53 531.32 117.74 531.07 116.19 532.34 115.68 533.36 115.95 534.46 115.66 535.49 114.96 535.51 114.21 534.75 113.38 534.68 112.62 535.38 111.94 537.01 112.26 537.72 113.8 538.3 114.23 539.85 114.17 543.46 112.79 544.47 110.69 545.14 110.39 548.85 110.47 550.15 109.74 551.54 106.98 551.73 106.01 552.91 106.51 553.99 105.38 554.86 103.1 554.35 102.26 550.79 98.92 550.29 98.11 550.3 96.6 550.74 95.73 552.47 94.54 555.26 95.14 558.48 95.16 559.99 96.29 562.83 96.42 563.67 96.69 564.41 97.87 564.68 99.27 565.28 100.38 562.82 103.18 562.39 104.34 561.17 105.26 560.94 107.28 559.76 109.93 559.8 111.13 558.89 114.35 559.85 115.45 564.1 114.36 565.76 114.45 567.78 114.99 569.78 114.35 571.92 114.86 574.56 115.15 577.73 115.26 580.24 116.54 581.71 116.44 582.69 115.06 582.98 113.77 585.08 113.24 586.23 113.37 587.19 114.29 588.2 115.97 589.15 116.01 590.22 115.34 591.98 114.74 592.31 115 592.49 116.8 593.14 117.52 595.2 118.6 597.13 119.32 597.69 120.27 597.71 121.2 596.12 123.63 595.55 124.02 591.2 124.95 589.93 124.99 586.68 125.96 581.68 126.53 579.81 127.64 578.3 129.37 577.27 129.89 575.88 131.46 574.13 132.8 574.3 133.53 576.53 135.04 578.16 136.52 578.25 137.71 576.41 139.85 576.38 140.56 577.01 142.42 579.49 143.38 581.51 144.53 582.46 144.8 584.33 144.62 586.2 143.18 587.04 141.7 585.78 137.95 585.91 137.44 587.36 136.78 589.15 136.65 591.43 136.93 591.98 137.78 593.22 138.35 594.38 138.33 595.26 137.74 596.51 137.69 597.8 138.99 600.65 140.59 602.68 143.95 604.79 146.16 604.13 147.08 604.17 148.27 604.92 148.92 607.32 150.21 609.59 151.77 610.97 152.19 610.61 153.01 611.11 153.86 615.08 156.53 615.95 156.46 617.74 155.5 619.52 154.96 621.34 154.67 621.69 154.24 622.66 151.47 622.57 149.04 622.18 146.33 622.18 144.65 622.83 143.39 622.99 141.92 624.68 140.46 626.57 141.06 628.27 140.96 629.59 140.57 630.63 139.23 632.49 138.72 633.28 139.17 635.43 138.81 636.58 139.88 637.45 140.23 639.47 140.48 641.01 141.01 641.61 141.67 644.25 141.82 644.81 141.51 646.86 141.46 649.48 142.57 652.04 144.7 653.35 146.13 653.66 148.24 664.75 175.18 666.01 176.6 666.79 176.94 669.38 176.17 670.09 175.62 670.45 173.89 669.15 170.92 669.76 170.49 671.05 170.46 671.69 171 672.53 170.41 673.19 169.31 674.81 168.47 677.27 169.06 678.36 168.78 679.28 167.28 680.36 167.76 681.43 167.2 682.91 166.99 685.17 167.66 686.43 167.31 686.9 166.66 686.65 165.02 687.62 163.94 688.95 165.2 692.46 164.76 693.58 164.92 695.6 166.67 696.29 166.22 697.22 167.46 698.09 167.67 700.72 167.76 702.02 167.44 703.2 168.22 705.31 167.41 706.59 168.74 708.26 168.87 709.71 167.59 711.14 167.44 713.83 165.88 715.35 165.32 718.24 165.26 721.17 165.92 721.68 166.59 722.73 166.91 725.39 167.03 726.13 168.42 726.68 168.75 729.19 168.62 730.06 168.37 732.79 168.32 736.05 169.23 737.7 168.03 740.72 167.18 743.02 167.41 744.38 166.94 745.43 167.18 744.71 165.4 745.41 164.5 747.01 164 749.57 165.37 751.76 165.21 752.7 166.15 754.28 165.77 754.5 165.3 756.48 164.38 756.98 163.45 757.41 160.98 758.13 160.4 760.44 159.52 761.26 158.41 760.74 157.41 760.93 156.73 761.96 156.09 763.49 155.72 764.54 154.16 767.62 152.05 767.99 150.91 769.96 147.06 770.76 145.89 771.17 144.49 771.21 142.78 773.96 141.63 778.35 140.58 780.17 139.72 782.36 138.99 785.13 138.69 786.56 138.8 799 139.03 795.81 140.53 794.28 141.88 793.69 142.9 791.53 144.86 788.7 145.87 785.64 147.73 784.56 150.16 783.38 151.32 782.37 153.26 782.12 154.65 782.49 155.83 784.62 159.76 785.18 160.49 787.54 162.33 787.15 162.99 783.82 162.66 781.51 161.32 779.26 161.22 777.68 162.47 775.8 164.63 775.43 165.39 775.32 167.29 774.36 169.38 772.23 171.41 771.82 173.07 771.22 174.24 770.05 175.4 767.34 176.76 766.63 178.23 766.43 180.32 765.03 182.04 764.54 183.58 764.92 184.75 765.76 185.83 765.5 186.57 763.53 186.55 760.38 187.88 756.21 188.7 754.25 189.62 752.94 191.93 752.44 194.93 752 195.61 749.76 196.99 747.32 197.89 743.87 198.02 742.94 198.75 740.98 205.78 740.4 206.89 738.96 208.79 738.07 209.18 736.45 208.76 735.24 207.74 732.69 206.36 730.7 206.29 729.51 207.44 727.48 211.82 725.1 214.11 721.14 215.72 718.96 215.93 715.81 217.36 713.36 217.19 710.78 215.55 709.9 215.44 708.63 216.89 708.02 219.76 707.6 220.87 705.7 223.7 704.75 224.75 701.76 225.98 700.71 225.9 698.83 225.25 694.27 223.23 691.52 222.58 690.06 222.65 687.6 223.79 686.48 224.65 682.12 228.64 676.64 232.82 674.75 236.04 674.44 237.35 674.29 239.63 673.33 241.09 670.65 242.51 669.34 242.78 665.09 243 661.89 242.94 658.56 243.36 653.78 244.8 650.83 243.47 649.14 243.53 647.07 244.9 645.69 245.44 641.97 246.29 641.04 246.83 641.02 248.05 643.84 251.17 646.22 254.23 646.08 255.15 644.38 257.06 641.08 259.32 638.66 261.25 636.91 261.91 636.39 263.71 636 268.95 635.72 270 634.75 271.08 631.91 272.14 630.29 272.18 629.67 271.7 628.22 271.49 626 272.17 625.33 273.48 625.19 277.74 625.95 282.75 624.93 284.2 621.24 284.79 617.25 286.57 613.72 287.3 612.5 287.19 611.44 287.56 611.06 288.55 611.02 290.87 611.65 293.42 611.78 297.01 612.5 298.27 615.27 299.54 616.87 301.99 616.89 303.46 615 306.09 613.19 307.39 612.18 308.63 611.99 310.38 612.67 311.74 613.68 312.85 614.09 313.8 614.55 316.43 614.17 318.62 613.14 319.16 611.99 319.02 610.88 319.31 610.2 320.23 609.79 322.32 609.07 323.55 606.33 325.08 605.58 325.73 605.72 326.87 606.56 329.08 607.81 331.09 609.38 332.63 609.79 333.8 609.85 335.42 610.51 336.96 611.43 338.02 611.03 339.03 608.5 340.92 604.79 344.77 603.13 346.78 599.43 350.48 598.84 351.52 598.52 353.42 597.39 356.58 595.6 359.22 594.15 360.71 592.47 362.09 590.76 363.14 590.76 363.88 589.92 367.39 589.4 368.36 587.74 369.41 585.84 369.82 580.85 370.45 575.78 370.98 574.72 370.87 573.71 370.24 572.64 370.19 570.14 371.89 568.28 372.74 566.6 375.01 562.23 376.84 561.19 377.55 559.52 379.39 556.57 384.27 555.28 386.78 554.21 387.54 552.41 387.56 551.23 387.17 548.47 384.69 546.73 383.87 544.04 383.78 542.87 382.97 541.43 383.57 541.13 384.6 540.64 388.25 539.37 391.46 538.22 392.74 537.63 392.93 535.34 392.75 534.05 393.16 533.76 394.29 533.9 395.63 533.61 398.94 533.39 399.68 532.24 399.86 526.79 397.97 526.15 398.1 524.65 399.27 523.68 399.69 521.62 399.67 519.95 398.94 517.69 398.6 515.28 397.91 512.97 397.89 511.89 397.24 510.69 395.79 509.18 395.77 508.07 396.53 507.69 398.95 506.83 400.61 504.82 401.49 503.82 402.82 501.83 403 500.69 402.28 499.18 399.6 498.46 398.74 496.44 397.8 493.51 398.09 491.6 397.35 486.69 399.28 484.09 399.76 482.57 399.35 480.31 398.01 478.45 397.57 477.49 397.05 475.82 394.18 475.86 393.1 477.59 391.44 477.98 390.07 476.48 388.69 475.36 388.28 472.6 388 467.06 388.39 464.69 386.62 463.35 386.19 461.36 386.19 458.89 385.54 456.52 385.12 454.73 384.49 452.43 383.26 450.88 380.15 448.59 378.29 445.69 377.99 443.56 377.08 442.61 375.19 441.52 374.04 441.3 371.79 440.2 366.87 438.67 362.95 437 359.85 434.8 358.47 431.04 357.37 425.44 356.65 421.15 356.37 417.57 356.36 417.11 356.07 416.95 353.83 417.13 346.59 418.09 342.97 417.5 342.25 415.84 341.82 411.57 341.36 410.42 341.11 407.64 339.56 406.01 336.5 406.26 334.84 404.65 333.52 401.11 333 397.57 333.29 395.59 334.52 394.13 335 393.26 334.87 388.82 332.7 387.69 331.82 384.26 330.24 379.54 327.68 378.93 327.79 376.97 330.6 375.03 331.73 372.03 333.8 368.81 335.24 367.12 336.84 365.24 337.78 363.77 337.92 361.11 337.53 360.29 336.27 360.39 334.84 359.79 333.23 358.54 331.71 356.8 330.48 350.86 326.63 348.1 325.65 343.16 324.21 341.13 322.39 340.98 320.48 339.98 318.52 337.04 315.19 336.15 314.4 334.86 312.62 333.55 309.83 331.99 309.36 327.31 309.07 323.93 308.43 321.54 308.4 321.07 307.91 321.39 304.14 321.09 301.32 321.33 297.31 321.12 296.9 318.71 296.05 314.42 295.25 312.25 295.27 310.27 295.58 308 294.58 305.44 292.31 303.34 291.57 303.07 290.54 303.98 287.14 304.09 285.78 302 277.25 300.79 275.93 298.99 274.7 297.58 272.63 297.18 270.95 297.77 268.53 299.38 266.04 299.59 264.82 299.11 260.47 298.16 255.34 297.13 254.4 296.27 254.17 290.53 253.68 287.13 252.96 285.56 252.08 284.91 250.97 283.91 248.41 283.54 246.53 283.44 242.97 282.47 240.29 282.04 239.87 280.31 240.31 275.58 240.72 271.63 241.25 269.93 240.85 267.12 239.73 263.99 238.76 261.82 237.19 259.56 234.21 258 231.43 256.67 230.12 253.49 228.72 252.36 227.87 251.6 226.36 250.89 223.87 249.31 221.47 248.87 219.39 249.29 218.19 248.1 218.48 245.96 220.67 241.73 221.58 236.1 222.3 232.22 220.96 231.28 220.91 228.58 221.28 223.73 221.25 219.86 222.36 216.11 223.96 215.14 224.12 214.18 223.34 213.75 222.11 213.71 219.24 214.17 217.06 215.3 213.38 214.93 211.28 213.37 208.66 212.36 207.49 212.17 206.36 213.71 203.35 214.85 201.84 216.43 200.37 217.67 199.53 218.07 198.7 217.83 196.85 216.14 194.11 214.92 192.76 212.97 191.18 210.33 189.88 207.32 188.14 204.32 185.69 204.13 184.8 204.57 183.36 206.87 180.21 206.8 179.31 205.41 178.19 202.88 177.34 201.04 177.08 198.23 177.11 195.83 176.9 194.4 177.49 192.69 177.85 190.79 177.95 186.89 177.2 185.45 177.28 183.69 175.9 182.46 176.25 179.65 175.72 176.52 175.77 175.75 174.94 174.74 174.81 172.94 174.07 170.8 174.98 166.32 175.22 164.97 175.09 163.51 174.52 160.47 174.51 158.68 174.23 158.03 174.52 157.64 175.71 154.56 173.79 153.47 174.45 150.58 176.77 150.57 178.24 150.17 179.06 148.34 180.47 146.17 179.84 145.05 180.27 143.3 179.84 141.65 179.77 139.11 180.45 137.17 181.6 135.59 181.78 134.59 182.54 133.98 184.16 133.44 186.59 132.68 187.3 130.51 188.37 128.77 190.7 126.66 192.03 126.03 192.82 126.13 194.8 124.77 196.3 124.75 197.78 124.11 200.25 122.39 201.95 121.39 203.38 120.52 205.61 118.53 206.05 117.34 205.7 115.35 205.84 112.78 207.09 111.96 206.28 110.6 205.79 109.12 205.96 107.81 206.53 106.31 206.31 105.15 206.63 102.8 206.38 102.62 207.54 101.55 210.7 99.78 211.61 98.7 212.48 97.14 212.95 96.32 212.88 87.04 222.59 84.4 223.07 83.26 222.64 81.89 220.25 80.78 219.79 79.46 218.63 78.18 218.04 76.89 217.99 75.55 216.91 74.19 216.63 73.03 215.41 71.56 214.8 70.48 213.87 69.57 213.74 67.97 212.71 66.33 211.29 64.58 210.68 64.02 210.14 62.64 209.73 61.85 208.65 60.15 208.63 57.05 207.8 55.21 207.95 52.72 207.44 50.28 206.2 48.14 206.77 45.96 206.88 44.95 206.29 41.94 206.07 39.47 205.11 35.86 204.8 34 202.97 33.22 202.54 32.93 201.24 29.69 200.37 28.21 200.99 28.73 202.2 27.64 202.64 26.91 202.24 26.26 200.69 26.04 199.36 25.39 199.08 23.63 199.51 22.74 199.37 22.49 196.92 20.98 196.07 18.42 195.27 15.94 193.59 15.02 191.5 12.52 192.29 11.79 191.38 12.66 190.33 11.91 188.93 10.41 187.95 9.64 187.09 9.24 185.9 9.25 182.3 11.28 180.96 11.92 180.08 11.28 179.63 8.52 178.43 8.18 178.05 8.29 176.56 9.11 176.03 10.93 175.52 12.77 175.39 12.94 174.65 12.52 172.88 12.05 168.53 11.15 166.97 10.7 167.01 8.14 169.09 7.43 169.2 6.71 167.91 7.74 166.91 7.57 164.94 6.19 164.65 4.65 165.55 1.84 165.82 1.09 165.31 1 164.53 3.6 163.72 5.15 162.98 6.26 162.1 7.99 160.22 9.44 159.85 10.64 159.18 9.89 156.8 9.87 154.65 9.37 153.5 7.48 151.75 5.01 151.98 4.06 150.36 5.66 148.44 5.63 147.26 4.76 146.72 4.35 145.62 5.2 144.19 6.54 143.25 7.19 142.16 8.93 140.81 8.73 139.71 5.87 139.56 3.23 137.88 2.34 136.62 2.39 135.29 3.76 135.25 9.63 132.48 12.75 130.58 15.24 128.03 17.61 124.82 17.86 122.68 19.05 120.1 20.73 118.55 22.55 119.01 23.71 118.46 23.81 115.83 24.23 114.41 24.04 113.23 24.25 111.25 25.35 109.67 25.54 108.74 25.06 107.66 26.26 104.13 28.16 100.46 27.86 99.23 28.82 98.01 28.87 96.9 29.99 94.23 30.07 93.15 30.69 91.65 31.92 90.02 32.59 89.74 34.47 85.65 32.79 84.08 32.8 81.17 31.47 78.39 31.96 76.9 30.88 75.91 30.22 74.82 29.9 73.4 30.14 71.98 30.11 69.48 31.52 68.59 33.06 64.83 34.51 63.26 35.27 60.43 36.29 58.87 37.16 56.94 38 56.64 41.26 56.6 42.45 56.36 44.49 56.55 46.22 56.3 47.46 55.47 48.44 55.22 52.25 55.79 52.83 55.59 55.04 53.35 55.76 52.31 59.79 50.61 63.84 49.97 67.14 48.37 68.55 47.41 69.82 45.72 71.67 44.11 72.24 43.02 73.82 42.07 75.39 41.48 77.01 39.93 78.78 39.32 80.01 38.14 81.17 35.8 81.43 34.46 82.39 33 83.37 32.1 83.36 30.81 84.26 30.08 85.47 29.74 88.3 27.29 77.21 18.81 78.48 14.43 79.7 13.13 81.83 12.78 84.47 12.82 85.61 12.5 88.17 10.69 90.1 9.92 92.39 8.1 93.28 7.12 93.72 5.6 94.51 4.45 95.98 1 96.05 5.89 105.53 5.72 106.19 19.76 106.25 22.56 109.63 23.4 111.67 23.36 113.31 23.9 114.8 25.2 115.77 26.81 117.28 26.76 119.11 27.38 121.62 28.62 123.61 30.09 125.55 32.19 127.18 33.55 129.5 36.28 131.09 37.57 133.11 36.6 135.38 35.9 136.93 34.92 138.7 34.15 141.73 34.13 146.31 34.42 148.65 34.11 151 32.54 153.52 31.8 155.93 31.29 158.68 31.04 161.64 30.6 166.04 29.03 167.66 28.33 169.1 28.36 170.9 28.97 172.53 30.37 173.8 32.21 174.02 33.82 174.68 36.51 175.64 38.91 177.35 41.28 178.32 42 180.21 42.01 181.45 41.17 183.76 37.84 184.6 34.08 184.83 32.29 244.52 40.16 244.03 50.6 263.47 51 263.3 59.97 320.14 66.97 321.63 69.45 323.44 71.98 323.56 74.46 325.18 77.92 326.6 77.29 329.34 76.64 332.04 76.35 335.99 74.66 337.73 74.44 338.57 75.72 338.5 77.15 339.95 78.45 342.08 79.9 342.98 80.75 346.14 81.54 347.54 82.49 348.86 82.56 349.65 81.87 351.45 81.34 353.88 81.44 Z"/>
</g>
</svg>