<?xml version="1.0"?>
<svg xmlns="http://www.w3.org/2000/svg" version="1.2" baseProfile="tiny" width="800" height="804" viewBox="0 0 800 804" stroke-linecap="round" stroke-linejoin="round">
<g id="4217006">
<path d="M 775.57 449.28 799 475.59 627.95 693.25 625.04 698.91 619.88 717.96 616.26 728.09 607.54 743.05 602.64 748.98 594.43 755.07 585.56 758.92 578.34 765.84 568.21 771.24 565.19 779.66 568.64 780.8 568.33 785 566.07 790.11 567.96 796.92 568.31 802.63 558.63 797.9 547.14 793.24 539.72 792.33 533.27 790.4 522.1 791.03 513.26 789.75 512.44 786.11 513.13 781.46 515.15 777.97 514.18 772.25 511.41 767.26 509.1 765.74 498.34 761.46 495.38 759.4 487.03 748.12 483.35 746 471.81 741.57 461.48 733.52 454.85 722.28 452.44 719.94 444.57 718.84 438.12 720.11 428.73 723.3 424.32 721.31 420.42 723.57 419.58 727.61 420.79 732.61 418.96 737.77 418.37 742.77 418.78 749.41 290.23 803 289.06 797.83 287.06 793.92 285.27 787.4 282.74 782.28 281.27 776.8 281.27 772.32 276.43 774.43 269.75 781.78 261.77 785.36 259.36 788.25 255.23 787.64 252.66 779.97 254.41 772.51 257.43 769.07 255.11 765.47 250.22 764.29 240.31 764.9 230.56 762.05 229.04 759.93 229.94 756.57 229.66 750.23 224.82 745.55 222.62 742.23 220.96 732.66 222 728.36 226.4 721.55 227.27 717.61 225.44 707.53 226.96 701.89 230.18 694.31 234.21 690.29 238.8 687.9 240.73 684.96 239.1 679.4 239.19 672.09 228.57 666.09 228.97 660.66 231.44 654.96 234.25 646.09 227.19 640.24 221.74 638.89 214.05 635.89 209.82 632.98 207.29 626.97 206.45 620.12 206.49 612.78 204.86 607.2 201.61 601.31 191.29 593.94 187.42 585.49 184.63 583.94 185.71 591.69 184.7 599.76 187.11 602.78 185.48 607.98 178.58 612.09 174.31 620.46 163.37 628.42 152.67 630.99 138.41 637.34 134.01 637.51 127.1 634.22 121.91 635.95 116.9 634.16 109.99 633.72 106.65 632.32 103.92 629.2 99.96 626.81 95.56 627.36 86.2 637.51 83.38 639.2 71.6 641.85 66.42 637.51 65.25 629.43 63.69 627.25 63.3 622.07 61.86 620.12 49.53 610.47 39.56 602.23 27.41 598.49 24.35 594.65 16.77 589.74 15.54 583.89 16.82 574.36 20.45 561.71 22.17 559.14 25.41 558.31 28.58 555.35 30.03 551 28.86 547.05 28.22 539.03 24.79 535.34 14.09 532.95 11.09 531.11 5.12 529.66 3.28 528.26 1 521.19 1.06 512.6 1.89 508.64 7.52 498.61 10.14 496.44 14.04 495.49 25.52 494.99 32.04 481.95 35.71 480.11 46.47 479.44 61.68 475.76 70.04 475.59 70.82 472.08 76.61 465.73 75.94 463 72.38 459.43 71.77 455.47 73.05 449.45 71.26 445.5 65.38 439.92 63.85 436.97 63.85 428.05 67.09 423.93 70.43 415.73 70.71 405.76 73.38 402.69 73.16 397.95 67.64 392.94 65.53 388.42 66.08 382.9 64.24 376.22 60.06 369.75 59.67 362.34 58.78 359.22 53.04 357.15 45.58 357.04 41.01 353.53 41.12 341.99 42.46 338.15 45.69 335.42 50.81 333.8 56.78 333.08 63.03 328.52 66.8 323.77 74.71 317.94 81.23 312.28 87.37 305.65 91.21 300.47 90.71 292.61 91.99 285.98 88.93 279.9 83.97 275.22 82.46 269.48 88.39 263.66 94.84 258.43 90.81 255.88 72.15 112.89 73.73 100.74 73.62 87.69 72.18 83.73 63.16 76.78 57.26 76.11 41.74 68.98 31.78 64.81 26.77 64.25 22.65 61.3 17.14 61.8 9.18 65.36 7.74 64.75 9.85 58.52 11.3 56.9 13.3 44.05 52.9 6.24 167.44 1 163.77 5.42 164.64 15.58 168.93 17 178.46 13.37 188.03 12.46 193.63 17.57 194.18 23.83 193.07 27.68 193.73 35.23 199.42 38.95 200.11 44.77 201.67 48.5 204.89 50.56 214.19 52.53 217.8 61.07 219.88 63.48 227.6 67.48 234.61 68.48 237.89 67.09 241.18 61.41 245.79 59.74 248.69 61.97 254.59 78.72 258.76 82.4 270.12 83.95 275.01 87.35 280.3 89.36 296.49 93.14 304.49 95.88 313.79 96.87 327.6 94.04 334.55 89.63 336.89 84.62 339.73 81.9 344.18 75.38 349.52 69.82 355.31 66.37 365.21 66.48 369.11 67.87 380.46 70.6 385.41 77.94 389.62 81.34 398.66 78.62 408.26 77.75 412.11 73.83 416.36 71.56 428.05 72.43 428.8 68.37 432.71 67.09 435.08 68.05 437.59 73.57 445.28 79.93 445.45 83.59 447.79 87.09 453.95 89.48 456.39 88.88 461.18 90.34 470.2 100.14 488.35 116 489.47 117.65 488.61 123.85 485.16 126.59 481.28 127.46 473.77 127.52 469.42 129.06 454.51 152.42 452.08 156.75 451.29 165.82 449.01 183.68 450.83 189.23 460.66 187.53 466.23 185.25 466.27 182.39 476.8 183.88 478.62 181.86 484.24 180.79 492.57 182.3 499.52 181.07 501.94 179.64 505.48 174.72 505.34 168.55 508.95 165.65 516.2 166.39 523.97 169.35 532.28 169.08 540.31 170.51 544.63 174.34 542.83 179.27 544.68 180.88 547.74 190.19 556.78 196.02 561.04 195.67 571.44 198.9 573.73 198.26 587.89 198.16 590.22 197.24 594.29 192.35 597.34 190.57 605.8 188.29 612.92 193.6 616.85 193.32 624.01 194.75 630.71 194.92 632.88 195.93 652.25 195.7 655.4 196.83 656.54 199.48 655.04 202.99 653.79 211.65 654.77 214.06 658.77 218.47 660.71 222.87 659.77 226.26 656.98 230.61 660.21 234.61 660.21 236.51 656.54 238.46 651.81 244.02 651.25 252.71 650.25 258 647.02 262.01 646.91 264.68 650.36 269.03 651.75 275.76 655.09 282.89 658.21 286.51 661.55 288.57 670.34 289.96 677.47 295.53 681.7 296.42 688.1 295.75 692.22 307.06 697.62 313.68 705.91 319.47 709.81 319.2 716.44 314.85 719.39 314.8 721.84 317.3 723.51 325.82 722.95 331.83 721.22 338.18 728.13 353.11 732.58 361.4 731.69 367.14 736.14 373.71 736.92 377.72 736.31 385.51 735.14 388.74 730.24 397.49 727.29 401.66 724.4 408.01 719.89 410.62 717.05 414.41 712.43 423.6 716.44 428.16 720.5 429.67 730.91 429.33 736.8 431.65 744.16 437.3 754.79 435.18 758.3 436.02 760.47 442.47 762.3 444.65 768.76 447.76 775.57 449.28 Z"/>
</g>
</svg>