<?xml version="1.0"?>
<svg xmlns="http://www.w3.org/2000/svg" version="1.2" baseProfile="tiny" width="800" height="553" viewBox="0 0 800 553" stroke-linecap="round" stroke-linejoin="round">
<g id="4217709">
<path d="M 799 181.45 786.77 183.51 774.27 186.99 768.87 190.87 763.88 197.6 758.47 208.94 756.42 215.14 752.55 220.88 746.34 226.84 734.51 236.18 723.86 246.88 715.94 252.86 700.85 259.39 678.52 265.15 673.96 267.06 663.86 273.31 663.33 281.28 659.07 284.86 659.95 287.47 665.13 289 666.52 291.13 664.92 293.62 662.2 292.99 660.38 294.71 660.1 296.63 658.2 298.6 659.27 301.9 658.98 306.24 655.01 315.47 648.73 333.5 642.67 351.42 639.59 359.76 633.04 378.68 629.14 390.35 624.61 400.27 617.26 411.04 606.55 425.32 603.74 428.14 589.19 439.03 579.82 445.86 555.65 469.5 546.94 477.68 542.59 482.35 531.87 492.66 520.89 502.94 518.23 507.43 521.62 512.42 521.27 514.31 514.82 518.52 507.27 519.1 500.49 520.77 486.57 526.72 469.87 530.45 445.59 533.8 417.79 540.54 399.26 552 364.93 526.41 359.86 519.6 359.64 509.33 354.31 506.88 348.13 502.1 341.49 501.34 338.88 500.25 336.28 493.22 332.66 489.43 332.62 481.6 330.54 476.97 327 474.94 302.35 471.65 249.71 421.72 245.36 420.91 235.48 423 224.19 422.96 217.79 422.68 216.24 421.18 214.6 415.37 217.19 411.73 220.07 409.2 220.39 406.46 218.26 402.91 218.08 400.09 214.42 398.9 211.68 396.25 208.94 391.55 207.62 384.68 208.44 377.72 192.28 285.3 192.57 281.65 187.61 275.11 181.26 270.38 176.5 267.79 172.62 264.77 170.68 263.96 166.28 263.69 155.58 263.71 148.82 260.77 144.44 259.87 143.11 255.3 135.39 241.07 133.7 241.55 125.62 241.17 120.79 240.34 116.94 238.78 113.66 239.37 108.01 238.39 105.57 237.12 102.53 237.12 98.94 238.75 95.13 238.7 87.69 234.97 84.08 232.67 78.99 234.97 74.04 239.4 71.54 244.52 68.14 244.99 62.53 247.64 60.65 247.06 56.75 243.57 53.49 242.66 49.98 240.71 47.33 240.91 41.21 243.68 37.71 245.75 36.1 247.48 33.83 248.23 31.19 247.05 28.82 244.37 25.88 243.27 21.04 243.71 21.08 240.86 23.94 238.34 25.2 235.74 21.63 228.97 17.25 222.35 15.24 220.08 14.01 217.36 13.33 212.87 13.69 210.63 15.7 208.72 16.4 204 14.64 201.53 10.46 198.2 2.06 195.13 1 190.99 5.8 185.16 7.17 182.38 11.85 178.57 13.73 174.87 15.59 172.92 71.08 118.16 68.61 116.91 62.1 110.35 58.74 106.55 53.19 102.27 51.24 99.19 47.03 97.8 43.06 99.44 38.56 99.15 33.72 96.46 27.84 95.61 23.21 96.02 20.46 95.06 16.27 95.04 68.41 72.86 211.68 11.93 333.66 5.98 430.93 1.25 544.73 1 627.48 57.73 664.58 84.49 799 181.45 Z"/>
</g>
</svg>