<?xml version="1.0"?>
<svg xmlns="http://www.w3.org/2000/svg" version="1.2" baseProfile="tiny" width="800" height="896" viewBox="0 0 800 896" stroke-linecap="round" stroke-linejoin="round">
<g id="4217550">
<path d="M 770.11 825.59 768.59 828.83 763.84 831.14 761.06 837.02 750.03 835.09 744.99 829.62 737.96 823.38 733.64 821.47 727.44 822.58 717.64 825.64 703.5 827.06 695.09 818.76 691.75 812.46 690.96 806.72 688.3 804.37 676.99 807.13 667.72 808.34 662.95 806.54 658.84 807.5 652.6 805.54 647.91 801.8 640.48 801.13 631.43 797.07 627.97 800.93 622.44 799.67 618.79 796.81 615.16 790.81 600.63 796.37 590.77 794.41 583.03 795.84 576.56 798.45 565.74 798.38 562.61 799.04 552.3 797.14 547.76 798 548.39 802.75 546.99 806.39 545.87 815.97 544.37 820.98 537.22 829.58 534.38 838.69 529.08 842.03 527.31 848.34 521.49 854.66 520.73 860.04 516.86 865.08 510.52 867.73 505.72 873.49 496.94 875.89 492.65 875.09 488.87 879.82 482.96 880.92 471.85 884.71 465.44 887.73 457.35 886.82 443.05 887.4 427.88 890.32 412.56 894.74 407.3 895 401.6 890 401.42 886.46 415.01 871.72 415.49 865.84 412.37 851.32 410.39 844.81 405.49 841.57 388.12 839.24 382.94 837.8 371.81 832.56 368.73 830.04 364.7 820.44 364.2 809.78 200.21 834.92 203.04 821.19 205.03 815.75 204.76 812.74 207.87 807.5 208.69 801.99 208.06 795.48 216.57 789.31 221.08 785.1 217.5 781.74 212.83 780.58 209.46 768.06 208.72 762.31 209.64 751.89 203.86 743.83 203.86 735.91 74.07 770.2 70.04 774.9 56.8 778.36 52 774.06 47.82 772 47.1 766.12 53.1 755.77 53.52 752.92 50.61 746.59 49.51 738.74 45.99 735.11 46.72 731.81 56.57 731.32 63.46 735.87 67.59 734.15 74.54 734.22 85.96 736.13 92.21 735.33 95.09 729.35 93.04 725.23 89.8 723.5 79.8 720.37 77.64 715.99 79.67 713.99 84.97 712.6 91 715.46 93.56 713.13 93.39 709.16 96.78 706.76 109.34 704.94 104.95 696.68 106.09 691.41 112.54 687.15 105.15 684.56 100.43 685.88 99.03 681.5 96.6 680.22 92.67 681.59 90.02 679.9 84.16 679.79 84.1 674.27 88.99 671.25 88.76 667.23 92.88 664.98 94.79 657.75 97.34 656.69 102.34 663.45 104.9 661.64 109.79 653.68 117.88 649.07 121.38 644.11 119.87 639.54 121.33 635.46 124.35 632.34 126.51 627.49 124.62 618.4 125.39 614.47 128.04 610.44 135.31 608.55 137.59 604.82 134.28 597.81 133.92 593.29 129.1 588.87 124.31 581.85 123.87 579.47 130.8 574.16 130.46 569.85 125.43 567.7 127.77 562.77 124.32 560.29 124.98 556.88 127.74 555.17 128.28 551.03 123.76 547.31 122.72 541.81 114.13 536.89 114.53 534.53 124.43 531.21 126 529.11 126.13 522.68 133.07 516.88 126.22 502.99 123.26 499.67 116.44 496.94 113.9 493.74 116.88 484.14 118.78 482.62 117.91 478.57 120.75 471.56 113.39 470.41 110.82 468.94 107.93 460.4 107.96 456.26 109.9 449.57 104.21 447.04 96.59 446.22 90.16 442 81.52 438.47 80.13 432.49 77.44 428.07 57.62 426.11 50.34 423.09 45.57 417.95 41.36 415.51 41.69 411.04 37.47 408.43 33.46 401.93 38.09 394.99 37.54 389.47 31.94 383.14 38.68 375.02 36.95 366.33 31.24 365.76 29.52 363.26 28.16 354.1 28.74 348.38 27 345.51 30.32 340.5 36.14 342.84 42.39 337.64 46.83 339.09 53.3 334.95 55.81 330.63 61.87 326.01 66.29 324.04 68.28 318.91 65.08 314.18 63.87 305.42 58.98 298.97 55.65 296.85 51.09 288.92 40.02 281.82 34.38 275.74 30 274.76 24.71 276.04 20.25 272.55 6.25 264.61 1 262.84 28.84 203.18 93.96 64.13 236.4 46.81 587.17 1 595.4 14.09 608.36 18.28 611.45 22.34 609.69 30.86 605.19 36.73 599.24 40.42 589.62 45.1 584.81 44.54 579.78 42.19 576.55 31.79 571.85 31.95 569.4 38.24 572.07 45.64 578.51 59.97 579.73 66.97 580.63 78.1 584.31 82.29 588.61 82.8 592.15 80.82 589.78 77.63 591.91 72.67 595.76 72.77 597.93 75 598.43 79.12 602.05 82.27 603.1 85.85 609.26 89.91 616.84 96.97 620.16 106.18 618.66 112.6 617.64 130.25 612.28 140.62 605.5 149.63 606.77 153.23 609.7 154.72 615.75 155.25 619.39 153.35 623.03 148.35 630.36 145.09 636.37 145.75 640.6 149.21 643.37 157.16 646.63 161.57 654.96 164.45 664.55 166.76 675.22 172.72 681.36 178.47 682.08 183.19 679.94 203.18 678.62 208.24 675.49 210.45 669.1 206.9 665.08 199.77 661.31 196.61 658.02 197.5 644.34 205.3 633.81 209.69 629.62 214.63 624.98 230.93 621.53 233.4 616.55 231.51 612.75 236.94 616.54 239.07 624.65 238.91 628.48 240.17 631.39 243.08 637.04 251.23 643.14 256.98 647.18 259.04 660.13 262.13 668.93 262.21 675.45 266.07 681.96 276.72 680.15 282.25 667.37 288.12 666.55 290.43 672.38 297.58 672.34 300.15 675.72 302.93 677.91 310.72 674.45 312.32 666.18 309.49 660.89 305.77 652.88 292.3 645.77 294.2 639.27 298.03 630.74 304.6 627.65 313.68 614.6 323.24 613.79 326.64 621.48 332.99 630.86 336.98 645.36 338.06 652.12 336.87 656.84 339.05 663.11 340.2 664.94 342.61 664.21 348.58 658.24 358.44 654.3 361.09 645.35 362.74 639.68 362.97 635.83 365.8 635.87 369.46 642.06 379.43 645.49 380.51 658.54 374.27 662.87 375.93 678.95 377.09 681.08 379.24 682.18 383.97 687.1 395.3 689.76 405.46 692.82 407.81 702.45 406.32 705.23 407.89 705.83 417.82 701.63 425.08 707.1 431.57 706.58 434.34 698.14 442.69 690.27 447.89 683.92 448.27 681.14 453.15 685.61 461.93 682.85 463.46 677.18 470.28 678.67 473.56 682.42 475.03 689.57 473.79 700.12 468 710.42 468 715.98 471.12 711.39 474.53 711.95 479.46 724.65 484.69 725.52 488.84 720.23 504.85 717.1 509.87 710.45 514.16 702.39 514.13 688.42 507.34 684.18 500.45 677.43 499.91 670.11 500.37 664.61 501.71 658.14 501.63 650.97 508.9 648.32 510.44 635.05 508.37 629.21 510.15 628.86 514.5 631.17 515.88 640.62 516.57 643.4 522.18 646.73 524.81 650.62 531.22 652.83 537.46 651.38 543.93 652.08 552.66 653.67 555.16 656.58 564.35 668.81 566.93 670.81 569.35 661.06 587.1 659.67 591.51 659.45 603.44 662.82 605.79 668.89 604.98 688.25 608.38 694.04 611.81 697.42 616.44 693.65 627.83 692.67 635.98 693.87 645.49 691.59 647.63 686.97 648.36 662.27 655.44 653.85 661.71 650.83 665.1 653.2 670.26 664.33 672.61 677 676.95 684.22 677.58 687.79 680.35 694.52 692.87 695.12 697.09 706.89 712.29 711.75 716.65 721.98 727.9 724.76 740.39 724.95 746.35 723.23 758.24 720.41 763.3 710.38 777.28 708.67 781.8 709.88 788.76 713.57 791.4 719.27 791.08 727.71 788.23 737.31 782.59 747.5 775.05 748.12 773.54 756.65 764.95 769.39 753.3 776.36 751.63 784.02 752.7 788.85 754.68 793.07 757.98 799 766.85 798.57 774.09 792.47 783.98 777.39 799.81 773.79 807.58 766.34 816.62 766.87 820.88 770.11 825.59 Z"/>
</g>
</svg>