<?xml version="1.0"?>
<svg xmlns="http://www.w3.org/2000/svg" version="1.2" baseProfile="tiny" width="800" height="425" viewBox="0 0 800 425" stroke-linecap="round" stroke-linejoin="round">
<g id="4217808">
<path d="M 459.08 110 460.93 110.82 462.59 110.61 464.62 109.38 465.23 109.39 465.45 110.64 466.87 111.27 469.12 111.3 469.72 111.56 471.59 110.47 472.4 108.83 473.41 108.31 477.1 105.61 478 103.89 479.45 103.06 480.64 102.7 482.82 102.86 484.01 102.58 485.15 102.83 485.11 104.54 485.57 105.93 487.01 107.98 487.82 110.3 488.52 110.87 488.7 113.05 489.22 113.59 491.06 116.59 491.27 117.46 491.1 119.79 492.86 122.29 494.08 123.62 495.84 125.02 495.93 127.07 495.65 128.16 494.31 129.6 494.1 130.67 494.33 132.78 494.29 134.25 492.59 135.68 519.66 134.6 586.41 133.97 616.82 133.68 618.23 70.94 644.97 71.24 645.17 57.54 668.54 57.72 669.09 43.89 708.58 55.99 723.6 54.69 754.33 52.07 754.69 49.09 755.85 47.79 756.94 48.8 759.91 49.41 763.36 49.58 767.83 49.35 770.11 48.32 771.96 47.89 773.06 47.94 773.95 49.28 774.74 49.92 775.81 50.16 776.61 49.2 777.33 48.99 778.92 50.61 781.33 50.52 782.86 50.97 785.14 52.58 786.61 52.59 788.45 53.38 791.08 54.17 795.37 54.98 797.75 55.65 799 56.92 798.03 57.89 797.41 60.56 796.8 62.11 796.56 64.93 795.48 66.91 793.12 70.45 792.46 72.35 791.92 74.79 791.04 77.59 790.08 79.06 790.04 80.75 790.74 81.52 791.9 81.95 792.9 83.29 792.18 85.63 792.43 87.58 791.81 88.44 790.75 88.76 779.12 131.16 751.84 230.6 751.43 231.64 752.14 233.09 753.81 234.86 755.2 238.08 756.32 238.35 757.55 238.24 758.15 238.68 757.47 239.86 755.79 241.27 755.89 241.86 755.27 244.15 757.15 246.48 758.69 252.83 759.66 254.51 760.03 256.96 761.05 259.86 761.51 262.95 762.05 263.65 761.57 266.09 762.39 268.21 761.89 269.2 762.04 269.84 763.27 270.65 763.95 272.75 763.65 273.92 763.89 276.62 764.26 278.24 764.62 280.99 764.54 283.79 765.52 285.46 766.9 286.83 766.71 287.65 765.51 288.85 764.63 289.31 763.87 290.49 765.27 294.32 765.83 296.6 766.04 299.72 765.5 301.08 763.1 303.49 763.66 304.54 761.71 306.01 760.38 307.45 760.33 308.76 759.33 309.84 757.86 308.86 755.77 308.53 753.71 309.77 750.53 312.55 747.45 314.46 746.52 314.49 745.13 313.19 745.07 311.73 744.47 309.78 744.74 306.76 744.72 303.67 744.53 298.46 744.55 296.42 745.01 295.68 749.04 293.43 749.63 292.31 748.66 291.22 746.96 290.45 740.6 292.52 736.13 294.54 735.09 295.82 732.44 301.11 730.93 303.05 730.42 304.66 730.42 306.1 730.79 306.94 735.02 311.72 735.21 312.59 734.8 314.03 733.6 315.45 732.12 314.79 729.17 310.31 726.31 307.26 722.88 303.95 722.28 306.19 722.8 306.93 721.77 307.82 721.89 310.09 721.46 311.94 720.8 313.26 720.39 316.74 719.7 319.32 720.46 322.45 719.86 324.95 720.12 327.02 719.04 327.98 717.33 328.83 715.87 331.09 714.96 333.42 712.74 336.62 712.18 339.21 710.92 341.19 710.27 343.41 710.48 345.63 709.86 347.45 708.32 348.34 707.06 351.36 706.67 355.74 704.72 357.46 702.8 358.3 701.51 359.49 701.78 361.41 702.34 363.27 702.88 364.41 702.22 366.43 700.61 368.28 696.59 372.01 694.45 377.13 692.02 380.28 692.14 390.73 677.75 423.83 636.47 392.4 634.45 392.43 633.19 393.33 632.57 392.75 631.44 393.38 631.65 393.94 630.93 394.89 630.3 395 630.32 396.06 629.82 396.76 628.34 397.11 627.46 398.16 626.37 397.32 624.99 396.89 623.85 398.31 623.04 398.71 622.31 398.27 621.81 399.1 620.62 399.65 619.49 399.34 619.33 398.79 617.99 398.25 616.56 399.06 615.18 399.17 615.15 399.86 614.05 399.91 612.62 400.39 612.04 402.14 610.43 402.51 610.56 403.58 608.95 404.39 607.89 404.07 608.58 402.61 606.95 402.46 606.23 403.16 603.99 404.45 603.25 404.05 603.67 403.3 601.57 403.95 601.94 405.23 600.91 405.72 600.58 406.49 598.7 407.32 598.26 406.11 597.28 406.32 596.85 408.37 595.73 407.96 594.83 408.59 594.97 409.32 593.91 411.17 592.65 411.51 591.67 412.56 591.9 413.34 591.68 414.26 590.68 415.28 589.61 418.38 587.19 420.11 585.95 420.38 584.77 420.95 583.98 421.74 583.74 422.47 581.99 424 580 423.28 578.82 422.45 575.13 420.24 572.98 420.23 569.54 421.37 569.02 418.69 569.65 416.85 571.52 416.27 572.42 416.2 573.36 415.38 573.9 414.26 574.01 413.17 573.72 411.08 573.82 409.63 574.35 408.08 575.09 407.35 575.93 405.5 576.43 403.43 577.11 402.73 577.69 400.88 579.01 399.32 580.49 398.73 582.29 396.11 582.43 395.4 581.62 393.4 581.75 392.11 584.6 389.94 585.38 388.89 585.71 387.92 587.04 386.05 587.13 382.81 587.72 382.06 589.89 381.2 586.54 379.91 586.01 379.37 585.82 377.07 585.29 376.7 583.76 374.19 581.06 371.87 579.78 370.44 578.19 369.62 577.49 368.89 577 367.65 575.12 366.37 574.74 365.64 574.67 363.87 573.22 361.59 572.3 361.2 571.69 360.51 570.56 358.46 570.18 357.26 570.45 356.24 569.48 355.19 567.99 353.02 564.13 352.87 563.48 353.17 562.54 352.98 561.5 353.55 557.85 353.18 556.05 352.64 554.22 353.85 552.98 351.91 551.64 351.8 551.14 352.43 550.94 354.21 550.08 354.74 546.13 356.03 545.44 355.95 544.31 354.63 543.37 353.89 542.17 354.4 539.39 354.04 537.2 352.67 536.02 353.69 534.91 354.22 533.75 354.32 531.16 353.94 530.44 352.79 527.93 352.07 524.64 352.02 522.53 352.41 521.34 350.9 520.4 350.53 519.06 350.46 517.02 351.37 515.54 351.47 514.58 352.66 512.92 355.39 511.94 355.96 508.94 355.11 507.54 353.47 506.2 352.38 503.31 350.99 501.82 350.04 499.43 347.83 497.63 346.68 496.3 346.06 494.45 346.59 493.09 347.89 490.01 349.61 488.57 351.13 488.65 351.59 490.22 353.67 491.15 353.5 491.77 352.69 493.63 351.28 494.52 351.09 495.25 352.06 495.02 353.31 493.7 353.59 492.93 354.45 492.69 356.04 492.03 356.18 490.49 354.83 489.9 354.77 489.22 357.6 487.97 358.18 487.01 357.33 468.63 313.11 464.81 310.19 463.3 310.02 462 310.49 460.51 311.4 456.89 312.62 454.96 313 453.52 312.87 450.72 310.29 449.17 309.34 446.93 308.39 443.62 307.33 441.48 307.22 440.11 306.92 438.64 306.26 433.64 304.38 433 304.52 430.66 306.39 428.92 306.4 426.5 306.68 423.36 306.63 421.83 306.42 419.45 305.04 417.46 305.7 415.89 305.47 415.05 301.34 414.77 301.45 408.67 302.01 406.99 302.69 406.83 303.33 405.29 304.13 406 304.59 405.05 305.6 404.32 304.3 403.71 304.36 402.57 306.14 401.74 305.89 400.11 306.03 399.91 306.63 398.5 306.02 397.85 306.52 396.48 306.73 395.61 307.88 394.19 308.9 393.37 308.18 391.68 307.5 390.6 307.64 389.87 306.89 390.5 306.26 390.27 305.57 389.15 304.76 386.96 304.64 385.91 303.6 385.59 302.03 383.5 301.57 382.35 301.09 380.21 300.93 377.95 300.17 376.74 300.3 375.44 299.76 373.56 299.58 371.95 298.85 369.46 298.98 368.76 299.6 367.19 299.67 365.66 299.24 364.56 298.42 364.1 299.21 363.04 299.59 361.76 299.4 360.7 298.7 359.79 298.64 357.47 297.01 354.05 296.28 353.43 296.47 351.24 296.13 349.57 296.66 348.46 295.9 347.36 296.38 346.57 295.45 346.49 293.79 345.44 292.52 343.97 291.52 342.45 288.92 340.43 287.24 339.42 285.92 335.85 283.71 334.71 283.47 331.33 285.23 329.44 285.21 327 286.02 325.89 285.85 323.55 283.89 322.63 283.92 321.27 283.34 317.03 283.92 315.04 283.78 313.65 284.73 311.26 285.09 309.67 287.1 308.71 288.73 308.18 290.65 307.76 291.42 305.81 292.59 304.26 295.32 302.47 296.71 301.65 297.05 299.84 297.13 297.27 298.06 296.07 299.98 291.71 301.93 290.76 302.76 289.43 303.3 288.98 303.91 288.92 305.74 288.23 308.08 285.95 311.32 285.43 311.65 282.78 311.21 281.53 311.17 278.43 312.34 277.3 310.76 276.13 310.57 274.97 310.98 273.61 312.17 272.3 313.76 269.61 314.88 268.68 314.8 267.8 313.16 266.42 312.64 265.34 312.62 263.33 311.17 259.6 310.23 257.23 307.88 256.17 308.09 254.5 309.65 253.73 310.05 252.99 309.87 250.84 308.16 249.2 308.11 247.82 308.69 246.11 310.08 245.43 310.87 245.28 311.7 243.55 312.81 241.75 312.93 240.26 311.86 239.64 311.91 237.86 312.66 235.58 313.07 233.63 313.81 232.23 314.75 231.12 315.77 228.82 317.09 225.17 318.59 224.08 318.68 222.74 316.93 221.92 316.36 219.62 316.52 217.66 315.38 215.69 314.8 214.72 314.74 214 314.26 212.4 314.08 210.06 314.37 209.1 314.15 207.11 314.49 204.63 313.02 201.95 311.13 200.49 311.84 198.04 311.6 197.05 311.75 194.08 313.01 191.75 312.93 190.7 313.15 189.42 314.18 188.88 315.63 187.57 315.92 184.72 314.91 183.55 314.02 183.32 312.18 183.98 309.19 183.82 308.41 182.83 306.78 181.43 305.9 180.97 305.06 180.1 305.49 179.2 305.1 178.72 304.32 177.37 303.57 174.27 300.36 174.16 297.22 175.32 296.15 176.25 293.99 177.24 293.17 177.63 291.84 177.67 290.39 177.09 288.75 176.74 287.01 176.23 286.01 175.13 285.93 173.99 285.48 174.06 284.32 174.92 283.5 175.3 282.49 174.98 280.65 175.32 278.48 175.3 277.33 173.92 275.09 172.26 275.9 170.9 275.66 170.52 275.21 168.84 271.29 168.89 269.29 169.67 267.21 168.79 265.74 166.14 264.7 165.34 262.62 164.5 261.99 163.11 261.55 162.33 260.04 160.3 260.15 158.69 259.73 158.34 257.87 156.15 256.35 154.49 254.16 153.76 251.75 152.75 251.05 152.09 249.71 150.45 248.62 151.07 246.97 150.66 245.92 150.75 244.93 151.45 243.6 152.39 242.43 151.12 241.28 150.69 240.17 149.35 238.91 148.04 238.61 147.07 237.79 146.95 236.9 147.63 235.32 147.58 233.87 148.08 232.77 147.58 232.02 147.53 230.27 146.91 229.46 144.31 228.3 143.51 227.58 143.19 225.69 142.25 226.15 141.1 226.06 140.21 225.28 139.17 225.22 138.83 225.69 138.83 227.22 137.14 229.17 136.95 229.86 136.1 229.78 135.69 229.09 133.3 228.15 132.98 226.96 132.05 225.49 131.75 224.44 129.63 225.93 127.33 227.14 126.53 226.93 125.74 225.31 125.28 220.72 123.49 219.98 122.23 220.52 120.87 221.46 119.68 221.67 117.93 220.51 116.29 220.09 114.65 220.68 112.91 221.68 110.53 221.73 108.97 220.01 107.52 219.53 106.2 218.44 105.18 216.83 103.86 215.92 102.78 215.91 101.48 217.41 99.26 218.73 97.33 218.78 96.27 218.4 95.32 217.41 94.05 217.65 91.21 217.88 90.44 217.75 89.8 217.09 89.44 215.77 87.95 215.65 86.67 215.18 84.92 214.94 83.93 215.52 83.96 217.16 83.55 217.99 82.11 218.94 81.88 219.56 82 221.1 80.15 224.25 79.48 226.46 78.77 227.48 78.43 228.52 78.41 230.85 79.88 233.38 80.19 235 79.53 235.9 77.64 236.84 76.16 239.9 74.79 240.8 72.93 241.31 70.15 242.57 68.32 243.13 66.14 243.31 62.61 242.15 60.17 242.48 59.15 242.94 56.85 243.6 55.02 243.65 53.76 243.01 52.38 241.71 50.41 238.99 47.77 237.61 46.86 236.98 45.83 235.79 45.34 234.82 45.43 233.03 44.91 232.23 43.35 230.64 43.07 227.42 42.69 225.83 40.33 222.18 39.95 218.92 39.17 217.21 37.18 214.98 36.51 213.85 35.95 211.99 34.82 211.02 32.42 209.92 31.36 208.95 31.12 208.31 31.72 207.71 34.43 207.26 35.42 206.39 36.39 203.36 38.06 200.46 38.06 197.91 38.26 197.21 39.14 196.31 40.11 197.09 41.23 195.8 41.28 194.82 40.61 192.63 39.01 191.65 36.9 191.62 35.55 192.53 34.59 192.08 34.23 191.24 34.61 190.18 34.54 189.06 33.36 187.6 31.37 185.86 30.77 185.15 30.3 183.65 31.87 183.21 32.47 182.18 32.42 180.6 32.03 179.79 32 177.24 32.61 175.09 33.31 174.4 36.59 172.18 37.42 171.1 37.23 170.26 36.45 169.83 33.4 169.67 32.88 168.43 31.86 167.78 29.32 166.83 27.37 166.89 26.42 168.03 25.49 167.25 24.32 166.72 21.19 166.08 20.1 166.79 18.5 165.93 17.64 166.44 17.18 165.49 16.43 165.64 15 164.71 13.19 164.11 10.99 162.02 9.65 162.41 8.22 161.16 6.71 161.18 6.49 159.93 3.24 159.58 2.02 160.27 1.02 159.44 1 158.7 1.86 158.02 2.53 155.25 4.2 155.37 3.84 154.04 4.68 152.33 5.56 153.27 7.21 153.28 8.63 152.95 9.53 151.29 10.06 150.75 10.92 150.72 11.95 151.42 12.29 152.75 11.9 153.86 13.56 153.94 14.4 155.26 15.97 156.1 17.63 155.97 18.01 154.29 19 152.11 18.89 150.86 19.99 149.6 20.82 147.72 20.75 147.08 21.77 146.86 23.44 148.92 24.76 149.03 26.13 146.83 27.55 147.06 27.95 146.56 27.05 145.63 26.65 143.9 26.17 142.83 26.58 141.96 25.89 141.25 26.5 140.17 25.44 139.16 24.38 138.81 23.13 137.95 21.29 136.39 20.7 135.27 19.78 135.62 18.94 134.2 16.99 132.98 17.08 131.03 16.72 129.49 17.48 127.3 18.66 126.78 19.64 125.05 22.75 123.4 25.07 121.5 25.29 120.92 24.77 120.05 25.61 119.61 26.55 118.58 26.27 117.5 28.17 116.22 28.48 114.89 30.5 112.37 32.26 112.43 32.68 111.49 32.54 109.46 32.88 107.39 32.56 105.27 29.99 104.42 27.47 104.11 26.86 103.42 26.91 102.71 28.39 100.96 29.16 97.6 29.47 94.78 29.21 93.88 28.4 93.01 27.29 92.67 24.39 92.61 23.64 91.72 25.34 87.49 26.03 86.68 26.58 85.05 25.19 83.9 23.6 82.9 23.07 81.13 22.97 79.77 23.78 78.13 25.08 76.94 26.79 75.82 27.33 74.68 28.5 74.16 29.35 74.2 30.18 73.58 29.55 72.1 28.41 70.63 27.01 68.07 26.88 67.24 27.61 66.51 32.05 66.18 34.41 66.21 35.38 67.1 35.69 67.9 37.11 69.12 39.7 69.76 42.28 71.17 43.66 70.63 43.72 69.6 42.45 68.49 40.92 67.56 40.37 66.73 40.32 65.6 41.42 63.6 41.36 61.42 40.86 59.64 38.85 56.89 37.88 54.25 37.88 53.65 38.99 52.56 38.05 50.87 36.86 50.3 36.16 49.57 36.07 48.78 37.47 46.9 38.09 45.24 39.26 42.95 40.89 41.02 41.88 40.5 43.86 41.03 45.84 40.59 47.81 39.8 50.01 39.61 52.43 36.98 53.1 36.77 54.92 38.62 56.35 39.12 58.5 38.96 59.34 39.78 62.11 40.55 64.5 40.81 66 40.2 67.89 38.24 69.43 35.21 71.32 33.43 71.4 32.65 69.83 31.81 70.1 31.15 71.13 30.64 72.92 30.22 72.99 28.83 70.64 27.74 69.77 26.63 67.19 25.11 66.64 23.6 66.83 22.31 66.76 20.62 68 16.75 67.89 16.32 66.68 15.32 66.46 14.24 67.56 11.96 66.65 10.44 65.21 9.39 64.68 7.23 64.82 6.33 65.61 5.11 67.28 4.31 68.52 3.38 69.95 1.81 71.29 1 72.63 1 117.43 13.29 129.51 17.16 168.12 28.63 197.98 26.68 269.25 22.02 284.94 25.81 305.47 29.29 306.81 29.76 310.95 29.84 312.99 29.45 314.12 30.44 315.24 31.83 317.3 32.64 318.85 32.88 319.73 32.69 321.12 33.76 322.18 33.67 323.02 33.16 326.3 32.7 329.79 31.81 330.44 32.14 332.11 31.14 332.4 30.42 333.78 29.39 336.11 29.07 337.33 29.1 338.53 28.49 343.14 27.04 344.71 26.76 348.16 28.2 351.09 29.07 356.13 29.67 360.25 29.53 362.15 29.64 364.92 29.34 367.23 29.79 369.15 29.9 371.64 31.58 373.93 32.43 376.39 34.02 377.56 35.14 378.75 34.73 380.96 35.12 382.69 36.11 384.81 36.46 387.62 35.45 389.73 35.54 390.84 36.27 391.87 35.91 392.92 36.07 394.48 35.88 395.63 36.72 396.1 39.85 395.74 41.55 394.71 44.21 394.82 45.28 395.53 46 397.04 47 397.88 47.23 400.11 46.76 402.66 46.72 403.17 47.39 402.12 47.95 401.09 47.99 400 49.38 399.93 50.8 398.73 50.48 395.56 50.88 392.93 52.8 392.58 53.42 391.49 53.54 387.54 52.24 385.44 52.74 383.77 54.13 382.36 55.97 381.83 57.65 382.77 59.42 383.65 60.35 384.5 62.42 386.11 62.91 390.27 63.22 392.05 65.07 393.47 65.42 396.03 66.88 397.48 67.22 398.64 68.04 398.93 68.84 398.44 69.38 396.05 68.79 395.36 69 394.34 69.92 393.31 69.2 391.52 69.14 390.23 69.57 388.05 71.88 386.64 72.94 385.43 73.12 381.92 74.53 377.64 75.69 375.23 77.07 374.86 77.75 375.35 78.31 383.81 79.26 385.98 80.11 387.34 80.4 392.56 82.44 393.65 83.59 395.14 84.23 397.14 85.62 399.72 86.74 402.02 87.46 406.92 91.55 408.18 93.73 408.94 94.53 410.95 95.58 413 95.64 413.43 94.17 412.7 92.17 413.11 89.87 414.49 89.56 414.38 90.23 415.54 91.74 417.8 92.91 419.66 93 421.32 94.08 425.11 95.13 426.64 95.44 428.1 96.05 431.48 97 433.09 97.58 435.97 99.41 436.46 99.92 437.54 100.25 440.55 100.24 442.95 99.77 445.22 101.08 446.71 101.76 451.22 103.29 454.91 106.95 459.08 110 Z"/>
</g>
</svg>