<?xml version="1.0"?>
<svg xmlns="http://www.w3.org/2000/svg" version="1.2" baseProfile="tiny" width="800" height="951" viewBox="0 0 800 951" stroke-linecap="round" stroke-linejoin="round">
<g id="4217402">
<path d="M 685.67 614.16 685.75 620.39 689.5 629.04 691.59 638.76 691.45 644.79 689.88 653.6 688.03 658.9 682.97 658.71 677.35 661.24 665.95 667.24 661.57 668.7 661.8 673.54 660.71 683.85 659.47 688.49 656.43 694.57 654.28 697.76 647.62 702.29 638.62 704.08 636.06 708.09 633.66 717.85 630.16 724.22 628.93 725.39 623.33 727.5 616.44 728.91 613.77 730.18 612.16 732.96 610.24 740.42 607.31 746.65 606.79 750.61 612.12 759.36 617.67 765.79 618.57 771.63 621.02 777.48 621.69 781.78 624.26 785.17 626.75 786.56 633.46 788.71 634.39 793.52 639.85 798.09 645.76 801.65 647.15 804.3 648.26 813.25 645.8 820.43 648.06 825 648.86 828.35 650.7 830.42 654.64 831.34 656.73 833.81 656.98 836.12 659.31 842.46 662.69 844.39 666.9 855.4 668.55 856.62 674.19 853.61 680.36 853.2 689.83 855.51 697.07 855.67 701.95 857.03 710.24 856.03 714.75 854.99 727.31 850.44 737.04 850.51 740.37 851.01 745.41 856.33 747.45 856.33 750.72 851.49 754.34 848.45 758.22 847.81 765.95 847.86 770.44 846.45 774.13 844.32 776.46 844.68 778.48 850.91 781.2 854.14 786.83 856.27 787.9 859.67 788.49 868.74 789.16 869.97 796.72 874.46 799 876.65 796.13 881.41 784.19 889.67 780.07 895.38 776.96 901.88 773.79 909.99 773.29 914.03 774.38 922.59 775.47 928.21 778.1 935.23 777.81 938.36 761.72 935.51 758.69 934.36 751.83 934.21 744.81 932.06 738.75 930.65 730.35 931.15 726.98 930.2 722.99 926.83 711.73 924.83 706.82 924.29 698.17 921.43 692.69 921.2 682.67 922.66 676.26 925.99 671.2 927.19 666.33 930.43 661.28 930.04 658.36 930.77 654.1 932.87 648.84 941.05 648.37 945.48 647.44 948.17 645.91 949.25 641.01 950 635.15 946.21 630.28 945.45 627.43 944 623.12 937.63 619.96 936.03 614.98 936.25 606.6 928.66 604.17 928.82 597.52 931.82 590.16 932.9 581.93 934.7 574.07 935.91 566.73 938.91 565.91 940.04 563.52 942.58 561.09 942.08 557.69 939.47 553.05 937.36 549.51 939.81 546.5 939.88 543.85 938.26 541.92 935.56 536.95 933.36 532.97 930.75 529.43 929.52 523.65 928.61 516.55 925.7 511.65 924.67 506.28 925.65 494.88 926.28 492.16 925.82 490.46 923.99 490.93 915.46 490.45 910.57 488.06 899.31 489.56 897.35 495.54 897.21 496.06 894.7 494.06 893.4 487.99 893.03 484.06 895.35 478.76 896.84 472.2 896.36 469.88 895.65 465.71 890.08 461.35 887.57 458.25 886.45 451.53 886.39 449.27 885.38 445.51 878.48 439.26 873.52 433.72 867.97 432.27 865.53 428.2 861.33 421.46 860.19 417.09 860.13 412.24 858.64 405.96 855.5 393.98 850.98 391.76 849.42 388.73 844.71 385.05 841.01 378.33 839.94 380.74 836.78 381.02 833.38 376.99 831.55 370.57 831.53 364.36 828.19 358.94 823.64 356.42 822.42 351.97 822 349.82 819.79 348.6 816.04 343.28 804.91 339.6 798.34 336.82 796.76 328.61 793.6 326.22 790.97 327.24 785.81 326.73 780.22 324.61 774.12 325.49 768.59 328.4 768.46 333.1 770.59 336.25 773.78 336.36 777.31 339.32 776.54 341.49 772.89 342.08 769.85 338.79 764.46 335.63 761.91 331.18 760.07 320.46 758.37 316.91 753.7 313.23 750.03 305.69 746.35 300.98 742.82 296.93 741.58 294.75 736.6 294.75 734.3 296.25 732.17 296.24 729 293.08 726.28 284.69 724.56 282.18 721.62 278.91 721.21 275.11 724.19 271.82 723.29 270.79 719.98 268.11 715.18 262.7 714.09 261.37 711.97 262.89 710.49 262.35 708.33 258.52 707.37 257.27 710.15 255.01 711.22 245.55 709.46 244.38 705.81 246.83 704.21 250.62 704.46 252.62 703.29 254.94 696.98 252.4 695.12 248.55 695.06 247.08 692.59 249.21 690.85 249.24 688.9 246.72 687.53 245.02 687.88 241.44 690.43 236.77 688.99 236.08 686.81 238.86 684.15 241.24 684.21 242.91 686.18 244.71 685.7 244.42 680.56 242.79 678.94 237.71 679.87 237.11 677.68 238.96 674.12 242.42 674.65 243.32 671.92 234.24 669.87 232.36 668.38 228.13 669.77 226.01 672.05 220.51 676.31 217.66 679.68 214.33 680.49 212.36 677.66 213.23 674.91 210.97 670.18 208.88 668.52 206.29 667.97 204.3 664.98 201.77 663.52 200.15 664.87 203.03 667.69 202.07 669.4 199.7 669.74 196.19 668.15 194.12 663.56 190.93 663.29 191.99 660.51 191.49 658.15 187.65 655 186.09 654.81 182.4 657.33 182.25 660.53 180.2 662.11 177.86 658.82 178.04 656.93 179.99 654.41 179.02 651.88 177.23 651.42 171.69 651.72 168.24 650.1 166.36 647.56 167.46 643.46 166.94 639.84 168.74 636.65 165.14 635.71 165.03 640.42 161.29 641.33 158.28 637.62 156.91 629.79 159.81 628.74 161.98 630.41 165.3 628.21 168.64 627.11 169.3 625.15 168.37 622.39 168.66 619.98 171.51 617 173.55 613.75 175.84 612.37 178.3 609.53 180.38 609.75 183.12 611.59 184.92 609.7 172.11 604.06 171.17 600.97 163.05 598.93 161.3 597.26 157.74 591.86 156.68 589.33 152.99 585.47 151.45 584.69 145.42 586.4 143.94 583.17 147.83 575.12 150.6 574.2 152.09 575.58 151.65 578.95 155.98 577.93 155.07 574.09 156.15 569.58 158.86 568.04 161.98 570.02 165.54 570 167.21 568.47 167.92 564.81 158.6 561.62 157.82 559.41 157.92 554.2 159.31 550.31 165.06 547.13 171.61 542.75 181.94 539.95 177.67 532.73 179.11 528.75 176.78 527.33 162.64 528.17 159.83 525.77 159.94 519.59 158.4 515.93 157.08 514.85 152.26 513.22 143.41 511.91 143.02 509.57 146.06 505.89 146.84 503.45 145.69 500.36 142.62 496.31 140.99 493.16 139.83 489.15 138.18 486.37 129.45 476.38 126.71 472.91 122.35 470.23 119.4 465.45 116.52 459.71 112.47 456.13 108.08 453.9 99.8 446.19 97.78 443.62 93.05 432.72 91.7 428.95 88.16 426.1 83.3 424.73 80.66 420.72 79.9 418.44 78.33 409.89 79.19 406.94 79.72 401 77.11 397.42 65.82 390.85 57.98 385.07 56.18 381.66 55.11 375.08 53.86 373.53 49.09 370.41 46.68 369.8 45.23 365.41 44.44 359.69 42.19 357.73 39.31 352.22 33.78 350.1 29.51 346.42 27.57 341.41 25.74 340.5 21.38 341.11 20.38 338.46 13.48 328.97 9.22 326.85 6.5 320.36 1.67 315.88 1 313.62 2.51 308.86 2.05 300.35 3.82 295.67 3.14 289.21 6.22 285.75 6.98 283.39 7.35 274.03 8.4 270.82 6.58 267.54 8.35 264.21 13.63 263.01 18.36 265.68 20.74 264.86 22.74 260.41 27.66 258.24 30.29 258.54 31.26 260.31 30.6 267.48 32.17 269.28 36.67 265.37 41.02 259.04 44.32 257.01 46.1 253.52 48.03 241.3 51.35 237.05 51.84 233.08 55.51 231.52 63.5 231.07 67.47 231.73 72.58 230.51 80.67 230.16 86.14 234.33 85.37 226.59 86.92 224.85 91.41 223.36 99.67 217.9 101.65 215.5 105.56 207.85 107.32 205.95 113.96 201.78 121.38 201.85 126.09 199.87 137.09 205.23 139.46 203.58 141 201.26 145.85 197.23 148.47 195.94 154.02 195.65 159.96 191.22 161.51 187.61 164.41 184.33 169.3 181.7 169.75 179.85 167.04 175.7 167.33 173.23 169.08 169.03 168.98 164.52 170.87 161.15 177.91 158.44 180.62 158.71 184.5 163.01 190.72 165.07 198.1 163.76 202.01 163.59 205.76 164.41 211.15 168.29 212.11 171.08 211.29 176.88 208.09 180.52 206.55 186.25 206.2 191.85 207.06 199.54 206.1 206.82 203.32 211.12 205.69 215.55 206.48 222.42 208.49 227.15 207.61 231.86 205.86 235.33 200.2 238.36 195.87 241.27 194.8 242.88 192.43 249.89 192.24 252.26 189.52 260.02 189.29 267.54 190.75 272.11 194.68 273.67 201.46 277.41 202.34 282.15 203.7 285.38 213.33 292.2 215.87 294.56 216.11 298.57 225.67 306.03 226.79 310.31 234.28 311.93 239.27 315.3 240.94 317.65 241.31 320.75 245.12 329.93 248.58 328.89 251.61 324.72 255.5 317.1 255.07 311.96 255.49 308.19 259.32 302.21 261.01 300.4 271.97 294.56 277.26 292.46 281.23 290.32 290.65 284.32 289.7 280.25 286.12 274.24 280.87 268.43 280.36 266.12 281.4 263.5 285.1 257.61 287.86 254.4 295.1 250.18 299.86 249.55 301.59 246.1 301.25 242.98 304.15 237.61 303.55 235.87 300.47 231.72 299.74 225.79 297.57 223.18 292.46 222.96 292.51 218.12 294.47 215.34 293.94 212.59 290.25 210.52 289.36 202.52 290.26 197.69 295.23 199.71 297.1 198.82 296.63 196.19 294.4 190.95 295.76 187.32 299.96 185.28 299.06 180.87 300.35 180.19 306.7 179.82 308.05 177.07 305.37 172.21 305.66 162.56 314.83 161.03 319.46 162.22 321.22 160.24 323.34 159.63 328.07 159.72 337.5 158.62 338.9 155.61 342.44 153.83 345.77 153.87 351.7 157.01 356.09 158.11 357.61 161.45 358.45 168.82 359.83 171.52 362.35 172.48 373.89 175.39 377.8 175.82 391.22 173.95 393.21 170.36 394.74 169.61 397.92 170.59 403.04 170.66 404.75 168.65 401.9 167.94 400.89 165.72 408.14 161.73 409.71 158.96 410.06 156.11 403.04 151.07 400.6 148.58 401.1 144.09 400.08 139.07 409.47 131.21 417.89 122.45 421.18 119.74 426.84 113.39 427.95 106.56 425.2 105.4 422.97 101.4 424.09 100.31 423.06 97.89 423.79 94.03 422.71 91.01 427.39 85.75 429.48 84.39 433.61 83.22 435.28 81.58 436.96 83.32 441.35 83.59 444.21 85.64 444.51 87.44 447.39 90.77 448.85 90.69 451.19 86.76 456 88.98 457.59 92.61 461.73 91.95 469.1 89.19 471.97 86.42 476.09 86.73 481.47 88.96 487.89 86.73 487.36 84.54 488.8 81.96 484.57 78.57 481.18 78.11 480.45 76.3 480.59 70.11 479.05 69.39 472.36 69.99 471.83 66.25 473.18 61.22 474.51 58.39 477.5 54.86 489.58 48.33 491.2 47.79 501.21 41.08 507.89 32.13 508.09 23.6 509.92 19.28 510.75 15.23 510.49 10.66 513.09 7.12 514.88 6.57 519.89 7.19 524.15 4.35 533.49 1.15 540.52 2.11 543.44 1 545.72 2.27 546.98 6.73 549.86 10.96 547.79 13.95 544.35 15.71 545.78 20.56 547.61 29.72 550.53 35 549.91 37.66 550.82 39.28 555.33 41.8 557.57 46.78 562.52 49.88 565.34 50.63 565.95 52.74 563.98 57.29 558.52 64.23 557.17 68.27 555.63 69.78 550.82 69.09 543.64 71.67 538.22 75.72 534.4 82.46 529.49 83.33 526 81.89 521.75 83.72 519.78 83.67 515.2 80.94 508.73 82.29 505.13 84.92 505.38 88.78 503.08 92.16 497.89 94.78 496.08 99.36 496.39 104.26 495.34 105.27 488.9 106.84 485.32 106.95 482.12 105.66 472.47 108.39 468.35 109.16 464.54 111.54 461.42 118.27 461.08 120.31 462 125.8 461.25 127.88 455.62 132.25 451.92 133.99 447.24 135.21 444.03 138.23 445.11 141.57 444.96 144.23 442.86 147.25 444.2 150.62 447.95 152.36 449.73 154.28 449.12 160.7 451.69 164.07 451.83 169.08 448.19 174.17 438.19 181.35 436.03 182.52 422.32 193.66 418.23 196.23 414.78 204.33 413.99 207.52 414.93 212.73 414.11 214.47 411.34 216.67 409.24 220.64 405.79 233.83 403.98 237.07 402.06 243.06 399.1 247.44 400.04 248.42 407.32 247.56 414.45 249.85 419.75 255.62 421.51 259.08 424.29 259.85 429.13 257.53 435.8 250.47 438.26 244.92 438.02 241.07 438.64 238.54 440.6 237.31 446.36 236.47 452.1 236.7 458.18 234.22 459.66 232.75 460.61 228.23 467.83 223.39 471.68 220.11 475.24 219.21 485.37 219.06 488.2 220.32 490.77 222.72 494.15 224.02 499.67 227.33 508.28 226.87 516.58 226.95 520.73 228.12 524.79 232.18 524.75 236.12 527.68 240.66 529.04 243.96 532.3 247.91 532.51 253.74 536.15 253.74 550.67 247.22 554.04 247.74 559.09 242.93 563.24 241.35 565.47 239.67 569.05 234.62 569.06 228.53 570.22 224.59 572.52 220.69 574.69 221.06 580.85 224.77 593.5 230.2 599.77 234.25 604.6 235.75 609.36 238.48 616.18 239.88 622.97 240.68 627.07 237.78 636.62 234.7 639.54 234.3 645.01 237.63 650.29 237.92 653.98 237.22 659.86 231.57 664.41 231.16 667.4 229.9 676.92 227.63 678.74 227.93 680.6 230.29 682.72 231.38 690.25 233.53 692.73 235.82 698.8 237.78 703.87 238.86 714.15 239.44 718.24 240.95 721.88 245.07 721.81 248.5 715.87 255.03 711.3 261.69 708.59 267.7 706.49 268.69 701.86 268.63 693.62 269.9 689.2 272.36 686.16 276.04 682.78 281.7 677.77 288.46 673.84 295.39 670.47 298.11 663.29 301.75 661.35 303.65 660.3 306.75 646.29 311.3 644.54 313.11 642.55 322.9 641.45 330.94 636.42 335.47 633.93 339.07 633.85 342.13 630.47 350.18 626.72 360.16 622.53 366.48 620.4 372.59 622.32 377.25 622 386.2 619.47 392.23 619.19 400.67 618.42 402.85 615.17 407.1 611.55 410.2 606.76 417.73 605.59 423.86 603.78 427.07 603.84 429.93 606.35 433.26 612.46 436.52 615.28 440.71 615.65 445.49 613.99 454.4 616.05 460.6 618.92 463.95 623.53 473.99 627.59 477.85 633.42 480.33 634.97 482.59 641.27 485.93 643.5 488.16 645.75 493.61 652.72 492.78 657.87 490.41 660.31 490.93 664.78 494.5 669.11 498.88 670.84 503.34 678.1 508.19 685.09 511.52 685.8 517.95 685.23 531.69 684.45 533.55 677.99 540.66 676.24 544.71 676.07 551.51 674.66 557.07 676.51 564.66 678.37 578.05 677.97 585.64 676.81 589.21 670.76 593.72 670.91 596.5 672.99 597.47 677.44 600.95 681.99 607.51 684.29 609.82 685.67 614.16 Z"/>
</g>
</svg>