<?xml version="1.0"?>
<svg xmlns="http://www.w3.org/2000/svg" version="1.2" baseProfile="tiny" width="800" height="798" viewBox="0 0 800 798" stroke-linecap="round" stroke-linejoin="round">
<g id="4218350">
<path d="M 765.01 124.84 766.18 186.32 773.65 186.27 774.46 327.28 774.86 397.14 799 396.96 798.57 459.81 798.3 461.18 797.4 544.12 793.46 544.17 791.38 548.26 788.98 549.05 785.25 554.75 779.08 552.48 777.02 554.24 773.8 559.14 766.11 568.83 764.43 574.02 761.7 576.44 754.43 580.57 748.79 586.08 743.33 590.09 735.63 594.99 730.24 597.75 723.94 602.69 720.69 614.18 715.98 619.16 711.99 621.42 707.15 625.96 696.48 636.94 690.35 642.47 688.66 645.1 687.24 652.01 684.24 657.54 682.18 663.98 682.49 668.5 680.93 671.39 679.69 676.16 675.73 679.32 672.07 686.29 669.84 687.92 663.06 689.69 657.56 691.71 653.97 691.66 647.07 695.5 643.5 695.57 640.77 694.46 635.62 694.82 629.03 697.63 626.24 693.9 619.53 693.52 616.36 692.36 613.57 694.38 610.34 694.2 602.03 690.61 567.03 663.48 564.68 668.17 564.57 673.54 568.91 683.05 568.71 686.2 566.08 689.93 559.48 690.45 551.5 693.41 549.33 695.6 548 701.09 548.35 709.52 556.1 715.63 559.22 720.19 560.43 723.53 560.57 727.15 558.88 732.62 556.92 734.7 552.39 735.77 548.23 734.81 541.7 730.26 537.23 728.86 529.16 728.58 522.31 730.05 516.47 733.61 515.43 737.54 517.05 739.59 525.45 743.62 529.19 746.23 531.36 749.39 531.31 754.07 527.11 758.02 516.53 760.56 514.13 762.25 510.81 766.35 507.36 769.45 493.04 777.91 488.66 782.32 483.15 786.64 478.62 796.07 475.21 797 471.32 796.07 462.95 790.28 460.08 786.87 456.48 784.82 468.59 776.53 470.53 772.78 466.72 770.46 468.96 767.53 473.39 765.34 472.58 761.13 475.21 757.41 474.49 747.45 470.63 744.89 470.91 742.51 474.24 741.85 475.79 739.57 474.65 736.82 477.77 729.34 474.04 722.28 470.1 719.22 466.3 718.05 463.99 714.85 461.73 709.26 457.61 706.13 458.17 700.1 457.62 696.78 453.1 695.04 447.73 691.44 444.12 686.54 440.69 682.92 438.47 682.05 436.16 679.42 434.33 674.81 430.67 673.88 429.28 670.52 430.47 664.34 429.96 652.49 427.53 648.22 430.99 647.21 434.96 648.34 436.79 646.88 438.01 643.77 441.51 640.11 441.28 635.61 443.44 633.24 442.68 630.25 437.2 627.74 432.76 626.77 429.82 629.91 426.78 630.7 421.66 629.41 422.27 621.17 229.04 622.04 228.56 618.86 229.08 612.9 228.72 608.32 226.61 605.53 222.02 601.96 220.33 598.71 220.18 595.63 221.33 588.54 219.94 587.28 220.75 581.54 219.03 578.46 213.44 572.3 211.03 566.62 210.88 561.2 199.64 552.6 194.55 548.13 189.6 541.58 184.52 543.04 178.5 540.47 169.91 531.79 166.54 529.96 162.13 528.84 155.92 526.05 148.28 525.72 144.18 526.48 141.31 523.95 138.84 524.57 132.17 523.6 122.55 522.98 117.56 518.26 115.24 514.02 117.54 507.12 115.98 500.46 114.15 498.73 115.99 491.9 115.47 485.3 116.85 479.49 114.82 476.2 111.84 473.36 105.33 468.56 101.82 464.08 94.19 459.12 88.53 453.76 86.57 450.72 85.52 447.13 85.78 444.28 83.87 439.37 79.5 435.71 74.65 434.97 68.59 429.05 64.26 428.63 61.31 427.25 55.83 426.45 52 423.29 39.53 423.68 20.45 418.98 15.39 417.26 8.9 413.2 5.83 408.66 3.69 403.53 5.22 398.96 9.76 393.6 12.63 387.57 16.19 382.55 14.03 376.14 9.12 370.09 2.04 365.01 1 360.72 6.58 357.1 9.12 353.08 13.48 348.88 13.44 344.81 17.47 342.68 16.58 339.62 19.45 335.17 23 333.11 26.1 332.74 26.9 329.09 28.7 326.15 31.81 323.87 34.3 323.45 38.61 320.04 50.35 317.18 53.79 322.03 57.02 322.71 61.08 322.03 65.46 324.85 67.94 322.75 78.12 321.75 83.7 319.19 81.86 315.93 77.85 311.43 78.41 306.97 76.81 298.7 78.06 294.37 84.47 294.15 84.35 291.38 89.69 283.05 89.8 279.47 94.85 277.04 98.42 276.27 102.09 273.75 105.26 274.55 107.38 270.14 110.4 269.5 116.39 259.51 112.49 260.23 111.3 262.01 106.9 265.33 106.02 268.88 99.61 267.42 97.14 265.02 95.94 262.18 96.53 259.39 94.17 258.16 88.66 253.71 82.72 245.71 82.29 242.31 84.26 237.63 81.85 230.37 77.17 225.61 76.96 219.97 79.25 214.03 76.23 212.12 74.16 212.27 70.43 208.99 68.3 209.75 66.46 215.75 63.34 210.81 59.03 200.91 52.25 196.69 51.42 193.12 45.28 188.53 42.19 180.13 41.97 178.23 38.38 173.7 38.93 171.35 47.24 169.3 52.57 168.6 54.82 166.7 61.76 165.68 59.76 157.63 51.97 148.52 51.64 146.27 53.2 141.99 57.24 138.68 60.67 141.36 66.07 142.84 69.21 141.1 70.81 138.97 74.81 139.96 78.49 136.74 81.09 135.74 81.64 133.08 77.25 122.89 76.9 118.84 79.66 116.35 83.91 115.73 85.25 113.67 86.82 107.17 88.83 104.15 92.53 102.75 93.66 98.03 97.37 92.74 103.75 87.36 104.75 87.41 108.26 96.22 111.24 100.34 115.94 102.12 128.11 102.28 132.08 101.68 127.92 98.3 125.2 95.16 122.51 93.78 119.87 91.04 119.94 89.31 123.95 84.91 126.75 83.1 121.02 81.03 112.95 73.74 112.61 70.55 114.44 67.72 124.19 65.85 126.11 63.76 117.89 63.56 117.04 60.12 122.01 52.77 122.78 45.94 124.23 42.93 124.62 37.58 127.63 35.7 130.88 35.84 135.69 38.73 142.27 37.94 140.53 31.2 148.07 25.4 148.22 20.63 145.38 16.98 144.9 13.67 146.52 9.87 152.79 6.04 161.33 6.36 163.52 5.27 169.48 4.8 172.51 5.89 174.67 8.54 177.22 7.56 176.75 5.6 183.54 4.85 185.64 1.87 190.87 1 193.78 3.43 192.44 5.64 195.43 7.63 200.94 13.06 202.19 16.37 208.7 20.27 211.01 20.65 223.76 18.83 229.46 16.42 247.5 12.1 253.6 11.25 259.36 11.41 262.47 8.17 268.17 4.61 273.5 4.56 281.81 6.66 287.29 11.76 291.35 12.68 296.73 15.42 305.55 15.4 308.36 11.63 311.75 9.87 315.26 9.61 322.58 10.73 325.78 11.86 336.9 17.79 340.86 19.52 346.81 17.03 351.81 13.7 356.16 8.91 358.65 8.78 367.04 12.12 372.64 12.77 380.35 11.92 381.8 12.33 386.67 16.29 393.04 17.04 400.64 16.99 408.76 20.46 414.64 19.41 420.63 25.01 424.23 26.21 430.02 25.41 436.26 25.85 442.53 28.63 443.14 34.32 444.31 36.22 448.28 36.8 452.37 36.19 457.28 31.41 463.49 30.26 468.38 27.67 471.64 30.23 486.96 31.55 489.75 33.1 498.2 39.77 502.28 42.45 505.07 41.87 509.03 37.1 509.38 33.72 511.13 29.76 516.72 27.2 520.92 22.66 530.32 19.54 531.45 22.16 535.38 21.37 537.57 17.07 543.17 14.33 544.59 11.26 547.46 9.37 555.85 11.23 559.25 14.25 556.92 18.91 557.48 22.01 561.23 25.68 563.5 25.65 569.12 22.26 572.25 24.09 574.8 31.67 578.94 31.95 579.88 33.37 578.85 36.47 584.31 38.36 585.73 40.9 588.55 43.06 596.99 39.43 601.48 40.88 605.27 48.61 607.38 51.77 611.08 53.48 620.31 54.8 627.82 59.94 632.44 60.73 642.39 60.53 648.46 66.74 649.73 67.23 650.49 74.89 651.91 76.53 660.61 76.48 667.58 81.35 666.85 83.77 667.71 86.44 672.16 89.76 679.17 91.83 686.02 93.04 689.67 93.03 691.73 94.23 693.48 97.59 695.94 98.41 700.63 97.97 702.89 98.59 704.26 102.85 708.88 107.4 712.37 109.11 715.59 109.32 723.58 111.58 725.11 115.62 728.47 119.1 733.7 121.1 741.16 122.58 747.03 121.99 749.84 119.6 752.84 118.98 757.32 120.63 758.57 122.68 765.01 124.84 Z"/>
</g>
</svg>