<?xml version="1.0"?>
<svg xmlns="http://www.w3.org/2000/svg" version="1.2" baseProfile="tiny" width="800" height="619" viewBox="0 0 800 619" stroke-linecap="round" stroke-linejoin="round">
<g id="4218251">
<path d="M 708.88 241.8 710.11 242.68 709.7 244.64 708.3 246.86 706.99 249.36 706.9 251.86 707.49 252.68 708.79 252.98 711.16 254.42 712.78 255.05 714.35 256.02 716.83 258.56 717.87 260.42 719.77 260.65 723.38 261.78 723.29 262.76 721.48 266.09 721.24 267.63 719.5 270.43 717.16 271.6 712.4 271.78 712.1 272.83 714.08 276.24 715.26 277.35 717.66 278.28 718.98 279.19 719.58 280.11 720.29 282.23 719.45 284.3 720.77 284.73 724 284.58 725.6 284.18 726.56 284.42 727.31 285.65 728.17 290.16 729.84 292.22 732.09 292.78 732.72 293.22 732.81 294.73 731.57 296.26 729.55 297.51 729.62 298.42 730.44 299.37 733.08 301.34 733.68 302.23 735.76 303.68 738.03 305.99 739.78 309.66 741.26 310.45 742.1 310.27 743.24 309.13 743.54 307.98 743.33 305.38 743.81 304.06 744.59 303.92 749.37 304.36 750.16 304.81 751.1 306.9 752.62 307.39 754.04 306.91 754.94 305.07 755.6 304.63 757.59 304.22 757.45 303.22 755.67 302.71 753.35 302.79 751.83 301.36 752.4 300.58 754.51 300.42 757.17 300.94 759.75 301.89 762.41 304.05 764.93 304.73 766.15 304.07 767.22 304.64 768.91 306.17 769.88 307.46 771.31 308.65 773.74 311.75 775.48 313.15 778.34 314.91 779.77 315.54 781.18 316.84 782.63 317.22 784.07 316.5 785.63 315.06 786.31 315.77 788.4 315.99 789.24 315.51 789.91 316.39 791.21 316.25 794.95 317.74 794.4 319.08 795.01 320.67 796.85 321.17 796.96 319.1 798.11 319.03 799 320.59 798.86 322.76 798.34 323.39 795.56 325.02 792.1 325.57 790.67 325.39 789.34 326.21 788.52 327.71 786.79 330.5 785.72 331.85 785.04 333.51 783.11 335.66 782.44 337.35 782.69 338.18 781.99 340.18 781.31 340.87 781.53 341.77 780.42 342.07 780.14 343.22 779.21 343.83 777.83 346.06 776.99 346.05 775.71 347.46 772.73 348.44 772.51 352 772.72 354.3 772.37 355.12 771.03 355.46 770.95 356.48 769.92 357.47 770.19 358.87 769.41 360.59 768.1 361.5 767.53 363.31 768.14 364.96 768.09 366.67 765.85 369.11 766.22 370.61 764.91 371.25 763.43 370.29 762.68 371.27 760.19 372.51 760.45 374 760.03 376.76 760.43 377.64 759.8 378.5 759.53 380.2 756.19 383.69 754.2 387.07 749.92 390.53 749.02 391.93 749.74 395.11 749.02 396.51 747.63 398.36 745.23 399.61 744.86 400.56 744.3 404.27 744.62 405.19 743.84 406.08 743.53 407.28 744.1 407.97 743.98 409.35 742.82 410.4 743.04 412.31 742.26 412.98 743.05 418.08 742.63 419.57 742.88 421.84 744.01 423.56 743.87 424.61 744.57 425.89 744.84 427.3 744.39 428.67 745.96 430.81 749.27 431.44 750.66 432.13 753.64 432.26 755.79 432.02 758.15 431.37 759.16 430.59 760.61 430.23 736.86 473.41 737.95 474.37 738.96 474.5 738.75 476.43 739.12 478.05 739.87 479.33 741.02 480.46 741.45 482.98 742.83 483.59 742.36 485.64 743.04 486.6 742.54 488.67 742.22 492.58 742.64 494.19 744.29 497.39 744.62 498.59 746.28 499.97 745.52 502.78 746 503.47 748.26 504.13 749.13 505.34 750.03 505.89 749.91 507.84 750.23 510.58 751.82 512.28 753.07 512.77 753.72 513.52 752.65 514.11 753.12 515.58 755.34 516.77 754.79 518.26 756.4 519.88 758.37 520.52 759.64 521.32 759.4 522.35 759.59 524.11 760.02 524.78 760.49 527.94 761.68 529.89 762.9 531.31 764.09 533.44 764.4 535.1 763.95 537.85 764.57 539.76 764.24 541.42 764.71 542.04 764.68 543.93 766.45 544.29 767.69 545.94 767.94 547.38 766.7 549 767.91 550.92 769.46 552.17 770.92 554.42 771.48 555.88 771.58 557.26 771.25 558.75 771.84 559.36 772.28 561.15 773.11 561.89 774.45 561.95 774.69 562.84 776.29 563.65 778.09 563.25 779.19 563.71 781.51 563.62 783.49 564.69 785.94 567.42 785.09 569.56 773.07 589.57 772.08 590.22 772.59 592.16 772.36 593.72 771.25 594.15 769.75 592.34 768.78 592.21 766.56 592.67 765.72 592.34 764.86 590.56 762.59 589.83 760.73 589.74 759.88 590.27 759.71 591.22 760.5 593.22 758.27 594.32 757.5 595.16 757.22 597.93 756.2 598.09 753.5 597.16 752.37 597.2 750.88 596.64 750.08 595.66 748.82 595.98 745.28 596.17 743.87 595.6 741.45 596.24 739.95 597.25 737.58 597.89 735.82 598.89 735.18 599.59 733.32 603.32 733.32 605.99 732.71 606.71 730.31 606.22 728.1 607.19 727.76 608.98 727.14 610.04 725.4 608.97 724.02 607.1 722.21 605.96 722.2 604.52 720.08 601.66 719.17 602.25 719.42 603.47 719.19 605.13 717.74 605.49 715.2 605.41 714.4 606.7 715.09 609.04 713.43 610.36 713.58 612.12 714.43 614.02 714.59 615.63 713.12 614.9 712.12 615.11 710.34 617.06 709.92 618 708.24 617.54 706.53 615.65 703.85 614 702.96 612.48 703.04 609.04 699.72 607.3 697.69 607.97 696.75 607.29 694.78 606.75 694.12 606.1 693.86 603.23 692.02 602.57 689.9 602.76 686.79 603.89 685.38 603.3 684.43 602.45 682.92 600.23 682.58 597.14 681.98 596.62 679.76 597.23 679.21 597.67 679.64 600.67 678.63 601.58 676.02 601.88 674.73 602.95 674.13 602.62 673.39 598 673.67 595.4 673.4 593.52 669.02 589.47 667.7 587.55 666.64 585.3 665.38 585.31 661.94 588.88 660.8 589.16 658.71 588.86 657.92 590.4 656.95 591.4 656.07 591.38 654.6 590.61 652.58 590.6 651.7 592.43 651.7 594.06 651.26 594.46 647.75 595.1 645.31 595.12 644.2 594.74 642.37 593.05 640.71 593.14 639.56 593.87 638.88 593.28 639.33 592.34 638.32 590.77 635.74 589.46 632.33 587.2 630.99 585.31 631.87 582.82 630.34 581.67 629.14 579.68 626.05 576.9 625.01 575.37 622.5 573.73 619.54 570.32 620.01 568.46 620.07 566.76 619.23 565.54 616.75 564.4 614.99 562.05 611.56 559.68 610.36 559.81 607.16 559 604.47 559.65 603.21 562.09 599.83 561.85 598.11 561.06 595.02 561.56 593.14 560.28 590.53 559.8 589.65 556.77 588.44 554.75 586.38 554.11 584.48 552.03 584.71 550.09 583.43 549.53 581.61 547.36 580.3 546.46 578.94 546.4 577.97 544.92 577.3 538.46 577.35 536.3 578.22 532.9 577.05 529.96 575.78 527.52 575.85 525.47 575.18 524.93 572.46 524.46 570.91 524.73 566.43 524.39 564.03 525.03 561.2 525.51 558.21 526.57 556.74 525.74 553.75 526.52 551.04 526.64 550.52 527.38 549.31 527.29 548.2 526.61 548.33 525.12 546.28 523.87 544.01 522.8 543.83 521.55 544.19 519.4 544.05 517.19 543.19 515.79 542.7 513.51 541.31 512.16 540.35 510.2 538.65 509.26 537.25 509.17 535.41 509.64 534.53 507.23 532.17 505.59 530.57 503.73 529.25 503.09 526.58 502.38 522.55 500.66 520.59 499.22 517.95 496.6 517.27 494.8 513.7 493.94 512.88 493.37 510.92 490.77 507.77 487.78 503.76 484.67 501.27 483.55 500.53 482.31 498.8 482 497.22 483.54 494.69 484.09 493.47 483.91 490.78 481.99 488.29 481.75 486 481.19 485.28 480.25 485.39 479.12 482.1 476.98 480.39 476.19 479.22 472.28 478.57 469.11 476.02 468.27 473.91 466.88 471.44 466.81 468.6 465.93 466.26 466.06 463.38 465.97 462.04 464.99 460.05 464.95 457.86 465.85 456.47 467.67 451.75 470.38 450.11 470.24 448.43 469.1 446.11 466.35 445.92 465.05 443.52 463.94 442.26 462.65 439.88 461.03 438.36 460.49 437.25 458.42 437.25 457.28 438.41 456.33 438.57 454.9 437.19 454.03 436.61 452.82 437.3 451.63 438.65 451.03 440.53 451.21 442.86 452.23 445.5 451.49 447.35 449.86 447.56 448.72 448.31 447.63 449.3 443.67 449.5 441.95 449.36 439.33 448.42 436.43 447.5 434.24 447.12 431.84 447.09 429.61 446.19 427.7 444.68 425.89 443.35 421.78 440.72 418.61 440.31 416.88 440.75 411.53 440.34 409.2 439.62 408.39 436.56 406.08 435.49 404.47 433.87 401.25 433.83 400.24 434.46 398.96 431.64 393.42 431.16 391.85 430.29 390.36 428.71 389.41 427.16 389.48 425.03 388.87 423.69 388.93 422.36 388.48 421.06 386.29 418.35 382.98 417.06 382.95 414.47 383.86 410.27 382.95 409.06 382.38 406.03 381.48 404.73 381.62 402.48 380.78 401.62 380.08 398.25 378.76 397.45 378.09 396.41 375.53 394.54 371.52 393.11 369.4 392.13 368.47 393.4 363.96 395.2 360.75 395.01 359.97 393.81 359.6 391.7 357.62 390.62 357.2 389.17 357.25 387.04 357.85 385.87 359.03 383.05 363.24 381 365.3 379.53 364.96 379.63 362.03 378.85 360.17 377.59 359.26 375.12 358.42 374.57 356.09 373.96 355.12 370.51 351.59 366.16 350.28 361.17 349.9 358.68 350.41 355.11 349.46 353.85 349.35 350.95 349.63 348.46 351.17 346.6 353.92 344.14 355.26 342.91 356.2 341.23 356.39 339.13 355.56 337.82 354.43 335.14 354.89 333.75 354.83 332.63 356.79 332.65 357.81 331.88 359.54 330.59 361.29 329.4 361.94 328.9 365.55 327.4 367.81 327.84 368.37 327.14 371.57 328.87 375.09 329.86 376.26 330.26 377.42 330.05 379.8 330.81 382.39 330.56 384.42 299.63 388.5 298.37 389.82 297.8 392.03 298.32 394.72 299.22 396 302.08 395.14 302.51 396.02 303.65 396.93 302.73 399.43 303.48 401.82 302.97 402.8 302.69 406.11 301.27 407.54 299.04 408.04 296.41 410 296.19 411.8 295.16 412.46 292.87 411.27 291.93 411.21 290.34 410.09 289.26 410.08 288.68 411.04 287.69 410.55 286.83 409.34 284.64 408.45 283.31 408.94 281.64 407.49 279.4 406.36 275.27 409.03 274.25 409.03 272.5 409.73 270.05 411.62 268.46 413.7 267.23 414.38 267.2 415.14 265.78 416.88 262.82 416.64 262.34 415.61 261.03 414.63 259.4 412.91 259.33 411.52 256.88 409.59 254.02 409.48 253.27 408.21 251.01 408.54 250.77 407.81 248.29 407.26 248.41 406.21 247.35 405.16 246.06 404.58 245.44 405.03 243.29 404.98 243.31 404.01 241.5 404.01 239.05 403.58 238.74 404.02 236.06 403.65 235.07 402.65 233.63 402.19 233.38 401.36 232.2 400.42 230.79 400.11 228.23 401.24 227.71 402.64 224.79 402.33 223.3 403.13 223.16 405.53 221.73 408.84 221.79 409.8 220.77 410 220.19 410.92 219.43 414.4 219.88 415.11 219.21 416.79 217.1 418.23 217.71 421.2 216.6 423.22 158.87 401.76 108.06 342.81 107.63 341.42 105.17 339.1 104.53 338.9 103.15 337.11 3.96 143.44 1 137.67 2.41 136.64 9.99 133.19 11.4 132.97 14.71 131.13 18.1 128.79 20.93 127.36 23.07 127.44 25.8 126.75 26.72 125.75 28.84 125.19 31.16 125.07 32.77 123.24 32.99 121.85 33.84 119.9 34.68 119.25 36.94 118.32 38.84 116.84 40.79 116.62 42 116.18 43.82 114.67 44.79 114.46 46.55 114.8 54.52 114.91 55.53 113.99 57.93 113.01 58.78 112.36 60.46 111.9 61.71 110.98 64.63 110.44 66.79 111.04 67.93 110.65 69.03 107.51 71.08 104.98 73.21 103.76 75.3 102.13 76.96 101.99 77.93 101.48 77.63 100.73 78.69 98.3 80.77 97.16 82.56 94.42 81.92 92.86 82.18 90.45 83.39 87.05 82.71 84.25 82.58 82.24 81.22 78.24 82.71 74.77 83.9 73.57 85.87 73.24 88.12 71.63 88.59 69.53 89.76 68.06 89.24 66.05 90.63 64.61 91.65 64.88 92.24 64.04 93.76 64.46 94.24 63.76 94.28 62.04 94.96 60.19 97.48 60.54 98.38 59.7 98.51 58.15 100.03 55.35 103.11 53.36 105.24 53.18 106.62 51.1 107.4 50.77 110.59 50.74 111.95 49.33 113.59 48.36 114.28 47.14 116.28 47.89 117.3 46.97 117.35 45.01 116.64 44.02 117.13 42.34 115.89 37.75 116.02 36.12 115.66 32.25 116.78 30.84 117.99 29.94 118.63 28.71 118.99 26.59 118.49 25.27 118.5 23.75 119.55 23.74 120.08 22.84 121.47 22.55 120.96 23.9 121.35 24.35 123.28 23.89 125.08 23.99 125.15 22.51 126.54 22.27 128 24.04 126.77 24.77 126.61 25.68 127.26 27.87 128.24 28.51 131.86 29.07 133.49 28.8 146.71 23.6 148.27 22.79 150.06 22.35 153.44 23.08 159.67 26.64 162.08 28.61 164.57 30.32 166.85 33.16 170.9 37.79 172.65 40.51 174.42 41.2 177.56 43.02 179.83 43.92 181.52 43.97 185.14 43.01 186.62 42.99 188.04 43.62 190.29 45.04 193.7 46.32 197.84 47 201.65 48.43 206.58 49.75 210.11 50.29 216.54 50.18 218.27 49.79 221.45 48.25 223.09 48.13 224.59 48.41 227.84 50.52 230.46 53.23 235.69 56.94 238.29 59.13 240.39 60.5 241.82 60.7 245.91 60.27 250.42 59.58 253.15 59.93 322.34 17.98 341.7 6.82 343.18 7.59 343.56 6.99 342.66 5.44 343.17 4.85 344.8 4.7 345.97 5.3 347.62 5.45 349.45 4.61 350.28 4.73 349.95 6.09 351.19 6.65 352.15 5.53 353.28 5.78 354.51 7.04 356.15 7.43 356.32 6.57 354.8 5.83 355.01 4.59 356.44 4.12 356.49 5.5 357.8 4.42 358.61 4.36 360.97 5.04 361.7 6.53 362.88 5.84 363.94 4.16 363.05 3.84 363.27 1.62 364.96 1.92 366.83 1 367.52 2.05 369.23 2.83 368.73 5.83 369.43 6.41 370.1 5.1 370.94 6.29 373.87 6.5 373.61 5.12 374.24 3.7 375.16 3.93 375.96 5.76 376.95 5.6 376.31 4.04 377.22 3.79 378.67 4.9 379.49 4.83 381.62 3.49 382.93 3.13 385.54 4.39 387.09 4.2 388.92 2.55 389.81 2.1 391.08 2.2 391.08 3.72 391.84 4.12 394.04 3.34 394.89 3.53 395.73 4.82 398.28 6.73 400.01 7.06 401.04 6.65 401.93 5.26 402.22 3.77 402.99 3.54 403.77 4.43 405.16 4.48 406.94 4.04 407.76 3.26 408.61 3.96 407.37 4.6 407.37 5.48 408.42 6.46 408.8 8.28 406.43 9.49 406.52 10.03 408.45 10.68 409.79 8.07 410.91 7.77 411.94 8.22 413.17 9.37 414.4 9.32 414.72 8.62 413.98 6.71 415.17 6.38 416.5 8.2 416.19 10.25 416.57 10.71 418.07 10.59 419.06 9.62 420.41 9.01 420.93 9.52 419.9 10.87 420.05 11.58 421.13 12.58 420.16 13.12 420.03 13.91 421.19 14.35 421.24 15.66 422.47 16.42 423.86 17.93 424.58 17.58 424.72 16.53 427.03 17.25 428.1 18.84 431.23 20.85 430.77 22.4 431.36 22.95 432.97 22.57 434.36 21.67 435.98 22.18 437.57 22.23 439.01 21.65 439.31 22.91 436.38 24.31 435.93 25.23 436.89 25.72 438.76 25.64 439.97 24.65 440.99 25.69 440.17 26.57 438.4 26.2 436.18 27.06 435.24 27.89 435.87 28.99 436.77 29.01 438.49 28.01 439.23 28.21 438.02 30.12 436.21 29.66 435.15 30.75 436.1 31.58 437.39 31.12 438.06 32.14 436.73 32.86 437.07 33.77 438.38 33.96 439.22 33.16 440.13 33.05 443.56 34.31 444.92 34 445.71 35.01 447.22 34.93 448.09 34.34 449.1 35.52 450.7 34.72 452.03 35.47 451.84 33.87 452.4 33.43 454.98 34.48 455.44 33.05 455.23 32.01 456.95 31.24 457.25 30.27 459.45 30.09 460.3 31.21 463.06 33.11 463.18 34.67 463.92 35.07 465.7 33.81 466.08 32.41 466.8 32.64 467.27 34.69 466.18 36.92 468.33 36.56 471.13 38.09 471.54 38.87 471.37 40.1 470.23 41.93 470.26 42.49 472.16 42.92 472.83 43.9 471.62 44.86 471.85 46.43 473.29 47.21 475.56 47.73 476.42 48.65 476.29 49.44 475.09 50.55 476.48 51.29 474.81 52.56 474.91 54.07 476.18 53.29 477.4 53.76 477.42 55.01 478.65 54.71 479.13 55.88 482.14 57 484.24 57.16 486.55 58.76 484.32 59.12 484.31 60.48 486.94 61.13 486.67 62.08 487.63 63.4 487.36 64.58 488.01 66.23 487.04 66.58 486.66 68.02 485.62 69.25 487.38 70.47 489.25 70.26 489.41 70.78 486.46 72.76 486.84 73.64 488.39 73.46 489.15 73.89 488.61 74.94 488.72 75.9 488.14 76.82 489.96 77.03 489.15 79.14 492.12 79.16 493.09 77.73 493.89 77.62 495.12 78.46 496.31 78.47 497.09 77.03 497.96 76.8 499.23 77.33 499.63 78.58 498.93 79.18 496.94 79.17 496.8 79.65 498.55 80.41 500.04 81.62 500.43 82.83 502.8 84.31 503.49 85.67 505.43 86.42 505.97 87.1 506.96 86.58 508.35 87.34 507.76 88.82 508.09 89.31 509.97 89.85 508.88 92.09 510 92.22 510.42 91.34 511.66 91.29 511.76 90.05 512.86 89.87 513.35 91.12 515.36 91.04 518.39 91.85 517.58 90.87 517.61 90.08 518.8 89.8 521.3 89.77 521.69 90.75 520.34 92.49 520.55 92.93 522.88 93.54 524.26 94.56 525.15 93.8 526.16 93.94 526.55 94.74 528.7 95.05 531.95 96.26 533.47 96.6 534.58 95.92 536.63 96.29 538.74 96.12 539.28 95.66 540.62 96.05 542.03 96.02 544.42 97 546.34 96.69 547.35 97.73 547.6 98.8 547.32 100.4 545.56 101.15 544.9 102.54 545.49 104.29 546.62 105.08 546.15 106.71 547.37 108.15 549.12 111.2 550.28 111.26 551.03 109.87 552.31 109.98 552.15 112.63 551.52 113.85 552.27 115.19 551.25 116.86 551.2 119.38 549.72 120.19 550.68 121.15 551.3 123.27 552.55 124.8 553.21 127.52 554.05 129.04 553.76 130.99 553.75 134.15 555.31 136.51 555.47 137.37 556.45 137.96 559.02 138.1 560.89 138.88 561.42 139.67 562.26 142.71 563.36 144.17 566.42 147.26 567.06 149.6 566 150.48 560.49 152.32 560.46 153.53 563.24 154.93 565.45 155.73 570.48 155.66 573.21 156.41 578.6 157.32 580.71 157.96 584.05 159.31 588.4 163.4 594.14 169.32 595.89 172.36 597.33 176.71 598.3 181.07 598.98 187.43 600.68 189.04 607.62 191.82 616.34 195.7 620.65 197.77 625.9 200.44 628 201.92 628.77 202.79 631.12 204.71 633.2 206 636.26 207.53 637.92 209.01 638.98 211.85 638.1 214.17 637 215.75 634.79 219.92 633.13 220.6 632.08 220.4 629.48 219.18 628.3 218.99 624.58 219.28 616.44 222.22 613.94 224.02 611.73 225.11 611.4 225.93 611.68 227.72 611.05 228.62 609.91 229.1 608.21 228.92 605.99 227.82 601.89 226.22 600.25 226.32 599.91 227.61 600.24 228.99 601.58 230.37 604.19 230.7 608.11 231.92 610.67 232.29 612.7 231.93 616.24 231.01 622.31 230.43 626.19 229.06 627.62 227.6 628.21 226.53 629.68 226.47 631.24 228.14 630.83 232.77 629.46 236.77 627.37 239.09 626.26 239.68 626.43 240.7 630.85 242.33 633.92 243.78 635.03 243.56 637.68 242.17 638.56 242.05 640 242.72 640.31 241.6 641.3 241.08 642.04 242.39 644.17 243.06 645.03 242.72 644.81 241.08 645.75 238.81 647.83 240.09 650.15 239.51 651.13 239.51 652.85 240.95 654.18 241.63 657.92 240.84 659.93 241.71 660.4 240.99 660.13 239.78 661.92 237.04 662.73 236.51 663.28 237.7 666.39 238.76 667.68 238.4 668.28 236.76 669.07 236.89 669.72 238.42 671.03 239.61 671.87 238.24 673.96 239.83 675.3 239.77 676.14 238.85 677.64 236.14 678.48 237.28 679.96 237.33 681.23 236.73 680.99 236.03 679.59 235.73 680.68 233.76 681.7 233.38 682.98 233.65 683.14 234.51 684.49 235.36 686.55 234.68 687.46 235.17 687.62 236.27 688.5 236.75 690.3 235.59 690.69 236.97 691.58 237.64 693.68 237.49 694.71 238.08 696.61 240.15 697.87 239.52 698.37 240.65 699.44 241.61 700.41 241.89 702.53 240.75 705.28 240.37 707.12 240.49 708.88 241.8 Z"/>
</g>
</svg>