<?xml version="1.0"?>
<svg xmlns="http://www.w3.org/2000/svg" version="1.2" baseProfile="tiny" width="800" height="836" viewBox="0 0 800 836" stroke-linecap="round" stroke-linejoin="round">
<g id="4218301">
<path d="M 604.77 119.92 602.98 120.84 603.37 125.36 602.39 127.16 601.13 127.97 593.51 130.26 587.87 131.43 582.36 131.31 576.63 131.5 573.29 132.03 571.58 132.88 568.59 136.44 564.02 139.59 561.9 141.38 558.81 146.71 555.63 148.7 551.99 150.49 550.25 152.27 550.97 154.43 551.12 156.63 550.22 159.47 550.92 161.5 551.08 163.89 554.49 166.93 556.67 166.67 560.79 165.16 562.19 163.55 563.6 163.38 564.39 164.72 565.64 165.14 566.93 163.52 568.18 163.17 571.45 164.92 572.94 165.01 578.7 163.22 583.14 162.55 584.45 162.06 586.92 162.1 588.21 163.28 588.97 166.85 589.27 171.07 590.76 172.84 593.07 176.76 597.66 177.23 600.58 177.89 604.55 181.08 608.37 186.9 608.9 188.77 606.66 194.67 606.77 195.56 608.89 195.39 611.54 196.88 616.01 200.29 616.32 202.5 615.36 203.84 616.19 206.33 615.87 207.54 612.53 208.19 612.74 209.92 615.99 210.51 616.71 211.9 616.61 215.37 614.54 216.08 613.33 215.09 612.15 215.21 611.06 217.44 611.01 218.78 612.56 219.13 615.86 218.4 616.25 219.56 614.35 221.92 614.39 226.1 615.4 228.68 615.56 230.49 615.17 232.93 615.83 235.22 617.31 237.23 618.53 246.25 619.43 248.29 620.36 248.85 622.69 252.15 625.23 254.12 626.05 256.33 627.62 256.58 630.11 255.85 630.72 257.27 630.7 259.45 632.15 261.48 634.5 258.82 636.04 259.58 637.21 261.98 638.84 263.49 641.66 262.81 642.74 263 642.62 266.24 641.84 267.86 642.88 268.35 645.62 267.63 647.35 267.66 655.57 271.16 660.1 272.66 662.91 272.51 663.62 270.82 661.87 267.02 661.26 264.61 664.17 262.72 666.52 258.91 670.11 258.3 671.23 258.66 672.45 260.26 671.67 266.71 671.77 267.84 670.71 269.91 669.09 271.29 667.31 276.05 666.03 277.11 664.73 275.65 660.6 278.46 658.39 278.86 656.83 279.71 656.46 282.14 654.16 284.99 653.14 289 653.2 293.63 654.5 296.7 654.99 298.73 657.87 306.05 660.05 305.79 660.85 306.74 660.02 309.26 660.11 310.67 661.39 312.84 663.86 315.27 665.43 315.44 665.53 313.53 666.62 312.67 668.86 313.31 669.89 312.72 669.08 309.01 672.19 308.38 673.14 307.46 674.71 307.21 675.37 305.95 674 301.28 675.36 301.18 675.51 299.71 674.42 298.54 674.95 297.15 676.56 296.4 677.17 293.91 674.27 289.98 673.2 287.43 677 284.86 677.25 283.24 680.05 282.45 681.82 282.82 681.31 284.03 678.89 284.19 677.9 285 679.35 286.81 682.75 287.58 685.5 290.69 691.18 294.96 690.72 296.78 688.8 296.96 686.48 296.45 685.39 298.2 687.41 300.18 688.76 300.11 690.74 298.19 692.32 297.7 693.04 298.55 692.03 301.25 692.6 303.8 694.08 306.98 696.48 307.09 699.77 308.74 699.32 311.91 702.91 313.05 704.81 312.97 705.02 314.19 706.87 316.47 709.1 318.05 711.94 318.5 712.04 319.51 710.44 320.63 704.6 322.1 703.83 322.79 703.68 325.24 699.89 324.41 699.47 325.7 701.61 327.19 701.97 328 698.98 330.47 696.82 331.66 693.84 332.49 691.4 334.2 691.08 336.12 692.05 336.57 695.4 336.94 695.81 338.14 694.43 338.99 692.31 339.04 691.68 340.24 692.19 342.19 693.24 342.34 696.53 340.19 698.6 341.06 697.56 342.58 697.93 343.62 699.76 344.84 700.18 346.5 700.55 352.51 702.6 356.64 705.26 357.18 707.03 356.22 706.79 355.45 704.16 355.08 703.85 354.36 706.51 351.93 709.02 352 717.05 352.78 716.09 354.37 714.9 354.71 711.93 356.72 710.57 360.3 711.01 361.8 712.38 362.24 714.35 361.59 716.55 359.56 717.56 361.11 716.48 363.28 718.46 364.47 720.02 364.58 720.16 362.57 722.82 362.23 724.62 362.6 726.7 364.63 734.98 365.33 737.49 365.13 738.23 367.05 737.5 368.92 733.34 373.82 733.87 375.32 736.68 374.61 737.24 375.48 736.81 377.05 734.92 378.4 730.28 379.33 730.78 380.96 733.39 380.77 732.22 383.19 734.32 383.31 735.12 383.96 735 387.12 734.2 387.86 732.13 388.14 732.38 389.18 735.75 390.23 736.42 391.06 735.21 392.79 736.96 392.84 736.75 394.7 737.1 396.87 740.43 403.05 741.2 407.49 742.14 409.51 744.05 411.32 744.2 413.14 746.14 414.33 747.57 412.97 750.03 413.62 751.99 413.25 753.4 410.61 755.81 410.67 758.25 409.19 758.48 407.28 759.44 405.93 762.35 403.06 764.74 401.68 767.95 400.72 772.7 400.33 775.15 400.66 784.13 400.32 788.97 400.91 791.6 402.11 792.67 403.66 792.14 404.4 790.17 404.68 790.11 405.62 791.42 408.78 791.21 411.81 789.92 413.73 789.95 414.97 791 417.43 789.44 419.49 786.27 421.41 784.48 421.82 780.57 420.2 778.41 417.96 777.15 417.49 774.87 418.56 772.01 418.75 766.19 420.68 767.24 421.79 769.79 422.15 770.97 422.96 767.75 425.02 767.68 425.83 771.49 427.13 774.21 428.99 773.41 431.1 771.64 430.35 770.32 429.15 765.88 430.57 765.32 431.16 765.38 433.76 768.39 433.89 768.67 434.65 765.65 437.99 765.85 438.83 768.12 438.63 769.68 437.06 770.9 437.44 770.43 444.72 771.33 445.38 774.42 444.72 775.35 445.29 774.93 447.25 772.52 447.14 771.46 448 770.64 450.53 769.53 451.48 770.65 455.29 770.73 458.35 768.42 458.23 767.25 462.56 768.34 464.15 771.2 466.22 772.64 466.75 774.04 466.1 773.63 464.16 770.99 461.29 770.9 460.49 772.72 456.85 773.33 456.73 775.36 460.05 776.79 460.53 778.1 459.17 779.7 459.84 779.68 463.9 781.19 465.45 782.28 467.42 782.61 470.48 781.54 471.93 778.73 470.49 777.45 470.96 777.26 472.18 780.5 474.07 779.37 479.13 780.91 485.37 782.08 484.58 782.81 481.79 784.37 482.82 785.03 486.21 786.34 486.66 788.29 484.71 789.56 485.86 788.76 487.74 788.65 491.87 791.3 495.39 792.45 497.79 791.1 499.49 792.39 503.06 793.61 503.48 794.85 501.79 796.02 502.15 797.58 507.6 797.38 509.2 794.97 510.25 794.78 511.81 795.56 513.97 795.81 517.23 799 517.93 798.69 519.94 796.87 523.84 791.29 528.84 788.53 530.34 785.11 531.55 783.66 530.96 782.21 528.71 778.38 528.95 773.71 528.29 773.94 525.73 772.27 525.14 769.3 521.8 764.9 518.83 762.62 516.88 760.47 516.63 755.21 519.34 751.21 520.59 750.33 520.54 749.86 518.17 748.52 517.48 746.34 517.47 745.11 515.53 744.56 511.47 742.73 510.4 740.68 511.93 739.18 514.35 736.34 516.54 736.96 519.36 735.75 521.51 733.86 522.16 731.94 521.89 731.22 522.73 730.57 525.69 731.65 527.33 733.62 528.07 731.8 529.38 730.9 532.61 728.89 533.29 727.1 532.51 725.7 530.99 724.55 531.08 723.06 533.03 720.54 532.51 717.24 530.1 714.29 533.07 714.01 533.94 714.9 536.7 712.66 537.02 711.58 539.06 711.53 540.62 709.63 541.06 706.11 540.48 705 538.85 700.81 537.16 697.59 536.76 693.18 539.25 690.28 541.54 688.48 544.34 688.43 545.33 685.15 546.4 683.93 547.23 683.93 549.73 685.73 554.15 685.51 557.01 680.21 556.42 679 554.07 677.64 553.78 672.86 553.68 670.74 552.85 667.56 549.37 667.2 545.62 663.67 544.66 662.42 545.44 656.62 546.15 654.42 547.74 650.64 548.05 648.71 547.82 647.36 545.89 644.52 545.86 637.95 547.16 634.28 548.8 631.95 551.02 631.94 553.27 635.65 555.73 633.55 558.07 630.9 559.19 629.28 560.46 625.54 561 622.41 562.52 620.26 562.35 618.91 559.47 616.16 558.99 613.5 559.08 610.4 560.52 609.36 562.95 608.09 563.92 608.55 568.59 607.84 570.44 606.1 572.26 607.75 575.22 606.78 576.49 609.72 577.26 610.61 580.12 611.87 581.54 613.93 582.42 615.14 584.35 614.87 588.27 617.61 588.35 622.63 586.7 624.88 587.23 626.59 589.51 626.51 592.07 625.64 595.35 624.26 597.53 624.04 599.05 624.64 602.36 623.34 604.89 619.2 607.51 618.4 610.55 617.17 611.75 617.24 613.17 618.68 614.95 621.39 616.72 623.06 622.13 624.91 625.65 626.77 627.02 625.67 631.14 623.42 632.53 624.04 634.02 622.24 634.19 620.34 635.56 621.52 637.27 623.44 638.56 624.1 639.83 623.59 641.37 621.16 643.64 619.75 646.18 619.38 649.35 617.35 650.06 616.49 650.95 616.2 652.85 614.63 654.1 614.24 655.5 614.94 658.59 616.41 660.9 616.9 663.66 616.28 666.23 616.79 668.97 618.14 670.51 616.71 673.36 615.93 676.68 611.91 680.08 611.39 681.36 609.32 683.46 609.8 687.41 610.9 688.86 611.79 691.6 612.87 693.55 613.03 696.66 612.19 698.41 611.78 709.84 611.92 714.3 611.5 717.85 611.8 721.99 609.56 726.71 607.86 728.05 603.7 730.36 601.07 733.39 599.51 734.66 594.08 733.74 592.04 735.52 589.19 737.45 585.8 736.62 583.2 736.93 580.21 737.84 575.33 736.76 574.54 737.93 572.12 738.53 569.69 737.41 567.49 737.63 560.14 742.08 559.23 744.79 558.65 751.23 556.94 752.95 556.05 755.37 556.13 758.81 555.58 760.45 553.38 763.94 551.25 766.33 547.84 769.37 546.36 769.37 541.36 764.47 540.46 764.61 539.12 767.48 531.18 772.87 529.12 774.05 525.9 777.19 523.61 780.02 521.41 779.95 515.97 778.75 511.67 776.04 508.63 775.43 506.77 776.39 504.26 776.69 503.21 778.36 319.88 835 319.04 834.72 319.11 832.73 318.04 832.24 315.29 832.38 314.6 831.15 317.44 828.92 319.72 825.16 319.92 822.1 319.21 821.59 316.4 821.48 314.78 820.62 314.57 819.18 315.16 817.35 318.17 815.67 318.38 814.93 315.31 811.36 314.65 808.2 311.49 804.81 309.73 800.72 307.33 798.02 308.06 797.09 310.23 797.32 312.24 796.12 313.23 793.88 313.24 792.64 311.38 792.31 308.07 793.26 307.87 791.81 310.36 790.69 312.37 790.29 313.3 789.1 311.73 785.49 309.45 784.41 308.86 783.43 309.4 781.87 308.27 781.24 304.61 780.44 297.46 778.26 295.58 777.22 295.38 775.82 296.17 772.05 294.45 771.91 292.17 774.37 289.65 774.69 288.49 771.31 287.29 770.52 285.95 770.98 284.46 770.68 282.9 768.26 283.2 764.49 284.32 762.28 284.21 759.82 284.85 757.7 286.35 756.84 291.47 757.84 294.21 756.93 294.34 755.19 293.49 752.45 292.15 752.06 289.33 752.61 288.03 753.39 286.6 753.29 285.79 752.06 283.08 750.57 281.73 750.5 278.85 752.48 277.37 752.16 277.24 750.6 278.77 749.08 281.04 748.19 281.44 746.33 279.55 744.37 279.73 742.26 281.63 741.43 283.14 742.44 284.6 745.83 285.39 746.85 287.66 746.8 288.74 745.01 288.28 741.77 289.54 738.43 288.29 737.38 285.18 738.96 281.87 738.56 279.23 739.19 278.37 738.23 278.9 737.09 278.12 735.83 275.59 735.41 274.37 733.11 275.65 729.98 277.58 728.91 278.09 727.95 277.44 726.5 278.1 724.79 276.57 722.71 276.75 721.6 278.74 720.23 282.01 720.48 282.44 719.13 279.57 716.12 277.27 716.06 275.58 717.67 274.66 715.97 276.04 715.07 276.69 713.8 276.98 709.98 276.2 708.83 273.88 708.61 273.57 706.13 275.58 705.21 277.29 705.28 280.52 704.3 282.21 706.51 283.98 706.19 285.39 704.81 284.55 703.25 282.91 702.79 276.83 701.99 276.95 700.32 279.29 700.25 280.47 699.05 279.71 697.97 275.5 695.43 273.58 696.39 272.29 700.6 270.91 701.14 268.38 698.65 265.6 696.75 264.58 694.23 265.76 692.34 265.44 690.39 266.39 688.81 268.65 687.83 268.3 686.95 264.13 684.37 258.85 686.44 258.7 687.55 260.5 689.63 260.13 691.27 258.47 691.3 256.16 688.31 255.1 687.76 253.01 689.11 252.83 692.2 250.49 694.64 249.48 694.51 247.5 692.7 246.27 692.64 241.67 696.42 239.92 696.01 238.82 693.36 236.99 693.4 234.7 697.75 234.3 700.09 232.6 700 231.35 696.73 230.63 696.12 228.69 696.71 228.63 699.47 230.38 700.75 233.3 702.22 233.69 703.68 233.59 707.88 232.33 708.55 230.66 708.08 230.77 709.78 232.55 711 231.85 712.13 229.7 712.61 229.15 714.83 227.69 714.81 226.82 713.59 223.16 713.8 222.99 712.3 225.79 711.33 225.59 710.19 221.78 710.41 220.94 708.27 220.89 706.66 222.52 704.37 222.5 703.21 220.37 700.91 218.19 700.47 217.83 699.32 219.39 697.56 219.15 695.2 217.31 693.37 217.31 690.9 216.67 690.1 213.81 688.64 212.06 688.19 211.18 685.78 211.85 684.68 213.81 686.94 216.38 686.74 219.6 683.42 219.4 681.44 218.59 680.89 215.81 680.61 214.45 679.63 213.35 677.39 210.31 676.73 208.46 677.78 207.07 676.55 207.84 674.58 209.1 673.67 211.56 674.28 212.96 672.96 210.09 668.7 208.72 667.39 207.3 667.3 203.84 668.61 203.85 669.98 205.17 670.94 204.53 672.9 202.04 672.94 198.53 669.31 198.01 668.42 197.92 666.03 199.33 663.44 199.47 662.03 200.5 659.58 200.34 657.15 198.57 655.25 198.82 654.13 200.3 653.23 203.17 652.45 203.29 648.67 206.03 646.62 205.62 645.56 203.65 644.95 200.42 645.26 199.32 644.65 200.06 643.31 202.97 643.04 206.36 644.42 207.87 644.2 208.26 642.89 207.63 641.34 205.37 640.46 203.55 640.48 199.1 641.26 197.84 641 196.95 639.68 197.5 638.58 199.36 638.02 201.29 638.33 202.9 637.73 203.69 634.25 204.76 631.79 203.56 628.22 203.24 625.09 202.15 624.48 196.37 625.28 192.02 626.56 189.38 626.8 187.05 626.29 184.04 624.28 182.57 623.81 180.25 623.86 178.06 622.42 175.34 621.89 171.59 622.21 168.74 620.41 166.02 619.14 167.3 617.33 169.46 617.56 174.58 616.94 178.13 615.73 180.95 613.74 184.9 609.01 185.59 607.18 187.35 604.96 188.25 603.15 189.51 598.71 189.53 596.42 192.87 590.55 197.78 585.13 199.02 583.31 199.34 581.89 198.99 579.71 198.01 577.79 197.74 575.76 198.22 574.72 200.28 572.72 200.38 571.36 199.55 569.08 199.05 565.67 198.05 564.44 198.21 562.39 200.02 559.07 199.97 554.13 197.38 551.13 197.45 547.77 196.75 544.2 196.75 542.13 197.83 539.54 200.21 537.35 202.79 535.86 202.27 534.02 200.14 532.15 196.75 531.57 187 531.45 183.48 531.63 178.4 533.6 176.9 533.75 170.47 532.46 165.38 530.45 162.68 528.48 161.25 526.75 159.38 523.65 157.99 522.98 155.31 522.93 151.8 521.64 148.9 521.74 141.72 526.42 138.71 527.93 136.61 528.19 133.62 527.66 130.49 526.7 125.38 527.12 122.68 525.72 118 524.45 113.92 523.99 110.16 521.76 107.31 520.74 106.49 519.6 105.8 515.23 106.95 510.94 107.04 509.16 106.52 506.58 106.88 502.69 108.24 499.67 109.44 498.58 110.18 496.89 108.85 492.35 107.46 490.18 107.43 488.53 111.47 483.95 111.28 481.7 110.24 480.71 109.97 478.23 108.57 476.53 109.4 474 113.14 473.09 112.55 471.64 111.06 471.89 109.62 470.88 110.82 467.98 114.76 465.55 115.48 464.23 114.42 462.87 112.58 462.27 111.79 461.34 112.18 459.97 115.29 458.9 116.21 457.26 115.46 452.66 113.67 445.16 111.65 440.88 109.05 437.26 108.06 433.82 107.15 431.94 104.7 423.89 101.35 418.65 101.35 415.86 102.47 413.37 106.53 409.68 109.1 406.53 110.53 404.13 111.38 401.13 111.49 398.88 111.25 392.66 111.74 390.52 113.6 387.16 117.21 384.11 128.53 377.39 131.58 376.06 132.89 373.58 132.16 371.29 129.21 370.24 126.3 370.69 122.11 372.07 119.46 375.38 113.9 376.85 110.66 377.36 108.67 379.18 107.15 381.29 105.35 381.39 104.12 379.3 102.89 379.01 101.56 379.92 100.24 383.68 98.08 383.81 96.27 381.9 95.08 382.31 92.85 385.82 91.49 386.29 88.95 385.11 84.95 384.54 75.23 382.15 70.79 382.36 63.69 380.07 55.75 376.92 48.87 374.74 45.35 374.33 44.67 375.21 44.33 377.53 43.17 381.42 42.55 387.58 41.25 390.37 39.28 392.2 36.96 396.44 31.54 402.07 29.06 403.84 26.79 404.73 22.23 405.66 21.52 407.7 22.91 409.44 23.24 410.84 22.32 412.03 16.95 414.88 12.1 416.64 9.69 417.97 6.6 417.37 4.86 415.8 4.1 413.17 4.4 410.01 3.82 406.49 1.17 403.68 1 402.09 3.69 400.29 6.76 399.87 9.67 399.07 14.26 398.35 18.36 398.29 20.17 397.03 21.65 394.54 24.72 394.59 25.7 394.03 25.73 392.53 24 390.67 24.16 389.12 25.26 388.7 26.85 389.32 28.04 392.15 28.02 396.32 28.86 397.56 30.68 397.36 31.7 395.05 31.56 391.8 30.85 390.46 26.64 385.59 24.14 385.03 22.1 386.42 21.02 388.13 19.06 388.6 16.63 385.25 14.83 384.79 13.68 385.67 11.92 388.37 10.45 387.81 10.35 386.12 11.37 382.87 10.44 380.74 7.94 379.1 8.35 377.33 10.19 377.15 11.71 377.64 13.49 379.12 15.24 379.41 16.58 378.84 18.01 376.32 17.82 374.72 16.32 373.12 14.64 372.3 13.11 372.28 10.13 374.04 8.76 373.73 8.24 372.38 8.71 369.73 11.01 367.95 11.72 366.78 11.08 365.5 8.22 364.49 8.21 362.7 13.04 358.24 15.99 357.26 16.92 356.47 17.21 354.4 16.23 349.95 15.09 346.39 14.68 341.22 15.11 339.32 17.06 334.45 20.27 329.59 22.31 325.37 23.55 324.2 26.22 323.01 26.74 321.62 26.17 320.22 23.31 317.41 23.14 316.2 24.9 311.79 25.49 306.46 26.6 303.69 29.15 298.74 32.36 290.25 33.83 281.06 34.61 278.83 36.99 276.15 38.76 275.18 42.65 275.06 46.69 274.19 46.69 272.44 43.3 270.67 41.12 264.75 41.32 263.17 43.12 261.95 45.53 262.43 46.35 264.55 48.63 264.13 48.57 261.57 46.95 259.37 47.61 257.44 49.17 256.52 54.36 255.8 55.82 256.17 60.1 260.09 61.45 262.62 62.36 267.16 63.44 269.39 65.08 270.63 67.33 271.24 70.95 271.08 73.67 270.07 75.6 267.78 76.67 267.3 79.21 268.07 80.63 270.89 82.76 271.86 86.13 271.09 86.82 272.64 86.33 274.99 87.02 276.24 89.19 276.41 91.52 274.62 93.15 274.12 93.9 275.01 93.02 276.75 90.07 279.3 89.96 280.57 92.14 283.26 92.05 284.39 89.55 284.99 86.39 281.77 84.9 281.11 82.77 281.29 80.46 283.36 80.22 285.4 80.92 285.82 85.26 285.48 88.07 285.75 91.07 286.65 93.6 286.84 95.37 285.69 96.43 283.09 95.89 279.36 95.86 276.24 97.22 274.18 99.58 273.43 102.71 273.8 104.99 272.92 105.88 271.66 105.78 270.22 104.75 269.25 100.95 267.24 96.27 266.41 93.08 264.53 89.89 263.26 88.49 261.89 87.19 257.57 84.24 252.85 80.85 249.21 76.96 246.43 79.4 245.8 83.48 244.13 88.23 240.05 90.87 239.39 91.79 240.32 92.6 242.37 92.25 251.53 93.11 255.96 94.82 260.52 97.2 263.32 99.36 264.14 103.97 263.36 108.69 263.22 110.85 263.42 115.59 265.31 118.57 267.96 119.23 271.31 121.3 277.06 123.96 280.14 125.37 281.32 127.74 282.32 136.84 284.58 139.88 285.66 144.54 288.52 149.38 294.69 150.89 297.77 151.14 300.21 153.07 302.33 161.9 304.7 165.61 308.03 167.41 309.26 170.35 312.31 172.44 313.99 174.45 314.74 176.17 314.8 179.89 313.09 182.24 310.03 183.3 305.45 183.13 303.65 183.55 300.92 185.14 297.96 188.33 295.89 191.42 296.53 192.47 297.75 193.09 300.7 192.98 302.32 193.45 306.26 194.19 309.92 196.65 313.51 198.71 315.05 201.35 315.83 203.4 315.46 205.83 314.26 209.03 311.84 211.21 307.98 211.64 306.11 211.77 301.41 211.16 296.98 209.59 289.48 208.3 287.23 206.74 286.48 203.56 286.6 197.83 290.29 193.7 292.33 188.47 292.74 186.53 292.41 181.05 290.36 176.31 288.95 173.21 286.56 172.45 285.35 172.69 282.23 174.67 278.22 176.71 275.93 179.25 275.11 180.35 275.83 181.7 279.91 182.81 282.11 184.82 284.15 188 285.38 191.53 285.21 194.91 284.26 197.58 281.84 199.02 279.57 199.69 276.2 199.18 273.89 197.4 269.98 196.84 268.08 197.18 260.89 196.34 255.48 195.61 254.39 188.24 248.84 185.81 247.2 183.26 244.98 180.2 241.36 178.16 237.92 176.61 233.41 175.94 227.99 175.52 219.73 175.65 215.9 175 214.43 174.78 211.21 176.47 207.92 179.18 205.73 180.79 204.94 183.54 204.77 189.24 205.27 194.45 206.44 195.86 206.25 198.02 204.89 198.74 203.59 198.7 201.85 197.95 197.41 194.19 191.73 191.84 188.78 190.23 184.94 185.62 177.09 181.05 170.78 178.1 166.09 177.62 163.21 178.94 160.23 181.21 157.91 184.18 156.57 187.99 155.54 193.1 154.79 201.08 154.32 206.19 154.25 208.7 152.79 209.35 151.23 209.74 147.43 208.81 136.19 209.15 130.45 210.12 127.14 211.6 123.68 213.71 120.44 222.8 112.58 224.85 111.2 229.46 108.84 234.28 106.92 239.79 105.23 246.77 101.9 248.41 100.49 251.19 96.43 252.33 93.28 254.37 90.68 257.53 88.59 261.75 87.61 265.09 86.37 267.86 84.54 271.77 80.66 275.5 76.3 277.74 74.16 280.07 72.91 283.54 72.68 290.08 74.73 295.7 77.51 297.96 77.89 303.74 78.02 306.02 78.27 309.54 78.1 311.94 77.38 314.5 75.58 319.1 70.62 322.18 68.3 323.56 67.75 329.57 67.59 335.43 67.15 339.04 66.3 342.5 64.91 353.16 59.15 356.12 56.8 359.99 52.39 364.38 46.68 366.33 43.35 367 39.83 368.99 38.19 372.25 37.81 376.53 38.9 382.61 41.5 384.73 42.73 389.1 46.14 396.36 53.12 403.19 60.36 405.34 62.3 408.91 64.72 410.45 65.18 415.24 65.37 417.38 64.84 419.57 63.68 421.72 61.13 421.85 59.41 420.93 55.37 417.02 47.41 415.51 41.62 413.22 36.72 412.17 34.99 409.23 31.37 408.23 28.2 408.53 25.21 411.1 19.96 412.79 15.17 415.34 6.4 416.51 4.16 418.37 2.36 420.42 1.37 426.17 1 431.63 1.23 434.84 2.31 437.42 4.17 442.22 9.57 444.37 11.2 450.16 11.9 451.1 11.65 458.65 12.8 462.56 14.45 465.06 16.33 466.55 18.82 467.03 21.7 467.01 28.63 467.26 31.98 470.24 42.45 470.33 52.59 473.21 56.61 481.1 63.08 484.57 67.16 486.46 69.8 487.17 71.7 489.35 74.05 492.33 75.64 496.51 77.18 499.49 79.09 499.91 81.78 498.55 85.48 498.89 89.11 500.78 91.05 503.07 91.74 506.01 91.23 507.31 90.45 512.27 84.53 515.4 81.42 520.38 79.19 526.62 78.17 531.39 78.19 539.43 79.08 544.84 80.15 549.13 81.76 549.92 84.22 549.13 91.29 550.42 93.52 551.49 93.9 559.97 91.44 563.32 91.43 566.17 93.44 571.46 100.29 574.25 102.36 578.16 103.48 589.75 104.72 593.68 104.8 595.54 105.73 596.39 106.92 598.13 112.88 600.12 117.57 604.77 119.92 Z"/>
</g>
</svg>