<?xml version="1.0"?>
<svg xmlns="http://www.w3.org/2000/svg" version="1.2" baseProfile="tiny" width="800" height="592" viewBox="0 0 800 592" stroke-linecap="round" stroke-linejoin="round">
<g id="4218855">
<path d="M 799 290.71 796.84 310.94 795.59 315.87 792.81 319.55 784.42 325.02 779.09 326.18 769.93 322.3 759.07 320.86 753 321.85 744.95 322.13 737.56 321.73 732.27 323.62 727.87 327.27 726.5 330.23 726.84 333.75 729.59 344.5 732.61 354.42 732.9 359.88 732.1 370.2 730.94 374.32 728.74 378.23 727.4 382.16 722.24 387.7 720.91 390.84 719.84 400.62 721.38 410.11 730.65 416.25 736.46 420.73 738.86 423.99 742.03 430.77 745.96 441.27 746.42 445.17 745.77 450.33 743.73 456.67 741.93 458.86 735.75 464.02 733.69 469.05 734.7 476.07 733.75 482.68 724.28 493.77 724.3 496.47 727.8 504.72 730.11 508.34 576.45 533.98 577.91 531.17 575.46 521.76 573.02 516.03 571.06 509.48 565.43 506.38 563.21 506.28 549.93 497.46 542.03 488.63 536.68 483.56 535.73 481.78 534.84 474.76 532.2 473.01 528.65 472.28 523.4 472.28 517.65 473.05 509.96 472.53 506.31 465.84 496.52 452.11 491.7 445.89 488.04 442.68 484.77 437.46 482.39 432.52 481.44 416.08 482.12 408.31 481.11 404.66 478.77 402.3 473.58 399.55 467.52 395.47 460.54 391.82 447.74 390.67 431.36 391.68 427.77 390.49 424.75 386.93 420.11 383.57 416.16 373.18 414.39 364.95 411.45 359.83 404.8 354.13 392.85 348.1 385.72 341.63 377.99 335.74 370.24 335.53 356.36 332.43 350.55 333.44 346.29 335.22 338.62 341.19 332.33 346.58 327.07 352.78 324.21 359.49 324.26 366.92 322.45 371.91 319.03 374.75 315.59 376.08 312.58 378.65 308.95 379.56 294.07 381.54 283.39 382.41 272.07 386.74 271.4 389.61 272.97 402.1 272.68 407.12 271.65 410.66 266.79 418.21 261.92 423.26 261.76 425.33 263.15 433.91 263.59 439.34 260 451.54 257.88 460.33 256.05 465.66 252.94 466.81 246.5 467.73 238.36 475.01 228.15 483.05 225.91 486.3 221.81 488.71 219.11 489.15 209.38 487.13 203.68 487.57 198.21 491.28 196.77 492.94 192.93 501.36 191.66 505.96 191.7 519.78 189.62 526.64 186.48 532.45 179.59 533.19 176.06 535.04 167.92 538.01 164.61 537.43 160.67 539.09 156.25 538.22 152.05 542 154.27 546.63 150.61 547.29 146.13 549.35 143.99 552.4 141.4 551.89 135.79 554.86 136.22 560.25 132.76 562.61 131.37 567.9 127.56 570.31 127.97 575.52 129.93 579.12 130.54 583.65 133.5 585.23 131.45 587.08 131.01 591 120 586.99 115.03 583.51 112.94 581.01 112.11 571.36 112.9 566.15 115.32 556.23 115.68 550.39 112.92 546.77 109.24 545.7 102.53 545.23 96.3 545.7 91.09 543.82 87.59 541.81 79.37 536.1 74.53 529.49 73.83 526.22 74.73 522.32 77.86 516.6 97.12 499.74 107.56 491.55 111.37 489.38 123.48 483.68 129.29 481.96 144.64 480.75 153.77 479.16 156.9 477.49 179.91 456.64 199.31 440.04 207.78 423.14 209.92 417.28 209.7 411.59 206.51 406.39 203.33 404.5 199.47 404.68 192.42 407.51 185.14 409.91 178.82 416.3 173.8 430.29 170.39 438.34 164.7 447.47 160.4 451.64 153.75 454.65 149.48 454.63 143.84 451.05 141.19 445.99 138.15 438.76 135.05 428.87 132.03 417.25 129.45 403.46 130.46 398.48 135.27 387.25 138.37 381.29 141.8 372.91 142.91 365.21 142.46 362.97 138.77 357.72 134.71 355.59 127.41 352.8 114.36 351.69 103.29 351.5 94.25 352.06 84.65 354.41 74.75 358.28 68.36 362.1 62.65 362.25 57.47 359.45 52.34 358.11 45.79 358.49 38.6 355.28 29.71 350.4 21.46 345.46 16.08 341.67 7.99 334.94 1.72 327 1 324.81 1.28 320.68 5.04 316.19 8.98 313.75 13.4 312.01 21.19 311.48 34.14 312.41 39.07 314.04 44.07 316.81 49.31 318.7 52.67 322.53 57.31 326.79 67.76 334.43 72.86 337.16 76.52 337.46 79.15 336.62 82.02 333.88 83.8 330.03 88.4 317.54 89.68 308.36 90.89 303.72 93.89 288.9 92.47 280.46 89.01 273.66 84.62 268.78 80.78 266.86 73.49 264.83 65.49 260.1 60.22 257.74 56.67 256.86 46.99 256.5 44.05 255.77 39.3 253.41 35.49 253.11 27.31 249.89 22.08 244.85 17.31 242.25 12.83 241.78 10.56 240.13 8.91 237.06 8.59 232.1 9.45 229.12 12.72 224.3 17 221.75 26.77 222.06 34.14 223.64 47.13 225.84 56.61 226.71 60.79 226.5 70.53 228.34 87.7 233.04 91.55 233.49 95.17 235.22 101.56 239.75 106.28 243.66 113.8 248.84 120.73 251.87 126.99 253.15 133.34 255.22 135.19 257.14 137.8 257.51 140.63 260.46 144.73 260.6 148.01 259.53 151.66 257.23 159.19 258.35 165.9 257.54 167.96 255.72 170.87 249.82 170.56 243.94 171.28 242.13 175.04 241.59 180.05 238.84 181.7 233.98 188.19 235.36 192.52 234.28 197.59 234.49 201.65 233.34 207.92 232.78 208.39 228.04 210.49 224.55 218.85 216.71 218.98 213.63 221.28 207.83 221.54 204.32 224.12 203.42 228.47 198.21 232.9 196.41 236.93 193.92 240.05 194.11 242.42 192.29 248.57 184.78 253.85 182.37 258.12 172.49 261.64 168.68 268.89 165.24 269.1 162.65 274.28 160.07 274.08 157.03 279.03 154.27 281.72 151.92 284.58 150.9 290.27 147.53 297.28 140.23 299.99 139.26 301.06 137.38 302.97 129.84 306.24 122.88 307.72 121.92 312.25 115.12 313.43 109.86 316 107.88 321.92 106.34 328.44 108.63 339.46 108.6 343.1 105.19 345.95 96.8 351.2 88.63 353.54 80.76 356.94 75.83 358.26 71.77 357.46 60.48 355.43 54.05 356.55 51.06 359.79 46.56 361.91 42.38 363.49 35.48 368.15 33.76 383.54 31.91 387.53 29.65 390.92 29.14 431.91 61.23 444.53 69.49 446.06 67.16 459.56 58.49 462.11 57.52 466.54 58.16 474.24 57.36 479.23 58.46 484.81 57.72 488.91 55.6 497.72 47.46 498.68 42.88 506.88 38.04 511.02 36.74 517.35 31.9 520.32 31.12 522.99 33.22 525.89 43.23 527.76 46.46 532.86 46.4 539.12 47 545.51 46.94 556.82 48.32 565.08 48.82 575.71 48.88 587.84 47.86 594.66 46.94 601.16 43.75 603.82 40.21 610.94 40.19 613.83 38.25 617.09 38.07 620.64 36.29 623.27 38.12 629.71 35.54 633.08 37.55 634.18 31.26 633.64 27.81 636.32 27.07 641.5 29.79 644.42 29.93 649.37 27.96 653.54 21.37 658.63 11.89 661.47 3.09 665.02 1 668.43 7.55 670.24 8.93 675.46 10.87 677.27 12.62 678.39 15.89 683.38 24.4 683.21 32.4 682.03 38.38 683.38 40.03 690.94 45.16 699.13 53.63 702.75 62.59 704.86 71.11 707.26 72.64 712.83 74.68 719.98 76.11 724.61 77.73 729.41 80.36 734.02 82.04 740.01 86.79 740.19 91.99 738.3 100.2 737.51 109.43 738.3 116.89 741.81 123.13 748.62 132.3 750.38 135.76 749.77 142.49 748.48 144.71 735.67 154.97 732.75 159.36 736.08 165.25 740.69 169.65 747.87 175.65 748.29 178.61 745.76 184.25 745.91 190.47 747.4 200.45 744.75 210.25 742.41 215.04 742.25 218.93 743.31 221.58 752.85 228.02 759.48 234.37 762.79 238.19 765.41 248.91 771.63 258.03 774.52 264.81 777.87 270.81 781.78 276.51 786.99 281.32 790.17 285.13 799 290.71 Z"/>
</g>
</svg>