<?xml version="1.0"?>
<svg xmlns="http://www.w3.org/2000/svg" version="1.2" baseProfile="tiny" width="800" height="841" viewBox="0 0 800 841" stroke-linecap="round" stroke-linejoin="round">
<g id="4218004">
<path d="M 435.63 27.84 435.5 30.83 437.58 31.82 437.54 34.97 436.48 37.39 437.2 38.93 437.02 41.8 433.88 45.24 433.6 46.37 434 51.28 431.12 55.61 436.41 58.27 439.31 64.25 447.16 64.55 451.57 64.26 452.83 65.17 454.77 70 456.13 70.96 460.4 70.38 462.52 72.67 463.3 78.18 460.53 83.79 456.68 87.45 455.56 90.84 455.57 93.82 461.19 100.42 463.76 104.72 466.49 105.71 468.54 109.13 467.82 111.98 469.82 116.42 472.54 119.48 472.26 123.58 467.78 125.21 461.86 124.98 455.04 123.54 449.16 124.15 446.87 125.87 443.94 123.76 435.62 125.06 435.39 126.49 433.41 128.67 431.35 128.74 428.26 129.94 427.44 131.42 427.41 133.94 430.83 134.18 433.74 133.63 436.81 130.94 440.64 128.92 442.95 129.14 443.83 130.62 446.08 136.82 449.11 141.92 450.03 147.65 450.02 149.7 445.98 153.67 445.35 156.04 443.3 159.47 440.39 160.44 439.05 161.8 439.59 165.85 438.5 167.66 440.21 172.77 439.65 175.02 440.8 178.36 442.62 179.51 441.59 182.45 441.6 184.34 440.03 186.67 436.3 190.46 435.09 191.16 435.83 195.66 439.62 201.12 439.6 202.87 441.19 206.53 441.08 210 443.94 214.44 446.07 216.09 444.67 217.45 445.19 219.04 451.19 222.52 454.73 225.34 455.32 227.65 457.3 230.22 459.83 230.62 459.5 233.27 460.47 235.08 462.87 235.46 466.97 237.72 470.18 240.03 475.81 239.93 477.91 242.11 486.15 244.02 488.97 241.49 493.14 242.13 493.5 245.32 495.42 246.44 497.62 249.92 512.5 253.8 515.33 254.65 515.17 256.26 511.25 281.19 516.82 286.82 520.14 296.24 523.35 299.9 541.78 311.92 543.9 312.61 547.24 312.04 550.83 309.77 555.29 308.75 585.08 305.01 591.97 304.32 625 300.12 635.5 298.91 639.42 298.66 647.55 297.47 678.29 293.9 688.74 292.49 693.09 292.74 707.55 298.67 711.63 299.2 717.68 298.83 722.75 297.34 737.08 293.68 739.26 292.81 741.85 292.63 745.02 291.35 748.7 290.95 751.69 291.79 753.71 293.39 758.34 296.11 761.16 297.29 761.38 298.76 756.17 304.84 756.96 306.94 758.93 307.14 762.57 304.53 764.89 306.32 763.11 309.85 764.13 311.03 768.81 312.12 769.16 314.5 767.73 318.8 763.72 318.59 758.74 319.98 753.51 322.57 750.27 325.86 747.7 331.1 746.53 332.31 744.3 340.16 741.48 347.69 733.42 367.24 731.24 373.11 728.24 383.97 725.44 399.2 724.83 404.32 724.54 414.93 724.06 422.43 722.22 430.13 723.92 435.49 723.92 438.7 723.18 446.29 720.69 454.1 719.32 459.14 718.71 465.5 718.36 473.02 719.59 486.17 719.69 490.66 718.68 504.26 719.16 508.53 719.21 513.6 719.86 519.82 719.17 521.91 719.34 524.19 720.76 526.78 721.46 529.96 720.82 531.25 721.9 534.5 722.44 538.94 723.34 540.22 727.94 550.12 727.38 551.56 730.24 556.02 730.24 558.61 731.96 561.92 732.88 564.99 733.11 568.63 734.63 569.62 736.16 572.11 743.6 589.42 745.32 592.73 748.63 600.83 751.36 605.75 752.82 609.82 754.63 613.36 755.8 614.44 757.46 619.91 759.21 622.9 759.87 625.14 762.47 629.26 763.52 631.7 763.67 633.89 768.84 642.09 771.9 647.71 780.75 661.63 784.44 668.13 790.01 675.09 791.8 677.77 793.43 679.14 795 681.62 799 686.81 798.65 690.13 797.78 692.64 686.42 722.69 674.92 725.84 638.84 735.59 630.83 733.64 622.57 734.59 611.31 730 609.64 727.3 605.8 724.99 602.74 724.11 598.31 721.4 595.63 718.97 593.96 715.42 587.95 714.4 583.59 711.96 581.26 713.81 579.91 713.93 574.74 711.29 572.98 709.95 570.77 714.4 569.36 716.14 564.2 718.36 561.87 720.68 559.79 721.01 557.48 719.63 555.92 719.96 551.3 723.49 548.32 724.96 544.71 728.49 544.72 733.62 546.81 737.21 546.06 738.99 546.4 743.65 550.58 749.96 553.6 753.1 557.13 758.94 556.88 761.51 563.51 766.28 565.39 767.26 561.52 771.47 560.08 773.89 558.21 775.07 556.74 777.51 556.57 782.59 557.35 783.56 557.72 787.21 553.73 797.03 551.89 798.85 547.31 801.05 543.28 801.71 542.19 802.45 539.92 805.75 537.44 811.08 534.58 811.44 530.56 809.86 527.21 810.87 523.61 815.3 520.28 815.85 514.98 815.49 512.88 816.89 506.49 816.2 504.01 815.53 501.22 813.87 499.72 811.63 500.27 807.51 502.61 804.77 504.9 800.69 504.05 798.78 503.63 794.96 504.89 793.25 503.3 791.77 500.72 791.68 493.07 794.37 484.71 794.99 478.86 794.92 472.93 796.01 469.45 796.09 466.17 793.42 463.32 793.35 460.89 794.19 457.41 793.77 454.73 792.34 449.61 792.81 445.61 792.23 441.62 790.79 437.79 797.59 437.23 800.57 430.46 805.58 427.19 808.72 425.23 811.83 420.94 821.51 418.13 825.99 416.01 825.87 410.96 824.28 407.46 823.98 403.21 826.3 400.28 827.25 397.39 829.35 395.3 830.21 391.84 829.37 389.12 829.49 387.01 831.78 382.96 834.38 377.22 839.87 375.6 840 371.24 837.94 369.19 834.18 366.96 831.64 365.25 830.52 360.66 828.68 358.9 824.42 358.89 818.02 357.68 816.99 353.99 816.78 345.33 819.17 340.06 817.03 337.34 816.99 334.87 814.27 330.34 812.22 326.41 809.24 323.41 808.41 315.36 807.55 312.48 808.93 308.24 806.2 300.8 804.12 297.22 801.06 297.42 795.06 294.94 790.77 287.32 788.41 285.22 786.9 281.79 787 277.97 786.18 276.77 786.45 274.59 788.7 268.71 788.67 265.83 787.67 258.71 790.76 253.48 794.66 250.04 799.02 246.64 799.16 239.94 796.74 236.27 792.04 234.91 789.79 232.77 791.04 228.89 794.19 226.3 795.79 221.82 797.23 219.01 797.37 216.66 798.66 214.07 802.55 210.74 806.03 206.55 807.72 200.98 807.5 196.22 805.48 192.07 802.59 188.52 800.56 181.46 797.55 175.95 796.13 168.52 798.54 163.06 798.29 157.22 800.93 152.62 804.57 154.68 810.99 156.38 812.1 156.63 813.5 154.88 815.6 154.27 819.05 152.43 821.14 150.17 822.69 147.62 823.45 140 823.4 134.7 819.7 130.98 813.82 129.67 811.26 125.81 808.72 123.42 809.92 117.59 810.53 114.89 808.74 111.8 809.33 110.33 810.22 108.11 813.05 105.23 815.75 101.91 815.66 96.54 820.37 90.14 819.82 85.96 821.63 82.71 821.91 80.4 823.06 73.72 823.69 69.04 825.22 65.75 825.86 59.86 828.29 57.46 830.5 51.73 834.31 47.03 836.13 43.7 835.55 41.75 833.62 44.69 833.16 45.47 831.12 47.16 830.02 47.37 828.3 45.74 826.38 47.62 824.17 51.83 820.48 56.29 818.79 57.36 815.78 62.75 809.46 63.81 806.91 65.49 806.08 66.87 807.01 71.03 804.61 69.62 802.37 70.04 800.92 73.72 795.36 77.75 792.35 78.6 784.98 79.44 782.41 79.43 777.99 78.6 776.18 79.71 774.38 83.62 775.33 87.05 774.43 89.92 772.64 93.63 771.17 99.03 768.18 103.33 763.81 108.73 759.66 113.01 758 115.93 754.47 118.52 753.67 120.41 751.84 121.99 747.51 125.15 742.44 127.95 739.81 129.83 738.83 129.87 736.18 126.35 733.76 125.76 731.51 127.86 730.19 131.4 729.79 133.69 728.17 135.75 725.53 139.17 722.25 141.43 721.08 144.51 721.75 145.55 721.33 149.74 721.5 154.29 717.95 158.58 713.04 161.29 708.32 163.07 702.44 171.98 692.53 176.2 692.16 179.87 690.52 182.99 687.62 189.63 683.61 193.11 680.6 197.29 679.04 204.96 671.34 210.93 666.66 220.24 660.84 227.1 657.67 228.94 656.41 230.96 652.56 237.85 647.3 241.02 643.73 244.43 637.05 244.72 632.51 246.14 628.38 247.72 625.28 245.09 620.74 244.84 617.11 241.54 613.89 238.14 608.12 238.21 605.8 239.6 603.98 240.84 600.91 241.1 596.68 242.85 595.24 246.57 590.88 249.63 590.13 251.56 587.69 255.06 588.16 257.83 587.09 264.03 586.43 265.28 585.79 268.65 582.43 270.3 581.82 274.38 579.13 277.52 577.98 279.45 578.83 281.65 580.95 289.5 578.85 290.54 576.68 292.6 577.19 297.68 575.79 300.02 573.62 303.28 573.89 305.41 571.35 311.1 568.44 313.39 565.15 313.12 561.73 316.02 558.75 319.17 554.24 321.5 552.93 322.08 551.44 324.61 551.76 329.65 553.87 332.12 554.16 334.58 552.17 336.18 548.96 337.03 545.27 338.47 543.39 340.19 543.38 343.83 544.67 347.26 544.84 355.47 541.71 358.39 540.87 366.27 539.82 369.07 538.86 381.43 525.63 385.82 522.85 392.45 520.57 388.32 516.53 386.95 513.07 386.88 511.5 389.5 510.51 393.69 510.46 396.46 509.49 397.19 508.43 397.15 505.73 395.81 504.69 393.96 501.86 394.03 497.03 391.26 498.24 388.78 498.27 382.88 495.61 378.18 495.5 377.75 497.57 379.78 501.31 382.16 502.39 384.02 505.19 384.3 507.38 383.52 511.39 381.3 511.63 378.33 508.52 378.78 504.51 376.68 503.77 372.34 503.93 370.33 503.4 364.59 503.32 362.37 502.55 363.21 497.85 362.01 496.02 359.4 495.95 357.04 494.45 356.78 490.21 355.43 486.27 353.2 483.75 351.49 483.56 349.72 485.46 350.43 488 351.89 490.24 351.13 492.83 349.54 493.15 346.61 492.02 341.05 493.43 338.23 490.71 339.44 488.03 343.72 487.08 344.4 485.41 343.78 483.85 341.26 482.06 339.01 481.95 334.16 485.21 327.55 484.34 323.12 486.17 322.68 488.86 325.2 490.22 329.6 493.56 334.08 496.21 337.28 499.28 338.2 501.42 336.65 503.39 335.28 503.16 332.14 499.13 330.11 498.1 327.41 498.44 325.53 499.71 322.77 499.86 318.4 501.59 316.67 500.79 317.8 497.76 316.41 495.15 314.32 494.88 313.36 496.49 311.77 503.11 309.83 503.69 308.68 502.63 308.44 499.67 306.81 497.75 303.84 495.85 302.22 493.56 297.11 490.78 285.7 491.37 281.27 492.24 273.01 499.43 271.03 505.45 271.45 507.33 269.83 509.86 267.04 511.53 262.67 512.08 260.23 511.71 254.29 509.7 250.95 509.73 247.79 510.75 248.8 513.61 248.36 516.5 246.46 519.29 244.54 520.97 242.66 521.49 238.72 521.32 236.81 520.51 235.56 518 237.11 515.4 241.64 511.94 242.82 509.6 243.02 501.82 242.55 498.73 239.62 498.15 233.73 496.18 229.74 496.78 223.3 494.59 216.37 490.75 213.93 487.74 212.26 486.43 212.13 482.2 213.65 479.57 215.23 478.63 218.93 478.06 224.08 476.1 228.9 474.86 230.83 473.12 233.33 467.47 233.14 464.3 234.24 459.66 236.91 454.84 237.14 453.55 232.95 450.19 232.5 447 232.9 444.35 231.34 438.2 229.86 435.4 226.43 434.64 222.56 434.81 221.37 433.39 224.64 429.81 228.58 424.63 229.67 421.49 226.92 417.48 225.36 414.38 223.26 406.54 223.65 404.98 226.95 399.99 226.58 398.68 223.85 395.87 221.85 391.19 219.09 389.28 214.42 387.02 213.69 384.99 211.67 383.37 211.02 380.3 212.17 376.92 211.77 376.01 207.64 375.88 202.82 376.49 201.47 375.09 198.9 374.05 197.15 376.21 194.45 377.44 189.21 377.16 185.68 373.99 184.44 371.44 184.85 368.38 181.85 367.26 178.31 368.2 174.76 368.51 172.8 366.97 170.96 363.85 169.37 363.13 167.17 363.95 161.14 363.91 158.28 362.2 155.72 362.89 153.85 359.74 153.42 357.89 151.32 355.03 150.36 352.07 147.83 350.35 142.94 350.04 139.76 347.15 138.35 345.29 136.5 345.08 135.01 343.08 133.98 337.88 133.67 333.63 130.42 331.25 127.85 327.49 127.3 325.35 127.42 322.32 122.56 318.22 121.7 316.97 121.86 314.48 124.18 309.27 122.49 307.4 122.06 303.49 123.11 295.83 121.92 294.84 116.65 292.51 110.04 293.3 105.63 293.15 102.57 292.56 99.46 292.95 96.02 292.02 92.39 292.72 86.59 290.02 82.86 287.29 81.29 284.5 78.98 282.19 76.98 281.85 71.58 277.45 70.86 275.55 69.13 274.32 64.16 274.8 60.42 273.04 57.67 269.82 57.57 267.06 56.27 266.29 54.62 263.33 53.65 260.42 51.82 257.15 48.63 254.01 48.21 251.61 46.54 249.36 45.51 246.08 38.25 234.89 34.47 231.8 29.99 231.07 27.72 229.09 23.45 227.76 21.53 226.28 12.03 228.98 7.6 228.9 6.65 225.99 6.34 218.31 4.01 214.48 1.37 211.8 1.1 210.79 1.53 204.64 2.88 200.68 6.73 198.73 6.78 197.15 8.38 194.61 9.19 191.47 10.97 189.46 15.88 186.36 17.71 184.41 19.92 184.15 25.22 181.6 25.53 172.36 26.91 167.74 23.51 161.08 19.79 158.91 13.76 155.91 9.2 155.07 7.18 154.25 3.58 154.31 1 153.36 3.91 151.01 7.89 146.52 10.44 140.29 13.4 138.66 20.65 135.32 22.51 134.92 22.51 131.81 25.92 130.01 29.33 124.8 31.32 122.64 29.7 121.14 30.45 119 30.22 115 29.54 112.58 30.09 108.78 30.96 107.45 34.51 105.48 39.75 104.88 39.34 103.72 36.48 100.57 33.91 96.24 30.3 94.92 26.13 92.59 23.26 88.33 19.7 80.05 22.48 80.21 26.27 79.28 31.48 78.74 34.02 77.06 35.93 72.72 37.14 72.02 42.8 70.65 48.02 68.39 50.92 69.41 54.86 68.79 58.88 66.13 59.85 64.88 64.46 64.1 66.9 64.37 72.08 66.71 78.97 66.71 84.7 66.07 88.08 67.3 92.59 66.38 98.36 67.36 99.53 65.27 103.22 61.31 104.13 58.01 103.87 56.4 105.14 54.84 107.84 53.76 110.82 51.47 114.37 50.88 118.61 47.9 119.35 46.31 118.59 40.38 115.13 34.23 119.1 28.71 119.9 23.91 118.69 20.12 113.14 8.81 113.07 6.68 114.22 5.3 117.22 4.76 123.87 6.15 125.63 5.49 126.06 2.31 128.33 1 130.43 1.15 133.91 3.66 136.5 4.64 141.79 5.2 144.29 6.1 148.72 6.71 153.48 8.96 158.12 10.15 161.96 10.21 163.72 9.45 167.05 6.24 168.72 5.42 180.16 3 183.69 1.44 185.53 3.26 191.04 7.73 190.91 10.77 192.73 13.33 192.69 15.23 198.45 22.24 198.73 24.45 195.8 30.3 196.05 34.37 197.7 37.66 199.81 39.44 200.47 48.65 203.72 51.14 204.47 53.22 209.48 54.03 211.65 53.94 214.7 52.4 216.96 52.65 219.82 52.07 222.4 52.28 227.82 51.89 233.62 52.83 234.35 54.84 239.06 53.79 245.43 49.57 249.3 49.56 253.63 50.24 257.5 52.19 259.85 51.4 260.48 49.22 262.98 47.22 265.88 46.53 268.01 47.82 269.58 47.29 271.38 45.28 274.02 44.21 275.18 41.92 278.05 41.36 279.86 39.27 281.52 38.43 284.34 39.34 286.03 39.06 292.33 41.24 293.85 40.73 296.39 36.94 299.51 35.74 302.39 32.54 304.21 32.85 308.69 31.63 309.89 32.16 315.05 31.89 320.68 34.14 322.87 32.06 326.08 32.49 328.33 35.33 331.87 35.85 334.86 37.31 337.02 36.67 339.46 34.77 341.27 34.53 346.59 31.71 348.65 29.78 351.45 28.37 354.47 29.61 360 27.5 360.64 25.64 363.79 24.8 365.67 25.06 369.63 28.93 373.71 29.16 376.6 28.63 378.24 25.89 381.95 23.83 384.88 20.71 389 18.92 393.48 18.92 398.3 17.39 401.49 13.63 403.57 13.19 405.58 13.99 408.02 19.63 412.16 22.45 416.42 23.13 421.33 21.56 423.92 19.87 427.79 19.63 429.68 22.1 434.09 25.46 435.63 27.84 Z"/>
</g>
</svg>