<?xml version="1.0"?>
<svg xmlns="http://www.w3.org/2000/svg" version="1.2" baseProfile="tiny" width="800" height="480" viewBox="0 0 800 480" stroke-linecap="round" stroke-linejoin="round">
<g id="4218905">
<path d="M 798.98 5.21 798.26 5.62 797.7 6.67 797.73 8.05 798.09 11 799 12.59 798.53 15.06 797.89 16.69 797.13 19.18 796.2 20.39 792.38 21.66 791.46 22.81 791.26 24.05 790.79 24.99 789.7 26.33 790.07 27.86 789.44 28.81 789 31.11 788.69 31.98 789.25 33.49 790.17 34.2 790.17 35.06 789.6 36.1 789.4 37.28 788.79 37.81 788.31 40.02 787.37 42.52 787.74 43.3 787.51 44.08 787.55 46.02 786.87 47.01 785.55 48.49 784.64 49.31 784.25 50.08 784.44 52.38 784.87 53.35 786.61 55.13 787.17 57.22 787.13 58.53 786.8 61.73 787.04 63.03 787.3 66.69 786.7 69.18 786.89 70.35 785.94 72.54 785.37 73.12 784.71 75.03 783.71 76.47 782.37 77.37 782.13 77.98 781.74 80.15 781.79 81 781.05 83.73 781.19 85.38 780.89 86.3 780.32 86.9 780.48 87.73 781.27 88.27 782.45 88.72 783.14 90.72 783.28 91.76 783.12 93.25 784.78 92.54 785.2 92.67 785.33 94.37 785.2 96.18 784.81 97.89 784.96 98.63 786.79 99.66 787.13 100.3 787.01 101.58 786.05 104.06 785.54 104.43 785.32 105.3 784.48 105.75 783.1 105.81 781.69 106.88 781.12 108.57 781.7 109.6 780.57 111.43 779.33 112.14 779.24 113.24 778.28 114.13 777.77 115.13 777.45 116.47 776.81 116.97 775.29 119.51 774.33 120.79 774.06 121.62 773.31 122.04 772.47 122.92 771.81 123.18 769.11 123.13 767.52 122.99 765.88 123.3 764.53 122.81 762.06 122.95 759.77 122.86 755.78 123.36 753.83 123.99 751.03 125.83 749.63 127.09 747.77 127.97 745.52 128.56 743.55 128.36 742.18 128.47 741.06 129.56 740.1 131.56 738.76 132.96 738.07 134.57 738.12 135.6 737.81 136.35 736.31 136.99 734.3 138.18 733.51 138.78 730.97 139.45 729.73 139.5 729.17 140.03 728.09 140.37 727.02 141.17 726.62 141.97 727.42 143.55 727.47 144.57 727.15 145.62 726.4 146.72 725.38 147.31 723.98 147.7 721.93 147.88 721.54 148.22 725.56 148.49 727.14 148.44 728.44 148.74 729.61 149.71 729.77 152.53 730.3 153.9 729.96 155.5 729.03 156.99 727.66 158.22 726.2 159.8 725.05 162.18 723.78 163.22 722.38 164.71 721.14 165.01 720.18 165.68 719.56 166.42 719.22 167.59 719.22 168.68 718.86 170.37 718.95 172.28 719.33 173.85 719.41 174.89 717.98 176.75 716.97 176.7 716.42 177.38 716.82 178.54 716.34 180.19 716.94 180.44 718.29 179.89 718.91 180.29 719.19 181.54 719.57 181.98 719.84 183.37 720.82 184.62 719.38 188.32 718.77 189.1 717.63 189.79 714.53 190.12 713.8 190.57 713.72 191.15 713.99 192.59 712.84 194.45 712.13 194.78 711.5 195.97 708.84 197.23 708.42 198.48 707.31 199.89 707.71 201.36 707.82 202.44 708.43 203.51 708.19 204.11 706.14 206.32 705.52 207.19 704.05 207.56 703.08 207.08 702.3 207.8 701.17 208.18 700.33 208.84 700.71 210.17 700.47 210.62 699.53 211.01 697.86 211.42 696.12 211.64 695.68 212.41 696.86 215.2 698.12 217.83 699.13 218.87 701.5 220.07 702.49 220.85 703.03 221.74 703.13 224.39 702.63 225.34 701.98 225.72 700.74 225.61 700.18 225.27 699.54 225.71 700.42 227.13 700.2 228.17 699.1 229.31 699.04 230.25 699.89 231.24 699.48 232.74 699.77 233.5 700.81 233.69 701.15 234.09 701.08 235.21 700.77 236.14 700.13 236.44 699.48 237.38 697.62 238.79 696.61 239.37 695.43 240.85 694.32 241.63 692.14 242.39 690.94 242.64 687.29 242.61 685.82 242.07 684.24 242.33 682.69 243.25 682.2 244.76 681.59 244.95 680.43 244.7 678.45 245.17 677.88 245.15 677.12 246.03 676.78 246.94 676.98 248.07 676.42 248.67 673.34 248.64 671.95 249.38 670.96 250.26 670.05 250.55 669.61 250.07 669.67 249.24 670.33 248.14 670.3 246.49 669.86 245.28 668.67 244.76 666.8 244.74 666.04 245.08 665.82 246 664.96 246.42 663.17 248.45 662.45 252.89 661.39 252.64 660.03 253.19 658.63 252.84 658.07 253.77 658.15 254.5 659.01 256.52 658.32 258.77 658.34 259.44 658.8 260.79 659.07 263.25 658.62 263.56 657.22 263.64 656.48 264 653.3 263.84 652.59 264.09 650.91 263.46 649.5 262.76 648.8 261.94 648.22 262.24 648.09 262.85 648.05 265.19 648.36 265.91 649.34 266.61 650.1 267.9 651.02 268.76 649.11 272.21 648.97 273.01 649.73 274.33 650.93 274.36 652.01 273.87 655.2 272.76 654.54 275.3 654.43 276.43 653.87 278.78 653.92 280.76 654.17 281.58 655.02 282.57 653.86 284.81 653.16 286.79 652.37 287.94 653.06 288.64 653.73 288.87 656.44 288.9 657.33 288.63 658.75 288.99 660.49 288.46 661.89 289.4 662.69 289.65 665.68 289.05 666.7 289.5 668.28 290.63 670.43 291.58 670.58 292.16 670.25 293.45 670.52 295.57 669.21 296.75 667.02 297.57 666.3 298.14 664.77 298.63 664.09 299.2 662.17 299.72 661.13 300.67 660.96 301.38 661.17 302.28 662.64 302.99 663.27 303.48 663.46 304.44 664.38 305.09 664.65 306.99 664.09 307.75 663.01 307.65 662.66 307 660.7 306.23 659.7 306.28 658.89 306.69 658.43 306.46 656.93 306.94 655.97 307.55 654.57 308.14 652.99 308.55 651.04 308.86 649.24 309.48 648.45 309.4 647.27 309.7 646.43 310.61 646.04 311.47 645.18 312.02 643.29 311.58 641.84 311.83 641.39 312.31 640.42 312.5 639.6 313.19 636.64 313.9 635.77 312.93 635.71 312.04 635.18 311.15 634.25 310.84 632.52 311.86 630.38 312.92 629.31 313.19 627.82 313.85 627.04 313.73 625.89 314.13 623.87 314.16 623.05 313.95 622.28 314.24 619.16 314.57 618.2 314.48 616.18 313.34 614.79 313.11 613.47 313.57 613.24 314.57 612.64 315.18 612.03 315.32 611.18 314.94 611.49 312.57 611.28 311.17 610.74 310.97 607.72 310.51 606.93 310.95 606.37 312.78 605.09 313.67 604.72 314.54 604.74 315.37 603.57 315.87 602.31 316.7 601.72 318.19 600.29 319.36 599.79 321.39 599.3 322.21 599.12 323.62 598.52 324.25 597.29 324.94 597.12 325.93 595.37 329.17 593.9 331.15 594.54 331.86 595.85 332.36 596.1 333.32 595.36 334.74 595.38 336.36 595.93 337.79 594.99 338.48 593.39 339.14 591.97 339.39 590.43 339.85 589.49 339.84 588.89 340.84 587.88 341.33 586.55 342.9 585.55 342.34 583.33 342.24 582.22 341.09 580.55 341.18 578.3 343.44 577.54 344.91 577.12 347.05 576.06 347.15 574.72 346.48 573.45 345.48 572.5 345.25 569.77 346.22 568.58 346.45 566.38 347.33 566.5 346.52 567.13 345.78 566.76 344.59 566.71 342.66 566.32 342.4 564.46 341.94 562.92 342.06 560.89 342.77 559.75 342.84 559.07 341.81 557.52 341.25 555.12 341.43 554.11 341.63 553.36 341.25 552.17 341.32 549.5 340.62 547.96 341.42 546.3 341.08 545.58 341.15 544.59 339.96 545.26 339.09 543.8 337.95 542.86 336.48 543.12 336.08 545.94 334.81 547.1 334 550.54 331.87 552.45 330.03 552.16 328.84 549.08 327.66 547.43 328.02 546.56 327.72 545 326.2 543.45 325.56 542.71 325.06 542.21 324.1 541.99 322.56 542.46 320.51 541.85 319.54 541.08 319.09 539.46 318.73 538.99 317.94 537.31 317.67 536.08 318.14 533.42 320.24 531.74 321.37 529.53 321.88 528.63 321.7 527.11 321.04 525.13 320.56 521.34 320.5 518.6 319.97 517.3 320.09 516.92 320.87 517.6 322.66 517.34 324.98 517.84 326.32 518.4 327.15 518.12 327.89 516.64 327.63 515.03 326.42 514.08 325.47 513.42 325.11 512.17 324.95 510.68 325.49 507.4 328.19 505.54 328.7 503.55 329.47 501.67 329.72 496.94 330.68 495.01 330.94 493.46 330.36 491.96 328.74 490 327.52 487.77 326.94 484.56 325.8 483.38 325.56 481.51 325.52 480.5 325.84 477.89 326.12 476.53 327.17 475.6 327.43 472.89 328.76 470.52 327.88 468.21 327.44 466.39 326.36 464.69 326.05 463.29 325.04 458.59 326.24 456.65 327.17 454.4 327.23 449.35 328.03 448.06 327.95 446.95 327.42 445.66 326.26 443.53 324.61 440.56 322.69 440.05 322.09 439.52 320.8 438.83 318.11 439.08 316.39 438.62 315.94 437.38 315.99 436.52 315.57 434.52 315.57 430.96 314.83 429.11 313.95 426.33 313.61 424.19 313.77 422.66 314.03 420.92 313.67 420.07 314 419.78 316.17 419.46 316.92 418.2 318.94 417.05 321.2 416.6 322.49 416.79 324.02 416.56 324.83 416.64 326.91 416.08 327.79 414.69 328.8 413.37 330.77 412.29 332.02 410.76 332.91 409.81 333.14 407.79 333.97 405.05 334.57 403.95 335 402.38 335.35 400.2 335.65 399.66 337.34 398.92 338.46 398.83 339.1 399.44 339.3 401.28 339.04 403.11 339.82 404.69 340.82 405.55 341.81 404.89 343.38 403 345.92 400.54 350.34 400.18 351.36 399.94 354.05 399.1 356.14 399.26 357.04 400.48 359.16 400.31 359.77 398.94 362.12 398.03 362.78 396.38 363.16 394.59 362.89 392.55 362.17 391.83 361.29 390.49 360.99 388.84 361.91 387.24 361.65 385.93 362.23 385.1 362.83 383.71 365.2 382.83 366.03 380.99 365.97 380.02 366.67 380.73 367.81 381.35 370.41 381.38 371.15 380.31 372.36 378.66 372.93 376.38 373.5 374.53 374.68 373.94 375.45 373.16 375.82 372.37 375.76 370.71 376.45 368.87 377.58 367.87 377.75 366.11 377.54 361.73 376.29 359.77 376.09 358.34 376.69 356.53 379.32 355.7 380.15 354.99 381.24 353.64 382.2 351.74 382.6 351 382.52 349.74 381.42 347.42 380.31 346.31 377.92 345.3 376.94 344.14 376.81 342.97 376.94 341.69 376.76 339.85 377.48 337.1 378.22 335.9 377.98 334.83 376.95 333.7 376.65 329.95 376.19 326.79 376.32 324.19 376.68 321.89 377.22 320.85 377.62 319.74 377.03 318.34 377.07 317.54 376.31 316.72 376.3 316.27 377.71 315.49 379.24 314.04 380.84 313.15 381.29 309.04 382.18 303.51 382.91 303.2 383.23 303.01 384.38 302.42 385.74 302.35 387.51 302.91 389.72 302.74 390.79 301 392.95 299.28 394.56 298.61 395.56 298.01 397.76 297.51 398.35 296.33 398.85 295.05 399.14 293.32 399.18 292.76 399.54 291.99 400.52 290.95 401.06 289.27 401.2 288.15 401.06 286.94 400.26 285.15 399.85 284.23 400.34 283.62 401.05 283.48 402.73 283.6 403.57 282.84 406.08 282.8 406.94 282.32 409.09 281.97 409.9 280.85 411.16 279.37 413.75 278.08 413.93 276.64 413.41 274.16 412.2 271.42 411.51 269.94 411.47 268.03 411.66 266.51 412.11 265.81 412.68 265.59 413.35 266.55 414.6 267.24 415.92 267.85 418.58 267.78 421.34 267.29 424.87 267.18 429.9 267.37 431.51 267.09 432.28 266.95 434.69 266.03 435.72 266.17 436.18 270.41 438.01 270.86 438.31 271.01 440.7 270.95 442.75 270.58 443.62 269.9 446.32 268.89 448.5 268.7 449.73 269.35 451.87 270.89 454.47 270.73 455.61 269.87 456.29 269.41 457.81 268.75 458.53 266.23 459.84 265.62 461.12 264.91 462.1 264.73 462.97 265.11 463.75 265.16 464.57 264.77 465.6 264.84 467.3 264.56 468.81 264.17 469.59 262.36 471.06 261.81 472.36 261.85 473.8 262.94 475.11 264.31 476.09 264.67 476.63 264.42 477.62 264.02 478.09 262.37 479 261.95 477.56 262.03 476.66 261.52 475.75 260.65 475.01 257.87 473.2 257.3 472.17 256.83 470.88 255.45 470.43 253.59 470.23 253.23 469.64 252.85 467.08 249.42 464.95 248.75 463.88 247.34 463.44 246.79 462.45 246.73 461.82 246.09 460.24 246.37 459.57 246.02 457.68 246.19 456.99 245.64 456.53 244.31 454.76 244.17 453.51 243.78 452.41 242.68 452.17 240.88 451.05 239.54 450.62 237.77 450.93 236.68 450.62 235.08 450.75 234.11 451.05 232.55 451.06 230.58 450.39 228.69 450.31 226.68 449.96 225.38 449.32 225.17 448.65 224.25 447.54 223.58 447.03 222.81 445.52 220.82 444.11 220.74 442.97 220.36 441.81 220.66 440.83 220.53 439.45 219.91 437.48 219.92 437.02 219.04 435.48 219.27 434.95 218.66 434.31 217.37 434.02 215.28 434.14 213.56 434.42 212.89 433.69 212.08 431.84 211.63 431.4 210.27 430.85 209.22 429 209.04 428.43 209.48 427.94 208.81 426.94 207.58 426.51 204.16 425.94 202.23 425.02 200.39 423.7 198.02 422.37 196.85 421.32 195.23 418.77 193.14 417.44 192.2 416.64 192.06 416.14 190.78 414.37 190.6 413.82 190.88 411.53 191.88 410.17 191.65 409.57 190.66 409.02 188.84 409.59 187.58 410.32 186.2 411.65 185.02 412.6 182.85 413.5 181.71 413.32 181.01 412.82 180 411.03 179.37 408.88 178.98 408.08 178.46 407.81 176.9 408.44 174.3 409.29 173.39 409.26 169.99 406.98 168.99 405.44 167.72 404.62 167.19 403.7 167 402.34 165.57 400.99 162.26 401.2 161.29 400.98 160.34 400.36 159.62 399.28 160 398.28 161.29 396.79 161.3 395.45 160.29 394.12 159.67 393.85 158.04 393.59 156.68 392.87 155.84 392 155.26 391.04 154.2 389.96 155.54 389.04 155.68 388.16 155.35 387.47 155 385.83 153.89 385.19 151.18 385.89 148.62 386.03 148.2 384.75 146.53 383.41 146.23 383 143.72 380.6 142.44 379.58 141.53 378.51 140.87 377.38 139.71 374.06 138.27 372.54 137.49 371.25 137.45 370.39 136.89 368.57 136.17 367.02 134.09 365.29 132.82 364.63 131.25 364.42 128.31 363.83 126.12 363.62 124.4 362.59 122.39 361.67 118.89 359.72 116.94 358.83 116.19 358.15 114.58 357.16 113.78 356.94 110.55 355.14 110.13 353.85 110.83 352 110.8 350.97 106.62 348.98 104.91 347.74 103.79 346.24 103.48 344.19 103.6 342.9 103.96 341.83 103.99 340.98 103.02 339.49 102.09 338.77 101.41 337.95 100.08 337.16 100.41 336.12 100.43 335.16 99.82 333.55 99.98 332.39 99.58 330.78 98.57 330.07 97.83 330.11 96.7 330.57 95.57 331.55 93.56 333.65 92.95 333.78 91.91 332.99 91.76 332.21 90.36 329.62 89.16 328.97 87.43 328.83 86.33 328.51 85.65 327.98 85.73 327.31 86.5 326.1 86.33 324.84 85.14 323.03 84.51 321.38 84.95 319.78 86.98 316.86 87.89 314.45 88.16 312.98 88.17 310.62 88.89 308.32 88.48 306.31 86.99 306.07 85.02 305 83.88 304.63 80.92 303.31 80.43 303.63 79.9 304.72 78.6 305.69 78.03 305.9 76.9 305.59 75.44 305.59 74.83 305.84 74.74 306.4 75.18 307.11 75.38 309.01 75.57 312.33 75.03 314.27 74.31 315.96 73.97 316.31 72.4 316.64 69.75 316.11 68.44 316.15 66.17 315.62 65.38 315.69 63.85 316.19 62 316.41 59.28 317.06 57.13 317.06 54.92 316.78 53.74 316.02 51.41 313.72 50.07 312.92 48.83 312.84 47.62 313.34 47.27 314.03 46.02 315.23 44.65 315.9 40.88 317.24 37.9 318 36.35 317.83 35.3 316.51 34.5 314.9 34.8 314.11 35.54 313.59 37.6 311.6 39.34 310.41 40.88 309.96 42.41 309.14 42.95 308.31 42.96 306.87 41.76 305.08 41.24 304.74 37.85 304.56 35.17 305.06 33.2 304.72 30.16 304.43 28.91 304.53 28.16 304.88 26.04 305.38 24.89 305.79 24.32 305.7 23.25 304.54 20.39 304.92 19.32 304.88 17.32 304.36 15.84 303.38 13.14 303.06 11.51 303.36 10.4 303.37 9.11 303.88 7.84 305.05 7.56 305.59 6.64 305.92 5.17 305.46 2.38 305.25 1 304.77 1.31 303.72 1.12 301.92 1.37 300.7 2.85 299.8 4.4 299.29 5.03 298.74 5.86 296.97 6.26 295.49 6.27 294.17 7.25 293.82 8.14 291.27 8.29 290.02 9.42 288.31 9.64 286.85 11.01 286.98 11.84 286.66 12.74 286.8 14.23 287.47 14.93 287.31 15.4 287.7 15.99 287.34 16.52 286.04 18.98 281 18.78 279.8 19.08 278.65 18.83 277.35 19.7 275.67 20.22 274.13 20.27 273.46 21.06 272.82 22.73 272.4 23.83 271.85 23.87 271.34 22.49 270.97 21.03 270.08 21.73 269.31 23.54 268.37 24.28 268.59 24.87 269.14 26.16 269.75 27.88 270.01 28.61 270.45 29.33 271.38 30.24 271.5 31.91 269.19 33.84 267.9 34.99 266.97 35.8 265.43 36.35 265.06 37.55 264.78 38.02 264.96 39.07 264.17 39.21 262.09 39.94 261.92 41.82 262.06 43.8 260.76 44.33 260.7 45.36 260.03 45.47 259.09 44.98 258.67 43.74 258.37 43.02 257.91 43.22 257.2 43.98 256.87 46.22 256.38 46.71 255.96 47 255.06 47.47 254.57 47.14 253.38 46.7 252.61 47.98 251.09 48.31 250.48 49.28 249.63 49.23 248.58 49.8 246.76 50.22 246.11 50.35 245.23 51.11 244.6 51.58 243.81 51.7 242.98 52.39 241.91 55.6 240.66 57.76 239.62 58.2 239.61 58.78 238.82 58.63 238.05 57.17 235.81 58.25 234.99 58.83 233.86 58.17 232.76 57.62 231.31 58.29 230.62 59.94 229.68 60.74 229.5 61.06 228.89 61.13 227.7 61.54 227.03 63.02 225.51 64.77 225.61 66.51 225.32 67.06 225.56 68.67 224.4 69.36 223.31 70.77 222.56 71.9 221.58 73.14 221.02 74.18 219.97 75.47 219.29 77.81 218.89 79.46 218.96 82.41 218.3 83.23 217.54 83.65 216.76 83.5 214.28 85.17 213.77 86.88 213.7 88.1 213.98 88.85 214.39 91.07 214.76 91.82 214.49 92.17 213.67 92.18 212.89 93.21 211.15 92.5 209.15 92.98 208.12 93.49 207.84 93.17 206.05 94.54 205.4 95.26 204.21 96.81 203.51 97.16 202.64 96.44 201.71 96.8 201.34 96.72 200.31 97.5 200.23 98.96 199.73 99.1 199.01 98.6 198 99.78 197.15 100.71 195.86 101.54 195.66 103.01 196.02 104.05 195.21 104.68 195 105.65 195.67 106.26 195.69 107.06 195.1 108.31 195.39 108.78 195.25 108.48 194.25 108.91 193.89 109.69 193.96 110.66 194.58 111.26 194.15 111.1 193.45 111.29 192.23 111.8 190.72 112.6 190.12 113.4 189.16 115.28 188.56 115.92 187.5 116.56 187.23 117.39 185.16 118.37 184.15 118.57 183.4 119.27 182.29 120.14 181.58 121.13 181.88 123.29 182.81 125.23 183.3 126.73 184.13 127.93 184.21 129.29 185.37 130.51 185.52 131.28 185.82 131.41 186.32 131.08 187.49 131.22 187.9 132.56 188.94 133.94 189.69 135.01 190.81 136.04 191.19 136.86 190.93 139.22 190.83 140.5 191.42 142.37 192.51 143.46 192.89 144.72 193.72 145.6 194.82 146.31 194.76 148.26 194.17 151 192.57 153.01 192.57 154.5 193.02 155.91 192.97 157.34 192.61 158.52 191.96 159.02 191.36 159.58 190.01 160.28 189.01 160.65 188.06 160.66 187.12 161.24 186.39 163.28 186.43 165.06 185.91 165.78 186.07 167.55 187.37 168.72 187.89 170.02 188.2 171.42 188.19 171.88 188.41 173.06 189.92 173.8 189.82 174.88 188.74 176.46 186.5 179.34 184.22 182.39 182.45 183.47 182.26 186.95 182.06 188.72 182.75 189.63 184.17 190.48 184.85 192.69 185.9 195.25 187.75 197.49 188.2 199.32 188.06 199.55 186.96 200.11 185.94 200.2 184.46 200.04 182.51 200.45 181.4 200.66 179.92 200.03 179.11 199.91 177.19 199.63 176.07 199.43 174.08 198.81 173.54 198.9 169.53 198.73 166.9 199.63 166.24 200.45 165.25 201.11 164.81 202.21 163.52 203.13 161.51 203.82 160.89 204.32 159.66 205.18 159.2 205.8 158.33 206.28 158.16 206.82 157.14 206.7 156.58 205.81 155.29 205.99 154.83 207.16 154.13 206.09 153.01 205.68 150.47 205.89 149.62 205.77 148.13 205.35 146.73 205.6 145.26 205.15 144.13 205.29 143.36 206.27 142.29 206.51 141.23 206.23 140.67 204.88 140.23 204.38 139.75 204.26 138.65 203.56 137.38 203.57 135.68 203.88 135.13 203.68 134.39 203.98 133.75 202.4 133.05 201.7 131.31 201.74 129.56 202.5 127.98 203.87 126.88 203.65 125.88 203.07 125.29 203.38 123.67 204.05 122.59 204.27 121.23 203.64 120.82 203.75 120.18 204.76 118.24 205.09 117.19 204.03 116.11 203.49 116.31 202.04 115.64 201.78 114.34 201.28 113.9 200.88 112.48 201 111.99 200.47 110.54 200.82 109.83 201.62 109.03 200.58 107 200.53 106.1 201.02 104.74 201.09 102.06 200.5 100.62 199.91 99.71 200.58 98.72 200.72 98.03 200.41 97.19 201.04 96.33 201.1 95.69 201.64 94.59 201.82 93.47 201.28 90.93 202.03 90.21 202.2 89.64 201.56 89.25 201.79 86.85 201.04 85.84 201.36 85.02 201.04 84.59 201.52 83.27 202.59 81.73 203.67 80.62 203.62 80.06 202.57 79.39 202.68 78.85 201.59 77.59 199.94 77.56 198.31 76.67 198.47 75.47 197.93 74.44 199.46 73.27 199.29 72.33 199.57 68.05 200.08 67.18 200.19 66.09 200.58 65.31 200.07 64.65 200.5 63.11 202.83 63.06 203.53 62.88 205.21 61.24 206.24 60.52 207.8 58.79 208.4 57.67 209.52 56.92 210.33 55.65 210.22 54.83 209.8 54.35 210.97 53.38 211.2 52.43 210.71 51.5 210.92 50.98 210.44 50.27 209.9 50.21 209.3 48.94 209.29 48.3 209.92 47.41 209.53 47.17 209.44 46.28 210.04 45.77 210.66 45.99 211.48 44.55 211.2 43.69 211.53 42.85 212.31 42.35 211.99 41.19 211.32 40.72 212.48 40.28 212.12 39.39 214.02 38.16 214.9 37.06 215.98 33.73 217.18 32.35 217.47 31.3 217.39 29.68 217.81 28.43 218.41 27.79 219.47 27.15 221.18 26.94 222.04 27.31 224.14 27.86 226.1 27.69 226.85 27.23 228.25 26.95 229.69 27.58 230.7 28.5 231.8 28.44 233.34 29.13 234.81 28.83 237.17 28.71 238.36 28.5 242.21 27.58 244.77 26.45 247.16 25.12 248.58 24.05 249.75 23.79 250.96 23.74 252.55 22.98 255.7 20.85 257.19 20.14 258.18 19.95 263.02 19.84 265.49 19.12 267 18.39 268.07 17.02 268.88 16.6 269.83 16.54 272.58 17.33 274.09 17.34 276.89 16.51 280.64 16.45 281.8 16.29 282.75 15.87 283.47 14.7 286.82 14.47 287.86 13.98 289.29 13.57 291.49 11.96 293.03 11.61 294.68 12.22 298.74 13.02 301.51 13.68 302.74 13.26 305.45 13.01 307.16 13.48 307.62 12.27 309.1 11.75 309.79 11.85 310.77 12.4 312.44 12.29 313.08 12.55 314.04 13.44 314.66 13.62 317.55 13.34 320.64 12.28 324.77 11.18 326.23 10.4 327.29 10.74 329.36 10.68 330.16 11.06 331.54 11.13 331.78 11.5 331.82 12.82 332.81 13.72 334.09 13.69 335.68 13 336.04 12.38 336.97 11.84 339.38 10.96 340.31 10.1 341.12 9.87 342.87 10.11 343.88 9.67 345.43 7.52 346.79 6.33 349.74 5.2 352.03 4.98 353.87 4.56 355.29 3.81 355.96 4.55 356.87 6 358.67 6.75 359.42 7.79 360.18 8.06 360.78 7.83 362.09 6.9 362.76 6.86 363.57 7.33 364.58 7.51 365.72 7.16 367.78 7.05 369.02 7.32 370.74 7.95 372.83 9.17 374.49 9.8 375.31 9.42 375.68 8.7 377.17 6.78 377.99 6.03 378.19 5.31 377.7 4.5 377.6 3.63 378.5 2.58 379.38 2.12 380.95 1.81 383.57 1.84 386.5 2.29 388.96 3.13 390.17 3.16 390.98 2.82 391.83 1.92 393.3 1.08 395.54 1 396.41 1.29 396.95 1.96 397.02 3.21 397.4 3.68 398.53 4.1 398.68 4.53 398.45 5.8 401.74 7.48 403.46 8.76 404.32 9.67 406.29 10.7 408.04 11.32 409.55 12.1 410.47 12.39 412.78 12.49 413.78 13.05 414.76 14.46 415.92 14.84 418.56 15.08 420.77 15.57 423.41 16.51 425.18 16.99 425.61 17.26 426.53 18.62 427.51 19.32 428.49 19.55 430.72 19.5 433.81 18.75 434.71 18.74 435.97 19.13 437.3 19.86 438.68 19.22 439.3 18.18 440.51 17.53 441.34 17.55 443.85 17.98 447.28 19.04 448.65 19.11 450.23 19.65 451.02 21.68 451.92 21.77 453.22 21.6 455.23 21.13 456.36 21.34 458.08 21.2 461.37 19.91 462.63 19.82 464.38 20.36 466.87 20.39 468.5 20.84 472.65 21.52 474.06 21.89 476.07 22.07 478.27 22.93 481.87 24.11 482.6 24.53 487.64 27.87 489.48 28.33 490.02 28.65 490.52 29.48 490.67 30.7 491.38 31.44 493.5 31.91 493.93 32.56 494.58 32.86 495.8 34.15 496.92 33.99 498.09 34.72 499.09 34.71 499.89 35.12 500.45 35.73 501.81 38.35 503.82 40.35 505.6 41.7 507.57 42.58 508.52 43.48 509.11 44.67 511.57 46.15 513.7 46.62 516.35 47.52 519.3 48.25 520.54 49.26 521.67 49 523.25 47.59 525.34 46.26 526.7 46.04 528.02 46.87 528.6 47.57 529.18 47.71 531.68 47.81 536.84 47.8 540.58 47.42 542.5 46.99 543.55 46.28 545.12 44.64 546.42 43.78 547.47 43.46 548.52 43.44 550.74 43.79 554.55 43.52 555.67 43.17 557.24 42.26 558.14 42.15 559.22 42.58 561.24 43.86 562.44 44.29 564.27 45.39 565.82 46.06 566.61 47.13 566.76 48.39 567.28 49.48 568.13 49.73 569.34 49.37 571.59 47.7 573.01 47.52 576.12 48.21 579.2 48.4 580.07 48.55 580.72 49.68 581.23 50.01 583.68 50.33 584.52 50.32 585.29 50.63 587.94 52.25 588.22 52.92 588.27 54.15 589.07 55.2 589.65 55.63 591.53 56.52 592.91 56.99 593.72 57.61 594.2 58.53 596.81 61.65 598.94 62.24 600.21 63.21 600.9 63.11 602.53 61.73 602.75 60.84 602.23 59.07 602.86 58.1 604.83 56.62 605.88 56.12 607.29 55.83 609.88 55.73 612.74 54.79 613.84 53.99 615.32 53.42 616.25 53.36 617.94 53.81 618.47 54.31 618.5 56.21 618.26 56.96 618.43 58.25 619.23 59.65 619.89 60.28 621.84 61.25 623.31 61.77 623.8 62.43 623.77 63.08 622.92 64.25 621.97 66.55 620.74 68.36 621.08 69.43 622.08 71.64 622.63 72.35 623.75 74.29 625.13 75.97 627.23 77.95 629.08 78.96 631.38 79.25 633.68 79.25 637.07 78.61 638.71 78.12 641.49 76.73 642.77 76.65 644.61 76.01 645.65 75.47 646.85 74.27 648.99 72.41 652.32 71.4 655.59 69.92 658.29 69.61 662.06 70.07 663.83 69.88 666.23 68.93 667.03 69.06 668.54 70.03 669.67 70.21 671.76 69.61 673.73 68.08 676.31 66.4 677.48 65.9 680.38 64.91 681.71 64.55 682.45 63.63 683.67 61.4 684.88 58.68 685.57 56.7 686.36 52.43 686.82 51.99 688 52.03 692.32 51.8 693.93 51.91 696.11 51.86 697.4 52.1 699.55 52.72 700.83 52.29 701.6 51.18 701.76 50.49 701.89 47.68 702.36 45.75 703.4 43.68 704.7 41.96 706.02 41.05 708.71 39.96 710.44 38.55 711.23 38.08 714.38 36.92 715.52 36.87 717.94 37.17 721.83 38.18 724.29 39.24 725.81 40.5 726.56 41.43 727.43 42.11 728.68 42.05 730.91 41.3 733.9 40.69 735.66 39.61 736.42 38.83 737.2 38.42 738.23 38.26 740.1 38.36 742.75 38.89 744.38 38.65 748.8 37.23 750.4 36.17 750.89 36.09 752.41 36.62 754 37.51 754.85 37.75 756.09 37.69 757.32 37.03 759.4 34.73 763.44 32.25 764.49 31.35 764.78 30.43 764.09 27.8 763.51 27.19 762.15 26.86 761.17 25.23 760.09 22 759.99 21.15 760.47 20.31 762.51 18.97 763.03 18.36 767.7 16.39 769.15 15.37 769.73 14.23 770.89 11.12 771.3 9.6 771.87 8.74 772.65 8.12 774.93 7.39 776.94 7.15 780.43 6.9 782.83 6.81 785.77 6.26 786.98 5.84 789.08 4.71 790.01 3.98 792.56 3.04 794.4 3.09 795.81 3.59 798.98 5.21 Z"/>
</g>
</svg>