<?xml version="1.0"?>
<svg xmlns="http://www.w3.org/2000/svg" version="1.2" baseProfile="tiny" width="800" height="838" viewBox="0 0 800 838" stroke-linecap="round" stroke-linejoin="round">
<g id="4218103">
<path d="M 437.25 43.89 434.54 48.19 436.15 50.05 437.18 56.13 438.31 57.82 440.1 58.18 443.49 56.73 446.2 56.77 451.99 56.2 458.31 53.6 460.79 53.78 464.6 56.09 469.72 57.48 472.3 56.24 476.69 55.37 481.01 55.56 484.16 53.9 488.12 54.08 490.53 53.76 489.5 57.28 489.74 58.5 491.79 62.09 493.56 64.36 492.92 68.15 493.57 69.73 494.98 69.91 497.76 67.35 502.76 65.94 511.32 63.97 513.09 65.88 514.74 66.76 517.18 66.77 521.78 65.62 525.8 64.09 531.13 63.31 538.41 64.12 540.33 61.56 544.5 59.91 546.95 60.05 550.73 58.41 552.31 56.9 553.66 54.16 556.89 52.2 560.81 50.56 565.91 46.13 569.26 44.2 575.56 45.09 577.34 46.45 578.58 49.53 577.44 53.28 577.02 60.89 578.09 64.85 576.76 68.55 576.85 72.1 579.66 78.84 577.16 82.27 577.12 86.6 577.74 93.48 577.68 95.14 576.24 102.21 575.99 106.07 576.58 109.09 579.46 112.29 580.84 116.97 582.07 120.01 582.48 123.19 579.75 127.27 580.82 131.9 581.02 135.01 579.79 139.9 579.92 142.38 579.37 144.37 576.83 148.39 575.82 150.96 575.44 154.91 575.55 159.22 576.02 164.37 575.62 170.85 576.11 173.74 580.48 177.83 583.39 179.83 586.32 180.61 589.77 182.33 592.27 182.11 594.3 184.29 595.87 183.58 602.86 186.11 607.39 188.28 612.15 189.79 619.04 190.57 624.61 190.94 629.48 192.8 633.25 192.52 640.06 194.33 642.17 195.7 643.59 197.98 648.04 200.43 649.74 204.9 650.76 206.52 650.96 209.62 652.01 210.48 652.88 213.59 652.84 217.43 653.67 219.16 652.88 223.89 656.02 225.5 656.26 228.35 659.01 230.33 660.49 234.28 663.19 235.89 663.2 240.62 664.35 244.86 666.87 246.73 669.65 250.17 672.44 256.23 673.58 258.18 676.86 262.05 681.03 270.2 732.99 308.07 736.56 307.67 741.39 307.56 742.54 308.13 746.02 312.61 751.84 317.78 752.9 318.96 755.22 324.59 758.48 327.56 762.47 328.58 765.73 328.95 769.71 331.35 775.54 332.65 777.73 335.3 781.31 336.48 783.57 338.89 783.28 341.13 784.81 342.63 784.87 347.98 787.47 349.24 790.54 349.11 794.31 348.44 799 350.16 764.4 383.62 757.83 390.49 753.3 395.01 753.76 408.73 753.89 416.67 755.01 418.43 756.62 419.25 757.88 421.29 757.77 422.56 751.11 429.76 745.69 435.37 744.54 437.18 743.33 441.93 665.83 482.28 598.39 517.39 490.63 554.75 344.57 605.4 344.26 607.47 342.92 609.27 339.9 611.72 338.17 614.43 336.77 615.76 334.55 616.73 330.64 617.61 327.02 619 321.17 619.98 317.14 619.45 315.04 618.22 312.61 617.78 309.67 613.24 306.78 612.92 304.94 613.59 298.32 618.82 293.99 620.57 290.77 622.61 288.34 626.25 287.88 628.25 285.07 630.6 283.61 630.8 279.55 633.57 277.84 634.27 275.03 633.66 272.73 631.81 269.82 630.72 264.66 630.44 261.04 631.38 256.15 634.35 252.65 637.61 248.54 638.92 243.68 646.35 240.67 654.88 239.47 656.4 237.06 657.65 234.27 658.15 231.53 657.66 230.18 658.5 228.16 661.53 224.82 663.66 223.08 665.92 220.53 667.65 218.24 671.48 213.72 675.73 206.89 680.79 200.17 685.15 197.96 688.83 196.59 689.69 191.64 690.28 190.01 691.02 186.44 693.78 181.14 696.79 169.22 702.22 164.75 705.36 163.9 706.48 162.16 711.43 160.71 713.77 148.97 720.11 146.65 721.72 141.52 726.27 139.23 729.46 136.74 734.59 134.28 740.6 133.62 743.5 123.21 745.42 121.71 744.56 116.22 744.42 114.96 743.83 111.08 743.38 104.92 740.35 102.14 742.76 99.24 744.57 95.42 745.61 92.62 745.66 89.49 749.9 85.79 752.92 81.28 753.7 80.29 754.32 77.56 754.28 72.14 755.56 70.67 755.23 75.83 787.32 77.16 790.1 77.23 794.06 79.48 797.19 81.05 801.16 83.7 805.67 85.05 810.35 84.79 812.74 80.8 815.61 77.69 815.69 75.49 811.22 72.22 807.86 67.31 806.3 64.36 806.72 61.18 806.15 58.91 805.17 54.39 806.4 49.63 806.23 47.17 809.84 47.52 813.53 47.38 821.35 48.67 837 46.21 833.14 43.66 829.77 42.29 826.35 39.24 824.12 38.14 811.17 38.37 807.1 39.53 803.27 37.96 798.16 34.99 792.31 35.85 788.81 38.99 784.78 40.31 776 46.54 770.26 53.36 770.1 61.76 773.13 61.82 780.9 69.36 792.51 69.89 787.29 68.59 777.39 65.04 763.13 56.74 758.47 50.55 758.77 46.1 762.05 35.31 762.23 27.62 759.68 21.49 758.68 17.17 758.47 14.12 755.53 10.54 752.81 4.93 746.78 7.48 744.29 10.82 742.69 17.81 741.26 20.31 738.59 23.58 736.25 23.83 733.24 23.1 729.45 25.18 727.23 28.02 725.8 26.28 723.06 25.44 718.9 27.75 714.6 33.26 706.88 36.47 696.93 39.92 692.55 37.6 685.03 39.99 680.76 42.84 679.66 48.62 678.96 51.45 676.73 56.61 676.15 62.82 674.16 64.68 671.27 69.27 665.78 69.04 661.78 68.86 650.89 65.05 650.66 62.44 647.41 64.36 644.07 69.61 642.19 73.85 639.02 71.94 635.47 64.1 632.81 66.48 628.66 72.12 625.27 76.98 623.52 80.61 622.8 83.6 619.14 85.39 615.07 89.02 609.55 89.48 604.21 93.76 603.14 98.3 601.15 100.74 603.49 104.64 605.98 107.52 604.19 110.09 601.42 113.19 590.6 113.73 587.47 117.01 586.38 121.12 586.08 125.13 583.87 128.1 579.14 124.43 578.76 119.24 579.58 114.96 577.69 107.11 580.54 102.54 585.42 97.6 592.86 92.11 596.03 86.68 597.91 80.1 601.97 71.85 604.05 66.14 607.33 60.03 607.86 54.94 606.52 53.8 600.02 54.72 596.76 58.63 599.38 64.01 597.23 69.63 590.94 69.12 587.37 61.28 585.67 59.77 581.94 64.37 574.84 62.76 573.04 52.91 572.85 45.17 572.95 35.89 577.04 29.68 581.38 21.63 584.42 10.28 594.23 3.89 595.4 1.08 593.56 1 589.58 4.08 583.69 4.86 576.39 4.96 570.61 8.39 568.37 9.62 564.76 20.76 558.17 26.09 553.08 28.39 551.22 37.04 546.91 44.08 544.04 46.84 539.95 47.71 534.18 47.74 528.4 46.17 525.28 42.79 524.32 35.87 518.05 30.42 516.47 27.15 516.4 26.24 512.59 27.5 507.18 28.88 503.23 31.33 498.47 33.38 498.06 33.68 496.2 31.86 491.75 28.48 490.26 28.18 486.18 29.44 484.63 30.94 485.36 32.74 484.47 32.2 479.63 31.31 477.87 34.82 474.99 35.55 472.78 34.01 467.41 33.07 466.72 33.05 464.57 34.22 462.98 35.94 458.41 37.2 456.45 39.33 454.5 39.48 452.97 41.4 452.61 44.73 452.83 44.08 451.32 44.53 449 42.86 444.93 42.11 440.01 41.62 434.18 38.95 432.09 32.75 431.7 29.48 433.19 25.96 435.93 23.16 435.85 19.97 434.04 18.34 431.68 17.74 427.04 17.64 423.32 16.22 416.01 14.34 413.58 13.61 408.04 13.8 402.9 16.23 398.46 15.48 397.26 16.21 389.38 17.79 386.81 18.37 383.64 18.66 378.21 19.47 373.98 22.53 369.92 24.47 368.34 26.74 365.29 28.48 358.86 27.08 353.24 25.72 349.83 24.09 347.76 24.55 344.13 24.09 342.4 26.33 339.93 26.27 338.29 24.99 335.91 25.19 333.32 27.37 330.95 30.97 329.81 35.52 329.88 39.43 330.88 42.78 332.19 44.88 334.09 48.86 336.32 56.17 340.94 60.62 343.3 64.15 344.48 66.04 343.43 66.01 341.2 64.92 337.74 60.35 336.63 57.82 335.01 55.09 333.91 52.23 330.66 46.74 325.45 44.38 322.66 41.68 318.57 38.95 312.22 37.22 304.83 37.18 298.3 36.34 295.68 36 291.43 37.96 288.31 41.38 285.68 43.27 284.68 44.37 283.24 44.39 281.19 40.67 279.07 38.02 278.61 35.12 276.95 33.29 274.46 31.82 274.06 30.57 271.75 27.24 266.91 26.85 263.82 26.97 260.99 29.1 259.38 31.93 258.19 38.03 257.28 39.21 255.95 37.92 255.06 35.42 252.2 33.12 248.72 30.45 246.67 29.8 242.75 30.24 242.15 35.13 239.4 36.43 238.08 39.05 236.78 38.68 234.01 40.51 231.62 42.71 230.36 46.3 230.36 49.84 232.36 51.22 231.83 51.88 229.6 51.84 227.1 53.78 224.45 56.57 223.98 63.13 225.03 64.18 224.2 61.23 222.08 61.16 219.27 62.03 217.51 63.76 215.85 65.45 215.66 67.08 213.31 65.29 212.9 62.83 207.13 61.35 205.49 58.04 200.14 56.57 197.02 56.37 195.11 57.43 192.53 59.81 191.48 64.66 191.43 68.15 192.22 70.61 192.27 71.98 190.81 72.15 187.88 70.99 185.13 68.44 183.98 65.37 179.09 67.22 178.26 69.45 176.28 71.95 175.57 76.31 175.63 82.24 174.69 86.57 174.82 89.65 175.63 96.02 178.93 96.91 181.75 98.61 183.55 101.66 184.73 111.54 190.59 114.2 191.24 115.52 190.4 115.78 187.22 118.27 185.97 121.57 185.42 126.93 185.99 129.41 185.61 132.84 183.07 136.73 181.73 141.4 181.78 143.28 180.82 143.35 175.8 141.41 173.97 141.04 169.92 139.15 167.16 141.64 164.95 144.74 164.02 146.21 164.38 149.51 164.05 149.15 161.86 151.33 160.53 156.67 158.34 158.69 156.35 162.96 153.16 160.33 147.33 156.81 147.89 153.44 146.88 151.15 143.08 149.54 139.41 150.26 135.57 146.3 135.69 144.99 138.8 143.44 140.13 140.12 138.05 141.27 135.75 139.67 132.15 138.66 131.51 133.32 130.77 130.35 127.43 129.17 122.4 127.44 121.57 129.08 119.65 131.32 120.11 131.66 118.03 135.72 114.36 139.04 110.56 136.07 105.98 131.56 106.75 128.39 106.21 127.79 104.81 125.69 103.51 124.19 98.08 125.49 94.85 123.57 92.75 121.29 92.4 119.2 90.7 119.45 86.35 124.34 84.69 126.56 82.41 128.97 81.24 132.37 78.73 133.99 75.97 136.88 73.21 139.43 69.83 143.79 67.36 146.92 64.69 148.51 61.59 151.28 61.76 153.52 62.59 155.74 62.25 158.26 63.16 161.07 62.04 165.06 59.42 171.52 58.9 175.26 59.76 180.14 58.45 182.35 56.24 183.76 53.93 185.32 49.3 189.55 49.75 194.83 46.47 199.65 42.88 205.6 37.71 209.81 31.35 215.63 25.81 219.46 25.6 219.35 32.5 216.38 41.25 212.44 43.88 209.36 46.32 205.3 55.65 203.39 57.87 200.8 61.63 198.04 67.02 195.65 71.02 193.07 72.56 190.16 80.01 190.16 82.32 192.59 82.36 194.33 77.47 197.44 75.11 200.31 75.29 203.59 74.87 206.14 73.51 208.3 69.8 208.45 67.11 211.73 64.55 215.97 64.29 219.75 62.14 222.09 65.1 228.64 63.91 231.69 64.01 233.02 66.5 236.15 69.67 239.09 70.72 241.38 70.8 244.38 71.66 246.39 73.76 244.98 78.06 246.4 79.61 246.8 82.41 245.56 87.62 247.69 87.37 252.19 83.54 255.44 82.46 256.91 80.88 258.76 76.96 262.25 76.07 267.27 74.21 271.37 72.34 277.23 69.31 278.58 66.43 286.36 61.29 288.33 61.63 294.78 58.48 297.43 63.67 298.14 67.06 300.54 71.91 299.79 74.96 298.06 76.96 292.75 81.51 287.67 86.85 284.95 93.51 284.66 96.8 283.19 102 278.3 109.02 275.81 113.9 273.2 116.64 267.24 122.06 266.23 123.61 267.39 125.95 266.17 128.5 259.14 129.62 255.43 129.16 252.92 129.26 250.8 131.04 250.97 132.98 254.14 131.46 256.55 131.1 263.65 131.98 267.32 131.63 276.4 131.5 279.62 132.07 281.22 133.17 281.27 136.04 278.91 141.1 276.87 144.47 272.57 153.7 274.03 156.23 276.47 156.73 279.03 154.22 284.4 153.64 287.36 154.5 289.48 156.44 295.33 156.11 298.88 156.45 303.78 152.85 306.75 151.45 309.88 151.23 314.46 149.8 317.42 150.21 320.88 150.1 321.35 148.09 320.81 146.9 316.95 147.43 311.4 147.42 309.62 147.07 309.45 144.8 307.48 143.08 305.97 141.03 303.84 140.58 302.17 136.69 302.97 133.79 308.04 125.92 310.13 124.28 309.36 123.61 299.06 126.44 292.21 126.78 294.11 124.01 298.27 119.22 304.87 113.28 307.63 109.87 312.12 105.09 316.49 97.71 319.57 94.59 323.26 93.25 327.52 92.67 328.65 91.42 325.47 90.98 323.64 90.01 327.92 88.93 330.84 87.31 334.13 83.96 335.17 81.79 343.67 73.85 342.77 71.77 339.19 72.03 332.86 73.24 325.66 75.82 320.07 75.78 320.4 73.12 322.72 70.76 327.77 67.06 336.08 61.65 338.46 58.9 340.5 53.96 338.06 54.98 336.37 54.58 332.7 55.66 330.91 56.96 329.34 57.07 327.19 55.03 327.87 51.63 332.23 44.7 331.66 42.19 335.61 37.93 337.27 35.29 340.27 33.75 341.26 31.71 339.97 31.4 336.38 29.34 336.13 25.51 337.29 23.87 337.79 21.75 337.01 20.34 333.14 20.09 333.05 18.64 331.71 14.55 330.29 12 330.93 10.04 332.82 9.07 337.02 5.92 339.1 3.41 342.35 2.65 345.39 3.56 346.8 2.94 355.73 1.93 359.86 1 360.69 3.19 360.37 6.2 358.19 9.86 360.01 10.86 362.19 9.74 367.24 9.4 366.29 10.55 367.48 13.23 373.52 11.55 382.14 12.84 384.44 11.78 387.29 11.28 388.88 12.88 388.66 14.91 390.03 15.87 392.75 14.99 395.53 12.96 397.17 13.07 396.46 16.35 394.37 18.59 395.34 20.41 399.59 16.68 403.91 15.15 406.24 15.81 402.78 18.12 404.61 18.99 406.77 17.36 408.42 15.32 411.28 13.22 412.83 15.05 414.66 14.16 416.71 15 415.82 21.81 414.34 25.44 414.23 28.96 413.06 30.76 414.08 32 417.41 30.44 423.65 28.02 426.55 28.2 428.02 30.3 428.72 33.43 427.84 35.41 423.51 41.01 421.87 44.66 422.11 47.1 424.6 47.67 431.07 47.65 433.83 46.87 437.25 43.89 Z"/>
</g>
</svg>