<?xml version="1.0"?>
<svg xmlns="http://www.w3.org/2000/svg" version="1.2" baseProfile="tiny" width="800" height="465" viewBox="0 0 800 465" stroke-linecap="round" stroke-linejoin="round">
<g id="4218756">
<path d="M 300.56 40 301.7 36.28 303.91 40.48 305.89 43.01 316.47 46.56 319.35 48.42 322.7 49.08 329.77 54.14 331.9 54.84 338.16 53.78 342.07 53.83 349.47 54.66 351.34 56.18 353.62 56.33 356.32 52.44 364.07 54.04 371.34 57.1 374.48 59.17 377.8 62.73 378.97 64.85 385.49 69.41 389.46 70.52 394.71 69.34 401.88 69.26 405.67 69.54 408.37 70.38 413.09 74.28 417.4 74.42 421.56 73.82 425.21 75.3 431.69 78.72 437.41 80.39 441.07 82.01 448.97 83.89 450.97 83.02 454.05 80.41 459.43 77.97 462.37 73.71 667.78 83.07 665.51 85.47 664.3 88.4 664.49 92.05 668.05 98.93 668.37 102.48 667.41 104.19 662.59 106.18 657.21 108.94 650.51 114.11 644.17 120.15 642.1 123.17 636.84 128.2 635.57 130.14 636.8 133.6 640.77 135.2 640.11 132.86 647.67 125.25 654.55 121.74 657.18 122.63 658.43 121.11 657.56 117.97 658.11 116.71 665.86 112.43 671.24 112.84 673.93 112.54 680.05 111.03 688.5 110.92 694.86 113.36 698.81 113.59 704.53 115.3 707.39 117.33 709.25 122.61 711.21 124.22 712.71 126.85 716.34 130.21 716.88 127.18 720.77 126.02 724.03 126.16 728.86 129.01 734.86 128.91 736.23 130.25 739.28 131.42 740.93 133.68 743.39 134.17 744.41 135.46 748.14 135.67 750.43 134.94 753.71 137.04 755.24 136.95 758.87 140.61 762.27 139.22 765.49 139.14 770.18 140.61 771.37 142.49 777.02 146.01 780.43 147.54 783.25 151.26 786.09 153.96 786.45 156.06 788.11 159.25 788.05 164.26 788.9 169.96 790.01 171.54 789.86 175.68 788.37 180.02 789.07 181.32 798.05 189.2 799 190.93 797.15 194.6 795.47 195.62 792.72 199.03 788.64 201.56 784.35 202.69 782.38 203.93 778.25 207.67 775.24 212.89 775.63 215.83 778.1 222.42 777.37 224.41 774.96 226.46 771.78 230.09 767.9 232.39 767 234.08 766.56 238.98 765.43 241.57 765.36 245.78 755.54 248.28 752.52 249.44 746.44 248.38 739.18 248.95 736.76 248.83 733.35 251.64 731.63 255.5 728.95 256.86 725.23 256.1 723.5 256.48 722.08 258.37 718.81 260.48 719.63 263.14 719.08 265.09 716.71 269.28 710.54 272.37 708.42 275.04 707.81 278.02 705.3 282.78 704.08 283.38 698.98 281.11 695.14 281.14 690.89 287.63 690.38 289.79 688.24 292.26 686.21 298.14 683.02 301.67 681.7 301.81 676.24 300.07 674.38 298.42 671.14 297.94 667.92 303.75 663.27 306.43 662.06 307.66 659.62 308.07 656.98 307.25 651.92 304.26 649.52 305.57 648.56 313.83 648.3 315.37 649.07 319.41 647.52 320.67 644.56 319.47 635.93 312.63 633.5 311.92 630.15 312.39 627.57 315.52 626.71 318.71 624.83 321.09 622.54 321.35 620.07 322.86 616.37 324.02 613.17 323.01 606.56 319.44 604.26 321.17 601.62 327.18 598.8 331.79 598.49 335.21 603.21 336.63 606.14 341.71 606.34 343.96 604.49 345.75 598.7 346.02 592.07 345.2 589.67 345.61 586.42 347.92 582.05 349.39 580.59 348.03 581.23 344.03 582.82 339.59 580.44 337.71 577.89 337.78 572.94 340.47 570.11 343.41 569.18 347.65 565.71 352.72 563.96 353.59 562.97 357.4 563.33 358.82 566.33 363.53 568.86 366.62 568.95 369.09 567.65 370.01 562.1 369.16 557.66 369.15 557.25 369.97 557.28 376.91 555.73 380.02 553.69 381.96 552.18 381.82 546.57 379 539.16 374.59 535.45 374.72 531.36 377.05 528.3 376.53 529.36 372.49 529.58 367.77 528.71 364.5 525.5 365.3 523.05 367.43 517.03 371.71 514.07 371.25 512.42 366.38 512.75 361.81 514.09 357.32 514.71 352.63 513.6 350.81 502.03 351.98 499.08 352.71 498.26 354.77 499.66 358.41 499.85 361.23 498.82 362.58 495.87 362.74 495.76 366.34 496.85 369.81 498.28 372.33 498.42 374.95 497.4 378.28 498.82 380.73 500.26 386.69 499.63 387.91 499.56 392.83 498.77 397.17 499.72 398.74 503.68 402.25 504.77 404.54 505.58 411.05 504.73 414.83 499.63 416.89 497.37 419.81 464.28 437.13 443.39 458.95 427.65 446.36 417.82 456.7 413.83 454.28 409.64 450.22 404.79 446.72 403.23 444.67 398.69 440.36 395.69 436.42 391.89 432.45 384.14 426.57 379.03 423.76 320.6 418.27 315.62 426.48 314.3 427.33 311.11 426.8 306.8 422.29 304.36 417.28 303.35 408.22 302.9 401.83 301.65 400.1 295.95 396.73 289.36 393.87 284.29 392.65 277.39 392.06 272.22 393.52 264.37 397.9 255.5 402.4 252.11 404.84 250.12 408.49 249.03 413.2 247.77 416.64 246.18 423.67 243.24 429.89 243.76 433.61 246.56 437.17 256.74 445.53 262.58 449.61 268.4 453.24 271.44 456.38 270.37 459.64 268.61 461.05 264.04 462.59 259.57 462.99 255.27 461.82 248.37 460.89 241.97 459.09 236.85 459.67 223.73 464 218.47 463.89 218.44 460.7 222.03 454 224.42 448.05 223.74 444.66 219.51 442.07 212.07 438.01 203.02 431.79 203.87 429.71 207.41 426.62 208.24 423.31 205.84 420.27 204.93 417.78 202.76 415 202.22 412.55 197.66 409.17 198.46 407.69 197.26 401.79 195.31 398.25 194.6 394.45 192.28 389.8 190.33 388.16 187.5 383.9 183.89 382.3 181.68 379.89 181.55 378.15 174.62 373.63 174.01 371.33 169.78 366.72 167.29 364.68 167.63 358.78 166.84 354.32 161.8 349.59 161.17 345.65 161.6 343.3 163.45 339.8 165.42 337.9 176.17 335.25 175.38 334.08 170.72 330.99 165.36 322.01 161.73 318.98 157.7 317.8 152.62 318.52 150.2 317.45 147.35 317.92 140.5 315.56 133.94 314.49 130.49 314.65 126.74 312.83 121.86 312.6 121.06 313.31 116.84 312.74 114.44 313.98 110.99 313.42 107.27 315.51 102.58 315.59 99.91 316.64 97.99 315.04 94.5 315.44 90.57 314.71 86.04 312.22 81.67 308.17 78.06 307.98 75.21 307.15 74.56 304.44 71.71 300.49 69 298.33 64.76 298.52 61.7 297.1 61.88 295.71 55.16 291.5 48.57 293.59 46.04 288.48 39.83 282.84 25.22 273.09 21.58 269.69 13.11 264.04 3.74 255.15 1.19 249.83 1 245.09 4.98 240.14 10.68 238.06 19.83 238.2 31.41 239.63 42.43 242.91 55.64 246.64 68.16 250.62 82.57 250.9 86.52 249.59 91.35 245.15 104.1 238.54 109.08 234.33 111.99 227 110.83 218.21 106.44 210.94 100.94 207.81 91.69 203.51 81.57 201.91 69.63 198.56 59.26 195.25 44.49 188.42 37.88 184.07 31.8 179.13 29.24 175.01 28.43 170.66 29.69 168.07 35.08 166.55 40.73 167.47 48.54 167.65 53.27 166.97 56.65 163.63 58.3 158.93 59.7 148.71 63.87 126.41 67.57 113.74 69.45 110.57 73.1 107.36 78.67 105.93 86.45 107.14 93.62 111.21 107.04 123.12 115.2 128.33 123.47 131.84 132.21 133.64 139.52 131.86 146.85 126.74 150.41 121.64 153.75 117.51 158.42 114.21 163.07 113.46 166.52 113.74 170.81 108.49 173.72 99.79 177.6 86.2 173.53 76.93 167.46 68 159.02 57.04 152.59 46.41 143.5 30.85 141.07 19.7 141.03 9.93 144.84 3.64 153.6 1 162.99 1.74 172.32 4.4 187.67 9.97 204.39 16.2 218.94 24.59 239.32 41.86 253.15 46.93 269.83 50.2 283.62 54.26 291.86 54.55 296.35 50.61 300.95 40.95 300.56 40 Z"/>
</g>
</svg>