<?xml version="1.0"?>
<svg xmlns="http://www.w3.org/2000/svg" version="1.2" baseProfile="tiny" width="800" height="539" viewBox="0 0 800 539" stroke-linecap="round" stroke-linejoin="round">
<g id="4218400">
<path d="M 799 196.21 625.34 298.41 525.25 357.31 478.15 386.3 375.88 451.46 331.49 478.17 289.12 503.79 232.07 538 225.54 535.43 209.06 528.11 198.68 523.95 186.12 518.5 182.35 517.15 178.9 514.59 176.25 512.1 176.27 510 173.93 508.32 173.28 506.53 179.35 502.99 180.04 501.98 177.57 500.76 176.45 498.26 174.93 497.05 175.71 495.47 172.84 490.53 170.96 490.08 169.51 488.51 165.98 486.46 164.73 479.26 162.77 476.04 160.71 474.65 159.89 472.7 160.67 470.8 160.67 468.22 163.42 467.03 164.14 465.62 162 464.69 161.27 462.02 161.71 460.09 161.01 458.76 161.46 453.12 159.61 452.32 159.15 449.62 154.12 446.75 154.6 444.25 152.29 442.14 151.38 439.73 147.9 436.85 142.68 436.95 136.55 436.19 133.14 437.14 128.67 434.81 125.87 434.6 123.61 432.44 120.4 428.17 116.57 427.19 111.51 421.06 110.65 417.82 105.99 417.55 101.86 415.65 102.55 414.2 97.59 410.58 96.88 409 92.69 405.98 88.18 407.81 86.42 406.12 85.74 404.23 81.5 402.01 80.67 401.1 77.57 399.93 75.83 391.25 74.89 385.43 71.79 385.85 69.92 385.25 68.65 387.73 66.49 386.62 65.27 387.34 62.63 386.07 59.03 385.36 57.8 383.7 55.76 384.57 52.7 382.96 50.45 380.36 47.6 379.55 40.77 373.4 43.28 366.44 39.45 363.83 38.69 359.61 36.17 353.1 33.9 352.07 29.88 351.32 24.53 347.09 17.87 345.6 6.9 344.95 3.84 344.07 1 345.38 98.76 203.51 148.43 131.44 198.59 58.65 237.41 2.31 236.9 4.73 237.08 9.38 235.59 15.54 236.34 17.05 235.64 18.96 235.25 24.93 234.44 26.7 236.09 30.09 234.39 31.75 233.43 36.08 231.62 38.97 231.6 42.11 233.11 42.42 236.3 44.45 239.35 44.32 240.46 45.75 239.27 51.81 240.27 54.78 244.46 55.06 252.96 54.69 257.6 53.96 259.7 51.06 261.8 50.25 262.8 48.77 265.38 46.93 266.34 44.02 276.12 38.56 281.21 38.7 283.25 37.56 284.94 35.42 287.54 34.95 289.18 33.7 287.86 31.69 286.98 28.87 285.78 27.35 286.12 25.65 284.38 22.75 284.33 17.88 288.85 17.54 288.87 16.05 291.19 15.19 293.5 13.54 296.98 12.34 301.22 12.28 302.3 13.22 306.04 14.44 308.35 16.63 310.45 17.49 314.71 18.4 317.7 20.39 321.58 18.66 325.53 17.82 332.83 17.35 335.83 17.7 340.66 16.32 341.26 17.26 347.32 16.95 348.25 16.03 353.87 16.39 360.64 10.87 363.36 10.39 365.25 8.78 369.59 6.08 374.98 6.29 378.23 2.36 389.67 1 392.45 1.28 393.61 4.21 394.88 5.08 399.36 6.2 403.86 6.69 406 4.15 408.41 3.65 410.91 5.07 413.94 6.03 414.25 8.9 412.07 10.26 411.55 14.54 414.71 17.81 418.02 18.82 506.02 83.16 557.89 121.08 640.54 181.51 653.47 198.08 656.03 201.14 659.11 203.92 661.99 205.75 668.95 208.44 694.59 217.81 700.25 220.71 703.26 227.62 705.24 231.08 712.03 231.54 717.3 231.09 722.79 229.65 744.04 221.98 749.24 219.04 757.08 215.21 774.63 206.01 785.65 200.81 788.58 199.21 795.56 196.04 799 196.21 Z"/>
</g>
</svg>