<?xml version="1.0"?>
<svg xmlns="http://www.w3.org/2000/svg" version="1.2" baseProfile="tiny" width="800" height="663" viewBox="0 0 800 663" stroke-linecap="round" stroke-linejoin="round">
<g id="4218707">
<path d="M 579.45 170.1 581.49 171.16 582.64 174.22 582.96 176.61 584.53 178.22 586.01 178.08 587.73 176.47 589.64 176.21 590.43 178.69 590.71 181.76 591.3 182.56 593.5 183.5 593.12 184.98 591.6 184.85 591.68 186.78 597.16 188.06 600.46 190.63 601.41 192.8 603.27 193.8 605.4 194 606.06 195.09 605.75 196.29 607.93 197.23 609.23 199.68 611.95 202.73 611.66 204.94 609.4 205.73 608.29 206.67 608.6 207.62 610.55 208.31 610.69 209.23 607.75 210.69 607.81 214.04 606.42 216.62 607.95 218.23 607.52 220.64 607.97 221.99 609.87 223.47 610.82 224.76 610.83 230.42 611.02 232.55 612.01 234.93 611.37 235.58 607.6 236.93 603.82 240.97 604.82 244.54 603.89 245.88 600.6 247.58 598.59 248.96 597.97 251.61 599.25 252.94 599.73 254.48 599.28 256.06 597.29 258.39 596.14 259.22 585.91 262.48 584.52 264.22 584.8 266.5 585.54 268.87 585.01 270.64 583.94 271.33 580.92 271.27 578.24 271.96 574.43 269.7 572.57 269.79 570.21 271.44 565.43 271.77 563.93 272.73 559.88 276.27 559.85 278.16 562.88 280.25 566 282.99 567.83 283.51 569.44 284.76 572.86 286.42 576.96 284.51 580.51 283.89 583.89 283.85 586.93 284.47 589.68 285.85 591.75 287.36 593.45 290.22 595.13 294.32 591.64 298.61 589.18 303.36 589.04 307.83 590.16 310.28 594.96 314.62 597.27 315.67 600.59 316.63 607.66 316.62 613.41 322.02 622.63 329.6 632.09 336.59 643.43 345.78 650.47 351.14 657.47 358.27 660.45 362.37 664.39 368.37 667.28 373.81 669.63 379.89 671.78 386.17 672.86 390.83 675.3 398.39 676.17 400.64 678.27 403.95 683.09 409.27 689.71 413.8 694.62 415.89 702.58 418.2 711.01 419.24 718.68 420.58 724.17 422.01 731.72 425.28 738.25 428.83 743.62 432.86 749.09 437.28 751.83 439.71 756.6 445.47 762.04 452.63 770.81 461.18 782.25 468.91 795.75 475.33 793.78 476.47 791.32 476.73 790.78 477.8 791.4 479.2 794.38 481.22 797.92 481.95 799 483.86 798.17 485.25 794.3 486.14 733.54 576.58 710.88 610.05 690.63 640.07 676.48 662 670.24 657.93 667.54 656.43 665.65 654.22 663.13 649.48 662.01 648.58 657.14 646.41 654.75 643.65 653.85 640.95 652.58 638.86 650.86 636.91 647.34 633.93 642.71 629.44 640.76 628.39 637.84 627.72 635.47 625.93 632.83 620.91 631.71 617.47 631.86 614.93 631.11 612.46 629.76 610.52 628.8 607.43 626.07 607.03 621.15 605.8 617.75 605.68 615.25 604.96 612.48 605.48 608.53 605.84 605.28 604.87 602.41 601.79 601.41 596.74 601.71 595.38 602.94 594.28 605.53 589.57 606.68 585.94 608.23 584.3 610.94 582.72 613.79 579.96 615.66 576.17 617.35 575.11 619.83 574.51 621.65 572.82 622.8 570.95 622.47 566.25 619.65 562.28 616.99 560.01 614.93 557.02 613.37 551.95 610.55 549.34 606.42 548.6 604.77 546.95 602.97 544.24 601.59 542.76 600.43 542.99 598.5 544.3 598.26 546.52 596.52 546.23 595.06 543.48 593.57 543.17 591.13 545.42 590.99 546.64 592.25 547.82 591.91 549.74 590.85 551.17 591.93 555.34 590.31 558.06 586.94 559.03 584.01 559.44 581.94 558.34 578.12 557.86 573.97 559.01 569.19 559.16 566.22 561.08 561.13 561.25 560.06 560.69 557.3 558.22 553.44 556.66 551.73 555.48 550.15 555.42 548.55 556.67 546.52 557.43 542.3 558.31 539.17 559.77 537.26 559.87 534.85 556.42 533.17 556.22 529.47 556.7 526.86 555.61 525.03 553.71 524.87 550.81 523.41 549.05 518.6 547.43 512.6 543.55 509.7 541.07 506.36 537.22 503.02 530.5 502.06 529.4 499.3 523.12 496.69 515.5 495.01 511.58 494.29 510.76 488.88 508.11 485.38 505.13 483.02 504.98 479.67 505.38 475.35 500.58 474.92 499.42 475.83 494.13 474.4 492.21 472.4 490.85 468.91 489.75 466.56 488.22 464 488.44 459.99 489.6 455.45 489.35 453.62 490.05 452.2 491.16 449.02 492.08 444.85 494.88 441.95 500.37 437.96 512.54 433.97 517.6 433.01 519.43 434.08 525.25 434.84 531.37 433.73 535.07 431.11 534.94 425.78 537.36 423.55 538.58 415.15 542.54 401.76 549.56 395.78 552.48 391.81 554.72 375.61 560.56 371.42 561.66 367.4 562 362.23 561.65 360.71 559.02 358.42 553.75 354.1 551.54 334.55 544.4 329.24 542.34 327.04 540.95 324.69 538.83 322.74 536.5 312.88 523.87 249.84 477.81 210.29 448.91 143.18 399.87 140.65 399.1 138.24 396.61 138.64 393.34 140.3 392.31 140.06 390.12 137.75 389.39 135.85 388.31 134.01 388.69 132.38 390.62 128.95 390.25 125.53 389.4 124.56 388.74 123.68 386.5 121.55 386.29 112.83 387.32 110.35 390.32 106.24 390.16 102.93 392.22 101.49 393.44 99.41 393.81 94.25 398.02 89.97 397.74 89.26 398.44 84.63 398.68 84.18 397.96 80.49 399.02 78.2 398.75 72.64 399.11 69.63 399.75 66.67 401.07 64.39 399.55 61.14 398.86 59.54 398.2 57.78 396.53 54.92 395.6 54.1 394.89 50.87 394.93 48.21 395.85 46.45 397.1 44.68 397.76 44.66 398.89 41.22 399.15 41.25 402.87 42.58 405.07 42.32 406.37 43.24 407.53 43.91 409.68 44.91 411.21 43.66 412.17 41.68 412.52 40.39 414.15 38.83 415.02 34.95 414.92 27.5 419.08 26.76 421.3 24.79 422.69 24.04 423.83 22.43 424.45 20.83 426.65 17.29 427.21 10.81 427.49 7.61 427.28 6.85 425.02 7.76 420.4 6.91 419.31 4.59 419.4 2.15 417.85 1 417.62 1.02 415.23 2.4 413.03 3.13 409.73 4.43 408.46 3.17 405.87 3.79 404.53 4.08 399.98 4.61 398.52 4.05 397.37 5.18 392.67 5.05 389.13 5.44 387.29 54.28 355.45 110.16 319.04 118.52 318.9 121.02 318.2 122.53 317.03 124.72 316.96 128.69 318.47 130.47 316.66 131.74 316.19 137.44 316.22 140.51 317.21 143.94 317.62 147.74 317.58 148.46 318.87 147.28 321.11 147.87 322.19 149.24 321.96 152.55 323.22 154.1 322.42 156.69 321.9 157.85 320.54 162.04 321.87 163.38 322.62 166.05 320.48 167.25 321.55 171.02 320.4 170.39 316.5 170.37 314.69 172.01 311 172.86 307.25 172.39 306.12 169.76 305.82 168.7 304.74 168.89 300.24 168.46 296.93 169.04 294.35 170.42 292.07 171.53 288.99 173.25 286.99 174.74 283.59 175.21 278.78 174.75 277.49 172.84 276.28 169.81 272.78 167.62 268.72 167.13 265.88 164.72 262.21 166.83 259.57 166.34 258.28 168.36 256.48 169.87 255.71 171.6 252.76 171.08 248.94 171.87 246.56 173.09 246.52 174.75 248.14 178.61 248.27 183.08 246.77 186.76 243.58 189.04 242.9 190.08 240.19 194.39 239.72 195.47 238.27 194.33 236.01 195.03 235.08 198.66 234.32 200.01 231.98 199.58 229.05 198.57 225.81 196.69 224.1 195.68 222.31 194.43 221.49 194.05 219.62 191.36 213.5 191.25 208.78 188.81 205.86 186.06 204.54 184.79 202.91 184.49 200.91 184.78 198.66 186.12 195.01 184.08 193.97 179.84 190.78 176.91 188.22 171.1 180.61 167.96 175.74 167.45 174.26 168.46 170.2 168.12 166.91 167.29 165.04 163.83 162.54 159.4 161.09 155.99 160.9 150.15 160.98 147.38 160.64 141.1 159.05 139.62 157.9 138.26 156.1 134.91 152.52 133.23 151.38 128.47 149.09 127.23 146.91 127.08 144.37 126.24 141.33 127.25 139.05 127.38 137.17 125.84 136.66 127.19 132.91 131.71 130.5 134.94 127.41 138.9 125.69 142.56 122.98 144.75 120.33 148.64 113.66 150.26 109.14 152.56 100.64 153.86 98.11 230.23 1 233.27 2.84 235.59 3.61 238.13 6.15 242.62 7.67 245.23 7.93 247.39 10.01 248.56 11.96 248.78 14.11 256.35 13.39 257.32 16.04 258.55 20.8 263.29 27.73 265.52 30.23 269.38 30.51 271.09 30.95 272.28 32.63 273.28 34.92 274.61 36.58 276.87 37.38 278.34 38.37 279.05 40.33 280.99 41.82 283.9 42.05 285.3 42.58 285.49 43.54 287.6 47.61 287.27 50.46 286.63 51.29 285.92 53.91 284.74 56.32 285.29 62.31 287.71 67.62 290.01 70.16 292.24 71.58 292.56 73.64 296.15 75.09 298.17 76.51 298.62 78.07 304.14 81.63 304.22 83.65 305.05 84.36 308.22 85.26 313 89.71 313.86 91.3 315 91.93 315.8 96.22 318.35 97.99 320.29 97.35 320.92 94.83 321.99 93.94 322.9 91.29 324.83 89.06 326.11 86.82 328.06 85.8 329.65 83.94 333.52 82.36 334.85 82.22 338.62 82.81 340.98 84.86 342.15 85.35 344.72 85.22 348.41 85.85 349.64 87.31 350.92 91.09 352.88 92.75 352.6 94.63 351.67 97.02 351.88 98.99 352.83 99.64 355.65 99.94 358.25 100.93 359.6 103.41 360.15 107.77 361.18 110.08 363.44 112.9 364.37 111.79 367 111.77 371.39 117.79 390.82 118.76 395.58 114.26 396.39 112.07 399 110.17 400.45 107.08 401.39 106.26 404.25 107.63 406.81 109.96 408.3 108.99 410.41 108.73 413.43 109.66 417.56 110.54 420.55 112.49 422.83 112.74 425.69 110.33 430.32 109.71 433.12 106.4 435.94 106.63 437.51 105.49 441.4 105.4 444.69 103.94 445.46 103.1 447.35 99.69 452.59 102.46 453.57 103.49 452.97 106.71 451.9 108.08 451.24 111.47 453.78 114.54 454.19 116.86 453.22 120.2 455.55 120.85 457.06 120.14 458.78 120.56 459.41 123.84 457.86 127.7 457.62 133.4 458 134.53 459.86 137.24 462.86 140.3 489.09 155.6 579.45 170.1 Z"/>
</g>
</svg>