<?xml version="1.0"?>
<svg xmlns="http://www.w3.org/2000/svg" version="1.2" baseProfile="tiny" width="800" height="432" viewBox="0 0 800 432" stroke-linecap="round" stroke-linejoin="round">
<g id="4218806">
<path d="M 457.71 154.05 457 154.47 454.93 154.15 452.38 155.13 451.54 155.98 448.86 157.59 449.63 158.78 451.16 158.6 452.95 157.25 453.97 156.96 455.74 158.28 458.55 158.39 460.1 158.82 458.76 159.76 457.59 161.51 458.2 163.28 456.69 164.13 454.75 163.49 455.16 164.93 457.74 165.37 458.99 164.74 459.31 163.2 460.47 163.01 460.29 164.43 460.75 167.11 459.79 168.19 461.21 169.34 463 169.44 464.07 170.32 462.96 171.37 463.23 172.65 464.33 172.52 465.31 171.47 466.76 172.18 468.35 171.3 471.11 171.42 473.03 171.07 474.44 169.57 475.36 169.89 475.28 171.03 476.16 174.12 479.66 176.04 482.69 178.37 484.65 178.66 484.19 180.14 482.87 180.24 481.51 181.22 480.76 182.3 482.9 183.7 483.11 184.75 486.62 184.68 487.6 185.62 488.77 184.12 490.38 183.98 491.05 186.13 493.44 186.01 494.48 186.85 494.92 189.49 493.21 190.42 493.3 191.91 495.78 193.37 498.44 194.44 499.14 195.79 499.15 197.43 500.81 197.61 501.95 196.72 503.64 196.27 505.39 191.93 509.13 193.76 510.16 195.87 509.82 196.9 508.1 197.63 507.4 198.46 507.74 199.36 511.31 201.13 512.09 201.12 515.23 199.8 520.47 199.01 522.01 198.53 525.21 196.81 527.81 196.48 528.72 197.18 527.34 199.14 525.61 200.28 527.06 201.36 529.29 201.97 532.07 203.13 535.86 201.73 537.12 203.53 539.51 202.21 541.88 199.27 542.91 199.44 543.8 202.81 543.07 203.53 540.4 204.86 540.63 205.84 542.11 207.49 542.89 209.29 542.73 213.97 541.97 214.98 540.27 215.84 540.42 217.88 546.25 223.34 547.09 224.76 546.48 228.92 547.65 230.21 549.53 229.61 550.9 230.07 556.66 231.31 560.31 229.82 564.92 231.35 570.77 231.82 574.13 232.7 578.18 233.43 578.75 232.97 578.36 230.73 579.47 230.3 581.84 231.25 582.4 234.18 580.45 235.46 580.48 236.34 581.6 238.53 583.07 239.24 583.96 239.11 585.27 237.98 588.41 235.82 589.49 235.93 590.69 237.03 593.5 240.69 594.88 243.5 594.9 244.61 596.37 245.75 598.85 245.58 601.54 246.62 605.48 244.23 609.41 242.77 611.77 242.73 612.75 245.74 612.67 248.14 616.56 248.58 617.76 249.21 619.35 246.86 617.97 245.22 618.22 244.07 617.48 240.17 616.05 238.13 616.67 236.57 620.53 234.63 622.48 234.36 622.86 235.46 624.58 236.94 624.61 238.37 622.17 240.44 622.45 242.43 624.25 244.57 625.85 247.71 627.1 249.28 628.25 249.27 634.5 246.43 635.37 245.28 634.35 242.79 632.98 240.8 632.85 239.32 634.07 237.65 635.25 237.54 636.15 239.85 636.81 240.33 639.64 240.92 641.45 240.84 645.17 240.18 647.81 240.7 651.08 241.82 653.69 243.66 657.38 243.13 660.09 243 662.17 242.3 663.75 243.77 667.85 243.62 672.93 243.15 673.63 243.76 674.93 246.2 676 246.56 677.71 245.43 677.93 242.31 679.46 243.39 683.12 244.51 682.14 246.58 685.36 246.27 686.3 244.72 687.83 246.2 686.3 249.43 686.78 249.76 691.52 248.93 692.37 249.92 690.33 251.32 687.12 252.87 687.5 253.6 689.05 254.5 691.61 255.3 694.17 254.8 694.72 252.97 695.13 249.28 696.24 248.72 697.6 249.12 701.02 251.55 702.19 252.15 702.93 251.74 703.85 249.41 707.67 247.6 709.75 245.57 710.51 243.39 712.27 243.91 713.43 242.8 713.98 241.44 715.04 241.53 717 243.37 718.27 243.48 719.7 244.3 721.58 243.7 722.22 242.21 723 242.15 726.92 245.09 727.7 245.44 729.48 244.78 730.93 244.77 731.79 244.21 733.49 241.48 735.49 240.06 737.76 239.77 736.29 238.22 737.9 236.62 737.56 235.18 741.92 235.02 745 235.27 747.12 234.43 747.9 233.19 746.56 232.58 746.1 231.62 747.29 231.15 748.37 232.14 749.58 231.94 750.59 230.77 753.14 231.24 754.93 231.99 756.17 231.18 759.77 232.95 760.19 234.58 764.27 234.87 764.8 235.45 763.88 237.74 764.36 238.31 767.06 237.85 768.02 238.57 769.81 238.3 771.54 240.12 770.77 242.73 772.86 243.29 774.27 245.31 774.07 245.99 772.04 246.22 773.83 247.44 775.46 246.86 778.1 244.82 779.7 244.1 780.58 244.96 780.54 247.57 781.94 248.06 783.27 247.35 783 249.25 784.69 248.31 785.84 249.4 783.59 251.62 782.8 253.42 784 254.36 785.49 254.57 783.81 256.53 785 257.35 786.56 257.38 786.75 259.12 788.74 259.11 789.99 261.25 787.65 263.35 786.31 265.83 786.68 266.54 789.5 267.7 787.82 268.56 786.27 269.85 786.34 271.26 787.54 272.13 790.62 272.86 791.09 272.15 790.56 270.98 791.16 270.25 795.1 270.35 799 271.36 796.36 273.58 794.13 275.08 790.33 278 786.18 280.85 775.04 288.09 770.77 291.5 769.04 292.49 766.12 293.2 761.05 293.15 756.11 292.47 743.21 292.02 740.63 291.65 736.85 290.8 728.07 288.41 721.77 285.91 718.19 285.65 716.17 285.95 710.93 287.37 707.11 289.12 704.27 291.63 702.78 294.84 701.98 299.15 701.13 301.89 701.84 304.13 702.65 304.55 705.06 304.36 709.54 302.47 715.2 299 717.58 298.79 719.25 299.39 721.98 301.85 721.85 303.9 720.07 307.12 718.3 309.06 717.02 310.9 711 315.63 706.38 318.31 704.81 318.77 702.88 318.44 701.76 316.81 701.2 314.01 700.15 310.48 697.92 305.19 697.03 303.39 696.05 302.81 694.29 302.77 690.87 303.14 688.18 303.94 686.66 304.68 685.89 306.68 685.94 308.62 684.93 316.74 684.74 319.5 683.55 321.67 682.67 321.9 680.24 321.57 676.64 319.94 674.2 318.11 671.01 314.74 669.01 314.46 662.27 321.7 659.72 322.61 656.14 323.07 646.74 324 644.72 324.32 638.06 326.59 634.15 327.36 633.59 327.78 632.17 331.73 632.09 333.64 632.56 334.61 634.41 336.62 635.03 337.73 635.28 339.73 633.61 342.98 632.17 347.01 631.51 348.14 627.51 352.77 627.64 354.18 626.74 355.03 623.54 354 622.67 355.57 620.82 356.08 619.44 355.37 617.55 355.65 616.58 353.32 616.07 350.63 614.44 350.03 610.69 350.48 608.11 351.16 605.48 353.96 603.13 355.53 598.95 355.62 597.07 355.38 595.82 354.65 594.14 354.64 591.36 358.18 592.27 359.91 592.74 362.61 592.26 363.69 590.92 363.47 587.53 363.7 585.06 362.13 583.91 361.88 582.64 362.79 580.85 362.28 578.84 361.21 578.61 360.42 576.05 358.14 574.27 357.52 572.14 355.83 570.2 356.16 567.96 353.94 564.97 353.37 562.29 353.21 560.43 352.4 558.99 349.94 556.98 349.1 555.84 347.19 555.75 344.78 526.08 370.55 544.99 387.61 548.08 392.87 549.65 398.01 551.29 404.34 549.04 404.72 540.09 406.84 538.35 407.51 532.02 408.47 530.3 408.04 528.68 406.39 527.69 404.58 526.09 403.49 523.35 403.49 522.67 404 521.9 406.78 521.25 410.96 520.27 415.14 518.88 419.44 516.57 421.36 515.68 423.05 515.58 424.48 516.45 425.84 516.52 427.67 513.88 429.93 511.52 430.61 508.36 431 506.39 430.82 504.65 429.88 502.3 427.95 500.61 426.08 496.16 423.29 491.48 422.24 489.33 422.99 483.87 424 480.67 424.89 477.38 424.84 475.06 423.94 472.31 422.16 470.13 420.24 468.84 419.59 463.84 418.03 460.63 416.85 459.01 415.4 457.37 412.16 455.39 409.35 453.49 407.66 452.99 406.04 450.62 404.56 446.33 402.52 444.77 401.98 442.11 400.21 438.75 399.79 434.48 398.59 433.47 398 430.91 398.03 426.17 394.69 424.75 393.35 417.86 390.81 413.84 388 411.89 387.94 410.56 388.37 407.95 388.5 405.76 389.08 404.24 390.31 402.73 393.28 399.46 395.94 398.22 397.6 397.15 398.39 394.83 398.85 392.86 398.61 389.55 396.41 387.93 394.84 386.96 393.12 386.7 389.77 385.87 388.3 383.41 387.47 382.16 387.63 380.11 388.81 376.69 389.85 370.37 390.33 367.44 390.92 365.2 392.04 360.56 391.98 359.27 391.55 358.92 390.52 359.63 387.64 359.35 385.56 358.49 382.71 357.62 381.08 355.88 379.61 353.9 379.3 351.42 379.63 346.43 379.54 341.19 380.27 338.5 381.38 335.99 381.04 333.54 376.67 331.81 374.58 330.01 374.23 327.17 374.55 325.8 375.06 324.02 378.19 323.4 379.74 322.5 380.05 320.54 379.5 318.93 377.96 316.32 376.07 312.1 376.18 310.01 376.01 308.48 376.46 305.85 376.08 303.81 374.66 304.89 373.36 307.9 373.7 312.73 372.8 313.41 371.64 312.38 369.07 311.27 368.14 306.51 366.63 304.83 366.5 302.5 367.3 296.36 367.17 294.06 366.38 293.65 365.52 293.93 361.93 293.65 360.4 292.39 357.69 291.02 356.24 291.68 355.28 291.23 354.2 289.2 353.1 284.79 353.12 282.84 353.55 281.38 352.47 280.67 350.56 279.71 349.13 276.86 347.64 270.68 346.5 267 347.02 265.52 346.74 265.22 345.28 263.14 344.88 259.47 346.34 257.96 346.45 255.62 345.98 254.36 344.25 252.72 343.45 250.29 344.16 246.68 343.08 243.22 341.26 238.31 337.95 238.08 336.19 241.69 333.86 245.92 332.13 245.53 330.75 242.49 328.76 240.68 326.84 234.64 324.9 231.51 322.85 232.25 321.38 233.59 320.56 233.91 319.44 232.8 317.76 233.12 316.35 235.16 315.3 236.8 313.35 236.25 312.35 234.18 311.67 235.08 310.97 235.65 309.41 234.29 309.05 237.28 306.41 238.49 305.73 238.21 304.09 237.61 303.29 239.27 301.9 238.54 300.89 238.35 296.6 237.38 294.08 237.93 292.77 239.51 292.39 241.04 291.44 244.25 291.71 245.31 291.09 251.57 291.49 253.41 290.5 253.94 288.74 255.53 286.8 254.87 285.19 252.95 284.29 252.67 283.05 249.92 280.63 249.87 277.79 251.14 276.31 250.96 274.14 252 274.38 252.97 273.19 253.79 270.92 251.86 270.01 250.56 270.77 249.36 269.27 248.65 266.67 247.59 265.21 246.59 264.72 244.17 264.59 243.52 265.53 241.74 264.75 239 264.29 238.47 263.51 236.06 264.77 234.96 263.28 229.97 260.05 225.61 261.57 224.3 262.6 223.35 261.24 225.23 258.52 224.32 257.76 222.98 255.87 223.48 254.61 221.36 254.54 220.77 255.35 219.41 254.08 219.01 252.33 218.34 251.66 214.41 250.04 214.66 247.42 215.23 244.54 212.55 243.61 212.46 242.51 206.64 240.17 204.62 239.49 201.46 240.5 200.26 241.37 198.67 239.59 196.95 240.66 193.06 241.01 191.3 241.45 190.02 239.38 188.35 239.69 188.56 238.4 187.4 238.05 185.86 238.38 184.26 238.01 182.84 234.43 181.65 232.79 179.84 232.06 176.14 232.94 175.16 232.83 173.72 233.48 170.96 232.78 170.59 231.88 171.48 230.82 170.51 229.84 169.32 227.57 166.9 225.77 164.96 226.54 164.38 228.62 161.94 226.71 160.79 226.63 160.2 224.94 159.01 224.87 158.01 223.73 157.76 222.14 156.06 221.46 153.23 221.43 151.71 220.78 145.13 218.84 142.65 217.83 142.25 217.2 142.09 214.38 142.3 209.75 144.06 205.11 145.42 203.56 143.62 201.54 139.93 199.41 137.47 199.11 135.87 198.03 134.47 197.67 133.72 198.29 131.92 198.49 130.69 197.48 129.18 197.16 126.49 197.54 124.54 198.82 122.52 199.02 120.65 200.94 120.26 201.88 117.25 202.59 114.51 204.68 114.49 207.1 112.03 207.61 110.76 207.37 107.69 208.24 106.72 207.28 103.78 206.78 102.12 206.79 98.57 208.12 97.35 210.19 95.85 210.57 94.48 209.95 91.97 207.35 89.75 207.94 88.66 207.34 86.95 204.68 85.73 203.91 85.05 202.2 83.68 201.69 82.89 200.46 83.3 198.7 81.39 198.42 80.16 197.24 76.06 195.62 76.05 194.37 74.54 193.94 73.67 192.8 74.17 192.13 73.35 190.49 70.86 189.59 69.04 187.53 68.2 187.29 66.09 187.57 64.51 186.25 62.99 185.75 62.26 186.52 58.43 187.2 54.53 185.23 52.2 185.27 49.88 184.85 47.74 186 44.96 187.85 43.84 188.92 40.7 189.08 39.37 188.65 38.68 187.18 36.53 187.33 33.92 186.69 32.01 185.26 30.55 184.71 26.85 183.84 22.82 182.2 15.76 181.24 9.61 182.45 5.88 182.72 1 182.29 104.78 146.31 181.35 119.77 229.26 94.84 284.33 66.18 285.19 62.81 286.01 61.52 289.86 57.53 294.59 52.42 294.67 51.52 293.78 50.07 292.63 49.49 291.83 48.24 291.74 42.6 291.42 32.85 294.63 29.64 299.3 24.76 323.89 1 325.58 1.78 328.36 2.03 330.14 2.78 332.01 4.76 336.06 7.11 336.64 9.42 337.59 10.36 338.62 9.45 340.18 7.26 341.11 7.09 343.75 8.46 344.9 8.13 346.71 8.45 377.54 64.42 395.05 96.21 397.96 96.62 400.86 99.22 404.18 99.73 406.07 99.47 407.16 98.78 408.33 97.34 409.89 97.26 412.05 98.29 412.63 98.95 411.83 100.7 413.41 104.37 414.83 105.47 418.15 104.9 418.85 105.63 420.06 109.13 418.74 109.38 415.35 108.78 413.82 109.67 413.66 110.74 416.12 112.62 419.34 116.06 421.54 116.67 425.5 118.37 429.75 119.6 431.37 118.42 432.82 118.86 432.57 120.49 434.72 123.95 437.48 126.06 439.32 128.45 437.98 129.3 436.32 128.39 435.6 128.78 436.2 132.19 436.54 132.86 440.19 135.08 442.22 135.25 441.62 136.98 442.23 138.71 444.84 139.21 445.08 141.03 447.32 142.67 450.39 142.06 452.73 142.69 451.27 143.59 451.28 144.83 452.24 146.1 452.3 148.4 453.22 150.16 455.71 152.39 456.96 152.93 457.71 154.05 Z"/>
</g>
</svg>