<?xml version="1.0"?>
<svg xmlns="http://www.w3.org/2000/svg" version="1.2" baseProfile="tiny" width="800" height="785" viewBox="0 0 800 785" stroke-linecap="round" stroke-linejoin="round">
<g id="4218608">
<path d="M 645.07 24.25 640.56 27.7 639.52 31.07 640.5 35.55 636.1 42.32 636.2 52.85 635.63 56.66 637.37 65.39 633.49 75.61 633.79 81.32 635 85.46 639.88 90.81 649.93 93.91 656.63 96.55 663.55 101.25 667.64 106.79 674.43 110.97 679.2 116.82 686.48 117.27 692.03 119.6 701.23 122.04 707.62 122.83 712.7 125.77 717.9 127.02 722.63 125.92 730.68 126.56 735.18 125.49 741.44 126.27 751.84 124.9 760.18 127.65 763.04 129.32 767.63 130.26 770 132.57 770.14 137.26 772.81 144.32 777.12 145.88 776.71 151.25 775.24 154.87 775.56 162 777 164.82 783.67 170.55 783.12 171.88 792.95 182.28 792.57 185.27 794.39 187.56 798.43 187.3 799 190.94 794.2 198.93 795.86 204.72 794.16 208.14 788.67 209.26 784.79 208.57 782 205.17 780.19 200.67 778.67 193.8 776.55 189.79 772.36 189.76 770.66 194.48 767.39 200.01 751.8 206.31 746.74 209.65 746.59 213.66 750.7 217.67 754.54 223.3 754.24 228 751.35 231.89 745.67 235.63 740.88 235.95 739.1 238.34 739.71 241.73 741.86 242.93 749.61 241.54 753.45 242.67 753.89 245.49 759.29 251.79 764.81 254.24 767.37 257.3 767.23 260.15 765.1 267.58 761.75 272.29 762.34 276.31 754.65 281.68 753.49 285.51 745.03 290.13 745.33 293.97 749.78 293.93 751.46 304.07 754.41 311.59 756.43 324.18 756.69 329.32 757.81 331.81 756.74 334.39 758.01 337.86 760.34 340.13 762.87 348.36 760.36 353.59 759.18 362.5 759.56 367.75 762.61 371.03 762.66 376.3 763.7 381.39 763.2 386.44 760.39 397.03 757.93 402.97 756.1 404.47 754.52 408.92 753.25 419.43 754.74 423.3 753.29 428.57 751.06 433.04 750.97 440.36 748.87 444.29 744.68 447.04 741.91 458.44 742.25 463.09 741.08 466.46 743.97 471.83 740.1 474.48 740.54 482.75 738.46 485.68 730.64 485.98 725.67 488.81 725.99 492.74 720.4 498.48 717.21 503.32 714.27 505.08 713.1 508.35 710.12 511.5 705.54 513.31 702.25 517.76 699.62 522.93 697.52 525.24 694.65 531.93 693.21 533.39 693.35 539.08 690.9 540.31 689.88 544.49 690.74 547.16 687.01 548.61 687.64 553.43 687.11 557.92 684.94 563.98 690.43 566.71 690.13 571.4 694.09 572.8 699.72 578.73 702.43 577.67 706.37 578.36 712.59 576.94 716.45 578.67 723.99 579.12 726.89 582.16 728.02 587.35 731.73 597.57 731.62 601.04 728.95 605.42 725.85 608.15 722.87 615.32 721.52 629.1 721.37 635.71 718.94 641.97 716.25 645.74 716.48 649.73 720.25 655.96 723.85 666.22 726.7 672.48 730.49 678.62 734.58 682.2 734.99 685.89 733.23 691.28 732.95 695.7 734.37 699.51 740.2 703.93 739.88 706.15 734.12 713.91 728.12 732.67 723.86 738.65 721.12 744.46 719.37 754.23 715.23 762.57 711.55 766.09 707.94 765.13 697.98 760.15 694.94 759.66 683.21 759.73 679.12 757.95 677.41 754.59 673.63 749.85 663.21 746.1 649.4 744.08 642.39 740.58 640.73 734.96 633.41 724.7 629.71 722.47 625.74 721.4 624.6 719.57 624.63 709.54 628.63 704.27 627.4 699.41 623.23 697.65 619.42 698.82 614.25 701.86 612.51 701.42 609.37 697.06 606.72 695.57 598.48 694.57 588.83 689.76 585.6 689.53 580.07 691.05 571.27 691.33 558.6 688.12 554.12 682.17 551.64 681.39 541.79 683.13 534.81 682.26 527.3 678.27 519.45 670.82 512.14 665.37 507.22 662.51 501.37 662.25 487.68 664.11 483.96 662.14 481.6 656.27 472.04 644.52 467.9 642.81 460.06 644.82 364.88 659.59 367.03 652.67 364.77 643.83 361.6 642.22 356.4 636.83 350.53 633.58 338.81 630.46 333.38 629.64 326.04 627.63 322.52 623.11 321.32 618.65 317 606.81 313.32 602.73 302.86 599.56 299.58 600.23 295.01 605.25 289.35 609.36 285.69 610.21 280.91 609.21 274.47 609.46 265.55 608.08 259.9 609.41 256.12 611.54 251.87 616.14 249.15 627.89 244.93 635.77 236.97 645.32 227.47 653.5 221.33 653.7 216.75 651.92 212.12 651.4 207.53 654.23 204.74 661.95 203.19 664.04 203.16 669.39 206.18 674.01 205.76 676.45 200.92 682.02 191.26 683.06 188.03 684.93 182.1 691.73 178.17 695.4 173.89 703.15 173.29 706.54 174.81 709.69 176.99 717.54 175.59 723.46 169.2 729 162 732.71 157.91 738.54 158.67 748.54 157.63 752.11 152.32 759.88 143.29 767.36 141.47 772.5 137.45 775.19 133.42 783.07 126.25 784 122.92 777.88 122.31 775.05 124 770.49 120.44 766.36 118.83 762.75 115.16 759.77 111.04 754.85 105.11 754.16 103.22 752.58 103.97 749.91 109.39 743.81 112.61 730.98 111.16 725.72 112.14 716.97 111.16 709.72 107.58 701.08 108.5 695.18 107.96 689.7 101.81 684.9 100.08 684.53 89.92 685.49 84.52 683.94 82.9 682.32 81.66 676.84 83.32 670.39 83 666.32 79.95 661.17 79.81 658.69 83.6 645.31 79.35 637.58 79.63 628.1 82.01 624.48 80.52 618.43 82.55 611.77 83.86 609.76 90.95 605.72 92.32 600.79 95.95 594.77 102.69 592.93 111.36 591.74 112.69 589.39 109.39 584.25 110.03 582.92 120.74 579.2 128.64 574.77 132.73 568.56 133.78 564.21 136.59 559.43 140.54 559.68 143.75 558.45 149.76 546.69 153.23 538.06 157.51 534.92 162.6 533.74 168.32 528.23 179.66 519.9 183.43 516.51 186.57 509.93 188.85 507.95 196.61 503.87 202.14 500.06 213.03 488.99 218.96 479.38 222.43 474.87 171.9 439.84 168.24 443.23 163.38 443.46 157.58 442.14 152.97 442.37 143.61 439.59 138.64 435.14 130.05 430.85 127.35 427.57 126.73 422.39 129.95 416.94 130.47 407.16 129.28 401.91 124.85 396.12 122.84 383.62 119.84 380.35 114.49 380.79 107.61 382.63 93.62 381.1 91.4 379.97 85.76 372.08 82.55 370.19 78.24 371.34 74.1 374.48 65.81 377.01 61.45 376.02 59.88 373.61 53.16 367.8 48.93 365.35 41.85 364.22 34.61 363.81 29.3 360.67 28.4 356.97 26.5 354.96 18.9 353.6 13.66 349.13 11.59 348.67 1 350.17 9.99 347.53 13.84 340.66 15.82 330.08 17.47 327.84 23.17 326.26 27.17 324.08 31.1 320.44 39.12 316.1 43.85 314.11 47.3 311.46 50.43 304.58 55.23 302.86 59.88 296.5 62.05 294.96 74.07 290.61 79.22 288.31 87.78 287.94 94.13 283.6 96.85 280.29 99.85 271.21 109.6 265.28 114.79 260 121.21 252.31 127.51 250.27 133.13 246.12 138.22 245.52 140.94 242.72 142.18 236.77 146.52 231.38 150.87 223.5 156.71 219.2 159.85 212.17 163.03 208.82 168.5 206.28 172.03 203.56 173.27 199.6 170.47 192.96 173.41 186.31 172.15 183.26 173.59 181.73 181.53 184.23 189.85 184.07 197.94 183.15 202.56 182.04 207.51 178.34 210.98 176.85 225.03 175.45 230.17 173.7 233.75 171.35 237.88 164.03 239.6 155.44 241.44 150.67 245.54 147.55 249.72 146.39 266.24 149.39 277.7 150.8 281.26 149.13 285.54 142.56 289.6 139.08 292.9 133.98 293.5 126.12 295.69 119.9 300.39 115.57 306.53 113.44 313.45 113.17 317.68 112.09 323.52 108.65 330.59 103.4 335.56 97.48 338.71 94.92 344.14 96.47 352.9 103.02 356.39 104.69 364.68 107.14 371.17 106.59 373.78 104.52 377.04 106.37 380.88 106.54 383.65 105.38 392.41 98.42 396.71 97.9 403 103.01 411.47 112.06 416.66 114.83 426.39 111.67 436.26 111.05 439.64 110.33 443.88 107.76 447.56 99.95 462.1 89.28 463.93 83.91 464.87 73.16 465.78 68.96 468.11 64.72 475.86 56.94 479.12 51.76 480.92 41.21 482.6 36.5 486.68 30.48 497.1 23.89 500.35 20.93 500.77 14.96 499.63 4.88 501.13 1.67 555.21 32.87 560.5 34.97 562.77 31.56 566.53 28.91 575.61 18.88 582.98 7.71 585.88 5.13 595.07 1 598.8 2.73 600.13 6.67 602.19 8.28 607.87 9.82 613.52 12.65 616.74 15.87 620.28 15.91 625.05 12.76 625.48 10.52 630.75 10.77 637.57 17.22 642.24 19.26 645.07 24.25 Z"/>
</g>
</svg>