<?xml version="1.0"?>
<svg xmlns="http://www.w3.org/2000/svg" version="1.2" baseProfile="tiny" width="800" height="519" viewBox="0 0 800 519" stroke-linecap="round" stroke-linejoin="round">
<g id="4218954">
<path d="M 799 311.33 796.43 311.97 793.92 312.05 791.26 311.26 787.65 311.26 782.76 314.12 779.27 315.18 777.99 315.28 776.43 313.31 774.17 311.83 772.22 311.14 768.88 309.19 766.58 308.14 762.35 308.32 760.9 308.78 759.05 308.1 757.13 306.1 754.67 304.75 752.27 302.89 752.01 302.16 752.62 300.07 752.38 299.18 751.01 298.63 748.82 298.37 746.39 296.28 744.24 296.14 741.55 294.66 738.09 293.79 734.21 292.12 732.45 291.58 730.89 292.86 729.64 294.85 729.29 296.18 727.53 298 726.04 301.69 724.91 302.18 723.76 304.07 720.39 305.16 718.96 306.87 717.53 307.94 716.63 310.65 716.28 312.83 716.56 314.08 715.49 314.86 713.75 313.74 712.36 313.61 711.58 314.27 712.13 316.06 711.29 316.31 709.06 315.78 707.62 316.83 706.53 316.8 704.8 315.6 703.67 315.98 701.81 317.43 699.17 316.78 697.69 317.15 696.03 319.45 693.92 320.97 694.81 322.79 694.56 324.07 691.95 324.96 690.55 325.11 690.7 326.96 690.05 327.62 691.34 329.27 690.72 330.83 687.94 332.09 686.65 334.22 684.21 335.39 684.78 338.59 683.87 339.08 683.01 340.94 684.27 344.51 682.42 347.63 682.41 349.03 681.78 350.49 680.44 350.97 676.48 350.32 675.13 349.59 672.96 349.07 669.89 349.2 666.91 350.13 667.17 354.56 666.42 355.96 664.96 357.31 659.69 358.5 656.73 358.37 652.54 359.09 650.24 360.31 648.37 362.18 646.16 363.18 644.14 364.94 641.61 366.29 640.38 368.23 637.49 370.3 636.5 369.88 633.39 370.39 630.27 370.23 627.62 372.95 626.88 374.14 626.77 376.27 626.18 377.36 624.76 377.7 621.81 379.37 620.62 380.6 621.58 383.2 622.77 385.17 621.74 387.2 619.81 388.66 622.42 392.68 622.69 394.05 621.64 395.47 620.86 395.49 617 397.35 611.26 399.59 610.02 401.49 609.8 402.99 608.96 404.39 607.6 405.53 607.38 407.09 606.62 408.26 605.6 411.52 605.7 413.4 603.95 414.93 603.37 416.01 601.08 418.74 601.86 420.11 602.45 422.24 601.62 423.11 601.09 424.73 600.22 425.49 596.21 426.36 594.84 426.95 594.5 428.22 595.78 429.04 597.99 429.58 598.88 430.34 598.67 432.02 596.83 433.21 595.88 433.33 592.35 435.64 588.99 435.4 587.67 435.7 587.42 439.44 585.54 440.84 584.7 440.53 582.56 441.03 581.58 441.69 580.12 444.45 578.08 446.1 574.62 448.41 571.63 452.55 570.01 452.33 568.71 450.67 567.4 449.89 564.34 449.42 562.02 448.33 560.97 447.34 559.63 446.96 556.4 448.63 555.15 450.02 557.76 451.6 560.23 452.27 560.17 453.18 558.2 454.16 555.21 454.92 553.8 456.07 553.71 457.27 552.77 460.01 551.21 463.02 551.67 465.36 551.12 467.4 551.49 469.56 547.08 478.58 546.14 480.9 545.09 481.56 544.24 480.85 542.99 481.14 540.32 479.94 538.7 479.7 537.23 480.26 534.77 480.03 534.38 482.64 532.36 485.7 532.1 487.95 530.49 492.51 528.75 493.13 527.14 489.98 525.66 488.76 520.66 488.61 518.72 489.13 516.85 490.41 514.94 492.87 513.17 493.55 508.81 492.84 506.61 492.11 504.23 492.64 502.19 492.59 498.02 491.88 494.86 491.71 492.4 491.04 492.1 489.91 490.66 488.87 489.77 486.79 488.74 482.76 486.7 480.28 485.41 479.49 479.29 477.87 477.54 478.21 475.05 480.26 473.03 482.34 471.83 484.14 469.39 486.53 467.47 486.76 465.57 487.86 464.44 488.01 461.33 489.85 457.1 493.09 455.71 494.92 455.49 497.51 455.98 498.95 458.72 502.18 461.69 504.01 464.56 507.07 466.28 509.72 466.76 512.59 467.54 514.93 466.88 517.11 464.87 518 457.23 517.44 454.42 516.99 451.57 515.9 447.43 513.96 445.36 512.73 442.87 510.69 442.1 507.9 444.31 501.45 443.99 500.07 442.43 497.94 441.18 496.81 440.58 495.23 440.23 492.51 439.05 490.77 438.98 488.77 438.4 486.52 438.39 483.87 437.76 481.27 436.01 479.02 433.85 478.32 432.25 478.31 429.87 476.7 428.12 476.38 426.51 476.75 420.15 477.24 417.94 476.62 416.4 475.43 413.84 471.55 412.66 470.29 411.04 469.28 408.6 468.47 403.97 467.83 402.02 467.96 400.05 468.71 397.2 471.43 392.78 473.95 389.39 476.4 386.24 480.71 385.7 483.16 386.63 485.47 389.4 489.43 391.14 491.48 392 493.32 391.16 495.38 388.69 496.57 383.72 495.74 380.61 494.54 375.19 494.24 374.2 494.92 374.53 496.27 377.95 498.83 380.74 500.34 382.26 500.69 386.11 502.7 387.81 504.2 388.99 505.8 389.31 507.07 388.77 509.39 388.31 513.05 387.48 514.01 385.14 515.5 383.36 516.11 380.44 516.42 377.24 515.51 375.72 514.04 373.6 513.07 372.21 513.02 367.95 511.95 362.39 510.84 360.29 509.08 356.33 506.56 352.76 503.76 351.73 501.55 351.99 500.05 351.73 496.77 352.79 494.9 352.78 492.84 351.49 487.31 350.41 486.06 347.04 484.3 345.54 483.86 342.76 483.69 338.53 482.97 335.45 481.41 334.28 479.53 332.74 478.01 330.34 477.38 328.15 479.08 327.14 481.83 325.68 487.22 323.96 490.13 323.59 491.28 321.54 494.19 319.72 494.34 316.63 493.53 314.35 492.45 310.68 489.56 307.03 485.49 305.43 484.57 303.07 483.78 299.54 483.62 296.12 482.48 293.91 482.42 292.1 483.5 291.96 485.78 290.92 489.05 290.8 492.34 291.71 496.42 292.72 498.11 295.04 503.26 295.41 505.12 295.5 508.44 294.88 512.13 294.03 514.09 291.92 515.48 289.84 515.61 285.84 514.4 282.79 512.33 279.69 510.79 276.64 508.66 273.09 504.83 271.77 502.41 269.21 499.26 267.65 496.15 266.29 495 264.94 492.49 264.33 490.58 261.36 483.75 259.31 479.93 255.07 478.16 253.26 477.84 248.98 476.59 246.25 476.91 242.84 478.1 240.91 479.75 240.09 481.63 236.82 484.13 235.24 484.34 233.88 483.47 230.13 482.02 224.51 480.95 222.26 481.12 221.72 481.86 222.32 484.08 221.96 486.06 220.34 491.04 219.88 494.93 219.17 496.78 213.63 502.82 209.74 506.57 208.93 509.85 207.02 511.3 205.99 510.81 203.06 505.42 201.68 501.61 200.31 499.7 198.22 498.28 195.93 496.09 195.4 494.16 197.53 492.35 201.19 492.01 203.21 491.57 204.74 490.04 205.02 488.81 204.34 486.95 200.75 483.97 199.01 482.21 197.4 479.81 195.9 476.33 194.59 474.4 188.28 471.84 185.09 471.42 182.06 471.87 180.39 472.94 178.47 475.58 175.6 481.86 175.38 483.54 175.71 485.36 178.02 490.23 177.62 491.62 176.32 492.08 171.48 496.25 167.99 497.21 165.13 496.81 163.2 495.98 162.61 494.75 160.2 492.18 157.12 490.41 155.49 490.12 150.86 487.13 148.3 486.67 145.25 485.07 144.74 483.7 143.6 482.88 141.54 482.49 138.7 482.65 136.35 483.32 134.44 484.64 132.86 485.21 130.59 486.84 129.62 490.66 128.44 492.83 126.05 495.22 123.23 497.3 121.45 497.68 115.64 496.32 112.34 493.94 110.27 488.71 110.07 484.31 110.66 482.77 112.64 481.39 115.15 481.38 118.4 479.56 126.31 476.75 128.45 476.49 131.25 475.73 134.52 473.73 134.1 471.92 138.61 466.94 138.86 465.11 138.43 462.23 137.19 461.53 133.53 456.77 127.57 454.99 125.62 454.95 121.67 454.25 119.21 454.57 115.28 454.49 112.92 455.07 109.85 457.95 105.29 459.95 103.89 460.26 101.7 461.83 100.02 463.72 95.92 464.77 94.22 466.23 93.91 467.24 92.11 469.74 89.57 472.26 88.06 474.73 86.92 477.19 86.55 479.15 86.24 483.45 86.25 488.54 85.51 491.19 82.79 493.38 81.06 493.59 78.41 493.34 73.69 491.75 72.05 490.2 71.18 487.81 70.2 486.38 69.86 484.68 64.8 481.28 62.41 481.17 58.93 482.16 56.95 482.27 55.14 482.93 53.92 484.41 54.25 486.3 56.19 488.99 55.75 490.92 56.41 493.4 56.12 495.03 53.97 496.48 50.51 496.37 47.33 494.68 44.93 493.13 44.45 491.92 44.41 489.2 43.6 486.51 41.96 483.79 39.8 483.02 33.94 482.84 30.3 482.07 24.99 481.64 20.81 482.53 15.38 481.98 8.75 479.8 6.27 478.25 4.28 476.61 3.32 475.11 2.49 471.92 1 470.17 3.51 469.58 6.35 470.61 9.47 470.8 11.75 470.27 14.1 470.23 16.39 468.44 17.06 466.55 20.03 463.27 22.85 461.16 23.74 460.13 27.67 459.77 29.24 458.83 31.34 458.44 31.56 457 30.62 454.96 26.96 451.8 23 448.8 20.18 448.47 18.04 447.63 13.78 443.14 11.16 442.12 8.88 441.55 7.58 440.81 6.32 439.39 5.6 437.69 5.66 435.06 4.87 433.03 4.01 429.61 4.79 428.54 7.61 427.64 10.95 428.2 14.2 429.9 16.76 429.56 20.26 428.52 24.56 426.44 28.43 425.07 29.74 422.68 29.5 420.87 30.37 416.14 31.65 413.67 32.37 410.27 33.26 408.06 37.41 402.69 38 401.05 40.74 402.23 42.83 402.25 43.69 403.31 44.61 403.18 48.3 400.4 49.82 401.12 50.59 402.49 51.1 405.77 53.2 405.63 57.4 402.4 60.59 399.14 62.92 398.25 65.76 398.61 68.63 398.46 72.04 399.34 75.38 401.02 77.34 403.02 78.47 405.24 79.54 408.57 80.88 410.74 81.36 412.23 82.67 413.37 90.62 409.46 92.21 409.08 94.1 409.82 96.43 411.5 97.63 413.07 100.33 412.41 101.65 411.4 103.71 407.88 103.95 405.38 103.01 403.72 100.46 401.23 96.27 399.35 94.27 398.85 93.11 397.88 94.47 396.49 96.54 395.38 97.25 394.31 96.16 389.2 96.13 386.58 96.8 385.12 99.28 384.6 103.76 386.52 107.32 388.59 109.93 389.24 112.45 388.84 113.69 388.03 114.15 386.73 114.09 383.46 113.72 382.1 114.13 378.9 115.43 374.82 113.74 371.27 111.69 368.92 109.65 365.05 107.45 362.39 107.37 360.67 106.11 357.16 105.11 356.41 103.64 356.22 100.82 353.92 99.16 351.46 96.64 348.99 95.46 346.75 96.17 345.16 98.41 342.6 102.14 340.8 103.59 339.6 105.08 339.08 106.28 340.04 106.4 341.91 108.09 342.26 111.01 343.45 117.73 343.64 119.74 343.47 122.97 342.5 123.89 341.25 124.31 338.2 121.66 332.87 121.05 332.09 121.15 330.61 118.78 328.81 116.82 327.67 114.84 327.48 108.89 324.29 109.07 322.53 111.24 319.88 111.09 317.42 115.12 316.42 117.24 315.66 122.52 314.83 124.72 313.75 126.1 311.58 126.75 309.73 129.44 309.66 130.46 310.59 134.86 311.46 136.26 312.02 138.77 312.27 140.63 310.6 142.2 310.29 143.23 311.77 145.34 311.05 145.19 310.2 148.51 310.22 148.58 309.21 147.69 308.02 149.46 305.05 150.8 303.59 155.59 300.03 155.93 298.87 151.68 297.13 150.03 296.99 146.62 296.03 145.26 295.1 144.04 291.78 145.06 289.39 145.25 288.08 144.49 284.66 143.07 282.14 141.91 278.41 140.51 277.42 137.63 276.9 137.2 275.81 135.56 276.49 134.86 274.57 135.7 272.31 137.24 270.79 138.56 268.35 136.94 263.95 136.91 262.13 138.06 261.65 139.9 259 139.55 256.23 139.67 252.48 140.48 249.21 140.52 244.63 137.48 240.48 136.81 237.77 137.87 236.59 141.81 235.88 143.82 234.96 146.07 234.36 147.66 235.96 150.85 238.32 155.04 240.6 158.33 240.2 159.94 242.97 161.31 243.02 163.37 242.34 167.63 242.51 171.73 244.28 173.74 244.27 176.83 242.51 177.71 239.75 178.14 236.55 179.23 234.33 182.82 234.23 183.32 232.76 181.48 228.95 182.03 227.7 184.69 225.23 187.94 224.01 189.8 222.27 192.43 221.52 197.12 220.88 201.37 221.79 203.91 221.61 206.88 220.65 208.22 219.23 210.11 218.71 212.36 218.7 217.04 219.56 218.68 219.47 219.59 220.04 222.14 220.22 227.19 219.48 228.05 217.06 225.63 214.53 225.11 213.43 225.27 211.93 227 211.03 228.78 209.17 228.02 205.6 228.11 204.31 229.12 203.95 231.81 204.55 233.11 204.22 231.72 201.28 231.54 199.97 230.54 198.7 230.2 197.33 228.87 195.47 226.39 194.91 224.52 191.74 222.18 190.57 221.04 189.07 221.9 184.5 219.91 183.05 219.88 180.46 220.76 178.05 223.15 177.09 224.04 175.34 223.81 172.64 221.62 172.64 220.45 172.02 221.39 170.05 224.72 167.19 225.18 165.82 226.6 163.99 227.67 161.3 228.68 160.98 231.9 162.74 233.42 161.35 234.87 160.6 234.99 162.69 235.67 163.23 238.07 162.64 239.93 160.62 240.19 158.69 241.69 157.16 241.71 154.94 242.43 153.02 239.75 151.59 240.43 150.46 239.91 148.58 238.84 147.4 238.92 146.6 237.32 144.59 237.17 143.8 235.16 143.59 234.3 142.48 232.8 142.19 231.91 142.66 229.9 141.49 229.33 140.42 227.78 139.37 227.22 138.2 228.67 137.46 229 134.88 230.21 134.11 233.89 132.87 234.27 131.79 232.95 129.93 235.97 128.67 236 128.05 234.54 126.72 229.68 124.85 229.01 123.75 230.45 121.42 232.19 121.56 230.56 119.4 229.88 116.83 230.69 115.13 233.83 112.87 234.29 111.46 237.36 110.63 238.32 109.63 240.29 109.72 241.58 110.39 243.11 109.93 245.2 109.96 246.39 110.49 249.04 109.58 250.33 108.75 253.35 109.4 253.87 108.18 255.96 107.72 257.31 107.92 259.22 106.55 260.69 106.21 261.6 106.69 263.34 106.5 264.16 104.82 267.85 105.85 269.24 105.26 271 105.35 272.19 104.57 273.66 104.45 274.8 102.34 276.27 101.86 279.76 102.54 282.19 101.43 285.62 101.26 289.52 99.54 290.05 98.24 289.69 96.26 294.22 90.54 293.71 87.95 294.01 87.06 293.79 84.53 294.51 82.42 294.02 81.34 295.49 81.06 298.92 79.5 300.52 77.81 300.83 75.13 303.16 72.6 304.01 71.06 305.98 69.52 307.66 69.15 309.63 67.68 310.33 66.46 311.63 65.47 315.05 64.36 315.99 63.77 318.12 63.76 320.08 62.91 323.99 62.1 327.32 60.74 327.81 58.22 329.16 57.59 331.04 57.6 332.07 56.96 333.55 56.94 335.37 56.03 336.24 54.74 338.8 54.38 341 52.32 344.44 52.31 347.41 50.81 348.74 48.8 351.28 48.2 353.66 48.58 356.37 49.77 358.02 51.33 360.58 50.73 362.86 49.28 365.07 48.26 486.08 1.37 487.88 1 490.97 2.07 494.45 4.16 496.24 5.78 500.97 6.8 503.81 7.67 504.72 8.31 507.43 12.16 514.88 17.74 515.52 18.77 515.13 22.26 515.42 25.02 515.24 29.3 515.78 32.15 519.79 39.74 522.96 44.53 526.36 50.56 527.16 51.56 533.24 57.88 534.33 58.54 536.57 58.98 546.28 62.41 551.03 65.1 553.1 66 551.94 67.99 547.88 71.63 545.83 73.89 542.85 75.18 540.79 77.2 537.4 82.7 536.44 83.39 532.74 84.96 528.46 87.44 524.19 88.92 523.26 90.37 521.06 95.26 520.45 98.29 519.39 99.18 517.07 100.28 514.55 101.11 514.91 102.8 516.89 102.82 519.13 102.19 521.24 103.2 521.99 104.77 525.76 105.83 532.12 106.72 534.23 107.7 535.18 108.8 538.48 110.6 539.01 113.13 538.61 115.45 537.84 116.94 536.35 118.57 536.57 119.32 540.03 121.34 545.69 125.75 548.07 128.4 551.96 129.13 555.58 129.37 558.52 130.49 564.93 134.54 567.24 134.89 568.99 136.19 569.93 137.6 570.4 139.21 571.32 140.41 575.21 144.01 579.21 145.34 583.37 147.55 585.48 148.2 589.08 150.69 591.99 152.11 598.22 154.86 600.33 155.27 603.67 155.25 606.61 154.51 608.43 153.14 610.65 150.19 612.14 147.24 614.89 142.73 617.6 136.86 618.52 136 620.24 135.55 625.85 134.65 627.18 134.6 632.96 136.8 638.5 140.44 640.21 141.93 641.89 146.04 643.44 151.36 645.43 153.99 644.64 156.67 645.06 159.1 643.57 161.99 644.02 164.89 643.28 166.39 643.23 167.75 645.14 169.31 646.34 169.66 648.66 172.11 654.58 177.44 659.01 180.24 663.61 182.53 666.55 183.59 669 183.89 671.57 183.77 672.81 185.17 674.04 189.71 676.25 192.61 676.76 194.88 676.72 196.43 674.96 201.6 673.83 205.64 673.43 208.25 673.61 209.97 674.56 211.04 677.32 213.13 682.46 216.12 692.99 221.98 695.09 222.98 696.44 224.22 698.01 228.66 699.87 231.72 700.94 232.26 703.19 231.45 706.11 227.15 708.7 224.63 710.59 223.45 713.12 222.73 719.38 221.56 723.5 221.95 724.42 223.05 724.45 224.89 725.28 231.08 725.87 232.74 728.88 235.47 731.54 236.59 734.86 238.3 741.52 242.22 742.96 244.19 742.19 248.9 743.03 251.92 745.09 253.17 744.76 256.18 745.78 259.74 747.09 262.02 749.52 263.86 751.47 264.6 752.34 267.05 753.43 268.38 756.08 272.71 757.52 277.73 757.46 278.77 759.22 281.98 762.65 285.18 764.79 286.72 766.95 287.17 771.16 285.07 773.26 285.15 774.45 286.22 778.14 293.18 779.73 295.48 781.53 297.17 783.67 298.39 789.51 300.68 790.99 301.58 792.76 303.76 795.43 308.79 798.31 310.15 799 311.33 Z"/>
</g>
</svg>