<?xml version="1.0"?>
<svg xmlns="http://www.w3.org/2000/svg" version="1.2" baseProfile="tiny" width="800" height="777" viewBox="0 0 800 777" stroke-linecap="round" stroke-linejoin="round">
<g id="4218509">
<path d="M 519.94 403.17 520.01 407.93 520.56 415.14 520.1 418.38 519.04 420.18 514.14 422.62 513.42 424 513.94 429 515.71 433.91 516.06 436.84 514.88 442.6 512.76 445.19 512.81 447.05 514.77 448.51 518.2 448.45 523.8 446.07 532.82 439.27 536.6 439.08 538.51 442.8 541.6 446.08 541.89 447.17 539.94 449.63 536.73 452.18 536.12 454.83 536.81 458.11 537.92 459.6 547.34 465.23 551.66 467.11 553.34 469.94 557.42 474.12 560.31 478.51 561.89 483.8 560.48 485.29 557.16 486.27 553.12 486.01 551.9 482.4 550.85 481.73 549.08 483.52 548.36 487.17 548.69 489.48 552.46 492.3 558.54 495.44 560.49 497.68 559.84 504.07 560.49 505.74 562.94 507.13 565.26 507.52 567.75 506.32 570.57 502.85 572.84 502.7 576.76 507.6 579.35 510.02 583.78 511.79 591.83 509.22 593.7 510 596.01 514.25 596.69 516.51 598.07 517.88 599.76 520.96 602.71 520.96 604.56 518.43 606.04 515.26 610.03 509.96 611.52 503.65 613.01 502.47 614.6 504.11 617.42 505.54 621.58 508.46 621.78 511.1 620.68 514.38 621.4 516.92 623.83 518.71 628.15 520.1 632.42 524.08 633.31 525.6 632.7 527.16 627.83 528.88 620.75 530.47 616.6 532.04 615.47 533.74 615.4 538.7 616.64 542.83 618.45 544.93 620.19 545.41 622.87 543.93 627.35 543.04 630.35 544.27 634.74 547.05 637.84 548.08 644.15 548.83 645.44 549.52 647.34 553.54 656.57 559.83 660.43 561.74 665.23 561.92 667.67 560.83 671.67 557.03 674.67 550.65 677.95 547.42 679.27 547.66 682.28 550.64 690.2 555.42 693.9 556.43 698.17 556.53 702.15 555.94 705.75 554.37 709.33 553.59 712.4 553.72 718.1 551.85 721.34 551.89 724.72 551.21 727.2 550.07 729.5 549.89 731.79 550.34 736.8 553.36 737.86 554.95 738.88 558.96 738.63 560.44 731.78 566.28 727.58 567.58 725.3 571.36 725.75 574.29 727.37 575.81 733.43 579.11 736.03 579.83 743.53 583.4 746.42 588.38 749.65 595.25 752.88 599.61 755.23 601.42 761.47 604.54 765.86 605.58 768.21 606.59 772.33 609.97 773.34 611.78 772.77 613.38 769.42 614.22 766.62 614.31 761.81 613.18 756.14 612.26 752.13 613.32 746.05 616.01 743.6 620.27 734.22 626.11 730.36 629.85 728.46 632.48 728.4 634.01 730.55 636.4 734.17 637.88 737.86 638.35 740.99 638.02 745.76 634.18 750.27 628.66 752.35 627.29 754.88 626.9 757.81 628.16 761.1 631.43 767.03 635.29 771.72 637.41 772.01 638 782.07 640.76 786.13 643.95 786.48 645.72 785.36 647.1 783.27 647.67 777.91 646.97 773.68 645.37 771.54 644.06 767.19 646.32 763.18 650.29 761.07 655.47 757.87 661.4 756.51 666.08 754.96 668.58 753.9 671.96 754.15 677.87 755.72 681.03 759.1 685.35 762.33 687.7 769.84 689.42 774.59 689.55 777.74 688.65 780.85 689.14 783.87 690.6 787.8 693.17 792.06 695.46 796.64 699.05 798.28 701.76 799 705.11 797.24 709.39 796.29 710.42 792.39 711.3 785.53 711.5 784.66 711.82 776.89 718.2 768.19 723.2 762.34 728.93 761.65 732.75 757.38 736.56 754.37 738.36 754.48 741.36 759.41 748.26 760.05 752.16 758.95 753.25 752.15 752.74 747.32 753.1 744.04 755.2 741.92 758.16 742.05 760.44 749.92 765.48 754.92 765.64 757.85 764.35 759.82 761.75 762.34 760.09 764.1 760.19 767.98 766.09 767.89 769.3 766 770.63 761.97 770.99 760.4 772.19 755.97 773.66 753.78 776 586.8 775.35 463.43 772.82 303.67 728.79 347.06 693 342.97 689.24 341.54 686.25 338.32 683.56 338.1 682.34 333.17 678.72 331.75 676.31 333.15 673.01 331.81 668.63 327.35 667.35 324.55 665.13 322.25 665.01 317.21 661.64 315.18 662.07 313.52 664.57 310.09 666.09 311.52 670.78 311.35 672.26 308.38 675.34 291.65 677.85 287.57 677.46 282.99 672.95 281.16 672.69 278.86 673.52 276.57 673.23 273.54 671.41 270.16 670.33 265.19 669.29 262.22 663.2 258.83 660.61 257.5 655.95 259.58 654.92 260.29 652.92 258.2 650.2 254.11 647.8 248.73 642.59 246.12 642.12 238.47 634.98 236.48 634.3 231.58 633.67 230.32 632.25 230.53 629.24 229.51 628.19 227.09 627.7 226.92 624.9 225.98 623.4 220.5 623.93 216.35 622.6 212.4 618.72 206.87 616.43 205.78 613.73 207.26 612.05 207.49 610.1 201.85 609.89 195.8 611.85 193.22 610.31 192 608.22 191.35 603.26 188.67 602.1 183.04 601.9 181.17 600.43 180.78 595.39 183.58 593.54 184.33 592.32 184.63 588.92 186.76 587 190.13 586.09 194.77 585.45 198.76 582.76 198.9 580.78 196.29 578.2 193.4 578.23 189.58 576.58 185.73 577.73 182.26 577.38 181.37 576.72 180.64 572.89 176.22 570.51 175.71 569.31 176.79 566.55 175.59 563.83 175.84 561.35 178.43 558.08 178.47 556.57 176.91 554.98 175.54 546.29 172.12 545.21 171.25 541.69 167.33 542.49 163.24 541.88 161.67 539.46 159.44 538.34 158.1 535.68 155.66 532.75 146.75 528.83 147.9 528.02 146.15 522.13 143.25 522.25 139.62 521.19 139.32 520.22 142.14 516.92 141.74 514.61 139.13 512.46 139.82 510.58 138.33 507.95 143.26 503.12 143.29 499.84 144.41 498.69 143.24 496.75 140.83 495.87 139.61 494.36 139.01 491.47 137.23 493.45 135.17 491.83 137.1 490.04 135.64 487.63 133.15 485.82 131.63 482.64 131.83 479.24 130.83 476.67 130.85 473.61 128.59 471.75 129.16 469.46 126.97 469.56 123.45 473.67 123.12 476.64 121.34 476.86 118.41 475.5 114.69 477.67 110.48 477.07 108.59 478.21 108.17 480.23 105.9 479.74 102.23 481.39 100.99 480.78 100.89 478.48 98.41 476.42 97.86 474.8 95.16 474.49 93.15 473.55 88.87 473.06 88.97 471.24 84.99 470.68 85.61 467.68 81.01 464.99 80.31 463.17 77.8 462.95 77.45 461.04 70.06 457.4 67.48 458.3 63.46 457.27 61.61 455.48 62.19 454.25 60.95 451.94 59.67 451.61 57.2 452.96 56.73 449.22 53.56 445.85 43.36 442.14 42.26 440.61 38.89 438.61 38.28 436.88 34.78 434.29 30.8 428.82 26.42 425.69 25.61 422.97 25.55 419.81 23.25 412.02 23.13 409.28 20.55 406.92 18.98 403.63 17.15 402.13 12.51 399.86 10.22 396.86 6.43 393.38 3.52 391.61 3.22 390.39 4.05 383.71 4.96 380.76 4.21 379.79 4.16 376.96 3 374.2 1 373.15 4.33 367.27 3.92 360.05 10.73 356.44 11.96 354.78 15.12 352.78 16.09 351.5 15.83 346.4 16.5 340.8 17.73 337.13 17.37 334.62 35.02 209.69 43.2 158.2 65.73 112.09 118.29 1 119.98 4.69 119.97 8.51 118.44 10.99 120.38 13.64 122.95 15.59 125.15 18.09 130.71 18.96 131.26 20.91 133.17 21.23 135.56 24.44 137.07 24.51 140.22 22.26 141.98 21.88 144.65 23.04 148.51 23.08 151.55 27.58 155.68 29.41 158.86 27.45 162.99 26.01 167.37 26.48 169.44 25.79 171.85 24.04 173.11 25.59 176.11 26.2 178.43 28.24 181.41 32.11 181.53 34.91 182.9 37.98 183.59 41.01 185.31 43.13 185.73 45.08 183.78 49.95 184.35 52.8 187.45 54.32 188.31 57.06 190 60.12 192.44 60.5 194.06 65.43 195.12 66.11 198.83 66.48 200.1 68.15 200.87 73.42 201.94 75.7 204.13 77.89 205.62 80.85 203.32 83.57 200.9 87.6 197.84 89.22 194.51 94.07 192.3 95.64 189.7 96.39 187.72 98.03 186.75 100.53 182.65 100.59 182.81 102.65 181.78 104.16 180.85 107.66 184.16 108.92 185.13 112.46 185.31 116.06 186.99 116.7 190.16 119.31 188.96 120.78 189.74 124.96 189.62 127.09 190.52 128.57 194.33 127.34 197.89 130.91 199.03 134.92 201.68 135.35 203.61 138.84 202.29 144.06 208.28 147.11 208.82 149 206.4 152.62 206.18 153.79 209.45 157.67 209.29 162.58 206.81 167.26 207.54 168.28 210.94 169.32 212.89 171.17 213.24 173.85 210.9 174.01 206.52 172.31 204.9 172.96 203.49 176.45 203.97 179.19 207.44 179.6 208.89 181.04 209.22 182.85 208.81 187.35 206.85 189.53 208.03 191.1 211.79 191.28 212.42 192.59 210.99 196.72 211.63 199.88 211.63 203.36 213.28 207.01 213.09 209.14 214.7 211.63 219.27 213.98 220.25 215.34 225.96 218.84 224.25 220.9 224.96 222.35 229.58 222.87 231.79 222.57 235.52 223.31 236.62 224.56 236.94 227.77 237.95 229.16 240.53 230.35 238.17 232.86 238.38 234.39 235.36 236.87 235.53 240.5 232.63 241.73 231.69 243.09 233.59 245.61 236.36 247.84 240.5 249.59 242.18 251.28 241.55 255.36 243.36 259.4 247.43 260.81 248.63 262.07 245.13 264.47 241.11 264.66 238.73 264.11 236.32 264.33 234.9 265.51 234.13 268.06 235.89 270.45 243.86 275.77 245.31 278.02 245.37 280.04 243.36 282.49 238.58 286.09 238.32 288.14 240.88 292.3 243.64 296.05 244.3 301.91 242.57 304.46 243.4 307.91 239.28 308.11 237.61 308.73 239.77 313.24 241.96 316.36 239.07 321.23 239.57 325.34 239.03 329.2 240.12 332.73 242.27 334.17 245.28 338.74 246.93 339.95 250.01 340.21 250.52 344.06 254.16 345.52 254.3 347.74 255.55 348.75 260.82 347.76 264.19 348.42 266.19 350.22 269.23 351.72 277.38 352.76 279.7 354.17 282.35 356.75 283.91 356.75 287.71 355.35 289.16 356.56 288.92 360.07 289.55 361.18 292.42 361.69 295.83 363.49 297.28 363.45 298.1 361.47 300.7 358.75 301.83 356.6 303.93 350.8 309.21 348.72 312.1 348.33 315.05 348.93 323.02 349.65 326.44 350.62 326.41 355.5 328.19 356.36 335.05 355.05 336.76 356.24 338.7 356.31 349.8 351.18 352.47 351.15 354.39 355.47 354.42 363.35 355.42 365.55 357.15 366.04 362.38 365.55 364.29 367.22 362.85 371.24 362.1 375.06 364.87 377.79 366.8 378.79 368.67 378.16 368.74 375.69 372.91 371.55 378.17 368.4 380.45 365.27 381.46 360.39 382.25 359.31 384.65 358.6 390.59 358.86 391.49 357.16 390.89 350.99 391.49 349.48 393.8 349.47 397.36 351.98 399.86 356.2 400.04 361.16 402.36 364.83 406.72 364.79 407.17 366.67 406.11 368.42 402.43 369.49 398.29 370.06 397.2 371.59 397.16 376.19 398.02 378.63 397.37 383.01 397.38 386.61 399.03 389.42 402.04 390.98 405.93 391.44 411.86 394.13 418.37 394.85 419.19 395.78 422.39 396.61 424.52 396.26 431.28 396.57 434.8 395.58 437.65 397.44 440.38 398.44 447.41 403.07 451.43 402.94 456.35 399.79 458.27 399.49 460.87 400.9 464.42 405.9 466.69 408.31 468.19 408.17 471.84 405.44 475.15 405.77 475.05 408.47 476.46 411.25 477.87 412.3 482.33 412.72 487.22 411.72 487.89 407.41 489.16 402.67 492.16 398.74 493.91 399.15 494.46 402.07 495.89 403.82 496.33 406.86 495.62 409.8 497.76 417.62 498.95 419.23 501.66 419.88 504.4 419.43 504.27 416.04 505.19 410.71 507.7 407.96 508.82 403.92 510.73 400.02 512.26 398.61 515.45 398.8 518.02 400.66 519.94 403.17 Z"/>
</g>
</svg>