<?xml version="1.0"?>
<svg xmlns="http://www.w3.org/2000/svg" version="1.2" baseProfile="tiny" width="800" height="751" viewBox="0 0 800 751" stroke-linecap="round" stroke-linejoin="round">
<g id="4218202">
<path d="M 695.4 51.73 707.23 59.02 718.73 61.37 721.02 62.81 729.94 65.25 733.58 66.95 737.58 67.32 743.24 69.19 745.65 71.48 748.24 77.38 748.54 80.32 747.58 86.94 748.54 93.59 746.68 99.15 739.73 99.27 739.11 101.38 742.62 106.69 742.52 113.48 740.17 118.96 736.96 124.19 731.14 129.73 728.61 132.86 726.98 136.48 729.21 140.57 733.51 143.79 741.07 158.44 743.9 162.53 745.53 169.03 745.17 170.54 741.13 174.09 741.01 176.68 745.23 179.75 751.97 187.39 757.88 191.97 762.69 197.02 767.39 203.52 770.82 205.99 774.49 215.93 777.77 222.99 779.73 225.07 785.63 225.79 789 228.86 789.43 232.83 794.48 242.58 794.6 248.48 798.28 254.8 799 259.97 792.92 266.53 786.96 268.94 783.52 271.83 780.82 280.19 777.62 283.92 770.43 283.54 766.3 284.17 760.88 287.96 755.95 289.58 748.24 289.88 743.18 291.51 738.12 294.88 734.03 296.38 731.26 300.96 731.67 306.87 730.23 312.39 724.22 320.36 721.56 327.11 717.29 331.77 717.71 337.01 721.56 341.4 729.69 348.38 731.38 350.43 731.32 354.04 724.78 359.29 722.89 365.29 725.36 369.39 729.93 374.02 731.08 376.55 732.34 384.13 735.71 389.49 746.25 397.31 752.57 400.26 755.77 404.89 758.23 411.81 758.57 415.81 764.14 419.58 765.1 423.37 757.93 431.98 752.94 442.81 748.54 447.76 743.59 450.81 734.84 459.87 733.73 464.66 734.05 470.12 592.7 588.84 471.65 690.53 466.24 690.46 460.56 686.44 458.31 687.85 450.55 689 447.79 690.67 446.48 688.85 447.37 683.25 442.2 689.13 437.32 685.77 440.43 684.75 439.87 682.49 435.8 683.42 430.68 682.63 430.14 678.56 425.11 677.63 421.33 678.69 421.7 680.21 412.28 684.76 411.48 686.45 405.87 687.72 404.25 690.33 397.88 692.03 395.92 695.77 393.64 697.63 394.37 701.23 388.02 705.49 385.04 704.68 375.78 706.46 374.01 714.17 370.33 712.47 368.12 713.04 364.45 716.55 361.69 715.91 360.18 718.08 356.36 719.95 355.57 723.97 350.24 728.96 345.65 729.82 335.37 734.75 334.52 737.34 325.95 739.08 322.12 738.02 322.05 743.48 318.7 742.81 314.34 745.18 301.78 750 235.31 642.92 188.68 567.8 162.34 487.82 163.71 484.42 164.25 478.03 163.1 473.33 160 473.34 161.02 470.32 160.1 466.62 156.76 460.29 159.14 456.54 158.3 453.91 153.8 448.97 148.09 454.56 136.61 460.94 133.09 464.73 130.67 465.6 125.49 464.01 122.95 453.05 121.47 441.82 120.2 439.14 116.76 438.31 111.9 435.04 108.82 431.49 106.3 429.97 96.11 426.94 91.51 424.28 83.5 421.49 80.6 418.08 76.67 408.93 76.76 403.9 75.96 393.62 73.96 389.21 69.17 382.58 64.67 371.44 62.68 364.28 58.79 361.53 48.97 344.56 47.6 336.98 47.5 332.15 49.04 324.87 50.59 321.84 55.23 318.86 54.24 314.87 49.12 312.79 44.85 308.19 35.41 303.78 31.1 299.42 28.3 285.16 30.1 280.13 34.84 274.64 36.69 270.51 42.71 263.64 42.81 260.13 41.75 254.27 41.75 248.96 42.87 245.33 47.36 240.65 56.94 233.9 57.51 217.67 56.92 210.92 54.17 207.78 47.61 204.52 43 200.56 42.24 189.71 41.39 187.24 34.23 182.98 31.48 176.72 29.63 167.57 27.21 163.92 27.87 160.26 32.57 157.55 48.68 155.24 53.28 155.9 57.59 153.77 58.45 150.97 55.7 140.88 55.6 137.43 52.9 134.37 44.17 131.35 38.77 130.31 35.73 127.56 31.96 120.43 28.68 117.73 26.41 112.99 27.21 109.62 29.49 104.93 30.25 100.66 29.35 95.69 27.79 93 19.94 85.86 16.69 76.59 12.62 68.52 10.5 65.41 7.23 63.24 1 57.78 3.14 55.65 9.22 54.02 16.81 47.58 19.94 42.89 22.71 36.57 26.2 32.54 26.97 27.16 26.24 22.74 23.61 18.28 17.59 17.19 16.14 12.98 21.78 1 297.63 79.3 370.18 99.89 559.13 135.52 639.64 150.7 695.4 51.73 Z"/>
</g>
</svg>