<?xml version="1.0"?>
<svg xmlns="http://www.w3.org/2000/svg" version="1.2" baseProfile="tiny" width="800" height="677" viewBox="0 0 800 677" stroke-linecap="round" stroke-linejoin="round">
<g id="4219358">
<path d="M 426.22 5.1 428.24 8.63 430.5 10.06 434.62 10.91 436.71 10.36 440.21 10.37 443.34 10.83 452.21 12.52 456.98 13.94 459.94 15.1 464.29 17.39 470.23 20 478.97 22.78 481.29 23.73 485.76 28.5 487.69 32.54 491.53 39.38 494.39 45.18 496.1 49.49 496.71 52.8 496.86 55.61 497.63 59.18 497.57 60.87 498.21 64.88 501.27 71.24 503.62 74.78 507.44 78.94 514.51 87.22 516.51 89.09 519.09 92.42 527.02 100.97 529.89 105.33 531.22 109.75 532.08 114.08 532.52 119.89 532.34 124.26 532.87 129.78 534.9 134.32 536.76 136.01 541.54 137.51 547.43 138.72 552.43 138.82 557.79 138.15 560.54 138.37 565.89 139.85 568.28 141.25 571.33 143.83 576.59 148.83 578.04 151 582.42 156.68 585.63 165.06 586.48 166.5 588.34 171.08 589.28 174.41 590.17 176.23 592.41 178.96 595.24 181.47 596.89 183.51 599.47 188.19 600.06 190.76 600.1 195.36 599.21 197.85 597.06 200.72 595.08 205.04 595.26 206.83 596.99 209.85 599.72 210.82 606.93 210.97 610.83 211.29 616.62 212.57 619.45 212.73 621.64 212.42 627 210.96 632.14 211.33 640.51 214.46 646.75 216.14 649.38 217.45 653.58 220.46 657.41 225.07 659.05 227.99 661.39 233.67 662.09 236.9 662.96 243.54 663.16 247 662.5 249.8 661.2 251.31 658.81 253.11 654.1 257.31 650.35 261.95 649.71 263.46 650.35 267.05 652.06 269.81 656.47 274.92 660.14 278.77 666.13 282.27 672.27 284.63 678.85 285.98 680.55 286.58 682.63 288.04 684.24 290.35 685.09 293.84 685.26 297.85 685.12 304.22 685.29 307.48 686.62 311.43 689.07 313.98 693.14 316.67 696.9 319.51 700.25 322.5 703.47 326.19 704.93 328.46 707.72 337.01 709.69 341.31 712.03 343.61 715.98 346.06 719.49 348.87 722.32 352.26 726.9 356.31 738.04 362.39 747.58 370.91 754.9 379.86 757.64 381.82 761.85 383.75 765.33 387.19 765.9 389.42 769.34 395.5 776.21 408.18 778.84 412.24 780.74 414.45 785.03 418.37 789.25 421.78 795.52 426.36 798.13 429.15 798.77 430.55 799 432.95 798.2 435.09 796.77 436.54 793.27 438.82 791.02 440.9 790.1 442.69 789.95 445.42 790.84 451.3 791.9 455.59 792.98 458.65 794.36 461.37 797.37 464.86 798.87 466.11 797.92 495.95 793.56 495.97 757.47 466.09 717.9 500.13 715.57 502.76 709.49 507.19 705.12 509.7 702.9 512.39 700.55 513.94 696.23 514.91 693.11 516.84 689.75 518.27 685.54 525.53 682.12 529.72 679.12 531.31 678.27 532.44 674.3 535.7 673.27 536.19 668.4 537.31 665.79 539.56 664.55 540.06 660.76 539.75 658.57 541.09 656.32 543.73 654.08 544.27 646.61 543.42 642.82 543.44 636.78 544.03 633.14 545.32 627.79 546.58 625.72 547.41 620.79 550.98 615.88 552.69 612.82 554.43 605.37 557.11 602.97 558.81 601.11 559.46 592.66 560.27 587.43 559.31 583.34 561.36 579.78 562.19 576.44 567.36 573.88 569.16 572.5 569.02 572.09 567.69 570.19 564.72 570.32 563.11 569.15 561.92 568.48 560.14 568.22 556.39 567.73 555.71 568.92 553.94 569.68 549.92 569.37 545.56 568.27 544.33 566.45 544.32 564.37 545.5 562.56 545.82 561.7 544.96 560.06 546.42 556.58 550.22 554.97 553.21 551.73 556.28 546.55 559.84 546.5 561.03 547.49 562.22 548.88 562.36 549.5 561 552.21 559.52 552.74 560.56 554.66 560.79 554.77 561.77 552.83 562.32 552.57 563.68 550.92 565.19 557.2 567.02 559.06 567.22 559.15 568.42 561.46 569.8 560.77 573.1 558.18 571.29 554.09 570.99 552.29 570.03 550.74 570.8 549.96 569.46 548.69 569.13 547.07 569.77 546.2 569.02 545.7 566.87 544.08 566.36 542.99 567.78 540.39 567.22 540.45 565.18 537.75 564.73 536.44 563.86 534.35 564.71 532.73 562.98 530.38 562.29 529.37 562.58 526.12 565.1 525.2 566.89 523.24 563.78 525.45 563.07 526.64 561.34 527.16 558.6 526.82 556.01 528.03 555.17 525.99 552.28 524.21 556.45 524.84 558.45 524.29 559.85 520.22 561.25 515.07 564.49 511.06 565.93 509.04 566.07 507.37 566.86 503.61 566.4 499.11 566.26 497.22 565.88 495.24 566.76 496.84 569.79 500.12 569.38 499.49 570.66 499.8 572.45 496.19 573.31 496.21 575 498.5 577.33 500.44 577.93 499.06 581.11 499.39 582.87 498.3 585.07 496.95 584.42 495.35 579.11 494.01 577.9 492.86 578.79 491.02 582.22 489.66 583.51 488.56 579.63 489.32 577.09 487.85 573.24 485.58 573.45 485.15 574.56 482.89 574.93 481.6 573.2 482.71 570.89 482.53 569.8 480.05 568.65 477.75 568.95 476.73 570.44 475.71 573.89 473.35 574.97 473.01 571.54 471.97 569.68 473.01 567.58 472.59 564.94 471.6 564.68 468.59 567.06 463.51 569.26 461.29 570.7 458.12 573.68 457.86 575.91 459.36 576.88 456.71 579.18 458.48 582.15 457.96 582.61 455.24 581.78 454.25 583.1 452.74 581.22 449.59 581.1 450.08 579.98 452.49 577.95 452.83 575.97 452.26 574.21 449.62 573.92 448.54 573.32 448.28 570.15 446.92 567.95 445.85 567.5 443.49 572.9 441.03 575.7 434.65 579.43 434.06 580.2 435.7 581.78 429.95 583.81 428.78 584.71 428.16 587.18 425.11 587.52 422.91 588.43 422.42 586.72 418.28 582.49 412.39 578.66 411.4 580.48 410.83 583.37 411.09 590.33 410.21 591.02 408.56 589.16 406.92 588.45 405.01 590.33 405.02 594.32 403.59 598.39 402.1 597.87 401.02 592.64 398.79 591.72 394.97 592.62 394.39 590.7 393.03 589.19 391.31 588.43 389.53 589.05 388.48 590.39 386.9 593.65 386.31 597.11 387.15 599.76 388.38 601.2 386.74 601.81 385.39 603.35 383.87 607.03 382.39 608.51 380.58 611.23 378.49 608.87 376.03 607.77 372.17 606.72 369.64 604.8 368.47 600.73 366.29 599.03 365.64 600.52 365.1 606.41 363.88 608.15 361.12 608.02 358.1 607.46 355.16 607.34 352.81 608.57 351.11 610.77 348.83 610.33 346.19 611.1 345.56 614.23 342.25 612.96 336.95 612.3 335.15 613.45 337.37 619.24 335.96 619.01 332.85 615.94 330.88 615.24 329.57 615.55 328.84 617.33 330.89 620.16 331.34 621.84 328.98 620.93 325.24 621.4 322.79 623.03 321.53 621.73 323.08 617.54 322.59 616.18 320.89 614.87 317.74 613.46 315.88 614.86 314.49 619.73 312.31 621.33 309.64 624.15 308.71 623.68 307.85 621.29 305.5 619.64 303.53 620.19 302.98 621.15 303.14 623.82 303.84 624.96 303.14 627.52 303.27 628.96 305.21 632.49 305.5 634.1 303.93 637.03 303.57 639.08 299.53 640.33 298.85 640.98 295.25 641.3 293.29 642.5 292.63 640.86 286.95 636.12 285.09 635.11 283.47 635.13 280.79 637.1 276.34 642.8 275.48 642.33 273.67 638.85 271.55 632.2 271.48 629.3 270.93 625.76 271.19 620.81 269.57 619.82 268.2 620.5 265.39 624.25 263.46 622.03 261.17 620.71 259.91 617.57 258.95 616.16 258.22 611.14 256.49 609.33 250.78 607.2 246.3 606.49 244.91 607.57 243.97 609.19 239.73 614.48 236.49 616.44 235.47 617.67 235.39 620.71 234.64 623.52 231.8 628.17 230.97 628.66 140.62 629.16 107.19 668.69 106.05 669.56 102.76 669.88 99.61 671.55 95.26 671.48 91.62 672.83 89.61 674.77 87.06 675.06 76.49 672.34 71.99 672.29 69.5 673.09 62.7 676 60.05 674.89 56.64 673.91 52.16 674.2 50.71 673.17 44.89 666.81 43.64 663.35 41.4 661.23 35.94 654.63 34.32 653.1 33.58 650.79 33.46 646.25 34.35 641.28 35.69 639.34 37.6 634.12 43.25 628.13 43.3 625.64 44.93 623.03 48.77 620.16 54.34 616.36 56.4 614 58.67 607.54 59.5 604.15 58.79 602.94 56.41 601.81 54.11 599.43 53.08 596.44 46.59 595.17 42.76 595.36 41.05 597.85 40.79 600 41.16 602.09 43.07 605.28 42.48 607.29 38.9 610.47 38.52 612.09 37.34 612.96 35.55 612.65 33.65 610.04 32.1 605.66 29.11 602.1 28.38 599.88 25.07 596.25 23.86 593.52 25.76 588.69 25.89 585.73 24.99 583.85 26.18 582.84 26.26 581.16 27.97 581.39 28.42 583.88 29.54 584.02 31.24 582.73 31.29 581.64 32.95 580.92 37.75 577.39 39.52 575.7 40.09 573.93 39.38 569.8 39.36 565.52 39.03 564.05 37.29 561.93 35.17 560.76 33.08 558.75 32.58 557.71 32.07 554 32.28 551.32 31.22 549.53 24.62 545.18 22.55 545.97 19.32 544.5 18.04 543.11 17.29 540.57 17.12 537.82 17.45 532.33 17.45 528.33 18.13 527.04 20.74 524.02 19.82 522.67 14.34 521.5 10.26 519.21 8.68 518.74 8.01 515.71 6.05 511.7 6.12 509.05 2.96 506.31 1.91 504.91 1.04 502.16 1.18 500.76 2.22 499.8 2.39 498.34 1 497.33 5.01 495.93 6.31 494.4 9.08 488.01 10.71 487.32 15.51 486.65 16.29 487.06 19.51 486.39 20.49 484.72 22.97 482.71 23.1 481.22 25.61 480.01 25.84 478.39 27.21 476.47 29.58 474.99 30.95 473.42 31.04 471.33 33.42 468.86 34.76 466.89 35.03 464.68 34.44 463.99 37.22 460.12 36.87 457.61 37.27 454.82 39.73 449.78 42.39 449.66 43.46 447.98 41.66 445.91 43.3 444.86 43.98 443.48 41.57 442.16 40.3 438.45 44.84 434.11 44.71 432.2 43.85 431.7 40.36 431.83 39.14 430.69 38.64 424.83 38.91 423.89 41.13 421.22 43.79 418.65 48.31 413.26 51.24 410.12 50.95 408.24 51.76 405.53 51.12 404.23 52.23 398.99 53.58 396.69 54.34 393.69 53.28 392.03 53.96 390.53 56.4 388.58 57.53 386.93 56.89 383.74 57.16 381.76 55.97 380.02 56.63 378.65 58.96 376.64 60.06 376.43 60.05 374.46 56.91 370.35 59.12 368.13 56.73 365.65 54.09 361.68 54.54 359.95 53.84 358.63 54.38 357.5 56.88 355.08 54.77 353.2 55.93 351.76 59.73 348.53 61.56 348.8 63.9 348.43 64.61 347.25 64.47 344.4 63.93 343.27 61.13 340.58 60.62 338.9 62.88 337.49 65.49 336.83 67.74 336.85 68.51 336.23 67.55 332.76 66.39 332.16 65.09 330.17 61.63 328.26 59.6 325.34 59.4 323.29 59.94 321.57 59.69 319.21 60.74 317.33 60.34 315.72 58.49 314.63 59.61 312.11 60.88 313.2 64.36 313.97 68.05 310.88 71.84 308.89 71.75 306.41 72.75 305.19 75.71 303.22 76.97 301.69 78.65 298.68 78.96 296.32 80.47 295.47 85.27 298.19 86.38 298.28 90.52 296.91 92.54 295.65 96.95 290.83 97.45 289.85 100.26 287.53 100.97 286.34 100.08 284.25 97.45 281.36 96.98 280.08 98.14 278.35 100.45 277.51 105.33 276.3 109.16 276.3 113.21 277.28 113.89 278.11 114.49 281.15 116.9 282.11 121.36 282.42 122.06 281.09 121.49 278.95 119.09 276.65 117.26 276.18 115.93 274.36 117.83 273.1 123.67 270.9 124.56 269.62 123.6 268.44 121.4 266.94 121.14 265.86 123.75 263.75 123.84 261.93 122.25 260.56 122 258.82 122.66 257.91 125.8 256.12 131.9 255.5 133 253.33 133.8 253.11 137.07 256.87 139.58 256.66 141.81 253.75 144.24 253.21 147.46 255.54 148.29 257.42 149.52 258.14 151.86 257.71 154.93 257.75 155.91 259.08 156.05 261.61 157.24 263.13 160.32 261.95 162.09 258.96 162.38 257.06 161.57 250.03 162.5 247.69 167.97 241.03 169.42 239.92 173 238.73 175.93 239.58 176.39 240.69 175.93 244.66 177.33 246.17 181.33 246.53 185.39 248.41 190.31 250.16 192.32 250.39 193.18 248.9 191.41 242.98 191.15 239.94 191.55 237.6 191.7 233.34 191.5 229.57 193.56 225.65 197.53 222.11 198.62 218.57 199.38 218.18 201.58 220.6 203.26 220.59 206.37 217.82 205.82 215.88 198.04 211.12 199.03 208.93 200.57 208.3 201.98 211.64 203.88 211.57 205.23 209.82 206.99 204.4 206.34 200.38 206.74 199.28 209.09 197.58 210.83 197.03 212.27 197.31 216.51 197.04 218.12 196.62 218.12 191.61 218.97 190.4 221.13 189.47 222.6 187.7 222.89 186.08 219.67 183.8 219.8 178.5 220.33 173.56 221.68 171.45 222.42 168.4 224.26 165.04 226.18 163.91 231.18 159.22 234.54 155.51 238.27 153.17 239.73 151.78 240.72 145.59 239.52 142.26 239.48 140.2 240.4 137.51 239.75 136.79 236.14 135.69 235.58 134.3 239.26 130.51 240.79 129.55 244.81 128.14 245.46 126.89 244.42 125.31 240.39 121.68 239.87 119.22 238.56 116.39 238.58 115.5 242.87 111.51 244.37 111.48 246.98 112.66 248.5 115.22 248.78 117.48 248.19 119.82 249.97 119.92 251.96 117.26 255.15 115.55 256.58 113.95 256.3 110.17 256.65 108.77 258.17 107.9 266.01 108.09 267.35 107.36 268.7 104.33 267.28 101.18 265.5 99.73 261.51 100.36 260.35 98.6 261.92 96.1 264.9 93.98 267.34 93.92 271.78 95.23 271.9 93.13 270.69 86.99 271.97 85.86 276.68 87.38 279.37 89.11 281.1 89.06 284.34 86.55 287.1 82.69 286.96 80.59 290.34 77.54 294.32 75.47 297.91 73.92 296.18 70.93 296.5 70.35 300.11 69.38 302.61 68.14 306.53 67.1 305.66 65.09 305.59 63.29 307.06 60.57 310.17 60.19 311.45 62.36 313.39 63.41 314.42 63.35 316.3 61.57 318.93 55.81 323.05 53.53 325.95 50.11 328.02 48.31 328.52 47.29 331.83 44.96 338.85 44.39 341.24 42.34 343.06 38.71 344.26 35.46 345.45 34.37 346.46 31.24 347.77 29.74 349.38 28.78 354.38 27.14 356.9 27.51 359.23 27.33 360.97 26.69 366.05 23.37 369.67 21.62 370.33 20.67 369.58 17.53 370.23 15.36 372.61 14.57 378.61 14.39 380.43 15.18 383.09 17.35 386.04 17.61 387.97 14.48 388.92 12.12 390.26 11.33 393.67 11.02 396.73 8.23 399.59 6.93 400.8 5.83 402.85 1.66 404.88 1.34 407.47 2.8 409.97 3.15 413.03 1 415.7 1 419.51 1.67 421.4 2.43 426.22 5.1 Z"/>
</g>
</svg>