<?xml version="1.0"?>
<svg xmlns="http://www.w3.org/2000/svg" version="1.2" baseProfile="tiny" width="800" height="817" viewBox="0 0 800 817" stroke-linecap="round" stroke-linejoin="round">
<g id="4219853">
<path d="M 353.11 711.33 340.87 714.84 335.95 717.04 329.81 722.04 325.86 726.73 323.02 731.7 320.98 738.46 320.29 747.23 319.87 758.36 319.39 764.56 318.44 771.21 316.79 777.97 312.76 790.67 310.17 797.37 306.38 802.48 302.2 807.39 298.24 810.83 294.02 812.95 288.08 815.09 279.62 816 272.24 815.99 258.94 812.15 253.26 808.93 239.23 796.74 233.46 792.54 221.06 781.29 213.53 773.63 206.06 765.42 195.54 754.96 193.77 750.46 188.3 738.47 188.35 728.32 189.08 723.23 191.04 716.26 195.92 703.64 198.99 697.63 203.15 690.71 206.6 683.17 212.69 666.28 216.85 652.75 218.42 645.36 220.15 638.88 223.07 619.38 225.64 609.83 226.66 603.51 227.94 598.7 228.49 591.32 227.87 584.58 225.88 574.65 222.75 568.76 219.02 564.34 213.18 561.47 198.72 558.4 191.51 558.46 184.61 559.28 174.32 561.65 167.68 564.14 161.21 567.61 153.42 572.89 147.67 577.74 138.57 584.82 132.92 591.48 123.17 604.08 119.81 611.69 111.57 625.88 107.78 630.72 101.5 637.93 93.49 643.85 87.65 647.65 80.16 651.68 73.92 654.59 65.63 657.02 56.3 657.79 38.65 657.39 29.37 654.96 20.46 650.72 12.16 644.11 7 638.31 3.84 629.37 2.85 624.09 2.63 611.08 3.63 601.89 5.66 593.04 8.89 580.29 10.58 575.51 14.66 568.8 21.32 553.37 26.01 544.43 31.11 536.73 36.06 523.54 39.66 514.86 43.16 504.81 46.68 496.92 50.48 485.27 54.05 475.14 55.23 467.62 54.51 458.93 52 452.13 46.43 444.25 40.41 438.6 22.76 427.8 16.68 424.44 9.99 421.44 1 419.23 3.63 417.6 4.73 404.62 7.45 391.92 12.62 381.7 17.64 380.25 28.94 380.57 36.85 382.07 41.54 381.94 52.44 378.06 55.87 377.89 58.19 379.06 60.51 382.29 62.17 385.98 62.6 389.24 62.44 395.86 65.42 397.62 67.46 398.07 72 397.6 75.45 396.09 79.55 392.11 82.86 392.41 87.33 396.35 92.11 398.82 94.41 400.9 96.55 406.13 96.67 411.05 94.33 414.83 94.05 416.36 95.66 418.44 99.69 420.13 101.44 419.41 102.89 416.13 102.4 413.02 103.14 410.94 105.06 410.6 110.06 412.02 112.48 412.19 122.36 411.23 126.33 410.27 135.34 412.2 136.71 411.14 139.42 407 140.78 406.25 146.1 406.47 147.03 405.58 149.21 396.4 148.51 389.09 151.3 388.01 155.11 385.43 157.56 384.89 161.12 381.78 167.51 380.67 170.76 374.35 170.59 370.36 169.84 366.59 168.29 362.89 174.61 361.57 176.8 358.72 179.17 357.94 182.47 359.77 185.03 361.84 188.99 363.7 205.35 363.41 208.31 365.11 209.47 366.79 211.53 364.18 213.47 357.08 212.48 352.21 213.09 350.72 215.27 349.36 219.39 349.86 222.64 346.8 228.06 343.81 229.51 341.68 230.48 335.61 235.75 331.06 239.27 329.42 240.3 328.08 240.82 325.17 242.5 323.23 242.6 316.04 246.18 314.88 247.48 313.3 251.89 314.26 255.72 312.98 260.19 314.16 262.27 311.13 263.47 307.91 264.95 306.78 266.81 307.14 267.71 309.32 270.89 311 273.83 311.32 280.57 311.27 284.03 310.52 285.73 309.26 287.97 305.65 293.6 303.86 295.74 301.04 295.33 298.88 294.03 297.84 295.8 295.79 297.37 291.68 300.57 292.73 302.71 292.5 304 288.31 306.89 283.72 308.47 280.04 311.18 279.69 311.99 276.02 313.36 275.37 313.27 272.84 309.18 270.97 308.57 269.45 310.19 267.57 315.73 265.7 317.37 264.03 317.63 259.89 319.07 257.67 319.49 253.22 320.56 249.82 320.33 247.81 316.52 247.92 314.66 245 315.02 240.71 316.34 241.32 318.16 239.62 320.04 236.1 318.84 233.36 316.93 231.51 314.04 232.13 311.7 230.98 310.72 229.41 310 225.31 308.04 221.97 307.07 217.54 305.57 215.86 305.76 212.94 304.82 210.37 306.65 209.18 306.44 205.02 307.5 202.93 313.43 200.13 316.51 195.21 316.96 192.26 319.2 189.35 321.75 187.71 324.13 182.72 329.16 181.09 330.78 178.68 331.47 174.97 329.97 170.8 327.39 46.86 329.7 49.06 332.61 53.38 335.4 54.98 340.63 55.39 342.14 54.9 346.83 51.14 350.52 45.95 351.84 39.62 353.83 37.59 355.12 33.06 358.66 33.09 365.24 27.13 366.51 26.96 370.19 29.56 370.63 32.04 372.18 33.88 374.56 30.57 380.89 28.09 382.63 28.19 384.05 30.88 386.69 31.5 388.87 28.44 388.72 25.02 391.38 23.59 393.33 24.29 397.89 29.66 399.91 27.77 400.47 25.67 401.96 24.04 409.9 21.77 410.57 18.06 411.78 16.84 416.22 18.07 417.67 15.62 421.97 13.88 423.11 12.22 427.97 11.16 430.22 9.47 432.44 8.88 434.47 11.19 437.6 12.11 442.46 9.91 445.5 7 447.02 7.69 446.76 9.75 452.79 10.25 453.42 10.73 457.63 9.45 461.01 10.56 463.48 10.42 465.61 8.37 466.39 6.52 467.18 1 471.49 1.11 473.78 3.54 475.75 4.63 477.4 8.72 479.79 9.75 487.75 8.72 490.55 10.36 497.79 8.53 500.45 10.19 502.34 13.17 505.17 12.53 506.02 13.88 510.79 16.5 514.46 14.82 518.7 14.81 522.41 13.49 531.03 16.33 533.79 15.89 539.42 13.59 544.12 12.8 547.72 14.89 551.42 15.78 555.88 18.52 558.54 18.77 563.2 18.12 568.15 19.26 569.98 24.68 572.16 25.89 581.25 27.03 585.28 27.99 585.7 29.98 587.65 31.68 594.11 34.37 597.62 34.37 599.84 35.19 607.73 34.84 612.73 38.66 613.72 39.96 617.26 40.27 620.73 41.77 623.15 45.22 626.03 45.27 630.45 43.81 634.31 44.72 639.39 42.24 644.41 42.49 647.88 40.55 650.52 38.29 650.94 36.26 652.59 34.81 654.59 31.7 658.28 29.88 665.89 24.86 669.41 21.07 670.99 16.67 673.87 14.36 678.17 11.86 680.36 9.7 680.47 3.89 684.87 4.49 687.81 7.93 687.85 13.89 686.98 17.3 686.63 22 687.15 25.51 694.08 31.15 696.48 35.62 696.01 39.13 697.23 44.57 698.85 47.7 705.63 54.19 705.76 57.88 706.46 59.23 705.83 61.62 701.45 63.34 696.63 62.77 694.1 64.03 690.42 64.18 684.49 66.24 682.97 68.9 684.42 71.89 683.91 74.42 680.92 74.47 678.35 76.92 678.37 80.12 680.03 82.95 678.49 84.74 679.48 87.65 681.06 88.93 680.54 91.06 678.72 92.67 678.9 95.44 676.16 94.81 674.95 98.01 675.28 100.03 678.17 102.9 676.96 106.82 677.15 108.51 679.71 110.99 679.9 114.67 677.62 116.46 678.32 120.62 679.6 122.01 679.61 127.56 678 132.03 679.21 135.65 682.1 137.83 680.01 139.11 675.58 139.75 675.29 142.7 673.24 144.73 670.49 144.16 669.82 147.2 667.11 145.59 663.76 145.03 660.02 146.49 659.97 148.16 663.36 148.98 664.96 151.14 665.65 154.55 664.06 158.11 664.53 159.84 669.97 162.33 672.85 164.97 674.08 168.16 672.44 171.63 671.44 175.65 671.88 178.11 673.54 181.2 676.72 183.82 681.66 185.49 683.94 185.7 685.14 187.53 688.84 189.38 689.68 191.65 691.93 194.53 695.14 194.34 697.32 193.53 698.56 191.68 698.22 187.48 698.77 183.78 705.29 176.2 705.08 171.65 706.52 168.94 709.35 167.42 712.87 166.45 717.99 163.94 721.32 161.53 726.76 159.1 730.54 158.07 734.42 155.6 736.85 151.4 739.86 148.81 742.67 147.52 747.56 146.92 754.29 145.05 757.45 143.65 762.8 144.04 769.15 144.07 772.27 141.91 774.9 140.99 773.07 145.37 771.33 147.11 767.79 149.32 765.9 152.2 761.3 153.83 758.86 155.16 757.52 156.87 757.22 159.56 757.98 162.13 761.1 167.05 761.85 175.5 763.07 177.48 767.67 177.95 770.49 179.65 771.59 186.91 771.34 189.52 772.18 193.24 775.96 196.64 779.16 197.61 785.58 197.99 788.84 199.11 795 198.95 796.87 199.59 797.03 203.04 799 208.48 798.7 211.77 796.07 216.29 793.36 219.86 792.61 222.12 790.08 225.7 791.7 228.23 789.68 238.7 790.93 241.31 790.82 250.13 794.51 258.42 794 262.97 791.35 268.85 789.36 270.91 786.2 271.59 785.68 276.14 784.54 276.79 779.29 277.02 778.17 278.27 777.89 282.1 776.9 283.88 777.37 285.79 776.25 287.94 778.95 289.25 779.15 290.8 777.78 292.83 778.23 297.85 776.87 306.2 770.29 310.93 769.88 312.23 770.4 317.01 769.8 318.32 766.6 318.51 766.48 320.39 763.98 321.96 761.14 320.51 757.47 321.79 752.97 320.44 751.53 319.42 747.88 320.88 744.13 319.29 740.3 319.84 738.47 322.33 736.4 322.39 732.88 320.62 730.45 318.41 728.36 318.79 727.74 320.21 722.15 322.43 718.44 321.96 716.13 322.26 713.62 324.13 711.8 327.89 708.85 328.03 706.77 329.15 704.81 328.66 702.08 331.1 701.02 334.23 701.18 336.73 699.94 340.35 696.67 342.83 695.33 344.76 696.15 348.15 691.18 351.34 689.65 351.62 689.91 355.84 688.7 358.37 689.74 361.75 691.96 362.3 693.29 363.75 691.47 366.95 689.88 366.25 690.47 372.82 683.44 372.88 681.69 373.4 680.38 375.3 684.78 377.66 685.26 379.74 682.88 382.25 683.47 385.26 682.97 392.56 679.83 393.44 676.44 392.88 671.23 396.26 667.31 396.71 665.19 395.65 664.65 392.24 662.39 391.26 658.91 391.82 655.95 386.83 654.12 386.1 643.5 387.59 638.9 387.52 636.53 388.73 635.46 390.44 633.03 391.83 629.6 389.88 621.6 387.37 616.2 387.48 615.22 389.9 612.21 390.12 609.01 391.75 606.01 392.13 600.26 390.41 598.42 391.21 596.77 393.8 594.72 394.64 589.78 394.86 585.66 397.25 584.71 398.33 585.77 401.09 583.44 403.42 580.92 403.63 578.33 402.95 576.06 401.49 572.73 401.66 571.08 399.55 569.74 399.84 567.45 402.73 563.33 400.38 559.38 400.68 557.03 402.5 556.89 403.99 558.32 407.26 556.63 410.43 558.43 411.68 562.12 412.21 562.38 417.28 563.81 418.2 567.31 417.89 568.51 418.65 568.02 421.4 564.8 425.06 564.9 428.45 565.91 431.42 563.84 433.64 560.15 436.44 559.64 440.96 561.16 442.13 564.22 442.12 568.3 444.79 571.53 447.44 575.57 446.38 576.58 447.42 577.54 450.81 575.72 455.49 574.37 456.72 570.63 457.89 568.15 454.78 566.09 453.22 562.61 453.63 558.68 452.74 557.76 455.05 555.09 454.84 552.8 458.51 547.92 460.61 543.97 463.14 543.43 466.55 544.97 468.56 550.12 471.64 551.49 472.9 547.17 478.91 546.11 482.74 546.93 484.56 544.92 486.6 544.91 488.9 546.98 490.47 551 491.54 550.68 493 552.17 495.55 551.5 497.13 547.38 499.35 548.15 501.94 546.79 507.91 545.36 508.59 541.61 503.06 536.78 500.41 532.82 500.92 527.57 504.05 523.32 504.92 521.74 507.46 521.62 510.12 522.2 515.96 521.79 519.05 522.24 522.58 519.2 523.77 517.35 526.74 518.5 533.61 523.62 537.37 527.26 538.32 527.78 542.47 529.89 547.75 529.73 551.8 526.78 555.7 520.87 560.93 517.52 567.97 520.86 572.02 522.43 577.85 524.16 580.42 521.74 583.76 521.19 587.43 521.75 590.31 520.86 591.84 517.32 591.68 516.06 588.91 512.04 586.7 509.61 584.5 504.07 582.42 496.33 582.45 490.96 583.82 482.96 583.17 476.45 583.09 474.26 581.48 474.4 574.84 473.88 571.15 472.82 569.21 469.47 566.39 467.8 565.82 464.91 566.77 461.33 569.74 458.42 573.76 453.92 576.21 453.81 578.94 456.27 581.09 457.72 583.48 457.27 588.25 457.74 593.61 458.77 600.69 460.55 604.24 460.45 608.05 457.97 611.41 456.71 612.16 446.26 614.81 443.32 617.16 442.7 622.53 440.13 627.83 437.48 628.64 431.67 627.68 422.18 628.1 416.26 629.11 413.28 626.23 409.28 624.85 407.73 626.71 407.51 630.05 409.24 632.19 414.27 636.13 415.51 639.17 411.97 648.92 410.89 656.22 409.82 658.07 407.51 658.94 405.84 658.39 398.9 653.55 394.39 653.48 393.15 654.7 391.55 659.67 389.85 670.19 389.17 673.15 387.55 676.74 385.68 679.3 381.7 682.43 376.47 685.34 370.18 689.85 362.18 696.87 357.3 702.14 355.1 705.58 353.11 711.33 Z"/>
</g>
</svg>