<?xml version="1.0"?>
<svg xmlns="http://www.w3.org/2000/svg" version="1.2" baseProfile="tiny" width="800" height="958" viewBox="0 0 800 958" stroke-linecap="round" stroke-linejoin="round">
<g id="4219705">
<path d="M 659.4 7.09 675.78 148.97 672.28 148.61 671.39 147.87 668.94 143.27 666.31 142.65 662.68 142.55 656.38 140.37 654.37 139.16 649.95 138.57 646.8 139.22 642.11 138.81 638.31 140.64 636.28 147.48 636.34 149.99 633.3 151.44 628.44 152.9 626.73 155.12 624.25 164.09 623.99 166.06 622.45 170.03 621.36 170.73 619.32 175.51 619.9 181.26 621.24 183.33 621.8 187.44 621.53 191.1 620.45 193.62 620.68 195.71 619.06 199.29 620.61 201.76 621.31 206.7 620.28 212.64 621.34 217.31 620.07 219.32 620.62 222.55 622.26 226.08 623.1 230.1 622.86 232.05 619.87 237.22 622.63 237.56 623 239.14 624.93 240.13 625.34 242.85 626.76 246.24 627.1 248.84 625.85 249.67 624.76 253.26 621.24 256.51 618.81 262.45 618.51 265.62 621.04 267.91 626.06 269.58 628.74 270.88 630.93 270.36 633.06 272.01 632.38 274.7 635.74 278.61 641.35 280.61 642.44 283.08 641.13 286.37 641.49 288 644.56 290.27 645.28 292.51 642.81 296.43 647.48 298.5 648.26 300.89 652.66 301.3 654.77 302.03 658.6 304.45 659.02 308.28 660.11 313.07 658.87 315 656.05 316.95 656.71 320.36 657.64 321.27 660.96 327.74 662.34 332.23 663.68 334.49 666.81 337.41 667.23 338.78 665.9 344.59 666.32 349.81 667.56 352.4 671.66 354.32 674.28 357.09 676.02 359.99 676.19 361.57 680.07 366.07 681.71 366.78 686.85 372.07 687.72 376.27 689.21 377.56 696.14 378.68 700.38 379.75 702.44 381.61 702.5 383.64 706.66 389.01 707.13 394.65 710.43 395.96 709.68 398.64 710.43 401.13 712.28 404.66 711.65 409.76 708 412.79 702.94 413.97 699.51 417.96 697.78 424.46 698.72 429.92 697.52 433.37 697.29 436.61 698.07 439.25 700.43 441.9 705.96 443.97 709.11 447.34 711.54 454.39 713.16 456.94 717.61 458.58 724.9 460.3 728.57 462.56 728.71 465.77 726.06 467.6 719.61 469.99 715.91 472.53 715.74 475.43 717.28 478.46 718.64 482.53 722.67 491.96 723.86 497.36 723.74 500 721.57 504.59 720.61 505.7 719.68 508.88 719.67 514.25 721.94 519.96 724.97 522.28 728.73 527.33 729.77 529.76 733.36 534.2 734.37 537.61 734.25 541.07 735.57 547.18 735.5 549.35 732.82 552.29 730.51 559.16 727.17 560.28 721.9 561.45 718.72 562.74 715.84 564.78 713.6 567.51 713.79 569.64 715.04 572.79 718.17 576.91 718.56 579.82 717.93 581.67 713.59 583.99 710.81 584.18 703.01 585.48 695.57 587.73 687.13 592.12 685.76 593.65 686.63 597.14 685.98 601.88 682.75 614.49 679.22 623.61 677.18 627.27 675.69 631.38 674.75 635.29 675.4 638.49 677.27 641.61 681.04 646.64 682.6 648.1 684.62 651.96 686.41 656.58 687 659.83 687.07 674.58 688.5 680.34 690.6 683.29 692.86 685.39 696.84 687.27 703.34 689.32 707.53 691.3 722.99 695.97 728.24 696.83 735.64 697.25 741.07 698.18 744.92 697.45 746.56 695.88 747.46 693.24 747.71 688.17 747.11 682.87 746.28 680.36 747.65 676.99 750.07 676 752.66 676.38 755.65 679.22 757.22 679.97 762.98 684.77 766.1 686.66 773.55 690.29 777.8 692 783.54 693.22 790.98 696.36 798.37 701.36 799 704.12 797.02 707.23 792.68 710.43 790.98 711.08 788.4 709.61 785.16 706.6 782.34 705.08 778.83 704.85 775.73 705.98 770.65 710.86 764.71 713.81 758.32 716.44 752.75 717.95 745.72 720.36 742.99 721.78 738 726.34 736.19 730.41 736.21 735.31 737.11 739.66 739.54 745.13 743.98 756.41 745.63 761.34 747.36 765.03 753.41 773.88 759.96 780.76 761.24 783.13 761 786.79 758.6 789.78 753.27 792.65 750.69 794.78 738.71 807.02 735.76 808.69 733.83 808.43 731.68 806.98 726.7 801.49 725.13 797.99 721.74 786.73 718.28 778.08 716.48 775.08 709.91 762.92 703.67 754.55 699.43 751.48 692.65 748.68 685.98 746.46 670.13 743 664.14 741.4 659.78 741.32 653.3 741.94 649.72 743.02 644.72 745.13 631.45 754.11 626.08 758.08 624.37 760.44 623.74 764.17 625.09 767.18 626.64 768.29 634.49 770.08 637.77 771.1 641.69 773 645.49 776.08 648.52 779.21 651.53 788.28 654.09 800.34 655.27 807.05 656.88 813.62 658.09 817.13 663.81 826.14 669.14 838.85 673.09 846.22 677.04 851.85 679.4 856.19 680.11 858.9 682.17 862.16 684.25 866.93 686.79 870.98 689.95 874.09 695.43 877.38 703.63 882.8 707.88 886.74 707.99 889.11 704.74 891.28 696.59 893.19 692.53 894.39 688.38 894.27 682.88 892.44 679.98 892.45 669.07 895.68 662.32 895.75 657.91 893.71 655.05 890.91 651.03 883.58 647.5 876.06 643.74 871.28 641.18 869.44 638.89 868.93 633.6 869.09 627.04 870.11 622.72 871.72 620.25 873.5 613.24 875.88 607.67 877.23 605 878.53 600.61 882.26 599.31 885.62 595.73 898.26 594.12 902.7 591.64 908.08 588.9 912.72 588.17 917.78 588.28 922.04 590.77 932.6 590.53 936.03 589.59 938.55 587.67 940.9 585.88 941.84 582.9 942.15 578.99 941.66 576.02 939.98 566.11 937.43 558.49 934.36 550.61 931.77 547.89 931.15 544.59 931.25 540.44 933.58 538.09 935.96 536.18 940.36 534.16 943.09 532.33 944.32 524.59 946.44 514.51 947.46 509.96 949.29 506.86 951.72 506.5 953.39 496.43 949.4 492.06 949.38 486.36 954.31 481.83 956.77 478.7 957 477.37 955.46 477.78 952.19 479.59 947 480.09 942.85 477.61 938.16 474.49 936.4 471.3 933.25 470.07 930.65 470.62 928.45 473.56 924.67 476.23 922.59 483.95 919.77 487.21 918.22 487.41 916.91 485.6 914.69 478.07 910.69 475.46 908.76 472.59 907.78 465.57 907.54 459.37 908.3 453.48 907.85 449.88 905.42 446.54 901.61 445.09 897.86 440.55 894.94 436.75 893.8 431.38 894.76 426.91 898.98 425.41 899.93 421.66 900.42 417.81 900.14 414.7 898.14 411.48 894.51 411.14 893.4 411.65 886.26 410.59 882.54 409.24 880.84 403.17 876.45 397.11 871.47 394.76 871.39 392.92 879.58 390.87 885.01 388.7 888.9 386.57 891.67 384.71 890.62 382.83 887.8 381.2 883.24 378.47 881.15 373.49 875.56 369.7 870.32 367.78 863.46 366.49 861.48 362.94 858.24 361.52 855.56 360.16 855.69 356.15 863.28 353.8 863.19 352.07 861.32 347.42 859.83 338.72 863.27 335.22 863.49 328.34 857.88 323.2 852.9 322.61 849.74 323.62 848.02 322.82 841.31 319.63 836.33 317.17 834.13 309.42 831.48 304.1 825.93 298.32 824.34 293.51 819.65 291.78 816.66 291.39 814.73 293.44 812.18 298.05 810.6 300.45 810.26 305.71 810.9 311.45 813.68 320.59 816.09 323.03 817.33 326.04 816.11 325.92 815 321.78 812.24 319.75 808.5 314.77 800.83 314.15 795.73 307.66 790.69 307.08 789.79 300.41 784.65 296.74 784.09 292.95 784.3 288.84 785.44 284.84 784.96 283.02 786.08 278.18 786.48 271.97 784.92 265.64 784.64 264.34 785.18 257.68 783.43 254.4 783.92 252.91 782.64 253.16 780.84 258.87 776.38 259.39 773.81 257.97 770.58 256.92 765.76 253.75 762.19 252.64 757.31 253.65 752.76 253.16 749.37 255.01 748.37 258.67 749.25 259.38 747.02 258.39 743.81 254.28 736.32 249.87 732.7 245.86 732.71 243.01 731.51 238.93 732.17 233.52 730.52 232.46 728.39 232.88 724.55 223.76 722.2 220.33 721.05 212.14 717.01 210.21 717.06 205.08 718.62 202.49 717.36 200.3 717.13 201.17 714.14 200.48 709.8 200.25 704.76 198.92 702.45 196.93 700.89 191.55 697.95 188.83 695.78 190.13 692.64 190.29 689.95 188.2 688.61 190.02 686.86 187.93 682.89 184.53 681.22 182.04 679.32 181.12 675.74 203.7 474.22 195.45 475.85 191.8 476.84 189.32 478.74 187.97 481.39 187.87 483.37 189.67 490.55 188.93 493.27 178.06 502.24 176.03 503.53 172.07 504.41 167.16 504.46 180.28 426.69 173.13 422.97 168.4 421.22 166.04 419.22 160.87 415.94 153.7 412.38 149.79 409.19 146.26 403.58 145.64 401.5 142.79 399.12 140.63 394.5 138.29 392.52 138.79 389.79 137.32 386.23 133.75 385.25 134.42 382.76 126.95 376.04 125.68 372.33 126.77 366.07 126.33 364.77 123.2 363.57 119.67 357.72 117.86 352.74 115.91 351.76 112.15 351.17 111.01 348.63 110.79 345.94 109.35 341.27 106.16 339.66 104.3 337.07 101.82 337.24 100.64 336.24 96.49 335.51 90.12 331.26 86.44 329.19 84.69 325.36 83.91 320.54 82.81 319 82.86 315.15 80.84 312.83 76.25 311.87 70.34 309.17 65.28 305.77 64.61 303.89 64.36 299.99 63.61 298.11 60.31 294.5 59.66 287.89 58.7 285.57 58.06 281.65 56.6 281.36 54.79 283.37 52.21 284.76 46.49 284.5 45.98 283.65 46.72 279.42 42.03 276.1 32.42 267.63 30.47 267.32 25.39 270.11 19.91 270.9 18.53 269.88 16.71 264.92 77.16 208.32 28.89 165.78 30.14 165.23 32.1 157.96 33.76 155.04 35.47 148.19 38.47 144.34 42.72 142.08 43.23 140.6 41.09 136.38 39.74 130.85 40.97 125.8 40.09 120.96 35.89 118.91 30.12 115.35 25.03 111.7 20.84 107.35 12.84 100.75 9.77 99.03 1.06 96.97 1 94.71 8.76 95.44 12.09 94.81 15.23 93.11 19.54 87.24 24.34 85.33 28.61 84.15 37 82.48 40.83 82.1 46.41 80.75 51.36 77.77 55.54 72.76 57.43 69.52 58.56 65.84 56.54 62.6 56.19 60.11 56.29 54.56 57.25 49.81 58.06 42.67 59.45 39.32 113.12 121.85 191.58 152.91 312.99 121.66 331.49 79.72 333.27 80.86 340.94 82.37 342.67 80.99 341.43 77.89 347 78.48 351.71 77.76 359.08 75.58 363.27 75.29 371.64 75.66 375.53 76.48 380.26 75.88 381.84 76.15 384.46 78.81 384 80.7 380.31 84.79 380.06 88.4 382.56 92.77 385.19 92.5 388.12 91.01 392.6 91.72 393.59 89.55 396.71 86.89 397.15 85.14 401.39 83.89 399.48 82.3 401.36 81.4 407.08 81.17 411.52 84.91 420.31 91.48 427.13 89.65 430.76 89.46 434.72 89.97 436.19 85.75 435.87 84.09 439.07 80.69 442.85 80.64 447.04 76.98 449.99 77.85 453.12 77.31 459.32 74.43 460.57 73.25 461.15 69.29 461.83 68.14 465.13 66.42 466.45 66.36 469.75 69.95 471.64 70.3 474.15 69.39 477.02 70.25 478.15 71.85 479.75 71.89 482.19 67.44 485.04 67.02 488.2 67.49 491.73 66.05 494 62.02 495.7 60.01 497.19 52.94 498.44 52.88 504 54.22 506.93 55.43 510.81 56.25 512.05 60.06 513.12 61.46 516.14 62.25 519.17 59.59 521.97 57.98 525.93 50.55 532.9 49.35 536.83 46.59 541.55 47.25 541.61 49.3 542.77 50.21 545.46 47.94 546.53 45.86 548.06 45.01 551.01 41.06 552.06 38.84 554.66 38.36 555.85 41.26 557.77 42.13 561.72 37.72 567.79 36.4 571.81 33.91 575.65 36.84 576.61 35.79 579.59 30.15 582.87 28.9 583.26 27.4 588.52 24.68 593.27 24.4 595.41 21.33 598.31 19.48 600.63 16.86 608.51 13.92 612.3 11.77 614.52 8.98 615.63 8.87 618.01 5.7 622.35 3.74 628.14 1.66 631.02 1.39 634.75 1.73 639.31 1 642.61 2.12 645.41 2.18 648.62 3.15 651.22 2.69 653.67 3.84 655.98 5.98 659.4 7.09 Z"/>
</g>
</svg>