<?xml version="1.0"?>
<svg xmlns="http://www.w3.org/2000/svg" version="1.2" baseProfile="tiny" width="800" height="693" viewBox="0 0 800 693" stroke-linecap="round" stroke-linejoin="round">
<g id="4219176">
<path d="M 452.02 24.74 454.91 24.92 456.66 26.14 458.97 30.34 459.56 32.69 459.24 34.39 457.95 36.38 453.52 40.05 452.1 43.08 452.2 44.62 454.19 45.35 461.24 44.22 464.97 45.61 470.37 48.27 472.12 48.12 474.25 45.21 475.43 42.44 476.23 41.96 479.01 42.64 481.21 44.07 482.42 44.15 488.91 43.38 497.24 44.76 501.02 45.14 506.35 43.34 509.42 43.5 510.22 45.97 512.34 48.25 512.97 50.76 515.98 55.61 517.46 58.53 520.38 58.55 523.13 59.6 524.32 59.44 526.05 57.23 526.47 55.07 527.6 52.72 531.03 49.45 532.27 47.57 537.07 43.68 537.43 41.43 542.63 39.96 545.78 39.62 547.74 40.81 549.54 39.97 551.76 41.81 551.77 43.76 552.97 46.02 553.12 47.75 554.96 50.7 558.38 52.28 559.63 53.34 560.41 55.44 562.54 59.09 563.44 66.2 563.31 67.97 560.89 74.14 556.23 79.53 556.92 82.21 558.13 83.99 557.74 87.91 558.46 89.88 556.07 94.35 552.29 98.2 552 99.33 553.8 102.13 553.75 107.08 551.1 110.73 549.24 114.81 547.89 116.05 548.83 120.54 549.91 124.34 551.41 125.96 554.48 127.58 555.26 128.92 555.26 130.93 556.77 134.05 560.13 135.26 560.38 138 559.81 139.81 560.21 143.08 561.99 144.62 564.6 144.97 565.44 146.68 565.21 150.25 562.88 152.78 564.26 157.44 565.09 159.17 564.63 163.01 562.77 166.22 619.72 149.08 619.61 150.14 615.58 153.42 612.62 157.13 609.58 163.22 610.74 164.34 612.82 169.96 613.8 174.92 613.66 179.9 612.33 184.73 612.01 190.17 610.54 193.18 614.16 197.18 615.33 200.06 617.54 201.58 618.33 203.02 616.82 205.62 617.04 208.04 618.53 209.28 617.47 210.12 618.68 212.82 619.1 216.02 621.34 216.85 622.63 217.98 623.95 217.49 626.87 219.31 627.34 221.72 625.05 222.49 624.76 225.02 626.01 229.65 624.25 230.55 621.65 232.94 622.97 235.18 622.87 237.36 620.53 238.68 615.73 240.27 611.9 240.68 610.08 241.73 604.05 241.85 601.35 242.22 600.42 243.65 597.83 243.39 595.47 241.77 593.72 243.25 589.54 244.97 587.98 244.66 588.45 243.25 586.99 242.83 585.83 244.26 582.66 245.6 580.9 245.47 580.01 244.52 576.72 244.34 575.61 245.74 577.07 249.4 576.45 253.1 574.64 255.15 572.06 256.34 570.5 258.25 569.75 261.21 568.77 261.83 568.28 265.46 566.26 267.09 568.17 270.97 567.3 273.76 563.74 276.56 565.02 277.87 564.43 281.32 564.5 283.48 566.24 286.67 563.95 287.53 564.43 289.05 563.62 292.2 566.01 292.13 563.97 294.29 561.37 293.55 562.27 295.6 561.66 297.23 562.09 298.85 563.3 299.43 564.68 298 566.06 299.98 569.42 299.17 569.11 297.82 566.94 296.27 567.74 295.63 572.22 295.85 573.21 297.3 577.22 296.32 579.61 296.63 580.18 297.73 582.18 297.12 582.68 301.33 584 301.91 587.43 301.25 588.97 302.82 590.23 302.33 594.12 303.72 596.62 303.15 599.47 301.74 602.46 301.2 603.94 300.36 608.79 299.73 611.71 299.8 613.07 301.5 612.74 303.53 614.14 303.92 616.84 303.27 617.44 305.52 618.52 305.84 619.81 304.14 622.24 303.2 623.81 304.8 624.37 302.97 625.48 302.58 628.96 304.88 630.1 303.34 634.61 303.46 635.95 302.8 639.05 300.05 641.31 299.09 640.22 297.5 641.07 295.58 641.97 291.81 642.18 286.93 643.8 285.58 645.79 287.81 646.08 288.92 648.29 292.63 655.72 298.21 660.33 299.6 660.97 296.48 663.47 295.27 664.96 295.62 666.1 297.04 668.47 297.39 668.66 298.71 673.22 299.4 675.26 299.21 678.38 296.66 680.59 296.16 682.31 298.65 685.25 300.16 685.45 302.72 687.26 303.69 690.19 304.06 692.08 304.8 695.5 307.33 698.56 308.12 701.31 309.48 705.7 309.72 711.52 308.51 718.15 309.48 720.16 308.7 722.58 308.68 726.71 307.11 729.91 307.65 732.19 308.66 734.5 308.97 737.1 308.59 739.66 308.96 741.47 310.06 744.15 312.98 747.11 312.82 748.79 310.33 751.73 311.98 758.28 312.69 761.23 313.35 763.73 314.8 766.05 317.18 770.38 318.28 773.24 317.65 776.65 315.73 778.31 315.7 783.35 316.83 790.51 319.2 793.5 318.96 792.89 321.51 795.93 322.48 799 324.1 798.75 325.68 796.47 325.57 792.01 327.39 788.61 326.46 786.5 324.82 782.66 326.76 780.49 327.22 777.91 325.96 775.92 324.2 773.69 325.19 772.06 327.39 768.4 328.78 764.71 329.31 760.29 330.95 757.72 331.36 754.68 332.4 751.88 334.44 749.91 336.62 749.84 339.39 747.11 340.32 744.55 342.67 742.14 344.05 734.86 341.93 731.83 343.86 728.05 347.2 725.19 348.01 721.23 348.44 716.07 348.42 709.78 349.57 707.48 349.23 703.61 349.71 697.71 348.54 694.21 348.2 689.07 348.43 687.61 349.54 687.03 352.99 687.13 354.9 684.33 357.58 679.95 360.27 678.58 361.45 672.65 362.97 667.76 366.98 664.81 367.04 662.2 368.18 659.33 371.66 656 373.4 651.61 374.54 649.15 376.26 647.82 378.27 643.16 381.6 640.41 383.89 638.73 386.16 637.83 388.29 636.15 390.43 633.73 390.12 631.03 387.93 628.34 386.94 625.33 383.76 623.61 382.46 621.09 379.15 618.27 378.36 615.09 378.5 612.37 379.69 608.04 380.17 606.52 380.67 602.6 384.36 602.31 385.71 600.91 386.46 597.07 386.52 595.37 387.21 594.57 389.71 589.84 396.02 586.94 401.4 577.59 409.27 578.27 413.19 577.83 414.46 574.27 419.24 573.74 423.28 570.72 425.32 570.02 426.82 567.63 428.6 564.74 430.11 564.66 432.86 560.79 436.89 561.17 439.41 559.08 440.74 558.75 444.94 556.16 445.71 555.08 446.57 553 446.23 551.92 447.3 551.92 449.86 553.5 452.77 551.97 454.29 552.38 456.98 551.15 458.72 551.16 460.45 548.38 463.1 548.18 465.7 546.24 467.96 545.27 476.84 542.01 480.37 542.1 481.2 544.69 483.91 544.22 487.7 546.45 490.86 548.58 491.54 549.01 494.42 553.1 495.08 555.1 499.03 559.4 503.35 564.37 504.07 563.73 506.45 564.47 508.26 566.66 510.1 568.13 509.52 571.5 511.86 571.69 514.12 575.21 514.38 577.28 513.64 578.17 515.16 581.31 516.35 584.19 516.94 585.16 518.03 583.02 520.46 585.11 522.14 585.32 523.75 584.47 525.42 581.3 527.81 580.41 530 584.32 531.73 585.66 533.1 583.98 535.44 585.57 539.47 587.28 541.33 587.6 545.17 585.4 547.22 584.25 550.58 582.07 549.17 580.09 549.12 577.2 550.77 575.05 550.68 573.07 551.45 571.27 551.22 567.16 552.61 565.38 552.16 563.38 550.87 561.61 548.77 557.26 548.11 553.71 546.05 552.42 545.75 549.42 546.14 542.47 543.7 538.2 545.96 530.29 539.86 462.8 607.92 460.68 607.99 457.95 609.44 455.57 609.64 451.54 613.25 450.8 614.99 448.62 622.76 443.94 626.52 440.04 627.72 437.35 627.71 434.01 628.47 432.28 635.35 432.37 637.63 433.63 640.18 433.79 642.07 432.45 643.09 426.7 644.65 425.94 647.65 423.55 653.53 422.08 653.87 414.32 652.19 410.2 652.61 406.88 653.36 404.52 652.53 403.3 650.85 401.59 650.69 400.31 652.39 400.47 654 399.73 655.72 396.35 657.39 393.81 658.03 385.85 658.22 383.58 659.32 380.18 663 377.55 664.61 377.65 666.45 376.91 668.61 374.96 671.6 372.6 673.68 371.29 674.22 368.43 673.73 365.2 671.79 361.67 673.17 357.7 672.85 354.82 670.64 353.87 667.87 354.23 665 351.5 662.09 346.69 659.16 342.89 657.79 340.69 657.49 334.39 659.23 327.86 662.06 323.08 662.91 322.01 664.77 323.83 668.16 325.07 668.94 330.4 670.25 333.46 671.73 335.22 673.02 339.06 674.82 340.17 675.94 341.7 679.77 341.42 684.18 342.15 685.96 342.07 688.87 341.19 690.14 339.07 690.52 330.18 686.8 327.14 686.74 324.95 687.23 322.09 689.11 320.4 689.23 317.62 687.85 315.53 687.89 250.06 692 244.7 690.31 240.67 687.6 238.6 685.71 237.5 685.82 233.29 688.23 230.32 688.96 229.6 687.04 230.86 683.2 229.33 678.91 230.72 676.12 233.35 673.7 231.94 671.34 227.68 669.16 224.99 667.08 217.57 668.58 215.59 666.68 211.13 666.1 208.85 665.17 210.06 660.24 206.94 656.66 205.67 656.01 200.95 656.54 198.85 656.11 197.55 655.23 197.66 653.21 195.04 651.26 191.72 650.28 188.9 650.86 185.58 648.8 183.15 646.54 176.41 646.04 173.28 643.85 173.57 641.71 177.66 637.18 179.4 637.4 183.9 640.14 184.81 641.38 187.38 640.79 189.19 639.59 190.59 637.6 191.55 634.67 189.51 631.55 187.64 630.93 185.92 631.1 181.74 632.58 179.5 631.69 180.04 629.58 178.08 628.5 173.49 628.21 170.85 627.57 169.61 629.64 166.63 630.72 163.6 628.25 162.51 625.73 164.4 617.9 164.21 616.7 160.84 617.29 160.22 616.23 161.92 614.78 164.17 610.33 164.64 606.82 162.73 604.36 160.98 606.09 159.21 606.44 158.29 605.05 157.53 602.32 156.54 601.02 152.15 598.66 151.41 597.12 151.88 594.09 150.84 593.17 148.52 592.63 146.55 591.57 142.21 590.28 137.52 587.46 137.48 583.76 136.42 582.65 134.01 582.7 134.05 581.32 136.57 578.5 137.28 574.78 136.24 574.74 133.68 577.21 130.48 578.65 128.92 577.98 126.02 577.79 123.54 575.76 122.72 573.8 121 573.14 118.8 571.19 118.52 568.29 116.63 566.15 113.3 563.8 112.4 562.02 110.32 561.72 108.2 559.61 107.84 557.22 105.07 556.46 104.73 553.58 101.07 551.45 99.86 549.8 97.28 544.54 96.37 544.05 93.08 544.03 92.4 542.24 89.84 540.18 89.87 538.71 88.05 536.79 88.42 535.07 87.07 533.98 84.11 534.25 84.73 532.43 80.67 531.43 78.66 530.47 76.25 527.12 75.03 526.23 69.6 519.72 67.47 517.99 65.61 517.51 66.38 515.43 64.67 514.52 62.78 512.66 60.86 512.05 59.25 509.64 55.99 507.16 54.87 504.81 52.78 503.82 52.95 502.66 54.73 501.91 50.22 499.51 48.58 499.52 46.14 496.42 44.37 495.81 41.74 496.03 40 494.68 38.42 495.45 35.39 495.21 31.71 492.77 31.17 491.27 27.25 488.48 25.56 489.37 23.03 487.46 20 486.56 16.48 483.68 13.83 480.1 12.24 479.01 9.59 479 8.3 477.3 5.76 475.46 4.1 472.69 4.45 469.09 4.1 467.92 1 463.57 1.92 461.61 5.02 458.08 6.08 455.15 5.77 452.24 4.53 450.27 2.42 448.93 6.29 447.1 9.44 444.67 19.67 432.09 23.81 428.58 29.24 425.87 34.69 424.06 38.18 421.96 44.36 417.67 53.15 414.44 55.15 414.01 61.84 414.01 66.42 411.81 71.61 408.42 75.23 405.53 78.93 401.81 83.01 396.11 85.34 391.41 88.44 383.65 90.4 380.87 93.19 378.79 98.33 376.11 102.35 373.65 105.46 370.63 112.97 362.65 118.14 358.37 120.99 356.32 123.87 353.76 126.54 349.83 133.57 331.74 135.59 328.59 142.76 321.79 139.96 318.16 137.9 310.4 135.88 304.33 134.18 301.89 133.56 299.79 133.56 295.83 130.69 289.55 129.3 288.21 129.58 286.21 131.22 284.56 130.64 282.48 126.32 279.23 125.64 276.59 124.55 275.21 120.96 275.16 121.59 273.28 122.19 268.83 123.79 264.83 125.01 258.98 126.82 255.35 128.17 251.1 128.34 247.77 127.4 244.58 128.94 240.72 129.3 238.82 128.53 236.61 124.98 234.11 123.36 233.46 118.09 230.48 116.15 227.86 116.28 223.27 118.15 219.87 120.43 218.11 124.68 217.02 130.9 216.19 136.86 214 139.19 212.06 141.25 209.01 142.13 207.04 143.16 202.63 142.74 198.83 142.88 192.66 143.28 190.98 143.48 181.05 142.62 176.65 143.08 172.15 144.48 168.59 143.54 166.27 140.93 162.46 139.52 158.12 139.16 153.86 139.25 148.62 137.99 145.91 137.98 142.42 138.82 141.4 142.3 140.77 145.99 138.65 147.71 138.17 150.95 138.17 152.59 137.02 152.41 134.31 151.28 132.26 151.3 130.59 152.52 128.03 152.03 126 148.59 122.79 147.03 118.94 144.46 116.53 143.73 115.31 144.54 112.59 149.47 109.26 151.96 106.23 153.42 102.07 155.47 99.04 157.95 96.96 158.68 95.32 158.65 92.63 156.52 88.58 154.88 87.33 153.76 85.26 150.66 83.85 147.93 78.43 148.04 74.93 146.6 72.64 146.86 69.42 148 66.48 148.26 63.61 147.48 60.99 149.39 57.99 149.5 54.61 148.49 52.92 148.8 51.2 148.32 47.8 147.98 42.52 147.29 41.53 144.3 39.48 142.77 39.11 141.06 42.84 136.09 43.43 132.24 43.25 127.4 42.11 124.96 40.18 125.24 38.53 127.62 36.17 129.66 35.3 132.91 34.64 140.01 34.57 142.04 33.54 141.5 31.44 138.54 29.89 138.07 28.81 139.3 27.53 143.18 27.29 145.08 27.77 147.12 27.37 150.1 25.06 151.85 22.98 153.3 19.58 157.72 18.95 163.21 19.3 168.35 20.68 169.17 23.03 168.03 25.77 167.38 29.78 167.61 33.54 163.9 36.9 162.12 39.36 159.93 43.88 158.47 48.04 158.88 52.01 161.29 52.52 165.71 49.01 170.08 46.32 173.66 43.27 179.88 38.49 183.65 36.67 186.06 37.84 186.16 39.91 185.72 44.55 184.91 45.9 181.49 48.21 177.82 48.37 174.63 50.17 172.8 53.25 172.21 56.77 174.58 59.09 183.45 61.64 184.74 62.46 185.3 64.18 184.74 65.38 184.86 69.59 184.07 74.81 184.9 79.95 186.82 82.07 193.13 85.79 197.52 86.14 199.56 85.36 199.91 83.12 198.89 81.95 197.94 79.11 199.15 76.51 199.41 72.87 198.05 69.58 197.56 67.32 197.71 63.31 198.93 62.52 204.02 64.03 206.7 67.24 208.58 68.18 211.71 67.99 224.64 68.37 225.36 67.19 223.59 63.96 222.73 60.59 220.12 53.91 218.86 50.04 217.61 47.8 218.72 46.22 223.49 47.39 225.05 47.16 230.72 44.27 235.07 43.86 237.46 42.84 240.47 39.83 246.52 37.19 248.33 36.92 252.52 37.43 259.22 39.46 263.34 41.3 267.17 45.72 267.7 46.9 267.98 50.33 270.71 55.82 273.23 58.1 275.52 59.5 277.22 59.68 278.67 58.97 280.69 51.27 281.58 50.54 285.66 50.83 287.1 50.43 289.86 48.5 292.97 47.97 297.97 48.47 301.53 48.38 302.3 45.88 299.45 41.28 295.96 37.88 296.87 35.47 300.7 35.51 301.5 34.67 301.57 32.79 300.28 24.41 300.94 22.61 304.36 19.71 305.01 18.04 304.19 16.55 301.2 15.38 300.52 13.31 300.41 8.59 302.75 3.2 306.86 2.97 309.31 1.07 312.91 1.45 314.6 2.58 315.75 7.67 315.99 12.26 316.58 14.56 318.7 17.27 321.77 18.17 329.45 13.2 333.09 9.56 336.38 4.06 337.58 3.13 342.37 1 346.59 1.01 354.03 4.79 359.16 6.58 357.79 9.37 356.39 10.21 354.97 12.06 349.9 12.84 345.48 14.47 344.49 16.39 345.4 18.73 347.65 18.92 350.84 17.85 357.74 18.11 359.99 19.28 366.79 23.5 371.14 24.86 374.89 22.99 372.49 21.45 370.54 19.13 368.7 14.28 370.5 9.02 372.49 7.08 374.24 6.92 376.36 7.52 379.27 9.58 380.79 11.21 384.78 13.72 386.81 16.17 388.06 21.85 389.27 24.64 392.15 28.7 394.04 29.93 396.62 30.38 399.44 28.61 402.9 24.6 404.47 23.62 407.16 23.88 407.79 26.24 407.34 32.96 405.55 36.65 403.61 39.47 404.32 41.36 406.18 42.71 410.22 44.59 417.33 46.65 421.36 47.01 423.21 46.83 425.33 44.46 425.13 43.02 423.47 42.49 418.58 42.7 417.06 42.45 416.79 40.17 418.1 36.56 418.21 33.59 419.21 32.11 421.67 31.67 428.25 33.56 429.64 35.23 430.94 38.4 435.86 43.13 440.18 44.94 441.83 44.75 443.39 42.45 443.46 40.47 442.42 39.28 440.66 35.34 439.98 32.81 439.93 28.83 439.4 26.38 437.63 24.42 436.76 21.98 439.68 20.83 440.54 21.29 443.78 25.06 448.18 28.4 450.54 26.59 452.02 24.74 Z"/>
</g>
</svg>