<?xml version="1.0"?>
<svg xmlns="http://www.w3.org/2000/svg" version="1.2" baseProfile="tiny" width="800" height="374" viewBox="0 0 800 374" stroke-linecap="round" stroke-linejoin="round">
<g id="4219408">
<path d="M 607.35 14.44 605.08 18.25 605.75 22.49 605.31 24.04 602.19 27.33 601.93 29.3 603.59 32.24 605.46 34.37 607.95 36.49 608.75 40.11 611.78 41.98 617.59 44.17 619.86 46.27 622.29 47.29 625.32 51.38 628.71 54.46 633.49 56.47 638.04 60.11 641.66 62.42 645.73 63.46 649.48 65.95 651.81 66.91 660.39 69.32 663.27 70.71 665.94 71.46 669.26 71.75 675.79 73.75 681.41 74.72 687.12 77.99 690.28 81.12 694.72 84.2 695.98 85.6 703.03 90.2 704.17 90.48 709.08 90.38 713.67 90.76 717.12 90.51 720.97 88.69 723.03 88.74 724.69 90.44 727.79 89.95 733.22 90.92 736.21 88.78 739.17 87.94 744.97 87.7 747.11 88.72 748.87 93.34 749.85 97.21 750.77 102.64 752.16 105.78 755.04 106.78 758.36 106.92 763.51 105.52 768.65 105.33 771.27 105.71 775.74 105.32 778.28 106.43 782.46 106.62 784.44 107.21 785.98 108.68 788.92 108.75 792.42 106.81 796.1 106.06 799 107.04 794.43 110.05 793.7 112.26 795.87 116.9 797.04 118.73 796.57 120.28 793.68 124.3 792.86 127.19 790.45 131.77 788.94 133.85 785.07 137.01 784.92 139.77 785.95 143.68 785.28 151.99 783.34 154.73 783.15 156.12 784.52 160.65 785.73 162.36 784.31 168.18 781.33 170.38 780.2 172.27 783.75 175.85 783.91 178.73 783.36 180.66 782.43 181.12 779.99 180.86 778.8 181.52 777.45 184.55 776.03 185.23 773.88 185.32 768.6 187.82 766.85 188.93 763.78 189.86 762.02 191.92 761.07 194.56 760.92 196.39 759.39 199.18 761.12 202.5 760.43 204.72 757.28 205.4 755.73 207.12 754.57 207.36 752.34 209.91 750.05 215.28 747.92 217.26 747.09 219.38 746.65 223.48 742.51 227.97 739.3 228.8 737.52 231.3 737.2 234.71 735.35 237.33 731.08 240.81 729.99 242.25 717.46 242.35 711.54 242 707.02 242.2 702.3 243.29 700.51 244.3 698.15 244.78 694.22 246.61 691.59 247.11 684.63 244.08 680.49 243.19 679.06 238.16 677.26 237.45 674.51 238.11 670.13 236.89 668.29 237.32 667.66 239.22 668.55 241.75 667.95 243.19 665.92 243.55 664.18 245.33 663.71 247.63 657.1 249.84 653.97 249.13 649.66 246.87 646.57 246.06 645.8 245.18 644.16 240.95 641.95 240.86 639.97 242.87 638.22 243 635.66 245.12 633.84 247.51 636.64 249.84 636.19 250.96 633.95 251.34 631.61 253.07 630.45 257.09 630.67 258.76 630.09 264.25 627.32 263.9 625.15 264.73 622.7 263.74 619.56 264.71 617.35 264.38 616.39 262.75 613.13 262.62 613.08 259.34 611.49 256.28 609.55 254.61 608.17 254.62 603.82 252.43 600.9 252.09 600.54 251.37 596.72 250.7 595.27 249.59 591.4 248.67 591.23 245.06 593.13 243.95 597.21 240.72 599.22 239.86 602.12 237.5 603.43 234 603.38 232.09 602.35 230.14 601.78 226.84 601.46 221.75 600.03 220.66 598.41 222.03 597.35 224.47 594.21 227.85 592.03 228.44 589.31 227.69 585.41 227.51 580.89 229.03 576.01 231.68 572.83 234.5 571.18 234.65 567.65 235.92 561.74 235.9 560.63 235.36 556.77 231.55 553.62 229.69 551.57 230.09 543.47 228.17 540.09 226.3 537.19 223.75 532.21 222.64 532.13 221.88 534.83 217.31 533.06 215.22 532.04 207.82 532.89 205.87 532.82 204.51 534.68 203.18 534.92 200.91 537.02 200.18 541.4 193 542.87 191.26 544.39 188.57 543.43 183.92 540.63 183.82 537.86 184.54 529.61 188.65 525.8 191.82 522.37 196.63 518.95 200.67 518.73 201.77 520.33 203.1 519.16 204.17 516.81 204.59 515.85 205.33 513.59 209.31 514.07 211.18 512.47 211.42 511.24 213.07 511.45 214.38 509.56 214.81 505.8 219.93 504.2 224.62 504.76 226.81 503.16 227.37 502.33 229.21 502.89 232.46 505.29 234.36 502.79 235.21 502.17 237.77 502.95 240.01 500.12 238.2 497.59 235.56 495.77 234.89 492.52 235.02 492.49 232.38 489.4 231.18 487.08 230.7 483.96 230.7 483.83 228.62 481.27 228.25 477.93 230.06 474.45 233.46 464 227.64 461.08 226.54 457.51 226.16 454.69 226.62 449.6 225.15 447.85 222.82 448.45 220.21 451.88 219.07 452.92 218.27 453.88 215.64 454.14 212.92 455.48 212.24 457.27 210 458.99 206.71 458.86 204.45 460.12 204.53 461.73 203.06 462.46 198.12 463.93 191.81 465.91 188.52 465.38 186.54 463.93 186.14 461.51 187.52 459.04 191.05 458.08 193.05 456.61 193.75 454.77 192.73 448.96 194.34 444.32 195.13 437.51 196.6 434.06 197.6 432.42 196.58 429.9 197.49 426.41 196.03 424.25 189.39 422.63 188.96 421.01 193 418.57 196.01 416.48 197.43 413.83 196.93 409.98 198.96 408.7 200.37 410.11 201.48 409.59 203.06 407.62 203.52 404.04 203.21 402.55 203.88 401.31 201.68 398.58 201.61 397.96 199.8 395.03 198.63 392.7 197.14 390.15 197.71 388.93 199.01 388.52 201.33 388.77 203.71 389.66 207 391.72 212.42 394.06 217.27 394.31 218.71 392.8 225.08 393.03 226.91 391.22 228.35 389.03 230.89 388.6 234.8 387.28 239.58 386.2 241.47 383.52 241.88 381.95 241.49 379.47 239.89 375.76 239.57 369.97 239.94 368.16 240.5 365.17 242.41 363.96 242 360.14 239.06 360.7 235.12 360.62 231.91 362.06 230.16 362.87 227.7 364.44 227.12 366.29 224.32 368.01 220.77 368.09 218.68 366.03 216.51 363.41 215.17 362.58 213.92 363.46 209.87 362.09 206.88 362.61 204.78 361.34 203.24 358.72 201.53 356.66 200.89 354.49 200.94 352.42 202.29 347.89 203.59 346.38 204.69 341.53 209.44 337.79 213.55 337.66 215.09 338.41 216.39 336.82 216.88 334.34 215.19 331.42 215.05 328.68 213.2 324.07 211.01 323 208.96 320.64 206.44 317.81 206.21 317.16 207.6 318.03 210.05 318.52 215.84 319.46 220.55 321.29 225.31 320.7 230.86 321.57 236.07 322.76 241.12 320.23 244.86 318.33 250.72 316.02 254.58 315.93 259 319.61 264.6 317.75 265.86 314.06 267.07 313.29 268.58 312.39 272.34 312.67 276.01 314.44 280.15 314.21 283.07 313.2 283.97 311.23 282.93 305.29 280.73 303.48 275.49 302.31 272.9 299.96 269.19 297.14 266.35 297.16 264.36 298.6 262.73 299.01 258.87 298.16 257.66 295.56 256.05 294.36 253.29 291.03 247.88 290.41 242.5 288.81 238.67 287.02 235.94 283.77 234.69 284.76 232.14 281.66 215.77 280.66 212.6 279.58 211.04 278.01 211.54 277.21 214.02 276.22 215.2 275.37 217.73 276.54 221.55 275.26 221.57 274.89 219.12 272.08 218.6 270.39 220.21 267.29 218.61 264.06 221.33 262.83 223.09 262.83 224.51 261.15 225.63 259.17 230.7 256.11 230.72 255.52 229.18 251.87 228.16 250.57 223.62 249.14 222.47 246.94 222.03 245.23 222.63 244.1 224.75 242.11 226.88 241.23 230.19 239.52 231.68 238.3 235.07 238.35 237.71 236.43 240.87 236.59 243.28 240.94 245.47 241.66 247.41 240.72 249.48 241.2 251.15 239.78 252.15 240.42 256.22 241.71 258.28 245.48 260.7 248.44 261.62 248.45 262.37 246.08 264.86 242.92 266.4 241.6 269.59 241.65 272.01 244.19 276.47 245.81 278.23 250.04 280.04 253.59 280.04 257.09 279.16 258.38 279.8 258.82 281.61 254.06 282.24 251.86 283.04 251.31 285.22 252.55 287.99 251.69 290.39 252.96 293.17 256.21 294.79 257.22 295.97 256.89 297.54 253.9 298.5 250.18 297.57 249.82 301.69 250.02 307.03 250.84 310.8 253.13 315.37 252.32 319.96 251.31 321.8 248.78 319.82 249.02 318.12 247.5 316.46 243.92 317.05 245.68 315.29 245.23 313.5 241.23 311.77 243.58 310.67 243.61 309.73 242.15 305.71 240.59 299.72 239.61 298.26 236.9 298.06 235.22 299.11 232.58 301.68 231.91 303.09 228.91 303.97 228.2 303.26 229.38 301.83 228.76 299.23 224.98 298.53 222.92 299.07 223.71 296.51 229.48 296.89 230.96 295.38 231.32 293.72 230.42 290.7 225.2 290.17 227.82 288.33 229.07 286.51 232.16 284.97 233.19 283.41 231.7 278.72 230.67 277.82 227.19 279.21 225.28 279.03 229.69 276.06 230.16 273.8 229.85 271.64 229.07 271.26 224.72 272.93 223.86 272.67 228.64 269.19 228.76 266.59 227.63 264.94 227.63 261.12 226.15 258.79 223.62 258.99 223.56 256.67 220.28 255.33 216.27 255.76 215.41 253.15 217.45 252.31 219.06 250.59 218.86 247.64 216.43 245.45 215.22 243.09 211.22 242.43 209.95 243.06 210.29 245.77 211.45 248.25 210.39 249.79 209.22 249.82 206.24 247.64 205.16 247.44 201.52 244.22 198.51 244.82 197.43 246.04 196.74 250.72 198.08 251.5 197.64 254.27 198.6 255.41 197.71 256.8 197.24 260.32 195.83 264.6 195.72 266.59 192.89 266.85 191.71 267.57 190.19 265.98 189.91 263.31 187.86 261.94 186.36 262.23 185.51 261.3 186.99 260.26 187.76 257.87 186.36 253.99 185.02 252.96 182.62 252.85 183.59 250.85 183.4 249.73 180.81 247.41 176.97 245.96 175.04 245.83 170.69 246.44 167.7 247.83 167.09 249.29 166.44 253.5 162.06 252.84 161.07 250.01 157.03 249.87 154.14 251.19 154.05 252.86 152.38 253.08 148.65 252.3 147.48 254.13 148.36 255.26 151.8 257.68 153.01 260.98 152.93 262.99 153.67 264.61 154.36 269.04 153.35 271.49 151.75 271.58 151.54 273.01 152.71 276.17 151.41 277.96 149.15 279.04 148.65 279.93 149.53 281.98 151.37 282.61 152.21 283.95 151.26 286.26 149.29 287.98 149.78 290.05 149.45 292.56 150.5 293.78 152.07 297.33 155.14 298.76 157.15 300.97 160.27 302.76 161.42 304.12 159.84 306.07 159.46 308.73 158.49 310.93 157.97 313.86 156.75 317.03 156.98 318.01 159.72 319.87 158.78 329.66 157.02 333.17 151.34 335.34 150.73 337.32 148.04 339.3 145.73 339.91 144.35 342.16 141.8 342.82 141.2 346.63 142.35 348.5 148.37 353.26 151.84 354.8 154.1 355.05 162.32 353.62 167.71 351.72 174.87 350.04 181.19 348.94 185.18 347.13 187.02 345.67 189.06 344.92 192.11 344.68 194.78 344.95 196.93 345.91 198.49 347.54 200.34 353.45 202.76 356.45 204.67 357.94 202.54 360.33 201.88 365.8 145.51 370.61 117.94 373 45.5 350.79 45.9 330.16 44.29 329.92 39.72 327.18 38.55 327.01 36.09 327.95 35.62 326.73 37.1 325.39 38.05 322.97 39.13 322.06 39.42 320.34 37.54 319.04 35.57 316.28 33.66 314.75 31.38 311.53 28.1 309.2 26.64 307.61 24.55 303.94 21.29 297.6 22.04 294.82 24.49 292.26 25.43 289.07 22.8 287.99 19.68 287.65 17.23 284.94 17.29 282.85 16.06 279.53 16.13 277.58 14.38 275.53 11.6 274.16 10.99 273.14 11.33 270.54 12.62 267.28 12.52 266.13 10.84 262.49 10.82 256.49 8.21 250.51 8.11 248.13 6.85 244.13 4.53 241.06 4.29 236.05 2.25 233.76 1 230.49 1.54 228.55 5.01 225.24 11.65 219.54 13.31 217.8 14.83 214.68 15.05 211.57 16.07 209.19 15.72 203.88 15.03 202.72 12.66 201.44 9.72 198.82 9 197.63 8.9 192.4 7.6 189.43 7.5 185.54 6.54 184.11 9.21 174.75 9.7 168.11 11.72 164.86 14.3 163.15 15.11 160.57 14.94 156.81 14.17 155.25 13.92 149.46 15.92 146.55 17.5 145.13 19.44 144.44 23.33 144.2 25.41 143.45 28.49 138.35 30.56 137.15 34.15 138.18 36.94 139.35 44.09 136.29 46.71 135.45 51.43 135.5 62.54 138.36 65.22 138.05 67.33 136.02 71.16 134.59 75.73 134.68 79.04 132.92 82.5 132.58 83.7 131.66 118.84 90.13 213.81 89.6 214.68 89.1 217.66 84.21 218.45 81.26 218.53 78.07 219.61 76.77 223.02 74.71 227.47 69.15 228.46 67.45 229.92 66.32 234.63 67.06 240.63 69.3 242.45 71.2 243.22 76.48 244.23 77.96 245.55 81.26 247.96 82.65 249.99 84.97 252.95 81.04 254.38 80.32 256.08 81.37 255.81 86.57 256.39 90.28 256.47 93.33 258.7 100.32 260.59 103.98 261.49 104.47 266.18 98.48 269 96.41 270.69 96.39 272.65 97.45 278.62 102.42 279.31 104.15 281.37 102.89 285.16 102.55 285.87 101.87 290.12 100.56 290.5 98.4 292.15 95.32 291.84 93.64 289.81 89.92 289.67 88.41 290.4 85.72 289.67 84.53 289.5 81.72 290.08 80.71 292.15 80.13 294.62 81.86 295.52 84.38 296.5 84.87 299.31 81.91 301.59 80.22 303.06 75.11 305.02 73.64 308.32 75.12 310.11 76.5 310.63 77.93 308.99 82.32 310.32 83.69 312.9 81.98 316.83 81.49 319.31 82.45 318.84 80.68 316.68 77.71 317.45 75.84 318.83 75.51 320.89 76.25 324.16 79.48 325.64 79.72 323.32 73.63 325.21 72.43 330.78 73.11 334.25 74.44 334.92 71.16 337.69 70.36 340.09 70.82 341.88 68.51 344.35 67.21 347.44 67.34 350.61 67.92 353.51 68.06 354.8 66.23 355.36 60.05 356.05 58.48 358.33 60.26 359.57 64.55 362.23 66.56 366.28 67.66 368.86 68.81 371.06 71.29 372.97 68.44 374.53 66.88 376.12 63.02 377.55 61.4 379.26 60.76 377.97 59.25 377.09 56.46 377.71 52.83 379.37 49.4 380.47 48 382.34 47.34 384.15 48.14 385.58 49.73 386.19 51.74 390.21 50.8 392.55 51.77 393.69 57.26 395.25 57.81 396.76 53.53 396.74 49.34 398.75 47.36 400.47 48.11 402.21 50.07 403.14 49.34 402.86 42.03 403.46 38.99 404.5 37.07 410.7 41.1 415.05 45.54 415.56 47.34 417.87 46.39 421.08 46.03 421.73 43.43 422.96 42.49 429 40.35 427.28 38.7 427.9 37.88 434.61 33.97 437.19 31.02 439.67 25.36 440.8 25.83 442.23 28.14 442.5 31.46 443.63 32.1 446.41 32.4 447.01 34.25 446.65 36.33 444.12 38.47 443.6 39.64 446.91 39.77 448.5 41.75 449.54 40.35 452.4 41.23 452.95 40.74 451.09 37.63 453.87 35.2 452.3 34.18 452.57 31.85 455.9 28.71 458.24 27.2 463.58 24.89 466.74 22.39 467.78 22.66 468.22 25.44 467.12 27.64 468.22 29.59 468.58 33.2 471.06 32.07 472.13 28.44 473.2 26.87 475.62 26.56 478.23 27.77 478.42 28.92 477.25 31.34 478.61 33.16 480.99 32.77 481.43 31.6 483.82 31.38 485.37 35.43 484.56 38.09 485.73 42.17 487.15 40.82 489.09 37.22 490.3 36.28 491.7 37.55 493.38 43.13 494.81 43.81 495.95 41.5 495.61 39.65 497.06 36.31 495.02 35.68 492.61 33.23 492.59 31.46 496.38 30.55 496.05 28.67 496.71 27.32 493.27 27.76 491.59 24.58 493.67 23.65 495.65 24.05 500.39 24.19 504.34 24.68 506.09 23.85 508.22 23.71 512.43 22.19 517.85 18.78 522.13 17.31 522.7 15.84 522.04 13.75 523.91 9.36 526.05 12.4 524.78 13.28 525.14 16 524.59 18.88 523.34 20.7 521.01 21.44 523.07 24.72 524.05 22.83 527.47 20.18 528.52 19.87 530.99 20.6 532.69 22.42 534.89 21.53 536.27 22.44 539.11 22.91 539.04 25.06 541.78 25.64 542.92 24.15 544.62 24.69 545.16 26.95 546.07 27.74 547.77 27.07 549.1 27.42 549.92 28.82 551.56 28.01 553.45 29.02 557.74 29.33 560.47 31.23 561.2 27.77 558.77 26.32 558.67 25.06 556.71 24.85 550.12 22.92 551.85 21.33 552.13 19.91 554.16 19.33 554.04 18.3 552.03 18.06 551.47 16.97 548.63 18.52 547.97 19.96 546.51 19.81 545.47 18.56 545.52 17.31 550.96 13.56 554.37 10.34 556.07 7.19 559.72 3.2 561.44 1.67 562.35 2.58 564.25 2.24 566.44 1 568.35 1.01 569.51 2.3 569.84 6.89 569.04 11.11 567.78 12.96 568.3 13.68 568.57 17.62 569.27 19.49 570.51 20.74 570.36 22.43 572.37 25.55 572.8 26.95 574.25 27.1 576.94 25.21 580.45 19.77 584.19 18.9 588.5 16.75 593.98 17.76 602.87 16.91 604.82 16.22 607.35 14.44 Z"/>
</g>
</svg>