<?xml version="1.0"?>
<svg xmlns="http://www.w3.org/2000/svg" version="1.2" baseProfile="tiny" width="800" height="1252" viewBox="0 0 800 1252" stroke-linecap="round" stroke-linejoin="round">
<g id="4219101">
<path d="M 658.28 46.09 660.25 49.86 659.28 53.18 657.56 55.91 653.24 64.53 649.49 68.57 645.57 71.26 639.88 74.4 639.01 78.11 640.15 80.68 642.05 81.72 649.41 83.83 665.2 85.59 684.22 85.97 694.6 86.48 699.44 86.3 705.08 84.87 710.45 82.65 717.6 81.41 720.3 78.91 724.12 77 726.72 76.8 732.6 77.61 740.43 79.88 742.1 80.92 743.09 85.75 742.52 88.4 736.89 92.27 728.08 94.15 717.13 98.59 711.41 101.69 707.03 103.37 703.33 108.54 702.7 111.84 707.65 114.33 712.28 114.93 724.08 117.71 734.76 119.25 741.04 122.27 749.35 125.48 750.87 127.11 747.89 135.52 747.16 141.67 743.56 147.7 745.35 151.13 743.94 159.74 740.1 164.19 735.76 171.68 732.98 179.51 732 189.56 730.16 192.38 730.51 194.16 727.62 195.87 725.61 202.51 723.28 204.67 721.81 207.59 717.37 210.96 716 213.49 711.3 218.87 710.45 220.66 702.2 226.05 699.54 229.92 695.22 233.52 690.69 235.13 689.63 237.84 687.06 241.17 687.27 246.19 688.91 248.39 692.25 250.19 693.77 257.78 690.75 265.49 691.75 266.76 693.62 274.93 692.31 279 692.12 282.92 693.16 286.29 698.95 289.61 703.58 293.3 706.25 296.53 712.4 300.46 714.77 304.87 720.58 307.66 721.44 309.95 729.15 312.53 733.27 315.91 734.97 319.17 734.65 321.66 735.48 328.34 738.98 330.3 740.28 334.73 738.71 337.35 741.79 341.59 741.26 349.03 738.16 352.03 738.17 353.97 740.6 354.46 740.6 359.08 734.92 362.15 734.92 364.3 737.08 366.37 739.89 370.63 739.97 373.54 737.98 380.75 740.88 381.3 744.57 385.29 744.83 388.78 746.5 391.37 746.14 395.13 745.13 395.94 748.08 400.67 752.18 402.14 757.99 407.62 762.09 409.55 763.28 411.03 769.68 411.88 772.34 411.63 772.94 413.44 771.99 417.24 770.17 420.76 767.87 421.53 766.87 424.14 763.62 428.2 762.77 433.09 764.65 437.89 767.64 438.7 767.28 444.02 762.95 445.59 763.37 447.18 767.85 446.76 770.58 450.09 770.48 451.46 763.67 452.77 759.19 453.14 756.56 454.83 755.72 457.75 756.76 462.35 758.5 464.94 765.43 466.5 770.78 468.12 776.67 471.55 779.75 474.64 783.05 479.76 784.92 480.89 790.11 482.12 792.78 484.21 794.98 487.38 798.7 491.24 799 495.94 798.48 498.07 795.17 504.54 791.51 508.66 786.55 510.27 770.7 513.94 765.07 513.99 758.41 514.69 748.06 514.41 746.42 513.78 738.82 508.69 734.17 504.84 729.77 502.2 723.8 501.76 718.02 506.14 717.29 508.76 721.7 511.64 720.5 513.68 713.55 514.07 706.01 517.89 704.09 517.16 703.18 514.51 701.14 514.31 697.05 517.85 693.65 516.24 693.04 512.75 690.06 511.75 685.1 515.65 676.8 519.03 666.36 522.36 662.11 524.72 656.97 526.66 650.54 530.75 646.57 531.3 642.71 530.03 637.34 530.06 630.01 530.88 628.62 531.62 625.78 536.43 628.71 539.89 628.17 542.9 625.54 544.81 616.96 545.81 612.78 545.56 610.25 544.69 592.68 535.52 580.87 527.76 574.1 523.65 562.6 518.97 559.15 519.25 553.29 521.91 543.49 525.18 538 529.93 523.62 538.17 518.49 537.31 508.54 530.09 503.15 527.39 499.6 524.57 490.61 520.17 484.72 519.14 480.72 521.94 476.53 529.12 472.72 537.77 467.94 551.03 463.55 564.5 461.52 573.42 459.58 578.32 457.76 580.51 453.64 581.35 448.53 581.27 440.77 579.34 431.74 576.66 408.47 571.43 404.06 572.13 399.47 576.25 394.26 577.24 382.81 580.27 379.43 580.75 374.41 583.52 370.53 585.09 362.49 586.69 354.92 587.17 349.4 586.42 341.98 584.43 337.29 586.4 335.75 587.82 334.22 591.21 328.32 595.6 325.79 600.51 321.86 604.12 317.89 605.16 311.86 611.78 303.02 611.42 301.61 614.19 295.92 621.05 294.22 624.3 293.48 627.87 291.1 633.14 289.49 635.01 282.68 637.52 276.02 640.71 276.35 644.16 275.93 649.69 279.08 651.3 287.15 652.1 292.5 654.9 292.67 656.93 295.44 657.96 297.61 653.1 302.32 651.49 309.32 653.9 309.78 655.19 308.25 660.19 308.43 664.05 310.56 667.11 311.9 679.33 313.87 683.06 313 686.43 313.06 689.8 314.14 691.83 313.71 695.37 311.77 698.89 311.77 701.55 310.39 704.58 311.58 709.11 311.55 711.65 310.18 714.62 308.86 722.09 309.59 724.59 313.24 730.58 313.92 733.34 313.47 743.09 311.02 749.47 299.82 768.37 300.24 770.91 298.87 772.97 299.33 776.7 298.16 780.58 299.6 782.51 303.58 783.35 304.63 784.67 308.99 785.29 311.33 784.48 312.28 787.38 310.46 787.83 310.33 790.76 308.67 793.48 309.01 796.78 306.18 799.15 304.54 802.61 300.98 804.23 301.97 806.41 304.11 807.73 309.86 817.56 314 821.25 318.8 819.37 320.47 823.87 325.26 823.2 327.17 822.3 328.39 825.43 328.01 828.34 325.68 830.14 326.67 833.28 326.41 838.16 329.69 843.25 329.64 850.4 326.46 852.86 326.74 854.33 324.57 857.58 324.61 860.2 326.86 862.54 325.43 866.36 326.91 870.64 325.67 872.38 326.05 875.23 324.88 878.47 326.54 880.47 326.11 882.67 329.8 883.33 331.2 882.26 334.88 884.36 336.95 884.45 342.25 883.1 347.59 882.32 359.99 892.15 365.75 892.68 371.29 894.37 379.42 898.87 379.94 900.08 385.48 902.91 388.95 903.59 391.91 905.45 397.62 905.44 401.26 908.48 405.54 909.07 412.01 912.74 418.53 913.42 424.54 914.72 430.3 913.42 349.93 960.48 267.3 1005.55 183.02 1051.52 184.75 1052.58 191.02 1052.27 197.04 1052.52 200.89 1051.49 203.18 1051.71 211.26 1056.9 212.86 1058.36 218.59 1060.32 223.96 1065.8 228.86 1065.98 235.37 1070.39 240.94 1070.26 242.58 1072.77 243.4 1076.03 244.67 1077.11 249.25 1076.87 250.73 1079.84 254.08 1082.02 256.96 1082.55 262.47 1084.99 269.37 1085.39 275.84 1089.47 280.06 1088.58 283.39 1092.12 288.47 1092.23 292.3 1094.85 296.17 1096.13 295.19 1098.3 296.51 1100.01 296.3 1102.19 300.84 1105.23 302.49 1107.65 299.09 1111.95 301.29 1113.89 300.99 1120.45 303.86 1128.72 309.49 1133.36 313.86 1135.74 313.42 1137.19 310.5 1139.32 310.35 1142.8 308.2 1146.88 302.86 1151.94 296.97 1154.54 296.06 1156.17 298.48 1158.98 296.56 1160.04 290.84 1160 291.25 1163.25 297.83 1167.66 297.88 1170.83 295.91 1173.19 295.55 1178.31 297.54 1179.38 303.46 1180.13 305.77 1182.63 306.22 1185.51 301.25 1188.61 300.92 1190.46 302.03 1193.57 308.29 1196.58 309.36 1198.16 302.9 1200.28 299.5 1201.95 297.94 1204.17 297.77 1208.81 293.3 1221.79 292.81 1224.22 294.43 1224.81 299.11 1223.65 300.74 1226.96 299.3 1230.1 297.61 1231.31 291.57 1231.21 288.68 1230.64 287.08 1231.66 285.87 1236.8 287.56 1244 281.13 1251 279.54 1249.71 278.91 1246.93 276.5 1246.97 272.86 1250.04 268.65 1250.76 259.15 1238.17 254.34 1233.81 251.72 1232.61 245.95 1231.83 243.9 1232.53 239.75 1235.87 241.06 1231.95 243.25 1231.17 243.55 1228.97 240.36 1225.39 236.09 1223.16 235.73 1220.61 238.31 1219.09 232.08 1212.78 227.36 1210.67 223.55 1207.22 222.76 1203.08 220.27 1202.21 218.66 1197.93 215.32 1196.05 215.84 1192.94 213.55 1187.59 216.47 1185.31 214.83 1181.05 215.57 1178.81 213.62 1172.96 210.69 1171.03 208.57 1165.8 207.77 1160.65 208.27 1151.79 206.57 1149.35 209.92 1146.6 209.47 1142.98 207.97 1141.55 207.57 1138.04 208.24 1133.41 205.02 1132.24 205.6 1129.26 203.66 1126.64 204.08 1124.09 202.64 1119.7 204.43 1113.29 205.73 1103.58 204.25 1095.27 204.88 1092.5 202.26 1087.4 199.71 1084.96 199.49 1082.7 189.82 1076.91 187.6 1076.54 181.69 1071.88 177.36 1071.76 173.27 1070.76 117.73 1023.01 110.69 1017.14 106.03 1014.27 101.1 1012.14 71.96 1003.17 62.64 999.07 58.57 996.43 53.37 992.29 41.71 980.62 36.81 975.45 28.15 967.05 21.74 962.66 12.73 957.5 1 950.43 16.43 929.46 25.97 902.53 29.76 904.1 44.71 850.44 35.22 832.7 46.83 792.97 89.59 755.82 87.15 753.53 84.15 753 80.78 750.78 80.03 748.84 76.54 749.81 72.69 749.47 72.29 744.89 69.8 742.09 69.93 739.96 71.82 737.42 69.64 735.02 68.92 732.12 72.3 727.21 73.86 721.96 75.93 718.46 78.23 716.86 76.8 712.32 74.56 713.26 73.54 710.65 74.74 708.33 77.15 706.49 74.08 704.8 73.6 702.35 71.29 699.51 73.4 698.29 75.2 693.97 74.88 691.94 71.81 690.03 70.49 685.79 71.42 680.08 71.21 678.13 68.61 676.87 68.68 673.99 64.26 668.39 62.59 668.47 60.49 670.51 58.26 670.37 55.9 665.37 58.84 661.37 57.47 656.71 54.79 654.5 53.75 651.21 50.36 647.9 47.97 647.06 50.62 643.96 50.74 641.85 48.67 634.72 46.12 632.73 44.61 629.65 41.21 625.58 38.51 623.72 37.35 620.24 34.08 615.85 33.32 613.57 30.36 609.57 130.99 596.41 124.28 587.6 116.33 581.86 176.59 526.1 178.13 528.13 179.82 532.83 182.41 533.77 196.53 534.52 210.09 534.87 213.31 538.23 219.35 542.91 221.51 540.66 224.97 540.71 228.41 541.82 230.74 543.8 234.84 543.96 239.96 546.02 246.71 548.14 246.4 543.73 243.13 541.11 238.42 540.41 238.84 536.77 240.6 536.45 243.02 533.94 246.8 535.1 245.02 531.98 240 530.16 243.44 527.67 243.61 525.86 246.75 520.05 251.18 517.64 250.02 514.61 251.35 510.77 253.67 508.83 257.6 508.04 257.36 506.12 261.78 503 263.71 503.68 267.13 501.98 269.93 501.72 272.17 499.97 273.27 497.65 273.07 493.51 272.23 491.81 271.69 487.01 273.79 481.63 274.42 478.36 272.2 477.77 272.29 473.4 269.76 472.18 270.61 468.75 274.84 464.81 274.04 461.68 277.54 459.64 277.7 454.88 279.42 452.52 277.67 449.46 278.56 444.39 284.21 436.48 286.79 434.91 286.88 430.92 288.05 427.04 288.2 423 291.43 420.71 294.39 417.47 296.14 412.41 299.21 410.79 302.55 405.72 305.87 404.58 306.21 403.07 309 400.03 314.03 396.31 316.67 395.76 316.58 393.7 318.66 391.05 323 389.39 327.02 388.55 326.81 383.06 327.89 381.4 326.87 379.53 327.23 377.07 329.19 374.02 332.45 371.05 332.5 365.74 329.78 363.28 329.9 358.89 333.34 357.44 335.42 353.2 335.69 350.15 332.8 346.02 336.2 339.58 339.98 337.93 342.35 336.05 349.38 333.49 350.01 329.48 346.79 329.19 346.08 327.34 346.59 324.33 353.77 321.61 358.4 324.02 363.34 324.96 365.19 320.22 367.26 316.66 365.46 314.16 364.37 310.13 365.92 308.32 365.34 305.46 366.8 304.84 369.14 300.3 371.68 297.69 371.87 295.81 374.94 289.2 376.3 285.34 376.59 280.88 379.35 279.99 382.55 280.19 385.58 277.18 389.2 274.79 390.44 272.89 390.36 270.42 376.55 266.43 372.23 268.1 367.48 274.75 360.13 267.78 356.95 265.47 356.39 261.38 357.69 257.05 357.2 255.38 351.56 248.62 348.03 246.04 346.07 243.15 345.42 239.19 343.33 238.21 342.38 235.11 343.28 232.04 343.49 225.53 342.92 222.08 339.74 213.18 340.16 209.46 342.74 207.91 344.35 201.54 343.24 196.87 348.01 189.67 348.36 184.97 349.54 182.81 350.64 176.47 348.33 174.46 345.96 170.76 342.12 171.44 339.06 165.08 337.18 162.99 334.44 162.15 332.94 158.92 335.36 154.77 334.64 152.95 328.51 145.68 325.51 145.31 323.24 143.12 320.27 134.17 316.9 129.63 310.35 127.37 305.54 126.59 301.67 124.3 299.05 124.25 293.75 119.31 292.57 116.1 289.09 110.09 288.02 106.54 289.62 105.02 293.01 103.8 294.4 102.33 293.56 99.83 288.47 95.35 290.35 93.45 289.43 91.28 285.51 91.36 284.38 89.54 289.17 86.4 290.32 83.17 291.19 73.93 290.24 70.81 282.24 59.19 279.98 53.7 270.72 43.75 266.45 42.16 268.84 35.62 269.84 31.43 270.88 24.16 272.22 18.07 273.23 15.92 277.9 13.15 282.83 13.21 293.49 17.77 299.05 19.5 308.5 23.9 313.55 25.61 320.26 27.02 323.75 29.03 328.78 35 329.75 40.27 338.71 44.52 340.74 46.98 342.6 53.16 342.63 59.08 339.27 72.64 339.64 76.73 342.45 81.88 344.19 83.83 348.31 86.63 351.11 87.39 355.46 87.52 361.05 85.06 365.86 87.41 370.79 86.65 374.38 85.27 381.5 81.09 383.44 79.38 385.75 75.61 388.96 72.16 392.44 67.38 397.21 63.17 399.69 61.67 408.49 59.08 417.23 57.94 422.84 59.25 424.47 63.99 422.17 72.27 422.03 74.53 419.62 84.21 418.68 92.2 418.9 95.25 423.45 97.1 428.98 96.87 437.67 95.35 442.9 95.79 449.34 97.64 451.34 96.75 454.94 93.62 456.79 90.98 457.76 85.44 456.79 78.99 458.58 70.18 459.65 59.35 459.57 53.18 461.48 49.51 463.82 48.54 468.14 48.49 477.03 51.59 488.19 57.71 491.27 58.96 496.62 59.28 498.93 58.85 502.62 56.61 503.62 54.5 501.47 48.13 494.71 38.3 493.47 35.07 493.67 32.27 495.21 28.47 497.59 27.68 502.39 30.25 506.6 30.64 513.77 28.77 516.3 27.53 520.42 22.55 523.24 16.98 528.74 10.37 533.47 8.76 539.63 5.96 547.16 1.83 552.6 1 555.73 1.98 561.95 7.09 564.94 12.7 564.31 16.23 556.57 22.89 551.99 25.08 545.41 26.85 538.92 27.41 534.6 29.52 531.04 32.63 528.77 35.42 524.64 35.66 521.63 36.75 516.97 41.44 516.81 45.05 519.12 47.3 524.24 49.35 531.53 50.85 536.28 50.21 540.57 47.94 545.54 44.28 554 40.08 557.69 38.88 562.45 38.09 564.99 38.42 567.8 40.41 568.34 44.26 563.75 51.43 559.98 61.92 559.94 68.14 561.31 79.69 563.91 87.28 566.48 88.56 569.56 87.73 573.92 85.4 583.12 79.21 586.13 75.85 590.63 75.32 594.18 73.47 600.02 66.57 603.15 63.56 623.02 50.03 634.98 42.99 639.38 41.44 642.32 42.03 647.77 45.96 654.94 45.24 658.28 46.09 Z"/>
</g>
</svg>