<?xml version="1.0"?>
<svg xmlns="http://www.w3.org/2000/svg" version="1.2" baseProfile="tiny" width="800" height="1094" viewBox="0 0 800 1094" stroke-linecap="round" stroke-linejoin="round">
<g id="4219200">
<path d="M 795.5 3.77 795.38 4.83 796.2 9.7 794.99 11.71 795.85 13.58 794.67 17.59 795.96 18.09 798.55 16.99 799 21.39 798.51 22.4 794.09 23.9 793.09 24.81 792.14 28.06 789.76 27.82 788.23 28.58 787.55 31.42 785.96 33.63 780.75 34.6 780.03 36.22 778.11 38.39 777.91 40.37 774.32 43.1 773.77 44.88 772.58 46 770.81 49.46 768.92 50.78 767.63 52.68 764.87 55.04 763.3 55.5 762.55 59.6 759.65 64.85 758.66 66.07 759.08 69.47 758.37 72.66 755.99 75.12 755.52 77 757.06 79.03 758.22 81.48 757.68 83.93 756.59 86.06 759.36 87.82 758.61 90.33 759.98 92.98 758.83 93.84 758.49 95.63 758.82 97.65 757.17 99.23 756.45 101.07 756.35 105.42 754.6 107.47 753.95 109.58 755.67 112.03 750.1 114.75 747.22 117.44 746.55 119.12 747.17 121.39 744.25 125.94 740.53 128.91 739.48 130.59 737.55 132.19 735.01 133.65 733.25 135.7 730.31 136.28 727.87 138.06 727.05 142.14 727.3 142.98 724.63 145.02 718.38 152.1 718.27 154.32 716.27 154.53 713.56 155.85 713.46 158.85 714.06 160.28 713.23 161.71 714.63 162.18 715.73 164.03 718.18 164.88 719.71 166.49 722.09 166.7 721.81 168.76 722.29 171.08 725.25 173.77 725.82 175.58 727.56 178.26 727.39 182.59 725.13 185.06 724.88 186.57 726.01 188.45 726.61 190.68 728.18 191.51 727.71 192.5 731.06 194.67 730.97 196.84 730.24 197.76 731.32 199.28 734.5 199.07 736.8 201.32 741.01 203.44 744.71 203.88 746.97 205.11 748.99 203.54 751.32 204.73 753.31 209.22 755.58 210.14 757.17 211.53 758.59 211.93 762.25 214.78 764.72 217.42 766.36 217.34 769.03 218.98 770.48 220.77 774.36 221.85 777.63 224.23 781.37 230.49 784.53 234.48 788.29 236.2 791.73 239.44 792.47 241.83 793.82 244.17 794.32 246.31 796.34 249.47 793.86 251.43 793.42 253.67 790.12 259.03 788.02 262.83 786.57 264.48 785.15 264.94 782.31 268.57 781.82 269.63 781.4 273.99 783.04 277.61 783.36 282.61 784.94 285.19 788.44 288.05 788.51 289 784.41 294.73 780.85 297.95 777.67 300.26 772.85 302.07 765.77 305.44 758.77 309.62 753.49 310.61 748.46 309.96 745.81 309.34 737.44 309.07 733.11 306.94 728.32 305.2 721.71 303.37 720.31 303.54 712.47 305.9 704.64 307.3 701.49 309.21 699.1 310.21 695.49 313.15 691.72 315.13 688.04 315.51 685.03 316.44 683.05 317.97 678.61 319.68 676.25 319.92 673.67 318.74 672.32 317.17 669.7 316.14 668.58 317.03 667.96 319.34 665.93 321.33 662.83 322.23 659.7 321.96 657.27 320.84 654.47 318.8 649.95 317.2 648.58 317.61 641.03 322.44 638.94 323.18 635.58 323.18 632.44 326.06 629.91 324.75 626.89 324.69 620.66 329.12 616.07 329.25 613.54 331.06 612 333.18 611.3 335.11 611.78 337.97 614.06 340.93 615.11 343.69 615.2 347.87 614 352.94 611.47 357.65 608.69 360.36 608.53 362.16 610.66 363.6 613.34 364.05 613.98 365.08 611.48 367.48 610.14 369.56 609.55 373.01 608.49 373.85 605.76 374.26 603.7 375.88 600.27 377.8 597.08 378.84 591.86 379.48 591.2 380.16 590.94 382.53 589.15 384.23 584.58 386.38 581.36 388.27 573.96 395.95 569.78 398.22 567.71 398.85 566.89 400.56 564.15 401.94 561.99 404.19 559.8 405 559.39 407.58 556.74 409.48 556.45 412.44 557.89 414.99 559.31 416.35 558.67 418.69 558.87 420.13 559.98 421.58 559.87 423.52 558.16 424.79 558.34 426.16 559.51 427.52 561.66 428.46 564.09 428.69 564.62 429.4 563.65 433.77 565.19 436.91 565.6 440.17 568.12 443.56 567.76 446.29 563.9 454.3 563.79 458.38 561.31 459.53 560.64 460.55 559.65 464.48 557.18 464.96 554.33 466.29 553.45 468.2 555.17 472.8 553.09 474.86 550.94 474.95 549.31 476.05 549.26 479.56 548.02 480.59 546.49 480.31 544.61 481.07 537.62 482.96 535.17 484.85 534.06 486.63 532.14 488.38 529.61 489.46 527.35 491.14 527.23 493.06 528.18 494.7 529.98 495.57 530.07 497.36 526.24 499.79 524.28 505.59 522.48 508.17 521.61 510.52 519.48 514.46 516.49 518.39 512.11 526.65 511.75 528.34 512.51 531.85 515.9 533 517.26 535.49 516.89 537.7 517.24 540.71 516.47 542.35 516.54 544.95 517.42 547.53 517.03 550.77 518.33 556.39 519.35 558.83 519.07 560.25 516.26 562.37 515.27 564.19 515.29 566.19 517.39 568.37 517.57 569.77 518.9 571.15 520.95 571.53 521.85 573.08 521.19 576.6 523.63 582.59 525.36 585.58 529.25 588.98 530.58 591.42 530.63 593.99 529.96 595.64 530.4 598.46 531.88 599.44 534.49 599.69 536.87 600.59 537.29 601.67 537.68 605.86 539.39 609.77 543.9 611.81 546.03 615.04 547.69 616.13 551.08 616.49 551.54 617.85 550.36 620.48 550.69 621.86 556.47 626.42 559.16 628.97 560.35 632.05 560.46 635.92 558.49 639.89 558.64 642.58 560.36 644.61 560.29 646.25 558.23 647.9 558.06 650.15 559.68 654.16 560.37 657.01 561.28 658.82 563.25 659.57 566.89 662.55 562.33 671.44 561.19 675.66 561.44 677.68 564.62 678.75 564.34 679.57 560.92 682.29 559.94 683.45 555.17 692.81 553.05 695.37 550.43 697.14 544.44 699.26 542.59 700.87 541.93 702.97 545.02 705.36 545.95 709.6 547.7 713.37 547.71 717 556.69 721.26 557.81 724.79 556.02 726.11 556.44 728.79 560.34 736.59 561.45 742.93 561.75 746.87 560.74 747.7 556.65 749.19 555.52 751.84 557.74 752.08 559.43 753.06 561.7 755.45 565.06 755.91 567.9 755.47 569.78 756.59 569 759.31 570.26 766.65 570.29 769.31 571.25 772.45 570.99 774.01 566.89 776.4 566.44 778.66 568.16 779.13 570.22 781.24 567 782.37 566.16 783.37 564.23 783.9 561.75 782.59 559.99 783.36 558.89 784.71 555.74 787.19 555.24 789.48 555.97 792.14 554.94 794.05 552.59 794.39 550.37 793.88 550.91 795.67 550.33 797.72 546.51 800.22 546.19 804.11 543.25 805.27 542.59 808.04 542.46 817.51 540.39 820.35 540.35 823.39 538.51 826.29 537.31 827.18 535.8 826.79 534.4 827.4 534.3 829.92 536.17 831.92 538.69 837.02 538.61 838.67 536.88 838.42 534.22 839.99 533.28 842.44 531.92 843.47 527.93 844.29 526.44 845.84 526.11 847.27 527.68 852.04 526.48 854.85 520.46 860.82 517.24 864.89 516.75 868.92 516.03 870.17 513.42 872.17 508.33 875.54 505.83 878.71 505.34 882.45 503.31 886.62 502.65 891.04 499.1 895.91 495.65 898.33 488.99 901.67 487.67 903.9 487.64 906.15 484.6 908.26 481.87 910.84 479.4 911.69 477.27 913.78 471.71 920.95 468.61 927.53 465.24 932.48 463.17 936.92 463.3 938.76 464.77 942.17 467.14 945.3 468.85 949.97 467.99 952.75 464.18 959.29 463.51 961.37 465.41 963.5 467.58 964.97 473.94 971 476.42 973.86 476.54 975.08 474.21 977.74 473.99 978.67 474.87 981.67 474.66 983.48 473.35 988.11 471.78 990.72 470.57 994.4 470.48 997.43 471.47 999.81 472.46 1000.82 475.33 1001.69 478.75 1002.07 485.36 1001.87 486.84 1003.65 486.61 1006.26 484.95 1009 482.63 1014.9 480.98 1015.96 479.2 1016.05 476.51 1017.1 475.24 1018.31 474.85 1019.78 476.9 1021.97 477.25 1024 473.84 1027.59 470.47 1029.32 461.82 1035.17 459.3 1036.05 458.25 1038.28 459.95 1041.44 461.16 1044.53 466.25 1051.74 469.68 1053.96 475.95 1056.08 480.33 1056.24 481.27 1056.74 482.37 1059.54 480.44 1065.6 481.38 1067.11 483.96 1068.2 485.12 1069.71 486.48 1074.24 486.39 1076.37 485.51 1078.21 486.18 1081.37 488.1 1084.02 488.7 1085.82 486.61 1088.1 483.99 1092.03 482.49 1092.84 479.53 1093 475.27 1091.99 470.7 1092.01 466.34 1092.88 464.78 1092.09 461.58 1087.79 461.03 1085.91 461.4 1083.38 460.85 1080.32 458.38 1075.51 455.1 1070.62 451.5 1067.27 445.49 1059.72 441.84 1054.89 437.85 1049.03 436.24 1042.48 435.51 1041.02 431.78 1038.66 429.59 1037.85 425.82 1037.4 422.21 1037.51 418.75 1038.29 412.75 1040.57 410.8 1042.22 407.9 1043.36 402.75 1044.61 398.04 1044.46 390.71 1043.88 385.19 1042.7 381.32 1040.05 378.57 1037.11 376.7 1033.17 373.83 1031.33 368.57 1030.55 358.18 1029.71 356.45 1028.18 353.33 1023.43 349.84 1020.63 348.62 1018.54 347.23 1012.67 347.92 1007.61 347.41 997.39 347.96 994.19 349.17 992.17 354.55 988.9 356.84 986.71 358 984.26 358.74 979.22 359.88 973.23 359.08 964.68 358.24 960.17 356.8 955.94 352.73 949.16 351.82 946.38 348.18 938.97 348.82 935.24 349.66 933.68 352.42 931.6 355.45 930.16 356.05 929.07 352.79 926.56 350.6 923.02 349.38 917.83 349.47 916.08 350.82 912.82 354.79 909.25 355.86 907.48 355.75 905.7 354.81 903.42 355.51 899.86 362.62 890.88 363.5 890.25 372.28 889.03 377.21 886.74 379.64 884.07 380.35 882.39 385.06 881.56 387.46 879.51 385.97 877.82 386.61 874.62 381.09 872.45 377.38 872.12 376.11 870.63 377.67 867.49 377.87 864.57 376.37 863.88 374.35 864.21 370.78 863.32 367.41 864.41 364.61 862.75 361.77 862.26 361.08 860.32 361.49 856.67 362.66 853.99 368.67 847.75 369.88 845.96 369.72 843.69 370.29 841.38 369.64 839.8 372.32 836.23 372.76 833.92 371.91 829.38 370.61 827.71 367.52 826.41 370.9 824.86 374.91 823.91 376.27 821.85 376.53 820.01 379.98 819.89 381.87 818.87 383.85 816.44 385.51 816.18 392.2 814.12 394.34 814.01 396.66 811.95 397.83 810.11 400.85 803.64 401.96 799.63 402.66 798.25 407.55 796.54 409.02 795.29 409.88 793.49 409.32 792.56 405.91 790.53 405.5 789.23 406.84 787 409.48 780.76 409.64 779.38 407.35 777.26 405.14 778.08 401.73 780.92 397.96 786.07 397.39 787.61 394.68 790.41 391.43 791.14 392.94 787.94 393.49 785.14 393.64 781.39 395.88 775.76 395.85 773.23 395.15 771.06 393.38 769.84 391.03 769.88 389.52 770.62 387.27 772.71 383.01 772.93 382.59 772.33 386.8 764.88 385.69 764 382.38 763.7 378.74 764.22 376.53 765.36 375.21 767.08 372.59 767.78 366.01 772.09 363.65 771.46 364.24 769.73 363.69 766.94 365.64 764.33 365.9 762.38 367.77 760.28 367.48 759.07 365.31 756.71 366.3 755.43 365.9 753.55 370.2 751.45 371.67 749.69 369.5 748.39 368.91 745.5 369.17 743.95 367.37 738.73 366.3 737.15 362.62 736.01 362.25 734.87 363.14 732.62 364.72 730.75 365.23 727.29 367.26 724.46 370.64 722.03 371.53 719.05 373.11 717.88 373.48 714.79 374.1 713.65 375.94 712.51 377.63 708.98 379.88 708.31 380.76 705.44 384.48 699.27 383.52 696.69 383.74 695.51 385.21 694.52 385.18 692.2 386.65 688.97 390.37 686.47 391.84 683.64 391.79 681.41 390.39 678.52 390.49 675.98 388.96 675.95 386.61 678.55 384.61 679.95 383.27 683.6 381.97 685.18 378.24 685.26 375.6 687.7 374.47 691.35 373.05 692.89 370.29 694.26 369.23 695.52 367.81 701.32 366.72 703.51 366.15 706.35 364.65 708.5 362.58 704.52 361.08 700.59 359.05 698.04 358.85 696.78 360.11 693.05 358.97 687.78 360.39 685.51 361.2 682.87 361.36 677.68 360.19 675.65 356.73 675.29 354.75 674.68 352.6 670.75 351.59 667.87 352.2 666.65 354.59 665.43 355.52 664.42 355.2 662.27 356.05 660.81 355.04 658.46 352.44 658.7 349.68 660.49 348.5 662.96 348.63 664.74 347.29 668.47 347.61 670.22 351.3 674.52 352.48 678.94 354.79 681.69 354.37 682.67 350.49 683.96 349.32 685.18 345.79 690.41 348.54 695.08 344.7 697.85 342.74 698.44 339.58 701.12 338.69 703.19 338.85 706.59 340.27 709.57 339.46 710.2 334.14 709.02 331.75 709.31 330.45 710.48 330.41 712.43 332.03 715.07 332.48 717.66 335.68 718.27 336.86 719.08 336.51 721.86 336.91 724.2 338.27 725.77 336.46 726.91 333.58 727.78 332.2 728.77 332.03 731.61 332.84 733.11 337.47 734.04 337.22 735.22 338.12 736.68 339.98 737.98 339.66 740.81 338.69 741.14 335.68 739.6 332.97 739.23 331.02 739.6 330.07 740.74 329.64 742.68 329.74 746.72 328.71 748.03 327.49 747.56 325.79 744.34 323.8 743.01 324.64 738.91 324.37 734.53 321.65 729.54 322.09 728 320.59 721.72 319 720.11 318.21 720.41 316.96 724.89 316.9 726.34 319.06 729.72 317.95 732.84 312.99 739.43 308.64 742.79 307.7 744.23 308.51 747.71 307.02 748.83 305.75 751.06 304.16 750.39 301.48 750.31 299.13 750.83 297.47 754.12 299.42 756.93 298.77 758.71 296.95 758.57 293.35 756.89 291.35 757.42 285.54 761.74 282.01 762.35 280.61 763.32 278.52 766.97 278.91 771.29 276.15 773.3 274.99 771.9 274.85 768.33 273.43 765.88 274.47 761.84 274.39 759.73 276.7 757.06 280.53 753.22 282.38 750.55 285.54 747.1 285.79 745.72 282.99 744.14 277.49 744.65 272.62 745.95 271.02 743.33 271.2 741.89 274.53 740.78 279.23 738.32 281.18 736.52 284.99 733.78 286.76 731.96 287.92 728.35 288.26 725.24 287.35 724.11 284 724.35 281.73 723.16 278 722.51 276.56 721.05 279.4 718.8 280.33 717.38 284.35 714.72 284.37 712.76 282.48 711.23 281.75 709.41 283.55 707.89 283.78 705.21 285.99 703.98 285.85 702.9 282.36 699.01 280.25 697.37 278.02 696.98 275.7 699.07 271.79 701.38 269.21 704.2 267.41 704.97 265.14 706.94 262.96 710.14 262.47 712.78 261.25 713.74 260.9 715.42 257.16 715.95 253.81 717.96 252.12 721.02 250.96 721.36 250.58 722.86 241.09 724.58 214.13 694.2 179.56 708.89 178.66 709.83 178 712.46 177.95 714.8 173.07 717.74 173.32 718.72 170.94 720 168.54 720.39 166.52 722.47 164.16 725.55 163.62 726.96 164.13 728.19 162.66 734.07 162.96 734.71 162.13 738.25 161.94 745.86 161.38 747.23 158.39 751.35 157.96 753.59 156.05 755.44 153.7 756.87 152.83 758.58 152.65 761.05 151.12 762.91 148.85 763.38 145.93 767.17 143.21 769.04 144.44 764.51 144.35 761.3 144.76 759.11 143.99 755.42 138.12 747.79 136.33 744 135.97 740.05 136.47 737.24 137.67 734.71 139.69 729.29 140.44 726.32 138.44 723.28 136.26 722 132.76 718.16 132.61 716.57 133.55 713.31 132.45 709.66 131.75 704.35 130.71 703.28 125.69 705.03 121.9 703.7 119.62 701.64 119.65 698.91 121.31 696.31 120.3 693.13 116.82 686.9 114.22 685.56 110.21 684.19 107.57 683.8 99.49 684.32 97.99 683.82 94.88 681.58 93.07 680.8 88.41 677.18 85.4 676.07 77.49 677.48 75.16 677.39 70.41 676.63 66.25 676.65 61.73 678.79 58.28 683.2 56.11 684.39 51.56 685.33 46.55 685.75 39.63 685.42 31.1 686.08 26.67 685.52 22.26 683.55 20.43 677.81 17.62 673.57 17.4 670.05 17.9 667.87 19.46 665.56 21.21 664.76 26.63 663.45 30.79 661.58 34.72 658.18 37.15 655.3 38.1 649.7 39.41 647.71 42.96 644.11 43.53 641.74 43.29 639.49 40.2 631.68 38.71 629.54 34.59 626.28 29.61 624.8 24.21 625.51 21.74 626.16 18.01 626.05 15.74 624.69 13.95 622.99 9.89 621.28 8.94 620.46 7.93 616.96 7.67 613.67 6.99 611.59 6.89 609.03 7.33 606.04 8.31 604.14 9.27 598.02 10.62 596.62 12.23 595.91 15.26 593.15 16.06 591.68 17.88 585.82 18.84 583.97 21.57 580.16 23.58 574.8 25.3 571.32 29.41 566.74 30.25 564.98 29.65 563.65 24.67 561.57 19.54 558.41 16.72 555.25 12.05 546.9 9.2 540.3 8.13 536.84 7.96 535.11 8.86 532.84 15.47 529.68 19.97 527.28 21.39 524.61 21.03 522.78 19.28 521.24 16.89 517.99 15.53 514.58 15.09 511.85 15.01 507.5 14.18 503.08 12.42 500.19 11.29 499.13 4.81 494.58 3.55 491.49 3.27 486.79 4.15 484.95 5.91 483.49 12.32 479.42 13.82 476.76 13.43 474.88 9.86 467.72 7.76 465.72 2.68 463.52 1.51 462.16 1 459.38 1.66 455.9 3.66 452.77 7.08 448.78 7.47 446.47 5.54 439.05 5.26 435.34 6.55 432.15 12.1 426.19 14 423.62 15.73 420.01 18.61 415.25 19.83 410.47 25.54 408.55 27.54 408.53 29.28 409.34 34.23 409.4 38.73 406.87 40.87 404.84 44.66 402.62 47.03 401.3 47.57 397.91 49.07 393.38 50.74 390.06 53.11 386.39 55.26 384.25 60.35 381.26 63.25 380.49 68.45 381.29 73.44 382.56 76.15 382.56 82.3 380.76 84.28 380.79 91.17 382.36 94.54 382.13 103.96 378.5 109.06 376.92 112.5 376.36 116.59 376.41 123.76 377.41 127.72 378.8 137.09 378.96 141.42 379.46 147.7 381.02 150.02 381.07 154.73 379.7 157.76 379.91 163.99 381.85 169.08 382.83 170.87 383.59 174.44 387.32 176.46 389.02 178.45 392.3 180.42 393.65 183.7 394.43 187.3 394.35 189.79 393.19 197.47 386.65 198.91 383.73 199.26 381.52 198.97 379.15 197.11 374.58 197.39 372.73 198.6 371.23 200.32 370.21 204.21 368.7 214.88 361.08 219.65 359.24 224.89 359.39 226.5 359.04 228.76 356.51 231.15 351.53 232.76 345.08 236.03 339.52 234.85 338.28 234.07 333.85 233.08 330.29 234.97 326.58 236.49 325.46 237.82 323.19 237.67 320.13 238 318.33 237.37 316.35 237.94 314.91 239.38 313.92 240.45 312.07 244.33 310.83 245.3 309.13 247.9 309.36 249.59 306.51 251.13 305.44 255.01 304.01 257.2 303.57 258.67 302.43 260.73 302.13 263.37 303.17 265.84 302.3 267.91 303.02 273.61 304.02 275.64 303.86 280.24 301.15 283.45 300.72 284.84 302.11 288.56 302.07 291.33 301.62 294.05 300.41 296.08 299.06 301.48 298.06 304.98 296.4 306.19 296.89 307.1 298.88 309.29 298.33 312.21 298.92 316.21 301.8 319.44 302.18 324.31 300.86 323.56 299.13 326.43 297.93 332.11 294.67 339.71 293.66 341.28 292.56 343.03 293.21 346.1 292.99 347.07 294.97 349.42 294.59 350.54 292.63 352.38 292.53 354.81 291.25 355.46 289.53 356.99 287.77 359.83 287.46 361.64 286.67 363.43 284.74 366.54 283.28 367.7 281.51 370.51 280.61 374.79 278.21 377.94 277.22 381.12 277.39 385.15 276.61 388.68 273.31 393.52 267.21 394.37 265.78 395.96 265.3 398.32 265.58 399.57 266.81 401.36 267.33 405.2 267.08 411.14 268.26 414.76 270.33 415.92 268.96 418.31 268.12 420.21 268.44 424.85 268.24 429.79 268.78 429.83 269.92 433.37 270.28 435.56 272.17 437.75 270.43 439.38 270.21 442.52 272.5 445.54 272.89 446.91 272.22 451.21 271.79 455.39 270.05 458.09 269.92 459.96 270.72 460.52 273.1 460.6 277.68 462.67 279.48 463.59 280.95 464.68 284.1 466.29 285.67 471.14 284.09 471.52 285.89 470.74 287.12 471.3 288.92 473.42 288.81 475.42 289.63 475.99 291.21 479.68 295.32 481.29 295.43 482.06 293.87 480.03 287.19 479.92 283.89 480.59 282.9 483.05 282.91 484.46 282.28 482.95 278.57 481.08 275 482.32 273.45 486.17 274.19 489.88 274.32 491.09 273.58 490.97 271.63 489.59 269.44 490.23 266.62 491.8 263.62 492.21 258.95 494.7 258.95 495.62 260.14 495.98 263 501.19 267.91 503.58 267.85 503.82 266 502.37 262.3 501.73 259.29 496.94 251.72 490.18 247.66 487.78 247.62 486.61 246.46 487.12 245.12 492.75 244.03 493.13 243.04 490.12 239.44 486.32 235.77 487.76 234.12 497.56 234.21 497.56 231.79 494.9 229.65 494.38 228.35 495.66 225.17 496.36 224.66 501.69 223.38 502.16 221.5 498.56 219.59 498.34 218.54 500.9 214.41 500.43 210.76 500.96 209.79 502.98 210.49 503.89 215.68 506.26 218.19 506.95 217.64 506.62 213.62 509.52 210.53 509.42 209.35 504.92 205.31 503.27 203.1 502.01 200.44 504.58 195.15 502.38 192.37 503.24 190.57 505.21 190.42 509.56 190.86 511.79 188.92 511.11 187.31 507.71 187.85 504.68 187.41 498.55 184.59 494.13 182.83 493.26 181.65 493.16 176.94 494.11 174.85 495.9 174.32 498.75 175.02 501.21 176.12 502.15 173.37 505.08 171.56 512.37 168.6 516.07 165.15 515.4 162.29 512.63 159.7 510.8 153.35 509.08 149.51 508.5 145.37 508.96 143.88 510.13 143.43 517.35 143.09 518.52 142.56 518.39 140.95 517.02 139.8 515.61 137.64 515.3 134.78 516.61 132.09 519.03 131.5 521.73 132.79 526.07 134.37 529.15 132.97 530.99 133.2 535.9 134.69 537.53 133.92 538.65 131.25 538.69 126.31 538.01 123.88 535.61 122.9 533.37 123.91 530.71 123.57 530.66 122.49 532.44 120.37 534.14 119.38 535.66 119.27 539.05 121.34 540.33 121.35 545.74 122.62 547.79 122.61 548.61 120.55 547.63 119.04 547.03 116.59 545.26 113.63 544.4 110.03 542.71 106.13 540.79 102.45 539.52 101.4 534.84 100.15 532.83 99.01 531.95 96.61 532.17 94.18 532.81 93.3 534.87 87.63 535.4 85.37 536.67 82.31 540.32 81.35 541.78 82.14 545.89 82.99 549.93 84.44 551 85.34 551.93 87.59 552.54 90.68 554.09 90.74 557.61 87.99 558.78 87.83 560.53 89.1 562.76 89.79 566.55 88.59 568.87 88.24 570.51 88.98 575.16 89.98 581.93 91.14 586.87 93.53 589.49 97.06 591.78 98.29 593.59 95.33 597.25 91.9 597.52 87.39 599.47 85.31 602.28 83.27 603.53 81.21 606.84 77.56 609.37 75.83 612.07 75.62 616.41 78.11 617.64 77.96 618.06 75.67 615.75 73.65 614.55 70.1 614.98 68.37 616.9 67.06 621.46 66.94 623.07 68.71 625.15 70.13 626.11 69.81 627.7 67.64 627.43 64.68 629.24 60.91 629.88 58.84 629.39 55.66 627.73 53.96 624.79 53.87 622.98 52.96 622.53 50.87 624.9 48.7 626.01 48.53 632.59 50.72 633.97 50.49 636.7 47.36 638.63 46.58 642.29 46.36 643.78 46.93 644.67 48.6 644.89 50.81 643.53 55.13 643.77 57.65 645.22 61.1 646.93 61.65 649.15 61.12 652.07 57.64 657.06 55.75 660.08 56.19 663.8 58.27 665.77 57.6 670.2 54.75 672.78 54.71 674.46 56.18 677.9 55.92 679.85 55.19 681.39 56.4 683.78 56.67 684.11 54.15 682.4 51.59 683.18 49.62 686.74 49.2 693.19 45.72 696.66 44.53 699.57 44.39 700.38 42.76 699.4 40.92 701.25 35.68 700.75 31.17 696.99 26.14 696.52 24.45 697.37 23.57 699.61 23.13 703.09 23.23 707.91 20.78 711.31 20.18 714.19 20.63 716.22 20.44 719.39 20.97 721.51 20.15 723 16.11 724.69 14.82 727.98 14.49 731.55 15.58 736.49 15.55 737.58 15.9 740.45 18.68 741.9 18.6 742.17 16.56 743.22 15.04 744.19 12.23 745.8 10.18 747.7 9.04 751.76 10.86 754.92 14.02 756.39 14.38 758.01 13.13 758.28 9.95 755.42 6.83 754.75 5.37 755.7 2.54 766.68 1 769.09 2.33 770.68 4.85 779.75 6.9 782.93 6.58 784.78 5.71 786.11 4.33 787.71 3.95 792.6 3.58 795.5 3.77 Z"/>
</g>
</svg>