<?xml version="1.0"?>
<svg xmlns="http://www.w3.org/2000/svg" version="1.2" baseProfile="tiny" width="800" height="491" viewBox="0 0 800 491" stroke-linecap="round" stroke-linejoin="round">
<g id="4219150">
<path d="M 740.54 200.4 739.29 200.9 734.9 204.21 731.88 207.66 729.21 211.64 726.4 215.39 723.09 220.7 720.22 225.71 716.9 231.19 715.24 234.33 713.83 237.95 712.59 242.79 712.18 245.39 711.8 251.65 711.69 257.45 711.93 262.83 712.44 264.93 713.86 266.76 718.74 269.77 724.04 272.05 728.69 273.64 731.73 274.48 740.68 276.42 746.36 277.38 753.76 277.9 762.22 277.91 771.86 279.1 779.28 280.21 784.49 282.44 789.14 285.25 791.6 287.34 793.75 289.98 795.77 293.12 797.71 296.97 798.68 300.41 799 304.48 798.62 309 796.99 312.27 794.96 314.26 791.27 316.49 788.21 317.85 784.6 320.3 781.54 322.01 776.73 324.1 772.32 324.67 768.59 326.81 765.48 327.88 761.16 329.01 753.52 331.32 744.89 333.52 738.07 335.03 734.25 336.51 730.03 339.98 726.84 343.51 725.15 345.93 722.99 349.76 721.17 354.59 720.73 357.01 720.28 361.91 719.81 365.05 718.87 367.13 717.74 368.29 714.67 369.78 711.81 370.17 709.81 369.93 706.75 368.11 701.4 363.56 694.52 358.58 691.47 356.74 689.57 356.02 683.48 354.6 678.24 350.55 677.01 350.35 674.92 351.2 673.79 351.17 671.65 351.93 667.23 354.23 665.42 357.07 664.71 360.21 664.13 365.21 664.02 369.41 664.36 373.42 663.83 375.88 662.01 378.05 654.53 385.13 639.45 397.44 633.45 402.54 629.62 406.55 627.76 408.87 626.25 411.26 626.09 412.57 628.96 416.13 632.53 419.39 637.15 424.07 638.81 426.11 640.21 429.1 640.42 433 642.49 437.19 642.31 440.47 641.9 442.21 640.76 443.63 639.53 443.91 636.28 443.3 633.96 443.27 630 443.88 625.54 445.54 620.34 446.22 615.89 447.15 611.59 447.23 609.26 447.59 605.87 445.72 602.72 441.15 601.54 440.21 598.95 437.35 597.89 435.13 595.15 434.03 590.61 431.34 588.8 428.52 588.94 426.31 588.54 424.83 586.94 423.05 585.15 422.12 581.7 421.39 578 421.63 574.72 422.73 571.83 424.43 570.42 426.24 569.65 428.8 569.12 431.82 569.04 437.36 570.16 440.99 572.61 444.44 573.02 447.47 572.54 450.55 571.41 452.87 566.25 461.94 558.42 477.09 555.21 482.24 552.36 485.72 548.88 488.7 545.56 489.84 543.18 490 540.64 489.41 539.19 488.25 538.42 487.01 536.75 482.94 535.87 481.36 532.37 476.96 530.93 474.44 529.06 469.56 528.3 466.58 527.78 463.36 527.54 460.16 527.69 457.39 528.3 454.83 531.98 445.85 532.91 440.89 533.2 433.82 532.81 429.86 530.87 426.97 529.32 425.71 526.31 421.53 524.73 418.84 522.09 415.52 520.42 414.59 517.18 414.76 513.96 416.4 509.81 417.87 507.27 419.83 506.33 421.04 504.21 422.64 502 425.26 500.42 426.38 497.82 429.7 497.33 431.51 497.53 434.63 498.56 436.97 499.92 444.55 502.88 455.93 503.8 460.18 504.63 465.01 505.46 471.74 505.69 476.34 505.36 479.14 503.75 481.84 499.93 484.82 496.48 486.75 492.83 487.89 489.21 488.14 481.64 487.28 473.7 485.75 468.4 484.43 462.57 482.75 457.93 481.05 454.2 479.1 451.62 477.38 443.78 471.3 439.32 467.68 432.78 465.97 428.15 464.94 423.59 464.22 414.89 463.15 405.93 461.56 402.84 461.39 401.12 461.77 395.71 463.6 386.85 466.32 383.29 468 381.53 469.72 379.83 472.94 375.76 470.27 373.81 468.45 371.52 465.7 370.73 464.01 370.71 462.52 371.71 460.86 371.57 459.85 369.54 459.32 366.84 460.34 364.32 460.11 360.94 458.05 357.49 457.05 357.7 455.64 362.19 450.69 364.99 445.1 366.33 443.05 365.8 441.65 363.67 439.8 362.8 437.36 363.63 436.39 365.29 436.21 367.79 435.41 368.92 434.06 368.28 433.08 365.79 431.46 365 430.05 364.59 428.13 362.07 426.8 360.7 425.73 360.29 424.52 357.11 420.96 355.7 418.78 354.25 417.81 352.86 419.33 350.16 421.07 347.93 423.07 347.06 423.33 345.71 421.45 344.48 420.88 338.36 420.12 337.02 419.45 335.74 417.99 333.45 416.26 330.17 415.46 328.77 416.21 325.37 415.56 324.19 414.86 321.62 414.6 319.86 413.75 320.77 412.02 319.69 410.68 315.63 409.65 313.05 408.66 310.93 410.04 308.29 412.38 306.56 414.38 305.22 415.33 304.54 416.78 302.14 417.97 300.47 417.29 297.68 416.9 295.82 417.05 291.56 416.68 289.16 416.72 283.54 415.54 282.75 414.36 280.67 413.33 280.23 412.3 277.77 411.52 276.08 410.49 269.81 409.98 267.57 411.26 264.56 411.5 262.2 410.99 259.65 409.43 255.03 409.84 252.08 411.14 249.03 411.35 246.83 412.77 244.74 413.2 241.08 411.49 238.38 409.16 236.79 408.88 229.81 409.01 227.18 410.18 225.32 406.85 223.32 404.48 221.5 402.96 219.55 400.21 219.23 397.7 217.72 395.77 215.95 394.25 211.16 392.62 207.48 393.72 206.27 392.73 203.36 388.97 201.68 387.78 200.38 385.32 200.16 382.33 196.43 376.77 195.62 373.83 195.18 369.14 194.57 366.79 192.97 365.19 190.21 364.38 186.42 364.01 185.21 363.05 182.34 357.54 180.41 355.26 177.85 353 173.04 350.04 171.92 348.03 172.79 344.93 172.51 342.96 171.06 341.82 168.34 340.89 165.09 339.06 162.8 339.67 159.27 343.4 156.89 344.14 153.78 344.49 149.49 345.61 147.5 347.15 145.68 347.69 142.53 346.94 139.93 347.62 138.07 349.44 136.99 351.09 135.19 352.38 133.27 352.65 131.05 352.23 129.3 352.32 127.55 353.19 125.18 355.83 122.17 357.18 120.3 357.2 117.23 355.66 114.64 352.4 112.8 351.6 110.51 352.69 107.79 355.12 106.79 355.67 103.83 356.1 100.55 356.05 98.59 355.56 96.61 355.64 91.33 358.86 89.54 362 88.14 362.07 85.59 361 83.8 360.81 82.71 359.93 83.3 357.4 86.94 356.09 89.92 353 91.73 352.31 94.14 350.04 98.52 348.32 100.05 345.91 101.35 344.83 104.25 344.35 110.09 341.39 112.25 339.4 113.95 337.19 117.64 333.76 121.03 330.32 124.59 327.56 126.52 326.64 129.6 325.95 132.25 324.71 132.8 323.22 132.59 320.91 134 319.69 138.55 317.37 139.14 316.5 141.67 316.33 143.24 315.45 144.12 313.93 148.28 310.79 122.51 249.54 125.29 248.92 127.48 246.55 127.85 245.31 128.82 238.55 128.44 235.41 125.85 234.92 124.17 233.46 124.27 229.56 125.59 224.9 125.32 223.22 122.29 219.81 118.97 219.23 116.42 218.31 115.42 217.12 115.19 215.27 113.07 213.53 112.42 211.89 109.4 211.31 107.84 210.3 103.95 209.53 101.77 208.76 101.61 208.01 104.25 168.85 102.33 169.91 99.98 173.56 98.7 174.44 94.6 175.63 89.88 177.88 86.99 177.42 84.35 175.36 81.36 173.94 77.05 173.33 72.85 171.26 66.7 169.69 64.13 167.58 62.08 167.47 53.71 168.68 51.7 170.1 48.6 169.61 45.76 169.64 45.53 168.88 43.24 167.69 42.77 166.88 40.34 166.35 40.27 164.52 38.92 162.75 37.24 162.62 34.91 161.41 34.08 160.27 32.55 159.82 31.04 158.22 30.5 156.69 27.95 156.58 27.32 155.49 25.9 154.72 22.18 154.18 20.8 154.5 19.4 153.71 19.38 152.22 15.81 148.44 14.01 147.88 13.22 146.93 13.63 143.71 12.35 141.39 10.96 140 10.62 139 7.5 135.64 7.22 132.88 4.03 130.02 1 128.58 1.38 126.1 2.41 124.91 3.81 125.71 7.13 125.31 9.19 124.72 15.4 125.69 16.72 126.23 17.9 125.83 18.81 121.55 18.01 119.16 19.39 118.24 22.16 115.29 24.24 112.03 25.59 111.6 30.17 111.89 31.8 111.01 35.9 108.15 37.39 106.06 39.31 105.52 42.49 106.5 44.7 106.4 45.17 106.88 45.43 110.95 45.93 111.59 48.44 112.44 49.51 112.43 53.63 111.11 56.2 110.86 59.17 111.54 62.06 111.71 64.84 113.02 66.08 112.05 66.24 109.59 65.55 107.16 64.56 105.39 62.59 102.99 64.14 101.58 68.06 100.65 69.29 99.89 70.04 98.53 71.43 97.83 75.4 97.59 78.32 96.71 79.55 95.84 81.65 91.83 82.33 89.56 83.28 88.58 86.79 88 88.31 88.2 91.19 87.58 93.17 84.52 93.77 81.09 93.66 78.41 94.13 77.68 95.87 77.32 98.91 77.59 105.12 74.71 108.77 72.36 110.2 71.96 111.6 72.77 115.53 72.19 117.38 71.62 118.57 70.16 119.44 69.92 121.32 71.01 123.6 70.14 125.53 69.79 127.48 68.49 128.16 67.36 129.65 67.08 131.08 68.68 133.2 69.17 135.95 67.58 139.28 67.04 140.84 64.25 143.14 62.19 144.79 59.55 144.93 58.64 144.1 57.24 144.9 53.52 148.26 51.49 149.58 50.06 146.39 45.2 147.13 43.86 151.3 41.89 152.9 40.76 154.29 40.59 155.11 39.8 159.33 40.75 160.14 41.44 160.24 43.85 161.65 45 161.72 46.75 162.39 47.46 163.86 47.09 165.88 45.34 171.36 42.84 174.86 42.54 177.04 41.55 178.98 41.5 181.49 44.31 184.62 45.27 187.15 44.57 190.17 44.51 192.89 42.39 195.72 40.88 198.92 38.04 201.25 36.64 205.42 35.42 207.87 35.99 208.32 37.46 207.9 39.11 208.51 42.51 211.98 44.23 214.02 44.7 215.7 44.6 220.17 45.01 224.25 47.88 224.71 48.75 224.26 50.53 224.42 52.13 227.28 54.26 230.14 55.27 231.1 55.18 233.1 53.73 234.14 52.49 235.79 51.35 239.23 50.89 240.57 49.92 242.86 50.91 247.23 51.32 247.91 50.42 249.33 50.44 250.76 51.44 253.02 53.92 254.59 53.97 256.34 53.18 259.31 52.49 260.51 51.57 264.51 50.58 267.8 49.52 269.57 50.72 271 52.41 272.94 55.54 275.8 53.73 278.43 53.49 280.92 54.86 283.24 57.24 286.71 59.47 288.74 61.05 291.57 61.79 294.85 66.15 295.44 67.95 295.61 70.52 295.22 71.82 328.23 59.1 331.04 57.52 332.36 55.7 333.69 53.2 335.29 47.64 335.2 46.95 336.15 42.04 335.2 39.79 334.85 34.65 335.66 30.46 339.18 29.16 339.84 25.87 339.21 23.61 339.86 22.64 343.11 20.24 343.62 17.43 345.93 16.37 346.38 14.3 347.19 13.36 350.1 12.83 352.25 12.96 354.26 15.07 356.81 15.59 357.91 16.28 360.79 17.02 363.02 16.58 364.3 15.23 367.76 14.63 369.34 12.53 371.87 12.62 374.16 11.11 375.89 11.34 377.85 9.74 379.47 10 379.15 13.99 378.05 15.37 378.69 16.84 378.51 18.63 378.7 21.43 380.13 22.73 382.02 23.74 382.98 25.68 387.39 26.93 389.2 26.25 393.42 23.38 397.66 23.25 400.15 24.12 400.52 25.08 403.94 24.71 405.78 25.26 407.45 26.28 408.9 28.02 409.19 30.13 411.16 31.69 411.48 32.77 415.88 34.92 417.17 33.56 418.81 33.24 420.11 33.83 421.07 35.04 420.46 36.52 420.88 37.49 422.1 37.6 422.95 36.2 426.28 35.02 429.71 35.75 430.69 37.2 433.93 35.02 433.4 33.14 435.47 30.3 438.06 28.68 439.32 26.6 441.02 26.15 442.45 25.22 446.97 23.04 448.39 22.74 448.91 20.69 451.29 20.14 451.71 18.02 454.69 15.08 456.42 12.87 456.9 11.49 458.21 11.11 458.95 10.17 461.46 9.77 462.89 11.17 463.91 12.84 466.06 13.08 470.24 12.87 470.55 13.92 473.14 17.29 473.91 17.6 476.61 16.66 481.52 18.28 482.7 17.71 485.95 17.22 487.53 16.65 489.57 17.03 491.52 17.93 492.95 15.94 495.82 16.76 499.97 19.03 500.69 18.24 500.66 15.92 504.37 14.89 505.02 15.5 507.33 15.42 507.57 14.51 509.06 13.81 510.33 11.76 513.09 9.88 512.78 8.46 513.6 7.4 511.44 4.05 513.93 1 515.37 3.19 518.23 3.96 520.79 5.12 523.24 6.59 524.92 8.26 526.02 9.93 527.28 12.67 527.6 15.95 525.32 18.86 524.59 21.05 524.45 22.88 526.5 25.32 528.95 25.72 527.55 27.42 526.72 29.07 525.07 30.38 523.02 30.43 520.55 31.85 518.73 33.42 519.59 34.34 521.87 34.35 523.36 35.71 523.03 36.65 520.35 40.04 519.58 42.55 518.47 43.85 516.72 44.18 512.72 43.96 510.33 43.42 509.66 45.21 511.45 45.18 513.62 47.98 516.21 48.85 516.19 50.85 514.64 52.54 516 54.48 517.87 55.61 521.92 55.84 523.87 55.57 525.67 56.72 526.99 56.99 530.71 58.98 533.39 58.95 535.5 61.59 537.96 62.14 538.07 64.54 539.11 65.07 544.34 64.39 545.59 64.67 546.14 65.94 545.66 67.27 544.27 69.14 545.37 70.49 542.55 73.14 542.4 74.24 543.22 75.71 545.85 77.11 546.75 77.25 549.01 78.73 551.08 79.02 552.22 79.78 548.25 81.2 544.05 85.11 541.77 88.51 541.45 91.24 540.33 91.91 537.8 91.65 534.59 90.78 533.1 92.19 533.46 94.18 533.23 96.29 535.33 97.26 535.4 97.96 533.84 99.14 533.35 100.38 533.88 102.87 535.79 103.07 537.5 102.5 541.63 102.01 542.92 102.21 546.39 104.88 546.46 106.07 548.06 106.68 548.8 105.63 550.59 105.12 552.23 106.72 555.28 108.2 557.57 110.19 558.41 111.33 558.65 115.36 559.6 116.03 560.58 118.31 562.73 119.17 564.91 122.68 566.42 125.75 566.32 127.57 565.52 128.75 563.25 130.12 560.75 129.35 558.71 129.84 558.39 130.91 558.63 134.1 559.55 139.54 562.26 139.05 564.13 140.74 566.57 140.15 569.07 140.73 570.67 140.04 572.42 137.54 572.82 134.79 576.4 131.02 578.55 129.86 580.74 129.17 581.53 126.84 583.67 125.1 585.32 125.58 586.88 127.23 587.81 130.85 589.83 133.76 595.31 135.45 595.71 137.5 596.73 140.08 596.99 142.14 598.98 143.07 600.7 142.99 602.21 142.18 603.8 142.11 604.29 143.46 604.35 147.58 602.19 149.7 603.17 151.28 607.5 153.53 608.82 154.9 610.81 155.12 615.7 155.24 619.12 156.09 621.55 155.63 623.09 154.68 625.91 151.97 627.72 151.29 630.25 151.72 632.75 152.71 635.57 150.73 638.5 149.4 644.7 145.81 645.79 142.67 647.45 141.32 648.5 141.42 650.11 144.21 651.65 145.7 652.75 145.33 655.04 143.26 658.76 141 660.46 139.59 664.07 137.33 667.69 136.5 668.8 136.99 669.94 138.53 670.38 139.93 670.23 142.25 668.75 146.5 668.36 149.3 666.54 151.86 665.56 155.96 665.91 157.15 667.54 157.12 669.72 158.52 671.77 160.79 673.12 165.09 673.05 166.92 674.61 169.98 676.28 172.01 676.05 174.15 677.93 174.76 679.21 175.72 681.87 178.75 683.62 179.99 688.21 181.16 689.95 182.12 691.05 184.45 693.29 182.35 695.3 180.95 698.56 179.24 702.39 175.88 706.97 173.67 707.26 172.86 705.35 170.51 702.36 167.89 702 167 700.16 166.14 696.77 163.55 694.49 161.05 692.76 156.64 690.65 154.96 689.76 152.28 690.01 149.09 690.5 148.41 693.01 147.5 696.33 144.87 696.74 142.83 697.36 142.4 700.57 142.51 702.98 142.15 705.11 142.92 707.86 140.53 709.26 140.88 709.84 144.93 708.72 148.01 709.63 149.71 713.06 152.15 715.95 151.76 716.92 152.72 716.32 154.55 716.6 156.07 719.23 157.25 719.99 156.56 722.42 155.66 723.4 155.76 725.78 157.57 727.48 157.76 728.23 156.92 731.16 152.4 733.73 151.98 734.78 152.94 735.4 157.73 736.65 157.84 739.9 156.93 744.49 157.71 746.45 159.69 747.52 162.47 748.03 167.38 747.15 168.54 743.76 170.98 742.01 173.53 740.91 178.03 738.35 182.21 737.76 184.31 737.97 186.41 738.98 189.21 740.47 191.87 741.35 197.84 740.54 200.4 Z"/>
</g>
</svg>