<?xml version="1.0"?>
<svg xmlns="http://www.w3.org/2000/svg" version="1.2" baseProfile="tiny" width="800" height="698" viewBox="0 0 800 698" stroke-linecap="round" stroke-linejoin="round">
<g id="4219309">
<path d="M 239.11 6.04 241.07 6.29 243.89 7.65 245.99 7.89 246.85 8.77 246.05 11.73 244.52 14.05 244.17 16.95 244.46 19.77 246.51 23.05 249.75 26.55 252.68 28.84 253.6 30.27 254.73 33.75 257.9 34.77 260.07 35.99 262.91 36.52 265.22 37.29 266.78 38.41 270.31 42 272.23 46.3 275.23 48.64 276.37 52.04 276.98 55.75 276.81 58.86 275.69 61.43 272.55 65.11 270.96 68.09 270.32 70.26 269.8 74.17 269.72 77.04 270.11 79.69 269.68 80.42 266.27 82.14 263.92 83.94 262.77 86.34 262.56 87.65 263.31 91.6 264.49 95.33 265.81 104.91 266.86 108.28 268.78 111.78 273.21 115.46 273.71 116.59 272.59 119.82 271.86 120.72 269.06 122.1 267.72 122.44 266.94 123.55 267.33 125.39 267.28 127.31 265.05 130.9 265.48 132.4 267.05 134.52 268.46 135.8 270.49 137.03 271.29 137.93 273.11 141.42 273.58 142.91 273.93 148.09 273.48 152.13 272.2 155.03 271.36 158 271.64 161.27 271.38 165.68 271.85 169.1 272.9 171.22 275.12 172.69 280.34 174.58 289.89 179.01 292.29 180.36 297.55 181.65 302.12 183.28 304.59 186.35 305.03 187.91 304.88 191.59 305.84 193.73 309.49 196.17 311.72 197.27 311.72 197.93 308.03 201.27 307.04 202.94 306.32 207.32 303.54 211.88 303.43 212.99 305.11 215.2 307.42 217.09 309.43 220.18 309.69 221.52 310.86 223.63 312.25 225.31 313.32 227.44 312.14 230.9 310.94 233.12 312.01 235.06 313.36 239.71 313.42 241.15 314.14 242.71 313.88 244.05 314.89 246.9 316.15 248.13 315.94 248.88 316.09 254.06 317.72 256.65 317.72 258.51 318.5 260.42 320.02 261.85 320.29 263.61 327 264.1 330.06 265.03 331.15 266.08 335.04 273.19 336.33 274.48 339.02 275.08 341.02 274.76 342.91 273.91 344.74 272.66 347.92 271.01 350.01 268.28 354.47 263.76 357.94 260.65 359.29 258.3 360.82 257.03 362.67 256.93 365.56 258.23 370.29 259.96 372.18 261.43 376.01 265.28 378.08 268.19 380.7 271.44 382.53 273.14 383.25 274.4 383.15 278.2 381.47 280.88 375.48 285.21 375.28 286.25 376.28 287.23 380.32 288.54 382.38 288.78 389.03 287.21 392.38 285.97 395.41 284.58 398.84 283.49 403.67 281.13 404.86 281.43 406.01 282.61 406.6 285.6 405.68 287.46 406.02 289.91 407.11 292.05 408.12 293.17 410.88 294.4 410.43 297.97 409.82 300.51 410.09 303.75 410.62 304.76 410.39 307.33 412.14 309.13 413.07 311.98 413.28 314.8 411.85 316.91 412.71 318.69 412.27 320.51 413.17 322.64 414.6 323.53 417.68 331.92 422.12 334.56 423.91 336.83 425.9 338.36 543.69 329.13 544.92 328.42 546.16 328.44 548.92 329.65 552.14 332.04 554.41 334.12 556.26 335.3 556.8 337.56 560.17 337.53 562.58 335.74 563.54 335.72 564.16 337.02 563.94 340.01 561.89 344.77 560.17 346.45 560.52 346.92 564.23 347 567.03 345.8 568.84 345.51 571.06 346.45 572.68 346.67 576.81 346.17 582.4 347.71 584.11 347.5 586 347.98 589.75 349.69 591.26 350.85 594 354.48 595.73 355.61 598.21 355.84 600.63 354.64 603.31 350.52 605.1 346.46 604.61 344.2 605.93 343.38 607.01 343.95 608.81 346.33 609.09 347.47 611.56 348.73 612.25 349.58 611.83 351.32 613.52 352.25 614.4 353.89 613.57 354.99 611.95 354.7 611.22 355.18 612.28 356.41 614.9 357.19 616.55 356.06 618.36 356.75 618.92 355.6 622.1 355.73 630.24 353.27 630.97 351.66 633 348.41 635.37 348.37 637.74 350.58 639.07 351.03 640.4 353.2 642.68 354.79 643.79 355.09 647.16 354.78 648.97 353.94 649.98 354.24 650.87 355.89 652.69 357.24 653.19 358.22 652.2 360.42 652.22 362.85 651.92 365.15 651.03 366.43 650.9 367.9 652.38 369.59 653.98 370.78 656.99 370.83 661.46 373.48 662.52 372.95 666.85 374.26 667.15 375.21 669.61 375.55 670.02 376.71 672.83 379.35 673.95 378.97 674.87 380.08 675.08 382.6 676.16 384.35 677.12 384.64 678.57 386.38 681.04 385.98 683.34 388.5 685.75 392.21 683.8 393.84 683.36 397.56 682.77 398.85 684.34 401.8 683.63 402.91 683.13 405.19 682.01 405.43 682.06 407.32 680.28 407.86 680.42 409.56 681.23 409.9 681.65 412.56 681.17 413.56 684.55 417.96 685.06 419.96 686.61 421.87 688.4 422.74 688.16 424.14 688.57 426.07 687.35 428.13 689.98 431.9 690.25 434.29 692.89 435.47 693.83 438.28 695.75 439.78 698.7 440.72 700.84 442.88 701.83 446.2 701.92 448.63 702.35 451.45 702.3 453.47 703.6 455.75 704.47 458.03 703.98 460.36 704.08 461.83 703.38 462.97 703.81 464.79 704.86 465.78 707.91 467.44 709.07 469.06 714.48 469.98 723.1 470.39 727.63 469.54 728.59 468.84 730.99 468.46 732.12 467.09 731.55 465.14 733.59 465.72 735.85 468.04 736.43 469.49 737.52 470.4 739.26 470.66 739.63 472.7 740.76 475.5 741.55 478.56 743.1 479.28 744.92 479.41 746.28 478.45 747.14 477.07 748.18 474.26 749.98 473.45 751.76 473.93 753.84 473.06 755.95 472.55 760.56 472.43 770.53 473.82 771.84 473.84 773.82 473.18 776.31 473.98 777.5 473.33 777.94 471.29 779.72 471.08 781.65 475.46 782.98 477.57 785.09 479.57 786.54 482.28 788.09 483.75 792.23 486.1 792.97 486.81 792.77 487.98 793.74 490.92 793.33 491.98 791.9 493.64 792.75 496.43 795.76 499.46 797.27 500.56 797.21 501.18 798.66 503.77 799 505.45 796.87 510.72 797.56 511.56 796.78 514.49 797.35 515.99 796.85 517.52 797.72 518.76 795.8 521.12 796.37 523.2 796.25 524.6 795.54 525.56 795.07 528.43 792.14 530.51 789.95 531.76 789.5 533.86 787.84 535.59 787.99 538.38 787.8 542.34 791.61 549.23 788.73 553.78 789.7 555.32 790.32 558.52 789.75 559.88 792.44 561.94 792.24 562.84 788.63 562.97 788.51 564.14 791.85 567.33 792.3 568.65 792.51 571.09 790.9 572.9 789.36 573.33 788.4 574.11 788 575.36 786.57 577.24 786.61 578.4 787.95 579.44 788.1 582.31 787.05 583.04 786.98 584.85 786.12 586.47 784.47 587.71 782.13 588.13 780.99 588.85 780.19 590.46 779.37 590.76 776.47 590.83 774.76 591.91 772.65 590.72 772.62 592.63 774.13 594.9 773.61 596.36 774.03 597.85 772.72 601.15 770.22 601.71 769.36 600.92 768.76 598.66 767.01 598.75 764.31 600.22 762.75 600.58 760.58 598.98 759.47 599.16 758.57 601.18 758.78 603.01 759.77 604.42 759.85 606.11 757.7 606.71 755.05 609.14 755.26 610.09 756.75 611.44 755.54 612.8 752.82 612.21 751.53 612.93 752.01 614.49 754.46 615.14 755.49 616.03 759.67 615.72 759.6 620.73 761.64 620.96 760.87 622.37 757.82 622.08 757.06 623.17 755.78 623.18 754.41 626.31 755.05 628.15 753.07 628.29 751.95 627.22 752.07 625.33 749.41 624.16 747.34 622.84 744.71 623.79 741.48 622.79 738.21 622.3 737.45 623.08 737.36 624.71 736.54 625.73 736.3 627.24 734.06 628.28 733.85 629.49 735.58 630.97 736.54 630.59 737.95 631.65 734.08 632.25 731.27 632.17 730.36 633.08 730.49 634.32 732.32 634.19 734.55 635.39 735.61 636.67 735.08 637.76 734.43 641.57 734.99 643.49 733.69 644.5 733.04 645.85 737.35 647.02 737.95 647.99 736.91 650.33 736.18 650.55 733.94 649.53 732.48 651.15 729.86 651.54 728.14 653.02 725.42 651.77 724.61 650.89 721.81 651.41 721.46 651.88 721.59 654.4 718.57 653.59 715.3 652 714.11 652.09 712.15 653.09 709.29 652.41 708.48 652.86 701.98 652.73 701.49 653.04 701.02 655.57 702.08 657.4 701.12 658.38 699.17 658.27 698.08 656.26 698.57 655.42 698.42 653.99 696.69 654.18 693.17 655.77 691.55 658.1 690.24 658.56 686.46 658.9 685.75 659.72 686.07 661.54 687.08 662.68 690.17 662.15 692.67 661.28 693.25 661.52 694.31 663.56 694.32 666.64 693.97 668.69 694.34 669.88 693.05 670.7 693.86 671.65 694.85 674.47 696.78 675.88 697.74 677.83 697.03 678.22 693.65 678.04 692.88 677.2 690.93 676.51 688.33 676.2 687.22 675.75 685.76 674.39 683.01 674.84 682 674.27 679.62 674.92 678.3 676.63 676.61 677.13 674.44 677.26 672.02 676.49 669.87 678.35 669.65 680.23 668.82 681.84 668.83 683.98 669.33 687.44 669.44 690.54 668.2 694.07 667.76 694.63 665.43 694.99 663.15 695.69 660.87 696.91 659.76 697 654.68 693.6 654.05 692.51 654.51 691.47 652.75 690.92 649.85 688.94 646.78 687.29 645.82 686.46 645.76 684.94 646.61 683.76 643.92 680.95 641.31 676.66 637.68 674.61 636.02 672.96 634.43 673.02 633.31 673.77 631.83 673.8 630.25 673.07 629.54 671.99 626.63 671.63 624.34 671.8 622.48 672.64 622.32 673.29 623.93 678.07 622.86 679.96 620.47 681.81 618.08 682.03 616.87 681.69 614.29 680.21 611.12 678.99 610.31 676.61 610.35 675.71 612.7 672.99 612.59 671.47 610.5 669.58 607.65 667.64 607.44 666.71 609.67 665.01 611.45 663.01 612.76 662.34 614.69 660.13 617.09 658.71 623.47 657.98 627.63 656.74 629.24 656.7 634.8 655.51 635.54 655 637.56 651.9 637.54 650.71 636.83 649.51 634.36 648.59 631.72 647.21 630.89 646.29 630.66 643.99 630.24 643.67 627.99 644.42 626.63 645.28 625.42 645.23 624.12 643.08 622.9 641.91 621.43 641.75 618.74 642.42 618.37 644.07 617.12 645.83 615.25 645.96 612.03 644.32 607.98 644.18 604.61 643.81 601.88 643.16 599.32 643.98 596.74 643.29 594.62 643.18 589.19 644.56 587.96 643.16 589.13 639.06 589.07 637.52 590.59 634.14 590.88 631.56 592.44 630.39 592.99 628.9 596.13 625.33 595.36 623.91 595.02 622.12 594.07 620.62 593 620.27 589.37 620.12 587.44 618.68 583.32 618.64 579.76 617.88 577.55 619.39 576.99 620.51 576.97 622.43 577.61 623.46 582.16 627.73 582.81 628.81 581.7 631.71 580.32 633.16 578.82 632.52 578.57 633.75 576.8 637.28 575.14 638.22 570.4 638.11 569.54 638.49 568.25 641.17 563.63 642.93 561.66 643.02 560.91 642.47 560.01 640.5 557.93 640.09 557.02 640.95 557.11 641.93 558.09 642.99 558.06 643.94 556.74 644.84 555.34 645.2 554.03 644.86 552.41 645.51 552.74 647.48 556.3 648.5 559.58 650.9 559.49 652.04 557.98 651.88 554.38 654.1 554.27 654.77 555.84 660.56 557.76 664.24 558.36 664.91 560.42 665.21 560.16 667.26 560.41 669.42 558.47 670.02 556.24 670.22 552.81 669.63 551.69 668.77 549.14 666.1 547.79 665.78 547 666.77 547.12 670.57 545.91 671.11 544.6 670.57 542.39 668.8 540.66 668.34 539.57 667.49 538.96 666.01 539.01 664.67 543.31 663.65 543.57 662.35 542.58 661.04 538.52 658.72 536.75 657.21 532.39 654.42 529.84 653.68 528.11 654.38 527.88 655.65 530.45 658.91 532.74 662.37 532.4 662.93 529.7 662.83 528.46 661.4 526.53 661.59 525.93 662.64 525.61 664.62 523.46 670.51 523.91 671.96 528.77 668.46 529.25 668.77 528.99 672.34 527.86 674.37 525.91 676.14 526.16 676.84 527.78 676.9 531.22 676.21 536.61 674.19 538.63 672.97 541.64 674.12 544.63 675.98 546.31 677.39 547.21 679.27 546.17 683.27 546.97 685.54 546.51 687.76 544.18 689.43 543.33 689.38 542.23 687.69 542.89 686.29 542.68 685.3 541.47 684.45 536.59 684.03 533.88 684.45 529.52 685.46 526.13 684.78 523.63 685.48 521.92 684.89 520.69 685.07 517.33 688.4 514.53 689.89 512.55 689.75 510.96 689.12 509 687.55 507.28 685.24 508.5 683.36 509.73 682.81 510.02 681.79 508.03 679.9 504.87 677.72 503.1 677.25 500.3 675.21 499.28 672.55 499.3 671.11 498.27 668.83 495.97 667.48 493.34 666.59 491.87 664.18 490.61 663.9 485.74 664.96 483.68 665.63 478.43 665.47 477.34 665.21 474.87 662.84 473.71 660.68 470.7 656.09 470.49 654.58 470.82 652.82 471.72 651.31 473.75 649.22 475.09 648.5 478.62 647.32 480.7 647.05 483.95 646.1 485.67 645.32 486.57 644.41 488.61 643.32 492.07 640.78 493.42 639.5 494.21 638 494.34 635.97 497.81 633.75 499.46 629.93 499.09 627.53 499.18 625.69 500.31 624.84 501.85 626.13 502.9 625.96 503.27 623.19 503.41 620 501.58 617.68 499.79 616.06 498.5 615.98 497.07 618.53 495.41 620.15 493.96 622.43 491.08 624.38 488.67 625.39 485.15 626.4 481.88 627.66 480.94 627.68 476.95 626.69 474.83 625.43 473.53 625.3 470.38 625.7 468.92 625.43 467.11 627.19 464.14 632.01 463.12 632.53 461.38 632.41 457.57 630.81 456.31 630.93 452.95 632.91 450.27 633.87 448.89 633.4 447.45 630.84 446.61 628.51 443.94 625.5 440.85 623.1 439.71 622.58 438.09 620.86 437.32 619.11 436.36 618.35 433.58 618.28 431.14 619.35 429.64 620.63 429.12 621.77 429.04 623.67 427.41 626.04 424.83 626.04 423.41 626.5 420.49 628.27 419.83 629.29 420.44 632.59 420.13 634.18 418.4 636.99 417.08 638.08 415.46 638.02 413.02 636.93 407.58 635.29 406.71 634.57 404.92 629.47 403.93 625.91 402.06 622.87 401.42 622.42 396.59 622.93 394.72 623.85 393.03 626.83 390.37 628.75 390.1 630.26 393.27 634.28 394.76 635.1 397.73 636.15 398.93 637.11 399.27 638.41 399.08 640.17 398.51 641.14 393.82 644.42 390.92 644.64 388.5 643.85 386.91 643.77 386.02 644.27 385.27 646.27 382.38 648.87 380.74 649.58 380.33 650.83 381.86 652.14 387.22 653.66 389.44 653.82 392.63 652.59 394.82 653.14 395.69 655.35 397.44 657.44 397.67 658.29 396.78 660.2 395.22 661.19 392.04 662.65 388.3 663.74 385.53 664.28 382.05 664.21 378.36 663.18 376.48 662.18 374.27 661.48 372.04 661.58 369.24 662.63 365.91 662.91 363.58 661.53 360.31 660.03 358.49 657.76 364.09 654.44 364.49 652.24 366.29 649.82 367.6 648.8 367.73 647.6 366.76 645.76 366.69 643.47 367.64 642.12 367.12 640.21 365.74 639.62 366.36 637.62 364.71 635.08 364.8 633.75 364.35 630.9 364.5 629.42 364.03 627.59 363.01 626 363.27 625.11 361.77 623.99 361.31 622.79 360.05 622.08 358.61 622.06 353.83 620.05 352.98 618.12 351.13 615.91 348.57 613.88 347.42 612.59 345.16 611.96 343.64 610.67 339.92 610.13 339.24 608.11 338.34 607.28 337.66 605.77 336.98 602.31 335.64 599.43 335.39 595.56 334.34 591.8 331.92 592.65 330.49 594 329.63 596.08 326.69 598.71 326.02 601.16 302.47 555.71 271.89 485.91 260.47 459.84 232.36 441.32 231.06 441.98 231.27 444.41 232.76 444.12 234.03 444.98 233.96 446.36 231.85 448.37 230.12 448.69 228.95 449.46 228.13 446.23 226.32 443.05 224.23 440.58 222.57 439.01 220.48 435.91 218.52 435.1 217.01 433.61 216.5 431.71 216.7 430.22 217.86 428.27 220.88 425.29 224.25 423.03 225.61 422.38 229.34 421.62 229.14 420.02 228.5 419.3 228.54 417.69 229.33 417.07 230.36 413.78 230.12 413.04 227.41 412.31 225.85 411.39 224.41 407.11 222.26 405.76 220.35 405.67 219.7 404.76 219.42 401.37 218.36 397.84 217.4 396.62 215.04 395.85 215.16 392.75 217.3 390.6 218.11 387.24 217.41 386.45 216.78 383.97 214.53 381.79 213.27 381 212.23 379.27 210.15 379.33 209.56 376.42 205.94 374.69 205.14 372.25 205.51 370.58 206.55 368.84 206.62 366.92 207.45 364.13 205.84 360.98 181.42 356.37 182.54 353.2 184.78 352.03 186.21 350.77 188.14 348.07 189.14 347.13 191.71 345.62 193.07 344.17 193.9 342.1 194.97 340.69 195.35 337.48 196.32 336.83 194.16 335.34 190.92 334.68 189.29 333.73 186.92 333.02 180.83 329.79 179.61 327.93 179.63 326.72 181.48 323.98 184.36 321.98 188.33 320.52 192.3 317.61 193.64 315.86 194.08 314.12 193.98 312.69 192.47 310.44 190.4 308.97 188.62 308.66 186.27 307.77 183.9 306.34 181.54 306.05 180.59 307.08 180.68 309.52 181.17 311.11 181.5 313.95 180.83 315.89 179.26 317.61 176.59 318.22 175.1 318.04 170.17 315.54 167.97 314.78 165.84 312.74 165.57 310.72 163.27 308.79 164.39 306.39 164.68 304.17 166.52 298.45 167.17 295.78 168.31 292.82 170.17 289.92 171.21 289.37 175.3 288.32 180.11 288.23 181.62 286.91 181.31 285.08 180.07 284.02 177.81 280.87 177.07 279.02 175.31 277.03 173.49 275.98 169.78 272.79 167.46 271.51 162.05 270.3 158.07 269.15 155.49 268.9 154.28 269.14 150.23 267.53 143.67 266.78 141 265.96 139.3 266.7 138.51 269.45 138.52 272.85 139.37 274.61 142.14 278.07 142.65 279.98 142.27 281.02 139.72 281.87 128.73 280.76 125.15 280.75 123 281.18 119.72 283.33 118.02 283.76 116.2 283.29 114.95 282.22 113.95 282.38 111.19 284.3 110.47 285.66 107.2 287.21 101.82 287.39 98.45 286.63 95.22 284.76 92.46 282.44 90.61 281.41 89.27 281.15 88.04 281.57 86.98 283.31 86.75 284.93 87.16 286.85 87.87 287.97 91.97 292.59 93.91 294.45 96.58 297.76 96.31 299.23 93.41 301.79 88.55 304.7 86.58 306.15 82.4 306.82 80.33 306.19 77.98 304.21 75.31 302.45 73.22 299.71 71.98 298.83 68.67 298.69 62.42 295.46 59.52 294.18 59.32 293.1 60.73 292.3 63.16 292.16 70.44 291.17 71.6 290.42 71.9 288.67 71.25 287.2 69.79 286.6 66.04 285.85 64.78 285.04 63.31 283.22 61.15 279.88 60.58 276.54 61.39 275.19 62.77 274.08 63.27 272.95 65.99 269.64 66.87 268.21 66.54 265.96 64.83 262.91 59.02 262.05 57.12 260.75 57.12 259.62 59 256.25 60.92 251.77 61.58 247.8 61.6 245.43 62.69 243.68 63.96 242.8 68.28 241.01 70.39 238.95 71.58 237.34 73.4 232.8 72.38 231.2 69.35 229.54 69.24 228.42 70.63 226.58 70.24 224.95 68.06 224.16 65.09 225.05 62.76 224.25 59.35 221.18 58.14 219.54 56.42 218.25 55.99 216.69 56.46 215.53 57.97 214.86 59.87 210.38 59.89 208.7 59.13 207.6 56.58 205.02 54.85 202.21 54.71 200.68 55.58 198.71 56.47 195.21 56.56 193.67 54.23 190.24 52.48 188.71 49.82 188.06 48.19 186.6 46.94 186.29 45.18 187.54 44.99 191.15 45.36 194.03 45.29 196.71 44.26 197.8 40.27 198.05 39.23 198.39 37.44 200.56 35.43 200.65 31.86 199.79 28.45 198.03 26.45 196.01 25.74 194.13 24.3 192.87 21.36 192.26 12.61 186.38 11.64 184.07 12.03 179.91 12.59 178.76 15.69 174.1 17.44 172.01 19.72 170.2 20.89 170.14 24.47 171.57 28.64 173.79 30.61 174.31 31.75 174.17 33.71 172.95 35.95 170.63 38.62 169.53 41.44 169.78 44.69 171.13 48.35 171.58 50.09 172.11 51.01 171 49.82 169.59 47.87 168.47 45.1 165.36 44.59 163.88 45.67 160.62 46.35 159.43 46.12 156.74 45.55 155.07 43.25 150.79 36.94 148.7 32.75 148.31 31.24 147.35 30.06 144.73 28.67 143.57 27.65 141.05 27.57 137.62 27.9 136.99 28 134.06 28.56 133.25 31.63 130.76 32.81 128.41 32.23 126.78 30.72 125.7 28.86 125.17 26.67 125.63 20.97 124.93 20.02 123.88 19.79 121.23 18.52 119.26 15.97 117.44 15.16 116.18 12.68 115.71 11.32 116.49 7.16 117.36 2.8 117.25 1.39 116.68 1 115.47 2.06 109.7 3.54 107.98 3.98 106.56 6.2 105.87 8.49 106.7 12.18 109.06 16.18 109.58 18.3 109.4 21.87 108.46 25.1 107.33 27.83 105.54 29.97 103.24 33.25 97.55 32.56 95.88 30.16 92.78 25.77 88.8 23.02 88.41 21.87 90.03 20.58 94.43 17.44 96.68 16.07 96.68 15.3 95.76 15.81 93.9 15.17 93.35 10.71 93.29 9.74 93.6 9.24 95.71 8.5 96.62 6.47 96.47 6.05 93.94 6.72 91.8 8.23 89.04 9.27 85.11 10.53 83.28 14.43 81.33 17.64 80.32 19.63 79.37 22.21 77.07 23.12 75.86 23.02 73.12 20.9 70.46 19.11 70.88 18.66 71.6 17.01 72.03 15.45 73.32 13.65 72.73 12.56 71.78 9.12 68.05 8.91 62.2 102.79 89.53 107.38 92.04 108.52 91.9 109.92 88.2 112.98 85.16 112.46 80.66 113.29 79.37 117.7 79.25 119 76.41 119.87 76.59 120.08 74.67 119.22 72.87 117.39 71.42 116.71 69.31 116.34 66.11 116.82 65.44 119.76 64.2 121.39 64.78 121.29 65.94 122.64 66.44 127.57 67.07 132.62 66.55 133.6 66.2 134.57 64.47 135.72 63.71 140.4 65.47 142.23 63.24 142.48 61.75 143.31 61.24 144.89 62.23 146.28 63.65 148.65 63.91 150.73 63.61 152.27 62.33 148.93 59.87 149 57.66 150.25 54.57 151.21 53.65 149.92 51.6 150.23 50.41 154.49 46.94 154.64 45.22 155.42 44.87 158.03 45.2 159.83 44.78 161.1 44.93 162.51 46.44 163.71 46.15 164.25 45.23 166.87 44.99 171.37 45.74 172.55 44.94 172.53 42.62 173.78 40.12 174.12 38.65 172.95 37.84 172.08 36.52 172.63 34.18 174.69 32.57 173.69 30.54 173.61 29.43 175.32 28.36 174.84 26.82 176.51 26.86 177.06 26.25 176.28 24.78 177.77 23.38 178.07 22.1 180.5 22.02 181.65 19.91 182.8 19.76 186.88 18.33 187.48 15.98 189.2 16.51 190.02 16.22 192.61 14.26 195.39 13.12 199 12.69 203.1 10.23 206.15 8.96 210.32 5.29 213.55 3.71 215.54 3.57 221 1.47 222.48 1.2 223.97 1.76 226.2 1 227.12 1.22 230.11 3.24 231.72 3.29 236.05 5.36 239.11 6.04 Z"/>
</g>
</svg>