<?xml version="1.0"?>
<svg xmlns="http://www.w3.org/2000/svg" version="1.2" baseProfile="tiny" width="800" height="661" viewBox="0 0 800 661" stroke-linecap="round" stroke-linejoin="round">
<g id="4219606">
<path d="M 799 40.06 793.9 81.65 788.06 133.91 784.27 164.97 782.84 184.83 779.22 201.31 773.33 234.82 766.93 270.82 764.9 281.02 759.98 312.99 752.81 355.57 749.99 374.1 748.11 390.72 742.62 426.8 740.48 443.79 738.08 457.18 732.98 496.07 723.31 562.66 703.2 563.95 706 572.6 671.29 574.52 671.38 598.18 633.12 599.16 633.43 608.31 519.51 620.23 519.66 634.53 460.11 644.32 460.04 659.45 419.02 660 418.94 653.77 374.03 658.73 374.1 652.07 321.89 657.69 320.67 633.07 165.64 642.52 165.5 655.56 123.46 654.47 122.17 656.84 83.51 655.75 79.42 596.19 77.13 574.92 70.95 489.77 67.59 415.52 25.5 417.69 22.32 348.37 21.56 302.65 18.85 301.67 15.61 301.87 14.35 299.77 13.6 296.37 11.84 295.17 5.69 294.39 1 294.69 4.7 286.85 6.81 281.25 8.37 273.68 9.5 270.95 11.13 269.48 17.49 267.15 33.15 265.18 38.37 263.29 44.48 259.7 52.99 251.85 56.25 247.97 59.99 241.78 60.4 237.6 59.02 230.41 58.81 227.13 59.84 224.42 62.39 222.46 67.13 222.71 68.99 223.41 72.89 226.72 79.33 233.43 83.9 239.15 91.92 250.74 93.91 257.56 96.17 260.28 100.52 262.4 102.73 262.68 107.89 261.75 111.9 259.02 114.76 256.07 116.91 251.21 117.37 243.93 116.63 239.95 114.12 232.82 110.67 227.13 104.81 222.38 103.61 220 104.43 216.41 108.12 211.09 110.5 208.98 121.02 202.68 125.01 199.86 131.45 194.41 138.73 190.46 144.57 188.11 148.47 183.63 151.68 177.74 152.87 168.56 154 167.27 156.28 167.13 159 168.8 162.64 174.14 169.4 181 172.49 188.35 175.69 193.42 179.21 195.55 187.18 195.63 192.94 193.6 194.18 192.12 194.82 189.15 194.24 186.68 191.84 182.11 190.16 177.21 190.11 171.21 191.09 165.72 190.6 164.05 186.25 158.28 181.49 153.6 181.57 150.31 184.03 148.35 191.48 144.65 193.86 143.8 199.43 143 201.31 142.08 205.38 138.41 206.65 136.06 208.24 130.82 211.11 127.84 214.79 128.27 218.88 135.22 222.18 137.85 224.83 138.07 228.03 137.31 233.05 134.44 239.93 132.79 243.8 133.63 245.36 135.81 244.82 138.86 242.57 141.51 242.45 143.8 244.22 146.5 247.09 147.14 251.12 146.76 259.17 144.75 267.03 140.53 273.67 137.93 278.93 137.7 288.71 140.85 290.81 140.01 292.22 136.17 292.13 132.4 291.34 127.43 292.16 122.48 294.37 119.31 300.99 113.1 307.09 106.54 313.92 99.97 317.73 96.76 319.04 94.78 319.66 91.01 316.4 88.84 307.73 88.85 296.08 90.27 294.48 87.72 295.74 82.9 297.25 79.18 301.2 71.74 305.5 62.35 305.64 60.41 304.38 56.66 301.18 51.81 295.74 46.72 293.54 45.61 290.96 45.41 284.82 46.34 281.62 45.07 278.58 41.13 277.85 38.96 277.65 34.12 275.86 26.55 274.76 24.84 276.06 21.44 282.42 21.56 287.01 22.47 293.55 24.49 299.31 27.1 302.78 30.55 307.24 33.64 310.39 34.66 316.24 35.2 323.71 33.4 327.91 31.4 333.8 27.02 338.63 24.5 340.33 21.91 343.86 22.21 349.89 29.22 352.83 38.13 354.29 44.2 358.34 53.48 359.27 56.2 359.27 59.35 357.73 62.24 348.26 66.93 344.06 71.4 340.66 82.2 337.61 83.84 336.87 86.19 338.84 87.46 340.95 106.42 342.05 110.11 343.44 112.37 346.01 114.38 348.83 115.3 356.67 115.49 366.86 114.46 375.74 114.15 381.93 114.45 387 115.82 391.44 118.3 395.81 122.68 402.22 131.17 408.16 136.45 421.37 144.93 434.04 151.18 441.49 154.17 446.29 157.19 452.19 161.49 456.24 162.13 459.92 160.66 460.99 155.56 457.98 147 456.65 141.87 456.78 136.72 457.69 133.41 460.48 127.57 462.02 122.59 462.39 117.84 462.05 114.72 458.61 102.9 458.46 95.53 461.19 89.76 464.27 84.4 469.05 78.06 470.58 74.63 471.26 69.79 472.59 67.87 475.81 66.49 479.43 66.26 484.45 66.77 500.64 70.33 516.08 72.51 518.52 73.3 521.5 75.8 521.78 77.83 520.74 79.44 517.94 81.12 515.13 85.71 513.95 89.29 513.94 91.51 515.03 95.36 516.63 96.99 519.7 98.35 527.93 99.95 538.5 101.38 545.83 102.15 549.27 101.92 552.5 100.94 560.81 96.09 564.44 93.08 570.4 92.24 573.65 90.9 577.47 86.65 578.38 82.98 578.49 79.29 576.1 72.59 573.16 68.32 572.43 65.63 571.99 57.03 573.25 52.74 573.87 43.45 575.59 41.51 580.22 38.17 582.71 36.96 593.39 36.56 596.77 37.69 604.85 44.12 610.97 49.78 621.24 57.34 627.67 64.11 630.51 66.69 633.66 70.55 634.92 73.88 638.81 81.72 640.26 83.85 643.46 91.12 648.02 94.53 651.38 94.86 658.04 94.56 661.25 93.24 664.34 91.14 665.5 89.53 667.78 83.39 668.64 75.7 667.86 69.61 666.89 65.47 666.49 61.29 668.11 56.86 676.55 47.92 682.55 40.9 685.29 38.4 687.82 37.02 688.13 34.13 685.31 31.42 679.79 29.99 675.32 30.15 669.56 29.2 667.46 27.35 667.65 25.22 670.8 23.19 674.71 22.08 679.5 19.94 680.35 18.76 679.98 13.09 680.28 9.65 681.3 6.66 683.98 4.85 687.02 5 689.01 7.17 694.26 10.4 697.52 9.55 704.99 3.38 709.45 1 712.14 2.21 716.48 6.47 722.05 12.71 729.25 17.73 741.3 21.91 746.8 24.71 756.05 28.4 758.16 30.02 759.75 32.35 759.8 34.36 758.64 37.42 758.79 46.4 758.14 47.74 759.29 60.92 761.64 64.91 765.51 65.15 768.78 63.75 773.83 53.3 774.92 52.02 785.52 49.2 794.89 43.06 799 40.06 Z"/>
</g>
</svg>