<?xml version="1.0"?>
<svg xmlns="http://www.w3.org/2000/svg" version="1.2" baseProfile="tiny" width="800" height="720" viewBox="0 0 800 720" stroke-linecap="round" stroke-linejoin="round">
<g id="4219002">
<path d="M 769.83 139.21 766.52 140.4 765.2 141.65 762.73 142.44 757.65 141.9 750.91 143.03 748.64 145.07 748.27 146.74 745.99 152.02 744.12 154.41 743.97 159.72 748.24 161.23 747.51 165.16 743.31 168.98 741.83 170.97 737.81 174.73 736.06 177 733.9 177.64 732.42 182.36 730.96 185.17 728.39 185.32 727.76 187.33 726.17 187.62 724.36 190.21 722.13 191.05 718.6 195.02 717.57 199.34 717.76 200.66 716.63 205.9 714.91 209.46 715.61 212.75 717.03 215.86 717.03 222.2 717.77 224.23 720.1 225.81 722.88 226.82 720.65 228.41 717.64 231.78 712.73 232.21 709.98 231.44 707.76 229.15 704.45 229.02 701.76 227.33 700.35 227.63 697.42 225.66 693.41 225.01 691.47 223.28 690.69 220.26 687.96 219.95 685.76 221.71 684.91 225.65 683.84 232.95 683.93 235.56 683.07 237.8 677.93 239.93 674.63 240.16 668.73 241.31 667.79 242.28 664.14 242.51 659.88 243.9 657.34 243.74 654.18 245.49 648.2 247.42 646.42 249.2 643.67 249.39 641.43 251.51 639.32 254.78 636.11 256.21 634.18 258.32 633.25 261.32 630.86 263.9 630.6 271.19 632.73 273.28 633.37 277.78 635.54 279.47 636.59 281.76 635.38 283.91 636.61 286.58 638.55 288.65 638.81 291.45 637.94 293.2 635.43 294.5 630.6 297.77 624.71 299.66 616.52 303.77 613.1 306.13 608.59 308.16 606.32 308.67 595.14 308.82 594.13 309.46 592.2 312.57 587.98 317.45 585.37 319.64 583.7 320.35 578.25 321.27 575.67 323.65 572.36 325.32 569.47 326.23 567.88 327.48 564.02 328.56 560.61 331.99 557.71 330.75 555.1 331.42 552.16 335.18 552.55 338.1 550.95 340.76 550.47 343.29 551.59 346.2 550.89 348.72 549.65 349.41 549.02 351.61 549.69 355.07 549.02 357.49 546.96 359.35 544.13 363.02 543.8 366.09 541.64 366.56 539.65 368.02 538.74 369.87 537.16 370.92 531.6 372.48 530.24 373.5 528.63 377.45 527.53 378.57 523.35 380.78 522.58 384.35 521.57 386.28 521.78 395.11 520.33 397.38 516.49 397.26 514.07 400.01 513.17 403.38 514.31 405.98 518.91 408.1 517.2 412.83 519.39 416.93 522.22 415.31 523.6 418.85 523.66 422.45 525.11 424.8 524.86 427 525.65 432.45 526.92 434.73 526.85 438.37 527.31 440.59 530.17 442.78 530.54 444.66 538.61 444.63 545.25 444.96 547.29 445.52 550.38 447.94 551.57 450.67 550.16 454.75 552.24 459.5 555.36 462.1 560.87 462.39 557.94 464.14 587.49 492.91 585.62 494.29 601.9 510.84 610.09 503.43 622.86 517.59 637.38 511.19 657.42 524.73 650.89 533.01 649.32 537.59 649.05 540.11 651.29 543.51 653.6 545.79 654.78 548.62 655.99 549.17 657.05 551.34 656.7 553.79 654.98 556.86 652.38 559.86 649.46 561.94 646.38 565.18 641.12 568.73 639.88 570.18 639.86 578.65 638.18 587.03 639.76 587.98 639.57 590.32 641.38 592.89 643.48 593.35 645.99 592.19 647.63 592.15 649.9 594.44 653.51 595.92 655.9 600.29 658.48 603.95 658.44 610.22 659.98 613.85 658.32 616.05 658.88 618.53 658.91 622.68 662.47 624.75 661.47 627.8 662.97 628.75 662.44 637.36 663.47 639.45 629.91 662.19 630.72 669.69 629.58 671.67 626.94 673.76 626.34 675.26 626.86 677.47 623.77 679.56 624.47 681.17 627.61 681.25 624.67 683.31 626.4 686.32 628.36 686.88 632.51 686.36 630.16 689.82 631.72 692.78 635.51 693.42 637.17 697.03 637.71 700.04 638.91 701.93 641.15 702.9 646.23 702.96 647.3 703.51 646.89 705.72 649.1 706.81 648.64 708.66 651.69 710.32 652.86 712.13 653.35 715.03 652.1 719 649.55 713.44 647.23 710.21 643.75 708.22 639.34 707.52 637.7 706.33 631.25 703.71 628.8 703.34 625.85 704.48 621.71 705.25 616.92 704.87 608.74 707.31 606.08 709.77 602.42 711.9 600.57 712.31 595.51 710.84 592.15 710.42 591.05 712.12 588.72 712.23 588.64 710.87 585.12 709.78 582.93 710.66 580.26 710.9 577.4 713.19 575.07 712.71 571.04 710.98 567.28 710.96 565.68 708.75 561.83 701.58 562 698.54 560.65 696.01 558.4 693.51 556.25 692.14 552.63 691.75 550.74 693.24 547.85 693.82 542.29 692.8 539.85 691.86 536.16 691.31 534.85 690.41 534.33 688.45 531.17 687.07 529.26 685.35 522.48 684.55 520.76 684.75 517.22 683.67 514.82 684.4 511.87 680.45 508.31 681.66 506.84 682.82 503.33 683.78 501.43 683.56 499.95 681.33 497.14 680.2 495.28 678.6 494.18 679.88 488.02 676.02 486.26 675.68 484.01 676.35 481.88 674 479.02 672.72 477.02 669.69 474.82 668.98 472.08 668.92 467.39 666.98 462.51 668.66 458.77 662.9 456.72 663.31 455.11 660.5 454.35 658.04 453.87 651.31 452.07 648.59 449.44 649.13 446.89 648.3 443.34 645.48 440.42 641.33 435.87 638.13 431.18 637.02 430.77 634.98 424.25 628.1 420.04 630.79 418.49 634.11 416.19 634.34 413.89 633.33 408.34 632.44 405.88 634.69 404.5 635.03 401.5 633.63 398.57 632.93 398.74 630.99 396.82 631.28 396.31 632.89 393.59 632.98 387.83 635.61 380.7 636.23 376.73 635.12 370.42 637.31 368.59 638.58 365.75 639 362.35 638.02 359.27 639.71 355.31 640.2 352.49 641.35 346.26 642.74 344.34 642.52 341.27 640.47 341.16 636.82 336.69 636.94 330.36 636.02 327.41 634.83 322.67 634.03 318.64 634.76 314.53 634.09 312.77 632.93 309.16 631.82 308.3 627.36 305.51 624.81 303.36 624.07 298.9 624.4 294.5 623.41 292.48 621.33 289.54 621.06 283.74 622.77 280.44 626.58 278.31 627.88 274.42 628.61 272.96 629.81 271.16 632.51 269.64 633.56 265.89 633.7 262.4 636.69 257.64 638.1 254.46 643.02 247.83 646.58 243.1 649.53 241.25 649.72 239.3 653.72 235 667.94 232.96 669 225.84 670.43 220.76 673.26 215.9 673.06 210.13 673.55 208.12 674.42 204.76 674.4 203.11 673.2 200.27 672.69 194.08 672.52 190.22 672.98 187.64 674.45 185.62 676.45 181.1 677.19 179.39 676.32 176.72 676.25 172.64 677.53 167.97 678.2 166.07 681.6 162.75 683.59 160.99 683.92 157.9 685.77 157.45 682.36 156.1 679.21 153.98 676.9 152.44 671.69 149.84 669.77 146.99 660.61 144.54 657.06 146.24 655.5 145.21 654.55 141.56 653.53 143.58 650.51 149.7 647.39 150.33 642.8 149.04 641.09 149.6 634.53 150.91 632.08 151.55 628.63 155.23 625.4 150.51 621.65 145.03 617.84 143.16 613.49 141.9 609.57 142.08 608.14 144.15 605.17 144.44 601.25 143.26 597.96 142.3 596.99 137.76 594.58 132.07 593.33 130.72 591.23 130.67 587.39 129.99 585.93 127.72 584.29 122.97 583.76 122.68 580.44 115.76 577.11 112.67 573.96 110.45 570.56 107.82 568.17 102.84 564.79 99.21 559.81 99.5 557.84 98.84 554.79 98.31 549.51 97.66 546.66 97.8 544.14 96.38 541.81 93.99 536 93.92 534.62 96.38 531.42 96.25 529.27 97.2 525.61 96.91 522.21 98.24 517.59 101.26 512.64 102.63 508.1 101.83 504.68 102.17 503.37 104.97 502.55 105.35 500.42 101.94 496.56 101.02 492.87 98.87 491.66 98.69 490.08 100.81 486.25 100.69 483.55 97.33 481.57 95.34 481.52 91.67 482.77 86.95 482 80.66 483.19 75.24 483.57 68.09 540.53 23.62 541 23.32 525.34 23.94 468.15 24.13 467.2 24.42 423.86 7.78 423.99 7.51 375.81 6.96 278.57 1.8 278.61 1 236.22 4.78 237.13 7.29 239.23 9.38 239.52 11.98 243.43 14.34 243.83 16.2 240.34 19.58 237.36 23.81 237.93 29.03 239.67 33.41 244.73 35.75 246.34 38.06 246.73 42.19 244.22 45.06 245.52 49.28 249.12 53.98 254.24 57.21 255.25 62.2 255.07 64.83 253.53 66.85 251.51 69.53 246.56 74.53 245.74 83.41 246.41 88.41 248.19 92.41 246.99 93.44 245.68 105.81 252.93 108.29 253.21 111.7 256.32 112.51 258.23 114.56 257.88 118.03 253.31 120.52 252.16 125.79 253.31 127.87 252.76 129.55 251.23 133.36 249.27 135.74 247.2 142.07 245.89 142.36 244.12 146.39 238.61 150.35 236.37 156.17 237.37 158.67 235.7 162.83 234.7 165.16 232.32 166.65 231.84 167.64 229.28 171.15 226.43 175.9 225.87 175.87 223.88 177.46 220.76 177.17 218.49 179.43 216.86 180.67 213.64 183.97 212.5 185.4 210.7 188.9 209.08 190.82 206.2 192.77 204.58 194 198.4 188.72 194.73 193.97 190.32 192.22 188.65 192.18 185.7 189.77 182.96 190.75 181.24 192.16 180.97 194.16 182.34 195.6 181.51 195.34 179.93 196.21 177.66 199.79 178.81 203.86 176.42 206.22 173.48 207.65 170.77 207.63 166.7 208.28 165.47 211.02 163.17 213.07 162.96 218.6 159.97 223.36 158.43 226.34 156.55 227.69 153.45 229.09 147.44 229.89 146.04 231.17 141.19 230.63 135.61 227.07 131.23 227.16 128.81 228.19 125.77 227.38 123.61 225.84 122.09 224.64 117.01 222.68 115.36 222.62 114.06 226.21 110 225.97 108.09 228.88 107.07 230.25 105.31 232.08 104.33 231.28 99.67 232.97 98.45 231.78 94.9 234.46 94.35 235.98 91.78 238.38 91.11 240.61 89.28 238.65 83.73 236.53 82.26 235.6 79.12 237.1 70.72 238.95 71.93 240.16 69.61 242.48 71.98 243.43 70.1 240.16 63.98 240.43 62.21 243.33 60.69 244.69 62.37 244.85 65.22 245.82 66.74 249.37 68.25 252.35 68.24 256.5 70.69 257.5 71.93 258.23 76.03 256.36 77.13 257.4 79.22 263 78.15 265.07 75.49 263.93 73.83 264.08 71.28 265.92 70.66 267.91 72.08 267.64 73.75 268.2 81.71 271.54 81.16 270.95 78.04 272.73 75.65 277.46 75.64 280.15 77.98 280.51 79.46 279.01 85.85 281.66 86.23 284.12 83.94 286.54 83.82 293.15 84.96 298.98 85.17 305.06 84.71 306.44 81.49 307.83 80.75 311.12 82.41 312.09 87.76 313.7 90.99 315.86 93.57 317.95 94.99 320.37 95.75 322.32 95.12 328.01 89.34 329.52 91.46 330.16 94.61 332.39 96.6 335.65 98.39 336.86 97.82 335.59 94.05 335.53 88.11 344.81 83.57 347.68 80.36 349.47 80.19 350.95 81.86 353.71 81.93 353.76 79.12 356.14 76.92 361.62 74.86 361.77 72.46 367.55 68.5 368.31 63.74 370.01 60.98 372.58 60.02 377.1 60.58 378.17 59.92 377.12 58.03 375.29 56.72 372.53 55.78 368.4 53.55 367.1 51.77 367.98 47.78 370.75 41.83 372.71 40.79 376.21 40.22 379.67 40.88 381.15 40.44 383.12 37.69 385.08 36.94 391.46 40.86 393.86 40.35 394.22 35.43 396.09 31.6 397.02 31.39 401.3 35.31 402.23 37.26 404.57 37.27 406.79 36.06 412.05 37.3 416.72 38.79 418.04 37.39 415.62 32.85 415.79 30.27 417.36 30.45 424.28 33.41 428.38 33.92 429.73 29.06 432.52 26.96 437.77 24.9 437.72 26.55 435.05 29.58 433.23 33.5 433.61 35.53 431.67 38.9 432.44 39.95 435.78 41.42 441.23 43.1 443.65 42.65 446.68 38.07 446.74 35.19 444.78 30.92 446.66 30.3 452.05 30.01 455.07 29.51 459.42 29.91 460.34 28.69 460.15 25.04 465.51 20.48 465.85 19.7 463.54 17.34 464.28 15.86 466.81 14.55 469.51 14.57 470.4 16.52 468.16 19.9 468.95 22.06 470.41 21.78 472.08 18.95 475.38 23.03 475.19 25.94 476.36 27.55 477.46 22.94 480.28 18.42 486.38 18.52 490.46 19.18 491.25 17 487.15 10.72 487.66 10.14 494.28 7.86 498.93 5.06 504.21 7.86 509.24 7.25 511.67 5.43 511.18 3.97 512.73 2.94 515.69 2.51 520.35 1 520.93 1.64 517.42 7.14 518.54 9.96 517.13 14.61 517.03 16.48 519.22 19.69 518.88 20.86 516.37 23.45 513.47 24.86 510.11 25.05 508.73 25.94 508.54 27.94 511.23 29.06 513.07 31.77 515.53 31.53 516.15 29.92 519.83 29.12 524.04 30.05 526.31 28.71 529.47 30.04 533.01 30.05 530.75 33.03 530.07 34.91 528.23 35.28 527.41 37.34 525.15 36.82 523.95 38.73 524.68 40.88 522.95 41.58 521.31 40.21 519.2 40.26 518.85 41.55 522.51 42.11 519.42 45.98 519.4 47.8 521.65 48.84 519.5 50.47 521.69 53.32 522.38 50.59 524.65 50.9 526.89 54.91 524.45 56.08 525.14 58.86 524.26 60.9 520.15 63.89 520.91 65.13 524.22 65.6 525.82 66.71 527.52 69.08 532.43 68.61 533.87 67.25 539.08 65.2 543.98 65.84 545.68 67.16 544.45 68.7 542.02 69.81 537.89 72.83 538.79 73.85 542.14 71.76 544.89 71.99 547.35 73.5 550.01 75.88 551.52 76.26 553.83 78.45 556.65 78.44 559.52 79.3 560.34 81.98 561.65 82.33 562.61 80.25 560.18 77.35 563.31 76.4 566.23 73.65 567.35 73.22 570.37 76.79 574.06 77.75 576.77 74.84 578.67 76.08 578.46 79.76 579.66 81.6 586.66 82.02 590.01 83.87 591.62 83.98 594.04 81.54 596.7 81.97 602.18 82.14 603.85 82.69 604.42 85.75 607.11 88.29 608.63 91.2 612.77 92.29 615.18 91.79 618.88 93.44 622.99 94.71 626.3 96.39 627.95 96.14 626.15 92.91 626.39 90.11 624.05 88.15 624.13 85.22 625.69 81.91 628.21 80.12 630.92 80.15 633.02 81.86 633.6 85.4 643.25 89.46 649.39 89.99 653.49 88.09 657.95 88.9 662.93 88.27 666.65 86.83 669.27 86.8 675.46 89.63 678.87 90.04 678.49 86.64 677.15 84.16 677.69 79.77 678.9 76.45 680.61 74.03 681.83 70.4 683.36 69.39 687.28 68.93 691.84 67.59 701.43 66.71 703.43 67.13 706.77 66.67 707.36 67.87 705.68 75.63 703.07 79.37 701.51 83.44 702.63 84.71 705.24 84.2 704.36 86.59 705.85 86.91 707.02 85.48 709.44 85.4 712.89 86.89 713.21 88.89 715.63 89.38 718.78 86.11 717.89 81.76 718.88 80.59 722.89 79.73 725.92 79.75 729.11 78.27 733.29 79.62 735.66 79.47 739.24 80.74 741.41 84.58 742.49 85.35 748.09 85 753.53 83.79 758.16 83.82 761.56 86.79 763.63 91.43 763.68 95.96 765.2 96.96 765.89 100.44 767.8 102.89 770.81 103.14 774.99 102.61 776.96 102.8 781.18 101.95 789.73 98.47 795.5 98.31 798.87 100.95 799 104.21 797.55 107.72 795.94 109.66 794.1 113.55 790.46 116.36 787.25 117.35 775.22 117.3 770.17 118.5 769.16 126.04 770.34 128.28 769.78 133.68 768.57 136.88 769.83 139.21 Z"/>
</g>
</svg>