<?xml version="1.0"?>
<svg xmlns="http://www.w3.org/2000/svg" version="1.2" baseProfile="tiny" width="800" height="644" viewBox="0 0 800 644" stroke-linecap="round" stroke-linejoin="round">
<g id="4220000">
<path d="M 701.71 43.58 696.14 49.5 693.56 53.4 692.75 57.68 695.51 65.04 695.71 70.52 694.49 76.33 690.4 81.49 687.72 86.02 685.92 91.68 688.23 98.78 690.32 101.72 695.33 105.76 725.28 123.96 731.25 128.44 740.1 133.21 760.64 142.56 772.34 145.91 777.18 146.92 784.04 150.07 788.25 155.68 791.59 161.41 793.83 168.26 797.5 173.75 798.95 177.89 799 182.51 798.05 187.67 796.51 189.54 796.26 193.38 793.76 197.35 789.66 201.38 784.19 205.67 768.39 216.72 757.89 224.71 754.12 226.91 752.73 228.83 747.83 231.09 746.45 233.55 741.24 236.65 733.68 242.27 731.69 244.61 727.83 245.9 720.94 250.92 718.77 253.77 714.31 256.93 709.48 259.02 706.67 261.73 704.73 261.79 697.23 267.61 689.77 274.05 684.73 277.27 677.65 285.18 675.06 285.9 671.97 289.67 666.67 292.59 662.57 296.88 655.75 301.41 649.99 306.39 647.66 306.97 645.3 309.72 634.71 315.97 628.27 321.01 625.55 323.9 622.58 324.29 618.04 328.51 615.64 328.71 613.86 331.02 590.9 348.96 584.77 351.4 581.25 355.77 569.49 363.61 567.07 365.8 561.26 368.84 557.66 372.37 555.2 372.7 550.62 377.41 546.48 379.32 540.04 385.86 534.47 388.57 532.04 391.91 529.52 392.64 527.78 395.28 523.65 398.85 518.68 401.01 515.38 404.94 508.43 408.39 505.79 411.84 503.52 412.5 494.96 420.55 487.96 424.83 483.41 429.17 480.67 429.15 479.73 431.89 475.26 433.76 472.78 437.38 469.5 438.43 465.49 443.57 457.96 447.79 453.53 452.29 448.39 455.29 447.44 457.35 443.42 460.49 441.41 460.8 439.4 464.01 435.66 465.98 430.56 471.58 426.85 472.76 418.15 480.87 407.48 488.83 401.86 494.16 398.56 496.55 395.56 500.77 391.94 502.64 385.72 509.37 378.46 515.34 376.07 515.81 372.5 519.96 369.83 520.77 369.84 523.06 365.86 524.46 364.41 527.88 361.82 529.17 359.04 532.57 345.34 543.37 339.5 546.91 326.03 556.95 319.53 562.42 314.92 565.49 311.32 569.79 306.81 573.44 304.15 574.69 299.86 579.17 285.37 591.81 280.25 594.11 277.79 597.09 266.07 606.03 259.17 610.65 258.04 613.04 255.26 613.87 252.5 617.17 250.62 617.46 246.54 622.17 243.17 624.6 234.46 633.31 232.33 634.28 228.49 639.36 225.86 640.21 223.13 643 128.86 599.47 1 540.43 18.43 524.13 52.79 506.67 72.8 497.52 60.37 484.79 83.42 480.28 97.28 473.79 102.97 473.03 110.94 465.57 117.89 461.45 121.23 458.36 127.15 454.51 127.15 452.45 130.49 449.62 136.92 450.9 146.95 445.24 153.12 442.67 155.95 439.84 156.46 437.01 162.12 433.41 167.52 428.27 168.55 425.44 167.26 424.15 167.01 419.78 170.87 416.95 174.72 412.06 179.09 411.55 180.38 408.36 179.87 398.2 180.12 393.28 181.15 392.25 181.41 386.85 179.61 384.02 175.75 383.51 176.01 380.42 180.12 376.05 180.64 371.68 184.75 370.13 190.41 370.9 195.04 369.62 201.47 369.87 209.96 367.82 213.81 358.81 216.64 357.53 218.96 352.64 225.9 351.35 230.53 346.72 232.33 343.12 237.99 339.52 240.05 339.26 243.13 334.89 245.7 332.83 245.19 327.95 247.76 324.34 249.82 315.08 250.85 313.28 255.48 312.51 255.73 308.53 253.68 305.82 256.76 305.05 260.11 306.08 267.56 306.08 270.13 307.16 272.96 303.77 275.02 296.56 275.02 292.45 281.19 290.39 285.31 291.42 288.91 287.56 293.02 284.99 293.28 281.39 297.14 279.84 318.74 268.78 317.97 259.01 325.17 248.97 342.92 232.25 351.15 231.74 353.72 229.94 354.75 225.05 365.29 221.19 370.95 216.05 378.15 214.51 381.49 209.87 386.38 209.1 388.44 207.56 392.55 207.82 399.75 202.93 406.25 201.22 418.24 196.5 428.18 189.18 432.21 182.66 441.14 169.35 443.89 166.74 442.35 156.89 441.93 151.44 446.26 149.87 453.59 149.68 459.77 151.71 463.52 150.41 467.79 144.39 471.52 141.71 474.05 138.15 476.6 131.44 475.51 123.32 476.59 120.67 475.95 111.93 481.8 108.02 487.16 100.64 495.4 93.95 495.78 91.46 493.37 85.42 494.1 80.42 491.45 75.53 490.54 70.8 492.7 57.17 495.72 53.82 504.19 47.37 512.86 44.8 518.62 44.53 520.85 42.65 532.55 37.84 534.63 35.76 538.45 29.14 543.05 30.51 547.33 34.11 550.78 36.04 558.38 37.97 566.25 38.11 570.12 35.49 571.91 31.21 575.09 30.38 578.82 34.66 584.07 35.76 587.93 35.21 593.91 27.03 604.56 22.85 610.18 25.09 620.93 25.01 625.39 18.6 631.78 16.89 634.63 14.81 644.55 4.68 652.64 1 661.58 2.06 664.29 1.43 667.75 2.2 671.34 4.68 676.18 11.04 678.94 16.84 681.3 25.21 685.17 30.51 701.71 43.58 Z"/>
</g>
</svg>